<?xml version="1.0" encoding="UTF-8" standalone="no"?>
<svg width="17px" height="20px" viewBox="0 0 17 20" version="1.1" xmlns="http://www.w3.org/2000/svg" xmlns:xlink="http://www.w3.org/1999/xlink">
    <!-- Generator: Sketch 3.8.1 (29687) - http://www.bohemiancoding.com/sketch -->
    <title>9gag [#152]</title>
    <desc>Created with Sketch.</desc>
    <defs></defs>
    <g id="Page-1" stroke="none" stroke-width="1" fill="none" fill-rule="evenodd">
        <g id="Dribbble-Dark-Preview" transform="translate(-141.000000, -7519.000000)" fill="#FFFFFF">
            <g id="icons" transform="translate(56.000000, 160.000000)">
                <path d="M90.0540541,7365.004 C91.202215,7365.695 92.3620818,7366.367 93.5131692,7367.053 C94.6720606,7366.371 95.8299765,7365.688 96.9917943,7365.008 C95.8299765,7364.331 94.6740116,7363.645 93.5131692,7362.966 C92.3591553,7363.643 91.2109944,7364.331 90.0540541,7365.004 M85.0292649,7364.001 C87.857233,7362.331 90.6852011,7360.664 93.5151202,7359 C96.3430883,7360.665 99.1749584,7362.325 101.999025,7363.996 C101.995123,7367.335 101.994147,7370.674 102,7374.014 C99.1769094,7375.688 96.3411373,7377.336 93.5131692,7379 C90.6773971,7377.322 87.8269926,7375.671 85,7373.979 C86.1276754,7373.32 87.2543754,7372.66 88.3849773,7372.006 C90.0940495,7373.016 91.8079991,7374.02 93.5131692,7375.037 C95.2154129,7374.012 96.9391175,7373.028 98.6345326,7371.993 C98.6199002,7370.657 98.6335571,7369.321 98.6267286,7367.985 C96.924485,7368.998 95.2183394,7370.008 93.5131692,7371.017 C90.6832501,7369.366 87.861135,7367.698 85.0302404,7366.045 C85.0302404,7365.363 85.0312159,7364.682 85.0292649,7364.001" id="9gag-[#152]"></path>
            </g>
        </g>
    </g>
</svg>