<?xml version="1.0" encoding="UTF-8" standalone="no"?>
<svg width="20px" height="9px" viewBox="0 0 20 9" version="1.1" xmlns="http://www.w3.org/2000/svg" xmlns:xlink="http://www.w3.org/1999/xlink">
    <!-- Generator: Sketch 3.8.1 (29687) - http://www.bohemiancoding.com/sketch -->
    <title>activity [#985]</title>
    <desc>Created with Sketch.</desc>
    <defs></defs>
    <g id="Page-1" stroke="none" stroke-width="1" fill="none" fill-rule="evenodd">
        <g id="Dribbble-Dark-Preview" transform="translate(-260.000000, -3845.000000)" fill="#FFFFFF">
            <g id="icons" transform="translate(56.000000, 160.000000)">
                <path d="M216.512,3685 L210.796,3690.79 L208.051,3688.155 L208.044,3688.162 L208.038,3688.156 L204,3692.386 L205.453,3693.8 L208.115,3691.033 L210.859,3693.653 L216.512,3687.885 L219.252,3690.66 C219.545,3690.028 220.046,3689.514 220.666,3689.208 L216.512,3685 Z M224,3691.96 C224,3693.087 223.098,3694 221.986,3694 C220.874,3694 219.973,3693.087 219.973,3691.96 C219.973,3690.833 220.874,3689.92 221.986,3689.92 C223.098,3689.92 224,3690.833 224,3691.96 L224,3691.96 Z" id="activity-[#985]"></path>
            </g>
        </g>
    </g>
</svg>