<?xml version="1.0" encoding="UTF-8" standalone="no"?>
<svg width="20px" height="15px" viewBox="0 0 20 15" version="1.1" xmlns="http://www.w3.org/2000/svg" xmlns:xlink="http://www.w3.org/1999/xlink">
    <!-- Generator: Sketch 3.8.1 (29687) - http://www.bohemiancoding.com/sketch -->
    <title>adobe_cloud [#131]</title>
    <desc>Created with Sketch.</desc>
    <defs></defs>
    <g id="Page-1" stroke="none" stroke-width="1" fill="none" fill-rule="evenodd">
        <g id="Dribbble-Dark-Preview" transform="translate(-180.000000, -7602.000000)" fill="#FFFFFF">
            <g id="icons" transform="translate(56.000000, 160.000000)">
                <path d="M132.304608,7455.57278 C132.098266,7455.37843 131.326987,7454.63871 130.967391,7454.28563 C130.887258,7454.20728 130.813135,7454.16862 130.699947,7454.17167 C127.403481,7454.25307 126.17845,7451.40609 126.957742,7449.35174 C127.554732,7447.77664 129.208474,7446.81815 130.838176,7447.11424 C132.206445,7447.3615 132.549013,7447.9079 134.689562,7450.10571 C135.281544,7450.71418 136.260167,7449.80453 135.637134,7449.1635 C134.956004,7448.46346 134.290901,7447.74408 133.582727,7447.07354 C132.207447,7445.77113 130.586759,7445.38346 128.794788,7445.93801 C126.383791,7446.6818 124.97245,7449.21031 125.523364,7451.70625 C126.025196,7453.98038 127.982441,7455.57583 130.27324,7455.57787 C130.44252,7455.57787 132.135327,7455.58194 132.304608,7455.57278 M132.799428,7444.82384 C132.811448,7444.84012 132.814453,7444.84724 132.819462,7444.85029 C133.232146,7445.05583 133.623795,7445.29901 133.996413,7445.57272 C134.019451,7445.59002 134.077548,7445.5829 134.106596,7445.56458 C136.146979,7444.25098 138.77133,7444.70377 140.255792,7446.64009 C141.806363,7448.65984 141.33458,7451.20666 140.051453,7452.64541 C138.095209,7454.83712 135.067188,7454.61022 133.370375,7452.86926 C132.453855,7451.92909 131.531326,7450.99501 130.612803,7450.05687 C129.890605,7449.32122 128.958059,7450.34788 129.61014,7451.0001 C132.877558,7454.25714 133.423463,7455.22886 135.740305,7455.54124 C137.783693,7455.81494 139.816063,7455.08539 141.212378,7453.37395 C143.130558,7451.01842 142.972296,7447.64335 141.120225,7445.52999 C138.714236,7442.78577 135.043149,7442.91296 132.799428,7444.82384 M144,7449.15943 C144,7453.17655 141.585997,7456.48141 136.963332,7456.9983 C136.456492,7456.9983 130.314308,7457.00848 129.818486,7456.97897 C123.637236,7456.58316 121.640926,7447.86415 127.491627,7444.88997 C128.557395,7444.34764 129.811474,7444.1187 131.189759,7444.30592 C131.227822,7444.31203 131.281912,7444.29473 131.308957,7444.26726 C135.413763,7440.00696 143.231726,7441.81303 144,7449.15943" id="adobe_cloud-[#131]"></path>
            </g>
        </g>
    </g>
</svg>