<?xml version="1.0" encoding="UTF-8" standalone="no"?>
<svg width="18px" height="20px" viewBox="0 0 18 20" version="1.1" xmlns="http://www.w3.org/2000/svg" xmlns:xlink="http://www.w3.org/1999/xlink">
    <!-- Generator: Sketch 3.8.1 (29687) - http://www.bohemiancoding.com/sketch -->
    <title>airbnb [#179]</title>
    <desc>Created with Sketch.</desc>
    <defs></defs>
    <g id="Page-1" stroke="none" stroke-width="1" fill="none" fill-rule="evenodd">
        <g id="Dribbble-Dark-Preview" transform="translate(-261.000000, -7399.000000)" fill="#FFFFFF">
            <g id="icons" transform="translate(56.000000, 160.000000)">
                <path d="M219.770353,7256.58451 C218.225353,7257.4867 216.591353,7256.27747 215.381353,7254.95558 C216.484353,7253.46124 217.537353,7251.64689 217.594353,7249.79167 C217.642353,7248.02816 216.690353,7246.67637 215.284353,7246.16297 C214.541353,7245.88783 213.713353,7245.86191 212.952353,7246.08621 C211.551353,7246.49893 210.547353,7247.71414 210.427353,7249.28525 C210.262353,7251.27006 211.430353,7253.35756 212.626353,7254.95459 C211.920353,7255.73715 210.963353,7256.59348 209.927353,7256.82476 C208.126353,7257.24944 206.591353,7255.54375 207.196353,7253.68355 C207.507353,7252.7365 212.316353,7242.06773 213.133353,7241.42174 C213.626353,7241.02099 214.408353,7241.01202 214.920353,7241.46062 C215.671353,7242.1086 220.592353,7252.87506 220.853353,7253.83109 C221.159353,7254.96157 220.667353,7256.07011 219.770353,7256.58451 M214.002353,7253.23096 C213.584353,7252.62484 213.216353,7252.0277 212.919353,7251.34383 C212.484353,7250.326 212.198353,7248.98717 213.117353,7248.37608 C213.702353,7247.9843 214.529353,7248.03414 215.045353,7248.4987 C215.696353,7249.0749 215.533353,7250.14058 215.238353,7250.96103 C214.923353,7251.81836 214.449353,7252.59294 214.002353,7253.23096 M216.416353,7239.97126 C215.065353,7238.63143 212.829353,7238.71417 211.564353,7239.99518 C210.419353,7241.12267 205.250353,7252.2859 205.050353,7253.77626 C204.629353,7256.63336 206.908353,7259.16148 209.641353,7258.97407 C211.381353,7258.87936 212.807353,7257.80272 214.003353,7256.53566 C216.048353,7258.71388 218.673353,7259.8623 221.041353,7258.22839 C222.263353,7257.392 223.027353,7255.93753 223.002353,7254.3724 C222.979353,7252.30085 217.366353,7240.88342 216.416353,7239.97126" id="airbnb-[#179]"></path>
            </g>
        </g>
    </g>
</svg>