<?xml version="1.0" encoding="UTF-8" standalone="no"?>
<svg width="21px" height="20px" viewBox="0 0 21 20" version="1.1" xmlns="http://www.w3.org/2000/svg" xmlns:xlink="http://www.w3.org/1999/xlink">
    <!-- Generator: Sketch 3.8.1 (29687) - http://www.bohemiancoding.com/sketch -->
    <title>airplane_mode_off [#1407]</title>
    <desc>Created with Sketch.</desc>
    <defs></defs>
    <g id="Page-1" stroke="none" stroke-width="1" fill="none" fill-rule="evenodd">
        <g id="Dribbble-Dark-Preview" transform="translate(-179.000000, -680.000000)" fill="#FFFFFF">
            <g id="icons" transform="translate(56.000000, 160.000000)">
                <path d="M125.227313,520.70675 C124.816763,520.31575 124.152113,520.31575 123.742613,520.70675 C123.332063,521.09775 123.332063,521.73075 123.742613,522.12075 L141.756413,539.27675 C142.165913,539.66775 142.830563,539.66775 143.241113,539.27675 C143.650613,538.88675 143.650613,538.25375 143.241113,537.86275 L125.227313,520.70675 Z M137.185763,538.76075 C137.510213,539.51075 138.276713,539.99975 139.127213,539.99975 L139.127213,539.99975 C139.257413,539.99975 139.373963,539.96875 139.498913,539.95475 L136.444463,537.04575 L137.185763,538.76075 Z M133.500262,534.24175 L132.015562,532.82775 L128.504362,536.17075 L127.019662,534.75675 L130.529812,531.41375 L129.045112,529.99975 L126.277312,532.63575 C125.866762,533.02575 125.202112,533.02575 124.792612,532.63575 L124.792612,532.63575 C124.382062,532.24475 123.717412,532.24475 123.307912,532.63575 L123.307912,532.63575 C122.897362,533.02575 122.897362,533.65975 123.307912,534.04975 C127.422862,537.96875 128.293312,538.79875 129.246713,539.70675 C129.657263,540.09775 130.321912,540.09775 130.732462,539.70675 L130.732462,539.70675 C131.141962,539.31575 131.141962,538.68275 130.732462,538.29275 L130.732462,538.29275 C130.321912,537.90175 130.321912,537.26875 130.732462,536.87875 L133.500262,534.24175 Z M139.672163,522.70675 C140.082713,522.31575 140.747363,522.31575 141.157913,522.70675 C141.567413,523.09775 141.567413,523.73075 141.157913,524.12075 L136.469663,528.58575 L140.891213,532.79675 L139.180763,528.83175 L143.384963,524.82775 C144.205013,524.04675 144.205013,522.78075 143.384963,521.99975 L141.900263,520.58575 C141.080213,519.80475 139.749863,519.80475 138.929813,520.58575 L134.725613,524.58975 L130.563413,522.95975 L134.984963,527.17175 L139.672163,522.70675 Z M123.000263,524.63975 C123.000263,524.51675 123.032813,524.40475 123.046463,524.28675 L126.100913,527.19575 L124.300163,526.48875 C123.513713,526.18075 123.000263,525.45075 123.000263,524.63975 L123.000263,524.63975 Z" id="airplane_mode_off-[#1407]"></path>
            </g>
        </g>
    </g>
</svg>