<?xml version="1.0" encoding="UTF-8" standalone="no"?>
<svg width="21px" height="20px" viewBox="0 0 21 20" version="1.1" xmlns="http://www.w3.org/2000/svg" xmlns:xlink="http://www.w3.org/1999/xlink">
    <!-- Generator: Sketch 3.8.1 (29687) - http://www.bohemiancoding.com/sketch -->
    <title>airplane_mode [#1406]</title>
    <desc>Created with Sketch.</desc>
    <defs></defs>
    <g id="Page-1" stroke="none" stroke-width="1" fill="none" fill-rule="evenodd">
        <g id="Dribbble-Dark-Preview" transform="translate(-219.000000, -680.000000)" fill="#FFFFFF">
            <g id="icons" transform="translate(56.000000, 160.000000)">
                <path d="M181.157913,524.12175 L168.505412,536.17175 L167.020713,534.75775 L179.673213,522.70775 C180.082713,522.31675 180.747363,522.31675 181.157913,522.70775 C181.568462,523.09775 181.568462,523.73075 181.157913,524.12175 L181.157913,524.12175 Z M180.497462,536.72275 C180.761012,537.33175 180.290612,538.00075 179.598662,538.00075 L179.591312,538.00075 C179.197562,538.00075 178.841612,537.77375 178.692512,537.42575 L176.210312,531.66275 L177.697112,530.24575 L180.497462,536.72275 Z M165.701913,525.04275 C165.337563,524.90075 165.100263,524.56275 165.100263,524.18675 C165.100263,523.52775 165.802713,523.07975 166.443213,523.33175 L173.243013,526.00275 L171.757263,527.41775 L165.701913,525.04275 Z M183.384963,522.00075 L181.900262,520.58575 C181.080212,519.80475 179.750912,519.80475 178.930862,520.58575 L174.726663,524.59075 L167.506862,521.76475 C165.358563,520.92375 163.000262,522.42775 163.000262,524.64075 C163.000262,525.45075 163.513712,526.18175 164.301212,526.48975 L170.272562,528.83175 L166.277312,532.63675 C165.867812,533.02675 165.203162,533.02675 164.792612,532.63675 L164.792612,532.63675 C164.383112,532.24575 163.718462,532.24575 163.307912,532.63675 L163.307912,532.63675 C162.897363,533.02675 162.897363,533.65975 163.307912,534.05075 L169.247762,539.70775 C169.657263,540.09775 170.322963,540.09775 170.732462,539.70775 L170.732462,539.70775 C171.143012,539.31675 171.143012,538.68375 170.732462,538.29375 L170.732462,538.29375 C170.322963,537.90275 170.322963,537.26975 170.732462,536.87875 L174.727712,533.07475 L177.186812,538.76175 C177.510212,539.51175 178.276713,540.00075 179.128263,540.00075 C181.450862,540.00075 183.031112,537.75475 182.148063,535.70875 L179.180762,528.83275 L183.384963,524.82875 C184.205012,524.04775 184.205012,522.78175 183.384963,522.00075 L183.384963,522.00075 Z" id="airplane_mode-[#1406]"></path>
            </g>
        </g>
    </g>
</svg>