<?xml version="1.0" encoding="UTF-8" standalone="no"?>
<svg width="16px" height="20px" viewBox="0 0 16 20" version="1.1" xmlns="http://www.w3.org/2000/svg" xmlns:xlink="http://www.w3.org/1999/xlink">
    <!-- Generator: Sketch 3.8.1 (29687) - http://www.bohemiancoding.com/sketch -->
    <title>aliens [#1300]</title>
    <desc>Created with Sketch.</desc>
    <defs></defs>
    <g id="Page-1" stroke="none" stroke-width="1" fill="none" fill-rule="evenodd">
        <g id="Dribbble-Dark-Preview" transform="translate(-142.000000, -2399.000000)" fill="#FFFFFF">
            <g id="icons" transform="translate(56.000000, 160.000000)">
                <path d="M94,2257 C90.566,2257 88,2255.416 88,2254 C88,2253.346 88.552,2252.658 89.479,2252.105 C90.275,2253.811 91.994,2255 94,2255 C96.006,2255 97.725,2253.811 98.521,2252.105 C99.448,2252.658 100,2253.346 100,2254 C100,2255.416 97.434,2257 94,2257 M94,2247 C96.169,2247 97.704,2249.299 96.667,2251.345 C96.172,2252.322 95.168,2253 94,2253 C92.832,2253 91.828,2252.322 91.333,2251.345 C90.3,2249.306 91.824,2247 94,2247 M98.99,2250.096 C98.991,2250.063 99,2250.033 99,2250 C99,2247.581 97.282,2245.564 95,2245.101 L95,2242.723 C95.595,2242.376 96,2241.738 96,2241 C96,2239.895 95.105,2239 94,2239 C92.895,2239 92,2239.895 92,2241 C92,2241.738 92.405,2242.376 93,2242.723 L93,2245.101 C90.718,2245.564 89,2247.581 89,2250 C89,2250.033 89.009,2250.063 89.01,2250.096 C87.177,2251.012 86,2252.419 86,2254 C86,2256.761 89.582,2259 94,2259 C98.418,2259 102,2256.761 102,2254 C102,2252.419 100.823,2251.012 98.99,2250.096" id="aliens-[#1300]"></path>
            </g>
        </g>
    </g>
</svg>