<?xml version="1.0" encoding="UTF-8" standalone="no"?>
<svg width="20px" height="20px" viewBox="0 0 20 20" version="1.1" xmlns="http://www.w3.org/2000/svg" xmlns:xlink="http://www.w3.org/1999/xlink">
    <!-- Generator: Sketch 3.8.1 (29687) - http://www.bohemiancoding.com/sketch -->
    <title>alignment_top [#855]</title>
    <desc>Created with Sketch.</desc>
    <defs></defs>
    <g id="Page-1" stroke="none" stroke-width="1" fill="none" fill-rule="evenodd">
        <g id="Dribbble-Dark-Preview" transform="translate(-260.000000, -4399.000000)" fill="#FFFFFF">
            <g id="icons" transform="translate(56.000000, 160.000000)">
                <path d="M208,4257 L210,4257 L210,4245 L208,4245 L208,4257 Z M212,4259 L210,4259 L208,4259 L206,4259 L206,4257 L206,4245 L206,4243 L208,4243 L210,4243 L212,4243 L212,4245 L212,4257 L212,4259 Z M218,4249 L220,4249 L220,4245 L218,4245 L218,4249 Z M216,4245 L216,4243 L218,4243 L220,4243 L222,4243 L222,4245 L222,4249 L222,4251 L220,4251 L218,4251 L216,4251 L216,4249 L216,4245 Z M204,4241 L224,4241 L224,4239 L204,4239 L204,4241 Z" id="alignment_top-[#855]"></path>
            </g>
        </g>
    </g>
</svg>