<?xml version="1.0" encoding="UTF-8" standalone="no"?>
<svg width="20px" height="20px" viewBox="0 0 20 20" version="1.1" xmlns="http://www.w3.org/2000/svg" xmlns:xlink="http://www.w3.org/1999/xlink">
    <!-- Generator: Sketch 3.8.1 (29687) - http://www.bohemiancoding.com/sketch -->
    <title>alignment_left [#853]</title>
    <desc>Created with Sketch.</desc>
    <defs></defs>
    <g id="Page-1" stroke="none" stroke-width="1" fill="none" fill-rule="evenodd">
        <g id="Dribbble-Dark-Preview" transform="translate(-340.000000, -4399.000000)" fill="#FFFFFF">
            <g id="icons" transform="translate(56.000000, 160.000000)">
                <path d="M290,4255 L294,4255 L294,4253 L290,4253 L290,4255 Z M294,4251 L296,4251 L296,4253 L296,4255 L296,4257 L294,4257 L290,4257 L288,4257 L288,4255 L288,4253 L288,4251 L290,4251 L294,4251 Z M290,4245 L302,4245 L302,4243 L290,4243 L290,4245 Z M304,4241 L304,4243 L304,4245 L304,4247 L302,4247 L290,4247 L288,4247 L288,4245 L288,4243 L288,4241 L290,4241 L302,4241 L304,4241 Z M284,4259 L286,4259 L286,4239 L284,4239 L284,4259 Z" id="alignment_left-[#853]"></path>
            </g>
        </g>
    </g>
</svg>