<?xml version="1.0" encoding="UTF-8" standalone="no"?>
<svg width="20px" height="20px" viewBox="0 0 20 20" version="1.1" xmlns="http://www.w3.org/2000/svg" xmlns:xlink="http://www.w3.org/1999/xlink">
    <!-- Generator: Sketch 3.8.1 (29687) - http://www.bohemiancoding.com/sketch -->
    <title>alignment_right [#854]</title>
    <desc>Created with Sketch.</desc>
    <defs></defs>
    <g id="Page-1" stroke="none" stroke-width="1" fill="none" fill-rule="evenodd">
        <g id="Dribbble-Dark-Preview" transform="translate(-300.000000, -4399.000000)" fill="#FFFFFF">
            <g id="icons" transform="translate(56.000000, 160.000000)">
                <path d="M246,4245 L258,4245 L258,4243 L246,4243 L246,4245 Z M244,4247 L244,4245 L244,4243 L244,4241 L246,4241 L258,4241 L260,4241 L260,4243 L260,4245 L260,4247 L258,4247 L246,4247 L244,4247 Z M254,4255 L258,4255 L258,4253 L254,4253 L254,4255 Z M258,4251 L260,4251 L260,4253 L260,4255 L260,4257 L258,4257 L254,4257 L252,4257 L252,4255 L252,4253 L252,4251 L254,4251 L258,4251 Z M262,4259 L264,4259 L264,4239 L262,4239 L262,4259 Z" id="alignment_right-[#854]"></path>
            </g>
        </g>
    </g>
</svg>