<?xml version="1.0" encoding="UTF-8" standalone="no"?>
<svg width="20px" height="20px" viewBox="0 0 20 20" version="1.1" xmlns="http://www.w3.org/2000/svg" xmlns:xlink="http://www.w3.org/1999/xlink">
    <!-- Generator: Sketch 3.8.1 (29687) - http://www.bohemiancoding.com/sketch -->
    <title>alignment_bottom [#856]</title>
    <desc>Created with Sketch.</desc>
    <defs></defs>
    <g id="Page-1" stroke="none" stroke-width="1" fill="none" fill-rule="evenodd">
        <g id="Dribbble-Dark-Preview" transform="translate(-220.000000, -4399.000000)" fill="#FFFFFF">
            <g id="icons" transform="translate(56.000000, 160.000000)">
                <path d="M178,4253 L180,4253 L180,4241 L178,4241 L178,4253 Z M176,4239 L178,4239 L180,4239 L182,4239 L182,4241 L182,4253 L182,4255 L180,4255 L178,4255 L176,4255 L176,4253 L176,4241 L176,4239 Z M168,4253 L170,4253 L170,4249 L168,4249 L168,4253 Z M172,4253 L172,4255 L170,4255 L168,4255 L166,4255 L166,4253 L166,4249 L166,4247 L168,4247 L170,4247 L172,4247 L172,4249 L172,4253 Z M164,4259 L184,4259 L184,4257 L164,4257 L164,4259 Z" id="alignment_bottom-[#856]"></path>
            </g>
        </g>
    </g>
</svg>