<?xml version="1.0" encoding="UTF-8" standalone="no"?>
<svg width="20px" height="20px" viewBox="0 0 20 20" version="1.1" xmlns="http://www.w3.org/2000/svg" xmlns:xlink="http://www.w3.org/1999/xlink">
    <!-- Generator: Sketch 3.8.1 (29687) - http://www.bohemiancoding.com/sketch -->
    <title>ambulance [#663]</title>
    <desc>Created with Sketch.</desc>
    <defs></defs>
    <g id="Page-1" stroke="none" stroke-width="1" fill="none" fill-rule="evenodd">
        <g id="Dribbble-Dark-Preview" transform="translate(-260.000000, -5279.000000)" fill="#FFFFFF">
            <g id="icons" transform="translate(56.000000, 160.000000)">
                <path d="M210,5127 L208,5127 L208,5125 L210,5125 L210,5123 L212,5123 L212,5125 L214,5125 L214,5127 L212,5127 L212,5129 L210,5129 L210,5127 Z M218,5130 L222,5130 L222,5126 L218,5126 L218,5130 Z M222,5134 L221.221,5134 C220.672,5133.39 219.885,5133 219,5133 C218.647,5133 218.314,5133.072 218,5133.184 L218,5132 L222,5132 L222,5134 Z M219,5137 C218.449,5137 218,5136.551 218,5136 C218,5135.449 218.449,5135 219,5135 C219.551,5135 220,5135.449 220,5136 C220,5136.551 219.551,5137 219,5137 L219,5137 Z M216,5134 L213.484,5134 C213.038,5132.278 211.487,5131 209.625,5131 C208.014,5131 206.634,5131.958 206,5133.331 L206,5121 L216,5121 L216,5134 Z M211.347,5136 C211,5136.595 210.362,5137 209.625,5137 C208.888,5137 208.25,5136.595 207.903,5136 C207.731,5135.705 207.625,5135.366 207.625,5135 C207.625,5134.634 207.731,5134.295 207.903,5134 C208.25,5133.405 208.888,5133 209.625,5133 C210.362,5133 211,5133.405 211.347,5134 C211.519,5134.295 211.625,5134.634 211.625,5135 C211.625,5135.366 211.519,5135.705 211.347,5136 L211.347,5136 Z M218,5124 L218,5119 L204,5119 L204,5136 L205.766,5136 C206.213,5137.722 207.763,5139 209.625,5139 C211.487,5139 213.037,5137.722 213.484,5136 L216,5136 C216,5137.657 217.343,5139 219,5139 C220.657,5139 222,5137.657 222,5136 L224,5136 L224,5124 L218,5124 Z" id="ambulance-[#663]"></path>
            </g>
        </g>
    </g>
</svg>