<?xml version="1.0" encoding="UTF-8" standalone="no"?>
<svg width="20px" height="20px" viewBox="0 0 20 20" version="1.1" xmlns="http://www.w3.org/2000/svg" xmlns:xlink="http://www.w3.org/1999/xlink">
    <!-- Generator: Sketch 3.8.1 (29687) - http://www.bohemiancoding.com/sketch -->
    <title>ambulance_round [#662]</title>
    <desc>Created with Sketch.</desc>
    <defs></defs>
    <g id="Page-1" stroke="none" stroke-width="1" fill="none" fill-rule="evenodd">
        <g id="Dribbble-Dark-Preview" transform="translate(-300.000000, -5279.000000)" fill="#FFFFFF">
            <g id="icons" transform="translate(56.000000, 160.000000)">
                <path d="M252,5124 L252,5125 L253,5125 C253.552,5125 254,5125.448 254,5126 C254,5126.552 253.552,5127 253,5127 L252,5127 L252,5128 C252,5128.552 251.552,5129 251,5129 C250.448,5129 250,5128.552 250,5128 L250,5127 L249,5127 C248.448,5127 248,5126.552 248,5126 C248,5125.448 248.448,5125 249,5125 L250,5125 L250,5124 C250,5123.448 250.448,5123 251,5123 C251.552,5123 252,5123.448 252,5124 L252,5124 Z M262,5130 L258,5130 L258,5126 L261,5126 C261.552,5126 262,5126.448 262,5127 L262,5130 Z M262,5134 L261.221,5134 C260.672,5133.39 259.885,5133 259,5133 C258.647,5133 258.314,5133.072 258,5133.184 L258,5132 L262,5132 L262,5134 Z M259,5137 C258.449,5137 258,5136.551 258,5136 C258,5135.449 258.449,5135 259,5135 C259.551,5135 260,5135.449 260,5136 C260,5136.551 259.551,5137 259,5137 L259,5137 Z M256,5134 L253.484,5134 C253.038,5132.278 251.487,5131 249.625,5131 C248.538,5131 247.556,5131.436 246.838,5132.142 C246.526,5132.448 246,5132.216 246,5131.779 L246,5122 C246,5121.448 246.448,5121 247,5121 L255,5121 C255.552,5121 256,5121.448 256,5122 L256,5134 Z M251.347,5136 C251,5136.595 250.362,5137 249.625,5137 C248.888,5137 248.25,5136.595 247.903,5136 C247.731,5135.705 247.625,5135.366 247.625,5135 C247.625,5134.634 247.731,5134.295 247.903,5134 C248.25,5133.405 248.888,5133 249.625,5133 C250.362,5133 251,5133.405 251.347,5134 C251.519,5134.295 251.625,5134.634 251.625,5135 C251.625,5135.366 251.519,5135.705 251.347,5136 L251.347,5136 Z M262,5124 L258,5124 L258,5121 C258,5119.895 257.105,5119 256,5119 L246,5119 C244.895,5119 244,5119.895 244,5121 L244,5134.234 C244,5135.209 244.791,5136 245.766,5136 C246.213,5137.722 247.763,5139 249.625,5139 C251.487,5139 253.037,5137.722 253.484,5136 L256,5136 C256,5137.657 257.343,5139 259,5139 C260.657,5139 262,5137.657 262,5136 C263.105,5136 264,5135.105 264,5134 L264,5126 C264,5124.895 263.105,5124 262,5124 L262,5124 Z" id="ambulance_round-[#662]"></path>
            </g>
        </g>
    </g>
</svg>