<?xml version="1.0" encoding="UTF-8" standalone="no"?>
<svg width="18px" height="20px" viewBox="0 0 18 20" version="1.1" xmlns="http://www.w3.org/2000/svg" xmlns:xlink="http://www.w3.org/1999/xlink">
    <!-- Generator: Sketch 3.8.1 (29687) - http://www.bohemiancoding.com/sketch -->
    <title>apple_store [#126]</title>
    <desc>Created with Sketch.</desc>
    <defs></defs>
    <g id="Page-1" stroke="none" stroke-width="1" fill="none" fill-rule="evenodd">
        <g id="Dribbble-Dark-Preview" transform="translate(-381.000000, -7599.000000)" fill="#FFFFFF">
            <g id="icons" transform="translate(56.000000, 160.000000)">
                <path d="M336.972,7454.007 C336.628,7454.494 336.27,7454.98 335.708,7454.989 C335.155,7455 334.977,7454.672 334.345,7454.672 C333.713,7454.672 333.515,7454.98 332.992,7455 C332.448,7455.02 332.035,7454.472 331.688,7453.987 C330.978,7452.994 330.436,7451.18 331.164,7449.956 C331.526,7449.348 332.172,7448.964 332.873,7448.954 C333.407,7448.944 333.91,7449.301 334.236,7449.301 C334.562,7449.301 335.174,7448.871 335.817,7448.935 C336.087,7448.945 336.842,7449.04 337.328,7449.728 C337.288,7449.752 336.426,7450.238 336.435,7451.25 C336.447,7452.461 337.531,7452.863 337.543,7452.869 C337.534,7452.898 337.37,7453.443 336.972,7454.007 M335.825,7447 C335.878,7447.468 335.684,7447.939 335.396,7448.278 C335.107,7448.616 334.634,7448.879 334.171,7448.844 C334.107,7448.384 334.341,7447.905 334.609,7447.607 C334.907,7447.268 335.41,7447.016 335.825,7447 M331,7441 L337,7441 C337.552,7441 338,7441.448 338,7442 L338,7443 L330,7443 L330,7442 C330,7441.448 330.448,7441 331,7441 M341,7443 L340,7443 L340,7441 C340,7439.896 339.104,7439 338,7439 L330,7439 C328.895,7439 328,7439.896 328,7441 L328,7443 L327,7443 C325.895,7443 325,7443.896 325,7445 L325,7457 C325,7458.105 325.895,7459 327,7459 L341,7459 C342.104,7459 343,7458.105 343,7457 L343,7445 C343,7443.896 342.104,7443 341,7443" id="apple_store-[#126]"></path>
            </g>
        </g>
    </g>
</svg>