<?xml version="1.0" encoding="UTF-8" standalone="no"?>
<svg width="20px" height="20px" viewBox="0 0 20 20" version="1.1" xmlns="http://www.w3.org/2000/svg" xmlns:xlink="http://www.w3.org/1999/xlink">
    <!-- Generator: Sketch 3.8.1 (29687) - http://www.bohemiancoding.com/sketch -->
    <title>apple [#1296]</title>
    <desc>Created with Sketch.</desc>
    <defs></defs>
    <g id="Page-1" stroke="none" stroke-width="1" fill="none" fill-rule="evenodd">
        <g id="Dribbble-Dark-Preview" transform="translate(-300.000000, -2399.000000)" fill="#FFFFFF">
            <g id="icons" transform="translate(56.000000, 160.000000)">
                <path d="M254,2246.703 C254.478,2246.703 254.955,2246.533 255.335,2246.192 C256.073,2245.53 257.019,2245.166 258,2245.166 C260.154,2245.166 262,2247.915 262,2250.166 C262,2252.976 259.645,2257 258,2257 C257.601,2257 257.178,2256.848 256.741,2256.55 C255.936,2256.001 254.988,2255.711 254,2255.711 C253.012,2255.711 252.064,2256.001 251.259,2256.55 C250.822,2256.848 250.399,2257 250,2257 C248.355,2257 246,2252.976 246,2250.166 C246,2247.915 247.846,2245.166 250,2245.166 C250.981,2245.166 251.927,2245.53 252.665,2246.192 C253.045,2246.533 253.522,2246.703 254,2246.703 M258,2243.166 C256.719,2243.166 255.534,2243.571 254.561,2244.257 C254.392,2244.375 254.196,2244.434 254,2244.434 C253.804,2244.434 253.608,2244.375 253.439,2244.257 C252.466,2243.571 251.281,2243.166 250,2243.166 C246.686,2243.166 244,2246.853 244,2250.166 C244,2253.48 246.686,2259 250,2259 C252.031,2259 252.307,2257.711 254,2257.711 C255.679,2257.711 255.99,2259 258,2259 C261.314,2259 264,2253.48 264,2250.166 C264,2246.853 261.314,2243.166 258,2243.166 M251.334,2239 C250.985,2239 250.614,2239.056 250.232,2239.164 C249.921,2240.257 250.042,2241.267 250.673,2241.898 C251.205,2242.43 252.137,2242.732 253.175,2242.732 C253.37,2242.732 253.568,2242.722 253.768,2242.7 C253.905,2241.433 253.597,2240.237 252.966,2239.605 C252.555,2239.194 251.984,2239 251.334,2239" id="apple-[#1296]"></path>
            </g>
        </g>
    </g>
</svg>