<?xml version="1.0" encoding="UTF-8" standalone="no"?>
<svg width="20px" height="15px" viewBox="0 0 20 15" version="1.1" xmlns="http://www.w3.org/2000/svg" xmlns:xlink="http://www.w3.org/1999/xlink">
    <!-- Generator: Sketch 3.8.1 (29687) - http://www.bohemiancoding.com/sketch -->
    <title>arrow_left [#296]</title>
    <desc>Created with Sketch.</desc>
    <defs></defs>
    <g id="Page-1" stroke="none" stroke-width="1" fill="none" fill-rule="evenodd">
        <g id="Dribbble-Dark-Preview" transform="translate(-300.000000, -6841.000000)" fill="#FFFFFF">
            <g id="icons" transform="translate(56.000000, 160.000000)">
                <path d="M252.329759,6686.28616 L246.911796,6691.66507 C246.599393,6691.98007 245.983512,6691.75707 245.983512,6691.31208 L245.983512,6689.00012 C245.983512,6688.44813 245.621521,6688.00013 245.074072,6688.00013 L245.032418,6688.00013 C244.484969,6688.00013 244,6688.44813 244,6689.00012 L244,6694.00003 C244,6695.10501 245.053245,6696 246.148144,6696 L251.106924,6696 C251.654373,6696 251.934048,6695.49001 251.934048,6694.93802 L251.934048,6694.90602 C251.934048,6694.35403 251.654373,6694.00003 251.106924,6694.00003 L248.68208,6694.00003 C248.239757,6694.00003 248.018595,6693.46104 248.330999,6693.14605 L253.029939,6688.40913 C253.416723,6688.01813 254.044505,6688.01813 254.432282,6688.40913 L254.840885,6688.82112 C255.615447,6689.60211 256.87101,6689.60211 257.646563,6688.82112 L263.709168,6682.70722 C264.096944,6682.31723 264.096944,6681.68324 263.709168,6681.29325 C263.322383,6680.90225 262.694601,6680.90225 262.306825,6681.29325 L256.945391,6686.69916 C256.557615,6687.09015 255.929833,6687.08915 255.542057,6686.69816 L255.136428,6686.28816 C254.362859,6685.50517 253.105312,6685.50417 252.329759,6686.28616" id="arrow_left-[#296]"></path>
            </g>
        </g>
    </g>
</svg>