<?xml version="1.0" encoding="UTF-8" standalone="no"?>
<svg width="20px" height="20px" viewBox="0 0 20 20" version="1.1" xmlns="http://www.w3.org/2000/svg" xmlns:xlink="http://www.w3.org/1999/xlink">
    <!-- Generator: Sketch 3.8.1 (29687) - http://www.bohemiancoding.com/sketch -->
    <title>arrow_right_up_circle [#314]</title>
    <desc>Created with Sketch.</desc>
    <defs></defs>
    <g id="Page-1" stroke="none" stroke-width="1" fill="none" fill-rule="evenodd">
        <g id="Dribbble-Dark-Preview" transform="translate(-380.000000, -6759.000000)" fill="#FFFFFF">
            <g id="icons" transform="translate(56.000000, 160.000000)">
                <path d="M329.419669,6616.41566 C328.6404,6617.19529 327.372589,6617.19529 326.594318,6616.41566 C325.815049,6615.63603 325.815049,6614.36764 326.594318,6613.58902 C327.372589,6612.80939 328.6404,6612.80939 329.419669,6613.58902 C330.198939,6614.36764 330.198939,6615.63603 329.419669,6616.41566 L329.419669,6616.41566 Z M343.998999,6600.99605 C343.997001,6599.89557 343.105837,6599.005 342.006867,6599.003 L339.994754,6599 C339.442272,6598.999 338.994691,6599.44679 338.993692,6599.99852 C338.993692,6600.55126 339.441273,6600.99904 339.992756,6600.99904 L340.591195,6600.99904 L330.026101,6611.56798 C328.239776,6610.51649 325.820044,6610.95328 324.588199,6612.92333 C323.804934,6614.17473 323.803935,6615.82594 324.585202,6617.07734 C326.009866,6619.35925 329.052014,6619.61013 330.832345,6617.82898 C332.148111,6616.51361 332.329941,6614.51457 331.428785,6612.98131 L341.98289,6602.41237 L341.98289,6603.01108 C341.98289,6603.56282 342.443458,6603.99761 342.994941,6603.99761 L342.999936,6603.99761 C343.551419,6603.99761 344.000997,6603.55482 343.999998,6603.00308 L343.998999,6600.99605 Z" id="arrow_right_up_circle-[#314]"></path>
            </g>
        </g>
    </g>
</svg>