<?xml version="1.0" encoding="UTF-8" standalone="no"?>
<svg width="20px" height="15px" viewBox="0 0 20 15" version="1.1" xmlns="http://www.w3.org/2000/svg" xmlns:xlink="http://www.w3.org/1999/xlink">
    <!-- Generator: Sketch 3.8.1 (29687) - http://www.bohemiancoding.com/sketch -->
    <title>arrow_right [#298]</title>
    <desc>Created with Sketch.</desc>
    <defs></defs>
    <g id="Page-1" stroke="none" stroke-width="1" fill="none" fill-rule="evenodd">
        <g id="Dribbble-Dark-Preview" transform="translate(-220.000000, -6842.000000)" fill="#FFFFFF">
            <g id="icons" transform="translate(56.000000, 160.000000)">
                <path d="M175.865057,6687.28484 L181.192612,6692.66393 C181.50676,6692.97893 182.005408,6692.75593 182.005408,6692.31092 L182.005408,6689.99888 C182.005408,6689.44687 182.490094,6688.99987 183.040601,6688.99987 L183.021653,6688.99987 C183.573157,6688.99987 184,6689.44687 184,6689.99888 L184,6694.99897 C184,6696.10399 183.182217,6697 182.081203,6697 L177.094723,6697 C176.544216,6697 176.021633,6696.801 176.021633,6696.24899 L176.021633,6696.37399 C176.021633,6695.82198 176.544216,6694.99997 177.094723,6694.99997 L179.533112,6694.99997 C179.977906,6694.99997 180.200303,6694.46096 179.886154,6694.14595 L175.160967,6689.40787 C174.772021,6689.01787 174.140733,6689.01687 173.75079,6689.40787 L173.339904,6689.81988 C172.561016,6690.60089 171.29844,6690.60089 170.518554,6689.81988 L164.238582,6683.70578 C163.848639,6683.31577 164.054082,6682.68576 164.054082,6682.29576 L164.054082,6682.29376 C165.051378,6681.90275 165.258816,6681.90175 165.648758,6682.29276 L171.131891,6687.69785 C171.521834,6688.08885 172.198998,6688.08785 172.58894,6687.69685 L173.019772,6687.28684 C173.797663,6686.50383 175.085172,6686.50283 175.865057,6687.28484" id="arrow_right-[#298]"></path>
            </g>
        </g>
    </g>
</svg>