<?xml version="1.0" encoding="UTF-8" standalone="no"?>
<svg width="8px" height="20px" viewBox="0 0 8 20" version="1.1" xmlns="http://www.w3.org/2000/svg" xmlns:xlink="http://www.w3.org/1999/xlink">
    <!-- Generator: Sketch 3.8.1 (29687) - http://www.bohemiancoding.com/sketch -->
    <title>arrow_down_circle [#301]</title>
    <desc>Created with Sketch.</desc>
    <defs></defs>
    <g id="Page-1" stroke="none" stroke-width="1" fill="none" fill-rule="evenodd">
        <g id="Dribbble-Dark-Preview" transform="translate(-106.000000, -6839.000000)" fill="#FFFFFF">
            <g id="icons" transform="translate(56.000000, 160.000000)">
                <path d="M53.993,6681 C55.096,6681 55.993,6681.897 55.993,6683 C55.993,6684.103 55.096,6685 53.993,6685 C52.89,6685 51.993,6684.103 51.993,6683 C51.993,6681.897 52.89,6681 53.993,6681 M53.005,6686.859 L53.005,6695.181 L51.868,6694.05 L50.451,6695.464 L53.985,6699 L53.994,6698.99 L54.003,6699 L57.538,6695.464 L56.13,6694.05 L55.005,6695.181 L55.005,6686.859 C56.442,6686.687 57.999,6685.5 57.999,6683 C57.999,6680.791 56.205,6679 53.996,6679 C51.787,6679 50,6680.791 50,6683 C50,6684.862 51.005,6686.413 53.005,6686.859" id="arrow_down_circle-[#301]"></path>
            </g>
        </g>
    </g>
</svg>