<?xml version="1.0" encoding="UTF-8" standalone="no"?>
<svg width="20px" height="20px" viewBox="0 0 20 20" version="1.1" xmlns="http://www.w3.org/2000/svg" xmlns:xlink="http://www.w3.org/1999/xlink">
    <!-- Generator: Sketch 3.8.1 (29687) - http://www.bohemiancoding.com/sketch -->
    <title>arrow_all [#329]</title>
    <desc>Created with Sketch.</desc>
    <defs></defs>
    <g id="Page-1" stroke="none" stroke-width="1" fill="none" fill-rule="evenodd">
        <g id="Dribbble-Dark-Preview" transform="translate(-180.000000, -6719.000000)" fill="#FFFFFF">
            <g id="icons" transform="translate(56.000000, 160.000000)">
                <path d="M135.99975,6570.00175 C135.99975,6570.55275 135.55275,6570.99975 135.00175,6570.99975 L132.99775,6570.99975 C132.44675,6570.99975 131.99975,6570.55275 131.99975,6570.00175 L131.99975,6567.99875 C131.99975,6567.44675 132.44675,6566.99975 132.99775,6566.99975 L135.00175,6566.99975 C135.55275,6566.99975 135.99975,6567.44675 135.99975,6567.99875 L135.99975,6570.00175 Z M143.41675,6567.58875 L141.99575,6566.16175 C141.60575,6565.77175 140.97175,6565.77175 140.58075,6566.16175 C140.19075,6566.55275 140.18975,6567.18575 140.58075,6567.57575 L141.00375,6567.99975 L137.99975,6567.99975 L137.99975,6566.99975 C137.99975,6565.89575 137.10475,6564.99975 135.99975,6564.99975 L134.99975,6564.99975 L134.99975,6561.99375 L135.42375,6562.41775 C135.81375,6562.80775 136.44775,6562.80775 136.83775,6562.41775 C137.22875,6562.02675 137.22875,6561.39375 136.83775,6561.00375 L135.41075,6559.58275 C134.63075,6558.80575 133.36875,6558.80575 132.58875,6559.58275 L131.16175,6561.00375 C130.77075,6561.39375 130.77075,6562.02675 131.16175,6562.41775 C131.55175,6562.80775 132.18575,6562.80775 132.57575,6562.41775 L132.99975,6561.99375 L132.99975,6564.99975 L131.99975,6564.99975 C130.89475,6564.99975 129.99975,6565.89575 129.99975,6566.99975 L129.99975,6567.99975 L126.99575,6567.99975 L127.41975,6567.57575 C127.80975,6567.18575 127.80975,6566.55275 127.41975,6566.16175 C127.02875,6565.77175 126.39475,6565.77175 126.00375,6566.16175 L124.58275,6567.58875 C123.80575,6568.36875 123.80575,6569.63075 124.58275,6570.41175 L126.00375,6571.83775 C126.39475,6572.22875 127.02875,6572.22875 127.41875,6571.83775 C127.80975,6571.44775 127.80975,6570.81475 127.41875,6570.42375 L126.99575,6569.99975 L129.99975,6569.99975 L129.99975,6570.99975 C129.99975,6572.10475 130.89475,6572.99975 131.99975,6572.99975 L132.99975,6572.99975 L132.99975,6576.00675 L132.57575,6575.58275 C132.18575,6575.19275 131.55175,6575.19275 131.16175,6575.58275 C130.77075,6575.97375 130.77075,6576.60675 131.16175,6576.99675 L132.58875,6578.41775 C133.36875,6579.19475 134.63075,6579.19475 135.41075,6578.41775 L136.83775,6576.99675 C137.22875,6576.60675 137.22875,6575.97375 136.83775,6575.58275 C136.44775,6575.19275 135.81375,6575.19275 135.42375,6575.58275 L134.99975,6576.00675 L134.99975,6572.99975 L135.99975,6572.99975 C137.10475,6572.99975 137.99975,6572.10475 137.99975,6570.99975 L137.99975,6569.99975 L141.00375,6569.99975 L140.57975,6570.42375 C140.18975,6570.81475 140.18975,6571.44775 140.57975,6571.83775 C140.97075,6572.22875 141.60575,6572.22875 141.99575,6571.83775 L143.41675,6570.41175 C144.19375,6569.63075 144.19375,6568.36875 143.41675,6567.58875 L143.41675,6567.58875 Z" id="arrow_all-[#329]"></path>
            </g>
        </g>
    </g>
</svg>