<?xml version="1.0" encoding="UTF-8" standalone="no"?>
<svg width="20px" height="20px" viewBox="0 0 20 20" version="1.1" xmlns="http://www.w3.org/2000/svg" xmlns:xlink="http://www.w3.org/1999/xlink">
    <!-- Generator: Sketch 3.8.1 (29687) - http://www.bohemiancoding.com/sketch -->
    <title>arrow_right [#268]</title>
    <desc>Created with Sketch.</desc>
    <defs></defs>
    <g id="Page-1" stroke="none" stroke-width="1" fill="none" fill-rule="evenodd">
        <g id="Dribbble-Dark-Preview" transform="translate(-220.000000, -6959.000000)" fill="#FFFFFF">
            <g id="icons" transform="translate(56.000000, 160.000000)">
                <path d="M170,6816 C170,6816.552 169.552,6817 169,6817 L167,6817 C166.448,6817 166,6816.552 166,6816 L166,6802 C166,6801.448 166.448,6801 167,6801 L169,6801 C169.552,6801 170,6801.448 170,6802 L170,6816 Z M170,6799 L166,6799 C164.895,6799 164,6799.895 164,6801 L164,6817 C164,6818.105 164.895,6819 166,6819 L170,6819 C171.105,6819 172,6818.105 172,6817 L172,6810 L179.793,6810 C180.239,6810 180.462,6810.538 180.147,6810.853 L178.464,6812.536 C178.073,6812.926 178.073,6813.56 178.464,6813.95 C178.854,6814.34 179.487,6814.34 179.878,6813.95 L183.415,6810.413 C184.195,6809.632 184.195,6808.367 183.415,6807.587 C183.251,6807.423 184.08,6808.252 179.878,6804.05 C179.488,6803.66 178.854,6803.66 178.464,6804.05 C178.073,6804.441 178.073,6805.074 178.464,6805.465 L180.145,6807.146 C180.46,6807.461 180.237,6808 179.791,6808 L172,6808 L172,6801 C172,6799.895 171.105,6799 170,6799 L170,6799 Z" id="arrow_right-[#268]"></path>
            </g>
        </g>
    </g>
</svg>