<?xml version="1.0" encoding="UTF-8" standalone="no"?>
<svg width="20px" height="20px" viewBox="0 0 20 20" version="1.1" xmlns="http://www.w3.org/2000/svg" xmlns:xlink="http://www.w3.org/1999/xlink">
    <!-- Generator: Sketch 3.8.1 (29687) - http://www.bohemiancoding.com/sketch -->
    <title>arrow_inside [#257]</title>
    <desc>Created with Sketch.</desc>
    <defs></defs>
    <g id="Page-1" stroke="none" stroke-width="1" fill="none" fill-rule="evenodd">
        <g id="Dribbble-Dark-Preview" transform="translate(-260.000000, -6999.000000)" fill="#FFFFFF">
            <g id="icons" transform="translate(56.000000, 160.000000)">
                <path d="M223.742566,6858.55474 C224.096818,6858.16195 224.083845,6857.55528 223.713627,6857.17848 L214.68469,6847.99745 L214.686686,6847.99745 L205.703653,6839.28016 C205.312479,6838.90036 204.688796,6838.90836 204.303609,6839.29415 L204.294628,6839.30514 C203.904452,6839.69593 203.90545,6840.32959 204.294628,6840.71938 L213.275665,6849.70952 L213.27367,6849.71252 L222.222775,6858.67268 C222.626921,6859.07746 223.285531,6859.06047 223.668722,6858.6367 L223.742566,6858.55474 Z M220.585232,6844.99907 C220.14117,6844.99907 219.91864,6844.46635 220.232976,6844.15153 L223.671715,6840.70839 C224.061892,6840.3186 224.061892,6839.68694 223.672713,6839.29715 L223.672713,6839.29715 C223.282537,6838.90736 222.650871,6838.90736 222.260695,6839.29815 L218.822953,6842.74129 C218.508617,6843.05612 217.970752,6842.83324 217.970752,6842.38748 L217.970752,6840.01176 C217.970752,6839.46006 217.534673,6839.00231 216.983836,6839.00231 L216.988826,6839.00231 C216.437989,6839.00231 215.974966,6839.46006 215.974966,6840.01176 L215.974966,6845.00806 L215.974966,6845.01106 C215.974966,6846.11446 216.869078,6846.99799 217.969754,6846.99799 L222.961216,6846.99799 C223.512052,6846.99799 223.958111,6846.55922 223.958111,6846.00652 L223.958111,6846.00552 C223.958111,6845.45382 223.512052,6844.99907 222.961216,6844.99907 L220.585232,6844.99907 Z M204.99914,6852.99475 C204.448303,6852.99475 204.000249,6852.54999 204.000249,6851.99828 L204.000249,6852.00028 C204.000249,6851.44858 204.448303,6850.99583 204.99914,6850.99583 L209.990602,6850.99583 C211.091278,6850.99583 211.983394,6851.89834 211.983394,6853.00174 L211.983394,6853.00374 L211.983394,6858.00204 C211.983394,6858.55474 211.552304,6858.9915 211.001467,6858.9915 L210.996478,6858.9915 C210.445641,6858.9915 209.987608,6858.55474 209.987608,6858.00204 L209.987608,6855.62332 C209.987608,6855.17857 209.450741,6854.95469 209.136405,6855.26952 L205.703653,6858.70766 C205.314475,6859.09745 204.682808,6859.09745 204.292632,6858.70766 L204.292632,6858.70666 C203.902456,6858.31687 203.902456,6857.68221 204.292632,6857.29142 L207.723388,6853.85328 C208.037725,6853.53845 207.815195,6852.99475 207.371132,6852.99475 L204.99914,6852.99475 Z" id="arrow_inside-[#257]"></path>
            </g>
        </g>
    </g>
</svg>