<?xml version="1.0" encoding="UTF-8" standalone="no"?>
<svg width="8px" height="20px" viewBox="0 0 8 20" version="1.1" xmlns="http://www.w3.org/2000/svg" xmlns:xlink="http://www.w3.org/1999/xlink">
    <!-- Generator: Sketch 3.8.1 (29687) - http://www.bohemiancoding.com/sketch -->
    <title>arrow_double_circle [#326]</title>
    <desc>Created with Sketch.</desc>
    <defs></defs>
    <g id="Page-1" stroke="none" stroke-width="1" fill="none" fill-rule="evenodd">
        <g id="Dribbble-Dark-Preview" transform="translate(-306.000000, -6719.000000)" fill="#FFFFFF">
            <g id="icons" transform="translate(56.000000, 160.000000)">
                <path d="M254,6561.00022 C255.103,6561.00022 256,6561.89722 256,6563.00022 C256,6564.10322 255.103,6565.00022 254,6565.00022 C252.897,6565.00022 252,6564.10322 252,6563.00022 C252,6561.89722 252.897,6561.00022 254,6561.00022 M253,6566.85922 L253,6576.00422 L252.576,6575.58022 C252.186,6575.19022 251.552,6575.19022 251.162,6575.58122 L251.162,6575.58122 C250.772,6575.97222 250.772,6576.60522 251.164,6576.99522 L252.59,6578.41722 C253.369,6579.19422 254.631,6579.19422 255.41,6578.41722 L256.836,6576.99622 C257.228,6576.60522 257.228,6575.97222 256.838,6575.58122 C256.447,6575.19022 255.814,6575.19022 255.424,6575.58022 L255,6576.00422 L255,6566.85922 C257,6566.33922 258.412,6564.31622 257.891,6562.05122 C257.559,6560.61222 256.392,6559.44322 254.954,6559.11022 C252.33,6558.50422 250,6560.48022 250,6563.00022 C250,6564.86222 251,6566.41322 253,6566.85922" id="arrow_double_circle-[#326]"></path>
            </g>
        </g>
    </g>
</svg>