<?xml version="1.0" encoding="UTF-8" standalone="no"?>
<svg width="20px" height="28px" viewBox="0 0 20 28" version="1.1" xmlns="http://www.w3.org/2000/svg" xmlns:xlink="http://www.w3.org/1999/xlink">
    <!-- Generator: Sketch 3.8.1 (29687) - http://www.bohemiancoding.com/sketch -->
    <title>arrow_repeat [#241]</title>
    <desc>Created with Sketch.</desc>
    <defs></defs>
    <g id="Page-1" stroke="none" stroke-width="1" fill="none" fill-rule="evenodd">
        <g id="Dribbble-Dark-Preview" transform="translate(-100.000000, -7074.000000)" fill="#FFFFFF">
            <g id="icons" transform="translate(56.000000, 160.000000)">
                <path d="M64,6919.75588 L58.343,6914 L56.929,6915.51204 L60.172,6918.7711 L44,6918.7711 L44,6928.32285 L46,6928.32285 L46,6920.68145 L60.172,6920.68145 L56.929,6923.61479 L58.343,6924.88326 L64,6919.75588 Z M62,6935.96425 L47.828,6935.96425 L51.071,6932.70328 L49.657,6931.27052 C44.671,6935.98431 45.809,6934.91069 44,6936.61186 C46.227,6938.72566 44.99,6937.54888 49.657,6942 L51.071,6940.81081 L47.828,6937.8746 L64,6937.8746 L64,6928.32285 L62,6928.32285 L62,6935.96425 Z" id="arrow_repeat-[#241]"></path>
            </g>
        </g>
    </g>
</svg>