<?xml version="1.0" encoding="UTF-8" standalone="no"?>
<svg width="20px" height="20px" viewBox="0 0 20 20" version="1.1" xmlns="http://www.w3.org/2000/svg" xmlns:xlink="http://www.w3.org/1999/xlink">
    <!-- Generator: Sketch 3.8.1 (29687) - http://www.bohemiancoding.com/sketch -->
    <title>arrow_right_in [#388]</title>
    <desc>Created with Sketch.</desc>
    <defs></defs>
    <g id="Page-1" stroke="none" stroke-width="1" fill="none" fill-rule="evenodd">
        <g id="Dribbble-Dark-Preview" transform="translate(-220.000000, -6479.000000)" fill="#FFFFFF">
            <g id="icons" transform="translate(56.000000, 160.000000)">
                <path d="M170.673,6324.726 L170.669,6324.729 C170.266,6325.104 170.244,6325.735 170.62,6326.137 L171.577,6327.158 C171.876,6327.478 171.649,6328 171.212,6328 L165,6328 C164.447,6328 164,6328.448 164,6329 C164,6329.552 164.447,6330 165,6330 L171.197,6330 C171.637,6330 171.862,6330.527 171.558,6330.845 L170.63,6331.819 C170.248,6332.218 170.266,6332.852 170.669,6333.229 C171.068,6333.603 171.695,6333.584 172.071,6333.186 L174.76,6330.338 C175.49,6329.564 175.487,6328.354 174.753,6327.585 L172.067,6324.769 C171.692,6324.376 171.071,6324.357 170.673,6324.726 M182.222,6319 L175.777,6319 C174.8,6319 174,6319.68 174,6321.111 L174,6322.007 C174,6322.555 174.444,6323 174.993,6323 L175.006,6323 C175.555,6323 176,6322.555 176,6322.007 L176,6321.993 C176,6321.445 176.444,6321 176.993,6321 L181.006,6321 C181.555,6321 182,6321.445 182,6321.993 L182,6336.007 C182,6336.555 181.555,6337 181.006,6337 L176.993,6337 C176.444,6337 176,6336.555 176,6336.007 L176,6335.993 C176,6335.445 175.555,6335 175.006,6335 L174.993,6335 C174.444,6335 174,6335.445 174,6335.993 L174,6337.111 C174,6338.293 174.847,6339 175.777,6339 L182.222,6339 C183.204,6339 184,6338.204 184,6337.222 L184,6337.111 L184,6320.778 C184,6319.796 183.204,6319 182.222,6319" id="arrow_right_in-[#388]"></path>
            </g>
        </g>
    </g>
</svg>