<?xml version="1.0" encoding="UTF-8" standalone="no"?>
<svg width="20px" height="20px" viewBox="0 0 20 20" version="1.1" xmlns="http://www.w3.org/2000/svg" xmlns:xlink="http://www.w3.org/1999/xlink">
    <!-- Generator: Sketch 3.8.1 (29687) - http://www.bohemiancoding.com/sketch -->
    <title>arrow_up_circle [#308]</title>
    <desc>Created with Sketch.</desc>
    <defs></defs>
    <g id="Page-1" stroke="none" stroke-width="1" fill="none" fill-rule="evenodd">
        <g id="Dribbble-Dark-Preview" transform="translate(-220.000000, -6799.000000)" fill="#FFFFFF">
            <g id="icons" transform="translate(56.000000, 160.000000)">
                <path d="M179.973967,6645 C178.869587,6645 177.971464,6644.103 177.971464,6643 C177.971464,6641.897 178.869587,6641 179.973967,6641 C181.078348,6641 181.976471,6641.897 181.976471,6643 C181.976471,6644.103 181.078348,6645 179.973967,6645 L179.973967,6645 Z M181.017272,6655.181 L181.017272,6646.859 C182.018523,6646.413 184,6644.862 184,6643 C184,6640.791 182.196746,6639 179.984981,6639 C177.772215,6639 175.994994,6640.791 175.994994,6643 C175.994994,6644.862 177.012265,6646.413 179.014768,6646.859 L179.014768,6655.181 L177.861327,6654.05 L176.434543,6655.464 L179.969962,6659 L179.976971,6658.99 L179.984981,6659 L183.524406,6655.464 L182.128661,6654.05 L181.017272,6655.181 Z M168.009011,6657 C166.904631,6657 166.006508,6656.103 166.006508,6655 C166.006508,6653.897 166.904631,6653 168.009011,6653 C169.113392,6653 170.011514,6653.897 170.011514,6655 C170.011514,6656.103 169.113392,6657 168.009011,6657 L168.009011,6657 Z M169.002253,6651.141 L169.002253,6642.819 L170.138673,6643.95 L171.556446,6642.536 L168.017021,6639 L168.00801,6639.01 L167.998999,6639 L164.459574,6642.536 L165.871339,6643.95 L166.99975,6642.819 L166.99975,6651.141 C164.997247,6651.587 164,6653.138 164,6655 C164,6657.209 165.795244,6659 168.007009,6659 C170.218773,6659 172.009011,6657.209 172.009011,6655 C172.009011,6653.138 171.004756,6651.587 169.002253,6651.141 L169.002253,6651.141 Z" id="arrow_up_circle-[#308]"></path>
            </g>
        </g>
    </g>
</svg>