<?xml version="1.0" encoding="UTF-8" standalone="no"?>
<svg width="20px" height="20px" viewBox="0 0 20 20" version="1.1" xmlns="http://www.w3.org/2000/svg" xmlns:xlink="http://www.w3.org/1999/xlink">
    <!-- Generator: Sketch 3.8.1 (29687) - http://www.bohemiancoding.com/sketch -->
    <title>arrow_outside [#262]</title>
    <desc>Created with Sketch.</desc>
    <defs></defs>
    <g id="Page-1" stroke="none" stroke-width="1" fill="none" fill-rule="evenodd">
        <g id="Dribbble-Dark-Preview" transform="translate(-60.000000, -6999.000000)" fill="#FFFFFF">
            <g id="icons" transform="translate(56.000000, 160.000000)">
                <path d="M10.7675352,6840 L10.7675352,6845 L8.06728864,6845 C7.63609997,6845 7.42050563,6844.461 7.72504471,6844.146 L9.35215353,6842.464 C9.7301687,6842.074 9.7301687,6841.44 9.35215353,6841.05 C8.97510514,6840.66 8.3631266,6840.66 7.98511142,6841.05 L4.56557258,6844.587 C3.81147581,6845.367 3.81147581,6846.633 4.56557258,6847.413 C5.11277614,6847.979 5.22879103,6848.099 7.98511142,6850.95 C8.36215981,6851.34 8.97510514,6851.34 9.35215353,6850.949 C9.7301687,6850.559 9.7301687,6849.926 9.35215353,6849.535 L7.7269783,6847.854 C7.42243921,6847.539 7.63803355,6847 8.06922222,6847 L10.7675352,6847 L10.7675352,6858 C10.7675352,6858.552 11.2006574,6859 11.7343259,6859 C12.2679944,6859 12.7011166,6858.552 12.7011166,6858 L12.7011166,6840 C12.7011166,6839.448 12.2679944,6839 11.7343259,6839 C11.2006574,6839 10.7675352,6839.448 10.7675352,6840 M16.5682796,6858 L16.5682796,6853 L19.9327114,6853 C20.3639,6853 20.5794944,6853.539 20.2749553,6853.854 L18.6478465,6855.536 C18.2698313,6855.926 18.2698313,6856.56 18.6478465,6856.95 C19.0248949,6857.34 19.6368734,6857.34 20.0148886,6856.95 L23.4344274,6853.413 C24.1885242,6852.632 24.1885242,6851.367 23.4344274,6850.587 C22.8833567,6850.017 22.7731426,6849.902 20.0148886,6847.05 C19.6378402,6846.66 19.0248949,6846.66 18.6478465,6847.05 C18.2698313,6847.441 18.2698313,6848.074 18.6478465,6848.465 L20.2730217,6850.146 C20.5775608,6850.461 20.3619665,6851 19.9307778,6851 L16.5682796,6851 L16.5682796,6840 C16.5682796,6839.448 16.1351573,6839 15.6014889,6839 C15.0678204,6839 14.6346981,6839.448 14.6346981,6840 L14.6346981,6858 C14.6346981,6858.552 15.0678204,6859 15.6014889,6859 C16.1351573,6859 16.5682796,6858.552 16.5682796,6858" id="arrow_outside-[#262]"></path>
            </g>
        </g>
    </g>
</svg>