<?xml version="1.0" encoding="UTF-8" standalone="no"?>
<svg width="20px" height="28px" viewBox="0 0 20 28" version="1.1" xmlns="http://www.w3.org/2000/svg" xmlns:xlink="http://www.w3.org/1999/xlink">
    <!-- Generator: Sketch 3.8.1 (29687) - http://www.bohemiancoding.com/sketch -->
    <title>arrow_double [#248]</title>
    <desc>Created with Sketch.</desc>
    <defs></defs>
    <g id="Page-1" stroke="none" stroke-width="1" fill="none" fill-rule="evenodd">
        <g id="Dribbble-Dark-Preview" transform="translate(-220.000000, -7035.000000)" fill="#FFFFFF">
            <g id="icons" transform="translate(56.000000, 160.000000)">
                <path d="M169.5,6889.74533 L178.5,6889.74533 C180.433,6889.74533 182,6891.40458 182,6893.30465 L182,6893.24567 C182,6895.14574 180.433,6896.62609 178.5,6896.62609 L168.207,6896.62609 C167.762,6896.62609 167.539,6896.21619 167.854,6895.90656 L169.536,6894.31219 C169.926,6893.92883 169.926,6893.3361 169.536,6892.95275 C169.145,6892.56841 168.512,6892.58315 168.121,6892.96749 L164.586,6896.45014 C163.805,6897.21783 163.805,6898.4662 164.586,6899.23389 C164.586,6899.23389 164.506,6899.15722 168.121,6902.71162 C168.512,6903.09596 169.145,6903.09596 169.536,6902.71261 C169.926,6902.32827 169.926,6901.70605 169.536,6901.32269 L167.854,6899.55041 C167.539,6899.24077 167.762,6898.59202 168.207,6898.59202 L178.063,6898.59202 C182.014,6898.59202 184,6895.96553 184,6893.30465 L184,6893.24567 C184,6890.25942 181.538,6887.7794 178.5,6887.7794 L169.5,6887.7794 C167.567,6887.7794 166,6886.35804 166,6884.45797 L166,6884.39899 C166,6882.49892 167.567,6880.89865 169.5,6880.89865 L179.793,6880.89865 C180.238,6880.89865 180.461,6881.54741 180.146,6881.85704 L178.464,6883.56936 C178.074,6883.9537 178.074,6884.60639 178.464,6884.98975 C178.855,6885.37409 179.488,6885.38883 179.879,6885.00449 L183.414,6881.53659 C184.195,6880.7689 184.195,6879.5284 183.414,6878.7607 C183.414,6878.7607 183.492,6878.83836 179.879,6875.28789 C179.488,6874.90355 178.855,6874.90453 178.464,6875.28789 C178.074,6875.67223 178.074,6876.29444 178.464,6876.67878 L180.146,6878.21319 C180.461,6878.52282 180.238,6878.93272 179.793,6878.93272 L169.5,6878.93272 C166.462,6878.93272 164,6881.4727 164,6884.45797 L164,6884.39899 C164,6887.38425 166.462,6889.74533 169.5,6889.74533" id="arrow_double-[#248]"></path>
            </g>
        </g>
    </g>
</svg>