<?xml version="1.0" encoding="UTF-8" standalone="no"?>
<svg width="20px" height="28px" viewBox="0 0 20 28" version="1.1" xmlns="http://www.w3.org/2000/svg" xmlns:xlink="http://www.w3.org/1999/xlink">
    <!-- Generator: Sketch 3.8.1 (29687) - http://www.bohemiancoding.com/sketch -->
    <title>arrow_right [#253]</title>
    <desc>Created with Sketch.</desc>
    <defs></defs>
    <g id="Page-1" stroke="none" stroke-width="1" fill="none" fill-rule="evenodd">
        <g id="Dribbble-Dark-Preview" transform="translate(-420.000000, -6995.000000)" fill="#FFFFFF">
            <g id="icons" transform="translate(56.000000, 160.000000)">
                <path d="M379.874831,6852.97032 C379.483934,6852.58636 378.8511,6852.58636 378.461202,6852.97032 C378.070305,6853.35428 378.070305,6853.97622 378.461202,6854.35918 L380.245734,6856.08601 C380.560651,6856.39497 379.995799,6856.99791 379.995799,6856.99791 C367.99895,6856.99791 367.99895,6840.99952 379.995799,6840.99952 C379.995799,6840.99952 380.560651,6841.59546 380.245734,6841.90443 L378.513189,6843.59026 C378.122291,6843.97422 378.096298,6844.61216 378.487196,6844.99612 C378.877093,6845.38008 379.49693,6845.38808 379.887828,6845.00412 L383.415901,6841.53547 C384.196696,6840.76855 384.193697,6839.52667 383.412902,6838.75875 C382.867045,6838.2238 380.407691,6835.81004 379.876831,6835.2871 C379.485933,6834.90413 378.8521,6834.90413 378.462202,6835.2881 C378.071305,6835.67106 378.071305,6836.293 378.461202,6836.67696 L380.142761,6838.2458 C380.457678,6838.55477 380.234737,6838.99972 379.788854,6838.99972 C373.262568,6838.99972 369.52155,6843.29429 369.049674,6847.99882 L364.999737,6847.99882 C364.447882,6847.99882 364,6848.45777 364,6848.99972 C364,6849.55166 364.447882,6849.99862 364.999737,6849.99862 L369.049674,6849.99862 C369.52055,6854.69015 373.236574,6858.99771 379.788854,6858.99771 C380.234737,6858.99771 380.457678,6859.43567 380.142761,6859.74464 L378.461202,6861.35148 C378.070305,6861.73544 378.070305,6862.33438 378.461202,6862.71834 C378.8511,6863.1013 379.483934,6863.0903 379.874831,6862.70634 C380.427686,6862.16239 382.861047,6859.76864 383.409903,6859.22469 C384.190698,6858.45777 384.190698,6857.21189 383.409903,6856.44497 L379.874831,6852.97032 Z" id="arrow_right-[#253]"></path>
            </g>
        </g>
    </g>
</svg>