<?xml version="1.0" encoding="UTF-8" standalone="no"?>
<svg width="20px" height="20px" viewBox="0 0 20 20" version="1.1" xmlns="http://www.w3.org/2000/svg" xmlns:xlink="http://www.w3.org/1999/xlink">
    <!-- Generator: Sketch 3.8.1 (29687) - http://www.bohemiancoding.com/sketch -->
    <title>arrow_right_circle [#312]</title>
    <desc>Created with Sketch.</desc>
    <defs></defs>
    <g id="Page-1" stroke="none" stroke-width="1" fill="none" fill-rule="evenodd">
        <g id="Dribbble-Dark-Preview" transform="translate(-60.000000, -6799.000000)" fill="#FFFFFF">
            <g id="icons" transform="translate(56.000000, 160.000000)">
                <path d="M9.40850432,6644.4099 C8.62850432,6645.18852 7.35950432,6645.18852 6.58050432,6644.4099 C5.80050432,6643.63128 5.80050432,6642.36453 6.58050432,6641.58691 C7.35950432,6640.80829 8.62850432,6640.80829 9.40850432,6641.58691 C10.1885043,6642.36453 10.1885043,6643.63128 9.40850432,6644.4099 L9.40850432,6644.4099 Z M22.0195043,6653.98989 L22.0335043,6655.57907 L11.4405043,6645.00185 C11.8325043,6643.98066 12.1445043,6641.4821 10.8285043,6640.16743 C9.26650432,6638.6082 6.73050432,6638.61219 5.16850432,6640.17142 C3.60650432,6641.73065 3.61250432,6644.25318 5.17450432,6645.81241 C6.49050432,6647.12708 8.30050432,6647.5104 10.0295043,6646.41334 L20.6255043,6656.99057 L19.0195043,6656.99755 L19.0085043,6658.998 L23.9995043,6659 L23.9995043,6658.92513 L23.9995043,6653.99688 L22.0195043,6653.98989 Z" id="arrow_right_circle-[#312]"></path>
            </g>
        </g>
    </g>
</svg>