<?xml version="1.0" encoding="UTF-8" standalone="no"?>
<svg width="20px" height="20px" viewBox="0 0 20 20" version="1.1" xmlns="http://www.w3.org/2000/svg" xmlns:xlink="http://www.w3.org/1999/xlink">
    <!-- Generator: Sketch 3.8.1 (29687) - http://www.bohemiancoding.com/sketch -->
    <title>arrow_up [#234]</title>
    <desc>Created with Sketch.</desc>
    <defs></defs>
    <g id="Page-1" stroke="none" stroke-width="1" fill="none" fill-rule="evenodd">
        <g id="Dribbble-Dark-Preview" transform="translate(-380.000000, -7079.000000)" fill="#FFFFFF">
            <g id="icons" transform="translate(56.000000, 160.000000)">
                <path d="M325.998,6919 C324.893,6919 324,6919.895 324,6921 L324,6926 C324,6926.552 324.447,6927 324.999,6927 C325.552,6927 326,6926.552 326,6926 L326,6923.621 C326,6923.176 326.538,6922.953 326.853,6923.268 L329.877,6926.293 C330.268,6926.683 330.901,6926.683 331.291,6926.293 C331.682,6925.902 331.681,6925.269 331.291,6924.879 L328.266,6921.854 C327.951,6921.539 328.174,6921 328.619,6921 L330.998,6921 C331.55,6921 331.998,6920.552 331.998,6920 C331.998,6919.448 331.55,6919 330.998,6919 L325.998,6919 L325.998,6919 Z M344,6932 C344,6931.448 343.551,6931 342.999,6931 C342.447,6931 342,6931.448 342,6932 L342,6934.379 C342,6934.824 341.46,6935.047 341.145,6934.732 L338.12,6931.707 C337.729,6931.317 337.096,6931.317 336.705,6931.707 C336.315,6932.098 336.315,6932.731 336.705,6933.121 L339.73,6936.146 C340.045,6936.461 339.822,6937 339.377,6937 L336.998,6937 C336.446,6937 335.998,6937.448 335.998,6938 C335.998,6938.552 336.446,6939 336.998,6939 L341.998,6939 C343.103,6939 344,6938.105 344,6937 L344,6932 L344,6932 Z" id="arrow_up-[#234]"></path>
            </g>
        </g>
    </g>
</svg>