<?xml version="1.0" encoding="UTF-8" standalone="no"?>
<svg width="16px" height="18px" viewBox="0 0 16 18" version="1.1" xmlns="http://www.w3.org/2000/svg" xmlns:xlink="http://www.w3.org/1999/xlink">
    <!-- Generator: Sketch 3.8.1 (29687) - http://www.bohemiancoding.com/sketch -->
    <title>arrow_repeat [#237]</title>
    <desc>Created with Sketch.</desc>
    <defs></defs>
    <g id="Page-1" stroke="none" stroke-width="1" fill="none" fill-rule="evenodd">
        <g id="Dribbble-Dark-Preview" transform="translate(-262.000000, -7080.000000)" fill="#FFFFFF">
            <g id="icons" transform="translate(56.000000, 160.000000)">
                <path d="M213,6927 L213,6931 L219,6931 L219,6929 L215,6929 L215,6927 L213,6927 Z M220,6930 C220,6933 217.308,6936 214,6936 C210.692,6936 208,6933.308 208,6930 C208,6926.692 210.692,6924 214,6924 L214,6926 L219,6923 L214,6920 L214,6922 C209.582,6922 206,6925.582 206,6930 C206,6934.418 209.582,6938 214,6938 C218.418,6938 222,6935 222,6930 L220,6930 Z" id="arrow_repeat-[#237]"></path>
            </g>
        </g>
    </g>
</svg>