<?xml version="1.0" encoding="UTF-8" standalone="no"?>
<svg width="20px" height="20px" viewBox="0 0 20 20" version="1.1" xmlns="http://www.w3.org/2000/svg" xmlns:xlink="http://www.w3.org/1999/xlink">
    <!-- Generator: Sketch 3.8.1 (29687) - http://www.bohemiancoding.com/sketch -->
    <title>arrow_inside [#258]</title>
    <desc>Created with Sketch.</desc>
    <defs></defs>
    <g id="Page-1" stroke="none" stroke-width="1" fill="none" fill-rule="evenodd">
        <g id="Dribbble-Dark-Preview" transform="translate(-220.000000, -6999.000000)" fill="#FFFFFF">
            <g id="icons" transform="translate(56.000000, 160.000000)">
                <path d="M164.998586,6846.98325 L169.997514,6846.98325 C170.9971,6846.98325 171.996686,6846.09115 171.996686,6844.99049 L171.996686,6844.48756 L171.996686,6839.99912 C171.996686,6839.4483 171.548871,6839.00125 170.9971,6839.00125 C170.445329,6839.00125 169.997514,6839.4483 169.997514,6839.99912 L169.997514,6842.37107 C169.997514,6842.81513 169.458737,6843.03865 169.143868,6842.72432 L165.707292,6839.29263 C165.316454,6838.90246 164.683717,6838.90246 164.292879,6839.29263 L164.292879,6839.29263 C163.90304,6839.6828 163.90304,6840.31445 164.292879,6840.70362 L167.731453,6844.13631 C168.046323,6844.45064 167.823415,6844.9875 167.3776,6844.9875 L164.998586,6844.9875 C164.455811,6844.9875 164.019992,6845.2669 164.005998,6845.79977 C164.033986,6846.34062 164.464807,6846.98325 164.998586,6846.98325 L164.998586,6846.98325 Z M180.26226,6853.82268 C179.94639,6853.50835 180.170298,6852.9705 180.615113,6852.9705 L182.991129,6852.9705 C183.5429,6852.9705 183.991714,6852.36379 183.991714,6851.81197 L183.991714,6851.73114 C183.991714,6851.18031 183.5429,6850.97475 182.991129,6850.97475 L177.995199,6850.97475 L177.9922,6850.97475 C176.888658,6850.97475 175.995028,6851.86884 175.995028,6852.9695 L175.995028,6853.46844 L175.995028,6857.96087 C175.995028,6858.5117 176.443842,6858.95775 176.995614,6858.95775 L176.996613,6858.95775 C177.549384,6858.95775 177.9942,6858.5117 177.9942,6857.96087 L177.9942,6855.58593 C177.9942,6855.14088 178.531977,6854.91835 178.846846,6855.23268 L182.292418,6858.67236 C182.682257,6859.06153 183.314994,6859.06153 183.704833,6858.67236 C184.095671,6858.28219 184.095671,6857.65053 183.705832,6857.26036 L180.26226,6853.82268 Z M183.718827,6840.70362 C184.098669,6840.31246 184.092672,6839.68878 183.706832,6839.3046 L183.696836,6839.29462 C183.305998,6838.90445 182.67326,6838.90545 182.283422,6839.29462 L173.292149,6848.2755 L173.290149,6848.2735 L164.327864,6857.22244 C163.924031,6857.62658 163.940025,6858.28518 164.363849,6858.66836 L164.445815,6858.74221 C164.838652,6859.09645 165.441403,6859.08448 165.818246,6858.71327 L174.995443,6849.6845 L174.995443,6849.68649 L183.718827,6840.70362 Z M164,6845.74489 C164,6845.76285 164.004998,6845.78181 164.005998,6845.79977 C164.004998,6845.80975 164,6845.81574 164,6845.82472 L164,6845.74489 Z" id="arrow_inside-[#258]"></path>
            </g>
        </g>
    </g>
</svg>