<?xml version="1.0" encoding="UTF-8" standalone="no"?>
<svg width="20px" height="20px" viewBox="0 0 20 20" version="1.1" xmlns="http://www.w3.org/2000/svg" xmlns:xlink="http://www.w3.org/1999/xlink">
    <!-- Generator: Sketch 3.8.1 (29687) - http://www.bohemiancoding.com/sketch -->
    <title>arrow_right_double_circle [#325]</title>
    <desc>Created with Sketch.</desc>
    <defs></defs>
    <g id="Page-1" stroke="none" stroke-width="1" fill="none" fill-rule="evenodd">
        <g id="Dribbble-Dark-Preview" transform="translate(-340.000000, -6719.000000)" fill="#FFFFFF">
            <g id="icons" transform="translate(56.000000, 160.000000)">
                <path d="M286.000218,6562.99987 C286.000218,6561.89687 286.897218,6560.99987 288.000218,6560.99987 C289.103218,6560.99987 290.000218,6561.89687 290.000218,6562.99987 C290.000218,6564.10287 289.103218,6564.99987 288.000218,6564.99987 C286.897218,6564.99987 286.000218,6564.10287 286.000218,6562.99987 M291.859218,6563.99987 L301.004218,6563.99987 L300.580218,6564.42387 C300.190218,6564.81387 300.190218,6565.44787 300.581218,6565.83787 L300.581218,6565.83787 C300.972218,6566.22787 301.605218,6566.22787 301.995218,6565.83587 L303.417218,6564.40987 C304.194218,6563.62987 304.194218,6562.36987 303.417218,6561.58987 L301.996218,6560.16387 C301.605218,6559.77187 300.972218,6559.77187 300.581218,6560.16187 C300.190218,6560.55287 300.190218,6561.18587 300.580218,6561.57587 L301.004218,6561.99987 L291.859218,6561.99987 C291.339218,6559.99987 289.316218,6558.58787 287.051218,6559.10887 C285.612218,6559.44087 284.443218,6560.60787 284.110218,6562.04587 C283.504218,6564.66987 285.480218,6566.99987 288.000218,6566.99987 C289.862218,6566.99987 291.413218,6565.99987 291.859218,6563.99987 M286.000218,6575.00087 C286.000218,6573.89787 286.897218,6573.00087 288.000218,6573.00087 C289.103218,6573.00087 290.000218,6573.89787 290.000218,6575.00087 C290.000218,6576.10387 289.103218,6577.00087 288.000218,6577.00087 C286.897218,6577.00087 286.000218,6576.10387 286.000218,6575.00087 M291.859218,6575.99987 L301.004218,6575.99987 L300.580218,6576.42387 C300.190218,6576.81487 300.190218,6577.44787 300.581218,6577.83887 L300.581218,6577.83887 C300.972218,6578.22887 301.605218,6578.22887 301.995218,6577.83687 L303.417218,6576.41087 C304.194218,6575.63187 304.194218,6574.36987 303.417218,6573.59087 L301.996218,6572.16487 C301.605218,6571.77287 300.972218,6571.77287 300.581218,6572.16287 C300.190218,6572.55387 300.190218,6573.18587 300.580218,6573.57687 L301.004218,6573.99987 L291.859218,6573.99987 C291.339218,6571.99987 289.316218,6570.58787 287.051218,6571.10987 C285.612218,6571.44087 284.443218,6572.60787 284.110218,6574.04687 C283.504218,6576.66987 285.480218,6578.99987 288.000218,6578.99987 C289.862218,6578.99987 291.413218,6577.99987 291.859218,6575.99987" id="arrow_right_double_circle-[#325]"></path>
            </g>
        </g>
    </g>
</svg>