<?xml version="1.0" encoding="UTF-8" standalone="no"?>
<svg width="20px" height="20px" viewBox="0 0 20 20" version="1.1" xmlns="http://www.w3.org/2000/svg" xmlns:xlink="http://www.w3.org/1999/xlink">
    <!-- Generator: Sketch 3.8.1 (29687) - http://www.bohemiancoding.com/sketch -->
    <title>arrow_all [#328]</title>
    <desc>Created with Sketch.</desc>
    <defs></defs>
    <g id="Page-1" stroke="none" stroke-width="1" fill="none" fill-rule="evenodd">
        <g id="Dribbble-Dark-Preview" transform="translate(-220.000000, -6719.000000)" fill="#FFFFFF">
            <g id="icons" transform="translate(56.000000, 160.000000)">
                <path d="M172,6571 L176,6571 L176,6567 L172,6567 L172,6571 Z M184,6568.99 L180.465,6565.455 L179.05,6566.869 L180.181,6568 L178,6568 L178,6565 L175,6565 L175,6562.819 L176.131,6563.95 L177.545,6562.535 L174.01,6559 L174,6559.01 L173.99,6559 L170.455,6562.535 L171.869,6563.95 L173,6562.819 L173,6565 L170,6565 L170,6568 L167.819,6568 L168.95,6566.869 L167.536,6565.455 L164,6568.99 L164.01,6569 L164,6569.01 L167.536,6572.545 L168.95,6571.131 L167.819,6570 L170,6570 L170,6573 L173,6573 L173,6575.181 L171.869,6574.05 L170.455,6575.464 L173.99,6579 L174,6578.99 L174.01,6579 L177.545,6575.464 L176.131,6574.05 L175,6575.181 L175,6573 L178,6573 L178,6570 L180.181,6570 L179.05,6571.131 L180.465,6572.545 L184,6569.01 L183.99,6569 L184,6568.99 Z" id="arrow_all-[#328]"></path>
            </g>
        </g>
    </g>
</svg>