<?xml version="1.0" encoding="UTF-8" standalone="no"?>
<svg width="20px" height="20px" viewBox="0 0 20 20" version="1.1" xmlns="http://www.w3.org/2000/svg" xmlns:xlink="http://www.w3.org/1999/xlink">
    <!-- Generator: Sketch 3.8.1 (29687) - http://www.bohemiancoding.com/sketch -->
    <title>arrow_right_outside [#264]</title>
    <desc>Created with Sketch.</desc>
    <defs></defs>
    <g id="Page-1" stroke="none" stroke-width="1" fill="none" fill-rule="evenodd">
        <g id="Dribbble-Dark-Preview" transform="translate(-380.000000, -6959.000000)" fill="#FFFFFF">
            <g id="icons" transform="translate(56.000000, 160.000000)">
                <path d="M335,6800 C335,6799.448 334.552,6799 334,6799 C333.448,6799 333,6799.448 333,6800 L333,6818 C333,6818.552 333.448,6819 334,6819 C334.552,6819 335,6818.552 335,6818 L335,6800 Z M343.415,6807.587 C342.132,6806.304 341.181,6805.353 339.878,6804.05 C339.487,6803.66 338.855,6803.66 338.464,6804.05 C338.074,6804.44 338.073,6805.074 338.464,6805.464 L340.147,6807.146 C340.462,6807.461 340.239,6808 339.793,6808 L337.656,6808 C337.104,6808 336.656,6808.448 336.656,6809 L336.656,6809 C336.656,6809.552 337.104,6810 337.656,6810 L339.791,6810 C340.237,6810 340.46,6810.538 340.145,6810.854 L338.464,6812.535 C338.073,6812.926 338.073,6813.559 338.463,6813.949 L338.464,6813.95 C338.855,6814.34 339.488,6814.34 339.878,6813.95 L343.413,6810.416 L343.435,6810.393 C344.196,6809.609 344.187,6808.36 343.415,6807.587 L343.415,6807.587 Z M330.343,6808 L328.207,6808 C327.761,6808 327.538,6807.461 327.853,6807.146 L329.536,6805.464 C329.927,6805.074 329.927,6804.44 329.536,6804.05 C329.146,6803.66 328.513,6803.66 328.122,6804.05 L324.585,6807.587 C323.805,6808.368 323.805,6809.633 324.585,6810.413 C324.959,6810.787 324.129,6809.957 328.122,6813.95 C328.512,6814.34 329.146,6814.34 329.536,6813.95 C329.927,6813.559 329.927,6812.926 329.536,6812.535 L327.855,6810.854 C327.54,6810.539 327.763,6810 328.209,6810 L330.343,6810 C330.896,6810 331.343,6809.552 331.343,6809 L331.343,6809 C331.343,6808.448 330.896,6808 330.343,6808 L330.343,6808 Z" id="arrow_right_outside-[#264]"></path>
            </g>
        </g>
    </g>
</svg>