<?xml version="1.0" encoding="UTF-8" standalone="no"?>
<svg width="20px" height="12px" viewBox="0 0 20 12" version="1.1" xmlns="http://www.w3.org/2000/svg" xmlns:xlink="http://www.w3.org/1999/xlink">
    <!-- Generator: Sketch 3.8.1 (29687) - http://www.bohemiancoding.com/sketch -->
    <title>arrow_infinity [#239]</title>
    <desc>Created with Sketch.</desc>
    <defs></defs>
    <g id="Page-1" stroke="none" stroke-width="1" fill="none" fill-rule="evenodd">
        <g id="Dribbble-Dark-Preview" transform="translate(-180.000000, -7083.000000)" fill="#FFFFFF">
            <g id="icons" transform="translate(56.000000, 160.000000)">
                <path d="M144,6928.38468 C144,6925.41038 141.538,6923 138.5,6923 C135.48,6923 133,6925.4045 133,6928.38468 C133,6930.20764 131.466,6931.81129 129.5,6931.81129 C127.57,6931.81129 126,6930.27421 126,6928.38468 C126,6926.49515 127.57,6924.95806 129.5,6924.95806 C130.667,6924.95806 131.695,6925.52492 132.332,6926.38745 C132.58,6925.6522 132.897,6925.09415 133.336,6924.53023 C132.345,6923.58448 130.993,6923 129.5,6923 C126.462,6923 124,6925.41038 124,6928.38468 C124,6931.35898 126.462,6933.76936 129.5,6933.76936 C132.52,6933.76936 135,6931.36485 135,6928.38468 C135,6926.55682 136.538,6924.95806 138.5,6924.95806 C140.43,6924.95806 142,6926.49515 142,6928.38468 C142,6929.55952 141.392,6930.59729 140.469,6931.21408 L139.808,6929.50665 L138.328,6931.79073 L137.162,6933.58921 L137.13,6933.63914 L141.933,6935 L141.19,6933.07914 C142.866,6932.15591 144,6930.40148 144,6928.38468" id="arrow_infinity-[#239]"></path>
            </g>
        </g>
    </g>
</svg>