<?xml version="1.0" encoding="UTF-8" standalone="no"?>
<svg width="20px" height="20px" viewBox="0 0 20 20" version="1.1" xmlns="http://www.w3.org/2000/svg" xmlns:xlink="http://www.w3.org/1999/xlink">
    <!-- Generator: Sketch 3.8.1 (29687) - http://www.bohemiancoding.com/sketch -->
    <title>arrow_left_down_right_up [#379]</title>
    <desc>Created with Sketch.</desc>
    <defs></defs>
    <g id="Page-1" stroke="none" stroke-width="1" fill="none" fill-rule="evenodd">
        <g id="Dribbble-Dark-Preview" transform="translate(-180.000000, -6519.000000)" fill="#FFFFFF">
            <g id="icons" transform="translate(56.000000, 160.000000)">
                <path d="M131,6379 L126,6379 C124.895,6379 124,6378.105 124,6377 L124,6372 C124,6371.448 124.448,6371 125,6371 C125.552,6371 126,6371.448 126,6372 L126,6374.379 C126,6374.824 126.539,6375.047 126.854,6374.732 L129.879,6371.707 L139.732,6361.854 C140.047,6361.539 139.824,6361 139.379,6361 L137,6361 C136.448,6361 136,6360.552 136,6360 C136,6359.448 136.448,6359 137,6359 L142,6359 C143.105,6359 144,6359.895 144,6361 L144,6366 C144,6366.552 143.552,6367 143,6367 C142.448,6367 142,6366.552 142,6366 L142,6363.621 C142,6363.176 141.461,6362.953 141.146,6363.268 C133.414,6371 130.996,6373.418 128.268,6376.146 C127.953,6376.461 128.176,6377 128.621,6377 L131,6377 C131.552,6377 132,6377.448 132,6378 C132,6378.552 131.552,6379 131,6379" id="arrow_left_down_right_up-[#379]"></path>
            </g>
        </g>
    </g>
</svg>