<?xml version="1.0" encoding="UTF-8" standalone="no"?>
<svg width="20px" height="20px" viewBox="0 0 20 20" version="1.1" xmlns="http://www.w3.org/2000/svg" xmlns:xlink="http://www.w3.org/1999/xlink">
    <!-- Generator: Sketch 3.8.1 (29687) - http://www.bohemiancoding.com/sketch -->
    <title>arrow_left_down_right_up [#380]</title>
    <desc>Created with Sketch.</desc>
    <defs></defs>
    <g id="Page-1" stroke="none" stroke-width="1" fill="none" fill-rule="evenodd">
        <g id="Dribbble-Dark-Preview" transform="translate(-140.000000, -6519.000000)" fill="#FFFFFF">
            <g id="icons" transform="translate(56.000000, 160.000000)">
                <path d="M84,6377 C84,6378.105 84.619,6379 85.724,6379 L90.724,6379 C91.276,6379 91.724,6378.552 91.724,6378 C91.724,6377.448 91.276,6377 90.724,6377 L88.345,6377 C87.9,6377 87.677,6376.461 87.992,6376.146 L91.017,6373.121 C91.407,6372.731 91.407,6372.098 91.017,6371.707 C90.626,6371.317 89.993,6371.317 89.603,6371.707 L86.716,6374.732 C86.401,6375.047 86,6374.824 86,6374.379 L86,6372 C86,6371.448 85.414,6371 84.862,6371 L84.931,6371 C84.379,6371 84,6371.448 84,6372 L84,6377 Z M96.724,6359 C96.172,6359 95.724,6359.448 95.724,6360 C95.724,6360.552 96.172,6361 96.724,6361 L99.103,6361 C99.548,6361 99.771,6361.539 99.456,6361.854 L96.431,6364.879 C96.041,6365.269 96.041,6365.902 96.431,6366.293 C96.822,6366.683 97.455,6366.683 97.845,6366.293 L101.008,6363.268 C101.323,6362.953 102,6363.176 102,6363.621 L102,6366 C102,6366.552 102.31,6367 102.862,6367 L102.931,6367 C103.483,6367 104,6366.552 104,6366 L104,6361 C104,6359.895 102.829,6359 101.724,6359 L96.724,6359 Z" id="arrow_left_down_right_up-[#380]"></path>
            </g>
        </g>
    </g>
</svg>