<?xml version="1.0" encoding="UTF-8" standalone="no"?>
<svg width="16px" height="18px" viewBox="0 0 16 18" version="1.1" xmlns="http://www.w3.org/2000/svg" xmlns:xlink="http://www.w3.org/1999/xlink">
    <!-- Generator: Sketch 3.8.1 (29687) - http://www.bohemiancoding.com/sketch -->
    <title>arrow_repeat [#238]</title>
    <desc>Created with Sketch.</desc>
    <defs></defs>
    <g id="Page-1" stroke="none" stroke-width="1" fill="none" fill-rule="evenodd">
        <g id="Dribbble-Dark-Preview" transform="translate(-222.000000, -7080.000000)" fill="#FFFFFF">
            <g id="icons" transform="translate(56.000000, 160.000000)">
                <path d="M174.034934,6926.99996 C173.480532,6926.99996 173.030583,6927.44796 173.030583,6927.99996 L173.030583,6930.99994 L178.052339,6930.99994 C178.606741,6930.99994 179.05669,6930.49994 179.05669,6929.94795 L179.05669,6929.92095 C179.05669,6929.36895 178.606741,6928.99995 178.052339,6928.99995 L175.039285,6928.99995 L175.039285,6927.99996 C175.039285,6927.44796 174.589336,6926.99996 174.034934,6926.99996 M180.988058,6929.99995 C180.487891,6929.99995 180.071085,6930.36694 179.999776,6930.85894 C179.520701,6934.16792 176.319833,6936.61391 172.736308,6935.86392 C170.462456,6935.38792 168.623489,6933.55693 168.145418,6931.29294 C167.32888,6927.42296 170.287699,6923.99998 174.034934,6923.99998 L174.034934,6925.99997 L179.05669,6922.99998 L174.034934,6920 L174.034934,6921.99999 C169.070425,6921.99999 165.157472,6926.48297 166.156802,6931.60494 C166.765439,6934.72392 169.290378,6937.23791 172.42295,6937.8439 C177.169514,6938.7619 181.369712,6935.51592 181.990401,6931.12594 C182.074766,6930.52994 181.591673,6929.99995 180.988058,6929.99995" id="arrow_repeat-[#238]"></path>
            </g>
        </g>
    </g>
</svg>