<?xml version="1.0" encoding="UTF-8" standalone="no"?>
<svg width="20px" height="20px" viewBox="0 0 20 20" version="1.1" xmlns="http://www.w3.org/2000/svg" xmlns:xlink="http://www.w3.org/1999/xlink">
    <!-- Generator: Sketch 3.8.1 (29687) - http://www.bohemiancoding.com/sketch -->
    <title>arrow_left_circle [#307]</title>
    <desc>Created with Sketch.</desc>
    <defs></defs>
    <g id="Page-1" stroke="none" stroke-width="1" fill="none" fill-rule="evenodd">
        <g id="Dribbble-Dark-Preview" transform="translate(-260.000000, -6799.000000)" fill="#FFFFFF">
            <g id="icons" transform="translate(56.000000, 160.000000)">
                <path d="M222,6643.02719 C222,6644.12969 221.103,6645.02629 220,6645.02629 C218.897,6645.02629 218,6644.12969 218,6643.02719 C218,6641.92468 218.897,6641.02809 220,6641.02809 C221.103,6641.02809 222,6641.92468 222,6643.02719 M216.141,6641.98066 L207.819,6641.98066 L208.95,6640.87416 L207.536,6639.47179 L204,6643.01219 L204.01,6643.02419 L204,6643.03518 L207.536,6646.56959 L208.95,6645.13324 L207.819,6643.97976 L216.141,6643.97976 C216.587,6645.97886 218.138,6647.0024 220,6647.0024 C222.209,6647.0024 224,6645.2242 224,6643.01519 C224,6640.80719 222.209,6639 220,6639 C218.138,6639 216.587,6639.98156 216.141,6641.98066 M222,6655.02879 C222,6656.13129 221.103,6657.02789 220,6657.02789 C218.897,6657.02789 218,6656.13129 218,6655.02879 C218,6653.92628 218.897,6653.02969 220,6653.02969 C221.103,6653.02969 222,6653.92628 222,6655.02879 M216.141,6653.97526 L207.819,6653.97526 L208.95,6652.87176 L207.536,6651.47239 L204,6655.01279 L204.01,6655.02579 L204,6655.03678 L207.536,6658.57119 L208.95,6657.13184 L207.819,6655.97436 L216.141,6655.97436 C216.587,6657.97346 218.138,6659 220,6659 C222.209,6659 224,6657.2238 224,6655.01579 C224,6652.80779 222.209,6650.9976 220,6650.9976 C218.138,6650.9976 216.587,6651.97616 216.141,6653.97526" id="arrow_left_circle-[#307]"></path>
            </g>
        </g>
    </g>
</svg>