<?xml version="1.0" encoding="UTF-8" standalone="no"?>
<svg width="20px" height="20px" viewBox="0 0 20 20" version="1.1" xmlns="http://www.w3.org/2000/svg" xmlns:xlink="http://www.w3.org/1999/xlink">
    <!-- Generator: Sketch 3.8.1 (29687) - http://www.bohemiancoding.com/sketch -->
    <title>arrow_all [#332]</title>
    <desc>Created with Sketch.</desc>
    <defs></defs>
    <g id="Page-1" stroke="none" stroke-width="1" fill="none" fill-rule="evenodd">
        <g id="Dribbble-Dark-Preview" transform="translate(-60.000000, -6719.000000)" fill="#FFFFFF">
            <g id="icons" transform="translate(56.000000, 160.000000)">
                <path d="M15.414,6570.415 C14.634,6571.195 13.365,6571.195 12.586,6570.415 C11.806,6569.635 11.806,6568.366 12.586,6567.587 C13.365,6566.807 14.634,6566.807 15.414,6567.587 C16.194,6568.366 16.194,6569.635 15.414,6570.415 M23,6573.987 C22.447,6573.987 22,6574.434 22,6574.986 L22,6575.585 L17.436,6571.022 C18.17,6569.775 18.17,6568.227 17.436,6566.979 L22,6562.415 L22,6563.014 C22,6563.567 22.447,6564.014 23,6564.014 C23.552,6564.014 24,6563.567 24,6563.014 L23.995,6561.001 C23.993,6559.9 23.101,6559.008 22,6559.005 L19.986,6559.001 C19.434,6559.001 18.986,6559.448 18.986,6560.001 C18.986,6560.553 19.434,6561.001 19.986,6561.001 L20.586,6561.001 L16.021,6565.565 C14.774,6564.831 13.226,6564.831 11.978,6565.565 L7.415,6561.001 L8.015,6561.001 C8.567,6561.001 9.015,6560.554 9.015,6560.001 C9.015,6559.449 8.566,6559 8.013,6559 L6,6559.005 C4.898,6559.007 4.006,6559.899 4.004,6561.001 L4,6563.014 C4,6563.567 4.448,6564.015 5,6564.015 C5.552,6564.015 6,6563.568 6,6563.015 L6,6562.416 L10.564,6566.979 C9.83,6568.227 9.83,6569.775 10.564,6571.022 L6,6575.587 L6,6574.987 C6,6574.435 5.552,6573.987 5,6573.987 C4.448,6573.987 4,6574.435 4,6574.987 L4.004,6577.001 C4.007,6578.102 4.899,6578.994 6,6578.996 L8.013,6579.001 C8.566,6579.001 9.013,6578.553 9.013,6578.001 C9.013,6577.448 8.566,6577.001 8.013,6577.001 L7.414,6577.001 L11.978,6572.436 C13.226,6573.17 14.774,6573.171 16.021,6572.437 L20.584,6577.001 L19.985,6577.001 C19.433,6577.001 18.985,6577.448 18.985,6578 C18.985,6578.552 19.434,6579.001 19.986,6579.001 L22,6578.997 C23.101,6578.995 23.994,6578.102 23.996,6577.001 L24,6574.987 C24,6574.435 23.552,6573.987 23,6573.987" id="arrow_all-[#332]"></path>
            </g>
        </g>
    </g>
</svg>