<?xml version="1.0" encoding="UTF-8" standalone="no"?>
<svg width="20px" height="28px" viewBox="0 0 20 28" version="1.1" xmlns="http://www.w3.org/2000/svg" xmlns:xlink="http://www.w3.org/1999/xlink">
    <!-- Generator: Sketch 3.8.1 (29687) - http://www.bohemiancoding.com/sketch -->
    <title>arrow_right_double [#254]</title>
    <desc>Created with Sketch.</desc>
    <defs></defs>
    <g id="Page-1" stroke="none" stroke-width="1" fill="none" fill-rule="evenodd">
        <g id="Dribbble-Dark-Preview" transform="translate(-380.000000, -6995.000000)" fill="#FFFFFF">
            <g id="icons" transform="translate(56.000000, 160.000000)">
                <path d="M339.879,6853.00355 C339.488,6852.61922 338.855,6852.61922 338.465,6853.00355 C338.074,6853.38788 338.074,6854.01009 338.465,6854.39344 L340.147,6855.92782 C340.462,6856.23745 340.239,6856.64734 339.793,6856.64734 L336.724,6856.64734 C336.704,6856.64734 332.893,6852.95735 332.879,6852.94359 C332.488,6852.56024 331.855,6852.58973 331.465,6852.97406 C331.074,6853.35741 331.074,6853.99535 331.465,6854.3787 L333.147,6855.91996 C333.462,6856.22959 333.239,6856.64734 332.793,6856.64734 L327,6856.64734 C326.448,6856.64734 326,6856.44584 326,6855.90325 L326,6842.14197 C326,6841.5984 326.448,6840.92016 327,6840.92016 L332.793,6840.92016 C333.239,6840.92016 333.462,6841.56891 333.147,6841.87854 L331.465,6843.59182 C331.074,6843.97517 331.074,6844.62784 331.465,6845.01119 C331.855,6845.39553 332.488,6845.41027 332.879,6845.02594 L336.415,6841.43916 C336.54,6841.31531 336.638,6840.92016 336.724,6840.92016 L339.793,6840.92016 C340.239,6840.92016 340.462,6841.56891 340.147,6841.87854 L338.465,6843.59182 C338.074,6843.97517 338.074,6844.62784 338.465,6845.01119 C338.855,6845.39553 339.488,6845.41027 339.879,6845.02594 L343.415,6841.55809 C344.196,6840.79041 344.196,6839.54993 343.415,6838.78225 C342.867,6838.24752 340.431,6835.85208 339.879,6835.30949 C339.488,6834.92516 338.855,6834.92614 338.465,6835.30949 C338.074,6835.69382 338.074,6836.31603 338.465,6836.70036 L340.147,6838.23474 C340.462,6838.54437 340.239,6838.95426 339.793,6838.95426 L336.724,6838.95426 C336.638,6838.95426 336.54,6838.79011 336.415,6838.66626 C335.866,6838.21902 333.388,6835.77541 332.879,6835.28098 C332.488,6834.89665 331.855,6834.91139 331.465,6835.29573 C331.074,6835.67908 331.074,6836.30915 331.465,6836.69348 L333.147,6838.23081 C333.462,6838.54044 333.239,6838.95426 332.793,6838.95426 L326,6838.95426 C324.896,6838.95426 324,6840.07286 324,6841.15902 L324,6856.8862 C324,6857.97137 324.896,6858.61324 326,6858.61324 L332.793,6858.61324 C333.239,6858.61324 333.462,6859.26199 333.147,6859.57161 L331.465,6861.28489 C331.074,6861.66824 331.074,6862.32092 331.465,6862.70427 C331.855,6863.08861 332.488,6863.10335 332.879,6862.71902 C336.476,6859.1922 335.889,6859.82522 336.415,6859.13617 C336.54,6859.01232 336.638,6858.61324 336.724,6858.61324 L339.793,6858.61324 C340.239,6858.61324 340.462,6859.26199 340.147,6859.57161 L338.465,6861.28489 C338.074,6861.66824 338.074,6862.32092 338.465,6862.70427 C338.855,6863.08861 339.488,6863.10335 339.879,6862.71902 C340.43,6862.17839 342.868,6859.78688 343.415,6859.2551 C344.196,6858.48742 344.196,6857.24497 343.415,6856.47729 L339.879,6853.00355 Z" id="arrow_right_double-[#254]"></path>
            </g>
        </g>
    </g>
</svg>