<?xml version="1.0" encoding="UTF-8" standalone="no"?>
<svg width="20px" height="20px" viewBox="0 0 20 20" version="1.1" xmlns="http://www.w3.org/2000/svg" xmlns:xlink="http://www.w3.org/1999/xlink">
    <!-- Generator: Sketch 3.8.1 (29687) - http://www.bohemiancoding.com/sketch -->
    <title>arrow_right_corner [#279]</title>
    <desc>Created with Sketch.</desc>
    <defs></defs>
    <g id="Page-1" stroke="none" stroke-width="1" fill="none" fill-rule="evenodd">
        <g id="Dribbble-Dark-Preview" transform="translate(-180.000000, -6919.000000)" fill="#FFFFFF">
            <g id="icons" transform="translate(56.000000, 160.000000)">
                <path d="M132,6764 C132,6763.448 132.448,6763 133,6763 L138,6763 C139.105,6763 140,6763.895 140,6765 L140,6770 C140,6770.552 139.552,6771 139,6771 C138.448,6771 138,6770.552 138,6770 L138,6767.621 C138,6767.176 137.461,6766.953 137.146,6767.268 L134.121,6770.293 C133.731,6770.683 133.098,6770.683 132.707,6770.293 C132.317,6769.902 132.317,6769.269 132.707,6768.879 L135.732,6765.854 C136.047,6765.539 135.824,6765 135.379,6765 L133,6765 C132.448,6765 132,6764.552 132,6764 L132,6764 Z M126,6762 C126,6761.448 126.448,6761 127,6761 L141,6761 C141.552,6761 142,6761.448 142,6762 L142,6776 C142,6776.552 141.552,6777 141,6777 L133,6777 C132.448,6777 132,6776.552 132,6776 L132,6773 C132,6771.895 131.105,6771 130,6771 L127,6771 C126.448,6771 126,6770.552 126,6770 L126,6762 Z M144,6761 C144,6759.895 143.105,6759 142,6759 L126,6759 C124.895,6759 124,6759.895 124,6761 L124,6777 C124,6778.105 124.895,6779 126,6779 L142,6779 C143.105,6779 144,6778.105 144,6777 L144,6761 Z" id="arrow_right_corner-[#279]"></path>
            </g>
        </g>
    </g>
</svg>