<?xml version="1.0" encoding="UTF-8" standalone="no"?>
<svg width="25px" height="21px" viewBox="0 0 25 21" version="1.1" xmlns="http://www.w3.org/2000/svg" xmlns:xlink="http://www.w3.org/1999/xlink">
    <!-- Generator: Sketch 3.8.1 (29687) - http://www.bohemiancoding.com/sketch -->
    <title>arrow_up [#366]</title>
    <desc>Created with Sketch.</desc>
    <defs></defs>
    <g id="Page-1" stroke="none" stroke-width="1" fill="none" fill-rule="evenodd">
        <g id="Dribbble-Dark-Preview" transform="translate(-300.000000, -6559.000000)" fill="#FFFFFF">
            <g id="icons" transform="translate(56.000000, 160.000000)">
                <path d="M262,6409.31425 L262,6401.99625 L259.361,6404.57725 C258.985,6404.94525 258.383,6404.94525 258.006,6404.57825 L257.937,6404.51025 C257.55,6404.13325 257.546,6403.51225 257.927,6403.13025 C259.207,6401.84825 260.244,6400.80325 261.454,6399.58825 C262.235,6398.80525 263.507,6398.80325 264.289,6399.58625 C265.506,6400.80525 266.61,6401.91425 267.85,6403.15425 C268.222,6403.52725 268.231,6404.12925 267.868,6404.51025 L267.867,6404.51125 C267.488,6404.90925 266.855,6404.91325 266.471,6404.52125 L264,6401.99625 L264,6409.31425 C264,6414.83725 259.523,6419.31425 254,6419.31425 L254,6419.31425 C248.477,6419.31425 244,6414.83725 244,6409.31425 L244,6399.31425 L246,6399.31425 L246,6409.31425 C246,6413.73225 249.582,6417.31425 254,6417.31425 L254,6417.31425 C258.418,6417.31425 262,6413.73225 262,6409.31425" id="arrow_up-[#366]"></path>
            </g>
        </g>
    </g>
</svg>