<?xml version="1.0" encoding="UTF-8" standalone="no"?>
<svg width="20px" height="20px" viewBox="0 0 20 20" version="1.1" xmlns="http://www.w3.org/2000/svg" xmlns:xlink="http://www.w3.org/1999/xlink">
    <!-- Generator: Sketch 3.8.1 (29687) - http://www.bohemiancoding.com/sketch -->
    <title>arrow_left_circle [#319]</title>
    <desc>Created with Sketch.</desc>
    <defs></defs>
    <g id="Page-1" stroke="none" stroke-width="1" fill="none" fill-rule="evenodd">
        <g id="Dribbble-Dark-Preview" transform="translate(-180.000000, -6759.000000)" fill="#FFFFFF">
            <g id="icons" transform="translate(56.000000, 160.000000)">
                <path d="M138.580331,6601.58549 C139.3596,6600.80592 140.627411,6600.80592 141.405682,6601.58549 C142.184951,6602.36507 142.184951,6603.63337 141.405682,6604.41195 C140.627411,6605.19153 139.3596,6605.19153 138.580331,6604.41195 C137.801061,6603.63337 137.801061,6602.36507 138.580331,6601.58549 L138.580331,6601.58549 Z M124.001001,6617.00409 C124.002999,6618.10449 124.894163,6618.995 125.993133,6618.997 L128.005246,6619 C128.557728,6619.001 129.005309,6618.54824 129.006308,6617.99555 C129.006308,6617.44385 128.558727,6616.99009 128.007244,6616.99009 L127.408805,6616.99009 L137.973899,6606.42685 C139.760224,6607.47828 142.179956,6607.04451 143.411801,6605.07459 C144.195066,6603.82327 144.196065,6602.17417 143.414798,6600.92285 C141.990134,6598.6401 138.947986,6598.39023 137.167655,6600.17126 C135.851889,6601.48754 135.661068,6603.48645 136.562223,6605.01862 L125.998128,6615.58786 L125.998128,6614.98918 C125.998128,6614.43749 125.556542,6613.99173 125.005059,6613.99173 L125.000064,6613.99173 C124.448581,6613.99173 123.999003,6614.43948 124.000002,6614.99218 L124.001001,6617.00409 Z" id="arrow_left_circle-[#319]"></path>
            </g>
        </g>
    </g>
</svg>