<?xml version="1.0" encoding="UTF-8" standalone="no"?>
<svg width="20px" height="8px" viewBox="0 0 20 8" version="1.1" xmlns="http://www.w3.org/2000/svg" xmlns:xlink="http://www.w3.org/1999/xlink">
    <!-- Generator: Sketch 3.8.1 (29687) - http://www.bohemiancoding.com/sketch -->
    <title>arrow_right_circle [#302]</title>
    <desc>Created with Sketch.</desc>
    <defs></defs>
    <g id="Page-1" stroke="none" stroke-width="1" fill="none" fill-rule="evenodd">
        <g id="Dribbble-Dark-Preview" transform="translate(-60.000000, -6845.000000)" fill="#FFFFFF">
            <g id="icons" transform="translate(56.000000, 160.000000)">
                <path d="M6,6689.002 C6,6687.899 6.897,6687.002 8,6687.002 C9.103,6687.002 10,6687.899 10,6689.002 C10,6690.105 9.103,6691.002 8,6691.002 C6.897,6691.002 6,6690.105 6,6689.002 M11.859,6689.998 L20.181,6689.998 L19.05,6691.131 L20.464,6692.546 L24,6689.011 L23.99,6689.002 L24,6688.992 L20.464,6685.457 L19.05,6686.869 L20.181,6687.998 L11.859,6687.998 C11.812,6686.436 10.375,6685 8,6685 C5.791,6685 4,6686.792 4,6689.001 C4,6691.21 5.791,6693 8,6693 C9.862,6693 11.413,6691.998 11.859,6689.998" id="arrow_right_circle-[#302]"></path>
            </g>
        </g>
    </g>
</svg>