<?xml version="1.0" encoding="UTF-8" standalone="no"?>
<svg width="20px" height="20px" viewBox="0 0 20 20" version="1.1" xmlns="http://www.w3.org/2000/svg" xmlns:xlink="http://www.w3.org/1999/xlink">
    <!-- Generator: Sketch 3.8.1 (29687) - http://www.bohemiancoding.com/sketch -->
    <title>arrow_left_circle [#317]</title>
    <desc>Created with Sketch.</desc>
    <defs></defs>
    <g id="Page-1" stroke="none" stroke-width="1" fill="none" fill-rule="evenodd">
        <g id="Dribbble-Dark-Preview" transform="translate(-260.000000, -6759.000000)" fill="#FFFFFF">
            <g id="icons" transform="translate(56.000000, 160.000000)">
                <path d="M218.590101,6604.40864 C217.811483,6603.62862 217.811483,6602.35959 218.590101,6601.58057 C219.368719,6600.80055 220.63547,6600.80055 221.41309,6601.58057 C222.191708,6602.35959 222.191708,6603.62862 221.41309,6604.40864 C220.63547,6605.18866 219.368719,6605.18866 218.590101,6604.40864 L218.590101,6604.40864 Z M209.010107,6617.01995 L207.420928,6617.03395 L217.998152,6606.44069 C219.019339,6606.8327 221.517904,6607.14471 222.83257,6605.82867 C224.391803,6604.26663 224.38781,6601.73057 222.828577,6600.16853 C221.269345,6598.60649 218.746823,6598.61249 217.187591,6600.17453 C215.872924,6601.49057 215.489605,6603.30061 216.586657,6605.02965 L206.009433,6615.61692 L206.002445,6613.99988 L204.001996,6613.99988 L204,6619 L204.074867,6619 L209.003119,6619 L209.010107,6617.01995 Z" id="arrow_left_circle-[#317]"></path>
            </g>
        </g>
    </g>
</svg>