<?xml version="1.0" encoding="UTF-8" standalone="no"?>
<svg width="12px" height="20px" viewBox="0 0 12 20" version="1.1" xmlns="http://www.w3.org/2000/svg" xmlns:xlink="http://www.w3.org/1999/xlink">
    <!-- Generator: Sketch 3.8.1 (29687) - http://www.bohemiancoding.com/sketch -->
    <title>arrow_up [#287]</title>
    <desc>Created with Sketch.</desc>
    <defs></defs>
    <g id="Page-1" stroke="none" stroke-width="1" fill="none" fill-rule="evenodd">
        <g id="Dribbble-Dark-Preview" transform="translate(-264.000000, -6879.000000)" fill="#FFFFFF">
            <g id="icons" transform="translate(56.000000, 160.000000)">
                <path d="M213.906,6729.99975 L213.953,6729.99975 C213.401,6729.99975 213,6730.44775 213,6730.99975 L213,6731.99975 L211.812,6731.99975 C211.26,6731.99975 211,6732.34775 211,6732.90075 L211,6732.85075 C211,6733.40275 211.26,6733.99975 211.812,6733.99975 L213,6733.99975 L213,6734.99975 C213,6735.55175 213.354,6735.99975 213.906,6735.99975 L213.953,6735.99975 C214.505,6735.99975 215,6735.55175 215,6734.99975 L215,6733.99975 L215.812,6733.99975 C216.365,6733.99975 217,6733.45275 217,6732.90075 L217,6732.85075 C217,6732.29875 216.365,6731.99975 215.812,6731.99975 L215,6731.99975 L215,6730.99975 C215,6730.44775 214.458,6729.99975 213.906,6729.99975 L213.906,6729.99975 Z M218,6735.99975 C218,6736.55175 217.365,6736.99975 216.812,6736.99975 L210.812,6736.99975 C210.26,6736.99975 210,6736.55175 210,6735.99975 L210,6725.11275 C210,6724.97775 209.96,6724.84875 210.057,6724.75475 L213.161,6721.68075 C213.549,6721.30175 214.146,6721.30175 214.534,6721.68075 L217.767,6724.75475 C217.863,6724.84875 218,6724.97775 218,6725.11275 L218,6735.99975 Z M219.604,6723.76475 L215.256,6719.56775 C214.479,6718.81075 213.216,6718.81075 212.439,6719.56775 L208.219,6723.76475 C208.026,6723.95275 208,6724.21075 208,6724.48075 L208,6736.99975 C208,6738.10475 208.708,6738.99975 209.812,6738.99975 L217.812,6738.99975 C218.917,6738.99975 220,6738.10475 220,6736.99975 L220,6724.48075 C220,6724.21075 219.797,6723.95275 219.604,6723.76475 L219.604,6723.76475 Z" id="arrow_up-[#287]"></path>
            </g>
        </g>
    </g>
</svg>