<?xml version="1.0" encoding="UTF-8" standalone="no"?>
<svg width="20px" height="20px" viewBox="0 0 20 20" version="1.1" xmlns="http://www.w3.org/2000/svg" xmlns:xlink="http://www.w3.org/1999/xlink">
    <!-- Generator: Sketch 3.8.1 (29687) - http://www.bohemiancoding.com/sketch -->
    <title>arrow_up_outside [#263]</title>
    <desc>Created with Sketch.</desc>
    <defs></defs>
    <g id="Page-1" stroke="none" stroke-width="1" fill="none" fill-rule="evenodd">
        <g id="Dribbble-Dark-Preview" transform="translate(-420.000000, -6959.000000)" fill="#FFFFFF">
            <g id="icons" transform="translate(56.000000, 160.000000)">
                <path d="M383,6806.11129 L378,6806.11129 L378,6803.27389 C378,6802.8208 378.539,6802.59425 378.854,6802.91426 L380.536,6804.62402 C380.927,6805.02123 381.56,6805.02123 381.95,6804.62402 C382.341,6804.22782 382.341,6803.58475 381.95,6803.18753 L378.413,6799.5943 C377.633,6798.8019 376.367,6798.8019 375.587,6799.5943 C375.021,6800.1693 374.901,6800.29121 372.05,6803.18753 C371.66,6803.58374 371.66,6804.22782 372.051,6804.62402 C372.441,6805.02123 373.074,6805.02123 373.465,6804.62402 L375.146,6802.91629 C375.461,6802.59628 376,6802.82283 376,6803.27592 L376,6806.11129 L365,6806.11129 C364.448,6806.11129 364,6806.56641 364,6807.12719 C364,6807.68797 364.448,6808.14309 365,6808.14309 L383,6808.14309 C383.552,6808.14309 384,6807.68797 384,6807.12719 C384,6806.56641 383.552,6806.11129 383,6806.11129 M365,6812.20668 L370,6812.20668 L370,6814.72611 C370,6815.1792 369.461,6815.40575 369.146,6815.08574 L367.464,6813.37598 C367.074,6812.97877 366.44,6812.97877 366.05,6813.37598 C365.66,6813.77218 365.66,6814.41525 366.05,6814.81247 L369.587,6818.4057 C370.368,6819.1981 371.633,6819.1981 372.413,6818.4057 C372.983,6817.82664 373.098,6817.71082 375.95,6814.81247 C376.34,6814.41626 376.34,6813.77218 375.95,6813.37598 C375.559,6812.97877 374.926,6812.97877 374.535,6813.37598 L372.854,6815.08371 C372.539,6815.40372 372,6815.17717 372,6814.72408 L372,6812.20668 L383,6812.20668 C383.552,6812.20668 384,6811.75156 384,6811.19079 C384,6810.63001 383.552,6810.17489 383,6810.17489 L365,6810.17489 C364.448,6810.17489 364,6810.63001 364,6811.19079 C364,6811.75156 364.448,6812.20668 365,6812.20668" id="arrow_up_outside-[#263]"></path>
            </g>
        </g>
    </g>
</svg>