<?xml version="1.0" encoding="UTF-8" standalone="no"?>
<svg width="20px" height="15px" viewBox="0 0 20 15" version="1.1" xmlns="http://www.w3.org/2000/svg" xmlns:xlink="http://www.w3.org/1999/xlink">
    <!-- Generator: Sketch 3.8.1 (29687) - http://www.bohemiancoding.com/sketch -->
    <title>arrow_right_up [#297]</title>
    <desc>Created with Sketch.</desc>
    <defs></defs>
    <g id="Page-1" stroke="none" stroke-width="1" fill="none" fill-rule="evenodd">
        <g id="Dribbble-Dark-Preview" transform="translate(-260.000000, -6842.000000)" fill="#FFFFFF">
            <g id="icons" transform="translate(56.000000, 160.000000)">
                <path d="M215.865057,6691.53057 L221.192612,6685.96676 C221.50676,6685.64094 222.005408,6685.8716 222.005408,6686.33189 L222.005408,6688.72333 C222.005408,6689.29429 222.490094,6690.27486 223.040601,6690.27486 L223.021653,6690.27486 C223.573157,6690.27486 224,6689.29429 224,6688.72333 L224,6683.55154 C224,6682.40857 223.182217,6682 222.081203,6682 L217.094723,6682 C216.544216,6682 216.021633,6682.2048 216.021633,6682.77577 L216.021633,6682.90506 C216.021633,6683.47603 216.544216,6684.06872 217.094723,6684.06872 L219.533112,6684.06872 C219.977906,6684.06872 220.200303,6684.36765 219.886154,6684.69347 L215.160967,6689.46393 C214.772021,6689.86836 214.140733,6689.8032 213.75079,6689.3998 L213.339904,6688.94054 C212.561016,6688.13271 211.29844,6688.11719 210.518554,6688.92503 L204.238582,6695.24082 C203.848639,6695.64421 204.054082,6696.29483 204.054082,6696.69926 L204.054082,6696.69719 C205.051378,6697.10163 205.258816,6697.10059 205.648758,6696.69616 L211.131891,6691.10442 C211.521834,6690.69998 212.198998,6690.69998 212.58894,6691.10442 L213.019772,6691.5285 C213.797663,6692.33841 215.085172,6692.33944 215.865057,6691.53057" id="arrow_right_up-[#297]"></path>
            </g>
        </g>
    </g>
</svg>