<?xml version="1.0" encoding="UTF-8" standalone="no"?>
<svg width="20px" height="20px" viewBox="0 0 20 20" version="1.1" xmlns="http://www.w3.org/2000/svg" xmlns:xlink="http://www.w3.org/1999/xlink">
    <!-- Generator: Sketch 3.8.1 (29687) - http://www.bohemiancoding.com/sketch -->
    <title>arrow_inside [#261]</title>
    <desc>Created with Sketch.</desc>
    <defs></defs>
    <g id="Page-1" stroke="none" stroke-width="1" fill="none" fill-rule="evenodd">
        <g id="Dribbble-Dark-Preview" transform="translate(-100.000000, -6999.000000)" fill="#FFFFFF">
            <g id="icons" transform="translate(56.000000, 160.000000)">
                <path d="M63,6857 L58,6857 L58,6852.863 C58,6852.418 58.539,6852.195 58.854,6852.51 L60.536,6854.193 C60.926,6854.583 61.56,6854.583 61.95,6854.193 C62.341,6853.802 62.341,6853.169 61.95,6852.779 L58.413,6849.242 C57.633,6848.461 56.367,6848.461 55.587,6849.242 C55.021,6849.808 54.901,6849.927 52.05,6852.778 C51.66,6853.169 51.66,6853.802 52.051,6854.193 C52.441,6854.583 53.074,6854.583 53.465,6854.193 L55.146,6852.512 C55.461,6852.197 56,6852.42 56,6852.865 L56,6857 L45,6857 C44.448,6857 44,6857.448 44,6858 C44,6858.552 44.448,6859 45,6859 L63,6859 C63.552,6859 64,6858.552 64,6858 C64,6857.448 63.552,6857 63,6857 M45,6841 L50,6841 L50,6845.137 C50,6845.582 49.461,6845.805 49.146,6845.49 L47.464,6843.807 C47.074,6843.417 46.44,6843.417 46.05,6843.807 C45.66,6844.198 45.66,6844.831 46.05,6845.221 L49.587,6848.758 C50.368,6849.539 51.633,6849.539 52.413,6848.758 C52.983,6848.189 53.098,6848.074 55.95,6845.222 C56.34,6844.831 56.34,6844.198 55.95,6843.807 C55.559,6843.417 54.926,6843.417 54.535,6843.807 L52.854,6845.488 C52.539,6845.803 52,6845.58 52,6845.135 L52,6841 L63,6841 C63.552,6841 64,6840.552 64,6840 C64,6839.448 63.552,6839 63,6839 L45,6839 C44.448,6839 44,6839.448 44,6840 C44,6840.552 44.448,6841 45,6841" id="arrow_inside-[#261]"></path>
            </g>
        </g>
    </g>
</svg>