<?xml version="1.0" encoding="UTF-8" standalone="no"?>
<svg width="20px" height="20px" viewBox="0 0 20 20" version="1.1" xmlns="http://www.w3.org/2000/svg" xmlns:xlink="http://www.w3.org/1999/xlink">
    <!-- Generator: Sketch 3.8.1 (29687) - http://www.bohemiancoding.com/sketch -->
    <title>arrow_right [#359]</title>
    <desc>Created with Sketch.</desc>
    <defs></defs>
    <g id="Page-1" stroke="none" stroke-width="1" fill="none" fill-rule="evenodd">
        <g id="Dribbble-Dark-Preview" transform="translate(-180.000000, -6599.000000)" fill="#FFFFFF">
            <g id="icons" transform="translate(56.000000, 160.000000)">
                <path d="M143.999625,6457.01567 L143.999625,6445.88023 C143.999625,6445.34087 143.563625,6444.99063 143.024625,6444.99063 L142.996625,6444.99063 C142.446625,6444.99063 141.999625,6445.32886 141.999625,6445.87923 L141.999625,6454.43395 C141.999625,6454.88024 141.459625,6455.10239 141.144625,6454.78718 L125.684625,6439.28982 C125.299625,6438.90356 124.673625,6438.90356 124.288625,6439.28882 L124.288625,6439.28882 C123.903625,6439.67508 123.903625,6440.30049 124.289625,6440.68475 L139.788625,6456.1531 C140.104625,6456.46831 139.881625,6456.99866 139.435625,6456.99866 L130.981625,6456.99866 C130.437625,6456.99866 129.999625,6457.45697 129.999625,6458.00233 L129.999625,6458.03035 C129.999625,6458.57572 130.437625,6459 130.981625,6459 L141.995625,6459 C143.100625,6459 143.999625,6458.12141 143.999625,6457.01567" id="arrow_right-[#359]"></path>
            </g>
        </g>
    </g>
</svg>