<?xml version="1.0" encoding="UTF-8" standalone="no"?>
<svg width="20px" height="8px" viewBox="0 0 20 8" version="1.1" xmlns="http://www.w3.org/2000/svg" xmlns:xlink="http://www.w3.org/1999/xlink">
    <!-- Generator: Sketch 3.8.1 (29687) - http://www.bohemiancoding.com/sketch -->
    <title>arrow_left_circle [#311]</title>
    <desc>Created with Sketch.</desc>
    <defs></defs>
    <g id="Page-1" stroke="none" stroke-width="1" fill="none" fill-rule="evenodd">
        <g id="Dribbble-Dark-Preview" transform="translate(-100.000000, -6805.000000)" fill="#FFFFFF">
            <g id="icons" transform="translate(56.000000, 160.000000)">
                <path d="M61.99975,6649 C61.99975,6650.103 61.10275,6651 59.99975,6651 C58.89675,6651 57.99975,6650.103 57.99975,6649 C57.99975,6647.897 58.89675,6647 59.99975,6647 C61.10275,6647 61.99975,6647.897 61.99975,6649 M56.14075,6648 L46.99575,6648 L47.41975,6647.576 C47.80975,6647.186 47.80975,6646.552 47.41875,6646.162 L47.41875,6646.162 C47.02775,6645.772 46.39475,6645.772 46.00475,6646.164 L44.58275,6647.59 C43.80575,6648.369 43.80575,6649.631 44.58275,6650.41 L46.00375,6651.836 C46.39475,6652.228 47.02775,6652.228 47.41875,6651.838 L47.41875,6651.838 C47.80975,6651.447 47.80975,6650.814 47.41975,6650.424 L46.99575,6650 L56.14075,6650 C56.66175,6652 58.68375,6653.412 60.94875,6652.89 C62.38775,6652.559 63.55675,6651.392 63.88975,6649.954 C64.49575,6647.33 62.51975,6645 59.99975,6645 C58.13775,6645 56.58675,6646 56.14075,6648" id="arrow_left_circle-[#311]"></path>
            </g>
        </g>
    </g>
</svg>