<?xml version="1.0" encoding="UTF-8" standalone="no"?>
<svg width="12px" height="20px" viewBox="0 0 12 20" version="1.1" xmlns="http://www.w3.org/2000/svg" xmlns:xlink="http://www.w3.org/1999/xlink">
    <!-- Generator: Sketch 3.8.1 (29687) - http://www.bohemiancoding.com/sketch -->
    <title>arrow_up [#290]</title>
    <desc>Created with Sketch.</desc>
    <defs></defs>
    <g id="Page-1" stroke="none" stroke-width="1" fill="none" fill-rule="evenodd">
        <g id="Dribbble-Dark-Preview" transform="translate(-144.000000, -6879.000000)" fill="#FFFFFF">
            <g id="icons" transform="translate(56.000000, 160.000000)">
                <path d="M96,6734.0005 C96.552,6734.0005 97,6733.5525 97,6733.0005 C97,6732.4485 96.552,6732.0005 96,6732.0005 L92,6732.0005 C91.448,6732.0005 91,6732.4485 91,6733.0005 C91,6733.5525 91.448,6734.0005 92,6734.0005 L96,6734.0005 Z M98,6736.0005 C98,6736.5525 97.552,6737.0005 97,6737.0005 L91,6737.0005 C90.448,6737.0005 90,6736.5525 90,6736.0005 L90,6725.1135 C90,6724.9785 90.054,6724.8495 90.151,6724.7555 L93.302,6721.6815 C93.69,6721.3025 94.31,6721.3025 94.698,6721.6815 L97.849,6724.7555 C97.946,6724.8495 98,6724.9785 98,6725.1135 L98,6736.0005 Z M99.698,6723.7655 L95.397,6719.5685 C94.62,6718.8105 93.38,6718.8105 92.603,6719.5685 L88.302,6723.7655 C88.109,6723.9535 88,6724.2115 88,6724.4815 L88,6737.0005 C88,6738.1055 88.895,6739.0005 90,6739.0005 L98,6739.0005 C99.105,6739.0005 100,6738.1055 100,6737.0005 L100,6724.4815 C100,6724.2115 99.891,6723.9535 99.698,6723.7655 L99.698,6723.7655 Z" id="arrow_up-[#290]"></path>
            </g>
        </g>
    </g>
</svg>