<?xml version="1.0" encoding="UTF-8" standalone="no"?>
<svg width="20px" height="20px" viewBox="0 0 20 20" version="1.1" xmlns="http://www.w3.org/2000/svg" xmlns:xlink="http://www.w3.org/1999/xlink">
    <!-- Generator: Sketch 3.8.1 (29687) - http://www.bohemiancoding.com/sketch -->
    <title>arrow_down [#269]</title>
    <desc>Created with Sketch.</desc>
    <defs></defs>
    <g id="Page-1" stroke="none" stroke-width="1" fill="none" fill-rule="evenodd">
        <g id="Dribbble-Dark-Preview" transform="translate(-180.000000, -6959.000000)" fill="#FFFFFF">
            <g id="icons" transform="translate(56.000000, 160.000000)">
                <path d="M142,6804 C142,6804.552 141.552,6805 141,6805 L127,6805 C126.448,6805 126,6804.552 126,6804 L126,6802 C126,6801.448 126.448,6801 127,6801 L141,6801 C141.552,6801 142,6801.448 142,6802 L142,6804 Z M144,6805 L144,6801 C144,6799.895 143.105,6799 142,6799 L126,6799 C124.895,6799 124,6799.895 124,6801 L124,6805 C124,6806.105 124.895,6807 126,6807 L133,6807 L133,6814.793 C133,6815.239 132.462,6815.462 132.147,6815.147 L130.464,6813.464 C130.074,6813.073 129.44,6813.073 129.05,6813.464 C128.66,6813.854 128.66,6814.487 129.05,6814.878 L132.587,6818.415 C133.368,6819.195 134.633,6819.195 135.413,6818.415 C135.982,6817.847 136.098,6817.73 138.95,6814.878 C139.34,6814.488 139.34,6813.854 138.95,6813.464 C138.559,6813.073 137.926,6813.073 137.535,6813.464 L135.854,6815.145 C135.539,6815.46 135,6815.237 135,6814.791 L135,6807 L142,6807 C143.105,6807 144,6806.105 144,6805 L144,6805 Z" id="arrow_down-[#269]"></path>
            </g>
        </g>
    </g>
</svg>