<?xml version="1.0" encoding="UTF-8" standalone="no"?>
<svg width="20px" height="24px" viewBox="0 0 20 24" version="1.1" xmlns="http://www.w3.org/2000/svg" xmlns:xlink="http://www.w3.org/1999/xlink">
    <!-- Generator: Sketch 3.8.1 (29687) - http://www.bohemiancoding.com/sketch -->
    <title>arrow_right_double [#255]</title>
    <desc>Created with Sketch.</desc>
    <defs></defs>
    <g id="Page-1" stroke="none" stroke-width="1" fill="none" fill-rule="evenodd">
        <g id="Dribbble-Dark-Preview" transform="translate(-340.000000, -6999.000000)" fill="#FFFFFF">
            <g id="icons" transform="translate(56.000000, 160.000000)">
                <path d="M286,6841.75442 C286,6841.20294 286.403,6840.99813 286.955,6840.99813 L302.955,6840.99813 C303.507,6840.99813 304,6840.42966 304,6839.87718 L304,6839.93812 C304,6839.38664 303.507,6839 302.955,6839 L285.955,6839 C284.85,6839 284,6839.65139 284,6840.75536 L284,6856.74038 C284,6857.84434 284.85,6858.98128 285.955,6858.98128 L292.748,6858.98128 C293.193,6858.98128 293.416,6859.39789 293.101,6859.71259 L291.419,6861.33207 C291.029,6861.72271 291.029,6862.32514 291.419,6862.71478 C291.81,6863.10541 292.443,6863.08943 292.834,6862.69979 C293.302,6862.23123 295.82,6859.64365 296.369,6859.277 C296.657,6858.99027 296.512,6858.98128 296.892,6858.98128 L299.748,6858.98128 C300.193,6858.98128 300.416,6859.39789 300.101,6859.71259 L298.419,6861.33207 C298.029,6861.72271 298.029,6862.32514 298.419,6862.71478 C298.81,6863.10541 299.443,6863.08943 299.834,6862.69979 C299.946,6862.5879 303.481,6859.04422 303.369,6859.15611 C304.15,6858.37584 304.15,6857.10903 303.369,6856.32876 L299.834,6852.79507 C299.443,6852.40544 298.81,6852.40444 298.419,6852.79507 C298.029,6853.18471 298.029,6853.81711 298.419,6854.20775 L300.101,6856.00906 C300.416,6856.32377 300.193,6856.98315 299.748,6856.98315 L296.678,6856.98315 C296.593,6856.98315 296.495,6856.57353 296.369,6856.44765 L292.834,6852.85502 C292.443,6852.46438 291.81,6852.43441 291.419,6852.82504 C291.029,6853.21468 291.029,6853.8321 291.419,6854.22273 L293.101,6856.01605 C293.416,6856.33076 293.193,6856.98315 292.748,6856.98315 L286.955,6856.98315 C286.403,6856.98315 286,6856.29279 286,6855.74131 L286,6841.75442 Z" id="arrow_right_double-[#255]"></path>
            </g>
        </g>
    </g>
</svg>