<?xml version="1.0" encoding="UTF-8" standalone="no"?>
<svg width="20px" height="28px" viewBox="0 0 20 28" version="1.1" xmlns="http://www.w3.org/2000/svg" xmlns:xlink="http://www.w3.org/1999/xlink">
    <!-- Generator: Sketch 3.8.1 (29687) - http://www.bohemiancoding.com/sketch -->
    <title>arrow_right_double [#249]</title>
    <desc>Created with Sketch.</desc>
    <defs></defs>
    <g id="Page-1" stroke="none" stroke-width="1" fill="none" fill-rule="evenodd">
        <g id="Dribbble-Dark-Preview" transform="translate(-180.000000, -7035.000000)" fill="#FFFFFF">
            <g id="icons" transform="translate(56.000000, 160.000000)">
                <path d="M139.879,6892.99583 C139.488,6892.6112 138.855,6892.6112 138.465,6892.99583 C138.074,6893.38046 138.074,6894.00315 138.465,6894.38679 L140.147,6895.92236 C140.462,6896.23223 140.239,6896.64244 139.793,6896.64244 L127,6896.64244 C126.448,6896.64244 126,6896.44078 126,6895.89777 L126,6882.12586 C126,6881.58187 126.448,6880.90311 127,6880.90311 L139.793,6880.90311 C140.239,6880.90311 140.462,6881.55236 140.147,6881.86222 L138.465,6883.57683 C138.074,6883.96047 138.074,6884.61365 138.465,6884.9973 C138.855,6885.38193 139.488,6885.39669 139.879,6885.01206 L143.415,6881.54153 C144.196,6880.77326 144.196,6879.53182 143.415,6878.76354 C142.867,6878.22841 140.431,6875.83111 139.879,6875.2881 C139.488,6874.90347 138.855,6874.90446 138.465,6875.2881 C138.074,6875.67273 138.074,6876.29542 138.465,6876.68005 L140.147,6878.21562 C140.462,6878.52549 140.239,6878.93569 139.793,6878.93569 L126,6878.93569 C124.896,6878.93569 124,6880.05515 124,6881.14215 L124,6896.88148 C124,6897.96749 124.896,6898.60985 126,6898.60985 L139.793,6898.60985 C140.239,6898.60985 140.462,6899.2591 140.147,6899.56897 L138.465,6901.28357 C138.074,6901.66722 138.074,6902.3204 138.465,6902.70404 C138.855,6903.08867 139.488,6903.10343 139.879,6902.7188 C140.43,6902.17776 142.868,6899.7844 143.415,6899.25221 C144.196,6898.48394 144.196,6897.24053 143.415,6896.47225 L139.879,6892.99583 Z" id="arrow_right_double-[#249]"></path>
            </g>
        </g>
    </g>
</svg>