<?xml version="1.0" encoding="UTF-8" standalone="no"?>
<svg width="20px" height="20px" viewBox="0 0 20 20" version="1.1" xmlns="http://www.w3.org/2000/svg" xmlns:xlink="http://www.w3.org/1999/xlink">
    <!-- Generator: Sketch 3.8.1 (29687) - http://www.bohemiancoding.com/sketch -->
    <title>arrow_all [#331]</title>
    <desc>Created with Sketch.</desc>
    <defs></defs>
    <g id="Page-1" stroke="none" stroke-width="1" fill="none" fill-rule="evenodd">
        <g id="Dribbble-Dark-Preview" transform="translate(-100.000000, -6719.000000)" fill="#FFFFFF">
            <g id="icons" transform="translate(56.000000, 160.000000)">
                <path d="M53.99975,6570.99975 C52.89675,6570.99975 51.99975,6570.10275 51.99975,6568.99975 C51.99975,6567.89675 52.89675,6566.99975 53.99975,6566.99975 C55.10275,6566.99975 55.99975,6567.89675 55.99975,6568.99975 C55.99975,6570.10275 55.10275,6570.99975 53.99975,6570.99975 L53.99975,6570.99975 Z M61.99575,6566.16175 C61.60475,6565.77075 60.97175,6565.77075 60.58075,6566.16175 C60.19075,6566.55175 60.18975,6567.18575 60.58075,6567.57575 L61.00375,6567.99975 L57.85875,6567.99975 C57.49575,6566.99975 56.40075,6565.50375 54.99975,6565.14075 L54.99975,6561.99275 L55.42375,6562.41675 C55.81375,6562.80775 56.44775,6562.80775 56.83775,6562.41675 C57.22875,6562.02675 57.22875,6561.39375 56.83775,6561.00275 L55.41075,6559.58275 C54.63075,6558.80575 53.36875,6558.80575 52.58875,6559.58275 L51.16175,6561.00275 C50.77075,6561.39375 50.77075,6562.02675 51.16175,6562.41675 C51.55175,6562.80775 52.18575,6562.80775 52.57575,6562.41675 L52.99975,6561.99275 L52.99975,6565.14075 C51.59875,6565.50375 50.50375,6566.99975 50.14075,6567.99975 L46.99575,6567.99975 L47.41975,6567.57575 C47.80975,6567.18575 47.80975,6566.55175 47.41975,6566.16175 C47.02875,6565.77075 46.39475,6565.77075 46.00375,6566.16175 L44.58275,6567.58875 C43.80575,6568.36875 43.80575,6569.63075 44.58275,6570.41075 L46.00375,6571.83775 C46.39475,6572.22875 47.02775,6572.22875 47.41875,6571.83775 C47.80875,6571.44775 47.80975,6570.81375 47.41875,6570.42375 L46.99575,6569.99975 L50.14075,6569.99975 C50.50375,6570.99975 51.59875,6572.49575 52.99975,6572.85875 L52.99975,6576.00675 L52.57575,6575.58275 C52.18575,6575.19175 51.55175,6575.19175 51.16175,6575.58275 C50.77075,6575.97275 50.77075,6576.60575 51.16175,6576.99675 L52.58875,6578.41675 C53.36875,6579.19375 54.63075,6579.19375 55.41075,6578.41675 L56.83775,6576.99675 C57.22875,6576.60575 57.22875,6575.97275 56.83775,6575.58275 C56.44775,6575.19175 55.81375,6575.19175 55.42375,6575.58275 L54.99975,6576.00675 L54.99975,6572.85875 C56.40075,6572.49575 57.49575,6570.99975 57.85875,6569.99975 L61.00375,6569.99975 L60.57975,6570.42375 C60.18975,6570.81375 60.18975,6571.44775 60.57975,6571.83775 C60.97075,6572.22875 61.60475,6572.22875 61.99575,6571.83775 L63.41675,6570.41075 C64.19375,6569.63075 64.19375,6568.36875 63.41675,6567.58875 L61.99575,6566.16175 Z" id="arrow_all-[#331]"></path>
            </g>
        </g>
    </g>
</svg>