<?xml version="1.0" encoding="UTF-8" standalone="no"?>
<svg width="20px" height="20px" viewBox="0 0 20 20" version="1.1" xmlns="http://www.w3.org/2000/svg" xmlns:xlink="http://www.w3.org/1999/xlink">
    <!-- Generator: Sketch 3.8.1 (29687) - http://www.bohemiancoding.com/sketch -->
    <title>arrow_all [#376]</title>
    <desc>Created with Sketch.</desc>
    <defs></defs>
    <g id="Page-1" stroke="none" stroke-width="1" fill="none" fill-rule="evenodd">
        <g id="Dribbble-Dark-Preview" transform="translate(-300.000000, -6519.000000)" fill="#FFFFFF">
            <g id="icons" transform="translate(56.000000, 160.000000)">
                <path d="M250.586,6371 L246,6375.586 L246,6371 L244,6371 L244,6379 L252,6379 L252,6377 L247.414,6377 L252,6372.414 L250.586,6371 Z M256,6359 L256,6361 L260.586,6361 L256,6365.586 L257.414,6367 L262,6362.414 L262,6367 L264,6367 L264,6359 L256,6359 Z M262,6375.586 L257.414,6371 L256,6372.414 L260.586,6377 L256,6377 L256,6379 L264,6379 L264,6371 L262,6371 L262,6375.586 Z M244,6359 L244,6367 L246,6367 L246,6362.414 L250.549,6366.963 L251.963,6365.549 L247.414,6361 L252,6361 L252,6359 L244,6359 Z" id="arrow_all-[#376]"></path>
            </g>
        </g>
    </g>
</svg>