<?xml version="1.0" encoding="UTF-8" standalone="no"?>
<svg width="20px" height="8px" viewBox="0 0 20 8" version="1.1" xmlns="http://www.w3.org/2000/svg" xmlns:xlink="http://www.w3.org/1999/xlink">
    <!-- Generator: Sketch 3.8.1 (29687) - http://www.bohemiancoding.com/sketch -->
    <title>arrow_right_circle [#310]</title>
    <desc>Created with Sketch.</desc>
    <defs></defs>
    <g id="Page-1" stroke="none" stroke-width="1" fill="none" fill-rule="evenodd">
        <g id="Dribbble-Dark-Preview" transform="translate(-140.000000, -6805.000000)" fill="#FFFFFF">
            <g id="icons" transform="translate(56.000000, 160.000000)">
                <path d="M86.0002181,6648.99992 C86.0002181,6647.89692 86.8972181,6646.99992 88.0002181,6646.99992 C89.1032181,6646.99992 90.0002181,6647.89692 90.0002181,6648.99992 C90.0002181,6650.10292 89.1032181,6650.99992 88.0002181,6650.99992 C86.8972181,6650.99992 86.0002181,6650.10292 86.0002181,6648.99992 M91.8592181,6649.99892 L101.004218,6649.99892 L100.580218,6650.42292 C100.190218,6650.81392 100.190218,6651.44692 100.581218,6651.83792 L100.581218,6651.83792 C100.972218,6652.22792 101.605218,6652.22792 101.995218,6651.83592 L103.417218,6650.40992 C104.194218,6649.62992 104.194218,6648.36892 103.417218,6647.58992 L101.996218,6646.16392 C101.605218,6645.77192 100.972218,6645.77192 100.581218,6646.16192 C100.190218,6646.55292 100.190218,6647.18492 100.580218,6647.57592 L101.004218,6647.99892 L91.8592181,6647.99892 C91.3382181,6645.99892 89.3162181,6644.58792 87.0512181,6645.10892 C85.6122181,6645.43992 84.4432181,6646.60792 84.1102181,6648.04592 C83.5042181,6650.66992 85.4802181,6652.99992 88.0002181,6652.99992 C89.8622181,6652.99992 91.4132181,6651.99892 91.8592181,6649.99892" id="arrow_right_circle-[#310]"></path>
            </g>
        </g>
    </g>
</svg>