<?xml version="1.0" encoding="UTF-8" standalone="no"?>
<svg width="20px" height="20px" viewBox="0 0 20 20" version="1.1" xmlns="http://www.w3.org/2000/svg" xmlns:xlink="http://www.w3.org/1999/xlink">
    <!-- Generator: Sketch 3.8.1 (29687) - http://www.bohemiancoding.com/sketch -->
    <title>arrow_left_double_circle [#324]</title>
    <desc>Created with Sketch.</desc>
    <defs></defs>
    <g id="Page-1" stroke="none" stroke-width="1" fill="none" fill-rule="evenodd">
        <g id="Dribbble-Dark-Preview" transform="translate(-380.000000, -6719.000000)" fill="#FFFFFF">
            <g id="icons" transform="translate(56.000000, 160.000000)">
                <path d="M341.99975,6575.001 C341.99975,6576.104 341.10275,6577.001 339.99975,6577.001 C338.89675,6577.001 337.99975,6576.104 337.99975,6575.001 C337.99975,6573.898 338.89675,6573.001 339.99975,6573.001 C341.10275,6573.001 341.99975,6573.898 341.99975,6575.001 M336.14075,6574 L326.99575,6574 L327.41975,6573.577 C327.80975,6573.186 327.80975,6572.553 327.41875,6572.163 L327.41875,6572.163 C327.02775,6571.772 326.39475,6571.773 326.00475,6572.165 L324.58275,6573.591 C323.80575,6574.37 323.80575,6575.631 324.58275,6576.411 L326.00375,6577.837 C326.39475,6578.229 327.02775,6578.229 327.41875,6577.839 C327.80975,6577.448 327.80975,6576.815 327.41975,6576.424 L326.99575,6576 L336.14075,6576 C336.66075,6578 338.68375,6579.413 340.94875,6578.891 C342.38775,6578.56 343.55675,6577.393 343.88975,6575.954 C344.49575,6573.331 342.51975,6571.001 339.99975,6571.001 C338.13775,6571.001 336.58675,6572 336.14075,6574 M341.99975,6563 C341.99975,6564.103 341.10275,6565 339.99975,6565 C338.89675,6565 337.99975,6564.103 337.99975,6563 C337.99975,6561.897 338.89675,6561 339.99975,6561 C341.10275,6561 341.99975,6561.897 341.99975,6563 M336.14075,6562 L326.99575,6562 L327.41975,6561.576 C327.80975,6561.186 327.80975,6560.553 327.41875,6560.162 L327.41875,6560.162 C327.02775,6559.772 326.39475,6559.772 326.00475,6560.164 L324.58275,6561.59 C323.80575,6562.369 323.80575,6563.631 324.58275,6564.41 L326.00375,6565.836 C326.39475,6566.228 327.02775,6566.228 327.41875,6565.838 C327.80975,6565.447 327.80975,6564.815 327.41975,6564.424 L326.99575,6564 L336.14075,6564 C336.66075,6566 338.68375,6567.412 340.94875,6566.891 C342.38775,6566.559 343.55675,6565.392 343.88975,6563.954 C344.49575,6561.33 342.51975,6559 339.99975,6559 C338.13775,6559 336.58675,6560 336.14075,6562" id="arrow_left_double_circle-[#324]"></path>
            </g>
        </g>
    </g>
</svg>