<?xml version="1.0" encoding="UTF-8" standalone="no"?>
<svg width="20px" height="20px" viewBox="0 0 20 20" version="1.1" xmlns="http://www.w3.org/2000/svg" xmlns:xlink="http://www.w3.org/1999/xlink">
    <!-- Generator: Sketch 3.8.1 (29687) - http://www.bohemiancoding.com/sketch -->
    <title>arrow_up_circle [#304]</title>
    <desc>Created with Sketch.</desc>
    <defs></defs>
    <g id="Page-1" stroke="none" stroke-width="1" fill="none" fill-rule="evenodd">
        <g id="Dribbble-Dark-Preview" transform="translate(-380.000000, -6799.000000)" fill="#FFFFFF">
            <g id="icons" transform="translate(56.000000, 160.000000)">
                <path d="M340.005,6657 C338.902,6657 338.005,6656.103 338.005,6655 C338.005,6653.897 338.902,6653 340.005,6653 C341.108,6653 342.005,6653.897 342.005,6655 C342.005,6656.103 341.108,6657 340.005,6657 M341.001,6651.141 L341.001,6642.819 L342.134,6643.95 L343.549,6642.536 L340.014,6639 L340.005,6639.01 L339.995,6639 L336.46,6642.536 L337.872,6643.95 L339.001,6642.819 L339.001,6651.141 C337.001,6651.587 336.003,6653.138 336.003,6655 C336.003,6657.209 337.795,6659 340.004,6659 C342.213,6659 344.003,6657.209 344.003,6655 C344.003,6653.138 343.001,6651.587 341.001,6651.141 M327.998,6657 C326.895,6657 325.998,6656.103 325.998,6655 C325.998,6653.897 326.895,6653 327.998,6653 C329.101,6653 329.998,6653.897 329.998,6655 C329.998,6656.103 329.101,6657 327.998,6657 M329.001,6651.141 L329.001,6642.819 L330.131,6643.95 L331.544,6642.536 L328.008,6639 L327.998,6639.01 L327.988,6639 L324.453,6642.536 L325.869,6643.95 L327.001,6642.819 L327.001,6651.141 C325.001,6651.587 324,6653.138 324,6655 C324,6657.209 325.79,6659 327.999,6659 C330.208,6659 332,6657.209 332,6655 C332,6653.138 331.001,6651.587 329.001,6651.141" id="arrow_up_circle-[#304]"></path>
            </g>
        </g>
    </g>
</svg>