<?xml version="1.0" encoding="UTF-8" standalone="no"?>
<svg width="12px" height="20px" viewBox="0 0 12 20" version="1.1" xmlns="http://www.w3.org/2000/svg" xmlns:xlink="http://www.w3.org/1999/xlink">
    <!-- Generator: Sketch 3.8.1 (29687) - http://www.bohemiancoding.com/sketch -->
    <title>arrow_up [#284]</title>
    <desc>Created with Sketch.</desc>
    <defs></defs>
    <g id="Page-1" stroke="none" stroke-width="1" fill="none" fill-rule="evenodd">
        <g id="Dribbble-Dark-Preview" transform="translate(-384.000000, -6879.000000)" fill="#FFFFFF">
            <g id="icons" transform="translate(56.000000, 160.000000)">
                <path d="M336.996,6736.99975 L330.996,6736.99975 C330.444,6736.99975 330,6736.55175 330,6735.99975 L330,6725.11275 C330,6724.97775 330.052,6724.84875 330.149,6724.75475 L333.299,6721.68075 C333.687,6721.30175 334.306,6721.30175 334.695,6721.68075 L337.847,6724.75475 C337.944,6724.84875 338,6724.97775 338,6725.11275 L338,6735.99975 C338,6736.55175 337.548,6736.99975 336.996,6736.99975 M332.599,6719.56775 L328.3,6723.76475 C328.107,6723.95275 328,6724.21075 328,6724.48075 L328,6736.99975 C328,6738.10475 328.891,6738.99975 329.996,6738.99975 L337.996,6738.99975 C339.101,6738.99975 340,6738.10475 340,6736.99975 L340,6724.48075 C340,6724.21075 339.889,6723.95275 339.696,6723.76475 L335.394,6719.56775 C334.617,6718.81075 333.376,6718.81075 332.599,6719.56775" id="arrow_up-[#284]"></path>
            </g>
        </g>
    </g>
</svg>