<?xml version="1.0" encoding="UTF-8" standalone="no"?>
<svg width="20px" height="20px" viewBox="0 0 20 20" version="1.1" xmlns="http://www.w3.org/2000/svg" xmlns:xlink="http://www.w3.org/1999/xlink">
    <!-- Generator: Sketch 3.8.1 (29687) - http://www.bohemiancoding.com/sketch -->
    <title>arrow_inside [#259]</title>
    <desc>Created with Sketch.</desc>
    <defs></defs>
    <g id="Page-1" stroke="none" stroke-width="1" fill="none" fill-rule="evenodd">
        <g id="Dribbble-Dark-Preview" transform="translate(-180.000000, -6999.000000)" fill="#FFFFFF">
            <g id="icons" transform="translate(56.000000, 160.000000)">
                <path d="M135,6840 C135,6839.448 134.552,6839 134,6839 C133.448,6839 133,6839.448 133,6840 L133,6858 C133,6858.552 133.448,6859 134,6859 C134.552,6859 135,6858.552 135,6858 L135,6840 Z M143,6848 L140.864,6848 C140.419,6848 140.196,6847.462 140.511,6847.146 L142.192,6845.465 C142.583,6845.074 142.583,6844.441 142.192,6844.051 L142.192,6844.05 C141.801,6843.66 141.168,6843.66 140.778,6844.05 L137.243,6847.585 L137.241,6847.587 C136.461,6848.367 136.461,6849.633 137.241,6850.413 C138.414,6851.586 139.404,6852.576 140.778,6853.95 C141.168,6854.34 141.801,6854.34 142.192,6853.95 C142.582,6853.56 142.582,6852.927 142.192,6852.536 L140.509,6850.854 C140.194,6850.539 140.417,6850 140.863,6850 L143,6850 C143.552,6850 144,6849.552 144,6849 L144,6849 C144,6848.448 143.552,6848 143,6848 L143,6848 Z M127.222,6844.05 C126.831,6843.66 126.198,6843.66 125.807,6844.051 C125.417,6844.441 125.417,6845.074 125.807,6845.465 L127.488,6847.146 C127.803,6847.462 127.58,6848 127.135,6848 L125,6848 C124.448,6848 124,6848.448 124,6849 C124,6849.552 124.448,6850 125,6850 L127.137,6850 C127.582,6850 127.805,6850.539 127.49,6850.854 L125.807,6852.536 C125.417,6852.927 125.417,6853.56 125.807,6853.95 C126.198,6854.341 126.831,6854.341 127.221,6853.95 L130.758,6850.413 C131.538,6849.633 131.538,6848.367 130.758,6847.587 C130.19,6847.019 130.073,6846.902 127.222,6844.05 L127.222,6844.05 Z" id="arrow_inside-[#259]"></path>
            </g>
        </g>
    </g>
</svg>