<?xml version="1.0" encoding="UTF-8" standalone="no"?>
<svg width="20px" height="20px" viewBox="0 0 20 20" version="1.1" xmlns="http://www.w3.org/2000/svg" xmlns:xlink="http://www.w3.org/1999/xlink">
    <!-- Generator: Sketch 3.8.1 (29687) - http://www.bohemiancoding.com/sketch -->
    <title>arrow_corner [#280]</title>
    <desc>Created with Sketch.</desc>
    <defs></defs>
    <g id="Page-1" stroke="none" stroke-width="1" fill="none" fill-rule="evenodd">
        <g id="Dribbble-Dark-Preview" transform="translate(-140.000000, -6919.000000)" fill="#FFFFFF">
            <g id="icons" transform="translate(56.000000, 160.000000)">
                <path d="M89,6771 C88.448,6771 88,6770.552 88,6770 L88,6765 C88,6763.895 88.895,6763 90,6763 L95,6763 C95.552,6763 96,6763.448 96,6764 C96,6764.552 95.552,6765 95,6765 L92.621,6765 C92.176,6765 91.953,6765.539 92.268,6765.854 L95.293,6768.879 C95.683,6769.269 95.683,6769.902 95.293,6770.293 C94.902,6770.683 94.269,6770.683 93.879,6770.293 L90.854,6767.268 C90.539,6766.953 90,6767.176 90,6767.621 L90,6770 C90,6770.552 89.552,6771 89,6771 L89,6771 Z M87,6777 C86.448,6777 86,6776.552 86,6776 L86,6762 C86,6761.448 86.448,6761 87,6761 L101,6761 C101.552,6761 102,6761.448 102,6762 L102,6770 C102,6770.552 101.552,6771 101,6771 L98,6771 C96.895,6771 96,6771.895 96,6773 L96,6776 C96,6776.552 95.552,6777 95,6777 L87,6777 Z M104,6761 C104,6759.895 103.105,6759 102,6759 L86,6759 C84.895,6759 84,6759.895 84,6761 L84,6777 C84,6778.105 84.895,6779 86,6779 L102,6779 C103.105,6779 104,6778.105 104,6777 L104,6761 Z" id="arrow_corner-[#280]"></path>
            </g>
        </g>
    </g>
</svg>