<?xml version="1.0" encoding="UTF-8" standalone="no"?>
<svg width="20px" height="20px" viewBox="0 0 20 20" version="1.1" xmlns="http://www.w3.org/2000/svg" xmlns:xlink="http://www.w3.org/1999/xlink">
    <!-- Generator: Sketch 3.8.1 (29687) - http://www.bohemiancoding.com/sketch -->
    <title>arrow_all [#381]</title>
    <desc>Created with Sketch.</desc>
    <defs></defs>
    <g id="Page-1" stroke="none" stroke-width="1" fill="none" fill-rule="evenodd">
        <g id="Dribbble-Dark-Preview" transform="translate(-100.000000, -6519.000000)" fill="#FFFFFF">
            <g id="icons" transform="translate(56.000000, 160.000000)">
                <path d="M62,6379 C63.105,6379 64,6378.3 64,6377.196 L64,6372.196 C64,6371.643 63.552,6371.196 63,6371.196 L63,6371.196 C62.448,6371.196 62,6371.643 62,6372.196 L62,6374.574 C62,6375.02 61.461,6375.243 61.146,6374.928 L58.121,6371.903 C57.731,6371.512 57.098,6371.512 56.707,6371.903 L56.707,6371.903 C56.317,6372.293 56.317,6372.926 56.707,6373.317 L59.732,6376.244 C60.047,6376.559 59.824,6377 59.379,6377 L57,6377 C56.448,6377 56,6377.546 56,6378.098 L56,6378.049 C56,6378.601 56.448,6379 57,6379 L62,6379 Z M44,6366.196 C44,6366.748 44.448,6367.196 45,6367.196 L45,6367.196 C45.552,6367.196 46,6366.748 46,6366.196 L46,6363.817 C46,6363.371 46.539,6363.148 46.854,6363.463 L49.879,6366.489 C50.269,6366.879 50.902,6366.879 51.293,6366.489 L51.293,6366.489 C51.683,6366.098 51.683,6365.465 51.293,6365.074 L48.268,6361.951 C47.953,6361.636 48.176,6361 48.621,6361 L51,6361 C51.552,6361 52,6360.65 52,6360.098 L52,6360.049 C52,6359.497 51.552,6359 51,6359 L46,6359 C44.895,6359 44,6360.091 44,6361.196 L44,6366.196 Z M64,6361 C64,6359.895 63.3,6359 62.196,6359 L57.196,6359 C56.643,6359 56.196,6359.448 56.196,6360 C56.196,6360.552 56.643,6361 57.196,6361 L59.574,6361 C60.02,6361 60.243,6361.539 59.928,6361.854 L56.903,6364.879 C56.512,6365.269 56.512,6365.902 56.903,6366.293 L56.903,6366.293 C57.293,6366.683 57.926,6366.683 58.317,6366.293 L61.244,6363.268 C61.559,6362.953 62,6363.176 62,6363.621 L62,6366 C62,6366.552 62.546,6367 63.098,6367 L63.049,6367 C63.601,6367 64,6366.552 64,6366 L64,6361 Z M46.196,6379 C45.091,6379 44,6378.105 44,6377 L44,6372 C44,6371.448 44.497,6371 45.049,6371 L45.098,6371 C45.65,6371 46,6371.448 46,6372 L46,6374.379 C46,6374.824 46.636,6375.047 46.951,6374.732 L50.074,6371.707 C50.465,6371.317 51.098,6371.317 51.488,6371.707 L51.488,6371.707 C51.879,6372.098 51.879,6372.731 51.488,6373.121 L48.463,6376.146 C48.148,6376.461 48.371,6377 48.817,6377 L51.196,6377 C51.748,6377 52.196,6377.448 52.196,6378 C52.196,6378.552 51.748,6379 51.196,6379 L46.196,6379 Z" id="arrow_all-[#381]"></path>
            </g>
        </g>
    </g>
</svg>