<?xml version="1.0" encoding="UTF-8" standalone="no"?>
<svg width="20px" height="28px" viewBox="0 0 20 28" version="1.1" xmlns="http://www.w3.org/2000/svg" xmlns:xlink="http://www.w3.org/1999/xlink">
    <!-- Generator: Sketch 3.8.1 (29687) - http://www.bohemiancoding.com/sketch -->
    <title>arrow_repeat [#244]</title>
    <desc>Created with Sketch.</desc>
    <defs></defs>
    <g id="Page-1" stroke="none" stroke-width="1" fill="none" fill-rule="evenodd">
        <g id="Dribbble-Dark-Preview" transform="translate(-380.000000, -7034.000000)" fill="#FFFFFF">
            <g id="icons" transform="translate(56.000000, 160.000000)">
                <path d="M333,6892.14355 L335,6892.14355 L335,6884.50215 L333,6884.50215 L333,6892.14355 Z M344,6879.69666 L338.343,6874 L336.929,6875.51204 L340.172,6878.7711 L324,6878.7711 L324,6888.32285 L326,6888.32285 L326,6880.68145 L340.172,6880.68145 L336.929,6883.61479 L338.343,6884.88326 L344,6879.69666 Z M329.657,6902 L331.071,6900.81081 L327.829,6897.8746 L344,6897.8746 L344,6888.32285 L342,6888.32285 L342,6895.96425 L327.829,6895.96425 L331.071,6892.70328 L329.657,6891.27052 L324,6896.61186 L329.657,6902 Z" id="arrow_repeat-[#244]"></path>
            </g>
        </g>
    </g>
</svg>