<?xml version="1.0" encoding="UTF-8" standalone="no"?>
<svg width="20px" height="28px" viewBox="0 0 20 28" version="1.1" xmlns="http://www.w3.org/2000/svg" xmlns:xlink="http://www.w3.org/1999/xlink">
    <!-- Generator: Sketch 3.8.1 (29687) - http://www.bohemiancoding.com/sketch -->
    <title>arrow_repeat [#243]</title>
    <desc>Created with Sketch.</desc>
    <defs></defs>
    <g id="Page-1" stroke="none" stroke-width="1" fill="none" fill-rule="evenodd">
        <g id="Dribbble-Dark-Preview" transform="translate(-420.000000, -7035.000000)" fill="#FFFFFF">
            <g id="icons" transform="translate(56.000000, 160.000000)">
                <path d="M373,6886.14679 L373,6892.09524 C373,6892.6425 373.448,6893.08665 374,6893.08665 C374.552,6893.08665 375,6892.6425 375,6892.09524 L375,6886.14679 C375,6885.59953 374.552,6885.15538 374,6885.15538 C373.448,6885.15538 373,6885.59953 373,6886.14679 M383,6888.8801 C382.448,6888.8801 382,6889.32326 382,6889.87151 L382,6895.81997 C382,6896.36722 381.552,6896.81138 381,6896.81138 L368.207,6896.81138 C367.762,6896.81138 367.539,6896.27701 367.854,6895.96471 L369.536,6894.29716 C369.926,6893.91051 369.926,6893.28295 369.536,6892.89531 C369.145,6892.50767 368.512,6892.50767 368.121,6892.89531 L364.586,6896.39994 C363.805,6897.17522 363.805,6898.43035 364.586,6899.20464 C365.734,6900.34278 366.747,6901.34707 368.121,6902.70927 C368.512,6903.09691 369.145,6903.09691 369.536,6902.70927 C369.926,6902.32262 369.926,6901.69506 369.536,6901.30742 L367.854,6899.64086 C367.539,6899.32856 367.762,6898.79419 368.207,6898.79419 L382,6898.79419 C383.105,6898.79419 384,6897.90589 384,6896.81138 L384,6889.87151 C384,6889.32326 383.552,6888.8801 383,6888.8801 M365,6889.12101 C365.552,6889.12101 366,6888.67686 366,6888.1296 L366,6882.18115 C366,6881.63389 366.448,6880.94883 367,6880.94883 L379.793,6880.94883 C380.238,6880.94883 380.461,6881.60316 380.146,6881.91545 L378.464,6883.64348 C378.074,6884.03013 378.074,6884.68842 378.464,6885.07507 C378.855,6885.46271 379.488,6885.47758 379.879,6885.09094 L383.414,6881.59324 C384.195,6880.81895 384.195,6879.5668 383.414,6878.79251 C382.867,6878.25319 380.431,6875.83811 379.879,6875.28986 C379.488,6874.90321 378.855,6874.90321 378.464,6875.29085 C378.074,6875.6775 378.074,6876.30606 378.464,6876.69271 L380.146,6878.2403 C380.461,6878.55259 380.238,6878.96601 379.793,6878.96601 L366,6878.96601 C364.895,6878.96601 364,6880.09423 364,6881.18974 L364,6888.1296 C364,6888.67686 364.448,6889.12101 365,6889.12101" id="arrow_repeat-[#243]"></path>
            </g>
        </g>
    </g>
</svg>