<?xml version="1.0" encoding="UTF-8" standalone="no"?>
<svg width="16px" height="18px" viewBox="0 0 16 18" version="1.1" xmlns="http://www.w3.org/2000/svg" xmlns:xlink="http://www.w3.org/1999/xlink">
    <!-- Generator: Sketch 3.8.1 (29687) - http://www.bohemiancoding.com/sketch -->
    <title>arrow_repeat [#235]</title>
    <desc>Created with Sketch.</desc>
    <defs></defs>
    <g id="Page-1" stroke="none" stroke-width="1" fill="none" fill-rule="evenodd">
        <g id="Dribbble-Dark-Preview" transform="translate(-342.000000, -7080.000000)" fill="#FFFFFF">
            <g id="icons" transform="translate(56.000000, 160.000000)">
                <path d="M300.002921,6930.85894 C299.524118,6934.16792 296.32507,6936.61291 292.744585,6935.86392 C290.471022,6935.38792 288.623062,6933.55693 288.145263,6931.29294 C287.32919,6927.42196 290.007276,6923.99998 294.022397,6923.99998 L294.022397,6925.99997 L299.041299,6922.99998 L294.022397,6920 L294.022397,6921.99999 C289.003495,6921.99999 285.16002,6926.48297 286.158782,6931.60494 C286.767072,6934.72392 289.294592,6937.23791 292.425383,6937.8439 C297.170253,6938.7619 301.37007,6935.51592 301.990406,6931.12594 C302.074724,6930.52994 301.591905,6929.99995 300.988633,6929.99995 L300.989637,6929.99995 C300.490758,6929.99995 300.074189,6930.36694 300.002921,6930.85894" id="arrow_repeat-[#235]"></path>
            </g>
        </g>
    </g>
</svg>