<?xml version="1.0" encoding="UTF-8" standalone="no"?>
<svg width="20px" height="20px" viewBox="0 0 20 20" version="1.1" xmlns="http://www.w3.org/2000/svg" xmlns:xlink="http://www.w3.org/1999/xlink">
    <!-- Generator: Sketch 3.8.1 (29687) - http://www.bohemiancoding.com/sketch -->
    <title>arrow_left [#356]</title>
    <desc>Created with Sketch.</desc>
    <defs></defs>
    <g id="Page-1" stroke="none" stroke-width="1" fill="none" fill-rule="evenodd">
        <g id="Dribbble-Dark-Preview" transform="translate(-300.000000, -6599.000000)" fill="#FFFFFF">
            <g id="icons" transform="translate(56.000000, 160.000000)">
                <path d="M245.995,6458.999 L257.123,6458.999 C257.662,6458.999 258,6458.564 258,6458.025 L258,6457.997 C258,6457.447 257.674,6456.999 257.124,6456.999 L248.575,6456.999 C248.129,6456.999 247.907,6456.459 248.222,6456.144 L263.709,6440.685 C264.095,6440.3 264.095,6439.674 263.71,6439.289 L263.71,6439.289 C263.324,6438.903 262.7,6438.904 262.315,6439.29 L246.851,6454.789 C246.536,6455.104 246,6454.882 246,6454.436 L246,6445.982 C246,6445.438 245.554,6444.999 245.009,6444.999 L244.981,6444.999 C244.436,6444.999 244,6445.438 244,6445.982 L244,6456.996 C244,6458.101 244.89,6458.999 245.995,6458.999" id="arrow_left-[#356]"></path>
            </g>
        </g>
    </g>
</svg>