<?xml version="1.0" encoding="UTF-8" standalone="no"?>
<svg width="12px" height="20px" viewBox="0 0 12 20" version="1.1" xmlns="http://www.w3.org/2000/svg" xmlns:xlink="http://www.w3.org/1999/xlink">
    <!-- Generator: Sketch 3.8.1 (29687) - http://www.bohemiancoding.com/sketch -->
    <title>arrow_up [#288]</title>
    <desc>Created with Sketch.</desc>
    <defs></defs>
    <g id="Page-1" stroke="none" stroke-width="1" fill="none" fill-rule="evenodd">
        <g id="Dribbble-Dark-Preview" transform="translate(-224.000000, -6879.000000)" fill="#FFFFFF">
            <g id="icons" transform="translate(56.000000, 160.000000)">
                <path d="M176.121,6730.8785 C175.73,6730.4875 175.097,6730.4875 174.707,6730.8785 L174,6731.5855 L173.293,6730.8785 C172.902,6730.4875 172.269,6730.4875 171.878,6730.8785 C171.488,6731.2695 171.488,6731.9025 171.878,6732.2925 L172.585,6732.9995 L171.878,6733.7065 C171.488,6734.0975 171.488,6734.7305 171.878,6735.1215 C172.269,6735.5115 172.902,6735.5115 173.293,6735.1215 L174,6734.4145 L174.707,6735.1215 C175.097,6735.5115 175.73,6735.5115 176.121,6735.1215 C176.512,6734.7305 176.512,6734.0975 176.121,6733.7065 L175.414,6732.9995 L176.121,6732.2925 C176.512,6731.9025 176.512,6731.2695 176.121,6730.8785 L176.121,6730.8785 Z M178,6735.9995 C178,6736.5525 177.552,6736.9995 177,6736.9995 L171,6736.9995 C170.447,6736.9995 170,6736.5525 170,6735.9995 L170,6725.1125 C170,6724.9785 170.054,6724.8495 170.15,6724.7555 L173.301,6721.6815 C173.69,6721.3025 174.31,6721.3025 174.698,6721.6815 L177.849,6724.7555 C177.945,6724.8495 178,6724.9785 178,6725.1125 L178,6735.9995 Z M179.698,6723.7645 L175.396,6719.5685 C174.619,6718.8105 173.38,6718.8105 172.603,6719.5685 L168.301,6723.7645 C168.108,6723.9535 168,6724.2115 168,6724.4805 L168,6736.9995 C168,6738.1045 168.895,6738.9995 170,6738.9995 L178,6738.9995 C179.104,6738.9995 180,6738.1045 180,6736.9995 L180,6724.4805 C180,6724.2115 179.891,6723.9535 179.698,6723.7645 L179.698,6723.7645 Z" id="arrow_up-[#288]"></path>
            </g>
        </g>
    </g>
</svg>