<?xml version="1.0" encoding="UTF-8" standalone="no"?>
<svg width="20px" height="20px" viewBox="0 0 20 20" version="1.1" xmlns="http://www.w3.org/2000/svg" xmlns:xlink="http://www.w3.org/1999/xlink">
    <!-- Generator: Sketch 3.8.1 (29687) - http://www.bohemiancoding.com/sketch -->
    <title>arrow_right_outside [#265]</title>
    <desc>Created with Sketch.</desc>
    <defs></defs>
    <g id="Page-1" stroke="none" stroke-width="1" fill="none" fill-rule="evenodd">
        <g id="Dribbble-Dark-Preview" transform="translate(-340.000000, -6959.000000)" fill="#FFFFFF">
            <g id="icons" transform="translate(56.000000, 160.000000)">
                <path d="M303.254,6818.177 C303.629,6817.762 303.615,6817.127 303.223,6816.729 L294.627,6808 L294.628,6808 L286.043,6799.689 C285.648,6799.307 285.019,6799.312 284.631,6799.701 C284.237,6800.094 284.238,6800.731 284.631,6801.125 L293.214,6809.703 L293.213,6809.705 L301.725,6818.215 C302.152,6818.642 302.849,6818.625 303.254,6818.177 L303.254,6818.177 Z M300.657,6801 L296.719,6804.88 C296.323,6805.27 296.323,6805.903 296.719,6806.293 C297.115,6806.684 297.713,6806.684 298.109,6806.294 L302,6802.416 L302,6806 C302,6806.552 302.505,6807 303.066,6807 L303.046,6807 C303.606,6807 304,6806.552 304,6806 L304,6801.002 L304,6800.998 C304,6799.895 303.213,6799 302.093,6799 L297.015,6799 C296.455,6799 296,6799.448 296,6800 L296,6800 C296,6800.552 296.455,6801 297.015,6801 L300.657,6801 Z M287.323,6817 L291.261,6813.12 C291.658,6812.73 291.658,6812.097 291.262,6811.706 C290.865,6811.316 290.278,6811.315 289.881,6811.706 L286,6815.584 L286,6812 C286,6811.448 285.475,6811 284.915,6811 L284.935,6811 C284.374,6811 284,6811.448 284,6812 L284,6816.998 L284,6817.002 C284,6818.105 284.767,6819 285.888,6819 L290.965,6819 C291.526,6819 291.98,6818.552 291.98,6818 L291.98,6818 C291.98,6817.448 291.526,6817 290.965,6817 L287.323,6817 Z" id="arrow_right_outside-[#265]"></path>
            </g>
        </g>
    </g>
</svg>