<?xml version="1.0" encoding="UTF-8" standalone="no"?>
<svg width="20px" height="20px" viewBox="0 0 20 20" version="1.1" xmlns="http://www.w3.org/2000/svg" xmlns:xlink="http://www.w3.org/1999/xlink">
    <!-- Generator: Sketch 3.8.1 (29687) - http://www.bohemiancoding.com/sketch -->
    <title>arrow_down_double_circle [#305]</title>
    <desc>Created with Sketch.</desc>
    <defs></defs>
    <g id="Page-1" stroke="none" stroke-width="1" fill="none" fill-rule="evenodd">
        <g id="Dribbble-Dark-Preview" transform="translate(-340.000000, -6799.000000)" fill="#FFFFFF">
            <g id="icons" transform="translate(56.000000, 160.000000)">
                <path d="M288,6641 C289.103,6641 290,6641.897 290,6643 C290,6644.103 289.103,6645 288,6645 C286.897,6645 286,6644.103 286,6643 C286,6641.897 286.897,6641 288,6641 M287.001,6646.859 L287.001,6655.181 L285.869,6654.05 L284.455,6655.464 L287.99,6659 L288,6658.99 L288.01,6659 L291.545,6655.464 L290.131,6654.05 L289.001,6655.181 L289.001,6646.859 C291.001,6646.413 292,6644.862 292,6643 C292,6640.791 290.209,6639 288,6639 C285.791,6639 284,6640.791 284,6643 C284,6644.862 285.001,6646.413 287.001,6646.859 M300.007,6641 C301.11,6641 302.007,6641.897 302.007,6643 C302.007,6644.103 301.11,6645 300.007,6645 C298.904,6645 298.007,6644.103 298.007,6643 C298.007,6641.897 298.904,6641 300.007,6641 M299.001,6646.859 L299.001,6655.181 L297.873,6654.05 L296.46,6655.464 L299.997,6659 L300.007,6658.99 L300.017,6659 L303.552,6655.464 L302.135,6654.05 L301.001,6655.181 L301.001,6646.859 C303.001,6646.413 304.004,6644.862 304.004,6643 C304.004,6640.791 302.215,6639 300.005,6639 C297.796,6639 296.003,6640.791 296.003,6643 C296.003,6644.862 297.001,6646.413 299.001,6646.859" id="arrow_down_double_circle-[#305]"></path>
            </g>
        </g>
    </g>
</svg>