<?xml version="1.0" encoding="UTF-8" standalone="no"?>
<svg width="20px" height="28px" viewBox="0 0 20 28" version="1.1" xmlns="http://www.w3.org/2000/svg" xmlns:xlink="http://www.w3.org/1999/xlink">
    <!-- Generator: Sketch 3.8.1 (29687) - http://www.bohemiancoding.com/sketch -->
    <title>arrow_right_double [#251]</title>
    <desc>Created with Sketch.</desc>
    <defs></defs>
    <g id="Page-1" stroke="none" stroke-width="1" fill="none" fill-rule="evenodd">
        <g id="Dribbble-Dark-Preview" transform="translate(-100.000000, -7035.000000)" fill="#FFFFFF">
            <g id="icons" transform="translate(56.000000, 160.000000)">
                <path d="M59.879,6892.99485 C59.488,6892.61022 58.855,6892.6112 58.465,6892.99485 C58.074,6893.37948 58.074,6894.00216 58.465,6894.38679 L60.147,6895.92236 C60.462,6896.23223 60.239,6896.64244 59.793,6896.64244 L54,6896.64244 C49.592,6896.64244 46.02,6893.19454 46.003,6888.86229 C46.02,6884.52906 49.592,6880.90311 54,6880.90311 L59.793,6880.90311 C60.239,6880.90311 60.462,6881.55236 60.147,6881.86222 L58.465,6883.57584 C58.074,6883.96047 58.074,6884.61267 58.465,6884.9973 C58.855,6885.38193 59.488,6885.39669 59.879,6885.01206 L63.415,6881.54153 C64.196,6880.77326 64.196,6879.53182 63.415,6878.76354 C62.867,6878.22841 60.431,6875.83111 59.879,6875.2881 C59.488,6874.90347 58.855,6874.90446 58.465,6875.2881 C58.074,6875.67273 58.074,6876.29542 58.465,6876.68005 L60.147,6878.21562 C60.462,6878.52549 60.239,6878.93569 59.793,6878.93569 L54,6878.93569 C48.478,6878.93569 44,6883.51879 44,6888.95181 L44,6888.98132 C44,6894.41434 48.478,6898.71412 54,6898.71412 L59.793,6898.60985 C60.239,6898.60985 60.462,6899.2591 60.147,6899.56897 L58.465,6901.28357 C58.074,6901.66722 58.074,6902.3204 58.465,6902.70404 C58.855,6903.08867 59.488,6903.10343 59.879,6902.7188 C60.43,6902.17776 62.868,6899.7844 63.415,6899.25221 C64.196,6898.48394 64.196,6897.24053 63.415,6896.47225 L59.879,6892.99485 Z" id="arrow_right_double-[#251]"></path>
            </g>
        </g>
    </g>
</svg>