<?xml version="1.0" encoding="UTF-8" standalone="no"?>
<svg width="20px" height="20px" viewBox="0 0 20 20" version="1.1" xmlns="http://www.w3.org/2000/svg" xmlns:xlink="http://www.w3.org/1999/xlink">
    <!-- Generator: Sketch 3.8.1 (29687) - http://www.bohemiancoding.com/sketch -->
    <title>arrow_left_up_right_down [#377]</title>
    <desc>Created with Sketch.</desc>
    <defs></defs>
    <g id="Page-1" stroke="none" stroke-width="1" fill="none" fill-rule="evenodd">
        <g id="Dribbble-Dark-Preview" transform="translate(-260.000000, -6519.000000)" fill="#FFFFFF">
            <g id="icons" transform="translate(56.000000, 160.000000)">
                <path d="M224,6372 L224,6377 C224,6378.105 223.105,6379 222,6379 L217,6379 C216.448,6379 216,6378.552 216,6378 C216,6377.448 216.448,6377 217,6377 L219.379,6377 C219.824,6377 220.047,6376.461 219.732,6376.146 L216.707,6373.121 L206.854,6363.268 C206.539,6362.953 206,6363.176 206,6363.621 L206,6366 C206,6366.552 205.552,6367 205,6367 C204.448,6367 204,6366.552 204,6366 L204,6361 C204,6359.895 204.895,6359 206,6359 L211,6359 C211.552,6359 212,6359.448 212,6360 C212,6360.552 211.552,6361 211,6361 L208.621,6361 C208.176,6361 207.953,6361.539 208.268,6361.854 C216,6369.586 218.418,6372.004 221.146,6374.732 C221.461,6375.047 222,6374.824 222,6374.379 L222,6372 C222,6371.448 222.448,6371 223,6371 C223.552,6371 224,6371.448 224,6372" id="arrow_left_up_right_down-[#377]"></path>
            </g>
        </g>
    </g>
</svg>