<?xml version="1.0" encoding="UTF-8" standalone="no"?>
<svg width="20px" height="20px" viewBox="0 0 20 20" version="1.1" xmlns="http://www.w3.org/2000/svg" xmlns:xlink="http://www.w3.org/1999/xlink">
    <!-- Generator: Sketch 3.8.1 (29687) - http://www.bohemiancoding.com/sketch -->
    <title>arrow_all [#378]</title>
    <desc>Created with Sketch.</desc>
    <defs></defs>
    <g id="Page-1" stroke="none" stroke-width="1" fill="none" fill-rule="evenodd">
        <g id="Dribbble-Dark-Preview" transform="translate(-220.000000, -6519.000000)" fill="#FFFFFF">
            <g id="icons" transform="translate(56.000000, 160.000000)">
                <path d="M182,6366 L182,6363.621 C182,6363.176 181.461,6362.953 181.146,6363.268 L175.414,6369 L181.146,6374.732 C181.461,6375.047 182,6374.824 182,6374.379 L182,6372 C182,6371.448 182.448,6371 183,6371 C183.552,6371 184,6371.448 184,6372 L184,6377 C184,6378.105 183.105,6379 182,6379 L177,6379 C176.448,6379 176,6378.552 176,6378 C176,6377.448 176.448,6377 177,6377 L179.379,6377 C179.824,6377 180.047,6376.461 179.732,6376.146 L174,6370.414 C171.983,6372.431 170.267,6374.147 168.268,6376.146 C167.953,6376.461 168.176,6377 168.621,6377 L171,6377 C171.552,6377 172,6377.448 172,6378 C172,6378.552 171.552,6379 171,6379 L166,6379 C164.895,6379 164,6378.105 164,6377 L164,6372 C164,6371.448 164.448,6371 165,6371 C165.552,6371 166,6371.448 166,6372 L166,6374.379 C166,6374.824 166.539,6375.047 166.854,6374.732 C168.976,6372.61 170.591,6370.995 172.586,6369 C170.569,6366.983 168.853,6365.267 166.854,6363.268 C166.539,6362.953 166,6363.176 166,6363.621 L166,6366 C166,6366.552 165.552,6367 165,6367 C164.448,6367 164,6366.552 164,6366 L164,6361 C164,6359.895 164.895,6359 166,6359 L171,6359 C171.552,6359 172,6359.448 172,6360 C172,6360.552 171.552,6361 171,6361 L168.621,6361 C168.176,6361 167.953,6361.539 168.268,6361.854 C170.39,6363.976 172.005,6365.591 174,6367.586 L179.732,6361.854 C180.047,6361.539 179.824,6361 179.379,6361 L177,6361 C176.448,6361 176,6360.552 176,6360 C176,6359.448 176.448,6359 177,6359 L182,6359 C183.105,6359 184,6359.895 184,6361 L184,6366 C184,6366.552 183.552,6367 183,6367 C182.448,6367 182,6366.552 182,6366" id="arrow_all-[#378]"></path>
            </g>
        </g>
    </g>
</svg>