<?xml version="1.0" encoding="UTF-8" standalone="no"?>
<svg width="20px" height="20px" viewBox="0 0 20 20" version="1.1" xmlns="http://www.w3.org/2000/svg" xmlns:xlink="http://www.w3.org/1999/xlink">
    <!-- Generator: Sketch 3.8.1 (29687) - http://www.bohemiancoding.com/sketch -->
    <title>arrow_right_circle [#306]</title>
    <desc>Created with Sketch.</desc>
    <defs></defs>
    <g id="Page-1" stroke="none" stroke-width="1" fill="none" fill-rule="evenodd">
        <g id="Dribbble-Dark-Preview" transform="translate(-300.000000, -6799.000000)" fill="#FFFFFF">
            <g id="icons" transform="translate(56.000000, 160.000000)">
                <path d="M246,6655.002 C246,6653.899 246.897,6653.002 248,6653.002 C249.103,6653.002 250,6653.899 250,6655.002 C250,6656.105 249.103,6657.002 248,6657.002 C246.897,6657.002 246,6656.105 246,6655.002 M251.859,6656.004 L260.181,6656.004 L259.05,6657.134 L260.464,6658.548 L264,6655.012 L263.99,6655.002 L264,6654.992 L260.464,6651.457 L259.05,6652.872 L260.181,6654.004 L251.859,6654.004 C251.413,6652.004 249.862,6651.003 248,6651.003 C245.791,6651.003 244,6652.793 244,6655.003 C244,6657.212 245.791,6659.003 248,6659.003 C249.862,6659.003 251.413,6658.004 251.859,6656.004 M246,6642.995 C246,6641.892 246.897,6640.995 248,6640.995 C249.103,6640.995 250,6641.892 250,6642.995 C250,6644.098 249.103,6644.995 248,6644.995 C246.897,6644.995 246,6644.098 246,6642.995 M251.859,6644.004 L260.181,6644.004 L259.05,6645.131 L260.464,6646.542 L264,6643.006 L263.99,6642.995 L264,6642.986 L260.464,6639.45 L259.05,6640.869 L260.181,6642.004 L251.859,6642.004 C251.413,6640.004 249.862,6639 248,6639 C245.791,6639 244,6640.788 244,6642.997 C244,6645.206 245.791,6647.001 248,6647.001 C249.862,6647.001 251.413,6646.004 251.859,6644.004" id="arrow_right_circle-[#306]"></path>
            </g>
        </g>
    </g>
</svg>