<?xml version="1.0" encoding="UTF-8" standalone="no"?>
<svg width="20px" height="20px" viewBox="0 0 20 20" version="1.1" xmlns="http://www.w3.org/2000/svg" xmlns:xlink="http://www.w3.org/1999/xlink">
    <!-- Generator: Sketch 3.8.1 (29687) - http://www.bohemiancoding.com/sketch -->
    <title>arrow_down [#272]</title>
    <desc>Created with Sketch.</desc>
    <defs></defs>
    <g id="Page-1" stroke="none" stroke-width="1" fill="none" fill-rule="evenodd">
        <g id="Dribbble-Dark-Preview" transform="translate(-60.000000, -6959.000000)" fill="#FFFFFF">
            <g id="icons" transform="translate(56.000000, 160.000000)">
                <path d="M22,6802 C22,6801.448 21.552,6801 21,6801 L7,6801 C6.448,6801 6,6801.448 6,6802 L6,6804 C6,6804.552 6.448,6805 7,6805 L21,6805 C21.552,6805 22,6804.552 22,6804 L22,6802 Z M24,6801 L24,6805 C24,6806.105 23.104,6807 22,6807 L6,6807 C4.895,6807 4,6806.105 4,6805 L4,6801 C4,6799.895 4.895,6799 6,6799 L22,6799 C23.104,6799 24,6799.895 24,6801 L24,6801 Z M18.949,6813.464 C19.34,6813.854 19.34,6814.488 18.95,6814.879 C16.099,6817.729 15.979,6817.849 15.413,6818.415 C14.633,6819.195 13.367,6819.195 12.587,6818.415 L9.05,6814.878 C8.659,6814.488 8.659,6813.855 9.05,6813.464 C9.44,6813.074 10.073,6813.074 10.464,6813.464 L12.146,6815.147 C12.461,6815.462 13,6815.239 13,6814.793 L13,6809.657 C13,6809.104 13.448,6808.657 14,6808.657 C14.552,6808.657 15,6809.104 15,6809.657 L15,6814.791 C15,6815.237 15.539,6815.46 15.854,6815.145 L17.535,6813.464 C17.926,6813.073 18.559,6813.073 18.949,6813.464 L18.949,6813.464 Z" id="arrow_down-[#272]"></path>
            </g>
        </g>
    </g>
</svg>