<?xml version="1.0" encoding="UTF-8" standalone="no"?>
<svg width="20px" height="20px" viewBox="0 0 20 20" version="1.1" xmlns="http://www.w3.org/2000/svg" xmlns:xlink="http://www.w3.org/1999/xlink">
    <!-- Generator: Sketch 3.8.1 (29687) - http://www.bohemiancoding.com/sketch -->
    <title>arrow_up [#273]</title>
    <desc>Created with Sketch.</desc>
    <defs></defs>
    <g id="Page-1" stroke="none" stroke-width="1" fill="none" fill-rule="evenodd">
        <g id="Dribbble-Dark-Preview" transform="translate(-420.000000, -6919.000000)" fill="#FFFFFF">
            <g id="icons" transform="translate(56.000000, 160.000000)">
                <path d="M382,6774.00025 C382,6773.44825 381.552,6773.00025 381,6773.00025 L367,6773.00025 C366.448,6773.00025 366,6773.44825 366,6774.00025 L366,6776.00025 C366,6776.55225 366.448,6777.00025 367,6777.00025 L381,6777.00025 C381.552,6777.00025 382,6776.55225 382,6776.00025 L382,6774.00025 Z M384,6773.00025 L384,6777.00025 C384,6778.10525 383.105,6779.00025 382,6779.00025 L366,6779.00025 C364.896,6779.00025 364,6778.10525 364,6777.00025 L364,6773.00025 C364,6771.89525 364.896,6771.00025 366,6771.00025 L382,6771.00025 C383.105,6771.00025 384,6771.89525 384,6773.00025 L384,6773.00025 Z M369.28,6764.35225 C368.907,6763.97525 368.907,6763.36225 369.28,6762.98525 C369.791,6762.46725 372.136,6760.09025 372.653,6759.56625 C373.397,6758.81125 374.605,6758.81125 375.349,6759.56625 L378.724,6762.98525 C379.096,6763.36325 379.099,6763.97525 378.727,6764.35225 C378.354,6764.73025 377.756,6764.73025 377.384,6764.35225 L375.791,6762.72525 C375.49,6762.42125 375,6762.63625 375,6763.06725 L375,6768.03325 C375,6768.56725 374.527,6769.00025 374,6769.00025 C373.473,6769.00025 373,6768.56725 373,6768.03325 L373,6763.06925 C373,6762.63825 372.51,6762.42325 372.209,6762.72725 L370.629,6764.35225 C370.256,6764.73025 369.652,6764.73025 369.28,6764.35225 L369.28,6764.35225 Z" id="arrow_up-[#273]"></path>
            </g>
        </g>
    </g>
</svg>