<?xml version="1.0" encoding="UTF-8" standalone="no"?>
<svg width="20px" height="28px" viewBox="0 0 20 28" version="1.1" xmlns="http://www.w3.org/2000/svg" xmlns:xlink="http://www.w3.org/1999/xlink">
    <!-- Generator: Sketch 3.8.1 (29687) - http://www.bohemiancoding.com/sketch -->
    <title>arrow_right_double [#274]</title>
    <desc>Created with Sketch.</desc>
    <defs></defs>
    <g id="Page-1" stroke="none" stroke-width="1" fill="none" fill-rule="evenodd">
        <g id="Dribbble-Dark-Preview" transform="translate(-380.000000, -6915.000000)" fill="#FFFFFF">
            <g id="icons" transform="translate(56.000000, 160.000000)">
                <path d="M343.414,6758.76116 C342.907,6758.2628 340.386,6755.78599 339.878,6755.28763 C339.488,6754.90412 338.855,6754.90412 338.464,6755.28763 C338.074,6755.67114 338.074,6756.29333 338.464,6756.67684 L340.146,6758.24282 C340.461,6758.55243 340.238,6758.99486 339.793,6758.99486 L329,6758.99486 C327.895,6758.99486 327,6760.0475 327,6761.1331 L327,6767.98328 L325,6767.98328 C324.447,6767.98328 324,6768.33084 324,6768.87314 L324,6768.81421 C324,6769.35652 324.447,6769.98071 325,6769.98071 L327,6769.98071 L327,6776.85287 C327,6777.93747 327.895,6778.96914 329,6778.96914 L332.793,6778.96914 C333.238,6778.96914 333.461,6779.42256 333.146,6779.73216 L331.464,6781.34608 C331.074,6781.73059 331.074,6782.33281 331.464,6782.71732 C331.855,6783.10082 332.488,6783.09083 332.878,6782.70733 C332.99,6782.59747 336.526,6779.11695 336.414,6779.22681 C337.195,6778.4598 337.195,6777.2144 336.414,6776.44739 L332.878,6772.97286 C332.488,6772.58935 331.855,6772.58836 331.464,6772.97286 C331.074,6773.35637 331.074,6773.97857 331.464,6774.36107 L333.146,6776.07387 C333.461,6776.38247 333.238,6776.97171 332.793,6776.97171 L330,6776.97171 C329.447,6776.97171 329,6776.41243 329,6775.87013 L329,6762.11584 C329,6761.57254 329.447,6760.99229 330,6760.99229 L339.793,6760.99229 C340.238,6760.99229 340.461,6761.59151 340.146,6761.90112 L338.464,6763.58894 C338.074,6763.97245 338.074,6764.61163 338.464,6764.99613 C338.855,6765.37964 339.488,6765.38863 339.878,6765.00412 L343.414,6761.53559 C344.195,6760.76757 344.195,6759.52817 343.414,6758.76116" id="arrow_right_double-[#274]"></path>
            </g>
        </g>
    </g>
</svg>