<?xml version="1.0" encoding="UTF-8" standalone="no"?>
<svg width="18px" height="20px" viewBox="0 0 18 20" version="1.1" xmlns="http://www.w3.org/2000/svg" xmlns:xlink="http://www.w3.org/1999/xlink">
    <!-- Generator: Sketch 3.8.1 (29687) - http://www.bohemiancoding.com/sketch -->
    <title>arrow_double_circle [#327]</title>
    <desc>Created with Sketch.</desc>
    <defs></defs>
    <g id="Page-1" stroke="none" stroke-width="1" fill="none" fill-rule="evenodd">
        <g id="Dribbble-Dark-Preview" transform="translate(-261.000000, -6719.000000)" fill="#FFFFFF">
            <g id="icons" transform="translate(56.000000, 160.000000)">
                <path d="M219,6577.00022 C217.897,6577.00022 217,6576.10322 217,6575.00022 C217,6573.89722 217.897,6573.00022 219,6573.00022 C220.103,6573.00022 221,6573.89722 221,6575.00022 C221,6576.10322 220.103,6577.00022 219,6577.00022 M220,6571.14122 L220,6561.99622 L220.424,6562.42022 C220.814,6562.81022 221.448,6562.81022 221.838,6562.41922 L221.838,6562.41922 C222.228,6562.02822 222.228,6561.39522 221.836,6561.00522 L220.41,6559.58322 C219.631,6558.80622 218.369,6558.80622 217.59,6559.58322 L216.164,6561.00422 C215.772,6561.39522 215.772,6562.02822 216.162,6562.41922 C216.553,6562.81022 217.186,6562.81022 217.576,6562.42022 L218,6561.99622 L218,6571.14122 C216,6571.66122 214.588,6573.68422 215.11,6575.94922 C215.441,6577.38822 216.608,6578.55722 218.046,6578.89022 C220.67,6579.49622 223,6577.52022 223,6575.00022 C223,6573.13822 222,6571.58722 220,6571.14122 M209,6561.00022 C210.103,6561.00022 211,6561.89722 211,6563.00022 C211,6564.10322 210.103,6565.00022 209,6565.00022 C207.898,6565.00022 207,6564.10322 207,6563.00022 C207,6561.89722 207.898,6561.00022 209,6561.00022 M208,6566.85922 L208,6576.00422 L207.577,6575.58022 C207.186,6575.19022 206.553,6575.19022 206.163,6575.58122 L206.162,6575.58122 C205.772,6575.97222 205.773,6576.60522 206.164,6576.99522 L207.59,6578.41722 C208.37,6579.19422 209.631,6579.19422 210.41,6578.41722 L211.837,6576.99522 C212.228,6576.60522 212.229,6575.97222 211.838,6575.58122 C211.448,6575.19022 210.815,6575.19022 210.424,6575.58022 L210,6576.00422 L210,6566.85922 C212,6566.33822 213.412,6564.31622 212.891,6562.05122 C212.56,6560.61222 211.393,6559.44322 209.954,6559.11022 C207.331,6558.50422 205,6560.48022 205,6563.00022 C205,6564.86222 206,6566.41322 208,6566.85922" id="arrow_double_circle-[#327]"></path>
            </g>
        </g>
    </g>
</svg>