<?xml version="1.0" encoding="UTF-8" standalone="no"?>
<svg width="20px" height="20px" viewBox="0 0 20 20" version="1.1" xmlns="http://www.w3.org/2000/svg" xmlns:xlink="http://www.w3.org/1999/xlink">
    <!-- Generator: Sketch 3.8.1 (29687) - http://www.bohemiancoding.com/sketch -->
    <title>arrow_all [#299]</title>
    <desc>Created with Sketch.</desc>
    <defs></defs>
    <g id="Page-1" stroke="none" stroke-width="1" fill="none" fill-rule="evenodd">
        <g id="Dribbble-Dark-Preview" transform="translate(-180.000000, -6839.000000)" fill="#FFFFFF">
            <g id="icons" transform="translate(56.000000, 160.000000)">
                <path d="M136,6690 C136,6690.551 135.553,6690.998 135.002,6690.998 L132.998,6690.998 C132.447,6690.998 132,6690.551 132,6690 L132,6687.997 C132,6687.445 132.447,6686.998 132.998,6686.998 L135.002,6686.998 C135.553,6686.998 136,6687.445 136,6687.997 L136,6690 Z M143,6693.987 C142.448,6693.987 142,6694.434 142,6694.987 L142,6695.586 L137.924,6691.51 C138.071,6690.962 138.017,6686.825 137.928,6686.487 L142,6682.415 L142,6683.015 C142,6683.567 142.448,6684.015 143,6684.015 C143.552,6684.015 144,6683.567 144,6683.015 L143.995,6681.001 C143.993,6679.9 143.101,6679.008 142,6679.006 L139.986,6679.001 C139.434,6679.001 138.986,6679.447 138.986,6680 C138.986,6680.552 139.434,6680.998 139.986,6680.998 L140.586,6680.998 L136.512,6685.072 C136.189,6684.987 132.033,6684.929 131.488,6685.072 L127.415,6680.998 L128.015,6680.998 C128.567,6680.998 129.015,6680.552 129.015,6680 C129.015,6679.448 128.566,6679 128.014,6679 L126,6679.005 C124.899,6679.007 124.006,6679.899 124.004,6681.001 L124,6683.014 C124,6683.567 124.448,6684.015 125,6684.015 C125.552,6684.015 126,6683.568 126,6683.015 L126,6682.416 L130.072,6686.488 C129.99,6686.8 129.928,6690.956 130.076,6691.51 L126,6695.587 L126,6694.987 C126,6694.435 125.552,6693.987 125,6693.987 C124.448,6693.987 124,6694.435 124,6694.987 L124.005,6697.001 C124.007,6698.102 124.899,6698.994 126,6698.996 L128.014,6699.001 C128.566,6699.001 129.014,6698.552 129.014,6698 C129.014,6697.447 128.566,6696.998 128.014,6696.998 L127.414,6696.998 L131.489,6692.923 C131.811,6693.01 135.966,6693.069 136.511,6692.924 L140.585,6696.998 L139.985,6696.998 C139.433,6696.998 138.985,6697.447 138.985,6697.999 C138.985,6698.551 139.434,6699.001 139.986,6699.001 L142,6698.997 C143.102,6698.995 143.994,6698.102 143.996,6697.001 L144,6694.987 C144,6694.435 143.552,6693.987 143,6693.987 L143,6693.987 Z" id="arrow_all-[#299]"></path>
            </g>
        </g>
    </g>
</svg>