<?xml version="1.0" encoding="UTF-8" standalone="no"?>
<svg width="20px" height="28px" viewBox="0 0 20 28" version="1.1" xmlns="http://www.w3.org/2000/svg" xmlns:xlink="http://www.w3.org/1999/xlink">
    <!-- Generator: Sketch 3.8.1 (29687) - http://www.bohemiancoding.com/sketch -->
    <title>arrow_right_double [#250]</title>
    <desc>Created with Sketch.</desc>
    <defs></defs>
    <g id="Page-1" stroke="none" stroke-width="1" fill="none" fill-rule="evenodd">
        <g id="Dribbble-Dark-Preview" transform="translate(-140.000000, -7035.000000)" fill="#FFFFFF">
            <g id="icons" transform="translate(56.000000, 160.000000)">
                <path d="M92.879,6892.99583 C92.488,6892.6112 91.855,6892.6112 91.465,6892.99583 C91.074,6893.38046 91.074,6894.00315 91.465,6894.38679 L93.147,6895.92236 C93.462,6896.23223 93.239,6896.64244 92.793,6896.64244 L87,6896.64244 C86.448,6896.64244 86,6896.44078 86,6895.89777 L86,6882.12586 C86,6881.58187 86.448,6880.90311 87,6880.90311 L99.793,6880.90311 C100.239,6880.90311 100.462,6881.55236 100.147,6881.86222 L98.465,6883.57683 C98.074,6883.96047 98.074,6884.61365 98.465,6884.9973 C98.855,6885.38193 99.488,6885.39669 99.879,6885.01206 L103.415,6881.54153 C104.196,6880.77326 104.196,6879.53182 103.415,6878.76354 C102.867,6878.22841 100.431,6875.83111 99.879,6875.2881 C99.488,6874.90347 98.855,6874.90446 98.465,6875.2881 C98.074,6875.67273 98.074,6876.29542 98.465,6876.68005 L100.147,6878.21562 C100.462,6878.52549 100.239,6878.93569 99.793,6878.93569 L86,6878.93569 C84.896,6878.93569 84,6880.05515 84,6881.14215 L84,6896.88148 C84,6897.96749 84.896,6898.60985 86,6898.60985 L92.793,6898.60985 C93.239,6898.60985 93.462,6899.2591 93.147,6899.56897 L91.465,6901.28357 C91.074,6901.66722 91.074,6902.3204 91.465,6902.70404 C91.855,6903.08867 92.488,6903.10343 92.879,6902.7188 C93.43,6902.17776 95.868,6899.7844 96.415,6899.25221 C97.196,6898.48394 97.196,6897.24053 96.415,6896.47225 L92.879,6892.99583 Z" id="arrow_right_double-[#250]"></path>
            </g>
        </g>
    </g>
</svg>