<?xml version="1.0" encoding="UTF-8" standalone="no"?>
<svg width="20px" height="18px" viewBox="0 0 20 18" version="1.1" xmlns="http://www.w3.org/2000/svg" xmlns:xlink="http://www.w3.org/1999/xlink">
    <!-- Generator: Sketch 3.8.1 (29687) - http://www.bohemiancoding.com/sketch -->
    <title>arrow_right_left [#343]</title>
    <desc>Created with Sketch.</desc>
    <defs></defs>
    <g id="Page-1" stroke="none" stroke-width="1" fill="none" fill-rule="evenodd">
        <g id="Dribbble-Dark-Preview" transform="translate(-420.000000, -6640.000000)" fill="#FFFFFF">
            <g id="icons" transform="translate(56.000000, 160.000000)">
                <path d="M369.152,6496.32302 L367.74,6494.843 C367.438,6494.52378 367.664,6494.00943 368.103,6494.00943 L383,6494.00943 C383.552,6494.00943 384,6493.55012 384,6492.99774 L384,6493.00374 C384,6492.45036 383.552,6492.00806 383,6492.00806 L368.118,6492.00806 C367.677,6492.00806 367.452,6491.46669 367.758,6491.14947 L369.162,6489.68947 C369.542,6489.2902 369.525,6488.65476 369.122,6488.27851 L369.12,6488.2745 C368.722,6487.90125 368.098,6487.92026 367.723,6488.31753 L364.546,6491.65782 C363.815,6492.43135 363.819,6493.64218 364.553,6494.41271 L367.702,6497.69296 C368.076,6498.08523 368.695,6498.10424 369.092,6497.73499 L369.102,6497.72498 C369.504,6497.35172 369.526,6496.72329 369.152,6496.32302 M378.898,6480.27502 L378.908,6480.26501 C379.305,6479.89576 379.924,6479.91477 380.298,6480.30704 L383.447,6483.58729 C384.182,6484.35782 384.185,6485.56865 383.455,6486.34318 L380.277,6489.68347 C379.903,6490.07974 379.279,6490.09975 378.881,6489.7275 L378.878,6489.7245 C378.475,6489.34824 378.458,6488.7148 378.839,6488.31653 L380.242,6486.85753 C380.548,6486.53931 380.323,6486.00395 379.882,6486.00395 L365,6486.00395 C364.448,6486.00395 364,6485.56164 364,6485.00826 L364,6485.00626 C364,6484.45389 364.448,6484.00258 365,6484.00258 L379.897,6484.00258 C380.336,6484.00258 380.562,6483.48222 380.26,6483.163 L378.848,6481.67398 C378.474,6481.27371 378.496,6480.64828 378.898,6480.27502" id="arrow_right_left-[#343]"></path>
            </g>
        </g>
    </g>
</svg>