<?xml version="1.0" encoding="UTF-8" standalone="no"?>
<svg width="20px" height="20px" viewBox="0 0 20 20" version="1.1" xmlns="http://www.w3.org/2000/svg" xmlns:xlink="http://www.w3.org/1999/xlink">
    <!-- Generator: Sketch 3.8.1 (29687) - http://www.bohemiancoding.com/sketch -->
    <title>arrow_in_left [#389]</title>
    <desc>Created with Sketch.</desc>
    <defs></defs>
    <g id="Page-1" stroke="none" stroke-width="1" fill="none" fill-rule="evenodd">
        <g id="Dribbble-Dark-Preview" transform="translate(-180.000000, -6479.000000)" fill="#FFFFFF">
            <g id="icons" transform="translate(56.000000, 160.000000)">
                <path d="M137.327,6333.274 L137.331,6333.271 C137.734,6332.896 137.756,6332.265 137.38,6331.863 L136.423,6330.842 C136.124,6330.522 136.351,6330 136.788,6330 L143,6330 C143.553,6330 144,6329.552 144,6329 C144,6328.448 143.553,6328 143,6328 L136.803,6328 C136.363,6328 136.138,6327.473 136.442,6327.155 L137.37,6326.181 C137.752,6325.782 137.734,6325.148 137.331,6324.771 C136.932,6324.397 136.305,6324.416 135.929,6324.814 L133.24,6327.662 C132.51,6328.436 132.513,6329.646 133.247,6330.415 L135.933,6333.231 C136.308,6333.624 136.929,6333.643 137.327,6333.274 M125.778,6339 L132.223,6339 C133.204,6339 134,6338.204 134,6337.222 L134,6335.993 C134,6335.445 133.556,6335 133.007,6335 L132.994,6335 C132.445,6335 132,6335.445 132,6335.993 L132,6336.007 C132,6336.555 131.556,6337 131.007,6337 L126.994,6337 C126.445,6337 126,6336.555 126,6336.007 L126,6321.993 C126,6321.445 126.445,6321 126.994,6321 L131.007,6321 C131.556,6321 132,6321.445 132,6321.993 L132,6322.007 C132,6322.555 132.445,6323 132.994,6323 L133.007,6323 C133.556,6323 134,6322.555 134,6322.007 L134,6320.889 L134,6320.778 C134,6319.796 133.204,6319 132.223,6319 L125.778,6319 C124.796,6319 124,6319.796 124,6320.778 L124,6337.222 C124,6338.204 124.796,6339 125.778,6339" id="arrow_in_left-[#389]"></path>
            </g>
        </g>
    </g>
</svg>