<?xml version="1.0" encoding="UTF-8" standalone="no"?>
<svg width="20px" height="20px" viewBox="0 0 20 20" version="1.1" xmlns="http://www.w3.org/2000/svg" xmlns:xlink="http://www.w3.org/1999/xlink">
    <!-- Generator: Sketch 3.8.1 (29687) - http://www.bohemiancoding.com/sketch -->
    <title>arrow_left_up [#357]</title>
    <desc>Created with Sketch.</desc>
    <defs></defs>
    <g id="Page-1" stroke="none" stroke-width="1" fill="none" fill-rule="evenodd">
        <g id="Dribbble-Dark-Preview" transform="translate(-260.000000, -6599.000000)" fill="#FFFFFF">
            <g id="icons" transform="translate(56.000000, 160.000000)">
                <path d="M204,6440.996 L204,6452.124 C204,6452.663 204.435,6453 204.973,6453 L205.001,6453 C205.551,6453 206,6452.675 206,6452.125 L206,6443.576 C206,6443.13 206.54,6442.908 206.854,6443.223 L222.314,6458.71 C222.699,6459.096 223.324,6459.096 223.709,6458.711 L223.709,6458.711 C224.095,6458.325 224.094,6457.701 223.709,6457.316 L208.209,6441.851 C207.894,6441.537 208.116,6441 208.562,6441 L217.016,6441 C217.56,6441 218,6440.555 218,6440.01 L218,6439.982 C218,6439.437 217.56,6439 217.016,6439 L206.002,6439 C204.897,6439 204,6439.891 204,6440.996" id="arrow_left_up-[#357]"></path>
            </g>
        </g>
    </g>
</svg>