<?xml version="1.0" encoding="UTF-8" standalone="no"?>
<svg width="20px" height="20px" viewBox="0 0 20 20" version="1.1" xmlns="http://www.w3.org/2000/svg" xmlns:xlink="http://www.w3.org/1999/xlink">
    <!-- Generator: Sketch 3.8.1 (29687) - http://www.bohemiancoding.com/sketch -->
    <title>arrow_circle [#318]</title>
    <desc>Created with Sketch.</desc>
    <defs></defs>
    <g id="Page-1" stroke="none" stroke-width="1" fill="none" fill-rule="evenodd">
        <g id="Dribbble-Dark-Preview" transform="translate(-220.000000, -6759.000000)" fill="#FFFFFF">
            <g id="icons" transform="translate(56.000000, 160.000000)">
                <path d="M166.585491,6604.41967 C165.805915,6603.6404 165.805915,6602.37259 166.585491,6601.59432 C167.365066,6600.81505 168.633374,6600.81505 169.41195,6601.59432 C170.191525,6602.37259 170.191525,6603.6404 169.41195,6604.41967 C168.633374,6605.19894 167.365066,6605.19894 166.585491,6604.41967 L166.585491,6604.41967 Z M182.004086,6618.999 C183.104486,6618.997 183.995001,6618.10584 183.997,6617.00687 L183.999998,6614.99475 C184.000998,6614.44227 183.548245,6613.99469 182.995546,6613.99369 C182.443847,6613.99369 181.991093,6614.44127 181.991093,6614.99276 L181.991093,6615.59119 L171.426852,6605.0261 C172.478279,6603.23978 172.044515,6600.82004 170.074589,6599.5882 C168.82427,6598.80493 167.17417,6598.80393 165.922852,6599.5852 C163.640096,6601.00987 163.390232,6604.05201 165.171261,6605.83234 C166.487544,6607.14811 168.486454,6607.32994 170.018619,6606.42879 L180.587858,6616.98289 L179.989185,6616.98289 C179.437485,6616.98289 178.992728,6617.44346 178.992728,6617.99494 L178.992728,6617.99994 C178.992728,6618.55142 179.439484,6619.001 179.992183,6619 L182.004086,6618.999 Z" id="arrow_circle-[#318]"></path>
            </g>
        </g>
    </g>
</svg>