<?xml version="1.0" encoding="UTF-8" standalone="no"?>
<svg width="20px" height="20px" viewBox="0 0 20 20" version="1.1" xmlns="http://www.w3.org/2000/svg" xmlns:xlink="http://www.w3.org/1999/xlink">
    <!-- Generator: Sketch 3.8.1 (29687) - http://www.bohemiancoding.com/sketch -->
    <title>arrow_left_up_circle [#320]</title>
    <desc>Created with Sketch.</desc>
    <defs></defs>
    <g id="Page-1" stroke="none" stroke-width="1" fill="none" fill-rule="evenodd">
        <g id="Dribbble-Dark-Preview" transform="translate(-140.000000, -6759.000000)" fill="#FFFFFF">
            <g id="icons" transform="translate(56.000000, 160.000000)">
                <path d="M101.415662,6613.58033 C102.195288,6614.3596 102.195288,6615.62741 101.415662,6616.40568 C100.636035,6617.18495 99.3676423,6617.18495 98.5890152,6616.40568 C97.8093885,6615.62741 97.8093885,6614.3596 98.5890152,6613.58033 C99.3676423,6612.80106 100.636035,6612.80106 101.415662,6613.58033 L101.415662,6613.58033 Z M85.9960458,6599.001 C84.8955728,6599.003 84.0049993,6599.89416 84.0030002,6600.99313 L84.0000017,6603.00525 C83.9990021,6603.55773 84.4467877,6604.00531 84.9985235,6604.00631 C85.5512588,6604.00631 85.9990444,6603.55873 85.9990444,6603.00724 L85.9990444,6602.40881 L96.567983,6612.9739 C95.5164866,6614.76022 95.9532774,6617.17996 97.923334,6618.4118 C99.1747347,6619.19507 100.825944,6619.19607 102.077345,6618.4148 C104.359252,6616.99013 104.610132,6613.94799 102.828985,6612.16766 C101.513615,6610.85189 99.5145719,6610.66107 97.9813062,6611.56222 L87.4123675,6600.99813 L88.0110808,6600.99813 C88.5628166,6600.99813 88.9976084,6600.55654 88.9976084,6600.00506 L88.9976084,6600.00006 C88.9976084,6599.44858 88.5548204,6598.999 88.0030846,6599 L85.9960458,6599.001 Z" id="arrow_left_up_circle-[#320]"></path>
            </g>
        </g>
    </g>
</svg>