<?xml version="1.0" encoding="UTF-8" standalone="no"?>
<svg width="20px" height="20px" viewBox="0 0 20 20" version="1.1" xmlns="http://www.w3.org/2000/svg" xmlns:xlink="http://www.w3.org/1999/xlink">
    <!-- Generator: Sketch 3.8.1 (29687) - http://www.bohemiancoding.com/sketch -->
    <title>arrow_left [#266]</title>
    <desc>Created with Sketch.</desc>
    <defs></defs>
    <g id="Page-1" stroke="none" stroke-width="1" fill="none" fill-rule="evenodd">
        <g id="Dribbble-Dark-Preview" transform="translate(-300.000000, -6959.000000)" fill="#FFFFFF">
            <g id="icons" transform="translate(56.000000, 160.000000)">
                <path d="M262,6816 C262,6816.552 261.552,6817 261,6817 L259,6817 C258.448,6817 258,6816.552 258,6816 L258,6802 C258,6801.448 258.448,6801 259,6801 L261,6801 C261.552,6801 262,6801.448 262,6802 L262,6816 Z M258,6819 L262,6819 C263.105,6819 264,6818.105 264,6817 L264,6801 C264,6799.895 263.105,6799 262,6799 L258,6799 C256.895,6799 256,6799.895 256,6801 L256,6808 L248.207,6808 C247.761,6808 247.538,6807.462 247.853,6807.147 L249.536,6805.464 C249.927,6805.074 249.927,6804.44 249.536,6804.05 C249.146,6803.66 248.513,6803.66 248.122,6804.05 L244.585,6807.587 C243.805,6808.368 243.805,6809.633 244.585,6810.413 C244.749,6810.577 243.92,6809.748 248.122,6813.95 C248.512,6814.34 249.146,6814.34 249.536,6813.95 C249.927,6813.559 249.927,6812.926 249.536,6812.535 L247.855,6810.854 C247.54,6810.539 247.763,6810 248.209,6810 L256,6810 L256,6817 C256,6818.105 256.895,6819 258,6819 L258,6819 Z" id="arrow_left-[#266]"></path>
            </g>
        </g>
    </g>
</svg>