<?xml version="1.0" encoding="UTF-8" standalone="no"?>
<svg width="20px" height="8px" viewBox="0 0 20 8" version="1.1" xmlns="http://www.w3.org/2000/svg" xmlns:xlink="http://www.w3.org/1999/xlink">
    <!-- Generator: Sketch 3.8.1 (29687) - http://www.bohemiancoding.com/sketch -->
    <title>arrow_left_circle [#303]</title>
    <desc>Created with Sketch.</desc>
    <defs></defs>
    <g id="Page-1" stroke="none" stroke-width="1" fill="none" fill-rule="evenodd">
        <g id="Dribbble-Dark-Preview" transform="translate(-420.000000, -6805.000000)" fill="#FFFFFF">
            <g id="icons" transform="translate(56.000000, 160.000000)">
                <path d="M382,6648.996 C382,6650.099 381.103,6650.996 380,6650.996 C378.897,6650.996 378,6650.099 378,6648.996 C378,6647.893 378.897,6646.996 380,6646.996 C381.103,6646.996 382,6647.893 382,6648.996 M376.141,6648.003 L367.819,6648.003 L368.95,6646.868 L367.536,6645.452 L364,6648.987 L364.01,6648.996 L364,6649.006 L367.536,6652.541 L368.95,6651.13 L367.819,6650.003 L376.141,6650.003 C376.587,6652.003 378.138,6652.999 380,6652.999 C382.209,6652.999 384,6651.207 384,6648.998 C384,6646.788 382.209,6645 380,6645 C378.138,6645 376.587,6646.003 376.141,6648.003" id="arrow_left_circle-[#303]"></path>
            </g>
        </g>
    </g>
</svg>