<?xml version="1.0" encoding="UTF-8" standalone="no"?>
<svg width="20px" height="20px" viewBox="0 0 20 20" version="1.1" xmlns="http://www.w3.org/2000/svg" xmlns:xlink="http://www.w3.org/1999/xlink">
    <!-- Generator: Sketch 3.8.1 (29687) - http://www.bohemiancoding.com/sketch -->
    <title>arrow_right_circle [#321]</title>
    <desc>Created with Sketch.</desc>
    <defs></defs>
    <g id="Page-1" stroke="none" stroke-width="1" fill="none" fill-rule="evenodd">
        <g id="Dribbble-Dark-Preview" transform="translate(-100.000000, -6759.000000)" fill="#FFFFFF">
            <g id="icons" transform="translate(56.000000, 160.000000)">
                <path d="M49.4196693,6616.41513 C48.6404,6617.19389 47.3725887,6617.19389 46.5943184,6616.41513 C45.8150491,6615.63638 45.8150491,6614.36941 46.5943184,6613.59165 C47.3725887,6612.8129 48.6404,6612.8129 49.4196693,6613.59165 C50.1989386,6614.36941 50.1989386,6615.63638 49.4196693,6616.41513 M49.4196693,6604.42931 C48.6404,6605.20807 47.3725887,6605.20807 46.5943184,6604.42931 C45.8150491,6603.65156 45.8150491,6602.38458 46.5943184,6601.60583 C47.3725887,6600.82708 48.6404,6600.82708 49.4196693,6601.60583 C50.1989386,6602.38458 50.1989386,6603.65156 49.4196693,6604.42931 M62.983951,6613.998 C62.4324681,6613.998 61.9828896,6614.44429 61.9828896,6614.99541 L61.9828896,6615.59345 L55.3950666,6609.00998 L61.9828896,6602.42752 L61.9828896,6603.02556 C61.9828896,6603.57668 62.4434578,6603.99201 62.9949407,6603.99201 L62.999936,6603.99201 C63.5514189,6603.99201 64.0009974,6603.5597 63.9999983,6603.00759 L63.9980002,6600.9978 C63.9960021,6599.89856 63.1058367,6599 62.0058681,6599 L59.9937547,6599 C59.4422718,6599 58.9946915,6599.44629 58.9936924,6599.9974 C58.9936924,6600.54852 59.4412727,6600.9968 59.9927557,6600.9968 L60.5911945,6600.9968 L54.0033715,6607.58926 L51.4387761,6605.03135 C52.4907897,6603.24621 52.0532,6600.83007 50.0850454,6599.59804 C48.8342182,6598.81629 47.1837658,6598.81629 45.9329386,6599.59704 C43.6510781,6601.02177 43.4003132,6604.0619 45.1806439,6605.84105 C46.4964102,6607.15495 48.4945367,6607.34864 50.0261007,6606.44708 L52.5906961,6609.00998 L50.0261007,6611.57288 C48.2397756,6610.52256 45.8200444,6610.95886 44.5881994,6612.92672 C43.8049339,6614.17672 43.8039348,6615.82608 44.5852023,6617.07608 C46.0098664,6619.35543 49.052014,6619.60603 50.8323447,6617.82688 C52.148111,6616.51298 52.3409302,6614.51617 51.4387761,6612.98462 L54.0033715,6610.40475 L60.5911945,6616.97124 L59.9927557,6616.97124 C59.4412727,6616.97124 58.9856999,6617.44549 58.9856999,6617.9966 L58.9856999,6618.0006 C58.9856999,6618.55271 59.4382756,6619.001 59.9897585,6619 L61.9958775,6618.998 C63.094847,6618.996 63.9810161,6618.10643 63.9810161,6617.00819 L63.9810161,6614.9974 C63.9810161,6614.44529 63.536433,6613.998 62.983951,6613.998" id="arrow_right_circle-[#321]"></path>
            </g>
        </g>
    </g>
</svg>