<?xml version="1.0" encoding="UTF-8" standalone="no"?>
<svg width="20px" height="24px" viewBox="0 0 20 24" version="1.1" xmlns="http://www.w3.org/2000/svg" xmlns:xlink="http://www.w3.org/1999/xlink">
    <!-- Generator: Sketch 3.8.1 (29687) - http://www.bohemiancoding.com/sketch -->
    <title>arrow_left [#245]</title>
    <desc>Created with Sketch.</desc>
    <defs></defs>
    <g id="Page-1" stroke="none" stroke-width="1" fill="none" fill-rule="evenodd">
        <g id="Dribbble-Dark-Preview" transform="translate(-340.000000, -7039.000000)" fill="#FFFFFF">
            <g id="icons" transform="translate(56.000000, 160.000000)">
                <path d="M285.997703,6889.88997 L300.980472,6889.88997 C301.531838,6889.88997 301.979324,6890.33348 301.979324,6890.87996 L301.979324,6895.82995 C301.979324,6896.37643 301.531838,6896.81994 300.980472,6896.81994 L288.202168,6896.81994 C287.757679,6896.81994 287.534935,6896.28634 287.849573,6895.97449 L289.529641,6894.30931 C289.919193,6893.92321 289.919193,6893.29655 289.529641,6892.90946 C289.13909,6892.52336 288.506817,6892.52336 288.116266,6892.90946 L284.585327,6896.41009 C283.805224,6897.18327 283.805224,6898.43661 284.585327,6899.2098 C285.866853,6900.47996 286.815762,6901.42046 288.116266,6902.71043 C288.506817,6903.09652 289.13909,6903.09652 289.529641,6902.71043 C289.919193,6902.32334 289.919193,6901.69667 289.529641,6901.31057 L287.849573,6899.64441 C287.534935,6899.33355 287.757679,6898.79994 288.202168,6898.79994 L301.979324,6898.79994 C303.083054,6898.79994 303.977026,6897.91389 303.977026,6896.81994 L303.977026,6889.88997 L304,6889.88997 C304,6888.79602 303.083054,6887.90997 301.979324,6887.90997 L286.996554,6887.90997 C286.445188,6887.90997 285.997703,6887.46645 285.997703,6886.91998 L285.997703,6881.96999 C285.997703,6881.42351 286.445188,6880.97999 286.996554,6880.97999 L302.978175,6880.97999 C303.529541,6880.97999 303.977026,6880.53648 303.977026,6879.99 L303.977026,6879.99 C303.977026,6879.44352 303.529541,6879 302.978175,6879 L285.997703,6879 C284.893972,6879 284.022974,6879.99 284.022974,6880.97999 L284,6880.97999 L284,6887.90997 L284.022974,6887.90997 C284.022974,6889.00392 284.893972,6889.88997 285.997703,6889.88997" id="arrow_left-[#245]"></path>
            </g>
        </g>
    </g>
</svg>