<?xml version="1.0" encoding="UTF-8" standalone="no"?>
<svg width="20px" height="20px" viewBox="0 0 20 20" version="1.1" xmlns="http://www.w3.org/2000/svg" xmlns:xlink="http://www.w3.org/1999/xlink">
    <!-- Generator: Sketch 3.8.1 (29687) - http://www.bohemiancoding.com/sketch -->
    <title>arrow_in_down [#345]</title>
    <desc>Created with Sketch.</desc>
    <defs></defs>
    <g id="Page-1" stroke="none" stroke-width="1" fill="none" fill-rule="evenodd">
        <g id="Dribbble-Dark-Preview" transform="translate(-340.000000, -6639.000000)" fill="#FFFFFF">
            <g id="icons" transform="translate(56.000000, 160.000000)">
                <path d="M298.274,6485.673 L298.271,6485.669 C297.896,6485.266 297.265,6485.244 296.863,6485.62 L295.842,6486.577 C295.522,6486.876 295,6486.649 295,6486.212 L295,6480 C295,6479.447 294.552,6479 294,6479 C293.448,6479 293,6479.447 293,6480 L293,6486.197 C293,6486.637 292.473,6486.862 292.155,6486.558 L291.181,6485.63 C290.782,6485.248 290.148,6485.266 289.771,6485.669 C289.397,6486.068 289.416,6486.695 289.814,6487.071 L292.662,6489.759 C293.436,6490.49 294.646,6490.487 295.415,6489.753 L298.231,6487.067 C298.624,6486.692 298.643,6486.071 298.274,6485.673 L298.274,6485.673 Z M304,6497.222 C304,6498.2 303.32,6499 301.888,6499 L285.778,6499 C284.796,6499 284,6498.204 284,6497.222 L284,6490.777 C284,6489.847 284.707,6489 285.888,6489 L287.007,6489 C287.555,6489 288,6489.444 288,6489.993 L288,6490.006 C288,6490.555 287.555,6491 287.007,6491 L286.993,6491 C286.445,6491 286,6491.444 286,6491.993 L286,6496.006 C286,6496.555 286.445,6497 286.993,6497 L301.007,6497 C301.555,6497 302,6496.555 302,6496.006 L302,6491.993 C302,6491.444 301.555,6491 301.007,6491 L300.993,6491 C300.445,6491 300,6490.555 300,6490.006 L300,6489.993 C300,6489.444 300.445,6489 300.993,6489 L302.222,6489 C303.204,6489 304,6489.796 304,6490.777 L304,6497.222 Z" id="arrow_in_down-[#345]"></path>
            </g>
        </g>
    </g>
</svg>