<?xml version="1.0" encoding="UTF-8" standalone="no"?>
<svg width="20px" height="20px" viewBox="0 0 20 20" version="1.1" xmlns="http://www.w3.org/2000/svg" xmlns:xlink="http://www.w3.org/1999/xlink">
    <!-- Generator: Sketch 3.8.1 (29687) - http://www.bohemiancoding.com/sketch -->
    <title>arrow_double_circle [#323]</title>
    <desc>Created with Sketch.</desc>
    <defs></defs>
    <g id="Page-1" stroke="none" stroke-width="1" fill="none" fill-rule="evenodd">
        <g id="Dribbble-Dark-Preview" transform="translate(-420.000000, -6719.000000)" fill="#FFFFFF">
            <g id="icons" transform="translate(56.000000, 160.000000)">
                <path d="M380.002,6561.00022 C381.105,6561.00022 382.002,6561.89722 382.002,6563.00022 C382.002,6564.10322 381.105,6565.00022 380.002,6565.00022 C378.899,6565.00022 378.002,6564.10322 378.002,6563.00022 C378.002,6561.89722 378.899,6561.00022 380.002,6561.00022 M378.999,6566.85922 L378.999,6576.00422 L378.577,6575.58022 C378.186,6575.19022 377.554,6575.19022 377.163,6575.58122 L377.164,6575.58122 C376.773,6575.97222 376.774,6576.60522 377.165,6576.99522 L378.592,6578.41722 C379.371,6579.19422 380.632,6579.19422 381.412,6578.41722 L382.838,6576.99622 C383.23,6576.60522 383.23,6575.97222 382.84,6575.58122 C382.449,6575.19022 381.815,6575.19022 381.424,6575.58022 L380.999,6576.00422 L380.999,6566.85922 C382.999,6566.33922 384.412,6564.31622 383.891,6562.05122 C383.56,6560.61222 382.394,6559.44322 380.955,6559.11022 C378.332,6558.50422 376,6560.48022 376,6563.00022 C376,6564.86222 376.999,6566.41322 378.999,6566.85922 M368.001,6561.00022 C369.104,6561.00022 370.001,6561.89722 370.001,6563.00022 C370.001,6564.10322 369.104,6565.00022 368.001,6565.00022 C366.898,6565.00022 366.001,6564.10322 366.001,6563.00022 C366.001,6561.89722 366.898,6561.00022 368.001,6561.00022 M366.999,6566.85922 L366.999,6576.00422 L366.576,6575.58022 C366.186,6575.19022 365.553,6575.19022 365.163,6575.58122 L365.163,6575.58122 C364.772,6575.97222 364.773,6576.60522 365.164,6576.99522 L366.591,6578.41722 C367.37,6579.19422 368.631,6579.19422 369.411,6578.41722 L370.837,6576.99622 C371.229,6576.60522 371.229,6575.97222 370.839,6575.58122 C370.448,6575.19022 369.814,6575.19022 369.424,6575.58022 L368.999,6576.00422 L368.999,6566.85922 C370.999,6566.33922 372.412,6564.31622 371.891,6562.05122 C371.559,6560.61222 370.393,6559.44322 368.954,6559.11022 C366.331,6558.50422 364,6560.48022 364,6563.00022 C364,6564.86222 364.999,6566.41322 366.999,6566.85922" id="arrow_double_circle-[#323]"></path>
            </g>
        </g>
    </g>
</svg>