<?xml version="1.0" encoding="UTF-8" standalone="no"?>
<svg width="20px" height="24px" viewBox="0 0 20 24" version="1.1" xmlns="http://www.w3.org/2000/svg" xmlns:xlink="http://www.w3.org/1999/xlink">
    <!-- Generator: Sketch 3.8.1 (29687) - http://www.bohemiancoding.com/sketch -->
    <title>arrow_right_double [#256]</title>
    <desc>Created with Sketch.</desc>
    <defs></defs>
    <g id="Page-1" stroke="none" stroke-width="1" fill="none" fill-rule="evenodd">
        <g id="Dribbble-Dark-Preview" transform="translate(-300.000000, -6999.000000)" fill="#FFFFFF">
            <g id="icons" transform="translate(56.000000, 160.000000)">
                <path d="M245.974,6839 C244.884,6839 244,6839.87516 244,6840.95425 L244,6856.81994 C244,6857.91389 244.896,6858.79994 246,6858.79994 L252.767,6858.79994 C253.212,6858.79994 253.435,6859.33355 253.12,6859.6454 L251.438,6861.31057 C251.048,6861.69667 251.048,6862.32334 251.438,6862.71043 C251.829,6863.09652 252.462,6863.09652 252.853,6862.71043 C253.233,6862.33423 256.429,6859.25831 256.697,6858.79994 L259.767,6858.79994 C260.212,6858.79994 260.435,6859.33355 260.12,6859.6454 L258.438,6861.31057 C258.048,6861.69667 258.048,6862.32334 258.438,6862.71043 C258.829,6863.09652 259.462,6863.09652 259.853,6862.71043 C259.942,6862.62232 263.426,6859.17218 263.388,6859.2098 C264.169,6858.43661 264.169,6857.18327 263.388,6856.41009 L259.853,6852.90946 C259.462,6852.52336 258.829,6852.52336 258.438,6852.90946 C258.048,6853.29655 258.048,6853.92321 258.438,6854.30931 L260.12,6855.97449 C260.435,6856.28634 260.212,6856.81994 259.767,6856.81994 L256.697,6856.81994 C256.612,6856.67441 256.514,6856.53483 256.388,6856.41009 L252.853,6852.90946 C252.462,6852.52336 251.829,6852.52336 251.438,6852.90946 C251.048,6853.29655 251.048,6853.92321 251.438,6854.30931 L253.12,6855.97449 C253.435,6856.28634 253.212,6856.81994 252.767,6856.81994 L246.974,6856.81994 C246.436,6856.81994 246,6856.38831 246,6855.85668 L246,6841.96999 C246,6841.42351 246.448,6840.97999 247,6840.97999 L261,6840.97999 C261.553,6840.97999 262,6841.42351 262,6841.96999 L262,6847.90997 C262,6848.45645 262.448,6848.89997 263,6848.89997 C263.553,6848.89997 264,6848.45645 264,6847.90997 L264,6840.97999 C264,6839.88605 263.105,6839 262,6839 L245.974,6839 Z" id="arrow_right_double-[#256]"></path>
            </g>
        </g>
    </g>
</svg>