<?xml version="1.0" encoding="UTF-8" standalone="no"?>
<svg width="20px" height="20px" viewBox="0 0 20 20" version="1.1" xmlns="http://www.w3.org/2000/svg" xmlns:xlink="http://www.w3.org/1999/xlink">
    <!-- Generator: Sketch 3.8.1 (29687) - http://www.bohemiancoding.com/sketch -->
    <title>arrow_all [#373]</title>
    <desc>Created with Sketch.</desc>
    <defs></defs>
    <g id="Page-1" stroke="none" stroke-width="1" fill="none" fill-rule="evenodd">
        <g id="Dribbble-Dark-Preview" transform="translate(-420.000000, -6519.000000)" fill="#FFFFFF">
            <g id="icons" transform="translate(56.000000, 160.000000)">
                <path d="M384,6359 L384,6367 L382,6367 L382,6362.414 C376.33,6368.084 377.958,6366.456 375.414,6369 C377.929,6371.515 379.694,6373.28 382,6375.586 L382,6371 L384,6371 L384,6379 L376,6379 L376,6377 L380.586,6377 C378.282,6374.696 376.48,6372.894 374,6370.414 L367.414,6377 L372,6377 L372,6379 L364,6379 L364,6371 L366,6371 L366,6375.586 L372.586,6369 L366,6362.414 L366,6367 L364,6367 L364,6359 L372,6359 L372,6361 L367.414,6361 L374,6367.586 L380.586,6361 L376,6361 L376,6359 L384,6359 Z" id="arrow_all-[#373]"></path>
            </g>
        </g>
    </g>
</svg>