<?xml version="1.0" encoding="UTF-8" standalone="no"?>
<svg width="20px" height="20px" viewBox="0 0 20 20" version="1.1" xmlns="http://www.w3.org/2000/svg" xmlns:xlink="http://www.w3.org/1999/xlink">
    <!-- Generator: Sketch 3.8.1 (29687) - http://www.bohemiancoding.com/sketch -->
    <title>arrow_left_up_circle [#316]</title>
    <desc>Created with Sketch.</desc>
    <defs></defs>
    <g id="Page-1" stroke="none" stroke-width="1" fill="none" fill-rule="evenodd">
        <g id="Dribbble-Dark-Preview" transform="translate(-300.000000, -6759.000000)" fill="#FFFFFF">
            <g id="icons" transform="translate(56.000000, 160.000000)">
                <path d="M258.591,6613.5901 C259.371,6612.81148 260.64,6612.81148 261.419,6613.5901 C262.199,6614.36872 262.199,6615.63547 261.419,6616.41309 C260.64,6617.19171 259.371,6617.19171 258.591,6616.41309 C257.811,6615.63547 257.811,6614.36872 258.591,6613.5901 L258.591,6613.5901 Z M245.98,6604.01011 L245.966,6602.42093 L256.559,6612.99815 C256.167,6614.01934 255.855,6616.5179 257.171,6617.83257 C258.733,6619.3918 261.269,6619.38781 262.831,6617.82858 C264.393,6616.26935 264.387,6613.74682 262.825,6612.18759 C261.509,6610.87292 259.699,6610.4896 257.97,6611.58666 L247.383,6601.00943 L249,6601.00245 L249,6599.002 L244,6599 L244,6599.07487 L244,6604.00312 L245.98,6604.01011 Z" id="arrow_left_up_circle-[#316]"></path>
            </g>
        </g>
    </g>
</svg>