<?xml version="1.0" encoding="UTF-8" standalone="no"?>
<svg width="20px" height="20px" viewBox="0 0 20 20" version="1.1" xmlns="http://www.w3.org/2000/svg" xmlns:xlink="http://www.w3.org/1999/xlink">
    <!-- Generator: Sketch 3.8.1 (29687) - http://www.bohemiancoding.com/sketch -->
    <title>arrow_all [#330]</title>
    <desc>Created with Sketch.</desc>
    <defs></defs>
    <g id="Page-1" stroke="none" stroke-width="1" fill="none" fill-rule="evenodd">
        <g id="Dribbble-Dark-Preview" transform="translate(-140.000000, -6719.000000)" fill="#FFFFFF">
            <g id="icons" transform="translate(56.000000, 160.000000)">
                <path d="M94,6571 C92.897,6571 92,6570.103 92,6569 C92,6567.897 92.897,6567 94,6567 C95.103,6567 96,6567.897 96,6569 C96,6570.103 95.103,6571 94,6571 L94,6571 Z M104,6568.99 L100.464,6565.455 L99.05,6566.869 L100.181,6568 L97.859,6568 C97.496,6567 96.401,6565.504 95,6565.141 L95,6562.819 L96.131,6563.95 L97.545,6562.536 L94.01,6559 L94,6559.01 L93.99,6559 L90.455,6562.536 L91.869,6563.95 L93,6562.819 L93,6565.141 C91.599,6565.504 90.504,6567 90.141,6568 L87.819,6568 L88.95,6566.869 L87.536,6565.455 L84,6568.99 L84.01,6569 L84,6569.01 L87.536,6572.545 L88.95,6571.131 L87.819,6570 L90.141,6570 C90.504,6571 91.599,6572.496 93,6572.859 L93,6575.181 L91.869,6574.05 L90.455,6575.464 L93.99,6579 L94,6578.99 L94.01,6579 L97.545,6575.464 L96.131,6574.05 L95,6575.181 L95,6572.859 C96.401,6572.496 97.496,6571 97.859,6570 L100.181,6570 L99.05,6571.131 L100.464,6572.545 L104,6569.01 L103.99,6569 L104,6568.99 Z" id="arrow_all-[#330]"></path>
            </g>
        </g>
    </g>
</svg>