<?xml version="1.0" encoding="UTF-8" standalone="no"?>
<svg width="20px" height="20px" viewBox="0 0 20 20" version="1.1" xmlns="http://www.w3.org/2000/svg" xmlns:xlink="http://www.w3.org/1999/xlink">
    <!-- Generator: Sketch 3.8.1 (29687) - http://www.bohemiancoding.com/sketch -->
    <title>arrow_all_fill [#383]</title>
    <desc>Created with Sketch.</desc>
    <defs></defs>
    <g id="Page-1" stroke="none" stroke-width="1" fill="none" fill-rule="evenodd">
        <g id="Dribbble-Dark-Preview" transform="translate(-420.000000, -6479.000000)" fill="#FFFFFF">
            <g id="icons" transform="translate(56.000000, 160.000000)">
                <path d="M376,6319 L379.293,6322.293 L376.121,6325.464 L377.536,6326.879 L380.707,6323.707 L384,6327 L384,6319 L376,6319 Z M377.536,6331.121 L376.121,6332.536 L379.293,6335.707 L376,6339 L384,6339 L384,6331 L380.707,6334.293 L377.536,6331.121 Z M371.879,6332.536 L370.464,6331.121 L367.293,6334.293 L364,6331 L364,6339 L372,6339 L368.707,6335.707 L371.879,6332.536 Z M370.464,6326.879 L371.879,6325.464 L368.707,6322.293 L372,6319 L364,6319 L364,6327 L367.293,6323.707 L370.464,6326.879 Z" id="arrow_all_fill-[#383]"></path>
            </g>
        </g>
    </g>
</svg>