<?xml version="1.0" encoding="UTF-8" standalone="no"?>
<svg width="20px" height="20px" viewBox="0 0 20 20" version="1.1" xmlns="http://www.w3.org/2000/svg" xmlns:xlink="http://www.w3.org/1999/xlink">
    <!-- Generator: Sketch 3.8.1 (29687) - http://www.bohemiancoding.com/sketch -->
    <title>arrow_up_circle [#322]</title>
    <desc>Created with Sketch.</desc>
    <defs></defs>
    <g id="Page-1" stroke="none" stroke-width="1" fill="none" fill-rule="evenodd">
        <g id="Dribbble-Dark-Preview" transform="translate(-60.000000, -6759.000000)" fill="#FFFFFF">
            <g id="icons" transform="translate(56.000000, 160.000000)">
                <path d="M7.9988664,6616.99975 C6.8958664,6616.99975 5.9988664,6616.10275 5.9988664,6614.99975 C5.9988664,6613.89675 6.8958664,6612.99975 7.9988664,6612.99975 C9.1018664,6612.99975 9.9988664,6613.89675 9.9988664,6614.99975 C9.9988664,6616.10275 9.1018664,6616.99975 7.9988664,6616.99975 M8.9998664,6611.14075 L8.9998664,6601.99575 L9.4228664,6602.41975 C9.8138664,6602.80975 10.4468664,6602.80975 10.8368664,6602.41875 L10.8368664,6602.41875 C11.2278664,6602.02775 11.2268664,6601.39475 10.8348664,6601.00475 L9.4088664,6599.58275 C8.6298664,6598.80575 7.3688664,6598.80575 6.5888664,6599.58275 L5.1628664,6601.00375 C4.7708664,6601.39475 4.7708664,6602.02775 5.1608664,6602.41875 C5.5518664,6602.80975 6.1848664,6602.80975 6.5758664,6602.41975 L6.9998664,6601.99575 L6.9998664,6611.14075 C4.9998664,6611.66075 3.5878664,6613.68375 4.1088664,6615.94875 C4.4398664,6617.38775 5.6068664,6618.55675 7.0458664,6618.88975 C9.6688664,6619.49575 11.9998664,6617.51975 11.9998664,6614.99975 C11.9998664,6613.13775 10.9998664,6611.58675 8.9998664,6611.14075 M19.9998664,6616.99975 C18.8968664,6616.99975 17.9998664,6616.10275 17.9998664,6614.99975 C17.9998664,6613.89675 18.8968664,6612.99975 19.9998664,6612.99975 C21.1028664,6612.99975 21.9998664,6613.89675 21.9998664,6614.99975 C21.9998664,6616.10275 21.1028664,6616.99975 19.9998664,6616.99975 M20.9998664,6611.14075 L20.9998664,6601.99575 L21.4238664,6602.41975 C21.8138664,6602.80975 22.4478664,6602.80975 22.8378664,6602.41875 L22.8378664,6602.41875 C23.2278664,6602.02775 23.2278664,6601.39475 22.8358664,6601.00475 L21.4098664,6599.58275 C20.6308664,6598.80575 19.3688664,6598.80575 18.5898664,6599.58275 L17.1638664,6601.00375 C16.7718664,6601.39475 16.7718664,6602.02775 17.1618664,6602.41875 C17.5528664,6602.80975 18.1858664,6602.80975 18.5758664,6602.41975 L18.9998664,6601.99575 L18.9998664,6611.14075 C16.9998664,6611.66075 15.5878664,6613.68375 16.1088664,6615.94875 C16.4408664,6617.38775 17.6078664,6618.55675 19.0458664,6618.88975 C21.6698664,6619.49575 23.9998664,6617.51975 23.9998664,6614.99975 C23.9998664,6613.13775 22.9998664,6611.58675 20.9998664,6611.14075" id="arrow_up_circle-[#322]"></path>
            </g>
        </g>
    </g>
</svg>