<?xml version="1.0" encoding="UTF-8" standalone="no"?>
<svg width="20px" height="20px" viewBox="0 0 20 20" version="1.1" xmlns="http://www.w3.org/2000/svg" xmlns:xlink="http://www.w3.org/1999/xlink">
    <!-- Generator: Sketch 3.8.1 (29687) - http://www.bohemiancoding.com/sketch -->
    <title>arrow_right_double [#252]</title>
    <desc>Created with Sketch.</desc>
    <defs></defs>
    <g id="Page-1" stroke="none" stroke-width="1" fill="none" fill-rule="evenodd">
        <g id="Dribbble-Dark-Preview" transform="translate(-60.000000, -7039.000000)" fill="#FFFFFF">
            <g id="icons" transform="translate(56.000000, 160.000000)">
                <path d="M19.8855192,6893.05 C19.4943587,6892.659 18.8610988,6892.659 18.4709387,6893.05 C18.0797782,6893.441 18.0797782,6894.074 18.4709387,6894.464 L20.1536292,6896.146 C20.4687586,6896.461 20.245667,6897 19.7994839,6897 L14.0041056,6897 C9.58429172,6897 6.00082111,6893.418 6.00082111,6889 C6.00082111,6884.581 9.58429172,6881 14.0041056,6881 L19.7994839,6881 C20.245667,6881 20.4687586,6881.538 20.1536292,6881.853 L18.4709387,6883.535 C18.0797782,6883.926 18.0797782,6884.559 18.4709387,6884.949 C18.8610988,6885.34 19.4943587,6885.34 19.8855192,6884.949 L23.4229709,6881.414 C24.2042916,6880.633 24.0672353,6879.388 23.7401011,6879 L14.0041056,6879 C8.47983847,6879 4,6883.477 4,6889 C4,6894.523 8.47983847,6899 14.0041056,6899 L23.7401011,6899 C24.0672353,6898.611 24.2042916,6897.367 23.4229709,6896.586 L19.8855192,6893.05 Z" id="arrow_right_double-[#252]"></path>
            </g>
        </g>
    </g>
</svg>