<?xml version="1.0" encoding="UTF-8" standalone="no"?>
<svg width="20px" height="20px" viewBox="0 0 20 20" version="1.1" xmlns="http://www.w3.org/2000/svg" xmlns:xlink="http://www.w3.org/1999/xlink">
    <!-- Generator: Sketch 3.8.1 (29687) - http://www.bohemiancoding.com/sketch -->
    <title>arrow_circle [#313]</title>
    <desc>Created with Sketch.</desc>
    <defs></defs>
    <g id="Page-1" stroke="none" stroke-width="1" fill="none" fill-rule="evenodd">
        <g id="Dribbble-Dark-Preview" transform="translate(-420.000000, -6759.000000)" fill="#FFFFFF">
            <g id="icons" transform="translate(56.000000, 160.000000)">
                <path d="M369.414524,6604.42364 C368.635887,6605.20366 367.369104,6605.20366 366.591465,6604.42364 C365.812827,6603.64362 365.812827,6602.37459 366.591465,6601.59557 C367.369104,6600.81555 368.635887,6600.81555 369.414524,6601.59557 C370.193162,6602.37459 370.193162,6603.64362 369.414524,6604.42364 L369.414524,6604.42364 Z M378.590466,6601.58057 C379.368105,6600.80055 380.634888,6600.80055 381.413525,6601.58057 C382.192163,6602.35959 382.192163,6603.62862 381.413525,6604.40864 C380.634888,6605.18866 379.368105,6605.18866 378.590466,6604.40864 C377.811829,6603.62862 377.811829,6602.35959 378.590466,6601.58057 L378.590466,6601.58057 Z M382.018467,6615.61292 L375.430995,6609.01275 L377.998502,6606.44169 C379.018716,6606.8327 381.518342,6607.14471 382.832043,6605.82867 C384.391314,6604.26663 384.388319,6601.73057 382.829048,6600.16853 C381.269777,6598.60649 378.746193,6598.61249 377.186922,6600.17453 C375.873221,6601.49057 375.489892,6603.30061 376.585974,6605.02965 L374.021462,6607.59972 L371.442974,6605.01665 C371.83429,6603.99363 372.145745,6601.49057 370.832044,6600.17353 C369.272772,6598.61149 366.741203,6598.61549 365.181932,6600.17753 C363.62266,6601.73957 363.62865,6604.26663 365.187921,6605.82867 C366.501622,6607.14571 368.30846,6607.52972 370.034439,6606.43069 L372.61093,6609.01175 L366.008485,6615.62592 L366.001497,6614.01988 L364.001997,6614.00888 L364,6619 L364.073871,6619 L369.003244,6619 L369.010232,6617.02095 L367.420015,6617.03395 L374.020464,6610.40979 L380.611928,6616.99995 L379.008734,6616.99995 L378.998751,6619 L383.96506,6619 L383.96506,6618.965 L383.96506,6614.02788 L381.996505,6614.02088 L382.018467,6615.61292 Z" id="arrow_circle-[#313]"></path>
            </g>
        </g>
    </g>
</svg>