<?xml version="1.0" encoding="UTF-8" standalone="no"?>
<svg width="20px" height="20px" viewBox="0 0 20 20" version="1.1" xmlns="http://www.w3.org/2000/svg" xmlns:xlink="http://www.w3.org/1999/xlink">
    <!-- Generator: Sketch 3.8.1 (29687) - http://www.bohemiancoding.com/sketch -->
    <title>arrow_right_corner [#281]</title>
    <desc>Created with Sketch.</desc>
    <defs></defs>
    <g id="Page-1" stroke="none" stroke-width="1" fill="none" fill-rule="evenodd">
        <g id="Dribbble-Dark-Preview" transform="translate(-100.000000, -6919.000000)" fill="#FFFFFF">
            <g id="icons" transform="translate(56.000000, 160.000000)">
                <path d="M52,6764 C52,6763.448 52.448,6763 53,6763 L58,6763 C59.105,6763 60,6763.895 60,6765 L60,6770 C60,6770.552 59.552,6771 59,6771 C58.448,6771 58,6770.552 58,6770 L58,6767.621 C58,6767.176 57.461,6766.953 57.146,6767.268 L54.121,6770.293 C53.731,6770.683 53.098,6770.683 52.707,6770.293 C52.317,6769.902 52.317,6769.269 52.707,6768.879 L55.732,6765.854 C56.047,6765.539 55.824,6765 55.379,6765 L53,6765 C52.448,6765 52,6764.552 52,6764 L52,6764 Z M46,6762 C46,6761.448 46.448,6761 47,6761 L61,6761 C61.552,6761 62,6761.448 62,6762 L62,6776 C62,6776.552 61.552,6777 61,6777 L53,6777 C52.448,6777 52,6776.552 52,6776 L52,6773 C52,6771.895 51.105,6771 50,6771 L47,6771 C46.448,6771 46,6770.552 46,6770 L46,6762 Z M64,6761 C64,6759.895 63.105,6759 62,6759 L46,6759 C44.895,6759 44,6759.895 44,6761 L44,6777 C44,6778.105 44.895,6779 46,6779 L62,6779 C63.105,6779 64,6778.105 64,6777 L64,6761 Z" id="arrow_right_corner-[#281]"></path>
            </g>
        </g>
    </g>
</svg>