<?xml version="1.0" encoding="UTF-8" standalone="no"?>
<svg width="20px" height="20px" viewBox="0 0 20 20" version="1.1" xmlns="http://www.w3.org/2000/svg" xmlns:xlink="http://www.w3.org/1999/xlink">
    <!-- Generator: Sketch 3.8.1 (29687) - http://www.bohemiancoding.com/sketch -->
    <title>arrow_right [#270]</title>
    <desc>Created with Sketch.</desc>
    <defs></defs>
    <g id="Page-1" stroke="none" stroke-width="1" fill="none" fill-rule="evenodd">
        <g id="Dribbble-Dark-Preview" transform="translate(-140.000000, -6959.000000)" fill="#FFFFFF">
            <g id="icons" transform="translate(56.000000, 160.000000)">
                <path d="M101.982651,6816 C101.982651,6816.552 101.530765,6817 100.973976,6817 L98.956627,6817 C98.3998386,6817 97.9479524,6816.552 97.9479524,6816 L97.9479524,6802 C97.9479524,6801.448 98.3998386,6801 98.956627,6801 L100.973976,6801 C101.530765,6801 101.982651,6801.448 101.982651,6802 L101.982651,6816 Z M101.982651,6799 L97.9479524,6799 C96.833367,6799 95.9306032,6799.895 95.9306032,6801 L95.9306032,6817 C95.9306032,6818.105 96.833367,6819 97.9479524,6819 L101.982651,6819 C103.097236,6819 104,6818.105 104,6817 L104,6801 C104,6799.895 103.097236,6799 101.982651,6799 L101.982651,6799 Z M84.9743797,6810 L89.9844664,6810 C90.4181965,6810 90.6360702,6810.369 90.3284245,6810.669 L88.6873109,6812.201 C88.3070405,6812.574 88.3070405,6813.142 88.6883195,6813.514 C89.0685899,6813.886 89.6858987,6813.868 90.0661691,6813.496 L93.5158362,6810.114 C94.2763768,6809.369 94.2763768,6808.158 93.5158362,6807.414 C92.9761953,6806.882 90.608836,6804.567 90.0671777,6804.038 C89.6858987,6803.665 89.0685899,6803.664 88.6873109,6804.037 C88.3070405,6804.41 88.3070405,6805.013 88.6873109,6805.386 L90.3274158,6807.088 C90.6340529,6807.388 90.4161791,6808 89.9824491,6808 L84.9743797,6808 C84.4367561,6808 84,6808.473 84,6809 C84,6809.527 84.4367561,6810 84.9743797,6810 L84.9743797,6810 Z" id="arrow_right-[#270]"></path>
            </g>
        </g>
    </g>
</svg>