<?xml version="1.0" encoding="UTF-8" standalone="no"?>
<svg width="20px" height="15px" viewBox="0 0 20 15" version="1.1" xmlns="http://www.w3.org/2000/svg" xmlns:xlink="http://www.w3.org/1999/xlink">
    <!-- Generator: Sketch 3.8.1 (29687) - http://www.bohemiancoding.com/sketch -->
    <title>arrow_left_up [#295]</title>
    <desc>Created with Sketch.</desc>
    <defs></defs>
    <g id="Page-1" stroke="none" stroke-width="1" fill="none" fill-rule="evenodd">
        <g id="Dribbble-Dark-Preview" transform="translate(-340.000000, -6841.000000)" fill="#FFFFFF">
            <g id="icons" transform="translate(56.000000, 160.000000)">
                <path d="M292.233,6690.714 L286.854,6685.335 C286.539,6685.02 286,6685.243 286,6685.688 L286,6688 C286,6688.552 285.552,6689 285,6689 C284.448,6689 284,6688.552 284,6688 L284,6683 C284,6681.895 284.896,6681 286,6681 L291,6681 C291.552,6681 292,6681.448 292,6682 C292,6682.552 291.552,6683 291,6683 L288.555,6683 C288.109,6683 287.886,6683.539 288.201,6683.854 L292.939,6688.591 C293.329,6688.982 293.962,6688.982 294.353,6688.591 L294.765,6688.179 C295.546,6687.398 296.812,6687.398 297.594,6688.179 L303.707,6694.293 C304.098,6694.683 304.098,6695.317 303.707,6695.707 L303.707,6695.707 C303.317,6696.098 302.684,6696.098 302.293,6695.707 L296.887,6690.301 C296.496,6689.91 295.863,6689.911 295.472,6690.302 L295.063,6690.712 C294.282,6691.495 293.015,6691.496 292.233,6690.714" id="arrow_left_up-[#295]"></path>
            </g>
        </g>
    </g>
</svg>