<?xml version="1.0" encoding="UTF-8" standalone="no"?>
<svg width="20px" height="20px" viewBox="0 0 20 20" version="1.1" xmlns="http://www.w3.org/2000/svg" xmlns:xlink="http://www.w3.org/1999/xlink">
    <!-- Generator: Sketch 3.8.1 (29687) - http://www.bohemiancoding.com/sketch -->
    <title>arrow_down [#360]</title>
    <desc>Created with Sketch.</desc>
    <defs></defs>
    <g id="Page-1" stroke="none" stroke-width="1" fill="none" fill-rule="evenodd">
        <g id="Dribbble-Dark-Preview" transform="translate(-140.000000, -6599.000000)" fill="#FFFFFF">
            <g id="icons" transform="translate(56.000000, 160.000000)">
                <path d="M103.707257,6450.11258 C104.097581,6449.72125 104.097581,6449.0877 103.707257,6448.69736 C103.316933,6448.30603 102.685027,6448.30603 102.295701,6448.69736 L95.8578462,6455.14292 C95.5433906,6455.4582 94.9983342,6455.235 94.9983342,6454.78962 L94.9983342,6439.98385 C94.9983342,6439.43137 94.5590946,6439 94.0080486,6439 L94.0040555,6439 C93.4530095,6439 93.0017907,6439.43137 93.0017907,6439.98385 L93.0017907,6454.78962 C93.0017907,6455.235 92.4717084,6455.4582 92.1572528,6455.14292 L85.7004312,6448.66634 C85.3111053,6448.275 84.6811958,6448.275 84.2908715,6448.66634 L84.2918698,6448.66634 C83.9025438,6449.05667 83.9025438,6449.69022 84.2928681,6450.08156 L92.6034803,6458.41374 L92.6034803,6458.41374 C93.3831305,6459.19542 94.6479408,6459.19542 95.427591,6458.41374 C95.6072799,6458.23259 103.887944,6449.93143 103.707257,6450.11258" id="arrow_down-[#360]"></path>
            </g>
        </g>
    </g>
</svg>