<?xml version="1.0" encoding="UTF-8" standalone="no"?>
<svg width="8px" height="20px" viewBox="0 0 8 20" version="1.1" xmlns="http://www.w3.org/2000/svg" xmlns:xlink="http://www.w3.org/1999/xlink">
    <!-- Generator: Sketch 3.8.1 (29687) - http://www.bohemiancoding.com/sketch -->
    <title>arrow_up_circle [#300]</title>
    <desc>Created with Sketch.</desc>
    <defs></defs>
    <g id="Page-1" stroke="none" stroke-width="1" fill="none" fill-rule="evenodd">
        <g id="Dribbble-Dark-Preview" transform="translate(-146.000000, -6839.000000)" fill="#FFFFFF">
            <g id="icons" transform="translate(56.000000, 160.000000)">
                <path d="M94,6697 C92.897,6697 92,6696.103 92,6695 C92,6693.897 92.897,6693 94,6693 C95.103,6693 96,6693.897 96,6695 C96,6696.103 95.103,6697 94,6697 M95,6691.141 L95,6682.819 L96.131,6683.95 L97.545,6682.536 L94.01,6679 L94,6679.01 L93.99,6679 L90.455,6682.536 L91.869,6683.95 L93,6682.819 L93,6691.141 C91,6691.587 90,6693.138 90,6695 C90,6697.209 91.791,6699 94,6699 C96.209,6699 98,6697.209 98,6695 C98,6693.138 97,6691.587 95,6691.141" id="arrow_up_circle-[#300]"></path>
            </g>
        </g>
    </g>
</svg>