<?xml version="1.0" encoding="UTF-8" standalone="no"?>
<svg width="20px" height="20px" viewBox="0 0 20 20" version="1.1" xmlns="http://www.w3.org/2000/svg" xmlns:xlink="http://www.w3.org/1999/xlink">
    <!-- Generator: Sketch 3.8.1 (29687) - http://www.bohemiancoding.com/sketch -->
    <title>arrow_left [#271]</title>
    <desc>Created with Sketch.</desc>
    <defs></defs>
    <g id="Page-1" stroke="none" stroke-width="1" fill="none" fill-rule="evenodd">
        <g id="Dribbble-Dark-Preview" transform="translate(-100.000000, -6959.000000)" fill="#FFFFFF">
            <g id="icons" transform="translate(56.000000, 160.000000)">
                <path d="M61.9826762,6816 C61.9826762,6816.552 61.5307957,6817 60.9740143,6817 L58.9566906,6817 C58.3999092,6817 57.9480287,6816.552 57.9480287,6816 L57.9480287,6802 C57.9480287,6801.448 58.3999092,6801 58.9566906,6801 L60.9740143,6801 C61.5307957,6801 61.9826762,6801.448 61.9826762,6802 L61.9826762,6816 Z M61.9826762,6799 L57.9480287,6799 C56.8334573,6799 55.9307049,6799.895 55.9307049,6801 L55.9307049,6817 C55.9307049,6818.105 56.8334573,6819 57.9480287,6819 L61.9826762,6819 C63.0972476,6819 64,6818.105 64,6817 L64,6801 C64,6799.895 63.0972476,6799 61.9826762,6799 L61.9826762,6799 Z M53.111495,6808 L48.10248,6808 C47.6677468,6808 47.4498758,6807.388 47.7575177,6807.088 L49.3986106,6805.434 C49.7788761,6805.062 49.7788761,6804.433 49.3986106,6804.061 C49.0173364,6803.689 48.4000353,6803.676 48.0197698,6804.049 L44.5711548,6807.416 C43.8096151,6808.16 43.8096151,6809.364 44.5711548,6810.108 C45.1097802,6810.633 47.479127,6812.95 48.0187611,6813.478 C48.4000353,6813.851 49.0173364,6813.851 49.3986106,6813.478 C49.7798848,6813.105 49.7798848,6812.501 49.3986106,6812.129 L47.759535,6810.67 C47.4518931,6810.369 47.6697641,6810 48.1044974,6810 L53.111495,6810 C53.6501204,6810 54.086871,6809.527 54.086871,6809 C54.086871,6808.473 53.6501204,6808 53.111495,6808 L53.111495,6808 Z" id="arrow_left-[#271]"></path>
            </g>
        </g>
    </g>
</svg>