<?xml version="1.0" encoding="UTF-8" standalone="no"?>
<svg width="20px" height="28px" viewBox="0 0 20 28" version="1.1" xmlns="http://www.w3.org/2000/svg" xmlns:xlink="http://www.w3.org/1999/xlink">
    <!-- Generator: Sketch 3.8.1 (29687) - http://www.bohemiancoding.com/sketch -->
    <title>arrow_right_double [#247]</title>
    <desc>Created with Sketch.</desc>
    <defs></defs>
    <g id="Page-1" stroke="none" stroke-width="1" fill="none" fill-rule="evenodd">
        <g id="Dribbble-Dark-Preview" transform="translate(-260.000000, -7035.000000)" fill="#FFFFFF">
            <g id="icons" transform="translate(56.000000, 160.000000)">
                <path d="M206,6889.74533 L221,6889.74533 C221.552,6889.74533 222,6890.42358 222,6890.96716 L222,6895.88198 C222,6896.42458 221.552,6896.62609 221,6896.62609 L208.207,6896.62609 C207.762,6896.62609 207.539,6896.21619 207.854,6895.90656 L209.536,6894.31219 C209.926,6893.92883 209.926,6893.3361 209.536,6892.95275 C209.145,6892.56841 208.512,6892.58315 208.121,6892.96749 L204.586,6896.45014 C203.805,6897.21783 203.805,6898.4662 204.586,6899.23389 C204.586,6899.23389 204.506,6899.15722 208.121,6902.71162 C208.512,6903.09596 209.145,6903.09596 209.536,6902.71261 C209.926,6902.32827 209.926,6901.70605 209.536,6901.32269 L207.854,6899.55041 C207.539,6899.24077 207.762,6898.59202 208.207,6898.59202 L222,6898.59202 C223.105,6898.59202 224,6897.95014 224,6896.86495 L224,6889.98419 C224,6888.89802 223.105,6887.7794 222,6887.7794 L207,6887.7794 C206.448,6887.7794 206,6887.5779 206,6887.0353 L206,6882.12047 C206,6881.5769 206.448,6880.89865 207,6880.89865 L219.793,6880.89865 C220.238,6880.89865 220.461,6881.54741 220.146,6881.85704 L218.464,6883.56936 C218.074,6883.9537 218.074,6884.60639 218.464,6884.98975 C218.855,6885.37409 219.488,6885.38883 219.879,6885.00449 L223.414,6881.53659 C224.195,6880.7689 224.195,6879.5284 223.414,6878.7607 C223.414,6878.7607 223.492,6878.83836 219.879,6875.28789 C219.488,6874.90355 218.855,6874.90453 218.464,6875.28789 C218.074,6875.67223 218.074,6876.29444 218.464,6876.67878 L220.146,6878.21319 C220.461,6878.52282 220.238,6878.93272 219.793,6878.93272 L206,6878.93272 C204.895,6878.93272 204,6880.05133 204,6881.13751 L204,6888.01826 C204,6889.10346 204.895,6889.74533 206,6889.74533" id="arrow_right_double-[#247]"></path>
            </g>
        </g>
    </g>
</svg>