<?xml version="1.0" encoding="UTF-8" standalone="no"?>
<svg width="20px" height="20px" viewBox="0 0 20 20" version="1.1" xmlns="http://www.w3.org/2000/svg" xmlns:xlink="http://www.w3.org/1999/xlink">
    <!-- Generator: Sketch 3.8.1 (29687) - http://www.bohemiancoding.com/sketch -->
    <title>arrow_up [#267]</title>
    <desc>Created with Sketch.</desc>
    <defs></defs>
    <g id="Page-1" stroke="none" stroke-width="1" fill="none" fill-rule="evenodd">
        <g id="Dribbble-Dark-Preview" transform="translate(-260.000000, -6959.000000)" fill="#FFFFFF">
            <g id="icons" transform="translate(56.000000, 160.000000)">
                <path d="M222,6816 C222,6816.552 221.552,6817 221,6817 L207,6817 C206.448,6817 206,6816.552 206,6816 L206,6814 C206,6813.448 206.448,6813 207,6813 L221,6813 C221.552,6813 222,6813.448 222,6814 L222,6816 Z M204,6813 L204,6817 C204,6818.105 204.895,6819 206,6819 L222,6819 C223.105,6819 224,6818.105 224,6817 L224,6813 C224,6811.895 223.105,6811 222,6811 L215,6811 L215,6803.207 C215,6802.761 215.539,6802.538 215.853,6802.853 L217.536,6804.536 C217.926,6804.927 218.56,6804.927 218.95,6804.536 C219.34,6804.146 219.34,6803.513 218.95,6803.122 L215.413,6799.585 C214.632,6798.805 213.367,6798.805 212.587,6799.585 C212.409,6799.763 212.846,6799.326 209.05,6803.122 C208.66,6803.512 208.66,6804.146 209.05,6804.536 C209.441,6804.927 210.074,6804.927 210.465,6804.536 L212.146,6802.855 C212.461,6802.54 213,6802.763 213,6803.209 L213,6811 L206,6811 C204.895,6811 204,6811.895 204,6813 L204,6813 Z" id="arrow_up-[#267]"></path>
            </g>
        </g>
    </g>
</svg>