<?xml version="1.0" encoding="UTF-8" standalone="no"?>
<svg width="20px" height="20px" viewBox="0 0 20 20" version="1.1" xmlns="http://www.w3.org/2000/svg" xmlns:xlink="http://www.w3.org/1999/xlink">
    <!-- Generator: Sketch 3.8.1 (29687) - http://www.bohemiancoding.com/sketch -->
    <title>arrow_right_up_circle [#315]</title>
    <desc>Created with Sketch.</desc>
    <defs></defs>
    <g id="Page-1" stroke="none" stroke-width="1" fill="none" fill-rule="evenodd">
        <g id="Dribbble-Dark-Preview" transform="translate(-340.000000, -6759.000000)" fill="#FFFFFF">
            <g id="icons" transform="translate(56.000000, 160.000000)">
                <path d="M289.409899,6613.59713 C290.188517,6614.37639 290.188517,6615.64419 289.409899,6616.42245 C288.631281,6617.20171 287.36453,6617.20171 286.58691,6616.42245 C285.808292,6615.64419 285.808292,6614.37639 286.58691,6613.59713 C287.36453,6612.81787 288.631281,6612.81787 289.409899,6613.59713 L289.409899,6613.59713 Z M298.989893,6600.98811 L300.579072,6600.97912 L290.001848,6611.56406 C288.980661,6611.17343 286.482096,6610.86273 285.16743,6612.17748 C283.608197,6613.738 283.61219,6616.27159 285.171423,6617.83211 C286.730655,6619.39262 289.253177,6619.38763 290.812409,6617.82711 C292.127076,6616.51136 292.510395,6614.70408 291.413343,6612.97672 L301.990567,6602.38978 L301.997555,6603.99525 L303.998004,6603.99525 L304,6599 L303.925133,6599 L298.996881,6599 L298.989893,6600.98811 Z" id="arrow_right_up_circle-[#315]"></path>
            </g>
        </g>
    </g>
</svg>