<?xml version="1.0" encoding="UTF-8" standalone="no"?>
<svg width="20px" height="24px" viewBox="0 0 20 24" version="1.1" xmlns="http://www.w3.org/2000/svg" xmlns:xlink="http://www.w3.org/1999/xlink">
    <!-- Generator: Sketch 3.8.1 (29687) - http://www.bohemiancoding.com/sketch -->
    <title>arrow_left [#246]</title>
    <desc>Created with Sketch.</desc>
    <defs></defs>
    <g id="Page-1" stroke="none" stroke-width="1" fill="none" fill-rule="evenodd">
        <g id="Dribbble-Dark-Preview" transform="translate(-300.000000, -7039.000000)" fill="#FFFFFF">
            <g id="icons" transform="translate(56.000000, 160.000000)">
                <path d="M244,6884.44498 L244,6884.44498 C244,6887.45259 246.462,6889.88997 249.5,6889.88997 L258.5,6889.88997 C260.433,6889.88997 262,6891.44129 262,6893.35496 L262,6893.35496 C262,6895.26862 260.433,6896.81994 258.5,6896.81994 L248.207,6896.81994 C247.762,6896.81994 247.539,6896.28634 247.854,6895.97449 L249.536,6894.30931 C249.926,6893.92321 249.926,6893.29655 249.536,6892.90946 C249.145,6892.52336 248.512,6892.52336 248.121,6892.90946 L244.586,6896.41009 C243.805,6897.18327 243.805,6898.43661 244.586,6899.2098 L248.121,6902.71043 C248.512,6903.09652 249.145,6903.09652 249.536,6902.71043 C249.926,6902.32334 249.926,6901.69667 249.536,6901.31057 L247.854,6899.6454 C247.539,6899.33355 247.762,6898.79994 248.207,6898.79994 L258.5,6898.79994 C261.538,6898.79994 264,6896.36257 264,6893.35496 L264,6893.35496 C264,6890.34734 261.538,6887.90997 258.5,6887.90997 L249.5,6887.90997 C247.567,6887.90997 246,6886.35865 246,6884.44498 L246,6884.44498 C246,6882.53132 247.567,6880.97999 249.5,6880.97999 L263,6880.97999 C263.552,6880.97999 264,6880.53648 264,6879.99 L264,6879.99 C264,6879.44352 263.552,6879 263,6879 L249.5,6879 C246.462,6879 244,6881.43737 244,6884.44498" id="arrow_left-[#246]"></path>
            </g>
        </g>
    </g>
</svg>