<?xml version="1.0" encoding="UTF-8" standalone="no"?>
<svg width="18px" height="20px" viewBox="0 0 18 20" version="1.1" xmlns="http://www.w3.org/2000/svg" xmlns:xlink="http://www.w3.org/1999/xlink">
    <!-- Generator: Sketch 3.8.1 (29687) - http://www.bohemiancoding.com/sketch -->
    <title>at_sign [#27]</title>
    <desc>Created with Sketch.</desc>
    <defs></defs>
    <g id="Page-1" stroke="none" stroke-width="1" fill="none" fill-rule="evenodd">
        <g id="Dribbble-Dark-Preview" transform="translate(-101.000000, -8079.000000)" fill="#FFFFFF">
            <g id="icons" transform="translate(56.000000, 160.000000)">
                <path d="M57,7933 L54,7933 C52.343,7933 51,7931.657 51,7930 L51,7928 C51,7926.343 52.343,7925 54,7925 C55.657,7925 57,7926.343 57,7928 L57,7933 Z M54,7923 C51.239,7923 49,7925.239 49,7928 L49,7930 C49,7932.761 51.239,7935 54,7935 L59,7935 C61.209,7935 63,7933.209 63,7931 L63,7928 C63,7923.029 58.971,7919 54,7919 C49.029,7919 45,7923.029 45,7928 L45,7930 C45,7934.971 49.029,7939 54,7939 L62,7939 C62.552,7939 63,7938.552 63,7938 C63,7937.448 62.552,7937 62,7937 L54,7937 C50.134,7937 47,7933.866 47,7930 L47,7928 C47,7924.134 50.134,7921 54,7921 C57.866,7921 61,7924.134 61,7928 L61,7931 C61,7932.105 60.104,7933 59,7933 L59,7928 C59,7925.239 56.761,7923 54,7923 L54,7923 Z" id="at_sign-[#27]"></path>
            </g>
        </g>
    </g>
</svg>