<?xml version="1.0" encoding="UTF-8" standalone="no"?>
<svg width="18px" height="20px" viewBox="0 0 18 20" version="1.1" xmlns="http://www.w3.org/2000/svg" xmlns:xlink="http://www.w3.org/1999/xlink">
    <!-- Generator: Sketch 3.8.1 (29687) - http://www.bohemiancoding.com/sketch -->
    <title>at_sign [#26]</title>
    <desc>Created with Sketch.</desc>
    <defs></defs>
    <g id="Page-1" stroke="none" stroke-width="1" fill="none" fill-rule="evenodd">
        <g id="Dribbble-Dark-Preview" transform="translate(-141.000000, -8079.000000)" fill="#FFFFFF">
            <g id="icons" transform="translate(56.000000, 160.000000)">
                <path d="M97,7933 L92,7933 C91.448,7933 91,7932.552 91,7932 L91,7926 C91,7925.448 91.448,7925 92,7925 L96,7925 C96.552,7925 97,7925.448 97,7926 L97,7933 Z M97,7923 L91,7923 C89.896,7923 89,7923.895 89,7925 L89,7933 C89,7934.105 89.896,7935 91,7935 L101,7935 C102.104,7935 103,7934.105 103,7933 L103,7921 C103,7919.895 102.104,7919 101,7919 L87,7919 C85.896,7919 85,7919.895 85,7921 L85,7937 C85,7938.105 85.896,7939 87,7939 L102,7939 C102.552,7939 103,7938.552 103,7938 C103,7937.448 102.552,7937 102,7937 L88,7937 C87.448,7937 87,7936.552 87,7936 L87,7922 C87,7921.448 87.448,7921 88,7921 L100,7921 C100.552,7921 101,7921.448 101,7922 L101,7932 C101,7932.552 100.552,7933 100,7933 L99,7933 L99,7925 C99,7923.895 98.104,7923 97,7923 L97,7923 Z" id="at_sign-[#26]"></path>
            </g>
        </g>
    </g>
</svg>