<?xml version="1.0" encoding="UTF-8" standalone="no"?>
<svg width="20px" height="20px" viewBox="0 0 20 20" version="1.1" xmlns="http://www.w3.org/2000/svg" xmlns:xlink="http://www.w3.org/1999/xlink">
    <!-- Generator: Sketch 3.8.1 (29687) - http://www.bohemiancoding.com/sketch -->
    <title>atom [#1298]</title>
    <desc>Created with Sketch.</desc>
    <defs></defs>
    <g id="Page-1" stroke="none" stroke-width="1" fill="none" fill-rule="evenodd">
        <g id="Dribbble-Dark-Preview" transform="translate(-220.000000, -2399.000000)" fill="#FFFFFF">
            <g id="icons" transform="translate(56.000000, 160.000000)">
                <path d="M180.407706,2250.77619 C178.984549,2252.60108 177.496521,2254.0618 175.773962,2255.40378 C177.201111,2256.22793 180.549423,2257.72157 181.634256,2256.63701 C182.374777,2255.89667 182.034457,2253.58088 180.407706,2250.77619 M174.001503,2254.25137 C175.983544,2252.80163 177.797919,2250.98771 179.247025,2249.00617 C177.803907,2247.03161 175.99053,2245.21569 174.001503,2243.76096 C172.00549,2245.21968 170.195106,2247.03759 168.754982,2249.00617 C170.204088,2250.98871 172.019462,2252.80163 174.001503,2254.25137 M172.228045,2255.40378 C170.501494,2254.05781 169.013466,2252.59709 167.594301,2250.77619 C165.96755,2253.58088 165.62723,2255.89667 166.367751,2256.63701 C167.442604,2257.71059 170.761973,2256.25187 172.228045,2255.40378 M167.594301,2247.23615 C169.01646,2245.41125 170.504488,2243.95153 172.228045,2242.60855 C170.802892,2241.78441 167.453582,2240.28977 166.367751,2241.37533 C165.62723,2242.11566 165.96755,2244.43146 167.594301,2247.23615 M175.773962,2242.60855 C177.500513,2243.95353 178.987543,2245.41424 180.407706,2247.23615 C184.018494,2241.00915 181.287948,2239.42172 175.773962,2242.60855 M181.664197,2249.00617 C187.098342,2257.49707 182.427671,2262.0648 174.001503,2256.67392 C165.595294,2262.05183 160.885701,2257.52501 166.338809,2249.00617 C160.941589,2240.57413 165.492499,2235.89465 174.001503,2241.33841 C182.424677,2235.94953 187.103332,2240.50828 181.664197,2249.00617 M175.065378,2247.94555 C175.649211,2248.53024 175.649211,2249.47811 175.065378,2250.06179 C174.480546,2250.64648 173.53244,2250.64648 172.947608,2250.06179 C172.362776,2249.47811 172.362776,2248.53024 172.947608,2247.94555 C173.53244,2247.36087 174.480546,2247.36087 175.065378,2247.94555" id="atom-[#1298]"></path>
            </g>
        </g>
    </g>
</svg>