<?xml version="1.0" encoding="UTF-8" standalone="no"?>
<svg width="20px" height="20px" viewBox="0 0 20 20" version="1.1" xmlns="http://www.w3.org/2000/svg" xmlns:xlink="http://www.w3.org/1999/xlink">
    <!-- Generator: Sketch 3.8.1 (29687) - http://www.bohemiancoding.com/sketch -->
    <title>atom [#1297]</title>
    <desc>Created with Sketch.</desc>
    <defs></defs>
    <g id="Page-1" stroke="none" stroke-width="1" fill="none" fill-rule="evenodd">
        <g id="Dribbble-Dark-Preview" transform="translate(-260.000000, -2399.000000)" fill="#FFFFFF">
            <g id="icons" transform="translate(56.000000, 160.000000)">
                <path d="M215.5,2249.008 C215.5,2249.836 214.828,2250.508 214,2250.508 C213.172,2250.508 212.5,2249.836 212.5,2249.008 C212.5,2248.18 213.172,2247.508 214,2247.508 C214.828,2247.508 215.5,2248.18 215.5,2249.008 M219.505,2251.812 C219.831,2249.955 219.832,2248.047 219.505,2246.189 C221.056,2246.965 222,2248.012 222,2249 C222,2249.989 221.056,2251.036 219.505,2251.812 M217.274,2252.616 C214.98,2253.176 212.399,2253.122 210.187,2252.472 C209.607,2250.26 209.601,2247.767 210.187,2245.529 C212.396,2244.88 214.978,2244.824 217.274,2245.385 C217.903,2247.67 217.914,2250.292 217.274,2252.616 M213.75,2257 C212.81,2257 211.815,2256.151 211.052,2254.735 C212.738,2255.046 214.536,2255.095 216.398,2254.819 C215.642,2256.183 214.67,2257 213.75,2257 M213.75,2241 C214.67,2241 215.642,2241.818 216.398,2243.182 C214.536,2242.906 212.738,2242.955 211.052,2243.266 C211.815,2241.849 212.81,2241 213.75,2241 M207.949,2251.513 C206.727,2250.778 206,2249.867 206,2249 C206,2248.134 206.727,2247.223 207.949,2246.488 C207.691,2248.142 207.677,2249.766 207.949,2251.513 M218.852,2243.756 C217.794,2240.906 215.908,2239 213.75,2239 C211.539,2239 209.613,2240.999 208.572,2243.966 C205.823,2245.035 204,2246.888 204,2249 C204,2251.112 205.823,2252.966 208.572,2254.035 C209.613,2257.002 211.539,2259 213.75,2259 C215.908,2259 217.794,2257.095 218.852,2254.245 C221.921,2253.221 224,2251.257 224,2249 C224,2246.744 221.921,2244.78 218.852,2243.756" id="atom-[#1297]"></path>
            </g>
        </g>
    </g>
</svg>