<?xml version="1.0" encoding="UTF-8" standalone="no"?>
<svg width="16px" height="20px" viewBox="0 0 16 20" version="1.1" xmlns="http://www.w3.org/2000/svg" xmlns:xlink="http://www.w3.org/1999/xlink">
    <!-- Generator: Sketch 3.8.1 (29687) - http://www.bohemiancoding.com/sketch -->
    <title>attachment [#1575]</title>
    <desc>Created with Sketch.</desc>
    <defs></defs>
    <g id="Page-1" stroke="none" stroke-width="1" fill="none" fill-rule="evenodd">
        <g id="Dribbble-Dark-Preview" transform="translate(-222.000000, -919.000000)" fill="#FFFFFF">
            <g id="icons" transform="translate(56.000000, 160.000000)">
                <path d="M181.905146,767.946 L177.19045,777.845 C176.71807,778.846 175.514361,779.279 174.501829,778.812 L167.168306,775.431 C166.155774,774.964 165.717786,773.774 166.190166,772.773 L172.18747,760.155 C172.658839,759.154 173.862548,758.721 174.876091,759.188 L179.45929,761.301 C180.471822,761.768 180.90981,762.958 180.43743,763.959 L176.150607,772.952 C175.678227,773.953 174.474518,774.386 173.461986,773.919 L171.629111,773.074 C170.615567,772.607 170.177579,771.417 170.649959,770.416 L173.654175,764.142 C173.89087,763.641 174.492725,763.425 174.998485,763.658 C175.505257,763.892 175.723745,764.487 175.488061,764.987 L172.911719,770.355 C172.675023,770.855 172.894523,771.45 173.400283,771.684 C173.907055,771.917 174.508909,771.701 174.744594,771.2 L178.176682,764.021 C178.412367,763.52 178.193878,762.924 177.687106,762.691 L174.936782,761.423 C174.431022,761.19 173.829168,761.406 173.593483,761.907 L168.452937,772.708 C168.215229,773.211 168.435741,773.808 168.944536,774.043 L174.43608,776.575 C174.944875,776.809 175.549764,776.592 175.78646,776.089 L180.07126,767.101 C180.307956,766.6 180.90981,766.384 181.415571,766.617 C181.922342,766.85 182.140831,767.446 181.905146,767.946" id="attachment-[#1575]"></path>
            </g>
        </g>
    </g>
</svg>