<?xml version="1.0" encoding="UTF-8" standalone="no"?>
<svg width="14px" height="20px" viewBox="0 0 14 20" version="1.1" xmlns="http://www.w3.org/2000/svg" xmlns:xlink="http://www.w3.org/1999/xlink">
    <!-- Generator: Sketch 3.8.1 (29687) - http://www.bohemiancoding.com/sketch -->
    <title>attachment [#1574]</title>
    <desc>Created with Sketch.</desc>
    <defs></defs>
    <g id="Page-1" stroke="none" stroke-width="1" fill="none" fill-rule="evenodd">
        <g id="Dribbble-Dark-Preview" transform="translate(-263.000000, -919.000000)" fill="#FFFFFF">
            <g id="icons" transform="translate(56.000000, 160.000000)">
                <path d="M220.008025,763.033264 L220.008025,763.033264 C220.557239,763.035268 221.001983,763.485077 220.999993,764.038072 L220.929352,777.002398 C220.926367,778.108388 220.032899,779.002998 218.933476,778.999992 L208.983944,778.976951 C207.885516,778.973946 206.997023,778.074327 207.000007,776.968337 L207.079604,760.998604 C207.082589,759.891612 207.976057,758.997002 209.074485,759.000008 L215.044204,759.015035 C216.143627,759.01804 217.03212,759.917659 217.029135,761.023649 L216.960484,772.986172 C216.957499,774.093164 216.064031,774.987773 214.965602,774.984768 L212.975696,774.978757 C211.876273,774.975752 210.98778,774.076133 210.990765,772.969141 L211.050462,764.012025 C211.052452,763.45903 211.499186,763.012227 212.0484,763.013228 C212.597614,763.015232 213.042358,763.465041 213.040368,764.018036 L212.983656,771.97335 C212.982661,772.526345 213.42641,772.976154 213.975624,772.978158 C214.525833,772.979159 214.972567,772.532356 214.973562,771.979361 L215.036244,762.020442 C215.037239,761.467447 214.59349,761.016636 214.043281,761.015634 L210.064463,761.006618 C209.514254,761.005616 209.06752,761.45242 209.066525,762.005415 L208.992899,775.967536 C208.990909,776.523537 209.437643,776.97535 209.988847,776.976351 L217.940512,776.993382 C218.491716,776.995386 218.94044,776.545576 218.94243,775.990578 L219.010087,764.032061 C219.012077,763.479066 219.458811,763.031261 220.008025,763.033264" id="attachment-[#1574]"></path>
            </g>
        </g>
    </g>
</svg>