<?xml version="1.0" encoding="UTF-8" standalone="no"?>
<svg width="21px" height="21px" viewBox="0 0 21 21" version="1.1" xmlns="http://www.w3.org/2000/svg" xmlns:xlink="http://www.w3.org/1999/xlink">
    <!-- Generator: Sketch 3.8.1 (29687) - http://www.bohemiancoding.com/sketch -->
    <title>bag_close_round [#1123]</title>
    <desc>Created with Sketch.</desc>
    <defs></defs>
    <g id="Page-1" stroke="none" stroke-width="1" fill="none" fill-rule="evenodd">
        <g id="Dribbble-Dark-Preview" transform="translate(-300.000000, -3159.000000)" fill="#FFFFFF">
            <g id="icons" transform="translate(56.000000, 160.000000)">
                <path d="M264.712429,3018.29544 C265.095857,3018.67828 265.095857,3019.29806 264.712429,3019.67991 C263.952437,3020.43971 263.345424,3019.6995 262.632502,3018.98768 L261.939193,3019.67991 C261.555765,3020.06275 260.935023,3020.06275 260.551595,3019.67991 C259.791603,3018.92012 260.531982,3018.31503 261.244904,3017.60321 L260.551595,3016.91097 C260.169147,3016.52814 260.169147,3015.90836 260.551595,3015.5265 C261.312568,3014.76671 261.9186,3015.50594 262.632502,3016.21874 L263.325811,3015.5265 C263.708259,3015.14367 264.329001,3015.14367 264.712429,3015.5265 C265.095857,3015.90836 265.095857,3016.52814 264.712429,3016.91097 L264.01912,3017.60321 L264.712429,3018.29544 Z M256.748693,3004.8747 L250.864884,3004.8747 L250.864884,3003.89558 C250.864884,3002.27612 252.183837,3000.95823 253.806788,3000.95823 C255.428758,3000.95823 256.748693,3001.93735 256.748693,3003.89558 L256.748693,3004.8747 Z M261.149782,3013.1169 C261.586165,3012.86037 262.090211,3012.70763 262.632502,3012.70763 C262.78352,3012.70763 262.931596,3012.72231 263.07771,3012.74386 L262.192197,3006.55584 C262.053928,3005.59141 261.226272,3004.8747 260.25054,3004.8747 L258.709963,3004.8747 L258.709963,3003.89558 C258.709963,3000.95823 256.509418,2999 253.806788,2999 C251.103178,2999 248.903614,3001.19616 248.903614,3003.89558 L248.903614,3004.8747 L247.66213,3004.8747 C246.686398,3004.8747 245.559649,3005.59141 245.421379,3006.55584 L244.020052,3016.347 C243.851383,3017.52684 244.768276,3018.58233 245.961709,3018.58233 L257.899958,3018.58233 C257.791108,3018.58233 257.729328,3017.94688 257.729328,3017.60321 C257.729328,3017.25954 257.791108,3016.62409 257.899958,3016.62409 L247.092381,3016.62409 C246.496155,3016.62409 246.037218,3016.09635 246.121553,3015.50594 L247.242418,3007.67301 C247.311063,3007.19129 247.724891,3006.83293 248.213247,3006.83293 L248.903614,3006.83293 L248.903614,3008.79116 C248.903614,3009.33163 249.341958,3009.77028 249.884249,3009.77028 C250.425559,3009.77028 250.864884,3009.33163 250.864884,3008.79116 L250.864884,3006.83293 L256.748693,3006.83293 L256.748693,3008.79116 C256.748693,3009.33163 257.187037,3009.77028 257.729328,3009.77028 C258.270638,3009.77028 258.709963,3009.33163 258.709963,3008.79116 L258.709963,3006.83293 L259.399349,3006.83293 C259.887705,3006.83293 260.301533,3007.19129 260.370178,3007.67301 L261.149782,3013.1169 Z" id="bag_close_round-[#1123]"></path>
            </g>
        </g>
    </g>
</svg>