<?xml version="1.0" encoding="UTF-8" standalone="no"?>
<svg width="21px" height="21px" viewBox="0 0 21 21" version="1.1" xmlns="http://www.w3.org/2000/svg" xmlns:xlink="http://www.w3.org/1999/xlink">
    <!-- Generator: Sketch 3.8.1 (29687) - http://www.bohemiancoding.com/sketch -->
    <title>bag_close_play_round [#1125]</title>
    <desc>Created with Sketch.</desc>
    <defs></defs>
    <g id="Page-1" stroke="none" stroke-width="1" fill="none" fill-rule="evenodd">
        <g id="Dribbble-Dark-Preview" transform="translate(-220.000000, -3159.000000)" fill="#FFFFFF">
            <g id="icons" transform="translate(56.000000, 160.000000)">
                <path d="M172.585382,3008.86382 L176.505447,3011.31068 C176.818072,3011.50161 176.818072,3011.95593 176.505447,3012.14589 L172.585382,3014.59373 C172.259036,3014.79249 171.839589,3014.5575 171.839589,3014.17564 L171.839589,3009.28191 C171.839589,3008.89907 172.259036,3008.66408 172.585382,3008.86382 L172.585382,3008.86382 Z M184.699363,3018.29584 C185.08157,3018.6777 185.08157,3019.29848 184.699363,3019.68034 C183.938871,3020.43917 183.333221,3019.69992 182.619769,3018.98809 L181.926897,3019.68034 C181.544691,3020.06318 180.923361,3020.06318 180.541154,3019.68034 C179.773801,3018.91466 180.526454,3018.31053 181.234026,3017.60359 L180.541154,3016.91134 C180.157968,3016.5285 180.157968,3015.90871 180.541154,3015.52684 C181.301647,3014.76703 181.906317,3015.50628 182.619769,3016.21909 L183.31264,3015.52684 C184.229936,3014.61037 185.615679,3015.99487 184.699363,3016.91134 L184.005512,3017.60359 L184.699363,3018.29584 Z M176.739671,3004.87482 L170.859573,3004.87482 L170.859573,3003.89568 C170.859573,3002.27619 172.178675,3000.95827 173.799622,3000.95827 C175.421549,3000.95827 176.739671,3001.93741 176.739671,3003.89568 L176.739671,3004.87482 Z M181.137984,3013.11719 C181.574091,3012.86065 182.07782,3012.70791 182.619769,3012.70791 C182.771671,3012.70791 182.919654,3012.7226 183.064696,3012.74414 L182.179742,3006.556 C181.902397,3004.61437 179.911004,3004.87482 178.699704,3004.87482 L178.699704,3003.89568 C178.699704,3000.95827 176.501527,2999 173.799622,2999 C171.097717,2999 168.899541,3001.1962 168.899541,3003.89568 L168.899541,3004.87482 L167.65982,3004.87482 C166.684704,3004.87482 165.557685,3005.59155 165.419503,3006.556 L164.020039,3016.34736 C163.851477,3017.52722 164.767792,3018.58273 165.960472,3018.58273 L177.89119,3018.58273 C177.781428,3018.58273 177.719687,3017.94727 177.719687,3017.60359 C177.719687,3017.25991 177.781428,3016.62446 177.89119,3016.62446 L167.09043,3016.62446 C166.493601,3016.62446 166.035933,3016.0967 166.120214,3015.50628 L167.240373,3007.67319 C167.368755,3006.77434 168.080247,3006.83309 168.899541,3006.83309 L168.899541,3008.79136 C168.899541,3009.33185 169.338588,3009.7705 169.879557,3009.7705 C171.114377,3009.7705 170.859573,3008.40069 170.859573,3006.83309 L176.739671,3006.83309 L176.739671,3008.79136 C176.739671,3009.33185 177.178718,3009.7705 177.719687,3009.7705 C178.261636,3009.7705 178.699704,3009.33185 178.699704,3008.79136 L178.699704,3006.83309 C179.519977,3006.83309 180.231469,3006.77434 180.359851,3007.67319 L181.137984,3013.11719 Z" id="bag_close_play_round-[#1125]"></path>
            </g>
        </g>
    </g>
</svg>