<?xml version="1.0" encoding="UTF-8" standalone="no"?>
<svg width="22px" height="22px" viewBox="0 0 22 22" version="1.1" xmlns="http://www.w3.org/2000/svg" xmlns:xlink="http://www.w3.org/1999/xlink">
    <!-- Generator: Sketch 3.8.1 (29687) - http://www.bohemiancoding.com/sketch -->
    <title>bag_plus_play_round [#1127]</title>
    <desc>Created with Sketch.</desc>
    <defs></defs>
    <g id="Page-1" stroke="none" stroke-width="1" fill="none" fill-rule="evenodd">
        <g id="Dribbble-Dark-Preview" transform="translate(-140.000000, -3159.000000)" fill="#FFFFFF">
            <g id="icons" transform="translate(56.000000, 160.000000)">
                <path d="M92.000448,3009.501 L92.000448,3014.499 C92.000448,3014.89 92.428448,3015.13 92.761448,3014.926 L96.761448,3012.427 C97.080448,3012.232 97.080448,3011.769 96.761448,3011.574 L92.761448,3009.074 C92.428448,3008.871 92.000448,3009.11 92.000448,3009.501 M94.000448,3001 C92.346448,3001 91.000448,3002.346 91.000448,3004 L91.000448,3005 L97.000448,3005 C97.000448,3004 97.256448,3001 94.000448,3001 M99.000448,3007 L99.000448,3009 C99.000448,3009.552 98.552448,3010 98.000448,3010 C97.448448,3010 97.000448,3009.552 97.000448,3009 L97.000448,3007 L91.000448,3007 L91.000448,3009 C91.000448,3009.552 90.552448,3010 90.000448,3010 C89.448448,3010 89.000448,3009.552 89.000448,3009 L89.000448,3007 C88.163448,3007 87.438448,3006.941 87.306448,3007.859 L86.163448,3015.859 C86.077448,3016.461 86.545448,3017 87.153448,3017 L98.174448,3017 C98.063448,3017 98.000448,3017.649 98.000448,3018 C98.000448,3018.351 98.063448,3019 98.174448,3019 L86.000448,3019 C84.783448,3019 83.848448,3017.922 84.020448,3016.717 L85.449448,3006.717 C85.590448,3005.732 86.739448,3005 87.735448,3005 L89.000448,3005 L89.000448,3004 C89.000448,3001.243 91.243448,2999 94.000448,2999 C96.757448,2999 99.000448,3001 99.000448,3004 L99.000448,3005 C100.143448,3005 102.262448,3004.696 102.551448,3006.717 L103.454448,3013.038 C103.306448,3013.015 103.155448,3013 103.000448,3013 C102.447448,3013 101.933448,3013.157 101.488448,3013.418 L100.694448,3007.859 C100.563448,3006.941 99.837448,3007 99.000448,3007 M106.000448,3018 C106.000448,3019.093 105.000448,3019 104.000448,3019 C104.000448,3020 104.105448,3021 103.000448,3021 C101.907448,3021 102.000448,3020 102.000448,3019 C101.000448,3019 100.000448,3019.105 100.000448,3018 C100.000448,3016.907 101.000448,3017 102.000448,3017 C102.000448,3016 101.895448,3015 103.000448,3015 C104.104448,3015 104.000448,3016 104.000448,3017 C105.000448,3017 106.000448,3016.896 106.000448,3018" id="bag_plus_play_round-[#1127]"></path>
            </g>
        </g>
    </g>
</svg>