<?xml version="1.0" encoding="UTF-8" standalone="no"?>
<svg width="22px" height="20px" viewBox="0 0 22 20" version="1.1" xmlns="http://www.w3.org/2000/svg" xmlns:xlink="http://www.w3.org/1999/xlink">
    <!-- Generator: Sketch 3.8.1 (29687) - http://www.bohemiancoding.com/sketch -->
    <title>bag_minus_play_round [#1124]</title>
    <desc>Created with Sketch.</desc>
    <defs></defs>
    <g id="Page-1" stroke="none" stroke-width="1" fill="none" fill-rule="evenodd">
        <g id="Dribbble-Dark-Preview" transform="translate(-260.000000, -3159.000000)" fill="#FFFFFF">
            <g id="icons" transform="translate(56.000000, 160.000000)">
                <path d="M225.000448,3017 L221.000448,3017 C220.448448,3017 220.000448,3017.448 220.000448,3018 C220.000448,3018.552 220.448448,3019 221.000448,3019 L225.000448,3019 C225.552448,3019 226.000448,3018.552 226.000448,3018 C226.000448,3017.448 225.552448,3017 225.000448,3017 L225.000448,3017 Z M217.000448,3004 C217.000448,3002 215.654448,3001 214.000448,3001 C212.346448,3001 211.000448,3002.346 211.000448,3004 L211.000448,3005 L217.000448,3005 L217.000448,3004 Z M219.704448,3007 L219.000448,3007 L219.000448,3009 C219.000448,3009.552 218.552448,3010 218.000448,3010 C217.448448,3010 217.000448,3009.552 217.000448,3009 L217.000448,3007 L211.000448,3007 L211.000448,3009 C211.000448,3009.552 210.552448,3010 210.000448,3010 C209.448448,3010 209.000448,3009.552 209.000448,3009 L209.000448,3007 L208.296448,3007 C207.799448,3007 207.377448,3007.366 207.306448,3007.859 L206.163448,3015.858 C206.077448,3016.461 206.545448,3017 207.153448,3017 L218.000448,3017 L218.000448,3019 L206.000448,3019 C204.783448,3019 203.848448,3017.922 204.020448,3016.717 L205.449448,3006.717 C205.590448,3005.732 206.739448,3005 207.735448,3005 L209.000448,3005 L209.000448,3004 C209.000448,3001.243 211.243448,2999 214.000448,2999 C216.757448,2999 219.000448,3001 219.000448,3004 L219.000448,3005 L220.571448,3005 C221.566448,3005 222.410448,3005.732 222.551448,3006.717 L223.734448,3015 L221.714448,3015 L220.694448,3007.858 C220.623448,3007.366 220.201448,3007 219.704448,3007 L219.704448,3007 Z M212.761448,3009.074 L216.761448,3011.574 C217.080448,3011.769 217.080448,3012.232 216.761448,3012.427 L212.761448,3014.926 C212.428448,3015.13 212.000448,3014.89 212.000448,3014.5 L212.000448,3009.501 C212.000448,3009.11 212.428448,3008.871 212.761448,3009.074 L212.761448,3009.074 Z" id="bag_minus_play_round-[#1124]"></path>
            </g>
        </g>
    </g>
</svg>