<?xml version="1.0" encoding="UTF-8" standalone="no"?>
<svg width="24px" height="24px" viewBox="0 0 24 24" version="1.1" xmlns="http://www.w3.org/2000/svg" xmlns:xlink="http://www.w3.org/1999/xlink">
    <!-- Generator: Sketch 3.8.1 (29687) - http://www.bohemiancoding.com/sketch -->
    <title>bag_circle_play_round [#1128]</title>
    <desc>Created with Sketch.</desc>
    <defs></defs>
    <g id="Page-1" stroke="none" stroke-width="1" fill="none" fill-rule="evenodd">
        <g id="Dribbble-Dark-Preview" transform="translate(-100.000000, -3159.000000)" fill="#FFFFFF">
            <g id="icons" transform="translate(56.000000, 160.000000)">
                <path d="M52.9470507,3009.2339 L57.032253,3011.77257 C57.3580479,3011.97067 57.3580479,3012.44203 57.032253,3012.63911 L52.9470507,3015.17879 C52.6069576,3015.38502 52.1698409,3015.14121 52.1698409,3014.74502 L52.1698409,3009.66768 C52.1698409,3009.27048 52.6069576,3009.02667 52.9470507,3009.2339 L52.9470507,3009.2339 Z M57.2763439,3005.09524 L51.1485404,3005.09524 L51.1485404,3004.07937 C51.1485404,3002.39911 52.5232109,3001.03175 54.2124421,3001.03175 C55.9026946,3001.03175 57.2763439,3002.04762 57.2763439,3004.07937 L57.2763439,3005.09524 Z M61.0490282,3007.9986 L61.7986629,3013.22222 C62.427784,3012.99162 63.1028637,3012.85854 63.8085824,3012.84635 L62.9455834,3006.83949 C62.80158,3005.83886 61.9406236,3005.09524 60.9234082,3005.09524 L59.318945,3005.09524 L59.318945,3004.07937 C59.318945,3001.03175 57.0281678,2999 54.2124421,2999 C51.3967164,2999 49.1059392,3001.2786 49.1059392,3004.07937 L49.1059392,3005.09524 L47.8139939,3005.09524 C46.7977999,3005.09524 45.6233042,3005.83886 45.4793008,3006.83949 L44.0208836,3016.99822 C43.8452199,3018.22235 44.8001359,3019.31746 46.0430587,3019.31746 L57.8063989,3019.31746 C57.7992498,3019.31746 57.7869942,3019.06451 57.7869942,3018.93651 C57.7869942,3018.36356 57.8727834,3018.30159 58.020872,3017.28571 L47.2206183,3017.28571 C46.5986462,3017.28571 46.1216989,3016.73816 46.2095307,3016.12559 L47.3768773,3007.9986 C47.4483683,3007.49879 47.8793572,3007.12698 48.3879649,3007.12698 L49.1059392,3007.12698 L49.1059392,3009.15873 C49.1059392,3009.71949 49.5634818,3010.1746 50.1272398,3010.1746 C50.692019,3010.1746 51.1485404,3009.71949 51.1485404,3009.15873 L51.1485404,3007.12698 L57.2763439,3007.12698 L57.2763439,3009.15873 C57.2763439,3009.71949 57.7338865,3010.1746 58.2976444,3010.1746 C58.8624237,3010.1746 59.318945,3009.71949 59.318945,3009.15873 L59.318945,3007.12698 L60.0379406,3007.12698 C60.5465483,3007.12698 60.9775372,3007.49879 61.0490282,3007.9986 L61.0490282,3007.9986 Z M63.9147977,3020.96825 C62.7883031,3020.96825 61.8721965,3020.05702 61.8721965,3018.93651 C61.8721965,3017.816 62.7883031,3016.90476 63.9147977,3016.90476 C65.0412922,3016.90476 65.9573988,3017.816 65.9573988,3018.93651 C65.9573988,3020.05702 65.0412922,3020.96825 63.9147977,3020.96825 L63.9147977,3020.96825 Z M63.9147977,3014.87302 C61.6587447,3014.87302 59.8295953,3016.69244 59.8295953,3018.93651 C59.8295953,3021.18057 61.6587447,3023 63.9147977,3023 C66.1708507,3023 68,3021.18057 68,3018.93651 C68,3016.69244 66.1708507,3014.87302 63.9147977,3014.87302 L63.9147977,3014.87302 Z" id="bag_circle_play_round-[#1128]"></path>
            </g>
        </g>
    </g>
</svg>