<?xml version="1.0" encoding="UTF-8" standalone="no"?>
<svg width="24px" height="24px" viewBox="0 0 24 24" version="1.1" xmlns="http://www.w3.org/2000/svg" xmlns:xlink="http://www.w3.org/1999/xlink">
    <!-- Generator: Sketch 3.8.1 (29687) - http://www.bohemiancoding.com/sketch -->
    <title>bag_circle [#1120]</title>
    <desc>Created with Sketch.</desc>
    <defs></defs>
    <g id="Page-1" stroke="none" stroke-width="1" fill="none" fill-rule="evenodd">
        <g id="Dribbble-Dark-Preview" transform="translate(-420.000000, -3159.000000)" fill="#FFFFFF">
            <g id="icons" transform="translate(56.000000, 160.000000)">
                <path d="M377.2768,3005.09524 L371.149257,3005.09524 L371.149257,3004.07937 C371.149257,3002.39911 372.52387,3001.03175 374.213029,3001.03175 C375.902188,3001.03175 377.2768,3002.04762 377.2768,3004.07937 L377.2768,3005.09524 Z M381.049324,3007.99962 L381.798927,3013.22222 C382.428021,3012.99162 383.102051,3012.85854 383.808761,3012.84635 L382.945798,3006.83949 C382.801801,3005.83886 381.93986,3005.09524 380.923709,3005.09524 L379.319314,3005.09524 L379.319314,3004.07937 C379.319314,3001.03175 377.028635,2999 374.213029,2999 C371.397423,2999 369.106743,3001.2786 369.106743,3004.07937 L369.106743,3005.09524 L367.814853,3005.09524 C366.797681,3005.09524 365.624256,3005.83886 365.480259,3006.83949 L364.020883,3016.99822 C363.845226,3018.22235 364.800102,3019.31746 366.042972,3019.31746 L377.806833,3019.31746 C377.662835,3019.31746 378.000871,3017.4259 378.021297,3017.28571 L367.220481,3017.28571 C366.599557,3017.28571 366.121609,3016.73816 366.209437,3016.1266 L367.376734,3007.99962 C367.449243,3007.49879 367.880213,3007.12698 368.387778,3007.12698 L369.106743,3007.12698 L369.106743,3009.15873 C369.106743,3009.71949 369.564266,3010.1746 370.128,3010.1746 C370.691734,3010.1746 371.149257,3009.71949 371.149257,3009.15873 L371.149257,3007.12698 L377.2768,3007.12698 L377.2768,3009.15873 C377.2768,3009.71949 377.734323,3010.1746 378.298057,3010.1746 C378.861791,3010.1746 379.319314,3009.71949 379.319314,3009.15873 L379.319314,3007.12698 L380.038279,3007.12698 C380.545844,3007.12698 380.976815,3007.49879 381.049324,3007.99962 L381.049324,3007.99962 Z M383.914971,3020.96825 C382.788525,3020.96825 381.872457,3020.05702 381.872457,3018.93651 C381.872457,3017.816 382.788525,3016.90476 383.914971,3016.90476 C385.041418,3016.90476 385.957486,3017.816 385.957486,3018.93651 C385.957486,3020.05702 385.041418,3020.96825 383.914971,3020.96825 L383.914971,3020.96825 Z M383.914971,3014.87302 C381.659015,3014.87302 379.829943,3016.69244 379.829943,3018.93651 C379.829943,3021.18057 381.659015,3023 383.914971,3023 C386.170928,3023 388,3021.18057 388,3018.93651 C388,3016.69244 386.170928,3014.87302 383.914971,3014.87302 L383.914971,3014.87302 Z" id="bag_circle-[#1120]"></path>
            </g>
        </g>
    </g>
</svg>