<?xml version="1.0" encoding="UTF-8" standalone="no"?>
<svg width="20px" height="20px" viewBox="0 0 20 20" version="1.1" xmlns="http://www.w3.org/2000/svg" xmlns:xlink="http://www.w3.org/1999/xlink">
    <!-- Generator: Sketch 3.8.1 (29687) - http://www.bohemiancoding.com/sketch -->
    <title>bag_play_round [#1126]</title>
    <desc>Created with Sketch.</desc>
    <defs></defs>
    <g id="Page-1" stroke="none" stroke-width="1" fill="none" fill-rule="evenodd">
        <g id="Dribbble-Dark-Preview" transform="translate(-180.000000, -3159.000000)" fill="#FFFFFF">
            <g id="icons" transform="translate(56.000000, 160.000000)">
                <path d="M136.760448,3011.573 C137.079448,3011.768 137.079448,3012.231 136.760448,3012.426 L132.760448,3014.925 C132.427448,3015.129 131.999448,3014.889 131.999448,3014.499 L131.999448,3009.5 C131.999448,3009.11 132.427448,3008.87 132.760448,3009.074 L136.760448,3011.573 Z M140.846448,3017 L127.153448,3017 C126.544448,3017 126.077448,3016.461 126.163448,3015.858 C127.491448,3006.557 126.907448,3007 128.999448,3007 C128.999448,3008.639 128.751448,3010 129.999448,3010 C130.552448,3010 130.999448,3009.552 130.999448,3009 L130.999448,3007 L136.999448,3007 L136.999448,3009 C136.999448,3009.552 137.447448,3010 137.999448,3010 C138.552448,3010 138.999448,3009.552 138.999448,3009 L138.999448,3007 C139.836448,3007 140.562448,3006.94 140.693448,3007.858 L141.836448,3015.858 C141.922448,3016.461 141.454448,3017 140.846448,3017 L140.846448,3017 Z M130.999448,3004 C130.999448,3002.345 132.345448,3001 133.999448,3001 C135.654448,3001 136.999448,3002 136.999448,3004 L136.999448,3005 L130.999448,3005 L130.999448,3004 Z M143.979448,3016.717 L142.550448,3006.717 C142.267448,3004.733 140.235448,3005 138.999448,3005 L138.999448,3004 C138.999448,3001 136.756448,2999 133.999448,2999 C131.242448,2999 128.999448,3001.243 128.999448,3004 L128.999448,3005 L127.734448,3005 C126.739448,3005 125.589448,3005.732 125.448448,3006.717 L124.020448,3016.717 C123.848448,3017.922 124.783448,3019 126.000448,3019 L141.999448,3019 C143.216448,3019 144.151448,3017.922 143.979448,3016.717 L143.979448,3016.717 Z" id="bag_play_round-[#1126]"></path>
            </g>
        </g>
    </g>
</svg>