<?xml version="1.0" encoding="UTF-8" standalone="no"?>
<svg width="22px" height="20px" viewBox="0 0 22 20" version="1.1" xmlns="http://www.w3.org/2000/svg" xmlns:xlink="http://www.w3.org/1999/xlink">
    <!-- Generator: Sketch 3.8.1 (29687) - http://www.bohemiancoding.com/sketch -->
    <title>bag_minus [#1121]</title>
    <desc>Created with Sketch.</desc>
    <defs></defs>
    <g id="Page-1" stroke="none" stroke-width="1" fill="none" fill-rule="evenodd">
        <g id="Dribbble-Dark-Preview" transform="translate(-380.000000, -3159.000000)" fill="#FFFFFF">
            <g id="icons" transform="translate(56.000000, 160.000000)">
                <path d="M346.000448,3018 C346.000448,3018.552 345.552448,3019 345.000448,3019 L341.000448,3019 C340.448448,3019 340.000448,3018.552 340.000448,3018 C340.000448,3017.448 340.448448,3017 341.000448,3017 L345.000448,3017 C345.552448,3017 346.000448,3017.448 346.000448,3018 L346.000448,3018 Z M337.000448,3005 L331.000448,3005 L331.000448,3004 C331.000448,3002.346 332.346448,3001 334.000448,3001 C335.654448,3001 337.000448,3002 337.000448,3004 L337.000448,3005 Z M340.694448,3007.859 L341.714448,3015 L343.734448,3015 L342.551448,3006.717 C342.410448,3005.732 341.566448,3005 340.571448,3005 L339.000448,3005 L339.000448,3004 C339.000448,3001 336.757448,2999 334.000448,2999 C331.243448,2999 329.000448,3001.243 329.000448,3004 L329.000448,3005 L327.735448,3005 C326.739448,3005 325.590448,3005.732 325.449448,3006.717 L324.020448,3016.717 C323.848448,3017.922 324.783448,3019 326.000448,3019 L338.000448,3019 L338.000448,3017 L327.153448,3017 C326.545448,3017 326.077448,3016.461 326.163448,3015.859 L327.306448,3007.859 C327.377448,3007.366 327.799448,3007 328.296448,3007 L329.000448,3007 L329.000448,3009 C329.000448,3009.552 329.448448,3010 330.000448,3010 C330.552448,3010 331.000448,3009.552 331.000448,3009 L331.000448,3007 L337.000448,3007 L337.000448,3009 C337.000448,3009.552 337.448448,3010 338.000448,3010 C338.552448,3010 339.000448,3009.552 339.000448,3009 L339.000448,3007 L339.704448,3007 C340.201448,3007 340.623448,3007.366 340.694448,3007.859 L340.694448,3007.859 Z" id="bag_minus-[#1121]"></path>
            </g>
        </g>
    </g>
</svg>