<?xml version="1.0" encoding="UTF-8" standalone="no"?>
<svg width="22px" height="22px" viewBox="0 0 22 22" version="1.1" xmlns="http://www.w3.org/2000/svg" xmlns:xlink="http://www.w3.org/1999/xlink">
    <!-- Generator: Sketch 3.8.1 (29687) - http://www.bohemiancoding.com/sketch -->
    <title>bag_plus [#1122]</title>
    <desc>Created with Sketch.</desc>
    <defs></defs>
    <g id="Page-1" stroke="none" stroke-width="1" fill="none" fill-rule="evenodd">
        <g id="Dribbble-Dark-Preview" transform="translate(-340.000000, -3159.000000)" fill="#FFFFFF">
            <g id="icons" transform="translate(56.000000, 160.000000)">
                <path d="M306.000448,3018 C306.000448,3018.552 305.552448,3019 305.000448,3019 L304.000448,3019 C304.000448,3020 304.105448,3021 303.000448,3021 C301.907448,3021 302.000448,3020 302.000448,3019 C301.000448,3019 300.000448,3019.105 300.000448,3018 C300.000448,3016.907 301.000448,3017 302.000448,3017 C302.000448,3016 301.895448,3015 303.000448,3015 C304.104448,3015 304.000448,3016 304.000448,3017 C305.000448,3017 306.000448,3016.895 306.000448,3018 L306.000448,3018 Z M297.000448,3005 L291.000448,3005 L291.000448,3004 C291.000448,3002.346 292.346448,3001 294.000448,3001 C295.654448,3001 297.000448,3002 297.000448,3004 L297.000448,3005 Z M300.694448,3007.859 L301.488448,3013.418 C302.078448,3013.071 302.742448,3012.929 303.454448,3013.038 L302.551448,3006.717 C302.410448,3005.732 301.566448,3005 300.571448,3005 L299.000448,3005 L299.000448,3004 C299.000448,3001 296.757448,2999 294.000448,2999 C291.243448,2999 289.000448,3001.243 289.000448,3004 L289.000448,3005 L287.735448,3005 C286.739448,3005 285.590448,3005.732 285.449448,3006.717 L284.020448,3016.717 C283.848448,3017.922 284.783448,3019 286.000448,3019 L298.000448,3019 L298.000448,3017 L287.153448,3017 C286.545448,3017 286.077448,3016.461 286.163448,3015.859 L287.306448,3007.859 C287.377448,3007.366 287.799448,3007 288.296448,3007 L289.000448,3007 L289.000448,3009 C289.000448,3009.552 289.448448,3010 290.000448,3010 C290.552448,3010 291.000448,3009.552 291.000448,3009 L291.000448,3007 L297.000448,3007 L297.000448,3009 C297.000448,3009.552 297.448448,3010 298.000448,3010 C298.552448,3010 299.000448,3009.552 299.000448,3009 L299.000448,3007 L299.704448,3007 C300.201448,3007 300.623448,3007.366 300.694448,3007.859 L300.694448,3007.859 Z" id="bag_plus-[#1122]"></path>
            </g>
        </g>
    </g>
</svg>