<?xml version="1.0" encoding="UTF-8" standalone="no"?>
<svg width="20px" height="20px" viewBox="0 0 20 20" version="1.1" xmlns="http://www.w3.org/2000/svg" xmlns:xlink="http://www.w3.org/1999/xlink">
    <!-- Generator: Sketch 3.8.1 (29687) - http://www.bohemiancoding.com/sketch -->
    <title>ball [#783]</title>
    <desc>Created with Sketch.</desc>
    <defs></defs>
    <g id="Page-1" stroke="none" stroke-width="1" fill="none" fill-rule="evenodd">
        <g id="Dribbble-Dark-Preview" transform="translate(-260.000000, -4759.000000)" fill="#FFFFFF">
            <g id="icons" transform="translate(56.000000, 160.000000)">
                <path d="M206,4609 C206,4606.921 206.804,4605.031 208.108,4603.607 C208.044,4604.064 208,4604.526 208,4605 C208,4610.523 212.477,4615 218,4615 C218.474,4615 218.936,4614.956 219.393,4614.892 C217.969,4616.196 216.079,4617 214,4617 C209.589,4617 206,4613.411 206,4609 M221.192,4612.481 C221.128,4612.457 221.063,4612.437 221,4612.411 C218.072,4611.221 216,4608.35 216,4605 C216,4603.751 216.296,4602.573 216.808,4601.519 C219.836,4602.659 222,4605.578 222,4609 C222,4610.172 221.741,4611.282 221.286,4612.286 C221.256,4612.352 221.223,4612.416 221.192,4612.481 M214.818,4601.042 C214.293,4602.256 214,4603.594 214,4605 C214,4608.276 215.583,4611 218.017,4613 L218,4613 C213.589,4613 210,4609.411 210,4605 C210,4603.828 210.26,4602.718 210.714,4601.714 C211.718,4601.259 212.828,4601 214,4601 C214.276,4601 214.549,4601.014 214.818,4601.042 M204,4609 C204,4614.523 208.477,4619 214,4619 C217.35,4619 220.308,4617.347 222.123,4614.818 C222.361,4614.486 222.586,4614.144 222.783,4613.783 C222.929,4613.516 223.061,4613.24 223.182,4612.958 C223.53,4612.153 223.766,4611.291 223.892,4610.393 C223.956,4609.936 224,4609.474 224,4609 C224,4604.872 221.498,4601.331 217.93,4599.804 C217.279,4599.525 216.591,4599.318 215.877,4599.182 C215.269,4599.066 214.642,4599 214,4599 C213.526,4599 213.064,4599.044 212.607,4599.108 C211.395,4599.278 210.249,4599.654 209.217,4600.217 C206.109,4601.913 204,4605.21 204,4609" id="ball-[#783]"></path>
            </g>
        </g>
    </g>
</svg>