<?xml version="1.0" encoding="UTF-8" standalone="no"?>
<svg width="12px" height="16px" viewBox="0 0 12 16" version="1.1" xmlns="http://www.w3.org/2000/svg" xmlns:xlink="http://www.w3.org/1999/xlink">
    <!-- Generator: Sketch 3.8.1 (29687) - http://www.bohemiancoding.com/sketch -->
    <title>balloon [#43]</title>
    <desc>Created with Sketch.</desc>
    <defs></defs>
    <g id="Page-1" stroke="none" stroke-width="1" fill="none" fill-rule="evenodd">
        <g id="Dribbble-Dark-Preview" transform="translate(-264.000000, -8001.000000)" fill="#FFFFFF">
            <g id="icons" transform="translate(56.000000, 160.000000)">
                <path d="M216.162,7851.021 C213.481,7850.993 214.468,7850.993 211.837,7851.021 C210.981,7849.931 210,7847.79 210,7846.851 C210,7844.728 211.794,7843 214,7843 C216.205,7843 218,7844.728 218,7846.851 C218,7847.79 217.018,7849.931 216.162,7851.021 M214,7841 C210.686,7841 208,7843.62 208,7846.851 C208,7848.638 209.705,7851.956 211,7853.03 L213,7853.009 L213,7855 L211,7855 L211,7857 L217,7857 L217,7855 L215,7855 L215,7853.009 L217,7853.03 C218.294,7851.956 220,7848.638 220,7846.851 C220,7843.62 217.313,7841 214,7841" id="balloon-[#43]"></path>
            </g>
        </g>
    </g>
</svg>