<?xml version="1.0" encoding="UTF-8" standalone="no"?>
<svg width="12px" height="20px" viewBox="0 0 12 20" version="1.1" xmlns="http://www.w3.org/2000/svg" xmlns:xlink="http://www.w3.org/1999/xlink">
    <!-- Generator: Sketch 3.8.1 (29687) - http://www.bohemiancoding.com/sketch -->
    <title>balloon [#42]</title>
    <desc>Created with Sketch.</desc>
    <defs></defs>
    <g id="Page-1" stroke="none" stroke-width="1" fill="none" fill-rule="evenodd">
        <g id="Dribbble-Dark-Preview" transform="translate(-304.000000, -7999.000000)" fill="#FFFFFF">
            <g id="icons" transform="translate(56.000000, 160.000000)">
                <path d="M256.162,7849.021 C253.481,7848.993 254.468,7848.994 251.837,7849.021 C250.981,7847.931 250,7845.79 250,7844.851 C250,7842.728 251.794,7841 254,7841 C256.205,7841 258,7842.728 258,7844.851 C258,7845.79 257.018,7847.931 256.162,7849.021 M254,7839 C250.686,7839 248,7841.62 248,7844.851 C248,7846.638 249.705,7849.956 251,7851.03 L253,7851.009 L253,7859 L255,7859 L255,7851.009 L257,7851.03 C258.294,7849.956 260,7846.638 260,7844.851 C260,7841.62 257.313,7839 254,7839" id="balloon-[#42]"></path>
            </g>
        </g>
    </g>
</svg>