<?xml version="1.0" encoding="UTF-8" standalone="no"?>
<svg width="12px" height="16px" viewBox="0 0 12 16" version="1.1" xmlns="http://www.w3.org/2000/svg" xmlns:xlink="http://www.w3.org/1999/xlink">
    <!-- Generator: Sketch 3.8.1 (29687) - http://www.bohemiancoding.com/sketch -->
    <title>balloon [#41]</title>
    <desc>Created with Sketch.</desc>
    <defs></defs>
    <g id="Page-1" stroke="none" stroke-width="1" fill="none" fill-rule="evenodd">
        <g id="Dribbble-Dark-Preview" transform="translate(-344.000000, -8001.000000)" fill="#FFFFFF">
            <g id="icons" transform="translate(56.000000, 160.000000)">
                <path d="M291.837,7851.021 C290.981,7849.931 290,7847.79 290,7846.851 C290,7844.728 291.794,7843 294,7843 C296.205,7843 298,7844.728 298,7846.851 C298,7847.79 297.018,7849.931 296.162,7851.021 C293.481,7850.994 294.468,7850.994 291.837,7851.021 M297.347,7852.699 C298.579,7851.388 300,7848.482 300,7846.851 C300,7843.62 297.313,7841 294,7841 C290.686,7841 288,7843.62 288,7846.851 C288,7848.482 289.42,7851.388 290.652,7852.699 C291.115,7853.191 291.719,7853.022 293,7853.009 L293,7855 L292,7855 C291.447,7855 291,7855.48 291,7856.032 L291,7856.049 C291,7856.601 291.447,7857 292,7857 L296,7857 C296.549,7857 296.993,7856.588 296.998,7856.04 C296.993,7855.492 296.549,7855 296,7855 L295,7855 L295,7853.009 C296.28,7853.022 296.885,7853.191 297.347,7852.699" id="balloon-[#41]"></path>
            </g>
        </g>
    </g>
</svg>