<?xml version="1.0" encoding="UTF-8" standalone="no"?>
<svg width="12px" height="20px" viewBox="0 0 12 20" version="1.1" xmlns="http://www.w3.org/2000/svg" xmlns:xlink="http://www.w3.org/1999/xlink">
    <!-- Generator: Sketch 3.8.1 (29687) - http://www.bohemiancoding.com/sketch -->
    <title>balloon [#40]</title>
    <desc>Created with Sketch.</desc>
    <defs></defs>
    <g id="Page-1" stroke="none" stroke-width="1" fill="none" fill-rule="evenodd">
        <g id="Dribbble-Dark-Preview" transform="translate(-384.000000, -7999.000000)" fill="#FFFFFF">
            <g id="icons" transform="translate(56.000000, 160.000000)">
                <path d="M336.162,7849.021 C333.481,7848.993 334.468,7848.994 331.837,7849.021 C330.981,7847.931 330,7845.79 330,7844.851 C330,7842.728 331.794,7841 334,7841 C336.205,7841 338,7842.728 338,7844.851 C338,7845.79 337.018,7847.931 336.162,7849.021 M334,7839 C330.686,7839 328,7841.62 328,7844.851 C328,7846.481 329.42,7849.388 330.652,7850.699 C331.115,7851.191 331.719,7851.022 333,7851.009 L333,7858 C333,7858.552 333.447,7859 334,7859 C334.552,7859 335,7858.552 335,7858 L335,7851.009 C336.28,7851.022 336.885,7851.191 337.347,7850.699 C338.579,7849.388 340,7846.481 340,7844.851 C340,7841.62 337.313,7839 334,7839" id="balloon-[#40]"></path>
            </g>
        </g>
    </g>
</svg>