<?xml version="1.0" encoding="UTF-8" standalone="no"?>
<svg width="20px" height="20px" viewBox="0 0 20 20" version="1.1" xmlns="http://www.w3.org/2000/svg" xmlns:xlink="http://www.w3.org/1999/xlink">
    <!-- Generator: Sketch 3.8.1 (29687) - http://www.bohemiancoding.com/sketch -->
    <title>basketball [#99]</title>
    <desc>Created with Sketch.</desc>
    <defs></defs>
    <g id="Page-1" stroke="none" stroke-width="1" fill="none" fill-rule="evenodd">
        <g id="Dribbble-Dark-Preview" transform="translate(-420.000000, -7759.000000)" fill="#FFFFFF">
            <g id="icons" transform="translate(56.000000, 160.000000)">
                <path d="M381.608359,7602.71473 L371.867844,7612.28081 C370.926178,7613.20582 369.461364,7611.81581 370.427942,7610.8668 L380.168457,7601.30072 C380.566049,7600.90972 381.210767,7600.90972 381.608359,7601.30072 C382.004955,7601.69072 382.004955,7602.32473 381.608359,7602.71473 M383.207697,7600.05471 C382.033853,7598.7167 379.976138,7598.6607 378.728555,7599.88671 L368.988039,7609.45279 C368.048366,7610.37479 367.860033,7611.74381 368.400121,7612.85781 L364.298642,7616.88685 C363.900053,7617.27685 363.900053,7617.90986 364.298642,7618.30086 C364.696234,7618.69086 365.340951,7618.69086 365.738544,7618.30086 L369.840023,7614.27283 C371.087606,7614.85483 372.438822,7614.54883 373.307746,7613.69482 L382.933667,7604.24074 C384.083596,7603.11173 384.26894,7601.26472 383.207697,7600.05471 M380.589965,7614.30083 C380.228245,7613.94482 380.039912,7613.48782 380.008025,7613.02182 C380.482346,7613.05282 380.947698,7613.23782 381.310414,7613.59382 C381.672133,7613.94882 381.860466,7614.40683 381.892354,7614.87283 C381.418033,7614.84083 380.951684,7614.65583 380.589965,7614.30083 M378.429613,7616.42184 C377.755998,7615.75984 377.660336,7614.74783 378.130671,7613.97882 C378.314022,7614.61283 378.641861,7615.21583 379.150062,7615.71484 C379.658263,7616.21384 380.271093,7616.53584 380.917804,7616.71585 C380.134577,7617.17785 379.104225,7617.08385 378.429613,7616.42184 M376.989711,7612.17881 C375.399341,7613.74182 375.399341,7616.27384 376.989711,7617.83586 C378.58008,7619.39787 381.15895,7619.39787 382.750316,7617.83586 C386.574776,7614.07882 380.744418,7608.49178 376.989711,7612.17881" id="basketball-[#99]"></path>
            </g>
        </g>
    </g>
</svg>