<?xml version="1.0" encoding="UTF-8" standalone="no"?>
<svg width="20px" height="20px" viewBox="0 0 20 20" version="1.1" xmlns="http://www.w3.org/2000/svg" xmlns:xlink="http://www.w3.org/1999/xlink">
    <!-- Generator: Sketch 3.8.1 (29687) - http://www.bohemiancoding.com/sketch -->
    <title>basketball [#791]</title>
    <desc>Created with Sketch.</desc>
    <defs></defs>
    <g id="Page-1" stroke="none" stroke-width="1" fill="none" fill-rule="evenodd">
        <g id="Dribbble-Dark-Preview" transform="translate(-340.000000, -4719.000000)" fill="#FFFFFF">
            <g id="icons" transform="translate(56.000000, 160.000000)">
                <path d="M300.5,4573.646 C299.564,4572.34 299.006,4570.747 299.001,4569.022 C299.998,4569.196 300.985,4569.43 301.964,4569.708 C301.835,4571.169 301.311,4572.515 300.5,4573.646 L300.5,4573.646 Z M295,4576.931 L295,4568.614 C295.672,4568.637 296.343,4568.681 297.013,4568.75 C297.01,4568.834 297,4568.916 297,4569 C297,4571.318 297.796,4573.445 299.119,4575.141 C297.973,4576.098 296.555,4576.735 295,4576.931 L295,4576.931 Z M295,4561.069 C296.555,4561.265 297.973,4561.902 299.119,4562.859 C298.235,4563.992 297.59,4565.319 297.259,4566.767 C296.507,4566.688 295.755,4566.638 295,4566.614 L295,4561.069 Z M300.5,4564.354 C301.182,4565.305 301.659,4566.409 301.87,4567.605 C301.004,4567.379 300.133,4567.185 299.254,4567.035 C299.503,4566.057 299.928,4565.151 300.5,4564.354 L300.5,4564.354 Z M293,4566.614 C292.245,4566.638 291.493,4566.688 290.741,4566.767 C290.41,4565.319 289.765,4563.992 288.881,4562.859 C290.027,4561.902 291.445,4561.265 293,4561.069 L293,4566.614 Z M293,4576.931 C291.445,4576.735 290.027,4576.098 288.881,4575.141 C290.204,4573.445 291,4571.318 291,4569 C291,4568.916 290.99,4568.834 290.987,4568.75 C291.657,4568.681 292.328,4568.637 293,4568.614 L293,4576.931 Z M286.036,4569.708 C287.015,4569.43 288.002,4569.196 288.999,4569.022 C288.994,4570.747 288.436,4572.34 287.5,4573.646 C286.689,4572.515 286.165,4571.169 286.036,4569.708 L286.036,4569.708 Z M287.5,4564.354 C288.072,4565.151 288.497,4566.057 288.746,4567.035 C287.867,4567.185 286.996,4567.379 286.13,4567.605 C286.341,4566.409 286.818,4565.305 287.5,4564.354 L287.5,4564.354 Z M301.881,4562.859 C301.469,4562.331 301.008,4561.845 300.5,4561.41 C298.751,4559.911 296.484,4559 294,4559 C291.516,4559 289.249,4559.911 287.5,4561.41 C286.992,4561.845 286.531,4562.331 286.119,4562.859 C284.796,4564.555 284,4566.682 284,4569 C284,4571.318 284.796,4573.445 286.119,4575.141 C286.531,4575.669 286.992,4576.155 287.5,4576.59 C289.249,4578.089 291.516,4579 294,4579 C296.484,4579 298.751,4578.089 300.5,4576.59 C301.008,4576.155 301.469,4575.669 301.881,4575.141 C303.204,4573.445 304,4571.318 304,4569 C304,4566.682 303.204,4564.555 301.881,4562.859 L301.881,4562.859 Z" id="basketball-[#791]"></path>
            </g>
        </g>
    </g>
</svg>