<?xml version="1.0" encoding="UTF-8" standalone="no"?>
<svg width="20px" height="20px" viewBox="0 0 20 20" version="1.1" xmlns="http://www.w3.org/2000/svg" xmlns:xlink="http://www.w3.org/1999/xlink">
    <!-- Generator: Sketch 3.8.1 (29687) - http://www.bohemiancoding.com/sketch -->
    <title>basketball [#790]</title>
    <desc>Created with Sketch.</desc>
    <defs></defs>
    <g id="Page-1" stroke="none" stroke-width="1" fill="none" fill-rule="evenodd">
        <g id="Dribbble-Dark-Preview" transform="translate(-380.000000, -4719.000000)" fill="#FFFFFF">
            <g id="icons" transform="translate(56.000000, 160.000000)">
                <path d="M340.5,4573.624 C339.744,4572.569 339.239,4570.978 339.069,4569.978 L341.931,4569.978 C341.761,4570.978 341.256,4572.569 340.5,4573.624 L340.5,4573.624 Z M335,4576.931 L335,4569.978 L337.05,4569.978 C337.242,4571.978 337.988,4573.681 339.119,4575.13 C337.973,4576.087 336.555,4576.735 335,4576.931 L335,4576.931 Z M335,4561.069 C336.555,4561.265 337.973,4561.891 339.119,4562.848 C337.988,4564.297 337.242,4565.978 337.05,4567.978 L335,4567.978 L335,4561.069 Z M341.931,4567.978 L339.069,4567.978 C339.239,4566.978 339.744,4565.387 340.5,4564.332 C341.256,4565.387 341.761,4566.978 341.931,4567.978 L341.931,4567.978 Z M333,4567.978 L330.95,4567.978 C330.758,4565.978 330.012,4564.297 328.881,4562.848 C330.027,4561.891 331.445,4561.265 333,4561.069 L333,4567.978 Z M333,4576.931 C331.445,4576.735 330.027,4576.087 328.881,4575.13 C330.012,4573.681 330.758,4571.978 330.95,4569.978 L333,4569.978 L333,4576.931 Z M326.069,4569.978 L328.931,4569.978 C328.761,4570.978 328.256,4572.569 327.5,4573.624 C326.744,4572.569 326.239,4570.978 326.069,4569.978 L326.069,4569.978 Z M327.5,4564.332 C328.256,4565.387 328.761,4566.978 328.931,4567.978 L326.069,4567.978 C326.239,4566.978 326.744,4565.387 327.5,4564.332 L327.5,4564.332 Z M341.881,4562.859 C341.469,4562.331 341.008,4561.845 340.5,4561.41 C338.751,4559.911 336.484,4559 334,4559 C331.516,4559 329.249,4559.911 327.5,4561.41 C326.992,4561.845 326.531,4562.331 326.119,4562.859 C324.796,4564.555 324,4566.682 324,4569 C324,4571.318 324.796,4573.445 326.119,4575.141 C326.531,4575.669 326.992,4576.155 327.5,4576.59 C329.249,4578.089 331.516,4579 334,4579 C336.484,4579 338.751,4578.089 340.5,4576.59 C341.008,4576.155 341.469,4575.669 341.881,4575.141 C343.204,4573.445 344,4571.318 344,4569 C344,4566.682 343.204,4564.555 341.881,4562.859 L341.881,4562.859 Z" id="basketball-[#790]"></path>
            </g>
        </g>
    </g>
</svg>