<?xml version="1.0" encoding="UTF-8" standalone="no"?>
<svg width="20px" height="20px" viewBox="0 0 20 20" version="1.1" xmlns="http://www.w3.org/2000/svg" xmlns:xlink="http://www.w3.org/1999/xlink">
    <!-- Generator: Sketch 3.8.1 (29687) - http://www.bohemiancoding.com/sketch -->
    <title>bathtub [#49]</title>
    <desc>Created with Sketch.</desc>
    <defs></defs>
    <g id="Page-1" stroke="none" stroke-width="1" fill="none" fill-rule="evenodd">
        <g id="Dribbble-Dark-Preview" transform="translate(-420.000000, -7959.000000)" fill="#FFFFFF">
            <g id="icons" transform="translate(56.000000, 160.000000)">
                <path d="M378.2146,7814.74613 C377.8906,7815.45754 377.1786,7815.91423 376.3926,7815.91423 L371.2496,7815.91423 C370.4696,7815.91423 369.7606,7815.46351 369.4336,7814.75807 L367.6626,7810.93934 L379.9486,7810.93934 L378.2146,7814.74613 Z M382.9996,7808.94938 L367.9996,7808.94938 L367.9996,7802.0502 C367.9996,7801.50098 368.4476,7801.05523 368.9996,7801.05523 C369.5526,7801.05523 369.9996,7801.50098 369.9996,7802.0502 L369.9996,7803.04518 C369.9996,7803.59541 370.4476,7804.04016 370.9996,7804.04016 C371.5526,7804.04016 371.9996,7803.59541 371.9996,7803.04518 L371.9996,7801.05523 C371.9996,7799.95677 371.1046,7798.9996 369.9996,7798.9996 L367.9996,7798.9996 C366.8956,7798.9996 365.9996,7799.95677 365.9996,7801.05523 L365.9996,7808.94938 L364.9996,7808.94938 C364.4476,7808.94938 363.9996,7809.39513 363.9996,7809.94436 C363.9996,7810.49459 364.4476,7810.93934 364.9996,7810.93934 L365.3686,7810.93934 L368.8496,7816.99976 L368.5426,7817.52311 C368.2816,7818.00667 368.4646,7818.58575 368.9516,7818.84544 C369.4376,7819.10413 370.0446,7819.00862 370.3046,7818.52406 L370.6846,7817.90419 L376.9896,7817.90419 L377.3696,7818.51212 C377.6306,7818.99568 378.2366,7819.12901 378.7236,7818.86932 C379.2096,7818.60963 379.3926,7817.98279 379.1326,7817.49824 L378.7936,7816.95498 L382.2436,7810.93934 L382.9996,7810.93934 C383.5526,7810.93934 383.9996,7810.49459 383.9996,7809.94436 C383.9996,7809.39513 383.5526,7808.94938 382.9996,7808.94938 L382.9996,7808.94938 Z" id="bathtub-[#49]"></path>
            </g>
        </g>
    </g>
</svg>