<?xml version="1.0" encoding="UTF-8" standalone="no"?>
<svg width="20px" height="20px" viewBox="0 0 20 20" version="1.1" xmlns="http://www.w3.org/2000/svg" xmlns:xlink="http://www.w3.org/1999/xlink">
    <!-- Generator: Sketch 3.8.1 (29687) - http://www.bohemiancoding.com/sketch -->
    <title>bathtub [#48]</title>
    <desc>Created with Sketch.</desc>
    <defs></defs>
    <g id="Page-1" stroke="none" stroke-width="1" fill="none" fill-rule="evenodd">
        <g id="Dribbble-Dark-Preview" transform="translate(-60.000000, -7999.000000)" fill="#FFFFFF">
            <g id="icons" transform="translate(56.000000, 160.000000)">
                <path d="M17.6741,7855.03753 L15.5071,7850.99601 L19.9481,7850.99601 L17.6741,7855.03753 Z M11.7571,7855.99418 L13.8371,7852.1126 L15.9181,7855.99418 L11.7571,7855.99418 Z M9.9691,7855.09451 L7.6631,7850.99601 L12.1671,7850.99601 L9.9691,7855.09451 Z M23.0001,7848.99674 L15.5071,7848.99674 L8.0001,7848.99674 L8.0001,7841.92833 C8.0001,7841.37653 8.4481,7840.92869 9.0001,7840.92869 C9.5521,7840.92869 10.0001,7841.37653 10.0001,7841.92833 L10.0001,7842.92796 C10.0001,7843.47976 10.4481,7843.9276 11.0001,7843.9276 C11.5521,7843.9276 12.0001,7843.47976 12.0001,7842.92796 L12.0001,7840.92869 C12.0001,7839.8241 11.1041,7839.0004 10.0001,7839.0004 L8.0001,7839.0004 C6.8951,7839.0004 6.0001,7839.8241 6.0001,7840.92869 L6.0001,7848.99674 L5.3681,7848.99674 L5.0001,7848.99674 C4.4481,7848.99674 4.0001,7849.44358 4.0001,7849.99638 C4.0001,7850.54817 4.4481,7850.99601 5.0001,7850.99601 L5.3681,7850.99601 L8.8501,7857.01581 L8.5421,7857.50663 C8.2811,7857.99345 8.4641,7858.55724 8.9511,7858.81815 C9.4381,7859.07905 10.0441,7859.04206 10.3051,7858.55524 L10.6851,7857.99345 L16.9891,7857.99345 L17.3691,7858.53425 C17.6301,7859.02107 18.2361,7859.12104 18.7231,7858.86013 C19.2101,7858.59923 19.3931,7857.95146 19.1321,7857.46564 L18.7941,7856.97982 L22.2431,7850.99601 L23.0001,7850.99601 C23.5521,7850.99601 24.0001,7850.54817 24.0001,7849.99638 C24.0001,7849.44358 23.5521,7848.99674 23.0001,7848.99674 L23.0001,7848.99674 Z" id="bathtub-[#48]"></path>
            </g>
        </g>
    </g>
</svg>