<?xml version="1.0" encoding="UTF-8" standalone="no"?>
<svg width="20px" height="13px" viewBox="0 0 20 13" version="1.1" xmlns="http://www.w3.org/2000/svg" xmlns:xlink="http://www.w3.org/1999/xlink">
    <!-- Generator: Sketch 3.8.1 (29687) - http://www.bohemiancoding.com/sketch -->
    <title>behance [#163]</title>
    <desc>Created with Sketch.</desc>
    <defs></defs>
    <g id="Page-1" stroke="none" stroke-width="1" fill="none" fill-rule="evenodd">
        <g id="Dribbble-Dark-Preview" transform="translate(-100.000000, -7482.000000)" fill="#FFFFFF">
            <g id="icons" transform="translate(56.000000, 160.000000)">
                <path d="M56.981,7324.11726 L62.069,7324.11726 L62.069,7322.65997 L56.981,7322.65997 L56.981,7324.11726 Z M59.489,7327.04322 C58.354,7327.04322 57.492,7327.74656 57.409,7329.04584 L61.481,7329.04584 C61.205,7327.50385 60.52,7327.04322 59.489,7327.04322 L59.489,7327.04322 Z M59.648,7333.06968 C60.696,7333.06968 61.465,7332.40764 61.622,7331.84992 L63.826,7331.84992 C63.196,7333.86701 61.895,7335 59.559,7335 C56.578,7335 54.905,7332.87964 54.905,7330.06626 C54.905,7323.44077 64.465,7323.20323 63.985,7330.68491 L57.409,7330.68491 C57.473,7332.20418 58.1,7333.06968 59.648,7333.06968 L59.648,7333.06968 Z M49.73,7332.77842 C50.933,7332.77842 51.775,7332.31572 51.775,7331.06705 C51.775,7329.77191 51.031,7329.21006 49.782,7329.21006 L46.768,7329.21006 L46.768,7332.77842 L49.73,7332.77842 Z M49.571,7327.26218 C50.572,7327.26218 51.263,7326.79638 51.263,7325.71399 C51.263,7324.57377 50.459,7324.22158 49.36,7324.22158 L46.768,7324.22158 L46.768,7327.26218 L49.571,7327.26218 L49.571,7327.26218 Z M49.924,7322 C52.295,7322 53.943,7322.7839 53.943,7325.22237 C53.943,7326.42973 53.458,7327.32931 52.233,7327.93557 C53.801,7328.40137 54.543,7329.62422 54.543,7331.23127 C54.543,7333.78232 52.52,7335 50.1,7335 L44,7335 L44,7322 L49.924,7322 Z" id="behance-[#163]"></path>
            </g>
        </g>
    </g>
</svg>