<?xml version="1.0" encoding="UTF-8" standalone="no"?>
<svg width="20px" height="20px" viewBox="0 0 20 20" version="1.1" xmlns="http://www.w3.org/2000/svg" xmlns:xlink="http://www.w3.org/1999/xlink">
    <!-- Generator: Sketch 3.8.1 (29687) - http://www.bohemiancoding.com/sketch -->
    <title>bike [#600]</title>
    <desc>Created with Sketch.</desc>
    <defs></defs>
    <g id="Page-1" stroke="none" stroke-width="1" fill="none" fill-rule="evenodd">
        <g id="Dribbble-Dark-Preview" transform="translate(-380.000000, -5519.000000)" fill="#FFFFFF">
            <g id="icons" transform="translate(56.000000, 160.000000)">
                <path d="M340,5377 C338.897,5377 338,5376.103 338,5375 C338,5373.897 338.897,5373 340,5373 C341.103,5373 342,5373.897 342,5375 C342,5376.103 341.103,5377 340,5377 M330,5375 C330,5376.103 329.103,5377 328,5377 C326.897,5377 326,5376.103 326,5375 C326,5373.897 326.897,5373 328,5373 C329.103,5373 330,5373.897 330,5375 M341,5371.141 L341,5359 L335,5359 L335,5361 L339,5361 L339,5365.992 L329,5368.469 L329,5367 L331,5367 L331,5365 L325,5365 L325,5367 L327,5367 L327,5371.141 C325.278,5371.587 324,5373.138 324,5375 C324,5377.209 325.791,5379 328,5379 C330.209,5379 332,5377.209 332,5375 C332,5373.138 330.722,5371.587 329,5371.141 L329,5370.529 L339,5368.052 L339,5371.141 C337.278,5371.587 336,5373.138 336,5375 C336,5377.209 337.791,5379 340,5379 C342.209,5379 344,5377.209 344,5375 C344,5373.138 342.722,5371.587 341,5371.141" id="bike-[#600]"></path>
            </g>
        </g>
    </g>
</svg>