<?xml version="1.0" encoding="UTF-8" standalone="no"?>
<svg width="20px" height="20px" viewBox="0 0 20 20" version="1.1" xmlns="http://www.w3.org/2000/svg" xmlns:xlink="http://www.w3.org/1999/xlink">
    <!-- Generator: Sketch 3.8.1 (29687) - http://www.bohemiancoding.com/sketch -->
    <title>biliard [#789]</title>
    <desc>Created with Sketch.</desc>
    <defs></defs>
    <g id="Page-1" stroke="none" stroke-width="1" fill="none" fill-rule="evenodd">
        <g id="Dribbble-Dark-Preview" transform="translate(-420.000000, -4719.000000)" fill="#FFFFFF">
            <g id="icons" transform="translate(56.000000, 160.000000)">
                <path d="M376.926,4571.707 C377.023,4571.451 377.082,4571.183 377.082,4570.907 C377.082,4569.971 376.59,4569.204 375.475,4568.64 C376.362,4568.137 376.758,4567.621 376.758,4566.842 C376.758,4566.517 376.69,4566.223 376.569,4565.96 C377.436,4566.695 378,4567.777 378,4569 C378,4570.047 377.587,4570.993 376.926,4571.707 M371.5,4565.903 C371.337,4566.204 371.241,4566.548 371.241,4566.937 C371.241,4567.861 371.589,4568.341 372.441,4568.881 C371.505,4569.288 370.917,4570.008 370.917,4570.955 C370.917,4571.203 370.967,4571.441 371.043,4571.671 C370.402,4570.961 370,4570.03 370,4569 C370,4567.745 370.593,4566.636 371.5,4565.903 M374.011,4565.93 C374.647,4565.93 374.959,4566.349 374.959,4566.949 C374.959,4567.417 374.803,4567.789 374.252,4568.185 C373.424,4567.873 373.04,4567.525 373.04,4566.937 C373.04,4566.278 373.388,4565.93 374.011,4565.93 M374.011,4572.011 C373.208,4572.011 372.812,4571.531 372.812,4570.836 C372.812,4570.176 373.112,4569.695 373.604,4569.385 C374.719,4569.779 375.187,4570.068 375.187,4570.895 C375.187,4571.495 374.839,4572.011 374.011,4572.011 M374,4563 C370.686,4563 368,4565.687 368,4569 C368,4572.314 370.686,4575 374,4575 C377.313,4575 380,4572.314 380,4569 C380,4565.687 377.313,4563 374,4563 M374,4577 C369.588,4577 366,4573.411 366,4569 C366,4564.589 369.588,4561 374,4561 C378.411,4561 382,4564.589 382,4569 C382,4573.411 378.411,4577 374,4577 M374,4559 C368.477,4559 364,4563.477 364,4569 C364,4574.523 368.477,4579 374,4579 C379.522,4579 384,4574.523 384,4569 C384,4563.477 379.522,4559 374,4559" id="biliard-[#789]"></path>
            </g>
        </g>
    </g>
</svg>