<?xml version="1.0" encoding="UTF-8" standalone="no"?>
<svg width="15px" height="24px" viewBox="0 0 15 24" version="1.1" xmlns="http://www.w3.org/2000/svg" xmlns:xlink="http://www.w3.org/1999/xlink">
    <!-- Generator: Sketch 3.8.1 (29687) - http://www.bohemiancoding.com/sketch -->
    <title>bitcoin [#1186]</title>
    <desc>Created with Sketch.</desc>
    <defs></defs>
    <g id="Page-1" stroke="none" stroke-width="1" fill="none" fill-rule="evenodd">
        <g id="Dribbble-Dark-Preview" transform="translate(-182.000000, -2917.000000)" fill="#FFFFFF">
            <g id="icons" transform="translate(56.000000, 160.000000)">
                <path d="M127.935517,2777 L127.935517,2770 L135.9263,2769.988 C140.180567,2770.252 140.105082,2776.963 135.677586,2776.963 L127.935517,2777 Z M127.935517,2768 L127.935517,2761 L135.677586,2761 C140.105082,2761 140.180567,2767.711 135.9263,2767.975 L127.935517,2768 Z M138.925384,2768.982 C142.52351,2766.256 141.441556,2759 135.677586,2759 L135.677586,2757 L133.742069,2757 L133.742069,2759 L131.806552,2759 L131.806552,2757 L129.871034,2757 L129.871034,2759 L126,2759 L126,2779 L129.871034,2779 L129.871034,2781 L131.806552,2781 L131.806552,2779 L133.742069,2779 L133.742069,2781 L135.677586,2781 L135.677586,2779 L135.677586,2778.963 C141.441556,2778.963 142.52351,2771.707 138.925384,2768.982 L138.925384,2768.982 Z" id="bitcoin-[#1186]"></path>
            </g>
        </g>
    </g>
</svg>