<?xml version="1.0" encoding="UTF-8" standalone="no"?>
<svg width="16px" height="20px" viewBox="0 0 16 20" version="1.1" xmlns="http://www.w3.org/2000/svg" xmlns:xlink="http://www.w3.org/1999/xlink">
    <!-- Generator: Sketch 3.8.1 (29687) - http://www.bohemiancoding.com/sketch -->
    <title>blender [#803]</title>
    <desc>Created with Sketch.</desc>
    <defs></defs>
    <g id="Page-1" stroke="none" stroke-width="1" fill="none" fill-rule="evenodd">
        <g id="Dribbble-Dark-Preview" transform="translate(-262.000000, -4679.000000)" fill="#FFFFFF">
            <g id="icons" transform="translate(56.000000, 160.000000)">
                <path d="M216.814721,4531 L217.69148,4525 L218.665429,4525 C219.310977,4525 219.794882,4525.577 219.668023,4526.196 L218.849579,4530.196 C218.754435,4530.664 218.333959,4531 217.846984,4531 L216.814721,4531 Z M209.673793,4532.141 L208.337682,4523 L215.937962,4523 L214.601852,4532.141 C214.530238,4532.634 214.098508,4533 213.589027,4533 L210.686618,4533 C210.178159,4533 209.74643,4532.634 209.673793,4532.141 L209.673793,4532.141 Z M220.65118,4531.392 L221.966829,4524.961 C222.17451,4523.947 221.380618,4523 220.322779,4523 L217.984074,4523 L218.276668,4521 L216.230556,4521 L213.161389,4521 L213.161389,4520 C213.161389,4519.448 212.610986,4519 212.046259,4519 L212.000221,4519 C211.434472,4519 211.115278,4519.448 211.115278,4520 L211.115278,4521 L208.046111,4521 L206,4521 L207.79444,4533.283 C207.93869,4534.268 208.802149,4535 209.82009,4535 L210.092223,4535 L211.115278,4535 L211.115278,4537 L209.069167,4537 C208.503417,4537 208.046111,4537.448 208.046111,4538 C208.046111,4538.552 208.503417,4539 209.069167,4539 L211.434472,4539 L213.480583,4539 L215.207501,4539 C215.772227,4539 216.230556,4538.552 216.230556,4538 C216.230556,4537.448 215.772227,4537 215.207501,4537 L213.161389,4537 L213.161389,4535 L214.184445,4535 L214.455555,4535 C215.473495,4535 216.336954,4534.268 216.481205,4533.283 L216.522127,4533 L218.644968,4533 C219.61994,4533 220.459868,4532.327 220.65118,4531.392 L220.65118,4531.392 Z" id="blender-[#803]"></path>
            </g>
        </g>
    </g>
</svg>