<?xml version="1.0" encoding="UTF-8" standalone="no"?>
<svg width="16px" height="20px" viewBox="0 0 16 20" version="1.1" xmlns="http://www.w3.org/2000/svg" xmlns:xlink="http://www.w3.org/1999/xlink">
    <!-- Generator: Sketch 3.8.1 (29687) - http://www.bohemiancoding.com/sketch -->
    <title>blender [#802]</title>
    <desc>Created with Sketch.</desc>
    <defs></defs>
    <g id="Page-1" stroke="none" stroke-width="1" fill="none" fill-rule="evenodd">
        <g id="Dribbble-Dark-Preview" transform="translate(-302.000000, -4679.000000)" fill="#FFFFFF">
            <g id="icons" transform="translate(56.000000, 160.000000)">
                <path d="M256.571,4531 L257.428,4525 L259.6,4525 L258.4,4531 L256.571,4531 Z M249.714,4533 L248.285,4523 L255.714,4523 L254.285,4533 L249.714,4533 Z M260,4523 L257.714,4523 L258,4521 L256,4521 L253,4521 L253,4519 L251,4519 L251,4521 L248,4521 L246,4521 L248,4535 L250,4535 L251,4535 L251,4537 L248,4537 L248,4539 L251,4539 L253,4539 L256,4539 L256,4537 L253,4537 L253,4535 L254,4535 L256,4535 L256.285,4533 L258,4533 L259,4533 L260,4533 L262,4523 L260,4523 Z" id="blender-[#802]"></path>
            </g>
        </g>
    </g>
</svg>