<?xml version="1.0" encoding="UTF-8" standalone="no"?>
<svg width="20px" height="20px" viewBox="0 0 20 20" version="1.1" xmlns="http://www.w3.org/2000/svg" xmlns:xlink="http://www.w3.org/1999/xlink">
    <!-- Generator: Sketch 3.8.1 (29687) - http://www.bohemiancoding.com/sketch -->
    <title>bomb [#778]</title>
    <desc>Created with Sketch.</desc>
    <defs></defs>
    <g id="Page-1" stroke="none" stroke-width="1" fill="none" fill-rule="evenodd">
        <g id="Dribbble-Dark-Preview" transform="translate(-60.000000, -4799.000000)" fill="#FFFFFF">
            <g id="icons" transform="translate(56.000000, 160.000000)">
                <path d="M17.0789427,4657 C14.353153,4657 12.1355446,4654.757 12.1355446,4652 C12.1355446,4650.789 12.5804504,4649.692 13.2913111,4648.826 L13.9408736,4648.169 C14.7970701,4647.45 15.8816517,4647 17.0789427,4647 C19.8047324,4647 22.0223408,4649.243 22.0223408,4652 C22.0223408,4654.757 19.8047324,4657 17.0789427,4657 L17.0789427,4657 Z M11.5967142,4647.712 L10.1977325,4646.298 L11.5967142,4644.884 L12.9947072,4646.298 L12.7584127,4646.537 C12.3589862,4646.86 11.9971294,4647.226 11.6777859,4647.63 L11.5967142,4647.712 Z M17.0789427,4645 C16.3067839,4645 15.5662629,4645.133 14.8731984,4645.369 L11.5967142,4642.055 L10.0850231,4643.469 L7.95441847,4641.429 L7.95441847,4641 L7.95441847,4639 L6.20346687,4639 L3.9997,4639 L3.9997,4641 L6.20742159,4641 L6.20939895,4642.263 L8.79973955,4644.884 L7.40174657,4646.298 L10.6060572,4649.539 C10.3213175,4650.306 10.1581853,4651.133 10.1581853,4652 C10.1581853,4655.866 13.2567073,4659 17.0789427,4659 C20.9011781,4659 23.9997,4655.866 23.9997,4652 C23.9997,4648.134 20.9011781,4645 17.0789427,4645 L17.0789427,4645 Z" id="bomb-[#778]"></path>
            </g>
        </g>
    </g>
</svg>