<?xml version="1.0" encoding="UTF-8" standalone="no"?>
<svg width="20px" height="20px" viewBox="0 0 20 20" version="1.1" xmlns="http://www.w3.org/2000/svg" xmlns:xlink="http://www.w3.org/1999/xlink">
    <!-- Generator: Sketch 3.8.1 (29687) - http://www.bohemiancoding.com/sketch -->
    <title>bomb [#777]</title>
    <desc>Created with Sketch.</desc>
    <defs></defs>
    <g id="Page-1" stroke="none" stroke-width="1" fill="none" fill-rule="evenodd">
        <g id="Dribbble-Dark-Preview" transform="translate(-100.000000, -4799.000000)" fill="#FFFFFF">
            <g id="icons" transform="translate(56.000000, 160.000000)">
                <path d="M55.6604062,4656.82756 C52.1517753,4655.93299 50.8435918,4651.53436 53.1235976,4648.79851 L53.7852424,4648.13962 C56.8437132,4645.61136 61.6303156,4647.56095 61.9948748,4651.50628 C62.3141159,4654.96321 59.0089131,4657.68201 55.6604062,4656.82756 L55.6604062,4656.82756 Z M51.3974801,4647.6813 C50.8516483,4647.13774 49.879826,4646.35549 50.6844747,4645.55419 C51.4911376,4644.75089 52.2756449,4645.71967 52.8214767,4646.26323 L52.580787,4646.50292 C52.1739309,4646.82685 51.8053433,4647.1939 51.4800598,4647.59906 L51.3974801,4647.6813 Z M44.3288577,4640.64209 L48.5484799,4644.84416 C46.8475391,4646.61925 49.2081105,4648.33819 50.3883962,4649.51356 C48.4296456,4654.69845 53.258545,4660.10096 58.6433468,4658.80524 C63.369525,4657.66897 65.5528521,4651.96761 62.7723326,4647.98718 C60.9978758,4645.44889 57.6896517,4644.34171 54.7349092,4645.33155 C53.5465669,4644.14816 51.7791595,4641.70916 49.9724765,4643.42608 C48.9734633,4642.43123 47.9734431,4641.43537 46.9744299,4640.44051 C46.585701,4640.0534 46.211071,4639.58405 45.777024,4639.24809 C44.7790179,4638.47587 43.3479718,4639.66529 44.3288577,4640.64209 L44.3288577,4640.64209 Z" id="bomb-[#777]"></path>
            </g>
        </g>
    </g>
</svg>