<?xml version="1.0" encoding="UTF-8" standalone="no"?>
<svg width="10px" height="20px" viewBox="0 0 10 20" version="1.1" xmlns="http://www.w3.org/2000/svg" xmlns:xlink="http://www.w3.org/1999/xlink">
    <!-- Generator: Sketch 3.8.1 (29687) - http://www.bohemiancoding.com/sketch -->
    <title>bookmark [#1244]</title>
    <desc>Created with Sketch.</desc>
    <defs></defs>
    <g id="Page-1" stroke="none" stroke-width="1" fill="none" fill-rule="evenodd">
        <g id="Dribbble-Dark-Preview" transform="translate(-385.000000, -2599.000000)" fill="#FFFFFF">
            <g id="icons" transform="translate(56.000000, 160.000000)">
                <path d="M337,2455.584 C336.346,2454.93 335.836,2454.304 335,2453.998 L335,2441 L336,2441 C336.552,2441 337,2441.448 337,2442 L337,2455.584 Z M333,2454.009 C332.148,2454.311 331.705,2454.879 331,2455.584 L331,2442 C331,2441.448 331.448,2441 332,2441 L333,2441 L333,2454.009 Z M337,2439 L331,2439 C329.895,2439 329,2439.896 329,2441 L329,2457.998 C329,2458.601 329.493,2459 330.007,2459 C330.253,2459 330.503,2458.909 330.707,2458.705 L333.293,2456.12 C333.488,2455.924 333.744,2455.827 334,2455.827 C334.256,2455.827 334.512,2455.924 334.707,2456.12 L337.293,2458.705 C337.497,2458.909 337.747,2459 337.993,2459 C338.507,2459 339,2458.601 339,2457.998 L339,2441 C339,2439.896 338.105,2439 337,2439 L337,2439 Z" id="bookmark-[#1244]"></path>
            </g>
        </g>
    </g>
</svg>