<?xml version="1.0" encoding="UTF-8" standalone="no"?>
<svg width="20px" height="19px" viewBox="0 0 20 19" version="1.1" xmlns="http://www.w3.org/2000/svg" xmlns:xlink="http://www.w3.org/1999/xlink">
    <!-- Generator: Sketch 3.8.1 (29687) - http://www.bohemiancoding.com/sketch -->
    <title>book [#1207]</title>
    <desc>Created with Sketch.</desc>
    <defs></defs>
    <g id="Page-1" stroke="none" stroke-width="1" fill="none" fill-rule="evenodd">
        <g id="Dribbble-Dark-Preview" transform="translate(-260.000000, -2759.000000)" fill="#FFFFFF">
            <g id="icons" transform="translate(56.000000, 160.000000)">
                <path d="M222,2612.40709 C222,2612.84565 221.729,2613.23594 221.324,2613.3787 L215,2615.60539 L215,2603.71501 L215,2603.53322 L220.676,2601.53454 C221.325,2601.3055 222,2601.80055 222,2602.50615 L222,2612.40709 Z M213,2603.71501 L213,2615.60539 L206.676,2613.3787 C206.271,2613.23594 206,2612.84565 206,2612.40709 L206,2602.50615 C206,2601.80055 206.675,2601.3055 207.324,2601.53454 L213,2603.53322 L213,2603.71501 Z M221.337,2599.11785 L214.331,2601.64444 C214.117,2601.72147 213.883,2601.72147 213.669,2601.64444 L206.663,2599.11785 C205.362,2598.64847 204,2599.6396 204,2601.05592 L204,2613.11577 C204,2613.997 204.547,2614.78065 205.36,2615.06207 L213.68,2617.94608 C213.888,2618.01797 214.112,2618.01797 214.32,2617.94608 L222.64,2615.06207 C223.453,2614.78065 224,2613.997 224,2613.11577 L224,2601.05592 C224,2599.6396 222.638,2598.64847 221.337,2599.11785 L221.337,2599.11785 Z" id="book-[#1207]"></path>
            </g>
        </g>
    </g>
</svg>