<?xml version="1.0" encoding="UTF-8" standalone="no"?>
<svg width="10px" height="20px" viewBox="0 0 10 20" version="1.1" xmlns="http://www.w3.org/2000/svg" xmlns:xlink="http://www.w3.org/1999/xlink">
    <!-- Generator: Sketch 3.8.1 (29687) - http://www.bohemiancoding.com/sketch -->
    <title>bookmark_circle [#1232]</title>
    <desc>Created with Sketch.</desc>
    <defs></defs>
    <g id="Page-1" stroke="none" stroke-width="1" fill="none" fill-rule="evenodd">
        <g id="Dribbble-Dark-Preview" transform="translate(-65.000000, -2679.000000)" fill="#FFFFFF">
            <g id="icons" transform="translate(56.000000, 160.000000)">
                <path d="M15.094,2524 C15.094,2524.552 14.646,2525 14.094,2525 C13.542,2525 13.094,2524.552 13.094,2524 C13.094,2523.448 13.542,2523 14.094,2523 C14.646,2523 15.094,2523.448 15.094,2524 L15.094,2524 Z M17,2535.584 L16.246,2534.783 C14.839,2533.375 12.95,2533.668 11.914,2534.705 L11,2535.584 L11,2522 C11,2521.448 11.542,2521 12.094,2521 L16.094,2521 C16.646,2521 17,2521.448 17,2522 L17,2535.584 Z M17.094,2519 L11.094,2519 C9.989,2519 9,2519.895 9,2521 L9,2537.998 C9,2538.875 10.144,2539.339 10.777,2538.705 L13.375,2536.119 C13.766,2535.729 14.408,2535.729 14.798,2536.119 L17.385,2538.705 C18.016,2539.336 19,2538.883 19,2537.998 L19,2521 C19,2519.895 18.199,2519 17.094,2519 L17.094,2519 Z" id="bookmark_circle-[#1232]"></path>
            </g>
        </g>
    </g>
</svg>