<?xml version="1.0" encoding="UTF-8" standalone="no"?>
<svg width="10px" height="20px" viewBox="0 0 10 20" version="1.1" xmlns="http://www.w3.org/2000/svg" xmlns:xlink="http://www.w3.org/1999/xlink">
    <!-- Generator: Sketch 3.8.1 (29687) - http://www.bohemiancoding.com/sketch -->
    <title>bookmark_circle_fill [#1242]</title>
    <desc>Created with Sketch.</desc>
    <defs></defs>
    <g id="Page-1" stroke="none" stroke-width="1" fill="none" fill-rule="evenodd">
        <g id="Dribbble-Dark-Preview" transform="translate(-65.000000, -2639.000000)" fill="#FFFFFF">
            <g id="icons" transform="translate(56.000000, 160.000000)">
                <path d="M16,2486 C16,2486.552 15.552,2487 15,2487 L13,2487 C12.448,2487 12,2486.552 12,2486 L12,2484 C12,2483.448 12.448,2483 13,2483 L15,2483 C15.552,2483 16,2483.448 16,2484 L16,2486 Z M17,2479 L11,2479 C9.895,2479 9,2479.895 9,2481 L9,2497.998 C9,2498.889 10.077,2499.335 10.707,2498.705 L13.293,2496.119 C13.683,2495.729 14.317,2495.729 14.707,2496.119 L17.293,2498.705 C17.923,2499.335 19,2498.889 19,2497.998 L19,2481 C19,2479.895 18.105,2479 17,2479 L17,2479 Z" id="bookmark_circle_fill-[#1242]"></path>
            </g>
        </g>
    </g>
</svg>