<?xml version="1.0" encoding="UTF-8" standalone="no"?>
<svg width="20px" height="20px" viewBox="0 0 20 20" version="1.1" xmlns="http://www.w3.org/2000/svg" xmlns:xlink="http://www.w3.org/1999/xlink">
    <!-- Generator: Sketch 3.8.1 (29687) - http://www.bohemiancoding.com/sketch -->
    <title>bookmark [#1230]</title>
    <desc>Created with Sketch.</desc>
    <defs></defs>
    <g id="Page-1" stroke="none" stroke-width="1" fill="none" fill-rule="evenodd">
        <g id="Dribbble-Dark-Preview" transform="translate(-140.000000, -2679.000000)" fill="#FFFFFF">
            <g id="icons" transform="translate(56.000000, 160.000000)">
                <path d="M101.286,2525.91818 L91.7104195,2535.56815 L91.7394971,2533.33235 L91.7394971,2533.33235 C91.7535346,2532.21346 90.8360838,2531.30261 89.709073,2531.31655 L87.457057,2531.34442 L97.0316346,2521.69446 C97.4236819,2521.30623 98.0583775,2521.30623 98.4504248,2521.69446 L101.286,2524.51061 C101.678047,2524.89883 101.678047,2525.52896 101.286,2525.91818 M103.412681,2523.80682 L99.1593185,2519.58309 C98.3762266,2518.80564 97.1058328,2518.80564 96.3227409,2519.58309 L84.2956115,2531.66695 C83.6599132,2532.29907 84.1181373,2533.37814 85.01754,2533.3662 L88.7053918,2533.32041 C89.2698998,2533.31344 89.7281239,2533.76836 89.7211052,2534.32781 L89.6739793,2537.9901 C89.6629498,2538.88302 90.7498534,2539.33795 91.3855516,2538.70583 L103.412681,2526.62197 C104.195773,2525.84452 104.195773,2524.58427 103.412681,2523.80682" id="bookmark-[#1230]"></path>
            </g>
        </g>
    </g>
</svg>