<?xml version="1.0" encoding="UTF-8" standalone="no"?>
<svg width="20px" height="20px" viewBox="0 0 20 20" version="1.1" xmlns="http://www.w3.org/2000/svg" xmlns:xlink="http://www.w3.org/1999/xlink">
    <!-- Generator: Sketch 3.8.1 (29687) - http://www.bohemiancoding.com/sketch -->
    <title>bookmark [#1246]</title>
    <desc>Created with Sketch.</desc>
    <defs></defs>
    <g id="Page-1" stroke="none" stroke-width="1" fill="none" fill-rule="evenodd">
        <g id="Dribbble-Dark-Preview" transform="translate(-300.000000, -2599.000000)" fill="#FFFFFF">
            <g id="icons" transform="translate(56.000000, 160.000000)">
                <path d="M261.286,2445.91818 L260.572093,2446.6379 L256.317727,2442.41517 L257.031635,2441.69446 C257.423682,2441.30623 258.058377,2441.30623 258.450425,2441.69446 L261.286,2444.51061 C261.678047,2444.89883 261.678047,2445.52896 261.286,2445.91818 L261.286,2445.91818 Z M251.710419,2455.56815 L251.739497,2453.33235 L251.739497,2453.33235 C251.753535,2452.21346 250.836084,2451.30261 249.709073,2451.31655 L247.457057,2451.34442 L254.909967,2443.8327 L259.164332,2448.05643 L251.710419,2455.56815 Z M263.412681,2443.80682 L259.159319,2439.58309 C258.376227,2438.80564 257.105833,2438.80564 256.322741,2439.58309 L244.295611,2451.66695 C243.659913,2452.29907 244.118137,2453.37814 245.01754,2453.3662 L248.705392,2453.32041 C249.2699,2453.31344 249.728124,2453.76836 249.721105,2454.32781 L249.673979,2457.9901 C249.66295,2458.88302 250.749853,2459.33795 251.385552,2458.70583 L263.412681,2446.62197 C264.195773,2445.84452 264.195773,2444.58427 263.412681,2443.80682 L263.412681,2443.80682 Z" id="bookmark-[#1246]"></path>
            </g>
        </g>
    </g>
</svg>