<?xml version="1.0" encoding="UTF-8" standalone="no"?>
<svg width="10px" height="20px" viewBox="0 0 10 20" version="1.1" xmlns="http://www.w3.org/2000/svg" xmlns:xlink="http://www.w3.org/1999/xlink">
    <!-- Generator: Sketch 3.8.1 (29687) - http://www.bohemiancoding.com/sketch -->
    <title>bookmark_minus_fill [#1241]</title>
    <desc>Created with Sketch.</desc>
    <defs></defs>
    <g id="Page-1" stroke="none" stroke-width="1" fill="none" fill-rule="evenodd">
        <g id="Dribbble-Dark-Preview" transform="translate(-105.000000, -2639.000000)" fill="#FFFFFF">
            <g id="icons" transform="translate(56.000000, 160.000000)">
                <path d="M56.053,2486 L52.053,2486 C51.501,2486 51.053,2485.552 51.053,2485 C51.053,2484.448 51.501,2484 52.053,2484 L56.053,2484 C56.605,2484 57.053,2484.448 57.053,2485 C57.053,2485.552 56.605,2486 56.053,2486 M57.053,2479 L51.053,2479 C49.948,2479 49,2479.895 49,2481 L49,2497.998 C49,2498.889 50.104,2499.335 50.733,2498.705 L53.333,2496.119 C53.723,2495.729 54.363,2495.729 54.753,2496.119 L57.316,2498.705 C57.946,2499.335 59,2498.889 59,2497.998 L59,2481 C59,2479.895 58.158,2479 57.053,2479" id="bookmark_minus_fill-[#1241]"></path>
            </g>
        </g>
    </g>
</svg>