<?xml version="1.0" encoding="UTF-8" standalone="no"?>
<svg width="10px" height="20px" viewBox="0 0 10 20" version="1.1" xmlns="http://www.w3.org/2000/svg" xmlns:xlink="http://www.w3.org/1999/xlink">
    <!-- Generator: Sketch 3.8.1 (29687) - http://www.bohemiancoding.com/sketch -->
    <title>bookmark_close_fill [#1239]</title>
    <desc>Created with Sketch.</desc>
    <defs></defs>
    <g id="Page-1" stroke="none" stroke-width="1" fill="none" fill-rule="evenodd">
        <g id="Dribbble-Dark-Preview" transform="translate(-185.000000, -2639.000000)" fill="#FFFFFF">
            <g id="icons" transform="translate(56.000000, 160.000000)">
                <path d="M136.121,2485.707 C136.512,2486.098 136.512,2486.731 136.121,2487.121 C135.73,2487.512 135.097,2487.512 134.707,2487.121 L134,2486.414 L133.293,2487.121 C132.902,2487.512 132.269,2487.512 131.878,2487.121 C131.488,2486.731 131.488,2486.098 131.878,2485.707 L132.585,2485 L131.878,2484.293 C131.488,2483.902 131.488,2483.269 131.878,2482.879 C132.269,2482.488 132.902,2482.488 133.293,2482.879 L134,2483.586 L134.707,2482.879 C135.097,2482.488 135.73,2482.488 136.121,2482.879 C136.512,2483.269 136.512,2483.902 136.121,2484.293 L135.414,2485 L136.121,2485.707 Z M137,2479 L131,2479 C129.895,2479 129,2479.895 129,2481 L129,2497.998 C129,2498.889 130.077,2499.335 130.707,2498.705 L133.293,2496.119 C133.683,2495.729 134.316,2495.729 134.707,2496.119 L137.293,2498.705 C137.923,2499.335 139,2498.889 139,2497.998 L139,2481 C139,2479.895 138.104,2479 137,2479 L137,2479 Z" id="bookmark_close_fill-[#1239]"></path>
            </g>
        </g>
    </g>
</svg>