<?xml version="1.0" encoding="UTF-8" standalone="no"?>
<svg width="10px" height="20px" viewBox="0 0 10 20" version="1.1" xmlns="http://www.w3.org/2000/svg" xmlns:xlink="http://www.w3.org/1999/xlink">
    <!-- Generator: Sketch 3.8.1 (29687) - http://www.bohemiancoding.com/sketch -->
    <title>bookmark [#1231]</title>
    <desc>Created with Sketch.</desc>
    <defs></defs>
    <g id="Page-1" stroke="none" stroke-width="1" fill="none" fill-rule="evenodd">
        <g id="Dribbble-Dark-Preview" transform="translate(-105.000000, -2679.000000)" fill="#FFFFFF">
            <g id="icons" transform="translate(56.000000, 160.000000)">
                <path d="M57,2535.584 L56.199,2534.783 C54.851,2533.435 52.98,2533.603 51.879,2534.705 L51,2535.584 L51,2522 C51,2521.448 51.448,2521 52,2521 L56,2521 C56.552,2521 57,2521.448 57,2522 L57,2535.584 Z M57,2519 L51,2519 C49.895,2519 49,2519.896 49,2521 L49,2537.998 C49,2538.887 50.076,2539.336 50.707,2538.705 L53.293,2536.12 C53.683,2535.729 54.317,2535.729 54.707,2536.12 L57.293,2538.705 C57.924,2539.336 59,2538.887 59,2537.998 L59,2521 C59,2519.896 58.105,2519 57,2519 L57,2519 Z" id="bookmark-[#1231]"></path>
            </g>
        </g>
    </g>
</svg>