<?xml version="1.0" encoding="UTF-8" standalone="no"?>
<svg width="20px" height="20px" viewBox="0 0 20 20" version="1.1" xmlns="http://www.w3.org/2000/svg" xmlns:xlink="http://www.w3.org/1999/xlink">
    <!-- Generator: Sketch 3.8.1 (29687) - http://www.bohemiancoding.com/sketch -->
    <title>bowling [#788]</title>
    <desc>Created with Sketch.</desc>
    <defs></defs>
    <g id="Page-1" stroke="none" stroke-width="1" fill="none" fill-rule="evenodd">
        <g id="Dribbble-Dark-Preview" transform="translate(-60.000000, -4759.000000)" fill="#FFFFFF">
            <g id="icons" transform="translate(56.000000, 160.000000)">
                <path d="M17.713,4608.2079 C17.956,4608.7039 17.751,4609.3029 17.255,4609.5459 C16.759,4609.7889 16.16,4609.5839 15.917,4609.0879 C15.674,4608.5919 15.879,4607.9929 16.375,4607.7499 C16.871,4607.5069 17.47,4607.7119 17.713,4608.2079 M15.037,4607.2919 C15.28,4607.7879 15.075,4608.3869 14.579,4608.6299 C14.083,4608.8729 13.484,4608.6679 13.241,4608.1719 C12.998,4607.6759 13.203,4607.0769 13.699,4606.8339 C14.195,4606.5909 14.794,4606.7959 15.037,4607.2919 M18.629,4605.5319 C18.872,4606.0279 18.667,4606.6269 18.171,4606.8699 C17.675,4607.1129 17.076,4606.9079 16.833,4606.4119 C16.59,4605.9159 16.795,4605.3169 17.291,4605.0739 C17.787,4604.8309 18.386,4605.0359 18.629,4605.5319 M14,4616.9999 C9.589,4616.9999 6,4613.4109 6,4608.9999 C6,4604.5889 9.589,4600.9999 14,4600.9999 C18.411,4600.9999 22,4604.5889 22,4608.9999 C22,4613.4109 18.411,4616.9999 14,4616.9999 M14,4598.9999 C8.477,4598.9999 4,4603.4769 4,4608.9999 C4,4614.5229 8.477,4618.9999 14,4618.9999 C19.523,4618.9999 24,4614.5229 24,4608.9999 C24,4603.4769 19.523,4598.9999 14,4598.9999" id="bowling-[#788]"></path>
            </g>
        </g>
    </g>
</svg>