<?xml version="1.0" encoding="UTF-8" standalone="no"?>
<svg width="20px" height="16px" viewBox="0 0 20 16" version="1.1" xmlns="http://www.w3.org/2000/svg" xmlns:xlink="http://www.w3.org/1999/xlink">
    <!-- Generator: Sketch 3.8.1 (29687) - http://www.bohemiancoding.com/sketch -->
    <title>briefcase [#807]</title>
    <desc>Created with Sketch.</desc>
    <defs></defs>
    <g id="Page-1" stroke="none" stroke-width="1" fill="none" fill-rule="evenodd">
        <g id="Dribbble-Dark-Preview" transform="translate(-100.000000, -4681.000000)" fill="#FFFFFF">
            <g id="icons" transform="translate(56.000000, 160.000000)">
                <path d="M50,4531 L58,4531 L58,4529 L50,4529 L50,4531 Z M46,4535 L62,4535 L62,4527 L46,4527 L46,4535 Z M52,4525 L56,4525 L56,4523 L52,4523 L52,4525 Z M58,4525 L58,4523 L58,4522 L58,4521 L50,4521 L50,4522 L50,4523 L50,4525 L44,4525 L44,4526 L44,4527 L44,4535 L44,4536 L44,4537 L64,4537 L64,4536 L64,4535 L64,4527 L64,4526 L64,4525 L58,4525 Z" id="briefcase-[#807]"></path>
            </g>
        </g>
    </g>
</svg>