<?xml version="1.0" encoding="UTF-8" standalone="no"?>
<svg width="20px" height="20px" viewBox="0 0 20 20" version="1.1" xmlns="http://www.w3.org/2000/svg" xmlns:xlink="http://www.w3.org/1999/xlink">
    <!-- Generator: Sketch 3.8.1 (29687) - http://www.bohemiancoding.com/sketch -->
    <title>brightness [#859]</title>
    <desc>Created with Sketch.</desc>
    <defs></defs>
    <g id="Page-1" stroke="none" stroke-width="1" fill="none" fill-rule="evenodd">
        <g id="Dribbble-Dark-Preview" transform="translate(-100.000000, -4399.000000)" fill="#FFFFFF">
            <g id="icons" transform="translate(56.000000, 160.000000)">
                <path d="M48.3431,4241.9289 C48.7341,4242.3199 48.7341,4242.9529 48.3431,4243.3429 C48.1481,4243.5379 47.8921,4243.6359 47.6361,4243.6359 C47.3801,4243.6359 47.1241,4243.5379 46.9291,4243.3429 C46.5381,4242.9529 46.5381,4242.3199 46.9291,4241.9289 C47.1241,4241.7339 47.3801,4241.6359 47.6361,4241.6359 C47.8921,4241.6359 48.1481,4241.7339 48.3431,4241.9289 M61.0711,4254.6569 C61.4611,4255.0469 61.4611,4255.6809 61.0711,4256.0709 C60.8761,4256.2659 60.6201,4256.3639 60.3641,4256.3639 C60.1081,4256.3639 59.8521,4256.2659 59.6571,4256.0709 C59.2661,4255.6809 59.2661,4255.0469 59.6571,4254.6569 C59.8521,4254.4619 60.1081,4254.3639 60.3641,4254.3639 C60.6201,4254.3639 60.8761,4254.4619 61.0711,4254.6569 M55.0001,4257.9999 C55.0001,4258.5519 54.5521,4258.9999 54.0001,4258.9999 C53.4481,4258.9999 53.0001,4258.5519 53.0001,4257.9999 C53.0001,4257.4479 53.4481,4256.9999 54.0001,4256.9999 C54.5521,4256.9999 55.0001,4257.4479 55.0001,4257.9999 M53.0001,4239.9999 C53.0001,4239.4479 53.4481,4238.9999 54.0001,4238.9999 C54.5521,4238.9999 55.0001,4239.4479 55.0001,4239.9999 C55.0001,4240.5519 54.5521,4240.9999 54.0001,4240.9999 C53.4481,4240.9999 53.0001,4240.5519 53.0001,4239.9999 M48.3431,4254.6569 C48.7341,4255.0469 48.7341,4255.6809 48.3431,4256.0709 C48.1481,4256.2659 47.8921,4256.3639 47.6361,4256.3639 C47.3801,4256.3639 47.1241,4256.2659 46.9291,4256.0709 C46.5381,4255.6809 46.5381,4255.0469 46.9291,4254.6569 C47.1241,4254.4619 47.3801,4254.3639 47.6361,4254.3639 C47.8921,4254.3639 48.1481,4254.4619 48.3431,4254.6569 M61.0711,4241.9289 C61.4611,4242.3199 61.4611,4242.9529 61.0711,4243.3429 C60.8761,4243.5379 60.6201,4243.6359 60.3641,4243.6359 C60.1081,4243.6359 59.8521,4243.5379 59.6571,4243.3429 C59.2661,4242.9529 59.2661,4242.3199 59.6571,4241.9289 C59.8521,4241.7339 60.1081,4241.6359 60.3641,4241.6359 C60.6201,4241.6359 60.8761,4241.7339 61.0711,4241.9289 M64.0001,4248.9999 C64.0001,4249.5519 63.5521,4249.9999 63.0001,4249.9999 C62.4481,4249.9999 62.0001,4249.5519 62.0001,4248.9999 C62.0001,4248.4479 62.4481,4247.9999 63.0001,4247.9999 C63.5521,4247.9999 64.0001,4248.4479 64.0001,4248.9999 M46.0001,4248.9999 C46.0001,4249.5519 45.5521,4249.9999 45.0001,4249.9999 C44.4481,4249.9999 44.0001,4249.5519 44.0001,4248.9999 C44.0001,4248.4479 44.4481,4247.9999 45.0001,4247.9999 C45.5521,4247.9999 46.0001,4248.4479 46.0001,4248.9999 M54.0001,4250.9999 C52.8971,4250.9999 52.0001,4250.1029 52.0001,4248.9999 C52.0001,4247.8969 52.8971,4246.9999 54.0001,4246.9999 C55.1031,4246.9999 56.0001,4247.8969 56.0001,4248.9999 C56.0001,4250.1029 55.1031,4250.9999 54.0001,4250.9999 M54.0001,4244.9999 C51.7911,4244.9999 50.0001,4246.7909 50.0001,4248.9999 C50.0001,4251.2089 51.7911,4252.9999 54.0001,4252.9999 C56.2091,4252.9999 58.0001,4251.2089 58.0001,4248.9999 C58.0001,4246.7909 56.2091,4244.9999 54.0001,4244.9999" id="brightness-[#859]"></path>
            </g>
        </g>
    </g>
</svg>