<?xml version="1.0" encoding="UTF-8" standalone="no"?>
<svg width="20px" height="20px" viewBox="0 0 20 20" version="1.1" xmlns="http://www.w3.org/2000/svg" xmlns:xlink="http://www.w3.org/1999/xlink">
    <!-- Generator: Sketch 3.8.1 (29687) - http://www.bohemiancoding.com/sketch -->
    <title>brightness [#861]</title>
    <desc>Created with Sketch.</desc>
    <defs></defs>
    <g id="Page-1" stroke="none" stroke-width="1" fill="none" fill-rule="evenodd">
        <g id="Dribbble-Dark-Preview" transform="translate(-420.000000, -4359.000000)" fill="#FFFFFF">
            <g id="icons" transform="translate(56.000000, 160.000000)">
                <path d="M378.2426,4213.2426 C377.8526,4213.6336 379.2666,4215.6806 379.6566,4216.0706 C380.0476,4216.4616 380.6806,4216.4616 381.0706,4216.0706 C381.4616,4215.6806 381.4616,4215.0476 381.0706,4214.6566 C380.6806,4214.2666 378.6336,4212.8516 378.2426,4213.2426 M366.9286,4201.9286 C366.5386,4202.3196 366.5386,4202.9526 366.9286,4203.3436 C367.3196,4203.7336 369.3666,4205.1476 369.7576,4204.7576 C370.1476,4204.3666 368.7336,4202.3196 368.3436,4201.9286 C367.9526,4201.5386 367.3196,4201.5386 366.9286,4201.9286 M366.9286,4214.6566 C366.5386,4215.0476 366.5386,4215.6806 366.9286,4216.0706 C367.3196,4216.4616 367.9526,4216.4616 368.3436,4216.0706 C368.7336,4215.6806 370.1476,4213.6336 369.7576,4213.2426 C369.3666,4212.8516 367.3196,4214.2666 366.9286,4214.6566 M381.0706,4203.3436 C381.4616,4202.9526 381.4616,4202.3196 381.0706,4201.9286 C380.6806,4201.5386 380.0476,4201.5386 379.6566,4201.9286 C379.2666,4202.3196 377.8526,4204.3666 378.2426,4204.7576 C378.6336,4205.1476 380.6806,4203.7336 381.0706,4203.3436 M373.9996,4214.9996 C373.4476,4214.9996 372.9996,4217.4476 372.9996,4217.9996 C372.9996,4218.5526 373.4476,4218.9996 373.9996,4218.9996 C374.5526,4218.9996 374.9996,4218.5526 374.9996,4217.9996 C374.9996,4217.4476 374.5526,4214.9996 373.9996,4214.9996 M373.9996,4202.9996 C374.5526,4202.9996 374.9996,4200.5526 374.9996,4199.9996 C374.9996,4199.4476 374.5526,4198.9996 373.9996,4198.9996 C373.4476,4198.9996 372.9996,4199.4476 372.9996,4199.9996 C372.9996,4200.5526 373.4476,4202.9996 373.9996,4202.9996 M382.9996,4207.9996 C382.4476,4207.9996 379.9996,4208.4476 379.9996,4208.9996 C379.9996,4209.5526 382.4476,4209.9996 382.9996,4209.9996 C383.5526,4209.9996 383.9996,4209.5526 383.9996,4208.9996 C383.9996,4208.4476 383.5526,4207.9996 382.9996,4207.9996 M367.9996,4208.9996 C367.9996,4208.4476 365.5526,4207.9996 364.9996,4207.9996 C364.4476,4207.9996 363.9996,4208.4476 363.9996,4208.9996 C363.9996,4209.5526 364.4476,4209.9996 364.9996,4209.9996 C365.5526,4209.9996 367.9996,4209.5526 367.9996,4208.9996 M377.9996,4208.9996 C377.9996,4211.2086 376.2096,4212.9996 373.9996,4212.9996 C371.7906,4212.9996 369.9996,4211.2086 369.9996,4208.9996 C369.9996,4206.7906 371.7906,4204.9996 373.9996,4204.9996 C376.2096,4204.9996 377.9996,4206.7906 377.9996,4208.9996" id="brightness-[#861]"></path>
            </g>
        </g>
    </g>
</svg>