<?xml version="1.0" encoding="UTF-8" standalone="no"?>
<svg width="20px" height="20px" viewBox="0 0 20 20" version="1.1" xmlns="http://www.w3.org/2000/svg" xmlns:xlink="http://www.w3.org/1999/xlink">
    <!-- Generator: Sketch 3.8.1 (29687) - http://www.bohemiancoding.com/sketch -->
    <title>brightness [#860]</title>
    <desc>Created with Sketch.</desc>
    <defs></defs>
    <g id="Page-1" stroke="none" stroke-width="1" fill="none" fill-rule="evenodd">
        <g id="Dribbble-Dark-Preview" transform="translate(-60.000000, -4399.000000)" fill="#FFFFFF">
            <g id="icons" transform="translate(56.000000, 160.000000)">
                <path d="M6.929,4241.9289 C6.538,4242.3199 6.538,4242.9529 6.929,4243.3429 C7.32,4243.7339 7.953,4243.7339 8.343,4243.3429 C8.734,4242.9529 8.734,4242.3199 8.343,4241.9289 C7.953,4241.5379 7.32,4241.5379 6.929,4241.9289 M19.657,4254.6569 C19.266,4255.0469 19.266,4255.6809 19.657,4256.0709 C20.047,4256.4619 20.681,4256.4619 21.071,4256.0709 C21.462,4255.6809 21.462,4255.0469 21.071,4254.6569 C20.681,4254.2659 20.047,4254.2659 19.657,4254.6569 M14,4256.9999 C13.448,4256.9999 13,4257.4479 13,4257.9999 C13,4258.5519 13.448,4258.9999 14,4258.9999 C14.552,4258.9999 15,4258.5519 15,4257.9999 C15,4257.4479 14.552,4256.9999 14,4256.9999 M14,4240.9999 C14.552,4240.9999 15,4240.5519 15,4239.9999 C15,4239.4479 14.552,4238.9999 14,4238.9999 C13.448,4238.9999 13,4239.4479 13,4239.9999 C13,4240.5519 13.448,4240.9999 14,4240.9999 M6.929,4254.6569 C6.538,4255.0469 6.538,4255.6809 6.929,4256.0709 C7.32,4256.4619 7.953,4256.4619 8.343,4256.0709 C8.734,4255.6809 8.734,4255.0469 8.343,4254.6569 C7.953,4254.2659 7.32,4254.2659 6.929,4254.6569 M19.657,4241.9289 C19.266,4242.3199 19.266,4242.9529 19.657,4243.3429 C20.047,4243.7339 20.681,4243.7339 21.071,4243.3429 C21.462,4242.9529 21.462,4242.3199 21.071,4241.9289 C20.681,4241.5379 20.047,4241.5379 19.657,4241.9289 M23,4247.9999 C22.448,4247.9999 22,4248.4479 22,4248.9999 C22,4249.5519 22.448,4249.9999 23,4249.9999 C23.552,4249.9999 24,4249.5519 24,4248.9999 C24,4248.4479 23.552,4247.9999 23,4247.9999 M5,4247.9999 C4.448,4247.9999 4,4248.4479 4,4248.9999 C4,4249.5519 4.448,4249.9999 5,4249.9999 C5.552,4249.9999 6,4249.5519 6,4248.9999 C6,4248.4479 5.552,4247.9999 5,4247.9999 M18,4248.9999 C18,4251.2089 16.209,4252.9999 14,4252.9999 C11.791,4252.9999 10,4251.2089 10,4248.9999 C10,4246.7909 11.791,4244.9999 14,4244.9999 C16.209,4244.9999 18,4246.7909 18,4248.9999" id="brightness-[#860]"></path>
            </g>
        </g>
    </g>
</svg>