<?xml version="1.0" encoding="UTF-8" standalone="no"?>
<svg width="20px" height="20px" viewBox="0 0 20 20" version="1.1" xmlns="http://www.w3.org/2000/svg" xmlns:xlink="http://www.w3.org/1999/xlink">
    <!-- Generator: Sketch 3.8.1 (29687) - http://www.bohemiancoding.com/sketch -->
    <title>brightness [#862]</title>
    <desc>Created with Sketch.</desc>
    <defs></defs>
    <g id="Page-1" stroke="none" stroke-width="1" fill="none" fill-rule="evenodd">
        <g id="Dribbble-Dark-Preview" transform="translate(-380.000000, -4359.000000)" fill="#FFFFFF">
            <g id="icons" transform="translate(56.000000, 160.000000)">
                <path d="M334,4215 C333.448,4215 333,4217.448 333,4218 C333,4218.552 333.448,4219 334,4219 C334.552,4219 335,4218.552 335,4218 C335,4217.448 334.552,4215 334,4215 M329.552,4213.175 C328.902,4213.175 327.273,4214.313 326.929,4214.657 C326.538,4215.047 326.538,4215.681 326.929,4216.071 C327.124,4216.266 327.38,4216.364 327.636,4216.364 C327.892,4216.364 328.148,4216.266 328.343,4216.071 C328.734,4215.681 330.148,4213.633 329.757,4213.243 C329.711,4213.196 329.641,4213.175 329.552,4213.175 M338.448,4213.175 C338.359,4213.175 338.289,4213.196 338.243,4213.243 C337.852,4213.633 339.266,4215.681 339.657,4216.071 C339.852,4216.266 340.108,4216.364 340.364,4216.364 C340.62,4216.364 340.876,4216.266 341.071,4216.071 C341.462,4215.681 341.462,4215.047 341.071,4214.657 C340.727,4214.313 339.098,4213.175 338.448,4213.175 M325,4208 C324.448,4208 324,4208.448 324,4209 C324,4209.552 324.448,4210 325,4210 C325.552,4210 328,4209.552 328,4209 C328,4208.448 325.552,4208 325,4208 M343,4208 C342.448,4208 340,4208.448 340,4209 C340,4209.552 342.448,4210 343,4210 C343.552,4210 344,4209.552 344,4209 C344,4208.448 343.552,4208 343,4208 M334,4205 C331.791,4205 330,4206.791 330,4209 C330,4211.209 331.791,4213 334,4213 C336.209,4213 338,4211.209 338,4209 C338,4206.791 336.209,4205 334,4205 M327.636,4201.636 C327.38,4201.636 327.124,4201.734 326.929,4201.929 C326.538,4202.319 326.538,4202.953 326.929,4203.343 C327.273,4203.687 328.902,4204.825 329.552,4204.825 C329.641,4204.825 329.711,4204.804 329.757,4204.757 C330.148,4204.367 328.734,4202.319 328.343,4201.929 C328.148,4201.734 327.892,4201.636 327.636,4201.636 M340.364,4201.636 C340.108,4201.636 339.852,4201.734 339.657,4201.929 C339.266,4202.319 337.852,4204.367 338.243,4204.757 C338.289,4204.804 338.359,4204.825 338.448,4204.825 C339.098,4204.825 340.727,4203.687 341.071,4203.343 C341.462,4202.953 341.462,4202.319 341.071,4201.929 C340.876,4201.734 340.62,4201.636 340.364,4201.636 M334,4199 C333.448,4199 333,4199.448 333,4200 C333,4200.552 333.448,4203 334,4203 C334.552,4203 335,4200.552 335,4200 C335,4199.448 334.552,4199 334,4199 M334,4207 C335.103,4207 336,4207.897 336,4209 C336,4210.103 335.103,4211 334,4211 C332.897,4211 332,4210.103 332,4209 C332,4207.897 332.897,4207 334,4207" id="brightness-[#862]"></path>
            </g>
        </g>
    </g>
</svg>