<?xml version="1.0" encoding="UTF-8" standalone="no"?>
<svg width="20px" height="20px" viewBox="0 0 20 20" version="1.1" xmlns="http://www.w3.org/2000/svg" xmlns:xlink="http://www.w3.org/1999/xlink">
    <!-- Generator: Sketch 3.8.1 (29687) - http://www.bohemiancoding.com/sketch -->
    <title>bug [#828]</title>
    <desc>Created with Sketch.</desc>
    <defs></defs>
    <g id="Page-1" stroke="none" stroke-width="1" fill="none" fill-rule="evenodd">
        <g id="Dribbble-Dark-Preview" transform="translate(-140.000000, -4519.000000)" fill="#FFFFFF">
            <g id="icons" transform="translate(56.000000, 160.000000)">
                <path d="M94,4373 C91.832,4373 90,4370.252 90,4367 C90,4363.748 91.832,4361 94,4361 C96.168,4361 98,4363.748 98,4367 C98,4370.252 96.168,4373 94,4373 M94,4377 C93.449,4377 93,4376.551 93,4376 C93,4375.449 93.449,4375 94,4375 C94.551,4375 95,4375.449 95,4376 C95,4376.551 94.551,4377 94,4377 M104,4361 L104,4360 C104,4359.448 103.552,4359 103,4359 C102.448,4359 102,4359.448 102,4360 L102,4361 C102,4362.105 101.105,4363 100,4363 L99.191,4363 C98.153,4360.611 96.22,4359 94,4359 C91.78,4359 89.847,4360.611 88.809,4363 L88,4363 C86.895,4363 86,4362.105 86,4361 L86,4360 C86,4359.448 85.552,4359 85,4359 C84.448,4359 84,4359.448 84,4360 L84,4361 C84,4363.209 85.791,4365 88,4365 L88.197,4365 C88.073,4365.64 88,4366.308 88,4367 L85,4367 C84.448,4367 84,4367.448 84,4368 C84,4368.552 84.448,4369 85,4369 L88.197,4369 C88.334,4369.71 88.54,4370.381 88.809,4371 L88,4371 C85.791,4371 84,4372.791 84,4375 L84,4376 C84,4376.552 84.448,4377 85,4377 C85.552,4377 86,4376.552 86,4376 L86,4375 C86,4373.895 86.895,4373 88,4373 L90,4373 L90,4372.951 C90.456,4373.496 90.973,4373.951 91.539,4374.291 C91.201,4374.776 91,4375.364 91,4376 C91,4377.657 92.343,4379 94,4379 C95.657,4379 97,4377.657 97,4376 C97,4375.364 96.799,4374.776 96.461,4374.291 C97.027,4373.951 97.544,4373.496 98,4372.951 L98,4373 L100,4373 C101.105,4373 102,4373.895 102,4375 L102,4376 C102,4376.552 102.448,4377 103,4377 C103.552,4377 104,4376.552 104,4376 L104,4375 C104,4372.791 102.209,4371 100,4371 L99.191,4371 C99.46,4370.381 99.666,4369.71 99.803,4369 L103,4369 C103.552,4369 104,4368.552 104,4368 C104,4367.448 103.552,4367 103,4367 L100,4367 C100,4366.308 99.927,4365.64 99.803,4365 L100,4365 C102.209,4365 104,4363.209 104,4361" id="bug-[#828]"></path>
            </g>
        </g>
    </g>
</svg>