<?xml version="1.0" encoding="UTF-8" standalone="no"?>
<svg width="20px" height="20px" viewBox="0 0 20 20" version="1.1" xmlns="http://www.w3.org/2000/svg" xmlns:xlink="http://www.w3.org/1999/xlink">
    <!-- Generator: Sketch 3.8.1 (29687) - http://www.bohemiancoding.com/sketch -->
    <title>bug_plus [#829]</title>
    <desc>Created with Sketch.</desc>
    <defs></defs>
    <g id="Page-1" stroke="none" stroke-width="1" fill="none" fill-rule="evenodd">
        <g id="Dribbble-Dark-Preview" transform="translate(-100.000000, -4519.000000)" fill="#FFFFFF">
            <g id="icons" transform="translate(56.000000, 160.000000)">
                <path d="M56,4366 C56.552,4366 57,4366.448 57,4367 C57,4367.552 56.552,4368 56,4368 L55,4368 L55,4369 C55,4369.552 54.552,4370 54,4370 C53.448,4370 53,4369.552 53,4369 L53,4368 L52,4368 C51.448,4368 51,4367.552 51,4367 C51,4366.448 51.448,4366 52,4366 L53,4366 L53,4365 C53,4364.448 53.448,4364 54,4364 C54.552,4364 55,4364.448 55,4365 L55,4366 L56,4366 Z M54,4373 C51.832,4373 50,4370.252 50,4367 C50,4363.748 51.832,4361 54,4361 C56.168,4361 58,4363.748 58,4367 C58,4370.252 56.168,4373 54,4373 L54,4373 Z M54,4377 C53.449,4377 53,4376.551 53,4376 C53,4375.449 53.449,4375 54,4375 C54.551,4375 55,4375.449 55,4376 C55,4376.551 54.551,4377 54,4377 L54,4377 Z M64,4361 L64,4360 C64,4359.448 63.552,4359 63,4359 C62.448,4359 62,4359.448 62,4360 L62,4361 C62,4362.105 61.105,4363 60,4363 L59.191,4363 C58.153,4360.611 56.22,4359 54,4359 C51.78,4359 49.847,4360.611 48.809,4363 L48,4363 C46.895,4363 46,4362.105 46,4361 L46,4360 C46,4359.448 45.552,4359 45,4359 C44.448,4359 44,4359.448 44,4360 L44,4361 C44,4363.209 45.791,4365 48,4365 L48.197,4365 C48.073,4365.64 48,4366.308 48,4367 L45,4367 C44.448,4367 44,4367.448 44,4368 C44,4368.552 44.448,4369 45,4369 L48.197,4369 C48.334,4369.71 48.54,4370.381 48.809,4371 L48,4371 C45.791,4371 44,4372.791 44,4375 L44,4376 C44,4376.552 44.448,4377 45,4377 C45.552,4377 46,4376.552 46,4376 L46,4375 C46,4373.895 46.895,4373 48,4373 L50,4373 L50,4372.951 C50.456,4373.496 50.973,4373.951 51.539,4374.291 C51.201,4374.776 51,4375.364 51,4376 C51,4377.657 52.343,4379 54,4379 C55.657,4379 57,4377.657 57,4376 C57,4375.364 56.799,4374.776 56.461,4374.291 C57.027,4373.951 57.544,4373.496 58,4372.951 L58,4373 L60,4373 C61.105,4373 62,4373.895 62,4375 L62,4376 C62,4376.552 62.448,4377 63,4377 C63.552,4377 64,4376.552 64,4376 L64,4375 C64,4372.791 62.209,4371 60,4371 L59.191,4371 C59.46,4370.381 59.666,4369.71 59.803,4369 L63,4369 C63.552,4369 64,4368.552 64,4368 C64,4367.448 63.552,4367 63,4367 L60,4367 C60,4366.308 59.927,4365.64 59.803,4365 L60,4365 C62.209,4365 64,4363.209 64,4361 L64,4361 Z" id="bug_plus-[#829]"></path>
            </g>
        </g>
    </g>
</svg>