<?xml version="1.0" encoding="UTF-8" standalone="no"?>
<svg width="20px" height="20px" viewBox="0 0 20 20" version="1.1" xmlns="http://www.w3.org/2000/svg" xmlns:xlink="http://www.w3.org/1999/xlink">
    <!-- Generator: Sketch 3.8.1 (29687) - http://www.bohemiancoding.com/sketch -->
    <title>bug_spider [#827]</title>
    <desc>Created with Sketch.</desc>
    <defs></defs>
    <g id="Page-1" stroke="none" stroke-width="1" fill="none" fill-rule="evenodd">
        <g id="Dribbble-Dark-Preview" transform="translate(-180.000000, -4519.000000)" fill="#FFFFFF">
            <g id="icons" transform="translate(56.000000, 160.000000)">
                <path d="M138,4363 C138,4361.895 137.105,4361 136,4361 L132,4361 C130.895,4361 130,4361.895 130,4363 L130,4365 L130,4368 L130,4370 L130,4373 L130,4375 C130,4376.105 130.895,4377 132,4377 L136,4377 C137.105,4377 138,4376.105 138,4375 L138,4373 L138,4370 L138,4368 L138,4365 L138,4363 Z M140,4365 L140,4366 L143,4366 C143.552,4366 144,4366.448 144,4367 C144,4367.552 143.552,4368 143,4368 L140,4368 L140,4370 L143,4370 C143.552,4370 144,4370.448 144,4371 C144,4371.552 143.552,4372 143,4372 L140,4372 L140,4373 C142.209,4373 144,4374.791 144,4377 L144,4378 C144,4378.552 143.552,4379 143,4379 C142.448,4379 142,4378.552 142,4378 L142,4377 C142,4375.895 141.105,4375 140,4375 C140,4377.209 138.209,4379 136,4379 L132,4379 C129.791,4379 128,4377.209 128,4375 C126.895,4375 126,4375.895 126,4377 L126,4378 C126,4378.552 125.552,4379 125,4379 C124.448,4379 124,4378.552 124,4378 L124,4377 C124,4374.791 125.791,4373 128,4373 L128,4372 L125,4372 C124.448,4372 124,4371.552 124,4371 C124,4370.448 124.448,4370 125,4370 L128,4370 L128,4368 L125,4368 C124.448,4368 124,4367.552 124,4367 C124,4366.448 124.448,4366 125,4366 L128,4366 L128,4365 C125.791,4365 124,4363.209 124,4361 L124,4360 C124,4359.448 124.448,4359 125,4359 C125.552,4359 126,4359.448 126,4360 L126,4361 C126,4362.105 126.895,4363 128,4363 C128,4360.791 129.791,4359 132,4359 L136,4359 C138.209,4359 140,4360.791 140,4363 C141.105,4363 142,4362.105 142,4361 L142,4360 C142,4359.448 142.448,4359 143,4359 C143.552,4359 144,4359.448 144,4360 L144,4361 C144,4363.209 142.209,4365 140,4365 L140,4365 Z M136,4373 C135.448,4373 135,4373.448 135,4374 C135,4374.552 135.448,4375 136,4375 C136.552,4375 137,4374.552 137,4374 C137,4373.448 136.552,4373 136,4373 L136,4373 Z M133,4374 C133,4374.552 132.552,4375 132,4375 C131.448,4375 131,4374.552 131,4374 C131,4373.448 131.448,4373 132,4373 C132.552,4373 133,4373.448 133,4374 L133,4374 Z" id="bug_spider-[#827]"></path>
            </g>
        </g>
    </g>
</svg>