<?xml version="1.0" encoding="UTF-8" standalone="no"?>
<svg width="20px" height="20px" viewBox="0 0 20 20" version="1.1" xmlns="http://www.w3.org/2000/svg" xmlns:xlink="http://www.w3.org/1999/xlink">
    <!-- Generator: Sketch 3.8.1 (29687) - http://www.bohemiancoding.com/sketch -->
    <title>bug_close [#831]</title>
    <desc>Created with Sketch.</desc>
    <defs></defs>
    <g id="Page-1" stroke="none" stroke-width="1" fill="none" fill-rule="evenodd">
        <g id="Dribbble-Dark-Preview" transform="translate(-420.000000, -4479.000000)" fill="#FFFFFF">
            <g id="icons" transform="translate(56.000000, 160.000000)">
                <path d="M376.121,4326.293 L375.414,4327 L376.121,4327.707 C376.512,4328.098 376.512,4328.731 376.121,4329.121 C375.73,4329.512 375.097,4329.512 374.707,4329.121 L374,4328.414 L373.293,4329.121 C372.902,4329.512 372.269,4329.512 371.878,4329.121 C371.488,4328.731 371.488,4328.098 371.878,4327.707 L372.585,4327 L371.878,4326.293 C371.488,4325.902 371.488,4325.269 371.878,4324.879 C372.269,4324.488 372.902,4324.488 373.293,4324.879 L374,4325.586 L374.707,4324.879 C375.097,4324.488 375.73,4324.488 376.121,4324.879 C376.512,4325.269 376.512,4325.902 376.121,4326.293 M374,4333 C371.831,4333 370,4330.252 370,4327 C370,4323.748 371.831,4321 374,4321 C376.168,4321 378,4323.748 378,4327 C378,4330.252 376.168,4333 374,4333 M374,4337 C373.448,4337 373,4336.551 373,4336 C373,4335.449 373.448,4335 374,4335 C374.551,4335 375,4335.449 375,4336 C375,4336.551 374.551,4337 374,4337 M384,4321 L384,4320 C384,4319.448 383.552,4319 383,4319 C382.447,4319 382,4319.448 382,4320 L382,4321 C382,4322.105 381.104,4323 380,4323 L379.19,4323 C378.153,4320.611 376.219,4319 374,4319 C371.78,4319 369.847,4320.611 368.809,4323 L368,4323 C366.895,4323 366,4322.105 366,4321 L366,4320 C366,4319.448 365.552,4319 365,4319 C364.447,4319 364,4319.448 364,4320 L364,4321 C364,4323.209 365.79,4325 368,4325 L368.196,4325 C368.072,4325.64 368,4326.308 368,4327 L365,4327 C364.447,4327 364,4327.448 364,4328 C364,4328.552 364.447,4329 365,4329 L368.196,4329 C368.334,4329.71 368.54,4330.381 368.809,4331 L368,4331 C365.79,4331 364,4332.791 364,4335 L364,4336 C364,4336.552 364.447,4337 365,4337 C365.552,4337 366,4336.552 366,4336 L366,4335 C366,4333.895 366.895,4333 368,4333 L370,4333 L370,4332.951 C370.456,4333.496 370.973,4333.951 371.538,4334.291 C371.201,4334.776 371,4335.364 371,4336 C371,4337.657 372.343,4339 374,4339 C375.657,4339 377,4337.657 377,4336 C377,4335.364 376.799,4334.776 376.461,4334.291 C377.027,4333.951 377.544,4333.496 378,4332.951 L378,4333 L380,4333 C381.104,4333 382,4333.895 382,4335 L382,4336 C382,4336.552 382.447,4337 383,4337 C383.552,4337 384,4336.552 384,4336 L384,4335 C384,4332.791 382.209,4331 380,4331 L379.19,4331 C379.459,4330.381 379.666,4329.71 379.803,4329 L383,4329 C383.552,4329 384,4328.552 384,4328 C384,4327.448 383.552,4327 383,4327 L380,4327 C380,4326.308 379.927,4325.64 379.803,4325 L380,4325 C382.209,4325 384,4323.209 384,4321" id="bug_close-[#831]"></path>
            </g>
        </g>
    </g>
</svg>