<?xml version="1.0" encoding="UTF-8" standalone="no"?>
<svg width="20px" height="20px" viewBox="0 0 20 20" version="1.1" xmlns="http://www.w3.org/2000/svg" xmlns:xlink="http://www.w3.org/1999/xlink">
    <!-- Generator: Sketch 3.8.1 (29687) - http://www.bohemiancoding.com/sketch -->
    <title>bug_minus [#830]</title>
    <desc>Created with Sketch.</desc>
    <defs></defs>
    <g id="Page-1" stroke="none" stroke-width="1" fill="none" fill-rule="evenodd">
        <g id="Dribbble-Dark-Preview" transform="translate(-60.000000, -4519.000000)" fill="#FFFFFF">
            <g id="icons" transform="translate(56.000000, 160.000000)">
                <path d="M13,4368 L12,4368 C11.448,4368 11,4367.552 11,4367 C11,4366.448 11.448,4366 12,4366 L13,4366 L15,4366 L16,4366 C16.552,4366 17,4366.448 17,4367 C17,4367.552 16.552,4368 16,4368 L15,4368 L13,4368 Z M14,4373 C11.832,4373 10,4370.252 10,4367 C10,4363.748 11.832,4361 14,4361 C16.168,4361 18,4363.748 18,4367 C18,4370.252 16.168,4373 14,4373 L14,4373 Z M14,4377 C13.449,4377 13,4376.551 13,4376 C13,4375.449 13.449,4375 14,4375 C14.551,4375 15,4375.449 15,4376 C15,4376.551 14.551,4377 14,4377 L14,4377 Z M24,4361 L24,4360 C24,4359.448 23.552,4359 23,4359 C22.448,4359 22,4359.448 22,4360 L22,4361 C22,4362.105 21.105,4363 20,4363 L19.191,4363 C18.153,4360.611 16.22,4359 14,4359 C11.78,4359 9.847,4360.611 8.809,4363 L8,4363 C6.895,4363 6,4362.105 6,4361 L6,4360 C6,4359.448 5.552,4359 5,4359 C4.448,4359 4,4359.448 4,4360 L4,4361 C4,4363.209 5.791,4365 8,4365 L8.197,4365 C8.073,4365.64 8,4366.308 8,4367 L5,4367 C4.448,4367 4,4367.448 4,4368 C4,4368.552 4.448,4369 5,4369 L8.197,4369 C8.334,4369.71 8.54,4370.381 8.809,4371 L8,4371 C5.791,4371 4,4372.791 4,4375 L4,4376 C4,4376.552 4.448,4377 5,4377 C5.552,4377 6,4376.552 6,4376 L6,4375 C6,4373.895 6.895,4373 8,4373 L10,4373 L10,4372.951 C10.456,4373.496 10.973,4373.951 11.539,4374.291 C11.201,4374.776 11,4375.364 11,4376 C11,4377.657 12.343,4379 14,4379 C15.657,4379 17,4377.657 17,4376 C17,4375.364 16.799,4374.776 16.461,4374.291 C17.027,4373.951 17.544,4373.496 18,4372.951 L18,4373 L20,4373 C21.105,4373 22,4373.895 22,4375 L22,4376 C22,4376.552 22.448,4377 23,4377 C23.552,4377 24,4376.552 24,4376 L24,4375 C24,4372.791 22.209,4371 20,4371 L19.191,4371 C19.46,4370.381 19.666,4369.71 19.803,4369 L23,4369 C23.552,4369 24,4368.552 24,4368 C24,4367.448 23.552,4367 23,4367 L20,4367 C20,4366.308 19.927,4365.64 19.803,4365 L20,4365 C22.209,4365 24,4363.209 24,4361 L24,4361 Z" id="bug_minus-[#830]"></path>
            </g>
        </g>
    </g>
</svg>