<?xml version="1.0" encoding="UTF-8" standalone="no"?>
<svg width="20px" height="20px" viewBox="0 0 20 20" version="1.1" xmlns="http://www.w3.org/2000/svg" xmlns:xlink="http://www.w3.org/1999/xlink">
    <!-- Generator: Sketch 3.8.1 (29687) - http://www.bohemiancoding.com/sketch -->
    <title>bug_spider [#826]</title>
    <desc>Created with Sketch.</desc>
    <defs></defs>
    <g id="Page-1" stroke="none" stroke-width="1" fill="none" fill-rule="evenodd">
        <g id="Dribbble-Dark-Preview" transform="translate(-220.000000, -4519.000000)" fill="#FFFFFF">
            <g id="icons" transform="translate(56.000000, 160.000000)">
                <path d="M178,4363 C178,4361.895 177.105,4361 176,4361 L172,4361 C170.895,4361 170,4361.895 170,4363 L170,4365 L170,4368 L170,4370 L170,4373 L170,4375 C170,4376.105 170.895,4377 172,4377 L176,4377 C177.105,4377 178,4376.105 178,4375 L178,4373 L178,4370 L178,4368 L178,4365 L178,4363 Z M180,4365 L180,4368 L183,4368 C183.552,4368 184,4368.448 184,4369 C184,4369.552 183.552,4370 183,4370 L180,4370 L180,4373 C182.209,4373 184,4374.791 184,4377 L184,4378 C184,4378.552 183.552,4379 183,4379 C182.448,4379 182,4378.552 182,4378 L182,4377 C182,4375.895 181.105,4375 180,4375 C180,4377.209 178.209,4379 176,4379 L172,4379 C169.791,4379 168,4377.209 168,4375 C166.895,4375 166,4375.895 166,4377 L166,4378 C166,4378.552 165.552,4379 165,4379 C164.448,4379 164,4378.552 164,4378 L164,4377 C164,4374.791 165.791,4373 168,4373 L168,4370 L165,4370 C164.448,4370 164,4369.552 164,4369 C164,4368.448 164.448,4368 165,4368 L168,4368 L168,4365 C165.791,4365 164,4363.209 164,4361 L164,4360 C164,4359.448 164.448,4359 165,4359 C165.552,4359 166,4359.448 166,4360 L166,4361 C166,4362.105 166.895,4363 168,4363 C168,4360.791 169.791,4359 172,4359 L176,4359 C178.209,4359 180,4360.791 180,4363 C181.105,4363 182,4362.105 182,4361 L182,4360 C182,4359.448 182.448,4359 183,4359 C183.552,4359 184,4359.448 184,4360 L184,4361 C184,4363.209 182.209,4365 180,4365 L180,4365 Z M176,4373 C175.448,4373 175,4373.448 175,4374 C175,4374.552 175.448,4375 176,4375 C176.552,4375 177,4374.552 177,4374 C177,4373.448 176.552,4373 176,4373 L176,4373 Z M173,4374 C173,4374.552 172.552,4375 172,4375 C171.448,4375 171,4374.552 171,4374 C171,4373.448 171.448,4373 172,4373 C172.552,4373 173,4373.448 173,4374 L173,4374 Z" id="bug_spider-[#826]"></path>
            </g>
        </g>
    </g>
</svg>