<?xml version="1.0" encoding="UTF-8" standalone="no"?>
<svg width="20px" height="20px" viewBox="0 0 20 20" version="1.1" xmlns="http://www.w3.org/2000/svg" xmlns:xlink="http://www.w3.org/1999/xlink">
    <!-- Generator: Sketch 3.8.1 (29687) - http://www.bohemiancoding.com/sketch -->
    <title>building [#808]</title>
    <desc>Created with Sketch.</desc>
    <defs></defs>
    <g id="Page-1" stroke="none" stroke-width="1" fill="none" fill-rule="evenodd">
        <g id="Dribbble-Dark-Preview" transform="translate(-60.000000, -4679.000000)" fill="#FFFFFF">
            <g id="icons" transform="translate(56.000000, 160.000000)">
                <path d="M13,4527 L15,4527 L15,4525 L13,4525 L13,4527 Z M13,4531 L15,4531 L15,4529 L13,4529 L13,4531 Z M15,4537 L15,4533 L13,4533 L13,4537 L10,4537 L10,4524 L13,4524 L15,4524 L18,4524 L18,4537 L15,4537 Z M22,4535 L22,4537 L20,4537 L20,4522 L18,4522 L15,4522 L15,4519 L13,4519 L13,4522 L10,4522 L8,4522 L8,4537 L6,4537 L6,4535 L4,4535 L4,4537 L4,4539 L8,4539 L10,4539 L18,4539 L20,4539 L24,4539 L24,4537 L24,4535 L22,4535 Z" id="building-[#808]"></path>
            </g>
        </g>
    </g>
</svg>