<?xml version="1.0" encoding="UTF-8" standalone="no"?>
<svg width="20px" height="20px" viewBox="0 0 20 20" version="1.1" xmlns="http://www.w3.org/2000/svg" xmlns:xlink="http://www.w3.org/1999/xlink">
    <!-- Generator: Sketch 3.8.1 (29687) - http://www.bohemiancoding.com/sketch -->
    <title>cabin [#618]</title>
    <desc>Created with Sketch.</desc>
    <defs></defs>
    <g id="Page-1" stroke="none" stroke-width="1" fill="none" fill-rule="evenodd">
        <g id="Dribbble-Dark-Preview" transform="translate(-60.000000, -5479.000000)" fill="#FFFFFF">
            <g id="icons" transform="translate(56.000000, 160.000000)">
                <path d="M10,5325 L18,5325 L18,5321 L10,5321 L10,5325 Z M8,5333 L20,5333 L20,5327 L8,5327 L8,5333 Z M18,5337.052 L20,5337.052 L20,5335.052 L18,5335.052 L18,5337.052 Z M8,5337.052 L10,5337.052 L10,5335.052 L8,5335.052 L8,5337.052 Z M24,5321 L24,5319 L4,5319 L4,5321 L8,5321 L8,5325 L6,5325 L6,5339 L22,5339 L22,5325 L20,5325 L20,5321 L24,5321 Z" id="cabin-[#618]"></path>
            </g>
        </g>
    </g>
</svg>