<?xml version="1.0" encoding="UTF-8" standalone="no"?>
<svg width="20px" height="20px" viewBox="0 0 20 20" version="1.1" xmlns="http://www.w3.org/2000/svg" xmlns:xlink="http://www.w3.org/1999/xlink">
    <!-- Generator: Sketch 3.8.1 (29687) - http://www.bohemiancoding.com/sketch -->
    <title>cabin [#617]</title>
    <desc>Created with Sketch.</desc>
    <defs></defs>
    <g id="Page-1" stroke="none" stroke-width="1" fill="none" fill-rule="evenodd">
        <g id="Dribbble-Dark-Preview" transform="translate(-100.000000, -5479.000000)" fill="#FFFFFF">
            <g id="icons" transform="translate(56.000000, 160.000000)">
                <path d="M50,5325 L58,5325 L58,5321 L50,5321 L50,5325 Z M48,5333 L48,5328.104 C48,5327.552 48.534,5327 49.086,5327 L59.086,5327 C59.638,5327 60,5327.552 60,5328.104 L60,5333 L48,5333 Z M59.086,5337.104 L59.086,5337.104 C58.534,5337.104 58.086,5336.656 58.086,5336.104 C58.086,5335.552 58.534,5335.104 59.086,5335.104 C59.638,5335.104 60.086,5335.552 60.086,5336.104 C60.086,5336.656 59.638,5337.104 59.086,5337.104 L59.086,5337.104 Z M48.086,5336.104 L48.086,5336.104 C48.086,5335.552 48.534,5335.104 49.086,5335.104 C49.638,5335.104 50.086,5335.552 50.086,5336.104 C50.086,5336.656 49.638,5337.104 49.086,5337.104 C48.534,5337.104 48.086,5336.656 48.086,5336.104 L48.086,5336.104 Z M64,5320.052 L64,5320.026 C64,5319.474 63.638,5319 63.086,5319 L45.086,5319 C44.534,5319 44,5319.5 44,5320.052 L44,5320.026 C44,5320.578 44.534,5321 45.086,5321 L48,5321 L48,5325.104 L48,5325.104 C46.895,5325.104 46,5325.999 46,5327.104 L46,5337.104 C46,5338.209 46.981,5339 48.086,5339 L60.086,5339 C61.191,5339 62,5338.209 62,5337.104 L62,5327.104 C62,5325.999 61.105,5325.104 60,5325.104 L60,5325.104 L60,5321 L63.086,5321 C63.638,5321 64,5320.604 64,5320.052 L64,5320.052 Z" id="cabin-[#617]"></path>
            </g>
        </g>
    </g>
</svg>