<?xml version="1.0" encoding="UTF-8" standalone="no"?>
<svg width="20px" height="20px" viewBox="0 0 20 20" version="1.1" xmlns="http://www.w3.org/2000/svg" xmlns:xlink="http://www.w3.org/1999/xlink">
    <!-- Generator: Sketch 3.8.1 (29687) - http://www.bohemiancoding.com/sketch -->
    <title>calendar [#1322]</title>
    <desc>Created with Sketch.</desc>
    <defs></defs>
    <g id="Page-1" stroke="none" stroke-width="1" fill="none" fill-rule="evenodd">
        <g id="Dribbble-Dark-Preview" transform="translate(-60.000000, -2319.000000)" fill="#FFFFFF">
            <g id="icons" transform="translate(56.000000, 160.000000)">
                <path d="M21.971246,2167 L5.99680511,2167 L5.99680511,2163.971 C5.99680511,2163.435 6.43111022,2163 6.96625399,2163 L7.99361022,2163 L7.99361022,2165 L9.99041534,2165 L9.99041534,2163 L17.9776358,2163 L17.9776358,2165 L19.9744409,2165 L19.9744409,2163 L20.9728435,2163 C21.5239617,2163 21.971246,2163.448 21.971246,2164 L21.971246,2167 Z M21.971246,2176 C21.971246,2176.55 21.5219649,2177 20.9728435,2177 L6.99520767,2177 C6.44408946,2177 5.99680511,2176.552 5.99680511,2176 L5.99680511,2169 L21.971246,2169 L21.971246,2176 Z M4.06389776,2176.761 C4.06389776,2177.865 5.02136581,2179 6.12360224,2179 L22.0980431,2179 C23.201278,2179 24,2177.979 24,2176.761 C24,2176.372 23.9680511,2164.36 23.9680511,2163.708 C23.9680511,2161.626 23.6875,2161 19.9744409,2161 L19.9744409,2159 L17.9776358,2159 L17.9776358,2161 L9.99041534,2161 L9.99041534,2159 L7.99361022,2159 L7.99361022,2161 L5.99680511,2161 C4.8985623,2161 4,2161.9 4,2163 L4.06389776,2176.761 Z" id="calendar-[#1322]"></path>
            </g>
        </g>
    </g>
</svg>