<?xml version="1.0" encoding="UTF-8" standalone="no"?>
<svg width="20px" height="20px" viewBox="0 0 20 20" version="1.1" xmlns="http://www.w3.org/2000/svg" xmlns:xlink="http://www.w3.org/1999/xlink">
    <!-- Generator: Sketch 3.8.1 (29687) - http://www.bohemiancoding.com/sketch -->
    <title>calendar [#1196]</title>
    <desc>Created with Sketch.</desc>
    <defs></defs>
    <g id="Page-1" stroke="none" stroke-width="1" fill="none" fill-rule="evenodd">
        <g id="Dribbble-Dark-Preview" transform="translate(-300.000000, -2799.000000)" fill="#FFFFFF">
            <g id="icons" transform="translate(56.000000, 160.000000)">
                <path d="M262,2656 C262,2656.552 261.552,2657 261,2657 L247,2657 C246.448,2657 246,2656.552 246,2656 L246,2646 C246,2645.448 246.448,2645 247,2645 L261,2645 C261.552,2645 262,2645.448 262,2646 L262,2656 Z M262,2641 L262,2640 C262,2639.448 261.552,2639 261,2639 C260.448,2639 260,2639.448 260,2640 L260,2641 L255,2641 L255,2640 C255,2639.448 254.552,2639 254,2639 C253.448,2639 253,2639.448 253,2640 L253,2641 L248,2641 L248,2640 C248,2639.448 247.552,2639 247,2639 C246.448,2639 246,2639.448 246,2640 L246,2641 C244.895,2641 244,2641.895 244,2643 L244,2657 C244,2658.104 244.895,2659 246,2659 L262,2659 C263.105,2659 264,2658.104 264,2657 L264,2643 C264,2641.895 263.105,2641 262,2641 L262,2641 Z" id="calendar-[#1196]"></path>
            </g>
        </g>
    </g>
</svg>