<?xml version="1.0" encoding="UTF-8" standalone="no"?>
<svg width="15px" height="15px" viewBox="0 0 15 15" version="1.1" xmlns="http://www.w3.org/2000/svg" xmlns:xlink="http://www.w3.org/1999/xlink">
    <!-- Generator: Sketch 3.8.1 (29687) - http://www.bohemiancoding.com/sketch -->
    <title>call [#192]</title>
    <desc>Created with Sketch.</desc>
    <defs></defs>
    <g id="Page-1" stroke="none" stroke-width="1" fill="none" fill-rule="evenodd">
        <g id="Dribbble-Dark-Preview" transform="translate(-103.000000, -7321.000000)" fill="#FFFFFF">
            <g id="icons" transform="translate(56.000000, 160.000000)">
                <path d="M61.7302966,7173.99596 C61.2672966,7175.40296 59.4532966,7176.10496 58.1572966,7175.98796 C56.3872966,7175.82796 54.4612966,7174.88896 52.9992966,7173.85496 C50.8502966,7172.33496 48.8372966,7169.98396 47.6642966,7167.48896 C46.8352966,7165.72596 46.6492966,7163.55796 47.8822966,7161.95096 C48.3382966,7161.35696 48.8312966,7161.03996 49.5722966,7161.00296 C50.6002966,7160.95296 50.7442966,7161.54096 51.0972966,7162.45696 C51.3602966,7163.14196 51.7112966,7163.84096 51.9072966,7164.55096 C52.2742966,7165.87596 50.9912966,7165.93096 50.8292966,7167.01396 C50.7282966,7167.69696 51.5562966,7168.61296 51.9302966,7169.09996 C52.6632966,7170.05396 53.5442966,7170.87696 54.5382966,7171.50296 C55.1072966,7171.86196 56.0262966,7172.50896 56.6782966,7172.15196 C57.6822966,7171.60196 57.5872966,7169.90896 58.9912966,7170.48196 C59.7182966,7170.77796 60.4222966,7171.20496 61.1162966,7171.57896 C62.1892966,7172.15596 62.1392966,7172.75396 61.7302966,7173.99596 C61.4242966,7174.92396 62.0362966,7173.06796 61.7302966,7173.99596" id="call-[#192]"></path>
            </g>
        </g>
    </g>
</svg>