<?xml version="1.0" encoding="UTF-8" standalone="no"?>
<svg width="16px" height="17px" viewBox="0 0 16 17" version="1.1" xmlns="http://www.w3.org/2000/svg" xmlns:xlink="http://www.w3.org/1999/xlink">
    <!-- Generator: Sketch 3.8.1 (29687) - http://www.bohemiancoding.com/sketch -->
    <title>call [#187]</title>
    <desc>Created with Sketch.</desc>
    <defs></defs>
    <g id="Page-1" stroke="none" stroke-width="1" fill="none" fill-rule="evenodd">
        <g id="Dribbble-Dark-Preview" transform="translate(-302.000000, -7321.000000)" fill="#FFFFFF">
            <g id="icons" transform="translate(56.000000, 160.000000)">
                <path d="M260.000175,7163 L260.000175,7161 L258.000175,7161 L258.000175,7163 L256.000175,7163 L256.000175,7165 L258.000175,7165 L258.000175,7167 L260.000175,7167 L260.000175,7165 L262.000175,7165 L262.000175,7163 L260.000175,7163 Z M260.117175,7173.578 C259.422175,7173.204 258.719175,7172.778 257.992175,7172.481 C256.587175,7171.908 256.682175,7173.602 255.679175,7174.151 C255.027175,7174.508 254.107175,7173.861 253.538175,7173.503 C252.544175,7172.877 251.663175,7172.053 250.931175,7171.1 C250.556175,7170.613 249.728175,7169.697 249.830175,7169.014 C249.992175,7167.93 251.274175,7167.876 250.907175,7166.55 C250.711175,7165.84 250.360175,7165.141 250.097175,7164.457 C249.745175,7163.54 249.600175,7162.953 248.573175,7163.003 C247.831175,7163.039 247.339175,7163.356 246.883175,7163.951 C245.649175,7165.558 245.835175,7167.725 246.664175,7169.488 C247.838175,7171.983 249.850175,7174.335 251.999175,7175.855 C253.461175,7176.889 255.387175,7177.828 257.157175,7177.987 C258.453175,7178.104 260.266175,7177.403 260.730175,7175.996 C260.698175,7176.094 260.667175,7176.189 260.652175,7176.234 C260.663175,7176.199 260.687175,7176.128 260.730175,7175.996 C260.749175,7175.94 260.761175,7175.902 260.773175,7175.866 C260.760175,7175.905 260.746175,7175.948 260.731175,7175.993 C261.139175,7174.753 261.189175,7174.155 260.117175,7173.578 L260.117175,7173.578 Z M260.773175,7175.866 C260.789175,7175.817 260.803175,7175.774 260.811175,7175.751 C260.805175,7175.77 260.791175,7175.811 260.773175,7175.866 L260.773175,7175.866 Z" id="call-[#187]"></path>
            </g>
        </g>
    </g>
</svg>