<?xml version="1.0" encoding="UTF-8" standalone="no"?>
<svg width="16px" height="17px" viewBox="0 0 16 17" version="1.1" xmlns="http://www.w3.org/2000/svg" xmlns:xlink="http://www.w3.org/1999/xlink">
    <!-- Generator: Sketch 3.8.1 (29687) - http://www.bohemiancoding.com/sketch -->
    <title>call [#185]</title>
    <desc>Created with Sketch.</desc>
    <defs></defs>
    <g id="Page-1" stroke="none" stroke-width="1" fill="none" fill-rule="evenodd">
        <g id="Dribbble-Dark-Preview" transform="translate(-382.000000, -7321.000000)" fill="#FFFFFF">
            <g id="icons" transform="translate(56.000000, 160.000000)">
                <path d="M342,7162.42842 L340.570661,7161 L339.141322,7162.42842 L337.710972,7161 L336.281634,7162.42842 L337.710972,7163.85684 L336.281634,7165.28526 L337.710972,7166.71469 L339.141322,7165.28526 L340.570661,7166.71469 L342,7165.28526 L340.570661,7163.85684 L342,7162.42842 L342,7162.42842 Z M340.269428,7173.53352 C339.566889,7173.15571 338.856263,7172.72435 338.121377,7172.42432 C336.702146,7171.84548 336.798177,7173.55675 335.783286,7174.11135 C335.124213,7174.473 334.195244,7173.81941 333.620071,7173.45675 C332.615288,7172.82436 331.724731,7171.99297 330.98378,7171.02924 C330.605723,7170.53727 329.76773,7169.61193 329.870836,7168.92197 C330.034594,7167.82691 331.331512,7167.77236 330.96053,7166.43284 C330.762404,7165.71661 330.407597,7165.01048 330.141744,7164.3185 C329.784914,7163.39316 329.639352,7162.79916 328.600201,7162.84967 C327.851162,7162.88705 327.352814,7163.20728 326.891868,7163.80734 C325.645492,7165.43073 325.83351,7167.62083 326.671503,7169.4008 C327.857227,7171.92226 329.891053,7174.29723 332.064376,7175.83273 C333.542236,7176.87727 335.489129,7177.82585 337.27833,7177.98748 C338.588388,7178.10466 340.421056,7177.39652 340.890089,7175.97517 C340.856731,7176.07417 340.825395,7176.17014 340.810232,7176.21559 C340.822362,7176.18024 340.845612,7176.10851 340.890089,7175.97517 C340.908284,7175.9186 340.921425,7175.88021 340.933555,7175.84384 C340.920414,7175.88324 340.906263,7175.92668 340.8911,7175.97214 C341.303526,7174.71949 341.353057,7174.1164 340.269428,7173.53352 L340.269428,7173.53352 Z M340.933555,7175.84384 C340.949729,7175.79434 340.963881,7175.7509 340.970957,7175.72767 C340.964892,7175.74686 340.951751,7175.78828 340.933555,7175.84384 L340.933555,7175.84384 Z" id="call-[#185]"></path>
            </g>
        </g>
    </g>
</svg>