<?xml version="1.0" encoding="UTF-8" standalone="no"?>
<svg width="20px" height="20px" viewBox="0 0 20 20" version="1.1" xmlns="http://www.w3.org/2000/svg" xmlns:xlink="http://www.w3.org/1999/xlink">
    <!-- Generator: Sketch 3.8.1 (29687) - http://www.bohemiancoding.com/sketch -->
    <title>call [#189]</title>
    <desc>Created with Sketch.</desc>
    <defs></defs>
    <g id="Page-1" stroke="none" stroke-width="1" fill="none" fill-rule="evenodd">
        <g id="Dribbble-Dark-Preview" transform="translate(-220.000000, -7319.000000)" fill="#FFFFFF">
            <g id="icons" transform="translate(56.000000, 160.000000)">
                <path d="M183.9954,7161.01 C183.9954,7159.906 183.0974,7159.008 181.9934,7159.008 C181.2144,7159.003 182.0424,7159.006 176.9844,7159 C176.4324,7159 175.9744,7159.439 175.9754,7159.991 C175.9754,7160.543 176.4044,7160.973 176.9564,7160.973 L179.3584,7160.997 C179.8044,7160.997 180.0144,7161.523 179.6994,7161.838 L176.0684,7165.469 C175.6784,7165.86 175.6784,7166.493 176.0684,7166.883 C176.4594,7167.274 177.0924,7167.274 177.4834,7166.883 L181.1154,7163.251 C181.4304,7162.936 181.9814,7163.172 181.9814,7163.617 L181.9864,7166.003 C181.9864,7166.555 182.4554,7167.024 183.0084,7167.024 C183.5604,7167.024 184.0004,7166.568 184.0004,7166.016 L183.9954,7161.01 Z M178.1164,7174.578 C177.4214,7174.204 176.7184,7173.778 175.9914,7173.481 C174.5874,7172.908 174.6824,7174.602 173.6784,7175.151 C173.0264,7175.508 172.1074,7174.861 171.5384,7174.503 C170.5444,7173.877 169.6634,7173.053 168.9304,7172.1 C168.5564,7171.613 167.7274,7170.697 167.8294,7170.014 C167.9914,7168.93 169.2744,7168.876 168.9074,7167.55 C168.7114,7166.84 168.3604,7166.141 168.0974,7165.457 C167.7444,7164.54 167.6004,7163.953 166.5724,7164.003 C165.8314,7164.039 165.3384,7164.356 164.8824,7164.951 C163.6494,7166.558 163.8354,7168.725 164.6644,7170.488 C165.8374,7172.983 167.8494,7175.335 169.9994,7176.855 C171.4614,7177.889 173.3874,7178.828 175.1574,7178.987 C176.4534,7179.104 178.2664,7178.403 178.7304,7176.996 C178.6974,7177.094 178.6664,7177.189 178.6514,7177.234 C178.6634,7177.199 178.6864,7177.128 178.7304,7176.996 C178.7764,7176.854 178.8004,7176.783 178.8104,7176.751 C178.7974,7176.793 178.7644,7176.891 178.7314,7176.993 C179.1394,7175.752 179.1884,7175.155 178.1164,7174.578 L178.1164,7174.578 Z M178.6514,7177.234 C178.6414,7177.265 178.6394,7177.27 178.6514,7177.234 L178.6514,7177.234 Z M178.8104,7176.751 C178.8184,7176.727 178.8194,7176.725 178.8104,7176.751 L178.8104,7176.751 Z" id="call-[#189]"></path>
            </g>
        </g>
    </g>
</svg>