<?xml version="1.0" encoding="UTF-8" standalone="no"?>
<svg width="20px" height="20px" viewBox="0 0 20 20" version="1.1" xmlns="http://www.w3.org/2000/svg" xmlns:xlink="http://www.w3.org/1999/xlink">
    <!-- Generator: Sketch 3.8.1 (29687) - http://www.bohemiancoding.com/sketch -->
    <title>call [#190]</title>
    <desc>Created with Sketch.</desc>
    <defs></defs>
    <g id="Page-1" stroke="none" stroke-width="1" fill="none" fill-rule="evenodd">
        <g id="Dribbble-Dark-Preview" transform="translate(-180.000000, -7319.000000)" fill="#FFFFFF">
            <g id="icons" transform="translate(56.000000, 160.000000)">
                <path d="M142.8193,7165.2034 L140.4173,7165.1794 C139.9723,7165.1794 139.7613,7164.6534 140.0763,7164.3384 L143.7073,7160.7074 C144.0973,7160.3164 144.0973,7159.6834 143.7073,7159.2934 C143.3163,7158.9024 142.6833,7158.9024 142.2933,7159.2934 L138.6603,7162.9254 C138.3453,7163.2404 137.7943,7163.0044 137.7953,7162.5594 L137.7893,7160.1734 C137.7893,7159.6214 137.3203,7159.1524 136.7673,7159.1524 C136.2153,7159.1524 135.7763,7159.6074 135.7763,7160.1604 L135.7803,7165.1664 C135.7803,7166.2694 136.6783,7167.1674 137.7823,7167.1674 C138.5613,7167.1724 137.7333,7167.1704 142.7913,7167.1764 C143.3443,7167.1764 143.8013,7166.7374 143.8013,7166.1854 C143.8013,7165.6324 143.3713,7165.2034 142.8193,7165.2034 M138.1163,7174.5784 C137.4223,7174.2044 136.7183,7173.7774 135.9913,7173.4814 C134.5873,7172.9084 134.6823,7174.6014 133.6783,7175.1514 C132.2543,7175.9314 127.6203,7171.4154 127.8293,7170.0144 C127.9913,7168.9304 129.2743,7168.8754 128.9073,7167.5504 C128.7113,7166.8404 128.3603,7166.1414 128.0973,7165.4574 C127.7443,7164.5404 127.6003,7163.9524 126.5723,7164.0034 C125.8313,7164.0394 125.3383,7164.3564 124.8823,7164.9504 C123.6493,7166.5574 123.8353,7168.7254 124.6643,7170.4884 C126.9923,7175.4384 131.7423,7178.6794 135.1573,7178.9874 C136.4533,7179.1044 138.2663,7178.4024 138.7303,7176.9964 C138.6983,7177.0944 138.6663,7177.1884 138.6513,7177.2344 C138.6633,7177.1984 138.6873,7177.1274 138.7303,7176.9954 C138.7773,7176.8544 138.8003,7176.7824 138.8113,7176.7514 C138.7973,7176.7924 138.7653,7176.8904 138.7313,7176.9924 C139.1393,7175.7524 139.1883,7175.1554 138.1163,7174.5784 M138.6513,7177.2344 C138.6393,7177.2704 138.6413,7177.2654 138.6513,7177.2344 M138.8113,7176.7514 C138.8183,7176.7274 138.8193,7176.7254 138.8113,7176.7514" id="call-[#190]"></path>
            </g>
        </g>
    </g>
</svg>