<?xml version="1.0" encoding="UTF-8" standalone="no"?>
<svg width="20px" height="20px" viewBox="0 0 20 20" version="1.1" xmlns="http://www.w3.org/2000/svg" xmlns:xlink="http://www.w3.org/1999/xlink">
    <!-- Generator: Sketch 3.8.1 (29687) - http://www.bohemiancoding.com/sketch -->
    <title>call [#191]</title>
    <desc>Created with Sketch.</desc>
    <defs></defs>
    <g id="Page-1" stroke="none" stroke-width="1" fill="none" fill-rule="evenodd">
        <g id="Dribbble-Dark-Preview" transform="translate(-140.000000, -7319.000000)" fill="#FFFFFF">
            <g id="icons" transform="translate(56.000000, 160.000000)">
                <path d="M94,7167 L94,7169 L96,7169 C96,7167.895 95.105,7167 94,7167 M94,7163 L94,7165 C96.206,7165 98,7166.794 98,7169 L100,7169 C100,7165.686 97.314,7163 94,7163 M94,7159 L94,7161 C98.411,7161 102,7164.589 102,7169 L104,7169 C104,7163.477 99.523,7159 94,7159 M98.652,7177.234 C98.641,7177.265 98.64,7177.27 98.652,7177.234 M98.117,7174.578 C97.422,7174.204 96.719,7173.778 95.992,7173.481 C94.587,7172.908 94.682,7174.602 93.679,7175.151 C93.027,7175.508 92.107,7174.861 91.538,7174.503 C90.544,7173.877 89.663,7173.053 88.931,7172.1 C88.556,7171.613 87.728,7170.697 87.83,7170.014 C87.992,7168.93 89.274,7168.876 88.907,7167.55 C88.711,7166.84 88.36,7166.141 88.097,7165.457 C87.745,7164.54 87.6,7163.953 86.573,7164.003 C85.831,7164.039 85.339,7164.356 84.883,7164.951 C83.649,7166.558 83.835,7168.725 84.664,7170.488 C85.838,7172.983 87.85,7175.335 89.999,7176.855 C91.461,7177.889 93.387,7178.828 95.157,7178.987 C96.453,7179.104 98.266,7178.403 98.73,7176.996 C98.698,7177.094 98.667,7177.189 98.652,7177.234 C98.663,7177.199 98.687,7177.128 98.73,7176.996 C98.777,7176.854 98.8,7176.783 98.811,7176.751 C98.797,7176.793 98.765,7176.891 98.731,7176.993 C99.139,7175.753 99.189,7175.155 98.117,7174.578 M98.811,7176.751 C98.819,7176.727 98.819,7176.725 98.811,7176.751" id="call-[#191]"></path>
            </g>
        </g>
    </g>
</svg>