<?xml version="1.0" encoding="UTF-8" standalone="no"?>
<svg width="16px" height="16px" viewBox="0 0 16 16" version="1.1" xmlns="http://www.w3.org/2000/svg" xmlns:xlink="http://www.w3.org/1999/xlink">
    <!-- Generator: Sketch 3.8.1 (29687) - http://www.bohemiancoding.com/sketch -->
    <title>call [#188]</title>
    <desc>Created with Sketch.</desc>
    <defs></defs>
    <g id="Page-1" stroke="none" stroke-width="1" fill="none" fill-rule="evenodd">
        <g id="Dribbble-Dark-Preview" transform="translate(-262.000000, -7321.000000)" fill="#FFFFFF">
            <g id="icons" transform="translate(56.000000, 160.000000)">
                <path d="M220.545642,7161 L206,7175.54564 L207.454358,7177 L222,7162.45436 L220.545642,7161 Z M221.480586,7174.51916 C221.497043,7174.46876 221.511443,7174.42453 221.519671,7174.40087 C221.5135,7174.42042 221.4991,7174.46259 221.480586,7174.51916 L221.480586,7174.51916 Z M220.805863,7172.16688 C220.091026,7171.78221 219.367961,7171.34302 218.620211,7171.03754 C217.175109,7170.44819 217.272821,7172.19054 216.241193,7172.75521 C215.819491,7172.98663 215.289792,7172.80972 214.809463,7172.55464 L212.695809,7174.6683 C214.166624,7175.66598 216.033428,7176.54538 217.762407,7176.70172 C219.094369,7176.82103 220.960144,7176.10003 221.436359,7174.65287 C221.403446,7174.75366 221.371561,7174.85138 221.356133,7174.89766 C221.367447,7174.86166 221.392132,7174.78863 221.436359,7174.65287 C221.455901,7174.59527 221.468244,7174.55618 221.480586,7174.51916 C221.467215,7174.55927 221.452816,7174.6035 221.437388,7174.64978 C221.857033,7173.37439 221.90846,7172.75932 220.805863,7172.16688 L220.805863,7172.16688 Z M208.339933,7170.29699 L210.397017,7168.23991 C210.268449,7167.97454 210.189252,7167.70918 210.225251,7167.47159 C210.391875,7166.35665 211.710465,7166.30111 211.334019,7164.93726 C211.131396,7164.20802 210.770378,7163.48907 210.499871,7162.78452 C210.137825,7161.84238 209.988686,7161.23759 208.932373,7161.28902 C208.169195,7161.32708 207.663152,7161.65312 207.194137,7162.26408 C205.924916,7163.91695 206.116225,7166.14682 206.968887,7167.95912 C207.346362,7168.76241 207.815377,7169.54513 208.339933,7170.29699 L208.339933,7170.29699 Z" id="call-[#188]"></path>
            </g>
        </g>
    </g>
</svg>