<?xml version="1.0" encoding="UTF-8" standalone="no"?>
<svg width="16px" height="15px" viewBox="0 0 16 15" version="1.1" xmlns="http://www.w3.org/2000/svg" xmlns:xlink="http://www.w3.org/1999/xlink">
    <!-- Generator: Sketch 3.8.1 (29687) - http://www.bohemiancoding.com/sketch -->
    <title>call [#186]</title>
    <desc>Created with Sketch.</desc>
    <defs></defs>
    <g id="Page-1" stroke="none" stroke-width="1" fill="none" fill-rule="evenodd">
        <g id="Dribbble-Dark-Preview" transform="translate(-342.000000, -7322.000000)" fill="#FFFFFF">
            <g id="icons" transform="translate(56.000000, 160.000000)">
                <path d="M296.000175,7164 L302.000175,7164 L302.000175,7162 L296.000175,7162 L296.000175,7164 Z M300.811175,7174.751 C300.803175,7174.774 300.789175,7174.817 300.773175,7174.866 C300.791175,7174.811 300.805175,7174.77 300.811175,7174.751 L300.811175,7174.751 Z M300.731175,7174.993 C300.746175,7174.948 300.760175,7174.905 300.773175,7174.866 C300.761175,7174.902 300.749175,7174.94 300.730175,7174.996 C300.687175,7175.128 300.663175,7175.199 300.652175,7175.234 C300.667175,7175.189 300.698175,7175.094 300.730175,7174.996 C300.266175,7176.403 298.453175,7177.104 297.157175,7176.987 C295.387175,7176.828 293.461175,7175.889 291.999175,7174.855 C289.850175,7173.335 287.838175,7170.983 286.664175,7168.488 C285.835175,7166.725 285.649175,7164.558 286.883175,7162.951 C287.339175,7162.356 287.831175,7162.039 288.573175,7162.003 C289.600175,7161.953 289.745175,7162.54 290.097175,7163.457 C290.360175,7164.141 290.711175,7164.84 290.907175,7165.55 C291.274175,7166.876 289.992175,7166.93 289.830175,7168.014 C289.728175,7168.697 290.556175,7169.613 290.931175,7170.1 C291.663175,7171.053 292.544175,7171.877 293.538175,7172.503 C294.107175,7172.861 295.027175,7173.508 295.679175,7173.151 C296.682175,7172.602 296.587175,7170.908 297.992175,7171.481 C298.719175,7171.778 299.422175,7172.204 300.117175,7172.578 C301.189175,7173.155 301.139175,7173.753 300.731175,7174.993 L300.731175,7174.993 Z" id="call-[#186]"></path>
            </g>
        </g>
    </g>
</svg>