<?xml version="1.0" encoding="UTF-8" standalone="no"?>
<svg width="20px" height="16px" viewBox="0 0 20 16" version="1.1" xmlns="http://www.w3.org/2000/svg" xmlns:xlink="http://www.w3.org/1999/xlink">
    <!-- Generator: Sketch 3.8.1 (29687) - http://www.bohemiancoding.com/sketch -->
    <title>camera [#980]</title>
    <desc>Created with Sketch.</desc>
    <defs></defs>
    <g id="Page-1" stroke="none" stroke-width="1" fill="none" fill-rule="evenodd">
        <g id="Dribbble-Dark-Preview" transform="translate(-60.000000, -3881.000000)" fill="#FFFFFF">
            <g id="icons" transform="translate(56.000000, 160.000000)">
                <path d="M14,3728.5 C11.791,3728.5 10,3730.291 10,3732.5 C10,3734.709 11.791,3736.5 14,3736.5 C16.209,3736.5 18,3734.709 18,3732.5 C18,3730.291 16.209,3728.5 14,3728.5 L14,3728.5 Z M11,3725 L17,3725 L17,3723 L11,3723 L11,3725 Z M19,3721 L9,3721 L9,3725 L4,3725 L4,3737 L8,3737 L8,3735 L6,3735 L6,3727 L22,3727 L22,3735 L20,3735 L20,3737 L24,3737 L24,3725 L23,3725 L23,3723 L21,3723 L21,3725 L19,3725 L19,3721 Z M14,3730.5 C15.103,3730.5 16,3731.397 16,3732.5 C16,3733.603 15.103,3734.5 14,3734.5 C12.897,3734.5 12,3733.603 12,3732.5 C12,3731.397 12.897,3730.5 14,3730.5 L14,3730.5 Z" id="camera-[#980]"></path>
            </g>
        </g>
    </g>
</svg>