<?xml version="1.0" encoding="UTF-8" standalone="no"?>
<svg width="20px" height="20px" viewBox="0 0 20 20" version="1.1" xmlns="http://www.w3.org/2000/svg" xmlns:xlink="http://www.w3.org/1999/xlink">
    <!-- Generator: Sketch 3.8.1 (29687) - http://www.bohemiancoding.com/sketch -->
    <title>camera [#954]</title>
    <desc>Created with Sketch.</desc>
    <defs></defs>
    <g id="Page-1" stroke="none" stroke-width="1" fill="none" fill-rule="evenodd">
        <g id="Dribbble-Dark-Preview" transform="translate(-300.000000, -3959.000000)" fill="#FFFFFF">
            <g id="icons" transform="translate(56.000000, 160.000000)">
                <path d="M262.586707,3799 L244.010995,3817.13171 L245.424288,3818.51122 L264,3800.37951 L262.586707,3799 Z M254.263868,3812.64195 L252.524738,3814.33951 C255.772114,3815.5961 258.997501,3812.46439 257.705147,3809.28293 L255.966017,3810.98049 C255.845077,3811.84488 255.149425,3812.5239 254.263868,3812.64195 L254.263868,3812.64195 Z M261.991004,3817.04878 L250.238881,3817.04878 L248.23988,3819 L263.990005,3819 L263.990005,3814.62049 L263.990005,3803.14927 L261.991004,3805.10049 L261.991004,3817.04878 Z M245.999,3812.4322 L244,3814.38341 L244,3803.39024 L248.997501,3803.39024 L248.997501,3799.4878 L258.992504,3799.4878 L256.993503,3801.43902 L250.996502,3801.43902 L250.996502,3803.39024 L255.751124,3803.39024 L253.752124,3805.34146 L245.999,3805.34146 L245.999,3812.4322 Z" id="camera-[#954]"></path>
            </g>
        </g>
    </g>
</svg>