<?xml version="1.0" encoding="UTF-8" standalone="no"?>
<svg width="20px" height="20px" viewBox="0 0 20 20" version="1.1" xmlns="http://www.w3.org/2000/svg" xmlns:xlink="http://www.w3.org/1999/xlink">
    <!-- Generator: Sketch 3.8.1 (29687) - http://www.bohemiancoding.com/sketch -->
    <title>camera [#953]</title>
    <desc>Created with Sketch.</desc>
    <defs></defs>
    <g id="Page-1" stroke="none" stroke-width="1" fill="none" fill-rule="evenodd">
        <g id="Dribbble-Dark-Preview" transform="translate(-340.000000, -3959.000000)" fill="#FFFFFF">
            <g id="icons" transform="translate(56.000000, 160.000000)">
                <path d="M302.586707,3799 L284.010995,3817.13171 L285.424288,3818.51122 L304,3800.37951 L302.586707,3799 Z M294.263868,3812.64195 L292.524738,3814.33951 C295.774113,3815.59707 298.996502,3812.46146 297.705147,3809.28293 L295.966017,3810.98049 C295.845077,3811.84488 295.149425,3812.5239 294.263868,3812.64195 L294.263868,3812.64195 Z M301.991004,3815.5961 C301.991004,3816.13463 301.543228,3817.04878 300.991504,3817.04878 L290.238881,3817.04878 L288.23988,3819 L301.991004,3819 C303.094453,3819 303.990005,3817.64878 303.990005,3816.57171 L303.990005,3813.86537 L303.990005,3813.5122 L303.990005,3803.14927 L301.991004,3805.10049 L301.991004,3815.5961 Z M285.999,3812.4322 L284,3814.38341 L284,3805.19902 C284,3804.12195 284.894553,3803.39024 285.999,3803.39024 L288.997501,3803.39024 L288.997501,3801.54049 C288.997501,3800.37171 289.968016,3799.4878 291.165417,3799.4878 L298.992504,3799.4878 L296.993503,3801.43902 L291.996002,3801.43902 C291.443278,3801.43902 290.996502,3801.39805 290.996502,3801.93756 L290.996502,3803.39024 L295.751124,3803.39024 L293.752124,3805.34146 L286.998501,3805.34146 C286.445777,3805.34146 285.999,3805.30049 285.999,3805.84 L285.999,3812.4322 Z" id="camera-[#953]"></path>
            </g>
        </g>
    </g>
</svg>