<?xml version="1.0" encoding="UTF-8" standalone="no"?>
<svg width="20px" height="20px" viewBox="0 0 20 20" version="1.1" xmlns="http://www.w3.org/2000/svg" xmlns:xlink="http://www.w3.org/1999/xlink">
    <!-- Generator: Sketch 3.8.1 (29687) - http://www.bohemiancoding.com/sketch -->
    <title>camera [#947]</title>
    <desc>Created with Sketch.</desc>
    <defs></defs>
    <g id="Page-1" stroke="none" stroke-width="1" fill="none" fill-rule="evenodd">
        <g id="Dribbble-Dark-Preview" transform="translate(-180.000000, -3999.000000)" fill="#FFFFFF">
            <g id="icons" transform="translate(56.000000, 160.000000)">
                <path d="M134.011,3848.5 C135.114,3848.5 136.011,3849.397 136.011,3850.5 C136.011,3851.603 135.114,3852.5 134.011,3852.5 C132.908,3852.5 132.011,3851.603 132.011,3850.5 C132.011,3849.397 132.908,3848.5 134.011,3848.5 L134.011,3848.5 Z M134.011,3854.5 C136.22,3854.5 138.011,3852.709 138.011,3850.5 C138.011,3848.291 136.22,3846.5 134.011,3846.5 C131.802,3846.5 130.011,3848.291 130.011,3850.5 C130.011,3852.709 131.802,3854.5 134.011,3854.5 L134.011,3854.5 Z M126,3857 L142,3857 L142,3845 L126,3845 L126,3857 Z M131,3843 L137,3843 L137,3841 L131,3841 L131,3843 Z M143,3843 L143,3841 L141,3841 L141,3843 L139,3843 L139,3839 L129,3839 L129,3843 L124,3843 L124,3859 L144,3859 L144,3843 L143,3843 Z" id="camera-[#947]"></path>
            </g>
        </g>
    </g>
</svg>