<?xml version="1.0" encoding="UTF-8" standalone="no"?>
<svg width="22px" height="20px" viewBox="0 0 22 20" version="1.1" xmlns="http://www.w3.org/2000/svg" xmlns:xlink="http://www.w3.org/1999/xlink">
    <!-- Generator: Sketch 3.8.1 (29687) - http://www.bohemiancoding.com/sketch -->
    <title>camera [#952]</title>
    <desc>Created with Sketch.</desc>
    <defs></defs>
    <g id="Page-1" stroke="none" stroke-width="1" fill="none" fill-rule="evenodd">
        <g id="Dribbble-Dark-Preview" transform="translate(-378.000000, -3959.000000)" fill="#FFFFFF">
            <g id="icons" transform="translate(56.000000, 160.000000)">
                <path d="M326,3814 L326,3815 L327,3815 C327.552,3815 328,3815.448 328,3816 C328,3816.552 327.552,3817 327,3817 L326,3817 L326,3818 C326,3818.552 325.552,3819 325,3819 C324.448,3819 324,3818.552 324,3818 L324,3817 L323,3817 C322.448,3817 322,3816.552 322,3816 C322,3815.448 322.448,3815 323,3815 L324,3815 L324,3814 C324,3813.448 324.448,3813 325,3813 C325.552,3813 326,3813.448 326,3814 L326,3814 Z M334,3814.5 C332.897,3814.5 332,3813.603 332,3812.5 C332,3811.397 332.897,3810.5 334,3810.5 C335.103,3810.5 336,3811.397 336,3812.5 C336,3813.603 335.103,3814.5 334,3814.5 L334,3814.5 Z M334,3808.5 C331.791,3808.5 330,3810.291 330,3812.5 C330,3814.709 331.791,3816.5 334,3816.5 C336.209,3816.5 338,3814.709 338,3812.5 C338,3810.291 336.209,3808.5 334,3808.5 L334,3808.5 Z M337,3803 L331,3803 L331,3802 C331,3801.448 331.448,3801 332,3801 L336,3801 C336.552,3801 337,3801.448 337,3802 L337,3803 Z M343,3803 L343,3802 C343,3801.448 342.552,3801 342,3801 C341.448,3801 341,3801.448 341,3802 L341,3803 L339,3803 L339,3801 C339,3799.895 338.105,3799 337,3799 L331,3799 C329.895,3799 329,3799.895 329,3801 L329,3803 L326,3803 C324.895,3803 324,3803.895 324,3805 L324,3811 L326,3811 L326,3806 C326,3805.448 326.448,3805 327,3805 L341,3805 C341.552,3805 342,3805.448 342,3806 L342,3814 C342,3814.552 341.552,3815 341,3815 L340,3815 L340,3817 L342,3817 C343.105,3817 344,3816.105 344,3815 L344,3803 L343,3803 Z" id="camera-[#952]"></path>
            </g>
        </g>
    </g>
</svg>