<?xml version="1.0" encoding="UTF-8" standalone="no"?>
<svg width="22px" height="20px" viewBox="0 0 22 20" version="1.1" xmlns="http://www.w3.org/2000/svg" xmlns:xlink="http://www.w3.org/1999/xlink">
    <!-- Generator: Sketch 3.8.1 (29687) - http://www.bohemiancoding.com/sketch -->
    <title>camera_plus [#946]</title>
    <desc>Created with Sketch.</desc>
    <defs></defs>
    <g id="Page-1" stroke="none" stroke-width="1" fill="none" fill-rule="evenodd">
        <g id="Dribbble-Dark-Preview" transform="translate(-218.000000, -3999.000000)" fill="#FFFFFF">
            <g id="icons" transform="translate(56.000000, 160.000000)">
                <path d="M166,3855 L168,3855 L168,3857 L166,3857 L166,3859 L164,3859 L164,3857 L162,3857 L162,3855 L164,3855 L164,3853 L166,3853 L166,3855 Z M174,3854.5 C172.897,3854.5 172,3853.603 172,3852.5 C172,3851.397 172.897,3850.5 174,3850.5 C175.103,3850.5 176,3851.397 176,3852.5 C176,3853.603 175.103,3854.5 174,3854.5 L174,3854.5 Z M174,3848.5 C171.791,3848.5 170,3850.291 170,3852.5 C170,3854.709 171.791,3856.5 174,3856.5 C176.209,3856.5 178,3854.709 178,3852.5 C178,3850.291 176.209,3848.5 174,3848.5 L174,3848.5 Z M171,3843 L177,3843 L177,3841 L171,3841 L171,3843 Z M183,3843 L183,3841 L181,3841 L181,3843 L179,3843 L179,3839 L169,3839 L169,3843 L164,3843 L164,3851 L166,3851 L166,3845 L182,3845 L182,3855 L180,3855 L180,3857 L184,3857 L184,3843 L183,3843 Z" id="camera_plus-[#946]"></path>
            </g>
        </g>
    </g>
</svg>