<?xml version="1.0" encoding="UTF-8" standalone="no"?>
<svg width="20px" height="16px" viewBox="0 0 20 16" version="1.1" xmlns="http://www.w3.org/2000/svg" xmlns:xlink="http://www.w3.org/1999/xlink">
    <!-- Generator: Sketch 3.8.1 (29687) - http://www.bohemiancoding.com/sketch -->
    <title>camera [#962]</title>
    <desc>Created with Sketch.</desc>
    <defs></defs>
    <g id="Page-1" stroke="none" stroke-width="1" fill="none" fill-rule="evenodd">
        <g id="Dribbble-Dark-Preview" transform="translate(-380.000000, -3921.000000)" fill="#FFFFFF">
            <g id="icons" transform="translate(56.000000, 160.000000)">
                <path d="M334,3768.5 C331.791,3768.5 330,3770.291 330,3772.5 C330,3774.709 331.791,3776.5 334,3776.5 C336.209,3776.5 338,3774.709 338,3772.5 C338,3770.291 336.209,3768.5 334,3768.5 L334,3768.5 Z M331,3765 L331,3764 C331,3763.448 331.448,3763 332,3763 L336,3763 C336.552,3763 337,3763.448 337,3764 L337,3765 L331,3765 Z M337,3761 L331,3761 C329.895,3761 329,3761.895 329,3763 L329,3765 L326,3765 C324.895,3765 324,3765.895 324,3767 L324,3775 C324,3776.105 324.895,3777 326,3777 L327,3777 C327.552,3777 328,3776.552 328,3776 C328,3775.448 327.552,3775 327,3775 C326.448,3775 326,3774.552 326,3774 L326,3768 C326,3767.448 326.448,3767 327,3767 L341,3767 C341.552,3767 342,3767.448 342,3768 L342,3774 C342,3774.552 341.552,3775 341,3775 C340.448,3775 340,3775.448 340,3776 C340,3776.552 340.448,3777 341,3777 L342,3777 C343.105,3777 344,3776.105 344,3775 L344,3765 L343,3765 L343,3764 C343,3763.448 342.552,3763 342,3763 C341.448,3763 341,3763.448 341,3764 L341,3765 L339,3765 L339,3763 C339,3761.895 338.105,3761 337,3761 L337,3761 Z M334,3770.5 C335.103,3770.5 336,3771.397 336,3772.5 C336,3773.603 335.103,3774.5 334,3774.5 C332.897,3774.5 332,3773.603 332,3772.5 C332,3771.397 332.897,3770.5 334,3770.5 L334,3770.5 Z" id="camera-[#962]"></path>
            </g>
        </g>
    </g>
</svg>