<?xml version="1.0" encoding="UTF-8" standalone="no"?>
<svg width="22px" height="18px" viewBox="0 0 22 18" version="1.1" xmlns="http://www.w3.org/2000/svg" xmlns:xlink="http://www.w3.org/1999/xlink">
    <!-- Generator: Sketch 3.8.1 (29687) - http://www.bohemiancoding.com/sketch -->
    <title>camera_minus [#945]</title>
    <desc>Created with Sketch.</desc>
    <defs></defs>
    <g id="Page-1" stroke="none" stroke-width="1" fill="none" fill-rule="evenodd">
        <g id="Dribbble-Dark-Preview" transform="translate(-258.000000, -3999.000000)" fill="#FFFFFF">
            <g id="icons" transform="translate(56.000000, 160.000000)">
                <path d="M202,3857 L208,3857 L208,3855 L202,3855 L202,3857 Z M214,3854.5 C212.897,3854.5 212,3853.603 212,3852.5 C212,3851.397 212.897,3850.5 214,3850.5 C215.103,3850.5 216,3851.397 216,3852.5 C216,3853.603 215.103,3854.5 214,3854.5 L214,3854.5 Z M214,3848.5 C211.791,3848.5 210,3850.291 210,3852.5 C210,3854.709 211.791,3856.5 214,3856.5 C216.209,3856.5 218,3854.709 218,3852.5 C218,3850.291 216.209,3848.5 214,3848.5 L214,3848.5 Z M211,3843 L217,3843 L217,3841 L211,3841 L211,3843 Z M223,3843 L223,3841 L221,3841 L221,3843 L219,3843 L219,3839 L209,3839 L209,3843 L204,3843 L204,3851 L206,3851 L206,3845 L222,3845 L222,3855 L220,3855 L220,3857 L224,3857 L224,3843 L223,3843 Z" id="camera_minus-[#945]"></path>
            </g>
        </g>
    </g>
</svg>