<?xml version="1.0" encoding="UTF-8" standalone="no"?>
<svg width="20px" height="20px" viewBox="0 0 20 20" version="1.1" xmlns="http://www.w3.org/2000/svg" xmlns:xlink="http://www.w3.org/1999/xlink">
    <!-- Generator: Sketch 3.8.1 (29687) - http://www.bohemiancoding.com/sketch -->
    <title>camera [#936]</title>
    <desc>Created with Sketch.</desc>
    <defs></defs>
    <g id="Page-1" stroke="none" stroke-width="1" fill="none" fill-rule="evenodd">
        <g id="Dribbble-Dark-Preview" transform="translate(-220.000000, -4039.000000)" fill="#FFFFFF">
            <g id="icons" transform="translate(56.000000, 160.000000)">
                <path d="M174.11,3888.599 C175.213,3888.599 176.11,3889.496 176.11,3890.599 C176.11,3891.702 175.213,3892.599 174.11,3892.599 C173.007,3892.599 172.11,3891.702 172.11,3890.599 C172.11,3889.496 173.007,3888.599 174.11,3888.599 L174.11,3888.599 Z M174.11,3894.599 C176.319,3894.599 178.11,3892.808 178.11,3890.599 C178.11,3888.39 176.319,3886.599 174.11,3886.599 C171.901,3886.599 170.11,3888.39 170.11,3890.599 C170.11,3892.808 171.901,3894.599 174.11,3894.599 L174.11,3894.599 Z M181,3897 L167,3897 C166.448,3897 166,3896.552 166,3896 L166,3886 C166,3885.448 166.448,3885 167,3885 L181,3885 C181.552,3885 182,3885.448 182,3886 L182,3896 C182,3896.552 181.552,3897 181,3897 L181,3897 Z M172,3881 L176,3881 C176.552,3881 177,3881.448 177,3882 L177,3883 L171,3883 L171,3882 C171,3881.448 171.448,3881 172,3881 L172,3881 Z M183,3883 L183,3882 C183,3881.448 182.552,3881 182,3881 C181.448,3881 181,3881.448 181,3882 L181,3883 L179,3883 L179,3881 C179,3879.896 178.104,3879 177,3879 L171,3879 C169.895,3879 169,3879.896 169,3881 L169,3883 L166,3883 C164.895,3883 164,3883.896 164,3885 L164,3897 C164,3898.105 164.895,3899 166,3899 L182,3899 C183.104,3899 184,3898.105 184,3897 L184,3883 L183,3883 Z" id="camera-[#936]"></path>
            </g>
        </g>
    </g>
</svg>