<?xml version="1.0" encoding="UTF-8" standalone="no"?>
<svg width="22px" height="18px" viewBox="0 0 22 18" version="1.1" xmlns="http://www.w3.org/2000/svg" xmlns:xlink="http://www.w3.org/1999/xlink">
    <!-- Generator: Sketch 3.8.1 (29687) - http://www.bohemiancoding.com/sketch -->
    <title>camera [#951]</title>
    <desc>Created with Sketch.</desc>
    <defs></defs>
    <g id="Page-1" stroke="none" stroke-width="1" fill="none" fill-rule="evenodd">
        <g id="Dribbble-Dark-Preview" transform="translate(-418.000000, -3959.000000)" fill="#FFFFFF">
            <g id="icons" transform="translate(56.000000, 160.000000)">
                <path d="M362,3816 L362,3816 C362,3815.448 362.448,3815 363,3815 L367,3815 C367.552,3815 368,3815.448 368,3816 C368,3816.552 367.552,3817 367,3817 L363,3817 C362.448,3817 362,3816.552 362,3816 L362,3816 Z M374,3814.5 C372.897,3814.5 372,3813.603 372,3812.5 C372,3811.397 372.897,3810.5 374,3810.5 C375.103,3810.5 376,3811.397 376,3812.5 C376,3813.603 375.103,3814.5 374,3814.5 L374,3814.5 Z M374,3808.5 C371.791,3808.5 370,3810.291 370,3812.5 C370,3814.709 371.791,3816.5 374,3816.5 C376.209,3816.5 378,3814.709 378,3812.5 C378,3810.291 376.209,3808.5 374,3808.5 L374,3808.5 Z M377,3803 L371,3803 L371,3802 C371,3801.448 371.448,3801 372,3801 L376,3801 C376.552,3801 377,3801.448 377,3802 L377,3803 Z M383,3803 L383,3802 C383,3801.448 382.552,3801 382,3801 C381.448,3801 381,3801.448 381,3802 L381,3803 L379,3803 L379,3801 C379,3799.895 378.105,3799 377,3799 L371,3799 C369.895,3799 369,3799.895 369,3801 L369,3803 L366,3803 C364.895,3803 364,3803.895 364,3805 L364,3811 L366,3811 L366,3806 C366,3805.448 366.448,3805 367,3805 L381,3805 C381.552,3805 382,3805.448 382,3806 L382,3815 L381,3815 C380.448,3815 380,3815.448 380,3816 C380,3816.552 380.448,3817 381,3817 L382,3817 C383.105,3817 384,3816.105 384,3815 L384,3803 L383,3803 Z" id="camera-[#951]"></path>
            </g>
        </g>
    </g>
</svg>