<?xml version="1.0" encoding="UTF-8" standalone="no"?>
<svg width="20px" height="20px" viewBox="0 0 20 20" version="1.1" xmlns="http://www.w3.org/2000/svg" xmlns:xlink="http://www.w3.org/1999/xlink">
    <!-- Generator: Sketch 3.8.1 (29687) - http://www.bohemiancoding.com/sketch -->
    <title>cannon [#780]</title>
    <desc>Created with Sketch.</desc>
    <defs></defs>
    <g id="Page-1" stroke="none" stroke-width="1" fill="none" fill-rule="evenodd">
        <g id="Dribbble-Dark-Preview" transform="translate(-380.000000, -4759.000000)" fill="#FFFFFF">
            <g id="icons" transform="translate(56.000000, 160.000000)">
                <path d="M337,4606 L339,4606 C339.552,4606 340,4605.552 340,4605 C340,4604.448 339.552,4604 339,4604 L337,4604 C336.448,4604 336,4604.448 336,4605 C336,4605.552 336.448,4606 337,4606 L337,4606 Z M343,4599 C342.448,4599 342,4599.448 342,4600 L342,4602 C342,4602.552 342.448,4603 343,4603 C343.552,4603 344,4602.552 344,4602 L344,4600 C344,4599.448 343.552,4599 343,4599 L343,4599 Z M339.707,4603.487 C340.098,4603.878 340.731,4603.878 341.121,4603.487 C341.512,4603.097 341.512,4602.463 341.121,4602.073 L339.707,4600.659 C339.317,4600.268 338.683,4600.268 338.293,4600.659 C337.902,4601.049 337.902,4601.682 338.293,4602.073 L339.707,4603.487 Z M342,4609 L334.463,4609 C335.204,4609.826 335.718,4610.857 335.91,4612 L342,4612 L342,4609 Z M334,4613 C334,4610.794 332.206,4609 330,4609 C327.794,4609 326,4610.794 326,4613 C326,4615.206 327.794,4617 330,4617 C332.206,4617 334,4615.206 334,4613 L334,4613 Z M342,4607 L344,4607 L344,4609 L344,4612 L344,4614 L342,4614 L335.91,4614 C335.433,4616.837 332.972,4619 330,4619 C326.686,4619 324,4616.314 324,4613 C324,4612.014 324.242,4611.086 324.664,4610.265 C324.261,4609.925 324,4609.423 324,4608.854 C324,4607.83 324.83,4607 325.854,4607 C326.423,4607 326.925,4607.261 327.265,4607.664 C328.086,4607.242 329.014,4607 330,4607 L342,4607 Z M332,4613 C332,4614.105 331.105,4615 330,4615 C328.895,4615 328,4614.105 328,4613 C328,4611.895 328.895,4611 330,4611 C331.105,4611 332,4611.895 332,4613 L332,4613 Z" id="cannon-[#780]"></path>
            </g>
        </g>
    </g>
</svg>