<?xml version="1.0" encoding="UTF-8" standalone="no"?>
<svg width="20px" height="16px" viewBox="0 0 20 16" version="1.1" xmlns="http://www.w3.org/2000/svg" xmlns:xlink="http://www.w3.org/1999/xlink">
    <!-- Generator: Sketch 3.8.1 (29687) - http://www.bohemiancoding.com/sketch -->
    <title>cannon [#779]</title>
    <desc>Created with Sketch.</desc>
    <defs></defs>
    <g id="Page-1" stroke="none" stroke-width="1" fill="none" fill-rule="evenodd">
        <g id="Dribbble-Dark-Preview" transform="translate(-420.000000, -4761.000000)" fill="#FFFFFF">
            <g id="icons" transform="translate(56.000000, 160.000000)">
                <path d="M375.254,4608.36722 L381.444,4606.22237 L380.435,4603.48065 L372.911,4606.08747 C373.896,4606.61931 374.709,4607.41029 375.254,4608.36722 L375.254,4608.36722 Z M374,4611.17688 C374,4609.03688 372.205,4607.2948 370,4607.2948 C369.725,4607.2948 369.457,4607.32294 369.198,4607.37438 L369.134,4607.3967 L369.132,4607.39282 C367.343,4607.77909 366,4609.32609 366,4611.17688 C366,4613.31785 367.794,4615.05896 370,4615.05896 C372.205,4615.05896 374,4613.31785 374,4611.17688 L374,4611.17688 Z M375.909,4610.2015 C375.964,4610.51984 376,4610.84399 376,4611.17688 C376,4614.39318 373.313,4617 370,4617 C366.686,4617 364,4614.39318 364,4611.17688 C364,4610.21994 364.242,4609.3193 364.664,4608.5225 C364.261,4608.19253 364,4607.70533 364,4607.15407 C364,4606.16026 364.83,4605.35375 365.854,4605.35375 C366.422,4605.35375 366.925,4605.60803 367.265,4605.99818 C367.684,4605.78952 368.132,4605.62841 368.602,4605.51971 L379.763,4601.65219 L381.646,4601 L382.319,4602.82749 L382.319,4602.82749 L383.327,4605.57018 L384,4607.39767 L375.909,4610.2015 Z M372,4611.17688 C372,4612.2493 371.104,4613.11792 370,4613.11792 C368.895,4613.11792 368,4612.2493 368,4611.17688 C368,4610.10542 368.895,4609.23584 370,4609.23584 C371.104,4609.23584 372,4610.10542 372,4611.17688 L372,4611.17688 Z" id="cannon-[#779]"></path>
            </g>
        </g>
    </g>
</svg>