<?xml version="1.0" encoding="UTF-8" standalone="no"?>
<svg width="20px" height="20px" viewBox="0 0 20 20" version="1.1" xmlns="http://www.w3.org/2000/svg" xmlns:xlink="http://www.w3.org/1999/xlink">
    <!-- Generator: Sketch 3.8.1 (29687) - http://www.bohemiancoding.com/sketch -->
    <title>car [#658]</title>
    <desc>Created with Sketch.</desc>
    <defs></defs>
    <g id="Page-1" stroke="none" stroke-width="1" fill="none" fill-rule="evenodd">
        <g id="Dribbble-Dark-Preview" transform="translate(-60.000000, -5319.000000)" fill="#FFFFFF">
            <g id="icons" transform="translate(56.000000, 160.000000)">
                <path d="M22,5174 L21.388,5174 C20.839,5173 19.968,5172.923 19.083,5172.923 C18.731,5172.923 18,5173.065 18,5173.176 L18,5172 L22,5172 L22,5174 Z M19.167,5176.845 C18.615,5176.845 18.167,5176.396 18.167,5175.845 C18.167,5175.294 18.615,5174.845 19.167,5174.845 C19.718,5174.845 20.167,5175.294 20.167,5175.845 C20.167,5176.396 19.718,5176.845 19.167,5176.845 L19.167,5176.845 Z M13.413,5170 L13.404,5161 L15.167,5161 L16.167,5170 L13.413,5170 Z M16,5174 L13.65,5174 C13.446,5173 13.035,5172.247 12.408,5172 L16,5172 L16,5174 Z M11.513,5175.845 C11.167,5176.44 10.529,5176.845 9.792,5176.845 C9.055,5176.845 8.417,5176.44 8.07,5175.845 C7.898,5175.55 7.792,5175.211 7.792,5174.845 C7.792,5174.479 7.898,5174.14 8.07,5173.845 C8.417,5173.25 9.055,5172.845 9.792,5172.845 C10.529,5172.845 11.166,5173.25 11.513,5173.845 C11.686,5174.14 11.792,5174.479 11.792,5174.845 C11.792,5175.211 11.686,5175.55 11.513,5175.845 L11.513,5175.845 Z M6.167,5173.176 L6.167,5171.845 L7.157,5171.845 C6.742,5172.213 6.402,5172.666 6.167,5173.176 L6.167,5173.176 Z M6,5161 L11.404,5161 L11.413,5170 L6,5170 L6,5161 Z M18.167,5170 L17.167,5159 L4,5159 L4,5176 L5.933,5176 C6.379,5178 7.93,5179 9.792,5179 C11.653,5179 13.204,5178 13.65,5176 L16.167,5176 C16.167,5178 17.51,5179 19.167,5179 C20.824,5179 22.167,5178 22.167,5176 L24,5176 L24,5170 L18.167,5170 Z" id="car-[#658]"></path>
            </g>
        </g>
    </g>
</svg>