<?xml version="1.0" encoding="UTF-8" standalone="no"?>
<svg width="20px" height="20px" viewBox="0 0 20 20" version="1.1" xmlns="http://www.w3.org/2000/svg" xmlns:xlink="http://www.w3.org/1999/xlink">
    <!-- Generator: Sketch 3.8.1 (29687) - http://www.bohemiancoding.com/sketch -->
    <title>car [#654]</title>
    <desc>Created with Sketch.</desc>
    <defs></defs>
    <g id="Page-1" stroke="none" stroke-width="1" fill="none" fill-rule="evenodd">
        <g id="Dribbble-Dark-Preview" transform="translate(-220.000000, -5319.000000)" fill="#FFFFFF">
            <g id="icons" transform="translate(56.000000, 160.000000)">
                <path d="M182,5174 L181.221,5174 C180.672,5173.39 179.885,5173 179,5173 C178.647,5173 178.314,5173.072 178,5173.184 L178,5172 L182,5172 L182,5174 Z M179,5177 C178.449,5177 178,5176.551 178,5176 C178,5175.449 178.449,5175 179,5175 C179.551,5175 180,5175.449 180,5176 C180,5176.551 179.551,5177 179,5177 L179,5177 Z M173.484,5174 C173.279,5173.21 172.834,5172.522 172.242,5172 L176,5172 L176,5174 L173.484,5174 Z M171.347,5176 C171,5176.595 170.362,5177 169.625,5177 C168.888,5177 168.25,5176.595 167.903,5176 C167.731,5175.705 167.625,5175.366 167.625,5175 C167.625,5174.634 167.731,5174.295 167.903,5174 C168.25,5173.405 168.888,5173 169.625,5173 C170.362,5173 171,5173.405 171.347,5174 C171.519,5174.295 171.625,5174.634 171.625,5175 C171.625,5175.366 171.519,5175.705 171.347,5176 L171.347,5176 Z M166,5173.331 L166,5172 L166.991,5172 C166.575,5172.368 166.236,5172.821 166,5173.331 L166,5173.331 Z M175,5161 L176,5170 L166,5170 L166,5161 L175,5161 Z M178,5170 L177,5159 L164,5159 L164,5176 L165.766,5176 C166.213,5177.722 167.763,5179 169.625,5179 C171.487,5179 173.037,5177.722 173.484,5176 L176,5176 C176,5177.657 177.343,5179 179,5179 C180.657,5179 182,5177.657 182,5176 L184,5176 L184,5170 L178,5170 Z" id="car-[#654]"></path>
            </g>
        </g>
    </g>
</svg>