<?xml version="1.0" encoding="UTF-8" standalone="no"?>
<svg width="20px" height="16px" viewBox="0 0 20 16" version="1.1" xmlns="http://www.w3.org/2000/svg" xmlns:xlink="http://www.w3.org/1999/xlink">
    <!-- Generator: Sketch 3.8.1 (29687) - http://www.bohemiancoding.com/sketch -->
    <title>car [#648]</title>
    <desc>Created with Sketch.</desc>
    <defs></defs>
    <g id="Page-1" stroke="none" stroke-width="1" fill="none" fill-rule="evenodd">
        <g id="Dribbble-Dark-Preview" transform="translate(-60.000000, -5361.000000)" fill="#FFFFFF">
            <g id="icons" transform="translate(56.000000, 160.000000)">
                <path d="M22,5212 L21.049,5212 C20.499,5211 19.799,5210.985 18.914,5210.985 C18.561,5210.985 18,5211.042 18,5211.154 L18,5210 L22,5210 L22,5212 Z M18.827,5214.97 C18.276,5214.97 17.827,5214.521 17.827,5213.97 C17.827,5213.418 18.276,5212.97 18.827,5212.97 C19.378,5212.97 19.827,5213.418 19.827,5213.97 C19.827,5214.521 19.378,5214.97 18.827,5214.97 L18.827,5214.97 Z M12,5208 L16,5208 L16,5203 L12,5203 L12,5208 Z M12,5212 L16,5212 L16,5210 L12,5210 L12,5212 Z M8.827,5214.97 C8.276,5214.97 7.827,5214.521 7.827,5213.97 C7.827,5213.418 8.276,5212.97 8.827,5212.97 C9.378,5212.97 9.827,5213.418 9.827,5213.97 C9.827,5214.521 9.378,5214.97 8.827,5214.97 L8.827,5214.97 Z M6.606,5212 L6,5212 L6,5210 L10,5210 L10,5211.161 C10,5211.047 9.268,5210.985 8.914,5210.985 C8.029,5210.985 7.155,5211 6.606,5212 L6.606,5212 Z M6,5208 L10,5208 L10,5203 L6,5203 L6,5208 Z M18,5208 L18,5201 L4,5201 L4,5214 L5.827,5214 C5.827,5216 7.17,5217 8.827,5217 C10.484,5217 11.827,5216 11.827,5214 L15.827,5214 C15.827,5216 17.17,5217 18.827,5217 C20.484,5217 21.827,5216 21.827,5214 L24,5214 L24,5208 L18,5208 Z" id="car-[#648]"></path>
            </g>
        </g>
    </g>
</svg>