<?xml version="1.0" encoding="UTF-8" standalone="no"?>
<svg width="20px" height="20px" viewBox="0 0 20 20" version="1.1" xmlns="http://www.w3.org/2000/svg" xmlns:xlink="http://www.w3.org/1999/xlink">
    <!-- Generator: Sketch 3.8.1 (29687) - http://www.bohemiancoding.com/sketch -->
    <title>car [#642]</title>
    <desc>Created with Sketch.</desc>
    <defs></defs>
    <g id="Page-1" stroke="none" stroke-width="1" fill="none" fill-rule="evenodd">
        <g id="Dribbble-Dark-Preview" transform="translate(-300.000000, -5359.000000)" fill="#FFFFFF">
            <g id="icons" transform="translate(56.000000, 160.000000)">
                <path d="M262,5214 L261.281,5214 C260.732,5213 259.915,5212.985 259.03,5212.985 C258.677,5212.985 258,5213.042 258,5213.154 L258,5212 L262,5212 L262,5214 Z M259.059,5216.97 C258.508,5216.97 258.059,5216.521 258.059,5215.97 C258.059,5215.418 258.508,5214.97 259.059,5214.97 C259.611,5214.97 260.059,5215.418 260.059,5215.97 C260.059,5216.521 259.611,5216.97 259.059,5216.97 L259.059,5216.97 Z M252,5210 L256,5210 L256,5201 L252,5201 L252,5210 Z M252,5214 L256,5214 L256,5212 L252,5212 L252,5214 Z M249.059,5216.97 C248.508,5216.97 248.059,5216.521 248.059,5215.97 C248.059,5215.418 248.508,5214.97 249.059,5214.97 C249.611,5214.97 250.059,5215.418 250.059,5215.97 C250.059,5216.521 249.611,5216.97 249.059,5216.97 L249.059,5216.97 Z M246.838,5214 L246,5214 L246,5212 L250,5212 L250,5213.161 C250,5213.047 249.384,5212.985 249.03,5212.985 C248.145,5212.985 247.387,5213 246.838,5214 L246.838,5214 Z M246,5210 L250,5210 L250,5201 L246,5201 L246,5210 Z M258,5210 L258,5199 L244,5199 L244,5216 L246.059,5216 C246.059,5218 247.402,5219 249.059,5219 C250.716,5219 252.059,5218 252.059,5216 L256.059,5216 C256.059,5218 257.402,5219 259.059,5219 C260.716,5219 262.059,5218 262.059,5216 L264,5216 L264,5210 L258,5210 Z" id="car-[#642]"></path>
            </g>
        </g>
    </g>
</svg>