<?xml version="1.0" encoding="UTF-8" standalone="no"?>
<svg width="20px" height="16px" viewBox="0 0 20 16" version="1.1" xmlns="http://www.w3.org/2000/svg" xmlns:xlink="http://www.w3.org/1999/xlink">
    <!-- Generator: Sketch 3.8.1 (29687) - http://www.bohemiancoding.com/sketch -->
    <title>car [#649]</title>
    <desc>Created with Sketch.</desc>
    <defs></defs>
    <g id="Page-1" stroke="none" stroke-width="1" fill="none" fill-rule="evenodd">
        <g id="Dribbble-Dark-Preview" transform="translate(-420.000000, -5321.000000)" fill="#FFFFFF">
            <g id="icons" transform="translate(56.000000, 160.000000)">
                <path d="M382,5172 L381.22,5172 C380.671,5171.39 379.884,5171 378.999,5171 C378.647,5171 378,5171.072 378,5171.184 L378,5170 L382,5170 L382,5172 Z M378.999,5175 C378.448,5175 377.999,5174.551 377.999,5174 C377.999,5173.449 378.448,5173 378.999,5173 C379.55,5173 379.999,5173.449 379.999,5174 C379.999,5174.551 379.55,5175 378.999,5175 L378.999,5175 Z M372,5168 L376,5168 L376,5163 L372,5163 L372,5168 Z M376,5172 L371.22,5172 C370.671,5171.39 369.884,5171 368.999,5171 C368.114,5171 367.327,5171.39 366.778,5172 L366,5172 L366,5170 L376,5170 L376,5172 Z M368.999,5175 C368.448,5175 367.999,5174.551 367.999,5174 C367.999,5173.449 368.448,5173 368.999,5173 C369.55,5173 369.999,5173.449 369.999,5174 C369.999,5174.551 369.55,5175 368.999,5175 L368.999,5175 Z M366,5168 L370,5168 L370,5163 L366,5163 L366,5168 Z M378,5168 L378,5161 L364,5161 L364,5174 L365.999,5174 C365.999,5175.657 367.342,5177 368.999,5177 C370.656,5177 371.999,5175.657 371.999,5174 L375.999,5174 C375.999,5175.657 377.342,5177 378.999,5177 C380.656,5177 381.999,5175.657 381.999,5174 L384,5174 L384,5168 L378,5168 Z" id="car-[#649]"></path>
            </g>
        </g>
    </g>
</svg>