<?xml version="1.0" encoding="UTF-8" standalone="no"?>
<svg width="20px" height="20px" viewBox="0 0 20 20" version="1.1" xmlns="http://www.w3.org/2000/svg" xmlns:xlink="http://www.w3.org/1999/xlink">
    <!-- Generator: Sketch 3.8.1 (29687) - http://www.bohemiancoding.com/sketch -->
    <title>car [#640]</title>
    <desc>Created with Sketch.</desc>
    <defs></defs>
    <g id="Page-1" stroke="none" stroke-width="1" fill="none" fill-rule="evenodd">
        <g id="Dribbble-Dark-Preview" transform="translate(-380.000000, -5359.000000)" fill="#FFFFFF">
            <g id="icons" transform="translate(56.000000, 160.000000)">
                <path d="M342,5214 L341.241,5214 C340.692,5213.39 339.895,5213 339.01,5213 C338.657,5213 338,5213.072 338,5213.184 L338,5212 L342,5212 L342,5214 Z M339.02,5217 C338.468,5217 338.02,5216.551 338.02,5216 C338.02,5215.449 338.468,5215 339.02,5215 C339.571,5215 340.02,5215.449 340.02,5216 C340.02,5216.551 339.571,5217 339.02,5217 L339.02,5217 Z M326,5210 L336,5210 L336,5201 L326,5201 L326,5210 Z M336,5214 L331.241,5214 C330.692,5213.39 329.905,5213 329.02,5213 C328.134,5213 327.347,5213.39 326.798,5214 L326,5214 L326,5212 L336,5212 L336,5214 Z M329.02,5217 C328.468,5217 328.02,5216.551 328.02,5216 C328.02,5215.449 328.468,5215 329.02,5215 C329.571,5215 330.02,5215.449 330.02,5216 C330.02,5216.551 329.571,5217 329.02,5217 L329.02,5217 Z M338,5210 L338,5199 L324,5199 L324,5216 L326.02,5216 C326.02,5217.657 327.363,5219 329.02,5219 C330.676,5219 332.02,5217.657 332.02,5216 L336.02,5216 C336.02,5217.657 337.363,5219 339.02,5219 C340.676,5219 342.02,5217.657 342.02,5216 L344,5216 L344,5210 L338,5210 Z" id="car-[#640]"></path>
            </g>
        </g>
    </g>
</svg>