<?xml version="1.0" encoding="UTF-8" standalone="no"?>
<svg width="20px" height="16px" viewBox="0 0 20 16" version="1.1" xmlns="http://www.w3.org/2000/svg" xmlns:xlink="http://www.w3.org/1999/xlink">
    <!-- Generator: Sketch 3.8.1 (29687) - http://www.bohemiancoding.com/sketch -->
    <title>car [#646]</title>
    <desc>Created with Sketch.</desc>
    <defs></defs>
    <g id="Page-1" stroke="none" stroke-width="1" fill="none" fill-rule="evenodd">
        <g id="Dribbble-Dark-Preview" transform="translate(-140.000000, -5361.000000)" fill="#FFFFFF">
            <g id="icons" transform="translate(56.000000, 160.000000)">
                <path d="M102,5212 L101.418,5212 C100.869,5211.39 99.983,5211 99.098,5211 C98.746,5211 98,5211.072 98,5211.184 L98,5210 L102,5210 L102,5212 Z M99.196,5215 C98.645,5215 98.196,5214.551 98.196,5214 C98.196,5213.449 98.645,5213 99.196,5213 C99.748,5213 100.196,5213.449 100.196,5214 C100.196,5214.551 99.748,5215 99.196,5215 L99.196,5215 Z M86,5208 L96,5208 L96,5203 L86,5203 L86,5208 Z M96,5212 L91.418,5212 C90.869,5211.39 90.081,5211 89.196,5211 C88.311,5211 87.524,5211.39 86.975,5212 L86,5212 L86,5210 L96,5210 L96,5212 Z M89.196,5215 C88.645,5215 88.196,5214.551 88.196,5214 C88.196,5213.449 88.645,5213 89.196,5213 C89.748,5213 90.196,5213.449 90.196,5214 C90.196,5214.551 89.748,5215 89.196,5215 L89.196,5215 Z M98,5208 L98,5201 L84,5201 L84,5214 L86.196,5214 C86.196,5215.657 87.54,5217 89.196,5217 C90.853,5217 92.196,5215.657 92.196,5214 L96.196,5214 C96.196,5215.657 97.54,5217 99.196,5217 C100.853,5217 102.196,5215.657 102.196,5214 L104,5214 L104,5208 L98,5208 Z" id="car-[#646]"></path>
            </g>
        </g>
    </g>
</svg>