<?xml version="1.0" encoding="UTF-8" standalone="no"?>
<svg width="20px" height="20px" viewBox="0 0 20 20" version="1.1" xmlns="http://www.w3.org/2000/svg" xmlns:xlink="http://www.w3.org/1999/xlink">
    <!-- Generator: Sketch 3.8.1 (29687) - http://www.bohemiancoding.com/sketch -->
    <title>car [#643]</title>
    <desc>Created with Sketch.</desc>
    <defs></defs>
    <g id="Page-1" stroke="none" stroke-width="1" fill="none" fill-rule="evenodd">
        <g id="Dribbble-Dark-Preview" transform="translate(-260.000000, -5359.000000)" fill="#FFFFFF">
            <g id="icons" transform="translate(56.000000, 160.000000)">
                <path d="M222,5214 L221.221,5214 C220.672,5213.39 219.885,5213 219,5213 C218.647,5213 218.314,5213.072 218,5213.184 L218,5212 L222,5212 L222,5214 Z M219,5217 C218.449,5217 218,5216.551 218,5216 C218,5215.449 218.449,5215 219,5215 C219.551,5215 220,5215.449 220,5216 C220,5216.551 219.551,5217 219,5217 L219,5217 Z M212,5210 L216,5210 L216,5201 L212,5201 L212,5210 Z M216,5214 L211.221,5214 C210.672,5213.39 209.885,5213 209,5213 C208.115,5213 207.328,5213.39 206.779,5214 L206,5214 L206,5212 L216,5212 L216,5214 Z M209,5217 C208.449,5217 208,5216.551 208,5216 C208,5215.449 208.449,5215 209,5215 C209.551,5215 210,5215.449 210,5216 C210,5216.551 209.551,5217 209,5217 L209,5217 Z M206,5210 L210,5210 L210,5201 L206,5201 L206,5210 Z M218,5210 L218,5199 L204,5199 L204,5216 L206,5216 C206,5217.657 207.343,5219 209,5219 C210.657,5219 212,5217.657 212,5216 L216,5216 C216,5217.657 217.343,5219 219,5219 C220.657,5219 222,5217.657 222,5216 L224,5216 L224,5210 L218,5210 Z" id="car-[#643]"></path>
            </g>
        </g>
    </g>
</svg>