<?xml version="1.0" encoding="UTF-8" standalone="no"?>
<svg width="20px" height="20px" viewBox="0 0 20 20" version="1.1" xmlns="http://www.w3.org/2000/svg" xmlns:xlink="http://www.w3.org/1999/xlink">
    <!-- Generator: Sketch 3.8.1 (29687) - http://www.bohemiancoding.com/sketch -->
    <title>car [#656]</title>
    <desc>Created with Sketch.</desc>
    <defs></defs>
    <g id="Page-1" stroke="none" stroke-width="1" fill="none" fill-rule="evenodd">
        <g id="Dribbble-Dark-Preview" transform="translate(-140.000000, -5319.000000)" fill="#FFFFFF">
            <g id="icons" transform="translate(56.000000, 160.000000)">
                <path d="M102,5174 L101.221,5174 C100.672,5173.39 99.885,5173 99,5173 C98.647,5173 98.314,5173.072 98,5173.184 L98,5172 L102,5172 L102,5174 Z M99,5177 C98.449,5177 98,5176.551 98,5176 C98,5175.449 98.449,5175 99,5175 C99.551,5175 100,5175.449 100,5176 C100,5176.551 99.551,5177 99,5177 L99,5177 Z M93.484,5174 C93.279,5173.21 92.834,5172.522 92.242,5172 L96,5172 L96,5174 L93.484,5174 Z M91.347,5176 C91,5176.595 90.362,5177 89.625,5177 C88.888,5177 88.25,5176.595 87.903,5176 C87.731,5175.705 87.625,5175.366 87.625,5175 C87.625,5174.634 87.731,5174.295 87.903,5174 C88.25,5173.405 88.888,5173 89.625,5173 C90.362,5173 91,5173.405 91.347,5174 C91.519,5174.295 91.625,5174.634 91.625,5175 C91.625,5175.366 91.519,5175.705 91.347,5176 L91.347,5176 Z M86,5173.331 L86,5172 L86.991,5172 C86.575,5172.368 86.236,5172.821 86,5173.331 L86,5173.331 Z M86,5170 L96,5170 L96,5161 L86,5161 L86,5170 Z M98,5170 L98,5159 L84,5159 L84,5176 L85.766,5176 C86.213,5177.722 87.763,5179 89.625,5179 C91.487,5179 93.037,5177.722 93.484,5176 L96,5176 C96,5177.657 97.343,5179 99,5179 C100.657,5179 102,5177.657 102,5176 L104,5176 L104,5170 L98,5170 Z" id="car-[#656]"></path>
            </g>
        </g>
    </g>
</svg>