<?xml version="1.0" encoding="UTF-8" standalone="no"?>
<svg width="20px" height="20px" viewBox="0 0 20 20" version="1.1" xmlns="http://www.w3.org/2000/svg" xmlns:xlink="http://www.w3.org/1999/xlink">
    <!-- Generator: Sketch 3.8.1 (29687) - http://www.bohemiancoding.com/sketch -->
    <title>car [#659]</title>
    <desc>Created with Sketch.</desc>
    <defs></defs>
    <g id="Page-1" stroke="none" stroke-width="1" fill="none" fill-rule="evenodd">
        <g id="Dribbble-Dark-Preview" transform="translate(-420.000000, -5279.000000)" fill="#FFFFFF">
            <g id="icons" transform="translate(56.000000, 160.000000)">
                <path d="M382,5134 L381.373,5134 C380.823,5133.39 379.961,5133 379.076,5133 C378.723,5133 378,5133.072 378,5133.184 L378,5132 L382,5132 L382,5134 Z M379.151,5137 C378.6,5137 378.151,5136.551 378.151,5136 C378.151,5135.449 378.6,5135 379.151,5135 C379.703,5135 380.151,5135.449 380.151,5136 C380.151,5136.551 379.703,5137 379.151,5137 L379.151,5137 Z M373.635,5134 C373.43,5133.21 372.986,5132.522 372.393,5132 L376,5132 L376,5134 L373.635,5134 Z M371.498,5136 C371.151,5136.595 370.513,5137 369.776,5137 C369.039,5137 368.401,5136.595 368.054,5136 C367.882,5135.705 367.776,5135.366 367.776,5135 C367.776,5134.634 367.882,5134.295 368.054,5134 C368.401,5133.405 369.039,5133 369.776,5133 C370.513,5133 371.151,5133.405 371.498,5134 C371.67,5134.295 371.776,5134.634 371.776,5135 C371.776,5135.366 371.67,5135.705 371.498,5136 L371.498,5136 Z M366.151,5133.331 L366.151,5132 L367.142,5132 C366.726,5132.368 366.387,5132.821 366.151,5133.331 L366.151,5133.331 Z M371.389,5121 L371.398,5130 L366,5130 L366,5121 L371.389,5121 Z M376,5130 L373.398,5130 L373.389,5121 L376,5121 L376,5130 Z M378,5130 L378,5119 L364,5119 L364,5136 L365.918,5136 C366.364,5137.722 367.914,5139 369.776,5139 C371.638,5139 373.189,5137.722 373.635,5136 L376.151,5136 C376.151,5137.657 377.494,5139 379.151,5139 C380.808,5139 382.151,5137.657 382.151,5136 L384,5136 L384,5130 L378,5130 Z" id="car-[#659]"></path>
            </g>
        </g>
    </g>
</svg>