<?xml version="1.0" encoding="UTF-8" standalone="no"?>
<svg width="20px" height="12px" viewBox="0 0 20 12" version="1.1" xmlns="http://www.w3.org/2000/svg" xmlns:xlink="http://www.w3.org/1999/xlink">
    <!-- Generator: Sketch 3.8.1 (29687) - http://www.bohemiancoding.com/sketch -->
    <title>car [#639]</title>
    <desc>Created with Sketch.</desc>
    <defs></defs>
    <g id="Page-1" stroke="none" stroke-width="1" fill="none" fill-rule="evenodd">
        <g id="Dribbble-Dark-Preview" transform="translate(-420.000000, -5363.000000)" fill="#FFFFFF">
            <g id="icons" transform="translate(56.000000, 160.000000)">
                <path d="M382,5210 L381.793,5210 C381.042,5209 380.271,5208.917 379.286,5209 C378.935,5209.03 378.276,5209.159 378,5209.436 L378,5208 L382,5208 L382,5210 Z M379.572,5213 C379.02,5213 378.572,5212.551 378.572,5212 C378.572,5211.449 379.02,5211 379.572,5211 C380.123,5211 380.572,5211.449 380.572,5212 C380.572,5212.551 380.123,5213 379.572,5213 L379.572,5213 Z M376,5210 L371.793,5210 C371.244,5209.391 370.457,5209 369.572,5209 C368.687,5209 367.899,5209.391 367.35,5210 L366,5210 L366,5208 L376,5208 L376,5210 Z M369.572,5213 C369.02,5213 368.572,5212.551 368.572,5212 C368.572,5211.449 369.02,5211 369.572,5211 C370.123,5211 370.572,5211.449 370.572,5212 C370.572,5212.551 370.123,5213 369.572,5213 L369.572,5213 Z M378,5206 L378,5203 L376,5203 L376,5206 L366,5206 L366,5203 L364,5203 L364,5212 L366.572,5212 C366.572,5213.657 367.915,5215 369.572,5215 C371.228,5215 372.572,5213.657 372.572,5212 L376.572,5212 C376.572,5213.657 377.915,5215 379.572,5215 C381.228,5215 382.572,5213.657 382.572,5212 L384,5212 L384,5206 L378,5206 Z" id="car-[#639]"></path>
            </g>
        </g>
    </g>
</svg>