<?xml version="1.0" encoding="UTF-8" standalone="no"?>
<svg width="20px" height="16px" viewBox="0 0 20 16" version="1.1" xmlns="http://www.w3.org/2000/svg" xmlns:xlink="http://www.w3.org/1999/xlink">
    <!-- Generator: Sketch 3.8.1 (29687) - http://www.bohemiancoding.com/sketch -->
    <title>car_round [#650]</title>
    <desc>Created with Sketch.</desc>
    <defs></defs>
    <g id="Page-1" stroke="none" stroke-width="1" fill="none" fill-rule="evenodd">
        <g id="Dribbble-Dark-Preview" transform="translate(-380.000000, -5321.000000)" fill="#FFFFFF">
            <g id="icons" transform="translate(56.000000, 160.000000)">
                <path d="M342,5172 L341.721,5172 C341.172,5171.39 340.135,5171 339.25,5171 C338.897,5171 339,5171.072 338,5171.184 L338,5170 L341.5,5170 C342.052,5170 342,5170.448 342,5171 L342,5172 Z M339.5,5175 C338.949,5175 338.5,5174.551 338.5,5174 C338.5,5173.449 338.949,5173 339.5,5173 C340.051,5173 340.5,5173.449 340.5,5174 C340.5,5174.551 340.051,5175 339.5,5175 L339.5,5175 Z M336,5168 L332,5168 L332,5163 L335.5,5163 C336.052,5163 336,5163.448 336,5164 L336,5168 Z M336,5172 L331.721,5172 C331.172,5171.39 330.385,5171 329.5,5171 C328.615,5171 327.828,5171.39 327.279,5172 L326,5172 L326,5170 L336,5170 L336,5172 Z M329.5,5175 C328.949,5175 328.5,5174.551 328.5,5174 C328.5,5173.449 328.949,5173 329.5,5173 C330.051,5173 330.5,5173.449 330.5,5174 C330.5,5174.551 330.051,5175 329.5,5175 L329.5,5175 Z M326,5164 C326,5163.448 326.448,5163 327,5163 L330,5163 L330,5168 L326,5168 L326,5164 Z M342.5,5168 L338,5168 L338,5163 C338,5161.895 337.605,5161 336.5,5161 L326.5,5161 C325.395,5161 324,5161.895 324,5163 L324,5172 C324,5173.105 325.145,5174 326.25,5174 C326.25,5175.657 327.718,5177 329.375,5177 C331.032,5177 332.5,5175.657 332.5,5174 L336.5,5174 C336.5,5175.657 337.843,5177 339.5,5177 C341.157,5177 342.25,5175.657 342.25,5174 C343.355,5174 344,5173.105 344,5172 L344,5170 C344,5168.895 343.605,5168 342.5,5168 L342.5,5168 Z" id="car_round-[#650]"></path>
            </g>
        </g>
    </g>
</svg>