<?xml version="1.0" encoding="UTF-8" standalone="no"?>
<svg width="20px" height="20px" viewBox="0 0 20 20" version="1.1" xmlns="http://www.w3.org/2000/svg" xmlns:xlink="http://www.w3.org/1999/xlink">
    <!-- Generator: Sketch 3.8.1 (29687) - http://www.bohemiancoding.com/sketch -->
    <title>car_round [#657]</title>
    <desc>Created with Sketch.</desc>
    <defs></defs>
    <g id="Page-1" stroke="none" stroke-width="1" fill="none" fill-rule="evenodd">
        <g id="Dribbble-Dark-Preview" transform="translate(-100.000000, -5319.000000)" fill="#FFFFFF">
            <g id="icons" transform="translate(56.000000, 160.000000)">
                <path d="M62,5174 L61.282,5174 C60.536,5173.008 59.455,5173.049 59.03,5173.03 C58.678,5173.015 58,5173.132 58,5173.244 L58,5172 L61,5172 C61.552,5172 62,5172.448 62,5173 L62,5174 Z M59.06,5177.06 C58.509,5177.06 58.06,5176.612 58.06,5176.06 C58.06,5175.509 58.509,5175.06 59.06,5175.06 C59.612,5175.06 60.06,5175.509 60.06,5176.06 C60.06,5176.612 59.612,5177.06 59.06,5177.06 L59.06,5177.06 Z M53.544,5174 C53.34,5173 53.25,5173 52.302,5172 L56,5172 L56,5174 L53.544,5174 Z M51.407,5176.06 C51.06,5176.655 50.422,5177.06 49.685,5177.06 C48.949,5177.06 48.311,5176.655 47.964,5176.06 C47.791,5175.765 47.685,5175.426 47.685,5175.06 C47.685,5174.695 47.791,5174.356 47.964,5174.06 C48.311,5173.466 48.949,5173.06 49.685,5173.06 C50.422,5173.06 51.06,5173.466 51.407,5174.06 C51.579,5174.356 51.685,5174.695 51.685,5175.06 C51.685,5175.426 51.58,5175.765 51.407,5176.06 L51.407,5176.06 Z M46.06,5173.392 L46.06,5172.06 L47.051,5172.06 C46.636,5172.428 46.296,5172.881 46.06,5173.392 L46.06,5173.392 Z M56,5170 L46,5170 L46,5162 C46,5161.448 46.448,5161 47,5161 L55,5161 C55.552,5161 56,5161.448 56,5162 L56,5170 Z M58,5170 L58,5161 C58,5159.895 57.105,5159 56,5159 L46,5159 C44.895,5159 44,5159.895 44,5161 L44,5174.173 C44,5175.182 44.818,5176 45.827,5176 C46.273,5178 47.824,5179 49.685,5179 C51.547,5179 53.098,5178 53.544,5176 L56.06,5176 C56.06,5178 57.404,5179 59.06,5179 C60.717,5179 62.06,5178 62.06,5176 L62.06,5176 C63.132,5176 64,5175.132 64,5174.06 L64,5171.94 C64,5170.868 63.132,5170 62.06,5170 L58,5170 Z" id="car_round-[#657]"></path>
            </g>
        </g>
    </g>
</svg>