<?xml version="1.0" encoding="UTF-8" standalone="no"?>
<svg width="20px" height="20px" viewBox="0 0 20 20" version="1.1" xmlns="http://www.w3.org/2000/svg" xmlns:xlink="http://www.w3.org/1999/xlink">
    <!-- Generator: Sketch 3.8.1 (29687) - http://www.bohemiancoding.com/sketch -->
    <title>car_round [#661]</title>
    <desc>Created with Sketch.</desc>
    <defs></defs>
    <g id="Page-1" stroke="none" stroke-width="1" fill="none" fill-rule="evenodd">
        <g id="Dribbble-Dark-Preview" transform="translate(-340.000000, -5279.000000)" fill="#FFFFFF">
            <g id="icons" transform="translate(56.000000, 160.000000)">
                <path d="M302,5134 L301.281,5134 C300.732,5133.391 299.915,5133 299.03,5133 C298.677,5133 298,5133.072 298,5133.184 L298,5132 L301.059,5132 C301.612,5132 302,5132.448 302,5133 L302,5134 Z M299.059,5137 C298.508,5137 298.059,5136.551 298.059,5136 C298.059,5135.449 298.508,5135 299.059,5135 C299.611,5135 300.059,5135.449 300.059,5136 C300.059,5136.551 299.611,5137 299.059,5137 L299.059,5137 Z M292,5130 L292,5121 L294.164,5121 C294.674,5121 295.102,5121.383 295.158,5121.89 L296.059,5130 L292,5130 Z M296,5134 L293.543,5134 C293.338,5133.21 292.894,5132.522 292.301,5132 L296,5132 L296,5134 Z M291.406,5136 C291.059,5136.595 290.421,5137 289.684,5137 C288.947,5137 288.309,5136.595 287.963,5136 C287.79,5135.705 287.684,5135.366 287.684,5135 C287.684,5134.634 287.79,5134.295 287.963,5134 C288.31,5133.405 288.947,5133 289.684,5133 C290.421,5133 291.059,5133.405 291.406,5134 C291.578,5134.295 291.684,5134.634 291.684,5135 C291.684,5135.366 291.578,5135.705 291.406,5136 L291.406,5136 Z M286.059,5133.331 L286.059,5132 L287.05,5132 C286.634,5132.368 286.295,5132.82 286.059,5133.331 L286.059,5133.331 Z M286,5122 C286,5121.448 286.507,5121 287.059,5121 L290,5121 L290,5130 L286,5130 L286,5122 Z M302.293,5130 L298.059,5130 L297.205,5120.606 C297.123,5119.697 296.36,5119 295.446,5119 L285.826,5119 C284.85,5119 284,5119.791 284,5120.767 L284,5134.233 C284,5135.209 284.82,5136 285.796,5136 L285.811,5136 C286.257,5137.722 287.815,5139 289.677,5139 C291.539,5139 293.097,5137.722 293.543,5136 L296.059,5136 C296.059,5137.657 297.402,5139 299.059,5139 C300.716,5139 302.059,5137.657 302.059,5136 L302.293,5136 C303.268,5136 304,5135.209 304,5134.233 L304,5131.767 C304,5130.791 303.268,5130 302.293,5130 L302.293,5130 Z" id="car_round-[#661]"></path>
            </g>
        </g>
    </g>
</svg>