<?xml version="1.0" encoding="UTF-8" standalone="no"?>
<svg width="20px" height="20px" viewBox="0 0 20 20" version="1.1" xmlns="http://www.w3.org/2000/svg" xmlns:xlink="http://www.w3.org/1999/xlink">
    <!-- Generator: Sketch 3.8.1 (29687) - http://www.bohemiancoding.com/sketch -->
    <title>car_round [#660]</title>
    <desc>Created with Sketch.</desc>
    <defs></defs>
    <g id="Page-1" stroke="none" stroke-width="1" fill="none" fill-rule="evenodd">
        <g id="Dribbble-Dark-Preview" transform="translate(-380.000000, -5279.000000)" fill="#FFFFFF">
            <g id="icons" transform="translate(56.000000, 160.000000)">
                <path d="M342,5134 L341.403,5134 C340.854,5133 339.976,5133.03 339.091,5133.03 C338.738,5133.03 338,5133.132 338,5133.244 L338,5132 L341.121,5132 C341.673,5132 342,5132.448 342,5133 L342,5134 Z M339.181,5137.06 C338.63,5137.06 338.181,5136.612 338.181,5136.06 C338.181,5135.509 338.63,5135.06 339.181,5135.06 C339.733,5135.06 340.181,5135.509 340.181,5136.06 C340.181,5136.612 339.733,5137.06 339.181,5137.06 L339.181,5137.06 Z M336,5130 L333,5130 L333,5121 L335.121,5121 C335.673,5121 336,5121.448 336,5122 L336,5130 Z M336,5134 L333.665,5134 C333.46,5133 333.016,5133 332.423,5132 L336,5132 L336,5134 Z M331.528,5136.06 C331.181,5136.655 330.543,5137.06 329.806,5137.06 C329.07,5137.06 328.432,5136.655 328.085,5136.06 C327.912,5135.765 327.806,5135.426 327.806,5135.06 C327.806,5134.695 327.912,5134.356 328.085,5134.06 C328.432,5133.466 329.07,5133.06 329.806,5133.06 C330.543,5133.06 331.181,5133.466 331.528,5134.06 C331.7,5134.356 331.806,5134.695 331.806,5135.06 C331.806,5135.426 331.701,5135.765 331.528,5136.06 L331.528,5136.06 Z M326.181,5133.392 L326.181,5132.06 L327.172,5132.06 C326.757,5132.428 326.417,5132.881 326.181,5133.392 L326.181,5133.392 Z M326,5122 C326,5121.448 326.569,5121 327.121,5121 L331,5121 L331,5130 L326,5130 L326,5122 Z M342.181,5130 L338,5130 L338,5121 C338,5119.895 337.225,5119 336.121,5119 L326.121,5119 C325.016,5119 324,5119.895 324,5121 L324,5134.173 C324,5135.182 324.878,5136 325.887,5136 L325.918,5136 C326.364,5138 327.93,5139 329.791,5139 C331.653,5139 333.219,5138 333.665,5136 L336.181,5136 C336.181,5138 337.525,5139 339.181,5139 C340.838,5139 342.121,5138 342.121,5136 C343.192,5136 344,5135.132 344,5134.06 L344,5131.94 C344,5130.868 343.253,5130 342.181,5130 L342.181,5130 Z" id="car_round-[#660]"></path>
            </g>
        </g>
    </g>
</svg>