<?xml version="1.0" encoding="UTF-8" standalone="no"?>
<svg width="20px" height="20px" viewBox="0 0 20 20" version="1.1" xmlns="http://www.w3.org/2000/svg" xmlns:xlink="http://www.w3.org/1999/xlink">
    <!-- Generator: Sketch 3.8.1 (29687) - http://www.bohemiancoding.com/sketch -->
    <title>car_round [#655]</title>
    <desc>Created with Sketch.</desc>
    <defs></defs>
    <g id="Page-1" stroke="none" stroke-width="1" fill="none" fill-rule="evenodd">
        <g id="Dribbble-Dark-Preview" transform="translate(-180.000000, -5319.000000)" fill="#FFFFFF">
            <g id="icons" transform="translate(56.000000, 160.000000)">
                <path d="M142,5174 L141.221,5174 C140.672,5173.39 139.885,5173 139,5173 C138.647,5173 138.314,5173.072 138,5173.184 L138,5172 L141,5172 C141.552,5172 142,5172.448 142,5173 L142,5174 Z M139,5177 C138.449,5177 138,5176.551 138,5176 C138,5175.449 138.449,5175 139,5175 C139.551,5175 140,5175.449 140,5176 C140,5176.551 139.551,5177 139,5177 L139,5177 Z M133.484,5174 C133.279,5173.21 132.834,5172.522 132.242,5172 L136,5172 L136,5174 L133.484,5174 Z M131.347,5176 C131,5176.595 130.362,5177 129.625,5177 C128.888,5177 128.25,5176.595 127.903,5176 C127.731,5175.705 127.625,5175.366 127.625,5175 C127.625,5174.634 127.731,5174.295 127.903,5174 C128.25,5173.405 128.888,5173 129.625,5173 C130.362,5173 131,5173.405 131.347,5174 C131.519,5174.295 131.625,5174.634 131.625,5175 C131.625,5175.366 131.519,5175.705 131.347,5176 L131.347,5176 Z M126,5173.331 L126,5172 L126.991,5172 C126.575,5172.368 126.236,5172.821 126,5173.331 L126,5173.331 Z M135.099,5161.89 L136,5170 L126,5170 L126,5162 C126,5161.448 126.448,5161 127,5161 L134.105,5161 C134.615,5161 135.043,5161.383 135.099,5161.89 L135.099,5161.89 Z M138,5170 L137.146,5160.607 C137.063,5159.697 136.3,5159 135.387,5159 L125.766,5159 C124.791,5159 124,5159.791 124,5160.766 L124,5174.234 C124,5175.209 124.791,5176 125.766,5176 C126.213,5177.722 127.763,5179 129.625,5179 C131.487,5179 133.037,5177.722 133.484,5176 L136,5176 C136,5177.657 137.343,5179 139,5179 C140.657,5179 142,5177.657 142,5176 L142.234,5176 C143.209,5176 144,5175.209 144,5174.234 L144,5171.766 C144,5170.791 143.209,5170 142.234,5170 L138,5170 Z" id="car_round-[#655]"></path>
            </g>
        </g>
    </g>
</svg>