<?xml version="1.0" encoding="UTF-8" standalone="no"?>
<svg width="20px" height="20px" viewBox="0 0 20 20" version="1.1" xmlns="http://www.w3.org/2000/svg" xmlns:xlink="http://www.w3.org/1999/xlink">
    <!-- Generator: Sketch 3.8.1 (29687) - http://www.bohemiancoding.com/sketch -->
    <title>car_round [#645]</title>
    <desc>Created with Sketch.</desc>
    <defs></defs>
    <g id="Page-1" stroke="none" stroke-width="1" fill="none" fill-rule="evenodd">
        <g id="Dribbble-Dark-Preview" transform="translate(-180.000000, -5359.000000)" fill="#FFFFFF">
            <g id="icons" transform="translate(56.000000, 160.000000)">
                <path d="M142,5214 L141.05,5214 C140.5,5213.39 139.799,5213 138.914,5213 C138.562,5213 138,5213.072 138,5213.184 L138,5212 L140.828,5212 C141.38,5212 142,5212.448 142,5213 L142,5214 Z M138.828,5217 C138.277,5217 137.828,5216.551 137.828,5216 C137.828,5215.449 138.277,5215 138.828,5215 C139.38,5215 139.828,5215.449 139.828,5216 C139.828,5216.551 139.38,5217 138.828,5217 L138.828,5217 Z M136,5210 L132,5210 L132,5201 L134.828,5201 C135.38,5201 136,5201.448 136,5202 L136,5210 Z M132,5214 L136,5214 L136,5212 L132,5212 L132,5214 Z M128.828,5217 C128.277,5217 127.828,5216.551 127.828,5216 C127.828,5215.449 128.277,5215 128.828,5215 C129.38,5215 129.828,5215.449 129.828,5216 C129.828,5216.551 129.38,5217 128.828,5217 L128.828,5217 Z M126.607,5214 L126,5214 L126,5212 L130,5212 L130,5213.191 C130,5213.077 129.268,5213 128.914,5213 C128.029,5213 127.156,5213.39 126.607,5214 L126.607,5214 Z M126,5202 C126,5201.448 126.276,5201 126.828,5201 L130,5201 L130,5210 L126,5210 L126,5202 Z M141.828,5210 L138,5210 L138,5201 C138,5199.895 136.933,5199 135.828,5199 L125.828,5199 C124.724,5199 124,5199.895 124,5201 L124,5214 C124,5215.105 124.81,5216 125.914,5216 C125.914,5217.657 127.214,5219 128.871,5219 C130.528,5219 131.828,5217.657 131.828,5216 L135.828,5216 C135.828,5217.657 137.171,5219 138.828,5219 C140.485,5219 141.914,5217.657 141.914,5216 C143.019,5216 144,5215.105 144,5214 L144,5212 C144,5210.895 142.933,5210 141.828,5210 L141.828,5210 Z" id="car_round-[#645]"></path>
            </g>
        </g>
    </g>
</svg>