<?xml version="1.0" encoding="UTF-8" standalone="no"?>
<svg width="20px" height="20px" viewBox="0 0 20 20" version="1.1" xmlns="http://www.w3.org/2000/svg" xmlns:xlink="http://www.w3.org/1999/xlink">
    <!-- Generator: Sketch 3.8.1 (29687) - http://www.bohemiancoding.com/sketch -->
    <title>car_round [#644]</title>
    <desc>Created with Sketch.</desc>
    <defs></defs>
    <g id="Page-1" stroke="none" stroke-width="1" fill="none" fill-rule="evenodd">
        <g id="Dribbble-Dark-Preview" transform="translate(-220.000000, -5359.000000)" fill="#FFFFFF">
            <g id="icons" transform="translate(56.000000, 160.000000)">
                <path d="M182,5214 L181.221,5214 C180.672,5213 179.885,5213 179,5213 C178.647,5213 178.314,5213.072 178,5213.184 L178,5212 L181,5212 C181.552,5212 182,5212.448 182,5213 L182,5214 Z M179,5217 C178.449,5217 178,5216.551 178,5216 C178,5215.449 178.449,5215 179,5215 C179.551,5215 180,5215.449 180,5216 C180,5216.551 179.551,5217 179,5217 L179,5217 Z M176,5210 L172,5210 L172,5201 L175,5201 C175.552,5201 176,5201.448 176,5202 L176,5210 Z M176,5214 L171.221,5214 C170.672,5213 169.885,5213 169,5213 C168.115,5213 167.328,5213 166.779,5214 L166,5214 L166,5212 L176,5212 L176,5214 Z M169,5217 C168.449,5217 168,5216.551 168,5216 C168,5215.449 168.449,5215 169,5215 C169.551,5215 170,5215.449 170,5216 C170,5216.551 169.551,5217 169,5217 L169,5217 Z M166,5202 C166,5201.448 166.448,5201 167,5201 L170,5201 L170,5210 L166,5210 L166,5202 Z M182,5210 L178,5210 L178,5201 C178,5199.895 177.105,5199 176,5199 L166,5199 C164.895,5199 164,5199.895 164,5201 L164,5214 C164,5215.105 164.895,5216 166,5216 C166,5217.657 167.343,5219 169,5219 C170.657,5219 172,5218 172,5216 L176,5216 C176,5218 177.343,5219 179,5219 C180.657,5219 182,5217.657 182,5216 C183.105,5216 184,5215.105 184,5214 L184,5212 C184,5210.895 183.105,5210 182,5210 L182,5210 Z" id="car_round-[#644]"></path>
            </g>
        </g>
    </g>
</svg>