<?xml version="1.0" encoding="UTF-8" standalone="no"?>
<svg width="20px" height="16px" viewBox="0 0 20 16" version="1.1" xmlns="http://www.w3.org/2000/svg" xmlns:xlink="http://www.w3.org/1999/xlink">
    <!-- Generator: Sketch 3.8.1 (29687) - http://www.bohemiancoding.com/sketch -->
    <title>car_round [#647]</title>
    <desc>Created with Sketch.</desc>
    <defs></defs>
    <g id="Page-1" stroke="none" stroke-width="1" fill="none" fill-rule="evenodd">
        <g id="Dribbble-Dark-Preview" transform="translate(-100.000000, -5361.000000)" fill="#FFFFFF">
            <g id="icons" transform="translate(56.000000, 160.000000)">
                <path d="M62,5212 L61.221,5212 C60.672,5211.39 59.885,5211 59,5211 C58.647,5211 58.314,5211.072 58,5211.184 L58,5210 L61,5210 C61.552,5210 62,5210.448 62,5211 L62,5212 Z M59,5215 C58.449,5215 58,5214.551 58,5214 C58,5213.449 58.449,5213 59,5213 C59.551,5213 60,5213.449 60,5214 C60,5214.551 59.551,5215 59,5215 L59,5215 Z M56,5208 L46,5208 L46,5204 C46,5203.448 46.448,5203 47,5203 L55,5203 C55.552,5203 56,5203.448 56,5204 L56,5208 Z M56,5212 L51.221,5212 C50.672,5211.39 49.885,5211 49,5211 C48.115,5211 47.328,5211.39 46.779,5212 L46,5212 L46,5210 L56,5210 L56,5212 Z M49,5215 C48.449,5215 48,5214.551 48,5214 C48,5213.449 48.449,5213 49,5213 C49.551,5213 50,5213.449 50,5214 C50,5214.551 49.551,5215 49,5215 L49,5215 Z M58,5208 L58,5203 C58,5201.895 57.105,5201 56,5201 L46,5201 C44.895,5201 44,5201.895 44,5203 L44,5212 C44,5213.105 44.895,5214 46,5214 L46,5214 C46,5215.657 47.343,5217 49,5217 C50.657,5217 52,5215.657 52,5214 L56,5214 C56,5215.657 57.343,5217 59,5217 C60.657,5217 62,5215.657 62,5214 L62,5214 C63.105,5214 64,5213.105 64,5212 L64,5210 C64,5208.895 63.105,5208 62,5208 L58,5208 Z" id="car_round-[#647]"></path>
            </g>
        </g>
    </g>
</svg>