<?xml version="1.0" encoding="UTF-8" standalone="no"?>
<svg width="20px" height="20px" viewBox="0 0 20 20" version="1.1" xmlns="http://www.w3.org/2000/svg" xmlns:xlink="http://www.w3.org/1999/xlink">
    <!-- Generator: Sketch 3.8.1 (29687) - http://www.bohemiancoding.com/sketch -->
    <title>car_front_view [#609]</title>
    <desc>Created with Sketch.</desc>
    <defs></defs>
    <g id="Page-1" stroke="none" stroke-width="1" fill="none" fill-rule="evenodd">
        <g id="Dribbble-Dark-Preview" transform="translate(-420.000000, -5479.000000)" fill="#FFFFFF">
            <g id="icons" transform="translate(56.000000, 160.000000)">
                <path d="M368,5331 L368,5322 C368,5321.448 368.448,5321 369,5321 L379,5321 C379.552,5321 380,5321.448 380,5322 L380,5331 L368,5331 Z M378,5334 L378,5334 C378,5333.448 378.448,5333 379,5333 C379.552,5333 380,5333.448 380,5334 C380,5334.552 379.552,5335 379,5335 C378.448,5335 378,5334.552 378,5334 L378,5334 Z M368,5334 L368,5334 C368,5333.448 368.448,5333 369,5333 C369.552,5333 370,5333.448 370,5334 C370,5334.552 369.552,5335 369,5335 C368.448,5335 368,5334.552 368,5334 L368,5334 Z M384,5328 L384,5328 C384,5327.448 383.552,5327 383,5327 L382,5327 L382,5321 C382,5319.895 381.105,5319 380,5319 L368,5319 C366.895,5319 366,5319.895 366,5321 L366,5327 L365,5327 C364.448,5327 364,5327.448 364,5328 C364,5328.552 364.448,5329 365,5329 L366,5329 L366,5331 C364.895,5331 364,5331.895 364,5333 L364,5335 C364,5336.105 364.895,5337 366,5337 L366,5338 C366,5338.552 366.448,5339 367,5339 L369,5339 C369.552,5339 370,5338.552 370,5338 L370,5337 L378,5337 L378,5338 C378,5338.552 378.448,5339 379,5339 L381,5339 C381.552,5339 382,5338.552 382,5338 L382,5337 C383.105,5337 384,5336.105 384,5335 L384,5333 C384,5331.895 383.105,5331 382,5331 L382,5329 L383,5329 C383.552,5329 384,5328.552 384,5328 L384,5328 Z" id="car_front_view-[#609]"></path>
            </g>
        </g>
    </g>
</svg>