<?xml version="1.0" encoding="UTF-8" standalone="no"?>
<svg width="20px" height="16px" viewBox="0 0 20 16" version="1.1" xmlns="http://www.w3.org/2000/svg" xmlns:xlink="http://www.w3.org/1999/xlink">
    <!-- Generator: Sketch 3.8.1 (29687) - http://www.bohemiancoding.com/sketch -->
    <title>car_round [#651]</title>
    <desc>Created with Sketch.</desc>
    <defs></defs>
    <g id="Page-1" stroke="none" stroke-width="1" fill="none" fill-rule="evenodd">
        <g id="Dribbble-Dark-Preview" transform="translate(-340.000000, -5321.000000)" fill="#FFFFFF">
            <g id="icons" transform="translate(56.000000, 160.000000)">
                <path d="M302,5172.11602 L301.221,5172.11602 C300.672,5171.10548 299.885,5170.93671 299,5170.93671 C298.647,5170.93671 298.314,5170.84172 298,5170.95389 L298,5170.09493 L301,5170.09493 C301.552,5170.09493 302,5170.21013 302,5170.76896 L302,5172.11602 Z M299,5174.81115 C298.449,5174.81115 298,5174.35742 298,5173.80061 C298,5173.24278 298.449,5172.79006 299,5172.79006 C299.551,5172.79006 300,5173.24278 300,5173.80061 C300,5174.35742 299.551,5174.81115 299,5174.81115 L299,5174.81115 Z M296,5168.07383 L292,5168.07383 L292,5163.0211 L295,5163.0211 C295.552,5163.0211 296,5163.1363 296,5163.69513 L296,5168.07383 Z M292,5172.11602 L296,5172.11602 L296,5170.09493 L292,5170.09493 L292,5172.11602 Z M289,5174.81115 C288.449,5174.81115 288,5174.35742 288,5173.80061 C288,5173.24278 288.449,5172.79006 289,5172.79006 C289.551,5172.79006 290,5173.24278 290,5173.80061 C290,5174.35742 289.551,5174.81115 289,5174.81115 L289,5174.81115 Z M286.779,5172.11602 L286,5172.11602 L286,5170.09493 L290,5170.09493 L290,5170.96198 C289.686,5170.84678 289.354,5170.93671 289,5170.93671 C288.115,5170.93671 287.328,5171.10548 286.779,5172.11602 L286.779,5172.11602 Z M286,5163.69513 C286,5163.1363 286.448,5163.0211 287,5163.0211 L290,5163.0211 L290,5168.07383 L286,5168.07383 L286,5163.69513 Z M302,5168.07383 L298,5168.07383 L298,5162.68458 C298,5161.56793 297.105,5161 296,5161 L286,5161 C284.895,5161 284,5161.56793 284,5162.68458 L284,5171.77951 C284,5172.89516 284.895,5173.80061 286,5173.80061 C286,5175.47508 287.343,5177 289,5177 C290.657,5177 292,5175.14767 292,5174.13712 L296,5174.13712 C296,5175.14767 297.343,5177 299,5177 C300.657,5177 302,5175.55896 302,5173.88448 C303.105,5173.88448 304,5172.89516 304,5171.77951 L304,5169.75842 C304,5168.64176 303.105,5168.07383 302,5168.07383 L302,5168.07383 Z" id="car_round-[#651]"></path>
            </g>
        </g>
    </g>
</svg>