<?xml version="1.0" encoding="UTF-8" standalone="no"?>
<svg width="20px" height="20px" viewBox="0 0 20 20" version="1.1" xmlns="http://www.w3.org/2000/svg" xmlns:xlink="http://www.w3.org/1999/xlink">
    <!-- Generator: Sketch 3.8.1 (29687) - http://www.bohemiancoding.com/sketch -->
    <title>car_round [#641]</title>
    <desc>Created with Sketch.</desc>
    <defs></defs>
    <g id="Page-1" stroke="none" stroke-width="1" fill="none" fill-rule="evenodd">
        <g id="Dribbble-Dark-Preview" transform="translate(-340.000000, -5359.000000)" fill="#FFFFFF">
            <g id="icons" transform="translate(56.000000, 160.000000)">
                <path d="M302,5214 L301.221,5214 C300.672,5213.39 299.885,5213 299,5213 C298.647,5213 298.314,5213.072 298,5213.184 L298,5212 L301,5212 C301.552,5212 302,5212.448 302,5213 L302,5214 Z M299,5217 C298.449,5217 298,5216.551 298,5216 C298,5215.449 298.449,5215 299,5215 C299.551,5215 300,5215.449 300,5216 C300,5216.551 299.551,5217 299,5217 L299,5217 Z M296,5210 L286,5210 L286,5202 C286,5201.448 286.448,5201 287,5201 L295,5201 C295.552,5201 296,5201.448 296,5202 L296,5210 Z M296,5214 L291.221,5214 C290.672,5213 289.885,5213 289,5213 C288.115,5213 287.328,5213 286.779,5214 L286,5214 L286,5212 L296,5212 L296,5214 Z M289,5217 C288.449,5217 288,5216.551 288,5216 C288,5215.449 288.449,5215 289,5215 C289.551,5215 290,5215.449 290,5216 C290,5216.551 289.551,5217 289,5217 L289,5217 Z M298,5210 L298,5201 C298,5199.895 297.105,5199 296,5199 L286,5199 C284.895,5199 284,5199.895 284,5201 L284,5214 C284,5215.105 284.895,5216 286,5216 C286,5217.657 287.343,5219 289,5219 C290.657,5219 292,5217.657 292,5216 L296,5216 C296,5217.657 297.343,5219 299,5219 C300.657,5219 302,5217.657 302,5216 C303.105,5216 304,5215.105 304,5214 L304,5212 C304,5210.895 303.105,5210 302,5210 L298,5210 Z" id="car_round-[#641]"></path>
            </g>
        </g>
    </g>
</svg>