<?xml version="1.0" encoding="UTF-8" standalone="no"?>
<svg width="20px" height="20px" viewBox="0 0 20 20" version="1.1" xmlns="http://www.w3.org/2000/svg" xmlns:xlink="http://www.w3.org/1999/xlink">
    <!-- Generator: Sketch 3.8.1 (29687) - http://www.bohemiancoding.com/sketch -->
    <title>cart_minus [#1161]</title>
    <desc>Created with Sketch.</desc>
    <defs></defs>
    <g id="Page-1" stroke="none" stroke-width="1" fill="none" fill-rule="evenodd">
        <g id="Dribbble-Dark-Preview" transform="translate(-380.000000, -2999.000000)" fill="#FFFFFF">
            <g id="icons" transform="translate(56.000000, 160.000000)">
                <path d="M324,2845 L330,2845 L330,2843 L324,2843 L324,2845 Z M344,2839 L338,2839 L338,2851 L326,2851 L326,2853.184 C324.837,2853.597 324,2854.696 324,2856 C324,2857.657 325.343,2859 327,2859 C328.657,2859 330,2857.657 330,2856 C330,2854.696 329.163,2853.597 328,2853.184 L328,2853 L338,2853 L338,2853.184 C336.837,2853.597 336,2854.696 336,2856 C336,2857.657 337.343,2859 339,2859 C340.657,2859 342,2857.657 342,2856 C342,2854.696 341.163,2853.597 340,2853.184 L340,2841 L344,2841 L344,2839 Z M327,2854.951 C327.547,2855.145 328,2855.339 328,2856 C328,2856.551 327.551,2857 327,2857 C326.449,2857 326,2856.551 326,2856 C326,2855.339 326.453,2855.145 327,2854.951 L327,2854.951 Z M339,2854.951 C339.547,2855.145 340,2855.339 340,2856 C340,2856.551 339.551,2857 339,2857 C338.449,2857 338,2856.551 338,2856 C338,2855.339 338.453,2855.145 339,2854.951 L339,2854.951 Z" id="cart_minus-[#1161]"></path>
            </g>
        </g>
    </g>
</svg>