<?xml version="1.0" encoding="UTF-8" standalone="no"?>
<svg width="20px" height="20px" viewBox="0 0 20 20" version="1.1" xmlns="http://www.w3.org/2000/svg" xmlns:xlink="http://www.w3.org/1999/xlink">
    <!-- Generator: Sketch 3.8.1 (29687) - http://www.bohemiancoding.com/sketch -->
    <title>cart_minus_round [#1162]</title>
    <desc>Created with Sketch.</desc>
    <defs></defs>
    <g id="Page-1" stroke="none" stroke-width="1" fill="none" fill-rule="evenodd">
        <g id="Dribbble-Dark-Preview" transform="translate(-340.000000, -2999.000000)" fill="#FFFFFF">
            <g id="icons" transform="translate(56.000000, 160.000000)">
                <path d="M285.003,2844.94104 C284.451,2844.94104 284,2844.54695 284,2844.00038 L284,2844.04889 C284,2843.50232 284.451,2842.96069 285.003,2842.96069 L289.003,2842.96069 C289.555,2842.96069 290,2843.45281 290,2844.00038 L290,2844.04889 C290,2844.59646 289.555,2844.94104 289.003,2844.94104 L285.003,2844.94104 Z M299.003,2857.02016 C298.452,2857.02016 298.003,2856.57558 298.003,2856.02999 C298.003,2855.37549 298.456,2855.18339 299.003,2854.99031 C299.55,2855.18339 300.003,2855.37549 300.003,2856.02999 C300.003,2856.57558 299.554,2857.02016 299.003,2857.02016 L299.003,2857.02016 Z M287.003,2857.02016 C286.452,2857.02016 286.003,2856.57558 286.003,2856.02999 C286.003,2855.37549 286.456,2855.18339 287.003,2854.99031 C287.55,2855.18339 288.003,2855.37549 288.003,2856.02999 C288.003,2856.57558 287.554,2857.02016 287.003,2857.02016 L287.003,2857.02016 Z M300,2842.16756 C300,2841.62 300.451,2840.98035 301.003,2840.98035 L303.003,2840.98035 C303.555,2840.98035 304,2840.63577 304,2840.0882 L304,2840.03968 C304,2839.49212 303.555,2839 303.003,2839 L300.003,2839 C298.898,2839 298,2840.08325 298,2841.17739 L298,2850.88208 L288.003,2850.88208 C286.898,2850.88208 286,2851.96533 286,2853.05947 L286,2853.24067 C285,2853.71199 283.757,2855.08041 284.06,2856.6231 C284.288,2857.78854 285.259,2858.73613 286.438,2858.94902 C288.343,2859.29261 290.001,2857.8529 290.001,2856.02999 C290.001,2854.73781 289,2853.6506 288,2853.24067 L288,2852.86243 L298,2852.86243 L298,2853.24067 C297,2853.71199 295.757,2855.08041 296.06,2856.6231 C296.288,2857.78854 297.259,2858.73613 298.438,2858.94902 C300.343,2859.29261 302.001,2857.8529 302.001,2856.02999 C302.001,2854.73781 301,2853.6506 300,2853.24067 L300,2842.16756 Z" id="cart_minus_round-[#1162]"></path>
            </g>
        </g>
    </g>
</svg>