<?xml version="1.0" encoding="UTF-8" standalone="no"?>
<svg width="20px" height="20px" viewBox="0 0 20 20" version="1.1" xmlns="http://www.w3.org/2000/svg" xmlns:xlink="http://www.w3.org/1999/xlink">
    <!-- Generator: Sketch 3.8.1 (29687) - http://www.bohemiancoding.com/sketch -->
    <title>cart_fill_round [#1156]</title>
    <desc>Created with Sketch.</desc>
    <defs></defs>
    <g id="Page-1" stroke="none" stroke-width="1" fill="none" fill-rule="evenodd">
        <g id="Dribbble-Dark-Preview" transform="translate(-180.000000, -3039.000000)" fill="#FFFFFF">
            <g id="icons" transform="translate(56.000000, 160.000000)">
                <path d="M136.003872,2887 C136.003872,2888.105 135.108074,2889 134.002088,2889 L127.996735,2889 C126.890749,2889 125.994951,2888.105 125.994951,2887 L125.994951,2885 C125.994951,2883.895 126.890749,2883 127.996735,2883 L134.002088,2883 C135.108074,2883 136.003872,2883.895 136.003872,2885 L136.003872,2887 Z M138.995539,2897 C138.444048,2897 137.994647,2896.551 137.994647,2896 C137.994647,2895.339 138.448051,2895.145 138.995539,2894.951 C139.544028,2895.145 139.996431,2895.339 139.996431,2896 C139.996431,2896.551 139.548032,2897 138.995539,2897 L138.995539,2897 Z M126.984833,2897 C126.433342,2897 125.983941,2896.551 125.983941,2896 C125.983941,2895.339 126.437345,2895.145 126.984833,2894.951 C127.533322,2895.145 127.985725,2895.339 127.985725,2896 C127.985725,2896.551 127.537326,2897 126.984833,2897 L126.984833,2897 Z M140.007441,2882 C140.007441,2881.448 140.444831,2881 140.997323,2881 L142.999108,2881 C143.552601,2881 144,2880.552 144,2880 C144,2879.448 143.552601,2879 142.999108,2879 L139.996431,2879 L139.99543,2879 C138.889445,2879 138.005657,2879.895 138.005657,2881 L138.005657,2891 L127.985725,2891 C126.88074,2891 125.98294,2892 125.98294,2893 L125.994951,2893 L125.994951,2893.184 C124.994059,2893.659 123.742943,2895.041 124.046214,2896.6 C124.274417,2897.777 125.24228,2898.734 126.423333,2898.949 C128.330032,2899.295 129.994516,2897.841 129.994516,2896 C129.994516,2894.696 128.997627,2893.597 127.996735,2893.184 L127.996735,2893 L138.005657,2893 L138.005657,2893.184 C137.004765,2893.659 135.753649,2895.041 136.05692,2896.6 C136.285123,2897.777 137.252986,2898.734 138.434039,2898.949 C140.340738,2899.295 142.005222,2897.841 142.005222,2896 C142.005222,2894.696 141.008333,2893.597 140.007441,2893.184 L140.007441,2882 Z" id="cart_fill_round-[#1156]"></path>
            </g>
        </g>
    </g>
</svg>