<?xml version="1.0" encoding="UTF-8" standalone="no"?>
<svg width="20px" height="20px" viewBox="0 0 20 20" version="1.1" xmlns="http://www.w3.org/2000/svg" xmlns:xlink="http://www.w3.org/1999/xlink">
    <!-- Generator: Sketch 3.8.1 (29687) - http://www.bohemiancoding.com/sketch -->
    <title>cart_round [#1169]</title>
    <desc>Created with Sketch.</desc>
    <defs></defs>
    <g id="Page-1" stroke="none" stroke-width="1" fill="none" fill-rule="evenodd">
        <g id="Dribbble-Dark-Preview" transform="translate(-60.000000, -2999.000000)" fill="#FFFFFF">
            <g id="icons" transform="translate(56.000000, 160.000000)">
                <path d="M19.0001956,2857 C18.4491956,2857 18.0001956,2856.551 18.0001956,2856 C18.0001956,2855.449 18.4491956,2855 19.0001956,2855 C19.5511956,2855 20.0001956,2855.449 20.0001956,2856 C20.0001956,2856.551 19.5511956,2857 19.0001956,2857 L19.0001956,2857 Z M8.00019562,2851 L8.00019562,2846 C8.00019562,2845.448 8.44819562,2845 9.00019562,2845 L18.0001956,2845 L18.0001956,2851 L8.00019562,2851 Z M7.00019562,2857 C6.44919562,2857 6.00019562,2856.551 6.00019562,2856 C6.00019562,2855.449 6.44919562,2855 7.00019562,2855 C7.55119562,2855 8.00019562,2855.449 8.00019562,2856 C8.00019562,2856.551 7.55119562,2857 7.00019562,2857 L7.00019562,2857 Z M8.00019562,2843 C6.89519562,2843 6.00019562,2843.895 6.00019562,2845 L6.00019562,2853.184 C4.66319562,2853.659 3.75619562,2855.041 4.05819562,2856.6 C4.28719562,2857.777 5.25719562,2858.734 6.43619562,2858.949 C8.34119562,2859.295 10.0001956,2857.841 10.0001956,2856 C10.0001956,2854.696 9.16319562,2853.597 8.00019562,2853.184 L8.00019562,2853 L18.0001956,2853 L18.0001956,2853.184 C16.6631956,2853.659 15.7561956,2855.041 16.0581956,2856.6 C16.2871956,2857.777 17.2571956,2858.734 18.4361956,2858.949 C20.3411956,2859.295 22.0001956,2857.841 22.0001956,2856 C22.0001956,2854.696 21.1631956,2853.597 20.0001956,2853.184 L20.0001956,2842 C20.0001956,2841.448 20.4481956,2841 21.0001956,2841 L23.0001956,2841 C23.5521956,2841 24.0001956,2840.552 24.0001956,2840 C24.0001956,2839.448 23.5521956,2839 23.0001956,2839 L20.0001956,2839 L20.0001956,2839 C18.8951956,2839 18.0001956,2839.895 18.0001956,2841 L18.0001956,2843 L8.00019562,2843 Z" id="cart_round-[#1169]"></path>
            </g>
        </g>
    </g>
</svg>