<?xml version="1.0" encoding="UTF-8" standalone="no"?>
<svg width="20px" height="20px" viewBox="0 0 20 20" version="1.1" xmlns="http://www.w3.org/2000/svg" xmlns:xlink="http://www.w3.org/1999/xlink">
    <!-- Generator: Sketch 3.8.1 (29687) - http://www.bohemiancoding.com/sketch -->
    <title>cart_empty_round [#1164]</title>
    <desc>Created with Sketch.</desc>
    <defs></defs>
    <g id="Page-1" stroke="none" stroke-width="1" fill="none" fill-rule="evenodd">
        <g id="Dribbble-Dark-Preview" transform="translate(-260.000000, -2999.000000)" fill="#FFFFFF">
            <g id="icons" transform="translate(56.000000, 160.000000)">
                <path d="M219.000196,2857.03936 C218.449196,2857.03936 218.000196,2856.59909 218.000196,2856.0588 C218.000196,2855.41065 218.453196,2855.22042 219.000196,2855.03019 C219.547196,2855.22042 220.000196,2855.41065 220.000196,2856.0588 C220.000196,2856.59909 219.551196,2857.03936 219.000196,2857.03936 L219.000196,2857.03936 Z M207.000196,2857.03936 C206.449196,2857.03936 206.000196,2856.59909 206.000196,2856.0588 C206.000196,2855.41065 206.453196,2855.22042 207.000196,2855.03019 C207.547196,2855.22042 208.000196,2855.41065 208.000196,2856.0588 C208.000196,2856.59909 207.551196,2857.03936 207.000196,2857.03936 L207.000196,2857.03936 Z M220.000196,2842.33096 C220.000196,2841.78969 220.448196,2840.96112 221.000196,2840.96112 L223.000196,2840.96112 C223.552196,2840.96112 224.000196,2840.71696 224.000196,2840.17471 L224.000196,2840.07764 C224.000196,2839.53637 223.552196,2839 223.000196,2839 L220.000196,2839 C218.895196,2839 218.000196,2840.26688 218.000196,2841.3504 L218.000196,2850.76672 L208.000196,2850.76672 C207.089196,2850.76672 206.000196,2851.73061 206.000196,2853.29754 C204.663196,2853.76331 203.756196,2855.11844 204.058196,2856.64714 C204.287196,2857.80125 205.256196,2858.73965 206.436196,2858.94949 C208.341196,2859.28974 210.000196,2857.86499 210.000196,2856.0588 C210.000196,2854.78015 209.163196,2853.70251 208.000196,2853.29754 L208.000196,2852.72784 L218.000196,2852.72784 L218.000196,2853.29754 C216.663196,2853.76331 215.756196,2855.11844 216.058196,2856.64714 C216.287196,2857.80125 217.256196,2858.73965 218.436196,2858.94949 C220.341196,2859.28974 222.000196,2857.86499 222.000196,2856.0588 C222.000196,2854.78015 221.163196,2853.70251 220.000196,2853.29754 L220.000196,2842.33096 Z" id="cart_empty_round-[#1164]"></path>
            </g>
        </g>
    </g>
</svg>