<?xml version="1.0" encoding="UTF-8" standalone="no"?>
<svg width="20px" height="20px" viewBox="0 0 20 20" version="1.1" xmlns="http://www.w3.org/2000/svg" xmlns:xlink="http://www.w3.org/1999/xlink">
    <!-- Generator: Sketch 3.8.1 (29687) - http://www.bohemiancoding.com/sketch -->
    <title>cart_play_round [#1138]</title>
    <desc>Created with Sketch.</desc>
    <defs></defs>
    <g id="Page-1" stroke="none" stroke-width="1" fill="none" fill-rule="evenodd">
        <g id="Dribbble-Dark-Preview" transform="translate(-100.000000, -3119.000000)" fill="#FFFFFF">
            <g id="icons" transform="translate(56.000000, 160.000000)">
                <path d="M59.9415992,2976.02951 C59.9415992,2976.57508 59.4916679,2977.01966 58.939525,2977.01966 C58.387382,2977.01966 57.9374507,2976.57508 57.9374507,2976.02951 C57.9374507,2975.48394 58.387382,2975.03937 58.939525,2975.03937 C59.4916679,2975.03937 59.9415992,2975.48394 59.9415992,2976.02951 L59.9415992,2976.02951 Z M54.474282,2968.95591 L52.4480879,2970.18072 C51.7817085,2970.57579 50.9730346,2970.10151 50.9730346,2969.33316 L50.9730346,2966.88354 C50.9730346,2966.11519 51.7817085,2965.64091 52.4480879,2966.03597 L54.4943235,2967.26078 C55.1416635,2967.64496 55.1226241,2968.57174 54.474282,2968.95591 L54.474282,2968.95591 Z M47.916708,2976.02951 C47.916708,2976.57508 47.4667767,2977.01966 46.9146338,2977.01966 C46.3624909,2977.01966 45.9125595,2976.57508 45.9125595,2976.02951 C45.9125595,2975.48394 46.3624909,2975.03937 46.9146338,2975.03937 C47.4667767,2975.03937 47.916708,2975.48394 47.916708,2976.02951 L47.916708,2976.02951 Z M47.8846417,2962.96058 C46.7793538,2962.96058 45.9626632,2964.04281 45.9626632,2965.13494 L45.9626632,2973.24126 C44.960589,2973.80961 43.165874,2975.68989 44.4415145,2977.60483 C44.9355371,2978.34645 45.716153,2978.894 46.6110053,2978.98411 C48.414739,2979.1653 49.9519209,2977.77316 49.9519209,2976.02951 C49.9519209,2974.73836 48.968886,2973.65019 47.9668118,2973.24126 L47.9668118,2972.86204 L57.9875544,2972.86204 L57.9875544,2973.24126 C56.9854801,2973.80961 55.1907651,2975.68989 56.4664057,2977.60483 C56.9604283,2978.34645 57.7410441,2978.894 58.6358965,2978.98411 C60.4396301,2979.1653 61.9768121,2977.77316 61.9768121,2976.02951 C61.9768121,2974.73836 60.9937772,2973.65019 59.9917029,2973.24126 L59.9917029,2973.05908 L59.9917029,2962.16748 C59.9917029,2961.62092 60.3614683,2960.98029 60.9146133,2960.98029 L62.9187619,2960.98029 C63.4719069,2960.98029 64,2960.63572 64,2960.08916 L64,2960.03965 C64,2959.49309 63.4719069,2959 62.9187619,2959 L59.9415992,2959 L59.9095329,2959 C58.8042449,2959 57.9875544,2960.08223 57.9875544,2961.17436 L57.9875544,2962.96058 L47.8846417,2962.96058 Z" id="cart_play_round-[#1138]"></path>
            </g>
        </g>
    </g>
</svg>