<?xml version="1.0" encoding="UTF-8" standalone="no"?>
<svg width="20px" height="20px" viewBox="0 0 20 20" version="1.1" xmlns="http://www.w3.org/2000/svg" xmlns:xlink="http://www.w3.org/1999/xlink">
    <!-- Generator: Sketch 3.8.1 (29687) - http://www.bohemiancoding.com/sketch -->
    <title>cart [#1167]</title>
    <desc>Created with Sketch.</desc>
    <defs></defs>
    <g id="Page-1" stroke="none" stroke-width="1" fill="none" fill-rule="evenodd">
        <g id="Dribbble-Dark-Preview" transform="translate(-140.000000, -2999.000000)" fill="#FFFFFF">
            <g id="icons" transform="translate(56.000000, 160.000000)">
                <path d="M98.980012,2857 C98.4293424,2857 97.9806116,2856.551 97.9806116,2856 C97.9806116,2855.449 98.4293424,2855 98.980012,2855 C99.5306816,2855 99.9794124,2855.449 99.9794124,2856 C99.9794124,2856.551 99.5306816,2857 98.980012,2857 L98.980012,2857 Z M88.0095942,2851 L98.0035978,2851 L98.0035978,2845 L88.0095942,2845 L88.0095942,2851 Z M86.9872077,2857 C86.4365381,2857 85.9878073,2856.551 85.9878073,2856 C85.9878073,2855.449 86.4365381,2855 86.9872077,2855 C87.5378773,2855 87.986608,2855.449 87.986608,2856 C87.986608,2856.551 87.5378773,2857 86.9872077,2857 L86.9872077,2857 Z M100.002399,2841 L104,2841 L104,2839 L98.0035978,2839 L98.0035978,2843 L86.0107935,2843 L86.0107935,2853.184 C85.0113932,2853.597 84,2854.696 84,2856 C84,2857.657 85.3371977,2859 86.9932041,2859 C88.6492105,2859 89.9994004,2857.657 89.9994004,2856 C89.9994004,2854.696 89.0089946,2853.597 88.0095942,2853.184 L88.0095942,2853 L98.0035978,2853 L98.0035978,2853.184 C97.0041975,2853.597 95.9928043,2854.696 95.9928043,2856 C95.9928043,2857.657 97.330002,2859 98.9860084,2859 C100.642015,2859 101.992205,2857.657 101.992205,2856 C101.992205,2854.696 101.001799,2853.597 100.002399,2853.184 L100.002399,2841 Z" id="cart-[#1167]"></path>
            </g>
        </g>
    </g>
</svg>