<?xml version="1.0" encoding="UTF-8" standalone="no"?>
<svg width="20px" height="20px" viewBox="0 0 20 20" version="1.1" xmlns="http://www.w3.org/2000/svg" xmlns:xlink="http://www.w3.org/1999/xlink">
    <!-- Generator: Sketch 3.8.1 (29687) - http://www.bohemiancoding.com/sketch -->
    <title>cart_empty [#1163]</title>
    <desc>Created with Sketch.</desc>
    <defs></defs>
    <g id="Page-1" stroke="none" stroke-width="1" fill="none" fill-rule="evenodd">
        <g id="Dribbble-Dark-Preview" transform="translate(-300.000000, -2999.000000)" fill="#FFFFFF">
            <g id="icons" transform="translate(56.000000, 160.000000)">
                <path d="M264,2839 L260,2839 L258,2839 L258,2851 L246,2851 L246,2853.184 C244.837,2853.597 244,2854.696 244,2856 C244,2857.657 245.343,2859 247,2859 C248.657,2859 250,2857.657 250,2856 C250,2854.696 249.163,2853.597 248,2853.184 L248,2853 L258,2853 L258,2853.184 C256.837,2853.597 256,2854.696 256,2856 C256,2857.657 257.343,2859 259,2859 C260.657,2859 262,2857.657 262,2856 C262,2854.696 261.163,2853.597 260,2853.184 L260,2841 L264,2841 L264,2839 Z M247,2854.951 L247.33,2855.068 C247.664,2855.187 248,2855.521 248,2856 C248,2856.551 247.551,2857 247,2857 C246.449,2857 246,2856.551 246,2856 C246,2855.521 246.336,2855.187 246.67,2855.068 L247,2854.951 L247,2854.951 Z M259,2854.951 C259.547,2855.145 260,2855.339 260,2856 C260,2856.551 259.551,2857 259,2857 C258.449,2857 258,2856.551 258,2856 C258,2855.339 258.453,2855.145 259,2854.951 L259,2854.951 Z" id="cart_empty-[#1163]"></path>
            </g>
        </g>
    </g>
</svg>