<?xml version="1.0" encoding="UTF-8" standalone="no"?>
<svg width="20px" height="20px" viewBox="0 0 20 20" version="1.1" xmlns="http://www.w3.org/2000/svg" xmlns:xlink="http://www.w3.org/1999/xlink">
    <!-- Generator: Sketch 3.8.1 (29687) - http://www.bohemiancoding.com/sketch -->
    <title>cart_round [#1166]</title>
    <desc>Created with Sketch.</desc>
    <defs></defs>
    <g id="Page-1" stroke="none" stroke-width="1" fill="none" fill-rule="evenodd">
        <g id="Dribbble-Dark-Preview" transform="translate(-180.000000, -2999.000000)" fill="#FFFFFF">
            <g id="icons" transform="translate(56.000000, 160.000000)">
                <path d="M143.000196,2839 L140.000196,2839 L140.000196,2839 C138.895196,2839 138.000196,2839.895 138.000196,2841 L138.000196,2851 L128.000196,2851 L128.000196,2845.998 C128.000196,2845.447 128.447196,2845 128.998196,2845 L133.000196,2845 C133.552196,2845 134.000196,2844.552 134.000196,2844 C134.000196,2843.448 133.552196,2843 133.000196,2843 L128.000196,2843 C126.895196,2843 126.000196,2843.895 126.000196,2845 L126.000196,2853.184 C124.663196,2853.659 123.756196,2855.041 124.058196,2856.6 C124.287196,2857.777 125.257196,2858.734 126.436196,2858.949 C126.627196,2858.983 126.815196,2859 127.000196,2859 C128.657196,2859 130.000196,2857.657 130.000196,2856 C130.000196,2854.696 129.163196,2853.597 128.000196,2853.184 L128.000196,2853 L138.000196,2853 L138.000196,2853.184 C136.663196,2853.659 135.756196,2855.041 136.058196,2856.6 C136.287196,2857.777 137.257196,2858.734 138.436196,2858.949 C138.627196,2858.983 138.815196,2859 139.000196,2859 C140.657196,2859 142.000196,2857.657 142.000196,2856 C142.000196,2854.696 141.163196,2853.597 140.000196,2853.184 L140.000196,2841.998 C140.000196,2841.447 140.447196,2841 140.998196,2841 L143.000196,2841 C143.552196,2841 144.000196,2840.552 144.000196,2840 C144.000196,2839.448 143.552196,2839 143.000196,2839 M127.000196,2854.951 L127.330196,2855.068 C127.664196,2855.187 128.000196,2855.521 128.000196,2856 C128.000196,2856.551 127.551196,2857 127.000196,2857 C126.933196,2857 126.864196,2856.994 126.794196,2856.981 C126.425196,2856.914 126.093196,2856.586 126.022196,2856.219 C125.907196,2855.627 126.277196,2855.208 126.670196,2855.068 L127.000196,2854.951 M139.000196,2854.951 L139.330196,2855.068 C139.664196,2855.187 140.000196,2855.521 140.000196,2856 C140.000196,2856.551 139.551196,2857 139.000196,2857 C138.933196,2857 138.864196,2856.994 138.794196,2856.981 C138.425196,2856.914 138.093196,2856.586 138.022196,2856.219 C137.907196,2855.627 138.277196,2855.208 138.670196,2855.068 L139.000196,2854.951" id="cart_round-[#1166]"></path>
            </g>
        </g>
    </g>
</svg>