<?xml version="1.0" encoding="UTF-8" standalone="no"?>
<svg width="20px" height="20px" viewBox="0 0 20 20" version="1.1" xmlns="http://www.w3.org/2000/svg" xmlns:xlink="http://www.w3.org/1999/xlink">
    <!-- Generator: Sketch 3.8.1 (29687) - http://www.bohemiancoding.com/sketch -->
    <title>cart [#1168]</title>
    <desc>Created with Sketch.</desc>
    <defs></defs>
    <g id="Page-1" stroke="none" stroke-width="1" fill="none" fill-rule="evenodd">
        <g id="Dribbble-Dark-Preview" transform="translate(-100.000000, -2999.000000)" fill="#FFFFFF">
            <g id="icons" transform="translate(56.000000, 160.000000)">
                <path d="M58.980012,2857 C58.4293424,2857 57.9806116,2856.551 57.9806116,2856 C57.9806116,2855.449 58.4293424,2855 58.980012,2855 C59.5306816,2855 59.9794124,2855.449 59.9794124,2856 C59.9794124,2856.551 59.5306816,2857 58.980012,2857 L58.980012,2857 Z M46.9872077,2857 C46.4365381,2857 45.9878073,2856.551 45.9878073,2856 C45.9878073,2855.449 46.4365381,2855 46.9872077,2855 C47.5378773,2855 47.986608,2855.449 47.986608,2856 C47.986608,2856.551 47.5378773,2857 46.9872077,2857 L46.9872077,2857 Z M60.0023986,2841 L64,2841 L64,2839 L58.0035978,2839 L58.0035978,2843 L46.0107935,2843 L46.0107935,2853.184 C45.0113932,2853.597 44,2854.696 44,2856 C44,2857.657 45.3371977,2859 46.9932041,2859 C48.6492105,2859 49.9994004,2857.657 49.9994004,2856 C49.9994004,2854.696 49.0089946,2853.597 48.0095942,2853.184 L48.0095942,2853 L58.0035978,2853 L58.0035978,2853.184 C57.0041975,2853.597 55.9928043,2854.696 55.9928043,2856 C55.9928043,2857.657 57.330002,2859 58.9860084,2859 C60.6420148,2859 61.9922047,2857.657 61.9922047,2856 C61.9922047,2854.696 61.0017989,2853.597 60.0023986,2853.184 L60.0023986,2853 L60.0023986,2841 Z" id="cart-[#1168]"></path>
            </g>
        </g>
    </g>
</svg>