<?xml version="1.0" encoding="UTF-8" standalone="no"?>
<svg width="20px" height="20px" viewBox="0 0 20 20" version="1.1" xmlns="http://www.w3.org/2000/svg" xmlns:xlink="http://www.w3.org/1999/xlink">
    <!-- Generator: Sketch 3.8.1 (29687) - http://www.bohemiancoding.com/sketch -->
    <title>cart_plus_round [#1158]</title>
    <desc>Created with Sketch.</desc>
    <defs></defs>
    <g id="Page-1" stroke="none" stroke-width="1" fill="none" fill-rule="evenodd">
        <g id="Dribbble-Dark-Preview" transform="translate(-100.000000, -3039.000000)" fill="#FFFFFF">
            <g id="icons" transform="translate(56.000000, 160.000000)">
                <path d="M49.0001956,2883 C49.5521956,2883 50.0001956,2883.448 50.0001956,2884 C50.0001956,2884.552 49.5521956,2885 49.0001956,2885 L48.0001956,2885 L48.0001956,2886 C48.0001956,2886.552 47.5521956,2887 47.0001956,2887 C46.4481956,2887 46.0001956,2886.552 46.0001956,2886 L46.0001956,2885 L45.0001956,2885 C44.4481956,2885 44.0001956,2884.552 44.0001956,2884 C44.0001956,2883.448 44.4481956,2883 45.0001956,2883 L46.0001956,2883 L46.0001956,2882 C46.0001956,2881.448 46.4481956,2881 47.0001956,2881 C47.5521956,2881 48.0001956,2881.448 48.0001956,2882 L48.0001956,2883 L49.0001956,2883 Z M59.0001956,2897 C58.4491956,2897 58.0001956,2896.551 58.0001956,2896 C58.0001956,2895.339 58.4531956,2895.145 59.0001956,2894.951 C59.5471956,2895.145 60.0001956,2895.339 60.0001956,2896 C60.0001956,2896.551 59.5511956,2897 59.0001956,2897 L59.0001956,2897 Z M47.0001956,2897 C46.4491956,2897 46.0001956,2896.551 46.0001956,2896 C46.0001956,2895.339 46.4531956,2895.145 47.0001956,2894.951 C47.5471956,2895.145 48.0001956,2895.339 48.0001956,2896 C48.0001956,2896.551 47.5511956,2897 47.0001956,2897 L47.0001956,2897 Z M60.0001956,2882 C60.0001956,2881.448 60.4481956,2881 61.0001956,2881 L63.0001956,2881 C63.5521956,2881 64.0001956,2880.552 64.0001956,2880 C64.0001956,2879.448 63.5521956,2879 63.0001956,2879 L60.0001956,2879 C58.8951956,2879 58.0001956,2879.895 58.0001956,2881 L58.0001956,2891 L48.0001956,2891 C46.8951956,2891 46.0001956,2891.895 46.0001956,2893 L46.0001956,2893.184 C44.6631956,2893.659 43.7561956,2895.041 44.0581956,2896.6 C44.2871956,2897.777 45.2561956,2898.734 46.4361956,2898.948 C48.3411956,2899.295 50.0001956,2897.842 50.0001956,2896 C50.0001956,2894.696 49.1631956,2893.597 48.0001956,2893.184 L48.0001956,2893 L58.0001956,2893 L58.0001956,2893.184 C56.6631956,2893.659 55.7561956,2895.041 56.0581956,2896.6 C56.2871956,2897.777 57.2561956,2898.734 58.4361956,2898.948 C60.3411956,2899.295 62.0001956,2897.842 62.0001956,2896 C62.0001956,2894.696 61.1631956,2893.597 60.0001956,2893.184 L60.0001956,2882 Z" id="cart_plus_round-[#1158]"></path>
            </g>
        </g>
    </g>
</svg>