<?xml version="1.0" encoding="UTF-8" standalone="no"?>
<svg width="20px" height="20px" viewBox="0 0 20 20" version="1.1" xmlns="http://www.w3.org/2000/svg" xmlns:xlink="http://www.w3.org/1999/xlink">
    <!-- Generator: Sketch 3.8.1 (29687) - http://www.bohemiancoding.com/sketch -->
    <title>cart_down_round [#1171]</title>
    <desc>Created with Sketch.</desc>
    <defs></defs>
    <g id="Page-1" stroke="none" stroke-width="1" fill="none" fill-rule="evenodd">
        <g id="Dribbble-Dark-Preview" transform="translate(-380.000000, -2959.000000)" fill="#FFFFFF">
            <g id="icons" transform="translate(56.000000, 160.000000)">
                <path d="M331.822538,2806.783 L332.999538,2807.46 L332.999538,2800.083 C332.999538,2799.531 333.447538,2799.083 333.999538,2799.083 C334.552538,2799.083 334.999538,2799.531 334.999538,2800.083 L334.999538,2807.46 L336.177538,2806.783 C336.755538,2806.451 337.476538,2806.868 337.476538,2807.534 C337.476538,2807.844 337.310538,2808.131 337.041538,2808.286 L334.498538,2809.749 C334.189538,2809.926 333.809538,2809.926 333.501538,2809.749 L330.957538,2808.286 C330.689538,2808.131 330.523538,2807.844 330.523538,2807.534 C330.523538,2806.868 331.244538,2806.451 331.822538,2806.783 M338.999538,2817 C338.448538,2817 337.999538,2816.551 337.999538,2816 C337.999538,2814.678 339.999538,2814.678 339.999538,2816 C339.999538,2816.551 339.551538,2817 338.999538,2817 M326.999538,2817 C326.448538,2817 325.999538,2816.551 325.999538,2816 C325.999538,2814.678 327.999538,2814.678 327.999538,2816 C327.999538,2816.551 327.551538,2817 326.999538,2817 M342.999538,2799 L339.999538,2799 L339.999538,2799 C338.999538,2799 337.999538,2799.661 337.999538,2801.375 L337.999538,2811 L327.999538,2811 L327.999538,2806 C327.999538,2803.995 330.999538,2806.004 330.999538,2804 C330.999538,2803.447 330.552538,2803 329.999538,2803 L327.999538,2803 C326.895538,2803 325.999538,2803.895 325.999538,2805 L325.999538,2813.183 C324.662538,2813.659 323.755538,2815.041 324.058538,2816.599 C324.286538,2817.777 325.256538,2818.734 326.436538,2818.948 C328.341538,2819.295 329.999538,2817.841 329.999538,2816 C329.999538,2814.695 329.162538,2813.597 327.999538,2813.183 L327.999538,2813 L337.999538,2813 L337.999538,2813.183 C336.662538,2813.659 335.755538,2815.041 336.058538,2816.599 C336.286538,2817.777 337.256538,2818.734 338.436538,2818.948 C340.341538,2819.295 341.999538,2817.841 341.999538,2816 C341.999538,2814.695 341.162538,2813.597 339.999538,2813.183 C339.999538,2799.696 339.007538,2801 342.999538,2801 C343.552538,2801 343.999538,2800.552 343.999538,2800 C343.999538,2799.447 343.552538,2799 342.999538,2799" id="cart_down_round-[#1171]"></path>
            </g>
        </g>
    </g>
</svg>