<?xml version="1.0" encoding="UTF-8" standalone="no"?>
<svg width="20px" height="20px" viewBox="0 0 20 20" version="1.1" xmlns="http://www.w3.org/2000/svg" xmlns:xlink="http://www.w3.org/1999/xlink">
    <!-- Generator: Sketch 3.8.1 (29687) - http://www.bohemiancoding.com/sketch -->
    <title>cart_close_round [#1160]</title>
    <desc>Created with Sketch.</desc>
    <defs></defs>
    <g id="Page-1" stroke="none" stroke-width="1" fill="none" fill-rule="evenodd">
        <g id="Dribbble-Dark-Preview" transform="translate(-420.000000, -2999.000000)" fill="#FFFFFF">
            <g id="icons" transform="translate(56.000000, 160.000000)">
                <path d="M369.098509,2844.707 C369.4901,2845.098 369.4901,2845.731 369.098509,2846.121 C368.706918,2846.512 368.072961,2846.512 367.682372,2846.121 L366.974303,2845.414 L366.266235,2846.121 C365.874644,2846.512 365.240687,2846.512 364.849096,2846.121 C364.458506,2845.731 364.458506,2845.098 364.849096,2844.707 L365.557164,2844 L364.849096,2843.293 C364.458506,2842.902 364.458506,2842.269 364.849096,2841.879 C365.240687,2841.488 365.874644,2841.488 366.266235,2841.879 L366.974303,2842.586 L367.682372,2841.879 C368.072961,2841.488 368.706918,2841.488 369.098509,2841.879 C369.4901,2842.269 369.4901,2842.902 369.098509,2843.293 L368.390441,2844 L369.098509,2844.707 Z M378.992442,2857 C377.990931,2857 377.357975,2855.531 378.992442,2854.951 C379.540269,2855.145 379.993954,2855.339 379.993954,2856 C379.993954,2856.551 379.544275,2857 378.992442,2857 L378.992442,2857 Z M366.974303,2857 C366.421469,2857 365.972792,2856.551 365.972792,2856 C365.972792,2855.339 366.425475,2855.145 366.974303,2854.951 C367.52213,2855.145 367.975815,2855.339 367.975815,2856 C367.975815,2856.551 367.526136,2857 366.974303,2857 L366.974303,2857 Z M380.029007,2842 C380.029007,2841.448 380.441629,2841 380.995465,2841 L382.998488,2841 C383.551323,2841 384,2840.552 384,2840 C384,2839.448 383.551323,2839 382.998488,2839 L379.993954,2839 C378.887283,2839 378.025983,2839.895 378.025983,2841 L378.025983,2851 L367.975815,2851 C366.974303,2851 366.007845,2851.727 366.007845,2853.184 C365.006333,2853.659 363.742425,2855.041 364.045883,2856.6 C364.274228,2857.777 365.236681,2858.734 366.417463,2858.948 C368.325342,2859.295 370.000871,2857.841 370.000871,2856 C370.000871,2854.696 369.012379,2853.597 368.010868,2853.184 L368.010868,2853 L378.025983,2853 L378.025983,2853.184 C377.024472,2853.659 375.760564,2855.041 376.064022,2856.6 C376.292367,2857.777 377.25482,2858.734 378.435602,2858.948 C380.343481,2859.295 382.01901,2857.841 382.01901,2856 C382.01901,2854.696 381.030518,2853.597 380.029007,2853.184 L380.029007,2842 Z" id="cart_close_round-[#1160]"></path>
            </g>
        </g>
    </g>
</svg>