<?xml version="1.0" encoding="UTF-8" standalone="no"?>
<svg width="20px" height="20px" viewBox="0 0 20 20" version="1.1" xmlns="http://www.w3.org/2000/svg" xmlns:xlink="http://www.w3.org/1999/xlink">
    <!-- Generator: Sketch 3.8.1 (29687) - http://www.bohemiancoding.com/sketch -->
    <title>cart_round [#1170]</title>
    <desc>Created with Sketch.</desc>
    <defs></defs>
    <g id="Page-1" stroke="none" stroke-width="1" fill="none" fill-rule="evenodd">
        <g id="Dribbble-Dark-Preview" transform="translate(-420.000000, -2959.000000)" fill="#FFFFFF">
            <g id="icons" transform="translate(56.000000, 160.000000)">
                <path d="M379.000196,2817 C378.449196,2817 378.000196,2816.551 378.000196,2816 C378.000196,2814.679 380.000196,2814.678 380.000196,2816 C380.000196,2816.551 379.551196,2817 379.000196,2817 L379.000196,2817 Z M367.000196,2817 C366.449196,2817 366.000196,2816.551 366.000196,2816 C366.000196,2815.449 366.449196,2815 367.000196,2815 C367.551196,2815 368.000196,2815.449 368.000196,2816 C368.000196,2816.551 367.551196,2817 367.000196,2817 L367.000196,2817 Z M368.000196,2803 C366.895196,2803 366.000196,2803.895 366.000196,2805 L366.000196,2813.184 C364.663196,2813.659 363.756196,2815.041 364.058196,2816.6 C364.287196,2817.777 365.257196,2818.734 366.436196,2818.949 C368.341196,2819.295 370.000196,2817.841 370.000196,2816 C370.000196,2814.696 369.163196,2813.597 368.000196,2813.184 L368.000196,2813 L378.000196,2813 L378.000196,2813.184 C376.663196,2813.659 375.756196,2815.041 376.058196,2816.6 C376.287196,2817.777 377.257196,2818.734 378.436196,2818.949 C380.341196,2819.295 382.000196,2817.841 382.000196,2816 C382.000196,2814.696 381.163196,2813.597 380.000196,2813.184 L380.000196,2802 C380.000196,2801.448 380.448196,2801 381.000196,2801 L383.000196,2801 C383.552196,2801 384.000196,2800.552 384.000196,2800 C384.000196,2799.448 383.552196,2799 383.000196,2799 L380.000196,2799 C378.895196,2799 378.000196,2799.895 378.000196,2801 L378.000196,2803 L368.000196,2803 Z" id="cart_round-[#1170]"></path>
            </g>
        </g>
    </g>
</svg>