<?xml version="1.0" encoding="UTF-8" standalone="no"?>
<svg width="20px" height="20px" viewBox="0 0 20 20" version="1.1" xmlns="http://www.w3.org/2000/svg" xmlns:xlink="http://www.w3.org/1999/xlink">
    <!-- Generator: Sketch 3.8.1 (29687) - http://www.bohemiancoding.com/sketch -->
    <title>cart_up_round [#1172]</title>
    <desc>Created with Sketch.</desc>
    <defs></defs>
    <g id="Page-1" stroke="none" stroke-width="1" fill="none" fill-rule="evenodd">
        <g id="Dribbble-Dark-Preview" transform="translate(-340.000000, -2959.000000)" fill="#FFFFFF">
            <g id="icons" transform="translate(56.000000, 160.000000)">
                <path d="M296.177492,2802.182 L295.000492,2801.505 L295.000492,2808.882 C295.000492,2809.434 294.552492,2809.882 294.000492,2809.882 C293.447492,2809.882 293.000492,2809.434 293.000492,2808.882 L293.000492,2801.505 L291.822492,2802.182 C291.244492,2802.514 290.523492,2802.097 290.523492,2801.431 C290.523492,2801.121 290.689492,2800.834 290.958492,2800.679 L293.501492,2799.216 C293.810492,2799.039 294.190492,2799.039 294.498492,2799.216 L297.042492,2800.679 C298.021492,2801.243 297.180492,2802.759 296.177492,2802.182 M299.000492,2817 C298.448492,2817 298.000492,2816.551 298.000492,2816 C298.000492,2814.678 300.000492,2814.678 300.000492,2816 C300.000492,2816.551 299.551492,2817 299.000492,2817 M287.000492,2817 C286.448492,2817 286.000492,2816.551 286.000492,2816 C286.000492,2815.448 286.448492,2815 287.000492,2815 C287.551492,2815 288.000492,2815.448 288.000492,2816 C288.000492,2816.551 287.551492,2817 287.000492,2817 M303.000492,2799 L300.000492,2799 L300.000492,2799 C297.349492,2799 298.000492,2801.578 298.000492,2811 L288.000492,2811 L288.000492,2806 C288.000492,2803.995 291.000492,2806.005 291.000492,2804 C291.000492,2803.447 290.552492,2803 290.000492,2803 L288.000492,2803 C286.895492,2803 286.000492,2803.895 286.000492,2805 L286.000492,2813 L286.000492,2813.183 C284.663492,2813.659 283.755492,2815.041 284.058492,2816.6 C284.287492,2817.777 285.256492,2818.734 286.436492,2818.948 C288.341492,2819.295 290.000492,2817.841 290.000492,2816 C290.000492,2814.695 289.162492,2813.597 288.000492,2813.183 L288.000492,2813 L298.000492,2813 L298.000492,2813.183 C296.663492,2813.659 295.755492,2815.041 296.058492,2816.6 C296.287492,2817.777 297.256492,2818.734 298.436492,2818.948 C300.341492,2819.295 302.000492,2817.841 302.000492,2816 C302.000492,2814.695 301.162492,2813.597 300.000492,2813.183 C300.000492,2799.696 299.008492,2801 303.000492,2801 C303.552492,2801 304.000492,2800.552 304.000492,2800 C304.000492,2799.447 303.552492,2799 303.000492,2799" id="cart_up_round-[#1172]"></path>
            </g>
        </g>
    </g>
</svg>