<?xml version="1.0" encoding="UTF-8" standalone="no"?>
<svg width="20px" height="20px" viewBox="0 0 20 20" version="1.1" xmlns="http://www.w3.org/2000/svg" xmlns:xlink="http://www.w3.org/1999/xlink">
    <!-- Generator: Sketch 3.8.1 (29687) - http://www.bohemiancoding.com/sketch -->
    <title>cart_close [#1159]</title>
    <desc>Created with Sketch.</desc>
    <defs></defs>
    <g id="Page-1" stroke="none" stroke-width="1" fill="none" fill-rule="evenodd">
        <g id="Dribbble-Dark-Preview" transform="translate(-60.000000, -3039.000000)" fill="#FFFFFF">
            <g id="icons" transform="translate(56.000000, 160.000000)">
                <path d="M9.828,2882.586 L8.414,2881.172 L7,2882.586 L5.585,2881.172 L4.171,2882.586 L5.585,2884 L4.171,2885.414 L5.585,2886.829 L7,2885.414 L8.414,2886.829 L9.828,2885.414 L8.414,2884 L9.828,2882.586 Z M24,2879 L18,2879 L18,2891 L6,2891 L6,2893.184 C4.837,2893.597 4,2894.696 4,2896 C4,2897.657 5.343,2899 7,2899 C8.656,2899 10,2897.657 10,2896 C10,2894.696 9.162,2893.597 8,2893.184 L8,2893 L18,2893 L18,2893.184 C16.837,2893.597 16,2894.696 16,2896 C16,2897.657 17.343,2899 19,2899 C20.656,2899 22,2897.657 22,2896 C22,2894.696 21.162,2893.597 20,2893.184 L20,2881 L24,2881 L24,2879 Z M7,2894.951 C7.547,2895.146 8,2895.34 8,2896 C8,2896.552 7.551,2897 7,2897 C6.448,2897 6,2896.552 6,2896 C6,2895.34 6.452,2895.146 7,2894.951 L7,2894.951 Z M19,2894.951 C19.547,2895.146 20,2895.34 20,2896 C20,2896.552 19.551,2897 19,2897 C18.448,2897 18,2896.552 18,2896 C18,2895.34 18.452,2895.146 19,2894.951 L19,2894.951 Z" id="cart_close-[#1159]"></path>
            </g>
        </g>
    </g>
</svg>