<?xml version="1.0" encoding="UTF-8" standalone="no"?>
<svg width="20px" height="20px" viewBox="0 0 20 20" version="1.1" xmlns="http://www.w3.org/2000/svg" xmlns:xlink="http://www.w3.org/1999/xlink">
    <!-- Generator: Sketch 3.8.1 (29687) - http://www.bohemiancoding.com/sketch -->
    <title>cart [#1165]</title>
    <desc>Created with Sketch.</desc>
    <defs></defs>
    <g id="Page-1" stroke="none" stroke-width="1" fill="none" fill-rule="evenodd">
        <g id="Dribbble-Dark-Preview" transform="translate(-220.000000, -2999.000000)" fill="#FFFFFF">
            <g id="icons" transform="translate(56.000000, 160.000000)">
                <path d="M184,2839 L178,2839 L178,2851 L168,2851 L168,2845 L174,2845 L174,2843 L166,2843 L166,2853.184 C164.837,2853.597 164,2854.696 164,2856 C164,2857.657 165.343,2859 167,2859 C168.657,2859 170,2857.657 170,2856 C170,2854.696 169.163,2853.597 168,2853.184 L168,2853 L178,2853 L178,2853.184 C176.837,2853.597 176,2854.696 176,2856 C176,2857.657 177.343,2859 179,2859 C180.657,2859 182,2857.657 182,2856 C182,2854.696 181.163,2853.597 180,2853.184 L180,2841 L184,2841 L184,2839 Z M167,2854.951 L167.33,2855.068 C167.664,2855.187 168,2855.521 168,2856 C168,2856.551 167.551,2857 167,2857 C166.449,2857 166,2856.551 166,2856 C166,2855.521 166.336,2855.187 166.67,2855.068 L167,2854.951 L167,2854.951 Z M179,2854.951 L179.33,2855.068 C179.664,2855.187 180,2855.521 180,2856 C180,2856.551 179.551,2857 179,2857 C178.449,2857 178,2856.551 178,2856 C178,2855.521 178.336,2855.187 178.67,2855.068 L179,2854.951 L179,2854.951 Z" id="cart-[#1165]"></path>
            </g>
        </g>
    </g>
</svg>