<?xml version="1.0" encoding="UTF-8" standalone="no"?>
<svg width="20px" height="20px" viewBox="0 0 20 20" version="1.1" xmlns="http://www.w3.org/2000/svg" xmlns:xlink="http://www.w3.org/1999/xlink">
    <!-- Generator: Sketch 3.8.1 (29687) - http://www.bohemiancoding.com/sketch -->
    <title>cart_fill_round [#1155]</title>
    <desc>Created with Sketch.</desc>
    <defs></defs>
    <g id="Page-1" stroke="none" stroke-width="1" fill="none" fill-rule="evenodd">
        <g id="Dribbble-Dark-Preview" transform="translate(-220.000000, -3039.000000)" fill="#FFFFFF">
            <g id="icons" transform="translate(56.000000, 160.000000)">
                <path d="M174.000196,2886 C174.000196,2886.552 173.552196,2887 173.000196,2887 L169.000196,2887 C168.448196,2887 168.000196,2886.552 168.000196,2886 C168.000196,2885.448 168.448196,2885 169.000196,2885 L173.000196,2885 C173.552196,2885 174.000196,2885.448 174.000196,2886 L174.000196,2886 Z M176.000196,2885 C176.000196,2883.895 175.105196,2883 174.000196,2883 L168.000196,2883 C166.895196,2883 166.000196,2883.895 166.000196,2885 L166.000196,2887 C166.000196,2888.105 166.895196,2889 168.000196,2889 L174.000196,2889 C175.105196,2889 176.000196,2888.105 176.000196,2887 L176.000196,2885 Z M179.000196,2897 C178.449196,2897 178.000196,2896.551 178.000196,2896 C178.000196,2895.339 178.453196,2895.145 179.000196,2894.951 C179.547196,2895.145 180.000196,2895.339 180.000196,2896 C180.000196,2896.551 179.551196,2897 179.000196,2897 L179.000196,2897 Z M167.000196,2897 C166.449196,2897 166.000196,2896.551 166.000196,2896 C166.000196,2895.339 166.453196,2895.145 167.000196,2894.951 C167.547196,2895.145 168.000196,2895.339 168.000196,2896 C168.000196,2896.551 167.551196,2897 167.000196,2897 L167.000196,2897 Z M180.000196,2882.003 C180.000196,2881.449 180.449196,2881 181.003196,2881 L183.000196,2881 C183.552196,2881 184.000196,2880.552 184.000196,2880 C184.000196,2879.448 183.552196,2879 183.000196,2879 L180.000196,2879 C178.895196,2879 178.000196,2879.895 178.000196,2881 L178.000196,2891 L168.000196,2891 C166.895196,2891 166.000196,2891.895 166.000196,2893 L166.000196,2893.184 C164.663196,2893.659 163.756196,2895.041 164.058196,2896.6 C164.287196,2897.777 165.257196,2898.734 166.436196,2898.949 C168.341196,2899.295 170.000196,2897.841 170.000196,2896 C170.000196,2894.696 169.163196,2893.597 168.000196,2893.184 L168.000196,2893 L178.000196,2893 L178.000196,2893.184 C176.663196,2893.659 175.756196,2895.041 176.058196,2896.6 C176.287196,2897.777 177.257196,2898.734 178.436196,2898.949 C180.341196,2899.295 182.000196,2897.841 182.000196,2896 C182.000196,2894.696 181.163196,2893.597 180.000196,2893.184 L180.000196,2882.003 Z" id="cart_fill_round-[#1155]"></path>
            </g>
        </g>
    </g>
</svg>