<?xml version="1.0" encoding="UTF-8" standalone="no"?>
<svg width="20px" height="20px" viewBox="0 0 20 20" version="1.1" xmlns="http://www.w3.org/2000/svg" xmlns:xlink="http://www.w3.org/1999/xlink">
    <!-- Generator: Sketch 3.8.1 (29687) - http://www.bohemiancoding.com/sketch -->
    <title>cart_plus [#1157]</title>
    <desc>Created with Sketch.</desc>
    <defs></defs>
    <g id="Page-1" stroke="none" stroke-width="1" fill="none" fill-rule="evenodd">
        <g id="Dribbble-Dark-Preview" transform="translate(-140.000000, -3039.000000)" fill="#FFFFFF">
            <g id="icons" transform="translate(56.000000, 160.000000)">
                <path d="M88,2881 L86,2881 L86,2883 L84,2883 L84,2885 L86,2885 L86,2887 L88,2887 L88,2885 L90,2885 L90,2883 L88,2883 L88,2881 Z M104,2879 L98,2879 L98,2891 L86,2891 L86,2893.184 C84.837,2893.597 84,2894.696 84,2896 C84,2897.657 85.343,2899 87,2899 C88.657,2899 90,2897.657 90,2896 C90,2894.696 89.163,2893.597 88,2893.184 L88,2893 L98,2893 L98,2893.184 C96.837,2893.597 96,2894.696 96,2896 C96,2897.657 97.343,2899 99,2899 C100.657,2899 102,2897.657 102,2896 C102,2894.696 101.163,2893.597 100,2893.184 L100,2881 L104,2881 L104,2879 Z M87,2894.951 C87.547,2895.145 88,2895.339 88,2896 C88,2896.551 87.551,2897 87,2897 C86.449,2897 86,2896.551 86,2896 C86,2895.339 86.453,2895.145 87,2894.951 L87,2894.951 Z M99,2894.951 C99.547,2895.145 100,2895.339 100,2896 C100,2896.551 99.551,2897 99,2897 C98.449,2897 98,2896.551 98,2896 C98,2895.339 98.453,2895.145 99,2894.951 L99,2894.951 Z" id="cart_plus-[#1157]"></path>
            </g>
        </g>
    </g>
</svg>