<?xml version="1.0" encoding="UTF-8" standalone="no"?>
<svg width="20px" height="20px" viewBox="0 0 20 20" version="1.1" xmlns="http://www.w3.org/2000/svg" xmlns:xlink="http://www.w3.org/1999/xlink">
    <!-- Generator: Sketch 3.8.1 (29687) - http://www.bohemiancoding.com/sketch -->
    <title>cart_fill [#1153]</title>
    <desc>Created with Sketch.</desc>
    <defs></defs>
    <g id="Page-1" stroke="none" stroke-width="1" fill="none" fill-rule="evenodd">
        <g id="Dribbble-Dark-Preview" transform="translate(-300.000000, -3039.000000)" fill="#FFFFFF">
            <g id="icons" transform="translate(56.000000, 160.000000)">
                <path d="M246,2889 L256,2889 L256,2883 L246,2883 L246,2889 Z M248,2887 L254,2887 L254,2885 L248,2885 L248,2887 Z M264,2879 L258,2879 L258,2891 L246,2891 L246,2893 L246,2893.184 C244.837,2893.597 244,2894.696 244,2896 C244,2897.657 245.343,2899 247,2899 C248.657,2899 250,2897.657 250,2896 C250,2894.696 249.163,2893.597 248,2893.184 L248,2893 L258,2893 L258,2893.184 C256.837,2893.597 256,2894.696 256,2896 C256,2897.657 257.343,2899 259,2899 C260.657,2899 262,2897.657 262,2896 C262,2894.696 261.163,2893.597 260,2893.184 L260,2881 L264,2881 L264,2879 Z M247,2894.951 C247.547,2895.145 248,2895.339 248,2896 C248,2896.551 247.551,2897 247,2897 C246.449,2897 246,2896.551 246,2896 C246,2895.339 246.453,2895.145 247,2894.951 L247,2894.951 Z M259,2894.951 C259.547,2895.145 260,2895.339 260,2896 C260,2896.551 259.551,2897 259,2897 C258.449,2897 258,2896.551 258,2896 C258,2895.339 258.453,2895.145 259,2894.951 L259,2894.951 Z" id="cart_fill-[#1153]"></path>
            </g>
        </g>
    </g>
</svg>