<?xml version="1.0" encoding="UTF-8" standalone="no"?>
<svg width="20px" height="20px" viewBox="0 0 20 20" version="1.1" xmlns="http://www.w3.org/2000/svg" xmlns:xlink="http://www.w3.org/1999/xlink">
    <!-- Generator: Sketch 3.8.1 (29687) - http://www.bohemiancoding.com/sketch -->
    <title>cart_fill [#1154]</title>
    <desc>Created with Sketch.</desc>
    <defs></defs>
    <g id="Page-1" stroke="none" stroke-width="1" fill="none" fill-rule="evenodd">
        <g id="Dribbble-Dark-Preview" transform="translate(-260.000000, -3039.000000)" fill="#FFFFFF">
            <g id="icons" transform="translate(56.000000, 160.000000)">
                <path d="M206,2889 L216,2889 L216,2883 L206,2883 L206,2889 Z M224,2879 L218,2879 L218,2891 L206,2891 L206,2893.184 C204.837,2893.597 204,2894.696 204,2896 C204,2897.657 205.343,2899 207,2899 C208.657,2899 210,2897.657 210,2896 C210,2894.696 209.163,2893.597 208,2893.184 L208,2893 L218,2893 L218,2893.184 C216.837,2893.597 216,2894.696 216,2896 C216,2897.657 217.343,2899 219,2899 C220.657,2899 222,2897.657 222,2896 C222,2894.696 221.163,2893.597 220,2893.184 L220,2881 L224,2881 L224,2879 Z M207,2894.951 C207.547,2895.145 208,2895.339 208,2896 C208,2896.551 207.551,2897 207,2897 C206.449,2897 206,2896.551 206,2896 C206,2895.339 206.453,2895.145 207,2894.951 L207,2894.951 Z M219,2894.951 C219.547,2895.145 220,2895.339 220,2896 C220,2896.551 219.551,2897 219,2897 C218.449,2897 218,2896.551 218,2896 C218,2895.339 218.453,2895.145 219,2894.951 L219,2894.951 Z" id="cart_fill-[#1154]"></path>
            </g>
        </g>
    </g>
</svg>