<?xml version="1.0" encoding="UTF-8" standalone="no"?>
<svg width="20px" height="20px" viewBox="0 0 20 20" version="1.1" xmlns="http://www.w3.org/2000/svg" xmlns:xlink="http://www.w3.org/1999/xlink">
    <!-- Generator: Sketch 3.8.1 (29687) - http://www.bohemiancoding.com/sketch -->
    <title>cc [#937]</title>
    <desc>Created with Sketch.</desc>
    <defs></defs>
    <g id="Page-1" stroke="none" stroke-width="1" fill="none" fill-rule="evenodd">
        <g id="Dribbble-Dark-Preview" transform="translate(-180.000000, -4039.000000)" fill="#FFFFFF">
            <g id="icons" transform="translate(56.000000, 160.000000)">
                <path d="M140,3893 L135,3893 L135,3885 L140,3885 L140,3887 L137,3887 L137,3891 L140,3891 L140,3893 Z M133,3893 L128,3893 L128,3885 L133,3885 L133,3887 L130,3887 L130,3891 L133,3891 L133,3893 Z M126,3897 L142,3897 L142,3881 L126,3881 L126,3897 Z M124,3899 L144,3899 L144,3879 L124,3879 L124,3899 Z" id="cc-[#937]"></path>
            </g>
        </g>
    </g>
</svg>