<?xml version="1.0" encoding="UTF-8" standalone="no"?>
<svg width="20px" height="20px" viewBox="0 0 20 20" version="1.1" xmlns="http://www.w3.org/2000/svg" xmlns:xlink="http://www.w3.org/1999/xlink">
    <!-- Generator: Sketch 3.8.1 (29687) - http://www.bohemiancoding.com/sketch -->
    <title>celcius [#1220]</title>
    <desc>Created with Sketch.</desc>
    <defs></defs>
    <g id="Page-1" stroke="none" stroke-width="1" fill="none" fill-rule="evenodd">
        <g id="Dribbble-Dark-Preview" transform="translate(-140.000000, -2719.000000)" fill="#FFFFFF">
            <g id="icons" transform="translate(56.000000, 160.000000)">
                <path d="M104,2578 C104,2578.552 103.551417,2579 102.998698,2579 L94,2579 C92.8945629,2579 92.0104135,2578.104 92.0104135,2577 L92.0104135,2561 C92.0104135,2559.895 92.8945629,2559 94,2559 L102.998698,2559 C103.551417,2559 104,2559.448 104,2560 C104,2560.552 103.551417,2561 102.998698,2561 L94.9882848,2561 C94.4355662,2561 94.0130169,2561.448 94.0130169,2562 L94.0130169,2576 C94.0130169,2576.552 94.4355662,2577 94.9882848,2577 L102.998698,2577 C103.551417,2577 104,2577.448 104,2578 M86.9778712,2563 C86.4251527,2563 85.9765695,2562.552 85.9765695,2562 C85.9765695,2561.448 86.4251527,2561 86.9778712,2561 C87.5305898,2561 87.9791729,2561.448 87.9791729,2562 C87.9791729,2562.552 87.5305898,2563 86.9778712,2563 M88.0052068,2559 L86.0026034,2559 C84.8971663,2559 84,2559.895 84,2561 L84,2563 C84,2564.104 84.8971663,2565 86.0026034,2565 L88.0052068,2565 C89.1116451,2565 90.0078102,2564.104 90.0078102,2563 L90.0078102,2561 C90.0078102,2559.895 89.1116451,2559 88.0052068,2559" id="celcius-[#1220]"></path>
            </g>
        </g>
    </g>
</svg>