<?xml version="1.0" encoding="UTF-8" standalone="no"?>
<svg width="20px" height="20px" viewBox="0 0 20 20" version="1.1" xmlns="http://www.w3.org/2000/svg" xmlns:xlink="http://www.w3.org/1999/xlink">
    <!-- Generator: Sketch 3.8.1 (29687) - http://www.bohemiancoding.com/sketch -->
    <title>celsius [#1221]</title>
    <desc>Created with Sketch.</desc>
    <defs></defs>
    <g id="Page-1" stroke="none" stroke-width="1" fill="none" fill-rule="evenodd">
        <g id="Dribbble-Dark-Preview" transform="translate(-100.000000, -2719.000000)" fill="#FFFFFF">
            <g id="icons" transform="translate(56.000000, 160.000000)">
                <path d="M64,2578 C64,2578.552 63.552,2579 63,2579 L62,2579 C56.477,2579 52,2574.523 52,2569 C52,2563.477 56.477,2559 62,2559 L63,2559 C63.552,2559 64,2559.448 64,2560 C64,2560.552 63.552,2561 63,2561 L62,2561 C57.582,2561 54,2564.582 54,2569 C54,2573.418 57.582,2577 62,2577 L63,2577 C63.552,2577 64,2577.448 64,2578 M47,2563 C46.448,2563 46,2562.552 46,2562 C46,2561.448 46.448,2561 47,2561 C47.552,2561 48,2561.448 48,2562 C48,2562.552 47.552,2563 47,2563 M48,2559 L46,2559 C44.895,2559 44,2559.895 44,2561 L44,2563 C44,2564.104 44.895,2565 46,2565 L48,2565 C49.105,2565 50,2564.104 50,2563 L50,2561 C50,2559.895 49.105,2559 48,2559" id="celsius-[#1221]"></path>
            </g>
        </g>
    </g>
</svg>