<?xml version="1.0" encoding="UTF-8" standalone="no"?>
<svg width="20px" height="20px" viewBox="0 0 20 20" version="1.1" xmlns="http://www.w3.org/2000/svg" xmlns:xlink="http://www.w3.org/1999/xlink">
    <!-- Generator: Sketch 3.8.1 (29687) - http://www.bohemiancoding.com/sketch -->
    <title>center_object [#885]</title>
    <desc>Created with Sketch.</desc>
    <defs></defs>
    <g id="Page-1" stroke="none" stroke-width="1" fill="none" fill-rule="evenodd">
        <g id="Dribbble-Dark-Preview" transform="translate(-260.000000, -4279.000000)" fill="#FFFFFF">
            <g id="icons" transform="translate(56.000000, 160.000000)">
                <path d="M210,4137 L218,4137 L218,4121 L210,4121 L210,4137 Z M218.042,4119 L220,4119 L220,4121 L220,4137 L220,4139 L218.042,4139 L210,4139 L208.042,4139 L208,4139 L208,4119 L208.042,4119 L210,4119 L218.042,4119 Z M222,4135 L224,4135 L224,4123 L222,4123 L222,4135 Z M204,4135 L206,4135 L206,4123 L204,4123 L204,4135 Z" id="center_object-[#885]"></path>
            </g>
        </g>
    </g>
</svg>