<?xml version="1.0" encoding="UTF-8" standalone="no"?>
<svg width="20px" height="20px" viewBox="0 0 20 20" version="1.1" xmlns="http://www.w3.org/2000/svg" xmlns:xlink="http://www.w3.org/1999/xlink">
    <!-- Generator: Sketch 3.8.1 (29687) - http://www.bohemiancoding.com/sketch -->
    <title>center_object_round [#882]</title>
    <desc>Created with Sketch.</desc>
    <defs></defs>
    <g id="Page-1" stroke="none" stroke-width="1" fill="none" fill-rule="evenodd">
        <g id="Dribbble-Dark-Preview" transform="translate(-380.000000, -4279.000000)" fill="#FFFFFF">
            <g id="icons" transform="translate(56.000000, 160.000000)">
                <path d="M338,4121.9967 C338,4121.4467 337.554,4120.9997 337.003,4120.9997 L330.997,4120.9997 C330.446,4120.9997 330,4121.4467 330,4121.9967 L330,4136.0037 C330,4136.5537 330.446,4136.9997 330.997,4136.9997 L337.003,4136.9997 C337.554,4136.9997 338,4136.5537 338,4136.0037 L338,4121.9967 Z M340,4136.9957 C340,4138.1027 339.103,4138.9997 337.996,4138.9997 L330.004,4138.9997 C328.897,4138.9997 328,4138.1027 328,4136.9957 L328,4121.0037 C328,4119.8977 328.897,4118.9997 330.004,4118.9997 L337.996,4118.9997 C339.103,4118.9997 340,4119.8977 340,4121.0037 L340,4136.9957 Z M344,4123.9997 C344,4123.4477 343.552,4122.9997 343,4122.9997 C342.448,4122.9997 342,4123.4477 342,4123.9997 L342,4133.9997 C342,4134.5527 342.448,4134.9997 343,4134.9997 C343.552,4134.9997 344,4134.5527 344,4133.9997 L344,4123.9997 Z M326,4133.9997 C326,4134.5527 325.552,4134.9997 325,4134.9997 C324.448,4134.9997 324,4134.5527 324,4133.9997 L324,4123.9997 C324,4123.4477 324.448,4122.9997 325,4122.9997 C325.552,4122.9997 326,4123.4477 326,4123.9997 L326,4133.9997 Z" id="center_object_round-[#882]"></path>
            </g>
        </g>
    </g>
</svg>