<?xml version="1.0" encoding="UTF-8" standalone="no"?>
<svg width="20px" height="20px" viewBox="0 0 20 20" version="1.1" xmlns="http://www.w3.org/2000/svg" xmlns:xlink="http://www.w3.org/1999/xlink">
    <!-- Generator: Sketch 3.8.1 (29687) - http://www.bohemiancoding.com/sketch -->
    <title>center_object_round [#887]</title>
    <desc>Created with Sketch.</desc>
    <defs></defs>
    <g id="Page-1" stroke="none" stroke-width="1" fill="none" fill-rule="evenodd">
        <g id="Dribbble-Dark-Preview" transform="translate(-180.000000, -4279.000000)" fill="#FFFFFF">
            <g id="icons" transform="translate(56.000000, 160.000000)">
                <path d="M140,4121.0042 L140,4136.9962 C140,4138.1032 139.103,4139.0002 137.996,4139.0002 L130.004,4139.0002 C128.897,4139.0002 128,4138.1032 128,4136.9962 L128,4121.0042 C128,4119.8972 128.897,4119.0002 130.004,4119.0002 L137.996,4119.0002 C139.103,4119.0002 140,4119.8972 140,4121.0042 M143,4123.0002 C142.448,4123.0002 142,4123.4482 142,4124.0002 L142,4134.0002 C142,4134.5522 142.448,4135.0002 143,4135.0002 C143.552,4135.0002 144,4134.5522 144,4134.0002 L144,4124.0002 C144,4123.4482 143.552,4123.0002 143,4123.0002 M126,4124.0002 L126,4134.0002 C126,4134.5522 125.552,4135.0002 125,4135.0002 C124.448,4135.0002 124,4134.5522 124,4134.0002 L124,4124.0002 C124,4123.4482 124.448,4123.0002 125,4123.0002 C125.552,4123.0002 126,4123.4482 126,4124.0002" id="center_object_round-[#887]"></path>
            </g>
        </g>
    </g>
</svg>