<?xml version="1.0" encoding="UTF-8" standalone="no"?>
<svg width="20px" height="20px" viewBox="0 0 20 20" version="1.1" xmlns="http://www.w3.org/2000/svg" xmlns:xlink="http://www.w3.org/1999/xlink">
    <!-- Generator: Sketch 3.8.1 (29687) - http://www.bohemiancoding.com/sketch -->
    <title>center [#813]</title>
    <desc>Created with Sketch.</desc>
    <defs></defs>
    <g id="Page-1" stroke="none" stroke-width="1" fill="none" fill-rule="evenodd">
        <g id="Dribbble-Dark-Preview" transform="translate(-340.000000, -4559.000000)" fill="#FFFFFF">
            <g id="icons" transform="translate(56.000000, 160.000000)">
                <path d="M286.069,4410 L289,4410 L289,4408 L286.069,4408 C286.252,4406.542 286.828,4405.208 287.688,4404.102 L289.757,4406.172 L291.171,4404.757 L289.102,4402.688 C290.208,4401.828 292,4401.252 293,4401.069 L293,4404 L295,4404 L295,4401.069 C296,4401.252 297.791,4401.828 298.897,4402.688 L296.828,4404.757 L298.242,4406.172 L300.311,4404.102 C301.171,4405.208 301.747,4406.542 301.93,4408 L299,4408 L299,4410 L301.93,4410 C301.747,4411.458 301.171,4412.792 300.311,4413.898 L298.242,4411.828 L296.828,4413.243 L298.897,4415.312 C297.791,4416.172 296,4416.748 295,4416.931 L295,4414 L293,4414 L293,4416.931 C292,4416.748 290.208,4416.172 289.102,4415.312 L291.171,4413.243 L289.757,4411.828 L287.688,4413.898 C286.828,4412.792 286.252,4411.458 286.069,4410 M294,4399 C288.477,4399 284,4403.477 284,4409 C284,4414.523 288.477,4419 294,4419 C299.522,4419 304,4414.523 304,4409 C304,4403.477 299.522,4399 294,4399" id="center-[#813]"></path>
            </g>
        </g>
    </g>
</svg>