<?xml version="1.0" encoding="UTF-8" standalone="no"?>
<svg width="20px" height="20px" viewBox="0 0 20 20" version="1.1" xmlns="http://www.w3.org/2000/svg" xmlns:xlink="http://www.w3.org/1999/xlink">
    <!-- Generator: Sketch 3.8.1 (29687) - http://www.bohemiancoding.com/sketch -->
    <title>center_object [#884]</title>
    <desc>Created with Sketch.</desc>
    <defs></defs>
    <g id="Page-1" stroke="none" stroke-width="1" fill="none" fill-rule="evenodd">
        <g id="Dribbble-Dark-Preview" transform="translate(-300.000000, -4279.000000)" fill="#FFFFFF">
            <g id="icons" transform="translate(56.000000, 160.000000)">
                <path d="M250,4129 L258,4129 L258,4121 L250,4121 L250,4129 Z M258,4119 L260,4119 L260,4121 L260,4129 L260,4137 L260,4139 L258,4139 L249.958,4139 L248,4139 L248,4119 L249.958,4119 L258,4119 Z M262,4135 L264,4135 L264,4123 L262,4123 L262,4135 Z M244,4135 L246,4135 L246,4123 L244,4123 L244,4135 Z" id="center_object-[#884]"></path>
            </g>
        </g>
    </g>
</svg>