<?xml version="1.0" encoding="UTF-8" standalone="no"?>
<svg width="20px" height="20px" viewBox="0 0 20 20" version="1.1" xmlns="http://www.w3.org/2000/svg" xmlns:xlink="http://www.w3.org/1999/xlink">
    <!-- Generator: Sketch 3.8.1 (29687) - http://www.bohemiancoding.com/sketch -->
    <title>center_object_round [#886]</title>
    <desc>Created with Sketch.</desc>
    <defs></defs>
    <g id="Page-1" stroke="none" stroke-width="1" fill="none" fill-rule="evenodd">
        <g id="Dribbble-Dark-Preview" transform="translate(-220.000000, -4279.000000)" fill="#FFFFFF">
            <g id="icons" transform="translate(56.000000, 160.000000)">
                <path d="M170,4121.9968 L170,4128.9998 L178,4128.9998 L178,4121.9968 C178,4121.4458 177.554,4120.9998 177.003,4120.9998 L170.997,4120.9998 C170.446,4120.9998 170,4121.4458 170,4121.9968 M180,4121.0038 L180,4136.9958 C180,4138.1028 179.103,4138.9998 177.996,4138.9998 L170.004,4138.9998 C168.897,4138.9998 168,4138.1028 168,4136.9958 L168,4121.0038 C168,4119.8978 168.897,4118.9998 170.004,4118.9998 L177.996,4118.9998 C179.103,4118.9998 180,4119.8978 180,4121.0038 M183,4122.9998 C182.448,4122.9998 182,4123.4478 182,4123.9998 L182,4133.9998 C182,4134.5528 182.448,4134.9998 183,4134.9998 C183.552,4134.9998 184,4134.5528 184,4133.9998 L184,4123.9998 C184,4123.4478 183.552,4122.9998 183,4122.9998 M166,4123.9998 L166,4133.9998 C166,4134.5528 165.552,4134.9998 165,4134.9998 C164.448,4134.9998 164,4134.5528 164,4133.9998 L164,4123.9998 C164,4123.4478 164.448,4122.9998 165,4122.9998 C165.552,4122.9998 166,4123.4478 166,4123.9998" id="center_object_round-[#886]"></path>
            </g>
        </g>
    </g>
</svg>