<?xml version="1.0" encoding="UTF-8" standalone="no"?>
<svg width="18px" height="18px" viewBox="0 0 18 18" version="1.1" xmlns="http://www.w3.org/2000/svg" xmlns:xlink="http://www.w3.org/1999/xlink">
    <!-- Generator: Sketch 3.8.1 (29687) - http://www.bohemiancoding.com/sketch -->
    <title>chart [#1293]</title>
    <desc>Created with Sketch.</desc>
    <defs></defs>
    <g id="Page-1" stroke="none" stroke-width="1" fill="none" fill-rule="evenodd">
        <g id="Dribbble-Dark-Preview" transform="translate(-421.000000, -2400.000000)" fill="#FFFFFF">
            <g id="icons" transform="translate(56.000000, 160.000000)">
                <path d="M377.000123,2242.17179 C378.702123,2242.77601 380.054123,2244.29856 380.657123,2246.00218 L377.000123,2246.00218 L377.000123,2242.17179 Z M377.000123,2248.00291 L383.000123,2248.00291 C383.000123,2243.5823 379.418123,2240 375.000123,2240 L375.000123,2246.00218 C375.000123,2247.10658 375.895123,2248.00291 377.000123,2248.00291 L377.000123,2248.00291 Z M371.776123,2255.88577 C369.444123,2255.43261 367.573123,2253.56093 367.119123,2251.22708 C366.360123,2247.31466 369.373123,2244.74673 371.000123,2244.17152 L371.000123,2248.00291 C371.000123,2250.20871 372.794123,2252.00436 375.000123,2252.00436 L378.657123,2252.00436 C377.803123,2254.07612 375.241123,2256.55902 371.776123,2255.88577 L371.776123,2255.88577 Z M373.000123,2248.00291 L373.000123,2242.00073 C368.057123,2242.00073 364.161123,2246.48536 365.156123,2251.60922 C365.762123,2254.72935 368.276123,2257.24327 371.395123,2257.84949 C376.749123,2258.89087 381.000123,2254.34021 381.000123,2250.00364 L375.000123,2250.00364 C373.895123,2250.00364 373.000123,2249.10731 373.000123,2248.00291 L373.000123,2248.00291 Z" id="chart-[#1293]"></path>
            </g>
        </g>
    </g>
</svg>