<?xml version="1.0" encoding="UTF-8" standalone="no"?>
<svg width="20px" height="20px" viewBox="0 0 20 20" version="1.1" xmlns="http://www.w3.org/2000/svg" xmlns:xlink="http://www.w3.org/1999/xlink">
    <!-- Generator: Sketch 3.8.1 (29687) - http://www.bohemiancoding.com/sketch -->
    <title>charger_round [#697]</title>
    <desc>Created with Sketch.</desc>
    <defs></defs>
    <g id="Page-1" stroke="none" stroke-width="1" fill="none" fill-rule="evenodd">
        <g id="Dribbble-Dark-Preview" transform="translate(-100.000000, -5119.000000)" fill="#FFFFFF">
            <g id="icons" transform="translate(56.000000, 160.000000)">
                <path d="M59.969,4967.056 C59.969,4970.196 57.543,4972.747 54.468,4973 L53.467,4973 C50.393,4972.747 47.969,4970.211 47.969,4967.072 C47.969,4967.031 47.974,4967 47.975,4967 L59.963,4967 C59.963,4967 59.969,4967.016 59.969,4967.056 M63,4965 L58,4965 L58,4960 C58,4959.447 57.553,4959 57,4959 C56.448,4959 56,4959.447 56,4960 L56,4965 L52,4965 L52,4960 C52,4959.447 51.553,4959 51,4959 C50.448,4959 50,4959.447 50,4960 L50,4965 L45,4965 C44.448,4965 44,4965.447 44,4966 C44,4966.552 44.448,4967 45,4967 L45.975,4967 C45.974,4967 45.985,4967.016 45.985,4967.056 C45.985,4971.135 49,4974.467 53,4974.956 L53,4979 L55,4979 L55,4974.956 C59,4974.469 61.985,4971.151 61.985,4967.072 C61.985,4967.031 61.964,4967 61.964,4967 L63,4967 C63.553,4967 64,4966.552 64,4966 C64,4965.447 63.553,4965 63,4965" id="charger_round-[#697]"></path>
            </g>
        </g>
    </g>
</svg>