<?xml version="1.0" encoding="UTF-8" standalone="no"?>
<svg width="16px" height="20px" viewBox="0 0 16 20" version="1.1" xmlns="http://www.w3.org/2000/svg" xmlns:xlink="http://www.w3.org/1999/xlink">
    <!-- Generator: Sketch 3.8.1 (29687) - http://www.bohemiancoding.com/sketch -->
    <title>charger [#673]</title>
    <desc>Created with Sketch.</desc>
    <defs></defs>
    <g id="Page-1" stroke="none" stroke-width="1" fill="none" fill-rule="evenodd">
        <g id="Dribbble-Dark-Preview" transform="translate(-262.000000, -5199.000000)" fill="#FFFFFF">
            <g id="icons" transform="translate(56.000000, 160.000000)">
                <path d="M210,5053 L210,5047 C210,5044.334 212,5043 213.999,5043 L214.001,5043 C216,5043 218,5044.334 218,5047 L218,5053 L210,5053 Z M220,5053 L220,5047 C220,5043.447 217.632,5041.475 215,5041.079 L215,5039 L213,5039 L213,5041.079 C210.368,5041.475 208,5043.447 208,5047 L208,5053 L207,5053 C206.448,5053 206,5053.448 206,5054 L206,5054 C206,5054.552 206.448,5055 207,5055 L211,5055 L211,5058 C211,5058.552 211.448,5059 212,5059 C212.552,5059 213,5058.552 213,5058 L213,5055 L215,5055 L215,5058 C215,5058.552 215.448,5059 216,5059 C216.552,5059 217,5058.552 217,5058 L217,5055 L221,5055 C221.552,5055 222,5054.552 222,5054 L222,5054 C222,5053.448 221.552,5053 221,5053 L220,5053 Z" id="charger-[#673]"></path>
            </g>
        </g>
    </g>
</svg>