<?xml version="1.0" encoding="UTF-8" standalone="no"?>
<svg width="16px" height="20px" viewBox="0 0 16 20" version="1.1" xmlns="http://www.w3.org/2000/svg" xmlns:xlink="http://www.w3.org/1999/xlink">
    <!-- Generator: Sketch 3.8.1 (29687) - http://www.bohemiancoding.com/sketch -->
    <title>charger_round [#672]</title>
    <desc>Created with Sketch.</desc>
    <defs></defs>
    <g id="Page-1" stroke="none" stroke-width="1" fill="none" fill-rule="evenodd">
        <g id="Dribbble-Dark-Preview" transform="translate(-302.000000, -5199.000000)" fill="#FFFFFF">
            <g id="icons" transform="translate(56.000000, 160.000000)">
                <path d="M250,5053 L250,5047 C250,5044.334 252.08,5043 254.08,5043 L254.081,5043 C256.081,5043 258,5044.334 258,5047 L258,5053 L250,5053 Z M260,5053 L260,5047 C260,5043.447 258,5041.475 255,5041.079 L255,5039 L253,5039 L253,5041.079 C250,5041.475 248,5043.447 248,5047 L248,5053 L246,5053 L246,5055 L251,5055 L251,5059 L253,5059 L253,5055 L255,5055 L255,5059 L257,5059 L257,5055 L262,5055 L262,5053 L260,5053 Z" id="charger_round-[#672]"></path>
            </g>
        </g>
    </g>
</svg>