<?xml version="1.0" encoding="UTF-8" standalone="no"?>
<svg width="20px" height="20px" viewBox="0 0 20 20" version="1.1" xmlns="http://www.w3.org/2000/svg" xmlns:xlink="http://www.w3.org/1999/xlink">
    <!-- Generator: Sketch 3.8.1 (29687) - http://www.bohemiancoding.com/sketch -->
    <title>charger [#696]</title>
    <desc>Created with Sketch.</desc>
    <defs></defs>
    <g id="Page-1" stroke="none" stroke-width="1" fill="none" fill-rule="evenodd">
        <g id="Dribbble-Dark-Preview" transform="translate(-140.000000, -5119.000000)" fill="#FFFFFF">
            <g id="icons" transform="translate(56.000000, 160.000000)">
                <path d="M99.841,4967.056 C99.841,4970.196 97.415,4972.747 94.34,4973 L93.339,4973 C90.265,4972.747 87.841,4970.211 87.841,4967.072 C87.841,4967.031 87.846,4967 87.847,4967 L99.835,4967 C99.835,4967 99.841,4967.016 99.841,4967.056 L99.841,4967.056 Z M104,4965 L98,4965 L98,4959 L96,4959 L96,4965 L92,4965 L92,4959 L90,4959 L90,4965 L84,4965 L84,4967 L85.847,4967 C85.846,4967 85.921,4967.016 85.921,4967.056 C85.921,4971.135 89,4974.467 93,4974.956 L93,4979 L95,4979 L95,4974.956 C99,4974.469 101.921,4971.151 101.921,4967.072 C101.921,4967.031 101.836,4967 101.836,4967 L104,4967 L104,4965 Z" id="charger-[#696]"></path>
            </g>
        </g>
    </g>
</svg>