<?xml version="1.0" encoding="UTF-8" standalone="no"?>
<svg width="20px" height="20px" viewBox="0 0 20 20" version="1.1" xmlns="http://www.w3.org/2000/svg" xmlns:xlink="http://www.w3.org/1999/xlink">
    <!-- Generator: Sketch 3.8.1 (29687) - http://www.bohemiancoding.com/sketch -->
    <title>chess [#1217]</title>
    <desc>Created with Sketch.</desc>
    <defs></defs>
    <g id="Page-1" stroke="none" stroke-width="1" fill="none" fill-rule="evenodd">
        <g id="Dribbble-Dark-Preview" transform="translate(-260.000000, -2719.000000)" fill="#FFFFFF">
            <g id="icons" transform="translate(56.000000, 160.000000)">
                <path d="M214,2573 L218,2573 L218,2569 L214,2569 L214,2573 Z M210,2569 L214,2569 L214,2565 L210,2565 L210,2569 Z M222,2565 L218,2565 L218,2569 L222,2569 L222,2573 L218,2573 L218,2577 L214,2577 L214,2573 L210,2573 L210,2577 L206,2577 L206,2573 L210,2573 L210,2569 L206,2569 L206,2565 L210,2565 L210,2561 L214,2561 L214,2565 L218,2565 L218,2561 L222,2561 L222,2565 Z M204,2579 L224,2579 L224,2559 L204,2559 L204,2579 Z" id="chess-[#1217]"></path>
            </g>
        </g>
    </g>
</svg>