<?xml version="1.0" encoding="UTF-8" standalone="no"?>
<svg width="20px" height="20px" viewBox="0 0 20 20" version="1.1" xmlns="http://www.w3.org/2000/svg" xmlns:xlink="http://www.w3.org/1999/xlink">
    <!-- Generator: Sketch 3.8.1 (29687) - http://www.bohemiancoding.com/sketch -->
    <title>chrome_cast [#1047]</title>
    <desc>Created with Sketch.</desc>
    <defs></defs>
    <g id="Page-1" stroke="none" stroke-width="1" fill="none" fill-rule="evenodd">
        <g id="Dribbble-Dark-Preview" transform="translate(-100.000000, -3559.000000)" fill="#FFFFFF">
            <g id="icons" transform="translate(56.000000, 160.000000)">
                <path d="M44,3399 L44,3407 L46,3407 L46,3401 L62,3401 L62,3417 L56,3417 L56,3419 L64,3419 L64,3399 L44,3399 Z M44,3417 L44,3419 L46,3419 C46,3417.895 45.105,3417 44,3417 L44,3417 Z M44,3413 L44,3415 C46.206,3415 48,3416.794 48,3419 L50,3419 C50,3415.686 47.314,3413 44,3413 L44,3413 Z M54,3419 L52,3419 C52,3414.589 48.411,3411 44,3411 L44,3409 C49.523,3409 54,3413.477 54,3419 L54,3419 Z" id="chrome_cast-[#1047]"></path>
            </g>
        </g>
    </g>
</svg>