<?xml version="1.0" encoding="UTF-8" standalone="no"?>
<svg width="20px" height="20px" viewBox="0 0 20 20" version="1.1" xmlns="http://www.w3.org/2000/svg" xmlns:xlink="http://www.w3.org/1999/xlink">
    <!-- Generator: Sketch 3.8.1 (29687) - http://www.bohemiancoding.com/sketch -->
    <title>chrome_cast_round [#1045]</title>
    <desc>Created with Sketch.</desc>
    <defs></defs>
    <g id="Page-1" stroke="none" stroke-width="1" fill="none" fill-rule="evenodd">
        <g id="Dribbble-Dark-Preview" transform="translate(-180.000000, -3559.000000)" fill="#FFFFFF">
            <g id="icons" transform="translate(56.000000, 160.000000)">
                <path d="M142,3399 L128,3399 C126.895,3399 126,3399.895 126,3401 L126,3406 C126,3406.552 126.448,3407 127,3407 C127.552,3407 128,3406.552 128,3406 L128,3402 C128,3401.448 128.448,3401 129,3401 L141,3401 C141.552,3401 142,3401.448 142,3402 L142,3414 C142,3414.552 141.552,3415 141,3415 L137,3415 C136.448,3415 136,3415.448 136,3416 C136,3416.552 136.448,3417 137,3417 L142,3417 C143.105,3417 144,3416.105 144,3415 L144,3401 C144,3399.895 143.105,3399 142,3399 M124,3417 L124,3419 L126,3419 C126,3417.895 125.105,3417 124,3417 M124,3413 L124,3415 C126.206,3415 128,3416.794 128,3419 L130,3419 C130,3415.686 127.314,3413 124,3413 M134,3419 L132,3419 C132,3414.589 128.411,3411 124,3411 L124,3409 C129.523,3409 134,3413.477 134,3419" id="chrome_cast_round-[#1045]"></path>
            </g>
        </g>
    </g>
</svg>