<?xml version="1.0" encoding="UTF-8" standalone="no"?>
<svg width="20px" height="20px" viewBox="0 0 20 20" version="1.1" xmlns="http://www.w3.org/2000/svg" xmlns:xlink="http://www.w3.org/1999/xlink">
    <!-- Generator: Sketch 3.8.1 (29687) - http://www.bohemiancoding.com/sketch -->
    <title>chrome_cast [#1046]</title>
    <desc>Created with Sketch.</desc>
    <defs></defs>
    <g id="Page-1" stroke="none" stroke-width="1" fill="none" fill-rule="evenodd">
        <g id="Dribbble-Dark-Preview" transform="translate(-140.000000, -3559.000000)" fill="#FFFFFF">
            <g id="icons" transform="translate(56.000000, 160.000000)">
                <path d="M86,3399 L86,3407 L88,3407 L88,3401 L102,3401 L102,3415 L96,3415 L96,3417 L104,3417 L104,3399 L86,3399 Z M84,3417 L84,3419 L86,3419 C86,3417.895 85.105,3417 84,3417 L84,3417 Z M84,3413 L84,3415 C86.206,3415 88,3416.794 88,3419 L90,3419 C90,3415.686 87.314,3413 84,3413 L84,3413 Z M94,3419 L92,3419 C92,3414.589 88.411,3411 84,3411 L84,3409 C89.523,3409 94,3413.477 94,3419 L94,3419 Z" id="chrome_cast-[#1046]"></path>
            </g>
        </g>
    </g>
</svg>