<?xml version="1.0" encoding="UTF-8" standalone="no"?>
<svg width="20px" height="20px" viewBox="0 0 20 20" version="1.1" xmlns="http://www.w3.org/2000/svg" xmlns:xlink="http://www.w3.org/1999/xlink">
    <!-- Generator: Sketch 3.8.1 (29687) - http://www.bohemiancoding.com/sketch -->
    <title>chrome_cast_round [#1048]</title>
    <desc>Created with Sketch.</desc>
    <defs></defs>
    <g id="Page-1" stroke="none" stroke-width="1" fill="none" fill-rule="evenodd">
        <g id="Dribbble-Dark-Preview" transform="translate(-60.000000, -3559.000000)" fill="#FFFFFF">
            <g id="icons" transform="translate(56.000000, 160.000000)">
                <path d="M22,3399 L6,3399 C4.895,3399 4,3399.895 4,3401 L4,3406 C4,3406.552 4.448,3407 5,3407 C5.552,3407 6,3406.552 6,3406 L6,3402 C6,3401.448 6.448,3401 7,3401 L21,3401 C21.552,3401 22,3401.448 22,3402 L22,3416 C22,3416.552 21.552,3417 21,3417 L17,3417 C16.448,3417 16,3417.448 16,3418 C16,3418.552 16.448,3419 17,3419 L22,3419 C23.105,3419 24,3418.105 24,3417 L24,3401 C24,3399.895 23.105,3399 22,3399 M4,3417 L4,3419 L6,3419 C6,3417.895 5.105,3417 4,3417 M4,3413 L4,3415 C6.206,3415 8,3416.794 8,3419 L10,3419 C10,3415.686 7.314,3413 4,3413 M14,3419 L12,3419 C12,3414.589 8.411,3411 4,3411 L4,3409 C9.523,3409 14,3413.477 14,3419" id="chrome_cast_round-[#1048]"></path>
            </g>
        </g>
    </g>
</svg>