<?xml version="1.0" encoding="UTF-8" standalone="no"?>
<svg width="20px" height="20px" viewBox="0 0 20 20" version="1.1" xmlns="http://www.w3.org/2000/svg" xmlns:xlink="http://www.w3.org/1999/xlink">
    <!-- Generator: Sketch 3.8.1 (29687) - http://www.bohemiancoding.com/sketch -->
    <title>circular_connectivity [#1044]</title>
    <desc>Created with Sketch.</desc>
    <defs></defs>
    <g id="Page-1" stroke="none" stroke-width="1" fill="none" fill-rule="evenodd">
        <g id="Dribbble-Dark-Preview" transform="translate(-220.000000, -3559.000000)" fill="#FFFFFF">
            <g id="icons" transform="translate(56.000000, 160.000000)">
                <path d="M180,3410 L182,3410 L182,3408 L180,3408 L180,3410 Z M179,3412 L179.188,3412 C178.662,3412.906 177.907,3413.662 177,3414.188 L177,3414 C177,3413.447 176.552,3413 176,3413 L172,3413 C171.448,3413 171,3413.447 171,3414 L171,3414.188 C170.093,3413.662 169.338,3412.906 168.812,3412 L169,3412 C169.552,3412 170,3411.552 170,3411 L170,3407 C170,3406.447 169.552,3406 169,3406 L168.812,3406 C169.338,3405.093 170.093,3404.338 171,3403.812 L171,3404 C171,3404.552 171.448,3405 172,3405 L176,3405 C176.552,3405 177,3404.552 177,3404 L177,3403.812 C177.907,3404.338 178.662,3405 179.188,3406 L179,3406 C178.448,3406 178,3406.447 178,3407 L178,3411 C178,3411.552 178.448,3412 179,3412 L179,3412 Z M173,3417 L175,3417 L175,3415 L173,3415 L173,3417 Z M173,3403 L175,3403 L175,3401 L173,3401 L173,3403 Z M168,3410 L166.069,3410 L166,3410 L166,3408 L168,3408 L168,3410 Z M183,3406 L181.413,3406 C180.601,3404 179.004,3402.398 177,3401.587 L177,3400 C177,3399.447 176.552,3399 176,3399 L172,3399 C171.448,3399 171,3399.447 171,3400 L171,3401.587 C168.996,3402.398 167.399,3403.996 166.587,3406 L165,3406 C164.448,3406 164,3406.447 164,3407 L164,3411 C164,3411.552 164.448,3412 165,3412 L166.587,3412 C167.399,3414.003 168.996,3415.601 171,3416.413 L171,3418 C171,3418.552 171.448,3419 172,3419 L176,3419 C176.552,3419 177,3418.552 177,3418 L177,3416.413 C179.004,3415.601 180.601,3414.003 181.413,3412 L183,3412 C183.552,3412 184,3411.552 184,3411 L184,3407 C184,3406.447 183.552,3406 183,3406 L183,3406 Z" id="circular_connectivity-[#1044]"></path>
            </g>
        </g>
    </g>
</svg>