<?xml version="1.0" encoding="UTF-8" standalone="no"?>
<svg width="20px" height="20px" viewBox="0 0 20 20" version="1.1" xmlns="http://www.w3.org/2000/svg" xmlns:xlink="http://www.w3.org/1999/xlink">
    <!-- Generator: Sketch 3.8.1 (29687) - http://www.bohemiancoding.com/sketch -->
    <title>circular_connectivity [#1043]</title>
    <desc>Created with Sketch.</desc>
    <defs></defs>
    <g id="Page-1" stroke="none" stroke-width="1" fill="none" fill-rule="evenodd">
        <g id="Dribbble-Dark-Preview" transform="translate(-260.000000, -3559.000000)" fill="#FFFFFF">
            <g id="icons" transform="translate(56.000000, 160.000000)">
                <path d="M222,3410 L221.931,3410 L220,3410 L220,3408 L222,3408 L222,3410 Z M219.188,3412 C218.662,3412.907 217.907,3413.662 217,3414.188 L217,3413 L211,3413 L211,3414.188 C210.093,3413.662 209.338,3412.907 208.812,3412 L210,3412 L210,3406 L208.812,3406 C209.338,3405.093 210.093,3404.338 211,3403.812 L211,3405 L217,3405 L217,3403.812 C217.907,3404.338 218.662,3405 219.188,3406 L218,3406 L218,3412 L219.188,3412 Z M213,3417 L215,3417 L215,3415 L213,3415 L213,3417 Z M213,3403 L215,3403 L215,3401 L213,3401 L213,3403 Z M206,3410 L208,3410 L208,3408 L206,3408 L206,3410 Z M221.413,3406 C220.601,3404 219.004,3402.399 217,3401.587 L217,3399 L211,3399 L211,3401.587 C208.996,3402.399 207.399,3403.996 206.587,3406 L204,3406 L204,3412 L206.587,3412 C207.399,3414.004 208.996,3415.601 211,3416.413 L211,3419 L217,3419 L217,3416.413 C219.004,3415.601 220.601,3414.004 221.413,3412 L224,3412 L224,3406 L221.413,3406 Z" id="circular_connectivity-[#1043]"></path>
            </g>
        </g>
    </g>
</svg>