<?xml version="1.0" encoding="UTF-8" standalone="no"?>
<svg width="12px" height="16px" viewBox="0 0 12 16" version="1.1" xmlns="http://www.w3.org/2000/svg" xmlns:xlink="http://www.w3.org/1999/xlink">
    <!-- Generator: Sketch 3.8.1 (29687) - http://www.bohemiancoding.com/sketch -->
    <title>click_touch_press [#812]</title>
    <desc>Created with Sketch.</desc>
    <defs></defs>
    <g id="Page-1" stroke="none" stroke-width="1" fill="none" fill-rule="evenodd">
        <g id="Dribbble-Dark-Preview" transform="translate(-384.000000, -4561.000000)" fill="#FFFFFF">
            <g id="icons" transform="translate(56.000000, 160.000000)">
                <path d="M334,4406 C332.895,4406 332,4406.895 332,4408 L332,4410 L332,4412 L332,4417 L334,4417 L336,4417 L336,4412 L336,4410 L336,4408 C336,4406.895 335.105,4406 334,4406 M340,4407 L340,4407 L340,4413 L338,4413 L338,4407 C338,4401.667 330,4401.667 330,4407 L330,4413 L328,4413 L328,4407 C328,4399 340,4399 340,4407" id="click_touch_press-[#812]"></path>
            </g>
        </g>
    </g>
</svg>