<?xml version="1.0" encoding="UTF-8" standalone="no"?>
<svg width="20px" height="20px" viewBox="0 0 20 20" version="1.1" xmlns="http://www.w3.org/2000/svg" xmlns:xlink="http://www.w3.org/1999/xlink">
    <!-- Generator: Sketch 3.8.1 (29687) - http://www.bohemiancoding.com/sketch -->
    <title>click_touch_press [#811]</title>
    <desc>Created with Sketch.</desc>
    <defs></defs>
    <g id="Page-1" stroke="none" stroke-width="1" fill="none" fill-rule="evenodd">
        <g id="Dribbble-Dark-Preview" transform="translate(-420.000000, -4559.000000)" fill="#FFFFFF">
            <g id="icons" transform="translate(56.000000, 160.000000)">
                <path d="M384,4409.21042 C384,4395.56571 364,4395.62738 364,4409.21042 L364,4415.08417 L366,4415.08417 L366,4409.21042 C366,4398.44188 382,4398.44188 382,4409.21042 C382,4409.21042 382,4398.44188 382,4409.21042 L382,4415.08417 L384,4415.08417 L384,4409.21042 Z M374,4408.23146 C372.895,4408.23146 372,4409.10763 372,4410.18938 L372,4412.14729 L372,4414.10521 L372,4419 L374,4419 L376,4419 L376,4414.10521 L376,4412.14729 L376,4410.18938 C376,4409.10763 375.105,4408.23146 374,4408.23146 L374,4408.23146 Z M380,4409.21042 L380,4409.21042 L380,4415.08417 L378,4415.08417 L378,4409.21042 C378,4404.31563 378,4409.21042 378,4409.21042 C378,4404.31563 370,4404.31563 370,4409.21042 L370,4415.08417 L368,4415.08417 L368,4409.21042 C368,4401.37876 380,4401.37876 380,4409.21042 L380,4409.21042 Z" id="click_touch_press-[#811]"></path>
            </g>
        </g>
    </g>
</svg>