<?xml version="1.0" encoding="UTF-8" standalone="no"?>
<svg width="20px" height="20px" viewBox="0 0 20 20" version="1.1" xmlns="http://www.w3.org/2000/svg" xmlns:xlink="http://www.w3.org/1999/xlink">
    <!-- Generator: Sketch 3.8.1 (29687) - http://www.bohemiancoding.com/sketch -->
    <title>clock [#1318]</title>
    <desc>Created with Sketch.</desc>
    <defs></defs>
    <g id="Page-1" stroke="none" stroke-width="1" fill="none" fill-rule="evenodd">
        <g id="Dribbble-Dark-Preview" transform="translate(-220.000000, -2319.000000)" fill="#FFFFFF">
            <g id="icons" transform="translate(56.000000, 160.000000)">
                <path d="M179.997,2168.954 C179.988,2169.5 179.545,2170 178.998,2170 L174.895,2170 C173.848,2170 173,2169.027 173,2167.979 L173,2163.876 C173,2163.324 173.447,2162.876 173.999,2162.876 C174.552,2162.876 175,2163.324 175,2163.876 L175,2166.876 C175,2167.429 175.446,2168 175.998,2168 L178.998,2168 C179.545,2168 179.988,2168.41 179.997,2168.954 L179.997,2168.954 Z M179.997,2168.954 C179.997,2168.949 180,2168.944 180,2168.938 L180,2168.969 C180,2168.964 179.997,2168.959 179.997,2168.954 L179.997,2168.954 Z M173.999,2162.876 L173.999,2162.876 L174,2162.876 L173.999,2162.876 Z M182,2176 C182,2176.552 181.552,2177 181,2177 L167,2177 C166.448,2177 166,2176.552 166,2176 L166,2162 C166,2161.448 166.448,2161 167,2161 L181,2161 C181.552,2161 182,2161.448 182,2162 L182,2176 Z M182,2159 L166,2159 C164.896,2159 164,2159.896 164,2161 L164,2177 C164,2178.105 164.896,2179 166,2179 L182,2179 C183.105,2179 184,2178.105 184,2177 L184,2161 C184,2159.896 183.105,2159 182,2159 L182,2159 Z" id="clock-[#1318]"></path>
            </g>
        </g>
    </g>
</svg>