<?xml version="1.0" encoding="UTF-8" standalone="no"?>
<svg width="22px" height="20px" viewBox="0 0 22 20" version="1.1" xmlns="http://www.w3.org/2000/svg" xmlns:xlink="http://www.w3.org/1999/xlink">
    <!-- Generator: Sketch 3.8.1 (29687) - http://www.bohemiancoding.com/sketch -->
    <title>close_camera [#949]</title>
    <desc>Created with Sketch.</desc>
    <defs></defs>
    <g id="Page-1" stroke="none" stroke-width="1" fill="none" fill-rule="evenodd">
        <g id="Dribbble-Dark-Preview" transform="translate(-98.000000, -3999.000000)" fill="#FFFFFF">
            <g id="icons" transform="translate(56.000000, 160.000000)">
                <path d="M47.657,3854.60971 L46.243,3856.07279 L47.657,3857.53588 L46.243,3859 L44.829,3857.53691 L43.414,3859 L42,3857.53588 L43.414,3856.07279 L42,3854.60971 L43.414,3853.14662 L44.829,3854.60971 L46.243,3853.14662 L47.657,3854.60971 Z M53.829,3855.03808 C52.726,3855.03808 51.829,3854.10994 51.829,3852.96865 C51.829,3851.82839 52.726,3850.89922 53.829,3850.89922 C54.931,3850.89922 55.829,3851.82839 55.829,3852.96865 C55.829,3854.10994 54.931,3855.03808 53.829,3855.03808 L53.829,3855.03808 Z M53.829,3848.82979 C51.619,3848.82979 49.829,3850.68296 49.829,3852.96865 C49.829,3855.25433 51.619,3857.10751 53.829,3857.10751 C56.038,3857.10751 57.829,3855.25433 57.829,3852.96865 C57.829,3850.68296 56.038,3848.82979 53.829,3848.82979 L53.829,3848.82979 Z M51,3843.13886 L57,3843.13886 L57,3841.06943 L51,3841.06943 L51,3843.13886 Z M63,3843.13886 L63,3841.06943 L61,3841.06943 L61,3843.13886 L59,3843.13886 L59,3839 L49,3839 L49,3843.13886 L44,3843.13886 L44,3851.41658 L46,3851.41658 L46,3845.20829 L62,3845.20829 L62,3855.55543 L60,3855.55543 L60,3857.62486 L64,3857.62486 L64,3843.13886 L63,3843.13886 Z" id="close_camera-[#949]"></path>
            </g>
        </g>
    </g>
</svg>