<?xml version="1.0" encoding="UTF-8" standalone="no"?>
<svg width="20px" height="20px" viewBox="0 0 20 20" version="1.1" xmlns="http://www.w3.org/2000/svg" xmlns:xlink="http://www.w3.org/1999/xlink">
    <!-- Generator: Sketch 3.8.1 (29687) - http://www.bohemiancoding.com/sketch -->
    <title>closed_box_top_view_round [#700]</title>
    <desc>Created with Sketch.</desc>
    <defs></defs>
    <g id="Page-1" stroke="none" stroke-width="1" fill="none" fill-rule="evenodd">
        <g id="Dribbble-Dark-Preview" transform="translate(-380.000000, -5079.000000)" fill="#FFFFFF">
            <g id="icons" transform="translate(56.000000, 160.000000)">
                <path d="M339,4933 L337,4933 C335.895,4933 335,4932.105 335,4931 L335,4927 C335,4925.895 335.895,4925 337,4925 L339,4925 C339.552,4925 340,4925.448 340,4926 C340,4926.552 339.552,4927 339,4927 L338,4927 C337.448,4927 337,4927.448 337,4928 L337,4930 C337,4930.552 337.448,4931 338,4931 L339,4931 C339.552,4931 340,4931.448 340,4932 C340,4932.552 339.552,4933 339,4933 M329,4931 L330,4931 C330.552,4931 331,4930.552 331,4930 L331,4928 C331,4927.448 330.552,4927 330,4927 L329,4927 C328.448,4927 328,4926.552 328,4926 C328,4925.448 328.448,4925 329,4925 L331,4925 C332.105,4925 333,4925.895 333,4927 L333,4931 C333,4932.105 332.105,4933 331,4933 L329,4933 C328.448,4933 328,4932.552 328,4932 C328,4931.448 328.448,4931 329,4931 M341,4937 L327,4937 C326.448,4937 326,4936.552 326,4936 L326,4922 C326,4921.448 326.448,4921 327,4921 L341,4921 C341.552,4921 342,4921.448 342,4922 L342,4936 C342,4936.552 341.552,4937 341,4937 M342,4919 L326,4919 C324.895,4919 324,4919.895 324,4921 L324,4937 C324,4938.105 324.895,4939 326,4939 L342,4939 C343.105,4939 344,4938.105 344,4937 L344,4921 C344,4919.895 343.105,4919 342,4919" id="closed_box_top_view_round-[#700]"></path>
            </g>
        </g>
    </g>
</svg>