<?xml version="1.0" encoding="UTF-8" standalone="no"?>
<svg width="20px" height="20px" viewBox="0 0 20 20" version="1.1" xmlns="http://www.w3.org/2000/svg" xmlns:xlink="http://www.w3.org/1999/xlink">
    <!-- Generator: Sketch 3.8.1 (29687) - http://www.bohemiancoding.com/sketch -->
    <title>closed_box_top_view [#699]</title>
    <desc>Created with Sketch.</desc>
    <defs></defs>
    <g id="Page-1" stroke="none" stroke-width="1" fill="none" fill-rule="evenodd">
        <g id="Dribbble-Dark-Preview" transform="translate(-420.000000, -5079.000000)" fill="#FFFFFF">
            <g id="icons" transform="translate(56.000000, 160.000000)">
                <path d="M377,4933 L375,4933 L375,4931 L375,4927 L375,4925 L377,4925 L380,4925 L380,4927 L377,4927 L377,4931 L380,4931 L380,4933 L377,4933 Z M371,4931 L371,4927 L368,4927 L368,4925 L371,4925 L373,4925 L373,4927 L373,4931 L373,4933 L371,4933 L368,4933 L368,4931 L371,4931 Z M366,4937 L382,4937 L382,4921 L366,4921 L366,4937 Z M382,4919 L366,4919 L364,4919 L364,4921 L364,4937 L364,4939 L366,4939 L382,4939 L384,4939 L384,4937 L384,4921 L384,4919 L382,4919 Z" id="closed_box_top_view-[#699]"></path>
            </g>
        </g>
    </g>
</svg>