<?xml version="1.0" encoding="UTF-8" standalone="no"?>
<svg width="20px" height="17px" viewBox="0 0 20 17" version="1.1" xmlns="http://www.w3.org/2000/svg" xmlns:xlink="http://www.w3.org/1999/xlink">
    <!-- Generator: Sketch 3.8.1 (29687) - http://www.bohemiancoding.com/sketch -->
    <title>clouds_sun [#1276]</title>
    <desc>Created with Sketch.</desc>
    <defs></defs>
    <g id="Page-1" stroke="none" stroke-width="1" fill="none" fill-rule="evenodd">
        <g id="Dribbble-Dark-Preview" transform="translate(-300.000000, -2481.000000)" fill="#FFFFFF">
            <g id="icons" transform="translate(56.000000, 160.000000)">
                <path d="M257.035849,2335.995 L257.035849,2336 L256.955628,2336 L249.177237,2336 C247.696164,2336 246.318376,2335.008 246.055653,2333.555 C245.638506,2331.245 247.918777,2329.394 250.065681,2330.199 L250.044623,2330.964 C250.029581,2331.531 250.485836,2332 251.055402,2332 C251.562798,2332 251.998997,2331.628 252.056154,2331.125 C252.11632,2330.603 252.206568,2329.95 252.34194,2329.287 C253.150163,2325.311 260.555528,2324.445 261.85811,2329.773 C262.654299,2333.031 260.163449,2335.945 257.035849,2335.995 M254.027576,2323 C255.148659,2323 256.175483,2323.376 257.006769,2324 C254.102783,2324 251.624969,2325.759 250.558035,2328.267 C250.068689,2328.108 249.55628,2328 249.013788,2328 C249.013788,2325.243 251.262973,2323 254.027576,2323 M260.268739,2324.807 C259.104537,2322.548 256.750063,2321 254.027576,2321 C250.013537,2321 246.78165,2324.363 247.027325,2328.411 C245.24743,2329.179 244,2330.943 244,2333 C244,2335.761 246.245174,2338 249.013788,2338 L257.035849,2338 C257.025821,2338 257.016796,2337.997 257.005766,2337.997 C257.016796,2337.996 257.035849,2337.994 257.035849,2337.994 C261.046879,2337.935 264,2334.828 264,2331 C264,2328.311 262.49085,2325.979 260.268739,2324.807" id="clouds_sun-[#1276]"></path>
            </g>
        </g>
    </g>
</svg>