<?xml version="1.0" encoding="UTF-8" standalone="no"?>
<svg width="20px" height="20px" viewBox="0 0 20 20" version="1.1" xmlns="http://www.w3.org/2000/svg" xmlns:xlink="http://www.w3.org/1999/xlink">
    <!-- Generator: Sketch 3.8.1 (29687) - http://www.bohemiancoding.com/sketch -->
    <title>cloud_connection [#1059]</title>
    <desc>Created with Sketch.</desc>
    <defs></defs>
    <g id="Page-1" stroke="none" stroke-width="1" fill="none" fill-rule="evenodd">
        <g id="Dribbble-Dark-Preview" transform="translate(-420.000000, -3479.000000)" fill="#FFFFFF">
            <g id="icons" transform="translate(56.000000, 160.000000)">
                <path d="M380.447333,3323.24309 C380.447333,3323.24309 379.744852,3321.42679 377.890225,3320.18527 C373.569422,3317.29139 367.735739,3319.99034 367.076227,3325.10137 C367.076227,3325.10137 365.644286,3325.42325 364.732961,3326.72274 C362.823374,3329.44369 364.877854,3333.00232 368.211387,3333.00232 L371.008317,3333.00232 L371.008317,3331.00309 L369.115718,3331.00309 C363.51786,3331.00309 366.627559,3325.36127 369.246621,3327.44446 C367.183148,3320.64509 377.570461,3318.41096 378.902476,3325.0154 C378.919463,3325.0144 378.936451,3325.0124 378.952439,3325.00941 C378.969426,3325.00741 378.985414,3325.00541 379.002402,3325.00541 C380.90999,3325.00541 382.513803,3326.88368 381.845298,3328.97287 C381.079865,3331.36795 378.400847,3331.00309 377.003881,3331.00309 L377.003881,3333.00232 C378.787561,3333.00232 380.525275,3333.21524 382.280976,3331.70482 C385.278757,3329.12681 384.158586,3324.37065 380.447333,3323.24309 L380.447333,3323.24309 Z M375.005359,3337.00077 L379.002402,3337.00077 L379.002402,3339 L369.009796,3339 L369.009796,3337.00077 L373.006838,3337.00077 L373.006838,3325.00541 L375.005359,3325.00541 L375.005359,3337.00077 Z" id="cloud_connection-[#1059]"></path>
            </g>
        </g>
    </g>
</svg>