<?xml version="1.0" encoding="UTF-8" standalone="no"?>
<svg width="20px" height="20px" viewBox="0 0 20 20" version="1.1" xmlns="http://www.w3.org/2000/svg" xmlns:xlink="http://www.w3.org/1999/xlink">
    <!-- Generator: Sketch 3.8.1 (29687) - http://www.bohemiancoding.com/sketch -->
    <title>clouds [#1264]</title>
    <desc>Created with Sketch.</desc>
    <defs></defs>
    <g id="Page-1" stroke="none" stroke-width="1" fill="none" fill-rule="evenodd">
        <g id="Dribbble-Dark-Preview" transform="translate(-380.000000, -2519.000000)" fill="#FFFFFF">
            <g id="icons" transform="translate(56.000000, 160.000000)">
                <path d="M336.983696,2374.00175 L336.983696,2373.98976 L336.983696,2373.98077 L336.903798,2373.98077 L329.156675,2373.98077 C327.681556,2373.98077 326.309306,2373.004 326.047639,2371.55181 C325.706075,2369.65718 327.160221,2368.00724 328.993883,2368.00724 C329.363412,2368.00724 329.713965,2368.08714 330.041547,2368.20999 L330.020574,2368.97603 C330.005593,2369.54232 330.460013,2370.01074 331.02729,2370.01074 C331.532646,2370.01074 331.967092,2369.6402 332.024019,2369.13783 C332.083943,2368.61548 332.173828,2367.96429 332.308656,2367.30212 C332.718134,2365.28265 335.354773,2363.65069 337.884547,2364.09913 C339.778133,2364.43471 341.331153,2365.91885 341.786572,2367.78752 C342.579561,2371.04145 339.979876,2373.95181 336.983696,2374.00175 L336.983696,2374.00175 Z M341.060498,2374.67391 C342.821253,2373.40549 343.919852,2371.34507 343.919852,2369.01298 C343.919852,2366.68689 342.789294,2364.63246 341.050511,2363.36105 L343.707123,2360.70437 C344.097626,2360.31486 344.097626,2359.68265 343.707123,2359.29213 C343.31762,2358.90262 342.685426,2358.90262 342.294924,2359.29213 L339.192879,2362.39426 C338.490774,2362.15655 337.740731,2362.02172 336.955731,2362.02172 C334.624704,2362.02172 332.582308,2363.17428 331.315922,2364.92909 L325.705076,2359.3171 C325.315573,2358.92759 324.68238,2358.92759 324.292877,2359.3171 C323.902374,2359.70762 323.902374,2360.33983 324.292877,2360.73034 L329.629073,2366.06667 C328.636339,2365.91785 327.543732,2366.08165 326.304312,2366.96055 C324.873137,2367.97528 323.899378,2369.57828 324.010237,2371.32809 C324.115103,2372.98002 325.028938,2374.40325 326.354248,2375.23321 L324.292877,2377.29463 C323.902374,2377.68514 323.902374,2378.31735 324.292877,2378.70787 C324.68238,2379.09738 325.315573,2379.09738 325.705076,2378.70787 L328.46256,2375.93733 C328.639335,2375.9563 328.812115,2375.97828 328.993883,2375.97828 L336.983696,2375.97828 C336.973709,2375.97828 336.96472,2375.98826 336.953734,2375.98826 C336.96472,2375.98727 336.983696,2375.99226 336.983696,2375.99226 C337.7647,2375.98027 338.503758,2375.85243 339.190882,2375.62472 L342.269956,2378.70587 C342.659459,2379.09638 343.292652,2379.09638 343.682155,2378.70687 C344.072657,2378.31635 344.072657,2377.68514 343.682155,2377.29463 L341.060498,2374.67391 Z" id="clouds-[#1264]"></path>
            </g>
        </g>
    </g>
</svg>