<?xml version="1.0" encoding="UTF-8" standalone="no"?>
<svg width="20px" height="14px" viewBox="0 0 20 14" version="1.1" xmlns="http://www.w3.org/2000/svg" xmlns:xlink="http://www.w3.org/1999/xlink">
    <!-- Generator: Sketch 3.8.1 (29687) - http://www.bohemiancoding.com/sketch -->
    <title>cloud_close [#1056]</title>
    <desc>Created with Sketch.</desc>
    <defs></defs>
    <g id="Page-1" stroke="none" stroke-width="1" fill="none" fill-rule="evenodd">
        <g id="Dribbble-Dark-Preview" transform="translate(-140.000000, -3522.000000)" fill="#FFFFFF">
            <g id="icons" transform="translate(56.000000, 160.000000)">
                <path d="M98.4537478,3366.16124 L97.0358486,3367.57679 L95.6179494,3366.16124 L94.1990474,3367.57679 L95.6179494,3368.99234 L94.1990474,3370.40889 L95.6179494,3371.82443 L97.0358486,3370.40889 L98.4537478,3371.82443 L99.871647,3370.40889 L98.4537478,3368.99234 L99.871647,3367.57679 L98.4537478,3366.16124 Z M101.857107,3367.765 C100.548508,3362.40413 93.1461519,3363.31713 92.3419403,3367.27846 C92.2065681,3367.94219 92.1163199,3368.5959 92.0561544,3369.11848 C91.9989972,3369.62203 91.5627977,3369.99343 91.0543996,3369.99343 C90.485836,3369.99343 90.0295813,3369.52492 90.0446227,3368.9573 L90.0656806,3368.19146 C89.7367761,3368.06833 89.3848082,3367.99124 89.0137879,3367.99124 C87.172725,3367.99124 85.71271,3369.65106 86.055653,3371.55013 C86.3183755,3373.00573 87.6961645,3373.99781 89.1772374,3373.99781 L96.9546252,3373.99781 L97.0358486,3373.99781 L97.0358486,3373.99381 C100.163449,3373.94375 102.654299,3371.02656 101.857107,3367.765 L101.857107,3367.765 Z M104,3368.99234 C104,3372.82553 101.046879,3375.93493 97.0358486,3375.99499 C97.0358486,3375.99499 97.0167962,3375.996 97.0057659,3375.998 C97.0157934,3375.998 97.025821,3376 97.0358486,3376 L89.0137879,3376 C86.2441715,3376 84,3373.75955 84,3370.99453 C84,3368.2305 86.2441715,3365.98905 89.0137879,3365.98905 C89.5562798,3365.98905 90.0686889,3366.09817 90.5580346,3366.25735 C93.5231888,3359.28372 104,3361.35699 104,3368.99234 L104,3368.99234 Z M97.0358486,3373.98179 L97.0358486,3373.99381 C97.0087741,3373.99381 96.9827024,3373.99781 96.9546252,3373.99781 C97.0097769,3373.99781 97.0358486,3373.9838 97.0358486,3373.98179 L97.0358486,3373.98179 Z" id="cloud_close-[#1056]"></path>
            </g>
        </g>
    </g>
</svg>