<?xml version="1.0" encoding="UTF-8" standalone="no"?>
<svg width="20px" height="16px" viewBox="0 0 20 16" version="1.1" xmlns="http://www.w3.org/2000/svg" xmlns:xlink="http://www.w3.org/1999/xlink">
    <!-- Generator: Sketch 3.8.1 (29687) - http://www.bohemiancoding.com/sketch -->
    <title>cloud_close [#1068]</title>
    <desc>Created with Sketch.</desc>
    <defs></defs>
    <g id="Page-1" stroke="none" stroke-width="1" fill="none" fill-rule="evenodd">
        <g id="Dribbble-Dark-Preview" transform="translate(-60.000000, -3481.000000)" fill="#FFFFFF">
            <g id="icons" transform="translate(56.000000, 160.000000)">
                <path d="M20.4580747,3325.21078 C20.4580747,3325.21078 19.7566674,3323.40831 17.9048721,3322.17625 C13.590668,3319.3044 7.76589375,3321.98281 7.10738896,3327.05492 C7.10738896,3327.05492 5.67763537,3327.37434 4.76770148,3328.66395 C1.88724188,3332.74307 8.04027074,3336.4353 8.04027074,3333.84816 C8.04027074,3332.70239 7.62122224,3333.0615 6.83201423,3332.4782 C4.74176038,3330.93365 7.18221905,3327.7265 9.27446836,3329.38017 C7.21414655,3322.63257 17.585597,3320.41544 18.9155772,3326.96961 C21.8299597,3326.86545 23.3425253,3330.75807 20.4959887,3332.4663 C19.3984807,3333.12499 20.3682786,3334.78461 21.4448342,3334.1904 C25.3419853,3332.04073 24.5976753,3326.46071 20.4580747,3325.21078 M16.8492689,3332.50002 L15.4384723,3333.90371 L16.8492689,3335.3064 C17.2383854,3335.69328 17.2383854,3336.32221 16.8492689,3336.7091 C16.4591547,3337.09697 15.8275888,3337.09697 15.4384723,3336.7091 L14.0266779,3335.3064 L12.6158813,3336.7091 C12.2267648,3337.09697 11.5951989,3337.09697 11.2050847,3336.7091 C10.8159682,3336.32221 10.8159682,3335.69328 11.2050847,3335.3064 L12.6158813,3333.90371 L11.2050847,3332.50002 C10.8159682,3332.11314 10.8159682,3331.48521 11.2050847,3331.09733 C11.5951989,3330.71045 12.2267648,3330.71045 12.6158813,3331.09733 L14.0266779,3332.50102 L15.4384723,3331.09733 C15.8275888,3330.71045 16.4591547,3330.71045 16.8492689,3331.09733 C17.2383854,3331.48521 17.2383854,3332.11314 16.8492689,3332.50002" id="cloud_close-[#1068]"></path>
            </g>
        </g>
    </g>
</svg>