<?xml version="1.0" encoding="UTF-8" standalone="no"?>
<svg width="20px" height="20px" viewBox="0 0 20 20" version="1.1" xmlns="http://www.w3.org/2000/svg" xmlns:xlink="http://www.w3.org/1999/xlink">
    <!-- Generator: Sketch 3.8.1 (29687) - http://www.bohemiancoding.com/sketch -->
    <title>cloud_up [#1052]</title>
    <desc>Created with Sketch.</desc>
    <defs></defs>
    <g id="Page-1" stroke="none" stroke-width="1" fill="none" fill-rule="evenodd">
        <g id="Dribbble-Dark-Preview" transform="translate(-300.000000, -3519.000000)" fill="#FFFFFF">
            <g id="icons" transform="translate(56.000000, 160.000000)">
                <path d="M254.017831,3372.04027 C254.017831,3372.04427 254.015827,3372.04728 254.015827,3372.05028 C254.015827,3372.05428 254.017831,3372.05828 254.017831,3372.06128 L254.017831,3372.04027 Z M262.617483,3362.04536 C259.073032,3357.19746 252.559176,3358.53498 250.55052,3363.26183 C249.319279,3362.85968 247.94077,3362.78365 246.307798,3363.9411 C244.898232,3364.94049 243.92446,3366.5051 244.004606,3368.22978 C244.126828,3370.88382 246.31982,3372.99765 249.007712,3372.99765 L253.015005,3372.99765 C253.565007,3372.99765 254.009816,3372.59749 254.015827,3372.05028 C254.009816,3371.50306 253.565007,3370.99686 253.015005,3370.99686 L249.171009,3370.99686 C247.691316,3370.99686 246.31481,3370.00548 246.052333,3368.55091 C245.709709,3366.65316 247.168364,3364.99451 249.007712,3364.99451 C249.379388,3364.99451 249.730026,3365.07054 250.058625,3365.19459 L250.037586,3365.95989 C250.022559,3366.52711 250.478389,3366.9953 251.047424,3366.9953 C251.554347,3366.9953 251.99014,3366.62315 252.048246,3366.11995 C252.107353,3365.59775 252.198519,3364.94549 252.332764,3364.28223 C253.141235,3360.30067 260.558736,3359.43633 261.860104,3364.76842 C262.333967,3366.71018 261.222945,3368.5269 260.260192,3369.69035 C260.110921,3369.87042 260.027769,3370.09151 260.027769,3370.3256 C260.027769,3371.20995 261.097717,3371.65312 261.727864,3371.03188 C263.834698,3368.95006 265.136067,3365.48971 262.617483,3362.04536 L262.617483,3362.04536 Z M259.420664,3368.20277 L258.839607,3367.80861 C258.524032,3367.49349 258.025124,3367.71658 258.025124,3368.16275 L258.025124,3378.17168 C258.025124,3378.72389 257.563284,3379 257.010277,3379 L256.987235,3379 C256.434229,3379 256.021478,3378.72389 256.021478,3378.17168 L256.021478,3368.24278 C256.021478,3367.79661 255.441422,3367.57352 255.125847,3367.88865 L254.518742,3368.40685 C254.127029,3368.798 254.017831,3368.795 253.016007,3368.40485 L253.016007,3368.39985 C253.016007,3368.00869 252.690415,3367.35944 253.082128,3366.96929 L255.56665,3364.52833 C256.349074,3363.74702 257.618384,3363.695 258.400808,3364.47631 L260.820212,3366.78821 C261.211925,3367.17837 261.213928,3367.99569 260.823217,3367.99569 L260.829228,3367.99569 C260.437515,3368.99608 259.812377,3368.59392 259.420664,3368.20277 L259.420664,3368.20277 Z" id="cloud_up-[#1052]"></path>
            </g>
        </g>
    </g>
</svg>