<?xml version="1.0" encoding="UTF-8" standalone="no"?>
<svg width="20px" height="20px" viewBox="0 0 20 20" version="1.1" xmlns="http://www.w3.org/2000/svg" xmlns:xlink="http://www.w3.org/1999/xlink">
    <!-- Generator: Sketch 3.8.1 (29687) - http://www.bohemiancoding.com/sketch -->
    <title>clouds [#1267]</title>
    <desc>Created with Sketch.</desc>
    <defs></defs>
    <g id="Page-1" stroke="none" stroke-width="1" fill="none" fill-rule="evenodd">
        <g id="Dribbble-Dark-Preview" transform="translate(-260.000000, -2519.000000)" fill="#FFFFFF">
            <g id="icons" transform="translate(56.000000, 160.000000)">
                <path d="M210.999359,2375.99692 L210.999359,2377.99897 C210.999359,2378.55154 210.55153,2379 209.99974,2379 C209.447951,2379 209.000122,2378.55154 209.000122,2377.99897 L209.000122,2375.99692 C209.000122,2375.44435 209.447951,2374.99589 209.99974,2374.99589 C210.55153,2374.99589 210.999359,2375.44435 210.999359,2375.99692 M218.996304,2375.99692 L218.996304,2377.99897 C218.996304,2378.55154 218.548475,2379 217.996686,2379 C217.444897,2379 216.997068,2378.55154 216.997068,2377.99897 L216.997068,2375.99692 C216.997068,2375.44435 217.444897,2374.99589 217.996686,2374.99589 C218.548475,2374.99589 218.996304,2375.44435 218.996304,2375.99692 M214.997832,2375.99692 L214.997832,2377.99897 C214.997832,2378.55154 214.550003,2379 213.998213,2379 C213.446424,2379 212.998595,2378.55154 212.998595,2377.99897 L212.998595,2375.99692 C212.998595,2375.44435 213.446424,2374.99589 213.998213,2374.99589 C214.550003,2374.99589 214.997832,2375.44435 214.997832,2375.99692 M218.92833,2370.99178 L218.909338,2370.99178 L218.890345,2370.99178 L208.117459,2370.99178 C207.632644,2370.99178 207.162824,2370.83262 206.789966,2370.55533 C204.688769,2368.99173 207.142831,2365.76241 209.237032,2367.42912 C207.176818,2360.63415 217.561852,2358.37483 218.896343,2364.99563 C218.913336,2364.99563 218.92933,2364.99262 218.946324,2364.99062 C218.962317,2364.98762 218.979311,2364.98562 218.996304,2364.98562 C220.361783,2364.98562 221.518341,2365.9396 221.876205,2367.15985 C222.428993,2369.04478 221.05052,2370.99178 218.92833,2370.99178 M223.104735,2365.15379 C222.467979,2364.24185 221.532336,2363.55315 220.441752,2363.22081 C220.435755,2363.2198 220.431756,2363.2168 220.427758,2363.2138 C220.423759,2363.20979 220.42076,2363.20579 220.418761,2363.20078 C217.603836,2356.70512 207.970515,2358.05951 207.064861,2365.08272 C207.063862,2365.09072 207.060863,2365.09773 207.055865,2365.10274 C207.050867,2365.10874 207.043869,2365.11275 207.036872,2365.11475 C203.914065,2365.89255 202.884458,2369.92569 205.451477,2372.01883 C206.20419,2372.63347 207.179817,2372.99384 208.201427,2372.99384 L218.766392,2372.99384 C222.983782,2372.99384 225.420851,2368.47019 223.104735,2365.15379" id="clouds-[#1267]"></path>
            </g>
        </g>
    </g>
</svg>