<?xml version="1.0" encoding="UTF-8" standalone="no"?>
<svg width="20px" height="20px" viewBox="0 0 20 20" version="1.1" xmlns="http://www.w3.org/2000/svg" xmlns:xlink="http://www.w3.org/1999/xlink">
    <!-- Generator: Sketch 3.8.1 (29687) - http://www.bohemiancoding.com/sketch -->
    <title>cloud_connection [#1073]</title>
    <desc>Created with Sketch.</desc>
    <defs></defs>
    <g id="Page-1" stroke="none" stroke-width="1" fill="none" fill-rule="evenodd">
        <g id="Dribbble-Dark-Preview" transform="translate(-260.000000, -3439.000000)" fill="#FFFFFF">
            <g id="icons" transform="translate(56.000000, 160.000000)">
                <path d="M205.451596,3292.01883 C206.941596,3293.23408 208.297596,3292.99384 211.001596,3292.99384 L211.001596,3290.99178 C208.889596,3290.99178 206.452596,3291.41622 206.044596,3289.40515 C205.675596,3287.59129 207.765596,3286.25692 209.238596,3287.42912 C208.947596,3286.46914 208.960596,3285.89555 209.085596,3285.15379 C210.004596,3279.72121 217.808596,3279.57506 218.901596,3284.99563 C222.844596,3284.85348 223.144596,3290.99178 218.914596,3290.99178 L217.001596,3290.99178 L217.001596,3292.99384 L218.772596,3292.99384 C224.748596,3292.99384 225.949596,3284.89352 220.447596,3283.22081 C220.424596,3283.2148 220.418596,3283.18777 220.424596,3283.20078 C217.608596,3276.70512 207.971596,3278.05951 207.065596,3285.08272 C207.061596,3285.11975 207.006596,3285.12176 207.037596,3285.11475 C203.913596,3285.89255 202.884596,3289.92569 205.451596,3292.01883 L205.451596,3292.01883 Z M224.001596,3296.99795 L224.001596,3299 L204.001596,3299 L204.001596,3296.99795 L213.001596,3296.99795 L213.001596,3284.98562 L215.001596,3284.98562 L215.001596,3296.99795 L224.001596,3296.99795 Z" id="cloud_connection-[#1073]"></path>
            </g>
        </g>
    </g>
</svg>