<?xml version="1.0" encoding="UTF-8" standalone="no"?>
<svg width="20px" height="20px" viewBox="0 0 20 20" version="1.1" xmlns="http://www.w3.org/2000/svg" xmlns:xlink="http://www.w3.org/1999/xlink">
    <!-- Generator: Sketch 3.8.1 (29687) - http://www.bohemiancoding.com/sketch -->
    <title>cloud_connection [#1072]</title>
    <desc>Created with Sketch.</desc>
    <defs></defs>
    <g id="Page-1" stroke="none" stroke-width="1" fill="none" fill-rule="evenodd">
        <g id="Dribbble-Dark-Preview" transform="translate(-300.000000, -3439.000000)" fill="#FFFFFF">
            <g id="icons" transform="translate(56.000000, 160.000000)">
                <path d="M248.211792,3293 C249.581781,3293 251.008728,3293.258 251.008728,3292 C251.008728,3290.153 248.300726,3291.68 246.800834,3290.564 C244.721369,3289.018 247.121597,3285.75 249.247028,3287.441 C248.646471,3285.462 249.317976,3283.449 250.773901,3282.199 C253.678757,3279.703 258.161448,3281.332 258.902901,3285.01 C261.908682,3284.902 263.124784,3288.809 260.728553,3290.449 C259.01182,3291.623 257.004302,3290.292 257.004302,3292 C257.004302,3292.552 257.451972,3293 258.003564,3293 C259.002827,3293 260.650611,3293.106 262.281407,3291.702 C265.278195,3289.123 264.159021,3284.365 260.44776,3283.237 C260.44776,3283.237 259.74428,3281.421 257.889649,3280.178 C256.779468,3279.434 255.443454,3279 254.006515,3279 C250.449141,3279 247.519303,3281.659 247.075631,3285.097 C247.075631,3285.097 245.644687,3285.418 244.73236,3286.718 C242.823769,3289.44 244.878253,3293 248.211792,3293 M263.999139,3298 C263.999139,3298.552 263.551469,3299 262.999876,3299 L245.013153,3299 C244.46156,3299 244.013891,3298.552 244.013891,3298 C244.013891,3297.448 244.46156,3297 245.013153,3297 L253.007252,3297 L253.007252,3286 C253.007252,3285.448 253.42994,3285 253.981533,3285 L253.989527,3285 C254.542119,3285 255.005777,3285.448 255.005777,3286 L255.005777,3297 L262.999876,3297 C263.551469,3297 263.999139,3297.448 263.999139,3298" id="cloud_connection-[#1072]"></path>
            </g>
        </g>
    </g>
</svg>