<?xml version="1.0" encoding="UTF-8" standalone="no"?>
<svg width="20px" height="17px" viewBox="0 0 20 17" version="1.1" xmlns="http://www.w3.org/2000/svg" xmlns:xlink="http://www.w3.org/1999/xlink">
    <!-- Generator: Sketch 3.8.1 (29687) - http://www.bohemiancoding.com/sketch -->
    <title>cloud_plus [#1069]</title>
    <desc>Created with Sketch.</desc>
    <defs></defs>
    <g id="Page-1" stroke="none" stroke-width="1" fill="none" fill-rule="evenodd">
        <g id="Dribbble-Dark-Preview" transform="translate(-420.000000, -3441.000000)" fill="#FFFFFF">
            <g id="icons" transform="translate(56.000000, 160.000000)">
                <path d="M380.456588,3285.22163 C380.433644,3285.21463 380.427659,3285.1886 380.433644,3285.20161 C377.624468,3278.7048 368.010822,3280.05943 367.108016,3287.08287 C367.108016,3287.08287 365.678488,3287.40526 364.768698,3288.70683 C361.885702,3292.82878 368.04075,3296.54725 368.04075,3293.93912 C368.04075,3293.43051 367.961941,3293.05606 367.399308,3292.85782 C364.398597,3291.79954 366.909498,3287.54343 369.274752,3289.42969 C368.289146,3286.17078 370.748173,3282.98194 374.026209,3282.98194 C376.472267,3282.98194 378.468418,3284.7791 378.914335,3286.99677 C381.746455,3286.89465 383.420389,3290.77231 380.494496,3292.54444 C379.397162,3293.20924 380.366807,3294.88425 381.443192,3294.28453 C385.344714,3292.11392 384.595534,3286.48315 380.456588,3285.22163 M378.016516,3294.09731 L378.016516,3294.06327 C378.016516,3294.06927 378.013523,3294.07328 378.013523,3294.07929 C378.013523,3294.08529 378.016516,3294.0913 378.016516,3294.09731 M378.013523,3294.07929 C378.003548,3294.62294 377.564614,3294.99639 377.019937,3294.99639 L375.023786,3294.99639 L375.023786,3296.9988 C375.023786,3297.55146 374.577869,3298 374.026209,3298 C373.475547,3298 373.028633,3297.55146 373.028633,3296.9988 L373.028633,3294.99639 L371.03348,3294.99639 C370.482817,3294.99639 370.035903,3294.64997 370.035903,3294.09731 L370.035903,3294.06327 C370.035903,3293.5096 370.482817,3292.99398 371.03348,3292.99398 L373.028633,3292.99398 L373.028633,3290.99157 C373.028633,3290.43791 373.475547,3289.99037 374.026209,3289.99037 C374.577869,3289.99037 375.023786,3290.43791 375.023786,3290.99157 L375.023786,3292.99398 L377.019937,3292.99398 C377.564614,3292.99398 378.003548,3293.53263 378.013523,3294.07929" id="cloud_plus-[#1069]"></path>
            </g>
        </g>
    </g>
</svg>