<?xml version="1.0" encoding="UTF-8" standalone="no"?>
<svg width="20px" height="20px" viewBox="0 0 20 20" version="1.1" xmlns="http://www.w3.org/2000/svg" xmlns:xlink="http://www.w3.org/1999/xlink">
    <!-- Generator: Sketch 3.8.1 (29687) - http://www.bohemiancoding.com/sketch -->
    <title>cloud_down [#1049]</title>
    <desc>Created with Sketch.</desc>
    <defs></defs>
    <g id="Page-1" stroke="none" stroke-width="1" fill="none" fill-rule="evenodd">
        <g id="Dribbble-Dark-Preview" transform="translate(-420.000000, -3519.000000)" fill="#FFFFFF">
            <g id="icons" transform="translate(56.000000, 160.000000)">
                <path d="M370.551465,3363.25609 C370.06261,3363.09698 369.550714,3362.9889 369.008765,3362.9889 C366.241923,3362.9889 364,3365.22845 364,3367.99237 C364,3370.75528 366.241923,3372.99584 369.008765,3372.99584 L374.017531,3372.99584 L374.017531,3370.99445 L369.172051,3370.99445 C367.692462,3370.99445 366.316053,3370.00176 366.053594,3368.54675 C365.710994,3366.64844 367.169547,3364.99029 369.008765,3364.99029 C369.379414,3364.99029 369.731029,3365.06634 370.059604,3365.18943 L370.038567,3365.95496 C370.023541,3366.52235 370.479339,3366.99168 371.048335,3366.99168 C371.555222,3366.99168 371.990984,3366.61942 372.048084,3366.11607 C372.108189,3365.59371 372.198347,3364.94025 372.333584,3364.27679 C373.141998,3360.29503 380.557976,3359.43043 381.860255,3364.76313 C382.373153,3366.86559 381.029802,3368.81994 380.028049,3369.95973 L380.028049,3372.31837 C382.031555,3371.19859 384,3368.79092 384,3365.99098 C384,3358.39071 373.523666,3356.26024 370.551465,3363.25609 L370.551465,3363.25609 Z M379.107438,3374.04657 L380.523917,3375.46155 L376.98272,3379 L373.441523,3375.46155 L374.858002,3374.04657 L376.021037,3375.20837 L376.021037,3363.9896 L378.024543,3363.9896 L378.024543,3375.12832 L379.107438,3374.04657 Z" id="cloud_down-[#1049]"></path>
            </g>
        </g>
    </g>
</svg>