<?xml version="1.0" encoding="UTF-8" standalone="no"?>
<svg width="20px" height="14px" viewBox="0 0 20 14" version="1.1" xmlns="http://www.w3.org/2000/svg" xmlns:xlink="http://www.w3.org/1999/xlink">
    <!-- Generator: Sketch 3.8.1 (29687) - http://www.bohemiancoding.com/sketch -->
    <title>cloud_close [#1057]</title>
    <desc>Created with Sketch.</desc>
    <defs></defs>
    <g id="Page-1" stroke="none" stroke-width="1" fill="none" fill-rule="evenodd">
        <g id="Dribbble-Dark-Preview" transform="translate(-100.000000, -3522.000000)" fill="#FFFFFF">
            <g id="icons" transform="translate(56.000000, 160.000000)">
                <path d="M59.1626974,3366.86902 C58.7706192,3366.47759 58.1358737,3366.47759 57.7447982,3366.86902 L57.0358486,3367.57679 L56.326899,3366.86902 C55.9348208,3366.47759 55.3000752,3366.47759 54.907997,3366.86902 C54.5169215,3367.26044 54.5169215,3367.89414 54.907997,3368.28456 L55.6169466,3368.99234 L54.907997,3369.70011 C54.5169215,3370.09154 54.5169215,3370.72523 54.907997,3371.11666 C55.3000752,3371.50709 55.9348208,3371.50709 56.326899,3371.11666 L57.0358486,3370.40889 L57.7447982,3371.11666 C58.1358737,3371.50709 58.7706192,3371.50709 59.1626974,3371.11666 C59.5547756,3370.72523 59.5547756,3370.09154 59.1626974,3369.70011 L58.4537478,3368.99234 L59.1626974,3368.28456 C59.5547756,3367.89414 59.5547756,3367.26044 59.1626974,3366.86902 M61.857107,3367.765 C60.5485084,3362.40413 53.1461519,3363.31713 52.3409376,3367.27846 C52.2065681,3367.94219 52.1153171,3368.5949 52.0561544,3369.11848 C51.9989972,3369.62203 51.5627977,3369.99343 51.0543996,3369.99343 C50.485836,3369.99343 50.0285786,3369.52492 50.0446227,3368.9573 L50.0656806,3368.19146 C49.7367761,3368.06833 49.3848082,3367.99124 49.0137879,3367.99124 C47.172725,3367.99124 45.71271,3369.65106 46.055653,3371.55013 C46.3183755,3373.00573 47.6961645,3373.99781 49.1772374,3373.99781 L56.9546252,3373.99781 L57.0358486,3373.99781 L57.0358486,3373.99381 C60.1624467,3373.94375 62.6542993,3371.02556 61.857107,3367.765 M64,3368.99234 C64,3372.82553 61.0468789,3375.93493 57.0358486,3375.99499 C57.0358486,3375.99499 57.0167962,3375.996 57.0057659,3375.998 C57.0157934,3375.998 57.025821,3376 57.0358486,3376 L49.0137879,3376 C46.2441715,3376 44,3373.75955 44,3370.99453 C44,3368.2305 46.2441715,3365.98905 49.0137879,3365.98905 C49.5562798,3365.98905 50.0686889,3366.09717 50.5580346,3366.25735 C53.5231888,3359.28372 64,3361.35699 64,3368.99234 M57.0358486,3373.98179 L57.0358486,3373.99381 C57.0087741,3373.99381 56.9827024,3373.99781 56.9546252,3373.99781 C57.0097769,3373.99781 57.0358486,3373.9838 57.0358486,3373.98179" id="cloud_close-[#1057]"></path>
            </g>
        </g>
    </g>
</svg>