<?xml version="1.0" encoding="UTF-8" standalone="no"?>
<svg width="20px" height="20px" viewBox="0 0 20 20" version="1.1" xmlns="http://www.w3.org/2000/svg" xmlns:xlink="http://www.w3.org/1999/xlink">
    <!-- Generator: Sketch 3.8.1 (29687) - http://www.bohemiancoding.com/sketch -->
    <title>cloud_up [#1062]</title>
    <desc>Created with Sketch.</desc>
    <defs></defs>
    <g id="Page-1" stroke="none" stroke-width="1" fill="none" fill-rule="evenodd">
        <g id="Dribbble-Dark-Preview" transform="translate(-300.000000, -3479.000000)" fill="#FFFFFF">
            <g id="icons" transform="translate(56.000000, 160.000000)">
                <path d="M254.006515,3325.00497 L250.302249,3328.71065 L251.715206,3330.12415 L253.007252,3328.83161 L253.007252,3339 L255.005777,3339 L255.005777,3328.83161 L256.297824,3330.12415 L257.710781,3328.71065 L254.006515,3325.00497 Z M262.281407,3331.70459 C260.525703,3333.21505 258.787985,3333.00213 257.004302,3333.00213 L257.004302,3331.00284 C258.859932,3331.00284 259.724294,3331.13879 260.728553,3330.45203 C263.14477,3328.79962 261.8847,3324.908 258.902901,3325.01496 C257.570884,3318.41131 247.183551,3320.64551 249.247028,3327.4451 C246.618968,3325.35484 243.535244,3331.00284 249.116125,3331.00284 L251.008728,3331.00284 L251.008728,3333.00213 L248.211792,3333.00213 C244.878253,3333.00213 242.823769,3329.44339 244.73236,3326.72236 C245.644687,3325.42282 247.075631,3325.10193 247.075631,3325.10193 C247.735144,3319.99075 253.568838,3317.29171 257.889649,3320.18468 C259.74428,3321.42724 260.44776,3323.24259 260.44776,3323.24259 C264.159021,3324.37019 265.278195,3329.1265 262.281407,3331.70459 L262.281407,3331.70459 Z" id="cloud_up-[#1062]"></path>
            </g>
        </g>
    </g>
</svg>