<?xml version="1.0" encoding="UTF-8" standalone="no"?>
<svg width="20px" height="14px" viewBox="0 0 20 14" version="1.1" xmlns="http://www.w3.org/2000/svg" xmlns:xlink="http://www.w3.org/1999/xlink">
    <!-- Generator: Sketch 3.8.1 (29687) - http://www.bohemiancoding.com/sketch -->
    <title>cloud_minus [#1058]</title>
    <desc>Created with Sketch.</desc>
    <defs></defs>
    <g id="Page-1" stroke="none" stroke-width="1" fill="none" fill-rule="evenodd">
        <g id="Dribbble-Dark-Preview" transform="translate(-60.000000, -3522.000000)" fill="#FFFFFF">
            <g id="icons" transform="translate(56.000000, 160.000000)">
                <path d="M19.0413638,3368 L15.0303334,3368 C14.4768112,3368 14.0275758,3368.448 14.0275758,3369 C14.0275758,3369.552 14.4768112,3370 15.0303334,3370 L19.0413638,3370 C19.5948859,3370 20.0441213,3369.552 20.0441213,3369 C20.0441213,3368.448 19.5948859,3368 19.0413638,3368 M21.8581098,3367.773 C21.4008523,3365.903 19.8415643,3364.416 17.9403359,3364.08 C15.400351,3363.632 12.7530709,3365.266 12.3419403,3367.288 C12.2065681,3367.951 12.1163199,3368.603 12.0561544,3369.125 C11.9989972,3369.628 11.5627977,3370 11.0554024,3370 C10.485836,3370 10.0295813,3369.532 10.0446227,3368.965 L10.0656806,3368.2 C9.73677613,3368.076 9.38480822,3368 9.01378792,3368 C7.17272499,3368 5.71270995,3369.658 6.05565305,3371.555 C6.31837553,3373.009 7.69616445,3374 9.1772374,3374 L16.955628,3374 L17.0358486,3374 L17.0358486,3373.995 C20.1634495,3373.945 22.6542993,3371.031 21.8581098,3367.773 M24,3369 C24,3372.829 21.0468789,3375.935 17.0358486,3375.995 C17.0358486,3375.995 17.0167962,3375.996 17.0057659,3375.997 C17.0167962,3375.997 17.025821,3376 17.0358486,3376 L9.01378792,3376 C6.24517423,3376 4,3373.761 4,3371 C4,3368.239 6.24517423,3366 9.01378792,3366 C9.55627977,3366 10.0686889,3366.108 10.5580346,3366.267 C11.6259714,3363.759 14.1037854,3362 17.0077714,3362 C20.8844322,3362 24,3365.134 24,3369 M17.0358486,3373.984 L17.0358486,3373.995 C17.0087741,3373.996 16.9827024,3374 16.955628,3374 C17.0107796,3374 17.0358486,3373.986 17.0358486,3373.984" id="cloud_minus-[#1058]"></path>
            </g>
        </g>
    </g>
</svg>