<?xml version="1.0" encoding="UTF-8" standalone="no"?>
<svg width="20px" height="14px" viewBox="0 0 20 14" version="1.1" xmlns="http://www.w3.org/2000/svg" xmlns:xlink="http://www.w3.org/1999/xlink">
    <!-- Generator: Sketch 3.8.1 (29687) - http://www.bohemiancoding.com/sketch -->
    <title>cloud_plus [#1053]</title>
    <desc>Created with Sketch.</desc>
    <defs></defs>
    <g id="Page-1" stroke="none" stroke-width="1" fill="none" fill-rule="evenodd">
        <g id="Dribbble-Dark-Preview" transform="translate(-260.000000, -3522.000000)" fill="#FFFFFF">
            <g id="icons" transform="translate(56.000000, 160.000000)">
                <path d="M218.038606,3366 L216.033091,3366 L216.033091,3368 L214.027576,3368 L214.027576,3370 L216.033091,3370 L216.033091,3372 L218.038606,3372 L218.038606,3370 L220.044121,3370 L220.044121,3368 L218.038606,3368 L218.038606,3366 Z M221.85811,3367.773 C221.400852,3365.903 219.841564,3364.416 217.940336,3364.08 C215.400351,3363.632 212.753071,3365.266 212.34194,3367.288 C212.206568,3367.951 212.11632,3368.603 212.056154,3369.125 C211.998997,3369.628 211.562798,3370 211.055402,3370 C210.485836,3370 210.029581,3369.532 210.044623,3368.965 L210.065681,3368.2 C209.736776,3368.076 209.384808,3368 209.013788,3368 C207.172725,3368 205.71271,3369.658 206.055653,3371.555 C206.318376,3373.009 207.696164,3374 209.177237,3374 L216.955628,3374 L217.035849,3374 L217.035849,3373.995 C220.163449,3373.945 222.654299,3371.031 221.85811,3367.773 L221.85811,3367.773 Z M224,3369 C224,3372.829 221.046879,3375.935 217.035849,3375.995 C217.035849,3375.995 217.016796,3375.996 217.005766,3375.997 C217.016796,3375.997 217.025821,3376 217.035849,3376 L209.013788,3376 C206.245174,3376 204,3373.761 204,3371 C204,3368.239 206.245174,3366 209.013788,3366 C209.55628,3366 210.068689,3366.108 210.558035,3366.267 C211.625971,3363.759 214.103785,3362 217.007771,3362 C220.884432,3362 224,3365.134 224,3369 L224,3369 Z M217.035849,3373.984 L217.035849,3373.995 C217.008774,3373.996 216.982702,3374 216.955628,3374 C217.01078,3374 217.035849,3373.986 217.035849,3373.984 L217.035849,3373.984 Z" id="cloud_plus-[#1053]"></path>
            </g>
        </g>
    </g>
</svg>