<?xml version="1.0" encoding="UTF-8" standalone="no"?>
<svg width="21px" height="20px" viewBox="0 0 21 20" version="1.1" xmlns="http://www.w3.org/2000/svg" xmlns:xlink="http://www.w3.org/1999/xlink">
    <!-- Generator: Sketch 3.8.1 (29687) - http://www.bohemiancoding.com/sketch -->
    <title>cloud_down [#1051]</title>
    <desc>Created with Sketch.</desc>
    <defs></defs>
    <g id="Page-1" stroke="none" stroke-width="1" fill="none" fill-rule="evenodd">
        <g id="Dribbble-Dark-Preview" transform="translate(-340.000000, -3519.000000)" fill="#FFFFFF">
            <g id="icons" transform="translate(56.000000, 160.000000)">
                <path d="M302.846321,3362.08771 C299.313978,3357.20984 292.747186,3358.52802 290.729563,3363.22281 C289.499354,3362.82597 288.119876,3362.75075 286.486944,3363.89575 C285.077413,3364.88439 284.103664,3366.43216 284.183808,3368.13827 C284.306028,3370.76276 286.498966,3372.85483 289.186792,3372.85483 L293.193988,3372.85483 C293.743976,3372.85483 294.188774,3372.45898 294.194785,3371.91765 C294.188774,3371.37534 293.743976,3370.87558 293.193988,3370.87558 L289.351087,3370.87558 C287.870428,3370.87558 286.493957,3369.89387 286.231485,3368.45594 C285.88887,3366.57764 287.347489,3364.93783 289.186792,3364.93783 C289.55846,3364.93783 289.910091,3365.01304 290.237679,3365.13476 L290.216642,3365.89182 C290.201615,3366.45294 290.658435,3366.91708 291.226455,3366.91708 C291.733365,3366.91708 292.17015,3366.54894 292.227252,3366.05115 C292.286358,3365.53457 292.377522,3364.88835 292.511763,3364.23222 C293.320215,3360.29451 300.737534,3359.43947 302.038871,3364.71318 C302.512722,3366.63503 301.401727,3368.4312 300.44,3369.58313 C300.290732,3369.76126 300.206581,3369.97898 300.206581,3370.21055 C300.206581,3371.08538 301.277504,3371.52477 301.906634,3370.90922 C304.000393,3368.86367 305.297723,3365.47222 302.846321,3362.08771 L302.846321,3362.08771 Z M294.196789,3371.90776 C294.196789,3371.91072 294.194785,3371.91369 294.194785,3371.91765 C294.194785,3371.92161 294.196789,3371.92458 294.196789,3371.92854 L294.196789,3371.90776 Z M301.209382,3374.60448 C301.209382,3374.99044 301.493892,3375.62182 301.103191,3376.00876 L298.577656,3378.41256 C297.795251,3379.18546 296.526973,3379.21515 295.744568,3378.44225 L293.326226,3376.11366 C292.934522,3375.72672 292.934522,3374.83408 293.325224,3374.83408 L293.324222,3374.83408 C293.714924,3373.84445 294.352068,3374.32739 294.742769,3374.71433 L295.34485,3375.18836 C295.660417,3375.50009 296.200387,3375.27941 296.200387,3374.83804 L296.200387,3364.93783 C296.200387,3364.39056 296.635167,3363.9482 297.188161,3363.9482 L297.19317,3363.9482 C297.746163,3363.9482 298.203985,3364.39056 298.203985,3364.93783 L298.203985,3374.75887 C298.203985,3375.20024 298.742952,3375.42092 299.058519,3375.10919 L299.686647,3374.59657 C300.077349,3374.21061 300.207583,3374.21259 301.209382,3374.59954 L301.209382,3374.60448 Z" id="cloud_down-[#1051]"></path>
            </g>
        </g>
    </g>
</svg>