<?xml version="1.0" encoding="UTF-8" standalone="no"?>
<svg width="20px" height="18px" viewBox="0 0 20 18" version="1.1" xmlns="http://www.w3.org/2000/svg" xmlns:xlink="http://www.w3.org/1999/xlink">
    <!-- Generator: Sketch 3.8.1 (29687) - http://www.bohemiancoding.com/sketch -->
    <title>clouds [#1277]</title>
    <desc>Created with Sketch.</desc>
    <defs></defs>
    <g id="Page-1" stroke="none" stroke-width="1" fill="none" fill-rule="evenodd">
        <g id="Dribbble-Dark-Preview" transform="translate(-260.000000, -2480.000000)" fill="#FFFFFF">
            <g id="icons" transform="translate(56.000000, 160.000000)">
                <path d="M218.543996,2336 C217.990474,2336 217.541238,2336.448 217.541238,2337 C217.541238,2337.552 217.990474,2338 218.543996,2338 C219.097518,2338 219.546754,2337.552 219.546754,2337 C219.546754,2336.448 219.097518,2336 218.543996,2336 M214.532966,2336 C213.979443,2336 213.530208,2336.448 213.530208,2337 C213.530208,2337.552 213.979443,2338 214.532966,2338 C215.086488,2338 215.535723,2337.552 215.535723,2337 C215.535723,2336.448 215.086488,2336 214.532966,2336 M210.521935,2336 C209.968413,2336 209.519178,2336.448 209.519178,2337 C209.519178,2337.552 209.968413,2338 210.521935,2338 C211.075458,2338 211.524693,2337.552 211.524693,2337 C211.524693,2336.448 211.075458,2336 210.521935,2336 M215.837553,2337.995 L215.837553,2337.984 C215.837553,2337.986 215.812484,2338 215.757333,2338 C215.784407,2338 215.810479,2337.996 215.837553,2337.995 M221.872148,2325.773 C221.414891,2323.903 219.869642,2322.416 217.968413,2322.08 C215.428428,2321.632 212.781148,2323.266 212.370018,2325.288 C212.234645,2325.951 212.144397,2326.603 212.084232,2327.125 C212.027074,2327.628 211.590875,2328 211.08348,2328 C210.513913,2328 210.057659,2327.532 210.0727,2326.965 L210.093758,2326.2 C209.764853,2326.076 209.412885,2326 209.041865,2326 C207.200802,2326 205.740787,2327.658 206.08373,2329.555 C206.346453,2331.009 207.724242,2332 209.205315,2332 L216.955628,2332 L216.983705,2332 L217.035849,2332 L217.035849,2331.995 C220.044121,2331.945 222.668338,2329.031 221.872148,2325.773 M224,2327 C224,2330.829 221.046879,2333.935 217.035849,2333.995 C217.035849,2333.995 217.016796,2333.996 217.006769,2333.997 C217.016796,2333.997 217.025821,2334 217.035849,2334 L209.013788,2334 C206.245174,2334 204,2331.761 204,2329 C204,2326.239 206.245174,2324 209.013788,2324 C209.557283,2324 210.069692,2324.108 210.559037,2324.267 C211.625971,2321.759 214.104788,2320 217.008774,2320 C220.885435,2320 224,2323.134 224,2327 M217.035849,2331.984 L217.035849,2331.995 C217.008774,2331.996 216.982702,2332 216.955628,2332 C217.01078,2332 217.035849,2331.986 217.035849,2331.984" id="clouds-[#1277]"></path>
            </g>
        </g>
    </g>
</svg>