<?xml version="1.0" encoding="UTF-8" standalone="no"?>
<svg width="20px" height="14px" viewBox="0 0 20 14" version="1.1" xmlns="http://www.w3.org/2000/svg" xmlns:xlink="http://www.w3.org/1999/xlink">
    <!-- Generator: Sketch 3.8.1 (29687) - http://www.bohemiancoding.com/sketch -->
    <title>clouds [#1274]</title>
    <desc>Created with Sketch.</desc>
    <defs></defs>
    <g id="Page-1" stroke="none" stroke-width="1" fill="none" fill-rule="evenodd">
        <g id="Dribbble-Dark-Preview" transform="translate(-380.000000, -2482.000000)" fill="#FFFFFF">
            <g id="icons" transform="translate(56.000000, 160.000000)">
                <path d="M341.85811,2327.773 C341.400852,2325.902 339.841564,2324.416 337.940336,2324.08 C335.400351,2323.631 332.753071,2325.265 332.34194,2327.287 C332.207571,2327.95 332.11632,2328.603 332.057157,2329.125 C332,2329.628 331.562798,2330 331.055402,2330 L331.055402,2330 C330.486839,2330 330.029581,2329.531 330.045625,2328.964 L330.065681,2328.199 C329.737779,2328.076 329.385811,2328 329.013788,2328 C327.172725,2328 325.71271,2329.657 326.055653,2331.554 C326.319378,2333.008 327.696164,2334 329.177237,2334 L336.955628,2334 L337.035849,2334 L337.035849,2333.995 C340.163449,2333.945 342.654299,2331.031 341.85811,2327.773 M344,2329 C344,2332.828 341.046879,2335.934 337.035849,2335.994 C337.035849,2335.994 337.016796,2335.996 337.006769,2335.997 C337.016796,2335.997 337.025821,2336 337.035849,2336 L329.013788,2336 C326.245174,2336 324,2333.761 324,2331 C324,2328.238 326.245174,2326 329.013788,2326 C329.55628,2326 330.069692,2326.108 330.558035,2326.267 C331.625971,2323.759 334.103785,2322 337.008774,2322 C340.885435,2322 344,2325.133 344,2329 M337.035849,2333.983 L337.035849,2333.995 C337.008774,2333.995 336.982702,2334 336.955628,2334 C337.01078,2334 337.035849,2333.985 337.035849,2333.983" id="clouds-[#1274]"></path>
            </g>
        </g>
    </g>
</svg>