<?xml version="1.0" encoding="UTF-8" standalone="no"?>
<svg width="23px" height="22px" viewBox="0 0 23 22" version="1.1" xmlns="http://www.w3.org/2000/svg" xmlns:xlink="http://www.w3.org/1999/xlink">
    <!-- Generator: Sketch 3.8.1 (29687) - http://www.bohemiancoding.com/sketch -->
    <title>clouds_sun [#1273]</title>
    <desc>Created with Sketch.</desc>
    <defs></defs>
    <g id="Page-1" stroke="none" stroke-width="1" fill="none" fill-rule="evenodd">
        <g id="Dribbble-Dark-Preview" transform="translate(-417.000000, -2477.000000)" fill="#FFFFFF">
            <g id="icons" transform="translate(56.000000, 160.000000)">
                <path d="M363.929,2321.29008 C363.538,2320.89987 363.538,2320.26813 363.929,2319.87892 C364.32,2319.4887 364.953,2319.4887 365.343,2319.87892 C365.734,2320.26813 365.734,2320.89987 365.343,2321.29008 C364.953,2321.6803 364.32,2321.6803 363.929,2321.29008 M376.657,2321.29008 C376.266,2320.89987 376.266,2320.26813 376.657,2319.87892 C377.047,2319.4887 377.681,2319.4887 378.071,2319.87892 C378.462,2320.26813 378.462,2320.89987 378.071,2321.29008 C377.681,2321.6803 377.047,2321.6803 376.657,2321.29008 M363,2326.93574 C363,2327.48663 362.552,2327.93373 362,2327.93373 C361.448,2327.93373 361,2327.48663 361,2326.93574 C361,2326.38484 361.448,2325.93774 362,2325.93774 C362.552,2325.93774 363,2326.38484 363,2326.93574 M370,2317.95379 C370,2317.40289 370.448,2316.95579 371,2316.95579 C371.552,2316.95579 372,2317.40289 372,2317.95379 C372,2318.50468 371.552,2318.95178 371,2318.95178 C370.448,2318.95178 370,2318.50468 370,2317.95379 M380.727,2336.36579 C379.604,2337.13125 379.625,2336.91568 368.117,2336.91568 C367.632,2336.91568 367.162,2336.757 366.789,2336.48056 C364.707,2334.93666 367.1,2331.66823 369.237,2333.36282 C368.216,2330.00856 370.796,2326.93574 373.997,2326.93574 C376.456,2326.93574 378.459,2328.75608 378.9,2330.93769 C381.889,2330.82991 383.134,2334.72309 380.727,2336.36579 M371,2321.94576 C373.127,2321.94576 374.935,2323.28308 375.657,2325.15531 C375.124,2325.02557 374.573,2324.93975 374,2324.93975 C372.22,2324.93975 370.597,2325.60242 369.364,2326.69522 C368.333,2327.60739 367.58,2328.82195 367.229,2330.19718 C366.467,2329.32194 366,2328.18423 366,2326.93574 C366,2324.18427 368.243,2321.94576 371,2321.94576 M380.446,2329.16825 C380.44,2329.16725 380.436,2329.16426 380.432,2329.16027 C380.428,2329.15727 380.425,2329.15328 380.423,2329.14829 C379.896,2327.93772 379.033,2326.90879 377.956,2326.16928 C377.573,2322.6723 374.606,2319.94977 371,2319.94977 C367.134,2319.94977 364,2323.07749 364,2326.93574 C364,2328.73312 364.693,2330.36085 365.812,2331.59737 C362.453,2333.79196 364.049,2338.91167 368.201,2338.91167 C379.26,2338.91167 380.289,2339.32584 382.281,2337.61627 C385.278,2335.04444 384.164,2330.29499 380.446,2329.16825" id="clouds_sun-[#1273]"></path>
            </g>
        </g>
    </g>
</svg>