<?xml version="1.0" encoding="UTF-8" standalone="no"?>
<svg width="20px" height="19px" viewBox="0 0 20 19" version="1.1" xmlns="http://www.w3.org/2000/svg" xmlns:xlink="http://www.w3.org/1999/xlink">
    <!-- Generator: Sketch 3.8.1 (29687) - http://www.bohemiancoding.com/sketch -->
    <title>cloud_message [#1565]</title>
    <desc>Created with Sketch.</desc>
    <defs></defs>
    <g id="Page-1" stroke="none" stroke-width="1" fill="none" fill-rule="evenodd">
        <g id="Dribbble-Dark-Preview" transform="translate(-220.000000, -960.000000)" fill="#FFFFFF">
            <g id="icons" transform="translate(56.000000, 160.000000)">
                <path d="M178.91347,812.264851 L175.59447,812.264851 C175.07947,812.264851 174.58347,812.468243 174.21147,812.832101 L170.84647,816.124191 C170.52847,816.435923 170.00047,816.204935 170.00047,815.755223 L170.00047,813.286922 C170.00047,812.722739 169.55247,812.264851 169.00047,812.264851 C168.00047,812.264851 166.37847,812.332308 166.04247,810.644869 C165.67447,808.790832 167.76547,807.430456 169.23747,808.627301 C167.18547,801.719123 177.55447,799.325433 178.90047,806.142646 C178.91747,806.142646 178.93347,806.13958 178.95047,806.137536 C178.96647,806.13447 178.98347,806.132426 179.00047,806.132426 C182.87047,806.132426 183.08747,812.264851 178.91347,812.264851 M180.44647,804.330515 C180.44047,804.329492 180.43647,804.326426 180.43247,804.32336 C180.42847,804.319272 180.42547,804.315183 180.42347,804.310073 C179.34147,801.763072 176.86547,800 174.00047,800 C170.44047,800 167.50847,802.717687 167.06447,806.231566 C167.06347,806.239743 167.06047,806.246898 167.05547,806.252008 C167.05047,806.25814 167.04347,806.262229 167.03647,806.264273 C165.13147,806.747712 163.76247,808.612992 164.03447,810.764451 C164.26047,812.548987 165.69447,813.965577 167.54947,814.246647 C167.80347,814.284463 168.00047,814.490922 168.00047,814.753594 L168.00047,816.952068 C168.00047,818.772377 170.15447,819.685086 171.41447,818.397277 L175.12147,814.60846 C175.30947,814.41631 175.56347,814.308993 175.82847,814.308993 L178.77047,814.308993 C181.40647,814.308993 183.75847,812.32822 183.98147,809.643239 C184.18647,807.180048 182.66247,805.01939 180.44647,804.330515" id="cloud_message-[#1565]"></path>
            </g>
        </g>
    </g>
</svg>