<?xml version="1.0" encoding="UTF-8" standalone="no"?>
<svg width="20px" height="20px" viewBox="0 0 20 20" version="1.1" xmlns="http://www.w3.org/2000/svg" xmlns:xlink="http://www.w3.org/1999/xlink">
    <!-- Generator: Sketch 3.8.1 (29687) - http://www.bohemiancoding.com/sketch -->
    <title>clouds [#1266]</title>
    <desc>Created with Sketch.</desc>
    <defs></defs>
    <g id="Page-1" stroke="none" stroke-width="1" fill="none" fill-rule="evenodd">
        <g id="Dribbble-Dark-Preview" transform="translate(-300.000000, -2519.000000)" fill="#FFFFFF">
            <g id="icons" transform="translate(56.000000, 160.000000)">
                <path d="M249.748715,2375.879 C250.139986,2376.27 250.139986,2376.903 249.748715,2377.293 L248.333737,2378.707 C247.942467,2379.098 247.309029,2379.098 246.918759,2378.707 C246.527489,2378.317 246.527489,2377.684 246.918759,2377.293 L248.333737,2375.879 C248.724007,2375.488 249.357445,2375.488 249.748715,2375.879 M260.584204,2375.879 C260.975475,2376.27 260.975475,2376.903 260.584204,2377.293 L259.169226,2378.707 C258.778957,2379.098 258.145519,2379.098 257.754248,2378.707 C257.362978,2378.317 257.362978,2377.684 257.754248,2377.293 L259.169226,2375.879 C259.560497,2375.488 260.193935,2375.488 260.584204,2375.879 M255.16646,2375.879 C255.55773,2376.27 255.55773,2376.903 255.16646,2377.293 L253.751482,2378.707 C253.360211,2379.098 252.726774,2379.098 252.336504,2378.707 C251.945233,2378.317 251.945233,2377.684 252.336504,2377.293 L253.751482,2375.879 C254.142752,2375.488 254.77619,2375.488 255.16646,2375.879 M258.949074,2371 L258.930061,2371 L258.911048,2371 L248.126594,2371 C246.569518,2371 245.519793,2369.478 246.224279,2368.103 C246.769656,2367.037 248.193641,2366.604 249.247369,2367.441 C248.64095,2365.444 249.337431,2363.433 250.776426,2362.199 C251.647027,2361.452 252.776808,2361 254.013663,2361 C256.467359,2361 258.469743,2362.796 258.917052,2365.01 C258.934064,2365.01 258.950075,2365.007 258.967087,2365.005 C258.983098,2365.003 259.000109,2365 259.017121,2365 C262.896803,2365 263.089936,2371 258.949074,2371 M260.464121,2363.238 C260.458117,2363.236 260.454114,2363.233 260.450112,2363.23 C260.446109,2363.226 260.443107,2363.222 260.441105,2363.217 C259.358357,2360.725 256.880645,2359 254.013663,2359 C252.232432,2359 250.608309,2359.665 249.374457,2360.759 C248.139603,2361.854 247.295019,2363.378 247.072866,2365.097 C247.071865,2365.105 247.068863,2365.112 247.06386,2365.118 C247.058856,2365.123 247.051851,2365.127 247.044847,2365.129 C246.092188,2365.366 245.273622,2365.94 244.726244,2366.719 C242.860955,2369.374 244.791289,2373 248.210652,2373 L258.786962,2373 C264.767095,2373 265.969927,2364.909 260.464121,2363.238" id="clouds-[#1266]"></path>
            </g>
        </g>
    </g>
</svg>