<?xml version="1.0" encoding="UTF-8" standalone="no"?>
<svg width="20px" height="20px" viewBox="0 0 20 20" version="1.1" xmlns="http://www.w3.org/2000/svg" xmlns:xlink="http://www.w3.org/1999/xlink">
    <!-- Generator: Sketch 3.8.1 (29687) - http://www.bohemiancoding.com/sketch -->
    <title>cloud_connection [#1075]</title>
    <desc>Created with Sketch.</desc>
    <defs></defs>
    <g id="Page-1" stroke="none" stroke-width="1" fill="none" fill-rule="evenodd">
        <g id="Dribbble-Dark-Preview" transform="translate(-180.000000, -3439.000000)" fill="#FFFFFF">
            <g id="icons" transform="translate(56.000000, 160.000000)">
                <path d="M143.096548,3285.15356 C142.459107,3284.24161 141.522457,3283.55289 140.430701,3283.22155 C140.407685,3283.21454 140.401681,3283.18751 140.407685,3283.20053 C137.589731,3276.70475 127.946047,3278.06017 127.039419,3285.08249 C127.035416,3285.12053 126.980378,3285.12253 127.011399,3285.11452 C122.512281,3286.23369 123.179744,3292.99374 128.177207,3292.99374 C129.549158,3292.99374 130.978149,3293.25201 130.978149,3291.99269 C130.978149,3289.76237 126.62313,3292.38711 126.017711,3289.405 C125.647454,3287.5841 127.744908,3286.26072 129.213926,3287.42894 C127.165506,3280.6779 137.534693,3278.30943 138.883628,3284.9954 C142.82536,3284.85425 143.132573,3290.99165 138.896637,3290.99165 L137.983004,3290.99165 C136.661088,3290.99165 136.659086,3292.99374 137.983004,3292.99374 C143.57488,3292.99374 145.243036,3288.22276 143.096548,3285.15356 M139.072759,3297.99896 C139.072759,3298.55153 138.624449,3299 138.072066,3299 L129.889394,3299 C129.337011,3299 128.888701,3298.55153 128.888701,3297.99896 C128.888701,3297.44638 129.337011,3296.99791 129.889394,3296.99791 L132.979536,3296.99791 L132.979536,3285.80925 C132.979536,3285.25667 133.427847,3284.8082 133.98023,3284.8082 C134.533613,3284.8082 134.980923,3285.25667 134.980923,3285.80925 L134.980923,3296.99791 L138.072066,3296.99791 C138.624449,3296.99791 139.072759,3297.44638 139.072759,3297.99896" id="cloud_connection-[#1075]"></path>
            </g>
        </g>
    </g>
</svg>