<?xml version="1.0" encoding="UTF-8" standalone="no"?>
<svg width="20px" height="18px" viewBox="0 0 20 18" version="1.1" xmlns="http://www.w3.org/2000/svg" xmlns:xlink="http://www.w3.org/1999/xlink">
    <!-- Generator: Sketch 3.8.1 (29687) - http://www.bohemiancoding.com/sketch -->
    <title>clouds [#1265]</title>
    <desc>Created with Sketch.</desc>
    <defs></defs>
    <g id="Page-1" stroke="none" stroke-width="1" fill="none" fill-rule="evenodd">
        <g id="Dribbble-Dark-Preview" transform="translate(-340.000000, -2520.000000)" fill="#FFFFFF">
            <g id="icons" transform="translate(56.000000, 160.000000)">
                <path d="M298.995834,2376.97995 C298.995834,2377.54302 298.547522,2378 297.995138,2378 C297.442753,2378 296.994441,2377.54302 296.994441,2376.97995 C296.994441,2376.41688 297.442753,2375.95989 297.995138,2375.95989 C298.547522,2375.95989 298.995834,2376.41688 298.995834,2376.97995 M294.993048,2376.97995 C294.993048,2377.54302 294.544736,2378 293.992351,2378 C293.439967,2378 292.991655,2377.54302 292.991655,2376.97995 C292.991655,2376.41688 293.439967,2375.95989 293.992351,2375.95989 C294.544736,2375.95989 294.993048,2376.41688 294.993048,2376.97995 M290.990262,2376.97995 C290.990262,2377.54302 290.541949,2378 289.989565,2378 C289.43718,2378 288.988868,2377.54302 288.988868,2376.97995 C288.988868,2376.41688 289.43718,2375.95989 289.989565,2375.95989 C290.541949,2375.95989 290.990262,2376.41688 290.990262,2376.97995 M300.724037,2371.65731 C299.629275,2372.42031 299.789387,2372.21936 288.105253,2372.21936 C287.619915,2372.21936 287.149588,2372.05819 286.776328,2371.77462 C284.653851,2370.16702 287.139581,2366.89877 289.226033,2368.58899 C287.257663,2361.97905 297.492788,2359.02498 298.895765,2366.11027 C301.888848,2366.0001 303.128711,2369.98239 300.724037,2371.65731 M300.442842,2364.30171 C300.419826,2364.29457 300.413822,2364.26703 300.419826,2364.28029 C297.601864,2357.66117 287.958151,2359.04232 287.05152,2366.19799 C287.050519,2366.20615 287.047517,2366.21329 287.042513,2366.21941 C287.03751,2366.22451 287.030505,2366.22859 287.0235,2366.23063 C282.510359,2367.37513 283.17282,2374.25947 288.189312,2374.25947 C299.46316,2374.25947 300.318755,2374.65423 302.27912,2372.93646 C305.277207,2370.30778 304.163432,2365.45335 300.442842,2364.30171" id="clouds-[#1265]"></path>
            </g>
        </g>
    </g>
</svg>