<?xml version="1.0" encoding="UTF-8" standalone="no"?>
<svg width="20px" height="20px" viewBox="0 0 20 20" version="1.1" xmlns="http://www.w3.org/2000/svg" xmlns:xlink="http://www.w3.org/1999/xlink">
    <!-- Generator: Sketch 3.8.1 (29687) - http://www.bohemiancoding.com/sketch -->
    <title>cloud_up [#1050]</title>
    <desc>Created with Sketch.</desc>
    <defs></defs>
    <g id="Page-1" stroke="none" stroke-width="1" fill="none" fill-rule="evenodd">
        <g id="Dribbble-Dark-Preview" transform="translate(-380.000000, -3519.000000)" fill="#FFFFFF">
            <g id="icons" transform="translate(56.000000, 160.000000)">
                <path d="M330.551465,3363.25609 C330.06261,3363.09698 329.550714,3362.9889 329.008765,3362.9889 C326.241923,3362.9889 324,3365.22845 324,3367.99237 C324,3370.75528 326.241923,3372.99584 329.008765,3372.99584 L334.017531,3372.99584 L334.017531,3370.99445 L329.172051,3370.99445 C327.692462,3370.99445 326.316053,3370.00176 326.053594,3368.54675 C325.710994,3366.64844 327.169547,3364.99029 329.008765,3364.99029 C329.379414,3364.99029 329.731029,3365.06634 330.059604,3365.18943 L330.038567,3365.95496 C330.023541,3366.52235 330.479339,3366.99168 331.048335,3366.99168 C331.555222,3366.99168 331.990984,3366.61942 332.048084,3366.11607 C332.108189,3365.59371 332.198347,3364.94025 332.333584,3364.27679 C333.141998,3360.29503 340.557976,3359.43043 341.860255,3364.76313 C342.373153,3366.86559 341.029802,3368.81994 340.028049,3369.95973 L340.028049,3372.31837 C342.031555,3371.19859 344,3368.79092 344,3365.99098 C344,3358.39071 333.523666,3356.26024 330.551465,3363.25609 L330.551465,3363.25609 Z M340.543952,3367.52705 L339.147508,3368.94203 L338.024543,3367.78022 L338.024543,3379 L336.021037,3379 L336.021037,3367.86028 L334.900075,3368.94203 L333.446531,3367.52705 L336.992737,3363.9896 L340.543952,3367.52705 Z" id="cloud_up-[#1050]"></path>
            </g>
        </g>
    </g>
</svg>