<?xml version="1.0" encoding="UTF-8" standalone="no"?>
<svg width="20px" height="20px" viewBox="0 0 20 20" version="1.1" xmlns="http://www.w3.org/2000/svg" xmlns:xlink="http://www.w3.org/1999/xlink">
    <!-- Generator: Sketch 3.8.1 (29687) - http://www.bohemiancoding.com/sketch -->
    <title>cloud_connection [#1074]</title>
    <desc>Created with Sketch.</desc>
    <defs></defs>
    <g id="Page-1" stroke="none" stroke-width="1" fill="none" fill-rule="evenodd">
        <g id="Dribbble-Dark-Preview" transform="translate(-220.000000, -3439.000000)" fill="#FFFFFF">
            <g id="icons" transform="translate(56.000000, 160.000000)">
                <path d="M177.983004,3293 C176.659086,3293 176.661088,3291 177.983004,3291 L178.896637,3291 C183.132573,3291 182.82536,3284.868 178.883628,3285.01 C177.499669,3278.158 167.224547,3280.893 169.213926,3287.441 C167.740905,3286.271 165.648455,3287.6 166.01671,3289.415 C166.62313,3292.394 170.978149,3289.772 170.978149,3292 C170.978149,3293.258 169.549158,3293 168.177207,3293 C163.179744,3293 162.512281,3286.247 167.011399,3285.129 C166.980378,3285.136 167.034415,3285.134 167.039419,3285.097 C167.483727,3281.659 170.41776,3279 173.98023,3279 C176.847217,3279 179.324934,3280.725 180.407685,3283.217 C180.401681,3283.204 180.407685,3283.23 180.430701,3283.237 C181.522457,3283.569 182.459107,3284.257 183.096548,3285.168 C185.243036,3288.234 183.57488,3293 177.983004,3293 M173.98023,3297 C173.427847,3297 172.979536,3296.552 172.979536,3296 C172.979536,3295.448 173.427847,3295 173.98023,3295 C174.532613,3295 174.980923,3295.448 174.980923,3296 C174.980923,3296.552 174.532613,3297 173.98023,3297 M174.980923,3293 L174.980923,3291 L174.980923,3286 C174.980923,3285.448 174.532613,3285 173.98023,3285 C173.427847,3285 172.979536,3285.448 172.979536,3286 L172.979536,3291 L172.979536,3293 C171.87377,3293 170.978149,3293.895 170.978149,3295 L170.978149,3297 C170.978149,3298.105 171.87377,3299 172.979536,3299 L174.980923,3299 C176.08669,3299 176.98231,3298.105 176.98231,3297 L176.98231,3295 C176.98231,3293.895 176.08669,3293 174.980923,3293" id="cloud_connection-[#1074]"></path>
            </g>
        </g>
    </g>
</svg>