<?xml version="1.0" encoding="UTF-8" standalone="no"?>
<svg width="20px" height="14px" viewBox="0 0 20 14" version="1.1" xmlns="http://www.w3.org/2000/svg" xmlns:xlink="http://www.w3.org/1999/xlink">
    <!-- Generator: Sketch 3.8.1 (29687) - http://www.bohemiancoding.com/sketch -->
    <title>cloud_minus [#1070]</title>
    <desc>Created with Sketch.</desc>
    <defs></defs>
    <g id="Page-1" stroke="none" stroke-width="1" fill="none" fill-rule="evenodd">
        <g id="Dribbble-Dark-Preview" transform="translate(-380.000000, -3442.000000)" fill="#FFFFFF">
            <g id="icons" transform="translate(56.000000, 160.000000)">
                <path d="M340.445471,3286.24056 C340.445471,3286.24056 339.742471,3284.42356 337.886471,3283.18156 C333.604471,3280.31456 327.730471,3282.93956 327.064471,3288.09956 C327.059471,3288.13756 327.004471,3288.13956 327.035471,3288.13156 C325.131471,3288.60556 323.762471,3290.43056 324.034471,3292.53556 C324.400471,3295.37256 327.999471,3296.82556 327.999471,3294.94756 C327.999471,3293.79256 327.579471,3294.15456 326.788471,3293.56656 C324.703471,3292.01656 327.105471,3288.75056 329.236471,3290.44356 C327.928471,3286.13556 332.486471,3282.55056 336.312471,3284.57756 C337.676471,3285.29956 338.617471,3286.61356 338.899471,3288.01356 C341.735471,3287.91156 343.418471,3291.78256 340.483471,3293.55456 C340.186471,3293.73356 339.999471,3294.05556 339.999471,3294.40256 C339.999471,3295.13956 340.790471,3295.65056 341.434471,3295.29256 C341.736471,3295.12556 342.020471,3294.92956 342.280471,3294.70556 C345.277471,3292.12856 344.163471,3287.36956 340.445471,3286.24056 M337.999471,3295.17256 L337.999471,3295.11556 C337.999471,3295.12256 337.996471,3295.12756 337.996471,3295.13356 C337.996471,3295.14656 337.999471,3295.15956 337.999471,3295.17256 M337.996471,3295.13356 C337.985471,3295.67456 337.545471,3296.00356 337.000471,3296.00356 L330.999471,3296.00356 C329.442471,3296.00356 329.909471,3294.00356 330.999471,3294.00356 L337.000471,3294.00356 C337.539471,3294.00356 337.976471,3294.59156 337.996471,3295.13356" id="cloud_minus-[#1070]"></path>
            </g>
        </g>
    </g>
</svg>