<?xml version="1.0" encoding="UTF-8" standalone="no"?>
<svg width="20px" height="20px" viewBox="0 0 20 20" version="1.1" xmlns="http://www.w3.org/2000/svg" xmlns:xlink="http://www.w3.org/1999/xlink">
    <!-- Generator: Sketch 3.8.1 (29687) - http://www.bohemiancoding.com/sketch -->
    <title>cloud_down [#1060]</title>
    <desc>Created with Sketch.</desc>
    <defs></defs>
    <g id="Page-1" stroke="none" stroke-width="1" fill="none" fill-rule="evenodd">
        <g id="Dribbble-Dark-Preview" transform="translate(-380.000000, -3479.000000)" fill="#FFFFFF">
            <g id="icons" transform="translate(56.000000, 160.000000)">
                <path d="M335.012169,3335.16807 L335.012169,3324.98562 L333.010357,3324.98562 L333.010357,3335.16807 L331.716185,3333.87374 L330.300904,3335.28919 L334.011263,3339 L337.721622,3335.28919 L336.306341,3333.87374 L335.012169,3335.16807 Z M338.785585,3332.99384 L337.013982,3332.99384 L337.013982,3330.99178 L338.909698,3330.99178 C343.169554,3330.99178 342.863277,3324.85348 338.915703,3324.99563 C337.511432,3318.03648 327.275165,3320.94347 329.243947,3327.42912 C327.772615,3326.25992 325.676718,3327.58428 326.046052,3329.40515 C326.422393,3331.25305 328.459237,3330.99178 330.282888,3330.99178 L331.008545,3330.99178 L331.008545,3332.99384 C328.302095,3332.99384 326.944866,3333.23408 325.453516,3332.01883 C323.727954,3330.61439 323.610847,3328.28901 324.721853,3326.70538 C325.635681,3325.40405 327.068978,3325.08272 327.068978,3325.08272 C327.975799,3318.05951 337.621532,3316.70512 340.440083,3323.20078 C340.434078,3323.18777 340.440083,3323.2148 340.463104,3323.22081 C345.91504,3324.87751 344.838065,3332.99384 338.785585,3332.99384 L338.785585,3332.99384 Z" id="cloud_down-[#1060]"></path>
            </g>
        </g>
    </g>
</svg>