<?xml version="1.0" encoding="UTF-8" standalone="no"?>
<svg width="20px" height="14px" viewBox="0 0 20 14" version="1.1" xmlns="http://www.w3.org/2000/svg" xmlns:xlink="http://www.w3.org/1999/xlink">
    <!-- Generator: Sketch 3.8.1 (29687) - http://www.bohemiancoding.com/sketch -->
    <title>cloud [#1076]</title>
    <desc>Created with Sketch.</desc>
    <defs></defs>
    <g id="Page-1" stroke="none" stroke-width="1" fill="none" fill-rule="evenodd">
        <g id="Dribbble-Dark-Preview" transform="translate(-140.000000, -3442.000000)" fill="#FFFFFF">
            <g id="icons" transform="translate(56.000000, 160.000000)">
                <path d="M98.8968326,3293.97071 C88.4628326,3293.97071 87.7908326,3294.27678 86.7908326,3293.53604 C84.6948326,3291.98278 87.1428326,3288.76062 89.2388326,3290.42255 C87.1828326,3283.66917 97.5638326,3281.38814 98.9018326,3287.99895 C102.844833,3287.85838 103.156833,3293.97071 98.8968326,3293.97071 M100.447833,3286.23135 C100.447833,3286.23135 99.7448326,3284.42088 97.8888326,3283.18166 C93.5658326,3280.29647 87.7268326,3282.98725 87.0668326,3288.08569 C87.0618326,3288.12257 87.0078326,3288.12457 87.0378326,3288.11759 C86.0858326,3288.35287 85.2678326,3288.92612 84.7218326,3289.70175 C83.6068326,3291.28492 83.7338326,3293.59885 85.4518326,3294.99359 C87.0438326,3296.28564 87.5318326,3295.96462 98.7728326,3295.96462 C100.090833,3295.96462 101.337833,3295.4811 102.282833,3294.67058 C105.282833,3292.09943 104.160833,3287.35591 100.447833,3286.23135" id="cloud-[#1076]"></path>
            </g>
        </g>
    </g>
</svg>