<?xml version="1.0" encoding="UTF-8" standalone="no"?>
<svg width="20px" height="14px" viewBox="0 0 20 14" version="1.1" xmlns="http://www.w3.org/2000/svg" xmlns:xlink="http://www.w3.org/1999/xlink">
    <!-- Generator: Sketch 3.8.1 (29687) - http://www.bohemiancoding.com/sketch -->
    <title>cloud_plus [#1055]</title>
    <desc>Created with Sketch.</desc>
    <defs></defs>
    <g id="Page-1" stroke="none" stroke-width="1" fill="none" fill-rule="evenodd">
        <g id="Dribbble-Dark-Preview" transform="translate(-181.000000, -3522.000000)" fill="#FFFFFF">
            <g id="icons" transform="translate(56.000000, 160.000000)">
                <path d="M140.041364,3367.9916 L139.038606,3367.9916 L139.038606,3366.99055 C139.038606,3366.43797 138.589371,3365.9895 138.035849,3365.9895 C137.482326,3365.9895 137.033091,3366.43797 137.033091,3366.99055 L137.033091,3367.9916 L136.030333,3367.9916 C135.476811,3367.9916 135.027576,3368.44007 135.027576,3368.99265 C135.027576,3369.54523 135.476811,3369.9937 136.030333,3369.9937 L137.033091,3369.9937 L137.033091,3370.99475 C137.033091,3371.54733 137.482326,3371.9958 138.035849,3371.9958 C138.589371,3371.9958 139.038606,3371.54733 139.038606,3370.99475 L139.038606,3369.9937 L140.041364,3369.9937 C140.594886,3369.9937 141.044121,3369.54523 141.044121,3368.99265 C141.044121,3368.44007 140.594886,3367.9916 140.041364,3367.9916 M142.85811,3367.76436 C141.548508,3362.40374 134.146152,3363.31669 133.34194,3367.27885 C133.206568,3367.94255 133.11632,3368.59523 133.056154,3369.11778 C132.998997,3369.62131 132.562798,3369.9937 132.055402,3369.9937 C131.485836,3369.9937 131.029581,3369.52521 131.044623,3368.95761 L131.065681,3368.19181 C130.736776,3368.06768 130.384808,3367.9916 130.013788,3367.9916 C128.172725,3367.9916 126.71271,3369.65134 127.055653,3371.55033 C127.318376,3373.00586 128.696164,3373.9979 130.177237,3373.9979 L137.955628,3373.9979 L138.035849,3373.9979 L138.035849,3373.99289 C141.163449,3373.94284 143.654299,3371.02578 142.85811,3367.76436 M145,3368.99265 C145,3372.82567 142.046879,3375.93493 138.035849,3375.99499 C138.035849,3375.99499 138.016796,3375.996 138.005766,3375.997 C138.016796,3375.997 138.025821,3376 138.035849,3376 L130.013788,3376 C127.245174,3376 125,3373.75865 125,3370.99475 C125,3368.23085 127.245174,3365.9895 130.013788,3365.9895 C130.55628,3365.9895 131.068689,3366.09761 131.558035,3366.25678 C134.523189,3359.28346 145,3361.35764 145,3368.99265 M138.035849,3373.98188 L138.035849,3373.99289 C138.008774,3373.9939 137.982702,3373.9979 137.955628,3373.9979 C138.01078,3373.9979 138.035849,3373.98388 138.035849,3373.98188" id="cloud_plus-[#1055]"></path>
            </g>
        </g>
    </g>
</svg>