<?xml version="1.0" encoding="UTF-8" standalone="no"?>
<svg width="20px" height="20px" viewBox="0 0 20 20" version="1.1" xmlns="http://www.w3.org/2000/svg" xmlns:xlink="http://www.w3.org/1999/xlink">
    <!-- Generator: Sketch 3.8.1 (29687) - http://www.bohemiancoding.com/sketch -->
    <title>clouds [#1263]</title>
    <desc>Created with Sketch.</desc>
    <defs></defs>
    <g id="Page-1" stroke="none" stroke-width="1" fill="none" fill-rule="evenodd">
        <g id="Dribbble-Dark-Preview" transform="translate(-420.000000, -2519.000000)" fill="#FFFFFF">
            <g id="icons" transform="translate(56.000000, 160.000000)">
                <path d="M376.983696,2374.00175 L376.983696,2373.98976 C376.983696,2373.99176 376.958728,2374.00674 376.903798,2374.00674 C376.930763,2374.00674 376.95673,2374.00175 376.983696,2374.00175 L376.983696,2374.00674 L376.903798,2374.00674 L369.156675,2374.00674 C367.681556,2374.00674 366.309306,2373.01598 366.047639,2371.56479 C365.706075,2369.66916 367.160221,2368.01423 368.993883,2368.01423 C369.363412,2368.01423 369.713965,2368.09014 370.041547,2368.21298 L370.020574,2368.97703 C370.005593,2369.54332 370.460013,2370.01174 371.02729,2370.01174 C371.532646,2370.01174 371.967092,2369.6402 372.024019,2369.13783 C372.083943,2368.61648 372.173828,2367.96429 372.308656,2367.30212 C372.718134,2365.28265 375.354773,2363.65069 377.884547,2364.09913 C379.778133,2364.43471 381.331153,2365.91885 381.786572,2367.78752 C382.579561,2371.04145 379.979876,2373.95181 376.983696,2374.00175 M381.050511,2363.36105 L383.707123,2360.70437 C384.097626,2360.31486 384.097626,2359.68265 383.707123,2359.29213 C383.31762,2358.90262 382.685426,2358.90262 382.294924,2359.29213 L379.192879,2362.39426 C378.490774,2362.15655 377.740731,2362.02172 376.95673,2362.02172 C374.063419,2362.02172 371.595566,2363.77853 370.531922,2366.2834 C369.305486,2365.8829 367.931238,2365.80699 366.304312,2366.96055 C364.873137,2367.97528 363.899378,2369.57828 364.010237,2371.32809 C364.115103,2372.98002 365.028938,2374.40424 366.354248,2375.23321 L364.292877,2377.29463 C363.902374,2377.68514 363.902374,2378.31735 364.292877,2378.70787 C364.68238,2379.09738 365.315573,2379.09738 365.705076,2378.70787 L368.46256,2375.95031 C368.639335,2375.96929 368.812115,2376.00424 368.993883,2376.00424 L376.983696,2376.00424 C376.973709,2376.00424 376.96472,2376.00125 376.954733,2376.00125 C376.96472,2376.00025 376.983696,2375.99825 376.983696,2375.99825 C380.978602,2375.93933 383.919852,2372.8362 383.919852,2369.01298 C383.919852,2366.68689 382.789294,2364.63246 381.050511,2363.36105" id="clouds-[#1263]"></path>
            </g>
        </g>
    </g>
</svg>