<?xml version="1.0" encoding="UTF-8" standalone="no"?>
<svg width="20px" height="17px" viewBox="0 0 20 17" version="1.1" xmlns="http://www.w3.org/2000/svg" xmlns:xlink="http://www.w3.org/1999/xlink">
    <!-- Generator: Sketch 3.8.1 (29687) - http://www.bohemiancoding.com/sketch -->
    <title>cloud_plus [#1066]</title>
    <desc>Created with Sketch.</desc>
    <defs></defs>
    <g id="Page-1" stroke="none" stroke-width="1" fill="none" fill-rule="evenodd">
        <g id="Dribbble-Dark-Preview" transform="translate(-140.000000, -3481.000000)" fill="#FFFFFF">
            <g id="icons" transform="translate(56.000000, 160.000000)">
                <path d="M100.456466,3325.2428 C100.456466,3325.2428 99.7534658,3323.42662 97.8974658,3322.18519 C93.5734658,3319.2915 87.7354658,3321.99028 87.0754658,3327.10095 C87.0754658,3327.10095 85.6424658,3327.42281 84.7304658,3328.72222 C82.9034658,3331.32304 84.6914658,3334.82844 88.0104658,3334.98337 L88.0104658,3332.99228 C87.5684658,3332.96929 87.1424658,3332.82035 86.7994658,3332.56547 C84.7024658,3331.00818 87.1494658,3327.77765 89.2474658,3329.44389 C88.6204658,3327.37983 89.3894658,3325.39373 90.7754658,3324.20427 C93.6834658,3321.7104 98.1684658,3323.33866 98.9104658,3327.01499 C102.263466,3326.89405 103.278466,3331.65488 100.010466,3332.81136 L100.010466,3334.84144 C105.254466,3333.607 105.254466,3326.69914 100.456466,3325.2428 L100.456466,3325.2428 Z M95.0104658,3333.00227 L98.0104658,3333.00227 L98.0104658,3335.00136 L95.0104658,3335.00136 L95.0104658,3338 L93.0104658,3338 L93.0104658,3335.00136 L90.0104658,3335.00136 L90.0104658,3333.00227 L93.0104658,3333.00227 L93.0104658,3330.00363 L95.0104658,3330.00363 L95.0104658,3333.00227 Z" id="cloud_plus-[#1066]"></path>
            </g>
        </g>
    </g>
</svg>