<?xml version="1.0" encoding="UTF-8" standalone="no"?>
<svg width="20px" height="20px" viewBox="0 0 20 20" version="1.1" xmlns="http://www.w3.org/2000/svg" xmlns:xlink="http://www.w3.org/1999/xlink">
    <!-- Generator: Sketch 3.8.1 (29687) - http://www.bohemiancoding.com/sketch -->
    <title>clouds_sun [#1275]</title>
    <desc>Created with Sketch.</desc>
    <defs></defs>
    <g id="Page-1" stroke="none" stroke-width="1" fill="none" fill-rule="evenodd">
        <g id="Dribbble-Dark-Preview" transform="translate(-340.000000, -2479.000000)" fill="#FFFFFF">
            <g id="icons" transform="translate(56.000000, 160.000000)">
                <path d="M301.85811,2330.773 C300.560541,2325.466 293.156179,2326.286 292.34194,2330.287 C292.207571,2330.95 292.11632,2331.603 292.057157,2332.125 C292,2332.628 291.562798,2333 291.055402,2333 C290.486839,2333 290.029581,2332.531 290.044623,2331.964 L290.065681,2331.199 C287.91276,2330.391 285.639509,2332.25 286.055653,2334.554 C286.318376,2336.008 287.696164,2337 289.177237,2337 L296.955628,2337 L297.035849,2337 L297.035849,2336.995 C300.163449,2336.945 302.654299,2334.031 301.85811,2330.773 M289.013788,2329 C289.55628,2329 290.069692,2329.108 290.558035,2329.267 C291.625971,2326.759 294.103785,2325 297.006769,2325 C296.175483,2324.376 295.148659,2324 294.027576,2324 C291.262973,2324 289.013788,2326.242 289.013788,2329 M304,2332 C304,2335.828 301.046879,2338.934 297.035849,2338.994 C297.035849,2338.994 297.016796,2338.996 297.006769,2338.997 C297.016796,2338.997 297.025821,2339 297.035849,2339 L289.013788,2339 C286.245174,2339 284,2336.761 284,2334 C284,2331.942 285.24743,2330.179 287.028328,2329.411 C286.78165,2325.363 290.013537,2322 294.027576,2322 C296.750063,2322 299.104537,2323.548 300.269742,2325.806 C302.49085,2326.979 304,2329.311 304,2332 M288.354976,2323.343 C288.747054,2322.952 288.747054,2322.319 288.354976,2321.928 C287.963901,2321.538 287.329155,2321.538 286.937077,2321.928 C286.546002,2322.319 286.546002,2322.952 286.937077,2323.343 C287.329155,2323.733 287.963901,2323.733 288.354976,2323.343 M301.118075,2323.343 C301.510153,2322.952 301.510153,2322.319 301.118075,2321.928 C300.726999,2321.538 300.092254,2321.538 299.700175,2321.928 C299.3091,2322.319 299.3091,2322.952 299.700175,2323.343 C300.092254,2323.733 300.726999,2323.733 301.118075,2323.343 M285.002758,2330 C285.557283,2330 286.005515,2329.552 286.005515,2329 C286.005515,2328.447 285.557283,2328 285.002758,2328 C284.449235,2328 284,2328.447 284,2329 C284,2329.552 284.449235,2330 285.002758,2330 M293.024818,2320 C293.024818,2319.447 293.474054,2319 294.027576,2319 C294.582101,2319 295.030333,2319.447 295.030333,2320 C295.030333,2320.552 294.582101,2321 294.027576,2321 C293.474054,2321 293.024818,2320.552 293.024818,2320" id="clouds_sun-[#1275]"></path>
            </g>
        </g>
    </g>
</svg>