<?xml version="1.0" encoding="UTF-8" standalone="no"?>
<svg width="20px" height="16px" viewBox="0 0 20 16" version="1.1" xmlns="http://www.w3.org/2000/svg" xmlns:xlink="http://www.w3.org/1999/xlink">
    <!-- Generator: Sketch 3.8.1 (29687) - http://www.bohemiancoding.com/sketch -->
    <title>cloud_ok [#1071]</title>
    <desc>Created with Sketch.</desc>
    <defs></defs>
    <g id="Page-1" stroke="none" stroke-width="1" fill="none" fill-rule="evenodd">
        <g id="Dribbble-Dark-Preview" transform="translate(-340.000000, -3441.000000)" fill="#FFFFFF">
            <g id="icons" transform="translate(56.000000, 160.000000)">
                <path d="M300.445487,3285.30235 C300.422487,3285.29521 300.416487,3285.26868 300.422487,3285.28195 C297.606487,3278.66091 287.969487,3280.04144 287.064487,3287.19918 C287.064487,3287.19918 285.631487,3287.52773 284.719487,3288.85418 C284.172487,3289.64801 283.898487,3290.65102 284.034487,3291.72544 C284.165487,3292.75905 284.696487,3293.64369 285.449487,3294.27019 C288.043487,3296.42618 288.644487,3293.54574 287.356487,3293.08454 C284.444487,3292.03971 286.757487,3287.58079 289.236487,3289.59087 C287.270487,3282.98106 297.496487,3280.01696 298.899487,3287.11143 C301.742487,3287.00736 303.411487,3290.9612 300.483487,3292.76518 C299.430487,3293.4131 300.204487,3295.76092 302.280487,3293.9396 C305.277487,3291.31016 304.163487,3286.45433 300.445487,3285.30235 M297.771487,3291.35097 C298.161487,3291.74993 298.161487,3292.39581 297.771487,3292.79375 L294.233487,3296.40271 C293.453487,3297.19859 292.187487,3297.19961 291.406487,3296.40271 L290.228487,3295.20177 C289.292487,3294.24774 290.707487,3292.80395 291.642487,3293.75899 C293.081487,3295.22625 292.973487,3294.80383 296.357487,3291.35097 C296.747487,3290.95304 297.380487,3290.95304 297.771487,3291.35097" id="cloud_ok-[#1071]"></path>
            </g>
        </g>
    </g>
</svg>