<?xml version="1.0" encoding="UTF-8" standalone="no"?>
<svg width="20px" height="20px" viewBox="0 0 20 20" version="1.1" xmlns="http://www.w3.org/2000/svg" xmlns:xlink="http://www.w3.org/1999/xlink">
    <!-- Generator: Sketch 3.8.1 (29687) - http://www.bohemiancoding.com/sketch -->
    <title>cloud_down [#1061]</title>
    <desc>Created with Sketch.</desc>
    <defs></defs>
    <g id="Page-1" stroke="none" stroke-width="1" fill="none" fill-rule="evenodd">
        <g id="Dribbble-Dark-Preview" transform="translate(-340.000000, -3479.000000)" fill="#FFFFFF">
            <g id="icons" transform="translate(56.000000, 160.000000)">
                <path d="M297.995199,3334.46886 C297.995199,3334.07649 296.972565,3334.08051 296.583086,3334.47187 L295.852063,3335.20843 C295.537483,3335.52452 294.999203,3335.30275 294.999203,3334.8552 L294.999203,3326.03153 C294.999203,3325.48162 294.600735,3325.03708 294.055464,3325.03005 C293.508195,3325.03708 293.001872,3325.48162 293.001872,3326.03153 L293.001872,3334.8552 C293.001872,3335.30275 292.463591,3335.52653 292.149011,3335.21043 L291.417988,3334.26715 C291.028509,3333.87579 290.40634,3334.05943 290.016861,3334.05943 L290.010869,3334.05943 C289.621389,3335.06292 289.618393,3335.29473 290.008871,3335.68609 L292.589423,3338.38547 C293.36938,3339.16919 294.633691,3339.22137 295.413649,3338.43765 L297.995199,3335.86872 C298.385677,3335.47636 297.995199,3334.85419 297.995199,3334.46283 L297.995199,3334.46886 Z M294.044478,3325.02805 C294.048473,3325.02805 294.051469,3325.03005 294.055464,3325.03005 C294.059458,3325.03005 294.062454,3325.02805 294.066449,3325.02805 L294.044478,3325.02805 Z M297.995199,3333.05595 C297.443936,3333.05595 296.996533,3332.60638 296.996533,3332.05246 C296.996533,3331.49853 297.443936,3331.04897 297.995199,3331.04897 L298.888006,3331.04897 C303.142321,3331.04897 302.833733,3324.89559 298.893998,3325.03808 C297.547797,3318.33479 287.212608,3320.75419 289.243893,3327.47756 C287.168667,3325.8198 284.677995,3329.02795 286.79916,3330.61145 C288.298157,3331.73134 291.004541,3330.19902 291.004541,3332.05246 C291.004541,3333.31484 289.578446,3333.05595 288.209276,3333.05595 C284.877728,3333.05595 282.824472,3329.48353 284.731923,3326.75204 C285.643704,3325.4475 287.073793,3325.12539 287.073793,3325.12539 C287.732913,3319.99456 293.563122,3317.28514 297.881351,3320.18923 C299.734874,3321.43657 300.437935,3323.2589 300.437935,3323.2589 C301.527479,3323.59206 302.46223,3324.28246 303.098379,3325.19663 C305.240517,3328.27332 303.575742,3333.05595 297.995199,3333.05595 L297.995199,3333.05595 Z" id="cloud_down-[#1061]"></path>
            </g>
        </g>
    </g>
</svg>