<?xml version="1.0" encoding="UTF-8" standalone="no"?>
<svg width="20px" height="17px" viewBox="0 0 20 17" version="1.1" xmlns="http://www.w3.org/2000/svg" xmlns:xlink="http://www.w3.org/1999/xlink">
    <!-- Generator: Sketch 3.8.1 (29687) - http://www.bohemiancoding.com/sketch -->
    <title>cloud_ok [#1064]</title>
    <desc>Created with Sketch.</desc>
    <defs></defs>
    <g id="Page-1" stroke="none" stroke-width="1" fill="none" fill-rule="evenodd">
        <g id="Dribbble-Dark-Preview" transform="translate(-220.000000, -3481.000000)" fill="#FFFFFF">
            <g id="icons" transform="translate(56.000000, 160.000000)">
                <path d="M180.456466,3325.36364 C180.456466,3325.36364 179.753466,3323.49574 177.897466,3322.21895 C173.573466,3319.24284 167.735466,3322.01848 167.075466,3327.27472 C167.075466,3327.27472 165.642466,3327.60574 164.730466,3328.94216 C162.903466,3331.61706 164.691466,3335.2223 168.010466,3335.38165 L168.010466,3333.33384 C167.568466,3333.3102 167.142466,3333.15702 166.799466,3332.89488 C164.696466,3331.28912 167.152466,3327.97274 169.247466,3329.68439 C167.214466,3322.79772 177.562466,3320.31815 178.910466,3327.18631 C178.927466,3327.18528 178.944466,3327.18323 178.960466,3327.18014 C178.977466,3327.17809 178.993466,3327.17603 179.010466,3327.17603 C182.302466,3327.17603 183.229466,3331.97583 180.010466,3333.14777 L180.010466,3335.23567 C185.254466,3333.96607 185.254466,3326.86146 180.456466,3325.36364 L180.456466,3325.36364 Z M177.082466,3330.73091 L178.496466,3332.18452 L172.839466,3338 L172.838466,3337.99897 L172.836466,3338 L169.539466,3334.61064 L170.954466,3333.15702 L172.838466,3335.0938 L177.082466,3330.73091 Z" id="cloud_ok-[#1064]"></path>
            </g>
        </g>
    </g>
</svg>