<?xml version="1.0" encoding="UTF-8" standalone="no"?>
<svg width="20px" height="14px" viewBox="0 0 20 14" version="1.1" xmlns="http://www.w3.org/2000/svg" xmlns:xlink="http://www.w3.org/1999/xlink">
    <!-- Generator: Sketch 3.8.1 (29687) - http://www.bohemiancoding.com/sketch -->
    <title>cloud_minus [#1067]</title>
    <desc>Created with Sketch.</desc>
    <defs></defs>
    <g id="Page-1" stroke="none" stroke-width="1" fill="none" fill-rule="evenodd">
        <g id="Dribbble-Dark-Preview" transform="translate(-100.000000, -3482.000000)" fill="#FFFFFF">
            <g id="icons" transform="translate(56.000000, 160.000000)">
                <path d="M60.4564658,3326.24239 C60.4564658,3326.24239 59.7534658,3324.42639 57.8974658,3323.18507 C53.5734658,3320.29167 47.7354658,3322.99018 47.0754658,3328.10036 C47.0754658,3328.10036 45.6424658,3328.42218 44.7304658,3329.72147 C42.9034658,3332.32203 44.6914658,3335.8271 48.0104658,3335.98201 L48.0104658,3333.99111 C47.5684658,3333.96812 47.1424658,3333.8192 46.7994658,3333.56434 C44.7024658,3332.0072 47.1514658,3328.77799 49.2474658,3330.44307 C47.1874658,3323.65981 57.5764658,3321.40406 58.9104658,3328.01441 C62.2724658,3327.89347 63.2704658,3332.65685 60.0104658,3333.81021 L60.0104658,3335.84009 C65.2544658,3334.60577 65.2544658,3327.69858 60.4564658,3326.24239 L60.4564658,3326.24239 Z M50.0104658,3336 L58.0104658,3336 L58.0104658,3334.0011 L50.0104658,3334.0011 L50.0104658,3336 Z" id="cloud_minus-[#1067]"></path>
            </g>
        </g>
    </g>
</svg>