<?xml version="1.0" encoding="UTF-8" standalone="no"?>
<svg width="20px" height="19px" viewBox="0 0 20 19" version="1.1" xmlns="http://www.w3.org/2000/svg" xmlns:xlink="http://www.w3.org/1999/xlink">
    <!-- Generator: Sketch 3.8.1 (29687) - http://www.bohemiancoding.com/sketch -->
    <title>cloud_message [#1566]</title>
    <desc>Created with Sketch.</desc>
    <defs></defs>
    <g id="Page-1" stroke="none" stroke-width="1" fill="none" fill-rule="evenodd">
        <g id="Dribbble-Dark-Preview" transform="translate(-180.000000, -960.000000)" fill="#FFFFFF">
            <g id="icons" transform="translate(56.000000, 160.000000)">
                <path d="M131.000256,809.945659 C131.000256,810.509835 130.552256,810.967718 130.000256,810.967718 C129.448256,810.967718 129.000256,810.509835 129.000256,809.945659 C129.000256,809.381482 129.448256,808.923599 130.000256,808.923599 C130.552256,808.923599 131.000256,809.381482 131.000256,809.945659 M139.000256,809.945659 C139.000256,810.509835 138.552256,810.967718 138.000256,810.967718 C137.448256,810.967718 137.000256,810.509835 137.000256,809.945659 C137.000256,809.381482 137.448256,808.923599 138.000256,808.923599 C138.552256,808.923599 139.000256,809.381482 139.000256,809.945659 M135.000256,809.945659 C135.000256,810.509835 134.552256,810.967718 134.000256,810.967718 C133.448256,810.967718 133.000256,810.509835 133.000256,809.945659 C133.000256,809.381482 133.448256,808.923599 134.000256,808.923599 C134.552256,808.923599 135.000256,809.381482 135.000256,809.945659 M141.845256,810.189931 C141.449256,811.454218 140.231256,812.264711 138.932256,812.264711 L138.913256,812.264711 L135.594256,812.264711 C135.079256,812.264711 134.583256,812.468101 134.211256,812.831954 L130.846256,816.125029 C130.528256,816.435735 130.000256,816.205772 130.000256,815.756066 L130.000256,813.28677 C130.000256,812.722594 129.552256,812.264711 129.000256,812.264711 C128.127256,812.264711 127.489256,812.351586 126.789256,811.819093 C126.415256,811.534961 126.139256,811.130225 126.042256,810.644747 C125.945256,810.157225 126.020256,809.694232 126.216256,809.303805 C126.768256,808.201004 128.195256,807.780937 129.237256,808.627202 C128.224256,805.218635 130.788256,802.044119 134.000256,802.044119 C136.452256,802.044119 138.453256,803.879737 138.900256,806.142576 C138.917256,806.142576 138.933256,806.13951 138.950256,806.137466 C138.966256,806.135422 138.983256,806.132356 139.000256,806.132356 C140.895256,806.132356 142.517256,808.043606 141.845256,810.189931 M140.446256,804.331487 C140.440256,804.329443 140.436256,804.326377 140.432256,804.323311 C140.428256,804.319222 140.425256,804.315134 140.423256,804.310024 C139.341256,801.763052 136.865256,800 134.000256,800 C130.440256,800 127.508256,802.717656 127.064256,806.231495 C127.063256,806.239672 127.060256,806.246826 127.055256,806.251936 C127.050256,806.258069 127.043256,806.262157 127.036256,806.264201 C125.131256,806.748657 123.763256,808.613915 124.034256,810.764328 C124.260256,812.552932 125.697256,813.96644 127.549256,814.246484 C127.803256,814.285322 128.000256,814.491778 128.000256,814.754447 L128.000256,816.951875 C128.000256,818.773184 130.154256,819.684861 131.414256,818.397067 L135.121256,814.608293 C135.309256,814.417168 135.563256,814.30883 135.828256,814.30883 L138.770256,814.30883 C141.406256,814.30883 143.758256,812.328079 143.981256,809.643129 C144.186256,807.179966 142.662256,805.019333 140.446256,804.331487" id="cloud_message-[#1566]"></path>
            </g>
        </g>
    </g>
</svg>