<?xml version="1.0" encoding="UTF-8" standalone="no"?>
<svg width="20px" height="17px" viewBox="0 0 20 17" version="1.1" xmlns="http://www.w3.org/2000/svg" xmlns:xlink="http://www.w3.org/1999/xlink">
    <!-- Generator: Sketch 3.8.1 (29687) - http://www.bohemiancoding.com/sketch -->
    <title>cloud_close [#1065]</title>
    <desc>Created with Sketch.</desc>
    <defs></defs>
    <g id="Page-1" stroke="none" stroke-width="1" fill="none" fill-rule="evenodd">
        <g id="Dribbble-Dark-Preview" transform="translate(-181.000000, -3481.000000)" fill="#FFFFFF">
            <g id="icons" transform="translate(56.000000, 160.000000)">
                <path d="M141.456466,3325.35615 C141.456466,3325.35615 140.753466,3323.48806 138.897466,3322.21113 C137.785466,3321.44621 136.449466,3321 135.010466,3321 C131.451466,3321 128.518466,3323.73378 128.075466,3327.26743 C128.075466,3327.26743 126.642466,3327.59849 125.730466,3328.93505 C123.903466,3331.61022 125.691466,3335.21585 129.010466,3335.3752 L129.010466,3333.32718 C128.568466,3333.30354 128.142466,3333.15035 127.799466,3332.88818 C125.694466,3331.28019 128.154466,3327.96758 130.247466,3329.67735 C128.182466,3322.68406 138.577466,3320.38621 139.910466,3327.17901 C143.258466,3327.05461 144.279466,3331.95053 141.010466,3333.14109 L141.010466,3335.22921 C146.254466,3333.95948 146.254466,3326.85413 141.456466,3325.35615 L141.456466,3325.35615 Z M138.546466,3332.18391 L136.425466,3334.36559 L138.546466,3336.54624 L137.132466,3338 L135.010466,3335.81935 L132.889466,3338 L131.475466,3336.54624 L133.596466,3334.36559 L131.475466,3332.18391 L132.889466,3330.73015 L135.010466,3332.91182 L137.132466,3330.73015 L138.546466,3332.18391 Z" id="cloud_close-[#1065]"></path>
            </g>
        </g>
    </g>
</svg>