<?xml version="1.0" encoding="UTF-8" standalone="no"?>
<svg width="20px" height="14px" viewBox="0 0 20 14" version="1.1" xmlns="http://www.w3.org/2000/svg" xmlns:xlink="http://www.w3.org/1999/xlink">
    <!-- Generator: Sketch 3.8.1 (29687) - http://www.bohemiancoding.com/sketch -->
    <title>cloud_minus [#1054]</title>
    <desc>Created with Sketch.</desc>
    <defs></defs>
    <g id="Page-1" stroke="none" stroke-width="1" fill="none" fill-rule="evenodd">
        <g id="Dribbble-Dark-Preview" transform="translate(-220.000000, -3522.000000)" fill="#FFFFFF">
            <g id="icons" transform="translate(56.000000, 160.000000)">
                <path d="M174.027576,3369.99383 L180.044121,3369.99383 L180.044121,3367.99177 L174.027576,3367.99177 L174.027576,3369.99383 Z M181.85811,3367.76454 C180.548508,3362.40403 173.146152,3363.31697 172.34194,3367.27804 C172.206568,3367.94172 172.11632,3368.59539 172.056154,3369.11793 C171.998997,3369.62145 171.562798,3369.99383 171.055402,3369.99383 C170.485836,3369.99383 170.029581,3369.52535 170.044623,3368.95676 L170.065681,3368.19098 C169.736776,3368.06785 169.384808,3367.99177 169.013788,3367.99177 C167.172725,3367.99177 165.71271,3369.65048 166.055653,3371.55043 C166.318376,3373.00492 167.696164,3373.99794 169.177237,3373.99794 L176.955628,3373.99794 L177.035849,3373.99794 L177.035849,3373.99294 C180.163449,3373.94289 182.654299,3371.02589 181.85811,3367.76454 L181.85811,3367.76454 Z M184,3368.9928 C184,3372.82574 181.046879,3375.93493 177.035849,3375.99399 C177.035849,3375.99399 177.016796,3375.996 177.005766,3375.997 C177.016796,3375.997 177.025821,3376 177.035849,3376 L169.013788,3376 C166.245174,3376 164,3373.7587 164,3370.99486 C164,3368.23002 166.245174,3365.98972 169.013788,3365.98972 C169.55628,3365.98972 170.068689,3366.09783 170.558035,3366.25699 C173.523189,3359.28383 184,3361.35696 184,3368.9928 L184,3368.9928 Z M177.035849,3373.98093 L177.035849,3373.99294 C177.008774,3373.99394 176.982702,3373.99794 176.955628,3373.99794 C177.01078,3373.99794 177.035849,3373.98293 177.035849,3373.98093 L177.035849,3373.98093 Z" id="cloud_minus-[#1054]"></path>
            </g>
        </g>
    </g>
</svg>