<?xml version="1.0" encoding="UTF-8" standalone="no"?>
<svg width="20px" height="20px" viewBox="0 0 20 20" version="1.1" xmlns="http://www.w3.org/2000/svg" xmlns:xlink="http://www.w3.org/1999/xlink">
    <!-- Generator: Sketch 3.8.1 (29687) - http://www.bohemiancoding.com/sketch -->
    <title>clubs [#96]</title>
    <desc>Created with Sketch.</desc>
    <defs></defs>
    <g id="Page-1" stroke="none" stroke-width="1" fill="none" fill-rule="evenodd">
        <g id="Dribbble-Dark-Preview" transform="translate(-140.000000, -7799.000000)" fill="#FFFFFF">
            <g id="icons" transform="translate(56.000000, 160.000000)">
                <path d="M98,7654 C95.79,7654 94,7652.166 94,7650 C94,7655.353 86,7655.218 86,7650 C86,7647.722 87.936,7645.934 90.147,7646.015 C89.454,7643.392 91.488,7641 94,7641 C96.539,7641 98.539,7643.419 97.853,7646.015 C103.265,7645.816 103.343,7654 98,7654 M99.961,7644.334 C99.63,7641.334 97.088,7639 94,7639 C90.912,7639 88.37,7641.334 88.039,7644.334 C85.353,7645.265 83.529,7648.042 84.107,7651.153 C84.512,7653.324 86.159,7655.133 88.28,7655.75 C89.766,7656.181 91.165,7656.028 92.364,7655.495 C92.764,7655.318 93.178,7655.706 93.031,7656.117 L92.673,7657.117 C92.345,7658.034 93.025,7659 94,7659 C94.975,7659 95.655,7658.034 95.327,7657.117 L94.969,7656.117 C94.822,7655.706 95.236,7655.318 95.636,7655.495 C96.835,7656.028 98.234,7656.181 99.72,7655.75 C101.841,7655.133 103.488,7653.324 103.893,7651.153 C104.472,7648.042 102.648,7645.265 99.961,7644.334" id="clubs-[#96]"></path>
            </g>
        </g>
    </g>
</svg>