<?xml version="1.0" encoding="UTF-8" standalone="no"?>
<svg width="18px" height="18px" viewBox="0 0 18 18" version="1.1" xmlns="http://www.w3.org/2000/svg" xmlns:xlink="http://www.w3.org/1999/xlink">
    <!-- Generator: Sketch 3.8.1 (29687) - http://www.bohemiancoding.com/sketch -->
    <title>coffee [#809]</title>
    <desc>Created with Sketch.</desc>
    <defs></defs>
    <g id="Page-1" stroke="none" stroke-width="1" fill="none" fill-rule="evenodd">
        <g id="Dribbble-Dark-Preview" transform="translate(-101.000000, -4600.000000)" fill="#FFFFFF">
            <g id="icons" transform="translate(56.000000, 160.000000)">
                <path d="M46.0140845,4445 L48.0422535,4445 L48.0422535,4440 L46.0140845,4440 L46.0140845,4445 Z M59.1971831,4449 L57.1690141,4449 L57.1690141,4452 L59.1971831,4452 C61.5630423,4452 61.5630423,4449 59.1971831,4449 L59.1971831,4449 Z M55.1408451,4449 L47.028169,4449 L47.028169,4452 C47.028169,4454.209 48.8443944,4456 51.084507,4456 C53.3246197,4456 55.1408451,4454.209 55.1408451,4452 L55.1408451,4449 Z M59.1971831,4454 L56.8150986,4454 C55.979493,4456.329 53.7322817,4458 51.084507,4458 C47.723831,4458 45,4455.314 45,4452 L45,4447 L57.1690141,4447 L59.1971831,4447 C64.2676056,4447 64.2676056,4454 59.1971831,4454 L59.1971831,4454 Z M54.1267606,4445 L56.1549296,4445 L56.1549296,4440 L54.1267606,4440 L54.1267606,4445 Z M50.0704225,4445 L52.0985915,4445 L52.0985915,4440 L50.0704225,4440 L50.0704225,4445 Z" id="coffee-[#809]"></path>
            </g>
        </g>
    </g>
</svg>