<?xml version="1.0" encoding="UTF-8" standalone="no"?>
<svg width="18px" height="18px" viewBox="0 0 18 18" version="1.1" xmlns="http://www.w3.org/2000/svg" xmlns:xlink="http://www.w3.org/1999/xlink">
    <!-- Generator: Sketch 3.8.1 (29687) - http://www.bohemiancoding.com/sketch -->
    <title>coffee [#689]</title>
    <desc>Created with Sketch.</desc>
    <defs></defs>
    <g id="Page-1" stroke="none" stroke-width="1" fill="none" fill-rule="evenodd">
        <g id="Dribbble-Dark-Preview" transform="translate(-421.000000, -5120.000000)" fill="#FFFFFF">
            <g id="icons" transform="translate(56.000000, 160.000000)">
                <path d="M367.028169,4964.99989 C367.587944,4964.99989 368.042254,4964.5519 368.042254,4963.99991 L368.042254,4960.99998 C368.042254,4960.44799 367.587944,4960 367.028169,4960 C366.468394,4960 366.014085,4960.44799 366.014085,4960.99998 L366.014085,4963.99991 C366.014085,4964.5519 366.468394,4964.99989 367.028169,4964.99989 L367.028169,4964.99989 Z M379.197183,4968.99981 L377.169014,4968.99981 L377.169014,4971.99974 L379.197183,4971.99974 C381.563042,4971.99974 381.563042,4968.99981 379.197183,4968.99981 L379.197183,4968.99981 Z M375.140845,4968.99981 L368.042254,4968.99981 C367.482479,4968.99981 367.028169,4969.4478 367.028169,4969.99978 L367.028169,4971.82775 C367.028169,4973.9167 368.576676,4975.78266 370.685972,4975.98066 C373.105577,4976.20865 375.140845,4974.33869 375.140845,4971.99974 L375.140845,4968.99981 Z M379.197183,4973.9997 L376.815099,4973.9997 C375.903437,4976.53864 373.316507,4978.29561 370.359437,4977.95861 C367.25938,4977.60462 365,4974.86768 365,4971.78975 L365,4968.99981 C365,4967.89483 365.907606,4966.99985 367.028169,4966.99985 L377.169014,4966.99985 L379.197183,4966.99985 C384.267606,4966.99985 384.267606,4973.9997 379.197183,4973.9997 L379.197183,4973.9997 Z M375.140845,4964.99989 C375.70062,4964.99989 376.15493,4964.5519 376.15493,4963.99991 L376.15493,4960.99998 C376.15493,4960.44799 375.70062,4960 375.140845,4960 C374.58107,4960 374.126761,4960.44799 374.126761,4960.99998 L374.126761,4963.99991 C374.126761,4964.5519 374.58107,4964.99989 375.140845,4964.99989 L375.140845,4964.99989 Z M370.070423,4963.99991 L370.070423,4960.99998 C370.070423,4960.44799 370.524732,4960 371.084507,4960 C371.644282,4960 372.098592,4960.44799 372.098592,4960.99998 L372.098592,4963.99991 C372.098592,4964.5519 371.644282,4964.99989 371.084507,4964.99989 C370.524732,4964.99989 370.070423,4964.5519 370.070423,4963.99991 L370.070423,4963.99991 Z" id="coffee-[#689]"></path>
            </g>
        </g>
    </g>
</svg>