<?xml version="1.0" encoding="UTF-8" standalone="no"?>
<svg width="20px" height="20px" viewBox="0 0 20 20" version="1.1" xmlns="http://www.w3.org/2000/svg" xmlns:xlink="http://www.w3.org/1999/xlink">
    <!-- Generator: Sketch 3.8.1 (29687) - http://www.bohemiancoding.com/sketch -->
    <title>connection_pattern [#1104]</title>
    <desc>Created with Sketch.</desc>
    <defs></defs>
    <g id="Page-1" stroke="none" stroke-width="1" fill="none" fill-rule="evenodd">
        <g id="Dribbble-Dark-Preview" transform="translate(-220.000000, -3319.000000)" fill="#FFFFFF">
            <g id="icons" transform="translate(56.000000, 160.000000)">
                <path d="M181.671247,3176.67125 C181.280112,3177.06238 180.644268,3177.06238 180.253134,3176.67125 C179.862,3176.28011 179.862,3175.64427 180.253134,3175.25313 C180.644268,3174.862 181.280112,3174.862 181.671247,3175.25313 C182.062381,3175.64427 182.062381,3176.28011 181.671247,3176.67125 M174.709056,3169.70906 C174.317922,3170.10019 173.682078,3170.10019 173.290944,3169.70906 C172.899809,3169.31792 172.899809,3168.68208 173.290944,3168.29094 C173.682078,3167.89981 174.317922,3167.89981 174.709056,3168.29094 C175.100191,3168.68208 175.100191,3169.31792 174.709056,3169.70906 M167.717782,3176.70033 C167.326647,3177.09147 166.690803,3177.09147 166.299669,3176.70033 C165.908535,3176.3092 165.908535,3175.67335 166.299669,3175.28222 C166.690803,3174.89108 167.326647,3174.89108 167.717782,3175.28222 C168.108916,3175.67335 168.108916,3176.3092 167.717782,3176.70033 M167.746866,3162.74687 C167.356735,3163.138 166.719888,3163.138 166.328753,3162.74687 C165.937619,3162.35573 165.937619,3161.71989 166.328753,3161.32875 C166.719888,3160.93762 167.356735,3160.93762 167.746866,3161.32875 C168.138,3161.71989 168.138,3162.35573 167.746866,3162.74687 M180.282218,3161.29967 C180.673353,3160.90853 181.309197,3160.90853 181.700331,3161.29967 C182.091465,3161.6908 182.091465,3162.32665 181.700331,3162.71778 C181.309197,3163.10892 180.673353,3163.10892 180.282218,3162.71778 C179.891084,3162.32665 179.891084,3161.6908 180.282218,3161.29967 M179.674456,3173.25534 L176.70685,3170.28773 C177.201284,3169.36506 177.093973,3168.52763 176.70685,3167.71227 L179.70354,3164.71457 C180.82078,3165.24611 182.193762,3165.06158 183.118443,3164.13589 C184.293852,3162.96149 184.293852,3161.05596 183.118443,3159.88156 C181.944038,3158.70615 180.038512,3158.70615 178.864106,3159.88156 C177.939424,3160.80624 177.753886,3162.17922 178.285428,3163.29646 L175.287734,3166.29415 C174.47237,3165.90603 173.634941,3165.79872 172.712266,3166.29415 L169.74466,3163.32655 C170.160867,3162.32364 170.090663,3160.83532 169.165981,3159.91064 C167.990573,3158.73523 166.085047,3158.73523 164.910641,3159.91064 C163.735232,3161.08605 163.735232,3162.99057 164.910641,3164.16598 C165.835322,3165.09066 167.323639,3165.16087 168.326547,3164.74466 L171.294153,3167.71227 C170.798716,3168.63494 170.906027,3169.47237 171.294153,3170.28773 L168.29646,3173.28543 C167.17922,3172.75389 165.806238,3172.93942 164.881557,3173.86411 C163.706148,3175.03851 163.706148,3176.94404 164.881557,3178.11844 C166.055962,3179.29385 167.961488,3179.29385 169.135894,3178.11844 C170.061579,3177.19376 170.246114,3175.82078 169.714572,3174.70354 L172.712266,3171.70685 C173.52763,3172.09397 174.365059,3172.20128 175.287734,3171.70685 L178.25534,3174.67446 C177.840136,3175.67636 177.909337,3177.16468 178.835022,3178.08936 C180.009427,3179.26477 181.914953,3179.26477 183.089359,3178.08936 C184.264768,3176.91495 184.264768,3175.00943 183.089359,3173.83502 C182.164678,3172.90934 180.676361,3172.83913 179.674456,3173.25534" id="connection_pattern-[#1104]"></path>
            </g>
        </g>
    </g>
</svg>