<?xml version="1.0" encoding="UTF-8" standalone="no"?>
<svg width="20px" height="20px" viewBox="0 0 20 20" version="1.1" xmlns="http://www.w3.org/2000/svg" xmlns:xlink="http://www.w3.org/1999/xlink">
    <!-- Generator: Sketch 3.8.1 (29687) - http://www.bohemiancoding.com/sketch -->
    <title>connection_pattern [#1105]</title>
    <desc>Created with Sketch.</desc>
    <defs></defs>
    <g id="Page-1" stroke="none" stroke-width="1" fill="none" fill-rule="evenodd">
        <g id="Dribbble-Dark-Preview" transform="translate(-180.000000, -3319.000000)" fill="#FFFFFF">
            <g id="icons" transform="translate(56.000000, 160.000000)">
                <path d="M141,3177 C140.449,3177 140,3176.551 140,3176 C140,3175.449 140.449,3175 141,3175 C141.551,3175 142,3175.449 142,3176 C142,3176.551 141.551,3177 141,3177 M131.245,3170.341 C129.671,3167.707 132.672,3164.65 135.341,3166.245 C136.297,3166.817 136.813,3167.84 136.813,3168.812 C136.813,3171.782 132.827,3172.987 131.245,3170.341 M127,3177 C126.449,3177 126,3176.551 126,3176 C126,3175.449 126.449,3175 127,3175 C127.551,3175 128,3175.449 128,3176 C128,3176.551 127.551,3177 127,3177 M127,3163 C126.449,3163 126,3162.551 126,3162 C126,3161.449 126.449,3161 127,3161 C127.551,3161 128,3161.449 128,3162 C128,3162.551 127.551,3163 127,3163 M141,3161 C141.551,3161 142,3161.449 142,3162 C142,3162.551 141.551,3163 141,3163 C140.449,3163 140,3162.551 140,3162 C140,3161.449 140.449,3161 141,3161 M141,3173 C140.538,3173 140.105,3173.113 139.714,3173.3 L137.981,3171.567 C138.971,3170.071 139.152,3168.076 138.113,3166.301 L139.714,3164.7 C140.105,3164.887 140.538,3165 141,3165 C142.657,3165 144,3163.657 144,3162 C144,3160.343 142.657,3159 141,3159 C139.343,3159 138,3160.343 138,3162 C138,3162.462 138.113,3162.895 138.3,3163.286 L136.779,3164.807 C135.01,3163.495 132.753,3163.522 131.058,3164.644 L129.7,3163.286 C129.887,3162.895 130,3162.462 130,3162 C130,3160.343 128.657,3159 127,3159 C125.343,3159 124,3160.343 124,3162 C124,3163.657 125.343,3165 127,3165 C127.462,3165 127.895,3164.887 128.286,3164.7 L129.644,3166.058 C128.522,3167.752 128.494,3170.01 129.807,3171.779 L128.286,3173.3 C127.895,3173.113 127.462,3173 127,3173 C125.343,3173 124,3174.343 124,3176 C124,3177.657 125.343,3179 127,3179 C128.657,3179 130,3177.657 130,3176 C130,3175.538 129.887,3175.105 129.7,3174.714 L131.301,3173.113 C133.069,3174.148 135.065,3173.975 136.567,3172.981 L138.3,3174.714 C138.113,3175.105 138,3175.538 138,3176 C138,3177.657 139.343,3179 141,3179 C142.657,3179 144,3177.657 144,3176 C144,3174.343 142.657,3173 141,3173" id="connection_pattern-[#1105]"></path>
            </g>
        </g>
    </g>
</svg>