<?xml version="1.0" encoding="UTF-8" standalone="no"?>
<svg width="20px" height="20px" viewBox="0 0 20 20" version="1.1" xmlns="http://www.w3.org/2000/svg" xmlns:xlink="http://www.w3.org/1999/xlink">
    <!-- Generator: Sketch 3.8.1 (29687) - http://www.bohemiancoding.com/sketch -->
    <title>connection_pattern [#1103]</title>
    <desc>Created with Sketch.</desc>
    <defs></defs>
    <g id="Page-1" stroke="none" stroke-width="1" fill="none" fill-rule="evenodd">
        <g id="Dribbble-Dark-Preview" transform="translate(-260.000000, -3319.000000)" fill="#FFFFFF">
            <g id="icons" transform="translate(56.000000, 160.000000)">
                <path d="M221,3170 C220.449,3170 220,3169.551 220,3169 C220,3168.449 220.449,3168 221,3168 C221.551,3168 222,3168.449 222,3169 C222,3169.551 221.551,3170 221,3170 M214,3170 C213.449,3170 213,3169.551 213,3169 C213,3168.449 213.449,3168 214,3168 C214.551,3168 215,3168.449 215,3169 C215,3169.551 214.551,3170 214,3170 M214,3177 C213.449,3177 213,3176.551 213,3176 C213,3175.449 213.449,3175 214,3175 C214.551,3175 215,3175.449 215,3176 C215,3176.551 214.551,3177 214,3177 M214,3161 C214.551,3161 215,3161.449 215,3162 C215,3162.551 214.551,3163 214,3163 C213.449,3163 213,3162.551 213,3162 C213,3161.449 213.449,3161 214,3161 M207,3170 C206.449,3170 206,3169.551 206,3169 C206,3168.449 206.449,3168 207,3168 C207.551,3168 208,3168.449 208,3169 C208,3169.551 207.551,3170 207,3170 M221,3166 C219.696,3166 218.597,3167 218.184,3168 L216.816,3168 C216.515,3167 215.848,3166.485 215,3166.184 L215,3164.816 C216.163,3164.403 217,3163.304 217,3162 C217,3160.343 215.657,3159 214,3159 C212.343,3159 211,3160.343 211,3162 C211,3163.304 211.837,3164.403 213,3164.816 L213,3166.184 C212.152,3166.485 211.485,3167 211.184,3168 L209.816,3168 C209.403,3167 208.304,3166 207,3166 C205.343,3166 204,3167.343 204,3169 C204,3170.657 205.343,3172 207,3172 C208.304,3172 209.403,3171 209.816,3170 L211.184,3170 C211.485,3171 212.152,3171.515 213,3171.816 L213,3173.184 C211.837,3173.597 211,3174.696 211,3176 C211,3177.657 212.343,3179 214,3179 C215.657,3179 217,3177.657 217,3176 C217,3174.696 216.163,3173.597 215,3173.184 L215,3171.816 C215.848,3171.515 216.515,3171 216.816,3170 L218.184,3170 C218.597,3171 219.696,3172 221,3172 C222.657,3172 224,3170.657 224,3169 C224,3167.343 222.657,3166 221,3166" id="connection_pattern-[#1103]"></path>
            </g>
        </g>
    </g>
</svg>