<?xml version="1.0" encoding="UTF-8" standalone="no"?>
<svg width="24px" height="24px" viewBox="0 0 24 24" version="1.1" xmlns="http://www.w3.org/2000/svg" xmlns:xlink="http://www.w3.org/1999/xlink">
    <!-- Generator: Sketch 3.8.1 (29687) - http://www.bohemiancoding.com/sketch -->
    <title>connectivity_center [#1024]</title>
    <desc>Created with Sketch.</desc>
    <defs></defs>
    <g id="Page-1" stroke="none" stroke-width="1" fill="none" fill-rule="evenodd">
        <g id="Dribbble-Dark-Preview" transform="translate(-218.000000, -3637.000000)" fill="#FFFFFF">
            <g id="icons" transform="translate(56.000000, 160.000000)">
                <path d="M183.944249,3497.01196 C182.950172,3497.01196 181.958083,3497.90429 181.958083,3499.00598 C181.958083,3500.10768 182.950172,3501 183.944249,3501 C184.938326,3501 185.929421,3500.00299 185.929421,3499.00598 C185.929421,3497.90429 184.938326,3497.01196 183.944249,3497.01196 L183.944249,3497.01196 Z M183.869693,3492.88136 C180.887462,3492.88136 177.976805,3495.94317 177.976805,3498.9342 L179.964959,3498.9342 C179.964959,3496.94018 181.881539,3494.87537 183.869693,3494.87537 L183.869693,3492.88136 Z M183.175827,3488.93021 C178.643831,3488.6012 174.318602,3485.07777 173.965704,3479.76371 C173.62573,3484.31505 169.991385,3488.71186 164.683014,3489.07079 C169.225945,3489.40578 173.670463,3492.99302 174.034296,3498.31107 C174.363335,3493.75474 177.877397,3489.29511 183.175827,3488.93021 L183.175827,3488.93021 Z M175.988651,3498.9342 L174.071077,3498.9342 L174.000497,3498.9342 L172.082923,3498.9342 C172.082923,3494.94616 167.964462,3491.02991 163.988154,3491.02991 L163.988154,3487.11266 C167.964462,3487.11266 172.012343,3482.98205 172.012343,3478.99402 L173.928923,3478.99402 L174.000497,3478.99402 L175.917077,3478.99402 C175.917077,3482.98205 179.893385,3486.97009 183.869693,3486.97009 L183.869693,3490.88734 C179.893385,3490.88734 175.988651,3494.94616 175.988651,3498.9342 L175.988651,3498.9342 Z M184.011846,3480.98405 C185.110301,3480.98405 186,3479.98804 186,3478.99103 C186,3477.99402 185.005923,3477 184.011846,3477 C182.914385,3477 182.023692,3477.99402 182.023692,3478.99103 C182.023692,3479.98804 182.914385,3480.98405 184.011846,3480.98405 L184.011846,3480.98405 Z M183.869693,3484.97607 L183.869693,3482.98205 C181.881539,3482.98205 179.893385,3480.98804 179.893385,3478.99402 L177.905231,3478.99402 C177.905231,3481.98504 180.887462,3484.97607 183.869693,3484.97607 L183.869693,3484.97607 Z M164.056745,3480.98804 C165.050822,3480.98804 166.042911,3480.09571 166.042911,3478.99402 C166.042911,3477.89332 165.050822,3477.001 164.056745,3477.001 C163.062668,3477.001 162.071574,3477.99801 162.071574,3478.99402 C162.071574,3480.09571 163.062668,3480.98804 164.056745,3480.98804 L164.056745,3480.98804 Z M163.988154,3485.11864 C166.970385,3485.11864 170.024189,3481.98504 170.024189,3478.99402 L168.036035,3478.99402 C168.036035,3480.98804 165.976308,3483.12463 163.988154,3483.12463 L163.988154,3485.11864 Z M163.988154,3497.01695 C162.890693,3497.01695 162,3498.01196 162,3499.00897 C162,3500.00598 162.994077,3501 163.988154,3501 C165.086609,3501 165.976308,3500.00598 165.976308,3499.00897 C165.976308,3498.01196 165.086609,3497.01695 163.988154,3497.01695 L163.988154,3497.01695 Z M170.094769,3498.9342 L168.106615,3498.9342 C168.106615,3496.94018 165.976308,3495.01795 163.988154,3495.01795 L163.988154,3493.02393 C166.970385,3493.02393 170.094769,3495.94317 170.094769,3498.9342 L170.094769,3498.9342 Z" id="connectivity_center-[#1024]"></path>
            </g>
        </g>
    </g>
</svg>