<?xml version="1.0" encoding="UTF-8" standalone="no"?>
<svg width="20px" height="20px" viewBox="0 0 20 20" version="1.1" xmlns="http://www.w3.org/2000/svg" xmlns:xlink="http://www.w3.org/1999/xlink">
    <!-- Generator: Sketch 3.8.1 (29687) - http://www.bohemiancoding.com/sketch -->
    <title>control [#850]</title>
    <desc>Created with Sketch.</desc>
    <defs></defs>
    <g id="Page-1" stroke="none" stroke-width="1" fill="none" fill-rule="evenodd">
        <g id="Dribbble-Dark-Preview" transform="translate(-60.000000, -4439.000000)" fill="#FFFFFF">
            <g id="icons" transform="translate(56.000000, 160.000000)">
                <path d="M18,4285 L22,4285 L22,4281 L18,4281 L18,4285 Z M18,4297 L22,4297 L22,4293 L18,4293 L18,4297 Z M12,4291 L16,4291 L16,4287 L12,4287 L12,4291 Z M6,4297 L10,4297 L10,4293 L6,4293 L6,4297 Z M6,4285 L10,4285 L10,4281 L6,4281 L6,4285 Z M22,4279 L18,4279 L16,4279 L16,4285 L12,4285 L12,4279 L10,4279 L6,4279 L4,4279 L4,4281 L4,4285 L4,4287 L10,4287 L10,4291 L4,4291 L4,4293 L4,4297 L4,4299 L6,4299 L10,4299 L12,4299 L12,4293 L16,4293 L16,4299 L18,4299 L22,4299 L24,4299 L24,4297 L24,4293 L24,4291 L18,4291 L18,4287 L24,4287 L24,4285 L24,4281 L24,4279 L22,4279 Z" id="control-[#850]"></path>
            </g>
        </g>
    </g>
</svg>