<?xml version="1.0" encoding="UTF-8" standalone="no"?>
<svg width="20px" height="20px" viewBox="0 0 20 20" version="1.1" xmlns="http://www.w3.org/2000/svg" xmlns:xlink="http://www.w3.org/1999/xlink">
    <!-- Generator: Sketch 3.8.1 (29687) - http://www.bohemiancoding.com/sketch -->
    <title>control [#849]</title>
    <desc>Created with Sketch.</desc>
    <defs></defs>
    <g id="Page-1" stroke="none" stroke-width="1" fill="none" fill-rule="evenodd">
        <g id="Dribbble-Dark-Preview" transform="translate(-100.000000, -4439.000000)" fill="#FFFFFF">
            <g id="icons" transform="translate(56.000000, 160.000000)">
                <path d="M62,4285 L58,4285 L58,4281 L61,4281 C61.552,4281 62,4281.448 62,4282 L62,4285 Z M62,4293 L62,4296 C62,4296.552 61.552,4297 61,4297 L58,4297 L58,4293 L62,4293 Z M52,4291 L56,4291 L56,4287 L52,4287 L52,4291 Z M50,4297 L47,4297 C46.448,4297 46,4296.552 46,4296 L46,4293 L50,4293 L50,4297 Z M46,4285 L46,4282 C46,4281.448 46.448,4281 47,4281 L50,4281 L50,4285 L46,4285 Z M62,4279 L58,4279 L56,4279 L56,4285 L52,4285 L52,4279 L50,4279 L46,4279 L46,4279 C44.895,4279 44,4279.895 44,4281 L44,4285 L44,4287 L50,4287 L50,4291 L44,4291 L44,4293 L44,4297 C44,4298.105 44.895,4299 46,4299 L46,4299 L50,4299 L52,4299 L52,4293 L56,4293 L56,4299 L58,4299 L62,4299 L62,4299 C63.105,4299 64,4298.105 64,4297 L64,4293 L64,4291 L58,4291 L58,4287 L64,4287 L64,4285 L64,4281 C64,4279.895 63.105,4279 62,4279 L62,4279 Z" id="control-[#849]"></path>
            </g>
        </g>
    </g>
</svg>