<?xml version="1.0" encoding="UTF-8" standalone="no"?>
<svg width="21px" height="20px" viewBox="0 0 21 20" version="1.1" xmlns="http://www.w3.org/2000/svg" xmlns:xlink="http://www.w3.org/1999/xlink">
    <!-- Generator: Sketch 3.8.1 (29687) - http://www.bohemiancoding.com/sketch -->
    <title>contrast [#1428]</title>
    <desc>Created with Sketch.</desc>
    <defs></defs>
    <g id="Page-1" stroke="none" stroke-width="1" fill="none" fill-rule="evenodd">
        <g id="Dribbble-Dark-Preview" transform="translate(-139.000000, -600.000000)" fill="#FFFFFF">
            <g id="icons" transform="translate(56.000000, 160.000000)">
                <path d="M99.4396071,444.343125 C96.1562532,441.216125 90.8432468,441.216125 87.5598929,444.343125 C84.284939,447.462125 84.284939,452.538125 87.5598929,455.657125 C90.8432468,458.784125 96.1562532,458.783125 99.4396071,455.657125 C102.722961,452.530125 102.722961,447.470125 99.4396071,444.343125 M100.924309,457.071125 C96.824054,460.976125 90.175446,460.976125 86.0751912,457.071125 C81.9749363,453.166125 81.9749363,446.834125 86.0751912,442.929125 C90.175446,439.023125 96.824054,439.024125 100.924309,442.929125 C105.024564,446.834125 105.024564,453.166125 100.924309,457.071125 M97.9549053,454.242125 L89.0456447,445.757125 C91.5057976,443.414125 95.4947524,443.414125 97.9549053,445.757125 C100.415058,448.100125 100.415058,451.899125 97.9549053,454.242125" id="contrast-[#1428]"></path>
            </g>
        </g>
    </g>
</svg>