<?xml version="1.0" encoding="UTF-8" standalone="no"?>
<svg width="20px" height="20px" viewBox="0 0 20 20" version="1.1" xmlns="http://www.w3.org/2000/svg" xmlns:xlink="http://www.w3.org/1999/xlink">
    <!-- Generator: Sketch 3.8.1 (29687) - http://www.bohemiancoding.com/sketch -->
    <title>controller [#223]</title>
    <desc>Created with Sketch.</desc>
    <defs></defs>
    <g id="Page-1" stroke="none" stroke-width="1" fill="none" fill-rule="evenodd">
        <g id="Dribbble-Dark-Preview" transform="translate(-60.000000, -7199.000000)" fill="#FFFFFF">
            <g id="icons" transform="translate(56.000000, 160.000000)">
                <path d="M7.5857,7049 L8.9997,7047.797 L8.9997,7050.203 L7.5857,7049 Z M20.4147,7049 L18.9997,7050.203 L18.9997,7047.797 L20.4147,7049 Z M12.7967,7054 L15.2027,7054 L13.9997,7055.414 L12.7967,7054 Z M13.9997,7042.586 L15.2027,7044 L12.7967,7044 L13.9997,7042.586 Z M21.9997,7052 L16.9997,7052 L16.9997,7057 L10.9997,7057 L10.9997,7052 L5.9997,7052 L5.9997,7046 L10.9997,7046 L10.9997,7041 L16.9997,7041 L16.9997,7046 L21.9997,7046 L21.9997,7052 Z M18.9997,7044 L18.9997,7039 L8.9997,7039 L8.9997,7044 L3.9997,7044 L3.9997,7054 L8.9997,7054 L8.9997,7054.003 L8.9997,7059 L18.9997,7059 L18.9997,7054.003 L18.9997,7054 L23.9997,7054 L23.9997,7044 L18.9997,7044 Z" id="controller-[#223]"></path>
            </g>
        </g>
    </g>
</svg>