<?xml version="1.0" encoding="UTF-8" standalone="no"?>
<svg width="20px" height="21px" viewBox="0 0 20 21" version="1.1" xmlns="http://www.w3.org/2000/svg" xmlns:xlink="http://www.w3.org/1999/xlink">
    <!-- Generator: Sketch 3.8.1 (29687) - http://www.bohemiancoding.com/sketch -->
    <title>contrast_round [#879]</title>
    <desc>Created with Sketch.</desc>
    <defs></defs>
    <g id="Page-1" stroke="none" stroke-width="1" fill="none" fill-rule="evenodd">
        <g id="Dribbble-Dark-Preview" transform="translate(-100.000000, -4319.000000)" fill="#FFFFFF">
            <g id="icons" transform="translate(56.000000, 160.000000)">
                <path d="M61.8553875,4167.61398 L61.527819,4168.53724 C61.4027849,4168.97071 60.9956492,4169.05619 60.5327132,4169.05619 L47.7833732,4169.05619 C47.3194038,4169.05619 46.9122681,4168.97071 46.7882674,4168.53523 L46.4152319,4167.34043 C46.2881312,4166.93713 46.4327987,4166.4564 46.7789674,4166.20094 L53.487406,4161.22864 C53.8604415,4160.95307 54.3771111,4160.94603 54.7470466,4161.22562 L61.5030188,4166.42924 C61.8440208,4166.68671 61.9835216,4167.21371 61.8553875,4167.61398 M63.2018286,4165.55325 L55.2523495,4159.53701 C54.5135119,4158.97783 53.481206,4158.97179 52.735135,4159.52193 L44.8176894,4165.36518 C44.1263854,4165.87609 43.8360171,4166.75208 44.0912519,4167.55967 L47.1644029,4177.48819 C47.4310045,4178.333 48.2328757,4179.11344 49.1401476,4179.11344 L58.8669703,4179.11344 C59.7701088,4179.11344 60.5699134,4178.33702 60.839615,4177.49724 L63.9055326,4167.84329 C64.1628341,4167.04273 63.8817658,4166.06819 63.2018286,4165.55325" id="contrast_round-[#879]"></path>
            </g>
        </g>
    </g>
</svg>