<?xml version="1.0" encoding="UTF-8" standalone="no"?>
<svg width="14px" height="20px" viewBox="0 0 14 20" version="1.1" xmlns="http://www.w3.org/2000/svg" xmlns:xlink="http://www.w3.org/1999/xlink">
    <!-- Generator: Sketch 3.8.1 (29687) - http://www.bohemiancoding.com/sketch -->
    <title>container [#1312]</title>
    <desc>Created with Sketch.</desc>
    <defs></defs>
    <g id="Page-1" stroke="none" stroke-width="1" fill="none" fill-rule="evenodd">
        <g id="Dribbble-Dark-Preview" transform="translate(-63.000000, -2359.000000)" fill="#FFFFFF">
            <g id="icons" transform="translate(56.000000, 160.000000)">
                <path d="M17,2204 L14,2204 C13.448,2204 13,2204.448 13,2205 C13,2205.552 13.448,2206 14,2206 L17,2206 L17,2208 L14,2208 C13.448,2208 13,2208.448 13,2209 C13,2209.552 13.448,2210 14,2210 L17,2210 L17,2212 L14,2212 C13.448,2212 13,2212.448 13,2213 C13,2213.552 13.448,2214 14,2214 L17,2214 L17,2216 C17,2216.552 16.552,2217 16,2217 L12,2217 C11.448,2217 11,2216.552 11,2216 L11,2201 L17,2201 L17,2204 Z M7,2200 L7,2200 C7,2200.552 7.448,2201 8,2201 L9,2201 L9,2217 C9,2218.105 9.895,2219 11,2219 L17,2219 C18.105,2219 19,2218.105 19,2217 L19,2201 L20,2201 C20.552,2201 21,2200.552 21,2200 C21,2199.448 20.552,2199 20,2199 L8,2199 C7.448,2199 7,2199.448 7,2200 L7,2200 Z" id="container-[#1312]"></path>
            </g>
        </g>
    </g>
</svg>