<?xml version="1.0" encoding="UTF-8" standalone="no"?>
<svg width="14px" height="20px" viewBox="0 0 14 20" version="1.1" xmlns="http://www.w3.org/2000/svg" xmlns:xlink="http://www.w3.org/1999/xlink">
    <!-- Generator: Sketch 3.8.1 (29687) - http://www.bohemiancoding.com/sketch -->
    <title>container [#1311]</title>
    <desc>Created with Sketch.</desc>
    <defs></defs>
    <g id="Page-1" stroke="none" stroke-width="1" fill="none" fill-rule="evenodd">
        <g id="Dribbble-Dark-Preview" transform="translate(-103.000000, -2359.000000)" fill="#FFFFFF">
            <g id="icons" transform="translate(56.000000, 160.000000)">
                <path d="M51,2211 L57,2211 L57,2201 L51,2201 L51,2211 Z M56,2217 L52,2217 C51.448,2217 51,2216.552 51,2216 L51,2213 L57,2213 L57,2216 C57,2216.552 56.552,2217 56,2217 L56,2217 Z M47,2200 L47,2200 C47,2200.552 47.448,2201 48,2201 L49,2201 L49,2217 C49,2218.105 49.895,2219 51,2219 L57,2219 C58.105,2219 59,2218.105 59,2217 L59,2201 L60,2201 C60.552,2201 61,2200.552 61,2200 C61,2199.448 60.552,2199 60,2199 L48,2199 C47.448,2199 47,2199.448 47,2200 L47,2200 Z" id="container-[#1311]"></path>
            </g>
        </g>
    </g>
</svg>