<?xml version="1.0" encoding="UTF-8" standalone="no"?>
<svg width="20px" height="20px" viewBox="0 0 20 20" version="1.1" xmlns="http://www.w3.org/2000/svg" xmlns:xlink="http://www.w3.org/1999/xlink">
    <!-- Generator: Sketch 3.8.1 (29687) - http://www.bohemiancoding.com/sketch -->
    <title>contrast [#908]</title>
    <desc>Created with Sketch.</desc>
    <defs></defs>
    <g id="Page-1" stroke="none" stroke-width="1" fill="none" fill-rule="evenodd">
        <g id="Dribbble-Dark-Preview" transform="translate(-140.000000, -4199.000000)" fill="#FFFFFF">
            <g id="icons" transform="translate(56.000000, 160.000000)">
                <path d="M99.65675,4054.65606 C96.53775,4057.77506 91.46175,4057.77506 88.34275,4054.65606 C85.22375,4051.53706 85.22375,4046.46106 88.34275,4043.34206 C88.35775,4043.32806 88.37275,4043.31306 88.38775,4043.29906 L99.70075,4054.61106 C99.68575,4054.62606 99.67175,4054.64106 99.65675,4054.65606 M101.55475,4055.55106 C104.15875,4052.55406 104.68275,4048.37706 103.12575,4044.90506 C102.66675,4043.80106 102.00175,4042.77006 101.11475,4041.88406 C100.22875,4040.99706 99.19775,4040.33206 98.09275,4039.87306 C94.62075,4038.31706 90.44475,4038.84106 87.44875,4041.44406 C87.28475,4041.58506 87.12575,4041.73106 86.97275,4041.88406 L86.97375,4041.88406 C86.95875,4041.89906 86.94375,4041.91306 86.92875,4041.92806 C83.02375,4045.83306 83.02375,4052.16506 86.92875,4056.07006 C90.83375,4059.97506 97.16575,4059.97506 101.07075,4056.07006 C101.08575,4056.05506 101.09975,4056.04006 101.11475,4056.02506 L101.11475,4056.02606 C101.26775,4055.87306 101.41375,4055.71506 101.55475,4055.55106" id="contrast-[#908]"></path>
            </g>
        </g>
    </g>
</svg>