<?xml version="1.0" encoding="UTF-8" standalone="no"?>
<svg width="20px" height="20px" viewBox="0 0 20 20" version="1.1" xmlns="http://www.w3.org/2000/svg" xmlns:xlink="http://www.w3.org/1999/xlink">
    <!-- Generator: Sketch 3.8.1 (29687) - http://www.bohemiancoding.com/sketch -->
    <title>control [#848]</title>
    <desc>Created with Sketch.</desc>
    <defs></defs>
    <g id="Page-1" stroke="none" stroke-width="1" fill="none" fill-rule="evenodd">
        <g id="Dribbble-Dark-Preview" transform="translate(-140.000000, -4439.000000)" fill="#FFFFFF">
            <g id="icons" transform="translate(56.000000, 160.000000)">
                <path d="M101,4285 L98,4285 L98,4282 C98,4281.448 98.448,4281 99,4281 L101,4281 C101.552,4281 102,4281.448 102,4282 L102,4284 C102,4284.552 101.552,4285 101,4285 L101,4285 Z M102,4293 L102,4296 C102,4296.552 101.552,4297 101,4297 L99,4297 C98.448,4297 98,4296.552 98,4296 L98,4293 L102,4293 Z M92,4291 L96,4291 L96,4287 L92,4287 L92,4291 Z M89,4297 L87,4297 C86.448,4297 86,4296.552 86,4296 L86,4294 C86,4293.448 86.448,4293 87,4293 L90,4293 L90,4296 C90,4296.552 89.552,4297 89,4297 L89,4297 Z M86,4284 L86,4282 C86,4281.448 86.448,4281 87,4281 L89,4281 C89.552,4281 90,4281.448 90,4282 L90,4285 L87,4285 C86.448,4285 86,4284.552 86,4284 L86,4284 Z M102,4279 L98,4279 C96.895,4279 96,4279.895 96,4281 L96,4285 L92,4285 L92,4281 C92,4279.895 91.105,4279 90,4279 L86,4279 C84.895,4279 84,4279.895 84,4281 L84,4285 C84,4286.105 84.895,4287 86,4287 L90,4287 L90,4291 L86,4291 C84.895,4291 84,4291.895 84,4293 L84,4297 C84,4298.105 84.895,4299 86,4299 L90,4299 C91.105,4299 92,4298.105 92,4297 L92,4293 L96,4293 L96,4297 C96,4298.105 96.895,4299 98,4299 L102,4299 C103.105,4299 104,4298.105 104,4297 L104,4293 C104,4291.895 103.105,4291 102,4291 L98,4291 L98,4287 L102,4287 C103.105,4287 104,4286.105 104,4285 L104,4281 C104,4279.895 103.105,4279 102,4279 L102,4279 Z" id="control-[#848]"></path>
            </g>
        </g>
    </g>
</svg>