<?xml version="1.0" encoding="UTF-8" standalone="no"?>
<svg width="14px" height="20px" viewBox="0 0 14 20" version="1.1" xmlns="http://www.w3.org/2000/svg" xmlns:xlink="http://www.w3.org/1999/xlink">
    <!-- Generator: Sketch 3.8.1 (29687) - http://www.bohemiancoding.com/sketch -->
    <title>container [#1314]</title>
    <desc>Created with Sketch.</desc>
    <defs></defs>
    <g id="Page-1" stroke="none" stroke-width="1" fill="none" fill-rule="evenodd">
        <g id="Dribbble-Dark-Preview" transform="translate(-383.000000, -2319.000000)" fill="#FFFFFF">
            <g id="icons" transform="translate(56.000000, 160.000000)">
                <path d="M340,2159 L339,2159 C337.895,2159 337,2159.895 337,2161 L337,2176 C337,2176.552 336.552,2177 336,2177 L332,2177 C331.448,2177 331,2176.552 331,2176 L331,2161 C331,2159.895 330.105,2159 329,2159 L328,2159 C327.448,2159 327,2159.448 327,2160 C327,2160.552 327.448,2161 328,2161 C328.552,2161 329,2161.448 329,2162 L329,2177 C329,2178.105 329.895,2179 331,2179 L337,2179 C338.105,2179 339,2178.105 339,2177 L339,2162 C339,2161.448 339.448,2161 340,2161 C340.552,2161 341,2160.552 341,2160 C341,2159.448 340.552,2159 340,2159 M335,2168 L335,2174 C335,2174.552 334.552,2175 334,2175 C333.448,2175 333,2174.552 333,2174 L333,2168 C333,2167.448 333.448,2167 334,2167 C334.552,2167 335,2167.448 335,2168" id="container-[#1314]"></path>
            </g>
        </g>
    </g>
</svg>