<?xml version="1.0" encoding="UTF-8" standalone="no"?>
<svg width="20px" height="20px" viewBox="0 0 20 20" version="1.1" xmlns="http://www.w3.org/2000/svg" xmlns:xlink="http://www.w3.org/1999/xlink">
    <!-- Generator: Sketch 3.8.1 (29687) - http://www.bohemiancoding.com/sketch -->
    <title>cook [#17]</title>
    <desc>Created with Sketch.</desc>
    <defs></defs>
    <g id="Page-1" stroke="none" stroke-width="1" fill="none" fill-rule="evenodd">
        <g id="Dribbble-Dark-Preview" transform="translate(-100.000000, -8119.000000)" fill="#FFFFFF">
            <g id="icons" transform="translate(56.000000, 160.000000)">
                <path d="M58.9976,7970 L58.9746,7970 C57.8986,7970 56.9996,7970.985 56.9996,7972.061 L56.9996,7973 L50.9996,7973 L50.9996,7972.09 C50.9996,7971.051 50.1676,7970.138 49.1296,7970.185 C47.7526,7970.246 46.5266,7969.376 46.1436,7968.128 C45.1626,7964.929 49.2216,7962.775 51.3016,7965.286 C49.5756,7961.685 55.0656,7959.134 56.7236,7962.76 C57.0916,7963.564 57.1006,7964.447 56.6986,7965.286 C57.8076,7963.946 60.3976,7963.699 61.3656,7965.142 C62.9736,7967.538 61.2766,7970 58.9976,7970 L58.9976,7970 Z M56.9996,7976 C56.9996,7976.552 56.5526,7977 55.9996,7977 L51.9996,7977 C51.4476,7977 50.9996,7976.552 50.9996,7976 L50.9996,7975 L56.9996,7975 L56.9996,7976 Z M58.6596,7962.222 C57.9406,7960.341 56.1326,7959 53.9996,7959 C51.8676,7959 50.0596,7960.341 49.3406,7962.222 C46.2936,7962.013 43.9996,7964.418 43.9996,7967.187 C43.9996,7969.659 45.7926,7971.711 48.1496,7972.115 C48.6356,7972.199 48.9996,7972.605 48.9996,7973.099 L48.9996,7977 C48.9996,7978.105 49.8956,7979 50.9996,7979 L56.9996,7979 C58.1046,7979 58.9996,7978.105 58.9996,7977 L58.9996,7973.099 C58.9996,7972.605 59.3636,7972.199 59.8506,7972.115 C62.2066,7971.711 63.9996,7969.659 63.9996,7967.187 C63.9996,7964.423 61.7106,7962.012 58.6596,7962.222 L58.6596,7962.222 Z" id="cook-[#17]"></path>
            </g>
        </g>
    </g>
</svg>