<?xml version="1.0" encoding="UTF-8" standalone="no"?>
<svg width="20px" height="20px" viewBox="0 0 20 20" version="1.1" xmlns="http://www.w3.org/2000/svg" xmlns:xlink="http://www.w3.org/1999/xlink">
    <!-- Generator: Sketch 3.8.1 (29687) - http://www.bohemiancoding.com/sketch -->
    <title>cook [#16]</title>
    <desc>Created with Sketch.</desc>
    <defs></defs>
    <g id="Page-1" stroke="none" stroke-width="1" fill="none" fill-rule="evenodd">
        <g id="Dribbble-Dark-Preview" transform="translate(-140.000000, -8119.000000)" fill="#FFFFFF">
            <g id="icons" transform="translate(56.000000, 160.000000)">
                <path d="M98.9976,7970 L98.9746,7970 C97.8986,7970 96.9996,7970.985 96.9996,7972.061 L96.9996,7973 L90.9996,7973 L90.9996,7972.09 C90.9996,7971.051 90.1676,7970.138 89.1296,7970.185 C87.7526,7970.246 86.5266,7969.376 86.1436,7968.128 C85.1626,7964.929 89.2216,7962.775 91.3016,7965.286 C89.5766,7961.685 95.0656,7959.133 96.7236,7962.76 C97.0916,7963.564 97.1006,7964.447 96.6986,7965.286 C97.2456,7964.626 98.0596,7964.195 98.9806,7964.189 L98.9996,7964.188 C99.9176,7964.094 100.8516,7964.376 101.3656,7965.142 C102.9736,7967.538 101.2766,7970 98.9976,7970 L98.9976,7970 Z M90.9996,7977 L96.9996,7977 L96.9996,7975 L90.9996,7975 L90.9996,7977 Z M98.6596,7962.222 C97.9406,7960.341 96.1326,7959 93.9996,7959 C91.8676,7959 90.0596,7960.341 89.3406,7962.222 C86.2936,7962.013 83.9996,7964.418 83.9996,7967.187 C83.9996,7969.949 86.2386,7972.188 88.9996,7972.188 L88.9996,7979 L98.9996,7979 L98.9996,7972.188 C101.7616,7972.188 103.9996,7969.949 103.9996,7967.187 C103.9996,7964.423 101.7106,7962.012 98.6596,7962.222 L98.6596,7962.222 Z" id="cook-[#16]"></path>
            </g>
        </g>
    </g>
</svg>