<?xml version="1.0" encoding="UTF-8" standalone="no"?>
<svg width="21px" height="18px" viewBox="0 0 21 18" version="1.1" xmlns="http://www.w3.org/2000/svg" xmlns:xlink="http://www.w3.org/1999/xlink">
    <!-- Generator: Sketch 3.8.1 (29687) - http://www.bohemiancoding.com/sketch -->
    <title>cover_flow [#1415]</title>
    <desc>Created with Sketch.</desc>
    <defs></defs>
    <g id="Page-1" stroke="none" stroke-width="1" fill="none" fill-rule="evenodd">
        <g id="Dribbble-Dark-Preview" transform="translate(-259.000000, -640.000000)" fill="#FFFFFF">
            <g id="icons" transform="translate(56.000000, 160.000000)">
                <path d="M206.15,496 L208.25,496 L208.25,482 L206.15,482 L206.15,496 Z M211.4,492 L215.6,492 L215.6,486 L211.4,486 L211.4,492 Z M209.3,494 L217.7,494 L217.7,484 L209.3,484 L209.3,494 Z M218.75,496 L220.85,496 L220.85,482 L218.75,482 L218.75,496 Z M221.9,498 L224,498 L224,480 L221.9,480 L221.9,498 Z M203,498 L205.1,498 L205.1,480 L203,480 L203,498 Z" id="cover_flow-[#1415]"></path>
            </g>
        </g>
    </g>
</svg>