<?xml version="1.0" encoding="UTF-8" standalone="no"?>
<svg width="21px" height="18px" viewBox="0 0 21 18" version="1.1" xmlns="http://www.w3.org/2000/svg" xmlns:xlink="http://www.w3.org/1999/xlink">
    <!-- Generator: Sketch 3.8.1 (29687) - http://www.bohemiancoding.com/sketch -->
    <title>cover_flow [#1414]</title>
    <desc>Created with Sketch.</desc>
    <defs></defs>
    <g id="Page-1" stroke="none" stroke-width="1" fill="none" fill-rule="evenodd">
        <g id="Dribbble-Dark-Preview" transform="translate(-299.000000, -640.000000)" fill="#FFFFFF">
            <g id="icons" transform="translate(56.000000, 160.000000)">
                <path d="M247.2,482 C246.6204,482 246.15,482.448 246.15,483 L246.15,495 C246.15,495.552 246.6204,496 247.2,496 C247.7796,496 248.25,495.552 248.25,495 L248.25,483 C248.25,482.448 247.7796,482 247.2,482 L247.2,482 Z M255.6,487 C255.6,486.448 255.1296,486 254.55,486 L252.45,486 C251.8704,486 251.4,486.448 251.4,487 L251.4,491 C251.4,491.552 251.8704,492 252.45,492 L254.55,492 C255.1296,492 255.6,491.552 255.6,491 L255.6,487 Z M257.7,492 C257.7,493.105 256.76025,494 255.6,494 L251.4,494 C250.23975,494 249.3,493.105 249.3,492 L249.3,486 C249.3,484.895 250.23975,484 251.4,484 L255.6,484 C256.76025,484 257.7,484.895 257.7,486 L257.7,492 Z M260.85,495 L260.85,483 C260.85,482.448 260.3796,482 259.8,482 C259.2204,482 258.75,482.448 258.75,483 L258.75,495 C258.75,495.552 259.2204,496 259.8,496 C260.3796,496 260.85,495.552 260.85,495 L260.85,495 Z M261.9,481 L261.9,497 C261.9,497.552 262.3704,498 262.95,498 C263.5296,498 264,497.552 264,497 L264,481 C264,480.448 263.5296,480 262.95,480 C262.3704,480 261.9,480.448 261.9,481 L261.9,481 Z M244.05,498 C243.4704,498 243,497.552 243,497 L243,481 C243,480.448 243.4704,480 244.05,480 C244.6296,480 245.1,480.448 245.1,481 L245.1,497 C245.1,497.552 244.6296,498 244.05,498 L244.05,498 Z" id="cover_flow-[#1414]"></path>
            </g>
        </g>
    </g>
</svg>