<?xml version="1.0" encoding="UTF-8" standalone="no"?>
<svg width="19px" height="20px" viewBox="0 0 19 20" version="1.1" xmlns="http://www.w3.org/2000/svg" xmlns:xlink="http://www.w3.org/1999/xlink">
    <!-- Generator: Sketch 3.8.1 (29687) - http://www.bohemiancoding.com/sketch -->
    <title>cover_flow [#1412]</title>
    <desc>Created with Sketch.</desc>
    <defs></defs>
    <g id="Page-1" stroke="none" stroke-width="1" fill="none" fill-rule="evenodd">
        <g id="Dribbble-Dark-Preview" transform="translate(-380.000000, -640.000000)" fill="#FFFFFF">
            <g id="icons" transform="translate(56.000000, 160.000000)">
                <path d="M326.111111,497 L340.888889,497 L340.888889,495 L326.111111,495 L326.111111,497 Z M330.333333,492 L336.666667,492 L336.666667,488 L330.333333,488 L330.333333,492 Z M328.222222,494 L338.777778,494 L338.777778,486 L328.222222,486 L328.222222,494 Z M326.111111,485 L340.888889,485 L340.888889,483 L326.111111,483 L326.111111,485 Z M324,482 L343,482 L343,480 L324,480 L324,482 Z M324,500 L343,500 L343,498 L324,498 L324,500 Z" id="cover_flow-[#1412]"></path>
            </g>
        </g>
    </g>
</svg>