<?xml version="1.0" encoding="UTF-8" standalone="no"?>
<svg width="19px" height="20px" viewBox="0 0 19 20" version="1.1" xmlns="http://www.w3.org/2000/svg" xmlns:xlink="http://www.w3.org/1999/xlink">
    <!-- Generator: Sketch 3.8.1 (29687) - http://www.bohemiancoding.com/sketch -->
    <title>cover_flow [#1413]</title>
    <desc>Created with Sketch.</desc>
    <defs></defs>
    <g id="Page-1" stroke="none" stroke-width="1" fill="none" fill-rule="evenodd">
        <g id="Dribbble-Dark-Preview" transform="translate(-340.000000, -640.000000)" fill="#FFFFFF">
            <g id="icons" transform="translate(56.000000, 160.000000)">
                <path d="M286.111111,496 C286.111111,496.552 286.584,497 287.166667,497 L299.833333,497 C300.416,497 300.888889,496.552 300.888889,496 C300.888889,495.448 300.416,495 299.833333,495 L287.166667,495 C286.584,495 286.111111,495.448 286.111111,496 L286.111111,496 Z M290.333333,491 C290.333333,491.552 290.806222,492 291.388889,492 L295.611111,492 C296.193778,492 296.666667,491.552 296.666667,491 L296.666667,489 C296.666667,488.448 296.193778,488 295.611111,488 L291.388889,488 C290.806222,488 290.333333,488.448 290.333333,489 L290.333333,491 Z M290.333333,494 C289.166944,494 288.222222,493.105 288.222222,492 L288.222222,488 C288.222222,486.895 289.166944,486 290.333333,486 L296.666667,486 C297.833056,486 298.777778,486.895 298.777778,488 L298.777778,492 C298.777778,493.105 297.833056,494 296.666667,494 L290.333333,494 Z M299.833333,483 L287.166667,483 C286.584,483 286.111111,483.448 286.111111,484 C286.111111,484.552 286.584,485 287.166667,485 L299.833333,485 C300.416,485 300.888889,484.552 300.888889,484 C300.888889,483.448 300.416,483 299.833333,483 L299.833333,483 Z M285.055556,482 L301.944444,482 C302.527111,482 303,481.552 303,481 C303,480.448 302.527111,480 301.944444,480 L285.055556,480 C284.472889,480 284,480.448 284,481 C284,481.552 284.472889,482 285.055556,482 L285.055556,482 Z M303,499 C303,499.552 302.527111,500 301.944444,500 L285.055556,500 C284.472889,500 284,499.552 284,499 C284,498.448 284.472889,498 285.055556,498 L301.944444,498 C302.527111,498 303,498.448 303,499 L303,499 Z" id="cover_flow-[#1413]"></path>
            </g>
        </g>
    </g>
</svg>