<?xml version="1.0" encoding="UTF-8" standalone="no"?>
<svg width="20px" height="20px" viewBox="0 0 20 20" version="1.1" xmlns="http://www.w3.org/2000/svg" xmlns:xlink="http://www.w3.org/1999/xlink">
    <!-- Generator: Sketch 3.8.1 (29687) - http://www.bohemiancoding.com/sketch -->
    <title>cunnect [#832]</title>
    <desc>Created with Sketch.</desc>
    <defs></defs>
    <g id="Page-1" stroke="none" stroke-width="1" fill="none" fill-rule="evenodd">
        <g id="Dribbble-Dark-Preview" transform="translate(-380.000000, -4479.000000)" fill="#FFFFFF">
            <g id="icons" transform="translate(56.000000, 160.000000)">
                <path d="M342,4333 L340,4333 L340,4323 L330,4323 L330,4321 L342,4321 L342,4333 Z M330,4333 L338,4333 L338,4325 L330,4325 L330,4333 Z M338,4337 L326,4337 L326,4325 L328,4325 L328,4335 L338,4335 L338,4337 Z M344,4319 L328,4319 L328,4323 L324,4323 L324,4339 L340,4339 L340,4335 L344,4335 L344,4319 Z" id="cunnect-[#832]"></path>
            </g>
        </g>
    </g>
</svg>