<?xml version="1.0" encoding="UTF-8" standalone="no"?>
<svg width="20px" height="20px" viewBox="0 0 20 20" version="1.1" xmlns="http://www.w3.org/2000/svg" xmlns:xlink="http://www.w3.org/1999/xlink">
    <!-- Generator: Sketch 3.8.1 (29687) - http://www.bohemiancoding.com/sketch -->
    <title>cup [#1302]</title>
    <desc>Created with Sketch.</desc>
    <defs></defs>
    <g id="Page-1" stroke="none" stroke-width="1" fill="none" fill-rule="evenodd">
        <g id="Dribbble-Dark-Preview" transform="translate(-60.000000, -2399.000000)" fill="#FFFFFF">
            <g id="icons" transform="translate(56.000000, 160.000000)">
                <path d="M22,2250.087 C22,2250.639 21.633,2251 21.081,2251 L20,2251 L20,2248 L22,2248 L22,2250.087 Z M18,2252.087 C18,2252.639 17.633,2253 17.081,2253 L11.081,2253 C10.528,2253 10,2252.639 10,2252.087 L10,2241 L18,2241 L18,2252.087 Z M8,2251 L7.081,2251 C6.528,2251 6,2250.639 6,2250.087 L6,2248 L8,2248 L8,2251 Z M20,2246 L20,2239 L8,2239 L8,2246 L4,2246 L4,2251.087 C4,2252.192 4.976,2253 6.081,2253 L8.081,2253 C8.081,2254 8.976,2255 10.081,2255 L13,2255 L13,2257 L11,2257 L11,2259 L17,2259 L17,2257 L15,2257 L15,2255 L18.081,2255 C19.185,2255 20.081,2254 20.081,2253 L22.081,2253 C23.185,2253 24,2252.192 24,2251.087 L24,2246 L20,2246 Z" id="cup-[#1302]"></path>
            </g>
        </g>
    </g>
</svg>