<?xml version="1.0" encoding="UTF-8" standalone="no"?>
<svg width="21px" height="20px" viewBox="0 0 21 20" version="1.1" xmlns="http://www.w3.org/2000/svg" xmlns:xlink="http://www.w3.org/1999/xlink">
    <!-- Generator: Sketch 3.8.1 (29687) - http://www.bohemiancoding.com/sketch -->
    <title>cup [#1432]</title>
    <desc>Created with Sketch.</desc>
    <defs></defs>
    <g id="Page-1" stroke="none" stroke-width="1" fill="none" fill-rule="evenodd">
        <g id="Dribbble-Dark-Preview" transform="translate(-379.000000, -560.000000)" fill="#FFFFFF">
            <g id="icons" transform="translate(56.000000, 160.000000)">
                <path d="M340.50035,412 L338.225,412 L338.4875,410 L341.2007,410 L340.50035,412 Z M335.8625,414 L331.1375,414 L329.5625,402 L337.4375,402 L335.8625,414 Z M326.5007,412 L325.80035,410 L328.5125,410 L328.775,412 L326.5007,412 Z M338.75,408 L339.8,400 L327.2,400 L328.25,408 L323,408 L325.1,414 L329.0375,414 L329.3,416 L332.45,416 L332.45,418 L330.35,418 L330.35,420 L336.65,420 L336.65,418 L334.55,418 L334.55,416 L337.7,416 L337.9625,414 L341.9,414 L344,408 L338.75,408 Z" id="cup-[#1432]"></path>
            </g>
        </g>
    </g>
</svg>