<?xml version="1.0" encoding="UTF-8" standalone="no"?>
<svg width="20px" height="20px" viewBox="0 0 20 20" version="1.1" xmlns="http://www.w3.org/2000/svg" xmlns:xlink="http://www.w3.org/1999/xlink">
    <!-- Generator: Sketch 3.8.1 (29687) - http://www.bohemiancoding.com/sketch -->
    <title>cup [#106]</title>
    <desc>Created with Sketch.</desc>
    <defs></defs>
    <g id="Page-1" stroke="none" stroke-width="1" fill="none" fill-rule="evenodd">
        <g id="Dribbble-Dark-Preview" transform="translate(-140.000000, -7759.000000)" fill="#FFFFFF">
            <g id="icons" transform="translate(56.000000, 160.000000)">
                <path d="M99.75,7611.087 L101.75,7611.087 L101.75,7609.087 L99.75,7609.087 L99.75,7611.087 Z M90,7613 L98,7613 L98,7601 L90,7601 L90,7613 Z M85.75,7611.087 L87.75,7611.087 L87.75,7609.087 L85.75,7609.087 L85.75,7611.087 Z M100,7607 L100,7599 L88,7599 L88,7607 L84,7607 L84,7613 L88,7613 L88,7615 L93,7615 L93,7617 L91,7617 L91,7619 L97,7619 L97,7617 L95,7617 L95,7615 L100,7615 L100,7613 L104,7613 L104,7607 L100,7607 Z" id="cup-[#106]"></path>
            </g>
        </g>
    </g>
</svg>