<?xml version="1.0" encoding="UTF-8" standalone="no"?>
<svg width="20px" height="20px" viewBox="0 0 20 20" version="1.1" xmlns="http://www.w3.org/2000/svg" xmlns:xlink="http://www.w3.org/1999/xlink">
    <!-- Generator: Sketch 3.8.1 (29687) - http://www.bohemiancoding.com/sketch -->
    <title>curling [#118]</title>
    <desc>Created with Sketch.</desc>
    <defs></defs>
    <g id="Page-1" stroke="none" stroke-width="1" fill="none" fill-rule="evenodd">
        <g id="Dribbble-Dark-Preview" transform="translate(-60.000000, -7719.000000)" fill="#FFFFFF">
            <g id="icons" transform="translate(56.000000, 160.000000)">
                <path d="M6.12857335,7571 C6.5933375,7568.721 8.61131345,7567 11.0250885,7567 L17.0220453,7567 C19.4348209,7567 21.4537963,7568.721 21.9185605,7571 L6.12857335,7571 Z M17.0220453,7577 L11.0250885,7577 C8.61131345,7577 6.5933375,7575.279 6.12857335,7573 L21.9185605,7573 C21.4537963,7575.279 19.4348209,7577 17.0220453,7577 L17.0220453,7577 Z M16.9850641,7565 L16.9850641,7560.812 C16.9850641,7559.811 16.023552,7559 15.0230597,7559 L9.8376911,7559 C9.28597108,7559 8.83819831,7559.448 8.83819831,7560 C8.83819831,7560.552 9.28597108,7561 9.8376911,7561 L13.8356623,7561 C14.3883818,7561 14.8351551,7561.448 14.8351551,7562 C14.8351551,7562.552 14.3883818,7563 13.8356623,7563 L11.8366767,7563 C11.2849567,7563 10.9881073,7563.448 10.9881073,7564 L10.9881073,7565 C6.99013614,7565 1.77878073,7570.109 5.00914143,7575.327 C6.46040496,7577.671 9.03709738,7579 11.792699,7579 L16.0815226,7579 C20.4782914,7579 23.8775663,7576.05 23.996506,7572.227 C24.1194436,7568.257 20.9830352,7565 16.9850641,7565 L16.9850641,7565 Z" id="curling-[#118]"></path>
            </g>
        </g>
    </g>
</svg>