<?xml version="1.0" encoding="UTF-8" standalone="no"?>
<svg width="20px" height="20px" viewBox="0 0 20 20" version="1.1" xmlns="http://www.w3.org/2000/svg" xmlns:xlink="http://www.w3.org/1999/xlink">
    <!-- Generator: Sketch 3.8.1 (29687) - http://www.bohemiancoding.com/sketch -->
    <title>curling [#117]</title>
    <desc>Created with Sketch.</desc>
    <defs></defs>
    <g id="Page-1" stroke="none" stroke-width="1" fill="none" fill-rule="evenodd">
        <g id="Dribbble-Dark-Preview" transform="translate(-100.000000, -7719.000000)" fill="#FFFFFF">
            <g id="icons" transform="translate(56.000000, 160.000000)">
                <path d="M46.1011,7571 C46.5661,7568.721 48.5851,7567 51.0001,7567 L57.0001,7567 C59.4141,7567 61.4341,7568.721 61.8991,7571 L46.1011,7571 Z M57.0001,7577 L51.0001,7577 C48.5851,7577 46.5661,7575.279 46.1011,7573 L61.8991,7573 C61.4341,7575.279 59.4141,7577 57.0001,7577 L57.0001,7577 Z M57.0001,7565 L57.0001,7559 L49.0001,7559 L49.0001,7561 L55.0001,7561 L55.0001,7563 L51.0001,7563 L51.0001,7565 C47.0001,7565 44.0001,7568.134 44.0001,7572 C44.0001,7575.866 47.1341,7579 51.0001,7579 L57.0001,7579 C60.8661,7579 64.0001,7575.866 64.0001,7572 C64.0001,7568.134 61.0001,7565 57.0001,7565 L57.0001,7565 Z" id="curling-[#117]"></path>
            </g>
        </g>
    </g>
</svg>