<?xml version="1.0" encoding="UTF-8" standalone="no"?>
<svg width="20px" height="20px" viewBox="0 0 20 20" version="1.1" xmlns="http://www.w3.org/2000/svg" xmlns:xlink="http://www.w3.org/1999/xlink">
    <!-- Generator: Sketch 3.8.1 (29687) - http://www.bohemiancoding.com/sketch -->
    <title>cut#3_round [#822]</title>
    <desc>Created with Sketch.</desc>
    <defs></defs>
    <g id="Page-1" stroke="none" stroke-width="1" fill="none" fill-rule="evenodd">
        <g id="Dribbble-Dark-Preview" transform="translate(-380.000000, -4519.000000)" fill="#FFFFFF">
            <g id="icons" transform="translate(56.000000, 160.000000)">
                <path d="M339,4379 L339,4379 C339.552,4379 340,4378.552 340,4378 L340,4377 C340,4376.448 339.552,4376 339,4376 C338.448,4376 338,4376.448 338,4377 L338,4378 C338,4378.552 338.448,4379 339,4379 L339,4379 Z M340,4373 L338,4373 L331,4373 C330.448,4373 330,4372.552 330,4372 L330,4367 C330,4366.448 329.552,4366 329,4366 C328.448,4366 328,4366.448 328,4367 L328,4373 C328,4374.105 328.895,4375 330,4375 L338,4375 L340,4375 L343,4375 C343.552,4375 344,4374.552 344,4374 C344,4373.448 343.552,4373 343,4373 L340,4373 Z M330,4365 L337,4365 C337.552,4365 338,4365.448 338,4366 L338,4371 C338,4371.552 338.448,4372 339,4372 C339.552,4372 340,4371.552 340,4371 L340,4365 C340,4363.895 339.105,4363 338,4363 L330,4363 L328,4363 L325,4363 C324.448,4363 324,4363.448 324,4364 C324,4364.552 324.448,4365 325,4365 L328,4365 L330,4365 Z M330,4360 L330,4361 C330,4361.552 329.552,4362 329,4362 C328.448,4362 328,4361.552 328,4361 L328,4360 C328,4359.448 328.448,4359 329,4359 C329.552,4359 330,4359.448 330,4360 L330,4360 Z" id="cut#3_round-[#822]"></path>
            </g>
        </g>
    </g>
</svg>