<?xml version="1.0" encoding="UTF-8" standalone="no"?>
<svg width="20px" height="20px" viewBox="0 0 20 20" version="1.1" xmlns="http://www.w3.org/2000/svg" xmlns:xlink="http://www.w3.org/1999/xlink">
    <!-- Generator: Sketch 3.8.1 (29687) - http://www.bohemiancoding.com/sketch -->
    <title>cut#4 [#821]</title>
    <desc>Created with Sketch.</desc>
    <defs></defs>
    <g id="Page-1" stroke="none" stroke-width="1" fill="none" fill-rule="evenodd">
        <g id="Dribbble-Dark-Preview" transform="translate(-420.000000, -4519.000000)" fill="#FFFFFF">
            <g id="icons" transform="translate(56.000000, 160.000000)">
                <path d="M378,4379 L380,4379 L380,4376 L378,4376 L378,4379 Z M380,4373 L378,4373 L370,4373 L370,4366 L368,4366 L368,4373 L368,4375 L370,4375 L378,4375 L380,4375 L384,4375 L384,4373 L380,4373 Z M370,4365 L378,4365 L378,4372 L380,4372 L380,4365 L380,4363 L378,4363 L370,4363 L368,4363 L364,4363 L364,4365 L368,4365 L370,4365 Z M368,4362 L370,4362 L370,4359 L368,4359 L368,4362 Z" id="cut#4-[#821]"></path>
            </g>
        </g>
    </g>
</svg>