<?xml version="1.0" encoding="UTF-8" standalone="no"?>
<svg width="20px" height="20px" viewBox="0 0 20 20" version="1.1" xmlns="http://www.w3.org/2000/svg" xmlns:xlink="http://www.w3.org/1999/xlink">
    <!-- Generator: Sketch 3.8.1 (29687) - http://www.bohemiancoding.com/sketch -->
    <title>cut#2 [#823]</title>
    <desc>Created with Sketch.</desc>
    <defs></defs>
    <g id="Page-1" stroke="none" stroke-width="1" fill="none" fill-rule="evenodd">
        <g id="Dribbble-Dark-Preview" transform="translate(-340.000000, -4519.000000)" fill="#FFFFFF">
            <g id="icons" transform="translate(56.000000, 160.000000)">
                <path d="M296.02,4367.3341 C296.02,4367.0361 295.787,4366.7941 295.499,4366.7941 C295.211,4366.7941 294.978,4367.0361 294.978,4367.3341 C294.978,4367.6321 295.211,4367.8741 295.499,4367.8741 C295.787,4367.8741 296.02,4367.6321 296.02,4367.3341 L296.02,4367.3341 Z M293.163,4368.8031 L291,4372.0001 L297.012,4372.0001 L295.368,4369.8971 L294.641,4371.0051 L293.163,4368.8031 Z M298,4379.0001 L300,4379.0001 L300,4376.0001 L298,4376.0001 L298,4379.0001 Z M300,4373.0001 L298,4373.0001 L290,4373.0001 L290,4366.0001 L288,4366.0001 L288,4373.0001 L288,4375.0001 L290,4375.0001 L298,4375.0001 L300,4375.0001 L304,4375.0001 L304,4373.0001 L300,4373.0001 Z M290,4365.0001 L298,4365.0001 L298,4372.0001 L300,4372.0001 L300,4365.0001 L300,4363.0001 L298,4363.0001 L290,4363.0001 L288,4363.0001 L284,4363.0001 L284,4365.0001 L288,4365.0001 L290,4365.0001 Z M288,4362.0001 L290,4362.0001 L290,4359.0001 L288,4359.0001 L288,4362.0001 Z" id="cut#2-[#823]"></path>
            </g>
        </g>
    </g>
</svg>