<?xml version="1.0" encoding="UTF-8" standalone="no"?>
<svg width="20px" height="20px" viewBox="0 0 20 20" version="1.1" xmlns="http://www.w3.org/2000/svg" xmlns:xlink="http://www.w3.org/1999/xlink">
    <!-- Generator: Sketch 3.8.1 (29687) - http://www.bohemiancoding.com/sketch -->
    <title>cut_corner_round [#889]</title>
    <desc>Created with Sketch.</desc>
    <defs></defs>
    <g id="Page-1" stroke="none" stroke-width="1" fill="none" fill-rule="evenodd">
        <g id="Dribbble-Dark-Preview" transform="translate(-100.000000, -4279.000000)" fill="#FFFFFF">
            <g id="icons" transform="translate(56.000000, 160.000000)">
                <path d="M62,4136 C62,4136.55 61.55,4137 61,4137 L52.237,4137 L51.237,4137 L47,4137 C46.45,4137 46,4136.55 46,4136 L46,4130.911 L46,4122 C46,4121.448 46.448,4121 47,4121 L55,4121 C55.552,4121 56,4121.448 56,4122 L56,4125.411 C56,4126.285 56.715,4127 57.589,4127 L58.237,4127 L61,4127 C61.552,4127 62,4127.448 62,4128 L62,4136 Z M62.089,4125 L59,4125 C58.448,4125 58,4124.552 58,4124 L58,4120.763 C58,4119.789 57.21,4119 56.237,4119 L46.237,4119 L46,4119 C44.9,4119 44,4119.9 44,4121 L44,4130.911 L44,4136.411 L44,4137 C44,4138.1 44.9,4139 46,4139 L46.237,4139 L51.237,4139 L52.237,4139 L59.104,4139 L62,4139 C63.105,4139 64,4138.105 64,4137 L64,4132.917 L64,4126.911 C64,4125.856 63.144,4125 62.089,4125 L62.089,4125 Z" id="cut_corner_round-[#889]"></path>
            </g>
        </g>
    </g>
</svg>