<?xml version="1.0" encoding="UTF-8" standalone="no"?>
<svg width="20px" height="20px" viewBox="0 0 20 20" version="1.1" xmlns="http://www.w3.org/2000/svg" xmlns:xlink="http://www.w3.org/1999/xlink">
    <!-- Generator: Sketch 3.8.1 (29687) - http://www.bohemiancoding.com/sketch -->
    <title>cut_corner [#888]</title>
    <desc>Created with Sketch.</desc>
    <defs></defs>
    <g id="Page-1" stroke="none" stroke-width="1" fill="none" fill-rule="evenodd">
        <g id="Dribbble-Dark-Preview" transform="translate(-140.000000, -4279.000000)" fill="#FFFFFF">
            <g id="icons" transform="translate(56.000000, 160.000000)">
                <path d="M102,4137 L92.103,4137 L91.103,4137 L86,4137 L86,4130.58 L86,4121 L96,4121 L96,4125.08 L96,4127 L98.103,4127 L102,4127 L102,4137 Z M98,4125 L98,4119 L96.103,4119 L86.103,4119 L84,4119 L84,4120.08 L84,4130.58 L84,4136.08 L84,4139 L86.103,4139 L91.103,4139 L92.103,4139 L102.103,4139 L104,4139 L104,4136.08 L104,4126.58 L104,4125 L98,4125 Z" id="cut_corner-[#888]"></path>
            </g>
        </g>
    </g>
</svg>