<?xml version="1.0" encoding="UTF-8" standalone="no"?>
<svg width="20px" height="20px" viewBox="0 0 20 20" version="1.1" xmlns="http://www.w3.org/2000/svg" xmlns:xlink="http://www.w3.org/1999/xlink">
    <!-- Generator: Sketch 3.8.1 (29687) - http://www.bohemiancoding.com/sketch -->
    <title>cut_corner [#890]</title>
    <desc>Created with Sketch.</desc>
    <defs></defs>
    <g id="Page-1" stroke="none" stroke-width="1" fill="none" fill-rule="evenodd">
        <g id="Dribbble-Dark-Preview" transform="translate(-60.000000, -4279.000000)" fill="#FFFFFF">
            <g id="icons" transform="translate(56.000000, 160.000000)">
                <path d="M22,4131 L18.5,4131 L16,4131 L16,4131.961 L16,4137 L6,4137 L6,4126.461 L6,4121 L11.5,4121 L12.5,4121 L22,4121 L22,4131 Z M24,4133 L24,4130.461 L24,4120.961 L24,4119 L22.5,4119 L12.5,4119 L11.5,4119 L6.5,4119 L4,4119 L4,4120.961 L4,4126.461 L4,4136.961 L4,4139 L6.5,4139 L16.5,4139 L18,4139 L18,4133 L24,4133 Z" id="cut_corner-[#890]"></path>
            </g>
        </g>
    </g>
</svg>