<?xml version="1.0" encoding="UTF-8" standalone="no"?>
<svg width="20px" height="20px" viewBox="0 0 20 20" version="1.1" xmlns="http://www.w3.org/2000/svg" xmlns:xlink="http://www.w3.org/1999/xlink">
    <!-- Generator: Sketch 3.8.1 (29687) - http://www.bohemiancoding.com/sketch -->
    <title>cut_corner [#18]</title>
    <desc>Created with Sketch.</desc>
    <defs></defs>
    <g id="Page-1" stroke="none" stroke-width="1" fill="none" fill-rule="evenodd">
        <g id="Dribbble-Dark-Preview" transform="translate(-60.000000, -8119.000000)" fill="#FFFFFF">
            <g id="icons" transform="translate(56.000000, 160.000000)">
                <path d="M22,7975.9994 C22,7976.5514 21.552,7977.0004 21,7977.0004 L7,7977.0004 C6.447,7977.0004 6,7976.5514 6,7975.9994 L6,7966.0434 C6,7965.9104 6.052,7965.7834 6.146,7965.6904 L10.69,7961.1464 C10.784,7961.0524 10.911,7961.0004 11.043,7961.0004 L21,7961.0004 C21.552,7961.0004 22,7961.4474 22,7961.9994 L22,7975.9994 Z M21.999,7959.0004 L10.828,7959.0034 C10.297,7959.0034 9.789,7959.2144 9.414,7959.5894 L4.589,7964.4134 C4.214,7964.7884 4.004,7965.2974 4.003,7965.8274 L4,7976.9994 C4,7978.1034 4.895,7979.0004 6,7979.0004 L22,7979.0004 C23.104,7979.0004 24,7978.1044 24,7976.9994 L24,7961.0004 C24,7959.8954 23.104,7958.9994 21.999,7959.0004 L21.999,7959.0004 Z" id="cut_corner-[#18]"></path>
            </g>
        </g>
    </g>
</svg>