<?xml version="1.0" encoding="UTF-8" standalone="no"?>
<svg width="20px" height="20px" viewBox="0 0 20 20" version="1.1" xmlns="http://www.w3.org/2000/svg" xmlns:xlink="http://www.w3.org/1999/xlink">
    <!-- Generator: Sketch 3.8.1 (29687) - http://www.bohemiancoding.com/sketch -->
    <title>cut_corner_round [#891]</title>
    <desc>Created with Sketch.</desc>
    <defs></defs>
    <g id="Page-1" stroke="none" stroke-width="1" fill="none" fill-rule="evenodd">
        <g id="Dribbble-Dark-Preview" transform="translate(-420.000000, -4239.000000)" fill="#FFFFFF">
            <g id="icons" transform="translate(56.000000, 160.000000)">
                <path d="M382,4089.9137 C382,4090.4657 381.551,4090.9997 380.999,4090.9997 L377.999,4090.9997 L377.499,4090.9997 C376.671,4090.9997 376,4091.6287 376,4092.4567 L376,4092.4137 L376,4095.9137 C376,4096.4657 375.551,4096.9997 374.999,4096.9997 L366.999,4096.9997 C366.447,4096.9997 366,4096.4657 366,4095.9137 L366,4086.9137 L366,4081.9137 C366,4081.3617 366.447,4080.9997 366.999,4080.9997 L370.999,4080.9997 L371.999,4080.9997 L380.999,4080.9997 C381.551,4080.9997 382,4081.3617 382,4081.9137 L382,4089.9137 Z M382.499,4092.9997 C383.328,4092.9997 384,4092.2417 384,4091.4137 L384,4090.9137 L384,4081.4137 L384,4080.4137 C384,4079.5857 383.328,4078.9997 382.499,4078.9997 L381.999,4078.9997 L371.999,4078.9997 L370.999,4078.9997 L365.999,4078.9997 L365.499,4078.9997 C364.671,4078.9997 364,4079.5857 364,4080.4137 L364,4081.4137 L364,4086.9137 L364,4097.4137 L364,4097.4567 C364,4098.2857 364.671,4098.9997 365.499,4098.9997 L365.999,4098.9997 L375.999,4098.9997 L376.499,4098.9997 C377.328,4098.9997 378,4098.2417 378,4097.4137 L378,4092.9997 L382.499,4092.9997 Z" id="cut_corner_round-[#891]"></path>
            </g>
        </g>
    </g>
</svg>