<?xml version="1.0" encoding="UTF-8" standalone="no"?>
<svg width="20px" height="20px" viewBox="0 0 20 20" version="1.1" xmlns="http://www.w3.org/2000/svg" xmlns:xlink="http://www.w3.org/1999/xlink">
    <!-- Generator: Sketch 3.8.1 (29687) - http://www.bohemiancoding.com/sketch -->
    <title>dead_star [#39]</title>
    <desc>Created with Sketch.</desc>
    <defs></defs>
    <g id="Page-1" stroke="none" stroke-width="1" fill="none" fill-rule="evenodd">
        <g id="Dribbble-Dark-Preview" transform="translate(-420.000000, -7999.000000)" fill="#FFFFFF">
            <g id="icons" transform="translate(56.000000, 160.000000)">
                <path d="M374,7857 C372.57,7857 371.201,7856.619 369.997,7855.92 C373.885,7856.481 377.536,7853.705 377.92,7850 L381.926,7850 C381.492,7854.077 377.933,7857 374,7857 M367.464,7845.464 C369.418,7843.51 372.581,7843.51 374.536,7845.464 C376.485,7847.414 376.485,7850.586 374.536,7852.536 C372.582,7854.49 369.419,7854.49 367.464,7852.536 C365.515,7850.586 365.515,7847.414 367.464,7845.464 M381.926,7848 L377.92,7848 C377.012,7843.623 373.495,7841.575 369.997,7842.08 C374.977,7839.188 381.331,7842.411 381.926,7848 M381.071,7841.929 C377.166,7838.024 370.834,7838.024 366.929,7841.929 C362.965,7845.893 363.094,7852.236 366.929,7856.071 C370.834,7859.976 377.166,7859.976 381.071,7856.071 C384.976,7852.166 384.976,7845.834 381.071,7841.929" id="dead_star-[#39]"></path>
            </g>
        </g>
    </g>
</svg>