<?xml version="1.0" encoding="UTF-8" standalone="no"?>
<svg width="16px" height="20px" viewBox="0 0 16 20" version="1.1" xmlns="http://www.w3.org/2000/svg" xmlns:xlink="http://www.w3.org/1999/xlink">
    <!-- Generator: Sketch 3.8.1 (29687) - http://www.bohemiancoding.com/sketch -->
    <title>dead [#393]</title>
    <desc>Created with Sketch.</desc>
    <defs></defs>
    <g id="Page-1" stroke="none" stroke-width="1" fill="none" fill-rule="evenodd">
        <g id="Dribbble-Dark-Preview" transform="translate(-262.000000, -6399.000000)" fill="#FFFFFF">
            <g id="icons" transform="translate(56.000000, 160.000000)">
                <path d="M219.997571,6246.83762 C219.997571,6243.59693 217.302301,6240.95971 213.990283,6240.95971 C210.678265,6240.95971 207.982996,6243.59693 207.982996,6246.83762 C207.982996,6248.57258 208.98421,6250.12925 209.985425,6251.20589 L209.985425,6253.61779 L209.985425,6257.0407 L212.989069,6257.0407 L212.989069,6255.08139 L214.991498,6255.08139 L214.991498,6257.0407 L217.995142,6257.0407 L217.995142,6253.61779 L217.995142,6251.20589 C218.996356,6250.12925 219.997571,6248.57258 219.997571,6246.83762 M222,6246.83762 C222,6248.8224 220.998785,6250.62887 219.997571,6252.0092 L219.997571,6259 L207.982996,6259 L207.982996,6252.0092 C206.981781,6250.3869 205.729262,6248.17582 206.051653,6245.7796 C206.525227,6242.26852 209.479811,6239.43929 213.078177,6239.04939 C217.910038,6238.52723 222,6242.21464 222,6246.83762 M210.986639,6245.85797 C210.433969,6245.85797 209.985425,6246.29685 209.985425,6246.83762 L209.985425,6248.79692 C209.985425,6249.33769 210.433969,6249.77658 210.986639,6249.77658 C211.53931,6249.77658 211.987854,6249.33769 211.987854,6248.79692 L211.987854,6246.83762 C211.987854,6246.29685 211.53931,6245.85797 210.986639,6245.85797 M217.995142,6246.83762 L217.995142,6248.79692 C217.995142,6249.33769 217.546597,6249.77658 216.993927,6249.77658 C216.441257,6249.77658 215.992712,6249.33769 215.992712,6248.79692 L215.992712,6246.83762 C215.992712,6246.29685 216.441257,6245.85797 216.993927,6245.85797 C217.546597,6245.85797 217.995142,6246.29685 217.995142,6246.83762" id="dead-[#393]"></path>
            </g>
        </g>
    </g>
</svg>