<?xml version="1.0" encoding="UTF-8" standalone="no"?>
<svg width="20px" height="20px" viewBox="0 0 20 20" version="1.1" xmlns="http://www.w3.org/2000/svg" xmlns:xlink="http://www.w3.org/1999/xlink">
    <!-- Generator: Sketch 3.8.1 (29687) - http://www.bohemiancoding.com/sketch -->
    <title>desktop [#230]</title>
    <desc>Created with Sketch.</desc>
    <defs></defs>
    <g id="Page-1" stroke="none" stroke-width="1" fill="none" fill-rule="evenodd">
        <g id="Dribbble-Dark-Preview" transform="translate(-180.000000, -7159.000000)" fill="#FFFFFF">
            <g id="icons" transform="translate(56.000000, 160.000000)">
                <path d="M132,7008.4459 L132,7004.6109 C132,7004.2149 132.311,7003.9739 132.647,7004.1849 L135.573,7006.1019 C135.887,7006.2999 135.922,7006.7569 135.608,7006.9549 L132.629,7008.8719 C132.294,7009.0829 132,7008.8419 132,7008.4459 L132,7008.4459 Z M126,7012.9999 L142,7012.9999 L142,7000.9999 L126,7000.9999 L126,7012.9999 Z M144,6998.9999 L124,6998.9999 L124,7014.9999 L133,7014.9999 L133,7016.9999 L128,7016.9999 L128,7018.9999 L140,7018.9999 L140,7016.9999 L135,7016.9999 L135,7014.9999 L144,7014.9999 L144,6998.9999 Z" id="desktop-[#230]"></path>
            </g>
        </g>
    </g>
</svg>