<?xml version="1.0" encoding="UTF-8" standalone="no"?>
<svg width="20px" height="20px" viewBox="0 0 20 20" version="1.1" xmlns="http://www.w3.org/2000/svg" xmlns:xlink="http://www.w3.org/1999/xlink">
    <!-- Generator: Sketch 3.8.1 (29687) - http://www.bohemiancoding.com/sketch -->
    <title>desktop [#232]</title>
    <desc>Created with Sketch.</desc>
    <defs></defs>
    <g id="Page-1" stroke="none" stroke-width="1" fill="none" fill-rule="evenodd">
        <g id="Dribbble-Dark-Preview" transform="translate(-100.000000, -7159.000000)" fill="#FFFFFF">
            <g id="icons" transform="translate(56.000000, 160.000000)">
                <path d="M62.0006998,7012 C62.0006998,7012.552 61.5528565,7013 61.0010496,7013 L47.0059479,7013 C46.4541411,7013 46.0062978,7012.552 46.0062978,7012 L46.0062978,7002 C46.0062978,7001.448 46.4541411,7001 47.0059479,7001 L61.0010496,7001 C61.5528565,7001 62.0006998,7001.448 62.0006998,7002 L62.0006998,7012 Z M61.9907033,6999 L45.9963013,6999 L45.9923027,6999 C44.888689,6999 44,6999.915 44,7001.02 L44.0069976,7001.04 L44.0069976,7013.04 L44,7013.02 C44,7014.125 44.888689,7015 45.9923027,7015 L45.9963013,7015 L51.9902034,7015 C52.5430099,7015 53.0038487,7015.468 53.0038487,7016.02 L53.0038487,7016.01 C53.0038487,7016.562 52.5430099,7017 51.9902034,7017 L48.9912531,7017 C48.4394462,7017 48.005598,7017.468 48.005598,7018.02 L48.005598,7018.01 C48.005598,7018.562 48.4394462,7019 48.9912531,7019 L58.9877543,7019 C59.5405608,7019 60.0013995,7018.572 60.0013995,7018.02 L60.0013995,7018.01 C60.0013995,7017.458 59.5405608,7017 58.9877543,7017 L55.9888039,7017 C55.4369971,7017 55.0031489,7016.572 55.0031489,7016.02 L55.0031489,7016.01 C55.0031489,7015.458 55.4369971,7015 55.9888039,7015 L61.9907033,7015 L61.9977008,7015.02 C63.0993152,7015.02 64,7014.146 64,7013.043 L64,7013.04 L64,7001.04 L64,7001.037 C64,6999.934 63.0993152,6999.02 61.9977008,6999.02 L61.9907033,6999 Z" id="desktop-[#232]"></path>
            </g>
        </g>
    </g>
</svg>