<?xml version="1.0" encoding="UTF-8" standalone="no"?>
<svg width="20px" height="20px" viewBox="0 0 20 20" version="1.1" xmlns="http://www.w3.org/2000/svg" xmlns:xlink="http://www.w3.org/1999/xlink">
    <!-- Generator: Sketch 3.8.1 (29687) - http://www.bohemiancoding.com/sketch -->
    <title>desktop [#228]</title>
    <desc>Created with Sketch.</desc>
    <defs></defs>
    <g id="Page-1" stroke="none" stroke-width="1" fill="none" fill-rule="evenodd">
        <g id="Dribbble-Dark-Preview" transform="translate(-260.000000, -7159.000000)" fill="#FFFFFF">
            <g id="icons" transform="translate(56.000000, 160.000000)">
                <path d="M217,7004.5284 L217,7008.5284 C217,7009.0804 216.552,7009.5284 216,7009.5284 C215.448,7009.5284 215,7009.0804 215,7008.5284 L215,7004.5284 C215,7003.9764 215.448,7003.5284 216,7003.5284 C216.552,7003.5284 217,7003.9764 217,7004.5284 L217,7004.5284 Z M213,7004.5284 L213,7008.5284 C213,7009.0804 212.552,7009.5284 212,7009.5284 C211.448,7009.5284 211,7009.0804 211,7008.5284 L211,7004.5284 C211,7003.9764 211.448,7003.5284 212,7003.5284 C212.552,7003.5284 213,7003.9764 213,7004.5284 L213,7004.5284 Z M222,7012.0004 C222,7012.5524 221.552,7013.0004 221,7013.0004 L207,7013.0004 C206.448,7013.0004 206,7012.5524 206,7012.0004 L206,7002.0004 C206,7001.4474 206.448,7001.0004 207,7001.0004 L221,7001.0004 C221.552,7001.0004 222,7001.4474 222,7002.0004 L222,7012.0004 Z M222.114,6999.0004 L206.114,6999.0004 L206.111,6999.0004 C205.007,6999.0004 204,6999.4234 204,7000.5284 L204,7012.5284 C204,7013.6334 205.007,7015.0004 206.111,7015.0004 L206.114,7015.0004 L212.111,7015.0004 C212.663,7015.0004 213.111,7015.4474 213.111,7016.0004 C213.111,7016.5524 212.663,7017.0004 212.111,7017.0004 L209.111,7017.0004 C208.559,7017.0004 208.111,7017.4474 208.111,7018.0004 C208.111,7018.5524 208.559,7019.0004 209.111,7019.0004 L219.111,7019.0004 C219.663,7019.0004 220.111,7018.5524 220.111,7018.0004 C220.111,7017.4474 219.663,7017.0004 219.111,7017.0004 L216.111,7017.0004 C215.559,7017.0004 215.111,7016.5524 215.111,7016.0004 C215.111,7015.4474 215.559,7015.0004 216.111,7015.0004 L222.114,7015.0004 C223.217,7015.0004 224,7013.6344 224,7012.5314 L224,7012.5284 L224,7000.5284 L224,7000.5254 C224,6999.4224 223.217,6999.0004 222.114,6999.0004 L222.114,6999.0004 Z" id="desktop-[#228]"></path>
            </g>
        </g>
    </g>
</svg>