<?xml version="1.0" encoding="UTF-8" standalone="no"?>
<svg width="20px" height="20px" viewBox="0 0 20 20" version="1.1" xmlns="http://www.w3.org/2000/svg" xmlns:xlink="http://www.w3.org/1999/xlink">
    <!-- Generator: Sketch 3.8.1 (29687) - http://www.bohemiancoding.com/sketch -->
    <title>desktop [#231]</title>
    <desc>Created with Sketch.</desc>
    <defs></defs>
    <g id="Page-1" stroke="none" stroke-width="1" fill="none" fill-rule="evenodd">
        <g id="Dribbble-Dark-Preview" transform="translate(-140.000000, -7159.000000)" fill="#FFFFFF">
            <g id="icons" transform="translate(56.000000, 160.000000)">
                <path d="M102,7002 C102,7001.448 101.552,7001 101,7001 L87,7001 C86.448,7001 86,7001.448 86,7002 L86,7012 C86,7012.552 86.448,7013 87,7013 L101,7013 C101.552,7013 102,7012.552 102,7012 L102,7002 Z M104,7000.525 L104,7000.528 L104,7012.528 L104,7012.532 C104,7013.634 103.328,7015 102.226,7015 L96.222,7015 C95.67,7015 95.222,7015.448 95.222,7016 C95.222,7016.552 95.67,7017 96.222,7017 L99.222,7017 C99.775,7017 100.222,7017.448 100.222,7018 C100.222,7018.552 99.775,7019 99.222,7019 L89.222,7019 C88.67,7019 88.222,7018.552 88.222,7018 C88.222,7017.448 88.67,7017 89.222,7017 L92.222,7017 C92.775,7017 93.222,7016.552 93.222,7016 C93.222,7015.448 92.775,7015 92.222,7015 L86.226,7015 L86.222,7015 C85.118,7015 84,7013.633 84,7012.528 L84,7000.528 C84,6999.424 85.118,6999 86.222,6999 L86.226,6999 L102.226,6999 C103.328,6999 104,6999.422 104,7000.525 L104,7000.525 Z M95.944,7006.955 L92.853,7008.872 C92.518,7009.083 92,7008.842 92,7008.446 L92,7004.611 C92,7004.215 92.518,7003.974 92.853,7004.185 L95.985,7006.102 C96.299,7006.3 96.258,7006.757 95.944,7006.955 L95.944,7006.955 Z" id="desktop-[#231]"></path>
            </g>
        </g>
    </g>
</svg>