<?xml version="1.0" encoding="UTF-8" standalone="no"?>
<svg width="20px" height="20px" viewBox="0 0 20 20" version="1.1" xmlns="http://www.w3.org/2000/svg" xmlns:xlink="http://www.w3.org/1999/xlink">
    <!-- Generator: Sketch 3.8.1 (29687) - http://www.bohemiancoding.com/sketch -->
    <title>desktop [#229]</title>
    <desc>Created with Sketch.</desc>
    <defs></defs>
    <g id="Page-1" stroke="none" stroke-width="1" fill="none" fill-rule="evenodd">
        <g id="Dribbble-Dark-Preview" transform="translate(-220.000000, -7159.000000)" fill="#FFFFFF">
            <g id="icons" transform="translate(56.000000, 160.000000)">
                <path d="M175,7010 L177,7010 L177,7004 L175,7004 L175,7010 Z M171,7010 L173,7010 L173,7004 L171,7004 L171,7010 Z M166,7013 L182,7013 L182,7001 L166,7001 L166,7013 Z M184,7015 L184,6999 L164,6999 L164,7015 L173,7015 L173,7017 L168,7017 L168,7019 L180,7019 L180,7017 L175,7017 L175,7015 L184,7015 Z" id="desktop-[#229]"></path>
            </g>
        </g>
    </g>
</svg>