<?xml version="1.0" encoding="UTF-8" standalone="no"?>
<svg width="20px" height="16px" viewBox="0 0 20 16" version="1.1" xmlns="http://www.w3.org/2000/svg" xmlns:xlink="http://www.w3.org/1999/xlink">
    <!-- Generator: Sketch 3.8.1 (29687) - http://www.bohemiancoding.com/sketch -->
    <title>diamond [#769]</title>
    <desc>Created with Sketch.</desc>
    <defs></defs>
    <g id="Page-1" stroke="none" stroke-width="1" fill="none" fill-rule="evenodd">
        <g id="Dribbble-Dark-Preview" transform="translate(-420.000000, -4801.000000)" fill="#FFFFFF">
            <g id="icons" transform="translate(56.000000, 160.000000)">
                <path d="M373.223912,4654.18486 L366.493912,4647.27399 C366.197912,4646.94519 366.156912,4646.46333 366.393912,4646.09108 L368.635912,4643.39447 C368.818912,4643.10812 369.138912,4642.97482 369.482912,4642.97482 L378.512912,4642.97482 C378.849912,4642.97482 379.163912,4643.10022 379.348912,4643.37867 L381.558912,4645.93112 C381.805912,4646.3014 381.771912,4646.77831 381.476912,4647.11206 L374.723912,4654.18289 C374.327912,4654.63019 373.623912,4654.6292 373.223912,4654.18486 M379.099912,4641 L368.929912,4641 C368.241912,4641 367.601912,4641.30807 367.235912,4641.88373 L364.305912,4645.69019 C363.832912,4646.4347 363.914912,4647.38754 364.506912,4648.04417 L372.496912,4656.34038 C373.297912,4657.22707 374.703912,4657.21818 375.495912,4656.32359 L383.505912,4647.8378 C384.094912,4647.17229 384.164912,4646.20068 383.675912,4645.46012 L380.776912,4641.85608 C380.407912,4641.29622 379.776912,4641 379.099912,4641" id="diamond-[#769]"></path>
            </g>
        </g>
    </g>
</svg>