<?xml version="1.0" encoding="UTF-8" standalone="no"?>
<svg width="20px" height="20px" viewBox="0 0 20 20" version="1.1" xmlns="http://www.w3.org/2000/svg" xmlns:xlink="http://www.w3.org/1999/xlink">
    <!-- Generator: Sketch 3.8.1 (29687) - http://www.bohemiancoding.com/sketch -->
    <title>diamond_round [#878]</title>
    <desc>Created with Sketch.</desc>
    <defs></defs>
    <g id="Page-1" stroke="none" stroke-width="1" fill="none" fill-rule="evenodd">
        <g id="Dribbble-Dark-Preview" transform="translate(-140.000000, -4319.000000)" fill="#FFFFFF">
            <g id="icons" transform="translate(56.000000, 160.000000)">
                <path d="M98.1069906,4176.96124 L89.9031257,4176.96124 C89.4494795,4176.96124 89.0485349,4176.59528 88.9152311,4176.16714 L86.2791233,4167.67468 C86.1509864,4167.26591 86.2966905,4166.80311 86.6418336,4166.54419 L93.3514564,4161.5166 C93.7245002,4161.23729 94.2411815,4161.23525 94.6100919,4161.51864 L101.367249,4166.70015 C101.707226,4166.96111 101.847763,4167.40149 101.719626,4167.8072 L99.0928184,4176.17224 C98.9584813,4176.59732 98.55857,4176.96124 98.1069906,4176.96124 M92.7355723,4159.40954 L84.8179488,4165.33214 C84.1266292,4165.84897 83.8362544,4166.73787 84.0914949,4167.55643 L87.164715,4177.48622 C87.4313225,4178.34148 88.2321785,4179 89.1394708,4179 L98.8665121,4179 C99.7707043,4179 100.569493,4178.34556 100.839201,4177.49437 L103.906221,4167.77662 C104.162495,4166.96519 103.882454,4166.06304 103.201468,4165.54112 L95.2528434,4159.43401 C94.5139892,4158.86723 93.4806267,4158.85194 92.7355723,4159.40954" id="diamond_round-[#878]"></path>
            </g>
        </g>
    </g>
</svg>