<?xml version="1.0" encoding="UTF-8" standalone="no"?>
<svg width="20px" height="16px" viewBox="0 0 20 16" version="1.1" xmlns="http://www.w3.org/2000/svg" xmlns:xlink="http://www.w3.org/1999/xlink">
    <!-- Generator: Sketch 3.8.1 (29687) - http://www.bohemiancoding.com/sketch -->
    <title>diamond [#767]</title>
    <desc>Created with Sketch.</desc>
    <defs></defs>
    <g id="Page-1" stroke="none" stroke-width="1" fill="none" fill-rule="evenodd">
        <g id="Dribbble-Dark-Preview" transform="translate(-100.000000, -4841.000000)" fill="#FFFFFF">
            <g id="icons" transform="translate(56.000000, 160.000000)">
                <path d="M54.723912,4694.24616 C54.327912,4694.69694 53.623912,4694.74459 53.223912,4694.29779 L47.033912,4687.95024 L60.782912,4687.95024 L54.723912,4694.24616 Z M48.635912,4683.45046 C48.818912,4683.16152 49.138912,4682.98578 49.481912,4682.98578 L58.512912,4682.98578 C58.849912,4682.98578 59.163912,4683.15358 59.348912,4683.43358 L61.510912,4685.96446 L46.588912,4685.96446 L48.635912,4683.45046 Z M63.675912,4685.39156 L60.775912,4681.81417 C60.406912,4681.2512 59.776912,4681 59.099912,4681 L48.929912,4681 C48.241912,4681 47.601912,4681.26312 47.235912,4681.84197 L44.305912,4685.64673 C43.832912,4686.39537 43.914912,4687.3416 44.506912,4688.00187 L52.496912,4696.33819 C53.296912,4697.2298 54.703912,4697.21789 55.495912,4696.31833 L63.505912,4687.78443 C64.094912,4687.11522 64.163912,4686.13623 63.675912,4685.39156 L63.675912,4685.39156 Z" id="diamond-[#767]"></path>
            </g>
        </g>
    </g>
</svg>