<?xml version="1.0" encoding="UTF-8" standalone="no"?>
<svg width="20px" height="21px" viewBox="0 0 20 21" version="1.1" xmlns="http://www.w3.org/2000/svg" xmlns:xlink="http://www.w3.org/1999/xlink">
    <!-- Generator: Sketch 3.8.1 (29687) - http://www.bohemiancoding.com/sketch -->
    <title>diamond_round [#881]</title>
    <desc>Created with Sketch.</desc>
    <defs></defs>
    <g id="Page-1" stroke="none" stroke-width="1" fill="none" fill-rule="evenodd">
        <g id="Dribbble-Dark-Preview" transform="translate(-420.000000, -4278.000000)" fill="#FFFFFF">
            <g id="icons" transform="translate(56.000000, 160.000000)">
                <path d="M381.30504,4129.64559 L374.706116,4136.23763 C374.317592,4136.62615 373.687985,4136.62217 373.299461,4136.23364 L366.699541,4129.64958 C366.505279,4129.45531 366.40765,4128.96218 366.40765,4128.96218 L381.595935,4128.96218 C381.595935,4128.96218 381.499302,4129.45133 381.30504,4129.64559 M372.592149,4119.50699 L364.583582,4127.51566 C364.194062,4127.90518 363.9998,4128.41426 363.9998,4128.92432 C363.9998,4129.4334 364.194062,4129.94346 364.583582,4130.33199 L372.592149,4138.34066 C373.369196,4139.11871 374.630404,4139.11871 375.408447,4138.34066 L383.417015,4130.33199 C383.805538,4129.94346 383.9998,4129.4334 383.9998,4128.92432 C383.9998,4128.41426 383.805538,4127.90518 383.417015,4127.51566 L375.408447,4119.50699 C374.630404,4118.72994 373.369196,4118.72994 372.592149,4119.50699" id="diamond_round-[#881]"></path>
            </g>
        </g>
    </g>
</svg>