<?xml version="1.0" encoding="UTF-8" standalone="no"?>
<svg width="20px" height="20px" viewBox="0 0 20 20" version="1.1" xmlns="http://www.w3.org/2000/svg" xmlns:xlink="http://www.w3.org/1999/xlink">
    <!-- Generator: Sketch 3.8.1 (29687) - http://www.bohemiancoding.com/sketch -->
    <title>dice [#24]</title>
    <desc>Created with Sketch.</desc>
    <defs></defs>
    <g id="Page-1" stroke="none" stroke-width="1" fill="none" fill-rule="evenodd">
        <g id="Dribbble-Dark-Preview" transform="translate(-220.000000, -8079.000000)" fill="#FFFFFF">
            <g id="icons" transform="translate(56.000000, 160.000000)">
                <path d="M174,7927.1047 C172.896,7927.1047 172,7927.9997 172,7929.1047 C172,7930.2097 172.896,7931.1047 174,7931.1047 C175.104,7931.1047 176,7930.2097 176,7929.1047 C176,7927.9997 175.104,7927.1047 174,7927.1047 L174,7927.1047 Z M182,7921.9997 C182,7921.4477 181.552,7920.9997 181,7920.9997 L167,7920.9997 C166.448,7920.9997 166,7921.4477 166,7921.9997 L166,7935.9997 C166,7936.5527 166.448,7936.9997 167,7936.9997 L181,7936.9997 C181.552,7936.9997 182,7936.5527 182,7935.9997 L182,7921.9997 Z M184,7920.9997 L184,7936.9997 C184,7938.1047 183.105,7938.9997 182,7938.9997 L166,7938.9997 C164.896,7938.9997 164,7938.1047 164,7936.9997 L164,7920.9997 C164,7919.8957 164.896,7918.9997 166,7918.9997 L182,7918.9997 C183.105,7918.9997 184,7919.8957 184,7920.9997 L184,7920.9997 Z M170,7927.1047 C171.104,7927.1047 172,7926.2097 172,7925.1047 C172,7923.9997 171.104,7923.1047 170,7923.1047 C168.896,7923.1047 168,7923.9997 168,7925.1047 C168,7926.2097 168.896,7927.1047 170,7927.1047 L170,7927.1047 Z M170,7931.1047 C168.896,7931.1047 168,7931.9997 168,7933.1047 C168,7934.2097 168.896,7935.1047 170,7935.1047 C171.104,7935.1047 172,7934.2097 172,7933.1047 C172,7931.9997 171.104,7931.1047 170,7931.1047 L170,7931.1047 Z M178,7923.1047 C176.896,7923.1047 176,7923.9997 176,7925.1047 C176,7926.2097 176.896,7927.1047 178,7927.1047 C179.104,7927.1047 180,7926.2097 180,7925.1047 C180,7923.9997 179.104,7923.1047 178,7923.1047 L178,7923.1047 Z M180,7933.1047 C180,7934.2097 179.104,7935.1047 178,7935.1047 C176.896,7935.1047 176,7934.2097 176,7933.1047 C176,7931.9997 176.896,7931.1047 178,7931.1047 C179.104,7931.1047 180,7931.9997 180,7933.1047 L180,7933.1047 Z" id="dice-[#24]"></path>
            </g>
        </g>
    </g>
</svg>