<?xml version="1.0" encoding="UTF-8" standalone="no"?>
<svg width="20px" height="20px" viewBox="0 0 20 20" version="1.1" xmlns="http://www.w3.org/2000/svg" xmlns:xlink="http://www.w3.org/1999/xlink">
    <!-- Generator: Sketch 3.8.1 (29687) - http://www.bohemiancoding.com/sketch -->
    <title>dice [#23]</title>
    <desc>Created with Sketch.</desc>
    <defs></defs>
    <g id="Page-1" stroke="none" stroke-width="1" fill="none" fill-rule="evenodd">
        <g id="Dribbble-Dark-Preview" transform="translate(-260.000000, -8079.000000)" fill="#FFFFFF">
            <g id="icons" transform="translate(56.000000, 160.000000)">
                <path d="M216,7929.1047 C216,7930.2097 215.104,7931.1047 214,7931.1047 C212.896,7931.1047 212,7930.2097 212,7929.1047 C212,7927.9997 212.896,7927.1047 214,7927.1047 C215.104,7927.1047 216,7927.9997 216,7929.1047 L216,7929.1047 Z M222,7935.9997 C222,7936.5527 221.552,7936.9997 221,7936.9997 L207,7936.9997 C206.448,7936.9997 206,7936.5527 206,7935.9997 L206,7921.9997 C206,7921.4477 206.448,7920.9997 207,7920.9997 L221,7920.9997 C221.552,7920.9997 222,7921.4477 222,7921.9997 L222,7935.9997 Z M222,7918.9997 L206,7918.9997 C204.896,7918.9997 204,7919.8957 204,7920.9997 L204,7936.9997 C204,7938.1047 204.896,7938.9997 206,7938.9997 L222,7938.9997 C223.105,7938.9997 224,7938.1047 224,7936.9997 L224,7920.9997 C224,7919.8957 223.105,7918.9997 222,7918.9997 L222,7918.9997 Z" id="dice-[#23]"></path>
            </g>
        </g>
    </g>
</svg>