<?xml version="1.0" encoding="UTF-8" standalone="no"?>
<svg width="20px" height="20px" viewBox="0 0 20 20" version="1.1" xmlns="http://www.w3.org/2000/svg" xmlns:xlink="http://www.w3.org/1999/xlink">
    <!-- Generator: Sketch 3.8.1 (29687) - http://www.bohemiancoding.com/sketch -->
    <title>dice [#25]</title>
    <desc>Created with Sketch.</desc>
    <defs></defs>
    <g id="Page-1" stroke="none" stroke-width="1" fill="none" fill-rule="evenodd">
        <g id="Dribbble-Dark-Preview" transform="translate(-180.000000, -8079.000000)" fill="#FFFFFF">
            <g id="icons" transform="translate(56.000000, 160.000000)">
                <path d="M138,7927.1047 C136.896,7927.1047 136,7927.9997 136,7929.1047 C136,7930.2097 136.896,7931.1047 138,7931.1047 C139.104,7931.1047 140,7930.2097 140,7929.1047 C140,7927.9997 139.104,7927.1047 138,7927.1047 L138,7927.1047 Z M130,7927.1047 C128.896,7927.1047 128,7927.9997 128,7929.1047 C128,7930.2097 128.896,7931.1047 130,7931.1047 C131.104,7931.1047 132,7930.2097 132,7929.1047 C132,7927.9997 131.104,7927.1047 130,7927.1047 L130,7927.1047 Z M142,7921.9997 C142,7921.4477 141.552,7920.9997 141,7920.9997 L127,7920.9997 C126.448,7920.9997 126,7921.4477 126,7921.9997 L126,7935.9997 C126,7936.5527 126.448,7936.9997 127,7936.9997 L141,7936.9997 C141.552,7936.9997 142,7936.5527 142,7935.9997 L142,7921.9997 Z M144,7920.9997 L144,7936.9997 C144,7938.1047 143.104,7938.9997 142,7938.9997 L126,7938.9997 C124.896,7938.9997 124,7938.1047 124,7936.9997 L124,7920.9997 C124,7919.8957 124.896,7918.9997 126,7918.9997 L142,7918.9997 C143.104,7918.9997 144,7919.8957 144,7920.9997 L144,7920.9997 Z M130,7922.1047 C128.896,7922.1047 128,7922.9997 128,7924.1047 C128,7925.2097 128.896,7926.1047 130,7926.1047 C131.104,7926.1047 132,7925.2097 132,7924.1047 C132,7922.9997 131.104,7922.1047 130,7922.1047 L130,7922.1047 Z M130,7932.1047 C128.896,7932.1047 128,7932.9997 128,7934.1047 C128,7935.2097 128.896,7936.1047 130,7936.1047 C131.104,7936.1047 132,7935.2097 132,7934.1047 C132,7932.9997 131.104,7932.1047 130,7932.1047 L130,7932.1047 Z M138,7922.1047 C136.896,7922.1047 136,7922.9997 136,7924.1047 C136,7925.2097 136.896,7926.1047 138,7926.1047 C139.104,7926.1047 140,7925.2097 140,7924.1047 C140,7922.9997 139.104,7922.1047 138,7922.1047 L138,7922.1047 Z M140,7934.1047 C140,7935.2097 139.104,7936.1047 138,7936.1047 C136.896,7936.1047 136,7935.2097 136,7934.1047 C136,7932.9997 136.896,7932.1047 138,7932.1047 C139.104,7932.1047 140,7932.9997 140,7934.1047 L140,7934.1047 Z" id="dice-[#25]"></path>
            </g>
        </g>
    </g>
</svg>