<?xml version="1.0" encoding="UTF-8" standalone="no"?>
<svg width="20px" height="20px" viewBox="0 0 20 20" version="1.1" xmlns="http://www.w3.org/2000/svg" xmlns:xlink="http://www.w3.org/1999/xlink">
    <!-- Generator: Sketch 3.8.1 (29687) - http://www.bohemiancoding.com/sketch -->
    <title>directory_close [#1632]</title>
    <desc>Created with Sketch.</desc>
    <defs></defs>
    <g id="Page-1" stroke="none" stroke-width="1" fill="none" fill-rule="evenodd">
        <g id="Dribbble-Dark-Preview" transform="translate(-420.000000, -1759.000000)" fill="#FFFFFF">
            <g id="icons" transform="translate(56.000000, 160.000000)">
                <path d="M371.1716,1609.5862 L372.5856,1608.1722 L373.9996,1609.5862 L375.4146,1608.1722 L376.8286,1609.5862 L375.4146,1611.0002 L376.8286,1612.4142 L375.4146,1613.8292 L373.9996,1612.4142 L372.5856,1613.8292 L371.1716,1612.4142 L372.5856,1611.0002 L371.1716,1609.5862 Z M381.9996,1617.0002 L365.9996,1617.0002 L365.9996,1601.0002 L371.9996,1601.0002 L371.9996,1605.0002 L381.9996,1605.0002 L381.9996,1617.0002 Z M373.9996,1603.0002 L373.9996,1599.0002 L363.9996,1599.0002 L363.9996,1619.0002 L383.9996,1619.0002 L383.9996,1603.0002 L373.9996,1603.0002 Z" id="directory_close-[#1632]"></path>
            </g>
        </g>
    </g>
</svg>