<?xml version="1.0" encoding="UTF-8" standalone="no"?>
<svg width="20px" height="20px" viewBox="0 0 20 20" version="1.1" xmlns="http://www.w3.org/2000/svg" xmlns:xlink="http://www.w3.org/1999/xlink">
    <!-- Generator: Sketch 3.8.1 (29687) - http://www.bohemiancoding.com/sketch -->
    <title>directory_favorite_half [#1645]</title>
    <desc>Created with Sketch.</desc>
    <defs></defs>
    <g id="Page-1" stroke="none" stroke-width="1" fill="none" fill-rule="evenodd">
        <g id="Dribbble-Dark-Preview" transform="translate(-300.000000, -1719.000000)" fill="#FFFFFF">
            <g id="icons" transform="translate(56.000000, 160.000000)">
                <path d="M262,1566.0005 C262,1565.4485 261.752,1565.0005 261.2,1565.0005 L254.2,1565.0005 C253.095,1565.0005 252,1564.1045 252,1563.0005 L252,1562.0005 C252,1561.4485 251.752,1561.0005 251.2,1561.0005 L247.2,1561.0005 C246.648,1561.0005 246,1561.4485 246,1562.0005 L246,1576.0005 C246,1576.5525 246.648,1577.0005 247.2,1577.0005 L261.2,1577.0005 C261.752,1577.0005 262,1576.5525 262,1576.0005 L262,1566.0005 Z M264,1565.0005 L264,1577.0005 C264,1578.1045 263.305,1579.0005 262.2,1579.0005 L246.2,1579.0005 C245.095,1579.0005 244,1578.1045 244,1577.0005 L244,1561.0005 C244,1559.8955 245.095,1559.0005 246.2,1559.0005 L252.2,1559.0005 C253.305,1559.0005 254,1559.8955 254,1561.0005 L254,1562.0005 C254,1562.5525 254.648,1563.0005 255.2,1563.0005 L262.2,1563.0005 C263.305,1563.0005 264,1563.8955 264,1565.0005 L264,1565.0005 Z M254,1566.9795 L254,1574.0795 C254,1574.0795 253.814,1574.1075 253.704,1574.1655 L252.35,1574.9065 C252.234,1574.9675 252.114,1574.9955 251.998,1574.9955 C251.557,1574.9955 251.169,1574.5985 251.253,1574.1105 L251.522,1572.5405 C251.564,1572.2955 251.482,1572.0455 251.303,1571.8715 L250.161,1570.7605 C249.713,1570.3235 249.957,1569.5615 250.577,1569.4715 L252.146,1569.2425 C252.392,1569.2065 252.591,1569.0515 252.701,1568.8285 L253.378,1567.4005 C253.516,1567.1205 254,1566.9795 254,1566.9795 L254,1566.9795 Z" id="directory_favorite_half-[#1645]"></path>
            </g>
        </g>
    </g>
</svg>