<?xml version="1.0" encoding="UTF-8" standalone="no"?>
<svg width="20px" height="20px" viewBox="0 0 20 20" version="1.1" xmlns="http://www.w3.org/2000/svg" xmlns:xlink="http://www.w3.org/1999/xlink">
    <!-- Generator: Sketch 3.8.1 (29687) - http://www.bohemiancoding.com/sketch -->
    <title>directory_love_favorite [#1619]</title>
    <desc>Created with Sketch.</desc>
    <defs></defs>
    <g id="Page-1" stroke="none" stroke-width="1" fill="none" fill-rule="evenodd">
        <g id="Dribbble-Dark-Preview" transform="translate(-140.000000, -1839.000000)" fill="#FFFFFF">
            <g id="icons" transform="translate(56.000000, 160.000000)">
                <path d="M97.8013,1690.6055 C97.7463,1691.7695 97.1693,1692.5775 96.3333,1693.3445 C95.9373,1693.7085 95.5343,1694.0645 95.1303,1694.4205 C94.3763,1695.0865 93.2453,1695.0865 92.4873,1694.4245 C92.0543,1694.0465 91.6223,1693.6685 91.2013,1693.2775 C90.3803,1692.5145 89.8463,1691.7015 89.8063,1690.5535 C89.7733,1689.6095 90.2273,1688.7235 91.1593,1688.4025 C92.1363,1688.0655 93.0513,1688.4855 93.6483,1689.2435 C93.7263,1689.3425 93.8813,1689.3395 93.9593,1689.2415 C94.5133,1688.5325 95.3423,1688.1185 96.2713,1688.3495 C97.3213,1688.6105 97.8503,1689.5755 97.8013,1690.6055 L97.8013,1690.6055 Z M102.0003,1696.0005 C102.0003,1696.5525 101.9763,1697.0005 101.4243,1697.0005 L87.4243,1697.0005 C86.8723,1697.0005 86.0003,1696.5525 86.0003,1696.0005 L86.0003,1682.0005 C86.0003,1681.4485 86.8723,1681.0005 87.4243,1681.0005 L90.7793,1681.0005 C91.1613,1681.0005 91.5093,1681.2175 91.6773,1681.5615 L92.8133,1683.8795 C93.1483,1684.5655 93.8453,1685.0005 94.6093,1685.0005 L101.4243,1685.0005 C101.9763,1685.0005 102.0003,1685.4485 102.0003,1686.0005 L102.0003,1696.0005 Z M102.4243,1683.0005 L95.6603,1683.0005 C94.9023,1683.0005 94.2103,1682.5725 93.8713,1681.8955 L92.9773,1680.1055 C92.6383,1679.4285 91.9453,1679.0005 91.1883,1679.0005 L86.4243,1679.0005 C85.3193,1679.0005 84.0003,1679.8965 84.0003,1681.0005 L84.0003,1697.0005 C84.0003,1698.1055 85.3193,1699.0005 86.4243,1699.0005 L102.4243,1699.0005 C103.5283,1699.0005 104.0003,1698.1055 104.0003,1697.0005 L104.0003,1685.0005 C104.0003,1683.8965 103.5283,1683.0005 102.4243,1683.0005 L102.4243,1683.0005 Z" id="directory_love_favorite-[#1619]"></path>
            </g>
        </g>
    </g>
</svg>