<?xml version="1.0" encoding="UTF-8" standalone="no"?>
<svg width="20px" height="20px" viewBox="0 0 20 20" version="1.1" xmlns="http://www.w3.org/2000/svg" xmlns:xlink="http://www.w3.org/1999/xlink">
    <!-- Generator: Sketch 3.8.1 (29687) - http://www.bohemiancoding.com/sketch -->
    <title>directory_favorite_half [#1644]</title>
    <desc>Created with Sketch.</desc>
    <defs></defs>
    <g id="Page-1" stroke="none" stroke-width="1" fill="none" fill-rule="evenodd">
        <g id="Dribbble-Dark-Preview" transform="translate(-340.000000, -1719.000000)" fill="#FFFFFF">
            <g id="icons" transform="translate(56.000000, 160.000000)">
                <path d="M302,1565.0005 L292,1565.0005 L292,1561.0005 L286,1561.0005 L286,1577.0005 L302,1577.0005 L302,1565.0005 Z M304,1563.0005 L304,1579.0005 L284,1579.0005 L284,1559.0005 L294,1559.0005 L294,1563.0005 L304,1563.0005 Z M290.577,1569.4715 L292.146,1569.2425 C292.392,1569.2065 292.591,1569.0515 292.701,1568.8285 L293.378,1567.4005 C293.516,1567.1205 294,1566.9795 294,1566.9795 L294,1574.0795 C294,1574.0795 293.814,1574.1075 293.704,1574.1655 L292.35,1574.9065 C292.234,1574.9675 292.114,1574.9955 291.998,1574.9955 C291.557,1574.9955 291.169,1574.5985 291.253,1574.1105 L291.522,1572.5405 C291.564,1572.2955 291.482,1572.0455 291.303,1571.8715 L290.161,1570.7605 C289.713,1570.3235 289.957,1569.5615 290.577,1569.4715 L290.577,1569.4715 Z" id="directory_favorite_half-[#1644]"></path>
            </g>
        </g>
    </g>
</svg>