<?xml version="1.0" encoding="UTF-8" standalone="no"?>
<svg width="20px" height="20px" viewBox="0 0 20 20" version="1.1" xmlns="http://www.w3.org/2000/svg" xmlns:xlink="http://www.w3.org/1999/xlink">
    <!-- Generator: Sketch 3.8.1 (29687) - http://www.bohemiancoding.com/sketch -->
    <title>directory_close [#1654]</title>
    <desc>Created with Sketch.</desc>
    <defs></defs>
    <g id="Page-1" stroke="none" stroke-width="1" fill="none" fill-rule="evenodd">
        <g id="Dribbble-Dark-Preview" transform="translate(-340.000000, -1679.000000)" fill="#FFFFFF">
            <g id="icons" transform="translate(56.000000, 160.000000)">
                <path d="M292.5858,1528.1721 L293.9998,1529.5861 L295.4138,1528.1721 L296.8288,1529.5861 L295.4138,1531.0001 L296.8288,1532.4151 L295.4138,1533.8291 L293.9998,1532.4151 L292.5858,1533.8291 L291.1718,1532.4151 L292.5858,1531.0001 L291.1718,1529.5861 L292.5858,1528.1721 Z M301.9998,1537.0001 L285.9998,1537.0001 L285.9998,1521.0001 L290.8458,1521.0001 L292.8038,1525.0001 L301.9998,1525.0001 L301.9998,1537.0001 Z M293.8668,1523.0001 L291.8668,1519.0001 L283.9998,1519.0001 L283.9998,1539.0001 L303.9998,1539.0001 L303.9998,1523.0001 L293.8668,1523.0001 Z" id="directory_close-[#1654]"></path>
            </g>
        </g>
    </g>
</svg>