<?xml version="1.0" encoding="UTF-8" standalone="no"?>
<svg width="20px" height="20px" viewBox="0 0 20 20" version="1.1" xmlns="http://www.w3.org/2000/svg" xmlns:xlink="http://www.w3.org/1999/xlink">
    <!-- Generator: Sketch 3.8.1 (29687) - http://www.bohemiancoding.com/sketch -->
    <title>directory_search [#1623]</title>
    <desc>Created with Sketch.</desc>
    <defs></defs>
    <g id="Page-1" stroke="none" stroke-width="1" fill="none" fill-rule="evenodd">
        <g id="Dribbble-Dark-Preview" transform="translate(-380.000000, -1799.000000)" fill="#FFFFFF">
            <g id="icons" transform="translate(56.000000, 160.000000)">
                <path d="M331.1195,1650.3608 C331.1195,1649.2578 332.0165,1648.3608 333.1195,1648.3608 C334.2225,1648.3608 335.1195,1649.2578 335.1195,1650.3608 C335.1195,1651.4638 334.2225,1652.3608 333.1195,1652.3608 C332.0165,1652.3608 331.1195,1651.4638 331.1195,1650.3608 L331.1195,1650.3608 Z M337.1195,1650.3608 C337.1195,1648.1518 335.3285,1646.3608 333.1195,1646.3608 C330.9105,1646.3608 329.1195,1648.1518 329.1195,1650.3608 C329.1195,1652.5698 330.9105,1654.3608 333.1195,1654.3608 C333.7835,1654.3608 334.3995,1654.1838 334.9505,1653.8978 L337.4665,1656.4138 L338.8805,1654.9998 L336.4515,1652.5698 C336.8715,1651.9368 337.1195,1651.1778 337.1195,1650.3608 L337.1195,1650.3608 Z M341.9995,1656.0008 C341.9995,1656.5528 341.7525,1657.0008 341.2005,1657.0008 L327.2005,1657.0008 C326.6475,1657.0008 325.9995,1656.5528 325.9995,1656.0008 L325.9995,1642.0008 C325.9995,1641.4478 326.6475,1641.0008 327.2005,1641.0008 L331.2005,1641.0008 C331.7525,1641.0008 331.9995,1641.4478 331.9995,1642.0008 L331.9995,1643.0008 C331.9995,1644.1048 333.0955,1645.0008 334.2005,1645.0008 L341.2005,1645.0008 C341.7525,1645.0008 341.9995,1645.4478 341.9995,1646.0008 L341.9995,1656.0008 Z M342.2005,1643.0008 L335.2005,1643.0008 C334.6475,1643.0008 333.9995,1642.5528 333.9995,1642.0008 L333.9995,1641.0008 C333.9995,1639.8958 333.3045,1639.0008 332.2005,1639.0008 L326.2005,1639.0008 C325.0955,1639.0008 323.9995,1639.8958 323.9995,1641.0008 L323.9995,1657.0008 C323.9995,1658.1048 325.0955,1659.0008 326.2005,1659.0008 L342.2005,1659.0008 C343.3045,1659.0008 343.9995,1658.1048 343.9995,1657.0008 L343.9995,1645.0008 C343.9995,1643.8958 343.3045,1643.0008 342.2005,1643.0008 L342.2005,1643.0008 Z" id="directory_search-[#1623]"></path>
            </g>
        </g>
    </g>
</svg>