<?xml version="1.0" encoding="UTF-8" standalone="no"?>
<svg width="20px" height="20px" viewBox="0 0 20 20" version="1.1" xmlns="http://www.w3.org/2000/svg" xmlns:xlink="http://www.w3.org/1999/xlink">
    <!-- Generator: Sketch 3.8.1 (29687) - http://www.bohemiancoding.com/sketch -->
    <title>directory_favorite [#1638]</title>
    <desc>Created with Sketch.</desc>
    <defs></defs>
    <g id="Page-1" stroke="none" stroke-width="1" fill="none" fill-rule="evenodd">
        <g id="Dribbble-Dark-Preview" transform="translate(-180.000000, -1759.000000)" fill="#FFFFFF">
            <g id="icons" transform="translate(56.000000, 160.000000)">
                <path d="M142,1605.0005 L133.374,1605.0005 L131.416,1601.0005 L126,1601.0005 L126,1617.0005 L142,1617.0005 L142,1605.0005 Z M144,1603.0005 L144,1619.0005 L124,1619.0005 L124,1599.0005 L132.437,1599.0005 L134.437,1603.0005 L144,1603.0005 Z M133.322,1607.4215 C133.461,1607.1405 133.73,1607.0005 134,1607.0005 C134.27,1607.0005 134.539,1607.1405 134.678,1607.4215 L135.382,1608.8495 C135.493,1609.0725 135.705,1609.2275 135.952,1609.2635 L137.527,1609.4915 C138.147,1609.5825 138.395,1610.3445 137.946,1610.7815 L136.806,1611.8925 C136.628,1612.0665 136.546,1612.3165 136.589,1612.5615 L136.858,1614.1305 C136.941,1614.6195 136.553,1615.0165 136.113,1615.0165 C135.997,1615.0165 135.877,1614.9885 135.761,1614.9275 L134.352,1614.1865 C134.242,1614.1285 134.121,1614.0995 134,1614.0995 C133.879,1614.0995 133.758,1614.1285 133.648,1614.1865 L132.239,1614.9275 C132.123,1614.9885 132.003,1615.0165 131.887,1615.0165 C131.447,1615.0165 131.059,1614.6195 131.142,1614.1305 L131.411,1612.5615 C131.454,1612.3165 131.372,1612.0665 131.194,1611.8925 L130.054,1610.7815 C129.605,1610.3445 129.853,1609.5825 130.473,1609.4915 L132.049,1609.2635 C132.295,1609.2275 132.508,1609.0725 132.618,1608.8495 L133.322,1607.4215 Z" id="directory_favorite-[#1638]"></path>
            </g>
        </g>
    </g>
</svg>