<?xml version="1.0" encoding="UTF-8" standalone="no"?>
<svg width="20px" height="20px" viewBox="0 0 20 20" version="1.1" xmlns="http://www.w3.org/2000/svg" xmlns:xlink="http://www.w3.org/1999/xlink">
    <!-- Generator: Sketch 3.8.1 (29687) - http://www.bohemiancoding.com/sketch -->
    <title>directory_image [#1625]</title>
    <desc>Created with Sketch.</desc>
    <defs></defs>
    <g id="Page-1" stroke="none" stroke-width="1" fill="none" fill-rule="evenodd">
        <g id="Dribbble-Dark-Preview" transform="translate(-300.000000, -1799.000000)" fill="#FFFFFF">
            <g id="icons" transform="translate(56.000000, 160.000000)">
                <path d="M256,1649.0005 C256,1648.4485 256.448,1648.0005 257,1648.0005 C257.552,1648.0005 258,1648.4485 258,1649.0005 C258,1649.5525 257.552,1650.0005 257,1650.0005 C256.448,1650.0005 256,1649.5525 256,1649.0005 L256,1649.0005 Z M256.75,1651.0005 L260,1655.0005 L248,1655.0005 L252.518,1649.0005 L255.354,1653.0005 L256.75,1651.0005 Z M262,1656.0005 C262,1656.5525 261.752,1657.0005 261.2,1657.0005 L247.2,1657.0005 C246.648,1657.0005 246,1656.5525 246,1656.0005 L246,1642.0005 C246,1641.4485 246.648,1641.0005 247.2,1641.0005 L251.2,1641.0005 C251.752,1641.0005 252,1641.4485 252,1642.0005 L252,1643.0005 C252,1644.1045 253.095,1645.0005 254.2,1645.0005 L261.2,1645.0005 C261.752,1645.0005 262,1645.4485 262,1646.0005 L262,1656.0005 Z M262.2,1643.0005 L255.2,1643.0005 C254.648,1643.0005 254,1642.5525 254,1642.0005 L254,1641.0005 C254,1639.8955 253.305,1639.0005 252.2,1639.0005 L246.2,1639.0005 C245.095,1639.0005 244,1639.8955 244,1641.0005 L244,1657.0005 C244,1658.1045 245.095,1659.0005 246.2,1659.0005 L262.2,1659.0005 C263.305,1659.0005 264,1658.1045 264,1657.0005 L264,1645.0005 C264,1643.8955 263.305,1643.0005 262.2,1643.0005 L262.2,1643.0005 Z" id="directory_image-[#1625]"></path>
            </g>
        </g>
    </g>
</svg>