<?xml version="1.0" encoding="UTF-8" standalone="no"?>
<svg width="20px" height="20px" viewBox="0 0 20 20" version="1.1" xmlns="http://www.w3.org/2000/svg" xmlns:xlink="http://www.w3.org/1999/xlink">
    <!-- Generator: Sketch 3.8.1 (29687) - http://www.bohemiancoding.com/sketch -->
    <title>directory_music [#1636]</title>
    <desc>Created with Sketch.</desc>
    <defs></defs>
    <g id="Page-1" stroke="none" stroke-width="1" fill="none" fill-rule="evenodd">
        <g id="Dribbble-Dark-Preview" transform="translate(-260.000000, -1759.000000)" fill="#FFFFFF">
            <g id="icons" transform="translate(56.000000, 160.000000)">
                <path d="M222.000101,1616.9426 L221.95924,1604.96296 L211.993124,1604.99691 C211.988141,1603.55236 211.984155,1602.44924 211.979172,1601.00369 L205.999503,1601.02466 C206.023421,1607.96286 206.033388,1610.92782 206.054316,1616.99651 L222.000101,1616.9426 Z M224.0003,1618.93222 L204.06807,1619.0001 C204.044151,1611.92014 204.042158,1611.27324 204.0003,1599.03504 C206.213774,1599.02705 209.861372,1599.01408 213.966415,1599.0001 L213.979371,1602.99331 L223.945486,1602.95937 C223.973391,1610.95178 223.977378,1612.33643 224.0003,1618.93222 L224.0003,1618.93222 Z M217.996712,1611.97804 L217.994719,1611.97804 C217.986746,1612.97634 217.103748,1613.94969 216.010465,1613.95368 C214.90921,1613.95767 214.014253,1613.0602 214.010266,1611.95707 C214.00628,1610.85395 214.896254,1609.95647 215.996513,1609.95348 L215.993523,1608.97514 L212.007077,1608.98712 L212.020033,1612.97634 L212.01804,1612.97634 C212.011063,1613.97464 211.128066,1614.95897 210.033786,1614.96296 C208.933527,1614.96596 208.037573,1614.07947 208.033587,1612.97634 C208.030597,1611.87322 208.919574,1610.97674 210.02083,1610.97275 C210.010864,1608.19946 210.013854,1609.1788 210.006878,1607.0005 C217.648895,1606.97754 214.220551,1606.98652 217.97977,1606.97654 C217.985749,1608.71259 217.990733,1610.236 217.996712,1611.97804 L217.996712,1611.97804 Z" id="directory_music-[#1636]"></path>
            </g>
        </g>
    </g>
</svg>