<?xml version="1.0" encoding="UTF-8" standalone="no"?>
<svg width="20px" height="20px" viewBox="0 0 20 20" version="1.1" xmlns="http://www.w3.org/2000/svg" xmlns:xlink="http://www.w3.org/1999/xlink">
    <!-- Generator: Sketch 3.8.1 (29687) - http://www.bohemiancoding.com/sketch -->
    <title>directory_love_favorite [#1617]</title>
    <desc>Created with Sketch.</desc>
    <defs></defs>
    <g id="Page-1" stroke="none" stroke-width="1" fill="none" fill-rule="evenodd">
        <g id="Dribbble-Dark-Preview" transform="translate(-220.000000, -1839.000000)" fill="#FFFFFF">
            <g id="icons" transform="translate(56.000000, 160.000000)">
                <path d="M173.6487,1689.2436 C173.7267,1689.3426 173.8817,1689.3396 173.9587,1689.2416 C176.0787,1686.5346 179.9637,1690.0156 176.3337,1693.3446 C173.8247,1695.6476 173.4587,1695.3756 171.2017,1693.2776 C167.6877,1690.0116 171.5157,1686.5366 173.6487,1689.2436 L173.6487,1689.2436 Z M181.9997,1697.0006 L165.9997,1697.0006 L165.9997,1681.0006 L171.9997,1681.0006 L171.9997,1685.0006 L181.9997,1685.0006 L181.9997,1697.0006 Z M173.9997,1683.0006 L173.9997,1679.0006 L163.9997,1679.0006 L163.9997,1699.0006 L183.9997,1699.0006 L183.9997,1683.0006 L173.9997,1683.0006 Z" id="directory_love_favorite-[#1617]"></path>
            </g>
        </g>
    </g>
</svg>