<?xml version="1.0" encoding="UTF-8" standalone="no"?>
<svg width="23px" height="23px" viewBox="0 0 23 23" version="1.1" xmlns="http://www.w3.org/2000/svg" xmlns:xlink="http://www.w3.org/1999/xlink">
    <!-- Generator: Sketch 3.8.1 (29687) - http://www.bohemiancoding.com/sketch -->
    <title>directory_close [#1667]</title>
    <desc>Created with Sketch.</desc>
    <defs></defs>
    <g id="Page-1" stroke="none" stroke-width="1" fill="none" fill-rule="evenodd">
        <g id="Dribbble-Dark-Preview" transform="translate(-217.000000, -1639.000000)" fill="#FFFFFF">
            <g id="icons" transform="translate(56.000000, 160.000000)">
                <path d="M166.2427,1498.08666 L168.3637,1495.95203 C168.7547,1495.55852 168.7547,1494.92145 168.3637,1494.52894 C167.9737,1494.13543 167.3407,1494.13543 166.9497,1494.52894 L164.8287,1496.66357 L162.7177,1494.53901 C162.3317,1494.15053 161.7057,1494.14549 161.3137,1494.52894 C160.9137,1494.92044 160.9087,1495.56556 161.3037,1495.96209 L163.4147,1498.08666 L161.2927,1500.22129 C160.9027,1500.6148 160.9027,1501.25187 161.2927,1501.64538 C161.6837,1502.03788 162.3167,1502.03788 162.7067,1501.64538 L164.8287,1499.50974 L167.0107,1501.70576 C167.3967,1502.09525 168.0217,1502.09928 168.4137,1501.71683 C168.8147,1501.32533 168.8187,1500.68022 168.4247,1500.28268 L166.2427,1498.08666 Z M183.9997,1485.03935 L183.9997,1497.31775 C183.9997,1498.31813 183.0077,1499.12931 182.0137,1499.12931 L172.8137,1499.12931 C172.2617,1499.12931 171.8137,1498.67844 171.8137,1498.12289 C171.8137,1497.56633 172.2617,1497.11646 172.8137,1497.11646 L180.8137,1497.11646 C181.3657,1497.11646 181.9997,1496.66558 181.9997,1496.11004 L181.9997,1485.84449 C181.9997,1485.39965 181.4557,1485.03935 181.0137,1485.03935 L173.8137,1485.03935 C172.7087,1485.03935 171.9997,1484.1376 171.9997,1483.0265 L171.9997,1481.81879 C171.9997,1481.37395 171.4557,1481.01365 171.0137,1481.01365 L166.8137,1481.01365 C166.2617,1481.01365 165.9997,1481.46352 165.9997,1482.02008 L165.9997,1490.07148 C165.9997,1490.62703 165.5527,1491.07791 164.9997,1491.07791 C164.4477,1491.07791 163.9997,1490.62703 163.9997,1490.07148 L163.9997,1481.21494 C163.9997,1479.99716 164.8037,1479.0008 166.0137,1479.0008 L171.8137,1479.0008 C172.9187,1479.0008 173.9997,1479.90155 173.9997,1481.01365 L173.9997,1481.81879 C173.9997,1482.48303 174.3537,1483.0265 175.0137,1483.0265 L181.8137,1483.0265 C182.9187,1483.0265 183.9997,1483.92725 183.9997,1485.03935 L183.9997,1485.03935 Z" id="directory_close-[#1667]"></path>
            </g>
        </g>
    </g>
</svg>