<?xml version="1.0" encoding="UTF-8" standalone="no"?>
<svg width="20px" height="20px" viewBox="0 0 20 20" version="1.1" xmlns="http://www.w3.org/2000/svg" xmlns:xlink="http://www.w3.org/1999/xlink">
    <!-- Generator: Sketch 3.8.1 (29687) - http://www.bohemiancoding.com/sketch -->
    <title>directory_information [#1651]</title>
    <desc>Created with Sketch.</desc>
    <defs></defs>
    <g id="Page-1" stroke="none" stroke-width="1" fill="none" fill-rule="evenodd">
        <g id="Dribbble-Dark-Preview" transform="translate(-60.000000, -1719.000000)" fill="#FFFFFF">
            <g id="icons" transform="translate(56.000000, 160.000000)">
                <path d="M22,1566.0005 C22,1565.4485 21.976,1565.0005 21.424,1565.0005 L14.609,1565.0005 C13.846,1565.0005 13.149,1564.5655 12.813,1563.8795 L11.678,1561.5615 C11.51,1561.2175 11.161,1561.0005 10.779,1561.0005 L7.424,1561.0005 C6.872,1561.0005 6,1561.4485 6,1562.0005 L6,1576.0005 C6,1576.5525 6.872,1577.0005 7.424,1577.0005 L13,1577.0005 L13,1572.0005 C13,1571.4485 13.448,1571.0005 14,1571.0005 C14.552,1571.0005 15,1571.4485 15,1572.0005 L15,1577.0005 L21.424,1577.0005 C21.976,1577.0005 22,1576.5525 22,1576.0005 L22,1566.0005 Z M24,1565.0005 L24,1577.0005 C24,1578.1045 23.529,1579.0005 22.424,1579.0005 L6.424,1579.0005 C5.32,1579.0005 4,1578.1045 4,1577.0005 L4,1561.0005 C4,1559.8965 5.32,1559.0005 6.424,1559.0005 L11.188,1559.0005 C11.946,1559.0005 12.638,1559.4285 12.977,1560.1055 L13.871,1561.8955 C14.21,1562.5725 14.903,1563.0005 15.66,1563.0005 L22.424,1563.0005 C23.529,1563.0005 24,1563.8965 24,1565.0005 L24,1565.0005 Z M15.022,1567.9795 C15.022,1568.5315 14.574,1568.9795 14.022,1568.9795 C13.47,1568.9795 13.022,1568.5315 13.022,1567.9795 C13.022,1567.4275 13.47,1566.9795 14.022,1566.9795 C14.574,1566.9795 15.022,1567.4275 15.022,1567.9795 L15.022,1567.9795 Z" id="directory_information-[#1651]"></path>
            </g>
        </g>
    </g>
</svg>