<?xml version="1.0" encoding="UTF-8" standalone="no"?>
<svg width="20px" height="20px" viewBox="0 0 20 20" version="1.1" xmlns="http://www.w3.org/2000/svg" xmlns:xlink="http://www.w3.org/1999/xlink">
    <!-- Generator: Sketch 3.8.1 (29687) - http://www.bohemiancoding.com/sketch -->
    <title>directory_music [#1634]</title>
    <desc>Created with Sketch.</desc>
    <defs></defs>
    <g id="Page-1" stroke="none" stroke-width="1" fill="none" fill-rule="evenodd">
        <g id="Dribbble-Dark-Preview" transform="translate(-340.000000, -1759.000000)" fill="#FFFFFF">
            <g id="icons" transform="translate(56.000000, 160.000000)">
                <path d="M302,1605.0005 L293.374,1605.0005 L291.416,1601.0005 L286,1601.0005 L286,1617.0005 L302,1617.0005 L302,1605.0005 Z M304,1603.0005 L304,1619.0005 L284,1619.0005 L284,1599.0005 L292.437,1599.0005 L294.437,1603.0005 L304,1603.0005 Z M298,1607.0005 L298,1612.0005 L297.998,1612.0005 C297.986,1613.0955 297.097,1613.9795 296,1613.9795 C294.895,1613.9795 294,1613.0845 294,1611.9795 C294,1610.8755 294.895,1609.9795 296,1609.9795 L296,1609.0005 L292,1609.0005 L292,1613.0005 L291.998,1613.0005 C291.986,1614.0955 291.097,1614.9795 290,1614.9795 C288.895,1614.9795 288,1614.0845 288,1612.9795 C288,1611.8755 288.895,1610.9795 290,1610.9795 L290,1607.0005 L298,1607.0005 Z" id="directory_music-[#1634]"></path>
            </g>
        </g>
    </g>
</svg>