<?xml version="1.0" encoding="UTF-8" standalone="no"?>
<svg width="20px" height="20px" viewBox="0 0 20 20" version="1.1" xmlns="http://www.w3.org/2000/svg" xmlns:xlink="http://www.w3.org/1999/xlink">
    <!-- Generator: Sketch 3.8.1 (29687) - http://www.bohemiancoding.com/sketch -->
    <title>directory_favorite [#1641]</title>
    <desc>Created with Sketch.</desc>
    <defs></defs>
    <g id="Page-1" stroke="none" stroke-width="1" fill="none" fill-rule="evenodd">
        <g id="Dribbble-Dark-Preview" transform="translate(-60.000000, -1759.000000)" fill="#FFFFFF">
            <g id="icons" transform="translate(56.000000, 160.000000)">
                <path d="M22,1606.0005 C22,1605.4485 21.752,1605.0005 21.2,1605.0005 L14.2,1605.0005 C13.095,1605.0005 12,1604.1045 12,1603.0005 L12,1602.0005 C12,1601.4485 11.752,1601.0005 11.2,1601.0005 L7.2,1601.0005 C6.648,1601.0005 6,1601.4485 6,1602.0005 L6,1616.0005 C6,1616.5525 6.648,1617.0005 7.2,1617.0005 L21.2,1617.0005 C21.752,1617.0005 22,1616.5525 22,1616.0005 L22,1606.0005 Z M24,1605.0005 L24,1617.0005 C24,1618.1045 23.305,1619.0005 22.2,1619.0005 L6.2,1619.0005 C5.095,1619.0005 4,1618.1045 4,1617.0005 L4,1601.0005 C4,1599.8955 5.095,1599.0005 6.2,1599.0005 L12.2,1599.0005 C13.305,1599.0005 14,1599.8955 14,1601.0005 L14,1602.0005 C14,1602.5525 14.648,1603.0005 15.2,1603.0005 L22.2,1603.0005 C23.305,1603.0005 24,1603.8955 24,1605.0005 L24,1605.0005 Z M17.946,1610.7815 L16.806,1611.8925 C16.628,1612.0665 16.546,1612.3165 16.589,1612.5615 L16.858,1614.1305 C16.941,1614.6195 16.553,1615.0165 16.113,1615.0165 C15.997,1615.0165 15.877,1614.9885 15.761,1614.9275 L14.352,1614.1865 C14.242,1614.1285 14.121,1614.0995 14,1614.0995 C13.879,1614.0995 13.758,1614.1285 13.648,1614.1865 L12.239,1614.9275 C12.123,1614.9885 12.003,1615.0165 11.887,1615.0165 C11.447,1615.0165 11.059,1614.6195 11.142,1614.1305 L11.411,1612.5615 C11.454,1612.3165 11.372,1612.0665 11.194,1611.8925 L10.054,1610.7815 C9.605,1610.3445 9.853,1609.5825 10.473,1609.4915 L12.049,1609.2635 C12.295,1609.2275 12.508,1609.0725 12.618,1608.8495 L13.322,1607.4215 C13.461,1607.1405 13.73,1607.0005 14,1607.0005 C14.27,1607.0005 14.539,1607.1405 14.678,1607.4215 L15.382,1608.8495 C15.493,1609.0725 15.705,1609.2275 15.952,1609.2635 L17.527,1609.4915 C18.147,1609.5825 18.395,1610.3445 17.946,1610.7815 L17.946,1610.7815 Z" id="directory_favorite-[#1641]"></path>
            </g>
        </g>
    </g>
</svg>