<?xml version="1.0" encoding="UTF-8" standalone="no"?>
<svg width="20px" height="20px" viewBox="0 0 20 20" version="1.1" xmlns="http://www.w3.org/2000/svg" xmlns:xlink="http://www.w3.org/1999/xlink">
    <!-- Generator: Sketch 3.8.1 (29687) - http://www.bohemiancoding.com/sketch -->
    <title>directory_image [#1626]</title>
    <desc>Created with Sketch.</desc>
    <defs></defs>
    <g id="Page-1" stroke="none" stroke-width="1" fill="none" fill-rule="evenodd">
        <g id="Dribbble-Dark-Preview" transform="translate(-260.000000, -1799.000000)" fill="#FFFFFF">
            <g id="icons" transform="translate(56.000000, 160.000000)">
                <path d="M216,1649.0005 C216,1648.4485 216.448,1648.0005 217,1648.0005 C217.552,1648.0005 218,1648.4485 218,1649.0005 C218,1649.5525 217.552,1650.0005 217,1650.0005 C216.448,1650.0005 216,1649.5525 216,1649.0005 L216,1649.0005 Z M216.75,1651.0005 L220,1655.0005 L208,1655.0005 L212.518,1649.0005 L215.354,1653.0005 L216.75,1651.0005 Z M222,1656.0005 C222,1656.5525 221.976,1657.0005 221.424,1657.0005 L207.424,1657.0005 C206.872,1657.0005 206,1656.5525 206,1656.0005 L206,1642.0005 C206,1641.4485 206.872,1641.0005 207.424,1641.0005 L210.779,1641.0005 C211.161,1641.0005 211.51,1641.2175 211.678,1641.5605 L212.813,1643.8795 C213.149,1644.5655 213.846,1645.0005 214.609,1645.0005 L221.424,1645.0005 C221.976,1645.0005 222,1645.4485 222,1646.0005 L222,1656.0005 Z M222.424,1643.0005 L215.66,1643.0005 C214.903,1643.0005 214.21,1642.5725 213.871,1641.8945 L212.977,1640.1055 C212.638,1639.4285 211.946,1639.0005 211.188,1639.0005 L206.424,1639.0005 C205.32,1639.0005 204,1639.8955 204,1641.0005 L204,1657.0005 C204,1658.1045 205.32,1659.0005 206.424,1659.0005 L222.424,1659.0005 C223.529,1659.0005 224,1658.1045 224,1657.0005 L224,1645.0005 C224,1643.8955 223.529,1643.0005 222.424,1643.0005 L222.424,1643.0005 Z" id="directory_image-[#1626]"></path>
            </g>
        </g>
    </g>
</svg>