<?xml version="1.0" encoding="UTF-8" standalone="no"?>
<svg width="20px" height="20px" viewBox="0 0 20 20" version="1.1" xmlns="http://www.w3.org/2000/svg" xmlns:xlink="http://www.w3.org/1999/xlink">
    <!-- Generator: Sketch 3.8.1 (29687) - http://www.bohemiancoding.com/sketch -->
    <title>directory_favorite_half [#1642]</title>
    <desc>Created with Sketch.</desc>
    <defs></defs>
    <g id="Page-1" stroke="none" stroke-width="1" fill="none" fill-rule="evenodd">
        <g id="Dribbble-Dark-Preview" transform="translate(-420.000000, -1719.000000)" fill="#FFFFFF">
            <g id="icons" transform="translate(56.000000, 160.000000)">
                <path d="M382,1565.0005 L373.374,1565.0005 L371.416,1561.0005 L366,1561.0005 L366,1577.0005 L382,1577.0005 L382,1565.0005 Z M384,1563.0005 L384,1579.0005 L364,1579.0005 L364,1559.0005 L372.437,1559.0005 L374.437,1563.0005 L384,1563.0005 Z M372.701,1568.8285 L373.378,1567.4005 C373.516,1567.1205 374,1566.9795 374,1566.9795 L374,1574.0795 C374,1574.0795 373.814,1574.1075 373.704,1574.1655 L372.35,1574.9065 C372.234,1574.9675 372.114,1574.9955 371.998,1574.9955 C371.557,1574.9955 371.169,1574.5985 371.253,1574.1105 L371.522,1572.5405 C371.564,1572.2955 371.482,1572.0455 371.303,1571.8715 L370.161,1570.7605 C369.713,1570.3235 369.957,1569.5615 370.577,1569.4715 L372.146,1569.2425 C372.392,1569.2065 372.591,1569.0515 372.701,1568.8285 L372.701,1568.8285 Z" id="directory_favorite_half-[#1642]"></path>
            </g>
        </g>
    </g>
</svg>