<?xml version="1.0" encoding="UTF-8" standalone="no"?>
<svg width="20px" height="20px" viewBox="0 0 20 20" version="1.1" xmlns="http://www.w3.org/2000/svg" xmlns:xlink="http://www.w3.org/1999/xlink">
    <!-- Generator: Sketch 3.8.1 (29687) - http://www.bohemiancoding.com/sketch -->
    <title>directory_favorite [#1639]</title>
    <desc>Created with Sketch.</desc>
    <defs></defs>
    <g id="Page-1" stroke="none" stroke-width="1" fill="none" fill-rule="evenodd">
        <g id="Dribbble-Dark-Preview" transform="translate(-140.000000, -1759.000000)" fill="#FFFFFF">
            <g id="icons" transform="translate(56.000000, 160.000000)">
                <path d="M102,1606.0005 C102,1605.4485 101.976,1605.0005 101.424,1605.0005 L94.609,1605.0005 C93.846,1605.0005 93.149,1604.5655 92.813,1603.8795 L91.678,1601.5605 C91.51,1601.2175 91.161,1601.0005 90.779,1601.0005 L87.424,1601.0005 C86.872,1601.0005 86,1601.4485 86,1602.0005 L86,1616.0005 C86,1616.5525 86.872,1617.0005 87.424,1617.0005 L101.424,1617.0005 C101.976,1617.0005 102,1616.5525 102,1616.0005 L102,1606.0005 Z M104,1605.0005 L104,1617.0005 C104,1618.1045 103.529,1619.0005 102.424,1619.0005 L86.424,1619.0005 C85.32,1619.0005 84,1618.1045 84,1617.0005 L84,1601.0005 C84,1599.8955 85.32,1599.0005 86.424,1599.0005 L91.188,1599.0005 C91.946,1599.0005 92.638,1599.4285 92.977,1600.1055 L93.871,1601.8945 C94.21,1602.5725 94.903,1603.0005 95.66,1603.0005 L102.424,1603.0005 C103.529,1603.0005 104,1603.8955 104,1605.0005 L104,1605.0005 Z M97.946,1610.7815 L96.806,1611.8925 C96.628,1612.0665 96.546,1612.3165 96.589,1612.5615 L96.858,1614.1305 C96.941,1614.6195 96.553,1615.0165 96.113,1615.0165 C95.997,1615.0165 95.877,1614.9885 95.761,1614.9275 L94.352,1614.1865 C94.242,1614.1285 94.121,1614.0995 94,1614.0995 C93.879,1614.0995 93.758,1614.1285 93.648,1614.1865 L92.239,1614.9275 C92.123,1614.9885 92.003,1615.0165 91.887,1615.0165 C91.447,1615.0165 91.059,1614.6195 91.142,1614.1305 L91.411,1612.5615 C91.454,1612.3165 91.372,1612.0665 91.194,1611.8925 L90.054,1610.7815 C89.605,1610.3445 89.853,1609.5825 90.473,1609.4915 L92.049,1609.2635 C92.295,1609.2275 92.508,1609.0725 92.618,1608.8495 L93.322,1607.4215 C93.461,1607.1405 93.73,1607.0005 94,1607.0005 C94.27,1607.0005 94.539,1607.1405 94.678,1607.4215 L95.382,1608.8495 C95.493,1609.0725 95.705,1609.2275 95.952,1609.2635 L97.527,1609.4915 C98.147,1609.5825 98.395,1610.3445 97.946,1610.7815 L97.946,1610.7815 Z" id="directory_favorite-[#1639]"></path>
            </g>
        </g>
    </g>
</svg>