<?xml version="1.0" encoding="UTF-8" standalone="no"?>
<svg width="20px" height="20px" viewBox="0 0 20 20" version="1.1" xmlns="http://www.w3.org/2000/svg" xmlns:xlink="http://www.w3.org/1999/xlink">
    <!-- Generator: Sketch 3.8.1 (29687) - http://www.bohemiancoding.com/sketch -->
    <title>directory_close [#1655]</title>
    <desc>Created with Sketch.</desc>
    <defs></defs>
    <g id="Page-1" stroke="none" stroke-width="1" fill="none" fill-rule="evenodd">
        <g id="Dribbble-Dark-Preview" transform="translate(-300.000000, -1679.000000)" fill="#FFFFFF">
            <g id="icons" transform="translate(56.000000, 160.000000)">
                <path d="M256.1226,1530.2903 L255.4156,1530.9973 L256.1256,1531.7073 C256.5166,1532.0983 256.5166,1532.7313 256.1256,1533.1223 C255.7356,1533.5123 255.1016,1533.5123 254.7116,1533.1223 L254.0016,1532.4113 L253.2946,1533.1183 C252.9036,1533.5093 252.3776,1533.6163 251.9866,1533.2253 L251.9526,1533.1913 C251.5616,1532.8003 251.4896,1532.0953 251.8796,1531.7043 L252.5866,1530.9973 L251.8826,1530.2933 C251.4926,1529.9033 251.4926,1529.2693 251.8826,1528.8793 C252.2736,1528.4883 252.9066,1528.4883 253.2976,1528.8793 L254.0016,1529.5833 L254.7086,1528.8763 C255.0926,1528.4913 255.8126,1528.5923 256.2076,1528.9683 C256.5786,1529.3573 256.5066,1529.9053 256.1226,1530.2903 L256.1226,1530.2903 Z M256.2296,1528.9833 C256.2236,1528.9773 256.2136,1528.9743 256.2076,1528.9683 C256.2016,1528.9623 256.2006,1528.9543 256.1946,1528.9483 L256.2296,1528.9833 Z M261.9996,1536.0003 C261.9996,1536.5523 261.5566,1537.0003 261.0046,1537.0003 L247.0046,1537.0003 C246.4526,1537.0003 245.9996,1536.5523 245.9996,1536.0003 L245.9996,1522.0003 C245.9996,1521.4483 246.4526,1521.0003 247.0046,1521.0003 L250.3596,1521.0003 C250.7416,1521.0003 251.0896,1521.2173 251.2576,1521.5613 L252.3936,1523.8803 C252.7286,1524.5653 253.4256,1525.0003 254.1896,1525.0003 L261.0046,1525.0003 C261.5566,1525.0003 261.9996,1525.4483 261.9996,1526.0003 L261.9996,1536.0003 Z M262.0046,1523.0003 L255.2406,1523.0003 C254.4826,1523.0003 253.7906,1522.5723 253.4516,1521.8953 L252.5576,1520.1063 C252.2186,1519.4283 251.5256,1519.0003 250.7686,1519.0003 L246.0046,1519.0003 C244.8996,1519.0003 243.9996,1519.8963 243.9996,1521.0003 L243.9996,1537.0003 C243.9996,1538.1053 244.8996,1539.0003 246.0046,1539.0003 L262.0046,1539.0003 C263.1086,1539.0003 263.9996,1538.1053 263.9996,1537.0003 L263.9996,1525.0003 C263.9996,1523.8963 263.1086,1523.0003 262.0046,1523.0003 L262.0046,1523.0003 Z" id="directory_close-[#1655]"></path>
            </g>
        </g>
    </g>
</svg>