<?xml version="1.0" encoding="UTF-8" standalone="no"?>
<svg width="20px" height="20px" viewBox="0 0 20 20" version="1.1" xmlns="http://www.w3.org/2000/svg" xmlns:xlink="http://www.w3.org/1999/xlink">
    <!-- Generator: Sketch 3.8.1 (29687) - http://www.bohemiancoding.com/sketch -->
    <title>directory_close [#1656]</title>
    <desc>Created with Sketch.</desc>
    <defs></defs>
    <g id="Page-1" stroke="none" stroke-width="1" fill="none" fill-rule="evenodd">
        <g id="Dribbble-Dark-Preview" transform="translate(-260.000000, -1679.000000)" fill="#FFFFFF">
            <g id="icons" transform="translate(56.000000, 160.000000)">
                <path d="M216.3214,1531.7075 C216.7124,1532.0985 216.7124,1532.7315 216.3214,1533.1215 C215.9304,1533.5125 215.2974,1533.5125 214.9074,1533.1215 L214.0584,1532.2735 L213.3514,1532.9805 C212.9674,1533.3645 212.3844,1533.4005 211.9934,1533.0295 C211.6194,1532.6355 211.5534,1531.9505 211.9374,1531.5665 L212.6444,1530.8595 L212.0784,1530.2935 C211.6884,1529.9025 211.6884,1529.2695 212.0784,1528.8795 C212.4694,1528.4885 213.1024,1528.4885 213.4934,1528.8795 L214.0584,1529.4445 L214.7654,1528.7375 C215.1564,1528.3475 215.8244,1528.3825 216.2154,1528.7735 L216.2504,1528.8085 C216.6414,1529.1985 216.5704,1529.7615 216.1804,1530.1515 L215.4724,1530.8595 L216.3214,1531.7075 Z M211.9724,1533.0155 C211.9794,1533.0215 211.9874,1533.0235 211.9934,1533.0295 C211.9994,1533.0355 212.0014,1533.0445 212.0084,1533.0515 L211.9724,1533.0155 Z M222.0004,1536.0005 C222.0004,1536.5525 221.7524,1537.0005 221.2004,1537.0005 L207.2004,1537.0005 C206.6474,1537.0005 206.0004,1536.5525 206.0004,1536.0005 L206.0004,1522.0005 C206.0004,1521.4485 206.6474,1521.0005 207.2004,1521.0005 L211.2004,1521.0005 C211.7524,1521.0005 212.0004,1521.4485 212.0004,1522.0005 L212.0004,1523.0005 C212.0004,1524.1045 213.0954,1525.0005 214.2004,1525.0005 L221.2004,1525.0005 C221.7524,1525.0005 222.0004,1525.4485 222.0004,1526.0005 L222.0004,1536.0005 Z M222.2004,1523.0005 L215.2004,1523.0005 C214.6474,1523.0005 214.0004,1522.5525 214.0004,1522.0005 L214.0004,1521.0005 C214.0004,1519.8955 213.3044,1519.0005 212.2004,1519.0005 L206.2004,1519.0005 C205.0954,1519.0005 204.0004,1519.8955 204.0004,1521.0005 L204.0004,1537.0005 C204.0004,1538.1045 205.0954,1539.0005 206.2004,1539.0005 L222.2004,1539.0005 C223.3044,1539.0005 224.0004,1538.1045 224.0004,1537.0005 L224.0004,1525.0005 C224.0004,1523.8955 223.3044,1523.0005 222.2004,1523.0005 L222.2004,1523.0005 Z" id="directory_close-[#1656]"></path>
            </g>
        </g>
    </g>
</svg>