<?xml version="1.0" encoding="UTF-8" standalone="no"?>
<svg width="20px" height="20px" viewBox="0 0 20 20" version="1.1" xmlns="http://www.w3.org/2000/svg" xmlns:xlink="http://www.w3.org/1999/xlink">
    <!-- Generator: Sketch 3.8.1 (29687) - http://www.bohemiancoding.com/sketch -->
    <title>directory_music [#1637]</title>
    <desc>Created with Sketch.</desc>
    <defs></defs>
    <g id="Page-1" stroke="none" stroke-width="1" fill="none" fill-rule="evenodd">
        <g id="Dribbble-Dark-Preview" transform="translate(-220.000000, -1759.000000)" fill="#FFFFFF">
            <g id="icons" transform="translate(56.000000, 160.000000)">
                <path d="M182,1606.0005 C182,1605.4485 181.752,1605.0005 181.2,1605.0005 L174.2,1605.0005 C173.095,1605.0005 172,1604.1045 172,1603.0005 L172,1602.0005 C172,1601.4485 171.752,1601.0005 171.2,1601.0005 L167.2,1601.0005 C166.648,1601.0005 166,1601.4485 166,1602.0005 L166,1616.0005 C166,1616.5525 166.648,1617.0005 167.2,1617.0005 L181.2,1617.0005 C181.752,1617.0005 182,1616.5525 182,1616.0005 L182,1606.0005 Z M184,1605.0005 L184,1617.0005 C184,1618.1045 183.305,1619.0005 182.2,1619.0005 L166.2,1619.0005 C165.095,1619.0005 164,1618.1045 164,1617.0005 L164,1601.0005 C164,1599.8955 165.095,1599.0005 166.2,1599.0005 L172.2,1599.0005 C173.305,1599.0005 174,1599.8955 174,1601.0005 L174,1602.0005 C174,1602.5525 174.648,1603.0005 175.2,1603.0005 L182.2,1603.0005 C183.305,1603.0005 184,1603.8955 184,1605.0005 L184,1605.0005 Z M176,1607.0005 L178,1607.0005 L178,1609.0005 L178,1612.0005 L177.998,1612.0005 C177.986,1613.0955 177.097,1613.9795 176,1613.9795 C174.895,1613.9795 174,1613.0845 174,1611.9795 C174,1610.8755 174.895,1609.9795 176,1609.9795 L176,1609.0005 L172,1609.0005 L172,1613.0005 L171.998,1613.0005 C171.986,1614.0955 171.097,1614.9795 170,1614.9795 C168.895,1614.9795 168,1614.0845 168,1612.9795 C168,1611.8755 168.895,1610.9795 170,1610.9795 L170,1609.0005 L170,1607.0005 L172,1607.0005 L176,1607.0005 Z" id="directory_music-[#1637]"></path>
            </g>
        </g>
    </g>
</svg>