<?xml version="1.0" encoding="UTF-8" standalone="no"?>
<svg width="20px" height="20px" viewBox="0 0 20 20" version="1.1" xmlns="http://www.w3.org/2000/svg" xmlns:xlink="http://www.w3.org/1999/xlink">
    <!-- Generator: Sketch 3.8.1 (29687) - http://www.bohemiancoding.com/sketch -->
    <title>directory_image [#1627]</title>
    <desc>Created with Sketch.</desc>
    <defs></defs>
    <g id="Page-1" stroke="none" stroke-width="1" fill="none" fill-rule="evenodd">
        <g id="Dribbble-Dark-Preview" transform="translate(-220.000000, -1799.000000)" fill="#FFFFFF">
            <g id="icons" transform="translate(56.000000, 160.000000)">
                <path d="M176,1649.0005 C176,1648.4485 176.448,1648.0005 177,1648.0005 C177.552,1648.0005 178,1648.4485 178,1649.0005 C178,1650.3235 176,1650.3215 176,1649.0005 L176,1649.0005 Z M172.518,1649.0005 L175.354,1653.0005 L176.75,1651.0005 L180,1655.0005 L168,1655.0005 L172.518,1649.0005 Z M182,1657.0005 L166,1657.0005 L166,1641.0005 L171.416,1641.0005 L173.374,1645.0005 L182,1645.0005 L182,1657.0005 Z M174.437,1643.0005 L172.437,1639.0005 L164,1639.0005 L164,1659.0005 L184,1659.0005 L184,1643.0005 L174.437,1643.0005 Z" id="directory_image-[#1627]"></path>
            </g>
        </g>
    </g>
</svg>