<?xml version="1.0" encoding="UTF-8" standalone="no"?>
<svg width="20px" height="20px" viewBox="0 0 20 20" version="1.1" xmlns="http://www.w3.org/2000/svg" xmlns:xlink="http://www.w3.org/1999/xlink">
    <!-- Generator: Sketch 3.8.1 (29687) - http://www.bohemiancoding.com/sketch -->
    <title>directory_locked [#1674]</title>
    <desc>Created with Sketch.</desc>
    <defs></defs>
    <g id="Page-1" stroke="none" stroke-width="1" fill="none" fill-rule="evenodd">
        <g id="Dribbble-Dark-Preview" transform="translate(-340.000000, -1599.000000)" fill="#FFFFFF">
            <g id="icons" transform="translate(56.000000, 160.000000)">
                <path d="M292,1453 L296,1453 L296,1452 L292,1452 L292,1453 Z M294.978,1450 L292.978,1450 C292.978,1448.667 294.978,1448.667 294.978,1450 L294.978,1450 Z M290.978,1450 L290,1450 L290,1455 L298,1455 L298,1450 L296.978,1450 C296.978,1446 290.978,1446 290.978,1450 L290.978,1450 Z M301,1457 L287,1457 C286.448,1457 286,1456.553 286,1456 L286,1442 C286,1441.448 286.448,1441 287,1441 L291,1441 C291.552,1441 292,1441.448 292,1442 L292,1443 C292,1444.105 292.895,1445 294,1445 L301,1445 C301.552,1445 302,1445.448 302,1446 L302,1456 C302,1456.553 301.552,1457 301,1457 L301,1457 Z M294,1443 L294,1441 C294,1439.896 293.105,1439 292,1439 L286,1439 C284.895,1439 284,1439.896 284,1441 L284,1457 C284,1458.105 284.895,1459 286,1459 L302,1459 C303.105,1459 304,1458.105 304,1457 L304,1445 C304,1443.896 303.105,1443 302,1443 L294,1443 Z" id="directory_locked-[#1674]"></path>
            </g>
        </g>
    </g>
</svg>