<?xml version="1.0" encoding="UTF-8" standalone="no"?>
<svg width="20px" height="20px" viewBox="0 0 20 20" version="1.1" xmlns="http://www.w3.org/2000/svg" xmlns:xlink="http://www.w3.org/1999/xlink">
    <!-- Generator: Sketch 3.8.1 (29687) - http://www.bohemiancoding.com/sketch -->
    <title>directory_arrow_up [#1671]</title>
    <desc>Created with Sketch.</desc>
    <defs></defs>
    <g id="Page-1" stroke="none" stroke-width="1" fill="none" fill-rule="evenodd">
        <g id="Dribbble-Dark-Preview" transform="translate(-60.000000, -1639.000000)" fill="#FFFFFF">
            <g id="icons" transform="translate(56.000000, 160.000000)">
                <path d="M12,1494.0005 C12,1494.5525 12.448,1495.0005 13,1495.0005 C13.552,1495.0005 14,1494.5525 14,1494.0005 L14,1491.0005 C14,1489.8955 13.105,1489.0005 12,1489.0005 L8.892,1489.0005 C8.345,1489.0005 7.9,1489.4395 7.892,1489.9855 C7.884,1490.5435 8.334,1491.0005 8.892,1491.0005 L9.423,1491.0005 C9.869,1491.0005 10.092,1491.5405 9.776,1491.8545 L4.698,1496.9085 C4.313,1497.2925 4.312,1497.9155 4.696,1498.3005 C5.08,1498.6855 5.705,1498.6845 6.089,1498.2985 L11.145,1493.2105 C11.46,1492.8945 12,1493.1175 12,1493.5635 L12,1494.0005 Z M24,1485.0005 L24,1497.2005 C24,1498.1945 23.194,1499.0005 22.2,1499.0005 L13,1499.0005 C12.448,1499.0005 12,1498.5525 12,1498.0005 C12,1497.4485 12.448,1497.0005 13,1497.0005 L21,1497.0005 C21.552,1497.0005 22,1496.5525 22,1496.0005 L22,1486.0005 C22,1485.4485 21.552,1485.0005 21,1485.0005 L14,1485.0005 C12.895,1485.0005 12,1484.1045 12,1483.0005 L12,1481.8005 C12,1481.3585 11.642,1481.0005 11.2,1481.0005 L7,1481.0005 C6.448,1481.0005 6,1481.4485 6,1482.0005 L6,1490.0005 C6,1490.5525 5.552,1491.0005 5,1491.0005 C4.448,1491.0005 4,1490.5525 4,1490.0005 L4,1481.2005 C4,1479.9855 4.985,1479.0005 6.2,1479.0005 L12,1479.0005 C13.105,1479.0005 14,1479.8955 14,1481.0005 L14,1481.8005 C14,1482.4605 14.54,1483.0005 15.2,1483.0005 L22,1483.0005 C23.105,1483.0005 24,1483.8955 24,1485.0005 L24,1485.0005 Z" id="directory_arrow_up-[#1671]"></path>
            </g>
        </g>
    </g>
</svg>