<?xml version="1.0" encoding="UTF-8" standalone="no"?>
<svg width="20px" height="20px" viewBox="0 0 20 20" version="1.1" xmlns="http://www.w3.org/2000/svg" xmlns:xlink="http://www.w3.org/1999/xlink">
    <!-- Generator: Sketch 3.8.1 (29687) - http://www.bohemiancoding.com/sketch -->
    <title>directory_missing [#1628]</title>
    <desc>Created with Sketch.</desc>
    <defs></defs>
    <g id="Page-1" stroke="none" stroke-width="1" fill="none" fill-rule="evenodd">
        <g id="Dribbble-Dark-Preview" transform="translate(-180.000000, -1799.000000)" fill="#FFFFFF">
            <g id="icons" transform="translate(56.000000, 160.000000)">
                <path d="M142,1653 L144,1653 L144,1651 L142,1651 L142,1653 Z M136,1643 L134.437,1643 L134,1642.127 L134,1645 L136,1645 L136,1643 Z M142,1649 L144,1649 L144,1647 L142,1647 L142,1649 Z M132,1639 L130,1639 L130,1641 L131.416,1641 L132,1642.194 L132,1639 Z M142,1657 L140,1657 L140,1659 L144,1659 L144,1655 L142,1655 L142,1657 Z M128,1639 L124,1639 L124,1643 L126,1643 L126,1641 L128,1641 L128,1639 Z M124,1659 L126,1659 L126,1657 L124,1657 L124,1659 Z M142,1643 L142,1645 L144,1645 L144,1644 L144,1643 L142,1643 Z M124,1651 L126,1651 L126,1649 L124,1649 L124,1651 Z M124,1647 L126,1647 L126,1645 L124,1645 L124,1647 Z M124,1655 L126,1655 L126,1653 L124,1653 L124,1655 Z M132,1659 L134,1659 L134,1657 L132,1657 L132,1659 Z M128,1659 L130,1659 L130,1657 L128,1657 L128,1659 Z M136,1659 L138,1659 L138,1657 L136,1657 L136,1659 Z M138,1645 L140,1645 L140,1643 L138,1643 L138,1645 Z" id="directory_missing-[#1628]"></path>
            </g>
        </g>
    </g>
</svg>