<?xml version="1.0" encoding="UTF-8" standalone="no"?>
<svg width="20px" height="20px" viewBox="0 0 20 20" version="1.1" xmlns="http://www.w3.org/2000/svg" xmlns:xlink="http://www.w3.org/1999/xlink">
    <!-- Generator: Sketch 3.8.1 (29687) - http://www.bohemiancoding.com/sketch -->
    <title>directory_missing [#1629]</title>
    <desc>Created with Sketch.</desc>
    <defs></defs>
    <g id="Page-1" stroke="none" stroke-width="1" fill="none" fill-rule="evenodd">
        <g id="Dribbble-Dark-Preview" transform="translate(-140.000000, -1799.000000)" fill="#FFFFFF">
            <g id="icons" transform="translate(56.000000, 160.000000)">
                <path d="M103,1651.0005 C102.448,1651.0005 102,1651.4485 102,1652.0005 C102,1652.5525 102.448,1653.0005 103,1653.0005 C103.552,1653.0005 104,1652.5525 104,1652.0005 C104,1651.4485 103.552,1651.0005 103,1651.0005 L103,1651.0005 Z M103,1647.0005 C102.448,1647.0005 102,1647.4485 102,1648.0005 C102,1648.5525 102.448,1649.0005 103,1649.0005 C103.552,1649.0005 104,1648.5525 104,1648.0005 C104,1647.4485 103.552,1647.0005 103,1647.0005 L103,1647.0005 Z M85,1657.0005 C84.448,1657.0005 84,1657.4485 84,1658.0005 C84,1658.5525 84.448,1659.0005 85,1659.0005 C85.552,1659.0005 86,1658.5525 86,1658.0005 C86,1657.4485 85.552,1657.0005 85,1657.0005 L85,1657.0005 Z M102,1645.0005 L104,1645.0005 L104,1643.0005 L102,1643.0005 L102,1645.0005 Z M85,1649.0005 C84.448,1649.0005 84,1649.4485 84,1650.0005 C84,1650.5525 84.448,1651.0005 85,1651.0005 C85.552,1651.0005 86,1650.5525 86,1650.0005 C86,1649.4485 85.552,1649.0005 85,1649.0005 L85,1649.0005 Z M85,1645.0005 C84.448,1645.0005 84,1645.4485 84,1646.0005 C84,1646.5525 84.448,1647.0005 85,1647.0005 C85.552,1647.0005 86,1646.5525 86,1646.0005 C86,1645.4485 85.552,1645.0005 85,1645.0005 L85,1645.0005 Z M85,1653.0005 C84.448,1653.0005 84,1653.4485 84,1654.0005 C84,1654.5525 84.448,1655.0005 85,1655.0005 C85.552,1655.0005 86,1654.5525 86,1654.0005 C86,1653.4485 85.552,1653.0005 85,1653.0005 L85,1653.0005 Z M93,1657.0005 C92.448,1657.0005 92,1657.4485 92,1658.0005 C92,1658.5525 92.448,1659.0005 93,1659.0005 C93.552,1659.0005 94,1658.5525 94,1658.0005 C94,1657.4485 93.552,1657.0005 93,1657.0005 L93,1657.0005 Z M89,1657.0005 C88.448,1657.0005 88,1657.4485 88,1658.0005 C88,1658.5525 88.448,1659.0005 89,1659.0005 C89.552,1659.0005 90,1658.5525 90,1658.0005 C90,1657.4485 89.552,1657.0005 89,1657.0005 L89,1657.0005 Z M97,1657.0005 C96.448,1657.0005 96,1657.4485 96,1658.0005 C96,1658.5525 96.448,1659.0005 97,1659.0005 C97.552,1659.0005 98,1658.5525 98,1658.0005 C98,1657.4485 97.552,1657.0005 97,1657.0005 L97,1657.0005 Z M99,1643.0005 C98.448,1643.0005 98,1643.4485 98,1644.0005 C98,1644.5525 98.448,1645.0005 99,1645.0005 C99.552,1645.0005 100,1644.5525 100,1644.0005 C100,1643.4485 99.552,1643.0005 99,1643.0005 L99,1643.0005 Z M95,1643.0005 L94.437,1643.0005 L94,1642.1275 L94,1644.0005 C94,1644.5525 94.448,1645.0005 95,1645.0005 C95.552,1645.0005 96,1644.5525 96,1644.0005 C96,1643.4485 95.552,1643.0005 95,1643.0005 L95,1643.0005 Z M92,1640.0005 C92,1639.4485 91.552,1639.0005 91,1639.0005 C90.448,1639.0005 90,1639.4485 90,1640.0005 C90,1640.5525 90.448,1641.0005 91,1641.0005 L91.416,1641.0005 L92,1642.1935 L92,1640.0005 Z M103,1655.0005 C102.448,1655.0005 102,1655.4485 102,1656.0005 C102,1656.5525 101.552,1657.0005 101,1657.0005 C100.448,1657.0005 100,1657.4485 100,1658.0005 C100,1658.5525 100.448,1659.0005 101,1659.0005 L102,1659.0005 C103.105,1659.0005 104,1658.1045 104,1657.0005 L104,1656.0005 C104,1655.4485 103.552,1655.0005 103,1655.0005 L103,1655.0005 Z M88,1640.0005 C88,1640.5525 87.552,1641.0005 87,1641.0005 C86.448,1641.0005 86,1641.4485 86,1642.0005 C86,1642.5525 85.552,1643.0005 85,1643.0005 C84.448,1643.0005 84,1642.5525 84,1642.0005 L84,1641.0005 C84,1639.8955 84.895,1639.0005 86,1639.0005 L87,1639.0005 C87.552,1639.0005 88,1639.4485 88,1640.0005 L88,1640.0005 Z" id="directory_missing-[#1629]"></path>
            </g>
        </g>
    </g>
</svg>