<?xml version="1.0" encoding="UTF-8" standalone="no"?>
<svg width="20px" height="20px" viewBox="0 0 20 20" version="1.1" xmlns="http://www.w3.org/2000/svg" xmlns:xlink="http://www.w3.org/1999/xlink">
    <!-- Generator: Sketch 3.8.1 (29687) - http://www.bohemiancoding.com/sketch -->
    <title>directory_information [#1653]</title>
    <desc>Created with Sketch.</desc>
    <defs></defs>
    <g id="Page-1" stroke="none" stroke-width="1" fill="none" fill-rule="evenodd">
        <g id="Dribbble-Dark-Preview" transform="translate(-380.000000, -1679.000000)" fill="#FFFFFF">
            <g id="icons" transform="translate(56.000000, 160.000000)">
                <path d="M342,1526.0005 C342,1525.4485 341.752,1525.0005 341.2,1525.0005 L334.2,1525.0005 C333.095,1525.0005 332,1524.1045 332,1523.0005 L332,1522.0005 C332,1521.4485 331.752,1521.0005 331.2,1521.0005 L327.2,1521.0005 C326.648,1521.0005 326,1521.4485 326,1522.0005 L326,1536.0005 C326,1536.5525 326.648,1537.0005 327.2,1537.0005 L333,1537.0005 L333,1532.0005 C333,1531.4485 333.448,1531.0005 334,1531.0005 C334.552,1531.0005 335,1531.4485 335,1532.0005 L335,1537.0005 L341.2,1537.0005 C341.752,1537.0005 342,1536.5525 342,1536.0005 L342,1526.0005 Z M344,1525.0005 L344,1537.0005 C344,1538.1045 343.305,1539.0005 342.2,1539.0005 L326.2,1539.0005 C325.095,1539.0005 324,1538.1045 324,1537.0005 L324,1521.0005 C324,1519.8955 325.095,1519.0005 326.2,1519.0005 L332.2,1519.0005 C333.305,1519.0005 334,1519.8955 334,1521.0005 L334,1522.0005 C334,1522.5525 334.648,1523.0005 335.2,1523.0005 L342.2,1523.0005 C343.305,1523.0005 344,1523.8955 344,1525.0005 L344,1525.0005 Z M335.022,1527.9795 C335.022,1528.5315 334.574,1528.9795 334.022,1528.9795 C333.47,1528.9795 333.022,1528.5315 333.022,1527.9795 C333.022,1527.4275 333.47,1526.9795 334.022,1526.9795 C334.574,1526.9795 335.022,1527.4275 335.022,1527.9795 L335.022,1527.9795 Z" id="directory_information-[#1653]"></path>
            </g>
        </g>
    </g>
</svg>