<?xml version="1.0" encoding="UTF-8" standalone="no"?>
<svg width="23px" height="23px" viewBox="0 0 23 23" version="1.1" xmlns="http://www.w3.org/2000/svg" xmlns:xlink="http://www.w3.org/1999/xlink">
    <!-- Generator: Sketch 3.8.1 (29687) - http://www.bohemiancoding.com/sketch -->
    <title>directory_close [#1666]</title>
    <desc>Created with Sketch.</desc>
    <defs></defs>
    <g id="Page-1" stroke="none" stroke-width="1" fill="none" fill-rule="evenodd">
        <g id="Dribbble-Dark-Preview" transform="translate(-257.000000, -1639.000000)" fill="#FFFFFF">
            <g id="icons" transform="translate(56.000000, 160.000000)">
                <path d="M206.2427,1498.08666 L208.3637,1495.95203 C208.7547,1495.55852 208.7547,1494.92145 208.3637,1494.52894 C207.9737,1494.13543 207.3407,1494.13543 206.9497,1494.52894 L204.8287,1496.66357 L202.7177,1494.53901 C202.3317,1494.15053 201.7057,1494.14549 201.3137,1494.52894 C200.9137,1494.92044 200.9087,1495.56556 201.3037,1495.96209 L203.4147,1498.08666 L201.2927,1500.22129 C200.9027,1500.6148 200.9027,1501.25187 201.2927,1501.64538 C201.6837,1502.03788 202.3167,1502.03788 202.7067,1501.64538 L204.8287,1499.50974 L207.0107,1501.70576 C207.3967,1502.09525 208.0217,1502.09928 208.4137,1501.71683 C208.8147,1501.32533 208.8187,1500.68022 208.4247,1500.28268 L206.2427,1498.08666 Z M223.9997,1485.03935 L223.9997,1497.54319 C223.9997,1498.41878 223.1077,1499.12931 222.2377,1499.12931 L212.8137,1499.12931 C212.2617,1499.12931 211.8137,1498.67844 211.8137,1498.12289 C211.8137,1497.56633 212.2617,1497.11646 212.8137,1497.11646 L220.8137,1497.11646 C221.3657,1497.11646 221.9997,1496.66558 221.9997,1496.11004 L221.9997,1485.61906 C221.9997,1485.29801 221.5557,1485.03935 221.2377,1485.03935 L214.4227,1485.03935 C213.6597,1485.03935 212.9627,1484.60156 212.6267,1483.91115 L211.4917,1481.57725 C211.3237,1481.23205 210.9747,1481.01365 210.5937,1481.01365 L206.8137,1481.01365 C206.2617,1481.01365 205.9997,1481.46352 205.9997,1482.02008 L205.9997,1490.07148 C205.9997,1490.62703 205.5527,1491.07791 204.9997,1491.07791 C204.4477,1491.07791 203.9997,1490.62703 203.9997,1490.07148 L203.9997,1481.01365 C203.9997,1479.90658 204.7137,1479.0008 205.8137,1479.0008 L211.0017,1479.0008 C211.7597,1479.0008 212.4517,1479.43155 212.7907,1480.1129 L213.6847,1481.9134 C214.0237,1482.59575 214.7167,1483.0265 215.4737,1483.0265 L221.8137,1483.0265 C222.9187,1483.0265 223.9997,1483.92725 223.9997,1485.03935 L223.9997,1485.03935 Z" id="directory_close-[#1666]"></path>
            </g>
        </g>
    </g>
</svg>