<?xml version="1.0" encoding="UTF-8" standalone="no"?>
<svg width="23px" height="23px" viewBox="0 0 23 23" version="1.1" xmlns="http://www.w3.org/2000/svg" xmlns:xlink="http://www.w3.org/1999/xlink">
    <!-- Generator: Sketch 3.8.1 (29687) - http://www.bohemiancoding.com/sketch -->
    <title>directory_close [#1665]</title>
    <desc>Created with Sketch.</desc>
    <defs></defs>
    <g id="Page-1" stroke="none" stroke-width="1" fill="none" fill-rule="evenodd">
        <g id="Dribbble-Dark-Preview" transform="translate(-297.000000, -1639.000000)" fill="#FFFFFF">
            <g id="icons" transform="translate(56.000000, 160.000000)">
                <path d="M249.4853,1494.95809 L248.0713,1493.55972 L245.2423,1496.35646 L242.4353,1493.58048 L241.0003,1494.95809 L243.8283,1497.75484 L241.0003,1500.55258 L242.4143,1501.95095 L245.2423,1499.1542 L248.1213,1502.0004 L249.5563,1500.62279 L246.6573,1497.75484 L249.4853,1494.95809 Z M264.0003,1482.9562 L264.0003,1498.77939 L252.0003,1498.77939 L252.0003,1496.80149 L262.0003,1496.80149 L262.0003,1484.9341 L253.6023,1484.9341 L251.6433,1480.9783 L246.0003,1480.9783 L246.0003,1490.86779 L244.0003,1490.86779 L244.0003,1479.0004 L252.6643,1479.0004 L254.6643,1482.9562 L264.0003,1482.9562 Z" id="directory_close-[#1665]"></path>
            </g>
        </g>
    </g>
</svg>