<?xml version="1.0" encoding="UTF-8" standalone="no"?>
<svg width="20px" height="20px" viewBox="0 0 20 20" version="1.1" xmlns="http://www.w3.org/2000/svg" xmlns:xlink="http://www.w3.org/1999/xlink">
    <!-- Generator: Sketch 3.8.1 (29687) - http://www.bohemiancoding.com/sketch -->
    <title>directory_arrow_down [#1657]</title>
    <desc>Created with Sketch.</desc>
    <defs></defs>
    <g id="Page-1" stroke="none" stroke-width="1" fill="none" fill-rule="evenodd">
        <g id="Dribbble-Dark-Preview" transform="translate(-220.000000, -1679.000000)" fill="#FFFFFF">
            <g id="icons" transform="translate(56.000000, 160.000000)">
                <path d="M169.0857,1537.0005 L168.5547,1537.0005 C168.1087,1537.0005 167.8857,1536.4605 168.2027,1536.1465 L173.2857,1531.0905 C173.6677,1530.7095 173.6697,1530.0915 173.2897,1529.7085 C172.9077,1529.3225 172.2837,1529.3225 171.9017,1529.7085 L166.8547,1534.7955 C166.5407,1535.1125 165.9997,1534.8895 165.9997,1534.4435 L165.9997,1534.0005 C165.9997,1533.4485 165.5527,1533.0005 164.9997,1533.0005 C164.4477,1533.0005 163.9997,1533.4485 163.9997,1534.0005 L163.9997,1537.0005 C163.9997,1538.1045 164.8957,1539.0005 165.9997,1539.0005 L169.0857,1539.0005 C169.6327,1539.0005 170.0777,1538.5615 170.0857,1538.0155 C170.0937,1537.4575 169.6437,1537.0005 169.0857,1537.0005 M183.9997,1525.0005 L183.9997,1537.4245 C183.9997,1538.2945 183.2947,1539.0005 182.4237,1539.0005 L172.9997,1539.0005 C172.4477,1539.0005 171.9997,1538.5525 171.9997,1538.0005 C171.9997,1537.4485 172.4477,1537.0005 172.9997,1537.0005 L180.9997,1537.0005 C181.5527,1537.0005 181.9997,1536.5525 181.9997,1536.0005 L181.9997,1525.5765 C181.9997,1525.2585 181.7417,1525.0005 181.4237,1525.0005 L174.6097,1525.0005 C173.8457,1525.0005 173.1487,1524.5655 172.8127,1523.8795 L171.6777,1521.5605 C171.5097,1521.2175 171.1617,1521.0005 170.7797,1521.0005 L166.9997,1521.0005 C166.4477,1521.0005 165.9997,1521.4485 165.9997,1522.0005 L165.9997,1530.0005 C165.9997,1530.5525 165.5527,1531.0005 164.9997,1531.0005 C164.4477,1531.0005 163.9997,1530.5525 163.9997,1530.0005 L163.9997,1521.4245 C163.9997,1520.0915 165.0907,1519.0005 166.4237,1519.0005 L171.1877,1519.0005 C171.9457,1519.0005 172.6377,1519.4285 172.9767,1520.1055 L173.8717,1521.8945 C174.2097,1522.5725 174.9027,1523.0005 175.6597,1523.0005 L181.9997,1523.0005 C183.1047,1523.0005 183.9997,1523.8955 183.9997,1525.0005" id="directory_arrow_down-[#1657]"></path>
            </g>
        </g>
    </g>
</svg>