<?xml version="1.0" encoding="UTF-8" standalone="no"?>
<svg width="20px" height="20px" viewBox="0 0 20 20" version="1.1" xmlns="http://www.w3.org/2000/svg" xmlns:xlink="http://www.w3.org/1999/xlink">
    <!-- Generator: Sketch 3.8.1 (29687) - http://www.bohemiancoding.com/sketch -->
    <title>directory_love_favorite [#1618]</title>
    <desc>Created with Sketch.</desc>
    <defs></defs>
    <g id="Page-1" stroke="none" stroke-width="1" fill="none" fill-rule="evenodd">
        <g id="Dribbble-Dark-Preview" transform="translate(-180.000000, -1839.000000)" fill="#FFFFFF">
            <g id="icons" transform="translate(56.000000, 160.000000)">
                <path d="M137.8013,1690.6055 C137.7463,1691.7695 137.1693,1692.5775 136.3333,1693.3445 C135.9373,1693.7085 135.5343,1694.0645 135.1303,1694.4205 C134.3763,1695.0865 133.2453,1695.0865 132.4873,1694.4245 C132.0543,1694.0465 131.6223,1693.6685 131.2013,1693.2775 C130.3803,1692.5145 129.8463,1691.7015 129.8063,1690.5535 C129.7733,1689.6095 130.2273,1688.7235 131.1593,1688.4025 C132.1363,1688.0655 133.0513,1688.4855 133.6483,1689.2435 C133.7263,1689.3425 133.8813,1689.3395 133.9593,1689.2415 C134.5133,1688.5325 135.3423,1688.1185 136.2713,1688.3495 C137.3213,1688.6105 137.8503,1689.5755 137.8013,1690.6055 L137.8013,1690.6055 Z M142.0003,1696.0005 C142.0003,1696.5525 141.7523,1697.0005 141.2003,1697.0005 L127.2003,1697.0005 C126.6473,1697.0005 126.0003,1696.5525 126.0003,1696.0005 L126.0003,1682.0005 C126.0003,1681.4485 126.6473,1681.0005 127.2003,1681.0005 L131.2003,1681.0005 C131.7523,1681.0005 132.0003,1681.4485 132.0003,1682.0005 L132.0003,1683.0005 C132.0003,1684.1055 133.0953,1685.0005 134.2003,1685.0005 L141.2003,1685.0005 C141.7523,1685.0005 142.0003,1685.4485 142.0003,1686.0005 L142.0003,1696.0005 Z M142.2003,1683.0005 L135.2003,1683.0005 C134.6473,1683.0005 134.0003,1682.5525 134.0003,1682.0005 L134.0003,1681.0005 C134.0003,1679.8965 133.3043,1679.0005 132.2003,1679.0005 L126.2003,1679.0005 C125.0953,1679.0005 124.0003,1679.8965 124.0003,1681.0005 L124.0003,1697.0005 C124.0003,1698.1055 125.0953,1699.0005 126.2003,1699.0005 L142.2003,1699.0005 C143.3043,1699.0005 144.0003,1698.1055 144.0003,1697.0005 L144.0003,1685.0005 C144.0003,1683.8965 143.3043,1683.0005 142.2003,1683.0005 L142.2003,1683.0005 Z" id="directory_love_favorite-[#1618]"></path>
            </g>
        </g>
    </g>
</svg>