<?xml version="1.0" encoding="UTF-8" standalone="no"?>
<svg width="20px" height="20px" viewBox="0 0 20 20" version="1.1" xmlns="http://www.w3.org/2000/svg" xmlns:xlink="http://www.w3.org/1999/xlink">
    <!-- Generator: Sketch 3.8.1 (29687) - http://www.bohemiancoding.com/sketch -->
    <title>directory_love_favorite [#1616]</title>
    <desc>Created with Sketch.</desc>
    <defs></defs>
    <g id="Page-1" stroke="none" stroke-width="1" fill="none" fill-rule="evenodd">
        <g id="Dribbble-Dark-Preview" transform="translate(-260.000000, -1839.000000)" fill="#FFFFFF">
            <g id="icons" transform="translate(56.000000, 160.000000)">
                <path d="M213.6487,1689.2436 C213.7267,1689.3426 213.8817,1689.3396 213.9587,1689.2416 C215.3707,1687.4386 217.9087,1688.3436 217.8017,1690.6056 C217.7197,1692.3186 216.5307,1693.1856 215.1307,1694.4206 C214.3757,1695.0866 213.2447,1695.0866 212.4867,1694.4246 C211.0667,1693.1826 209.8667,1692.3116 209.8057,1690.5536 C209.7287,1688.3416 212.2307,1687.4446 213.6487,1689.2436 L213.6487,1689.2436 Z M221.9997,1697.0006 L205.9997,1697.0006 L205.9997,1681.0006 L211.4157,1681.0006 L213.3737,1685.0006 L221.9997,1685.0006 L221.9997,1697.0006 Z M214.4367,1683.0006 L212.4367,1679.0006 L203.9997,1679.0006 L203.9997,1699.0006 L223.9997,1699.0006 L223.9997,1684.0006 L223.9997,1683.0006 L214.4367,1683.0006 Z" id="directory_love_favorite-[#1616]"></path>
            </g>
        </g>
    </g>
</svg>