<?xml version="1.0" encoding="UTF-8" standalone="no"?>
<svg width="20px" height="20px" viewBox="0 0 20 20" version="1.1" xmlns="http://www.w3.org/2000/svg" xmlns:xlink="http://www.w3.org/1999/xlink">
    <!-- Generator: Sketch 3.8.1 (29687) - http://www.bohemiancoding.com/sketch -->
    <title>directory_image [#1624]</title>
    <desc>Created with Sketch.</desc>
    <defs></defs>
    <g id="Page-1" stroke="none" stroke-width="1" fill="none" fill-rule="evenodd">
        <g id="Dribbble-Dark-Preview" transform="translate(-340.000000, -1799.000000)" fill="#FFFFFF">
            <g id="icons" transform="translate(56.000000, 160.000000)">
                <path d="M296,1649.0005 C296,1648.4485 296.448,1648.0005 297,1648.0005 C297.552,1648.0005 298,1648.4485 298,1649.0005 C298,1649.5525 297.552,1650.0005 297,1650.0005 C296.448,1650.0005 296,1649.5525 296,1649.0005 L296,1649.0005 Z M288,1655.0005 L292.518,1649.0005 L295.354,1653.0005 L296.75,1651.0005 L300,1655.0005 L288,1655.0005 Z M302,1657.0005 L286,1657.0005 L286,1641.0005 L292,1641.0005 L292,1645.0005 L302,1645.0005 L302,1657.0005 Z M294,1643.0005 L294,1639.0005 L284,1639.0005 L284,1659.0005 L304,1659.0005 L304,1643.0005 L294,1643.0005 Z" id="directory_image-[#1624]"></path>
            </g>
        </g>
    </g>
</svg>