<?xml version="1.0" encoding="UTF-8" standalone="no"?>
<svg width="20px" height="20px" viewBox="0 0 20 20" version="1.1" xmlns="http://www.w3.org/2000/svg" xmlns:xlink="http://www.w3.org/1999/xlink">
    <!-- Generator: Sketch 3.8.1 (29687) - http://www.bohemiancoding.com/sketch -->
    <title>directory_music [#1635]</title>
    <desc>Created with Sketch.</desc>
    <defs></defs>
    <g id="Page-1" stroke="none" stroke-width="1" fill="none" fill-rule="evenodd">
        <g id="Dribbble-Dark-Preview" transform="translate(-300.000000, -1759.000000)" fill="#FFFFFF">
            <g id="icons" transform="translate(56.000000, 160.000000)">
                <path d="M262,1606.0005 C262,1605.4485 261.976,1605.0005 261.424,1605.0005 L254.609,1605.0005 C253.846,1605.0005 253.149,1604.5655 252.813,1603.8795 L251.678,1601.5605 C251.51,1601.2175 251.161,1601.0005 250.779,1601.0005 L247.424,1601.0005 C246.872,1601.0005 246,1601.4485 246,1602.0005 L246,1616.0005 C246,1616.5525 246.872,1617.0005 247.424,1617.0005 L261.424,1617.0005 C261.976,1617.0005 262,1616.5525 262,1616.0005 L262,1606.0005 Z M264,1605.0005 L264,1617.0005 C264,1618.1045 263.529,1619.0005 262.424,1619.0005 L246.424,1619.0005 C245.32,1619.0005 244,1618.1045 244,1617.0005 L244,1601.0005 C244,1599.8955 245.32,1599.0005 246.424,1599.0005 L251.188,1599.0005 C251.946,1599.0005 252.638,1599.4285 252.977,1600.1055 L253.871,1601.8945 C254.21,1602.5725 254.903,1603.0005 255.66,1603.0005 L262.424,1603.0005 C263.529,1603.0005 264,1603.8955 264,1605.0005 L264,1605.0005 Z M256,1607.0005 L258,1607.0005 L258,1609.0005 L258,1612.0005 L257.998,1612.0005 C257.986,1613.0955 257.097,1613.9795 256,1613.9795 C254.895,1613.9795 254,1613.0845 254,1611.9795 C254,1610.8755 254.895,1609.9795 256,1609.9795 L256,1609.0005 L252,1609.0005 L252,1613.0005 L251.998,1613.0005 C251.986,1614.0955 251.097,1614.9795 250,1614.9795 C248.895,1614.9795 248,1614.0845 248,1612.9795 C248,1611.8755 248.895,1610.9795 250,1610.9795 L250,1609.0005 L250,1607.0005 L252,1607.0005 L256,1607.0005 Z" id="directory_music-[#1635]"></path>
            </g>
        </g>
    </g>
</svg>