<?xml version="1.0" encoding="UTF-8" standalone="no"?>
<svg width="24px" height="24px" viewBox="0 0 24 24" version="1.1" xmlns="http://www.w3.org/2000/svg" xmlns:xlink="http://www.w3.org/1999/xlink">
    <!-- Generator: Sketch 3.8.1 (29687) - http://www.bohemiancoding.com/sketch -->
    <title>directory_plus [#1662]</title>
    <desc>Created with Sketch.</desc>
    <defs></defs>
    <g id="Page-1" stroke="none" stroke-width="1" fill="none" fill-rule="evenodd">
        <g id="Dribbble-Dark-Preview" transform="translate(-416.000000, -1639.000000)" fill="#FFFFFF">
            <g id="icons" transform="translate(56.000000, 160.000000)">
                <path d="M369.0709,1497.0005 L365.9999,1497.0005 L365.9999,1494.0005 C365.9999,1493.4485 365.5519,1493.0005 364.9999,1493.0005 C364.4479,1493.0005 363.9999,1493.4485 363.9999,1494.0005 L363.9999,1497.0005 L360.9999,1497.0005 C360.4539,1497.0005 360.0079,1497.4395 359.9999,1497.9855 C359.9919,1498.5435 360.4419,1499.0005 360.9999,1499.0005 L363.9999,1499.0005 L363.9999,1502.0005 C363.9999,1502.5525 364.4479,1503.0005 364.9999,1503.0005 C365.5519,1503.0005 365.9999,1502.5525 365.9999,1502.0005 L365.9999,1499.0005 L369.0709,1499.0005 C369.6179,1499.0005 370.0629,1498.5615 370.0709,1498.0155 C370.0789,1497.4575 369.6289,1497.0005 369.0709,1497.0005 M383.9999,1485.0005 L383.9999,1497.0005 C383.9999,1498.1045 383.0899,1499.0005 381.9849,1499.0005 L372.9849,1499.0005 C372.4329,1499.0005 371.9849,1498.5525 371.9849,1498.0005 C371.9849,1497.4485 372.4329,1497.0005 372.9849,1497.0005 L380.9849,1497.0005 C381.5379,1497.0005 381.9999,1496.5525 381.9999,1496.0005 L381.9999,1485.5765 C381.9999,1485.2585 381.7269,1485.0005 381.4089,1485.0005 L374.5949,1485.0005 C373.8309,1485.0005 373.1339,1484.5655 372.7979,1483.8795 L371.6629,1481.5605 C371.4949,1481.2175 371.1469,1481.0005 370.7649,1481.0005 L366.9849,1481.0005 C366.4329,1481.0005 365.9999,1481.4485 365.9999,1482.0005 L365.9999,1490.0005 C365.9999,1490.5525 365.5519,1491.0005 364.9999,1491.0005 C364.4479,1491.0005 363.9999,1490.5525 363.9999,1490.0005 L363.9999,1481.4245 C363.9999,1480.0915 365.0759,1479.0005 366.4089,1479.0005 L371.1729,1479.0005 C371.9309,1479.0005 372.6229,1479.4285 372.9619,1480.1055 L373.8569,1481.8945 C374.1949,1482.5725 374.8879,1483.0005 375.6459,1483.0005 L381.9849,1483.0005 C383.0899,1483.0005 383.9999,1483.8955 383.9999,1485.0005" id="directory_plus-[#1662]"></path>
            </g>
        </g>
    </g>
</svg>