<?xml version="1.0" encoding="UTF-8" standalone="no"?>
<svg width="20px" height="20px" viewBox="0 0 20 20" version="1.1" xmlns="http://www.w3.org/2000/svg" xmlns:xlink="http://www.w3.org/1999/xlink">
    <!-- Generator: Sketch 3.8.1 (29687) - http://www.bohemiancoding.com/sketch -->
    <title>directory_locked [#1675]</title>
    <desc>Created with Sketch.</desc>
    <defs></defs>
    <g id="Page-1" stroke="none" stroke-width="1" fill="none" fill-rule="evenodd">
        <g id="Dribbble-Dark-Preview" transform="translate(-300.000000, -1599.000000)" fill="#FFFFFF">
            <g id="icons" transform="translate(56.000000, 160.000000)">
                <path d="M252,1453 L256,1453 L256,1452 L252,1452 L252,1453 Z M255.022,1450 L253.022,1450 C253.022,1449 255.022,1449 255.022,1450 L255.022,1450 Z M251.022,1450 L250,1450 L250,1455 L258,1455 L258,1450 L257.022,1450 C257.022,1446 251.022,1446 251.022,1450 L251.022,1450 Z M262,1457 L246,1457 L246,1441 L251.416,1441 L253.374,1445 L262,1445 L262,1457 Z M254.437,1443 L252.437,1439 L244,1439 L244,1459 L264,1459 L264,1443 L254.437,1443 Z" id="directory_locked-[#1675]"></path>
            </g>
        </g>
    </g>
</svg>