<?xml version="1.0" encoding="UTF-8" standalone="no"?>
<svg width="20px" height="20px" viewBox="0 0 20 20" version="1.1" xmlns="http://www.w3.org/2000/svg" xmlns:xlink="http://www.w3.org/1999/xlink">
    <!-- Generator: Sketch 3.8.1 (29687) - http://www.bohemiancoding.com/sketch -->
    <title>directory_search [#1620]</title>
    <desc>Created with Sketch.</desc>
    <defs></defs>
    <g id="Page-1" stroke="none" stroke-width="1" fill="none" fill-rule="evenodd">
        <g id="Dribbble-Dark-Preview" transform="translate(-100.000000, -1839.000000)" fill="#FFFFFF">
            <g id="icons" transform="translate(56.000000, 160.000000)">
                <path d="M55.8449,1694.7922 L57.2589,1693.3782 L58.8809,1694.9992 L57.4659,1696.4132 L55.8449,1694.7922 Z M55.1199,1690.3612 C55.1199,1691.4632 54.2219,1692.3612 53.1199,1692.3612 C52.0169,1692.3612 51.1199,1691.4632 51.1199,1690.3612 C51.1199,1689.2582 52.0169,1688.3612 53.1199,1688.3612 C54.2219,1688.3612 55.1199,1689.2582 55.1199,1690.3612 L55.1199,1690.3612 Z M49.1199,1690.3612 C49.1199,1692.5702 50.9099,1694.3612 53.1199,1694.3612 C55.3289,1694.3612 57.1199,1692.5702 57.1199,1690.3612 C57.1199,1688.1522 55.3289,1686.3612 53.1199,1686.3612 C50.9099,1686.3612 49.1199,1688.1522 49.1199,1690.3612 L49.1199,1690.3612 Z M61.9999,1697.0002 L45.9999,1697.0002 L45.9999,1681.0002 L51.4159,1681.0002 L53.3739,1685.0002 L61.9999,1685.0002 L61.9999,1697.0002 Z M54.4369,1683.0002 L52.4369,1679.0002 L43.9999,1679.0002 L43.9999,1699.0002 L63.9999,1699.0002 L63.9999,1683.0002 L54.4369,1683.0002 Z" id="directory_search-[#1620]"></path>
            </g>
        </g>
    </g>
</svg>