<?xml version="1.0" encoding="UTF-8" standalone="no"?>
<svg width="20px" height="20px" viewBox="0 0 20 20" version="1.1" xmlns="http://www.w3.org/2000/svg" xmlns:xlink="http://www.w3.org/1999/xlink">
    <!-- Generator: Sketch 3.8.1 (29687) - http://www.bohemiancoding.com/sketch -->
    <title>directory_favorite_half [#1643]</title>
    <desc>Created with Sketch.</desc>
    <defs></defs>
    <g id="Page-1" stroke="none" stroke-width="1" fill="none" fill-rule="evenodd">
        <g id="Dribbble-Dark-Preview" transform="translate(-380.000000, -1719.000000)" fill="#FFFFFF">
            <g id="icons" transform="translate(56.000000, 160.000000)">
                <path d="M342,1566.0005 C342,1565.4485 341.976,1565.0005 341.424,1565.0005 L334.609,1565.0005 C333.846,1565.0005 333.149,1564.5655 332.813,1563.8795 L331.678,1561.5605 C331.51,1561.2175 331.161,1561.0005 330.779,1561.0005 L327.424,1561.0005 C326.872,1561.0005 326,1561.4485 326,1562.0005 L326,1576.0005 C326,1576.5525 326.872,1577.0005 327.424,1577.0005 L341.424,1577.0005 C341.976,1577.0005 342,1576.5525 342,1576.0005 L342,1566.0005 Z M344,1565.0005 L344,1577.0005 C344,1578.1045 343.529,1579.0005 342.424,1579.0005 L326.424,1579.0005 C325.32,1579.0005 324,1578.1045 324,1577.0005 L324,1561.0005 C324,1559.8955 325.32,1559.0005 326.424,1559.0005 L331.188,1559.0005 C331.946,1559.0005 332.638,1559.4285 332.977,1560.1055 L333.871,1561.8945 C334.21,1562.5725 334.903,1563.0005 335.66,1563.0005 L342.424,1563.0005 C343.529,1563.0005 344,1563.8955 344,1565.0005 L344,1565.0005 Z M334,1566.9795 L334,1574.0795 C334,1574.0795 333.814,1574.1075 333.704,1574.1655 L332.35,1574.9065 C332.234,1574.9675 332.114,1574.9955 331.998,1574.9955 C331.557,1574.9955 331.169,1574.5985 331.253,1574.1105 L331.522,1572.5405 C331.564,1572.2955 331.482,1572.0455 331.303,1571.8715 L330.161,1570.7605 C329.713,1570.3235 329.957,1569.5615 330.577,1569.4715 L332.146,1569.2425 C332.392,1569.2065 332.591,1569.0515 332.701,1568.8285 L333.378,1567.4005 C333.516,1567.1205 334,1566.9795 334,1566.9795 L334,1566.9795 Z" id="directory_favorite_half-[#1643]"></path>
            </g>
        </g>
    </g>
</svg>