<?xml version="1.0" encoding="UTF-8" standalone="no"?>
<svg width="20px" height="20px" viewBox="0 0 20 20" version="1.1" xmlns="http://www.w3.org/2000/svg" xmlns:xlink="http://www.w3.org/1999/xlink">
    <!-- Generator: Sketch 3.8.1 (29687) - http://www.bohemiancoding.com/sketch -->
    <title>directory_favorite [#1640]</title>
    <desc>Created with Sketch.</desc>
    <defs></defs>
    <g id="Page-1" stroke="none" stroke-width="1" fill="none" fill-rule="evenodd">
        <g id="Dribbble-Dark-Preview" transform="translate(-100.000000, -1759.000000)" fill="#FFFFFF">
            <g id="icons" transform="translate(56.000000, 160.000000)">
                <path d="M62,1605.0005 L52,1605.0005 L52,1601.0005 L46,1601.0005 L46,1617.0005 L62,1617.0005 L62,1605.0005 Z M64,1603.0005 L64,1619.0005 L44,1619.0005 L44,1599.0005 L54,1599.0005 L54,1603.0005 L64,1603.0005 Z M50.473,1609.4915 L52.049,1609.2635 C52.295,1609.2275 52.508,1609.0725 52.618,1608.8495 L53.322,1607.4215 C53.461,1607.1405 53.73,1607.0005 54,1607.0005 C54.27,1607.0005 54.539,1607.1405 54.678,1607.4215 L55.382,1608.8495 C55.493,1609.0725 55.705,1609.2275 55.952,1609.2635 L57.527,1609.4915 C58.147,1609.5825 58.395,1610.3445 57.946,1610.7815 L56.806,1611.8925 C56.628,1612.0665 56.546,1612.3165 56.589,1612.5615 L56.858,1614.1305 C56.941,1614.6195 56.553,1615.0165 56.113,1615.0165 C55.997,1615.0165 55.877,1614.9885 55.761,1614.9275 L54.352,1614.1865 C54.242,1614.1285 54.121,1614.0995 54,1614.0995 C53.879,1614.0995 53.758,1614.1285 53.648,1614.1865 L52.239,1614.9275 C52.123,1614.9885 52.003,1615.0165 51.887,1615.0165 C51.447,1615.0165 51.059,1614.6195 51.142,1614.1305 L51.411,1612.5615 C51.454,1612.3165 51.372,1612.0665 51.194,1611.8925 L50.054,1610.7815 C49.605,1610.3445 49.853,1609.5825 50.473,1609.4915 L50.473,1609.4915 Z" id="directory_favorite-[#1640]"></path>
            </g>
        </g>
    </g>
</svg>