<?xml version="1.0" encoding="UTF-8" standalone="no"?>
<svg width="20px" height="20px" viewBox="0 0 20 20" version="1.1" xmlns="http://www.w3.org/2000/svg" xmlns:xlink="http://www.w3.org/1999/xlink">
    <!-- Generator: Sketch 3.8.1 (29687) - http://www.bohemiancoding.com/sketch -->
    <title>directory_arrow_down [#1659]</title>
    <desc>Created with Sketch.</desc>
    <defs></defs>
    <g id="Page-1" stroke="none" stroke-width="1" fill="none" fill-rule="evenodd">
        <g id="Dribbble-Dark-Preview" transform="translate(-140.000000, -1679.000000)" fill="#FFFFFF">
            <g id="icons" transform="translate(56.000000, 160.000000)">
                <path d="M89.0857,1537.0005 L88.5547,1537.0005 C88.1087,1537.0005 87.8857,1536.4605 88.2027,1536.1465 L93.2857,1531.0905 C93.6677,1530.7095 93.6697,1530.0915 93.2897,1529.7085 C92.9077,1529.3225 92.2837,1529.3225 91.9017,1529.7085 L86.8547,1534.7955 C86.5407,1535.1125 85.9997,1534.8895 85.9997,1534.4435 L85.9997,1534.0005 C85.9997,1533.4485 85.5527,1533.0005 84.9997,1533.0005 C84.4477,1533.0005 83.9997,1533.4485 83.9997,1534.0005 L83.9997,1537.0005 C83.9997,1538.1045 84.8957,1539.0005 85.9997,1539.0005 L89.0857,1539.0005 C89.6327,1539.0005 90.0777,1538.5615 90.0857,1538.0155 C90.0937,1537.4575 89.6437,1537.0005 89.0857,1537.0005 M103.9997,1525.0005 L103.9997,1537.2005 C103.9997,1538.1945 103.1937,1539.0005 102.1997,1539.0005 L92.9997,1539.0005 C92.4477,1539.0005 91.9997,1538.5525 91.9997,1538.0005 C91.9997,1537.4485 92.4477,1537.0005 92.9997,1537.0005 L100.9997,1537.0005 C101.5527,1537.0005 101.9997,1536.5525 101.9997,1536.0005 L101.9997,1526.0005 C101.9997,1525.4485 101.5527,1525.0005 100.9997,1525.0005 L93.9997,1525.0005 C92.8957,1525.0005 91.9997,1524.1045 91.9997,1523.0005 L91.9997,1521.8005 C91.9997,1521.3585 91.6417,1521.0005 91.1997,1521.0005 L86.9997,1521.0005 C86.4477,1521.0005 85.9997,1521.4485 85.9997,1522.0005 L85.9997,1530.0005 C85.9997,1530.5525 85.5527,1531.0005 84.9997,1531.0005 C84.4477,1531.0005 83.9997,1530.5525 83.9997,1530.0005 L83.9997,1521.2005 C83.9997,1519.9905 84.9897,1519.0005 86.1997,1519.0005 L91.9997,1519.0005 C93.1047,1519.0005 93.9997,1519.8955 93.9997,1521.0005 L93.9997,1521.8005 C93.9997,1522.4605 94.5397,1523.0005 95.1997,1523.0005 L101.9997,1523.0005 C103.1047,1523.0005 103.9997,1523.8955 103.9997,1525.0005" id="directory_arrow_down-[#1659]"></path>
            </g>
        </g>
    </g>
</svg>