<?xml version="1.0" encoding="UTF-8" standalone="no"?>
<svg width="24px" height="24px" viewBox="0 0 24 24" version="1.1" xmlns="http://www.w3.org/2000/svg" xmlns:xlink="http://www.w3.org/1999/xlink">
    <!-- Generator: Sketch 3.8.1 (29687) - http://www.bohemiancoding.com/sketch -->
    <title>directory_plus [#1664]</title>
    <desc>Created with Sketch.</desc>
    <defs></defs>
    <g id="Page-1" stroke="none" stroke-width="1" fill="none" fill-rule="evenodd">
        <g id="Dribbble-Dark-Preview" transform="translate(-336.000000, -1639.000000)" fill="#FFFFFF">
            <g id="icons" transform="translate(56.000000, 160.000000)">
                <path d="M286,1493.0005 L284,1493.0005 L284,1497.0005 L280.029,1497.0005 L280,1499.0005 L284,1499.0005 L284,1503.0005 L286,1503.0005 L286,1499.0005 L290.071,1499.0005 L290.101,1497.0005 L286,1497.0005 L286,1493.0005 Z M304,1483.0005 L304,1499.0005 L292,1499.0005 L292,1497.0005 L302,1497.0005 L302,1485.0005 L292,1485.0005 L292,1481.0005 L286,1481.0005 L286,1491.0005 L284,1491.0005 L284,1479.0005 L294,1479.0005 L294,1483.0005 L304,1483.0005 Z" id="directory_plus-[#1664]"></path>
            </g>
        </g>
    </g>
</svg>