<?xml version="1.0" encoding="UTF-8" standalone="no"?>
<svg width="24px" height="24px" viewBox="0 0 24 24" version="1.1" xmlns="http://www.w3.org/2000/svg" xmlns:xlink="http://www.w3.org/1999/xlink">
    <!-- Generator: Sketch 3.8.1 (29687) - http://www.bohemiancoding.com/sketch -->
    <title>directory_plus [#1663]</title>
    <desc>Created with Sketch.</desc>
    <defs></defs>
    <g id="Page-1" stroke="none" stroke-width="1" fill="none" fill-rule="evenodd">
        <g id="Dribbble-Dark-Preview" transform="translate(-376.000000, -1639.000000)" fill="#FFFFFF">
            <g id="icons" transform="translate(56.000000, 160.000000)">
                <path d="M329.0709,1497.0005 L325.9999,1497.0005 L325.9999,1494.0005 C325.9999,1493.4485 325.5519,1493.0005 324.9999,1493.0005 C324.4479,1493.0005 323.9999,1493.4485 323.9999,1494.0005 L323.9999,1497.0005 L320.9999,1497.0005 C320.4539,1497.0005 320.0079,1497.4395 319.9999,1497.9855 C319.9919,1498.5435 320.4419,1499.0005 320.9999,1499.0005 L323.9999,1499.0005 L323.9999,1502.0005 C323.9999,1502.5525 324.4479,1503.0005 324.9999,1503.0005 C325.5519,1503.0005 325.9999,1502.5525 325.9999,1502.0005 L325.9999,1499.0005 L329.0709,1499.0005 C329.6179,1499.0005 330.0629,1498.5615 330.0709,1498.0155 C330.0789,1497.4575 329.6289,1497.0005 329.0709,1497.0005 M343.9999,1485.0005 L343.9999,1497.2005 C343.9999,1498.1945 343.1789,1499.0005 342.1849,1499.0005 L332.9849,1499.0005 C332.4329,1499.0005 331.9849,1498.5525 331.9849,1498.0005 C331.9849,1497.4485 332.4329,1497.0005 332.9849,1497.0005 L341.1849,1497.0005 C341.6269,1497.0005 341.9999,1496.6425 341.9999,1496.2005 L341.9999,1486.0005 C341.9999,1485.4485 341.5379,1485.0005 340.9849,1485.0005 L333.9849,1485.0005 C332.8809,1485.0005 331.9999,1484.1045 331.9999,1483.0005 L331.9999,1481.8005 C331.9999,1481.3585 331.6269,1481.0005 331.1849,1481.0005 L326.9849,1481.0005 C326.4329,1481.0005 325.9999,1481.4485 325.9999,1482.0005 L325.9999,1490.0005 C325.9999,1490.5525 325.5519,1491.0005 324.9999,1491.0005 C324.4479,1491.0005 323.9999,1490.5525 323.9999,1490.0005 L323.9999,1481.2005 C323.9999,1479.9855 324.9699,1479.0005 326.1849,1479.0005 L331.9849,1479.0005 C333.0899,1479.0005 333.9999,1479.8955 333.9999,1481.0005 L333.9999,1481.8005 C333.9999,1482.4605 334.5249,1483.0005 335.1849,1483.0005 L341.9849,1483.0005 C343.0899,1483.0005 343.9999,1483.8955 343.9999,1485.0005" id="directory_plus-[#1663]"></path>
            </g>
        </g>
    </g>
</svg>