<?xml version="1.0" encoding="UTF-8" standalone="no"?>
<svg width="20px" height="20px" viewBox="0 0 20 20" version="1.1" xmlns="http://www.w3.org/2000/svg" xmlns:xlink="http://www.w3.org/1999/xlink">
    <!-- Generator: Sketch 3.8.1 (29687) - http://www.bohemiancoding.com/sketch -->
    <title>directory_missing [#1630]</title>
    <desc>Created with Sketch.</desc>
    <defs></defs>
    <g id="Page-1" stroke="none" stroke-width="1" fill="none" fill-rule="evenodd">
        <g id="Dribbble-Dark-Preview" transform="translate(-100.000000, -1799.000000)" fill="#FFFFFF">
            <g id="icons" transform="translate(56.000000, 160.000000)">
                <path d="M62,1653 L64,1653 L64,1651 L62,1651 L62,1653 Z M58,1645 L60,1645 L60,1643 L58,1643 L58,1645 Z M62,1649 L64,1649 L64,1647 L62,1647 L62,1649 Z M48,1639 L44,1639 L44,1643 L46,1643 L46,1641 L48,1641 L48,1639 Z M62,1657 L60,1657 L60,1659 L64,1659 L64,1655 L62,1655 L62,1657 Z M44,1659 L46,1659 L46,1657 L44,1657 L44,1659 Z M56,1659 L58,1659 L58,1657 L56,1657 L56,1659 Z M44,1647 L46,1647 L46,1645 L44,1645 L44,1647 Z M44,1651 L46,1651 L46,1649 L44,1649 L44,1651 Z M62,1645 L64,1645 L64,1643 L62,1643 L62,1645 Z M44,1655 L46,1655 L46,1653 L44,1653 L44,1655 Z M54,1645 L56,1645 L56,1643 L54,1643 L54,1645 Z M50,1641 L52,1641 L52,1639 L50,1639 L50,1641 Z M48,1659 L50,1659 L50,1657 L48,1657 L48,1659 Z M52,1659 L54,1659 L54,1657 L52,1657 L52,1659 Z" id="directory_missing-[#1630]"></path>
            </g>
        </g>
    </g>
</svg>