<?xml version="1.0" encoding="UTF-8" standalone="no"?>
<svg width="20px" height="20px" viewBox="0 0 20 20" version="1.1" xmlns="http://www.w3.org/2000/svg" xmlns:xlink="http://www.w3.org/1999/xlink">
    <!-- Generator: Sketch 3.8.1 (29687) - http://www.bohemiancoding.com/sketch -->
    <title>directory_missing [#1631]</title>
    <desc>Created with Sketch.</desc>
    <defs></defs>
    <g id="Page-1" stroke="none" stroke-width="1" fill="none" fill-rule="evenodd">
        <g id="Dribbble-Dark-Preview" transform="translate(-60.000000, -1799.000000)" fill="#FFFFFF">
            <g id="icons" transform="translate(56.000000, 160.000000)">
                <path d="M23,1651.0005 C22.448,1651.0005 22,1651.4485 22,1652.0005 C22,1652.5525 22.448,1653.0005 23,1653.0005 C23.552,1653.0005 24,1652.5525 24,1652.0005 C24,1651.4485 23.552,1651.0005 23,1651.0005 M19,1643.0005 C18.448,1643.0005 18,1643.4485 18,1644.0005 C18,1644.5525 18.448,1645.0005 19,1645.0005 C19.552,1645.0005 20,1644.5525 20,1644.0005 C20,1643.4485 19.552,1643.0005 19,1643.0005 M23,1647.0005 C22.448,1647.0005 22,1647.4485 22,1648.0005 C22,1648.5525 22.448,1649.0005 23,1649.0005 C23.552,1649.0005 24,1648.5525 24,1648.0005 C24,1647.4485 23.552,1647.0005 23,1647.0005 M7,1639.0005 L6,1639.0005 C4.895,1639.0005 4,1639.8955 4,1641.0005 L4,1642.0005 C4,1642.5525 4.448,1643.0005 5,1643.0005 C5.552,1643.0005 6,1642.5525 6,1642.0005 C6,1641.4485 6.448,1641.0005 7,1641.0005 C8.321,1641.0005 8.323,1639.0005 7,1639.0005 M23,1655.0005 C22.448,1655.0005 22,1655.4485 22,1656.0005 C22,1656.5525 21.552,1657.0005 21,1657.0005 C20.448,1657.0005 20,1657.4485 20,1658.0005 C20,1658.5525 20.448,1659.0005 21,1659.0005 L22,1659.0005 C23.105,1659.0005 24,1658.1045 24,1657.0005 L24,1656.0005 C24,1655.4485 23.552,1655.0005 23,1655.0005 M5,1657.0005 C4.448,1657.0005 4,1657.4485 4,1658.0005 C4,1658.5525 4.448,1659.0005 5,1659.0005 C5.552,1659.0005 6,1658.5525 6,1658.0005 C6,1657.4485 5.552,1657.0005 5,1657.0005 M17,1657.0005 C16.448,1657.0005 16,1657.4485 16,1658.0005 C16,1658.5525 16.448,1659.0005 17,1659.0005 C17.552,1659.0005 18,1658.5525 18,1658.0005 C18,1657.4485 17.552,1657.0005 17,1657.0005 M5,1645.0005 C4.448,1645.0005 4,1645.4485 4,1646.0005 C4,1646.5525 4.448,1647.0005 5,1647.0005 C5.552,1647.0005 6,1646.5525 6,1646.0005 C6,1645.4485 5.552,1645.0005 5,1645.0005 M5,1649.0005 C4.448,1649.0005 4,1649.4485 4,1650.0005 C4,1650.5525 4.448,1651.0005 5,1651.0005 C5.552,1651.0005 6,1650.5525 6,1650.0005 C6,1649.4485 5.552,1649.0005 5,1649.0005 M23,1645.0005 C23.552,1645.0005 24,1644.5525 24,1644.0005 C24,1643.4485 23.552,1643.0005 23,1643.0005 C22.448,1643.0005 22,1643.4485 22,1644.0005 C22,1644.5525 22.448,1645.0005 23,1645.0005 M5,1653.0005 C4.448,1653.0005 4,1653.4485 4,1654.0005 C4,1654.5525 4.448,1655.0005 5,1655.0005 C5.552,1655.0005 6,1654.5525 6,1654.0005 C6,1653.4485 5.552,1653.0005 5,1653.0005 M15,1643.0005 C14.448,1643.0005 14,1643.4485 14,1644.0005 C14,1644.5525 14.448,1645.0005 15,1645.0005 C15.552,1645.0005 16,1644.5525 16,1644.0005 C16,1643.4485 15.552,1643.0005 15,1643.0005 M11,1639.0005 C10.448,1639.0005 10,1639.4485 10,1640.0005 C10,1640.5525 10.448,1641.0005 11,1641.0005 C11.552,1641.0005 12,1640.5525 12,1640.0005 C12,1639.4485 11.552,1639.0005 11,1639.0005 M9,1657.0005 C8.448,1657.0005 8,1657.4485 8,1658.0005 C8,1658.5525 8.448,1659.0005 9,1659.0005 C9.552,1659.0005 10,1658.5525 10,1658.0005 C10,1657.4485 9.552,1657.0005 9,1657.0005 M14,1658.0005 C14,1658.5525 13.552,1659.0005 13,1659.0005 C12.448,1659.0005 12,1658.5525 12,1658.0005 C12,1657.4485 12.448,1657.0005 13,1657.0005 C13.552,1657.0005 14,1657.4485 14,1658.0005" id="directory_missing-[#1631]"></path>
            </g>
        </g>
    </g>
</svg>