<?xml version="1.0" encoding="UTF-8" standalone="no"?>
<svg width="20px" height="20px" viewBox="0 0 20 20" version="1.1" xmlns="http://www.w3.org/2000/svg" xmlns:xlink="http://www.w3.org/1999/xlink">
    <!-- Generator: Sketch 3.8.1 (29687) - http://www.bohemiancoding.com/sketch -->
    <title>directory_locked [#1676]</title>
    <desc>Created with Sketch.</desc>
    <defs></defs>
    <g id="Page-1" stroke="none" stroke-width="1" fill="none" fill-rule="evenodd">
        <g id="Dribbble-Dark-Preview" transform="translate(-260.000000, -1599.000000)" fill="#FFFFFF">
            <g id="icons" transform="translate(56.000000, 160.000000)">
                <path d="M212,1453 L216,1453 L216,1452 L212,1452 L212,1453 Z M215.169,1450 L213.169,1450 C213.169,1449 215.169,1449 215.169,1450 L215.169,1450 Z M211.169,1450 L210,1450 L210,1455 L218,1455 L218,1450 L217.169,1450 C217.169,1446 211.169,1446 211.169,1450 L211.169,1450 Z M221,1457 L207,1457 C206.448,1457 206,1456.553 206,1456 L206,1442 C206,1441.448 206.448,1441 207,1441 L210.938,1441 C211.32,1441 211.669,1441.218 211.837,1441.561 L212.972,1443.88 C213.308,1444.566 214.005,1445 214.768,1445 L221,1445 C221.552,1445 222,1445.448 222,1446 L222,1456 C222,1456.553 221.552,1457 221,1457 L221,1457 Z M214.307,1442.448 L213.136,1440.106 C212.797,1439.428 212.105,1439 211.347,1439 L206,1439 C204.895,1439 204,1439.896 204,1441 L204,1457 C204,1458.105 204.895,1459 206,1459 L222,1459 C223.105,1459 224,1458.105 224,1457 L224,1445 C224,1443.896 223.105,1443 222,1443 L215.201,1443 C214.822,1443 214.476,1442.786 214.307,1442.448 L214.307,1442.448 Z" id="directory_locked-[#1676]"></path>
            </g>
        </g>
    </g>
</svg>