<?xml version="1.0" encoding="UTF-8" standalone="no"?>
<svg width="20px" height="20px" viewBox="0 0 20 20" version="1.1" xmlns="http://www.w3.org/2000/svg" xmlns:xlink="http://www.w3.org/1999/xlink">
    <!-- Generator: Sketch 3.8.1 (29687) - http://www.bohemiancoding.com/sketch -->
    <title>directory_important [#1649]</title>
    <desc>Created with Sketch.</desc>
    <defs></defs>
    <g id="Page-1" stroke="none" stroke-width="1" fill="none" fill-rule="evenodd">
        <g id="Dribbble-Dark-Preview" transform="translate(-140.000000, -1719.000000)" fill="#FFFFFF">
            <g id="icons" transform="translate(56.000000, 160.000000)">
                <path d="M102,1566.0005 C102,1565.4485 101.752,1565.0005 101.2,1565.0005 L94.2,1565.0005 C93.095,1565.0005 92,1564.1045 92,1563.0005 L92,1562.0005 C92,1561.4485 91.752,1561.0005 91.2,1561.0005 L87.2,1561.0005 C86.648,1561.0005 86,1561.4485 86,1562.0005 L86,1576.0005 C86,1576.5525 86.648,1577.0005 87.2,1577.0005 L101.2,1577.0005 C101.752,1577.0005 102,1576.5525 102,1576.0005 L102,1566.0005 Z M104,1565.0005 L104,1577.0005 C104,1578.1045 103.305,1579.0005 102.2,1579.0005 L86.2,1579.0005 C85.095,1579.0005 84,1578.1045 84,1577.0005 L84,1561.0005 C84,1559.8955 85.095,1559.0005 86.2,1559.0005 L92.2,1559.0005 C93.305,1559.0005 94,1559.8955 94,1561.0005 L94,1562.0005 C94,1562.5525 94.648,1563.0005 95.2,1563.0005 L102.2,1563.0005 C103.305,1563.0005 104,1563.8955 104,1565.0005 L104,1565.0005 Z M94.022,1573.0005 C93.47,1573.0005 93.022,1573.4485 93.022,1574.0005 C93.022,1574.5525 93.47,1575.0005 94.022,1575.0005 C94.574,1575.0005 95.022,1574.5525 95.022,1574.0005 C95.022,1573.4485 94.574,1573.0005 94.022,1573.0005 L94.022,1573.0005 Z M93,1570.0005 L93,1568.0005 C93,1567.4485 93.448,1567.0005 94,1567.0005 C94.552,1567.0005 95,1567.4485 95,1568.0005 L95,1570.0005 C95,1570.5525 94.552,1571.0005 94,1571.0005 C93.448,1571.0005 93,1570.5525 93,1570.0005 L93,1570.0005 Z" id="directory_important-[#1649]"></path>
            </g>
        </g>
    </g>
</svg>