<?xml version="1.0" encoding="UTF-8" standalone="no"?>
<svg width="20px" height="20px" viewBox="0 0 20 20" version="1.1" xmlns="http://www.w3.org/2000/svg" xmlns:xlink="http://www.w3.org/1999/xlink">
    <!-- Generator: Sketch 3.8.1 (29687) - http://www.bohemiancoding.com/sketch -->
    <title>directory_important [#1647]</title>
    <desc>Created with Sketch.</desc>
    <defs></defs>
    <g id="Page-1" stroke="none" stroke-width="1" fill="none" fill-rule="evenodd">
        <g id="Dribbble-Dark-Preview" transform="translate(-220.000000, -1719.000000)" fill="#FFFFFF">
            <g id="icons" transform="translate(56.000000, 160.000000)">
                <path d="M182,1566.0005 C182,1565.4485 181.976,1565.0005 181.424,1565.0005 L174.609,1565.0005 C173.846,1565.0005 173.149,1564.5655 172.813,1563.8795 L171.678,1561.5605 C171.51,1561.2175 171.161,1561.0005 170.779,1561.0005 L167.424,1561.0005 C166.872,1561.0005 166,1561.4485 166,1562.0005 L166,1576.0005 C166,1576.5525 166.872,1577.0005 167.424,1577.0005 L181.424,1577.0005 C181.976,1577.0005 182,1576.5525 182,1576.0005 L182,1566.0005 Z M184,1565.0005 L184,1577.0005 C184,1578.1045 183.529,1579.0005 182.424,1579.0005 L166.424,1579.0005 C165.32,1579.0005 164,1578.1045 164,1577.0005 L164,1561.0005 C164,1559.8955 165.32,1559.0005 166.424,1559.0005 L171.188,1559.0005 C171.946,1559.0005 172.638,1559.4285 172.977,1560.1055 L173.871,1561.8945 C174.21,1562.5725 174.903,1563.0005 175.66,1563.0005 L182.424,1563.0005 C183.529,1563.0005 184,1563.8955 184,1565.0005 L184,1565.0005 Z M174.022,1573.0005 C173.47,1573.0005 173.022,1573.4485 173.022,1574.0005 C173.022,1574.5525 173.47,1575.0005 174.022,1575.0005 C174.574,1575.0005 175.022,1574.5525 175.022,1574.0005 C175.022,1573.4485 174.574,1573.0005 174.022,1573.0005 L174.022,1573.0005 Z M173,1570.0005 L173,1568.0005 C173,1567.4485 173.448,1567.0005 174,1567.0005 C174.552,1567.0005 175,1567.4485 175,1568.0005 L175,1570.0005 C175,1570.5525 174.552,1571.0005 174,1571.0005 C173.448,1571.0005 173,1570.5525 173,1570.0005 L173,1570.0005 Z" id="directory_important-[#1647]"></path>
            </g>
        </g>
    </g>
</svg>