<?xml version="1.0" encoding="UTF-8" standalone="no"?>
<svg width="24px" height="24px" viewBox="0 0 24 24" version="1.1" xmlns="http://www.w3.org/2000/svg" xmlns:xlink="http://www.w3.org/1999/xlink">
    <!-- Generator: Sketch 3.8.1 (29687) - http://www.bohemiancoding.com/sketch -->
    <title>directory_plus_plus [#1661]</title>
    <desc>Created with Sketch.</desc>
    <defs></defs>
    <g id="Page-1" stroke="none" stroke-width="1" fill="none" fill-rule="evenodd">
        <g id="Dribbble-Dark-Preview" transform="translate(-56.000000, -1679.000000)" fill="#FFFFFF">
            <g id="icons" transform="translate(56.000000, 160.000000)">
                <path d="M6,1533.0005 L4,1533.0005 L4,1537.0005 L0.029,1537.0005 L0,1539.0005 L4,1539.0005 L4,1543.0005 L6,1543.0005 L6,1539.0005 L10.071,1539.0005 L10.101,1537.0005 L6,1537.0005 L6,1533.0005 Z M24,1523.0005 L24,1539.0005 L12,1539.0005 L12,1537.0005 L22,1537.0005 L22,1525.0005 L13.374,1525.0005 L11.416,1521.0005 L6,1521.0005 L6,1531.0005 L4,1531.0005 L4,1519.0005 L12.437,1519.0005 L14.437,1523.0005 L24,1523.0005 Z" id="directory_plus_plus-[#1661]"></path>
            </g>
        </g>
    </g>
</svg>