<?xml version="1.0" encoding="UTF-8" standalone="no"?>
<svg width="20px" height="20px" viewBox="0 0 20 20" version="1.1" xmlns="http://www.w3.org/2000/svg" xmlns:xlink="http://www.w3.org/1999/xlink">
    <!-- Generator: Sketch 3.8.1 (29687) - http://www.bohemiancoding.com/sketch -->
    <title>directory_search [#1622]</title>
    <desc>Created with Sketch.</desc>
    <defs></defs>
    <g id="Page-1" stroke="none" stroke-width="1" fill="none" fill-rule="evenodd">
        <g id="Dribbble-Dark-Preview" transform="translate(-420.000000, -1799.000000)" fill="#FFFFFF">
            <g id="icons" transform="translate(56.000000, 160.000000)">
                <path d="M373.1195,1648.3608 C374.2225,1648.3608 375.1195,1649.2578 375.1195,1650.3608 C375.1195,1651.4638 374.2225,1652.3608 373.1195,1652.3608 C372.0165,1652.3608 371.1195,1651.4638 371.1195,1650.3608 C371.1195,1649.2578 372.0165,1648.3608 373.1195,1648.3608 L373.1195,1648.3608 Z M369.1195,1650.3608 C369.1195,1652.5698 370.9105,1654.3608 373.1195,1654.3608 C373.7835,1654.3608 374.3995,1654.1838 374.9505,1653.8978 L377.4665,1656.4138 L378.8805,1654.9998 L376.4515,1652.5698 C376.8715,1651.9368 377.1195,1651.1778 377.1195,1650.3608 C377.1195,1648.1518 375.3285,1646.3608 373.1195,1646.3608 C370.9105,1646.3608 369.1195,1648.1518 369.1195,1650.3608 L369.1195,1650.3608 Z M381.9995,1657.0008 L365.9995,1657.0008 L365.9995,1641.0008 L371.9995,1641.0008 L371.9995,1645.0008 L381.9995,1645.0008 L381.9995,1657.0008 Z M373.9995,1643.0008 L373.9995,1639.0008 L363.9995,1639.0008 L363.9995,1659.0008 L383.9995,1659.0008 L383.9995,1643.0008 L373.9995,1643.0008 Z" id="directory_search-[#1622]"></path>
            </g>
        </g>
    </g>
</svg>