<?xml version="1.0" encoding="UTF-8" standalone="no"?>
<svg width="20px" height="20px" viewBox="0 0 20 20" version="1.1" xmlns="http://www.w3.org/2000/svg" xmlns:xlink="http://www.w3.org/1999/xlink">
    <!-- Generator: Sketch 3.8.1 (29687) - http://www.bohemiancoding.com/sketch -->
    <title>directory_search [#1621]</title>
    <desc>Created with Sketch.</desc>
    <defs></defs>
    <g id="Page-1" stroke="none" stroke-width="1" fill="none" fill-rule="evenodd">
        <g id="Dribbble-Dark-Preview" transform="translate(-60.000000, -1839.000000)" fill="#FFFFFF">
            <g id="icons" transform="translate(56.000000, 160.000000)">
                <path d="M17.2592,1693.378 L18.8802,1694.999 L17.4662,1696.414 L15.8452,1694.792 L17.2592,1693.378 Z M13.1192,1692.361 C12.0172,1692.361 11.1192,1691.464 11.1192,1690.361 C11.1192,1689.258 12.0172,1688.361 13.1192,1688.361 C14.2222,1688.361 15.1192,1689.258 15.1192,1690.361 C15.1192,1691.464 14.2222,1692.361 13.1192,1692.361 L13.1192,1692.361 Z M17.1192,1690.361 C17.1192,1688.152 15.3292,1686.361 13.1192,1686.361 C10.9102,1686.361 9.1192,1688.152 9.1192,1690.361 C9.1192,1692.57 10.9102,1694.361 13.1192,1694.361 C15.3292,1694.361 17.1192,1692.57 17.1192,1690.361 L17.1192,1690.361 Z M22.0002,1696 C22.0002,1696.553 21.9762,1697 21.4242,1697 L7.4242,1697 C6.8722,1697 6.0002,1696.553 6.0002,1696 L6.0002,1682 C6.0002,1681.448 6.8722,1681 7.4242,1681 L10.7792,1681 C11.1612,1681 11.5102,1681.218 11.6772,1681.561 L12.8132,1683.88 C13.1492,1684.566 13.8462,1685 14.6092,1685 L21.4242,1685 C21.9762,1685 22.0002,1685.448 22.0002,1686 L22.0002,1696 Z M22.4242,1683 L15.6602,1683 C14.9022,1683 14.2102,1682.572 13.8712,1681.895 L12.9772,1680.106 C12.6382,1679.428 11.9452,1679 11.1882,1679 L6.4242,1679 C5.3192,1679 4.0002,1679.896 4.0002,1681 L4.0002,1697 C4.0002,1698.105 5.3192,1699 6.4242,1699 L22.4242,1699 C23.5292,1699 24.0002,1698.105 24.0002,1697 L24.0002,1685 C24.0002,1683.896 23.5292,1683 22.4242,1683 L22.4242,1683 Z" id="directory_search-[#1621]"></path>
            </g>
        </g>
    </g>
</svg>