<?xml version="1.0" encoding="UTF-8" standalone="no"?>
<svg width="20px" height="20px" viewBox="0 0 20 20" version="1.1" xmlns="http://www.w3.org/2000/svg" xmlns:xlink="http://www.w3.org/1999/xlink">
    <!-- Generator: Sketch 3.8.1 (29687) - http://www.bohemiancoding.com/sketch -->
    <title>directory_locked [#1673]</title>
    <desc>Created with Sketch.</desc>
    <defs></defs>
    <g id="Page-1" stroke="none" stroke-width="1" fill="none" fill-rule="evenodd">
        <g id="Dribbble-Dark-Preview" transform="translate(-380.000000, -1599.000000)" fill="#FFFFFF">
            <g id="icons" transform="translate(56.000000, 160.000000)">
                <path d="M332,1453 L336,1453 L336,1452 L332,1452 L332,1453 Z M334.978,1450 L332.978,1450 C332.978,1448.667 334.978,1448.667 334.978,1450 L334.978,1450 Z M330.978,1450 L330,1450 L330,1455 L338,1455 L338,1450 L336.978,1450 C336.978,1446 330.978,1446 330.978,1450 L330.978,1450 Z M342,1457 L326,1457 L326,1441 L332,1441 L332,1445 L342,1445 L342,1457 Z M334,1443 L334,1439 L324,1439 L324,1459 L344,1459 L344,1443 L334,1443 Z" id="directory_locked-[#1673]"></path>
            </g>
        </g>
    </g>
</svg>