<?xml version="1.0" encoding="UTF-8" standalone="no"?>
<svg width="21px" height="20px" viewBox="0 0 21 20" version="1.1" xmlns="http://www.w3.org/2000/svg" xmlns:xlink="http://www.w3.org/1999/xlink">
    <!-- Generator: Sketch 3.8.1 (29687) - http://www.bohemiancoding.com/sketch -->
    <title>dislike [#1388]</title>
    <desc>Created with Sketch.</desc>
    <defs></defs>
    <g id="Page-1" stroke="none" stroke-width="1" fill="none" fill-rule="evenodd">
        <g id="Dribbble-Dark-Preview" transform="translate(-139.000000, -760.000000)" fill="#FFFFFF">
            <g id="icons" transform="translate(56.000000, 160.000000)">
                <path d="M101.900089,600 L99.8000892,600 L99.8000892,611.987622 L101.900089,611.987622 C103.060339,611.987622 104.000088,611.093545 104.000088,609.989685 L104.000088,601.997937 C104.000088,600.894077 103.060339,600 101.900089,600 M87.6977917,600 L97.7000896,600 L97.7000896,611.987622 L95.89514,618.176232 C95.6819901,619.491874 94.2455904,620.374962 92.7902907,619.842512 C91.9198408,619.52484 91.400091,618.66273 91.400091,617.774647 L91.400091,612.986591 C91.400091,612.43516 90.9296911,611.987622 90.3500912,611.987622 L85.8728921,611.987622 C84.0259425,611.987622 82.6598928,610.35331 83.0746427,608.641078 L84.8995423,602.117813 C85.1998423,600.878093 86.360092,600 87.6977917,600" id="dislike-[#1388]"></path>
            </g>
        </g>
    </g>
</svg>