<?xml version="1.0" encoding="UTF-8" standalone="no"?>
<svg width="18px" height="6px" viewBox="0 0 18 6" version="1.1" xmlns="http://www.w3.org/2000/svg" xmlns:xlink="http://www.w3.org/1999/xlink">
    <!-- Generator: Sketch 3.8.1 (29687) - http://www.bohemiancoding.com/sketch -->
    <title>distribution [#864]</title>
    <desc>Created with Sketch.</desc>
    <defs></defs>
    <g id="Page-1" stroke="none" stroke-width="1" fill="none" fill-rule="evenodd">
        <g id="Dribbble-Dark-Preview" transform="translate(-301.000000, -4366.000000)" fill="#FFFFFF">
            <g id="icons" transform="translate(56.000000, 160.000000)">
                <path d="M259.192,4210.031 L261.192,4210.031 L261.192,4208.031 L259.192,4208.031 L259.192,4210.031 Z M255.192,4210.031 L257.192,4210.031 L257.192,4208.031 L255.192,4208.031 L255.192,4210.031 Z M251.192,4210.031 L253.192,4210.031 L253.192,4208.031 L251.192,4208.031 L251.192,4210.031 Z M247.192,4210.031 L249.192,4210.031 L249.192,4208.031 L247.192,4208.031 L247.192,4210.031 Z M259.192,4206 L257.192,4206 L255.192,4206 L253.192,4206 L251.192,4206 L249.192,4206 L245,4206 L245,4212 L249.192,4212 L251.192,4212 L253.192,4212 L255.192,4212 L257.192,4212 L259.192,4212 L263,4212 L263,4206 L259.192,4206 Z" id="distribution-[#864]"></path>
            </g>
        </g>
    </g>
</svg>