<?xml version="1.0" encoding="UTF-8" standalone="no"?>
<svg width="16px" height="20px" viewBox="0 0 16 20" version="1.1" xmlns="http://www.w3.org/2000/svg" xmlns:xlink="http://www.w3.org/1999/xlink">
    <!-- Generator: Sketch 3.8.1 (29687) - http://www.bohemiancoding.com/sketch -->
    <title>distribute_center_vertical [#858]</title>
    <desc>Created with Sketch.</desc>
    <defs></defs>
    <g id="Page-1" stroke="none" stroke-width="1" fill="none" fill-rule="evenodd">
        <g id="Dribbble-Dark-Preview" transform="translate(-142.000000, -4399.000000)" fill="#FFFFFF">
            <g id="icons" transform="translate(56.000000, 160.000000)">
                <path d="M88,4255 L88,4253 L92.667,4253 L94.667,4253 L100,4253 L100,4255 L94.667,4255 L92.667,4255 L88,4255 Z M92,4245 L92,4243 L92.667,4243 L94.667,4243 L96,4243 L96,4245 L94.667,4245 L92.667,4245 L92,4245 Z M95,4257 L99.667,4257 L102,4257 L102,4255 L102,4253 L102,4251 L99.667,4251 L95,4251 L95,4247 L95.667,4247 L98,4247 L98,4245 L98,4243 L98,4241 L95.667,4241 L95,4241 L95,4239 L93,4239 L93,4241 L91.667,4241 L90,4241 L90,4243 L90,4245 L90,4247 L91.667,4247 L93,4247 L93,4251 L87.667,4251 L86,4251 L86,4253 L86,4255 L86,4257 L87.667,4257 L93,4257 L93,4259 L95,4259 L95,4257 Z" id="distribute_center_vertical-[#858]"></path>
            </g>
        </g>
    </g>
</svg>