<?xml version="1.0" encoding="UTF-8" standalone="no"?>
<svg width="20px" height="16px" viewBox="0 0 20 16" version="1.1" xmlns="http://www.w3.org/2000/svg" xmlns:xlink="http://www.w3.org/1999/xlink">
    <!-- Generator: Sketch 3.8.1 (29687) - http://www.bohemiancoding.com/sketch -->
    <title>distribute_center_horizontal [#857]</title>
    <desc>Created with Sketch.</desc>
    <defs></defs>
    <g id="Page-1" stroke="none" stroke-width="1" fill="none" fill-rule="evenodd">
        <g id="Dribbble-Dark-Preview" transform="translate(-180.000000, -4401.000000)" fill="#FFFFFF">
            <g id="icons" transform="translate(56.000000, 160.000000)">
                <path d="M140,4243 L140,4248 L140,4250 L140,4255 L138,4255 L138,4250 L138,4248 L138,4243 L140,4243 Z M130,4251 L128,4251 L128,4250 L128,4248 L128,4247 L130,4247 L130,4248 L130,4250 L130,4251 Z M142,4248 L142,4243 L142,4241 L139.757,4241 L137.757,4241 L136,4241 L136,4243 L136,4248 L132,4248 L132,4247 L132,4245 L129.757,4245 L127.757,4245 L126,4245 L126,4247 L126,4248 L124,4248 L124,4250 L126,4250 L126,4251 L126,4253 L127.757,4253 L129.757,4253 L132,4253 L132,4251 L132,4250 L136,4250 L136,4255 L136,4257 L137.757,4257 L139.757,4257 L142,4257 L142,4255 L142,4250 L144,4250 L144,4248 L142,4248 Z" id="distribute_center_horizontal-[#857]"></path>
            </g>
        </g>
    </g>
</svg>