<?xml version="1.0" encoding="UTF-8" standalone="no"?>
<svg width="14px" height="24px" viewBox="0 0 14 24" version="1.1" xmlns="http://www.w3.org/2000/svg" xmlns:xlink="http://www.w3.org/1999/xlink">
    <!-- Generator: Sketch 3.8.1 (29687) - http://www.bohemiancoding.com/sketch -->
    <title>dollar [#1189]</title>
    <desc>Created with Sketch.</desc>
    <defs></defs>
    <g id="Page-1" stroke="none" stroke-width="1" fill="none" fill-rule="evenodd">
        <g id="Dribbble-Dark-Preview" transform="translate(-63.000000, -2917.000000)" fill="#FFFFFF">
            <g id="icons" transform="translate(56.000000, 160.000000)">
                <path d="M13.0000978,2768 C10.3390978,2768 9.00009781,2766.371 9.00009781,2764.5 C9.00009781,2762.691 10.2710978,2761 13.0000978,2761 L13.0000978,2768 Z M19.0000978,2773.5 L19.0000978,2773.5 C19.0000978,2775.309 17.7290978,2777 15.0000978,2777 L15.0000978,2770 C17.6610978,2770 19.0000978,2771.629 19.0000978,2773.5 L19.0000978,2773.5 Z M21.0000978,2773.5 L21.0000978,2773.5 C21.0000978,2770.732 18.9750978,2768 15.0000978,2768 L15.0000978,2761 L17.0000978,2761 C18.1050978,2761 19.0000978,2761.895 19.0000978,2763 L21.0000978,2763 C21.0000978,2760.791 19.2090978,2759 17.0000978,2759 L15.0000978,2759 L15.0000978,2757 L13.0000978,2757 L13.0000978,2759 C9.04209781,2759 7.00009781,2761.722 7.00009781,2764.5 C7.00009781,2767.268 9.02509781,2770 13.0000978,2770 L13.0000978,2777 L11.0000978,2777 C9.89509781,2777 9.00009781,2776.105 9.00009781,2775 L7.00009781,2775 C7.00009781,2777.209 8.79109781,2779 11.0000978,2779 L13.0000978,2779 L13.0000978,2781 L15.0000978,2781 L15.0000978,2779 C18.9580978,2779 21.0000978,2776.278 21.0000978,2773.5 L21.0000978,2773.5 Z" id="dollar-[#1189]"></path>
            </g>
        </g>
    </g>
</svg>