<?xml version="1.0" encoding="UTF-8" standalone="no"?>
<svg width="20px" height="20px" viewBox="0 0 20 20" version="1.1" xmlns="http://www.w3.org/2000/svg" xmlns:xlink="http://www.w3.org/1999/xlink">
    <!-- Generator: Sketch 3.8.1 (29687) - http://www.bohemiancoding.com/sketch -->
    <title>door [#44]</title>
    <desc>Created with Sketch.</desc>
    <defs></defs>
    <g id="Page-1" stroke="none" stroke-width="1" fill="none" fill-rule="evenodd">
        <g id="Dribbble-Dark-Preview" transform="translate(-220.000000, -7999.000000)" fill="#FFFFFF">
            <g id="icons" transform="translate(56.000000, 160.000000)">
                <path d="M173.25,7849.125 C173.25,7849.677 172.802,7850.125 172.25,7850.125 C171.698,7850.125 171.25,7849.677 171.25,7849.125 C171.25,7848.573 171.698,7848.125 172.25,7848.125 C172.802,7848.125 173.25,7848.573 173.25,7849.125 L173.25,7849.125 Z M178,7857 L170,7857 L170,7842 C170,7841.448 170.448,7841 171,7841 L177,7841 C177.552,7841 178,7841.448 178,7842 L178,7857 Z M183,7857 L180,7857 L180,7841 C180,7839.895 179.105,7839 178,7839 L170,7839 C168.896,7839 168,7839.895 168,7841 L168,7857 L165,7857 C164.448,7857 164,7857.448 164,7858 C164,7858.552 164.448,7859 165,7859 L183,7859 C183.552,7859 184,7858.552 184,7858 C184,7857.448 183.552,7857 183,7857 L183,7857 Z" id="door-[#44]"></path>
            </g>
        </g>
    </g>
</svg>