<?xml version="1.0" encoding="UTF-8" standalone="no"?>
<svg width="21px" height="20px" viewBox="0 0 21 20" version="1.1" xmlns="http://www.w3.org/2000/svg" xmlns:xlink="http://www.w3.org/1999/xlink">
    <!-- Generator: Sketch 3.8.1 (29687) - http://www.bohemiancoding.com/sketch -->
    <title>double_window [#1503]</title>
    <desc>Created with Sketch.</desc>
    <defs></defs>
    <g id="Page-1" stroke="none" stroke-width="1" fill="none" fill-rule="evenodd">
        <g id="Dribbble-Dark-Preview" transform="translate(-339.000000, -280.000000)" fill="#FFFFFF">
            <g id="icons" transform="translate(56.000000, 160.000000)">
                <path d="M300.53395,126 L299.8,126 L299.8,131.005 C299.8,133.625 297.3073,136 294.55525,136 L289.3,136 L289.3,136.699 C289.3,138.522 290.8519,140 292.76605,140 L300.53395,140 C302.4481,140 304,138.522 304,136.699 L304,129.301 C304,127.478 302.4481,126 300.53395,126 M294.23395,134 L286.46605,134 C284.5519,134 283,132.522 283,130.699 L283,123.301 C283,121.478 284.5519,120 286.46605,120 L294.23395,120 C296.1481,120 297.7,121.478 297.7,123.301 L297.7,130.699 C297.7,132.522 296.1481,134 294.23395,134" id="double_window-[#1503]"></path>
            </g>
        </g>
    </g>
</svg>