<?xml version="1.0" encoding="UTF-8" standalone="no"?>
<svg width="21px" height="20px" viewBox="0 0 21 20" version="1.1" xmlns="http://www.w3.org/2000/svg" xmlns:xlink="http://www.w3.org/1999/xlink">
    <!-- Generator: Sketch 3.8.1 (29687) - http://www.bohemiancoding.com/sketch -->
    <title>download [#1454]</title>
    <desc>Created with Sketch.</desc>
    <defs></defs>
    <g id="Page-1" stroke="none" stroke-width="1" fill="none" fill-rule="evenodd">
        <g id="Dribbble-Dark-Preview" transform="translate(-299.000000, -480.000000)" fill="#FFFFFF">
            <g id="icons" transform="translate(56.000000, 160.000000)">
                <path d="M254.55,324 L252.45,324 L252.45,331 L249.07005,331 L253.5,336.243 L258.3048,331 L254.55,331 L254.55,324 Z M261.9,334 L264,334 L264,326 L261.9,326 L261.9,334 Z M261.9,338 L259.8,338 L259.8,340 L264,340 L264,336 L261.9,336 L261.9,338 Z M259.8,320 L259.8,322 L261.9,322 L261.9,324 L264,324 L264,320 L259.8,320 Z M243,334 L245.1,334 L245.1,326 L243,326 L243,334 Z M245.1,336 L243,336 L243,340 L247.2,340 L247.2,338 L245.1,338 L245.1,336 Z M243,320 L243,324 L245.1,324 L245.1,322 L247.2,322 L247.2,320 L243,320 Z M249.3,340 L257.7,340 L257.7,338 L249.3,338 L249.3,340 Z M249.3,322 L257.7,322 L257.7,320 L249.3,320 L249.3,322 Z" id="download-[#1454]"></path>
            </g>
        </g>
    </g>
</svg>