<?xml version="1.0" encoding="UTF-8" standalone="no"?>
<svg width="21px" height="20px" viewBox="0 0 21 20" version="1.1" xmlns="http://www.w3.org/2000/svg" xmlns:xlink="http://www.w3.org/1999/xlink">
    <!-- Generator: Sketch 3.8.1 (29687) - http://www.bohemiancoding.com/sketch -->
    <title>download [#1457]</title>
    <desc>Created with Sketch.</desc>
    <defs></defs>
    <g id="Page-1" stroke="none" stroke-width="1" fill="none" fill-rule="evenodd">
        <g id="Dribbble-Dark-Preview" transform="translate(-179.000000, -480.000000)" fill="#FFFFFF">
            <g id="icons" transform="translate(56.000000, 160.000000)">
                <path d="M134.55,332.095 L134.55,324 L132.45,324 L132.45,332.095 L129.92895,329.668 L128.5734,331.121 L133.5,335.792 L138.4875,331.375 L137.4102,329.668 L134.55,332.095 Z M141.9,334 L144,334 L144,326 L141.9,326 L141.9,334 Z M141.9,338 L139.8,338 L139.8,340 L144,340 L144,336 L141.9,336 L141.9,338 Z M139.8,320 L139.8,322 L141.9,322 L141.9,324 L144,324 L144,320 L139.8,320 Z M123,334 L125.1,334 L125.1,326 L123,326 L123,334 Z M125.1,336 L123,336 L123,340 L127.2,340 L127.2,338 L125.1,338 L125.1,336 Z M123,320 L123,324 L125.1,324 L125.1,322 L127.2,322 L127.2,320 L123,320 Z M129.3,340 L137.7,340 L137.7,338 L129.3,338 L129.3,340 Z M129.3,322 L137.7,322 L137.7,320 L129.3,320 L129.3,322 Z" id="download-[#1457]"></path>
            </g>
        </g>
    </g>
</svg>