<?xml version="1.0" encoding="UTF-8" standalone="no"?>
<svg width="21px" height="20px" viewBox="0 0 21 20" version="1.1" xmlns="http://www.w3.org/2000/svg" xmlns:xlink="http://www.w3.org/1999/xlink">
    <!-- Generator: Sketch 3.8.1 (29687) - http://www.bohemiancoding.com/sketch -->
    <title>download [#1450]</title>
    <desc>Created with Sketch.</desc>
    <defs></defs>
    <g id="Page-1" stroke="none" stroke-width="1" fill="none" fill-rule="evenodd">
        <g id="Dribbble-Dark-Preview" transform="translate(-59.000000, -520.000000)" fill="#FFFFFF">
            <g id="icons" transform="translate(56.000000, 160.000000)">
                <path d="M15.6,360 L15.6,362 L21.9,362 L21.9,368 L24,368 L24,360 L15.6,360 Z M21.9,378 L15.6,378 L15.6,380 L24,380 L24,372 L21.9,372 L21.9,378 Z M5.1,372 L3,372 L3,380 L11.4,380 L11.4,378 L5.1,378 L5.1,372 Z M5.1,362 L11.4,362 L11.4,360 L3,360 L3,368 L5.1,368 L5.1,362 Z M18.52845,371.121 L13.2963,375.792 L8.13555,371.121 L9.63705,369.668 L12.45,372.095 L12.45,364 L14.55,364 L14.55,372.095 L17.12985,369.668 L18.52845,371.121 Z" id="download-[#1450]"></path>
            </g>
        </g>
    </g>
</svg>