<?xml version="1.0" encoding="UTF-8" standalone="no"?>
<svg width="21px" height="20px" viewBox="0 0 21 20" version="1.1" xmlns="http://www.w3.org/2000/svg" xmlns:xlink="http://www.w3.org/1999/xlink">
    <!-- Generator: Sketch 3.8.1 (29687) - http://www.bohemiancoding.com/sketch -->
    <title>download [#1451]</title>
    <desc>Created with Sketch.</desc>
    <defs></defs>
    <g id="Page-1" stroke="none" stroke-width="1" fill="none" fill-rule="evenodd">
        <g id="Dribbble-Dark-Preview" transform="translate(-419.000000, -480.000000)" fill="#FFFFFF">
            <g id="icons" transform="translate(56.000000, 160.000000)">
                <path d="M374.55,331 L374.55,324 L372.45,324 L372.45,331 L368.9283,331 L373.38345,336.243 L378.1263,331 L374.55,331 Z M375.6,320 L375.6,322 L381.9,322 L381.9,328 L384,328 L384,320 L375.6,320 Z M381.9,338 L375.6,338 L375.6,340 L384,340 L384,332 L381.9,332 L381.9,338 Z M365.1,332 L363,332 L363,340 L371.4,340 L371.4,338 L365.1,338 L365.1,332 Z M365.1,328 L363,328 L363,320 L371.4,320 L371.4,322 L365.1,322 L365.1,328 Z" id="download-[#1451]"></path>
            </g>
        </g>
    </g>
</svg>