<?xml version="1.0" encoding="UTF-8" standalone="no"?>
<svg width="20px" height="20px" viewBox="0 0 20 20" version="1.1" xmlns="http://www.w3.org/2000/svg" xmlns:xlink="http://www.w3.org/1999/xlink">
    <!-- Generator: Sketch 3.8.1 (29687) - http://www.bohemiancoding.com/sketch -->
    <title>dribbble [#171]</title>
    <desc>Created with Sketch.</desc>
    <defs></defs>
    <g id="Page-1" stroke="none" stroke-width="1" fill="none" fill-rule="evenodd">
        <g id="Dribbble-Dark-Preview" transform="translate(-180.000000, -7439.000000)" fill="#FFFFFF">
            <g id="icons" transform="translate(56.000000, 160.000000)">
                <path d="M137.12,7289.92877 C137.8,7291.89892 138.26,7293.92298 138.5,7295.99997 C140.591,7294.65193 142.01,7292.43514 142.28,7289.92877 C140.253,7289.78997 138.892,7289.80195 137.12,7289.92877 M135.94,7286.91314 C136.14,7287.33952 136.367,7287.87874 136.62,7288.5308 C138.441,7288.35905 140.473,7288.36104 142.3,7288.45091 C142.193,7286.64054 141.54,7285.02887 140.34,7283.61792 C139.473,7284.90905 138.007,7286.00745 135.94,7286.91314 M131.96,7280.96177 C133.133,7282.17301 134.22,7283.68482 135.22,7285.4952 C137.033,7284.7363 138.4,7283.7707 139.32,7282.59939 C137.089,7280.75606 134.34,7280.30971 131.96,7280.96177 M128.9,7295.58058 C131.3,7297.44688 134.276,7297.79936 136.94,7296.77884 C136.673,7294.50214 136.153,7292.29834 135.38,7290.16842 C132.78,7290.73261 130.035,7293.33983 128.9,7295.58058 M125.92,7286.95308 C127.09,7287.05893 130.288,7287.07491 133.56,7286.09433 C132.547,7284.29693 131.433,7282.7991 130.22,7281.60084 C128.073,7282.68627 126.524,7284.69835 125.92,7286.95308 M127.76,7294.50214 C129.012,7292.05369 132.125,7289.39754 134.86,7288.79042 C134.66,7288.3241 134.467,7287.9047 134.28,7287.53224 C131.508,7288.41796 128.348,7288.75048 125.68,7288.61068 C125.68,7290.74159 126.029,7292.54298 127.76,7294.50214 M124,7289.0101 C124,7285.26253 126.008,7282.09213 128.98,7280.36263 C135.603,7276.50922 144,7281.2803 144,7289.0101 C144,7292.75767 141.992,7295.92808 139.02,7297.65757 C135.948,7299.44498 132.061,7299.44997 128.98,7297.65757 C126.005,7295.92708 124,7292.75468 124,7289.0101" id="dribbble-[#171]"></path>
            </g>
        </g>
    </g>
</svg>