<?xml version="1.0" encoding="UTF-8" standalone="no"?>
<svg width="16px" height="20px" viewBox="0 0 16 20" version="1.1" xmlns="http://www.w3.org/2000/svg" xmlns:xlink="http://www.w3.org/1999/xlink">
    <!-- Generator: Sketch 3.8.1 (29687) - http://www.bohemiancoding.com/sketch -->
    <title>drink [#691]</title>
    <desc>Created with Sketch.</desc>
    <defs></defs>
    <g id="Page-1" stroke="none" stroke-width="1" fill="none" fill-rule="evenodd">
        <g id="Dribbble-Dark-Preview" transform="translate(-342.000000, -5119.000000)" fill="#FFFFFF">
            <g id="icons" transform="translate(56.000000, 160.000000)">
                <path d="M292.699,4971.837 C292.288,4971.455 292.021,4971.049 292.001,4970.475 C291.985,4970.003 292.212,4969.56 292.678,4969.399 C293.166,4969.231 293.624,4969.441 293.923,4969.82 C293.962,4969.869 294.039,4969.868 294.078,4969.819 C294.355,4969.465 294.769,4969.258 295.234,4969.373 C295.759,4969.504 296.023,4969.986 295.999,4970.501 C295.971,4971.083 295.683,4971.487 295.265,4971.87 C295.067,4972.052 294.865,4972.231 294.664,4972.409 C294.286,4972.742 293.721,4972.742 293.342,4972.41 C293.126,4972.222 292.909,4972.033 292.699,4971.837 L292.699,4971.837 Z M296.415,4976.152 C296.34,4976.64 295.92,4977 295.427,4977 L292.574,4977 C292.081,4977 291.661,4976.64 291.586,4976.152 L290.332,4968 L297.669,4968 L296.415,4976.152 Z M301,4966 L295,4966 L295,4962 C295,4961.447 295.448,4961 296,4961 L298,4961 C298.553,4961 299,4960.552 299,4960 C299,4959.447 298.553,4959 298,4959 L295,4959 C293.896,4959 293,4959.895 293,4961 L293,4966 L287,4966 C286.448,4966 286,4966.447 286,4967 C286,4967.552 286.448,4968 287,4968 L288.308,4968 L289.74,4977.304 C289.89,4978.28 290.729,4979 291.716,4979 L296.285,4979 C297.272,4979 298.111,4978.28 298.261,4977.304 L299.693,4968 L301,4968 C301.553,4968 302,4967.552 302,4967 C302,4966.447 301.553,4966 301,4966 L301,4966 Z" id="drink-[#691]"></path>
            </g>
        </g>
    </g>
</svg>