<?xml version="1.0" encoding="UTF-8" standalone="no"?>
<svg width="12px" height="20px" viewBox="0 0 12 20" version="1.1" xmlns="http://www.w3.org/2000/svg" xmlns:xlink="http://www.w3.org/1999/xlink">
    <!-- Generator: Sketch 3.8.1 (29687) - http://www.bohemiancoding.com/sketch -->
    <title>drink [#46]</title>
    <desc>Created with Sketch.</desc>
    <defs></defs>
    <g id="Page-1" stroke="none" stroke-width="1" fill="none" fill-rule="evenodd">
        <g id="Dribbble-Dark-Preview" transform="translate(-144.000000, -7999.000000)" fill="#FFFFFF">
            <g id="icons" transform="translate(56.000000, 160.000000)">
                <path d="M90,7849 L98,7849 L98,7847 L90,7847 L90,7849 Z M96.527,7857 L91.805,7857 L90.604,7851 L97.728,7851 L96.527,7857 Z M95,7845 L95,7841 L97,7841 L97,7839 L93,7839 L93,7845 L88,7845 L88,7849 C88.625,7851.588 88.189,7849.607 90.166,7859 L98.166,7859 C99.949,7849.603 99.594,7851.569 100,7849 L100,7845 L95,7845 Z" id="drink-[#46]"></path>
            </g>
        </g>
    </g>
</svg>