<?xml version="1.0" encoding="UTF-8" standalone="no"?>
<svg width="12px" height="20px" viewBox="0 0 12 20" version="1.1" xmlns="http://www.w3.org/2000/svg" xmlns:xlink="http://www.w3.org/1999/xlink">
    <!-- Generator: Sketch 3.8.1 (29687) - http://www.bohemiancoding.com/sketch -->
    <title>drink_round [#681]</title>
    <desc>Created with Sketch.</desc>
    <defs></defs>
    <g id="Page-1" stroke="none" stroke-width="1" fill="none" fill-rule="evenodd">
        <g id="Dribbble-Dark-Preview" transform="translate(-344.000000, -5159.000000)" fill="#FFFFFF">
            <g id="icons" transform="translate(56.000000, 160.000000)">
                <path d="M298,5006.341 C298,5008.55 296.209,5010.341 294,5010.341 C291.791,5010.341 290,5008.55 290,5006.341 L290,5001 L298,5001 L298,5006.341 Z M288,4999 L288,5006.341 C288,5009.313 290,5011.774 293,5012.251 L293,5017 L291,5017 L291,5019 L297,5019 L297,5017 L295,5017 L295,5012.251 C298,5011.774 300,5009.313 300,5006.341 L300,4999 L288,4999 Z" id="drink_round-[#681]"></path>
            </g>
        </g>
    </g>
</svg>