<?xml version="1.0" encoding="UTF-8" standalone="no"?>
<svg width="12px" height="20px" viewBox="0 0 12 20" version="1.1" xmlns="http://www.w3.org/2000/svg" xmlns:xlink="http://www.w3.org/1999/xlink">
    <!-- Generator: Sketch 3.8.1 (29687) - http://www.bohemiancoding.com/sketch -->
    <title>drink [#47]</title>
    <desc>Created with Sketch.</desc>
    <defs></defs>
    <g id="Page-1" stroke="none" stroke-width="1" fill="none" fill-rule="evenodd">
        <g id="Dribbble-Dark-Preview" transform="translate(-104.000000, -7999.000000)" fill="#FFFFFF">
            <g id="icons" transform="translate(56.000000, 160.000000)">
                <path d="M58,7849 L50,7849 L50,7848 C50,7847.448 50.448,7847 51,7847 L57,7847 C57.552,7847 58,7847.448 58,7848 L58,7849 Z M56.527,7857 L51.805,7857 L50.604,7851 L57.728,7851 L56.527,7857 Z M58,7845 L55,7845 L55,7842 C55,7841.448 55.448,7841 56,7841 C56.552,7841 57,7840.552 57,7840 C57,7839.448 56.552,7839 56,7839 L55,7839 C53.896,7839 53,7839.895 53,7841 L53,7845 L50,7845 C48.896,7845 48,7845.895 48,7847 L48,7849 C48.606,7851.512 48.214,7849.719 49.999,7858.204 C50.096,7858.667 50.505,7859 50.978,7859 L57.338,7859 C57.818,7859 58.231,7858.657 58.321,7858.185 C59.928,7849.717 59.606,7851.492 60,7849 L60,7847 C60,7845.895 59.104,7845 58,7845 L58,7845 Z" id="drink-[#47]"></path>
            </g>
        </g>
    </g>
</svg>