<?xml version="1.0" encoding="UTF-8" standalone="no"?>
<svg width="16px" height="20px" viewBox="0 0 16 20" version="1.1" xmlns="http://www.w3.org/2000/svg" xmlns:xlink="http://www.w3.org/1999/xlink">
    <!-- Generator: Sketch 3.8.1 (29687) - http://www.bohemiancoding.com/sketch -->
    <title>drink_round [#688]</title>
    <desc>Created with Sketch.</desc>
    <defs></defs>
    <g id="Page-1" stroke="none" stroke-width="1" fill="none" fill-rule="evenodd">
        <g id="Dribbble-Dark-Preview" transform="translate(-62.000000, -5159.000000)" fill="#FFFFFF">
            <g id="icons" transform="translate(56.000000, 160.000000)">
                <path d="M15.426,5017 L12.573,5017 C12.08,5017 11.66,5016.64 11.585,5016.152 L11.408,5015 L16.592,5015 L16.414,5016.152 C16.339,5016.64 15.92,5017 15.426,5017 L15.426,5017 Z M17.668,5008 L16.899,5013 L11.1,5013 L10.331,5008 L17.668,5008 Z M21,5006 L15,5006 L15,5002 C15,5001.448 15.447,5001 16,5001 L18,5001 C18.552,5001 19,5000.552 19,5000 C19,4999.448 18.552,4999 18,4999 L15,4999 C13.895,4999 13,4999.895 13,5001 L13,5006 L7,5006 C6.447,5006 6,5006.448 6,5007 C6,5007.552 6.447,5008 7,5008 L8.307,5008 L9.739,5017.304 C9.889,5018.28 10.728,5019 11.716,5019 L16.284,5019 C17.271,5019 18.111,5018.28 18.261,5017.304 L19.692,5008 L21,5008 C21.552,5008 22,5007.552 22,5007 C22,5006.448 21.552,5006 21,5006 L21,5006 Z" id="drink_round-[#688]"></path>
            </g>
        </g>
    </g>
</svg>