<?xml version="1.0" encoding="UTF-8" standalone="no"?>
<svg width="16px" height="20px" viewBox="0 0 16 20" version="1.1" xmlns="http://www.w3.org/2000/svg" xmlns:xlink="http://www.w3.org/1999/xlink">
    <!-- Generator: Sketch 3.8.1 (29687) - http://www.bohemiancoding.com/sketch -->
    <title>drink_round [#686]</title>
    <desc>Created with Sketch.</desc>
    <defs></defs>
    <g id="Page-1" stroke="none" stroke-width="1" fill="none" fill-rule="evenodd">
        <g id="Dribbble-Dark-Preview" transform="translate(-142.000000, -5159.000000)" fill="#FFFFFF">
            <g id="icons" transform="translate(56.000000, 160.000000)">
                <path d="M95.426,5017 L92.573,5017 C92.08,5017 91.66,5016.64 91.585,5016.152 L90.331,5008 L97.668,5008 L96.414,5016.152 C96.339,5016.64 95.92,5017 95.426,5017 L95.426,5017 Z M95,5006 L95,5002 C95,5001.448 95.447,5001 96,5001 L98,5001 C98.552,5001 99,5000.552 99,5000 C99,4999.448 98.552,4999 98,4999 L95,4999 C93.895,4999 93,4999.895 93,5001 L93,5006 L87,5006 C86.447,5006 86,5006.448 86,5007 C86,5007.552 86.447,5008 87,5008 L88.307,5008 L89.739,5017.304 C89.889,5018.28 90.728,5019 91.716,5019 L96.284,5019 C97.271,5019 98.111,5018.28 98.261,5017.304 L99.692,5008 L101,5008 C101.552,5008 102,5007.552 102,5007 C102,5006.448 101.552,5006 101,5006 L95,5006 Z" id="drink_round-[#686]"></path>
            </g>
        </g>
    </g>
</svg>