<?xml version="1.0" encoding="UTF-8" standalone="no"?>
<svg width="12px" height="20px" viewBox="0 0 12 20" version="1.1" xmlns="http://www.w3.org/2000/svg" xmlns:xlink="http://www.w3.org/1999/xlink">
    <!-- Generator: Sketch 3.8.1 (29687) - http://www.bohemiancoding.com/sketch -->
    <title>drink_round [#682]</title>
    <desc>Created with Sketch.</desc>
    <defs></defs>
    <g id="Page-1" stroke="none" stroke-width="1" fill="none" fill-rule="evenodd">
        <g id="Dribbble-Dark-Preview" transform="translate(-304.000000, -5159.000000)" fill="#FFFFFF">
            <g id="icons" transform="translate(56.000000, 160.000000)">
                <path d="M258,5006 C258,5008.339 255.993,5010.209 253.607,5009.981 C251.527,5009.783 250,5007.917 250,5005.828 L250,5002 C250,5001.448 250.448,5001 251,5001 L257,5001 C257.552,5001 258,5001.448 258,5002 L258,5006 Z M250,4999 C248.895,4999 248,4999.895 248,5001 L248,5006 C248,5008.972 250,5011.433 253,5011.91 L253,5017 L252,5017 C251.448,5017 251,5017.448 251,5018 C251,5018.552 251.448,5019 252,5019 L256,5019 C256.552,5019 257,5018.552 257,5018 C257,5017.448 256.552,5017 256,5017 L255,5017 L255,5011.91 C258,5011.433 260,5008.972 260,5006 L260,5001 C260,4999.895 259.105,4999 258,4999 L250,4999 Z" id="drink_round-[#682]"></path>
            </g>
        </g>
    </g>
</svg>