<?xml version="1.0" encoding="UTF-8" standalone="no"?>
<svg width="12px" height="20px" viewBox="0 0 12 20" version="1.1" xmlns="http://www.w3.org/2000/svg" xmlns:xlink="http://www.w3.org/1999/xlink">
    <!-- Generator: Sketch 3.8.1 (29687) - http://www.bohemiancoding.com/sketch -->
    <title>drink [#683]</title>
    <desc>Created with Sketch.</desc>
    <defs></defs>
    <g id="Page-1" stroke="none" stroke-width="1" fill="none" fill-rule="evenodd">
        <g id="Dribbble-Dark-Preview" transform="translate(-264.000000, -5159.000000)" fill="#FFFFFF">
            <g id="icons" transform="translate(56.000000, 160.000000)">
                <path d="M213.875,5010 C212.013,5010 210.463,5008.722 210.016,5007 L217.734,5007 C217.287,5008.722 215.737,5010 213.875,5010 L213.875,5010 Z M210,5005 L218,5005 L218,5001 L210,5001 L210,5005 Z M208,4999 L208,5006 C208,5008.972 210,5011.433 213,5011.91 L213,5017 L211,5017 L211,5019 L217,5019 L217,5017 L215,5017 L215,5011.91 C218,5011.433 220,5008.972 220,5006 L220,4999 L208,4999 Z" id="drink-[#683]"></path>
            </g>
        </g>
    </g>
</svg>