<?xml version="1.0" encoding="UTF-8" standalone="no"?>
<svg width="12px" height="20px" viewBox="0 0 12 20" version="1.1" xmlns="http://www.w3.org/2000/svg" xmlns:xlink="http://www.w3.org/1999/xlink">
    <!-- Generator: Sketch 3.8.1 (29687) - http://www.bohemiancoding.com/sketch -->
    <title>drink [#684]</title>
    <desc>Created with Sketch.</desc>
    <defs></defs>
    <g id="Page-1" stroke="none" stroke-width="1" fill="none" fill-rule="evenodd">
        <g id="Dribbble-Dark-Preview" transform="translate(-224.000000, -5159.000000)" fill="#FFFFFF">
            <g id="icons" transform="translate(56.000000, 160.000000)">
                <path d="M173.649,5009.981 C171.972,5009.821 170.67,5008.571 170.222,5007 L177.902,5007 C177.425,5008.842 175.68,5010.175 173.649,5009.981 M171.042,5001 L177.042,5001 C177.594,5001 178,5001.447 178,5002 L178,5005 L170,5005 L170,5002 C170,5001.447 170.49,5001 171.042,5001 M178.042,4999 L170.042,4999 C168.937,4999 168,4999.895 168,5001 L168,5006 C168,5008.972 170,5011.433 173,5011.91 L173,5017 L172.042,5017 C171.49,5017 171.042,5017.447 171.042,5018 C171.042,5018.552 171.49,5019 172.042,5019 L176.042,5019 C176.594,5019 177.042,5018.552 177.042,5018 C177.042,5017.447 176.594,5017 176.042,5017 L175,5017 L175,5011.91 C178,5011.433 180,5008.972 180,5006 L180,5001 C180,4999.895 179.146,4999 178.042,4999" id="drink-[#684]"></path>
            </g>
        </g>
    </g>
</svg>