<?xml version="1.0" encoding="UTF-8" standalone="no"?>
<svg width="16px" height="20px" viewBox="0 0 16 20" version="1.1" xmlns="http://www.w3.org/2000/svg" xmlns:xlink="http://www.w3.org/1999/xlink">
    <!-- Generator: Sketch 3.8.1 (29687) - http://www.bohemiancoding.com/sketch -->
    <title>drink [#690]</title>
    <desc>Created with Sketch.</desc>
    <defs></defs>
    <g id="Page-1" stroke="none" stroke-width="1" fill="none" fill-rule="evenodd">
        <g id="Dribbble-Dark-Preview" transform="translate(-382.000000, -5119.000000)" fill="#FFFFFF">
            <g id="icons" transform="translate(56.000000, 160.000000)">
                <path d="M332.699,4971.837 C332.288,4971.455 332.021,4971.049 332.001,4970.475 C331.985,4970.003 332.212,4969.56 332.678,4969.399 C333.166,4969.231 333.624,4969.441 333.923,4969.82 C333.962,4969.869 334.039,4969.868 334.078,4969.819 C334.355,4969.465 334.769,4969.258 335.234,4969.373 C335.759,4969.504 336.023,4969.986 335.999,4970.501 C335.971,4971.083 335.683,4971.487 335.265,4971.87 C335.067,4972.052 334.865,4972.231 334.664,4972.409 C334.286,4972.742 333.721,4972.742 333.342,4972.41 C333.126,4972.222 332.909,4972.033 332.699,4971.837 L332.699,4971.837 Z M336.285,4977 L331.716,4977 L330.332,4968 L337.669,4968 L336.285,4977 Z M335,4966 L335,4961 L339,4961 L339,4959 L333,4959 L333,4966 L326,4966 L326,4968 L328.308,4968 L330,4979 L338,4979 L339.693,4968 L342,4968 L342,4966 L335,4966 Z" id="drink-[#690]"></path>
            </g>
        </g>
    </g>
</svg>