<?xml version="1.0" encoding="UTF-8" standalone="no"?>
<svg width="16px" height="20px" viewBox="0 0 16 20" version="1.1" xmlns="http://www.w3.org/2000/svg" xmlns:xlink="http://www.w3.org/1999/xlink">
    <!-- Generator: Sketch 3.8.1 (29687) - http://www.bohemiancoding.com/sketch -->
    <title>drop [#76]</title>
    <desc>Created with Sketch.</desc>
    <defs></defs>
    <g id="Page-1" stroke="none" stroke-width="1" fill="none" fill-rule="evenodd">
        <g id="Dribbble-Dark-Preview" transform="translate(-142.000000, -7879.000000)" fill="#FFFFFF">
            <g id="icons" transform="translate(56.000000, 160.000000)">
                <path d="M100,7731 C100,7727.781 95.698,7722.179 94,7721.104 C92.302,7722.179 88,7727.781 88,7731 C88,7734.308 90.692,7737 94,7737 C97.308,7737 100,7734.308 100,7731 M102,7731 C102,7735.418 98.418,7739 94,7739 C89.582,7739 86,7735.418 86,7731 C86,7726.582 92,7719 94,7719 C96,7719 102,7726.582 102,7731 M98,7730.5 C98,7732.709 96.209,7734.5 94,7734.5 C91.791,7734.5 90,7732.709 90,7730.5 C90,7728.291 93,7724.5 94,7724.5 C95,7724.5 98,7728.291 98,7730.5" id="drop-[#76]"></path>
            </g>
        </g>
    </g>
</svg>