<?xml version="1.0" encoding="UTF-8" standalone="no"?>
<svg width="21px" height="20px" viewBox="0 0 21 20" version="1.1" xmlns="http://www.w3.org/2000/svg" xmlns:xlink="http://www.w3.org/1999/xlink">
    <!-- Generator: Sketch 3.8.1 (29687) - http://www.bohemiancoding.com/sketch -->
    <title>edit_text_bar [#1372]</title>
    <desc>Created with Sketch.</desc>
    <defs></defs>
    <g id="Page-1" stroke="none" stroke-width="1" fill="none" fill-rule="evenodd">
        <g id="Dribbble-Dark-Preview" transform="translate(-379.000000, -800.000000)" fill="#FFFFFF">
            <g id="icons" transform="translate(56.000000, 160.000000)">
                <path d="M327.2,654 L325.1,654 L325.1,646 L327.2,646 L327.2,644 L323,644 L323,656 L327.2,656 L327.2,654 Z M333.5,644 L333.5,646 L341.9,646 L341.9,654 L333.5,654 L333.5,656 L344,656 L344,644 L333.5,644 Z M331.4,658 L333.5,658 L333.5,660 L327.2,660 L327.2,658 L329.3,658 L329.3,642 L327.2,642 L327.2,640 L333.5,640 L333.5,642 L331.4,642 L331.4,658 Z" id="edit_text_bar-[#1372]"></path>
            </g>
        </g>
    </g>
</svg>