<?xml version="1.0" encoding="UTF-8" standalone="no"?>
<svg width="20px" height="20px" viewBox="0 0 20 20" version="1.1" xmlns="http://www.w3.org/2000/svg" xmlns:xlink="http://www.w3.org/1999/xlink">
    <!-- Generator: Sketch 3.8.1 (29687) - http://www.bohemiancoding.com/sketch -->
    <title>edit_line [#1568]</title>
    <desc>Created with Sketch.</desc>
    <defs></defs>
    <g id="Page-1" stroke="none" stroke-width="1" fill="none" fill-rule="evenodd">
        <g id="Dribbble-Dark-Preview" transform="translate(-100.000000, -959.000000)" fill="#FFFFFF">
            <g id="icons" transform="translate(56.000000, 160.000000)">
                <path d="M54.375,806.283182 C55.48,806.283182 56.375,807.178182 56.375,808.283182 C56.375,809.388182 55.48,810.283182 54.375,810.283182 C53.27,810.283182 52.375,809.388182 52.375,808.283182 C52.375,807.178182 53.27,806.283182 54.375,806.283182 M64,818.000182 C64,818.552182 63.552,819.000182 63,819.000182 L45,819.000182 C44.448,819.000182 44,818.552182 44,818.000182 C44,817.447182 44.448,817.000182 45,817.000182 L63,817.000182 C63.552,817.000182 64,817.447182 64,818.000182 M60.168,812.064182 L50.652,812.682182 C50.052,812.721182 49.555,812.225182 49.59,811.626182 L50.118,802.745182 C50.144,802.299182 50.463,801.925182 50.899,801.829182 L54.117,801.116182 C54.444,801.043182 54.787,801.140182 55.028,801.374182 L61.409,807.553182 C61.657,807.794182 61.763,808.146182 61.69,808.484182 L61.079,811.280182 C60.984,811.715182 60.612,812.035182 60.168,812.064182 M63.2,806.504182 L56.033,799.563182 C55.55,799.096182 54.865,798.902182 54.209,799.047182 L49.73,800.039182 C48.857,800.233182 48.219,800.981182 48.166,801.873182 L47.527,812.636182 C47.455,813.837182 48.452,814.829182 49.653,814.751182 L61.048,814.011182 C61.938,813.953182 62.682,813.313182 62.872,812.442182 L63.762,808.367182 C63.91,807.690182 63.697,806.985182 63.2,806.504182" id="edit_line-[#1568]"></path>
            </g>
        </g>
    </g>
</svg>