<?xml version="1.0" encoding="UTF-8" standalone="no"?>
<svg width="20px" height="20px" viewBox="0 0 20 20" version="1.1" xmlns="http://www.w3.org/2000/svg" xmlns:xlink="http://www.w3.org/1999/xlink">
    <!-- Generator: Sketch 3.8.1 (29687) - http://www.bohemiancoding.com/sketch -->
    <title>edit_line [#1567]</title>
    <desc>Created with Sketch.</desc>
    <defs></defs>
    <g id="Page-1" stroke="none" stroke-width="1" fill="none" fill-rule="evenodd">
        <g id="Dribbble-Dark-Preview" transform="translate(-140.000000, -959.000000)" fill="#FFFFFF">
            <g id="icons" transform="translate(56.000000, 160.000000)">
                <path d="M94.375,806.469 C95.48,806.469 96.375,807.364 96.375,808.469 C96.375,809.574 95.48,810.469 94.375,810.469 C93.27,810.469 92.375,809.574 92.375,808.469 C92.375,807.364 93.27,806.469 94.375,806.469 L94.375,806.469 Z M84,819 L104,819 L104,817 L84,817 L84,819 Z M100.918,812.201 L89.523,812.941 L90.162,802.178 L94.642,801.186 L101.808,808.126 L100.918,812.201 Z M104,807.465 L95.26,799 L88.255,800.552 L87.392,815.084 L102.551,814.099 L104,807.465 Z" id="edit_line-[#1567]"></path>
            </g>
        </g>
    </g>
</svg>