<?xml version="1.0" encoding="UTF-8" standalone="no"?>
<svg width="16px" height="20px" viewBox="0 0 16 20" version="1.1" xmlns="http://www.w3.org/2000/svg" xmlns:xlink="http://www.w3.org/1999/xlink">
    <!-- Generator: Sketch 3.8.1 (29687) - http://www.bohemiancoding.com/sketch -->
    <title>egg [#88]</title>
    <desc>Created with Sketch.</desc>
    <defs></defs>
    <g id="Page-1" stroke="none" stroke-width="1" fill="none" fill-rule="evenodd">
        <g id="Dribbble-Dark-Preview" transform="translate(-62.000000, -7839.000000)" fill="#FFFFFF">
            <g id="icons" transform="translate(56.000000, 160.000000)">
                <path d="M20.0253021,7691.737 C18.0587436,7690.05 15.048582,7691.451 15.048582,7694 C15.048582,7695.053 15.5965239,7695.976 16.4229611,7696.511 C14.9420098,7697.146 13.2207684,7697.179 11.6634069,7696.511 C12.4898441,7695.976 13.037786,7695.053 13.037786,7694 C13.037786,7691.453 10.0296352,7690.048 8.0610659,7691.737 C7.99269884,7691.185 7.97460167,7690.453 8.14652473,7689.333 C10.130175,7690.912 13.037786,7689.507 13.037786,7687 C13.037786,7685.383 11.7498712,7684.075 10.1412344,7684.012 C11.2582315,7682.223 12.6195404,7681 13.7294998,7681 C14.8937507,7681 16.3616318,7682.162 17.6264225,7684.044 C16.1706062,7684.256 15.048582,7685.492 15.048582,7687 C15.048582,7689.469 17.8938584,7690.895 19.8895734,7689.374 C20.1107609,7690.46 20.1027178,7691.109 20.0253021,7691.737 M18.064776,7695 C17.5108017,7695 17.059378,7694.551 17.059378,7694 C17.059378,7693.448 17.5108017,7693 18.064776,7693 C18.6187503,7693 19.070174,7693.448 19.070174,7694 C19.070174,7694.551 18.6187503,7695 18.064776,7695 M10.021592,7695 C9.46761771,7695 9.016194,7694.551 9.016194,7694 C9.016194,7693.448 9.46761771,7693 10.021592,7693 C10.5755663,7693 11.02699,7693.448 11.02699,7694 C11.02699,7694.551 10.5755663,7695 10.021592,7695 M10.021592,7686 C10.5755663,7686 11.02699,7686.448 11.02699,7687 C11.02699,7687.551 10.5755663,7688 10.021592,7688 C9.46761771,7688 9.016194,7687.551 9.016194,7687 C9.016194,7686.448 9.46761771,7686 10.021592,7686 M18.064776,7686 C18.6187503,7686 19.070174,7686.448 19.070174,7687 C19.070174,7687.551 18.6187503,7688 18.064776,7688 C17.5108017,7688 17.059378,7687.551 17.059378,7687 C17.059378,7686.448 17.5108017,7686 18.064776,7686 M13.7294998,7679 C9.28765146,7679 6,7686.581 6,7691 C6,7698.448 15.768447,7702.08 20.4928122,7695.765 C24.9467253,7689.726 18.5765236,7679 13.7294998,7679" id="egg-[#88]"></path>
            </g>
        </g>
    </g>
</svg>