<?xml version="1.0" encoding="UTF-8" standalone="no"?>
<svg width="20px" height="20px" viewBox="0 0 20 20" version="1.1" xmlns="http://www.w3.org/2000/svg" xmlns:xlink="http://www.w3.org/1999/xlink">
    <!-- Generator: Sketch 3.8.1 (29687) - http://www.bohemiancoding.com/sketch -->
    <title>emoji_sad [#487]</title>
    <desc>Created with Sketch.</desc>
    <defs></defs>
    <g id="Page-1" stroke="none" stroke-width="1" fill="none" fill-rule="evenodd">
        <g id="Dribbble-Dark-Preview" transform="translate(-100.000000, -6039.000000)" fill="#FFFFFF">
            <g id="icons" transform="translate(56.000000, 160.000000)">
                <path d="M60,5886 C60,5886.552 59.552,5887 59,5887 L57,5887 C56.448,5887 56,5886.552 56,5886 C56,5885.448 56.448,5885 57,5885 L59,5885 C59.552,5885 60,5885.448 60,5886 L60,5886 Z M49,5887 C48.448,5887 48,5886.552 48,5886 C48,5885.448 48.448,5885 49,5885 L51,5885 C51.552,5885 52,5885.448 52,5886 C52,5886.552 51.552,5887 51,5887 L49,5887 Z M59,5895 L49,5895 C49,5888 59,5888 59,5895 L59,5895 Z M62,5882.603 L62,5888.585 C62,5892.996 58.411,5897 54,5897 C49.589,5897 46,5892.996 46,5888.585 L46,5882.603 L46,5881.585 C46,5881.033 46.448,5881 47,5881 L48.018,5881 L54,5881 L59.982,5881 L61,5881 C61.552,5881 62,5881.033 62,5881.585 L62,5882.603 Z M62,5879 L54,5879 L46,5879 C44.895,5879 44,5879.48 44,5880.585 L44,5888.585 C44,5890.831 44.75,5892.897 46,5894.567 C46.574,5895.333 47.253,5896.011 48.018,5896.585 C49.688,5897.835 51.754,5899 54,5899 C56.246,5899 58.312,5897.835 59.982,5896.585 C60.747,5896.011 61.426,5895.333 62,5894.567 C63.25,5892.897 64,5890.831 64,5888.585 L64,5880.585 C64,5879.48 63.105,5879 62,5879 L62,5879 Z" id="emoji_sad-[#487]"></path>
            </g>
        </g>
    </g>
</svg>