<?xml version="1.0" encoding="UTF-8" standalone="no"?>
<svg width="20px" height="20px" viewBox="0 0 20 20" version="1.1" xmlns="http://www.w3.org/2000/svg" xmlns:xlink="http://www.w3.org/1999/xlink">
    <!-- Generator: Sketch 3.8.1 (29687) - http://www.bohemiancoding.com/sketch -->
    <title>emoji_neutral [#504]</title>
    <desc>Created with Sketch.</desc>
    <defs></defs>
    <g id="Page-1" stroke="none" stroke-width="1" fill="none" fill-rule="evenodd">
        <g id="Dribbble-Dark-Preview" transform="translate(-220.000000, -5959.000000)" fill="#FFFFFF">
            <g id="icons" transform="translate(56.000000, 160.000000)">
                <path d="M176,5813.98053 C176,5814.53181 175.552,5814.97923 175,5814.97923 L173,5814.97923 C172.448,5814.97923 172,5814.53181 172,5813.98053 C172,5813.42924 172.448,5812.98182 173,5812.98182 L175,5812.98182 C175.552,5812.98182 176,5813.42924 176,5813.98053 L176,5813.98053 Z M176,5802.99481 L172,5802.99481 L166,5802.99481 L166,5801.58164 C166,5801.03036 166.448,5800.9974 167,5800.9974 L168.018,5800.9974 L174,5800.9974 L179.982,5800.9974 L181,5800.9974 C181.552,5800.9974 182,5801.03036 182,5801.58164 L182,5802.99481 L176,5802.99481 Z M178,5808.98702 L182,5808.98702 L182,5804.99221 L178,5804.99221 L178,5808.98702 Z M174,5817.39209 C170.27,5817.39209 167.137,5813.98053 166.255,5810.98442 L172,5810.98442 L172,5804.99221 L176,5804.99221 L176,5810.98442 L181.745,5810.98442 C180.863,5813.98053 177.73,5817.39209 174,5817.39209 L174,5817.39209 Z M166,5808.98702 L170,5808.98702 L170,5804.99221 L166,5804.99221 L166,5808.98702 Z M182,5799 L174,5799 L166,5799 C164.895,5799 164,5799.47938 164,5800.58294 L164,5802.55038 L164,5808.57256 L164,5810.98442 L164.204,5810.98442 C164.504,5811.98312 165.126,5813.60302 166,5814.7685 C166.574,5815.53351 167.253,5816.10077 168.018,5816.67303 C169.688,5817.9224 171.754,5819 174,5819 C176.246,5819 178.312,5817.83851 179.982,5816.59013 C180.747,5816.01688 181.426,5815.54749 182,5814.78248 C182.874,5813.617 183.496,5811.98312 183.796,5810.98442 L184,5810.98442 L184,5808.57256 L184,5802.55038 L184,5800.58294 C184,5799.47938 183.105,5799 182,5799 L182,5799 Z" id="emoji_neutral-[#504]"></path>
            </g>
        </g>
    </g>
</svg>