<?xml version="1.0" encoding="UTF-8" standalone="no"?>
<svg width="20px" height="20px" viewBox="0 0 20 20" version="1.1" xmlns="http://www.w3.org/2000/svg" xmlns:xlink="http://www.w3.org/1999/xlink">
    <!-- Generator: Sketch 3.8.1 (29687) - http://www.bohemiancoding.com/sketch -->
    <title>emoji_happy_missing [#576]</title>
    <desc>Created with Sketch.</desc>
    <defs></defs>
    <g id="Page-1" stroke="none" stroke-width="1" fill="none" fill-rule="evenodd">
        <g id="Dribbble-Dark-Preview" transform="translate(-140.000000, -5679.000000)" fill="#FFFFFF">
            <g id="icons" transform="translate(56.000000, 160.000000)">
                <path d="M102,5533 L104,5533 L104,5525 L102,5525 L102,5533 Z M101,5537 L100,5537 L100,5539 L102,5539 C103.105,5539 104,5538.105 104,5537 L104,5535 L102,5535 L102,5536 C102,5536.552 101.552,5537 101,5537 L101,5537 Z M100,5519 L100,5521 L101,5521 C101.552,5521 102,5521.448 102,5522 L102,5523 L104,5523 L104,5521 C104,5519.895 103.105,5519 102,5519 L100,5519 Z M84,5533 L86,5533 L86,5525 L84,5525 L84,5533 Z M86,5535 L84,5535 L84,5537 C84,5538.105 84.895,5539 86,5539 L88,5539 L88,5537 L87,5537 C86.448,5537 86,5536.552 86,5536 L86,5535 Z M87,5521 L88,5521 L88,5519 L86,5519 C84.895,5519 84,5519.895 84,5521 L84,5523 L86,5523 L86,5522 C86,5521.448 86.448,5521 87,5521 L87,5521 Z M90,5539 L98,5539 L98,5537 L90,5537 L90,5539 Z M90,5521 L98,5521 L98,5519 L90,5519 L90,5521 Z M97,5528 L99,5528 C99.552,5528 100,5527.552 100,5527 L100,5525 C100,5524.448 99.552,5524 99,5524 L97,5524 C96.448,5524 96,5524.448 96,5525 L96,5527 C96,5527.552 96.448,5528 97,5528 L97,5528 Z M91,5524 L89,5524 C88.448,5524 88,5524.448 88,5525 L88,5527 C88,5527.552 88.448,5528 89,5528 L91,5528 C91.552,5528 92,5527.552 92,5527 L92,5525 C92,5524.448 91.552,5524 91,5524 L91,5524 Z M89.167,5529 L99.167,5529 C99.167,5536 89.167,5536 89.167,5529 L89.167,5529 Z" id="emoji_happy_missing-[#576]"></path>
            </g>
        </g>
    </g>
</svg>