<?xml version="1.0" encoding="UTF-8" standalone="no"?>
<svg width="20px" height="20px" viewBox="0 0 20 20" version="1.1" xmlns="http://www.w3.org/2000/svg" xmlns:xlink="http://www.w3.org/1999/xlink">
    <!-- Generator: Sketch 3.8.1 (29687) - http://www.bohemiancoding.com/sketch -->
    <title>emoji_happy [#511]</title>
    <desc>Created with Sketch.</desc>
    <defs></defs>
    <g id="Page-1" stroke="none" stroke-width="1" fill="none" fill-rule="evenodd">
        <g id="Dribbble-Dark-Preview" transform="translate(-340.000000, -5919.000000)" fill="#FFFFFF">
            <g id="icons" transform="translate(56.000000, 160.000000)">
                <path d="M300,5766.0001 C300,5766.5521 299.552,5767.0001 299,5767.0001 L297,5767.0001 C296.448,5767.0001 296,5766.5521 296,5766.0001 L296,5766.0001 C296,5765.4481 296.448,5765.0001 297,5765.0001 L299,5765.0001 C299.552,5765.0001 300,5765.4481 300,5766.0001 L300,5766.0001 Z M298.893,5771.0431 C297.886,5776.1801 290.114,5776.0771 289.107,5770.9391 C288.99,5770.3401 289.487,5770.0001 290.098,5770.0001 L290.115,5770.0001 C290.591,5770.0001 290.981,5770.2401 291.09,5770.7041 C291.78,5773.6271 296.22,5773.5231 296.91,5770.6001 C297.019,5770.1361 297.409,5770.0001 297.885,5770.0001 L297.902,5770.0001 C298.513,5770.0001 299.01,5770.4441 298.893,5771.0431 L298.893,5771.0431 Z M292,5766.0001 C292,5766.5521 291.552,5767.0001 291,5767.0001 L289,5767.0001 C288.448,5767.0001 288,5766.5521 288,5766.0001 C288,5765.4481 288.448,5765.0001 289,5765.0001 L291,5765.0001 C291.552,5765.0001 292,5765.4481 292,5766.0001 L292,5766.0001 Z M302,5775.5851 C302,5776.1371 301.552,5777.0001 301,5777.0001 L287,5777.0001 C286.448,5777.0001 286,5776.1371 286,5775.5851 L286,5768.5851 C286,5764.1741 289.589,5761.0001 294,5761.0001 C298.411,5761.0001 302,5764.1741 302,5768.5851 L302,5775.5851 Z M302,5762.6031 C301.426,5761.8371 300.747,5761.1581 299.982,5760.5851 C298.312,5759.3351 296.246,5759.0001 294,5759.0001 C290.546,5759.0001 288.11,5759.7861 286,5762.6031 C284.75,5764.2731 284,5766.3391 284,5768.5851 L284,5776.5851 C284,5777.6891 284.895,5779.0001 286,5779.0001 L302,5779.0001 C303.105,5779.0001 304,5777.6891 304,5776.5851 L304,5768.5851 C304,5766.3391 303.25,5764.2731 302,5762.6031 L302,5762.6031 Z" id="emoji_happy-[#511]"></path>
            </g>
        </g>
    </g>
</svg>