<?xml version="1.0" encoding="UTF-8" standalone="no"?>
<svg width="20px" height="12px" viewBox="0 0 20 12" version="1.1" xmlns="http://www.w3.org/2000/svg" xmlns:xlink="http://www.w3.org/1999/xlink">
    <!-- Generator: Sketch 3.8.1 (29687) - http://www.bohemiancoding.com/sketch -->
    <title>emoji_neutral_simple_glasses [#475]</title>
    <desc>Created with Sketch.</desc>
    <defs></defs>
    <g id="Page-1" stroke="none" stroke-width="1" fill="none" fill-rule="evenodd">
        <g id="Dribbble-Dark-Preview" transform="translate(-180.000000, -6082.000000)" fill="#FFFFFF">
            <g id="icons" transform="translate(56.000000, 160.000000)">
                <path d="M142,5924 L138,5924 L138,5926.585 C138,5927.137 138.448,5928 139,5928 L142,5928 L142,5924 Z M130,5924 L126,5924 L126,5928 L129,5928 C129.552,5928 130,5927.137 130,5926.585 L130,5924 Z M144,5922 L144,5930 L138,5930 C136.895,5930 136,5928.69 136,5927.585 L136,5924 L132,5924 L132,5927.585 C132,5928.69 131.105,5930 130,5930 L124,5930 L124,5922 L132,5922 L136,5922 L144,5922 Z M130,5934 L138,5934 L138,5932 L130,5932 L130,5934 Z" id="emoji_neutral_simple_glasses-[#475]"></path>
            </g>
        </g>
    </g>
</svg>