<?xml version="1.0" encoding="UTF-8" standalone="no"?>
<svg width="20px" height="20px" viewBox="0 0 20 20" version="1.1" xmlns="http://www.w3.org/2000/svg" xmlns:xlink="http://www.w3.org/1999/xlink">
    <!-- Generator: Sketch 3.8.1 (29687) - http://www.bohemiancoding.com/sketch -->
    <title>emoji_happy [#533]</title>
    <desc>Created with Sketch.</desc>
    <defs></defs>
    <g id="Page-1" stroke="none" stroke-width="1" fill="none" fill-rule="evenodd">
        <g id="Dribbble-Dark-Preview" transform="translate(-260.000000, -5839.000000)" fill="#FFFFFF">
            <g id="icons" transform="translate(56.000000, 160.000000)">
                <path d="M219,5685 C219.552,5685 220,5685.448 220,5686 C220,5686.552 219.552,5687 219,5687 L217,5687 C216.448,5687 216,5686.552 216,5686 C216,5685.448 216.448,5685 217,5685 L219,5685 Z M208,5686 C208,5685.448 208.448,5685 209,5685 L211,5685 C211.552,5685 212,5685.448 212,5686 C212,5686.552 211.552,5687 211,5687 L209,5687 C208.448,5687 208,5686.552 208,5686 L208,5686 Z M220,5691.585 L220,5692.585 C220,5693.69 219.105,5695 218,5695 L210,5695 C208.895,5695 208,5693.69 208,5692.585 L208,5691.585 C208,5691.033 208.448,5690.689 209,5690.689 C209.552,5690.689 210,5691.24 210,5691.792 C210,5692.345 210.448,5693 211,5693 L217,5693 C217.552,5693 218,5692.345 218,5691.792 C218,5691.24 218.448,5690.585 219,5690.585 C219.552,5690.585 220,5691.033 220,5691.585 L220,5691.585 Z M222,5695.593 C222,5696.145 221.552,5697 221,5697 L207,5697 C206.448,5697 206,5696.145 206,5695.593 L206,5688.593 C206,5684.181 209.589,5681 214,5681 C218.411,5681 222,5684.181 222,5688.593 L222,5695.593 Z M222,5682.611 C219.893,5679.798 217.445,5679 214,5679 C206.928,5679 204,5684.252 204,5688.593 L204,5696.593 C204,5697.697 204.895,5699 206,5699 L222,5699 C223.105,5699 224,5697.697 224,5696.593 L224,5688.593 C224,5686.346 223.25,5684.28 222,5682.611 L222,5682.611 Z" id="emoji_happy-[#533]"></path>
            </g>
        </g>
    </g>
</svg>