<?xml version="1.0" encoding="UTF-8" standalone="no"?>
<svg width="20px" height="20px" viewBox="0 0 20 20" version="1.1" xmlns="http://www.w3.org/2000/svg" xmlns:xlink="http://www.w3.org/1999/xlink">
    <!-- Generator: Sketch 3.8.1 (29687) - http://www.bohemiancoding.com/sketch -->
    <title>emoji_sad_circle [#544]</title>
    <desc>Created with Sketch.</desc>
    <defs></defs>
    <g id="Page-1" stroke="none" stroke-width="1" fill="none" fill-rule="evenodd">
        <g id="Dribbble-Dark-Preview" transform="translate(-220.000000, -5799.000000)" fill="#FFFFFF">
            <g id="icons" transform="translate(56.000000, 160.000000)">
                <path d="M180,5646.415 L180,5648.415 C180,5648.967 179.552,5649.415 179,5649.415 L177,5649.415 C176.45,5649.415 176,5648.965 176,5648.415 L176,5646.415 C176,5645.863 176.448,5645.415 177,5645.415 L179,5645.415 C179.552,5645.415 180,5645.863 180,5646.415 M171,5649.415 L169,5649.415 C168.45,5649.415 168,5648.965 168,5648.415 L168,5646.415 C168,5645.863 168.448,5645.415 169,5645.415 L171,5645.415 C171.552,5645.415 172,5645.863 172,5646.415 L172,5648.415 C172,5648.967 171.552,5649.415 171,5649.415 M179,5655.415 L169,5655.415 C169,5648.415 179,5648.415 179,5655.415 M174,5657 C169.589,5657 166,5653.411 166,5649 C166,5644.589 169.589,5641 174,5641 C178.411,5641 182,5644.589 182,5649 C182,5653.411 178.411,5657 174,5657 M174,5639 C168.477,5639 164,5643.477 164,5649 C164,5654.523 168.477,5659 174,5659 C179.523,5659 184,5654.523 184,5649 C184,5643.477 179.523,5639 174,5639" id="emoji_sad_circle-[#544]"></path>
            </g>
        </g>
    </g>
</svg>