<?xml version="1.0" encoding="UTF-8" standalone="no"?>
<svg width="20px" height="20px" viewBox="0 0 20 20" version="1.1" xmlns="http://www.w3.org/2000/svg" xmlns:xlink="http://www.w3.org/1999/xlink">
    <!-- Generator: Sketch 3.8.1 (29687) - http://www.bohemiancoding.com/sketch -->
    <title>emoji_sad_circle [#557]</title>
    <desc>Created with Sketch.</desc>
    <defs></defs>
    <g id="Page-1" stroke="none" stroke-width="1" fill="none" fill-rule="evenodd">
        <g id="Dribbble-Dark-Preview" transform="translate(-100.000000, -5759.000000)" fill="#FFFFFF">
            <g id="icons" transform="translate(56.000000, 160.000000)">
                <path d="M60,5606.415 L60,5608.415 C60,5608.967 59.552,5609.415 59,5609.415 L57,5609.415 C56.45,5609.415 56,5608.965 56,5608.415 L56,5606.415 C56,5605.863 56.448,5605.415 57,5605.415 L59,5605.415 C59.552,5605.415 60,5605.863 60,5606.415 M52,5606.415 L52,5608.415 C52,5608.967 51.552,5609.415 51,5609.415 L49,5609.415 C48.45,5609.415 48,5608.965 48,5608.415 L48,5606.415 C48,5605.863 48.448,5605.415 49,5605.415 L51,5605.415 C51.552,5605.415 52,5605.863 52,5606.415 M59.895,5614.597 C59.636,5613.793 58.89,5613.415 58,5613.415 L50,5613.415 C49.11,5613.415 48.364,5613.793 48.105,5614.597 C46.802,5613.173 46,5611.181 46,5609.104 C46,5604.692 49.589,5601.052 54,5601.052 C58.411,5601.052 62,5604.718 62,5609.13 C62,5611.207 61.198,5613.173 59.895,5614.597 M50.015,5616.134 C50.054,5615.618 50.474,5615.415 51,5615.415 L57,5615.415 C57.526,5615.415 57.946,5615.618 57.985,5616.134 C56.81,5616.813 55.452,5617.207 54,5617.207 C52.548,5617.207 51.19,5616.813 50.015,5616.134 M54,5599 C48.477,5599 44,5603.477 44,5609 C44,5614.523 48.477,5619 54,5619 C59.523,5619 64,5614.523 64,5609 C64,5603.477 59.523,5599 54,5599" id="emoji_sad_circle-[#557]"></path>
            </g>
        </g>
    </g>
</svg>