<?xml version="1.0" encoding="UTF-8" standalone="no"?>
<svg width="20px" height="20px" viewBox="0 0 20 20" version="1.1" xmlns="http://www.w3.org/2000/svg" xmlns:xlink="http://www.w3.org/1999/xlink">
    <!-- Generator: Sketch 3.8.1 (29687) - http://www.bohemiancoding.com/sketch -->
    <title>emoji_neutral_square_round_glasses [#444]</title>
    <desc>Created with Sketch.</desc>
    <defs></defs>
    <g id="Page-1" stroke="none" stroke-width="1" fill="none" fill-rule="evenodd">
        <g id="Dribbble-Dark-Preview" transform="translate(-220.000000, -6199.000000)" fill="#FFFFFF">
            <g id="icons" transform="translate(56.000000, 160.000000)">
                <path d="M176,6054 C176,6054.552 175.552,6055 175,6055 L173,6055 C172.448,6055 172,6054.552 172,6054 C172,6053.448 172.448,6053 173,6053 L175,6053 C175.552,6053 176,6053.448 176,6054 L176,6054 Z M166,6043 L166,6042 C166,6041.448 166.448,6041 167,6041 L181,6041 C181.552,6041 182,6041.448 182,6042 L182,6043 L166,6043 Z M178,6049 L182,6049 L182,6045 L178,6045 L178,6049 Z M182,6055.585 C182,6056.137 181.552,6057 181,6057 L167,6057 C166.448,6057 166,6056.137 166,6055.585 L166,6051 L172,6051 L172,6045 L176,6045 L176,6051 L182,6051 L182,6055.585 Z M166,6049 L170,6049 L170,6045 L166,6045 L166,6049 Z M182,6039 L166,6039 C164.895,6039 164,6039.895 164,6041 L164,6056.585 C164,6057.913 165.087,6059 166.415,6059 L182,6059 C183.105,6059 184,6058.105 184,6057 L184,6041 C184,6039.895 183.105,6039 182,6039 L182,6039 Z" id="emoji_neutral_square_round_glasses-[#444]"></path>
            </g>
        </g>
    </g>
</svg>