<?xml version="1.0" encoding="UTF-8" standalone="no"?>
<svg width="14px" height="10px" viewBox="0 0 14 10" version="1.1" xmlns="http://www.w3.org/2000/svg" xmlns:xlink="http://www.w3.org/1999/xlink">
    <!-- Generator: Sketch 3.8.1 (29687) - http://www.bohemiancoding.com/sketch -->
    <title>emoji_neutral_simple [#462]</title>
    <desc>Created with Sketch.</desc>
    <defs></defs>
    <g id="Page-1" stroke="none" stroke-width="1" fill="none" fill-rule="evenodd">
        <g id="Dribbble-Dark-Preview" transform="translate(-303.000000, -6125.000000)" fill="#FFFFFF">
            <g id="icons" transform="translate(56.000000, 160.000000)">
                <path d="M247.982939,5975 L259.778207,5975 L259.778207,5973.10175 L247.982939,5973.10175 L247.982939,5975 Z M261,5966.34207 L259.609141,5965 L257.931264,5966.62016 L256.253388,5965 L254.863512,5966.34207 L256.541389,5967.96222 L254.863512,5969.58238 L256.253388,5970.92445 L257.931264,5969.30429 L259.609141,5970.92445 L261,5969.58238 L259.322123,5967.96222 L261,5966.34207 Z M251.458611,5967.96222 L253.136488,5969.58238 L251.745629,5970.92445 L250.067753,5969.30429 L248.389876,5970.92445 L247,5969.58238 L248.677877,5967.96222 L247,5966.34207 L248.389876,5965 L250.067753,5966.62016 L251.745629,5965 L253.136488,5966.34207 L251.458611,5967.96222 Z" id="emoji_neutral_simple-[#462]"></path>
            </g>
        </g>
    </g>
</svg>