<?xml version="1.0" encoding="UTF-8" standalone="no"?>
<svg width="20px" height="20px" viewBox="0 0 20 20" version="1.1" xmlns="http://www.w3.org/2000/svg" xmlns:xlink="http://www.w3.org/1999/xlink">
    <!-- Generator: Sketch 3.8.1 (29687) - http://www.bohemiancoding.com/sketch -->
    <title>emoji_neutral_square_round_glasses [#447]</title>
    <desc>Created with Sketch.</desc>
    <defs></defs>
    <g id="Page-1" stroke="none" stroke-width="1" fill="none" fill-rule="evenodd">
        <g id="Dribbble-Dark-Preview" transform="translate(-100.000000, -6199.000000)" fill="#FFFFFF">
            <g id="icons" transform="translate(56.000000, 160.000000)">
                <path d="M58,6054 C58,6054.552 57.552,6055 57,6055 L51,6055 C50.448,6055 50,6054.552 50,6054 C50,6053.448 50.448,6053 51,6053 L57,6053 C57.552,6053 58,6053.448 58,6054 L58,6054 Z M46,6043 L46,6041.585 C46,6041.033 46.448,6041 47,6041 L61,6041 C61.552,6041 62,6041.033 62,6041.585 L62,6043 L46,6043 Z M58,6047.585 L58,6045 L62,6045 L62,6049 L59,6049 C58.448,6049 58,6048.137 58,6047.585 L58,6047.585 Z M62,6055.585 C62,6056.137 61.552,6057 61,6057 L47,6057 C46.448,6057 46,6056.137 46,6055.585 L46,6051 L50,6051 C51.105,6051 52,6049.69 52,6048.585 L52,6045 L56,6045 L56,6048.585 C56,6049.69 56.895,6051 58,6051 L62,6051 L62,6055.585 Z M46,6045 L50,6045 L50,6047.585 C50,6048.137 49.552,6049 49,6049 L46,6049 L46,6045 Z M62,6039 L46,6039 C44.895,6039 44,6039.48 44,6040.585 L44,6050.585 L44,6056.585 C44,6057.69 44.895,6059 46,6059 L62,6059 C63.105,6059 64,6057.69 64,6056.585 L64,6040.585 C64,6039.48 63.105,6039 62,6039 L62,6039 Z" id="emoji_neutral_square_round_glasses-[#447]"></path>
            </g>
        </g>
    </g>
</svg>