<?xml version="1.0" encoding="UTF-8" standalone="no"?>
<svg width="20px" height="20px" viewBox="0 0 20 20" version="1.1" xmlns="http://www.w3.org/2000/svg" xmlns:xlink="http://www.w3.org/1999/xlink">
    <!-- Generator: Sketch 3.8.1 (29687) - http://www.bohemiancoding.com/sketch -->
    <title>emoji_surprised [#477]</title>
    <desc>Created with Sketch.</desc>
    <defs></defs>
    <g id="Page-1" stroke="none" stroke-width="1" fill="none" fill-rule="evenodd">
        <g id="Dribbble-Dark-Preview" transform="translate(-100.000000, -6078.000000)" fill="#FFFFFF">
            <g id="icons" transform="translate(56.000000, 160.000000)">
                <path d="M56,5931.524 C56,5932.629 55.105,5933.524 54,5933.524 C52.895,5933.524 52,5932.629 52,5931.524 C52,5930.419 52.895,5929.524 54,5929.524 C55.105,5929.524 56,5930.419 56,5931.524 L56,5931.524 Z M60,5925 C60,5925.552 59.552,5926 59,5926 L57,5926 C56.448,5926 56,5925.552 56,5925 L56,5925 C56,5924.447 56.448,5924 57,5924 L59,5924 C59.552,5924 60,5924.447 60,5925 L60,5925 Z M52,5925 C52,5925.552 51.552,5926 51,5926 L49,5926 C48.448,5926 48,5925.552 48,5925 L48,5925 C48,5924.447 48.448,5924 49,5924 L51,5924 C51.552,5924 52,5924.447 52,5925 L52,5925 Z M62,5921.603 L62,5927.585 C62,5931.996 58.411,5936 54,5936 C49.589,5936 46,5931.996 46,5927.585 L46,5921.603 L46,5920.585 C46,5920.032 46.448,5920 47,5920 L48.018,5920 L54,5920 L59.982,5920 L61,5920 C61.552,5920 62,5920.032 62,5920.585 L62,5921.603 Z M62,5918 L54,5918 L46,5918 C44.895,5918 44,5918.48 44,5919.585 L44,5927.585 C44,5929.831 44.75,5931.897 46,5933.566 C46.574,5934.332 47.253,5935.011 48.018,5935.585 C49.688,5936.835 51.754,5938 54,5938 C56.246,5938 58.312,5936.835 59.982,5935.585 C60.747,5935.011 61.426,5934.332 62,5933.566 C63.25,5931.897 64,5929.831 64,5927.585 L64,5919.585 C64,5918.48 63.105,5918 62,5918 L62,5918 Z" id="emoji_surprised-[#477]"></path>
            </g>
        </g>
    </g>
</svg>