<?xml version="1.0" encoding="UTF-8" standalone="no"?>
<svg width="20px" height="20px" viewBox="0 0 20 20" version="1.1" xmlns="http://www.w3.org/2000/svg" xmlns:xlink="http://www.w3.org/1999/xlink">
    <!-- Generator: Sketch 3.8.1 (29687) - http://www.bohemiancoding.com/sketch -->
    <title>emoji_neutral_square_glasses [#418]</title>
    <desc>Created with Sketch.</desc>
    <defs></defs>
    <g id="Page-1" stroke="none" stroke-width="1" fill="none" fill-rule="evenodd">
        <g id="Dribbble-Dark-Preview" transform="translate(-60.000000, -6319.000000)" fill="#FFFFFF">
            <g id="icons" transform="translate(56.000000, 160.000000)">
                <path d="M10,6175 L18,6175 L18,6173 L10,6173 L10,6175 Z M6,6163 L22,6163 L22,6161 L6,6161 L6,6163 Z M18,6169 L22,6169 L22,6165 L18,6165 L18,6169 Z M22,6177 L6,6177 L6,6171 L12,6171 L12,6165 L16,6165 L16,6171 L22,6171 L22,6177 Z M6,6169 L10,6169 L10,6165 L6,6165 L6,6169 Z M4,6179 L24,6179 L24,6159 L4,6159 L4,6179 Z" id="emoji_neutral_square_glasses-[#418]"></path>
            </g>
        </g>
    </g>
</svg>