<?xml version="1.0" encoding="UTF-8" standalone="no"?>
<svg width="20px" height="12px" viewBox="0 0 20 12" version="1.1" xmlns="http://www.w3.org/2000/svg" xmlns:xlink="http://www.w3.org/1999/xlink">
    <!-- Generator: Sketch 3.8.1 (29687) - http://www.bohemiancoding.com/sketch -->
    <title>emoji_surprised_simple_glasses [#476]</title>
    <desc>Created with Sketch.</desc>
    <defs></defs>
    <g id="Page-1" stroke="none" stroke-width="1" fill="none" fill-rule="evenodd">
        <g id="Dribbble-Dark-Preview" transform="translate(-140.000000, -6082.000000)" fill="#FFFFFF">
            <g id="icons" transform="translate(56.000000, 160.000000)">
                <path d="M98,5928 L102,5928 L102,5924 L98,5924 L98,5928 Z M86,5928 L90,5928 L90,5924 L86,5924 L86,5928 Z M104,5922 L104,5930 L96,5930 L96,5924 L92,5924 L92,5930 L84,5930 L84,5922 L92,5922 L96,5922 L104,5922 Z M96,5931.585 C96,5932.69 95.105,5933.585 94,5933.585 C92.895,5933.585 92,5932.69 92,5931.585 C92,5930.48 92.895,5929.585 94,5929.585 C95.105,5929.585 96,5930.48 96,5931.585 L96,5931.585 Z" id="emoji_surprised_simple_glasses-[#476]"></path>
            </g>
        </g>
    </g>
</svg>