<?xml version="1.0" encoding="UTF-8" standalone="no"?>
<svg width="20px" height="20px" viewBox="0 0 20 20" version="1.1" xmlns="http://www.w3.org/2000/svg" xmlns:xlink="http://www.w3.org/1999/xlink">
    <!-- Generator: Sketch 3.8.1 (29687) - http://www.bohemiancoding.com/sketch -->
    <title>emoji_happy_square [#396]</title>
    <desc>Created with Sketch.</desc>
    <defs></defs>
    <g id="Page-1" stroke="none" stroke-width="1" fill="none" fill-rule="evenodd">
        <g id="Dribbble-Dark-Preview" transform="translate(-140.000000, -6399.000000)" fill="#FFFFFF">
            <g id="icons" transform="translate(56.000000, 160.000000)">
                <path d="M96,6247 L100,6247 L100,6245 L96,6245 L96,6247 Z M97,6250 L99,6250 C99,6256 89,6256 89,6250 L91,6250 C91,6254 97,6254 97,6250 L97,6250 Z M88,6247 L92,6247 L92,6245 L88,6245 L88,6247 Z M86,6257 L102,6257 L102,6241 L86,6241 L86,6257 Z M84,6259 L104,6259 L104,6239 L84,6239 L84,6259 Z" id="emoji_happy_square-[#396]"></path>
            </g>
        </g>
    </g>
</svg>