<?xml version="1.0" encoding="UTF-8" standalone="no"?>
<svg width="20px" height="20px" viewBox="0 0 20 20" version="1.1" xmlns="http://www.w3.org/2000/svg" xmlns:xlink="http://www.w3.org/1999/xlink">
    <!-- Generator: Sketch 3.8.1 (29687) - http://www.bohemiancoding.com/sketch -->
    <title>emoji_happy_circle [#549]</title>
    <desc>Created with Sketch.</desc>
    <defs></defs>
    <g id="Page-1" stroke="none" stroke-width="1" fill="none" fill-rule="evenodd">
        <g id="Dribbble-Dark-Preview" transform="translate(-420.000000, -5759.000000)" fill="#FFFFFF">
            <g id="icons" transform="translate(56.000000, 160.000000)">
                <path d="M380,5607 C380,5608.105 379.105,5609 378,5609 C376.895,5609 376,5608.105 376,5607 C376,5605.895 376.895,5605 378,5605 C379.105,5605 380,5605.895 380,5607 M370,5609 C368.895,5609 368,5608.105 368,5607 C368,5605.895 368.895,5605 370,5605 C371.105,5605 372,5605.895 372,5607 C372,5608.105 371.105,5609 370,5609 M369,5610.415 L379,5610.415 C379,5617.415 369,5617.415 369,5610.415 M374,5617 C369.589,5617 366,5613.411 366,5609 C366,5604.589 369.589,5601 374,5601 C378.411,5601 382,5604.589 382,5609 C382,5613.411 378.411,5617 374,5617 M374,5599 C368.477,5599 364,5603.477 364,5609 C364,5614.523 368.477,5619 374,5619 C379.523,5619 384,5614.523 384,5609 C384,5603.477 379.523,5599 374,5599" id="emoji_happy_circle-[#549]"></path>
            </g>
        </g>
    </g>
</svg>