<?xml version="1.0" encoding="UTF-8" standalone="no"?>
<svg width="20px" height="20px" viewBox="0 0 20 20" version="1.1" xmlns="http://www.w3.org/2000/svg" xmlns:xlink="http://www.w3.org/1999/xlink">
    <!-- Generator: Sketch 3.8.1 (29687) - http://www.bohemiancoding.com/sketch -->
    <title>emoji_sad [#532]</title>
    <desc>Created with Sketch.</desc>
    <defs></defs>
    <g id="Page-1" stroke="none" stroke-width="1" fill="none" fill-rule="evenodd">
        <g id="Dribbble-Dark-Preview" transform="translate(-300.000000, -5839.000000)" fill="#FFFFFF">
            <g id="icons" transform="translate(56.000000, 160.000000)">
                <path d="M259,5685 C259.552,5685 260,5685.448 260,5686 C260,5686.552 259.552,5687 259,5687 L257,5687 C256.448,5687 256,5686.552 256,5686 C256,5685.448 256.448,5685 257,5685 L259,5685 Z M248,5686 C248,5685.448 248.448,5685 249,5685 L251,5685 C251.552,5685 252,5685.448 252,5686 C252,5686.552 251.552,5687 251,5687 L249,5687 C248.448,5687 248,5686.552 248,5686 L248,5686 Z M260,5692.585 L260,5693.585 C260,5694.137 259.552,5694.689 259,5694.689 C258.448,5694.689 258,5694.345 258,5693.792 C258,5693.24 257.552,5693 257,5693 L251,5693 C250.448,5693 250,5693.24 250,5693.792 C250,5694.345 249.552,5694.585 249,5694.585 C248.448,5694.585 248,5694.137 248,5693.585 L248,5692.585 C248,5691.48 248.895,5691 250,5691 L258,5691 C259.105,5691 260,5691.48 260,5692.585 L260,5692.585 Z M262,5695.593 C262,5696.145 261.552,5697 261,5697 L247,5697 C246.448,5697 246,5696.145 246,5695.593 L246,5688.593 C246,5684.181 249.589,5681 254,5681 C258.411,5681 262,5684.181 262,5688.593 L262,5695.593 Z M259.982,5680.593 C258.312,5679.342 256.246,5679 254,5679 C246.928,5679 244,5684.252 244,5688.593 L244,5696.593 C244,5697.697 244.895,5699 246,5699 L262,5699 C263.105,5699 264,5697.697 264,5696.593 L264,5688.593 C264,5685.387 262.457,5682.446 259.982,5680.593 L259.982,5680.593 Z" id="emoji_sad-[#532]"></path>
            </g>
        </g>
    </g>
</svg>