<?xml version="1.0" encoding="UTF-8" standalone="no"?>
<svg width="20px" height="20px" viewBox="0 0 20 20" version="1.1" xmlns="http://www.w3.org/2000/svg" xmlns:xlink="http://www.w3.org/1999/xlink">
    <!-- Generator: Sketch 3.8.1 (29687) - http://www.bohemiancoding.com/sketch -->
    <title>emoji_minecraft [#496]</title>
    <desc>Created with Sketch.</desc>
    <defs></defs>
    <g id="Page-1" stroke="none" stroke-width="1" fill="none" fill-rule="evenodd">
        <g id="Dribbble-Dark-Preview" transform="translate(-140.000000, -5999.000000)" fill="#FFFFFF">
            <g id="icons" transform="translate(56.000000, 160.000000)">
                <path d="M99,5849 L96,5849 L96,5846.57 L96,5846 C96,5845.448 96.448,5845 97,5845 L99,5845 C99.552,5845 100,5845.448 100,5846 L100,5846.57 L100,5848 C100,5848.552 99.552,5849 99,5849 L99,5849 Z M92,5846.57 L92,5849 L89,5849 C88.45,5849 88,5848.55 88,5848 L88,5846.57 L88,5846 C88,5845.448 88.448,5845 89,5845 L91,5845 C91.552,5845 92,5845.448 92,5846 L92,5846.57 Z M102,5842.603 L102,5848.585 C102,5851.538 100.387,5854.117 98,5855.503 L98,5854.57 L98,5852.57 L98,5851.57 C98,5851.018 97.552,5850.57 97,5850.57 C96.448,5850.57 96,5850.122 96,5849.57 L96,5849 L92,5849 L92,5849.57 C92,5850.122 91.552,5850.57 91,5850.57 C90.448,5850.57 90,5851.018 90,5851.57 L90,5852.57 L90,5854.57 L90,5855.503 C87.613,5854.117 86,5851.538 86,5848.585 L86,5842.603 L86,5841.585 C86,5841.033 86.448,5841 87,5841 L88.018,5841 L94,5841 L99.982,5841 L101,5841 C101.552,5841 102,5841.033 102,5841.585 L102,5842.603 Z M92,5856.322 L92,5855.57 C92,5855.018 92.448,5855 93,5855 L95,5855 C95.552,5855 96,5855.018 96,5855.57 L96,5856.322 C95.359,5856.487 94.692,5857 94,5857 C93.308,5857 92.641,5856.487 92,5856.322 L92,5856.322 Z M102,5839 L94,5839 L86,5839 C84.895,5839 84,5839.48 84,5840.585 L84,5848.585 C84,5850.831 84.75,5852.897 86,5854.567 C86.574,5855.333 87.253,5856.011 88.018,5856.585 C89.688,5857.835 91.754,5859 94,5859 C96.246,5859 98.312,5857.835 99.982,5856.585 C100.747,5856.011 101.426,5855.333 102,5854.567 C103.25,5852.897 104,5850.831 104,5848.585 L104,5840.585 C104,5839.48 103.105,5839 102,5839 L102,5839 Z" id="emoji_minecraft-[#496]"></path>
            </g>
        </g>
    </g>
</svg>