<?xml version="1.0" encoding="UTF-8" standalone="no"?>
<svg width="20px" height="20px" viewBox="0 0 20 20" version="1.1" xmlns="http://www.w3.org/2000/svg" xmlns:xlink="http://www.w3.org/1999/xlink">
    <!-- Generator: Sketch 3.8.1 (29687) - http://www.bohemiancoding.com/sketch -->
    <title>emoji_surprised_square_round_glasses [#448]</title>
    <desc>Created with Sketch.</desc>
    <defs></defs>
    <g id="Page-1" stroke="none" stroke-width="1" fill="none" fill-rule="evenodd">
        <g id="Dribbble-Dark-Preview" transform="translate(-60.000000, -6199.000000)" fill="#FFFFFF">
            <g id="icons" transform="translate(56.000000, 160.000000)">
                <path d="M16,6052.585 C16,6053.69 15.105,6054.585 14,6054.585 C12.895,6054.585 12,6053.69 12,6052.585 C12,6051.48 12.895,6050.585 14,6050.585 C15.105,6050.585 16,6051.48 16,6052.585 L16,6052.585 Z M16,6043 L12,6043 L6,6043 L6,6042 C6,6041.448 6.448,6041 7,6041 L21,6041 C21.552,6041 22,6041.448 22,6042 L22,6043 L16,6043 Z M18,6049 L22,6049 L22,6045 L18,6045 L18,6049 Z M22,6055.585 C22,6056.137 21.552,6057 21,6057 L7,6057 C6.448,6057 6,6056.137 6,6055.585 L6,6051 L12,6051 L12,6045 L16,6045 L16,6051 L22,6051 L22,6055.585 Z M6,6049 L10,6049 L10,6045 L6,6045 L6,6049 Z M22,6039 L6,6039 C4.895,6039 4,6039.895 4,6041 L4,6056.585 C4,6057.913 5.087,6059 6.415,6059 L22,6059 C23.105,6059 24,6058.105 24,6057 L24,6041 C24,6039.895 23.105,6039 22,6039 L22,6039 Z" id="emoji_surprised_square_round_glasses-[#448]"></path>
            </g>
        </g>
    </g>
</svg>