<?xml version="1.0" encoding="UTF-8" standalone="no"?>
<svg width="20px" height="20px" viewBox="0 0 20 20" version="1.1" xmlns="http://www.w3.org/2000/svg" xmlns:xlink="http://www.w3.org/1999/xlink">
    <!-- Generator: Sketch 3.8.1 (29687) - http://www.bohemiancoding.com/sketch -->
    <title>emoji_happy_square [#411]</title>
    <desc>Created with Sketch.</desc>
    <defs></defs>
    <g id="Page-1" stroke="none" stroke-width="1" fill="none" fill-rule="evenodd">
        <g id="Dribbble-Dark-Preview" transform="translate(-340.000000, -6319.000000)" fill="#FFFFFF">
            <g id="icons" transform="translate(56.000000, 160.000000)">
                <path d="M296,6169 L300,6169 L300,6165 L296,6165 L296,6169 Z M288,6169 L292,6169 L292,6165 L288,6165 L288,6169 Z M298,6171 L300,6171 L300,6175 L288,6175 L288,6171 L290,6171 L290,6173 L298,6173 L298,6171 Z M286,6177 L302,6177 L302,6161 L286,6161 L286,6177 Z M284,6179 L304,6179 L304,6159 L284,6159 L284,6179 Z" id="emoji_happy_square-[#411]"></path>
            </g>
        </g>
    </g>
</svg>