<?xml version="1.0" encoding="UTF-8" standalone="no"?>
<svg width="20px" height="20px" viewBox="0 0 20 20" version="1.1" xmlns="http://www.w3.org/2000/svg" xmlns:xlink="http://www.w3.org/1999/xlink">
    <!-- Generator: Sketch 3.8.1 (29687) - http://www.bohemiancoding.com/sketch -->
    <title>emoji_tongue_sticking_out  [#502]</title>
    <desc>Created with Sketch.</desc>
    <defs></defs>
    <g id="Page-1" stroke="none" stroke-width="1" fill="none" fill-rule="evenodd">
        <g id="Dribbble-Dark-Preview" transform="translate(-300.000000, -5959.000000)" fill="#FFFFFF">
            <g id="icons" transform="translate(56.000000, 160.000000)">
                <path d="M260,5811.8415 C260,5812.3935 259.552,5812.6835 259,5812.6835 C258.448,5812.6835 258,5813.2365 258,5813.7885 C258,5814.3405 257.552,5814.9995 257,5814.9995 L255,5814.9995 C254.448,5814.9995 254,5814.5525 254,5813.9995 C254,5813.4475 253.552,5812.9995 253,5812.9995 L249,5812.9995 C248.448,5812.9995 248,5812.5525 248,5811.9995 C248,5811.4475 248.448,5810.9995 249,5810.9995 L254,5810.9995 L258,5810.9995 L259,5810.9995 C259.552,5810.9995 260,5811.2895 260,5811.8415 L260,5811.8415 Z M260,5805.9995 C260,5806.5525 259.552,5806.9995 259,5806.9995 L257,5806.9995 C256.448,5806.9995 256,5806.5525 256,5805.9995 C256,5805.4475 256.448,5804.9995 257,5804.9995 L259,5804.9995 C259.552,5804.9995 260,5805.4475 260,5805.9995 L260,5805.9995 Z M248,5805.9995 C248,5805.4475 248.448,5804.9995 249,5804.9995 L251,5804.9995 C251.552,5804.9995 252,5805.4475 252,5805.9995 C252,5806.5525 251.552,5806.9995 251,5806.9995 L249,5806.9995 C248.448,5806.9995 248,5806.5525 248,5805.9995 L248,5805.9995 Z M262,5802.6035 L262,5808.5845 C262,5812.9965 258.411,5816.9995 254,5816.9995 C249.589,5816.9995 246,5812.9965 246,5808.5845 L246,5802.6035 L246,5801.5845 C246,5801.0325 246.448,5800.9995 247,5800.9995 L248.018,5800.9995 L254,5800.9995 L259.982,5800.9995 L261,5800.9995 C261.552,5800.9995 262,5801.0325 262,5801.5845 L262,5802.6035 Z M262,5798.9995 L254,5798.9995 L246,5798.9995 C244.895,5798.9995 244,5799.4805 244,5800.5845 L244,5808.5845 C244,5810.8315 244.75,5812.8975 246,5814.5665 C246.574,5815.3325 247.253,5816.0115 248.018,5816.5845 C249.688,5817.8355 251.754,5818.9995 254,5818.9995 C256.246,5818.9995 258.312,5817.8355 259.982,5816.5845 C260.747,5816.0115 261.426,5815.3325 262,5814.5665 C263.25,5812.8975 264,5810.8315 264,5808.5845 L264,5800.5845 C264,5799.4805 263.105,5798.9995 262,5798.9995 L262,5798.9995 Z" id="emoji_tongue_sticking_out--[#502]"></path>
            </g>
        </g>
    </g>
</svg>