<?xml version="1.0" encoding="UTF-8" standalone="no"?>
<svg width="20px" height="20px" viewBox="0 0 20 20" version="1.1" xmlns="http://www.w3.org/2000/svg" xmlns:xlink="http://www.w3.org/1999/xlink">
    <!-- Generator: Sketch 3.8.1 (29687) - http://www.bohemiancoding.com/sketch -->
    <title>emoji_happy [#530]</title>
    <desc>Created with Sketch.</desc>
    <defs></defs>
    <g id="Page-1" stroke="none" stroke-width="1" fill="none" fill-rule="evenodd">
        <g id="Dribbble-Dark-Preview" transform="translate(-380.000000, -5839.000000)" fill="#FFFFFF">
            <g id="icons" transform="translate(56.000000, 160.000000)">
                <path d="M339,5685 C339.552,5685 340,5685.448 340,5686 L340,5688 C340,5688.552 339.552,5689 339,5689 L337,5689 C336.45,5689 336,5688.55 336,5688 L336,5686 C336,5685.448 336.448,5685 337,5685 L339,5685 Z M328,5688 L328,5686 C328,5685.448 328.448,5685 329,5685 L331,5685 C331.552,5685 332,5685.448 332,5686 L332,5688 C332,5688.552 331.552,5689 331,5689 L329,5689 C328.45,5689 328,5688.55 328,5688 L328,5688 Z M340,5691.585 L340,5692.585 C340,5693.69 339.105,5695 338,5695 L330,5695 C328.895,5695 328,5693.69 328,5692.585 L328,5691.585 C328,5691.033 328.448,5690.689 329,5690.689 C329.552,5690.689 330,5691.24 330,5691.792 C330,5692.345 330.448,5693 331,5693 L337,5693 C337.552,5693 338,5692.345 338,5691.792 C338,5691.24 338.448,5690.585 339,5690.585 C339.552,5690.585 340,5691.033 340,5691.585 L340,5691.585 Z M342,5695.593 C342,5696.145 341.552,5697 341,5697 L327,5697 C326.448,5697 326,5696.145 326,5695.593 L326,5688.593 C326,5684.181 329.589,5681 334,5681 C338.411,5681 342,5684.181 342,5688.593 L342,5695.593 Z M342,5682.611 C339.893,5679.798 337.445,5679 334,5679 C326.928,5679 324,5684.252 324,5688.593 L324,5696.593 C324,5697.697 324.895,5699 326,5699 L342,5699 C343.105,5699 344,5697.697 344,5696.593 L344,5688.593 C344,5686.346 343.25,5684.28 342,5682.611 L342,5682.611 Z" id="emoji_happy-[#530]"></path>
            </g>
        </g>
    </g>
</svg>