<?xml version="1.0" encoding="UTF-8" standalone="no"?>
<svg width="20px" height="20px" viewBox="0 0 20 20" version="1.1" xmlns="http://www.w3.org/2000/svg" xmlns:xlink="http://www.w3.org/1999/xlink">
    <!-- Generator: Sketch 3.8.1 (29687) - http://www.bohemiancoding.com/sketch -->
    <title>emoji_happy_circle [#546]</title>
    <desc>Created with Sketch.</desc>
    <defs></defs>
    <g id="Page-1" stroke="none" stroke-width="1" fill="none" fill-rule="evenodd">
        <g id="Dribbble-Dark-Preview" transform="translate(-140.000000, -5799.000000)" fill="#FFFFFF">
            <g id="icons" transform="translate(56.000000, 160.000000)">
                <path d="M100,5646.415 L100,5648.415 C100,5648.967 99.552,5649.415 99,5649.415 L97,5649.415 C96.45,5649.415 96,5648.965 96,5648.415 L96,5646.415 C96,5645.863 96.448,5645.415 97,5645.415 L99,5645.415 C99.552,5645.415 100,5645.863 100,5646.415 L100,5646.415 Z M89,5649.415 C88.45,5649.415 88,5648.965 88,5648.415 L88,5646.415 C88,5645.863 88.448,5645.415 89,5645.415 L91,5645.415 C91.552,5645.415 92,5645.863 92,5646.415 L92,5648.415 C92,5648.967 91.552,5649.415 91,5649.415 L89,5649.415 Z M89,5650.415 L99,5650.415 C99,5657.415 89,5657.415 89,5650.415 L89,5650.415 Z M94,5657 C89.589,5657 86,5653.411 86,5649 C86,5644.589 89.589,5641 94,5641 C98.411,5641 102,5644.589 102,5649 C102,5653.411 98.411,5657 94,5657 L94,5657 Z M94,5639 C88.477,5639 84,5643.477 84,5649 C84,5654.523 88.477,5659 94,5659 C99.523,5659 104,5654.523 104,5649 C104,5643.477 99.523,5639 94,5639 L94,5639 Z" id="emoji_happy_circle-[#546]"></path>
            </g>
        </g>
    </g>
</svg>