<?xml version="1.0" encoding="UTF-8" standalone="no"?>
<svg width="20px" height="20px" viewBox="0 0 20 20" version="1.1" xmlns="http://www.w3.org/2000/svg" xmlns:xlink="http://www.w3.org/1999/xlink">
    <!-- Generator: Sketch 3.8.1 (29687) - http://www.bohemiancoding.com/sketch -->
    <title>emoji_happy_circle [#538]</title>
    <desc>Created with Sketch.</desc>
    <defs></defs>
    <g id="Page-1" stroke="none" stroke-width="1" fill="none" fill-rule="evenodd">
        <g id="Dribbble-Dark-Preview" transform="translate(-60.000000, -5839.000000)" fill="#FFFFFF">
            <g id="icons" transform="translate(56.000000, 160.000000)">
                <path d="M18.8907,5691.156 C17.8767,5696.281 10.1227,5696.281 9.1097,5691.156 C8.9897,5690.552 9.4917,5690 10.1077,5690 C10.5887,5690 10.9807,5690.346 11.0917,5690.814 C11.7867,5693.728 16.2127,5693.728 16.9077,5690.814 C17.0197,5690.346 17.4117,5690 17.8917,5690 C18.5077,5690 19.0107,5690.552 18.8907,5691.156 M13.9997,5697 C9.5887,5697 5.9997,5693.411 5.9997,5689 C5.9997,5687.411 6.4707,5685.933 7.2727,5684.687 L8.5857,5686 L7.5857,5687 C7.1957,5687.39 7.1957,5688.023 7.5857,5688.414 C7.9767,5688.804 8.6097,5688.804 8.9997,5688.414 L9.9997,5687.414 L10.9997,5688.414 C11.3907,5688.804 12.0237,5688.804 12.4137,5688.414 L12.4137,5688.414 C12.8047,5688.023 12.8047,5687.39 12.4137,5686.999 L11.4137,5686 L12.4137,5685 C12.8047,5684.609 12.8047,5683.976 12.4137,5683.585 C12.0237,5683.195 11.3907,5683.195 10.9997,5683.585 L9.9997,5684.585 L8.5627,5683.148 C9.9917,5681.819 11.8997,5681 13.9997,5681 C16.1007,5681 18.0087,5681.819 19.4367,5683.148 L17.9997,5684.585 L16.9997,5683.585 C16.6097,5683.195 15.9767,5683.195 15.5857,5683.585 L15.5857,5683.585 C15.1957,5683.976 15.1957,5684.609 15.5857,5685 L16.5857,5686 L15.5857,5687 C15.1957,5687.39 15.1957,5688.023 15.5857,5688.414 C15.9767,5688.804 16.6097,5688.804 16.9997,5688.414 L17.9997,5687.414 L18.9997,5688.414 C19.3907,5688.804 20.0237,5688.804 20.4137,5688.414 L20.4137,5688.414 C20.8047,5688.023 20.8047,5687.39 20.4137,5686.999 L19.4137,5686 L20.7267,5684.687 C21.5287,5685.933 21.9997,5687.411 21.9997,5689 C21.9997,5693.411 18.4107,5697 13.9997,5697 M13.9997,5679 C8.4767,5679 3.9997,5683.477 3.9997,5689 C3.9997,5694.522 8.4767,5699 13.9997,5699 C19.5227,5699 23.9997,5694.522 23.9997,5689 C23.9997,5683.477 19.5227,5679 13.9997,5679" id="emoji_happy_circle-[#538]"></path>
            </g>
        </g>
    </g>
</svg>