<?xml version="1.0" encoding="UTF-8" standalone="no"?>
<svg width="20px" height="20px" viewBox="0 0 20 20" version="1.1" xmlns="http://www.w3.org/2000/svg" xmlns:xlink="http://www.w3.org/1999/xlink">
    <!-- Generator: Sketch 3.8.1 (29687) - http://www.bohemiancoding.com/sketch -->
    <title>emoji_happy_square [#414]</title>
    <desc>Created with Sketch.</desc>
    <defs></defs>
    <g id="Page-1" stroke="none" stroke-width="1" fill="none" fill-rule="evenodd">
        <g id="Dribbble-Dark-Preview" transform="translate(-220.000000, -6319.000000)" fill="#FFFFFF">
            <g id="icons" transform="translate(56.000000, 160.000000)">
                <path d="M176,6167 L180,6167 L180,6165 L176,6165 L176,6167 Z M168,6167 L172,6167 L172,6165 L168,6165 L168,6167 Z M178,6171 L180,6171 L180,6175 L168,6175 L168,6171 L170,6171 L170,6173 L178,6173 L178,6171 Z M166,6177 L182,6177 L182,6161 L166,6161 L166,6177 Z M164,6179 L184,6179 L184,6159 L164,6159 L164,6179 Z" id="emoji_happy_square-[#414]"></path>
            </g>
        </g>
    </g>
</svg>