<?xml version="1.0" encoding="UTF-8" standalone="no"?>
<svg width="20px" height="20px" viewBox="0 0 20 20" version="1.1" xmlns="http://www.w3.org/2000/svg" xmlns:xlink="http://www.w3.org/1999/xlink">
    <!-- Generator: Sketch 3.8.1 (29687) - http://www.bohemiancoding.com/sketch -->
    <title>emoji_happy [#480]</title>
    <desc>Created with Sketch.</desc>
    <defs></defs>
    <g id="Page-1" stroke="none" stroke-width="1" fill="none" fill-rule="evenodd">
        <g id="Dribbble-Dark-Preview" transform="translate(-380.000000, -6039.000000)" fill="#FFFFFF">
            <g id="icons" transform="translate(56.000000, 160.000000)">
                <path d="M338.8927,5891.0128 C337.8857,5896.1498 330.1137,5896.0158 329.1077,5890.8788 C328.9897,5890.2798 329.4877,5889.9998 330.0977,5889.9998 L330.1147,5889.9998 C330.5917,5889.9998 330.9807,5890.2098 331.0907,5890.6738 C331.7807,5893.5968 336.2197,5893.4628 336.9097,5890.5398 C337.0197,5890.0758 337.4087,5889.9998 337.8847,5889.9998 L337.9027,5889.9998 C338.5127,5889.9998 339.0097,5890.4138 338.8927,5891.0128 L338.8927,5891.0128 Z M340.4147,5884.4638 L339.4147,5885.4638 L340.4147,5886.4638 C340.8047,5886.8538 340.8047,5887.4878 340.4147,5887.8778 L340.4137,5887.8778 C340.0237,5888.2688 339.3907,5888.2688 338.9997,5887.8778 L337.9997,5886.8778 L336.9997,5887.8778 C336.6097,5888.2688 335.9767,5888.2688 335.5857,5887.8778 C335.1957,5887.4878 335.1957,5886.8538 335.5857,5886.4638 L336.5857,5885.4638 L335.5857,5884.4638 C335.1957,5884.0728 335.1957,5883.4398 335.5857,5883.0498 L335.5857,5883.0498 C335.9767,5882.6588 336.6097,5882.6588 336.9997,5883.0498 L337.9997,5884.0498 L338.9997,5883.0498 C339.3907,5882.6588 340.0237,5882.6588 340.4137,5883.0498 L340.4147,5883.0498 C340.8047,5883.4398 340.8047,5884.0728 340.4147,5884.4638 L340.4147,5884.4638 Z M329.9997,5886.8778 L328.9997,5887.8778 C328.6097,5888.2688 327.9767,5888.2688 327.5857,5887.8778 C327.1957,5887.4878 327.1957,5886.8538 327.5857,5886.4638 L328.5857,5885.4638 L327.5857,5884.4638 C327.1957,5884.0728 327.1957,5883.4398 327.5857,5883.0498 L327.5857,5883.0498 C327.9767,5882.6588 328.6097,5882.6588 328.9997,5883.0498 L329.9997,5884.0498 L330.9997,5883.0498 C331.3907,5882.6588 332.0237,5882.6588 332.4137,5883.0498 L332.4147,5883.0498 C332.8047,5883.4398 332.8047,5884.0728 332.4147,5884.4638 L331.4147,5885.4638 L332.4147,5886.4638 C332.8047,5886.8538 332.8047,5887.4878 332.4147,5887.8778 L332.4137,5887.8778 C332.0237,5888.2688 331.3907,5888.2688 330.9997,5887.8778 L329.9997,5886.8778 Z M341.9997,5882.6028 L341.9997,5888.5848 C341.9997,5892.9958 338.4107,5896.9998 333.9997,5896.9998 C329.5887,5896.9998 325.9997,5892.9958 325.9997,5888.5848 L325.9997,5882.6028 L325.9997,5881.5848 C325.9997,5881.0328 326.4477,5880.9998 326.9997,5880.9998 L328.0187,5880.9998 L333.9997,5880.9998 L339.9817,5880.9998 L340.9997,5880.9998 C341.5527,5880.9998 341.9997,5881.0328 341.9997,5881.5848 L341.9997,5882.6028 Z M341.9997,5878.9998 L333.9997,5878.9998 L325.9997,5878.9998 C324.8957,5878.9998 323.9997,5879.4808 323.9997,5880.5848 L323.9997,5888.5848 C323.9997,5890.8308 324.7497,5892.8978 325.9997,5894.5668 C326.5737,5895.3328 327.2527,5896.0118 328.0187,5896.5848 C329.6877,5897.8358 331.7537,5898.9998 333.9997,5898.9998 C336.2467,5898.9998 338.3127,5897.8358 339.9817,5896.5848 C340.7477,5896.0118 341.4267,5895.3328 341.9997,5894.5668 C343.2507,5892.8978 343.9997,5890.8308 343.9997,5888.5848 L343.9997,5880.5848 C343.9997,5879.4808 343.1047,5878.9998 341.9997,5878.9998 L341.9997,5878.9998 Z" id="emoji_happy-[#480]"></path>
            </g>
        </g>
    </g>
</svg>