<?xml version="1.0" encoding="UTF-8" standalone="no"?>
<svg width="20px" height="20px" viewBox="0 0 20 20" version="1.1" xmlns="http://www.w3.org/2000/svg" xmlns:xlink="http://www.w3.org/1999/xlink">
    <!-- Generator: Sketch 3.8.1 (29687) - http://www.bohemiancoding.com/sketch -->
    <title>emoji_happy [#481]</title>
    <desc>Created with Sketch.</desc>
    <defs></defs>
    <g id="Page-1" stroke="none" stroke-width="1" fill="none" fill-rule="evenodd">
        <g id="Dribbble-Dark-Preview" transform="translate(-340.000000, -6039.000000)" fill="#FFFFFF">
            <g id="icons" transform="translate(56.000000, 160.000000)">
                <path d="M300,5886 L300,5888 C300,5888.552 299.552,5889 299,5889 L297,5889 C296.45,5889 296,5888.55 296,5888 L296,5886 C296,5885.448 296.448,5885 297,5885 L299,5885 C299.552,5885 300,5885.448 300,5886 L300,5886 Z M291,5889 L289,5889 C288.45,5889 288,5888.55 288,5888 L288,5886 C288,5885.448 288.448,5885 289,5885 L291,5885 C291.552,5885 292,5885.448 292,5886 L292,5888 C292,5888.552 291.552,5889 291,5889 L291,5889 Z M298.893,5891.028 C297.886,5896.165 290.114,5896.046 289.107,5890.909 C288.99,5890.31 289.487,5890 290.098,5890 L290.115,5890 C290.591,5890 290.981,5890.225 291.09,5890.689 C291.781,5893.612 296.22,5893.493 296.91,5890.57 C297.019,5890.106 297.409,5890 297.885,5890 L297.902,5890 C298.513,5890 299.01,5890.429 298.893,5891.028 L298.893,5891.028 Z M302,5882.603 L302,5888.585 C302,5892.996 298.411,5897 294,5897 C289.589,5897 286,5892.996 286,5888.585 L286,5881.585 C286,5881.033 286.448,5881 287,5881 L299.982,5881 L301,5881 C301.552,5881 302,5881.033 302,5881.585 L302,5882.603 Z M302,5879 L286,5879 C284.895,5879 284,5879.48 284,5880.585 L284,5888.585 C284,5891.79 285.543,5894.731 288.018,5896.585 C289.688,5897.835 291.754,5899 294,5899 C296.246,5899 298.312,5897.835 299.982,5896.585 C302.452,5894.735 304,5891.797 304,5888.585 L304,5880.585 C304,5879.48 303.105,5879 302,5879 L302,5879 Z" id="emoji_happy-[#481]"></path>
            </g>
        </g>
    </g>
</svg>