<?xml version="1.0" encoding="UTF-8" standalone="no"?>
<svg width="20px" height="20px" viewBox="0 0 20 20" version="1.1" xmlns="http://www.w3.org/2000/svg" xmlns:xlink="http://www.w3.org/1999/xlink">
    <!-- Generator: Sketch 3.8.1 (29687) - http://www.bohemiancoding.com/sketch -->
    <title>emoji_sad [#515]</title>
    <desc>Created with Sketch.</desc>
    <defs></defs>
    <g id="Page-1" stroke="none" stroke-width="1" fill="none" fill-rule="evenodd">
        <g id="Dribbble-Dark-Preview" transform="translate(-180.000000, -5919.000000)" fill="#FFFFFF">
            <g id="icons" transform="translate(56.000000, 160.000000)">
                <path d="M140,5766.0001 C140,5766.5521 139.552,5767.0001 139,5767.0001 L137,5767.0001 C136.448,5767.0001 136,5766.5521 136,5766.0001 L136,5766.0001 C136,5765.4481 136.448,5765.0001 137,5765.0001 L139,5765.0001 C139.552,5765.0001 140,5765.4481 140,5766.0001 L140,5766.0001 Z M138.893,5773.7491 C139.01,5774.3481 138.513,5775.0001 137.902,5775.0001 L137.885,5775.0001 C137.409,5775.0001 137.019,5774.5521 136.91,5774.0891 C136.22,5771.1651 131.78,5771.0621 131.09,5773.9851 C130.981,5774.4491 130.591,5775.0001 130.115,5775.0001 L130.098,5775.0001 C129.487,5775.0001 128.99,5774.2451 129.107,5773.6461 C130.114,5768.5081 137.886,5768.6121 138.893,5773.7491 L138.893,5773.7491 Z M132,5766.0001 C132,5766.5521 131.552,5767.0001 131,5767.0001 L129,5767.0001 C128.448,5767.0001 128,5766.5521 128,5766.0001 C128,5765.4481 128.448,5765.0001 129,5765.0001 L131,5765.0001 C131.552,5765.0001 132,5765.4481 132,5766.0001 L132,5766.0001 Z M142,5775.5851 C142,5776.1371 141.552,5777.0001 141,5777.0001 L127,5777.0001 C126.448,5777.0001 126,5776.1371 126,5775.5851 L126,5768.5851 C126,5764.1741 129.589,5761.0001 134,5761.0001 C138.411,5761.0001 142,5764.1741 142,5768.5851 L142,5775.5851 Z M142,5762.6031 C139.89,5759.7851 137.453,5759.0001 134,5759.0001 C130.546,5759.0001 128.11,5759.7861 126,5762.6031 C124.75,5764.2731 124,5766.3391 124,5768.5851 L124,5776.5851 C124,5777.6891 124.895,5779.0001 126,5779.0001 L142,5779.0001 C143.105,5779.0001 144,5777.6891 144,5776.5851 L144,5768.5851 C144,5766.3391 143.25,5764.2731 142,5762.6031 L142,5762.6031 Z" id="emoji_sad-[#515]"></path>
            </g>
        </g>
    </g>
</svg>