<?xml version="1.0" encoding="UTF-8" standalone="no"?>
<svg width="20px" height="20px" viewBox="0 0 20 20" version="1.1" xmlns="http://www.w3.org/2000/svg" xmlns:xlink="http://www.w3.org/1999/xlink">
    <!-- Generator: Sketch 3.8.1 (29687) - http://www.bohemiancoding.com/sketch -->
    <title>emoji_neutral [#505]</title>
    <desc>Created with Sketch.</desc>
    <defs></defs>
    <g id="Page-1" stroke="none" stroke-width="1" fill="none" fill-rule="evenodd">
        <g id="Dribbble-Dark-Preview" transform="translate(-180.000000, -5959.000000)" fill="#FFFFFF">
            <g id="icons" transform="translate(56.000000, 160.000000)">
                <path d="M130,5815 L138,5815 L138,5813 L130,5813 L130,5815 Z M136,5803 L132,5803 L126,5803 L126,5801.585 C126,5801.033 126.448,5801 127,5801 L128.018,5801 L134,5801 L139.982,5801 L141,5801 C141.552,5801 142,5801.033 142,5801.585 L142,5803 L136,5803 Z M138,5809 L142,5809 L142,5805 L138,5805 L138,5809 Z M134,5817.416 C130.259,5817.416 127.118,5814 126.248,5811 L132,5811 L132,5805 L136,5805 L136,5811 L141.752,5811 C140.882,5814 137.741,5817.416 134,5817.416 L134,5817.416 Z M126,5809 L130,5809 L130,5805 L126,5805 L126,5809 Z M142,5799 L134,5799 L126,5799 C124.895,5799 124,5799.48 124,5800.585 L124,5802.524 L124,5808.585 L124,5811 L124.198,5811 C124.495,5812 125.12,5813.629 126,5814.805 C126.574,5815.57 127.253,5816.13 128.018,5816.704 C129.688,5817.954 131.754,5819 134,5819 C136.246,5819 138.312,5817.865 139.982,5816.615 C140.747,5816.041 141.426,5815.585 142,5814.819 C142.88,5813.644 143.505,5812 143.802,5811 L144,5811 L144,5808.585 L144,5802.524 L144,5800.585 C144,5799.48 143.105,5799 142,5799 L142,5799 Z" id="emoji_neutral-[#505]"></path>
            </g>
        </g>
    </g>
</svg>