<?xml version="1.0" encoding="UTF-8" standalone="no"?>
<svg width="20px" height="20px" viewBox="0 0 20 20" version="1.1" xmlns="http://www.w3.org/2000/svg" xmlns:xlink="http://www.w3.org/1999/xlink">
    <!-- Generator: Sketch 3.8.1 (29687) - http://www.bohemiancoding.com/sketch -->
    <title>emoji_surprised [#510]</title>
    <desc>Created with Sketch.</desc>
    <defs></defs>
    <g id="Page-1" stroke="none" stroke-width="1" fill="none" fill-rule="evenodd">
        <g id="Dribbble-Dark-Preview" transform="translate(-380.000000, -5919.000000)" fill="#FFFFFF">
            <g id="icons" transform="translate(56.000000, 160.000000)">
                <path d="M336,5772.585 C336,5773.69 335.105,5774.585 334,5774.585 C332.895,5774.585 332,5773.69 332,5772.585 C332,5771.48 332.895,5770.585 334,5770.585 C335.105,5770.585 336,5771.48 336,5772.585 L336,5772.585 Z M339,5765 C339.552,5765 340,5765.448 340,5766 L340,5768 C340,5768.552 339.552,5769 339,5769 L337,5769 C336.45,5769 336,5768.55 336,5768 L336,5766 C336,5765.448 336.448,5765 337,5765 L339,5765 Z M332,5768 C332,5768.552 331.552,5769 331,5769 L329,5769 C328.45,5769 328,5768.55 328,5768 L328,5766 C328,5765.448 328.448,5765 329,5765 L331,5765 C331.552,5765 332,5765.448 332,5766 L332,5768 Z M342,5775.615 C342,5776.168 341.552,5777 341,5777 L327,5777 C326.448,5777 326,5776.168 326,5775.615 L326,5768.615 C326,5764.204 329.589,5761 334,5761 C338.411,5761 342,5764.204 342,5768.615 L342,5775.615 Z M339.982,5760.615 C338.312,5759.365 336.246,5759 334,5759 C330.53,5759 328.074,5759.864 326,5762.634 C324.75,5764.303 324,5766.369 324,5768.615 L324,5776.615 C324,5777.72 324.895,5779 326,5779 L342,5779 C343.105,5779 344,5777.72 344,5776.615 L344,5768.615 C344,5765.41 342.457,5762.469 339.982,5760.615 L339.982,5760.615 Z" id="emoji_surprised-[#510]"></path>
            </g>
        </g>
    </g>
</svg>