<?xml version="1.0" encoding="UTF-8" standalone="no"?>
<svg width="20px" height="20px" viewBox="0 0 20 20" version="1.1" xmlns="http://www.w3.org/2000/svg" xmlns:xlink="http://www.w3.org/1999/xlink">
    <!-- Generator: Sketch 3.8.1 (29687) - http://www.bohemiancoding.com/sketch -->
    <title>emoji_sad_square_round [#428]</title>
    <desc>Created with Sketch.</desc>
    <defs></defs>
    <g id="Page-1" stroke="none" stroke-width="1" fill="none" fill-rule="evenodd">
        <g id="Dribbble-Dark-Preview" transform="translate(-60.000000, -6279.000000)" fill="#FFFFFF">
            <g id="icons" transform="translate(56.000000, 160.000000)">
                <path d="M20,6126 C20,6126.552 19.552,6127 19,6127 L17,6127 C16.448,6127 16,6126.552 16,6126 C16,6125.448 16.448,6125 17,6125 L19,6125 C19.552,6125 20,6125.448 20,6126 L20,6126 Z M9.107,6133.749 C10.114,6128.612 17.886,6128.508 18.893,6133.646 C19.01,6134.245 18.513,6135 17.902,6135 L17.885,6135 C17.409,6135 17.019,6134.553 16.91,6134.089 C16.219,6131.165 11.781,6131.062 11.09,6133.985 C10.981,6134.449 10.591,6135 10.115,6135 L10.098,6135 C9.487,6135 8.99,6134.348 9.107,6133.749 L9.107,6133.749 Z M12,6126 C12,6126.552 11.552,6127 11,6127 L9,6127 C8.448,6127 8,6126.552 8,6126 C8,6125.448 8.448,6125 9,6125 L11,6125 C11.552,6125 12,6125.448 12,6126 L12,6126 Z M22,6136 C22,6136.552 21.552,6137 21,6137 L7,6137 C6.448,6137 6,6136.552 6,6136 L6,6122 C6,6121.448 6.448,6121 7,6121 L21,6121 C21.552,6121 22,6121.448 22,6122 L22,6136 Z M24,6121 C24,6119.895 23.105,6119 22,6119 L6,6119 C4.895,6119 4,6119.895 4,6121 L4,6137 C4,6138.105 4.895,6139 6,6139 L22,6139 C23.105,6139 24,6138.105 24,6137 L24,6121 Z" id="emoji_sad_square_round-[#428]"></path>
            </g>
        </g>
    </g>
</svg>