<?xml version="1.0" encoding="UTF-8" standalone="no"?>
<svg width="20px" height="20px" viewBox="0 0 20 20" version="1.1" xmlns="http://www.w3.org/2000/svg" xmlns:xlink="http://www.w3.org/1999/xlink">
    <!-- Generator: Sketch 3.8.1 (29687) - http://www.bohemiancoding.com/sketch -->
    <title>emoji_surprised_missing [#585]</title>
    <desc>Created with Sketch.</desc>
    <defs></defs>
    <g id="Page-1" stroke="none" stroke-width="1" fill="none" fill-rule="evenodd">
        <g id="Dribbble-Dark-Preview" transform="translate(-180.000000, -5639.000000)" fill="#FFFFFF">
            <g id="icons" transform="translate(56.000000, 160.000000)">
                <path d="M142,5493 L144,5493 L144,5485 L142,5485 L142,5493 Z M142,5497 L140,5497 L140,5499 L144,5499 L144,5495 L142,5495 L142,5497 Z M140,5479 L140,5481 L142,5481 L142,5483 L144,5483 L144,5479 L140,5479 Z M124,5493 L126,5493 L126,5485 L124,5485 L124,5493 Z M126,5495 L124,5495 L124,5499 L128,5499 L128,5497 L126,5497 L126,5495 Z M126,5481 L128,5481 L128,5479 L124,5479 L124,5483 L126,5483 L126,5481 Z M130,5499 L138,5499 L138,5497 L130,5497 L130,5499 Z M130,5481 L138,5481 L138,5479 L130,5479 L130,5481 Z M134.167,5490.772 C133.062,5490.772 132.167,5491.668 132.167,5492.772 C132.167,5493.877 133.062,5494.772 134.167,5494.772 C135.271,5494.772 136.167,5493.877 136.167,5492.772 C136.167,5491.668 135.271,5490.772 134.167,5490.772 L134.167,5490.772 Z M136,5489 L140,5489 L140,5485 L136,5485 L136,5489 Z M128,5489 L132,5489 L132,5485 L128,5485 L128,5489 Z" id="emoji_surprised_missing-[#585]"></path>
            </g>
        </g>
    </g>
</svg>