<?xml version="1.0" encoding="UTF-8" standalone="no"?>
<svg width="20px" height="20px" viewBox="0 0 20 20" version="1.1" xmlns="http://www.w3.org/2000/svg" xmlns:xlink="http://www.w3.org/1999/xlink">
    <!-- Generator: Sketch 3.8.1 (29687) - http://www.bohemiancoding.com/sketch -->
    <title>emoji_sad [#484]</title>
    <desc>Created with Sketch.</desc>
    <defs></defs>
    <g id="Page-1" stroke="none" stroke-width="1" fill="none" fill-rule="evenodd">
        <g id="Dribbble-Dark-Preview" transform="translate(-220.000000, -6039.000000)" fill="#FFFFFF">
            <g id="icons" transform="translate(56.000000, 160.000000)">
                <path d="M180,5886 L180,5888 C180,5888.552 179.552,5889 179,5889 L177,5889 C176.45,5889 176,5888.55 176,5888 L176,5886 C176,5885.448 176.448,5885 177,5885 L179,5885 C179.552,5885 180,5885.448 180,5886 L180,5886 Z M171,5889 L169,5889 C168.45,5889 168,5888.55 168,5888 L168,5886 C168,5885.448 168.448,5885 169,5885 L171,5885 C171.552,5885 172,5885.448 172,5886 L172,5888 C172,5888.552 171.552,5889 171,5889 L171,5889 Z M178.893,5893.719 C179.01,5894.318 178.513,5895 177.902,5895 L177.885,5895 C177.409,5895 177.019,5894.522 176.91,5894.058 C176.22,5891.135 171.781,5891.001 171.09,5893.924 C170.981,5894.388 170.591,5895 170.115,5895 L170.098,5895 C169.487,5895 168.99,5894.184 169.107,5893.585 C170.114,5888.447 177.886,5888.582 178.893,5893.719 L178.893,5893.719 Z M182,5888.585 C182,5892.996 178.411,5897 174,5897 C169.589,5897 166,5892.996 166,5888.585 L166,5881.585 C166,5881.033 166.448,5881 167,5881 L181,5881 C181.552,5881 182,5881.033 182,5881.585 L182,5888.585 Z M182,5879 L166,5879 C164.895,5879 164,5879.48 164,5880.585 L164,5888.585 C164,5890.831 164.75,5892.897 166,5894.567 C167.666,5896.791 171.088,5899 174,5899 C177.603,5899 184,5895.277 184,5888.585 L184,5880.585 C184,5879.48 183.105,5879 182,5879 L182,5879 Z" id="emoji_sad-[#484]"></path>
            </g>
        </g>
    </g>
</svg>