<?xml version="1.0" encoding="UTF-8" standalone="no"?>
<svg width="20px" height="20px" viewBox="0 0 20 20" version="1.1" xmlns="http://www.w3.org/2000/svg" xmlns:xlink="http://www.w3.org/1999/xlink">
    <!-- Generator: Sketch 3.8.1 (29687) - http://www.bohemiancoding.com/sketch -->
    <title>emoji_tongue_sticking_out [#534]</title>
    <desc>Created with Sketch.</desc>
    <defs></defs>
    <g id="Page-1" stroke="none" stroke-width="1" fill="none" fill-rule="evenodd">
        <g id="Dribbble-Dark-Preview" transform="translate(-220.000000, -5839.000000)" fill="#FFFFFF">
            <g id="icons" transform="translate(56.000000, 160.000000)">
                <path d="M179.960527,5691.844 C179.960527,5692.396 179.515577,5692.688 178.967334,5692.688 C178.419091,5692.688 177.97414,5693.24 177.97414,5693.792 C177.97414,5694.344 177.52919,5695 176.980947,5695 L174.99456,5695 C174.446317,5695 174.001366,5694.552 174.001366,5694 C174.001366,5693.447 173.556415,5693 173.008173,5693 L169.035398,5693 C168.487156,5693 168.042205,5692.552 168.042205,5692 C168.042205,5691.447 168.487156,5691 169.035398,5691 L174.001366,5691 L177.97414,5691 L178.967334,5691 C179.515577,5691 179.960527,5691.292 179.960527,5691.844 L179.960527,5691.844 Z M178.967334,5685 C179.515577,5685 179.960527,5685.447 179.960527,5686 C179.960527,5686.552 179.515577,5687 178.967334,5687 L176.980947,5687 C176.432704,5687 175.987753,5686.552 175.987753,5686 C175.987753,5685.447 176.432704,5685 176.980947,5685 L178.967334,5685 Z M168.042205,5686 C168.042205,5685.447 168.487156,5685 169.035398,5685 L171.021786,5685 C171.570028,5685 172.014979,5685.447 172.014979,5686 C172.014979,5686.552 171.570028,5687 171.021786,5687 L169.035398,5687 C168.487156,5687 168.042205,5686.552 168.042205,5686 L168.042205,5686 Z M181.946914,5695.592 C181.946914,5696.144 181.501964,5697 180.953721,5697 L167.049011,5697 C166.500769,5697 166.055818,5696.144 166.055818,5695.592 L166.055818,5688.592 C166.055818,5684.181 169.620389,5681 174.001366,5681 C178.382343,5681 181.946914,5684.181 181.946914,5688.592 L181.946914,5695.592 Z M179.94265,5680.592 C178.284017,5679.342 176.232079,5679 174.001366,5679 C171.770653,5679 169.718716,5679.342 168.060082,5680.592 C163.142781,5684.3 164.069431,5689.028 164.069431,5696.592 C164.069431,5697.697 164.958339,5699 166.055818,5699 L181.946914,5699 C183.044393,5699 183.933301,5697.697 183.933301,5696.592 C183.933301,5689.109 184.843067,5684.288 179.94265,5680.592 L179.94265,5680.592 Z" id="emoji_tongue_sticking_out-[#534]"></path>
            </g>
        </g>
    </g>
</svg>