<?xml version="1.0" encoding="UTF-8" standalone="no"?>
<svg width="20px" height="20px" viewBox="0 0 20 20" version="1.1" xmlns="http://www.w3.org/2000/svg" xmlns:xlink="http://www.w3.org/1999/xlink">
    <!-- Generator: Sketch 3.8.1 (29687) - http://www.bohemiancoding.com/sketch -->
    <title>emoji_neutral [#571]</title>
    <desc>Created with Sketch.</desc>
    <defs></defs>
    <g id="Page-1" stroke="none" stroke-width="1" fill="none" fill-rule="evenodd">
        <g id="Dribbble-Dark-Preview" transform="translate(-340.000000, -5679.000000)" fill="#FFFFFF">
            <g id="icons" transform="translate(56.000000, 160.000000)">
                <path d="M302,5531 L296,5531 L296,5525 L292,5525 L292,5531 L286,5531 L286,5535.615 C286,5536.168 286.448,5537 287,5537 L301,5537 C301.552,5537 302,5536.168 302,5535.615 L302,5531 Z M286,5525 L286,5529 L286.002,5529 L290,5529 L290,5525 L286,5525 Z M288.76,5523 L292,5523 L296,5523 L299.24,5523 C297.835,5521 296.005,5520.792 294,5520.792 C291.995,5520.792 290.165,5521 288.76,5523 L288.76,5523 Z M298,5525 L298,5529 L301.998,5529 L302,5529 L302,5525 L298,5525 Z M304,5523 L304,5536.615 C304,5537.72 303.105,5539 302,5539 L286,5539 C284.895,5539 284,5537.72 284,5536.615 L284,5523 L286.042,5523 C286.607,5522 287.27,5521.435 288.018,5520.875 C289.688,5519.624 291.754,5519 294,5519 C296.246,5519 298.312,5519.572 299.982,5520.823 C300.73,5521.383 301.393,5522 301.958,5523 L304,5523 Z M296,5534 C296,5534.552 295.552,5535 295,5535 L293,5535 C292.448,5535 292,5534.552 292,5534 C292,5533.448 292.448,5533 293,5533 L295,5533 C295.552,5533 296,5533.448 296,5534 L296,5534 Z" id="emoji_neutral-[#571]"></path>
            </g>
        </g>
    </g>
</svg>