<?xml version="1.0" encoding="UTF-8" standalone="no"?>
<svg width="20px" height="20px" viewBox="0 0 20 20" version="1.1" xmlns="http://www.w3.org/2000/svg" xmlns:xlink="http://www.w3.org/1999/xlink">
    <!-- Generator: Sketch 3.8.1 (29687) - http://www.bohemiancoding.com/sketch -->
    <title>emoji_sad_square [#410]</title>
    <desc>Created with Sketch.</desc>
    <defs></defs>
    <g id="Page-1" stroke="none" stroke-width="1" fill="none" fill-rule="evenodd">
        <g id="Dribbble-Dark-Preview" transform="translate(-380.000000, -6319.000000)" fill="#FFFFFF">
            <g id="icons" transform="translate(56.000000, 160.000000)">
                <path d="M336,6169 L340,6169 L340,6165 L336,6165 L336,6169 Z M328,6169 L332,6169 L332,6165 L328,6165 L328,6169 Z M330,6175 L328,6175 L328,6171 L340,6171 L340,6175 L338,6175 L338,6173 L330,6173 L330,6175 Z M326,6177 L342,6177 L342,6161 L326,6161 L326,6177 Z M324,6179 L344,6179 L344,6159 L324,6159 L324,6179 Z" id="emoji_sad_square-[#410]"></path>
            </g>
        </g>
    </g>
</svg>