<?xml version="1.0" encoding="UTF-8" standalone="no"?>
<svg width="20px" height="20px" viewBox="0 0 20 20" version="1.1" xmlns="http://www.w3.org/2000/svg" xmlns:xlink="http://www.w3.org/1999/xlink">
    <!-- Generator: Sketch 3.8.1 (29687) - http://www.bohemiancoding.com/sketch -->
    <title>emoji_neutral_circle [#551]</title>
    <desc>Created with Sketch.</desc>
    <defs></defs>
    <g id="Page-1" stroke="none" stroke-width="1" fill="none" fill-rule="evenodd">
        <g id="Dribbble-Dark-Preview" transform="translate(-340.000000, -5759.000000)" fill="#FFFFFF">
            <g id="icons" transform="translate(56.000000, 160.000000)">
                <path d="M300,5608.415 C300,5608.967 299.552,5609.415 299,5609.415 L297,5609.415 C296.448,5609.415 296,5608.967 296,5608.415 L296,5606.415 C296,5605.863 296.448,5605.415 297,5605.415 L299,5605.415 C299.552,5605.415 300,5605.863 300,5606.415 L300,5608.415 Z M300,5612.415 C300,5612.967 299.552,5613.415 299,5613.415 L289,5613.415 C288.448,5613.415 288,5612.967 288,5612.415 C288,5611.863 288.448,5611.415 289,5611.415 L299,5611.415 C299.552,5611.415 300,5611.863 300,5612.415 L300,5612.415 Z M292,5608.415 C292,5608.967 291.552,5609.415 291,5609.415 L289,5609.415 C288.448,5609.415 288,5608.967 288,5608.415 L288,5606.415 C288,5605.863 288.448,5605.415 289,5605.415 L291,5605.415 C291.552,5605.415 292,5605.863 292,5606.415 L292,5608.415 Z M294,5617 C289.589,5617 286,5613.411 286,5609 C286,5604.589 289.589,5601 294,5601 C298.411,5601 302,5604.589 302,5609 C302,5613.411 298.411,5617 294,5617 L294,5617 Z M294,5599 C288.477,5599 284,5603.477 284,5609 C284,5614.523 288.477,5619 294,5619 C299.523,5619 304,5614.523 304,5609 C304,5603.477 299.523,5599 294,5599 L294,5599 Z" id="emoji_neutral_circle-[#551]"></path>
            </g>
        </g>
    </g>
</svg>