<?xml version="1.0" encoding="UTF-8" standalone="no"?>
<svg width="20px" height="20px" viewBox="0 0 20 20" version="1.1" xmlns="http://www.w3.org/2000/svg" xmlns:xlink="http://www.w3.org/1999/xlink">
    <!-- Generator: Sketch 3.8.1 (29687) - http://www.bohemiancoding.com/sketch -->
    <title>emoji_minecraft [#528]</title>
    <desc>Created with Sketch.</desc>
    <defs></defs>
    <g id="Page-1" stroke="none" stroke-width="1" fill="none" fill-rule="evenodd">
        <g id="Dribbble-Dark-Preview" transform="translate(-60.000000, -5879.000000)" fill="#FFFFFF">
            <g id="icons" transform="translate(56.000000, 160.000000)">
                <path d="M19,5729 L16,5729 L16,5726 C16,5725.448 16.448,5725 17,5725 L19,5725 C19.552,5725 20,5725.448 20,5726 L20,5728 C20,5728.552 19.552,5729 19,5729 L19,5729 Z M12,5729 L9,5729 C8.45,5729 8,5728.55 8,5728 L8,5726 C8,5725.448 8.448,5725 9,5725 L11,5725 C11.552,5725 12,5725.448 12,5726 L12,5729 Z M22,5735.6 C22,5736.152 21.552,5737 21,5737 L18,5737 L18,5731.585 C18,5731.033 17.552,5730.585 17,5730.585 C16.448,5730.585 16,5730.137 16,5729.585 L16,5729 L12,5729 L12,5729.585 C12,5730.137 11.552,5730.585 11,5730.585 C10.448,5730.585 10,5731.033 10,5731.585 L10,5737 L7,5737 C6.448,5737 6,5736.152 6,5735.6 L6,5728.6 C6,5724.189 9.589,5721 14,5721 C18.411,5721 22,5724.189 22,5728.6 L22,5735.6 Z M12,5737 L12,5735.585 C12,5735.033 12.448,5735 13,5735 L15,5735 C15.552,5735 16,5735.033 16,5735.585 L16,5737 L12,5737 Z M22,5722.618 C19.919,5719.839 17.486,5719 14,5719 C10.507,5719 8.079,5719.842 6,5722.618 C4.75,5724.288 4,5726.354 4,5728.6 L4,5736.6 C4,5737.705 4.895,5739 6,5739 L14,5739 L22,5739 C23.105,5739 24,5737.705 24,5736.6 L24,5728.6 C24,5726.354 23.25,5724.288 22,5722.618 L22,5722.618 Z" id="emoji_minecraft-[#528]"></path>
            </g>
        </g>
    </g>
</svg>