<?xml version="1.0" encoding="UTF-8" standalone="no"?>
<svg width="20px" height="20px" viewBox="0 0 20 20" version="1.1" xmlns="http://www.w3.org/2000/svg" xmlns:xlink="http://www.w3.org/1999/xlink">
    <!-- Generator: Sketch 3.8.1 (29687) - http://www.bohemiancoding.com/sketch -->
    <title>emoji_sad [#519]</title>
    <desc>Created with Sketch.</desc>
    <defs></defs>
    <g id="Page-1" stroke="none" stroke-width="1" fill="none" fill-rule="evenodd">
        <g id="Dribbble-Dark-Preview" transform="translate(-420.000000, -5879.000000)" fill="#FFFFFF">
            <g id="icons" transform="translate(56.000000, 160.000000)">
                <path d="M379,5725 C379.552,5725 380,5725.448 380,5726 C380,5726.552 379.552,5727 379,5727 L377,5727 C376.448,5727 376,5726.552 376,5726 C376,5725.448 376.448,5725 377,5725 L379,5725 Z M369,5727 C368.448,5727 368,5726.552 368,5726 C368,5725.448 368.448,5725 369,5725 L371,5725 C371.552,5725 372,5725.448 372,5726 C372,5726.552 371.552,5727 371,5727 L369,5727 Z M379,5735 L369,5735 C369,5728 379,5728 379,5735 L379,5735 Z M382,5735.6 C382,5736.152 381.552,5737 381,5737 L367,5737 C366.448,5737 366,5736.152 366,5735.6 L366,5728.6 C366,5724.189 369.589,5721 374,5721 C378.411,5721 382,5724.189 382,5728.6 L382,5735.6 Z M379.982,5720.6 C378.312,5719.35 376.246,5719 374,5719 C370.507,5719 368.079,5719.842 366,5722.618 C364.75,5724.288 364,5726.354 364,5728.6 L364,5736.6 C364,5737.705 364.895,5739 366,5739 L382,5739 C383.105,5739 384,5737.705 384,5736.6 L384,5728.6 C384,5725.395 382.457,5722.454 379.982,5720.6 L379.982,5720.6 Z" id="emoji_sad-[#519]"></path>
            </g>
        </g>
    </g>
</svg>