<?xml version="1.0" encoding="UTF-8" standalone="no"?>
<svg width="20px" height="20px" viewBox="0 0 20 20" version="1.1" xmlns="http://www.w3.org/2000/svg" xmlns:xlink="http://www.w3.org/1999/xlink">
    <!-- Generator: Sketch 3.8.1 (29687) - http://www.bohemiancoding.com/sketch -->
    <title>emoji_happy [#479]</title>
    <desc>Created with Sketch.</desc>
    <defs></defs>
    <g id="Page-1" stroke="none" stroke-width="1" fill="none" fill-rule="evenodd">
        <g id="Dribbble-Dark-Preview" transform="translate(-420.000000, -6039.000000)" fill="#FFFFFF">
            <g id="icons" transform="translate(56.000000, 160.000000)">
                <path d="M380,5886.0001 C380,5886.5521 379.552,5887.0001 379,5887.0001 L377,5887.0001 C376.448,5887.0001 376,5886.5521 376,5886.0001 L376,5886.0001 C376,5885.4481 376.448,5885.0001 377,5885.0001 L379,5885.0001 C379.552,5885.0001 380,5885.4481 380,5886.0001 L380,5886.0001 Z M378.893,5891.0131 C377.886,5896.1501 370.114,5896.0161 369.107,5890.8791 C368.99,5890.2801 369.487,5890.0001 370.098,5890.0001 L370.115,5890.0001 C370.591,5890.0001 370.981,5890.2101 371.09,5890.6731 C371.781,5893.5971 376.22,5893.4631 376.91,5890.5391 C377.019,5890.0751 377.409,5890.0001 377.885,5890.0001 L377.902,5890.0001 C378.513,5890.0001 379.01,5890.4141 378.893,5891.0131 L378.893,5891.0131 Z M372,5886.0001 C372,5886.5521 371.552,5887.0001 371,5887.0001 L369,5887.0001 C368.448,5887.0001 368,5886.5521 368,5886.0001 C368,5885.4481 368.448,5885.0001 369,5885.0001 L371,5885.0001 C371.552,5885.0001 372,5885.4481 372,5886.0001 L372,5886.0001 Z M382,5882.6031 L382,5888.5851 C382,5892.9961 378.411,5897.0001 374,5897.0001 C369.589,5897.0001 366,5892.9961 366,5888.5851 L366,5882.6031 L366,5881.5851 C366,5881.0331 366.448,5881.0001 367,5881.0001 L368.018,5881.0001 L374,5881.0001 L379.982,5881.0001 L381,5881.0001 C381.552,5881.0001 382,5881.0331 382,5881.5851 L382,5882.6031 Z M382,5879.0001 L374,5879.0001 L366,5879.0001 C364.895,5879.0001 364,5879.4801 364,5880.5851 L364,5888.5851 C364,5890.8311 364.75,5892.8971 366,5894.5671 C366.574,5895.3321 367.253,5896.0111 368.018,5896.5851 C369.688,5897.8351 371.754,5899.0001 374,5899.0001 C376.246,5899.0001 378.312,5897.8351 379.982,5896.5851 C380.747,5896.0111 381.426,5895.3321 382,5894.5671 C383.25,5892.8971 384,5890.8311 384,5888.5851 L384,5880.5851 C384,5879.4801 383.105,5879.0001 382,5879.0001 L382,5879.0001 Z" id="emoji_happy-[#479]"></path>
            </g>
        </g>
    </g>
</svg>