<?xml version="1.0" encoding="UTF-8" standalone="no"?>
<svg width="20px" height="20px" viewBox="0 0 20 20" version="1.1" xmlns="http://www.w3.org/2000/svg" xmlns:xlink="http://www.w3.org/1999/xlink">
    <!-- Generator: Sketch 3.8.1 (29687) - http://www.bohemiancoding.com/sketch -->
    <title>emoji_happy_square_round [#427]</title>
    <desc>Created with Sketch.</desc>
    <defs></defs>
    <g id="Page-1" stroke="none" stroke-width="1" fill="none" fill-rule="evenodd">
        <g id="Dribbble-Dark-Preview" transform="translate(-100.000000, -6279.000000)" fill="#FFFFFF">
            <g id="icons" transform="translate(56.000000, 160.000000)">
                <path d="M56,6126 C56,6125.448 56.448,6125 57,6125 L59,6125 C59.552,6125 60,6125.448 60,6126 L60,6128 C60,6128.552 59.552,6129 59,6129 L57,6129 C56.45,6129 56,6128.55 56,6128 L56,6126 Z M52,6127 C52,6127.552 51.552,6128 51,6128 L49,6128 C48.448,6128 48,6127.552 48,6127 C48,6126.448 48.448,6126 49,6126 L51,6126 C51.552,6126 52,6126.448 52,6127 L52,6127 Z M51.092,6130.399 C51.787,6133.314 56.213,6133.314 56.908,6130.399 C57.02,6129.932 57.412,6129.585 57.892,6129.585 C58.508,6129.585 59.01,6130.137 58.891,6130.741 C57.877,6135.866 50.123,6135.866 49.109,6130.741 C48.99,6130.137 49.492,6129.585 50.108,6129.585 C50.588,6129.585 50.98,6129.932 51.092,6130.399 L51.092,6130.399 Z M62,6136 C62,6136.552 61.552,6137 61,6137 L47,6137 C46.448,6137 46,6136.552 46,6136 L46,6122 C46,6121.448 46.448,6121 47,6121 L61,6121 C61.552,6121 62,6121.448 62,6122 L62,6136 Z M64,6121 C64,6119.895 63.105,6119 62,6119 L46,6119 C44.895,6119 44,6119.895 44,6121 L44,6137 C44,6138.105 44.895,6139 46,6139 L62,6139 C63.105,6139 64,6138.105 64,6137 L64,6121 Z" id="emoji_happy_square_round-[#427]"></path>
            </g>
        </g>
    </g>
</svg>