<?xml version="1.0" encoding="UTF-8" standalone="no"?>
<svg width="20px" height="20px" viewBox="0 0 20 20" version="1.1" xmlns="http://www.w3.org/2000/svg" xmlns:xlink="http://www.w3.org/1999/xlink">
    <!-- Generator: Sketch 3.8.1 (29687) - http://www.bohemiancoding.com/sketch -->
    <title>emoji_surprised_square [#394]</title>
    <desc>Created with Sketch.</desc>
    <defs></defs>
    <g id="Page-1" stroke="none" stroke-width="1" fill="none" fill-rule="evenodd">
        <g id="Dribbble-Dark-Preview" transform="translate(-220.000000, -6399.000000)" fill="#FFFFFF">
            <g id="icons" transform="translate(56.000000, 160.000000)">
                <path d="M172,6252.585 C172,6251.48 172.895,6250.585 174,6250.585 C175.105,6250.585 176,6251.48 176,6252.585 L176,6252.585 L176,6252.585 C176,6253.69 175.105,6254.585 174,6254.585 C172.895,6254.585 172,6253.69 172,6252.585 L172,6252.585 L172,6252.585 Z M176,6247 L180,6247 L180,6245 L176,6245 L176,6247 Z M168,6247 L172,6247 L172,6245 L168,6245 L168,6247 Z M166,6257 L182,6257 L182,6241 L166,6241 L166,6257 Z M164,6259 L184,6259 L184,6239 L164,6239 L164,6259 Z" id="emoji_surprised_square-[#394]"></path>
            </g>
        </g>
    </g>
</svg>