<?xml version="1.0" encoding="UTF-8" standalone="no"?>
<svg width="20px" height="20px" viewBox="0 0 20 20" version="1.1" xmlns="http://www.w3.org/2000/svg" xmlns:xlink="http://www.w3.org/1999/xlink">
    <!-- Generator: Sketch 3.8.1 (29687) - http://www.bohemiancoding.com/sketch -->
    <title>emoji_surprised [#573]</title>
    <desc>Created with Sketch.</desc>
    <defs></defs>
    <g id="Page-1" stroke="none" stroke-width="1" fill="none" fill-rule="evenodd">
        <g id="Dribbble-Dark-Preview" transform="translate(-260.000000, -5679.000000)" fill="#FFFFFF">
            <g id="icons" transform="translate(56.000000, 160.000000)">
                <path d="M222,5531 L216,5531 L216,5525 L212,5525 L212,5531 L206,5531 L206,5535.615 C206,5536.168 206.448,5537 207,5537 L221,5537 C221.552,5537 222,5536.168 222,5535.615 L222,5531 Z M206,5525 L206,5529 L206.002,5529 L210,5529 L210,5525 L206,5525 Z M208.76,5523 L212,5523 L216,5523 L219.24,5523 C217.835,5521 216.005,5520.875 214,5520.875 C211.995,5520.875 210.165,5521 208.76,5523 L208.76,5523 Z M218,5525 L218,5529 L221.998,5529 L222,5529 L222,5525 L218,5525 Z M224,5523 L224,5536.615 C224,5537.72 223.105,5539 222,5539 L206,5539 C204.895,5539 204,5537.72 204,5536.615 L204,5523 L206.042,5523 C206.607,5522 207.27,5521.435 208.018,5520.875 C209.688,5519.624 211.754,5519 214,5519 C216.246,5519 218.312,5519.572 219.982,5520.823 C220.73,5521.383 221.393,5522 221.958,5523 L224,5523 Z M216,5532.585 C216,5533.69 215.105,5534.585 214,5534.585 C212.895,5534.585 212,5533.69 212,5532.585 C212,5531.48 212.895,5530.585 214,5530.585 C215.105,5530.585 216,5531.48 216,5532.585 L216,5532.585 Z" id="emoji_surprised-[#573]"></path>
            </g>
        </g>
    </g>
</svg>