<?xml version="1.0" encoding="UTF-8" standalone="no"?>
<svg width="20px" height="20px" viewBox="0 0 20 20" version="1.1" xmlns="http://www.w3.org/2000/svg" xmlns:xlink="http://www.w3.org/1999/xlink">
    <!-- Generator: Sketch 3.8.1 (29687) - http://www.bohemiancoding.com/sketch -->
    <title>emoji_neutral_square_round_glasses [#443]</title>
    <desc>Created with Sketch.</desc>
    <defs></defs>
    <g id="Page-1" stroke="none" stroke-width="1" fill="none" fill-rule="evenodd">
        <g id="Dribbble-Dark-Preview" transform="translate(-260.000000, -6199.000000)" fill="#FFFFFF">
            <g id="icons" transform="translate(56.000000, 160.000000)">
                <path d="M216,6054 C216,6054.552 215.552,6055 215,6055 L213,6055 C212.448,6055 212,6054.552 212,6054 C212,6053.448 212.448,6053 213,6053 L215,6053 C215.552,6053 216,6053.448 216,6054 L216,6054 Z M206,6043 L206,6042 C206,6041.448 206.448,6041 207,6041 L221,6041 C221.552,6041 222,6041.448 222,6042 L222,6043 L206,6043 Z M218,6047.585 L218,6045 L222,6045 L222,6049 L219,6049 C218.448,6049 218,6048.137 218,6047.585 L218,6047.585 Z M222,6055.585 C222,6056.137 221.552,6057 221,6057 L207,6057 C206.448,6057 206,6056.137 206,6055.585 L206,6051 L210,6051 C211.105,6051 212,6049.69 212,6048.585 L212,6045 L216,6045 L216,6048.585 C216,6049.69 216.895,6051 218,6051 L222,6051 L222,6055.585 Z M206,6045 L210,6045 L210,6047.585 C210,6048.137 209.552,6049 209,6049 L206,6049 L206,6045 Z M222,6039 L206,6039 C204.895,6039 204,6039.895 204,6041 L204,6056.585 C204,6057.913 205.087,6059 206.415,6059 L222,6059 C223.105,6059 224,6058.105 224,6057 L224,6041 C224,6039.895 223.105,6039 222,6039 L222,6039 Z" id="emoji_neutral_square_round_glasses-[#443]"></path>
            </g>
        </g>
    </g>
</svg>