<?xml version="1.0" encoding="UTF-8" standalone="no"?>
<svg width="20px" height="20px" viewBox="0 0 20 20" version="1.1" xmlns="http://www.w3.org/2000/svg" xmlns:xlink="http://www.w3.org/1999/xlink">
    <!-- Generator: Sketch 3.8.1 (29687) - http://www.bohemiancoding.com/sketch -->
    <title>emoji_happy [#524]</title>
    <desc>Created with Sketch.</desc>
    <defs></defs>
    <g id="Page-1" stroke="none" stroke-width="1" fill="none" fill-rule="evenodd">
        <g id="Dribbble-Dark-Preview" transform="translate(-220.000000, -5879.000000)" fill="#FFFFFF">
            <g id="icons" transform="translate(56.000000, 160.000000)">
                <path d="M178.9039,5731.0381 C177.9419,5736.5151 170.0579,5736.4121 169.0959,5730.9341 C168.9909,5730.3361 169.4819,5730.0001 170.0899,5730.0001 L177.9099,5730.0001 C178.5179,5730.0001 179.0089,5730.4391 178.9039,5731.0381 L178.9039,5731.0381 Z M178.9999,5725.0001 C179.5519,5725.0001 179.9999,5725.4481 179.9999,5726.0001 C179.9999,5726.5521 179.5519,5727.0001 178.9999,5727.0001 L176.9999,5727.0001 C176.4479,5727.0001 175.9999,5726.5521 175.9999,5726.0001 C175.9999,5725.4481 176.4479,5725.0001 176.9999,5725.0001 L178.9999,5725.0001 Z M170.9999,5727.0001 L168.9999,5727.0001 C168.4479,5727.0001 167.9999,5726.5521 167.9999,5726.0001 C167.9999,5725.4481 168.4479,5725.0001 168.9999,5725.0001 L170.9999,5725.0001 C171.5519,5725.0001 171.9999,5725.4481 171.9999,5726.0001 C171.9999,5726.5521 171.5519,5727.0001 170.9999,5727.0001 L170.9999,5727.0001 Z M181.9999,5735.5941 C181.9999,5736.1471 181.5519,5737.0001 180.9999,5737.0001 L166.9999,5737.0001 C166.4479,5737.0001 165.9999,5736.1471 165.9999,5735.5941 L165.9999,5728.5941 C165.9999,5724.1831 169.5889,5721.0001 173.9999,5721.0001 C178.4109,5721.0001 181.9999,5724.1831 181.9999,5728.5941 L181.9999,5735.5941 Z M181.9999,5722.6121 C179.8979,5719.8061 177.4529,5719.0001 173.9999,5719.0001 C170.5449,5719.0001 168.1009,5719.8081 165.9999,5722.6121 C164.7499,5724.2821 163.9999,5726.3481 163.9999,5728.5941 L163.9999,5736.5941 C163.9999,5737.6991 164.8959,5739.0001 165.9999,5739.0001 L181.9999,5739.0001 C183.1049,5739.0001 183.9999,5737.6991 183.9999,5736.5941 L183.9999,5728.5941 C183.9999,5726.3481 183.2499,5724.2821 181.9999,5722.6121 L181.9999,5722.6121 Z" id="emoji_happy-[#524]"></path>
            </g>
        </g>
    </g>
</svg>