<?xml version="1.0" encoding="UTF-8" standalone="no"?>
<svg width="20px" height="20px" viewBox="0 0 20 20" version="1.1" xmlns="http://www.w3.org/2000/svg" xmlns:xlink="http://www.w3.org/1999/xlink">
    <!-- Generator: Sketch 3.8.1 (29687) - http://www.bohemiancoding.com/sketch -->
    <title>emoji_sad [#521]</title>
    <desc>Created with Sketch.</desc>
    <defs></defs>
    <g id="Page-1" stroke="none" stroke-width="1" fill="none" fill-rule="evenodd">
        <g id="Dribbble-Dark-Preview" transform="translate(-340.000000, -5879.000000)" fill="#FFFFFF">
            <g id="icons" transform="translate(56.000000, 160.000000)">
                <path d="M299,5725 C299.552,5725 300,5725.448 300,5726 L300,5728 C300,5728.552 299.552,5729 299,5729 L297,5729 C296.45,5729 296,5728.55 296,5728 L296,5726 C296,5725.448 296.448,5725 297,5725 L299,5725 Z M291,5729 L289,5729 C288.45,5729 288,5728.55 288,5728 L288,5726 C288,5725.448 288.448,5725 289,5725 L291,5725 C291.552,5725 292,5725.448 292,5726 L292,5728 C292,5728.552 291.552,5729 291,5729 L291,5729 Z M298.893,5733.749 C299.01,5734.348 298.513,5735 297.902,5735 L290.098,5735 C289.487,5735 288.99,5734.245 289.107,5733.646 C290.114,5728.508 297.886,5728.612 298.893,5733.749 L298.893,5733.749 Z M302,5734.57 L302,5735.589 C302,5736.141 301.552,5737 301,5737 L287,5737 C286.448,5737 286,5736.141 286,5735.589 L286,5728.589 C286,5724.177 289.589,5721 294,5721 C298.411,5721 302,5724.177 302,5728.589 L302,5734.57 Z M302,5722.607 C299.902,5719.806 297.472,5719 294,5719 C290.523,5719 288.097,5719.807 286,5722.607 C284.75,5724.276 284,5726.342 284,5728.589 L284,5736.589 C284,5737.693 284.895,5739 286,5739 L302,5739 C303.105,5739 304,5737.693 304,5736.589 L304,5728.589 C304,5726.342 303.25,5724.276 302,5722.607 L302,5722.607 Z" id="emoji_sad-[#521]"></path>
            </g>
        </g>
    </g>
</svg>