<?xml version="1.0" encoding="UTF-8" standalone="no"?>
<svg width="20px" height="20px" viewBox="0 0 20 20" version="1.1" xmlns="http://www.w3.org/2000/svg" xmlns:xlink="http://www.w3.org/1999/xlink">
    <!-- Generator: Sketch 3.8.1 (29687) - http://www.bohemiancoding.com/sketch -->
    <title>emoji_happy [#492]</title>
    <desc>Created with Sketch.</desc>
    <defs></defs>
    <g id="Page-1" stroke="none" stroke-width="1" fill="none" fill-rule="evenodd">
        <g id="Dribbble-Dark-Preview" transform="translate(-300.000000, -5999.000000)" fill="#FFFFFF">
            <g id="icons" transform="translate(56.000000, 160.000000)">
                <path d="M258.9039,5851.05972 C257.9419,5856.54825 250.0579,5856.44103 249.0959,5850.9515 C248.9909,5850.35224 249.4819,5850.02355 250.0899,5850.02355 L257.9099,5850.02355 C258.5179,5850.02355 259.0089,5850.45946 258.9039,5851.05972 L258.9039,5851.05972 Z M259.9999,5846.01513 C259.9999,5846.56829 259.5519,5847.01724 258.9999,5847.01724 L256.9999,5847.01724 C256.4479,5847.01724 255.9999,5846.56829 255.9999,5846.01513 C255.9999,5845.46097 256.4479,5845.01303 256.9999,5845.01303 L258.9999,5845.01303 C259.5519,5845.01303 259.9999,5845.46097 259.9999,5846.01513 L259.9999,5846.01513 Z M250.9999,5847.01724 L248.9999,5847.01724 C248.4479,5847.01724 247.9999,5846.56829 247.9999,5846.01513 C247.9999,5845.46097 248.4479,5845.01303 248.9999,5845.01303 L250.9999,5845.01303 C251.5519,5845.01303 251.9999,5845.46097 251.9999,5846.01513 C251.9999,5846.56829 251.5519,5847.01724 250.9999,5847.01724 L250.9999,5847.01724 Z M261.9999,5842.61098 L261.9999,5848.60557 C261.9999,5853.02585 258.4109,5856.99619 253.9999,5856.99619 C249.5889,5856.99619 245.9999,5853.02585 245.9999,5848.60557 L245.9999,5842.61098 L245.9999,5841.59084 C245.9999,5841.03668 246.4479,5841.00461 246.9999,5841.00461 L248.0179,5841.00461 L253.9999,5841.00461 L259.9819,5841.00461 L260.9999,5841.00461 C261.5519,5841.00461 261.9999,5841.03668 261.9999,5841.59084 L261.9999,5842.61098 Z M261.9999,5839.0004 L253.9999,5839.0004 L245.9999,5839.0004 C244.8959,5839.0004 243.9999,5839.48141 243.9999,5840.58874 L243.9999,5848.60557 C243.9999,5850.8563 244.7499,5852.92665 245.9999,5854.59916 C246.5739,5855.36677 247.2529,5856.0472 248.0179,5856.62241 C249.6879,5857.87504 251.7539,5859.0004 253.9999,5859.0004 C256.2459,5859.0004 258.3119,5857.87504 259.9819,5856.62241 C260.7479,5856.0472 261.4269,5855.36677 261.9999,5854.59916 C263.2499,5852.92665 263.9999,5850.8563 263.9999,5848.60557 L263.9999,5840.58874 C263.9999,5839.48141 263.1049,5839.0004 261.9999,5839.0004 L261.9999,5839.0004 Z" id="emoji_happy-[#492]"></path>
            </g>
        </g>
    </g>
</svg>