<?xml version="1.0" encoding="UTF-8" standalone="no"?>
<svg width="20px" height="20px" viewBox="0 0 20 20" version="1.1" xmlns="http://www.w3.org/2000/svg" xmlns:xlink="http://www.w3.org/1999/xlink">
    <!-- Generator: Sketch 3.8.1 (29687) - http://www.bohemiancoding.com/sketch -->
    <title>emoji_happy_circle [#540]</title>
    <desc>Created with Sketch.</desc>
    <defs></defs>
    <g id="Page-1" stroke="none" stroke-width="1" fill="none" fill-rule="evenodd">
        <g id="Dribbble-Dark-Preview" transform="translate(-380.000000, -5799.000000)" fill="#FFFFFF">
            <g id="icons" transform="translate(56.000000, 160.000000)">
                <path d="M340,5646.415 L340,5648.415 C340,5648.967 339.552,5649.415 339,5649.415 L337,5649.415 C336.45,5649.415 336,5648.965 336,5648.415 L336,5646.415 C336,5645.863 336.448,5645.415 337,5645.415 L339,5645.415 C339.552,5645.415 340,5645.863 340,5646.415 M331,5648.415 L329,5648.415 C328.448,5648.415 328,5647.967 328,5647.415 C328,5646.863 328.448,5646.415 329,5646.415 L331,5646.415 C331.552,5646.415 332,5646.863 332,5647.415 C332,5647.967 331.552,5648.415 331,5648.415 M338.891,5651.156 C337.877,5656.281 330.123,5656.281 329.109,5651.156 C328.99,5650.552 329.492,5650 330.108,5650 C330.588,5650 330.98,5650.347 331.092,5650.814 C331.787,5653.729 336.213,5653.729 336.908,5650.814 C337.02,5650.347 337.412,5650 337.892,5650 C338.508,5650 339.01,5650.552 338.891,5651.156 M334,5657 C329.589,5657 326,5653.411 326,5649 C326,5644.589 329.589,5641 334,5641 C338.411,5641 342,5644.589 342,5649 C342,5653.411 338.411,5657 334,5657 M334,5639 C328.477,5639 324,5643.477 324,5649 C324,5654.523 328.477,5659 334,5659 C339.523,5659 344,5654.523 344,5649 C344,5643.477 339.523,5639 334,5639" id="emoji_happy_circle-[#540]"></path>
            </g>
        </g>
    </g>
</svg>