<?xml version="1.0" encoding="UTF-8" standalone="no"?>
<svg width="20px" height="20px" viewBox="0 0 20 20" version="1.1" xmlns="http://www.w3.org/2000/svg" xmlns:xlink="http://www.w3.org/1999/xlink">
    <!-- Generator: Sketch 3.8.1 (29687) - http://www.bohemiancoding.com/sketch -->
    <title>emoji_neutral_square_glasses [#421]</title>
    <desc>Created with Sketch.</desc>
    <defs></defs>
    <g id="Page-1" stroke="none" stroke-width="1" fill="none" fill-rule="evenodd">
        <g id="Dribbble-Dark-Preview" transform="translate(-340.000000, -6279.000000)" fill="#FFFFFF">
            <g id="icons" transform="translate(56.000000, 160.000000)">
                <path d="M290,6135 L298,6135 L298,6133 L290,6133 L290,6135 Z M286,6123 L302,6123 L302,6121 L286,6121 L286,6123 Z M298,6127.585 L298,6125 L302,6125 L302,6129 L299,6129 C298.448,6129 298,6128.137 298,6127.585 L298,6127.585 Z M302,6137 L286,6137 L286,6131 L290,6131 C291.105,6131 292,6129.69 292,6128.585 L292,6125 L296,6125 L296,6128.585 C296,6129.69 296.895,6131 298,6131 L302,6131 L302,6137 Z M286,6125 L290,6125 L290,6127.585 C290,6128.137 289.552,6129 289,6129 L286,6129 L286,6125 Z M284,6139 L304,6139 L304,6119 L284,6119 L284,6139 Z" id="emoji_neutral_square_glasses-[#421]"></path>
            </g>
        </g>
    </g>
</svg>