<?xml version="1.0" encoding="UTF-8" standalone="no"?>
<svg width="20px" height="20px" viewBox="0 0 20 20" version="1.1" xmlns="http://www.w3.org/2000/svg" xmlns:xlink="http://www.w3.org/1999/xlink">
    <!-- Generator: Sketch 3.8.1 (29687) - http://www.bohemiancoding.com/sketch -->
    <title>emoji_happy_circle [#550]</title>
    <desc>Created with Sketch.</desc>
    <defs></defs>
    <g id="Page-1" stroke="none" stroke-width="1" fill="none" fill-rule="evenodd">
        <g id="Dribbble-Dark-Preview" transform="translate(-380.000000, -5759.000000)" fill="#FFFFFF">
            <g id="icons" transform="translate(56.000000, 160.000000)">
                <path d="M340,5607 C340,5608.105 339.105,5609 338,5609 C336.895,5609 336,5608.105 336,5607 C336,5605.895 336.895,5605 338,5605 C339.105,5605 340,5605.895 340,5607 M330,5609 C328.895,5609 328,5608.105 328,5607 C328,5605.895 328.895,5605 330,5605 C331.105,5605 332,5605.895 332,5607 C332,5608.105 331.105,5609 330,5609 M338.904,5611.453 C337.942,5616.931 330.058,5616.827 329.096,5611.349 C328.991,5610.751 329.482,5610.415 330.09,5610.415 L337.91,5610.415 C338.518,5610.415 339.009,5610.855 338.904,5611.453 M334,5617 C329.589,5617 326,5613.411 326,5609 C326,5604.589 329.589,5601 334,5601 C338.411,5601 342,5604.589 342,5609 C342,5613.411 338.411,5617 334,5617 M334,5599 C328.477,5599 324,5603.477 324,5609 C324,5614.523 328.477,5619 334,5619 C339.523,5619 344,5614.523 344,5609 C344,5603.477 339.523,5599 334,5599" id="emoji_happy_circle-[#550]"></path>
            </g>
        </g>
    </g>
</svg>