<?xml version="1.0" encoding="UTF-8" standalone="no"?>
<svg width="20px" height="20px" viewBox="0 0 20 20" version="1.1" xmlns="http://www.w3.org/2000/svg" xmlns:xlink="http://www.w3.org/1999/xlink">
    <!-- Generator: Sketch 3.8.1 (29687) - http://www.bohemiancoding.com/sketch -->
    <title>emoji_happy_circle [#558]</title>
    <desc>Created with Sketch.</desc>
    <defs></defs>
    <g id="Page-1" stroke="none" stroke-width="1" fill="none" fill-rule="evenodd">
        <g id="Dribbble-Dark-Preview" transform="translate(-60.000000, -5759.000000)" fill="#FFFFFF">
            <g id="icons" transform="translate(56.000000, 160.000000)">
                <path d="M16,5607 C16,5605.895 16.895,5605 18,5605 C19.105,5605 20,5605.895 20,5607 C20,5608.105 19.105,5609 18,5609 C16.895,5609 16,5608.105 16,5607 M8,5607 C8,5605.895 8.895,5605 10,5605 C11.105,5605 12,5605.895 12,5607 C12,5608.105 11.105,5609 10,5609 C8.895,5609 8,5608.105 8,5607 M20,5612 C20,5614.306 18.559,5615.415 17,5615.415 L11.415,5615.415 C9.537,5615.415 8,5613.878 8,5612 C8,5611.448 8.448,5611.104 9,5611.104 C9.552,5611.104 10,5611.655 10,5612.208 C10,5612.76 10.448,5613.415 11,5613.415 L17,5613.415 C17.552,5613.415 18,5612.76 18,5612.208 C18,5611.655 18.448,5611 19,5611 C19.552,5611 20,5611.448 20,5612 M14,5617 C9.589,5617 6,5613.411 6,5609 C6,5604.589 9.589,5601 14,5601 C18.411,5601 22,5604.589 22,5609 C22,5613.411 18.411,5617 14,5617 M14,5599 C8.477,5599 4,5603.477 4,5609 C4,5614.523 8.477,5619 14,5619 C19.523,5619 24,5614.523 24,5609 C24,5603.477 19.523,5599 14,5599" id="emoji_happy_circle-[#558]"></path>
            </g>
        </g>
    </g>
</svg>