<?xml version="1.0" encoding="UTF-8" standalone="no"?>
<svg width="20px" height="20px" viewBox="0 0 20 20" version="1.1" xmlns="http://www.w3.org/2000/svg" xmlns:xlink="http://www.w3.org/1999/xlink">
    <!-- Generator: Sketch 3.8.1 (29687) - http://www.bohemiancoding.com/sketch -->
    <title>emoji_happy [#486]</title>
    <desc>Created with Sketch.</desc>
    <defs></defs>
    <g id="Page-1" stroke="none" stroke-width="1" fill="none" fill-rule="evenodd">
        <g id="Dribbble-Dark-Preview" transform="translate(-140.000000, -6039.000000)" fill="#FFFFFF">
            <g id="icons" transform="translate(56.000000, 160.000000)">
                <path d="M89,5890 L99,5890 C99,5897 89,5897 89,5890 L89,5890 Z M100,5886 L100,5886.57 L100,5888 C100,5888.552 99.552,5889 99,5889 L97,5889 C96.45,5889 96,5888.55 96,5888 L96,5886.57 L96,5886 C96,5885.448 96.448,5885 97,5885 L99,5885 C99.552,5885 100,5885.448 100,5886 L100,5886 Z M89,5889 C88.45,5889 88,5888.55 88,5888 L88,5886.57 L88,5886 C88,5885.448 88.448,5885 89,5885 L91,5885 C91.552,5885 92,5885.448 92,5886 L92,5886.57 L92,5888 C92,5888.552 91.552,5889 91,5889 L89,5889 Z M102,5882.603 L102,5888.585 C102,5892.996 98.411,5897 94,5897 C89.589,5897 86,5892.996 86,5888.585 L86,5882.603 L86,5881.585 C86,5881.033 86.448,5881 87,5881 L88.018,5881 L94,5881 L99.982,5881 L101,5881 C101.552,5881 102,5881.033 102,5881.585 L102,5882.603 Z M102,5879 L94,5879 L86,5879 C84.895,5879 84,5879.48 84,5880.585 L84,5888.585 C84,5890.831 84.75,5892.897 86,5894.567 C86.574,5895.333 87.253,5896.011 88.018,5896.585 C89.688,5897.835 91.754,5899 94,5899 C96.246,5899 98.312,5897.835 99.982,5896.585 C100.747,5896.011 101.426,5895.333 102,5894.567 C103.25,5892.897 104,5890.831 104,5888.585 L104,5880.585 C104,5879.48 103.105,5879 102,5879 L102,5879 Z" id="emoji_happy-[#486]"></path>
            </g>
        </g>
    </g>
</svg>