<?xml version="1.0" encoding="UTF-8" standalone="no"?>
<svg width="20px" height="20px" viewBox="0 0 20 20" version="1.1" xmlns="http://www.w3.org/2000/svg" xmlns:xlink="http://www.w3.org/1999/xlink">
    <!-- Generator: Sketch 3.8.1 (29687) - http://www.bohemiancoding.com/sketch -->
    <title>emoji_sad_square_round [#440]</title>
    <desc>Created with Sketch.</desc>
    <defs></defs>
    <g id="Page-1" stroke="none" stroke-width="1" fill="none" fill-rule="evenodd">
        <g id="Dribbble-Dark-Preview" transform="translate(-380.000000, -6199.000000)" fill="#FFFFFF">
            <g id="icons" transform="translate(56.000000, 160.000000)">
                <path d="M340,6046 C340,6046.552 339.552,6047 339,6047 L337,6047 C336.448,6047 336,6046.552 336,6046 C336,6045.448 336.448,6045 337,6045 L339,6045 C339.552,6045 340,6045.448 340,6046 L340,6046 Z M332,6046 C332,6046.552 331.552,6047 331,6047 L329,6047 C328.448,6047 328,6046.552 328,6046 C328,6045.448 328.448,6045 329,6045 L331,6045 C331.552,6045 332,6045.448 332,6046 L332,6046 Z M340,6052.689 L340,6053.585 C340,6054.137 339.552,6054.611 339,6054.611 L339,6054.637 C338.448,6054.637 338,6054.241 338,6053.689 L338,6053.792 C338,6053.24 337.552,6053 337,6053 L331,6053 C330.448,6053 330,6053.24 330,6053.792 L330,6053.585 C330,6054.137 329.552,6054.585 329,6054.585 C328.448,6054.585 328,6054.137 328,6053.585 L328,6052.689 C328,6051.584 328.896,6050.987 330,6050.987 L338,6051 C339,6051 340,6051.584 340,6052.689 L340,6052.689 Z M342,6056 C342,6056.552 341.552,6057 341,6057 L327,6057 C326.448,6057 326,6056.552 326,6056 L326,6042 C326,6041.448 326.448,6041 327,6041 L341,6041 C341.552,6041 342,6041.448 342,6042 L342,6056 Z M344,6041 C344,6039.895 343.105,6039 342,6039 L326,6039 C324.895,6039 324,6039.895 324,6041 L324,6057 C324,6058.105 324.895,6059 326,6059 L342,6059 C343.105,6059 344,6058.105 344,6057 L344,6041 Z" id="emoji_sad_square_round-[#440]"></path>
            </g>
        </g>
    </g>
</svg>