<?xml version="1.0" encoding="UTF-8" standalone="no"?>
<svg width="20px" height="20px" viewBox="0 0 20 20" version="1.1" xmlns="http://www.w3.org/2000/svg" xmlns:xlink="http://www.w3.org/1999/xlink">
    <!-- Generator: Sketch 3.8.1 (29687) - http://www.bohemiancoding.com/sketch -->
    <title>emoji_surprised_square_glasses [#420]</title>
    <desc>Created with Sketch.</desc>
    <defs></defs>
    <g id="Page-1" stroke="none" stroke-width="1" fill="none" fill-rule="evenodd">
        <g id="Dribbble-Dark-Preview" transform="translate(-380.000000, -6279.000000)" fill="#FFFFFF">
            <g id="icons" transform="translate(56.000000, 160.000000)">
                <path d="M336,6133 C336,6134.105 335.105,6135 334,6135 C332.895,6135 332,6134.105 332,6133 C332,6131.895 332.895,6131 334,6131 C335.105,6131 336,6131.895 336,6133 L336,6133 Z M326,6123 L342,6123 L342,6121 L326,6121 L326,6123 Z M338,6127.585 L338,6125 L342,6125 L342,6129 L339,6129 C338.448,6129 338,6128.137 338,6127.585 L338,6127.585 Z M342,6137 L326,6137 L326,6131 L330,6131 C331.105,6131 332,6129.69 332,6128.585 L332,6125 L336,6125 L336,6128.585 C336,6129.69 336.895,6131 338,6131 L342,6131 L342,6137 Z M326,6125 L330,6125 L330,6127.585 C330,6128.137 329.552,6129 329,6129 L326,6129 L326,6125 Z M324,6139 L344,6139 L344,6119 L324,6119 L324,6139 Z" id="emoji_surprised_square_glasses-[#420]"></path>
            </g>
        </g>
    </g>
</svg>