<?xml version="1.0" encoding="UTF-8" standalone="no"?>
<svg width="20px" height="20px" viewBox="0 0 20 20" version="1.1" xmlns="http://www.w3.org/2000/svg" xmlns:xlink="http://www.w3.org/1999/xlink">
    <!-- Generator: Sketch 3.8.1 (29687) - http://www.bohemiancoding.com/sketch -->
    <title>emoji_sad_square [#400]</title>
    <desc>Created with Sketch.</desc>
    <defs></defs>
    <g id="Page-1" stroke="none" stroke-width="1" fill="none" fill-rule="evenodd">
        <g id="Dribbble-Dark-Preview" transform="translate(-380.000000, -6359.000000)" fill="#FFFFFF">
            <g id="icons" transform="translate(56.000000, 160.000000)">
                <path d="M336,6207 L340,6207 L340,6205 L336,6205 L336,6207 Z M339,6215 L337,6215 C337,6211 331,6211 331,6215 L329,6215 C329,6208 339,6208 339,6215 L339,6215 Z M328,6207 L332,6207 L332,6205 L328,6205 L328,6207 Z M326,6217 L342,6217 L342,6201 L326,6201 L326,6217 Z M324,6219 L344,6219 L344,6199 L324,6199 L324,6219 Z" id="emoji_sad_square-[#400]"></path>
            </g>
        </g>
    </g>
</svg>