<?xml version="1.0" encoding="UTF-8" standalone="no"?>
<svg width="20px" height="20px" viewBox="0 0 20 20" version="1.1" xmlns="http://www.w3.org/2000/svg" xmlns:xlink="http://www.w3.org/1999/xlink">
    <!-- Generator: Sketch 3.8.1 (29687) - http://www.bohemiancoding.com/sketch -->
    <title>emoji_simple_non_face_circle [#564]</title>
    <desc>Created with Sketch.</desc>
    <defs></defs>
    <g id="Page-1" stroke="none" stroke-width="1" fill="none" fill-rule="evenodd">
        <g id="Dribbble-Dark-Preview" transform="translate(-220.000000, -5719.000000)" fill="#FFFFFF">
            <g id="icons" transform="translate(56.000000, 160.000000)">
                <path d="M174,5577 C170.28,5577 167.155,5574 166.263,5571 L170,5571 C171.105,5571 172,5569.69 172,5568.585 L172,5565 L176,5565 L176,5568.585 C176,5569.69 176.895,5571 178,5571 L181.737,5571 C180.845,5574 177.72,5577 174,5577 L174,5577 Z M170,5565 L170,5567.585 C170,5568.137 169.552,5569 169,5569 L166,5569 L166,5565 L170,5565 Z M174,5561 C176.021,5561 177.864,5561 179.274,5563 L168.726,5563 C170.136,5561 171.979,5561 174,5561 L174,5561 Z M182,5565 L182,5569 L179,5569 C178.448,5569 178,5568.137 178,5567.585 L178,5565 L182,5565 Z M181.986,5563 C180.162,5560 177.268,5559 174,5559 C170.732,5559 167.838,5560 166.014,5563 L164,5563 L164,5571 L164.201,5571 C165.128,5575 169.162,5579 174,5579 C178.838,5579 182.872,5575 183.799,5571 L184,5571 L184,5563 L181.986,5563 Z" id="emoji_simple_non_face_circle-[#564]"></path>
            </g>
        </g>
    </g>
</svg>