<?xml version="1.0" encoding="UTF-8" standalone="no"?>
<svg width="20px" height="20px" viewBox="0 0 20 20" version="1.1" xmlns="http://www.w3.org/2000/svg" xmlns:xlink="http://www.w3.org/1999/xlink">
    <!-- Generator: Sketch 3.8.1 (29687) - http://www.bohemiancoding.com/sketch -->
    <title>emoji_happy_square_round [#426]</title>
    <desc>Created with Sketch.</desc>
    <defs></defs>
    <g id="Page-1" stroke="none" stroke-width="1" fill="none" fill-rule="evenodd">
        <g id="Dribbble-Dark-Preview" transform="translate(-140.000000, -6279.000000)" fill="#FFFFFF">
            <g id="icons" transform="translate(56.000000, 160.000000)">
                <path d="M96,6126 C96,6125.448 96.448,6125 97,6125 L99,6125 C99.552,6125 100,6125.448 100,6126 L100,6128 C100,6128.552 99.552,6129 99,6129 L97,6129 C96.45,6129 96,6128.55 96,6128 L96,6126 Z M92,6128 C92,6128.552 91.552,6129 91,6129 L89,6129 C88.45,6129 88,6128.55 88,6128 L88,6126 C88,6125.448 88.448,6125 89,6125 L91,6125 C91.552,6125 92,6125.448 92,6126 L92,6128 Z M91.092,6130.399 C91.787,6133.314 96.213,6133.314 96.908,6130.399 C97.02,6129.932 97.412,6129.585 97.892,6129.585 C98.508,6129.585 99.01,6130.137 98.891,6130.741 C97.877,6135.866 90.123,6135.866 89.109,6130.741 C88.99,6130.137 89.492,6129.585 90.108,6129.585 C90.588,6129.585 90.98,6129.932 91.092,6130.399 L91.092,6130.399 Z M102,6136 C102,6136.552 101.552,6137 101,6137 L87,6137 C86.448,6137 86,6136.552 86,6136 L86,6122 C86,6121.448 86.448,6121 87,6121 L101,6121 C101.552,6121 102,6121.448 102,6122 L102,6136 Z M104,6121 C104,6119.895 103.105,6119 102,6119 L86,6119 C84.895,6119 84,6119.895 84,6121 L84,6137 C84,6138.105 84.895,6139 86,6139 L102,6139 C103.105,6139 104,6138.105 104,6137 L104,6121 Z" id="emoji_happy_square_round-[#426]"></path>
            </g>
        </g>
    </g>
</svg>