<?xml version="1.0" encoding="UTF-8" standalone="no"?>
<svg width="20px" height="20px" viewBox="0 0 20 20" version="1.1" xmlns="http://www.w3.org/2000/svg" xmlns:xlink="http://www.w3.org/1999/xlink">
    <!-- Generator: Sketch 3.8.1 (29687) - http://www.bohemiancoding.com/sketch -->
    <title>emoji_neutral_square_round [#434]</title>
    <desc>Created with Sketch.</desc>
    <defs></defs>
    <g id="Page-1" stroke="none" stroke-width="1" fill="none" fill-rule="evenodd">
        <g id="Dribbble-Dark-Preview" transform="translate(-220.000000, -6239.000000)" fill="#FFFFFF">
            <g id="icons" transform="translate(56.000000, 160.000000)">
                <path d="M180,6086 C180,6086.552 179.552,6087 179,6087 L177,6087 C176.448,6087 176,6086.552 176,6086 C176,6085.448 176.448,6085 177,6085 L179,6085 C179.552,6085 180,6085.448 180,6086 L180,6086 Z M180,6092 C180,6092.552 179.552,6093 179,6093 L169,6093 C168.448,6093 168,6092.552 168,6092 C168,6091.448 168.448,6091 169,6091 L179,6091 C179.552,6091 180,6091.448 180,6092 L180,6092 Z M172,6086 C172,6086.552 171.552,6087 171,6087 L169,6087 C168.448,6087 168,6086.552 168,6086 C168,6085.448 168.448,6085 169,6085 L171,6085 C171.552,6085 172,6085.448 172,6086 L172,6086 Z M182,6096 C182,6096.552 181.552,6097 181,6097 L167,6097 C166.448,6097 166,6096.552 166,6096 L166,6082 C166,6081.448 166.448,6081 167,6081 L181,6081 C181.552,6081 182,6081.448 182,6082 L182,6096 Z M184,6081 C184,6079.895 183.105,6079 182,6079 L166,6079 C164.895,6079 164,6079.895 164,6081 L164,6097 C164,6098.105 164.895,6099 166,6099 L182,6099 C183.105,6099 184,6098.105 184,6097 L184,6081 Z" id="emoji_neutral_square_round-[#434]"></path>
            </g>
        </g>
    </g>
</svg>