<?xml version="1.0" encoding="UTF-8" standalone="no"?>
<svg width="20px" height="20px" viewBox="0 0 20 20" version="1.1" xmlns="http://www.w3.org/2000/svg" xmlns:xlink="http://www.w3.org/1999/xlink">
    <!-- Generator: Sketch 3.8.1 (29687) - http://www.bohemiancoding.com/sketch -->
    <title>emoji_neutral [#527]</title>
    <desc>Created with Sketch.</desc>
    <defs></defs>
    <g id="Page-1" stroke="none" stroke-width="1" fill="none" fill-rule="evenodd">
        <g id="Dribbble-Dark-Preview" transform="translate(-100.000000, -5879.000000)" fill="#FFFFFF">
            <g id="icons" transform="translate(56.000000, 160.000000)">
                <path d="M59,5725 C59.552,5725 60,5725.448 60,5726 L60,5728 C60,5728.552 59.552,5729 59,5729 L57,5729 C56.45,5729 56,5728.55 56,5728 L56,5726 C56,5725.448 56.448,5725 57,5725 L59,5725 Z M48,5728 L48,5726 C48,5725.448 48.448,5725 49,5725 L51,5725 C51.552,5725 52,5725.448 52,5726 L52,5728 C52,5728.552 51.552,5729 51,5729 L49,5729 C48.45,5729 48,5728.55 48,5728 L48,5728 Z M60,5732 C60,5732.552 59.552,5733 59,5733 L49,5733 C48.448,5733 48,5732.552 48,5732 L48,5732 C48,5731.448 48.448,5731 49,5731 L59,5731 C59.552,5731 60,5731.448 60,5732 L60,5732 Z M62,5735.585 C62,5736.137 61.552,5737 61,5737 L47,5737 C46.448,5737 46,5736.137 46,5735.585 L46,5728.585 C46,5724.174 49.589,5721 54,5721 C58.411,5721 62,5724.174 62,5728.585 L62,5735.585 Z M62,5722.603 C59.89,5719.785 57.453,5719 54,5719 C50.546,5719 48.11,5719.786 46,5722.603 C44.75,5724.273 44,5726.339 44,5728.585 L44,5736.585 C44,5737.69 44.895,5739 46,5739 L62,5739 C63.105,5739 64,5737.69 64,5736.585 L64,5728.585 C64,5726.339 63.25,5724.273 62,5722.603 L62,5722.603 Z" id="emoji_neutral-[#527]"></path>
            </g>
        </g>
    </g>
</svg>