<?xml version="1.0" encoding="UTF-8" standalone="no"?>
<svg width="14px" height="12px" viewBox="0 0 14 12" version="1.1" xmlns="http://www.w3.org/2000/svg" xmlns:xlink="http://www.w3.org/1999/xlink">
    <!-- Generator: Sketch 3.8.1 (29687) - http://www.bohemiancoding.com/sketch -->
    <title>emoji_happy_simple [#452]</title>
    <desc>Created with Sketch.</desc>
    <defs></defs>
    <g id="Page-1" stroke="none" stroke-width="1" fill="none" fill-rule="evenodd">
        <g id="Dribbble-Dark-Preview" transform="translate(-303.000000, -6162.000000)" fill="#FFFFFF">
            <g id="icons" transform="translate(56.000000, 160.000000)">
                <path d="M251.050976,6009.51346 L249.08496,6009.51346 C249.08496,6015.49551 258.91504,6015.49551 258.91504,6009.51346 L256.949024,6009.51346 C256.949024,6013.5015 251.050976,6013.5015 251.050976,6009.51346 L251.050976,6009.51346 Z M261,6003.40977 L259.610027,6002 L257.932032,6003.70189 L256.254037,6002 L254.864064,6003.40977 L256.542059,6005.11167 L254.864064,6006.81356 L256.254037,6008.22333 L257.932032,6006.52144 L259.610027,6008.22333 L261,6006.81356 L259.322005,6005.11167 L261,6003.40977 Z M251.457941,6005.11167 L253.135936,6006.81356 L251.745963,6008.22333 L250.067968,6006.52144 L248.389973,6008.22333 L247,6006.81356 L248.677995,6005.11167 L247,6003.40977 L248.389973,6002 L250.067968,6003.70189 L251.745963,6002 L253.135936,6003.40977 L251.457941,6005.11167 Z" id="emoji_happy_simple-[#452]"></path>
            </g>
        </g>
    </g>
</svg>