<?xml version="1.0" encoding="UTF-8" standalone="no"?>
<svg width="20px" height="20px" viewBox="0 0 20 20" version="1.1" xmlns="http://www.w3.org/2000/svg" xmlns:xlink="http://www.w3.org/1999/xlink">
    <!-- Generator: Sketch 3.8.1 (29687) - http://www.bohemiancoding.com/sketch -->
    <title>emoji_happy [#513]</title>
    <desc>Created with Sketch.</desc>
    <defs></defs>
    <g id="Page-1" stroke="none" stroke-width="1" fill="none" fill-rule="evenodd">
        <g id="Dribbble-Dark-Preview" transform="translate(-260.000000, -5919.000000)" fill="#FFFFFF">
            <g id="icons" transform="translate(56.000000, 160.000000)">
                <path d="M219,5765 C219.552,5765 220,5765.448 220,5766 L220,5768 C220,5768.552 219.552,5769 219,5769 L217,5769 C216.45,5769 216,5768.55 216,5768 L216,5766 C216,5765.448 216.448,5765 217,5765 L219,5765 Z M211,5769 L209,5769 C208.45,5769 208,5768.55 208,5768 L208,5766 C208,5765.448 208.448,5765 209,5765 L211,5765 C211.552,5765 212,5765.448 212,5766 L212,5768 C212,5768.552 211.552,5769 211,5769 L211,5769 Z M218.893,5771.043 C217.886,5776.181 210.114,5776.077 209.107,5770.939 C208.99,5770.34 209.487,5770 210.098,5770 L210.115,5770 C210.591,5770 210.981,5770.24 211.09,5770.704 C211.78,5773.627 216.22,5773.523 216.91,5770.6 C217.019,5770.136 217.409,5770 217.885,5770 L217.902,5770 C218.513,5770 219.01,5770.444 218.893,5771.043 L218.893,5771.043 Z M222,5775.615 C222,5776.168 221.552,5777 221,5777 L207,5777 C206.448,5777 206,5776.168 206,5775.615 L206,5768.615 C206,5764.204 209.589,5761 214,5761 C218.411,5761 222,5764.204 222,5768.615 L222,5775.615 Z M214,5759 C207.154,5759 204,5764.069 204,5768.615 L204,5776.615 C204,5777.72 204.895,5779 206,5779 L222,5779 C223.105,5779 224,5777.72 224,5776.615 L224,5768.615 C224,5764.155 220.948,5759 214,5759 L214,5759 Z" id="emoji_happy-[#513]"></path>
            </g>
        </g>
    </g>
</svg>