<?xml version="1.0" encoding="UTF-8" standalone="no"?>
<svg width="20px" height="20px" viewBox="0 0 20 20" version="1.1" xmlns="http://www.w3.org/2000/svg" xmlns:xlink="http://www.w3.org/1999/xlink">
    <!-- Generator: Sketch 3.8.1 (29687) - http://www.bohemiancoding.com/sketch -->
    <title>emoji_tongue_sticking_out  [#499]</title>
    <desc>Created with Sketch.</desc>
    <defs></defs>
    <g id="Page-1" stroke="none" stroke-width="1" fill="none" fill-rule="evenodd">
        <g id="Dribbble-Dark-Preview" transform="translate(-420.000000, -5959.000000)" fill="#FFFFFF">
            <g id="icons" transform="translate(56.000000, 160.000000)">
                <path d="M380,5811.8387 C380,5812.3907 379.552,5812.6777 379,5812.6777 C378.448,5812.6777 378,5813.2327 378,5813.7847 C378,5814.3367 377.552,5814.9997 377,5814.9997 L375,5814.9997 C374.448,5814.9997 374,5814.5527 374,5813.9997 C374,5813.4477 373.552,5812.9997 373,5812.9997 L369,5812.9997 C368.448,5812.9997 368,5812.5527 368,5811.9997 C368,5811.4477 368.448,5810.9997 369,5810.9997 L374,5810.9997 L378,5810.9997 L379,5810.9997 C379.552,5810.9997 380,5811.2867 380,5811.8387 L380,5811.8387 Z M380,5805.9997 L380,5806.5697 L380,5807.9997 C380,5808.5527 379.552,5808.9997 379,5808.9997 L377,5808.9997 C376.45,5808.9997 376,5808.5497 376,5807.9997 L376,5806.5697 L376,5805.9997 C376,5805.4477 376.448,5804.9997 377,5804.9997 L379,5804.9997 C379.552,5804.9997 380,5805.4477 380,5805.9997 L380,5805.9997 Z M368,5807.9997 L368,5806.5697 L368,5805.9997 C368,5805.4477 368.448,5804.9997 369,5804.9997 L371,5804.9997 C371.552,5804.9997 372,5805.4477 372,5805.9997 L372,5806.5697 L372,5807.9997 C372,5808.5527 371.552,5808.9997 371,5808.9997 L369,5808.9997 C368.45,5808.9997 368,5808.5497 368,5807.9997 L368,5807.9997 Z M382,5802.6037 L382,5808.5847 C382,5812.9967 378.411,5816.9997 374,5816.9997 C369.589,5816.9997 366,5812.9967 366,5808.5847 L366,5802.6037 L366,5801.5847 C366,5801.0327 366.448,5800.9997 367,5800.9997 L368.018,5800.9997 L374,5800.9997 L379.982,5800.9997 L381,5800.9997 C381.552,5800.9997 382,5801.0327 382,5801.5847 L382,5802.6037 Z M382,5798.9997 L374,5798.9997 L366,5798.9997 C364.895,5798.9997 364,5799.4807 364,5800.5847 L364,5808.5847 C364,5810.8317 364.75,5812.8977 366,5814.5667 C366.574,5815.3327 367.253,5816.0117 368.018,5816.5847 C369.688,5817.8357 371.754,5818.9997 374,5818.9997 C376.246,5818.9997 378.312,5817.8357 379.982,5816.5847 C380.747,5816.0117 381.426,5815.3327 382,5814.5667 C383.25,5812.8977 384,5810.8317 384,5808.5847 L384,5800.5847 C384,5799.4807 383.105,5798.9997 382,5798.9997 L382,5798.9997 Z" id="emoji_tongue_sticking_out--[#499]"></path>
            </g>
        </g>
    </g>
</svg>