<?xml version="1.0" encoding="UTF-8" standalone="no"?>
<svg width="20px" height="20px" viewBox="0 0 20 20" version="1.1" xmlns="http://www.w3.org/2000/svg" xmlns:xlink="http://www.w3.org/1999/xlink">
    <!-- Generator: Sketch 3.8.1 (29687) - http://www.bohemiancoding.com/sketch -->
    <title>emoji_sad_circle [#545]</title>
    <desc>Created with Sketch.</desc>
    <defs></defs>
    <g id="Page-1" stroke="none" stroke-width="1" fill="none" fill-rule="evenodd">
        <g id="Dribbble-Dark-Preview" transform="translate(-180.000000, -5799.000000)" fill="#FFFFFF">
            <g id="icons" transform="translate(56.000000, 160.000000)">
                <path d="M140,5647 L140,5647 C140,5648.105 139.105,5649 138,5649 C136.895,5649 136,5648.105 136,5647 C136,5645.895 136.895,5645 138,5645 C139.105,5645 140,5645.895 140,5647 M130,5649 L130,5649 C128.895,5649 128,5648.105 128,5647 C128,5645.895 128.895,5645 130,5645 C131.105,5645 132,5645.895 132,5647 C132,5648.105 131.105,5649 130,5649 M139,5655.415 L129,5655.415 C129,5648.415 139,5648.415 139,5655.415 M134,5657 C129.589,5657 126,5653.411 126,5649 C126,5644.589 129.589,5641 134,5641 C138.411,5641 142,5644.589 142,5649 C142,5653.411 138.411,5657 134,5657 M134,5639 C128.477,5639 124,5643.477 124,5649 C124,5654.523 128.477,5659 134,5659 C139.523,5659 144,5654.523 144,5649 C144,5643.477 139.523,5639 134,5639" id="emoji_sad_circle-[#545]"></path>
            </g>
        </g>
    </g>
</svg>