<?xml version="1.0" encoding="UTF-8" standalone="no"?>
<svg width="20px" height="20px" viewBox="0 0 20 20" version="1.1" xmlns="http://www.w3.org/2000/svg" xmlns:xlink="http://www.w3.org/1999/xlink">
    <!-- Generator: Sketch 3.8.1 (29687) - http://www.bohemiancoding.com/sketch -->
    <title>emoji_surprised [#509]</title>
    <desc>Created with Sketch.</desc>
    <defs></defs>
    <g id="Page-1" stroke="none" stroke-width="1" fill="none" fill-rule="evenodd">
        <g id="Dribbble-Dark-Preview" transform="translate(-420.000000, -5919.000000)" fill="#FFFFFF">
            <g id="icons" transform="translate(56.000000, 160.000000)">
                <path d="M376,5772.585 C376,5773.69 375.105,5774.585 374,5774.585 C372.895,5774.585 372,5773.69 372,5772.585 C372,5771.48 372.895,5770.585 374,5770.585 C375.105,5770.585 376,5771.48 376,5772.585 L376,5772.585 Z M380,5766 C380,5766.552 379.552,5767 379,5767 L377,5767 C376.448,5767 376,5766.552 376,5766 L376,5766 C376,5765.448 376.448,5765 377,5765 L379,5765 C379.552,5765 380,5765.448 380,5766 L380,5766 Z M372,5766 C372,5766.552 371.552,5767 371,5767 L369,5767 C368.448,5767 368,5766.552 368,5766 L368,5766 C368,5765.448 368.448,5765 369,5765 L371,5765 C371.552,5765 372,5765.448 372,5766 L372,5766 Z M382,5775.615 C382,5776.168 381.552,5777 381,5777 L367,5777 C366.448,5777 366,5776.168 366,5775.615 L366,5768.615 C366,5764.204 369.589,5761 374,5761 C378.411,5761 382,5764.204 382,5768.615 L382,5775.615 Z M382,5762.634 C379.924,5759.862 377.467,5759 374,5759 C370.53,5759 368.074,5759.864 366,5762.634 C364.75,5764.303 364,5766.369 364,5768.615 L364,5776.615 C364,5777.72 364.895,5779 366,5779 L382,5779 C383.105,5779 384,5777.72 384,5776.615 L384,5768.615 C384,5766.369 383.25,5764.303 382,5762.634 L382,5762.634 Z" id="emoji_surprised-[#509]"></path>
            </g>
        </g>
    </g>
</svg>