<?xml version="1.0" encoding="UTF-8" standalone="no"?>
<svg width="20px" height="20px" viewBox="0 0 20 20" version="1.1" xmlns="http://www.w3.org/2000/svg" xmlns:xlink="http://www.w3.org/1999/xlink">
    <!-- Generator: Sketch 3.8.1 (29687) - http://www.bohemiancoding.com/sketch -->
    <title>emoji_happy [#488]</title>
    <desc>Created with Sketch.</desc>
    <defs></defs>
    <g id="Page-1" stroke="none" stroke-width="1" fill="none" fill-rule="evenodd">
        <g id="Dribbble-Dark-Preview" transform="translate(-60.000000, -6039.000000)" fill="#FFFFFF">
            <g id="icons" transform="translate(56.000000, 160.000000)">
                <path d="M9,5890 L19,5890 C19,5897 9,5897 9,5890 L9,5890 Z M20,5886 C20,5886.552 19.552,5887 19,5887 L17,5887 C16.448,5887 16,5886.552 16,5886 C16,5885.448 16.448,5885 17,5885 L19,5885 C19.552,5885 20,5885.448 20,5886 L20,5886 Z M9,5887 C8.448,5887 8,5886.552 8,5886 C8,5885.448 8.448,5885 9,5885 L11,5885 C11.552,5885 12,5885.448 12,5886 C12,5886.552 11.552,5887 11,5887 L9,5887 Z M22,5882.603 L22,5888.585 C22,5892.996 18.411,5897 14,5897 C9.589,5897 6,5892.996 6,5888.585 L6,5882.603 L6,5881.585 C6,5881.033 6.448,5881 7,5881 L8.018,5881 L14,5881 L19.982,5881 L21,5881 C21.552,5881 22,5881.033 22,5881.585 L22,5882.603 Z M22,5879 L14,5879 L6,5879 C4.895,5879 4,5879.48 4,5880.585 L4,5888.585 C4,5890.831 4.75,5892.897 6,5894.567 C6.574,5895.333 7.253,5896.011 8.018,5896.585 C9.688,5897.835 11.754,5899 14,5899 C16.246,5899 18.312,5897.835 19.982,5896.585 C20.747,5896.011 21.426,5895.333 22,5894.567 C23.25,5892.897 24,5890.831 24,5888.585 L24,5880.585 C24,5879.48 23.105,5879 22,5879 L22,5879 Z" id="emoji_happy-[#488]"></path>
            </g>
        </g>
    </g>
</svg>