<?xml version="1.0" encoding="UTF-8" standalone="no"?>
<svg width="20px" height="20px" viewBox="0 0 20 20" version="1.1" xmlns="http://www.w3.org/2000/svg" xmlns:xlink="http://www.w3.org/1999/xlink">
    <!-- Generator: Sketch 3.8.1 (29687) - http://www.bohemiancoding.com/sketch -->
    <title>emoji_neutral [#572]</title>
    <desc>Created with Sketch.</desc>
    <defs></defs>
    <g id="Page-1" stroke="none" stroke-width="1" fill="none" fill-rule="evenodd">
        <g id="Dribbble-Dark-Preview" transform="translate(-300.000000, -5679.000000)" fill="#FFFFFF">
            <g id="icons" transform="translate(56.000000, 160.000000)">
                <path d="M262,5531 L256,5531 L256,5525 L252,5525 L252,5531 L246,5531 L246,5535.615 C246,5536.168 246.448,5537 247,5537 L261,5537 C261.552,5537 262,5536.168 262,5535.615 L262,5531 Z M246,5525 L246,5529 L246.002,5529 L250,5529 L250,5525 L246,5525 Z M248.76,5523 L252,5523 L256,5523 L259.24,5523 C257.835,5521 256.005,5520.833 254,5520.833 C251.995,5520.833 250.165,5521 248.76,5523 L248.76,5523 Z M258,5525 L258,5529 L261.998,5529 L262,5529 L262,5525 L258,5525 Z M264,5523 L264,5536.615 C264,5537.72 263.105,5539 262,5539 L246,5539 C244.895,5539 244,5537.72 244,5536.615 L244,5523 L246.042,5523 C246.607,5522 247.27,5521.435 248.018,5520.875 C249.688,5519.624 251.754,5519 254,5519 C256.246,5519 258.312,5519.572 259.982,5520.823 C260.73,5521.383 261.393,5522 261.958,5523 L264,5523 Z M250,5535 L258,5535 L258,5533 L250,5533 L250,5535 Z" id="emoji_neutral-[#572]"></path>
            </g>
        </g>
    </g>
</svg>