<?xml version="1.0" encoding="UTF-8" standalone="no"?>
<svg width="20px" height="20px" viewBox="0 0 20 20" version="1.1" xmlns="http://www.w3.org/2000/svg" xmlns:xlink="http://www.w3.org/1999/xlink">
    <!-- Generator: Sketch 3.8.1 (29687) - http://www.bohemiancoding.com/sketch -->
    <title>emoji_surprised_square [#395]</title>
    <desc>Created with Sketch.</desc>
    <defs></defs>
    <g id="Page-1" stroke="none" stroke-width="1" fill="none" fill-rule="evenodd">
        <g id="Dribbble-Dark-Preview" transform="translate(-180.000000, -6399.000000)" fill="#FFFFFF">
            <g id="icons" transform="translate(56.000000, 160.000000)">
                <path d="M132,6252.585 C132,6251.48 132.895,6250.585 134,6250.585 C135.105,6250.585 136,6251.48 136,6252.585 L136,6252.585 L136,6252.585 C136,6253.69 135.105,6254.585 134,6254.585 C132.895,6254.585 132,6253.69 132,6252.585 L132,6252.585 L132,6252.585 Z M136,6249 L140,6249 L140,6245 L136,6245 L136,6249 Z M128,6249 L132,6249 L132,6245 L128,6245 L128,6249 Z M126,6257 L142,6257 L142,6241 L126,6241 L126,6257 Z M124,6259 L144,6259 L144,6239 L124,6239 L124,6259 Z" id="emoji_surprised_square-[#395]"></path>
            </g>
        </g>
    </g>
</svg>