<?xml version="1.0" encoding="UTF-8" standalone="no"?>
<svg width="20px" height="20px" viewBox="0 0 20 20" version="1.1" xmlns="http://www.w3.org/2000/svg" xmlns:xlink="http://www.w3.org/1999/xlink">
    <!-- Generator: Sketch 3.8.1 (29687) - http://www.bohemiancoding.com/sketch -->
    <title>emoji_happy [#520]</title>
    <desc>Created with Sketch.</desc>
    <defs></defs>
    <g id="Page-1" stroke="none" stroke-width="1" fill="none" fill-rule="evenodd">
        <g id="Dribbble-Dark-Preview" transform="translate(-380.000000, -5879.000000)" fill="#FFFFFF">
            <g id="icons" transform="translate(56.000000, 160.000000)">
                <path d="M329,5730 L339,5730 C339,5737 329,5737 329,5730 L329,5730 Z M339,5725 C339.552,5725 340,5725.448 340,5726 C340,5726.552 339.552,5727 339,5727 L337,5727 C336.448,5727 336,5726.552 336,5726 C336,5725.448 336.448,5725 337,5725 L339,5725 Z M329,5727 C328.448,5727 328,5726.552 328,5726 C328,5725.448 328.448,5725 329,5725 L331,5725 C331.552,5725 332,5725.448 332,5726 C332,5726.552 331.552,5727 331,5727 L329,5727 Z M342,5735.6 C342,5736.152 341.552,5737 341,5737 L327,5737 C326.448,5737 326,5736.152 326,5735.6 L326,5729 C326,5719 342,5719 342,5729 L342,5735.6 Z M339.982,5720.6 C338.312,5719.35 336.246,5719 334,5719 C326.928,5719 324,5724.269 324,5728.6 L324,5736.6 C324,5737.705 324.895,5739 326,5739 L342,5739 C343.105,5739 344,5737.705 344,5736.6 L344,5728.6 C344,5725.395 342.457,5722.454 339.982,5720.6 L339.982,5720.6 Z" id="emoji_happy-[#520]"></path>
            </g>
        </g>
    </g>
</svg>