<?xml version="1.0" encoding="UTF-8" standalone="no"?>
<svg width="20px" height="20px" viewBox="0 0 20 20" version="1.1" xmlns="http://www.w3.org/2000/svg" xmlns:xlink="http://www.w3.org/1999/xlink">
    <!-- Generator: Sketch 3.8.1 (29687) - http://www.bohemiancoding.com/sketch -->
    <title>emoji_sad_square_round [#437]</title>
    <desc>Created with Sketch.</desc>
    <defs></defs>
    <g id="Page-1" stroke="none" stroke-width="1" fill="none" fill-rule="evenodd">
        <g id="Dribbble-Dark-Preview" transform="translate(-100.000000, -6239.000000)" fill="#FFFFFF">
            <g id="icons" transform="translate(56.000000, 160.000000)">
                <path d="M56,6086 C56,6085.448 56.448,6085 57,6085 L59,6085 C59.552,6085 60,6085.448 60,6086 L60,6088 C60,6088.55 59.55,6089 59,6089 L57,6089 C56.45,6089 56,6088.55 56,6088 L56,6086 Z M52,6088 C52,6088.552 51.552,6089 51,6089 L49,6089 C48.448,6089 48,6088.552 48,6088 L48,6086 C48,6085.448 48.448,6085 49,6085 L51,6085 C51.552,6085 52,6085.448 52,6086 L52,6088 Z M60,6092.689 L60,6093.585 C60,6094.137 59.552,6094.611 59,6094.611 L59,6094.637 C58.448,6094.637 58,6094.241 58,6093.689 L58,6093.792 C58,6093.24 57.552,6093 57,6093 L51,6093 C50.448,6093 50,6093.24 50,6093.792 L50,6093.585 C50,6094.137 49.552,6094.585 49,6094.585 C48.448,6094.585 48,6094.137 48,6093.585 L48,6092.689 C48,6091.584 48.896,6090.997 50,6090.997 L50,6091 L58,6091 C59,6091 60,6091.584 60,6092.689 L60,6092.689 Z M62,6096 C62,6096.552 61.552,6097 61,6097 L47,6097 C46.448,6097 46,6096.552 46,6096 L46,6082 C46,6081.448 46.448,6081 47,6081 L61,6081 C61.552,6081 62,6081.448 62,6082 L62,6096 Z M64,6081 C64,6079.895 63.105,6079 62,6079 L46,6079 C44.895,6079 44,6079.895 44,6081 L44,6097 C44,6098.105 44.895,6099 46,6099 L62,6099 C63.105,6099 64,6098.105 64,6097 L64,6081 Z" id="emoji_sad_square_round-[#437]"></path>
            </g>
        </g>
    </g>
</svg>