<?xml version="1.0" encoding="UTF-8" standalone="no"?>
<svg width="20px" height="20px" viewBox="0 0 20 20" version="1.1" xmlns="http://www.w3.org/2000/svg" xmlns:xlink="http://www.w3.org/1999/xlink">
    <!-- Generator: Sketch 3.8.1 (29687) - http://www.bohemiancoding.com/sketch -->
    <title>emoji_happy [#522]</title>
    <desc>Created with Sketch.</desc>
    <defs></defs>
    <g id="Page-1" stroke="none" stroke-width="1" fill="none" fill-rule="evenodd">
        <g id="Dribbble-Dark-Preview" transform="translate(-300.000000, -5879.000000)" fill="#FFFFFF">
            <g id="icons" transform="translate(56.000000, 160.000000)">
                <path d="M258.9039,5731.0381 C257.9419,5736.5151 250.0579,5736.4121 249.0959,5730.9341 C248.9909,5730.3361 249.4819,5730.0001 250.0899,5730.0001 L257.9099,5730.0001 C258.5179,5730.0001 259.0089,5730.4391 258.9039,5731.0381 L258.9039,5731.0381 Z M258.9999,5725.0001 C259.5519,5725.0001 259.9999,5725.4481 259.9999,5726.0001 L259.9999,5728.0001 C259.9999,5728.5521 259.5519,5729.0001 258.9999,5729.0001 L256.9999,5729.0001 C256.4499,5729.0001 255.9999,5728.5501 255.9999,5728.0001 L255.9999,5726.0001 C255.9999,5725.4481 256.4479,5725.0001 256.9999,5725.0001 L258.9999,5725.0001 Z M250.9999,5729.0001 L248.9999,5729.0001 C248.4499,5729.0001 247.9999,5728.5501 247.9999,5728.0001 L247.9999,5726.0001 C247.9999,5725.4481 248.4479,5725.0001 248.9999,5725.0001 L250.9999,5725.0001 C251.5519,5725.0001 251.9999,5725.4481 251.9999,5726.0001 L251.9999,5728.0001 C251.9999,5728.5521 251.5519,5729.0001 250.9999,5729.0001 L250.9999,5729.0001 Z M261.9999,5735.5941 C261.9999,5736.1471 261.5519,5737.0001 260.9999,5737.0001 L246.9999,5737.0001 C246.4479,5737.0001 245.9999,5736.1471 245.9999,5735.5941 L245.9999,5728.5941 C245.9999,5724.1831 249.5889,5721.0001 253.9999,5721.0001 C258.4109,5721.0001 261.9999,5724.1831 261.9999,5728.5941 L261.9999,5735.5941 Z M261.9999,5722.6121 C259.8979,5719.8061 257.4529,5719.0001 253.9999,5719.0001 C250.5449,5719.0001 248.1009,5719.8081 245.9999,5722.6121 C244.7499,5724.2821 243.9999,5726.3481 243.9999,5728.5941 L243.9999,5736.5941 C243.9999,5737.6991 244.8959,5739.0001 245.9999,5739.0001 L261.9999,5739.0001 C263.1049,5739.0001 263.9999,5737.6991 263.9999,5736.5941 L263.9999,5728.5941 C263.9999,5726.3481 263.2499,5724.2821 261.9999,5722.6121 L261.9999,5722.6121 Z" id="emoji_happy-[#522]"></path>
            </g>
        </g>
    </g>
</svg>