<?xml version="1.0" encoding="UTF-8" standalone="no"?>
<svg width="20px" height="20px" viewBox="0 0 20 20" version="1.1" xmlns="http://www.w3.org/2000/svg" xmlns:xlink="http://www.w3.org/1999/xlink">
    <!-- Generator: Sketch 3.8.1 (29687) - http://www.bohemiancoding.com/sketch -->
    <title>emoji_sad [#497]</title>
    <desc>Created with Sketch.</desc>
    <defs></defs>
    <g id="Page-1" stroke="none" stroke-width="1" fill="none" fill-rule="evenodd">
        <g id="Dribbble-Dark-Preview" transform="translate(-100.000000, -5999.000000)" fill="#FFFFFF">
            <g id="icons" transform="translate(56.000000, 160.000000)">
                <path d="M60,5846 L60,5846.577 L60,5848 C60,5848.552 59.552,5849 59,5849 L57,5849 C56.45,5849 56,5848.55 56,5848 L56,5846.577 L56,5846 C56,5845.448 56.448,5845 57,5845 L59,5845 C59.552,5845 60,5845.448 60,5846 L60,5846 Z M52,5846 L52,5846.577 L52,5848 C52,5848.552 51.552,5849 51,5849 L49,5849 C48.45,5849 48,5848.55 48,5848 L48,5846.577 L48,5846 C48,5845.448 48.448,5845 49,5845 L51,5845 C51.552,5845 52,5845.448 52,5846 L52,5846 Z M62,5842.603 L62,5848.585 C62,5850.661 61.198,5852.76 59.897,5854.184 C59.639,5853.377 58.892,5853 58,5853 L50,5853 C49.108,5853 48.361,5853.377 48.103,5854.184 C46.802,5852.76 46,5850.661 46,5848.585 L46,5842.603 L46,5841.585 C46,5841.033 46.448,5841 47,5841 L48.018,5841 L54,5841 L59.982,5841 L61,5841 C61.552,5841 62,5841.033 62,5841.585 L62,5842.603 Z M50.013,5855.722 C50.05,5855.203 50.471,5855 51,5855 L57,5855 C57.529,5855 57.95,5855.203 57.987,5855.722 C56.811,5856.401 55.452,5857.211 54,5857.211 C52.548,5857.211 51.189,5856.401 50.013,5855.722 L50.013,5855.722 Z M62,5839 L54,5839 L46,5839 C44.895,5839 44,5839.48 44,5840.585 L44,5848.585 C44,5850.831 44.75,5852.897 46,5854.567 C46.574,5855.333 47.253,5856.011 48.018,5856.585 C49.688,5857.835 51.754,5859 54,5859 C56.246,5859 58.312,5857.835 59.982,5856.585 C60.747,5856.011 61.426,5855.333 62,5854.567 C63.25,5852.897 64,5850.831 64,5848.585 L64,5840.585 C64,5839.48 63.105,5839 62,5839 L62,5839 Z" id="emoji_sad-[#497]"></path>
            </g>
        </g>
    </g>
</svg>