<?xml version="1.0" encoding="UTF-8" standalone="no"?>
<svg width="20px" height="20px" viewBox="0 0 20 20" version="1.1" xmlns="http://www.w3.org/2000/svg" xmlns:xlink="http://www.w3.org/1999/xlink">
    <!-- Generator: Sketch 3.8.1 (29687) - http://www.bohemiancoding.com/sketch -->
    <title>emoji_neutral_square_glasses [#419]</title>
    <desc>Created with Sketch.</desc>
    <defs></defs>
    <g id="Page-1" stroke="none" stroke-width="1" fill="none" fill-rule="evenodd">
        <g id="Dribbble-Dark-Preview" transform="translate(-420.000000, -6279.000000)" fill="#FFFFFF">
            <g id="icons" transform="translate(56.000000, 160.000000)">
                <path d="M372,6135 L376,6135 L376,6133 L372,6133 L372,6135 Z M382,6123 L376,6123 L372,6123 L366,6123 L366,6121 L382,6121 L382,6123 Z M382,6129 L378.999,6129 C378.447,6129 378,6128.138 378,6127.586 L378,6125 L382,6125 L382,6129 Z M382,6137 L366,6137 L366,6131 L370,6131 C371.105,6131 372,6129.69 372,6128.585 L372,6125 L376,6125 L376,6128.589 C376,6129.692 376.893,6131 377.996,6131 L382,6131 L382,6137 Z M366,6125 L370,6125 L370,6127.581 C370,6128.136 369.551,6129 368.996,6129 L366,6129 L366,6125 Z M364,6139 L384,6139 L384,6119 L364,6119 L364,6139 Z" id="emoji_neutral_square_glasses-[#419]"></path>
            </g>
        </g>
    </g>
</svg>