<?xml version="1.0" encoding="UTF-8" standalone="no"?>
<svg width="20px" height="20px" viewBox="0 0 20 20" version="1.1" xmlns="http://www.w3.org/2000/svg" xmlns:xlink="http://www.w3.org/1999/xlink">
    <!-- Generator: Sketch 3.8.1 (29687) - http://www.bohemiancoding.com/sketch -->
    <title>emoji_happy_circle [#547]</title>
    <desc>Created with Sketch.</desc>
    <defs></defs>
    <g id="Page-1" stroke="none" stroke-width="1" fill="none" fill-rule="evenodd">
        <g id="Dribbble-Dark-Preview" transform="translate(-100.000000, -5799.000000)" fill="#FFFFFF">
            <g id="icons" transform="translate(56.000000, 160.000000)">
                <path d="M60,5646.415 L60,5648.415 C60,5648.967 59.552,5649.415 59,5649.415 L57,5649.415 C56.448,5649.415 56,5648.967 56,5648.415 L56,5646.415 C56,5645.863 56.448,5645.415 57,5645.415 L59,5645.415 C59.552,5645.415 60,5645.863 60,5646.415 L60,5646.415 Z M49,5649.415 C48.448,5649.415 48,5648.967 48,5648.415 L48,5646.415 C48,5645.863 48.448,5645.415 49,5645.415 L51,5645.415 C51.552,5645.415 52,5645.863 52,5646.415 L52,5648.415 C52,5648.967 51.552,5649.415 51,5649.415 L49,5649.415 Z M58.904,5651.453 C57.942,5656.931 50.058,5656.827 49.096,5651.349 C48.991,5650.751 49.482,5650.415 50.09,5650.415 L57.91,5650.415 C58.518,5650.415 59.009,5650.855 58.904,5651.453 L58.904,5651.453 Z M54,5657 C49.589,5657 46,5653.411 46,5649 C46,5644.589 49.589,5641 54,5641 C58.411,5641 62,5644.589 62,5649 C62,5653.411 58.411,5657 54,5657 L54,5657 Z M54,5639 C48.477,5639 44,5643.477 44,5649 C44,5654.523 48.477,5659 54,5659 C59.523,5659 64,5654.523 64,5649 C64,5643.477 59.523,5639 54,5639 L54,5639 Z" id="emoji_happy_circle-[#547]"></path>
            </g>
        </g>
    </g>
</svg>