<?xml version="1.0" encoding="UTF-8" standalone="no"?>
<svg width="20px" height="20px" viewBox="0 0 20 20" version="1.1" xmlns="http://www.w3.org/2000/svg" xmlns:xlink="http://www.w3.org/1999/xlink">
    <!-- Generator: Sketch 3.8.1 (29687) - http://www.bohemiancoding.com/sketch -->
    <title>emoji_minecraft_square [#409]</title>
    <desc>Created with Sketch.</desc>
    <defs></defs>
    <g id="Page-1" stroke="none" stroke-width="1" fill="none" fill-rule="evenodd">
        <g id="Dribbble-Dark-Preview" transform="translate(-420.000000, -6319.000000)" fill="#FFFFFF">
            <g id="icons" transform="translate(56.000000, 160.000000)">
                <path d="M376,6169 L380,6169 L380,6165 L376,6165 L376,6169 Z M368,6169 L372,6169 L372,6165 L368,6165 L368,6169 Z M382,6177 L378,6177 L378,6171 L376,6171 L376,6169 L372,6169 L372,6171 L370,6171 L370,6177 L366,6177 L366,6161 L382,6161 L382,6177 Z M372,6177 L376,6177 L376,6175 L372,6175 L372,6177 Z M364,6179 L384,6179 L384,6159 L364,6159 L364,6179 Z" id="emoji_minecraft_square-[#409]"></path>
            </g>
        </g>
    </g>
</svg>