<?xml version="1.0" encoding="UTF-8" standalone="no"?>
<svg width="20px" height="20px" viewBox="0 0 20 20" version="1.1" xmlns="http://www.w3.org/2000/svg" xmlns:xlink="http://www.w3.org/1999/xlink">
    <!-- Generator: Sketch 3.8.1 (29687) - http://www.bohemiancoding.com/sketch -->
    <title>emoji_neutral_circle [#552]</title>
    <desc>Created with Sketch.</desc>
    <defs></defs>
    <g id="Page-1" stroke="none" stroke-width="1" fill="none" fill-rule="evenodd">
        <g id="Dribbble-Dark-Preview" transform="translate(-300.000000, -5759.000000)" fill="#FFFFFF">
            <g id="icons" transform="translate(56.000000, 160.000000)">
                <path d="M260,5612.415 C260,5612.967 259.552,5613.415 259,5613.415 L249,5613.415 C248.448,5613.415 248,5612.967 248,5612.415 C248,5611.863 248.448,5611.415 249,5611.415 L259,5611.415 C259.552,5611.415 260,5611.863 260,5612.415 M254,5617 C249.589,5617 246,5613.411 246,5609 C246,5607.411 246.471,5605.933 247.273,5604.687 L248.586,5606 L247.586,5607 C247.195,5607.39 247.195,5608.024 247.586,5608.414 C247.976,5608.805 248.609,5608.805 249,5608.414 L250,5607.414 L251,5608.414 C251.391,5608.805 252.024,5608.805 252.414,5608.414 L252.414,5608.414 C252.805,5608.024 252.805,5607.39 252.414,5607 L251.414,5606 L252.414,5605 C252.805,5604.609 252.805,5603.976 252.414,5603.586 C252.024,5603.195 251.391,5603.195 251,5603.586 L250,5604.586 L248.563,5603.149 C249.992,5601.82 251.9,5601 254,5601 C256.1,5601 258.008,5601.82 259.437,5603.149 L258,5604.586 L257,5603.586 C256.609,5603.195 255.976,5603.195 255.586,5603.586 L255.586,5603.586 C255.195,5603.976 255.195,5604.609 255.586,5605 L256.586,5606 L255.586,5607 C255.195,5607.39 255.195,5608.024 255.586,5608.414 C255.976,5608.805 256.609,5608.805 257,5608.414 L258,5607.414 L259,5608.414 C259.391,5608.805 260.024,5608.805 260.414,5608.414 L260.414,5608.414 C260.805,5608.024 260.805,5607.39 260.414,5607 L259.414,5606 L260.727,5604.687 C261.529,5605.933 262,5607.411 262,5609 C262,5613.411 258.411,5617 254,5617 M254,5599 C248.477,5599 244,5603.477 244,5609 C244,5614.523 248.477,5619 254,5619 C259.523,5619 264,5614.523 264,5609 C264,5603.477 259.523,5599 254,5599" id="emoji_neutral_circle-[#552]"></path>
            </g>
        </g>
    </g>
</svg>