<?xml version="1.0" encoding="UTF-8" standalone="no"?>
<svg width="20px" height="20px" viewBox="0 0 20 20" version="1.1" xmlns="http://www.w3.org/2000/svg" xmlns:xlink="http://www.w3.org/1999/xlink">
    <!-- Generator: Sketch 3.8.1 (29687) - http://www.bohemiancoding.com/sketch -->
    <title>emoji_sad_missing [#578]</title>
    <desc>Created with Sketch.</desc>
    <defs></defs>
    <g id="Page-1" stroke="none" stroke-width="1" fill="none" fill-rule="evenodd">
        <g id="Dribbble-Dark-Preview" transform="translate(-60.000000, -5679.000000)" fill="#FFFFFF">
            <g id="icons" transform="translate(56.000000, 160.000000)">
                <path d="M22,5533 L24,5533 L24,5525 L22,5525 L22,5533 Z M21,5537 L20,5537 L20,5539 L22,5539 C23.105,5539 24,5538.105 24,5537 L24,5535 L22,5535 L22,5536 C22,5536.552 21.552,5537 21,5537 L21,5537 Z M20,5519 L20,5521 L21,5521 C21.552,5521 22,5521.448 22,5522 L22,5523 L24,5523 L24,5521 C24,5519.895 23.105,5519 22,5519 L20,5519 Z M4,5533 L6,5533 L6,5525 L4,5525 L4,5533 Z M6,5535 L4,5535 L4,5537 C4,5538.105 4.895,5539 6,5539 L8,5539 L8,5537 L7,5537 C6.448,5537 6,5536.552 6,5536 L6,5535 Z M7,5521 L8,5521 L8,5519 L6,5519 C4.895,5519 4,5519.895 4,5521 L4,5523 L6,5523 L6,5522 C6,5521.448 6.448,5521 7,5521 L7,5521 Z M10,5539 L18,5539 L18,5537 L10,5537 L10,5539 Z M10,5521 L18,5521 L18,5519 L10,5519 L10,5521 Z M17,5528 L19,5528 C19.552,5528 20,5527.552 20,5527 L20,5525 C20,5524.448 19.552,5524 19,5524 L17,5524 C16.448,5524 16,5524.448 16,5525 L16,5527 C16,5527.552 16.448,5528 17,5528 L17,5528 Z M11,5524 L9,5524 C8.448,5524 8,5524.448 8,5525 L8,5527 C8,5527.552 8.448,5528 9,5528 L11,5528 C11.552,5528 12,5527.552 12,5527 L12,5525 C12,5524.448 11.552,5524 11,5524 L11,5524 Z M19.167,5534 L9.167,5534 C9.167,5528 19.167,5528 19.167,5534 L19.167,5534 Z" id="emoji_sad_missing-[#578]"></path>
            </g>
        </g>
    </g>
</svg>