<?xml version="1.0" encoding="UTF-8" standalone="no"?>
<svg width="20px" height="20px" viewBox="0 0 20 20" version="1.1" xmlns="http://www.w3.org/2000/svg" xmlns:xlink="http://www.w3.org/1999/xlink">
    <!-- Generator: Sketch 3.8.1 (29687) - http://www.bohemiancoding.com/sketch -->
    <title>emoji_happy [#518]</title>
    <desc>Created with Sketch.</desc>
    <defs></defs>
    <g id="Page-1" stroke="none" stroke-width="1" fill="none" fill-rule="evenodd">
        <g id="Dribbble-Dark-Preview" transform="translate(-60.000000, -5919.000000)" fill="#FFFFFF">
            <g id="icons" transform="translate(56.000000, 160.000000)">
                <path d="M9,5770 L19,5770 C19,5777 9,5777 9,5770 L9,5770 Z M19,5765 C19.552,5765 20,5765.448 20,5766 L20,5768 C20,5768.552 19.552,5769 19,5769 L17,5769 C16.45,5769 16,5768.55 16,5768 L16,5766 C16,5765.448 16.448,5765 17,5765 L19,5765 Z M9,5769 C8.45,5769 8,5768.55 8,5768 L8,5766 C8,5765.448 8.448,5765 9,5765 L11,5765 C11.552,5765 12,5765.448 12,5766 L12,5768 C12,5768.552 11.552,5769 11,5769 L9,5769 Z M22,5775.6 C22,5776.152 21.552,5777 21,5777 L7,5777 C6.448,5777 6,5776.152 6,5775.6 L6,5768.6 C6,5764.189 9.589,5761 14,5761 C18.411,5761 22,5764.189 22,5768.6 L22,5775.6 Z M22,5762.618 C21.426,5761.853 20.747,5761.174 19.982,5760.6 C18.312,5759.35 16.246,5759 14,5759 C10.507,5759 8.079,5759.842 6,5762.618 C4.75,5764.288 4,5766.354 4,5768.6 L4,5776.6 C4,5777.705 4.895,5779 6,5779 L22,5779 C23.105,5779 24,5777.705 24,5776.6 L24,5768.6 C24,5766.354 23.25,5764.288 22,5762.618 L22,5762.618 Z" id="emoji_happy-[#518]"></path>
            </g>
        </g>
    </g>
</svg>