<?xml version="1.0" encoding="UTF-8" standalone="no"?>
<svg width="20px" height="20px" viewBox="0 0 20 20" version="1.1" xmlns="http://www.w3.org/2000/svg" xmlns:xlink="http://www.w3.org/1999/xlink">
    <!-- Generator: Sketch 3.8.1 (29687) - http://www.bohemiancoding.com/sketch -->
    <title>emoji_simple_no_face_circle [#554]</title>
    <desc>Created with Sketch.</desc>
    <defs></defs>
    <g id="Page-1" stroke="none" stroke-width="1" fill="none" fill-rule="evenodd">
        <g id="Dribbble-Dark-Preview" transform="translate(-220.000000, -5759.000000)" fill="#FFFFFF">
            <g id="icons" transform="translate(56.000000, 160.000000)">
                <path d="M176,5607 C176,5605.895 176.895,5605 178,5605 C179.105,5605 180,5605.895 180,5607 C180,5608.105 179.105,5609 178,5609 C176.895,5609 176,5608.105 176,5607 M168,5607 C168,5605.895 168.895,5605 170,5605 C171.105,5605 172,5605.895 172,5607 C172,5608.105 171.105,5609 170,5609 C168.895,5609 168,5608.105 168,5607 M174,5617 C169.589,5617 166,5613.411 166,5609 C166,5604.589 169.589,5601 174,5601 C178.411,5601 182,5604.589 182,5609 C182,5613.411 178.411,5617 174,5617 M174,5599 C168.477,5599 164,5603.477 164,5609 C164,5614.523 168.477,5619 174,5619 C179.523,5619 184,5614.523 184,5609 C184,5603.477 179.523,5599 174,5599" id="emoji_simple_no_face_circle-[#554]"></path>
            </g>
        </g>
    </g>
</svg>