<?xml version="1.0" encoding="UTF-8" standalone="no"?>
<svg width="20px" height="20px" viewBox="0 0 20 20" version="1.1" xmlns="http://www.w3.org/2000/svg" xmlns:xlink="http://www.w3.org/1999/xlink">
    <!-- Generator: Sketch 3.8.1 (29687) - http://www.bohemiancoding.com/sketch -->
    <title>emoji_sad [#517]</title>
    <desc>Created with Sketch.</desc>
    <defs></defs>
    <g id="Page-1" stroke="none" stroke-width="1" fill="none" fill-rule="evenodd">
        <g id="Dribbble-Dark-Preview" transform="translate(-100.000000, -5919.000000)" fill="#FFFFFF">
            <g id="icons" transform="translate(56.000000, 160.000000)">
                <path d="M59,5765 C59.552,5765 60,5765.448 60,5766 L60,5768 C60,5768.552 59.552,5769 59,5769 L57,5769 C56.45,5769 56,5768.55 56,5768 L56,5766 C56,5765.448 56.448,5765 57,5765 L59,5765 Z M49,5769 C48.45,5769 48,5768.55 48,5768 L48,5766 C48,5765.448 48.448,5765 49,5765 L51,5765 C51.552,5765 52,5765.448 52,5766 L52,5768 C52,5768.552 51.552,5769 51,5769 L49,5769 Z M59,5775 L49,5775 C49,5768 59,5768 59,5775 L59,5775 Z M62,5775.615 C62,5776.168 61.552,5777 61,5777 L47,5777 C46.448,5777 46,5776.168 46,5775.615 L46,5768.615 C46,5764.204 49.589,5761 54,5761 C58.411,5761 62,5764.204 62,5768.615 L62,5775.615 Z M62,5762.633 C59.924,5759.862 57.467,5759 54,5759 C50.53,5759 48.074,5759.864 46,5762.633 C44.75,5764.303 44,5766.369 44,5768.615 L44,5776.615 C44,5777.72 44.895,5779 46,5779 L62,5779 C63.105,5779 64,5777.72 64,5776.615 L64,5768.615 C64,5766.369 63.25,5764.303 62,5762.633 L62,5762.633 Z" id="emoji_sad-[#517]"></path>
            </g>
        </g>
    </g>
</svg>