<?xml version="1.0" encoding="UTF-8" standalone="no"?>
<svg width="20px" height="20px" viewBox="0 0 20 20" version="1.1" xmlns="http://www.w3.org/2000/svg" xmlns:xlink="http://www.w3.org/1999/xlink">
    <!-- Generator: Sketch 3.8.1 (29687) - http://www.bohemiancoding.com/sketch -->
    <title>emoji_happy_square_round [#441]</title>
    <desc>Created with Sketch.</desc>
    <defs></defs>
    <g id="Page-1" stroke="none" stroke-width="1" fill="none" fill-rule="evenodd">
        <g id="Dribbble-Dark-Preview" transform="translate(-340.000000, -6199.000000)" fill="#FFFFFF">
            <g id="icons" transform="translate(56.000000, 160.000000)">
                <path d="M300,6046 C300,6046.552 299.552,6047 299,6047 L297,6047 C296.448,6047 296,6046.552 296,6046 C296,6045.448 296.448,6045 297,6045 L299,6045 C299.552,6045 300,6045.448 300,6046 L300,6046 Z M292,6046 C292,6046.552 291.552,6047 291,6047 L289,6047 C288.448,6047 288,6046.552 288,6046 C288,6045.448 288.448,6045 289,6045 L291,6045 C291.552,6045 292,6045.448 292,6046 L292,6046 Z M300,6051.585 L300,6052.585 C300,6053.913 298.913,6055 297.585,6055 L290.623,6055 C289.18,6055 288,6053.82 288,6052.377 L288,6051.585 C288,6051.033 288,6050.611 289,6050.611 L289,6050.637 C290,6050.637 290,6051.136 290,6051.689 L290,6051.792 C290,6052.345 290.448,6053 291,6053 L296.585,6053 C297.363,6053 298,6052.363 298,6051.585 C298,6051.033 298.448,6050.585 299,6050.585 C299.552,6050.585 300,6051.033 300,6051.585 L300,6051.585 Z M302,6056 C302,6056.552 301.552,6057 301,6057 L287,6057 C286.448,6057 286,6056.552 286,6056 L286,6042 C286,6041.448 286.448,6041 287,6041 L301,6041 C301.552,6041 302,6041.448 302,6042 L302,6056 Z M304,6041 C304,6039.895 303.105,6039 302,6039 L286,6039 C284.895,6039 284,6039.895 284,6041 L284,6057 C284,6058.105 284.895,6059 286,6059 L302,6059 C303.105,6059 304,6058.105 304,6057 L304,6041 Z" id="emoji_happy_square_round-[#441]"></path>
            </g>
        </g>
    </g>
</svg>