<?xml version="1.0" encoding="UTF-8" standalone="no"?>
<svg width="20px" height="20px" viewBox="0 0 20 20" version="1.1" xmlns="http://www.w3.org/2000/svg" xmlns:xlink="http://www.w3.org/1999/xlink">
    <!-- Generator: Sketch 3.8.1 (29687) - http://www.bohemiancoding.com/sketch -->
    <title>emoji_tongue_sticking_out _square_round [#439]</title>
    <desc>Created with Sketch.</desc>
    <defs></defs>
    <g id="Page-1" stroke="none" stroke-width="1" fill="none" fill-rule="evenodd">
        <g id="Dribbble-Dark-Preview" transform="translate(-420.000000, -6199.000000)" fill="#FFFFFF">
            <g id="icons" transform="translate(56.000000, 160.000000)">
                <path d="M379,6051 C379.552,6051 380,6051.247 380,6051.799 L380,6051.598 C380,6052.15 380,6052.611 379,6052.611 L379,6052.637 C378,6052.637 378,6053.136 378,6053.689 L378,6053.792 C378,6054.345 377.552,6055 377,6055 L375,6055 C374.448,6055 374,6054.449 374,6053.896 L374,6053.792 C374,6053.24 373.552,6053 373,6053 L369,6053 C368.448,6053 368,6052.449 368,6051.896 L368,6051.792 C368,6051.24 368.448,6051 369,6051 L379,6051 Z M376,6046 C376,6045.448 376.448,6045 377,6045 L379,6045 C379.552,6045 380,6045.448 380,6046 L380,6048 C380,6048.552 379.552,6049 379,6049 L377,6049 C376.45,6049 376,6048.55 376,6048 L376,6046 Z M372,6048 C372,6048.552 371.552,6049 371,6049 L369,6049 C368.45,6049 368,6048.55 368,6048 L368,6046 C368,6045.448 368.448,6045 369,6045 L371,6045 C371.552,6045 372,6045.448 372,6046 L372,6048 Z M382,6056 C382,6056.552 381.552,6057 381,6057 L367,6057 C366.448,6057 366,6056.552 366,6056 L366,6042 C366,6041.448 366.448,6041 367,6041 L381,6041 C381.552,6041 382,6041.448 382,6042 L382,6056 Z M384,6041 C384,6039.895 383.105,6039 382,6039 L366,6039 C364.895,6039 364,6039.895 364,6041 L364,6057 C364,6058.105 364.895,6059 366,6059 L382,6059 C383.105,6059 384,6058.105 384,6057 L384,6041 Z" id="emoji_tongue_sticking_out-_square_round-[#439]"></path>
            </g>
        </g>
    </g>
</svg>