<?xml version="1.0" encoding="UTF-8" standalone="no"?>
<svg width="20px" height="20px" viewBox="0 0 20 20" version="1.1" xmlns="http://www.w3.org/2000/svg" xmlns:xlink="http://www.w3.org/1999/xlink">
    <!-- Generator: Sketch 3.8.1 (29687) - http://www.bohemiancoding.com/sketch -->
    <title>emoji_neutral_circle [#562]</title>
    <desc>Created with Sketch.</desc>
    <defs></defs>
    <g id="Page-1" stroke="none" stroke-width="1" fill="none" fill-rule="evenodd">
        <g id="Dribbble-Dark-Preview" transform="translate(-300.000000, -5719.000000)" fill="#FFFFFF">
            <g id="icons" transform="translate(56.000000, 160.000000)">
                <path d="M258,5569 L262,5569 L262,5565 L258,5565 L258,5569 Z M261.737,5571 L256,5571 L256,5565 L252,5565 L252,5571 L246.263,5571 C247.155,5574 250.28,5577 254,5577 C257.72,5577 260.845,5574 261.737,5571 L261.737,5571 Z M246,5569 L250,5569 L250,5565 L246,5565 L246,5569 Z M248.726,5563 L259.274,5563 C257.864,5561 256.021,5561 254,5561 C251.979,5561 250.136,5561 248.726,5563 L248.726,5563 Z M264,5563 L264,5571 L263.799,5571 C262.872,5575 258.838,5579 254,5579 C249.162,5579 245.128,5575 244.201,5571 L244,5571 L244,5563 L246.014,5563 C247.838,5560 250.732,5559 254,5559 C257.268,5559 260.162,5560 261.986,5563 L264,5563 Z M251,5573 L257,5573 C257.552,5573 258,5573.448 258,5574 C258,5574.552 257.552,5575 257,5575 L251,5575 C250.448,5575 250,5574.552 250,5574 C250,5573.448 250.448,5573 251,5573 L251,5573 Z" id="emoji_neutral_circle-[#562]"></path>
            </g>
        </g>
    </g>
</svg>