<?xml version="1.0" encoding="UTF-8" standalone="no"?>
<svg width="20px" height="20px" viewBox="0 0 20 20" version="1.1" xmlns="http://www.w3.org/2000/svg" xmlns:xlink="http://www.w3.org/1999/xlink">
    <!-- Generator: Sketch 3.8.1 (29687) - http://www.bohemiancoding.com/sketch -->
    <title>emoji_surprised_circle [#535]</title>
    <desc>Created with Sketch.</desc>
    <defs></defs>
    <g id="Page-1" stroke="none" stroke-width="1" fill="none" fill-rule="evenodd">
        <g id="Dribbble-Dark-Preview" transform="translate(-180.000000, -5839.000000)" fill="#FFFFFF">
            <g id="icons" transform="translate(56.000000, 160.000000)">
                <path d="M136,5693 C136,5694.105 135.105,5695 134,5695 C132.895,5695 132,5694.105 132,5693 C132,5691.895 132.895,5691 134,5691 C135.105,5691 136,5691.895 136,5693 L136,5693 Z M140,5688.415 C140,5688.967 139.552,5689.415 139,5689.415 L137,5689.415 C136.448,5689.415 136,5688.967 136,5688.415 L136,5686.415 C136,5685.863 136.448,5685.415 137,5685.415 L139,5685.415 C139.552,5685.415 140,5685.863 140,5686.415 L140,5688.415 Z M132,5688.415 C132,5688.967 131.552,5689.415 131,5689.415 L129,5689.415 C128.448,5689.415 128,5688.967 128,5688.415 L128,5686.415 C128,5685.863 128.448,5685.415 129,5685.415 L131,5685.415 C131.552,5685.415 132,5685.863 132,5686.415 L132,5688.415 Z M134,5697 C129.589,5697 126,5693.411 126,5689 C126,5684.589 129.589,5681 134,5681 C138.411,5681 142,5684.589 142,5689 C142,5693.411 138.411,5697 134,5697 L134,5697 Z M134,5679 C128.477,5679 124,5683.477 124,5689 C124,5694.523 128.477,5699 134,5699 C139.523,5699 144,5694.523 144,5689 C144,5683.477 139.523,5679 134,5679 L134,5679 Z" id="emoji_surprised_circle-[#535]"></path>
            </g>
        </g>
    </g>
</svg>