<?xml version="1.0" encoding="UTF-8" standalone="no"?>
<svg width="20px" height="20px" viewBox="0 0 20 20" version="1.1" xmlns="http://www.w3.org/2000/svg" xmlns:xlink="http://www.w3.org/1999/xlink">
    <!-- Generator: Sketch 3.8.1 (29687) - http://www.bohemiancoding.com/sketch -->
    <title>emoji_sad_missing [#583]</title>
    <desc>Created with Sketch.</desc>
    <defs></defs>
    <g id="Page-1" stroke="none" stroke-width="1" fill="none" fill-rule="evenodd">
        <g id="Dribbble-Dark-Preview" transform="translate(-260.000000, -5639.000000)" fill="#FFFFFF">
            <g id="icons" transform="translate(56.000000, 160.000000)">
                <path d="M222,5493 L224,5493 L224,5485 L222,5485 L222,5493 Z M222,5497 L220,5497 L220,5499 L224,5499 L224,5495 L222,5495 L222,5497 Z M220,5479 L220,5481 L222,5481 L222,5483 L224,5483 L224,5479 L220,5479 Z M204,5493 L206,5493 L206,5485 L204,5485 L204,5493 Z M206,5495 L204,5495 L204,5499 L208,5499 L208,5497 L206,5497 L206,5495 Z M206,5481 L208,5481 L208,5479 L204,5479 L204,5483 L206,5483 L206,5481 Z M210,5499 L218,5499 L218,5497 L210,5497 L210,5499 Z M210,5481 L218,5481 L218,5479 L210,5479 L210,5481 Z M216,5488 L220,5488 L220,5484 L216,5484 L216,5488 Z M208,5488 L212,5488 L212,5484 L208,5484 L208,5488 Z M219.167,5494 L217.167,5494 C217.167,5490 211.167,5490 211.167,5494 L209.167,5494 C209.167,5488 219.167,5488 219.167,5494 L219.167,5494 Z" id="emoji_sad_missing-[#583]"></path>
            </g>
        </g>
    </g>
</svg>