<?xml version="1.0" encoding="UTF-8" standalone="no"?>
<svg width="20px" height="20px" viewBox="0 0 20 20" version="1.1" xmlns="http://www.w3.org/2000/svg" xmlns:xlink="http://www.w3.org/1999/xlink">
    <!-- Generator: Sketch 3.8.1 (29687) - http://www.bohemiancoding.com/sketch -->
    <title>emoji_tongue_sticking_out  [#531]</title>
    <desc>Created with Sketch.</desc>
    <defs></defs>
    <g id="Page-1" stroke="none" stroke-width="1" fill="none" fill-rule="evenodd">
        <g id="Dribbble-Dark-Preview" transform="translate(-340.000000, -5839.000000)" fill="#FFFFFF">
            <g id="icons" transform="translate(56.000000, 160.000000)">
                <path d="M300,5691.844 C300,5692.396 299.552,5692.688 299,5692.688 C298.448,5692.688 298,5693.24 298,5693.792 C298,5694.344 297.552,5695 297,5695 L295,5695 C294.448,5695 294,5694.552 294,5694 C294,5693.447 293.552,5693 293,5693 L289,5693 C288.448,5693 288,5692.552 288,5692 C288,5691.447 288.448,5691 289,5691 L294,5691 L298,5691 L299,5691 C299.552,5691 300,5691.292 300,5691.844 L300,5691.844 Z M299,5685 C299.552,5685 300,5685.447 300,5686 L300,5688 C300,5688.552 299.552,5689 299,5689 L297,5689 C296.45,5689 296,5688.55 296,5688 L296,5686 C296,5685.447 296.448,5685 297,5685 L299,5685 Z M288,5688 L288,5686 C288,5685.447 288.448,5685 289,5685 L291,5685 C291.552,5685 292,5685.447 292,5686 L292,5688 C292,5688.552 291.552,5689 291,5689 L289,5689 C288.45,5689 288,5688.55 288,5688 L288,5688 Z M302,5695.6 C302,5696.152 301.552,5697 301,5697 L287,5697 C286.448,5697 286,5696.152 286,5695.6 L286,5688.6 C286,5684.188 289.589,5681 294,5681 C298.411,5681 302,5684.188 302,5688.6 L302,5695.6 Z M299.982,5680.6 C298.312,5679.349 296.246,5679 294,5679 C286.928,5679 284,5684.268 284,5688.6 L284,5696.6 C284,5697.704 284.895,5699 286,5699 L302,5699 C303.105,5699 304,5697.704 304,5696.6 L304,5688.6 C304,5685.394 302.457,5682.454 299.982,5680.6 L299.982,5680.6 Z" id="emoji_tongue_sticking_out--[#531]"></path>
            </g>
        </g>
    </g>
</svg>