<?xml version="1.0" encoding="UTF-8" standalone="no"?>
<svg width="20px" height="20px" viewBox="0 0 20 20" version="1.1" xmlns="http://www.w3.org/2000/svg" xmlns:xlink="http://www.w3.org/1999/xlink">
    <!-- Generator: Sketch 3.8.1 (29687) - http://www.bohemiancoding.com/sketch -->
    <title>emoji_tongue_sticking_out _circle [#559]</title>
    <desc>Created with Sketch.</desc>
    <defs></defs>
    <g id="Page-1" stroke="none" stroke-width="1" fill="none" fill-rule="evenodd">
        <g id="Dribbble-Dark-Preview" transform="translate(-420.000000, -5719.000000)" fill="#FFFFFF">
            <g id="icons" transform="translate(56.000000, 160.000000)">
                <path d="M380,5572.259 C380,5572.811 379.552,5573.103 379,5573.103 C378.448,5573.103 378,5573.655 378,5574.207 C378,5574.759 377.552,5575.415 377,5575.415 L375,5575.415 C374.448,5575.415 374,5574.967 374,5574.415 C374,5573.862 373.552,5573.415 373,5573.415 L369,5573.415 C368.448,5573.415 368,5572.967 368,5572.415 C368,5571.862 368.448,5571.415 369,5571.415 L374,5571.415 L378,5571.415 L379,5571.415 C379.552,5571.415 380,5571.707 380,5572.259 M376,5567 C376,5565.895 376.895,5565 378,5565 C379.105,5565 380,5565.895 380,5567 C380,5568.104 379.105,5569 378,5569 C376.895,5569 376,5568.104 376,5567 M368,5567 C368,5565.895 368.895,5565 370,5565 C371.105,5565 372,5565.895 372,5567 C372,5568.104 371.105,5569 370,5569 C368.895,5569 368,5568.104 368,5567 M374,5577 C369.589,5577 366,5573.411 366,5569 C366,5564.588 369.589,5561 374,5561 C378.411,5561 382,5564.588 382,5569 C382,5573.411 378.411,5577 374,5577 M374,5559 C368.477,5559 364,5563.477 364,5569 C364,5574.522 368.477,5579 374,5579 C379.523,5579 384,5574.522 384,5569 C384,5563.477 379.523,5559 374,5559" id="emoji_tongue_sticking_out-_circle-[#559]"></path>
            </g>
        </g>
    </g>
</svg>