<?xml version="1.0" encoding="UTF-8" standalone="no"?>
<svg width="20px" height="20px" viewBox="0 0 20 20" version="1.1" xmlns="http://www.w3.org/2000/svg" xmlns:xlink="http://www.w3.org/1999/xlink">
    <!-- Generator: Sketch 3.8.1 (29687) - http://www.bohemiancoding.com/sketch -->
    <title>emoji_neutral [#570]</title>
    <desc>Created with Sketch.</desc>
    <defs></defs>
    <g id="Page-1" stroke="none" stroke-width="1" fill="none" fill-rule="evenodd">
        <g id="Dribbble-Dark-Preview" transform="translate(-380.000000, -5679.000000)" fill="#FFFFFF">
            <g id="icons" transform="translate(56.000000, 160.000000)">
                <path d="M342,5531 L338,5531 C336.895,5531 336,5529.69 336,5528.585 L336,5525 L332,5525 L332,5528.585 C332,5529.69 331.105,5531 330,5531 L326,5531 L326,5535.615 C326,5536.168 326.448,5537 327,5537 L341,5537 C341.552,5537 342,5536.168 342,5535.615 L342,5531 Z M326,5525 L326,5529 L326.002,5529 L329,5529 C329.552,5529 330,5528.137 330,5527.585 L330,5525 L326,5525 Z M328.76,5523 L339.24,5523 C337.835,5521 336.005,5520.833 334,5520.833 C331.995,5520.833 330.165,5521 328.76,5523 L328.76,5523 Z M338,5525 L338,5527.585 C338,5528.137 338.448,5529 339,5529 L341.998,5529 L342,5529 L342,5525 L338,5525 Z M344,5523 L344,5536.615 C344,5537.72 343.105,5539 342,5539 L326,5539 C324.895,5539 324,5537.72 324,5536.615 L324,5523 L326.042,5523 C326.607,5522 327.27,5521.435 328.018,5520.875 C329.688,5519.624 331.754,5519 334,5519 C336.246,5519 338.312,5519.572 339.982,5520.823 C340.73,5521.383 341.393,5522 341.958,5523 L344,5523 Z M332,5535 L336,5535 L336,5533 L332,5533 L332,5535 Z" id="emoji_neutral-[#570]"></path>
            </g>
        </g>
    </g>
</svg>