<?xml version="1.0" encoding="UTF-8" standalone="no"?>
<svg width="20px" height="20px" viewBox="0 0 20 20" version="1.1" xmlns="http://www.w3.org/2000/svg" xmlns:xlink="http://www.w3.org/1999/xlink">
    <!-- Generator: Sketch 3.8.1 (29687) - http://www.bohemiancoding.com/sketch -->
    <title>emoji_tongue_sticking_out _square [#412]</title>
    <desc>Created with Sketch.</desc>
    <defs></defs>
    <g id="Page-1" stroke="none" stroke-width="1" fill="none" fill-rule="evenodd">
        <g id="Dribbble-Dark-Preview" transform="translate(-300.000000, -6319.000000)" fill="#FFFFFF">
            <g id="icons" transform="translate(56.000000, 160.000000)">
                <path d="M254,6173 L248,6173 L248,6171 L260,6171 L260,6173 L258,6173 L258,6175 L254,6175 L254,6173 Z M256,6169 L260,6169 L260,6165 L256,6165 L256,6169 Z M248,6169 L252,6169 L252,6165 L248,6165 L248,6169 Z M246,6177 L262,6177 L262,6161 L246,6161 L246,6177 Z M244,6179 L264,6179 L264,6159 L244,6159 L244,6179 Z" id="emoji_tongue_sticking_out-_square-[#412]"></path>
            </g>
        </g>
    </g>
</svg>