<?xml version="1.0" encoding="UTF-8" standalone="no"?>
<svg width="20px" height="20px" viewBox="0 0 20 20" version="1.1" xmlns="http://www.w3.org/2000/svg" xmlns:xlink="http://www.w3.org/1999/xlink">
    <!-- Generator: Sketch 3.8.1 (29687) - http://www.bohemiancoding.com/sketch -->
    <title>emoji_neutral [#495]</title>
    <desc>Created with Sketch.</desc>
    <defs></defs>
    <g id="Page-1" stroke="none" stroke-width="1" fill="none" fill-rule="evenodd">
        <g id="Dribbble-Dark-Preview" transform="translate(-180.000000, -5999.000000)" fill="#FFFFFF">
            <g id="icons" transform="translate(56.000000, 160.000000)">
                <path d="M140,5846 L140,5846.464 L140,5848 C140,5848.552 139.552,5849 139,5849 L137,5849 C136.45,5849 136,5848.55 136,5848 L136,5846.464 L136,5846 C136,5845.448 136.448,5845 137,5845 L139,5845 C139.552,5845 140,5845.448 140,5846 L140,5846 Z M128,5848 L128,5846.464 L128,5846 C128,5845.448 128.448,5845 129,5845 L131,5845 C131.552,5845 132,5845.448 132,5846 L132,5846.464 L132,5848 C132,5848.552 131.552,5849 131,5849 L129,5849 C128.45,5849 128,5848.55 128,5848 L128,5848 Z M140,5852 C140,5852.552 139.552,5853 139,5853 L129,5853 C128.448,5853 128,5852.552 128,5852 L128,5852 C128,5851.448 128.448,5851 129,5851 L139,5851 C139.552,5851 140,5851.448 140,5852 L140,5852 Z M142,5842.603 L142,5848.585 C142,5852.996 138.411,5857 134,5857 C129.589,5857 126,5852.996 126,5848.585 L126,5842.603 L126,5841.585 C126,5841.033 126.448,5841 127,5841 L128.018,5841 L134,5841 L139.982,5841 L141,5841 C141.552,5841 142,5841.033 142,5841.585 L142,5842.603 Z M142,5839 L134,5839 L126,5839 C124.895,5839 124,5839.48 124,5840.585 L124,5848.585 C124,5850.831 124.75,5852.897 126,5854.567 C126.574,5855.333 127.253,5856.011 128.018,5856.585 C129.688,5857.835 131.754,5859 134,5859 C136.246,5859 138.312,5857.835 139.982,5856.585 C140.747,5856.011 141.426,5855.333 142,5854.567 C143.25,5852.897 144,5850.831 144,5848.585 L144,5840.585 C144,5839.48 143.105,5839 142,5839 L142,5839 Z" id="emoji_neutral-[#495]"></path>
            </g>
        </g>
    </g>
</svg>