<?xml version="1.0" encoding="UTF-8" standalone="no"?>
<svg width="20px" height="20px" viewBox="0 0 20 20" version="1.1" xmlns="http://www.w3.org/2000/svg" xmlns:xlink="http://www.w3.org/1999/xlink">
    <!-- Generator: Sketch 3.8.1 (29687) - http://www.bohemiancoding.com/sketch -->
    <title>emoji_sad_circle [#541]</title>
    <desc>Created with Sketch.</desc>
    <defs></defs>
    <g id="Page-1" stroke="none" stroke-width="1" fill="none" fill-rule="evenodd">
        <g id="Dribbble-Dark-Preview" transform="translate(-340.000000, -5799.000000)" fill="#FFFFFF">
            <g id="icons" transform="translate(56.000000, 160.000000)">
                <path d="M298,5645 C296.895,5645 296,5645.895 296,5647 C296,5648.105 296.895,5649 298,5649 C299.105,5649 300,5648.105 300,5647 C300,5645.895 299.105,5645 298,5645 M290,5645 C288.895,5645 288,5645.895 288,5647 C288,5648.105 288.895,5649 290,5649 C291.105,5649 292,5648.105 292,5647 C292,5645.895 291.105,5645 290,5645 M302,5649 C302,5644.589 298.411,5641 294,5641 C289.589,5641 286,5644.589 286,5649 C286,5653.411 289.589,5657 294,5657 C298.411,5657 302,5653.411 302,5649 M304,5649 C304,5654.523 299.523,5659 294,5659 C288.477,5659 284,5654.523 284,5649 C284,5643.477 288.477,5639 294,5639 C299.523,5639 304,5643.477 304,5649 M289.109,5653.844 C290.123,5648.719 297.877,5648.719 298.891,5653.844 C299.01,5654.448 298.508,5655 297.892,5655 C297.412,5655 297.02,5654.653 296.908,5654.186 C296.213,5651.271 291.787,5651.271 291.092,5654.186 C290.98,5654.653 290.588,5655 290.108,5655 C289.492,5655 288.99,5654.448 289.109,5653.844" id="emoji_sad_circle-[#541]"></path>
            </g>
        </g>
    </g>
</svg>