<?xml version="1.0" encoding="UTF-8" standalone="no"?>
<svg width="20px" height="20px" viewBox="0 0 20 20" version="1.1" xmlns="http://www.w3.org/2000/svg" xmlns:xlink="http://www.w3.org/1999/xlink">
    <!-- Generator: Sketch 3.8.1 (29687) - http://www.bohemiancoding.com/sketch -->
    <title>emoji_neutral_square_round [#436]</title>
    <desc>Created with Sketch.</desc>
    <defs></defs>
    <g id="Page-1" stroke="none" stroke-width="1" fill="none" fill-rule="evenodd">
        <g id="Dribbble-Dark-Preview" transform="translate(-140.000000, -6239.000000)" fill="#FFFFFF">
            <g id="icons" transform="translate(56.000000, 160.000000)">
                <path d="M96,6086 C96,6085.448 96.448,6085 97,6085 L99,6085 C99.552,6085 100,6085.448 100,6086 L100,6088 C100,6088.552 99.552,6089 99,6089 L97,6089 C96.45,6089 96,6088.55 96,6088 L96,6086 Z M92,6088 C92,6088.552 91.552,6089 91,6089 L89,6089 C88.45,6089 88,6088.55 88,6088 L88,6086 C88,6085.448 88.448,6085 89,6085 L91,6085 C91.552,6085 92,6085.448 92,6086 L92,6088 Z M100,6092 C100,6092.552 99.552,6093 99,6093 L89,6093 C88.448,6093 88,6092.552 88,6092 C88,6091.448 88.448,6091 89,6091 L99,6091 C99.552,6091 100,6091.448 100,6092 L100,6092 Z M102,6096 C102,6096.552 101.552,6097 101,6097 L87,6097 C86.448,6097 86,6096.552 86,6096 L86,6082 C86,6081.448 86.448,6081 87,6081 L101,6081 C101.552,6081 102,6081.448 102,6082 L102,6096 Z M104,6081 C104,6079.895 103.105,6079 102,6079 L86,6079 C84.895,6079 84,6079.895 84,6081 L84,6097 C84,6098.105 84.895,6099 86,6099 L102,6099 C103.105,6099 104,6098.105 104,6097 L104,6081 Z" id="emoji_neutral_square_round-[#436]"></path>
            </g>
        </g>
    </g>
</svg>