<?xml version="1.0" encoding="UTF-8" standalone="no"?>
<svg width="20px" height="20px" viewBox="0 0 20 20" version="1.1" xmlns="http://www.w3.org/2000/svg" xmlns:xlink="http://www.w3.org/1999/xlink">
    <!-- Generator: Sketch 3.8.1 (29687) - http://www.bohemiancoding.com/sketch -->
    <title>emoji_tongue_sticking_out _square_round [#442]</title>
    <desc>Created with Sketch.</desc>
    <defs></defs>
    <g id="Page-1" stroke="none" stroke-width="1" fill="none" fill-rule="evenodd">
        <g id="Dribbble-Dark-Preview" transform="translate(-300.000000, -6199.000000)" fill="#FFFFFF">
            <g id="icons" transform="translate(56.000000, 160.000000)">
                <path d="M258,6051 L259,6051 C259.552,6051 260,6051.247 260,6051.799 L260,6051.598 C260,6052.15 260,6052.611 259,6052.611 L259,6052.637 C258,6052.637 258,6053.136 258,6053.689 L258,6053.792 C258,6054.345 257.552,6055 257,6055 L255,6055 C254.448,6055 254,6054.449 254,6053.896 L254,6053.792 C254,6053.24 253.552,6053 253,6053 L249,6053 C248.448,6053 248,6052.449 248,6051.896 L248,6051.792 C248,6051.24 248.448,6051 249,6051 L254,6051 L258,6051 Z M260,6046 C260,6046.552 259.552,6047 259,6047 L257,6047 C256.448,6047 256,6046.552 256,6046 C256,6045.448 256.448,6045 257,6045 L259,6045 C259.552,6045 260,6045.448 260,6046 L260,6046 Z M252,6046 C252,6046.552 251.552,6047 251,6047 L249,6047 C248.448,6047 248,6046.552 248,6046 C248,6045.448 248.448,6045 249,6045 L251,6045 C251.552,6045 252,6045.448 252,6046 L252,6046 Z M262,6056 C262,6056.552 261.552,6057 261,6057 L247,6057 C246.448,6057 246,6056.552 246,6056 L246,6042 C246,6041.448 246.448,6041 247,6041 L261,6041 C261.552,6041 262,6041.448 262,6042 L262,6056 Z M264,6041 C264,6039.895 263.105,6039 262,6039 L246,6039 C244.895,6039 244,6039.895 244,6041 L244,6057 C244,6058.105 244.895,6059 246,6059 L262,6059 C263.105,6059 264,6058.105 264,6057 L264,6041 Z" id="emoji_tongue_sticking_out-_square_round-[#442]"></path>
            </g>
        </g>
    </g>
</svg>