<?xml version="1.0" encoding="UTF-8" standalone="no"?>
<svg width="20px" height="20px" viewBox="0 0 20 20" version="1.1" xmlns="http://www.w3.org/2000/svg" xmlns:xlink="http://www.w3.org/1999/xlink">
    <!-- Generator: Sketch 3.8.1 (29687) - http://www.bohemiancoding.com/sketch -->
    <title>emoji_neutral_square_glasses [#416]</title>
    <desc>Created with Sketch.</desc>
    <defs></defs>
    <g id="Page-1" stroke="none" stroke-width="1" fill="none" fill-rule="evenodd">
        <g id="Dribbble-Dark-Preview" transform="translate(-140.000000, -6319.000000)" fill="#FFFFFF">
            <g id="icons" transform="translate(56.000000, 160.000000)">
                <path d="M92,6175 L96,6175 L96,6173 L92,6173 L92,6175 Z M86,6163 L102,6163 L102,6161 L86,6161 L86,6163 Z M98,6169 L102,6169 L102,6165 L98,6165 L98,6169 Z M102,6177 L86,6177 L86,6171 L92,6171 L92,6165 L96,6165 L96,6171 L102,6171 L102,6177 Z M86,6169 L90,6169 L90,6165 L86,6165 L86,6169 Z M84,6179 L104,6179 L104,6159 L84,6159 L84,6179 Z" id="emoji_neutral_square_glasses-[#416]"></path>
            </g>
        </g>
    </g>
</svg>