<?xml version="1.0" encoding="UTF-8" standalone="no"?>
<svg width="20px" height="20px" viewBox="0 0 20 20" version="1.1" xmlns="http://www.w3.org/2000/svg" xmlns:xlink="http://www.w3.org/1999/xlink">
    <!-- Generator: Sketch 3.8.1 (29687) - http://www.bohemiancoding.com/sketch -->
    <title>emoji_neutral_circle [#553]</title>
    <desc>Created with Sketch.</desc>
    <defs></defs>
    <g id="Page-1" stroke="none" stroke-width="1" fill="none" fill-rule="evenodd">
        <g id="Dribbble-Dark-Preview" transform="translate(-260.000000, -5759.000000)" fill="#FFFFFF">
            <g id="icons" transform="translate(56.000000, 160.000000)">
                <path d="M216,5607 C216,5605.895 216.895,5605 218,5605 C219.105,5605 220,5605.895 220,5607 C220,5608.105 219.105,5609 218,5609 C216.895,5609 216,5608.105 216,5607 M208,5607 C208,5605.895 208.895,5605 210,5605 C211.105,5605 212,5605.895 212,5607 C212,5608.105 211.105,5609 210,5609 C208.895,5609 208,5608.105 208,5607 M220,5612.415 C220,5612.967 219.552,5613.415 219,5613.415 L209,5613.415 C208.448,5613.415 208,5612.967 208,5612.415 C208,5611.863 208.448,5611.415 209,5611.415 L219,5611.415 C219.552,5611.415 220,5611.863 220,5612.415 M214,5617 C209.589,5617 206,5613.411 206,5609 C206,5604.589 209.589,5601 214,5601 C218.411,5601 222,5604.589 222,5609 C222,5613.411 218.411,5617 214,5617 M214,5599 C208.477,5599 204,5603.477 204,5609 C204,5614.523 208.477,5619 214,5619 C219.523,5619 224,5614.523 224,5609 C224,5603.477 219.523,5599 214,5599" id="emoji_neutral_circle-[#553]"></path>
            </g>
        </g>
    </g>
</svg>