<?xml version="1.0" encoding="UTF-8" standalone="no"?>
<svg width="20px" height="20px" viewBox="0 0 20 20" version="1.1" xmlns="http://www.w3.org/2000/svg" xmlns:xlink="http://www.w3.org/1999/xlink">
    <!-- Generator: Sketch 3.8.1 (29687) - http://www.bohemiancoding.com/sketch -->
    <title>emoji_neutral [#494]</title>
    <desc>Created with Sketch.</desc>
    <defs></defs>
    <g id="Page-1" stroke="none" stroke-width="1" fill="none" fill-rule="evenodd">
        <g id="Dribbble-Dark-Preview" transform="translate(-220.000000, -5999.000000)" fill="#FFFFFF">
            <g id="icons" transform="translate(56.000000, 160.000000)">
                <path d="M180,5852.0001 C180,5852.5521 179.552,5853.0001 179,5853.0001 L169,5853.0001 C168.448,5853.0001 168,5852.5521 168,5852.0001 L168,5852.0001 C168,5851.4481 168.448,5851.0001 169,5851.0001 L179,5851.0001 C179.552,5851.0001 180,5851.4481 180,5852.0001 L180,5852.0001 Z M180.414,5844.5551 L179.414,5845.5551 L180.414,5846.5551 C180.805,5846.9451 180.805,5847.5781 180.414,5847.9691 L180.414,5847.9691 C180.024,5848.3591 179.391,5848.3591 179,5847.9691 L178,5846.9691 L177,5847.9691 C176.609,5848.3591 175.976,5848.3591 175.586,5847.9691 C175.195,5847.5781 175.195,5846.9451 175.586,5846.5551 L176.586,5845.5551 L175.586,5844.5551 C175.195,5844.1641 175.195,5843.5311 175.586,5843.1401 L175.586,5843.1401 C175.976,5842.7501 176.609,5842.7501 177,5843.1401 L178,5844.1401 L179,5843.1401 C179.391,5842.7501 180.024,5842.7501 180.414,5843.1401 L180.414,5843.1401 C180.805,5843.5311 180.805,5844.1641 180.414,5844.5551 L180.414,5844.5551 Z M167.586,5847.9691 C167.195,5847.5781 167.195,5846.9451 167.586,5846.5551 L168.586,5845.5551 L167.586,5844.5551 C167.195,5844.1641 167.195,5843.5311 167.586,5843.1401 L167.586,5843.1401 C167.976,5842.7501 168.609,5842.7501 169,5843.1401 L170,5844.1401 L171,5843.1401 C171.391,5842.7501 172.024,5842.7501 172.414,5843.1401 L172.414,5843.1401 C172.805,5843.5311 172.805,5844.1641 172.414,5844.5551 L171.414,5845.5551 L172.414,5846.5551 C172.805,5846.9451 172.805,5847.5781 172.414,5847.9691 L172.414,5847.9691 C172.024,5848.3591 171.391,5848.3591 171,5847.9691 L170,5846.9691 L169,5847.9691 C168.609,5848.3591 167.976,5848.3591 167.586,5847.9691 L167.586,5847.9691 Z M182,5842.6031 L182,5848.5851 C182,5852.9961 178.411,5857.0001 174,5857.0001 C169.589,5857.0001 166,5852.9961 166,5848.5851 L166,5842.6031 L166,5841.5851 C166,5841.0331 166.448,5841.0001 167,5841.0001 L168.018,5841.0001 L174,5841.0001 L179.982,5841.0001 L181,5841.0001 C181.552,5841.0001 182,5841.0331 182,5841.5851 L182,5842.6031 Z M182,5839.0001 L174,5839.0001 L166,5839.0001 C164.895,5839.0001 164,5839.4801 164,5840.5851 L164,5848.5851 C164,5850.8311 164.75,5852.8971 166,5854.5671 C166.574,5855.3321 167.253,5856.0111 168.018,5856.5851 C169.688,5857.8351 171.754,5859.0001 174,5859.0001 C176.246,5859.0001 178.312,5857.8351 179.982,5856.5851 C180.747,5856.0111 181.426,5855.3321 182,5854.5671 C183.25,5852.8971 184,5850.8311 184,5848.5851 L184,5840.5851 C184,5839.4801 183.105,5839.0001 182,5839.0001 L182,5839.0001 Z" id="emoji_neutral-[#494]"></path>
            </g>
        </g>
    </g>
</svg>