<?xml version="1.0" encoding="UTF-8" standalone="no"?>
<svg width="20px" height="20px" viewBox="0 0 20 20" version="1.1" xmlns="http://www.w3.org/2000/svg" xmlns:xlink="http://www.w3.org/1999/xlink">
    <!-- Generator: Sketch 3.8.1 (29687) - http://www.bohemiancoding.com/sketch -->
    <title>emoji_neutral_square [#407]</title>
    <desc>Created with Sketch.</desc>
    <defs></defs>
    <g id="Page-1" stroke="none" stroke-width="1" fill="none" fill-rule="evenodd">
        <g id="Dribbble-Dark-Preview" transform="translate(-100.000000, -6359.000000)" fill="#FFFFFF">
            <g id="icons" transform="translate(56.000000, 160.000000)">
                <path d="M48,6213 L60,6213 L60,6211 L48,6211 L48,6213 Z M59.414,6205.585 L61.121,6207.292 L59.707,6208.706 L58,6206.999 L56.293,6208.706 L54.879,6207.292 L56.586,6205.585 L54.879,6203.878 L56.293,6202.464 L58,6204.171 L59.707,6202.464 L61.121,6203.878 L59.414,6205.585 Z M51.414,6205.585 L53.121,6207.292 L51.707,6208.706 L50,6206.999 L48.293,6208.706 L46.879,6207.292 L48.586,6205.585 L46.879,6203.878 L48.293,6202.464 L50,6204.171 L51.707,6202.464 L53.121,6203.878 L51.414,6205.585 Z M46,6217 L62,6217 L62,6201 L46,6201 L46,6217 Z M44,6219 L64,6219 L64,6199 L44,6199 L44,6219 Z" id="emoji_neutral_square-[#407]"></path>
            </g>
        </g>
    </g>
</svg>