<?xml version="1.0" encoding="UTF-8" standalone="no"?>
<svg width="20px" height="20px" viewBox="0 0 20 20" version="1.1" xmlns="http://www.w3.org/2000/svg" xmlns:xlink="http://www.w3.org/1999/xlink">
    <!-- Generator: Sketch 3.8.1 (29687) - http://www.bohemiancoding.com/sketch -->
    <title>emoji_sad_missing [#579]</title>
    <desc>Created with Sketch.</desc>
    <defs></defs>
    <g id="Page-1" stroke="none" stroke-width="1" fill="none" fill-rule="evenodd">
        <g id="Dribbble-Dark-Preview" transform="translate(-420.000000, -5639.000000)" fill="#FFFFFF">
            <g id="icons" transform="translate(56.000000, 160.000000)">
                <path d="M382,5493 L384,5493 L384,5485 L382,5485 L382,5493 Z M382,5497 L380,5497 L380,5499 L384,5499 L384,5495 L382,5495 L382,5497 Z M380,5479 L380,5481 L382,5481 L382,5483 L384,5483 L384,5479 L380,5479 Z M364,5493 L366,5493 L366,5485 L364,5485 L364,5493 Z M366,5495 L364,5495 L364,5499 L368,5499 L368,5497 L366,5497 L366,5495 Z M366,5481 L368,5481 L368,5479 L364,5479 L364,5483 L366,5483 L366,5481 Z M370,5499 L378,5499 L378,5497 L370,5497 L370,5499 Z M370,5481 L378,5481 L378,5479 L370,5479 L370,5481 Z M376,5488 L380,5488 L380,5484 L376,5484 L376,5488 Z M368,5488 L372,5488 L372,5484 L368,5484 L368,5488 Z M379.167,5494 L369.167,5494 C369.167,5488 379.167,5488 379.167,5494 L379.167,5494 Z" id="emoji_sad_missing-[#579]"></path>
            </g>
        </g>
    </g>
</svg>