<?xml version="1.0" encoding="UTF-8" standalone="no"?>
<svg width="20px" height="20px" viewBox="0 0 20 20" version="1.1" xmlns="http://www.w3.org/2000/svg" xmlns:xlink="http://www.w3.org/1999/xlink">
    <!-- Generator: Sketch 3.8.1 (29687) - http://www.bohemiancoding.com/sketch -->
    <title>emoji_sad_circle [#555]</title>
    <desc>Created with Sketch.</desc>
    <defs></defs>
    <g id="Page-1" stroke="none" stroke-width="1" fill="none" fill-rule="evenodd">
        <g id="Dribbble-Dark-Preview" transform="translate(-180.000000, -5759.000000)" fill="#FFFFFF">
            <g id="icons" transform="translate(56.000000, 160.000000)">
                <path d="M140,5607 C140,5608.105 139.105,5609 138,5609 C136.895,5609 136,5608.105 136,5607 C136,5605.895 136.895,5605 138,5605 C139.105,5605 140,5605.895 140,5607 M132,5607 C132,5608.105 131.105,5609 130,5609 C128.895,5609 128,5608.105 128,5607 C128,5605.895 128.895,5605 130,5605 C131.105,5605 132,5605.895 132,5607 M139.895,5614.597 C139.636,5613.793 138.89,5613.415 138,5613.415 L130,5613.415 C129.11,5613.415 128.364,5613.793 128.105,5614.597 C126.802,5613.173 126,5611.181 126,5609.104 C126,5604.693 129.589,5601.052 134,5601.052 C138.411,5601.052 142,5604.718 142,5609.13 C142,5611.207 141.198,5613.173 139.895,5614.597 M130.015,5616.134 C130.054,5615.618 130.474,5615.415 131,5615.415 L137,5615.415 C137.526,5615.415 137.946,5615.618 137.985,5616.134 C136.81,5616.813 135.452,5617.208 134,5617.208 C132.548,5617.208 131.19,5616.813 130.015,5616.134 M134,5599 C128.477,5599 124,5603.477 124,5609 C124,5614.523 128.477,5619 134,5619 C139.523,5619 144,5614.523 144,5609 C144,5603.477 139.523,5599 134,5599" id="emoji_sad_circle-[#555]"></path>
            </g>
        </g>
    </g>
</svg>