<?xml version="1.0" encoding="UTF-8" standalone="no"?>
<svg width="20px" height="20px" viewBox="0 0 20 20" version="1.1" xmlns="http://www.w3.org/2000/svg" xmlns:xlink="http://www.w3.org/1999/xlink">
    <!-- Generator: Sketch 3.8.1 (29687) - http://www.bohemiancoding.com/sketch -->
    <title>emoji_sad [#489]</title>
    <desc>Created with Sketch.</desc>
    <defs></defs>
    <g id="Page-1" stroke="none" stroke-width="1" fill="none" fill-rule="evenodd">
        <g id="Dribbble-Dark-Preview" transform="translate(-420.000000, -5999.000000)" fill="#FFFFFF">
            <g id="icons" transform="translate(56.000000, 160.000000)">
                <path d="M380,5846 L380,5846.555 L380,5848 C380,5848.552 379.552,5849 379,5849 L377,5849 C376.45,5849 376,5848.55 376,5848 L376,5846.555 L376,5846 C376,5845.448 376.448,5845 377,5845 L379,5845 C379.552,5845 380,5845.448 380,5846 L380,5846 Z M371,5849 L369,5849 C368.45,5849 368,5848.55 368,5848 L368,5846.555 L368,5846 C368,5845.448 368.448,5845 369,5845 L371,5845 C371.552,5845 372,5845.448 372,5846 L372,5846.555 L372,5848 C372,5848.552 371.552,5849 371,5849 L371,5849 Z M378.893,5853.742 C379.01,5854.341 378.513,5855 377.902,5855 L370.098,5855 C369.487,5855 368.99,5854.229 369.107,5853.63 C370.114,5848.493 377.886,5848.604 378.893,5853.742 L378.893,5853.742 Z M382,5842.603 L382,5848.585 C382,5852.996 378.411,5857 374,5857 C369.589,5857 366,5852.996 366,5848.585 L366,5842.603 L366,5841.585 C366,5841.033 366.448,5841 367,5841 L368.018,5841 L374,5841 L379.982,5841 L381,5841 C381.552,5841 382,5841.033 382,5841.585 L382,5842.603 Z M382,5839 L374,5839 L366,5839 C364.895,5839 364,5839.48 364,5840.585 L364,5848.585 C364,5850.831 364.75,5852.897 366,5854.567 C366.574,5855.333 367.253,5856.011 368.018,5856.585 C369.688,5857.835 371.754,5859 374,5859 C376.246,5859 378.312,5857.835 379.982,5856.585 C380.747,5856.011 381.426,5855.332 382,5854.567 C383.25,5852.897 384,5850.831 384,5848.585 L384,5840.585 C384,5839.48 383.105,5839 382,5839 L382,5839 Z" id="emoji_sad-[#489]"></path>
            </g>
        </g>
    </g>
</svg>