<?xml version="1.0" encoding="UTF-8" standalone="no"?>
<svg width="20px" height="20px" viewBox="0 0 20 20" version="1.1" xmlns="http://www.w3.org/2000/svg" xmlns:xlink="http://www.w3.org/1999/xlink">
    <!-- Generator: Sketch 3.8.1 (29687) - http://www.bohemiancoding.com/sketch -->
    <title>emoji_happy_circle [#537]</title>
    <desc>Created with Sketch.</desc>
    <defs></defs>
    <g id="Page-1" stroke="none" stroke-width="1" fill="none" fill-rule="evenodd">
        <g id="Dribbble-Dark-Preview" transform="translate(-100.000000, -5839.000000)" fill="#FFFFFF">
            <g id="icons" transform="translate(56.000000, 160.000000)">
                <path d="M60,5687 C60,5688.105 59.105,5689 58,5689 C56.895,5689 56,5688.105 56,5687 C56,5685.895 56.895,5685 58,5685 C59.105,5685 60,5685.895 60,5687 M58.891,5691.156 C57.877,5696.281 50.123,5696.281 49.109,5691.156 C48.99,5690.552 49.492,5690 50.108,5690 C50.588,5690 50.98,5690.347 51.092,5690.814 C51.787,5693.729 56.213,5693.729 56.908,5690.814 C57.02,5690.347 57.412,5690 57.892,5690 C58.508,5690 59.01,5690.552 58.891,5691.156 M50,5689 C48.895,5689 48,5688.105 48,5687 C48,5685.895 48.895,5685 50,5685 C51.105,5685 52,5685.895 52,5687 C52,5688.105 51.105,5689 50,5689 M54,5697 C49.589,5697 46,5693.411 46,5689 C46,5684.589 49.589,5681 54,5681 C58.411,5681 62,5684.589 62,5689 C62,5693.411 58.411,5697 54,5697 M54,5679 C48.477,5679 44,5683.477 44,5689 C44,5694.523 48.477,5699 54,5699 C59.523,5699 64,5694.523 64,5689 C64,5683.477 59.523,5679 54,5679" id="emoji_happy_circle-[#537]"></path>
            </g>
        </g>
    </g>
</svg>