<?xml version="1.0" encoding="UTF-8" standalone="no"?>
<svg width="20px" height="20px" viewBox="0 0 20 20" version="1.1" xmlns="http://www.w3.org/2000/svg" xmlns:xlink="http://www.w3.org/1999/xlink">
    <!-- Generator: Sketch 3.8.1 (29687) - http://www.bohemiancoding.com/sketch -->
    <title>emoji_happy [#498]</title>
    <desc>Created with Sketch.</desc>
    <defs></defs>
    <g id="Page-1" stroke="none" stroke-width="1" fill="none" fill-rule="evenodd">
        <g id="Dribbble-Dark-Preview" transform="translate(-60.000000, -5999.000000)" fill="#FFFFFF">
            <g id="icons" transform="translate(56.000000, 160.000000)">
                <path d="M20,5846 L20,5846.577 L20,5848 C20,5848.552 19.552,5849 19,5849 L17,5849 C16.45,5849 16,5848.55 16,5848 L16,5846.577 L16,5846 C16,5845.448 16.448,5845 17,5845 L19,5845 C19.552,5845 20,5845.448 20,5846 L20,5846 Z M8,5848 L8,5846.577 L8,5846 C8,5845.448 8.448,5845 9,5845 L11,5845 C11.552,5845 12,5845.448 12,5846 L12,5846.577 L12,5848 C12,5848.552 11.552,5849 11,5849 L9,5849 C8.45,5849 8,5848.55 8,5848 L8,5848 Z M20,5851.577 L20,5852 C20,5853.657 18.657,5855 17,5855 L11.423,5855 C9.54,5855 8,5853.46 8,5851.577 C8,5851.025 8.448,5850.683 9,5850.683 C9.552,5850.683 10,5851.236 10,5851.789 C10,5852.341 10.448,5853 11,5853 L17,5853 C17.552,5853 18,5852.341 18,5851.789 C18,5851.236 18.448,5850.577 19,5850.577 C19.552,5850.577 20,5851.025 20,5851.577 L20,5851.577 Z M22,5842.603 L22,5848.585 C22,5852.996 18.411,5857 14,5857 C9.589,5857 6,5852.996 6,5848.585 L6,5842.603 L6,5841.585 C6,5841.033 6.448,5841 7,5841 L8.018,5841 L14,5841 L19.982,5841 L21,5841 C21.552,5841 22,5841.033 22,5841.585 L22,5842.603 Z M22,5839 L14,5839 L6,5839 C4.895,5839 4,5839.48 4,5840.585 L4,5848.585 C4,5850.831 4.75,5852.897 6,5854.567 C6.574,5855.333 7.253,5856.011 8.018,5856.585 C9.688,5857.835 11.754,5859 14,5859 C16.246,5859 18.312,5857.835 19.982,5856.585 C20.747,5856.011 21.426,5855.333 22,5854.567 C23.25,5852.897 24,5850.831 24,5848.585 L24,5840.585 C24,5839.48 23.105,5839 22,5839 L22,5839 Z" id="emoji_happy-[#498]"></path>
            </g>
        </g>
    </g>
</svg>