<?xml version="1.0" encoding="UTF-8" standalone="no"?>
<svg width="20px" height="20px" viewBox="0 0 20 20" version="1.1" xmlns="http://www.w3.org/2000/svg" xmlns:xlink="http://www.w3.org/1999/xlink">
    <!-- Generator: Sketch 3.8.1 (29687) - http://www.bohemiancoding.com/sketch -->
    <title>emoji_surprised [#478]</title>
    <desc>Created with Sketch.</desc>
    <defs></defs>
    <g id="Page-1" stroke="none" stroke-width="1" fill="none" fill-rule="evenodd">
        <g id="Dribbble-Dark-Preview" transform="translate(-60.000000, -6078.000000)" fill="#FFFFFF">
            <g id="icons" transform="translate(56.000000, 160.000000)">
                <path d="M16,5931.5244 C16,5932.6294 15.105,5933.5244 14,5933.5244 C12.895,5933.5244 12,5932.6294 12,5931.5244 C12,5930.4194 12.895,5929.5244 14,5929.5244 C15.105,5929.5244 16,5930.4194 16,5931.5244 L16,5931.5244 Z M20,5925.0004 L20,5925.5244 L20,5927.0004 C20,5927.5524 19.552,5928.0004 19,5928.0004 L17,5928.0004 C16.45,5928.0004 16,5927.5504 16,5927.0004 L16,5925.5244 L16,5925.0004 C16,5924.4474 16.448,5924.0004 17,5924.0004 L19,5924.0004 C19.552,5924.0004 20,5924.4474 20,5925.0004 L20,5925.0004 Z M12,5927.0004 C12,5927.5524 11.552,5928.0004 11,5928.0004 L9,5928.0004 C8.45,5928.0004 8,5927.5504 8,5927.0004 L8,5925.5244 L8,5925.0004 C8,5924.4474 8.448,5924.0004 9,5924.0004 L11,5924.0004 C11.552,5924.0004 12,5924.4474 12,5925.0004 L12,5925.5244 L12,5927.0004 Z M22,5921.6034 L22,5927.5854 C22,5931.9964 18.411,5936.0004 14,5936.0004 C9.589,5936.0004 6,5931.9964 6,5927.5854 L6,5921.6034 L6,5920.5854 C6,5920.0324 6.448,5920.0004 7,5920.0004 L8.018,5920.0004 L14,5920.0004 L19.982,5920.0004 L21,5920.0004 C21.552,5920.0004 22,5920.0324 22,5920.5854 L22,5921.6034 Z M22,5918.0004 L14,5918.0004 L6,5918.0004 C4.895,5918.0004 4,5918.4804 4,5919.5854 L4,5927.5854 C4,5929.8314 4.75,5931.8974 6,5933.5664 C6.574,5934.3324 7.253,5935.0114 8.018,5935.5854 C9.688,5936.8354 11.754,5938.0004 14,5938.0004 C16.246,5938.0004 18.312,5936.8354 19.982,5935.5854 C20.747,5935.0114 21.426,5934.3324 22,5933.5664 C23.25,5931.8974 24,5929.8314 24,5927.5854 L24,5919.5854 C24,5918.4804 23.105,5918.0004 22,5918.0004 L22,5918.0004 Z" id="emoji_surprised-[#478]"></path>
            </g>
        </g>
    </g>
</svg>