<?xml version="1.0" encoding="UTF-8" standalone="no"?>
<svg width="20px" height="20px" viewBox="0 0 20 20" version="1.1" xmlns="http://www.w3.org/2000/svg" xmlns:xlink="http://www.w3.org/1999/xlink">
    <!-- Generator: Sketch 3.8.1 (29687) - http://www.bohemiancoding.com/sketch -->
    <title>emoji_minecraft_missing [#575]</title>
    <desc>Created with Sketch.</desc>
    <defs></defs>
    <g id="Page-1" stroke="none" stroke-width="1" fill="none" fill-rule="evenodd">
        <g id="Dribbble-Dark-Preview" transform="translate(-180.000000, -5679.000000)" fill="#FFFFFF">
            <g id="icons" transform="translate(56.000000, 160.000000)">
                <path d="M142,5533 L144,5533 L144,5525 L142,5525 L142,5533 Z M141,5537 L140,5537 L140,5539 L142,5539 C143.105,5539 144,5538.105 144,5537 L144,5535 L142,5535 L142,5536 C142,5536.552 141.552,5537 141,5537 L141,5537 Z M140,5519 L140,5521 L141,5521 C141.552,5521 142,5521.448 142,5522 L142,5523 L144,5523 L144,5521 C144,5519.895 143.105,5519 142,5519 L140,5519 Z M124,5533 L126,5533 L126,5525 L124,5525 L124,5533 Z M126,5535 L124,5535 L124,5537 C124,5538.105 124.895,5539 126,5539 L128,5539 L128,5537 L127,5537 C126.448,5537 126,5536.552 126,5536 L126,5535 Z M127,5521 L128,5521 L128,5519 L126,5519 C124.895,5519 124,5519.895 124,5521 L124,5523 L126,5523 L126,5522 C126,5521.448 126.448,5521 127,5521 L127,5521 Z M130,5521 L138,5521 L138,5519 L130,5519 L130,5521 Z M132,5537 L136,5537 L136,5535 L132,5535 L132,5537 Z M137,5531 L137,5531 C137.552,5531 138,5531.448 138,5532 L138,5539 L130,5539 L130,5532 C130,5531.448 130.448,5531 131,5531 C131.552,5531 132,5530.552 132,5530 L132,5529 L136,5529 L136,5530 C136,5530.552 136.448,5531 137,5531 L137,5531 Z M139,5525 L137,5525 C136.448,5525 136,5525.448 136,5526 L136,5529 L139,5529 C139.552,5529 140,5528.552 140,5528 L140,5526 C140,5525.448 139.552,5525 139,5525 L139,5525 Z M132,5529 L129,5529 C128.448,5529 128,5528.552 128,5528 L128,5526 C128,5525.448 128.448,5525 129,5525 L131,5525 C131.552,5525 132,5525.448 132,5526 L132,5529 Z" id="emoji_minecraft_missing-[#575]"></path>
            </g>
        </g>
    </g>
</svg>