<?xml version="1.0" encoding="UTF-8" standalone="no"?>
<svg width="20px" height="20px" viewBox="0 0 20 20" version="1.1" xmlns="http://www.w3.org/2000/svg" xmlns:xlink="http://www.w3.org/1999/xlink">
    <!-- Generator: Sketch 3.8.1 (29687) - http://www.bohemiancoding.com/sketch -->
    <title>emoji_surprised [#508]</title>
    <desc>Created with Sketch.</desc>
    <defs></defs>
    <g id="Page-1" stroke="none" stroke-width="1" fill="none" fill-rule="evenodd">
        <g id="Dribbble-Dark-Preview" transform="translate(-60.000000, -5959.000000)" fill="#FFFFFF">
            <g id="icons" transform="translate(56.000000, 160.000000)">
                <path d="M16,5812.5244 C16,5813.6294 15.105,5814.5244 14,5814.5244 C12.895,5814.5244 12,5813.6294 12,5812.5244 C12,5811.4194 12.895,5810.5244 14,5810.5244 C15.105,5810.5244 16,5811.4194 16,5812.5244 L16,5812.5244 Z M16,5803.0004 L12,5803.0004 L6,5803.0004 L6,5801.5854 C6,5801.0324 6.448,5801.0004 7,5801.0004 L21,5801.0004 C21.552,5801.0004 22,5801.0324 22,5801.5854 L22,5803.0004 L16,5803.0004 Z M18,5809.0004 L22,5809.0004 L22,5805.0004 L18,5805.0004 L18,5809.0004 Z M14,5817.4164 C10.259,5817.4164 7.118,5814.0004 6.248,5811.0004 L12,5811.0004 L12,5805.0004 L16,5805.0004 L16,5811.0004 L21.752,5811.0004 C20.882,5814.0004 17.741,5817.4164 14,5817.4164 L14,5817.4164 Z M6,5809.0004 L10,5809.0004 L10,5805.0004 L6,5805.0004 L6,5809.0004 Z M22,5799.0004 L14,5799.0004 L6,5799.0004 C4.895,5799.0004 4,5799.4804 4,5800.5854 L4,5811.0004 L4.198,5811.0004 C4.495,5812.0004 5.12,5813.6294 6,5814.8044 C7.157,5816.3494 10.587,5819.0004 14,5819.0004 C17.355,5819.0004 21.106,5816.0134 22,5814.8194 C22.88,5813.6444 23.505,5812.0004 23.802,5811.0004 L24,5811.0004 L24,5800.5854 C24,5799.4804 23.105,5799.0004 22,5799.0004 L22,5799.0004 Z" id="emoji_surprised-[#508]"></path>
            </g>
        </g>
    </g>
</svg>