<?xml version="1.0" encoding="UTF-8" standalone="no"?>
<svg width="20px" height="20px" viewBox="0 0 20 20" version="1.1" xmlns="http://www.w3.org/2000/svg" xmlns:xlink="http://www.w3.org/1999/xlink">
    <!-- Generator: Sketch 3.8.1 (29687) - http://www.bohemiancoding.com/sketch -->
    <title>emoji_surprised_circle [#536]</title>
    <desc>Created with Sketch.</desc>
    <defs></defs>
    <g id="Page-1" stroke="none" stroke-width="1" fill="none" fill-rule="evenodd">
        <g id="Dribbble-Dark-Preview" transform="translate(-140.000000, -5839.000000)" fill="#FFFFFF">
            <g id="icons" transform="translate(56.000000, 160.000000)">
                <path d="M96,5693 C96,5694.105 95.105,5695 94,5695 C92.895,5695 92,5694.105 92,5693 C92,5691.895 92.895,5691 94,5691 C95.105,5691 96,5691.895 96,5693 M100,5687 C100,5688.105 99.105,5689 98,5689 C96.895,5689 96,5688.105 96,5687 C96,5685.895 96.895,5685 98,5685 C99.105,5685 100,5685.895 100,5687 M92,5687 C92,5688.105 91.105,5689 90,5689 C88.895,5689 88,5688.105 88,5687 C88,5685.895 88.895,5685 90,5685 C91.105,5685 92,5685.895 92,5687 M94,5697 C89.589,5697 86,5693.411 86,5689 C86,5684.589 89.589,5681 94,5681 C98.411,5681 102,5684.589 102,5689 C102,5693.411 98.411,5697 94,5697 M94,5679 C88.477,5679 84,5683.477 84,5689 C84,5694.523 88.477,5699 94,5699 C99.523,5699 104,5694.523 104,5689 C104,5683.477 99.523,5679 94,5679" id="emoji_surprised_circle-[#536]"></path>
            </g>
        </g>
    </g>
</svg>