<?xml version="1.0" encoding="UTF-8" standalone="no"?>
<svg width="20px" height="20px" viewBox="0 0 20 20" version="1.1" xmlns="http://www.w3.org/2000/svg" xmlns:xlink="http://www.w3.org/1999/xlink">
    <!-- Generator: Sketch 3.8.1 (29687) - http://www.bohemiancoding.com/sketch -->
    <title>emoji_neutral [#507]</title>
    <desc>Created with Sketch.</desc>
    <defs></defs>
    <g id="Page-1" stroke="none" stroke-width="1" fill="none" fill-rule="evenodd">
        <g id="Dribbble-Dark-Preview" transform="translate(-100.000000, -5959.000000)" fill="#FFFFFF">
            <g id="icons" transform="translate(56.000000, 160.000000)">
                <path d="M50,5815 L58,5815 L58,5813 L50,5813 L50,5815 Z M46,5803 L46,5801.585 C46,5801.033 46.448,5801 47,5801 L61,5801 C61.552,5801 62,5801.033 62,5801.585 L62,5803 L46,5803 Z M59,5809 C58.448,5809 58,5808.107 58,5807.555 L58,5805 L62,5805 L62,5809 L59,5809 Z M54,5817.416 C50.27,5817.416 47.137,5814 46.255,5811 L50,5811 C51.105,5811 52,5809.659 52,5808.555 L52,5805 L56,5805 L56,5808.555 C56,5809.659 56.895,5811 58,5811 L61.745,5811 C60.863,5814 57.73,5817.416 54,5817.416 L54,5817.416 Z M50,5805 L50,5807.555 C50,5808.107 49.552,5809 49,5809 L46,5809 L46,5805 L50,5805 Z M62,5799 L46,5799 C44.895,5799 44,5799.48 44,5800.585 L44,5811 L44.204,5811 C45.248,5814.484 46.647,5815.669 48.018,5816.696 C49.688,5817.947 51.754,5819.026 54,5819.026 C57.437,5819.026 61.198,5815.874 62,5814.803 C62.874,5813.636 63.496,5812 63.796,5811 L64,5811 L64,5800.585 C64,5799.48 63.105,5799 62,5799 L62,5799 Z" id="emoji_neutral-[#507]"></path>
            </g>
        </g>
    </g>
</svg>