<?xml version="1.0" encoding="UTF-8" standalone="no"?>
<svg width="20px" height="20px" viewBox="0 0 20 20" version="1.1" xmlns="http://www.w3.org/2000/svg" xmlns:xlink="http://www.w3.org/1999/xlink">
    <!-- Generator: Sketch 3.8.1 (29687) - http://www.bohemiancoding.com/sketch -->
    <title>emoji_neutral [#503]</title>
    <desc>Created with Sketch.</desc>
    <defs></defs>
    <g id="Page-1" stroke="none" stroke-width="1" fill="none" fill-rule="evenodd">
        <g id="Dribbble-Dark-Preview" transform="translate(-260.000000, -5959.000000)" fill="#FFFFFF">
            <g id="icons" transform="translate(56.000000, 160.000000)">
                <path d="M212,5814.97923 L216,5814.97923 L216,5812.98182 L212,5812.98182 L212,5814.97923 Z M216,5802.99481 L212,5802.99481 L206,5802.99481 L206,5801.58164 C206,5801.03036 206.448,5800.9974 207,5800.9974 L208.018,5800.9974 L214,5800.9974 L219.982,5800.9974 L221,5800.9974 C221.552,5800.9974 222,5801.03036 222,5801.58164 L222,5802.99481 L216,5802.99481 Z M219,5808.98702 C218.448,5808.98702 218,5808.09518 218,5807.54389 L218,5804.99221 L222,5804.99221 L222,5808.98702 L219,5808.98702 Z M214,5817.39209 C210.27,5817.39209 207.137,5813.98053 206.255,5810.98442 L210,5810.98442 C211.105,5810.98442 212,5809.64516 212,5808.54259 L212,5804.99221 L216,5804.99221 L216,5808.54259 C216,5809.64516 216.895,5810.98442 218,5810.98442 L221.745,5810.98442 C220.863,5813.98053 217.73,5817.39209 214,5817.39209 L214,5817.39209 Z M210,5804.99221 L210,5807.54389 C210,5808.09518 209.552,5808.98702 209,5808.98702 L206,5808.98702 L206,5804.99221 L210,5804.99221 Z M222,5799 L214,5799 L206,5799 C204.895,5799 204,5799.47938 204,5800.58294 L204,5802.55038 L204,5808.57256 L204,5810.98442 L204.204,5810.98442 C204.504,5811.98312 205.126,5813.60302 206,5814.7685 C206.574,5815.53351 207.253,5816.10077 208.018,5816.67303 C209.688,5817.9224 211.754,5819 214,5819 C216.246,5819 218.312,5817.83851 219.982,5816.59013 C220.747,5816.01688 221.426,5815.54749 222,5814.78248 C222.874,5813.617 223.496,5811.98312 223.796,5810.98442 L224,5810.98442 L224,5808.57256 L224,5802.55038 L224,5800.58294 C224,5799.47938 223.105,5799 222,5799 L222,5799 Z" id="emoji_neutral-[#503]"></path>
            </g>
        </g>
    </g>
</svg>