<?xml version="1.0" encoding="UTF-8" standalone="no"?>
<svg width="20px" height="20px" viewBox="0 0 20 20" version="1.1" xmlns="http://www.w3.org/2000/svg" xmlns:xlink="http://www.w3.org/1999/xlink">
    <!-- Generator: Sketch 3.8.1 (29687) - http://www.bohemiancoding.com/sketch -->
    <title>emoji_happy_square [#398]</title>
    <desc>Created with Sketch.</desc>
    <defs></defs>
    <g id="Page-1" stroke="none" stroke-width="1" fill="none" fill-rule="evenodd">
        <g id="Dribbble-Dark-Preview" transform="translate(-60.000000, -6399.000000)" fill="#FFFFFF">
            <g id="icons" transform="translate(56.000000, 160.000000)">
                <path d="M16,6249 L20,6249 L20,6245 L16,6245 L16,6249 Z M8,6249 L12,6249 L12,6245 L8,6245 L8,6249 Z M17,6250 L19,6250 C19,6256 9,6256 9,6250 L11,6250 C11,6254 17,6254 17,6250 L17,6250 Z M6,6257 L22,6257 L22,6241 L6,6241 L6,6257 Z M4,6259 L24,6259 L24,6239 L4,6239 L4,6259 Z" id="emoji_happy_square-[#398]"></path>
            </g>
        </g>
    </g>
</svg>