<?xml version="1.0" encoding="UTF-8" standalone="no"?>
<svg width="20px" height="20px" viewBox="0 0 20 20" version="1.1" xmlns="http://www.w3.org/2000/svg" xmlns:xlink="http://www.w3.org/1999/xlink">
    <!-- Generator: Sketch 3.8.1 (29687) - http://www.bohemiancoding.com/sketch -->
    <title>emoji_neutral_square_round [#435]</title>
    <desc>Created with Sketch.</desc>
    <defs></defs>
    <g id="Page-1" stroke="none" stroke-width="1" fill="none" fill-rule="evenodd">
        <g id="Dribbble-Dark-Preview" transform="translate(-180.000000, -6239.000000)" fill="#FFFFFF">
            <g id="icons" transform="translate(56.000000, 160.000000)">
                <path d="M140,6092 C140,6092.552 139.552,6093 139,6093 L129,6093 C128.448,6093 128,6092.552 128,6092 C128,6091.448 128.448,6091 129,6091 L139,6091 C139.552,6091 140,6091.448 140,6092 L140,6092 Z M140.414,6083.171 L140.414,6083.171 C140.805,6083.561 140.805,6084.194 140.414,6084.585 L139.414,6085.585 L140.414,6086.585 C140.805,6086.975 140.805,6087.609 140.414,6087.999 L140.414,6087.999 C140.024,6088.39 139.391,6088.39 139,6087.999 L138,6086.999 L137,6087.999 C136.609,6088.39 135.976,6088.39 135.586,6087.999 C135.195,6087.609 135.195,6086.975 135.586,6086.585 L136.586,6085.585 L135.586,6084.585 C135.195,6084.194 135.195,6083.561 135.586,6083.171 L135.586,6083.171 C135.976,6082.78 136.609,6082.78 137,6083.171 L138,6084.171 L139,6083.171 C139.391,6082.78 140.024,6082.78 140.414,6083.171 L140.414,6083.171 Z M127.586,6087.999 L127.586,6087.999 C127.195,6087.609 127.195,6086.975 127.586,6086.585 L128.586,6085.585 L127.586,6084.585 C127.195,6084.194 127.195,6083.561 127.586,6083.171 L127.586,6083.171 C127.976,6082.78 128.609,6082.78 129,6083.171 L130,6084.171 L131,6083.171 C131.391,6082.78 132.024,6082.78 132.414,6083.171 L132.414,6083.171 C132.805,6083.561 132.805,6084.194 132.414,6084.585 L131.414,6085.585 L132.414,6086.585 C132.805,6086.975 132.805,6087.609 132.414,6087.999 L132.414,6087.999 C132.024,6088.39 131.391,6088.39 131,6087.999 L130,6086.999 L129,6087.999 C128.609,6088.39 127.976,6088.39 127.586,6087.999 L127.586,6087.999 Z M142,6096 C142,6096.552 141.552,6097 141,6097 L127,6097 C126.448,6097 126,6096.552 126,6096 L126,6082 C126,6081.448 126.448,6081 127,6081 L141,6081 C141.552,6081 142,6081.448 142,6082 L142,6096 Z M144,6081 C144,6079.895 143.105,6079 142,6079 L126,6079 C124.895,6079 124,6079.895 124,6081 L124,6097 C124,6098.105 124.895,6099 126,6099 L142,6099 C143.105,6099 144,6098.105 144,6097 L144,6081 Z" id="emoji_neutral_square_round-[#435]"></path>
            </g>
        </g>
    </g>
</svg>