<?xml version="1.0" encoding="UTF-8" standalone="no"?>
<svg width="20px" height="20px" viewBox="0 0 20 20" version="1.1" xmlns="http://www.w3.org/2000/svg" xmlns:xlink="http://www.w3.org/1999/xlink">
    <!-- Generator: Sketch 3.8.1 (29687) - http://www.bohemiancoding.com/sketch -->
    <title>emoji_neutral [#493]</title>
    <desc>Created with Sketch.</desc>
    <defs></defs>
    <g id="Page-1" stroke="none" stroke-width="1" fill="none" fill-rule="evenodd">
        <g id="Dribbble-Dark-Preview" transform="translate(-260.000000, -5999.000000)" fill="#FFFFFF">
            <g id="icons" transform="translate(56.000000, 160.000000)">
                <path d="M220,5846.0001 C220,5846.5521 219.552,5847.0001 219,5847.0001 L217,5847.0001 C216.448,5847.0001 216,5846.5521 216,5846.0001 L216,5846.0001 C216,5845.4481 216.448,5845.0001 217,5845.0001 L219,5845.0001 C219.552,5845.0001 220,5845.4481 220,5846.0001 L220,5846.0001 Z M220,5852.0001 C220,5852.5521 219.552,5853.0001 219,5853.0001 L209,5853.0001 C208.448,5853.0001 208,5852.5521 208,5852.0001 L208,5852.0001 C208,5851.4481 208.448,5851.0001 209,5851.0001 L219,5851.0001 C219.552,5851.0001 220,5851.4481 220,5852.0001 L220,5852.0001 Z M212,5846.0001 C212,5846.5521 211.552,5847.0001 211,5847.0001 L209,5847.0001 C208.448,5847.0001 208,5846.5521 208,5846.0001 C208,5845.4481 208.448,5845.0001 209,5845.0001 L211,5845.0001 C211.552,5845.0001 212,5845.4481 212,5846.0001 L212,5846.0001 Z M222,5842.6031 L222,5848.5851 C222,5852.9961 218.411,5857.0001 214,5857.0001 C209.589,5857.0001 206,5852.9961 206,5848.5851 L206,5842.6031 L206,5841.5851 C206,5841.0331 206.448,5841.0001 207,5841.0001 L208.018,5841.0001 L214,5841.0001 L219.982,5841.0001 L221,5841.0001 C221.552,5841.0001 222,5841.0331 222,5841.5851 L222,5842.6031 Z M222,5839.0001 L214,5839.0001 L206,5839.0001 C204.895,5839.0001 204,5839.4801 204,5840.5851 L204,5848.5851 C204,5850.8311 204.75,5852.8971 206,5854.5671 C206.574,5855.3321 207.253,5856.0111 208.018,5856.5851 C209.688,5857.8351 211.754,5859.0001 214,5859.0001 C216.246,5859.0001 218.312,5857.8351 219.982,5856.5851 C220.747,5856.0111 221.426,5855.3321 222,5854.5671 C223.25,5852.8971 224,5850.8311 224,5848.5851 L224,5840.5851 C224,5839.4801 223.105,5839.0001 222,5839.0001 L222,5839.0001 Z" id="emoji_neutral-[#493]"></path>
            </g>
        </g>
    </g>
</svg>