<?xml version="1.0" encoding="UTF-8" standalone="no"?>
<svg width="20px" height="20px" viewBox="0 0 20 20" version="1.1" xmlns="http://www.w3.org/2000/svg" xmlns:xlink="http://www.w3.org/1999/xlink">
    <!-- Generator: Sketch 3.8.1 (29687) - http://www.bohemiancoding.com/sketch -->
    <title>emoji_surprised_square_round_glasses [#446]</title>
    <desc>Created with Sketch.</desc>
    <defs></defs>
    <g id="Page-1" stroke="none" stroke-width="1" fill="none" fill-rule="evenodd">
        <g id="Dribbble-Dark-Preview" transform="translate(-140.000000, -6199.000000)" fill="#FFFFFF">
            <g id="icons" transform="translate(56.000000, 160.000000)">
                <path d="M96,6052.585 C96,6053.69 95.105,6054.585 94,6054.585 C92.895,6054.585 92,6053.69 92,6052.585 C92,6051.48 92.895,6050.585 94,6050.585 C95.105,6050.585 96,6051.48 96,6052.585 L96,6052.585 Z M86,6043 L86,6041.585 C86,6041.033 86.448,6041 87,6041 L101,6041 C101.552,6041 102,6041.033 102,6041.585 L102,6043 L86,6043 Z M98,6047.585 L98,6045 L102,6045 L102,6049 L99,6049 C98.448,6049 98,6048.137 98,6047.585 L98,6047.585 Z M102,6055.585 C102,6056.137 101.552,6057 101,6057 L87,6057 C86.448,6057 86,6056.137 86,6055.585 L86,6051 L90,6051 C91.105,6051 92,6049.69 92,6048.585 L92,6045 L96,6045 L96,6048.585 C96,6049.69 96.895,6051 98,6051 L102,6051 L102,6055.585 Z M86,6045 L90,6045 L90,6047.585 C90,6048.137 89.552,6049 89,6049 L86,6049 L86,6045 Z M102,6039 L86,6039 C84.895,6039 84,6039.48 84,6040.585 L84,6056.585 C84,6057.69 84.895,6059 86,6059 L102,6059 C103.105,6059 104,6057.69 104,6056.585 L104,6040.585 C104,6039.48 103.105,6039 102,6039 L102,6039 Z" id="emoji_surprised_square_round_glasses-[#446]"></path>
            </g>
        </g>
    </g>
</svg>