<?xml version="1.0" encoding="UTF-8" standalone="no"?>
<svg width="20px" height="20px" viewBox="0 0 20 20" version="1.1" xmlns="http://www.w3.org/2000/svg" xmlns:xlink="http://www.w3.org/1999/xlink">
    <!-- Generator: Sketch 3.8.1 (29687) - http://www.bohemiancoding.com/sketch -->
    <title>emoji_sad [#523]</title>
    <desc>Created with Sketch.</desc>
    <defs></defs>
    <g id="Page-1" stroke="none" stroke-width="1" fill="none" fill-rule="evenodd">
        <g id="Dribbble-Dark-Preview" transform="translate(-260.000000, -5879.000000)" fill="#FFFFFF">
            <g id="icons" transform="translate(56.000000, 160.000000)">
                <path d="M219,5725 C219.552,5725 220,5725.448 220,5726 C220,5726.552 219.552,5727 219,5727 L217,5727 C216.448,5727 216,5726.552 216,5726 C216,5725.448 216.448,5725 217,5725 L219,5725 Z M211,5727 L209,5727 C208.448,5727 208,5726.552 208,5726 C208,5725.448 208.448,5725 209,5725 L211,5725 C211.552,5725 212,5725.448 212,5726 C212,5726.552 211.552,5727 211,5727 L211,5727 Z M218.893,5733.749 C219.01,5734.348 218.513,5735 217.902,5735 L210.098,5735 C209.487,5735 208.99,5734.245 209.107,5733.646 C210.114,5728.508 217.886,5728.612 218.893,5733.749 L218.893,5733.749 Z M222,5735.594 C222,5736.147 221.552,5737 221,5737 L207,5737 C206.448,5737 206,5736.147 206,5735.594 L206,5728.594 C206,5724.183 209.589,5721 214,5721 C218.411,5721 222,5724.183 222,5728.594 L222,5735.594 Z M222,5722.613 C219.898,5719.807 217.453,5719 214,5719 C210.545,5719 208.101,5719.808 206,5722.613 C204.75,5724.282 204,5726.348 204,5728.594 L204,5736.594 C204,5737.699 204.895,5739 206,5739 L222,5739 C223.105,5739 224,5737.699 224,5736.594 L224,5728.594 C224,5726.348 223.25,5724.282 222,5722.613 L222,5722.613 Z" id="emoji_sad-[#523]"></path>
            </g>
        </g>
    </g>
</svg>