<?xml version="1.0" encoding="UTF-8" standalone="no"?>
<svg width="20px" height="20px" viewBox="0 0 20 20" version="1.1" xmlns="http://www.w3.org/2000/svg" xmlns:xlink="http://www.w3.org/1999/xlink">
    <!-- Generator: Sketch 3.8.1 (29687) - http://www.bohemiancoding.com/sketch -->
    <title>emoji_sad_square_round [#432]</title>
    <desc>Created with Sketch.</desc>
    <defs></defs>
    <g id="Page-1" stroke="none" stroke-width="1" fill="none" fill-rule="evenodd">
        <g id="Dribbble-Dark-Preview" transform="translate(-300.000000, -6239.000000)" fill="#FFFFFF">
            <g id="icons" transform="translate(56.000000, 160.000000)">
                <path d="M260,6086 C260,6086.552 259.552,6087 259,6087 L257,6087 C256.448,6087 256,6086.552 256,6086 C256,6085.448 256.448,6085 257,6085 L259,6085 C259.552,6085 260,6085.448 260,6086 L260,6086 Z M252,6086 C252,6086.552 251.552,6087 251,6087 L249,6087 C248.448,6087 248,6086.552 248,6086 C248,6085.448 248.448,6085 249,6085 L251,6085 C251.552,6085 252,6085.448 252,6086 L252,6086 Z M259,6095 L249,6095 C249,6088 259,6088 259,6095 L259,6095 Z M262,6096 C262,6096.552 261.552,6097 261,6097 L247,6097 C246.448,6097 246,6096.552 246,6096 L246,6082 C246,6081.448 246.448,6081 247,6081 L261,6081 C261.552,6081 262,6081.448 262,6082 L262,6096 Z M264,6081 C264,6079.895 263.105,6079 262,6079 L246,6079 C244.895,6079 244,6079.895 244,6081 L244,6097 C244,6098.105 244.895,6099 246,6099 L262,6099 C263.105,6099 264,6098.105 264,6097 L264,6081 Z" id="emoji_sad_square_round-[#432]"></path>
            </g>
        </g>
    </g>
</svg>