<?xml version="1.0" encoding="UTF-8" standalone="no"?>
<svg width="20px" height="20px" viewBox="0 0 20 20" version="1.1" xmlns="http://www.w3.org/2000/svg" xmlns:xlink="http://www.w3.org/1999/xlink">
    <!-- Generator: Sketch 3.8.1 (29687) - http://www.bohemiancoding.com/sketch -->
    <title>emoji_minecraft [#567]</title>
    <desc>Created with Sketch.</desc>
    <defs></defs>
    <g id="Page-1" stroke="none" stroke-width="1" fill="none" fill-rule="evenodd">
        <g id="Dribbble-Dark-Preview" transform="translate(-100.000000, -5719.000000)" fill="#FFFFFF">
            <g id="icons" transform="translate(56.000000, 160.000000)">
                <path d="M58,5575.9175 L58,5571.9495 C58,5571.3965 57.532,5571.0055 56.98,5570.9995 C56.437,5570.9945 56,5570.7525 56,5570.2075 L57,5569.4145 L59,5569.4145 C59.552,5569.4145 60,5568.9675 60,5568.4145 L60,5566.4145 C60,5565.8625 59.552,5565.4145 59,5565.4145 L57,5565.4145 C56.448,5565.4145 56,5565.8625 56,5566.4145 L56,5567.9995 L55,5569.4145 L53,5569.4145 L52,5567.9995 L52,5566.4145 C52,5565.8625 51.552,5565.4145 51,5565.4145 L49,5565.4145 C48.448,5565.4145 48,5565.8625 48,5566.4145 L48,5568.4145 C48,5568.9645 48.45,5569.4145 49,5569.4145 L51,5569.4145 L52,5570.2075 C52,5570.7805 51.518,5571.1295 50.937,5571.1025 C50.423,5571.0785 50,5571.4855 50,5571.9995 L50,5575.9175 C47.271,5574.3335 45.554,5571.1905 46.102,5567.7095 C46.652,5564.2195 49.572,5561.4435 53.084,5561.0515 C57.903,5560.5125 62,5564.2865 62,5568.9995 C62,5571.9535 60.387,5574.5315 58,5575.9175 M52,5576.7365 L52,5575.9995 C52,5575.4475 52.448,5574.9995 53,5574.9995 L55,5574.9995 C55.552,5574.9995 56,5575.4475 56,5575.9995 L56,5576.7365 C55.359,5576.9025 54.692,5576.9995 54,5576.9995 C53.308,5576.9995 52.641,5576.9025 52,5576.7365 M54,5558.9995 C48.477,5558.9995 44,5563.4775 44,5568.9995 C44,5574.5225 48.477,5578.9995 54,5578.9995 C59.523,5578.9995 64,5574.5225 64,5568.9995 C64,5563.4775 59.523,5558.9995 54,5558.9995" id="emoji_minecraft-[#567]"></path>
            </g>
        </g>
    </g>
</svg>