<?xml version="1.0" encoding="UTF-8" standalone="no"?>
<svg width="20px" height="20px" viewBox="0 0 20 20" version="1.1" xmlns="http://www.w3.org/2000/svg" xmlns:xlink="http://www.w3.org/1999/xlink">
    <!-- Generator: Sketch 3.8.1 (29687) - http://www.bohemiancoding.com/sketch -->
    <title>emoji_neutral_circle [#561]</title>
    <desc>Created with Sketch.</desc>
    <defs></defs>
    <g id="Page-1" stroke="none" stroke-width="1" fill="none" fill-rule="evenodd">
        <g id="Dribbble-Dark-Preview" transform="translate(-340.000000, -5719.000000)" fill="#FFFFFF">
            <g id="icons" transform="translate(56.000000, 160.000000)">
                <path d="M296,5574 C296,5574.552 295.552,5575 295,5575 L293,5575 C292.448,5575 292,5574.552 292,5574 C292,5573.448 292.448,5573 293,5573 L295,5573 C295.552,5573 296,5573.448 296,5574 L296,5574 Z M294,5577 C290.28,5577 287.155,5574 286.263,5571 L292,5571 L292,5565 L296,5565 L296,5571 L301.737,5571 C300.845,5574 297.72,5577 294,5577 L294,5577 Z M286,5569 L290,5569 L290,5565 L286,5565 L286,5569 Z M294,5561 C296.021,5561 297.864,5561 299.274,5563 L288.726,5563 C290.136,5561 291.979,5561 294,5561 L294,5561 Z M298,5569 L302,5569 L302,5565 L298,5565 L298,5569 Z M301.986,5563 C300.162,5560 297.268,5559 294,5559 C290.732,5559 287.838,5560 286.014,5563 L284,5563 L284,5571 L284.201,5571 C285.128,5575 289.162,5579 294,5579 C298.838,5579 302.872,5575 303.799,5571 L304,5571 L304,5563 L301.986,5563 Z" id="emoji_neutral_circle-[#561]"></path>
            </g>
        </g>
    </g>
</svg>