<?xml version="1.0" encoding="UTF-8" standalone="no"?>
<svg width="20px" height="20px" viewBox="0 0 20 20" version="1.1" xmlns="http://www.w3.org/2000/svg" xmlns:xlink="http://www.w3.org/1999/xlink">
    <!-- Generator: Sketch 3.8.1 (29687) - http://www.bohemiancoding.com/sketch -->
    <title>emoji_sad_circle [#548]</title>
    <desc>Created with Sketch.</desc>
    <defs></defs>
    <g id="Page-1" stroke="none" stroke-width="1" fill="none" fill-rule="evenodd">
        <g id="Dribbble-Dark-Preview" transform="translate(-60.000000, -5799.000000)" fill="#FFFFFF">
            <g id="icons" transform="translate(56.000000, 160.000000)">
                <path d="M20,5647 C20,5648.105 19.105,5649 18,5649 C16.895,5649 16,5648.105 16,5647 C16,5645.895 16.895,5645 18,5645 C19.105,5645 20,5645.895 20,5647 M10,5649 C8.895,5649 8,5648.105 8,5647 C8,5645.895 8.895,5645 10,5645 C11.105,5645 12,5645.895 12,5647 C12,5648.105 11.105,5649 10,5649 M18.893,5654.164 C19.01,5654.763 18.513,5655.415 17.902,5655.415 L10.098,5655.415 C9.487,5655.415 8.99,5654.66 9.107,5654.061 C10.114,5648.923 17.886,5649.027 18.893,5654.164 M14,5657 C9.589,5657 6,5653.411 6,5649 C6,5644.589 9.589,5641 14,5641 C18.411,5641 22,5644.589 22,5649 C22,5653.411 18.411,5657 14,5657 M14,5639 C8.477,5639 4,5643.477 4,5649 C4,5654.523 8.477,5659 14,5659 C19.523,5659 24,5654.523 24,5649 C24,5643.477 19.523,5639 14,5639" id="emoji_sad_circle-[#548]"></path>
            </g>
        </g>
    </g>
</svg>