<?xml version="1.0" encoding="UTF-8" standalone="no"?>
<svg width="20px" height="20px" viewBox="0 0 20 20" version="1.1" xmlns="http://www.w3.org/2000/svg" xmlns:xlink="http://www.w3.org/1999/xlink">
    <!-- Generator: Sketch 3.8.1 (29687) - http://www.bohemiancoding.com/sketch -->
    <title>emoji_sad [#529]</title>
    <desc>Created with Sketch.</desc>
    <defs></defs>
    <g id="Page-1" stroke="none" stroke-width="1" fill="none" fill-rule="evenodd">
        <g id="Dribbble-Dark-Preview" transform="translate(-420.000000, -5839.000000)" fill="#FFFFFF">
            <g id="icons" transform="translate(56.000000, 160.000000)">
                <path d="M379,5685 C379.552,5685 380,5685.448 380,5686 L380,5688 C380,5688.552 379.552,5689 379,5689 L377,5689 C376.45,5689 376,5688.55 376,5688 L376,5686 C376,5685.448 376.448,5685 377,5685 L379,5685 Z M368,5688 L368,5686 C368,5685.448 368.448,5685 369,5685 L371,5685 C371.552,5685 372,5685.448 372,5686 L372,5688 C372,5688.552 371.552,5689 371,5689 L369,5689 C368.45,5689 368,5688.55 368,5688 L368,5688 Z M368,5694 L368,5693 C368,5691.895 368.895,5691 370,5691 L378,5691 C379.105,5691 380,5691.895 380,5693 L380,5694 C380,5694.552 379.552,5694.896 379,5694.896 C378.448,5694.896 378,5694.552 378,5694 C378,5693.448 377.552,5693 377,5693 L371,5693 C370.448,5693 370,5693.448 370,5694 C370,5694.552 369.552,5695.104 369,5695.104 C368.448,5695.104 368,5694.552 368,5694 L368,5694 Z M382,5695.593 C382,5696.145 381.552,5697 381,5697 L367,5697 C366.448,5697 366,5696.145 366,5695.593 L366,5688.593 C366,5684.181 369.589,5681 374,5681 C378.411,5681 382,5684.181 382,5688.593 L382,5695.593 Z M382,5682.611 C379.893,5679.798 377.445,5679 374,5679 C366.928,5679 364,5684.252 364,5688.593 L364,5696.593 C364,5697.697 364.895,5699 366,5699 L382,5699 C383.105,5699 384,5697.697 384,5696.593 L384,5688.593 C384,5686.346 383.25,5684.28 382,5682.611 L382,5682.611 Z" id="emoji_sad-[#529]"></path>
            </g>
        </g>
    </g>
</svg>