<?xml version="1.0" encoding="UTF-8" standalone="no"?>
<svg width="20px" height="20px" viewBox="0 0 20 20" version="1.1" xmlns="http://www.w3.org/2000/svg" xmlns:xlink="http://www.w3.org/1999/xlink">
    <!-- Generator: Sketch 3.8.1 (29687) - http://www.bohemiancoding.com/sketch -->
    <title>emoji_sad [#516]</title>
    <desc>Created with Sketch.</desc>
    <defs></defs>
    <g id="Page-1" stroke="none" stroke-width="1" fill="none" fill-rule="evenodd">
        <g id="Dribbble-Dark-Preview" transform="translate(-140.000000, -5919.000000)" fill="#FFFFFF">
            <g id="icons" transform="translate(56.000000, 160.000000)">
                <path d="M99,5765 C99.552,5765 100,5765.448 100,5766 L100,5768 C100,5768.552 99.552,5769 99,5769 L97,5769 C96.45,5769 96,5768.55 96,5768 L96,5766 C96,5765.448 96.448,5765 97,5765 L99,5765 Z M91,5769 L89,5769 C88.45,5769 88,5768.55 88,5768 L88,5766 C88,5765.448 88.448,5765 89,5765 L91,5765 C91.552,5765 92,5765.448 92,5766 L92,5768 C92,5768.552 91.552,5769 91,5769 L91,5769 Z M98.893,5773.749 C99.01,5774.348 98.513,5775 97.902,5775 L97.885,5775 C97.409,5775 97.019,5774.552 96.91,5774.089 C96.219,5771.165 91.781,5771.062 91.09,5773.985 C90.981,5774.449 90.591,5775 90.115,5775 L90.098,5775 C89.487,5775 88.99,5774.245 89.107,5773.646 C90.114,5768.508 97.886,5768.612 98.893,5773.749 L98.893,5773.749 Z M102,5775.585 C102,5776.137 101.552,5777 101,5777 L87,5777 C86.448,5777 86,5776.137 86,5775.585 L86,5768.585 C86,5764.174 89.589,5761 94,5761 C98.411,5761 102,5764.174 102,5768.585 L102,5775.585 Z M102,5762.603 C99.89,5759.785 97.453,5759 94,5759 C90.546,5759 88.11,5759.786 86,5762.603 C84.75,5764.273 84,5766.339 84,5768.585 L84,5776.585 C84,5777.69 84.895,5779 86,5779 L102,5779 C103.105,5779 104,5777.69 104,5776.585 L104,5768.585 C104,5766.339 103.25,5764.273 102,5762.603 L102,5762.603 Z" id="emoji_sad-[#516]"></path>
            </g>
        </g>
    </g>
</svg>