<?xml version="1.0" encoding="UTF-8" standalone="no"?>
<svg width="20px" height="20px" viewBox="0 0 20 20" version="1.1" xmlns="http://www.w3.org/2000/svg" xmlns:xlink="http://www.w3.org/1999/xlink">
    <!-- Generator: Sketch 3.8.1 (29687) - http://www.bohemiancoding.com/sketch -->
    <title>emoji_happy_missing [#577]</title>
    <desc>Created with Sketch.</desc>
    <defs></defs>
    <g id="Page-1" stroke="none" stroke-width="1" fill="none" fill-rule="evenodd">
        <g id="Dribbble-Dark-Preview" transform="translate(-100.000000, -5679.000000)" fill="#FFFFFF">
            <g id="icons" transform="translate(56.000000, 160.000000)">
                <path d="M62,5533 L64,5533 L64,5525 L62,5525 L62,5533 Z M62,5537 L60,5537 L60,5539 L64,5539 L64,5535 L62,5535 L62,5537 Z M60,5519 L60,5521 L62,5521 L62,5523 L64,5523 L64,5519 L60,5519 Z M44,5533 L46,5533 L46,5525 L44,5525 L44,5533 Z M46,5535 L44,5535 L44,5539 L48,5539 L48,5537 L46,5537 L46,5535 Z M46,5521 L48,5521 L48,5519 L44,5519 L44,5523 L46,5523 L46,5521 Z M50,5539 L58,5539 L58,5537 L50,5537 L50,5539 Z M50,5521 L58,5521 L58,5519 L50,5519 L50,5521 Z M56,5528 L60,5528 L60,5524 L56,5524 L56,5528 Z M48,5528 L52,5528 L52,5524 L48,5524 L48,5528 Z M49.167,5529 L59.167,5529 C59.167,5536 49.167,5536 49.167,5529 L49.167,5529 Z" id="emoji_happy_missing-[#577]"></path>
            </g>
        </g>
    </g>
</svg>