<?xml version="1.0" encoding="UTF-8" standalone="no"?>
<svg width="20px" height="20px" viewBox="0 0 20 20" version="1.1" xmlns="http://www.w3.org/2000/svg" xmlns:xlink="http://www.w3.org/1999/xlink">
    <!-- Generator: Sketch 3.8.1 (29687) - http://www.bohemiancoding.com/sketch -->
    <title>emoji_sad_square [#413]</title>
    <desc>Created with Sketch.</desc>
    <defs></defs>
    <g id="Page-1" stroke="none" stroke-width="1" fill="none" fill-rule="evenodd">
        <g id="Dribbble-Dark-Preview" transform="translate(-260.000000, -6319.000000)" fill="#FFFFFF">
            <g id="icons" transform="translate(56.000000, 160.000000)">
                <path d="M216,6167 L220,6167 L220,6165 L216,6165 L216,6167 Z M208,6167 L212,6167 L212,6165 L208,6165 L208,6167 Z M210,6175 L208,6175 L208,6171 L220,6171 L220,6175 L218,6175 L218,6173 L210,6173 L210,6175 Z M206,6177 L222,6177 L222,6161 L206,6161 L206,6177 Z M204,6179 L224,6179 L224,6159 L204,6159 L204,6179 Z" id="emoji_sad_square-[#413]"></path>
            </g>
        </g>
    </g>
</svg>