<?xml version="1.0" encoding="UTF-8" standalone="no"?>
<svg width="20px" height="20px" viewBox="0 0 20 20" version="1.1" xmlns="http://www.w3.org/2000/svg" xmlns:xlink="http://www.w3.org/1999/xlink">
    <!-- Generator: Sketch 3.8.1 (29687) - http://www.bohemiancoding.com/sketch -->
    <title>emoji_sad [#491]</title>
    <desc>Created with Sketch.</desc>
    <defs></defs>
    <g id="Page-1" stroke="none" stroke-width="1" fill="none" fill-rule="evenodd">
        <g id="Dribbble-Dark-Preview" transform="translate(-340.000000, -5999.000000)" fill="#FFFFFF">
            <g id="icons" transform="translate(56.000000, 160.000000)">
                <path d="M300,5846 C300,5846.552 299.552,5847 299,5847 L297,5847 C296.448,5847 296,5846.552 296,5846 C296,5845.448 296.448,5845 297,5845 L299,5845 C299.552,5845 300,5845.448 300,5846 L300,5846 Z M291,5847 L289,5847 C288.448,5847 288,5846.552 288,5846 C288,5845.448 288.448,5845 289,5845 L291,5845 C291.552,5845 292,5845.448 292,5846 C292,5846.552 291.552,5847 291,5847 L291,5847 Z M298.893,5853.746 C299.01,5854.345 298.513,5855 297.902,5855 L290.098,5855 C289.487,5855 288.99,5854.237 289.107,5853.638 C290.114,5848.5 297.886,5848.608 298.893,5853.746 L298.893,5853.746 Z M302,5842.603 L302,5848.585 C302,5852.996 298.411,5857 294,5857 C289.589,5857 286,5852.996 286,5848.585 L286,5842.603 L286,5841.585 C286,5841.033 286.448,5841 287,5841 L288.018,5841 L294,5841 L299.982,5841 L301,5841 C301.552,5841 302,5841.033 302,5841.585 L302,5842.603 Z M302,5839 L294,5839 L286,5839 C284.895,5839 284,5839.48 284,5840.585 L284,5848.585 C284,5850.831 284.75,5852.897 286,5854.567 C286.574,5855.333 287.253,5856.011 288.018,5856.585 C289.688,5857.835 291.754,5859 294,5859 C296.246,5859 298.312,5857.835 299.982,5856.585 C300.747,5856.011 301.426,5855.333 302,5854.567 C303.25,5852.897 304,5850.831 304,5848.585 L304,5840.585 C304,5839.48 303.105,5839 302,5839 L302,5839 Z" id="emoji_sad-[#491]"></path>
            </g>
        </g>
    </g>
</svg>