<?xml version="1.0" encoding="UTF-8" standalone="no"?>
<svg width="20px" height="20px" viewBox="0 0 20 20" version="1.1" xmlns="http://www.w3.org/2000/svg" xmlns:xlink="http://www.w3.org/1999/xlink">
    <!-- Generator: Sketch 3.8.1 (29687) - http://www.bohemiancoding.com/sketch -->
    <title>emoji_sad [#485]</title>
    <desc>Created with Sketch.</desc>
    <defs></defs>
    <g id="Page-1" stroke="none" stroke-width="1" fill="none" fill-rule="evenodd">
        <g id="Dribbble-Dark-Preview" transform="translate(-180.000000, -6039.000000)" fill="#FFFFFF">
            <g id="icons" transform="translate(56.000000, 160.000000)">
                <path d="M140,5886 L140,5886.555 L140,5888 C140,5888.552 139.552,5889 139,5889 L137,5889 C136.45,5889 136,5888.55 136,5888 L136,5886.555 L136,5886 C136,5885.448 136.448,5885 137,5885 L139,5885 C139.552,5885 140,5885.448 140,5886 L140,5886 Z M129,5889 C128.45,5889 128,5888.55 128,5888 L128,5886.555 L128,5886 C128,5885.448 128.448,5885 129,5885 L131,5885 C131.552,5885 132,5885.448 132,5886 L132,5886.555 L132,5888 C132,5888.552 131.552,5889 131,5889 L129,5889 Z M139,5895 L129,5895 C129,5888 139,5888 139,5895 L139,5895 Z M142,5882.603 L142,5888.585 C142,5892.996 138.411,5897 134,5897 C129.589,5897 126,5892.996 126,5888.585 L126,5882.603 L126,5881.585 C126,5881.033 126.448,5881 127,5881 L128.018,5881 L134,5881 L139.982,5881 L141,5881 C141.552,5881 142,5881.033 142,5881.585 L142,5882.603 Z M142,5879 L134,5879 L126,5879 C124.895,5879 124,5879.48 124,5880.585 L124,5888.585 C124,5890.831 124.75,5892.897 126,5894.567 C126.574,5895.333 127.253,5896.011 128.018,5896.585 C129.688,5897.835 131.754,5899 134,5899 C136.246,5899 138.312,5897.835 139.982,5896.585 C140.747,5896.011 141.426,5895.332 142,5894.567 C143.25,5892.897 144,5890.831 144,5888.585 L144,5880.585 C144,5879.48 143.105,5879 142,5879 L142,5879 Z" id="emoji_sad-[#485]"></path>
            </g>
        </g>
    </g>
</svg>