<?xml version="1.0" encoding="UTF-8" standalone="no"?>
<svg width="20px" height="20px" viewBox="0 0 20 20" version="1.1" xmlns="http://www.w3.org/2000/svg" xmlns:xlink="http://www.w3.org/1999/xlink">
    <!-- Generator: Sketch 3.8.1 (29687) - http://www.bohemiancoding.com/sketch -->
    <title>emoji_surprised_circle [#563]</title>
    <desc>Created with Sketch.</desc>
    <defs></defs>
    <g id="Page-1" stroke="none" stroke-width="1" fill="none" fill-rule="evenodd">
        <g id="Dribbble-Dark-Preview" transform="translate(-260.000000, -5719.000000)" fill="#FFFFFF">
            <g id="icons" transform="translate(56.000000, 160.000000)">
                <path d="M216,5572.585 C216,5573.689 215.105,5574.585 214,5574.585 C212.896,5574.585 212,5573.689 212,5572.585 C212,5571.48 212.896,5570.585 214,5570.585 C215.105,5570.585 216,5571.48 216,5572.585 L216,5572.585 Z M222,5569 L219,5569 C218.448,5569 218,5568.137 218,5567.585 L218,5565 L222,5565 L222,5569 Z M214,5577 C210.281,5577 207.155,5574 206.263,5571 L210,5571 C211.105,5571 212,5569.689 212,5568.585 L212,5565 L216,5565 L216,5568.585 C216,5569.689 216.896,5571 218,5571 L221.737,5571 C220.845,5574 217.719,5577 214,5577 L214,5577 Z M206,5565 L210,5565 L210,5567.585 C210,5568.137 209.552,5569 209,5569 L206,5569 L206,5565 Z M214,5561 C216.021,5561 217.864,5561 219.274,5563 L208.726,5563 C210.136,5561 211.979,5561 214,5561 L214,5561 Z M221.986,5563 C220.162,5560 217.269,5559 214,5559 C210.732,5559 207.838,5560 206.014,5563 L204,5563 L204,5571 L204.201,5571 C205.127,5575 209.162,5579 214,5579 C218.838,5579 222.873,5575 223.799,5571 L224,5571 L224,5563 L221.986,5563 Z" id="emoji_surprised_circle-[#563]"></path>
            </g>
        </g>
    </g>
</svg>