<?xml version="1.0" encoding="UTF-8" standalone="no"?>
<svg width="20px" height="20px" viewBox="0 0 20 20" version="1.1" xmlns="http://www.w3.org/2000/svg" xmlns:xlink="http://www.w3.org/1999/xlink">
    <!-- Generator: Sketch 3.8.1 (29687) - http://www.bohemiancoding.com/sketch -->
    <title>emoji_happy_missing [#580]</title>
    <desc>Created with Sketch.</desc>
    <defs></defs>
    <g id="Page-1" stroke="none" stroke-width="1" fill="none" fill-rule="evenodd">
        <g id="Dribbble-Dark-Preview" transform="translate(-380.000000, -5639.000000)" fill="#FFFFFF">
            <g id="icons" transform="translate(56.000000, 160.000000)">
                <path d="M342,5493 L344,5493 L344,5485 L342,5485 L342,5493 Z M341,5497 L340,5497 L340,5499 L342,5499 C343.105,5499 344,5498.105 344,5497 L344,5495 L342,5495 L342,5496 C342,5496.552 341.552,5497 341,5497 L341,5497 Z M340,5479 L340,5481 L341,5481 C341.552,5481 342,5481.448 342,5482 L342,5483 L344,5483 L344,5481 C344,5479.895 343.105,5479 342,5479 L340,5479 Z M324,5493 L326,5493 L326,5485 L324,5485 L324,5493 Z M326,5495 L324,5495 L324,5497 C324,5498.105 324.895,5499 326,5499 L328,5499 L328,5497 L327,5497 C326.448,5497 326,5496.552 326,5496 L326,5495 Z M327,5481 L328,5481 L328,5479 L326,5479 C324.895,5479 324,5479.895 324,5481 L324,5483 L326,5483 L326,5482 C326,5481.448 326.448,5481 327,5481 L327,5481 Z M330,5499 L338,5499 L338,5497 L330,5497 L330,5499 Z M330,5481 L338,5481 L338,5479 L330,5479 L330,5481 Z M337,5488 L339,5488 C339.552,5488 340,5487.552 340,5487 L340,5485 C340,5484.448 339.552,5484 339,5484 L337,5484 C336.448,5484 336,5484.448 336,5485 L336,5487 C336,5487.552 336.448,5488 337,5488 L337,5488 Z M331,5484 L329,5484 C328.448,5484 328,5484.448 328,5485 L328,5487 C328,5487.552 328.448,5488 329,5488 L331,5488 C331.552,5488 332,5487.552 332,5487 L332,5485 C332,5484.448 331.552,5484 331,5484 L331,5484 Z M337.167,5489 L339.167,5489 C339.167,5496 329.167,5496 329.167,5489 L331.167,5489 C331.167,5493 337.167,5493 337.167,5489 L337.167,5489 Z" id="emoji_happy_missing-[#580]"></path>
            </g>
        </g>
    </g>
</svg>