<?xml version="1.0" encoding="UTF-8" standalone="no"?>
<svg width="20px" height="20px" viewBox="0 0 20 20" version="1.1" xmlns="http://www.w3.org/2000/svg" xmlns:xlink="http://www.w3.org/1999/xlink">
    <!-- Generator: Sketch 3.8.1 (29687) - http://www.bohemiancoding.com/sketch -->
    <title>emoji_sad [#500]</title>
    <desc>Created with Sketch.</desc>
    <defs></defs>
    <g id="Page-1" stroke="none" stroke-width="1" fill="none" fill-rule="evenodd">
        <g id="Dribbble-Dark-Preview" transform="translate(-380.000000, -5959.000000)" fill="#FFFFFF">
            <g id="icons" transform="translate(56.000000, 160.000000)">
                <path d="M340,5806 C340,5806.552 339.552,5807 339,5807 L337,5807 C336.448,5807 336,5806.552 336,5806 C336,5805.448 336.448,5805 337,5805 L339,5805 C339.552,5805 340,5805.448 340,5806 L340,5806 Z M332,5806 C332,5806.552 331.552,5807 331,5807 L329,5807 C328.448,5807 328,5806.552 328,5806 C328,5805.448 328.448,5805 329,5805 L331,5805 C331.552,5805 332,5805.448 332,5806 L332,5806 Z M342,5802.603 L342,5808.585 C342,5810.661 341.198,5812.76 339.897,5814.184 C339.639,5813.377 338.892,5813 338,5813 L330,5813 C329.108,5813 328.361,5813.377 328.103,5814.184 C326.802,5812.76 326,5810.661 326,5808.585 L326,5802.603 L326,5801.585 C326,5801.033 326.448,5801 327,5801 L328.018,5801 L334,5801 L339.982,5801 L341,5801 C341.552,5801 342,5801.033 342,5801.585 L342,5802.603 Z M330.013,5815.722 C330.05,5815.203 330.471,5815 331,5815 L337,5815 C337.529,5815 337.95,5815.203 337.987,5815.722 C336.811,5816.401 335.452,5817.211 334,5817.211 C332.548,5817.211 331.189,5816.401 330.013,5815.722 L330.013,5815.722 Z M342,5799 L334,5799 L326,5799 C324.895,5799 324,5799.48 324,5800.585 L324,5808.585 C324,5810.831 324.75,5812.897 326,5814.567 C326.574,5815.333 327.253,5816.011 328.018,5816.585 C329.688,5817.835 331.754,5819 334,5819 C336.246,5819 338.312,5817.835 339.982,5816.585 C340.747,5816.011 341.426,5815.333 342,5814.567 C343.25,5812.897 344,5810.831 344,5808.585 L344,5800.585 C344,5799.48 343.105,5799 342,5799 L342,5799 Z" id="emoji_sad-[#500]"></path>
            </g>
        </g>
    </g>
</svg>