<?xml version="1.0" encoding="UTF-8" standalone="no"?>
<svg width="20px" height="20px" viewBox="0 0 20 20" version="1.1" xmlns="http://www.w3.org/2000/svg" xmlns:xlink="http://www.w3.org/1999/xlink">
    <!-- Generator: Sketch 3.8.1 (29687) - http://www.bohemiancoding.com/sketch -->
    <title>emoji_sad_square [#401]</title>
    <desc>Created with Sketch.</desc>
    <defs></defs>
    <g id="Page-1" stroke="none" stroke-width="1" fill="none" fill-rule="evenodd">
        <g id="Dribbble-Dark-Preview" transform="translate(-340.000000, -6359.000000)" fill="#FFFFFF">
            <g id="icons" transform="translate(56.000000, 160.000000)">
                <path d="M296,6209 L300,6209 L300,6205 L296,6205 L296,6209 Z M288,6209 L292,6209 L292,6205 L288,6205 L288,6209 Z M299,6215 L297,6215 C297,6211 291,6211 291,6215 L289,6215 C289,6208 299,6208 299,6215 L299,6215 Z M286,6217 L302,6217 L302,6201 L286,6201 L286,6217 Z M284,6219 L304,6219 L304,6199 L284,6199 L284,6219 Z" id="emoji_sad_square-[#401]"></path>
            </g>
        </g>
    </g>
</svg>