<?xml version="1.0" encoding="UTF-8" standalone="no"?>
<svg width="20px" height="20px" viewBox="0 0 20 20" version="1.1" xmlns="http://www.w3.org/2000/svg" xmlns:xlink="http://www.w3.org/1999/xlink">
    <!-- Generator: Sketch 3.8.1 (29687) - http://www.bohemiancoding.com/sketch -->
    <title>emoji_surprised_square_round [#423]</title>
    <desc>Created with Sketch.</desc>
    <defs></defs>
    <g id="Page-1" stroke="none" stroke-width="1" fill="none" fill-rule="evenodd">
        <g id="Dribbble-Dark-Preview" transform="translate(-260.000000, -6279.000000)" fill="#FFFFFF">
            <g id="icons" transform="translate(56.000000, 160.000000)">
                <path d="M216,6132.585 C216,6133.69 215.105,6134.585 214,6134.585 C212.895,6134.585 212,6133.69 212,6132.585 C212,6131.48 212.895,6130.585 214,6130.585 C215.105,6130.585 216,6131.48 216,6132.585 L216,6132.585 Z M220,6126 L220,6128 C220,6128.552 219.552,6129 219,6129 L217,6129 C216.45,6129 216,6128.55 216,6128 L216,6126 C216,6125.448 216.448,6125 217,6125 L219,6125 C219.552,6125 220,6125.448 220,6126 L220,6126 Z M212,6128 C212,6128.552 211.552,6129 211,6129 L209,6129 C208.45,6129 208,6128.55 208,6128 L208,6126 C208,6125.448 208.448,6125 209,6125 L211,6125 C211.552,6125 212,6125.448 212,6126 L212,6128 Z M222,6136 C222,6136.552 221.552,6137 221,6137 L207,6137 C206.448,6137 206,6136.552 206,6136 L206,6122 C206,6121.448 206.448,6121 207,6121 L221,6121 C221.552,6121 222,6121.448 222,6122 L222,6136 Z M224,6121 C224,6119.895 223.105,6119 222,6119 L206,6119 C204.895,6119 204,6119.895 204,6121 L204,6137 C204,6138.105 204.895,6139 206,6139 L222,6139 C223.105,6139 224,6138.105 224,6137 L224,6121 Z" id="emoji_surprised_square_round-[#423]"></path>
            </g>
        </g>
    </g>
</svg>