<?xml version="1.0" encoding="UTF-8" standalone="no"?>
<svg width="20px" height="20px" viewBox="0 0 20 20" version="1.1" xmlns="http://www.w3.org/2000/svg" xmlns:xlink="http://www.w3.org/1999/xlink">
    <!-- Generator: Sketch 3.8.1 (29687) - http://www.bohemiancoding.com/sketch -->
    <title>emoji_happy [#514]</title>
    <desc>Created with Sketch.</desc>
    <defs></defs>
    <g id="Page-1" stroke="none" stroke-width="1" fill="none" fill-rule="evenodd">
        <g id="Dribbble-Dark-Preview" transform="translate(-220.000000, -5919.000000)" fill="#FFFFFF">
            <g id="icons" transform="translate(56.000000, 160.000000)">
                <path d="M179,5765 C179.552,5765 180,5765.448 180,5766 L180,5768 C180,5768.552 179.552,5769 179,5769 L177,5769 C176.45,5769 176,5768.55 176,5768 L176,5766 C176,5765.448 176.448,5765 177,5765 L179,5765 Z M171,5768 L169,5768 C168.448,5768 168,5767.552 168,5767 C168,5766.448 168.448,5766 169,5766 L171,5766 C171.552,5766 172,5766.448 172,5767 C172,5767.552 171.552,5768 171,5768 L171,5768 Z M178.893,5771.043 C177.886,5776.181 170.114,5776.077 169.107,5770.939 C168.99,5770.34 169.487,5770 170.098,5770 L170.115,5770 C170.591,5770 170.981,5770.24 171.09,5770.704 C171.78,5773.627 176.22,5773.523 176.91,5770.6 C177.019,5770.136 177.409,5770 177.885,5770 L177.902,5770 C178.513,5770 179.01,5770.444 178.893,5771.043 L178.893,5771.043 Z M182,5775.615 C182,5776.168 181.552,5777 181,5777 L167,5777 C166.448,5777 166,5776.168 166,5775.615 L166,5768.615 C166,5764.204 169.589,5761 174,5761 C178.411,5761 182,5764.204 182,5768.615 L182,5775.615 Z M174,5759 C167.154,5759 164,5764.069 164,5768.615 L164,5776.615 C164,5777.72 164.895,5779 166,5779 L182,5779 C183.105,5779 184,5777.72 184,5776.615 L184,5768.615 C184,5764.155 180.948,5759 174,5759 L174,5759 Z" id="emoji_happy-[#514]"></path>
            </g>
        </g>
    </g>
</svg>