<?xml version="1.0" encoding="UTF-8" standalone="no"?>
<svg width="20px" height="20px" viewBox="0 0 20 20" version="1.1" xmlns="http://www.w3.org/2000/svg" xmlns:xlink="http://www.w3.org/1999/xlink">
    <!-- Generator: Sketch 3.8.1 (29687) - http://www.bohemiancoding.com/sketch -->
    <title>emoji_happy_square [#397]</title>
    <desc>Created with Sketch.</desc>
    <defs></defs>
    <g id="Page-1" stroke="none" stroke-width="1" fill="none" fill-rule="evenodd">
        <g id="Dribbble-Dark-Preview" transform="translate(-100.000000, -6399.000000)" fill="#FFFFFF">
            <g id="icons" transform="translate(56.000000, 160.000000)">
                <path d="M57,6250 L59,6250 C59,6256 49,6256 49,6250 L51,6250 C51,6254 57,6254 57,6250 L57,6250 Z M59.414,6245.585 L61.121,6247.292 L59.707,6248.706 L58,6246.999 L56.293,6248.706 L54.879,6247.292 L56.586,6245.585 L54.879,6243.878 L56.293,6242.464 L58,6244.171 L59.707,6242.464 L61.121,6243.878 L59.414,6245.585 Z M51.414,6245.585 L53.121,6247.292 L51.707,6248.706 L50,6246.999 L48.293,6248.706 L46.879,6247.292 L48.586,6245.585 L46.879,6243.878 L48.293,6242.464 L50,6244.171 L51.707,6242.464 L53.121,6243.878 L51.414,6245.585 Z M46,6257 L62,6257 L62,6241 L46,6241 L46,6257 Z M44,6259 L64,6259 L64,6239 L44,6239 L44,6259 Z" id="emoji_happy_square-[#397]"></path>
            </g>
        </g>
    </g>
</svg>