<?xml version="1.0" encoding="UTF-8" standalone="no"?>
<svg width="20px" height="20px" viewBox="0 0 20 20" version="1.1" xmlns="http://www.w3.org/2000/svg" xmlns:xlink="http://www.w3.org/1999/xlink">
    <!-- Generator: Sketch 3.8.1 (29687) - http://www.bohemiancoding.com/sketch -->
    <title>emoji_neutral_circle [#560]</title>
    <desc>Created with Sketch.</desc>
    <defs></defs>
    <g id="Page-1" stroke="none" stroke-width="1" fill="none" fill-rule="evenodd">
        <g id="Dribbble-Dark-Preview" transform="translate(-380.000000, -5719.000000)" fill="#FFFFFF">
            <g id="icons" transform="translate(56.000000, 160.000000)">
                <path d="M341.7367,5571 L337.9997,5571 C336.8957,5571 335.9997,5569.69 335.9997,5568.585 L335.9997,5565 L331.9997,5565 L331.9997,5568.585 C331.9997,5569.69 331.1047,5571 329.9997,5571 L326.2637,5571 C327.1547,5574 330.2807,5577 333.9997,5577 C337.7197,5577 340.8447,5574 341.7367,5571 L341.7367,5571 Z M325.9997,5565 L325.9997,5569 L328.9997,5569 C329.5527,5569 329.9997,5568.137 329.9997,5567.585 L329.9997,5565 L325.9997,5565 Z M328.7267,5563 L339.2737,5563 C337.8637,5561 336.0207,5561 333.9997,5561 C331.9787,5561 330.1357,5561 328.7267,5563 L328.7267,5563 Z M337.9997,5565 L337.9997,5567.585 C337.9997,5568.137 338.4477,5569 338.9997,5569 L341.9997,5569 L341.9997,5565 L337.9997,5565 Z M343.9997,5563 L343.9997,5571 L343.7987,5571 C342.8727,5575 338.8377,5579 333.9997,5579 C329.1617,5579 325.1277,5575 324.2007,5571 L323.9997,5571 L323.9997,5563 L326.0137,5563 C327.8387,5560 330.7317,5559 333.9997,5559 C337.2687,5559 340.1617,5560 341.9867,5563 L343.9997,5563 Z M335.9997,5574 C335.9997,5574.552 335.5527,5575 334.9997,5575 L332.9997,5575 C332.4477,5575 331.9997,5574.552 331.9997,5574 C331.9997,5573.448 332.4477,5573 332.9997,5573 L334.9997,5573 C335.5527,5573 335.9997,5573.448 335.9997,5574 L335.9997,5574 Z" id="emoji_neutral_circle-[#560]"></path>
            </g>
        </g>
    </g>
</svg>