<?xml version="1.0" encoding="UTF-8" standalone="no"?>
<svg width="20px" height="20px" viewBox="0 0 20 20" version="1.1" xmlns="http://www.w3.org/2000/svg" xmlns:xlink="http://www.w3.org/1999/xlink">
    <!-- Generator: Sketch 3.8.1 (29687) - http://www.bohemiancoding.com/sketch -->
    <title>emoji_happy_square_round [#431]</title>
    <desc>Created with Sketch.</desc>
    <defs></defs>
    <g id="Page-1" stroke="none" stroke-width="1" fill="none" fill-rule="evenodd">
        <g id="Dribbble-Dark-Preview" transform="translate(-340.000000, -6239.000000)" fill="#FFFFFF">
            <g id="icons" transform="translate(56.000000, 160.000000)">
                <path d="M296,6086 C296,6085.448 296.448,6085 297,6085 L299,6085 C299.552,6085 300,6085.448 300,6086 L300,6088 C300,6088.552 299.552,6089 299,6089 L297,6089 C296.45,6089 296,6088.55 296,6088 L296,6086 Z M292,6088 C292,6088.552 291.552,6089 291,6089 L289,6089 C288.45,6089 288,6088.55 288,6088 L288,6086 C288,6085.448 288.448,6085 289,6085 L291,6085 C291.552,6085 292,6085.448 292,6086 L292,6088 Z M289,6090 L299,6090 C299,6097 289,6097 289,6090 L289,6090 Z M302,6096 C302,6096.552 301.552,6097 301,6097 L287,6097 C286.448,6097 286,6096.552 286,6096 L286,6082 C286,6081.448 286.448,6081 287,6081 L301,6081 C301.552,6081 302,6081.448 302,6082 L302,6096 Z M304,6081 C304,6079.895 303.105,6079 302,6079 L286,6079 C284.895,6079 284,6079.895 284,6081 L284,6097 C284,6098.105 284.895,6099 286,6099 L302,6099 C303.105,6099 304,6098.105 304,6097 L304,6081 Z" id="emoji_happy_square_round-[#431]"></path>
            </g>
        </g>
    </g>
</svg>