<?xml version="1.0" encoding="UTF-8" standalone="no"?>
<svg width="20px" height="20px" viewBox="0 0 20 20" version="1.1" xmlns="http://www.w3.org/2000/svg" xmlns:xlink="http://www.w3.org/1999/xlink">
    <!-- Generator: Sketch 3.8.1 (29687) - http://www.bohemiancoding.com/sketch -->
    <title>emoji_neutral [#525]</title>
    <desc>Created with Sketch.</desc>
    <defs></defs>
    <g id="Page-1" stroke="none" stroke-width="1" fill="none" fill-rule="evenodd">
        <g id="Dribbble-Dark-Preview" transform="translate(-180.000000, -5879.000000)" fill="#FFFFFF">
            <g id="icons" transform="translate(56.000000, 160.000000)">
                <path d="M140,5726.0001 C140,5726.5521 139.552,5727.0001 139,5727.0001 L137,5727.0001 C136.448,5727.0001 136,5726.5521 136,5726.0001 L136,5726.0001 C136,5725.4481 136.448,5725.0001 137,5725.0001 L139,5725.0001 C139.552,5725.0001 140,5725.4481 140,5726.0001 L140,5726.0001 Z M140,5732.0001 C140,5732.5521 139.552,5733.0001 139,5733.0001 L129,5733.0001 C128.448,5733.0001 128,5732.5521 128,5732.0001 L128,5732.0001 C128,5731.4481 128.448,5731.0001 129,5731.0001 L139,5731.0001 C139.552,5731.0001 140,5731.4481 140,5732.0001 L140,5732.0001 Z M132,5726.0001 C132,5726.5521 131.552,5727.0001 131,5727.0001 L129,5727.0001 C128.448,5727.0001 128,5726.5521 128,5726.0001 C128,5725.4481 128.448,5725.0001 129,5725.0001 L131,5725.0001 C131.552,5725.0001 132,5725.4481 132,5726.0001 L132,5726.0001 Z M142,5735.5851 C142,5736.1371 141.552,5737.0001 141,5737.0001 L127,5737.0001 C126.448,5737.0001 126,5736.1371 126,5735.5851 L126,5728.5851 C126,5724.1741 129.589,5721.0001 134,5721.0001 C138.411,5721.0001 142,5724.1741 142,5728.5851 L142,5735.5851 Z M142,5722.6031 C139.89,5719.7851 137.453,5719.0001 134,5719.0001 C130.546,5719.0001 128.11,5719.7861 126,5722.6031 C124.75,5724.2731 124,5726.3391 124,5728.5851 L124,5736.5851 C124,5737.6891 124.895,5739.0001 126,5739.0001 L142,5739.0001 C143.105,5739.0001 144,5737.6891 144,5736.5851 L144,5728.5851 C144,5726.3391 143.25,5724.2731 142,5722.6031 L142,5722.6031 Z" id="emoji_neutral-[#525]"></path>
            </g>
        </g>
    </g>
</svg>