<?xml version="1.0" encoding="UTF-8" standalone="no"?>
<svg width="20px" height="20px" viewBox="0 0 20 20" version="1.1" xmlns="http://www.w3.org/2000/svg" xmlns:xlink="http://www.w3.org/1999/xlink">
    <!-- Generator: Sketch 3.8.1 (29687) - http://www.bohemiancoding.com/sketch -->
    <title>emoji_surprised [#568]</title>
    <desc>Created with Sketch.</desc>
    <defs></defs>
    <g id="Page-1" stroke="none" stroke-width="1" fill="none" fill-rule="evenodd">
        <g id="Dribbble-Dark-Preview" transform="translate(-60.000000, -5719.000000)" fill="#FFFFFF">
            <g id="icons" transform="translate(56.000000, 160.000000)">
                <path d="M16,5572.585 C16,5573.69 15.105,5574.585 14,5574.585 C12.895,5574.585 12,5573.69 12,5572.585 C12,5571.48 12.895,5570.585 14,5570.585 C15.105,5570.585 16,5571.48 16,5572.585 L16,5572.585 Z M22,5575.615 C22,5576.168 21.552,5577 21,5577 L7,5577 C6.448,5577 6,5576.168 6,5575.615 L6,5571 L10,5571 C11.105,5571 12,5569.69 12,5568.585 L12,5565 L16,5565 L16,5568.585 C16,5569.69 16.895,5571 18,5571 L22,5571 L22,5575.615 Z M10,5565 L10,5567.585 C10,5568.137 9.552,5569 9,5569 L6.002,5569 L6,5569 L6,5565 L10,5565 Z M14,5560.854 C16.005,5560.854 17.835,5561 19.24,5563 L16,5563 L12,5563 L8.76,5563 C10.165,5561 11.995,5560.854 14,5560.854 L14,5560.854 Z M22,5565 L22,5569 L21.998,5569 L19,5569 C18.448,5569 18,5568.137 18,5567.585 L18,5565 L20.899,5565 L22,5565 Z M21.958,5563 C21.393,5562 20.73,5561.384 19.982,5560.823 C18.312,5559.572 16.246,5559 14,5559 C11.754,5559 9.688,5559.624 8.018,5560.875 C7.27,5561.435 6.607,5562 6.042,5563 L4,5563 L4,5576.615 C4,5577.72 4.895,5579 6,5579 L22,5579 C23.105,5579 24,5577.72 24,5576.615 L24,5563 L21.958,5563 Z" id="emoji_surprised-[#568]"></path>
            </g>
        </g>
    </g>
</svg>