<?xml version="1.0" encoding="UTF-8" standalone="no"?>
<svg width="20px" height="20px" viewBox="0 0 20 20" version="1.1" xmlns="http://www.w3.org/2000/svg" xmlns:xlink="http://www.w3.org/1999/xlink">
    <!-- Generator: Sketch 3.8.1 (29687) - http://www.bohemiancoding.com/sketch -->
    <title>emoji_happy [#482]</title>
    <desc>Created with Sketch.</desc>
    <defs></defs>
    <g id="Page-1" stroke="none" stroke-width="1" fill="none" fill-rule="evenodd">
        <g id="Dribbble-Dark-Preview" transform="translate(-300.000000, -6039.000000)" fill="#FFFFFF">
            <g id="icons" transform="translate(56.000000, 160.000000)">
                <path d="M260,5886 L260,5888 C260,5888.552 259.552,5889 259,5889 L257,5889 C256.45,5889 256,5888.55 256,5888 L256,5886 C256,5885.448 256.448,5885 257,5885 L259,5885 C259.552,5885 260,5885.448 260,5886 L260,5886 Z M251,5888 L249,5888 C248.448,5888 248,5887.552 248,5887 C248,5886.448 248.448,5886 249,5886 L251,5886 C251.552,5886 252,5886.448 252,5887 C252,5887.552 251.552,5888 251,5888 L251,5888 Z M258.893,5891.028 C257.886,5896.165 250.114,5896.046 249.107,5890.909 C248.99,5890.31 249.487,5890 250.098,5890 L250.115,5890 C250.591,5890 250.981,5890.225 251.09,5890.689 C251.781,5893.612 256.22,5893.493 256.91,5890.57 C257.019,5890.106 257.409,5890 257.885,5890 L257.902,5890 C258.513,5890 259.01,5890.429 258.893,5891.028 L258.893,5891.028 Z M262,5888.585 C262,5892.996 258.411,5897 254,5897 C249.589,5897 246,5892.996 246,5888.585 L246,5881.585 C246,5881.033 246.448,5881 247,5881 L261,5881 C261.552,5881 262,5881.033 262,5881.585 L262,5888.585 Z M262,5879 L246,5879 C244.895,5879 244,5879.48 244,5880.585 L244,5888.585 C244,5890.831 244.75,5892.897 246,5894.567 C247.666,5896.791 251.088,5899 254,5899 C256.246,5899 258.312,5897.835 259.982,5896.585 C262.452,5894.735 264,5891.797 264,5888.585 L264,5880.585 C264,5879.48 263.105,5879 262,5879 L262,5879 Z" id="emoji_happy-[#482]"></path>
            </g>
        </g>
    </g>
</svg>