<?xml version="1.0" encoding="UTF-8" standalone="no"?>
<svg width="20px" height="12px" viewBox="0 0 20 12" version="1.1" xmlns="http://www.w3.org/2000/svg" xmlns:xlink="http://www.w3.org/1999/xlink">
    <!-- Generator: Sketch 3.8.1 (29687) - http://www.bohemiancoding.com/sketch -->
    <title>emoji_neutral_simple_glasses [#471]</title>
    <desc>Created with Sketch.</desc>
    <defs></defs>
    <g id="Page-1" stroke="none" stroke-width="1" fill="none" fill-rule="evenodd">
        <g id="Dribbble-Dark-Preview" transform="translate(-340.000000, -6082.000000)" fill="#FFFFFF">
            <g id="icons" transform="translate(56.000000, 160.000000)">
                <path d="M302,5928 L299,5928 C298.448,5928 298,5927.137 298,5926.585 L298,5924 L302,5924 L302,5928 Z M290,5926.585 C290,5927.137 289.552,5928 289,5928 L286,5928 L286,5924 L290,5924 L290,5926.585 Z M284,5922 L284,5930 L290,5930 C291.105,5930 292,5928.69 292,5927.585 L292,5924 L296,5924 L296,5927.585 C296,5928.69 296.895,5930 298,5930 L304,5930 L304,5922 L284,5922 Z M292,5934 L296,5934 L296,5932 L292,5932 L292,5934 Z" id="emoji_neutral_simple_glasses-[#471]"></path>
            </g>
        </g>
    </g>
</svg>