<?xml version="1.0" encoding="UTF-8" standalone="no"?>
<svg width="20px" height="20px" viewBox="0 0 20 20" version="1.1" xmlns="http://www.w3.org/2000/svg" xmlns:xlink="http://www.w3.org/1999/xlink">
    <!-- Generator: Sketch 3.8.1 (29687) - http://www.bohemiancoding.com/sketch -->
    <title>emoji_happy_square_round [#433]</title>
    <desc>Created with Sketch.</desc>
    <defs></defs>
    <g id="Page-1" stroke="none" stroke-width="1" fill="none" fill-rule="evenodd">
        <g id="Dribbble-Dark-Preview" transform="translate(-260.000000, -6239.000000)" fill="#FFFFFF">
            <g id="icons" transform="translate(56.000000, 160.000000)">
                <path d="M220,6086 C220,6086.552 219.552,6087 219,6087 L217,6087 C216.448,6087 216,6086.552 216,6086 C216,6085.448 216.448,6085 217,6085 L219,6085 C219.552,6085 220,6085.448 220,6086 L220,6086 Z M212,6086 C212,6086.552 211.552,6087 211,6087 L209,6087 C208.448,6087 208,6086.552 208,6086 C208,6085.448 208.448,6085 209,6085 L211,6085 C211.552,6085 212,6085.448 212,6086 L212,6086 Z M209,6090 L219,6090 C219,6097 209,6097 209,6090 L209,6090 Z M222,6096 C222,6096.552 221.552,6097 221,6097 L207,6097 C206.448,6097 206,6096.552 206,6096 L206,6082 C206,6081.448 206.448,6081 207,6081 L221,6081 C221.552,6081 222,6081.448 222,6082 L222,6096 Z M224,6081 C224,6079.895 223.105,6079 222,6079 L206,6079 C204.895,6079 204,6079.895 204,6081 L204,6097 C204,6098.105 204.895,6099 206,6099 L222,6099 C223.105,6099 224,6098.105 224,6097 L224,6081 Z" id="emoji_happy_square_round-[#433]"></path>
            </g>
        </g>
    </g>
</svg>