<?xml version="1.0" encoding="UTF-8" standalone="no"?>
<svg width="20px" height="20px" viewBox="0 0 20 20" version="1.1" xmlns="http://www.w3.org/2000/svg" xmlns:xlink="http://www.w3.org/1999/xlink">
    <!-- Generator: Sketch 3.8.1 (29687) - http://www.bohemiancoding.com/sketch -->
    <title>emoji_happy_square [#399]</title>
    <desc>Created with Sketch.</desc>
    <defs></defs>
    <g id="Page-1" stroke="none" stroke-width="1" fill="none" fill-rule="evenodd">
        <g id="Dribbble-Dark-Preview" transform="translate(-420.000000, -6359.000000)" fill="#FFFFFF">
            <g id="icons" transform="translate(56.000000, 160.000000)">
                <path d="M376,6209 L380,6209 L380,6205 L376,6205 L376,6209 Z M368,6208 L372,6208 L372,6206 L368,6206 L368,6208 Z M377,6210 L379,6210 C379,6216.375 369,6216.208 369,6210 L371,6210 C371,6214 377,6214 377,6210 L377,6210 Z M366,6217 L382,6217 L382,6201 L366,6201 L366,6217 Z M364,6219 L384,6219 L384,6199 L364,6199 L364,6219 Z" id="emoji_happy_square-[#399]"></path>
            </g>
        </g>
    </g>
</svg>