<?xml version="1.0" encoding="UTF-8" standalone="no"?>
<svg width="20px" height="20px" viewBox="0 0 20 20" version="1.1" xmlns="http://www.w3.org/2000/svg" xmlns:xlink="http://www.w3.org/1999/xlink">
    <!-- Generator: Sketch 3.8.1 (29687) - http://www.bohemiancoding.com/sketch -->
    <title>emoji_minecraft [#566]</title>
    <desc>Created with Sketch.</desc>
    <defs></defs>
    <g id="Page-1" stroke="none" stroke-width="1" fill="none" fill-rule="evenodd">
        <g id="Dribbble-Dark-Preview" transform="translate(-140.000000, -5719.000000)" fill="#FFFFFF">
            <g id="icons" transform="translate(56.000000, 160.000000)">
                <path d="M102,5575.585 C102,5576.363 101.363,5577 100.585,5577 L98,5577 L98,5571.534 C98,5570.982 97.532,5570.591 96.98,5570.585 C96.437,5570.579 96,5570.338 96,5569.793 L97,5569 L99,5569 C99.552,5569 100,5568.552 100,5568 L100,5566 C100,5565.448 99.552,5565 99,5565 L97,5565 C96.448,5565 96,5565.448 96,5566 L96,5567.585 L95,5569 L93,5569 L92,5567.585 L92,5566 C92,5565.448 91.552,5565 91,5565 L89,5565 C88.448,5565 88,5565.448 88,5566 L88,5568 C88,5568.55 88.45,5569 89,5569 L91,5569 L92,5569.793 C92,5570.366 91.518,5570.714 90.937,5570.687 C90.423,5570.663 90,5571.07 90,5571.585 L90,5577 L87,5577 C86.448,5577 86,5576.552 86,5576 L86,5561.585 C86,5561.262 86.262,5561 86.585,5561 L101,5561 C101.552,5561 102,5561.448 102,5562 L102,5575.585 Z M96,5577 L92,5577 L92,5575.585 C92,5575.033 92.448,5575 93,5575 L95,5575 C95.552,5575 96,5575.033 96,5575.585 L96,5577 Z M104,5561 C104,5559.895 103.105,5559 102,5559 L86,5559 C84.895,5559 84,5559.895 84,5561 L84,5577 C84,5578.105 84.895,5579 86,5579 L102,5579 C103.105,5579 104,5578.105 104,5577 L104,5561 Z" id="emoji_minecraft-[#566]"></path>
            </g>
        </g>
    </g>
</svg>