<?xml version="1.0" encoding="UTF-8" standalone="no"?>
<svg width="20px" height="20px" viewBox="0 0 20 20" version="1.1" xmlns="http://www.w3.org/2000/svg" xmlns:xlink="http://www.w3.org/1999/xlink">
    <!-- Generator: Sketch 3.8.1 (29687) - http://www.bohemiancoding.com/sketch -->
    <title>emoji_surprised_circle [#565]</title>
    <desc>Created with Sketch.</desc>
    <defs></defs>
    <g id="Page-1" stroke="none" stroke-width="1" fill="none" fill-rule="evenodd">
        <g id="Dribbble-Dark-Preview" transform="translate(-180.000000, -5719.000000)" fill="#FFFFFF">
            <g id="icons" transform="translate(56.000000, 160.000000)">
                <path d="M135.9479,5574.3125 C135.9479,5575.4175 135.0529,5576.3125 133.9479,5576.3125 C132.8429,5576.3125 131.9479,5575.4175 131.9479,5574.3125 C131.9479,5573.2075 132.8429,5572.3125 133.9479,5572.3125 C135.0529,5572.3125 135.9479,5573.2075 135.9479,5574.3125 L135.9479,5574.3125 Z M133.9999,5577.0005 C130.2809,5577.0005 127.1549,5574.0005 126.2629,5570.9995 L129.9999,5570.9995 C131.1049,5570.9995 131.9999,5569.6895 131.9999,5568.5845 L131.9999,5564.9995 L135.9999,5564.9995 L135.9999,5568.5845 C135.9999,5569.6895 136.8959,5570.9995 137.9999,5570.9995 L141.7369,5570.9995 C140.8449,5574.0005 137.7199,5577.0005 133.9999,5577.0005 L133.9999,5577.0005 Z M125.9999,5564.9995 L129.9999,5564.9995 L129.9999,5567.5845 C129.9999,5568.1375 129.5519,5569.0005 128.9999,5569.0005 L125.9999,5569.0005 L125.9999,5564.9995 Z M133.9999,5560.9995 C136.0209,5560.9995 137.8639,5560.9995 139.2739,5562.9995 L128.7259,5562.9995 C130.1359,5560.9995 131.9789,5560.9995 133.9999,5560.9995 L133.9999,5560.9995 Z M141.9999,5564.9995 L141.9999,5569.0005 L138.9999,5569.0005 C138.4479,5569.0005 137.9999,5568.1375 137.9999,5567.5845 L137.9999,5564.9995 L141.9999,5564.9995 Z M141.9859,5562.9995 C140.1619,5559.9995 137.2689,5558.9995 133.9999,5558.9995 C130.7319,5558.9995 127.8379,5559.9995 126.0139,5562.9995 L123.9999,5562.9995 L123.9999,5570.9995 L124.2009,5570.9995 C125.1279,5574.9995 129.1619,5578.9995 133.9999,5578.9995 C138.8379,5578.9995 142.8729,5574.9995 143.7989,5570.9995 L143.9999,5570.9995 L143.9999,5562.9995 L141.9859,5562.9995 Z" id="emoji_surprised_circle-[#565]"></path>
            </g>
        </g>
    </g>
</svg>