<?xml version="1.0" encoding="UTF-8" standalone="no"?>
<svg width="20px" height="20px" viewBox="0 0 20 20" version="1.1" xmlns="http://www.w3.org/2000/svg" xmlns:xlink="http://www.w3.org/1999/xlink">
    <!-- Generator: Sketch 3.8.1 (29687) - http://www.bohemiancoding.com/sketch -->
    <title>emoji_tongue_sticking_out _square [#415]</title>
    <desc>Created with Sketch.</desc>
    <defs></defs>
    <g id="Page-1" stroke="none" stroke-width="1" fill="none" fill-rule="evenodd">
        <g id="Dribbble-Dark-Preview" transform="translate(-180.000000, -6319.000000)" fill="#FFFFFF">
            <g id="icons" transform="translate(56.000000, 160.000000)">
                <path d="M134,6173 L128,6173 L128,6171 L134,6171 L138,6171 L140,6171 L140,6173 L138,6173 L138,6175 L134,6175 L134,6173 Z M136,6167 L140,6167 L140,6165 L136,6165 L136,6167 Z M128,6167 L132,6167 L132,6165 L128,6165 L128,6167 Z M126,6177 L142,6177 L142,6161 L126,6161 L126,6177 Z M124,6179 L144,6179 L144,6159 L124,6159 L124,6179 Z" id="emoji_tongue_sticking_out-_square-[#415]"></path>
            </g>
        </g>
    </g>
</svg>