<?xml version="1.0" encoding="UTF-8" standalone="no"?>
<svg width="20px" height="20px" viewBox="0 0 20 20" version="1.1" xmlns="http://www.w3.org/2000/svg" xmlns:xlink="http://www.w3.org/1999/xlink">
    <!-- Generator: Sketch 3.8.1 (29687) - http://www.bohemiancoding.com/sketch -->
    <title>emoji_neutral_square_round_glasses [#445]</title>
    <desc>Created with Sketch.</desc>
    <defs></defs>
    <g id="Page-1" stroke="none" stroke-width="1" fill="none" fill-rule="evenodd">
        <g id="Dribbble-Dark-Preview" transform="translate(-180.000000, -6199.000000)" fill="#FFFFFF">
            <g id="icons" transform="translate(56.000000, 160.000000)">
                <path d="M138,6054 C138,6054.552 137.552,6055 137,6055 L131,6055 C130.448,6055 130,6054.552 130,6054 C130,6053.448 130.448,6053 131,6053 L137,6053 C137.552,6053 138,6053.448 138,6054 L138,6054 Z M126,6043 L126,6042 C126,6041.448 126.448,6041 127,6041 L141,6041 C141.552,6041 142,6041.448 142,6042 L142,6043 L126,6043 Z M138,6049 L142,6049 L142,6045 L138,6045 L138,6049 Z M142,6055.585 C142,6056.137 141.552,6057 141,6057 L127,6057 C126.448,6057 126,6056.137 126,6055.585 L126,6051 L132,6051 L132,6045 L136,6045 L136,6051 L142,6051 L142,6055.585 Z M126,6049 L130,6049 L130,6045 L126,6045 L126,6049 Z M142,6039 L126,6039 C124.895,6039 124,6039.895 124,6041 L124,6056.585 C124,6057.913 125.087,6059 126.415,6059 L142,6059 C143.105,6059 144,6058.105 144,6057 L144,6041 C144,6039.895 143.105,6039 142,6039 L142,6039 Z" id="emoji_neutral_square_round_glasses-[#445]"></path>
            </g>
        </g>
    </g>
</svg>