<?xml version="1.0" encoding="UTF-8" standalone="no"?>
<svg width="20px" height="20px" viewBox="0 0 20 20" version="1.1" xmlns="http://www.w3.org/2000/svg" xmlns:xlink="http://www.w3.org/1999/xlink">
    <!-- Generator: Sketch 3.8.1 (29687) - http://www.bohemiancoding.com/sketch -->
    <title>emoji_happy_circle [#539]</title>
    <desc>Created with Sketch.</desc>
    <defs></defs>
    <g id="Page-1" stroke="none" stroke-width="1" fill="none" fill-rule="evenodd">
        <g id="Dribbble-Dark-Preview" transform="translate(-420.000000, -5799.000000)" fill="#FFFFFF">
            <g id="icons" transform="translate(56.000000, 160.000000)">
                <path d="M380,5646.415 L380,5648.415 C380,5648.967 379.552,5649.415 379,5649.415 L377,5649.415 C376.45,5649.415 376,5648.965 376,5648.415 L376,5646.415 C376,5645.863 376.448,5645.415 377,5645.415 L379,5645.415 C379.552,5645.415 380,5645.863 380,5646.415 M371,5649.415 L369,5649.415 C368.45,5649.415 368,5648.965 368,5648.415 L368,5646.415 C368,5645.863 368.448,5645.415 369,5645.415 L371,5645.415 C371.552,5645.415 372,5645.863 372,5646.415 L372,5648.415 C372,5648.967 371.552,5649.415 371,5649.415 M378.893,5651.458 C377.886,5656.596 370.114,5656.492 369.107,5651.354 C368.99,5650.755 369.487,5650.415 370.098,5650.415 L370.115,5650.415 C370.591,5650.415 370.981,5650.655 371.09,5651.119 C371.781,5654.042 376.22,5653.938 376.91,5651.015 C377.019,5650.551 377.409,5650.415 377.885,5650.415 L377.902,5650.415 C378.513,5650.415 379.01,5650.859 378.893,5651.458 M374,5657 C369.589,5657 366,5653.411 366,5649 C366,5644.589 369.589,5641 374,5641 C378.411,5641 382,5644.589 382,5649 C382,5653.411 378.411,5657 374,5657 M374,5639 C368.477,5639 364,5643.477 364,5649 C364,5654.523 368.477,5659 374,5659 C379.523,5659 384,5654.523 384,5649 C384,5643.477 379.523,5639 374,5639" id="emoji_happy_circle-[#539]"></path>
            </g>
        </g>
    </g>
</svg>