<?xml version="1.0" encoding="UTF-8" standalone="no"?>
<svg width="20px" height="20px" viewBox="0 0 20 20" version="1.1" xmlns="http://www.w3.org/2000/svg" xmlns:xlink="http://www.w3.org/1999/xlink">
    <!-- Generator: Sketch 3.8.1 (29687) - http://www.bohemiancoding.com/sketch -->
    <title>emoji_surprised [#506]</title>
    <desc>Created with Sketch.</desc>
    <defs></defs>
    <g id="Page-1" stroke="none" stroke-width="1" fill="none" fill-rule="evenodd">
        <g id="Dribbble-Dark-Preview" transform="translate(-140.000000, -5959.000000)" fill="#FFFFFF">
            <g id="icons" transform="translate(56.000000, 160.000000)">
                <path d="M96,5812.53633 C96,5813.63984 95.105,5814.53363 94,5814.53363 C92.895,5814.53363 92,5813.63984 92,5812.53633 C92,5811.43282 92.895,5810.53902 94,5810.53902 C95.105,5810.53902 96,5811.43282 96,5812.53633 L96,5812.53633 Z M96,5802.99421 L92,5802.99421 L86,5802.99421 L86,5801.58111 C86,5801.02986 86.448,5800.9969 87,5800.9969 L88.018,5800.9969 L94,5800.9969 L99.982,5800.9969 L101,5800.9969 C101.552,5800.9969 102,5801.02986 102,5801.58111 L102,5802.99421 L96,5802.99421 Z M99,5808.98612 C98.448,5808.98612 98,5808.09432 98,5807.54307 L98,5804.99151 L102,5804.99151 L102,5808.98612 L99,5808.98612 Z M94,5817.39177 C90.27,5817.39177 87.137,5813.97938 86.255,5810.98342 L90,5810.98342 C91.105,5810.98342 92,5809.64523 92,5808.54172 L92,5804.99151 L96,5804.99151 L96,5808.54172 C96,5809.64523 96.895,5810.98342 98,5810.98342 L101.745,5810.98342 C100.863,5813.97938 97.73,5817.39177 94,5817.39177 L94,5817.39177 Z M90,5804.99151 L90,5807.54307 C90,5808.09432 89.552,5808.98612 89,5808.98612 L86,5808.98612 L86,5804.99151 L90,5804.99151 Z M102,5798.9996 L94,5798.9996 L86,5798.9996 C84.895,5798.9996 84,5799.47995 84,5800.58246 L84,5802.54981 L84,5808.57168 L84,5810.98342 L84.204,5810.98342 C84.504,5811.98207 85.126,5813.60289 86,5814.76831 C86.574,5815.53328 87.253,5816.09952 88.018,5816.67274 C89.688,5817.92106 91.754,5818.9996 94,5818.9996 C96.246,5818.9996 98.312,5817.83717 99.982,5816.58885 C100.747,5816.01663 101.426,5815.54626 102,5814.78229 C102.874,5813.61687 103.496,5811.98207 103.796,5810.98342 L104,5810.98342 L104,5808.57168 L104,5802.54981 L104,5800.58246 C104,5799.47995 103.105,5798.9996 102,5798.9996 L102,5798.9996 Z" id="emoji_surprised-[#506]"></path>
            </g>
        </g>
    </g>
</svg>