<?xml version="1.0" encoding="UTF-8" standalone="no"?>
<svg width="20px" height="20px" viewBox="0 0 20 20" version="1.1" xmlns="http://www.w3.org/2000/svg" xmlns:xlink="http://www.w3.org/1999/xlink">
    <!-- Generator: Sketch 3.8.1 (29687) - http://www.bohemiancoding.com/sketch -->
    <title>emoji_happy_square_round [#425]</title>
    <desc>Created with Sketch.</desc>
    <defs></defs>
    <g id="Page-1" stroke="none" stroke-width="1" fill="none" fill-rule="evenodd">
        <g id="Dribbble-Dark-Preview" transform="translate(-180.000000, -6279.000000)" fill="#FFFFFF">
            <g id="icons" transform="translate(56.000000, 160.000000)">
                <path d="M131.0918,6130.3992 C131.7868,6133.3132 136.2128,6133.3132 136.9078,6130.3992 C137.0198,6129.9312 137.4118,6129.5852 137.8918,6129.5852 C138.5078,6129.5852 139.0098,6130.1372 138.8908,6130.7412 C137.8768,6135.8662 130.1228,6135.8662 129.1088,6130.7412 C128.9898,6130.1372 129.4918,6129.5852 130.1078,6129.5852 C130.5888,6129.5852 130.9798,6129.9312 131.0918,6130.3992 L131.0918,6130.3992 Z M140.4138,6123.1702 L140.4138,6123.1712 C140.8048,6123.5612 140.8048,6124.1942 140.4138,6124.5852 L139.4138,6125.5852 L140.4138,6126.5852 C140.8048,6126.9752 140.8048,6127.6082 140.4138,6127.9992 L140.4138,6127.9992 C140.0238,6128.3892 139.3908,6128.3892 138.9998,6127.9992 L137.9998,6126.9992 L136.9998,6127.9992 C136.6098,6128.3892 135.9768,6128.3892 135.5858,6127.9992 C135.1958,6127.6082 135.1958,6126.9752 135.5858,6126.5852 L136.5858,6125.5852 L135.5858,6124.5852 C135.1948,6124.1942 135.1948,6123.5612 135.5858,6123.1712 L135.5858,6123.1702 C135.9768,6122.7802 136.6098,6122.7802 136.9998,6123.1702 L137.9998,6124.1702 L138.9998,6123.1702 C139.3908,6122.7802 140.0238,6122.7802 140.4138,6123.1702 L140.4138,6123.1702 Z M127.5858,6127.9992 L127.5858,6127.9992 C127.1958,6127.6082 127.1958,6126.9752 127.5858,6126.5852 L128.5858,6125.5852 L127.5858,6124.5852 C127.1958,6124.1942 127.1958,6123.5612 127.5858,6123.1712 C127.9768,6122.7802 128.6098,6122.7802 128.9998,6123.1702 L129.9998,6124.1702 L130.9998,6123.1702 C131.3908,6122.7802 132.0238,6122.7802 132.4138,6123.1702 C132.8048,6123.5612 132.8048,6124.1942 132.4138,6124.5852 L131.4138,6125.5852 L132.4138,6126.5852 C132.8048,6126.9752 132.8048,6127.6082 132.4138,6127.9992 C132.0238,6128.3892 131.3908,6128.3892 130.9998,6127.9992 L129.9998,6126.9992 L128.9998,6127.9992 C128.6098,6128.3892 127.9768,6128.3892 127.5858,6127.9992 L127.5858,6127.9992 Z M141.9998,6136.0002 C141.9998,6136.5522 141.5518,6137.0002 140.9998,6137.0002 L126.9998,6137.0002 C126.4478,6137.0002 125.9998,6136.5522 125.9998,6136.0002 L125.9998,6122.0002 C125.9998,6121.4472 126.4478,6121.0002 126.9998,6121.0002 L140.9998,6121.0002 C141.5518,6121.0002 141.9998,6121.4472 141.9998,6122.0002 L141.9998,6136.0002 Z M143.9998,6121.0002 C143.9998,6119.8952 143.1048,6119.0002 141.9998,6119.0002 L125.9998,6119.0002 C124.8958,6119.0002 123.9998,6119.8952 123.9998,6121.0002 L123.9998,6137.0002 C123.9998,6138.1042 124.8958,6139.0002 125.9998,6139.0002 L141.9998,6139.0002 C143.1048,6139.0002 143.9998,6138.1042 143.9998,6137.0002 L143.9998,6121.0002 Z" id="emoji_happy_square_round-[#425]"></path>
            </g>
        </g>
    </g>
</svg>