<?xml version="1.0" encoding="UTF-8" standalone="no"?>
<svg width="20px" height="20px" viewBox="0 0 20 20" version="1.1" xmlns="http://www.w3.org/2000/svg" xmlns:xlink="http://www.w3.org/1999/xlink">
    <!-- Generator: Sketch 3.8.1 (29687) - http://www.bohemiancoding.com/sketch -->
    <title>emoji_sad_circle [#543]</title>
    <desc>Created with Sketch.</desc>
    <defs></defs>
    <g id="Page-1" stroke="none" stroke-width="1" fill="none" fill-rule="evenodd">
        <g id="Dribbble-Dark-Preview" transform="translate(-260.000000, -5799.000000)" fill="#FFFFFF">
            <g id="icons" transform="translate(56.000000, 160.000000)">
                <path d="M220,5646.415 L220,5648.415 C220,5648.967 219.552,5649.415 219,5649.415 L217,5649.415 C216.45,5649.415 216,5648.965 216,5648.415 L216,5646.415 C216,5645.863 216.448,5645.415 217,5645.415 L219,5645.415 C219.552,5645.415 220,5645.863 220,5646.415 M211,5649.415 L209,5649.415 C208.45,5649.415 208,5648.965 208,5648.415 L208,5646.415 C208,5645.863 208.448,5645.415 209,5645.415 L211,5645.415 C211.552,5645.415 212,5645.863 212,5646.415 L212,5648.415 C212,5648.967 211.552,5649.415 211,5649.415 M218.893,5654.164 C219.01,5654.763 218.513,5655.415 217.902,5655.415 L210.098,5655.415 C209.487,5655.415 208.99,5654.66 209.107,5654.061 C210.114,5648.923 217.886,5649.027 218.893,5654.164 M214,5657 C209.589,5657 206,5653.411 206,5649 C206,5644.589 209.589,5641 214,5641 C218.411,5641 222,5644.589 222,5649 C222,5653.411 218.411,5657 214,5657 M214,5639 C208.477,5639 204,5643.477 204,5649 C204,5654.523 208.477,5659 214,5659 C219.523,5659 224,5654.523 224,5649 C224,5643.477 219.523,5639 214,5639" id="emoji_sad_circle-[#543]"></path>
            </g>
        </g>
    </g>
</svg>