<?xml version="1.0" encoding="UTF-8" standalone="no"?>
<svg width="20px" height="20px" viewBox="0 0 20 20" version="1.1" xmlns="http://www.w3.org/2000/svg" xmlns:xlink="http://www.w3.org/1999/xlink">
    <!-- Generator: Sketch 3.8.1 (29687) - http://www.bohemiancoding.com/sketch -->
    <title>emoji_surprised_square_round [#422]</title>
    <desc>Created with Sketch.</desc>
    <defs></defs>
    <g id="Page-1" stroke="none" stroke-width="1" fill="none" fill-rule="evenodd">
        <g id="Dribbble-Dark-Preview" transform="translate(-300.000000, -6279.000000)" fill="#FFFFFF">
            <g id="icons" transform="translate(56.000000, 160.000000)">
                <path d="M256,6132.585 C256,6133.689 255.105,6134.585 254,6134.585 C252.895,6134.585 252,6133.689 252,6132.585 C252,6131.481 252.895,6130.585 254,6130.585 C255.105,6130.585 256,6131.481 256,6132.585 L256,6132.585 Z M260,6126 C260,6126.552 259.552,6127 259,6127 L257,6127 C256.448,6127 256,6126.552 256,6126 C256,6125.448 256.448,6125 257,6125 L259,6125 C259.552,6125 260,6125.448 260,6126 L260,6126 Z M252,6126 C252,6126.552 251.552,6127 251,6127 L249,6127 C248.448,6127 248,6126.552 248,6126 C248,6125.448 248.448,6125 249,6125 L251,6125 C251.552,6125 252,6125.448 252,6126 L252,6126 Z M262,6136 C262,6136.552 261.552,6137 261,6137 L247,6137 C246.448,6137 246,6136.552 246,6136 L246,6122 C246,6121.448 246.448,6121 247,6121 L261,6121 C261.552,6121 262,6121.448 262,6122 L262,6136 Z M264,6121 C264,6119.895 263.105,6119 262,6119 L246,6119 C244.895,6119 244,6119.895 244,6121 L244,6137 C244,6138.105 244.895,6139 246,6139 L262,6139 C263.105,6139 264,6138.105 264,6137 L264,6121 Z" id="emoji_surprised_square_round-[#422]"></path>
            </g>
        </g>
    </g>
</svg>