<?xml version="1.0" encoding="UTF-8" standalone="no"?>
<svg width="20px" height="20px" viewBox="0 0 20 20" version="1.1" xmlns="http://www.w3.org/2000/svg" xmlns:xlink="http://www.w3.org/1999/xlink">
    <!-- Generator: Sketch 3.8.1 (29687) - http://www.bohemiancoding.com/sketch -->
    <title>emoji_surprised_square_glasses [#417]</title>
    <desc>Created with Sketch.</desc>
    <defs></defs>
    <g id="Page-1" stroke="none" stroke-width="1" fill="none" fill-rule="evenodd">
        <g id="Dribbble-Dark-Preview" transform="translate(-100.000000, -6319.000000)" fill="#FFFFFF">
            <g id="icons" transform="translate(56.000000, 160.000000)">
                <path d="M56,6173 C56,6174.105 55.105,6175 54,6175 L54,6175 C52.895,6175 52,6174.105 52,6173 C52,6171.895 52.895,6171 54,6171 L54,6171 C55.105,6171 56,6171.895 56,6173 L56,6173 Z M46,6163 L62,6163 L62,6161 L46,6161 L46,6163 Z M58,6169 L62,6169 L62,6165 L58,6165 L58,6169 Z M62,6177 L46,6177 L46,6171 L52,6171 L52,6165 L56,6165 L56,6171 L62,6171 L62,6177 Z M46,6169 L50,6169 L50,6165 L46,6165 L46,6169 Z M44,6179 L64,6179 L64,6159 L44,6159 L44,6179 Z" id="emoji_surprised_square_glasses-[#417]"></path>
            </g>
        </g>
    </g>
</svg>