<?xml version="1.0" encoding="UTF-8" standalone="no"?>
<svg width="20px" height="20px" viewBox="0 0 20 20" version="1.1" xmlns="http://www.w3.org/2000/svg" xmlns:xlink="http://www.w3.org/1999/xlink">
    <!-- Generator: Sketch 3.8.1 (29687) - http://www.bohemiancoding.com/sketch -->
    <title>emoji_happy_square_round [#438]</title>
    <desc>Created with Sketch.</desc>
    <defs></defs>
    <g id="Page-1" stroke="none" stroke-width="1" fill="none" fill-rule="evenodd">
        <g id="Dribbble-Dark-Preview" transform="translate(-60.000000, -6239.000000)" fill="#FFFFFF">
            <g id="icons" transform="translate(56.000000, 160.000000)">
                <path d="M16,6086 C16,6085.448 16.448,6085 17,6085 L19,6085 C19.552,6085 20,6085.448 20,6086 L20,6088 C20,6088.55 19.55,6089 19,6089 L17,6089 C16.45,6089 16,6088.55 16,6088 L16,6086 Z M12,6088 C12,6088.552 11.552,6089 11,6089 L9,6089 C8.448,6089 8,6088.552 8,6088 L8,6086 C8,6085.448 8.448,6085 9,6085 L11,6085 C11.552,6085 12,6085.448 12,6086 L12,6088 Z M20,6091.585 L20,6092.689 C20,6093.793 19.105,6094.994 18,6094.994 L18,6095 L10,6095 L10,6094.994 C8.896,6094.994 8,6093.689 8,6092.585 L8,6091.585 C8,6091.033 8,6090.611 9,6090.611 L9,6090.637 C10,6090.637 10,6091.136 10,6091.689 L10,6091.792 C10,6092.345 10.448,6093 11,6093 L17,6093 C17.552,6093 18,6092.345 18,6091.792 L18,6091.585 C18,6091.033 18.448,6090.585 19,6090.585 C19.552,6090.585 20,6091.033 20,6091.585 L20,6091.585 Z M22,6096 C22,6096.552 21.552,6097 21,6097 L7,6097 C6.448,6097 6,6096.552 6,6096 L6,6082 C6,6081.448 6.448,6081 7,6081 L21,6081 C21.552,6081 22,6081.448 22,6082 L22,6096 Z M24,6081 C24,6079.895 23.105,6079 22,6079 L6,6079 C4.895,6079 4,6079.895 4,6081 L4,6097 C4,6098.105 4.895,6099 6,6099 L22,6099 C23.105,6099 24,6098.105 24,6097 L24,6081 Z" id="emoji_happy_square_round-[#438]"></path>
            </g>
        </g>
    </g>
</svg>