<?xml version="1.0" encoding="UTF-8" standalone="no"?>
<svg width="20px" height="20px" viewBox="0 0 20 20" version="1.1" xmlns="http://www.w3.org/2000/svg" xmlns:xlink="http://www.w3.org/1999/xlink">
    <!-- Generator: Sketch 3.8.1 (29687) - http://www.bohemiancoding.com/sketch -->
    <title>emoji_surprised_missing [#584]</title>
    <desc>Created with Sketch.</desc>
    <defs></defs>
    <g id="Page-1" stroke="none" stroke-width="1" fill="none" fill-rule="evenodd">
        <g id="Dribbble-Dark-Preview" transform="translate(-220.000000, -5639.000000)" fill="#FFFFFF">
            <g id="icons" transform="translate(56.000000, 160.000000)">
                <path d="M182,5493 L184,5493 L184,5485 L182,5485 L182,5493 Z M181,5497 L180,5497 L180,5499 L182,5499 C183.105,5499 184,5498.105 184,5497 L184,5495 L182,5495 L182,5496 C182,5496.552 181.552,5497 181,5497 L181,5497 Z M180,5479 L180,5481 L181,5481 C181.552,5481 182,5481.448 182,5482 L182,5483 L184,5483 L184,5481 C184,5479.895 183.105,5479 182,5479 L180,5479 Z M164,5493 L166,5493 L166,5485 L164,5485 L164,5493 Z M166,5495 L164,5495 L164,5497 C164,5498.105 164.895,5499 166,5499 L168,5499 L168,5497 L167,5497 C166.448,5497 166,5496.552 166,5496 L166,5495 Z M167,5481 L168,5481 L168,5479 L166,5479 C164.895,5479 164,5479.895 164,5481 L164,5483 L166,5483 L166,5482 C166,5481.448 166.448,5481 167,5481 L167,5481 Z M170,5499 L178,5499 L178,5497 L170,5497 L170,5499 Z M170,5481 L178,5481 L178,5479 L170,5479 L170,5481 Z M174.167,5490.772 C173.062,5490.772 172.167,5491.668 172.167,5492.772 C172.167,5493.877 173.062,5494.772 174.167,5494.772 C175.271,5494.772 176.167,5493.877 176.167,5492.772 C176.167,5491.668 175.271,5490.772 174.167,5490.772 L174.167,5490.772 Z M179,5485 L177,5485 C176.448,5485 176,5485.448 176,5486 L176,5488 C176,5488.552 176.448,5489 177,5489 L179,5489 C179.552,5489 180,5488.552 180,5488 L180,5486 C180,5485.448 179.552,5485 179,5485 L179,5485 Z M171,5489 L169,5489 C168.448,5489 168,5488.552 168,5488 L168,5486 C168,5485.448 168.448,5485 169,5485 L171,5485 C171.552,5485 172,5485.448 172,5486 L172,5488 C172,5488.552 171.552,5489 171,5489 L171,5489 Z" id="emoji_surprised_missing-[#584]"></path>
            </g>
        </g>
    </g>
</svg>