<?xml version="1.0" encoding="UTF-8" standalone="no"?>
<svg width="20px" height="20px" viewBox="0 0 20 20" version="1.1" xmlns="http://www.w3.org/2000/svg" xmlns:xlink="http://www.w3.org/1999/xlink">
    <!-- Generator: Sketch 3.8.1 (29687) - http://www.bohemiancoding.com/sketch -->
    <title>emoji_sad_square_round [#429]</title>
    <desc>Created with Sketch.</desc>
    <defs></defs>
    <g id="Page-1" stroke="none" stroke-width="1" fill="none" fill-rule="evenodd">
        <g id="Dribbble-Dark-Preview" transform="translate(-420.000000, -6239.000000)" fill="#FFFFFF">
            <g id="icons" transform="translate(56.000000, 160.000000)">
                <path d="M376,6086 C376,6085.448 376.448,6085 377,6085 L379,6085 C379.552,6085 380,6085.448 380,6086 L380,6088 C380,6088.552 379.552,6089 379,6089 L377,6089 C376.45,6089 376,6088.55 376,6088 L376,6086 Z M372,6088 C372,6088.552 371.552,6089 371,6089 L369,6089 C368.45,6089 368,6088.55 368,6088 L368,6086 C368,6085.448 368.448,6085 369,6085 L371,6085 C371.552,6085 372,6085.448 372,6086 L372,6088 Z M369.109,6093.428 C370.123,6088.304 377.877,6088.304 378.891,6093.428 C379.01,6094.032 378.508,6094.585 377.892,6094.585 C377.412,6094.585 377.02,6094.238 376.908,6093.771 C376.213,6090.856 371.787,6090.856 371.092,6093.771 C370.98,6094.238 370.588,6094.585 370.108,6094.585 C369.492,6094.585 368.99,6094.032 369.109,6093.428 L369.109,6093.428 Z M382,6096 C382,6096.552 381.552,6097 381,6097 L367,6097 C366.448,6097 366,6096.552 366,6096 L366,6082 C366,6081.448 366.448,6081 367,6081 L381,6081 C381.552,6081 382,6081.448 382,6082 L382,6096 Z M384,6081 C384,6079.895 383.105,6079 382,6079 L366,6079 C364.895,6079 364,6079.895 364,6081 L364,6097 C364,6098.105 364.895,6099 366,6099 L382,6099 C383.105,6099 384,6098.105 384,6097 L384,6081 Z" id="emoji_sad_square_round-[#429]"></path>
            </g>
        </g>
    </g>
</svg>