<?xml version="1.0" encoding="UTF-8" standalone="no"?>
<svg width="20px" height="20px" viewBox="0 0 20 20" version="1.1" xmlns="http://www.w3.org/2000/svg" xmlns:xlink="http://www.w3.org/1999/xlink">
    <!-- Generator: Sketch 3.8.1 (29687) - http://www.bohemiancoding.com/sketch -->
    <title>emoji_minecraft_missing [#574]</title>
    <desc>Created with Sketch.</desc>
    <defs></defs>
    <g id="Page-1" stroke="none" stroke-width="1" fill="none" fill-rule="evenodd">
        <g id="Dribbble-Dark-Preview" transform="translate(-220.000000, -5679.000000)" fill="#FFFFFF">
            <g id="icons" transform="translate(56.000000, 160.000000)">
                <path d="M182,5533 L184,5533 L184,5525 L182,5525 L182,5533 Z M182,5537 L180,5537 L180,5539 L184,5539 L184,5535 L182,5535 L182,5537 Z M180,5519 L180,5521 L182,5521 L182,5523 L184,5523 L184,5519 L180,5519 Z M164,5533 L166,5533 L166,5525 L164,5525 L164,5533 Z M166,5535 L164,5535 L164,5539 L168,5539 L168,5537 L166,5537 L166,5535 Z M166,5521 L168,5521 L168,5519 L164,5519 L164,5523 L166,5523 L166,5521 Z M170,5521 L178,5521 L178,5519 L170,5519 L170,5521 Z M172,5537 L176,5537 L176,5535 L172,5535 L172,5537 Z M176,5531 L178,5531 L178,5539 L170,5539 L170,5531 L172,5531 L172,5529 L176,5529 L176,5531 Z M176,5529 L180,5529 L180,5525 L176,5525 L176,5529 Z M168,5529 L172,5529 L172,5525 L168,5525 L168,5529 Z" id="emoji_minecraft_missing-[#574]"></path>
            </g>
        </g>
    </g>
</svg>