<?xml version="1.0" encoding="UTF-8" standalone="no"?>
<svg width="20px" height="20px" viewBox="0 0 20 20" version="1.1" xmlns="http://www.w3.org/2000/svg" xmlns:xlink="http://www.w3.org/1999/xlink">
    <!-- Generator: Sketch 3.8.1 (29687) - http://www.bohemiancoding.com/sketch -->
    <title>emoji_tongue_sticking_out _circle [#556]</title>
    <desc>Created with Sketch.</desc>
    <defs></defs>
    <g id="Page-1" stroke="none" stroke-width="1" fill="none" fill-rule="evenodd">
        <g id="Dribbble-Dark-Preview" transform="translate(-140.000000, -5759.000000)" fill="#FFFFFF">
            <g id="icons" transform="translate(56.000000, 160.000000)">
                <path d="M100,5612.259 C100,5612.811 99.552,5613.103 99,5613.103 C98.448,5613.103 98,5613.655 98,5614.207 C98,5614.759 97.552,5615.415 97,5615.415 L95,5615.415 C94.448,5615.415 94,5614.967 94,5614.415 C94,5613.862 93.552,5613.415 93,5613.415 L89,5613.415 C88.448,5613.415 88,5612.967 88,5612.415 C88,5611.862 88.448,5611.415 89,5611.415 L94,5611.415 L98,5611.415 L99,5611.415 C99.552,5611.415 100,5611.707 100,5612.259 M100,5606.415 L100,5608.415 C100,5608.967 99.552,5609.415 99,5609.415 L97,5609.415 C96.45,5609.415 96,5608.965 96,5608.415 L96,5606.415 C96,5605.862 96.448,5605.415 97,5605.415 L99,5605.415 C99.552,5605.415 100,5605.862 100,5606.415 M88,5608.415 L88,5606.415 C88,5605.862 88.448,5605.415 89,5605.415 L91,5605.415 C91.552,5605.415 92,5605.862 92,5606.415 L92,5608.415 C92,5608.967 91.552,5609.415 91,5609.415 L89,5609.415 C88.45,5609.415 88,5608.965 88,5608.415 M94,5617 C89.589,5617 86,5613.411 86,5609 C86,5604.588 89.589,5601 94,5601 C98.411,5601 102,5604.588 102,5609 C102,5613.411 98.411,5617 94,5617 M94,5599 C88.477,5599 84,5603.477 84,5609 C84,5614.522 88.477,5619 94,5619 C99.523,5619 104,5614.522 104,5609 C104,5603.477 99.523,5599 94,5599" id="emoji_tongue_sticking_out-_circle-[#556]"></path>
            </g>
        </g>
    </g>
</svg>