<?xml version="1.0" encoding="UTF-8" standalone="no"?>
<svg width="20px" height="20px" viewBox="0 0 20 20" version="1.1" xmlns="http://www.w3.org/2000/svg" xmlns:xlink="http://www.w3.org/1999/xlink">
    <!-- Generator: Sketch 3.8.1 (29687) - http://www.bohemiancoding.com/sketch -->
    <title>emoji_happy [#490]</title>
    <desc>Created with Sketch.</desc>
    <defs></defs>
    <g id="Page-1" stroke="none" stroke-width="1" fill="none" fill-rule="evenodd">
        <g id="Dribbble-Dark-Preview" transform="translate(-380.000000, -5999.000000)" fill="#FFFFFF">
            <g id="icons" transform="translate(56.000000, 160.000000)">
                <path d="M338.9039,5851.0344 C337.9419,5856.5114 330.0579,5856.4044 329.0959,5850.9264 C328.9909,5850.3284 329.4819,5850.0004 330.0899,5850.0004 L337.9099,5850.0004 C338.5179,5850.0004 339.0089,5850.4354 338.9039,5851.0344 L338.9039,5851.0344 Z M339.9999,5846.0004 L339.9999,5846.5694 L339.9999,5848.0004 C339.9999,5848.5524 339.5519,5849.0004 338.9999,5849.0004 L336.9999,5849.0004 C336.4499,5849.0004 335.9999,5848.5504 335.9999,5848.0004 L335.9999,5846.5694 L335.9999,5846.0004 C335.9999,5845.4474 336.4479,5845.0004 336.9999,5845.0004 L338.9999,5845.0004 C339.5519,5845.0004 339.9999,5845.4474 339.9999,5846.0004 L339.9999,5846.0004 Z M330.9999,5849.0004 L328.9999,5849.0004 C328.4499,5849.0004 327.9999,5848.5504 327.9999,5848.0004 L327.9999,5846.5694 L327.9999,5846.0004 C327.9999,5845.4474 328.4479,5845.0004 328.9999,5845.0004 L330.9999,5845.0004 C331.5519,5845.0004 331.9999,5845.4474 331.9999,5846.0004 L331.9999,5846.5694 L331.9999,5848.0004 C331.9999,5848.5524 331.5519,5849.0004 330.9999,5849.0004 L330.9999,5849.0004 Z M341.9999,5842.6034 L341.9999,5848.5854 C341.9999,5852.9964 338.4109,5857.0004 333.9999,5857.0004 C329.5889,5857.0004 325.9999,5852.9964 325.9999,5848.5854 L325.9999,5842.6034 L325.9999,5841.5854 C325.9999,5841.0324 326.4479,5841.0004 326.9999,5841.0004 L328.0179,5841.0004 L333.9999,5841.0004 L339.9819,5841.0004 L340.9999,5841.0004 C341.5519,5841.0004 341.9999,5841.0324 341.9999,5841.5854 L341.9999,5842.6034 Z M341.9999,5839.0004 L333.9999,5839.0004 L325.9999,5839.0004 C324.8959,5839.0004 323.9999,5839.4804 323.9999,5840.5854 L323.9999,5848.5854 C323.9999,5850.8314 324.7499,5852.8974 325.9999,5854.5664 C326.5739,5855.3324 327.2529,5856.0114 328.0179,5856.5854 C329.6879,5857.8354 331.7539,5859.0004 333.9999,5859.0004 C336.2459,5859.0004 338.3119,5857.8354 339.9819,5856.5854 C340.7479,5856.0114 341.4269,5855.3324 341.9999,5854.5664 C343.2499,5852.8974 343.9999,5850.8314 343.9999,5848.5854 L343.9999,5840.5854 C343.9999,5839.4804 343.1049,5839.0004 341.9999,5839.0004 L341.9999,5839.0004 Z" id="emoji_happy-[#490]"></path>
            </g>
        </g>
    </g>
</svg>