<?xml version="1.0" encoding="UTF-8" standalone="no"?>
<svg width="20px" height="20px" viewBox="0 0 20 20" version="1.1" xmlns="http://www.w3.org/2000/svg" xmlns:xlink="http://www.w3.org/1999/xlink">
    <!-- Generator: Sketch 3.8.1 (29687) - http://www.bohemiancoding.com/sketch -->
    <title>emoji_happy [#501]</title>
    <desc>Created with Sketch.</desc>
    <defs></defs>
    <g id="Page-1" stroke="none" stroke-width="1" fill="none" fill-rule="evenodd">
        <g id="Dribbble-Dark-Preview" transform="translate(-340.000000, -5959.000000)" fill="#FFFFFF">
            <g id="icons" transform="translate(56.000000, 160.000000)">
                <path d="M300,5806 C300,5806.552 299.552,5807 299,5807 L297,5807 C296.448,5807 296,5806.552 296,5806 C296,5805.448 296.448,5805 297,5805 L299,5805 C299.552,5805 300,5805.448 300,5806 L300,5806 Z M288,5806 C288,5805.448 288.448,5805 289,5805 L291,5805 C291.552,5805 292,5805.448 292,5806 C292,5806.552 291.552,5807 291,5807 L289,5807 C288.448,5807 288,5806.552 288,5806 L288,5806 Z M300,5811.577 L300,5811.577 C300,5813.468 298.468,5815 296.577,5815 L291.423,5815 C289.54,5815 288,5813.46 288,5811.577 C288,5811.025 288.448,5810.683 289,5810.683 C289.552,5810.683 290,5811.236 290,5811.789 C290,5812.341 290.448,5813 291,5813 L297,5813 C297.552,5813 298,5812.341 298,5811.789 C298,5811.236 298.448,5810.577 299,5810.577 C299.552,5810.577 300,5811.025 300,5811.577 L300,5811.577 Z M302,5802.603 L302,5808.585 C302,5812.996 298.411,5817 294,5817 C289.589,5817 286,5812.996 286,5808.585 L286,5802.603 L286,5801.585 C286,5801.033 286.448,5801 287,5801 L288.018,5801 L294,5801 L299.982,5801 L301,5801 C301.552,5801 302,5801.033 302,5801.585 L302,5802.603 Z M302,5799 L294,5799 L286,5799 C284.895,5799 284,5799.48 284,5800.585 L284,5808.585 C284,5810.831 284.75,5812.897 286,5814.567 C286.574,5815.333 287.253,5816.011 288.018,5816.585 C289.688,5817.835 291.754,5819 294,5819 C296.246,5819 298.312,5817.835 299.982,5816.585 C300.747,5816.011 301.426,5815.333 302,5814.567 C303.25,5812.897 304,5810.831 304,5808.585 L304,5800.585 C304,5799.48 303.105,5799 302,5799 L302,5799 Z" id="emoji_happy-[#501]"></path>
            </g>
        </g>
    </g>
</svg>