<?xml version="1.0" encoding="UTF-8" standalone="no"?>
<svg width="20px" height="20px" viewBox="0 0 20 20" version="1.1" xmlns="http://www.w3.org/2000/svg" xmlns:xlink="http://www.w3.org/1999/xlink">
    <!-- Generator: Sketch 3.8.1 (29687) - http://www.bohemiancoding.com/sketch -->
    <title>emoji_neutral [#569]</title>
    <desc>Created with Sketch.</desc>
    <defs></defs>
    <g id="Page-1" stroke="none" stroke-width="1" fill="none" fill-rule="evenodd">
        <g id="Dribbble-Dark-Preview" transform="translate(-420.000000, -5679.000000)" fill="#FFFFFF">
            <g id="icons" transform="translate(56.000000, 160.000000)">
                <path d="M382,5531 L378,5531 C376.895,5531 376,5529.69 376,5528.585 L376,5525 L372,5525 L372,5528.585 C372,5529.69 371.105,5531 370,5531 L366,5531 L366,5535.615 C366,5536.168 366.448,5537 367,5537 L381,5537 C381.552,5537 382,5536.168 382,5535.615 L382,5531 Z M366,5525 L366,5529 L366.002,5529 L369,5529 C369.552,5529 370,5528.137 370,5527.585 L370,5525 L366,5525 Z M368.76,5523 L372,5523 L376,5523 L379.24,5523 C377.835,5521 375.646,5520.771 374,5520.771 C372.167,5520.771 370.165,5521 368.76,5523 L368.76,5523 Z M378,5525 L378,5527.585 C378,5528.137 378.448,5529 379,5529 L381.998,5529 L382,5529 L382,5525 L378,5525 Z M384,5523 L384,5536.615 C384,5537.72 383.105,5539 382,5539 L366,5539 C364.895,5539 364,5537.72 364,5536.615 L364,5523 L366.042,5523 C366.607,5522 367.27,5521.435 368.018,5520.875 C369.688,5519.624 371.754,5519 374,5519 C376.246,5519 378.312,5519.572 379.982,5520.823 C380.73,5521.383 381.393,5522 381.958,5523 L384,5523 Z M370,5535 L378,5535 L378,5533 L370,5533 L370,5535 Z" id="emoji_neutral-[#569]"></path>
            </g>
        </g>
    </g>
</svg>