<?xml version="1.0" encoding="UTF-8" standalone="no"?>
<svg width="20px" height="20px" viewBox="0 0 20 20" version="1.1" xmlns="http://www.w3.org/2000/svg" xmlns:xlink="http://www.w3.org/1999/xlink">
    <!-- Generator: Sketch 3.8.1 (29687) - http://www.bohemiancoding.com/sketch -->
    <title>emoji_sad_missing [#582]</title>
    <desc>Created with Sketch.</desc>
    <defs></defs>
    <g id="Page-1" stroke="none" stroke-width="1" fill="none" fill-rule="evenodd">
        <g id="Dribbble-Dark-Preview" transform="translate(-300.000000, -5639.000000)" fill="#FFFFFF">
            <g id="icons" transform="translate(56.000000, 160.000000)">
                <path d="M262,5493 L264,5493 L264,5485 L262,5485 L262,5493 Z M261,5497 L260,5497 L260,5499 L262,5499 C263.105,5499 264,5498.105 264,5497 L264,5495 L262,5495 L262,5496 C262,5496.552 261.552,5497 261,5497 L261,5497 Z M260,5479 L260,5481 L261,5481 C261.552,5481 262,5481.448 262,5482 L262,5483 L264,5483 L264,5481 C264,5479.895 263.105,5479 262,5479 L260,5479 Z M244,5493 L246,5493 L246,5485 L244,5485 L244,5493 Z M246,5495 L244,5495 L244,5497 C244,5498.105 244.895,5499 246,5499 L248,5499 L248,5497 L247,5497 C246.448,5497 246,5496.552 246,5496 L246,5495 Z M247,5481 L248,5481 L248,5479 L246,5479 C244.895,5479 244,5479.895 244,5481 L244,5483 L246,5483 L246,5482 C246,5481.448 246.448,5481 247,5481 L247,5481 Z M250,5499 L258,5499 L258,5497 L250,5497 L250,5499 Z M250,5481 L258,5481 L258,5479 L250,5479 L250,5481 Z M257,5488 L259,5488 C259.552,5488 260,5487.552 260,5487 L260,5485 C260,5484.448 259.552,5484 259,5484 L257,5484 C256.448,5484 256,5484.448 256,5485 L256,5487 C256,5487.552 256.448,5488 257,5488 L257,5488 Z M251,5484 L249,5484 C248.448,5484 248,5484.448 248,5485 L248,5487 C248,5487.552 248.448,5488 249,5488 L251,5488 C251.552,5488 252,5487.552 252,5487 L252,5485 C252,5484.448 251.552,5484 251,5484 L251,5484 Z M259.167,5494 L257.167,5494 C257.167,5490 251.167,5490 251.167,5494 L249.167,5494 C249.167,5488 259.167,5488 259.167,5494 L259.167,5494 Z" id="emoji_sad_missing-[#582]"></path>
            </g>
        </g>
    </g>
</svg>