<?xml version="1.0" encoding="UTF-8" standalone="no"?>
<svg width="20px" height="20px" viewBox="0 0 20 20" version="1.1" xmlns="http://www.w3.org/2000/svg" xmlns:xlink="http://www.w3.org/1999/xlink">
    <!-- Generator: Sketch 3.8.1 (29687) - http://www.bohemiancoding.com/sketch -->
    <title>emoji_sad_square_round [#430]</title>
    <desc>Created with Sketch.</desc>
    <defs></defs>
    <g id="Page-1" stroke="none" stroke-width="1" fill="none" fill-rule="evenodd">
        <g id="Dribbble-Dark-Preview" transform="translate(-380.000000, -6239.000000)" fill="#FFFFFF">
            <g id="icons" transform="translate(56.000000, 160.000000)">
                <path d="M336,6086 C336,6085.448 336.448,6085 337,6085 L339,6085 C339.552,6085 340,6085.448 340,6086 L340,6088 C340,6088.552 339.552,6089 339,6089 L337,6089 C336.45,6089 336,6088.55 336,6088 L336,6086 Z M332,6088 C332,6088.552 331.552,6089 331,6089 L329,6089 C328.45,6089 328,6088.55 328,6088 L328,6086 C328,6085.448 328.448,6085 329,6085 L331,6085 C331.552,6085 332,6085.448 332,6086 L332,6088 Z M339,6095 L329,6095 C329,6088 339,6088 339,6095 L339,6095 Z M342,6096 C342,6096.552 341.552,6097 341,6097 L327,6097 C326.448,6097 326,6096.552 326,6096 L326,6082 C326,6081.448 326.448,6081 327,6081 L341,6081 C341.552,6081 342,6081.448 342,6082 L342,6096 Z M344,6081 C344,6079.895 343.105,6079 342,6079 L326,6079 C324.895,6079 324,6079.895 324,6081 L324,6097 C324,6098.105 324.895,6099 326,6099 L342,6099 C343.105,6099 344,6098.105 344,6097 L344,6081 Z" id="emoji_sad_square_round-[#430]"></path>
            </g>
        </g>
    </g>
</svg>