<?xml version="1.0" encoding="UTF-8" standalone="no"?>
<svg width="20px" height="20px" viewBox="0 0 20 20" version="1.1" xmlns="http://www.w3.org/2000/svg" xmlns:xlink="http://www.w3.org/1999/xlink">
    <!-- Generator: Sketch 3.8.1 (29687) - http://www.bohemiancoding.com/sketch -->
    <title>emoji_happy [#512]</title>
    <desc>Created with Sketch.</desc>
    <defs></defs>
    <g id="Page-1" stroke="none" stroke-width="1" fill="none" fill-rule="evenodd">
        <g id="Dribbble-Dark-Preview" transform="translate(-300.000000, -5919.000000)" fill="#FFFFFF">
            <g id="icons" transform="translate(56.000000, 160.000000)">
                <path d="M258.8926,5771.0432 C257.8856,5776.1802 250.1136,5776.0762 249.1076,5770.9392 C248.9896,5770.3402 249.4876,5770.0002 250.0976,5770.0002 L250.1146,5770.0002 C250.5916,5770.0002 250.9806,5770.2402 251.0906,5770.7042 C251.7806,5773.6272 256.2196,5773.5232 256.9096,5770.6002 C257.0196,5770.1362 257.4086,5770.0002 257.8846,5770.0002 L257.9026,5770.0002 C258.5126,5770.0002 259.0096,5770.4442 258.8926,5771.0432 L258.8926,5771.0432 Z M261.9996,5775.5852 C261.9996,5776.1372 261.5526,5777.0002 260.9996,5777.0002 L246.9996,5777.0002 C246.4476,5777.0002 245.9996,5776.1372 245.9996,5775.5852 L245.9996,5768.5852 C245.9996,5766.9462 246.4966,5765.4212 247.3456,5764.1512 C247.3916,5764.3092 247.4616,5764.4602 247.5856,5764.5852 L248.5856,5765.5852 L247.5856,5766.5852 C247.1956,5766.9752 247.1956,5767.6082 247.5856,5767.9992 C247.9766,5768.3892 248.6096,5768.3892 248.9996,5767.9992 L249.9996,5766.9992 L250.9996,5767.9992 C251.3906,5768.3892 252.0236,5768.3892 252.4146,5767.9992 L252.4146,5767.9992 C252.8046,5767.6082 252.8046,5766.9752 252.4146,5766.5852 L251.4146,5765.5852 L252.4146,5764.5852 C252.8046,5764.1942 252.8046,5763.5612 252.4146,5763.1712 L252.4146,5763.1702 C252.0236,5762.7802 251.3906,5762.7802 250.9996,5763.1702 L249.9996,5764.1702 L248.9996,5763.1702 C248.8286,5762.9992 248.6086,5762.9162 248.3846,5762.8952 C249.8296,5761.4692 251.8126,5761.0002 253.9996,5761.0002 C256.1866,5761.0002 258.1696,5761.4692 259.6156,5762.8952 C259.3916,5762.9162 259.1716,5762.9992 258.9996,5763.1702 L257.9996,5764.1702 L256.9996,5763.1702 C256.6096,5762.7802 255.9766,5762.7802 255.5856,5763.1702 L255.5856,5763.1712 C255.1956,5763.5612 255.1956,5764.1942 255.5856,5764.5852 L256.5856,5765.5852 L255.5856,5766.5852 C255.1956,5766.9752 255.1956,5767.6082 255.5856,5767.9992 C255.9766,5768.3892 256.6096,5768.3892 256.9996,5767.9992 L257.9996,5766.9992 L258.9996,5767.9992 C259.3906,5768.3892 260.0236,5768.3892 260.4146,5767.9992 L260.4146,5767.9992 C260.8046,5767.6082 260.8046,5766.9752 260.4146,5766.5852 L259.4146,5765.5852 L260.4146,5764.5852 C260.5386,5764.4602 260.6086,5764.3092 260.6536,5764.1512 C261.5026,5765.4212 261.9996,5766.9462 261.9996,5768.5852 L261.9996,5775.5852 Z M261.9996,5762.6032 C259.8886,5759.7842 257.4516,5759.0002 253.9996,5759.0002 C250.5466,5759.0002 248.1106,5759.7862 245.9996,5762.6032 C244.7496,5764.2722 243.9996,5766.3382 243.9996,5768.5852 L243.9996,5776.5852 C243.9996,5777.6892 244.8956,5779.0002 245.9996,5779.0002 L261.9996,5779.0002 C263.1046,5779.0002 263.9996,5777.6892 263.9996,5776.5852 L263.9996,5768.5852 C263.9996,5766.3382 263.2506,5764.2722 261.9996,5762.6032 L261.9996,5762.6032 Z" id="emoji_happy-[#512]"></path>
            </g>
        </g>
    </g>
</svg>