<?xml version="1.0" encoding="UTF-8" standalone="no"?>
<svg width="20px" height="12px" viewBox="0 0 20 12" version="1.1" xmlns="http://www.w3.org/2000/svg" xmlns:xlink="http://www.w3.org/1999/xlink">
    <!-- Generator: Sketch 3.8.1 (29687) - http://www.bohemiancoding.com/sketch -->
    <title>emoji_surprised_simple_glasses [#474]</title>
    <desc>Created with Sketch.</desc>
    <defs></defs>
    <g id="Page-1" stroke="none" stroke-width="1" fill="none" fill-rule="evenodd">
        <g id="Dribbble-Dark-Preview" transform="translate(-220.000000, -6082.000000)" fill="#FFFFFF">
            <g id="icons" transform="translate(56.000000, 160.000000)">
                <path d="M182,5924.07164 L178,5924.07164 L178,5927.17911 C178,5927.75088 178.448,5928.21493 179,5928.21493 L182,5928.21493 L182,5924.07164 Z M170,5924.07164 L166,5924.07164 L166,5928.21493 L169,5928.21493 C169.552,5928.21493 170,5927.75088 170,5927.17911 L170,5924.07164 Z M184,5922 L184,5930.28658 L178,5930.28658 C176.895,5930.28658 176,5929.35952 176,5928.21493 L176,5924.07164 L172,5924.07164 L172,5928.21493 C172,5929.35952 171.105,5930.28658 170,5930.28658 L164,5930.28658 L164,5922 L172,5922 L176,5922 L184,5922 Z M176,5931.92836 C176,5933.07294 175.105,5934 174,5934 C172.895,5934 172,5933.07294 172,5931.92836 C172,5930.78377 172.895,5929.85671 174,5929.85671 C175.105,5929.85671 176,5930.78377 176,5931.92836 L176,5931.92836 Z" id="emoji_surprised_simple_glasses-[#474]"></path>
            </g>
        </g>
    </g>
</svg>