<?xml version="1.0" encoding="UTF-8" standalone="no"?>
<svg width="20px" height="20px" viewBox="0 0 20 20" version="1.1" xmlns="http://www.w3.org/2000/svg" xmlns:xlink="http://www.w3.org/1999/xlink">
    <!-- Generator: Sketch 3.8.1 (29687) - http://www.bohemiancoding.com/sketch -->
    <title>euro [#1188]</title>
    <desc>Created with Sketch.</desc>
    <defs></defs>
    <g id="Page-1" stroke="none" stroke-width="1" fill="none" fill-rule="evenodd">
        <g id="Dribbble-Dark-Preview" transform="translate(-100.000000, -2919.000000)" fill="#FFFFFF">
            <g id="icons" transform="translate(56.000000, 160.000000)">
                <path d="M49.591,2766 L56,2766 L56,2768 L49.071,2768 C48.987,2768.664 48.987,2769.336 49.071,2770 L56,2770 L56,2772 L49.591,2772 C50.733,2774.783 53.534,2777 58,2777 L64,2777 L64,2779 L58,2779 C52.155,2779 48.647,2775.821 47.461,2772 L44,2772 L44,2770 L47.052,2770 C46.986,2769.335 46.986,2768.665 47.052,2768 L44,2768 L44,2766 L47.461,2766 C48.647,2762.179 52.155,2759 58,2759 L64,2759 L64,2761 L58,2761 C53.534,2761 50.733,2763.217 49.591,2766" id="euro-[#1188]"></path>
            </g>
        </g>
    </g>
</svg>