<?xml version="1.0" encoding="UTF-8" standalone="no"?>
<svg width="17px" height="20px" viewBox="0 0 17 20" version="1.1" xmlns="http://www.w3.org/2000/svg" xmlns:xlink="http://www.w3.org/1999/xlink">
    <!-- Generator: Sketch 3.8.1 (29687) - http://www.bohemiancoding.com/sketch -->
    <title>evernote [#156]</title>
    <desc>Created with Sketch.</desc>
    <defs></defs>
    <g id="Page-1" stroke="none" stroke-width="1" fill="none" fill-rule="evenodd">
        <g id="Dribbble-Dark-Preview" transform="translate(-382.000000, -7479.000000)" fill="#FFFFFF">
            <g id="icons" transform="translate(56.000000, 160.000000)">
                <path d="M329.612915,7322.87376 C329.721811,7322.87376 329.810352,7322.78576 329.810352,7322.67976 C329.813405,7321.05573 329.609862,7320.38772 330.067835,7319.54071 C330.060711,7319.54171 330.053587,7319.54571 330.046463,7319.55271 L326.333828,7323.16876 C326.326704,7323.17476 326.322633,7323.18276 326.320598,7323.19076 C327.277253,7322.72476 327.996779,7322.87376 329.612915,7322.87376 M342.096242,7336.12596 C341.176225,7338.929 340.391564,7339 338.165816,7339 C335.325365,7339 334.456234,7338.58599 334.456234,7336.35396 C334.456234,7333.89492 335.633734,7333.84292 337.634567,7333.89792 C337.921563,7333.90392 337.617266,7334.17993 337.617266,7334.65594 C337.617266,7335.13494 337.805543,7335.32395 337.547043,7335.32395 C336.967962,7335.32395 336.187372,7335.24394 336.187372,7336.01996 C336.187372,7336.97897 336.65654,7336.94997 337.885943,7336.94997 C339.402343,7336.94997 339.692392,7336.76697 339.692392,7335.40995 C339.692392,7333.17891 339.050212,7332.84491 338.165816,7332.74491 C337.186771,7332.6319 336.22401,7332.5029 335.758913,7332.3419 C334.582431,7331.93189 334.621104,7329.99987 334.621104,7329.99987 C334.621104,7330.99988 334.293399,7332.3389 334.034899,7332.84491 C333.666485,7333.60592 333.047713,7333.31392 332.061544,7333.18991 C331.072322,7333.06591 328.964629,7332.6339 328.041559,7332.2459 C327.627348,7332.0569 327.486902,7331.87789 327.276235,7331.44889 C326.751092,7330.38487 326.011212,7326.25081 326.000017,7325.18779 C325.998999,7324.76379 326.043779,7324.34778 326.298208,7324.01178 C326.930211,7323.17676 328.267492,7323.41977 329.701456,7323.41977 C330.117703,7323.41877 330.45355,7323.08776 330.454568,7322.67976 C330.454568,7320.88373 330.289697,7320.29972 330.683554,7319.74571 C330.912541,7319.42371 331.323699,7319.2147 331.695166,7319.1127 C332.162298,7318.9837 333.984013,7318.8717 335.161513,7319.33771 C335.60422,7319.51271 335.999094,7320.01872 336.081529,7320.57172 C336.767471,7320.55172 337.902227,7320.54272 338.868041,7320.65473 C340.06793,7320.79273 341.023567,7320.96673 341.493753,7321.13373 C341.930354,7321.28874 342.41377,7321.68174 342.56541,7322.47975 C342.961302,7324.56178 343.484409,7331.90389 342.096242,7336.12596" id="evernote-[#156]"></path>
            </g>
        </g>
    </g>
</svg>