<?xml version="1.0" encoding="UTF-8" standalone="no"?>
<svg width="20px" height="20px" viewBox="0 0 20 20" version="1.1" xmlns="http://www.w3.org/2000/svg" xmlns:xlink="http://www.w3.org/1999/xlink">
    <!-- Generator: Sketch 3.8.1 (29687) - http://www.bohemiancoding.com/sketch -->
    <title>exclude_round [#834]</title>
    <desc>Created with Sketch.</desc>
    <defs></defs>
    <g id="Page-1" stroke="none" stroke-width="1" fill="none" fill-rule="evenodd">
        <g id="Dribbble-Dark-Preview" transform="translate(-300.000000, -4479.000000)" fill="#FFFFFF">
            <g id="icons" transform="translate(56.000000, 160.000000)">
                <path d="M257,4333 L251,4333 C250.448,4333 250,4332.552 250,4332 L250,4326 C250,4325.448 250.448,4325 251,4325 L257,4325 C257.552,4325 258,4325.448 258,4326 L258,4332 C258,4332.552 257.552,4333 257,4333 M262,4319 L250,4319 C248.895,4319 248,4319.895 248,4321 C248,4322.105 247.105,4323 246,4323 C244.895,4323 244,4323.895 244,4325 L244,4337 C244,4338.105 244.895,4339 246,4339 L258,4339 C259.105,4339 260,4338.105 260,4337 C260,4335.895 260.895,4335 262,4335 C263.105,4335 264,4334.105 264,4333 L264,4321 C264,4319.895 263.105,4319 262,4319" id="exclude_round-[#834]"></path>
            </g>
        </g>
    </g>
</svg>