<?xml version="1.0" encoding="UTF-8" standalone="no"?>
<svg width="20px" height="20px" viewBox="0 0 20 20" version="1.1" xmlns="http://www.w3.org/2000/svg" xmlns:xlink="http://www.w3.org/1999/xlink">
    <!-- Generator: Sketch 3.8.1 (29687) - http://www.bohemiancoding.com/sketch -->
    <title>exit_focus_round [#851]</title>
    <desc>Created with Sketch.</desc>
    <defs></defs>
    <g id="Page-1" stroke="none" stroke-width="1" fill="none" fill-rule="evenodd">
        <g id="Dribbble-Dark-Preview" transform="translate(-420.000000, -4399.000000)" fill="#FFFFFF">
            <g id="icons" transform="translate(56.000000, 160.000000)">
                <path d="M376,4250 L376,4248 C376,4247.448 375.552,4247 375,4247 L373,4247 C372.448,4247 372,4247.448 372,4248 L372,4250 C372,4250.552 372.448,4251 373,4251 L375,4251 C375.552,4251 376,4250.552 376,4250 L376,4250 Z M376,4245 L376,4245 C377.105,4245 378,4245.895 378,4247 L378,4251 C378,4252.105 377.105,4253 376,4253 L372,4253 C370.895,4253 370,4252.105 370,4251 L370,4247 C370,4245.895 370.895,4245 372,4245 L376,4245 Z M364,4254 L364,4256 L366,4256 C366.552,4256 367,4256.448 367,4257 L367,4259 L369,4259 L369,4256 C369,4254.895 368.105,4254 367,4254 L364,4254 Z M366,4242 L364,4242 L364,4244 L367,4244 C368.105,4244 369,4243.105 369,4242 L369,4239 L367,4239 L367,4241 C367,4241.552 366.552,4242 366,4242 L366,4242 Z M381,4241 L381,4239 L379,4239 L379,4242 C379,4243.105 379.895,4244 381,4244 L384,4244 L384,4242 L382,4242 C381.448,4242 381,4241.552 381,4241 L381,4241 Z M381,4254 L384,4254 L384,4256 L382,4256 C381.448,4256 381,4256.448 381,4257 L381,4259 L379,4259 L379,4256 C379,4254.895 379.895,4254 381,4254 L381,4254 Z" id="exit_focus_round-[#851]"></path>
            </g>
        </g>
    </g>
</svg>