<?xml version="1.0" encoding="UTF-8" standalone="no"?>
<svg width="20px" height="20px" viewBox="0 0 20 20" version="1.1" xmlns="http://www.w3.org/2000/svg" xmlns:xlink="http://www.w3.org/1999/xlink">
    <!-- Generator: Sketch 3.8.1 (29687) - http://www.bohemiancoding.com/sketch -->
    <title>exit_focus [#852]</title>
    <desc>Created with Sketch.</desc>
    <defs></defs>
    <g id="Page-1" stroke="none" stroke-width="1" fill="none" fill-rule="evenodd">
        <g id="Dribbble-Dark-Preview" transform="translate(-380.000000, -4399.000000)" fill="#FFFFFF">
            <g id="icons" transform="translate(56.000000, 160.000000)">
                <path d="M332,4251 L336,4251 L336,4247 L332,4247 L332,4251 Z M336,4245 L338,4245 L338,4247 L338,4251 L338,4253 L336,4253 L332,4253 L330,4253 L330,4251 L330,4247 L330,4245 L332,4245 L336,4245 Z M324,4254 L324,4256 L327,4256 L327,4259 L329,4259 L329,4256 L329,4254 L327,4254 L324,4254 Z M327,4242 L324,4242 L324,4244 L327,4244 L329,4244 L329,4242 L329,4239 L327,4239 L327,4242 Z M341,4242 L341,4239 L339,4239 L339,4242 L339,4244 L341,4244 L344,4244 L344,4242 L341,4242 Z M341,4254 L344,4254 L344,4256 L341,4256 L341,4259 L339,4259 L339,4256 L339,4254 L341,4254 Z" id="exit_focus-[#852]"></path>
            </g>
        </g>
    </g>
</svg>