<?xml version="1.0" encoding="UTF-8" standalone="no"?>
<svg width="20px" height="20px" viewBox="0 0 20 20" version="1.1" xmlns="http://www.w3.org/2000/svg" xmlns:xlink="http://www.w3.org/1999/xlink">
    <!-- Generator: Sketch 3.8.1 (29687) - http://www.bohemiancoding.com/sketch -->
    <title>exit_full_screen [#905]</title>
    <desc>Created with Sketch.</desc>
    <defs></defs>
    <g id="Page-1" stroke="none" stroke-width="1" fill="none" fill-rule="evenodd">
        <g id="Dribbble-Dark-Preview" transform="translate(-260.000000, -4199.000000)" fill="#FFFFFF">
            <g id="icons" transform="translate(56.000000, 160.000000)">
                <path d="M218,4047 L224,4047 L224,4045 L218,4045 L218,4039 L216,4039 L216,4043.959 L216,4047 L218,4047 Z M218,4053 L224,4053 L224,4051 L218,4051 L216,4051 L216,4051.959 L216,4059 L218,4059 L218,4053 Z M210,4059 L212,4059 L212,4051.959 L212,4051 L210,4051 L204,4051 L204,4053 L210,4053 L210,4059 Z M210,4039 L212,4039 L212,4043.959 L212,4047 L210,4047 L204,4047 L204,4045 L210,4045 L210,4039 Z" id="exit_full_screen-[#905]"></path>
            </g>
        </g>
    </g>
</svg>