<?xml version="1.0" encoding="UTF-8" standalone="no"?>
<svg width="20px" height="12px" viewBox="0 0 20 12" version="1.1" xmlns="http://www.w3.org/2000/svg" xmlns:xlink="http://www.w3.org/1999/xlink">
    <!-- Generator: Sketch 3.8.1 (29687) - http://www.bohemiancoding.com/sketch -->
    <title>eyes [#90]</title>
    <desc>Created with Sketch.</desc>
    <defs></defs>
    <g id="Page-1" stroke="none" stroke-width="1" fill="none" fill-rule="evenodd">
        <g id="Dribbble-Dark-Preview" transform="translate(-380.000000, -7803.000000)" fill="#FFFFFF">
            <g id="icons" transform="translate(56.000000, 160.000000)">
                <path d="M338.003976,7653.03136 C336.938673,7653.03136 335.9754,7652.60503 335.258196,7651.92289 C336.242476,7650.1343 336.242476,7647.90333 335.258196,7646.11474 C335.628301,7645.76264 336.064425,7645.48176 336.547562,7645.29116 C335.497264,7646.79486 336.067426,7648.94659 337.717894,7649.73204 C339.327351,7650.49844 341.286908,7649.64076 341.842065,7647.94847 C342.542264,7650.46433 340.620718,7653.03136 338.003976,7653.03136 M340.004544,7647.01254 C340.004544,7648.01568 338.003976,7648.01568 338.003976,7647.01254 C338.003976,7646.00941 340.004544,7646.00941 340.004544,7647.01254 M332.747483,7651.92289 C330.936969,7653.64528 327.94412,7653.26409 326.615743,7651.15148 C325.298369,7649.05392 326.247638,7646.19699 328.54529,7645.29116 C327.523,7646.75574 328.031144,7648.83925 329.60159,7649.67186 C331.215048,7650.52753 333.270632,7649.68289 333.839793,7647.94847 C334.237906,7649.37994 333.825789,7650.89769 332.747483,7651.92289 M331.001988,7646.00941 C332.002272,7646.00941 332.002272,7648.01568 331.001988,7648.01568 C330.001704,7648.01568 330.001704,7646.00941 331.001988,7646.00941 M338.003976,7643 C336.464539,7643 335.065141,7643.58583 334.00284,7644.54182 C330.202761,7641.12414 324,7643.9269 324,7649.01881 C324,7654.11073 330.202761,7656.91349 334.00284,7653.49581 C337.186744,7656.35976 342.404225,7654.94133 343.715597,7650.87161 C344.948947,7647.04464 342.010113,7643 338.003976,7643" id="eyes-[#90]"></path>
            </g>
        </g>
    </g>
</svg>