<?xml version="1.0" encoding="UTF-8" standalone="no"?>
<svg width="20px" height="20px" viewBox="0 0 20 20" version="1.1" xmlns="http://www.w3.org/2000/svg" xmlns:xlink="http://www.w3.org/1999/xlink">
    <!-- Generator: Sketch 3.8.1 (29687) - http://www.bohemiancoding.com/sketch -->
    <title>fahrenheit [#1223]</title>
    <desc>Created with Sketch.</desc>
    <defs></defs>
    <g id="Page-1" stroke="none" stroke-width="1" fill="none" fill-rule="evenodd">
        <g id="Dribbble-Dark-Preview" transform="translate(-420.000000, -2679.000000)" fill="#FFFFFF">
            <g id="icons" transform="translate(56.000000, 160.000000)">
                <path d="M384,2529 C384,2529.552 383.552,2530 383,2530 L374,2530 L374,2538 C374,2538.552 373.552,2539 373,2539 C372.448,2539 372,2538.552 372,2538 L372,2521 C372,2519.895 372.895,2519 374,2519 L383,2519 C383.552,2519 384,2519.448 384,2520 C384,2520.552 383.552,2521 383,2521 L375,2521 C374.448,2521 374,2521.448 374,2522 L374,2528 L383,2528 C383.552,2528 384,2528.448 384,2529 M367,2523 C366.448,2523 366,2522.552 366,2522 C366,2521.448 366.448,2521 367,2521 C367.552,2521 368,2521.448 368,2522 C368,2522.552 367.552,2523 367,2523 M368,2519 L366,2519 C364.895,2519 364,2519.895 364,2521 L364,2523 C364,2524.105 364.895,2525 366,2525 L368,2525 C369.105,2525 370,2524.105 370,2523 L370,2521 C370,2519.895 369.105,2519 368,2519" id="fahrenheit-[#1223]"></path>
            </g>
        </g>
    </g>
</svg>