<?xml version="1.0" encoding="UTF-8" standalone="no"?>
<svg width="20px" height="20px" viewBox="0 0 20 20" version="1.1" xmlns="http://www.w3.org/2000/svg" xmlns:xlink="http://www.w3.org/1999/xlink">
    <!-- Generator: Sketch 3.8.1 (29687) - http://www.bohemiancoding.com/sketch -->
    <title>file_gif [#1768]</title>
    <desc>Created with Sketch.</desc>
    <defs></defs>
    <g id="Page-1" stroke="none" stroke-width="1" fill="none" fill-rule="evenodd">
        <g id="Dribbble-Dark-Preview" transform="translate(-180.000000, -1239.000000)" fill="#FFFFFF">
            <g id="icons" transform="translate(56.000000, 160.000000)">
                <path d="M143.7248,1085.1172 L138.2748,1079.36212 C138.0858,1079.16415 137.8238,1079.001 137.5498,1079.001 L125.9998,1079.001 C124.8958,1079.001 123.9998,1079.99583 123.9998,1081.09412 L123.9998,1088.0579 C123.9998,1088.60705 124.4478,1089.05273 124.9998,1089.05273 C125.5528,1089.05273 125.9998,1088.60705 125.9998,1088.0579 L125.9998,1082.08894 C125.9998,1081.5398 126.4478,1080.99065 126.9998,1080.99065 L135.9998,1080.99065 L135.9998,1085.07342 C135.9998,1086.17271 136.8958,1086.95962 137.9998,1086.95962 L141.9998,1086.95962 L141.9998,1088.0579 C141.9998,1088.60705 142.4478,1089.05273 142.9998,1089.05273 C143.5528,1089.05273 143.9998,1088.60705 143.9998,1088.0579 L143.9998,1085.80263 C143.9998,1085.54696 143.9018,1085.30223 143.7248,1085.1172 L143.7248,1085.1172 Z M142.9998,1090.93892 L138.9998,1090.93892 C138.4478,1090.93892 137.9998,1091.48807 137.9998,1092.03721 L137.9998,1098.00617 C137.9998,1098.55532 138.4478,1099.001 138.9998,1099.001 C139.5528,1099.001 139.9998,1098.55532 139.9998,1098.00617 L139.9998,1096.90788 L142.9998,1096.90788 C143.5528,1096.90788 143.9998,1096.51393 143.9998,1095.96479 L143.9998,1095.93892 C143.9998,1095.38878 143.5528,1094.91823 142.9998,1094.91823 L139.9998,1094.91823 L139.9998,1092.92858 L142.9998,1092.92858 C143.5528,1092.92858 143.9998,1092.53463 143.9998,1091.98548 L143.9998,1091.95962 C143.9998,1091.40948 143.5528,1090.93892 142.9998,1090.93892 L142.9998,1090.93892 Z M128.9998,1090.93892 L127.9998,1090.93892 C125.6608,1090.93892 123.7918,1092.93554 124.0188,1095.3082 C124.2168,1097.37744 126.0828,1098.89754 128.1718,1098.89754 L128.9998,1098.89754 C129.5528,1098.89754 129.9998,1098.55532 129.9998,1098.00617 L129.9998,1096.01652 C129.9998,1095.46737 129.5528,1095.02169 128.9998,1095.02169 C128.4478,1095.02169 127.9998,1095.46737 127.9998,1096.01652 L127.9998,1097.01135 C126.7858,1097.01135 125.8238,1095.88222 126.0278,1094.6357 C126.1878,1093.65778 127.1108,1092.92858 128.1068,1092.92858 L128.9998,1092.92858 C129.5528,1092.92858 129.9998,1092.53463 129.9998,1091.98548 L129.9998,1091.95962 C129.9998,1091.40948 129.5528,1090.93892 128.9998,1090.93892 L128.9998,1090.93892 Z M130.9998,1091.98548 C130.9998,1091.98051 131.0028,1091.97653 131.0028,1091.97255 C131.0028,1091.96757 130.9998,1091.96359 130.9998,1091.95962 L130.9998,1091.98548 Z M130.9998,1097.95444 C130.9998,1097.94947 131.0028,1097.94549 131.0028,1097.94151 C131.0028,1097.93654 130.9998,1097.93256 130.9998,1097.92858 L130.9998,1097.95444 Z M136.9998,1091.95962 L136.9998,1091.98548 C136.9998,1092.53463 136.5528,1092.92858 135.9998,1092.92858 L134.9998,1092.92858 L134.9998,1096.90788 L135.9998,1096.90788 C136.5528,1096.90788 136.9998,1097.37844 136.9998,1097.92858 L136.9998,1097.95444 C136.9998,1098.50359 136.5528,1098.89754 135.9998,1098.89754 L131.9998,1098.89754 C131.4528,1098.89754 131.0098,1098.48369 131.0028,1097.94151 C131.0098,1097.39734 131.4528,1096.90788 131.9998,1096.90788 L132.9998,1096.90788 L132.9998,1092.92858 L131.9998,1092.92858 C131.4528,1092.92858 131.0098,1092.51473 131.0028,1091.97255 C131.0098,1091.42838 131.4528,1090.93892 131.9998,1090.93892 L135.9998,1090.93892 C136.5528,1090.93892 136.9998,1091.40948 136.9998,1091.95962 L136.9998,1091.95962 Z" id="file_gif-[#1768]"></path>
            </g>
        </g>
    </g>
</svg>