<?xml version="1.0" encoding="UTF-8" standalone="no"?>
<svg width="20px" height="20px" viewBox="0 0 20 20" version="1.1" xmlns="http://www.w3.org/2000/svg" xmlns:xlink="http://www.w3.org/1999/xlink">
    <!-- Generator: Sketch 3.8.1 (29687) - http://www.bohemiancoding.com/sketch -->
    <title>file_iso [#1745]</title>
    <desc>Created with Sketch.</desc>
    <defs></defs>
    <g id="Page-1" stroke="none" stroke-width="1" fill="none" fill-rule="evenodd">
        <g id="Dribbble-Dark-Preview" transform="translate(-300.000000, -1319.000000)" fill="#FFFFFF">
            <g id="icons" transform="translate(56.000000, 160.000000)">
                <path d="M260,1174.0005 L260,1176.0005 C260,1176.5525 260.448,1177.0005 261,1177.0005 C261.552,1177.0005 262,1176.5525 262,1176.0005 L262,1174.0005 C262,1173.4485 261.552,1173.0005 261,1173.0005 C260.448,1173.0005 260,1173.4485 260,1174.0005 L260,1174.0005 Z M258,1177.0005 L258,1173.0005 C258,1171.8955 258.895,1171.0005 260,1171.0005 L262,1171.0005 C263.105,1171.0005 264,1171.8955 264,1173.0005 L264,1177.0005 C264,1178.1055 263.105,1179.0005 262,1179.0005 L260,1179.0005 C258.895,1179.0005 258,1178.1055 258,1177.0005 L258,1177.0005 Z M244,1171.0005 L244,1173.0005 L246,1173.0005 L246,1177.0005 L244,1177.0005 L244,1179.0005 L250,1179.0005 L250,1177.0005 L248,1177.0005 L248,1173.0005 L250,1173.0005 L250,1171.0005 L244,1171.0005 Z M253,1171.0005 C251.895,1171.0005 251,1172.0005 251,1173.1055 L251,1174.1055 C251,1175.2095 251.895,1176.0005 253,1176.0005 L254.5,1176.0005 C254.776,1176.0005 255,1176.2245 255,1176.5005 C255,1176.7765 254.776,1177.0005 254.5,1177.0005 L251,1177.0005 L251,1179.0005 L255,1179.0005 L255.021,1179.0005 C256.114,1179.0005 257,1178.2195 257,1177.1255 L257,1176.0845 C257,1174.9915 256.114,1174.0005 255.021,1174.0005 L255,1174.0005 L253.5,1174.0005 C253.224,1174.0005 253,1173.7765 253,1173.5005 C253,1173.2245 253.224,1173.0005 253.5,1173.0005 L257,1173.0005 L257,1171.0005 L253,1171.0005 Z M264,1165.4385 L264,1169.0005 L262,1169.0005 L262,1167.0005 L256,1167.0005 L256,1161.0005 L246,1161.0005 L246,1169.0005 L244,1169.0005 L244,1159.0005 L257.979,1159.0005 L264,1165.4385 Z" id="file_iso-[#1745]"></path>
            </g>
        </g>
    </g>
</svg>