<?xml version="1.0" encoding="UTF-8" standalone="no"?>
<svg width="14px" height="20px" viewBox="0 0 14 20" version="1.1" xmlns="http://www.w3.org/2000/svg" xmlns:xlink="http://www.w3.org/1999/xlink">
    <!-- Generator: Sketch 3.8.1 (29687) - http://www.bohemiancoding.com/sketch -->
    <title>fileboard_love_favorite [#1585]</title>
    <desc>Created with Sketch.</desc>
    <defs></defs>
    <g id="Page-1" stroke="none" stroke-width="1" fill="none" fill-rule="evenodd">
        <g id="Dribbble-Dark-Preview" transform="translate(-303.000000, -1959.000000)" fill="#FFFFFF">
            <g id="icons" transform="translate(56.000000, 160.000000)">
                <path d="M259,1803 L258,1803 L258,1805 L250,1805 L250,1803 L249,1803 L249,1817 L259,1817 L259,1803 Z M252,1803 L256,1803 L256,1801 L252,1801 L252,1803 Z M261,1801 L261,1819 L247,1819 L247,1801 L250,1801 L250,1799 L258,1799 L258,1801 L261,1801 Z M255.897,1811.908 C254.308,1813.367 254.037,1813.706 252.048,1811.858 C250.447,1810.37 250.861,1808.6 252.016,1808.202 C252.749,1807.95 253.435,1808.265 253.883,1808.833 C253.942,1808.907 254.058,1808.905 254.116,1808.831 C254.532,1808.3 255.153,1807.989 255.85,1808.163 C257.13,1808.481 257.602,1810.345 255.897,1811.908 L255.897,1811.908 Z" id="fileboard_love_favorite-[#1585]"></path>
            </g>
        </g>
    </g>
</svg>