<?xml version="1.0" encoding="UTF-8" standalone="no"?>
<svg width="20px" height="20px" viewBox="0 0 20 20" version="1.1" xmlns="http://www.w3.org/2000/svg" xmlns:xlink="http://www.w3.org/1999/xlink">
    <!-- Generator: Sketch 3.8.1 (29687) - http://www.bohemiancoding.com/sketch -->
    <title>file_double [#1715]</title>
    <desc>Created with Sketch.</desc>
    <defs></defs>
    <g id="Page-1" stroke="none" stroke-width="1" fill="none" fill-rule="evenodd">
        <g id="Dribbble-Dark-Preview" transform="translate(-300.000000, -1439.000000)" fill="#FFFFFF">
            <g id="icons" transform="translate(56.000000, 160.000000)">
                <path d="M260,1297.97666 L260,1298.00259 C260,1298.55316 259.552,1298.94813 259,1298.94813 L246,1298.94813 L246,1299 C244.895,1299 244,1298.15919 244,1297.05805 L244,1284.09176 C244,1283.5402 244.448,1283.09435 245,1283.09435 C245.552,1283.09435 246,1283.5402 246,1284.09176 L246,1296.06064 C246,1296.61121 246.448,1296.95332 247,1296.95332 L259,1296.95332 C259.552,1296.95332 260,1297.42609 260,1297.97666 L260,1297.97666 Z M262,1292.07102 C262,1292.62158 261.552,1292.96369 261,1292.96369 L251,1292.96369 C250.448,1292.96369 250,1292.62158 250,1292.07102 L250,1282.09695 C250,1281.54538 250.448,1280.99481 251,1280.99481 L256,1280.99481 L256,1285.08917 C256,1286.19031 256.895,1286.97925 258,1286.97925 L262,1286.97925 L262,1292.07102 Z M263.707,1284.771 L258.293,1279.34411 C258.105,1279.15759 257.851,1279 257.586,1279 L250,1279 L250,1279.05187 C248.895,1279.05187 248,1279.97147 248,1281.07261 L248,1281.09954 L248,1293.06842 C248,1294.16956 248.895,1295.01037 250,1295.01037 L250,1294.95851 L262,1294.95851 L262,1295.01037 C263.105,1295.01037 264,1294.14363 264,1293.04149 L264,1285.50209 C264,1285.23778 263.895,1284.95751 263.707,1284.771 L263.707,1284.771 Z" id="file_double-[#1715]"></path>
            </g>
        </g>
    </g>
</svg>