<?xml version="1.0" encoding="UTF-8" standalone="no"?>
<svg width="14px" height="20px" viewBox="0 0 14 20" version="1.1" xmlns="http://www.w3.org/2000/svg" xmlns:xlink="http://www.w3.org/1999/xlink">
    <!-- Generator: Sketch 3.8.1 (29687) - http://www.bohemiancoding.com/sketch -->
    <title>fileboard_minus [#1593]</title>
    <desc>Created with Sketch.</desc>
    <defs></defs>
    <g id="Page-1" stroke="none" stroke-width="1" fill="none" fill-rule="evenodd">
        <g id="Dribbble-Dark-Preview" transform="translate(-383.000000, -1919.000000)" fill="#FFFFFF">
            <g id="icons" transform="translate(56.000000, 160.000000)">
                <path d="M337,1770 C337,1770.552 336.552,1771 336,1771 L332,1771 C331.448,1771 331,1770.552 331,1770 C331,1769.448 331.448,1769 332,1769 L336,1769 C336.552,1769 337,1769.448 337,1770 L337,1770 Z M339,1775.917 C339,1776.469 338.552,1777 338,1777 L330,1777 C329.448,1777 329,1776.469 329,1775.917 L329,1763.417 C329,1763.141 329.224,1763 329.5,1763 L330,1763 C330,1764 330.895,1765 332,1765 L336,1765 C337.105,1765 338,1764 338,1763 L338.5,1763 C338.776,1763 339,1763.141 339,1763.417 L339,1775.917 Z M333,1761 L335,1761 C335.552,1761 336,1761.448 336,1762 C336,1762.552 335.552,1763 335,1763 L333,1763 C332.448,1763 332,1762.552 332,1762 C332,1761.448 332.448,1761 333,1761 L333,1761 Z M339,1761 L338,1761 C338,1760 337.105,1759 336,1759 L332,1759 C330.895,1759 330,1760 330,1761 L329,1761 C327.895,1761 327,1761.812 327,1762.917 L327,1776.917 C327,1778.021 327.895,1779 329,1779 L339,1779 C340.105,1779 341,1778.021 341,1776.917 L341,1762.917 C341,1761.812 340.105,1761 339,1761 L339,1761 Z" id="fileboard_minus-[#1593]"></path>
            </g>
        </g>
    </g>
</svg>