<?xml version="1.0" encoding="UTF-8" standalone="no"?>
<svg width="14px" height="20px" viewBox="0 0 14 20" version="1.1" xmlns="http://www.w3.org/2000/svg" xmlns:xlink="http://www.w3.org/1999/xlink">
    <!-- Generator: Sketch 3.8.1 (29687) - http://www.bohemiancoding.com/sketch -->
    <title>fileboard_plus [#1582]</title>
    <desc>Created with Sketch.</desc>
    <defs></defs>
    <g id="Page-1" stroke="none" stroke-width="1" fill="none" fill-rule="evenodd">
        <g id="Dribbble-Dark-Preview" transform="translate(-423.000000, -1959.000000)" fill="#FFFFFF">
            <g id="icons" transform="translate(56.000000, 160.000000)">
                <path d="M375,1810 L377,1810 L377,1812 L375,1812 L375,1814 L373,1814 L373,1812 L371,1812 L371,1810 L373,1810 L373,1808 L375,1808 L375,1810 Z M379,1817 L369,1817 L369,1803 L370,1803 L370,1805 L378,1805 L378,1803 L379,1803 L379,1817 Z M372,1803 L376,1803 L376,1801 L372,1801 L372,1803 Z M378,1801 L378,1799 L370,1799 L370,1801 L367,1801 L367,1819 L381,1819 L381,1801 L378,1801 Z" id="fileboard_plus-[#1582]"></path>
            </g>
        </g>
    </g>
</svg>