<?xml version="1.0" encoding="UTF-8" standalone="no"?>
<svg width="20px" height="20px" viewBox="0 0 20 20" version="1.1" xmlns="http://www.w3.org/2000/svg" xmlns:xlink="http://www.w3.org/1999/xlink">
    <!-- Generator: Sketch 3.8.1 (29687) - http://www.bohemiancoding.com/sketch -->
    <title>file_header [#1702]</title>
    <desc>Created with Sketch.</desc>
    <defs></defs>
    <g id="Page-1" stroke="none" stroke-width="1" fill="none" fill-rule="evenodd">
        <g id="Dribbble-Dark-Preview" transform="translate(-420.000000, -1479.000000)" fill="#FFFFFF">
            <g id="icons" transform="translate(56.000000, 160.000000)">
                <path d="M374,1323.98753 L374,1325.98235 C374,1326.53292 373.552,1326.97975 373,1326.97975 L369,1326.97975 C368.448,1326.97975 368,1326.53292 368,1325.98235 L368,1323.98753 C368,1323.43697 368.448,1322.99013 369,1322.99013 L373,1322.99013 C373.552,1322.99013 374,1323.43697 374,1323.98753 L374,1323.98753 Z M382,1336.06114 C382,1336.61171 381.552,1336.95382 381,1336.95382 L367,1336.95382 C366.448,1336.95382 366,1336.61171 366,1336.06114 L366,1322.09745 C366,1321.54588 366.448,1320.99531 367,1320.99531 L376,1320.99531 L376,1325.08967 C376,1326.19081 376.895,1326.97975 378,1326.97975 L382,1326.97975 L382,1336.06114 Z M383.707,1324.7715 L378.293,1319.34461 C378.105,1319.15809 377.851,1319.0005 377.586,1319.0005 L366,1319.0005 L366,1319.05237 C364.895,1319.05237 364,1319.97197 364,1321.07311 L364,1321.10004 L364,1337.05855 C364,1338.15969 364.895,1339.0005 366,1339.0005 L366,1338.94863 L382,1338.94863 L382,1339.0005 C383.105,1339.0005 384,1338.13375 384,1337.03162 L384,1325.50259 C384,1325.23828 383.895,1324.95801 383.707,1324.7715 L383.707,1324.7715 Z" id="file_header-[#1702]"></path>
            </g>
        </g>
    </g>
</svg>