<?xml version="1.0" encoding="UTF-8" standalone="no"?>
<svg width="20px" height="20px" viewBox="0 0 20 20" version="1.1" xmlns="http://www.w3.org/2000/svg" xmlns:xlink="http://www.w3.org/1999/xlink">
    <!-- Generator: Sketch 3.8.1 (29687) - http://www.bohemiancoding.com/sketch -->
    <title>file_php [#1744]</title>
    <desc>Created with Sketch.</desc>
    <defs></defs>
    <g id="Page-1" stroke="none" stroke-width="1" fill="none" fill-rule="evenodd">
        <g id="Dribbble-Dark-Preview" transform="translate(-340.000000, -1319.000000)" fill="#FFFFFF">
            <g id="icons" transform="translate(56.000000, 160.000000)">
                <path d="M295,1174.0005 L293,1174.0005 L293,1171.0005 L291,1171.0005 L291,1179.0005 L293,1179.0005 L293,1176.0005 L295,1176.0005 L295,1179.0005 L297,1179.0005 L297,1171.0005 L295,1171.0005 L295,1174.0005 Z M302,1174.1055 C302,1173.5525 301.552,1173.1055 301,1173.1055 L300,1173.1055 L300,1175.1055 L301,1175.1055 C301.552,1175.1055 302,1174.6575 302,1174.1055 L302,1174.1055 Z M304,1174.0005 C304,1175.6575 302.657,1177.0005 301,1177.0005 L300,1177.0005 L300,1179.0005 L298,1179.0005 L298,1171.0005 L301,1171.0005 C302.657,1171.0005 304,1172.3435 304,1174.0005 L304,1174.0005 Z M288,1174.1055 C288,1173.5525 287.552,1173.1055 287,1173.1055 L286,1173.1055 L286,1175.1055 L287,1175.1055 C287.552,1175.1055 288,1174.6575 288,1174.1055 L288,1174.1055 Z M290,1174.0005 C290,1175.6575 288.657,1177.0005 287,1177.0005 L286,1177.0005 L286,1179.0005 L284,1179.0005 L284,1171.0005 L287,1171.0005 C288.657,1171.0005 290,1172.3435 290,1174.0005 L290,1174.0005 Z M304,1165.4385 L304,1169.0005 L302,1169.0005 L302,1167.0005 L296,1167.0005 L296,1161.0005 L286,1161.0005 L286,1169.0005 L284,1169.0005 L284,1159.0005 L297.979,1159.0005 L304,1165.4385 Z" id="file_php-[#1744]"></path>
            </g>
        </g>
    </g>
</svg>