<?xml version="1.0" encoding="UTF-8" standalone="no"?>
<svg width="20px" height="20px" viewBox="0 0 20 20" version="1.1" xmlns="http://www.w3.org/2000/svg" xmlns:xlink="http://www.w3.org/1999/xlink">
    <!-- Generator: Sketch 3.8.1 (29687) - http://www.bohemiancoding.com/sketch -->
    <title>file_image [#1687]</title>
    <desc>Created with Sketch.</desc>
    <defs></defs>
    <g id="Page-1" stroke="none" stroke-width="1" fill="none" fill-rule="evenodd">
        <g id="Dribbble-Dark-Preview" transform="translate(-220.000000, -1559.000000)" fill="#FFFFFF">
            <g id="icons" transform="translate(56.000000, 160.000000)">
                <path d="M176,1409.1052 C176,1408.5532 176.448,1408.1052 177,1408.1052 C177.552,1408.1052 178,1408.5532 178,1409.1052 C178,1409.6572 177.552,1410.1052 177,1410.1052 C176.448,1410.1052 176,1409.6572 176,1409.1052 L176,1409.1052 Z M176.75,1412.0532 L180,1416.0002 L168,1416.0002 L172.518,1410.0532 L175.354,1414.1052 L176.75,1412.0532 Z M182,1417.0002 L166,1417.0002 L166,1401.0002 L176,1401.0002 L176,1407.0002 L182,1407.0002 L182,1417.0002 Z M178,1399.0002 L164,1399.0002 L164,1419.0002 L166,1419.0002 L182,1419.0002 L184,1419.0002 L184,1405.1052 L178,1399.0002 Z" id="file_image-[#1687]"></path>
            </g>
        </g>
    </g>
</svg>