<?xml version="1.0" encoding="UTF-8" standalone="no"?>
<svg width="20px" height="20px" viewBox="0 0 20 20" version="1.1" xmlns="http://www.w3.org/2000/svg" xmlns:xlink="http://www.w3.org/1999/xlink">
    <!-- Generator: Sketch 3.8.1 (29687) - http://www.bohemiancoding.com/sketch -->
    <title>file_ai [#1736]</title>
    <desc>Created with Sketch.</desc>
    <defs></defs>
    <g id="Page-1" stroke="none" stroke-width="1" fill="none" fill-rule="evenodd">
        <g id="Dribbble-Dark-Preview" transform="translate(-260.000000, -1359.000000)" fill="#FFFFFF">
            <g id="icons" transform="translate(56.000000, 160.000000)">
                <path d="M224,1204.6523 L224,1219.0003 L219,1219.0003 L219,1217.0003 L222,1217.0003 L222,1207.0003 L216,1207.0003 L216,1201.0003 L206,1201.0003 L206,1209.0003 L204,1209.0003 L204,1199.0003 L217.979,1199.0003 L224,1204.6523 Z M217,1211.0003 L217,1213.0003 L215,1213.0003 L215,1217.0003 L217,1217.0003 L217,1219.0003 L211,1219.0003 L211,1217.0003 L213,1217.0003 L213,1213.0003 L211,1213.0003 L211,1211.0003 L217,1211.0003 Z M206,1215.1053 L208,1215.1053 L208,1213.1053 L206,1213.1053 L206,1215.1053 Z M204,1211.0003 L204,1219.0003 L206,1219.0003 L206,1217.0003 L208,1217.0003 L208,1219.0003 L210,1219.0003 L210,1211.0003 L204,1211.0003 Z" id="file_ai-[#1736]"></path>
            </g>
        </g>
    </g>
</svg>