<?xml version="1.0" encoding="UTF-8" standalone="no"?>
<svg width="14px" height="20px" viewBox="0 0 14 20" version="1.1" xmlns="http://www.w3.org/2000/svg" xmlns:xlink="http://www.w3.org/1999/xlink">
    <!-- Generator: Sketch 3.8.1 (29687) - http://www.bohemiancoding.com/sketch -->
    <title>fileboard_checklist [#1594]</title>
    <desc>Created with Sketch.</desc>
    <defs></defs>
    <g id="Page-1" stroke="none" stroke-width="1" fill="none" fill-rule="evenodd">
        <g id="Dribbble-Dark-Preview" transform="translate(-343.000000, -1919.000000)" fill="#FFFFFF">
            <g id="icons" transform="translate(56.000000, 160.000000)">
                <path d="M293,1775 L298,1775 L298,1773 L293,1773 L293,1775 Z M293,1772 L298,1772 L298,1770 L293,1770 L293,1772 Z M293,1769 L298,1769 L298,1767 L293,1767 L293,1769 Z M289.992,1775 L291.992,1775 L291.992,1773 L289.992,1773 L289.992,1775 Z M289.992,1772 L291.992,1772 L291.992,1770 L289.992,1770 L289.992,1772 Z M289.992,1769 L291.992,1769 L291.992,1767 L289.992,1767 L289.992,1769 Z M299,1777 L289,1777 L289,1763 L290,1763 L290,1765 L298,1765 L298,1763 L299,1763 L299,1777 Z M292,1763 L296,1763 L296,1761 L292,1761 L292,1763 Z M298,1761 L298,1759 L290,1759 L290,1761 L287,1761 L287,1779 L301,1779 L301,1761 L298,1761 Z" id="fileboard_checklist-[#1594]"></path>
            </g>
        </g>
    </g>
</svg>