<?xml version="1.0" encoding="UTF-8" standalone="no"?>
<svg width="20px" height="20px" viewBox="0 0 20 20" version="1.1" xmlns="http://www.w3.org/2000/svg" xmlns:xlink="http://www.w3.org/1999/xlink">
    <!-- Generator: Sketch 3.8.1 (29687) - http://www.bohemiancoding.com/sketch -->
    <title>file_cpp [#1722]</title>
    <desc>Created with Sketch.</desc>
    <defs></defs>
    <g id="Page-1" stroke="none" stroke-width="1" fill="none" fill-rule="evenodd">
        <g id="Dribbble-Dark-Preview" transform="translate(-420.000000, -1399.000000)" fill="#FFFFFF">
            <g id="icons" transform="translate(56.000000, 160.000000)">
                <path d="M377.9792,1239.0005 L364.0002,1239.0005 L364.0002,1249.0005 L366.0002,1249.0005 L366.0002,1241.0005 L376.0002,1241.0005 L376.0002,1247.0005 L382.0002,1247.0005 L382.0002,1249.0005 L384.0002,1249.0005 L384.0002,1245.4385 L377.9792,1239.0005 Z M382.0002,1254.1045 C382.0002,1253.5525 381.5522,1253.1045 381.0002,1253.1045 L380.0002,1253.1045 L380.0002,1255.1045 L381.0002,1255.1045 C381.5522,1255.1045 382.0002,1254.6575 382.0002,1254.1045 L382.0002,1254.1045 Z M384.0002,1254.0005 C384.0002,1255.6575 382.6572,1257.0005 381.0002,1257.0005 L380.0002,1257.0005 L380.0002,1259.0005 L378.0002,1259.0005 L378.0002,1251.0005 L381.0002,1251.0005 C382.6572,1251.0005 384.0002,1252.3435 384.0002,1254.0005 L384.0002,1254.0005 Z M375.0002,1254.1045 C375.0002,1253.5525 374.5522,1253.1045 374.0002,1253.1045 L373.0002,1253.1045 L373.0002,1255.1045 L374.0002,1255.1045 C374.5522,1255.1045 375.0002,1254.6575 375.0002,1254.1045 L375.0002,1254.1045 Z M377.0002,1254.0005 C377.0002,1255.6575 375.6572,1257.0005 374.0002,1257.0005 L373.0002,1257.0005 L373.0002,1259.0005 L371.0002,1259.0005 L371.0002,1251.0005 L374.0002,1251.0005 C375.6572,1251.0005 377.0002,1252.3435 377.0002,1254.0005 L377.0002,1254.0005 Z M368.0002,1251.0005 L370.0002,1251.0005 L370.0002,1253.0005 L368.0002,1253.0005 C366.8952,1253.0005 366.0002,1253.8965 366.0002,1255.0005 C366.0002,1256.1045 366.8952,1257.0005 368.0002,1257.0005 L370.0002,1257.0005 L370.0002,1259.0005 L368.0002,1259.0005 C365.7912,1259.0005 364.0002,1257.2095 364.0002,1255.0005 C364.0002,1252.7915 365.7912,1251.0005 368.0002,1251.0005 L368.0002,1251.0005 Z" id="file_cpp-[#1722]"></path>
            </g>
        </g>
    </g>
</svg>