<?xml version="1.0" encoding="UTF-8" standalone="no"?>
<svg width="20px" height="20px" viewBox="0 0 20 20" version="1.1" xmlns="http://www.w3.org/2000/svg" xmlns:xlink="http://www.w3.org/1999/xlink">
    <!-- Generator: Sketch 3.8.1 (29687) - http://www.bohemiancoding.com/sketch -->
    <title>file_image [#1708]</title>
    <desc>Created with Sketch.</desc>
    <defs></defs>
    <g id="Page-1" stroke="none" stroke-width="1" fill="none" fill-rule="evenodd">
        <g id="Dribbble-Dark-Preview" transform="translate(-180.000000, -1479.000000)" fill="#FFFFFF">
            <g id="icons" transform="translate(56.000000, 160.000000)">
                <path d="M136,1329.07849 C136,1328.52795 136.448,1328.08114 137,1328.08114 C137.552,1328.08114 138,1328.52795 138,1329.07849 C138,1329.62903 137.552,1330.07585 137,1330.07585 C136.448,1330.07585 136,1329.62903 136,1329.07849 L136,1329.07849 Z M136.75,1332.0187 L140,1335.95527 L128,1335.95527 L132.518,1330.02399 L135.354,1334.06528 L136.75,1332.0187 Z M128,1325.9817 L128,1323.98699 C128,1323.43644 128.448,1322.98963 129,1322.98963 L133,1322.98963 C133.552,1322.98963 134,1323.43644 134,1323.98699 L134,1325.9817 C134,1326.53324 133.552,1326.97906 133,1326.97906 L129,1326.97906 C128.448,1326.97906 128,1326.53324 128,1325.9817 L128,1325.9817 Z M142,1336.05999 C142,1336.61053 141.552,1336.95263 141,1336.95263 L127,1336.95263 C126.448,1336.95263 126,1336.61053 126,1336.05999 L126,1322.09699 C126,1321.54645 126.448,1320.99491 127,1320.99491 L136,1320.99491 L136,1325.08906 C136,1326.19015 136.895,1326.97906 138,1326.97906 L142,1326.97906 L142,1336.05999 Z M143.707,1324.77091 L138.293,1319.34429 C138.105,1319.15778 137.851,1319.0002 137.586,1319.0002 L126,1319.0002 L126,1319.05306 C124.895,1319.05306 124,1319.97163 124,1321.07371 L124,1321.09964 L124,1337.05735 C124,1338.15843 124.895,1339.0002 126,1339.0002 L126,1338.94734 L142,1338.94734 L142,1339.0002 C143.105,1339.0002 144,1338.1325 144,1337.03142 L144,1325.50197 C144,1325.23767 143.895,1324.95741 143.707,1324.77091 L143.707,1324.77091 Z" id="file_image-[#1708]"></path>
            </g>
        </g>
    </g>
</svg>