<?xml version="1.0" encoding="UTF-8" standalone="no"?>
<svg width="23px" height="23px" viewBox="0 0 23 23" version="1.1" xmlns="http://www.w3.org/2000/svg" xmlns:xlink="http://www.w3.org/1999/xlink">
    <!-- Generator: Sketch 3.8.1 (29687) - http://www.bohemiancoding.com/sketch -->
    <title>file_love_favorite [#1580]</title>
    <desc>Created with Sketch.</desc>
    <defs></defs>
    <g id="Page-1" stroke="none" stroke-width="1" fill="none" fill-rule="evenodd">
        <g id="Dribbble-Dark-Preview" transform="translate(-97.000000, -1999.000000)" fill="#FFFFFF">
            <g id="icons" transform="translate(56.000000, 160.000000)">
                <path d="M47.464626,1855.3748 C46.5359093,1855.14344 45.7081617,1855.55808 45.1533309,1856.26717 C45.0753547,1856.36633 44.9214017,1856.36833 44.8434255,1856.27018 C44.2466075,1855.51101 43.3308868,1855.09036 42.3551844,1855.42788 C40.8096558,1855.9617 40.2698204,1858.32935 42.3971716,1860.3104 C44.6474852,1862.40762 45.0083752,1862.69106 47.5266071,1860.3775 C49.798914,1858.28929 49.1731049,1855.80046 47.464626,1855.3748 L47.464626,1855.3748 Z M63.9925849,1845.08997 L63.9925849,1859.03143 L50.9965487,1859.03143 L50.9965487,1857.02835 L61.9931947,1857.02835 L61.9931947,1847.01293 L55.9950242,1847.01293 L55.9950242,1841.00368 L45.9980733,1841.00368 L45.9980733,1853.02218 L43.9986831,1853.02218 L43.9986831,1839.0006 L58.1903546,1839.0006 L63.9925849,1845.08997 Z" id="file_love_favorite-[#1580]"></path>
            </g>
        </g>
    </g>
</svg>