<?xml version="1.0" encoding="UTF-8" standalone="no"?>
<svg width="24px" height="23px" viewBox="0 0 24 23" version="1.1" xmlns="http://www.w3.org/2000/svg" xmlns:xlink="http://www.w3.org/1999/xlink">
    <!-- Generator: Sketch 3.8.1 (29687) - http://www.bohemiancoding.com/sketch -->
    <title>file_missing_love_favorite [#1721]</title>
    <desc>Created with Sketch.</desc>
    <defs></defs>
    <g id="Page-1" stroke="none" stroke-width="1" fill="none" fill-rule="evenodd">
        <g id="Dribbble-Dark-Preview" transform="translate(-56.000000, -1439.000000)" fill="#FFFFFF">
            <g id="icons" transform="translate(56.000000, 160.000000)">
                <path d="M4.91890515,1296.26449 C4.84264252,1296.36362 4.68912684,1296.36562 4.61187379,1296.26649 C2.48048192,1293.53376 -1.27124316,1297.05456 2.18830692,1300.30601 C4.41775074,1302.40287 4.77529371,1302.68726 7.27017108,1300.3741 C10.8871985,1297.02052 7.01761303,1293.55478 4.91890515,1296.26449 M22.7871397,1289.11873 C22.2404258,1289.11873 21.7967159,1289.56734 21.7967159,1290.12009 C21.7967159,1290.67385 22.2404258,1291.12146 22.7871397,1291.12146 C23.3338536,1291.12146 23.7775634,1290.67385 23.7775634,1290.12009 C23.7775634,1289.56734 23.3338536,1289.11873 22.7871397,1289.11873 M14.8637498,1297.12967 C14.3170359,1297.12967 13.8733261,1297.57828 13.8733261,1298.13103 C13.8733261,1298.68479 14.3170359,1299.1324 14.8637498,1299.1324 C15.4104637,1299.1324 15.8541735,1298.68479 15.8541735,1298.13103 C15.8541735,1297.57828 15.4104637,1297.12967 14.8637498,1297.12967 M18.8254447,1297.12967 C18.2787308,1297.12967 17.835021,1297.57828 17.835021,1298.13103 C17.835021,1298.68479 18.2787308,1299.1324 18.8254447,1299.1324 C19.3721586,1299.1324 19.8158685,1298.68479 19.8158685,1298.13103 C19.8158685,1297.57828 19.3721586,1297.12967 18.8254447,1297.12967 M22.7871397,1297.12967 C22.2404258,1297.12967 21.7967159,1297.57828 21.7967159,1298.13103 C21.7967159,1298.68479 22.2404258,1299.1324 22.7871397,1299.1324 C23.3338536,1299.1324 23.7775634,1298.68479 23.7775634,1298.13103 C23.7775634,1297.57828 23.3338536,1297.12967 22.7871397,1297.12967 M4.95951252,1281.10778 C5.50622642,1281.10778 5.94993625,1280.66017 5.94993625,1280.10642 C5.94993625,1279.55366 5.50622642,1279.10505 4.95951252,1279.10505 C4.41279862,1279.10505 3.96908879,1279.55366 3.96908879,1280.10642 C3.96908879,1280.66017 4.41279862,1281.10778 4.95951252,1281.10778 M22.7871397,1293.1242 C22.2404258,1293.1242 21.7967159,1293.57281 21.7967159,1294.12556 C21.7967159,1294.67932 22.2404258,1295.12693 22.7871397,1295.12693 C23.3338536,1295.12693 23.7775634,1294.67932 23.7775634,1294.12556 C23.7775634,1293.57281 23.3338536,1293.1242 22.7871397,1293.1242 M8.92120744,1279.10505 C8.37449354,1279.10505 7.93078371,1279.55366 7.93078371,1280.10642 C7.93078371,1280.66017 8.37449354,1281.10778 8.92120744,1281.10778 C9.46792134,1281.10778 9.91163117,1280.66017 9.91163117,1280.10642 C9.91163117,1279.55366 9.46792134,1279.10505 8.92120744,1279.10505 M12.8829024,1279.10505 C12.3361885,1279.10505 11.8924786,1279.55366 11.8924786,1280.10642 C11.8924786,1280.66017 12.3361885,1281.10778 12.8829024,1281.10778 C13.4296163,1281.10778 13.8733261,1280.66017 13.8733261,1280.10642 C13.8733261,1279.55366 13.4296163,1279.10505 12.8829024,1279.10505 M4.95951252,1285.11325 C5.50622642,1285.11325 5.94993625,1284.66564 5.94993625,1284.11189 C5.94993625,1283.55913 5.50622642,1283.11052 4.95951252,1283.11052 C4.41279862,1283.11052 3.96908879,1283.55913 3.96908879,1284.11189 C3.96908879,1284.66564 4.41279862,1285.11325 4.95951252,1285.11325 M4.95951252,1293.1242 C5.50622642,1293.1242 5.94993625,1292.67658 5.94993625,1292.12283 C5.94993625,1291.57007 5.50622642,1291.12146 4.95951252,1291.12146 C4.41279862,1291.12146 3.96908879,1291.57007 3.96908879,1292.12283 C3.96908879,1292.67658 4.41279862,1293.1242 4.95951252,1293.1242 M10.9020549,1297.12967 C10.355341,1297.12967 9.91163117,1297.57828 9.91163117,1298.13103 C9.91163117,1298.68479 10.355341,1299.1324 10.9020549,1299.1324 C11.4487688,1299.1324 11.8924786,1298.68479 11.8924786,1298.13103 C11.8924786,1297.57828 11.4487688,1297.12967 10.9020549,1297.12967 M23.4873692,1284.81985 L18.1252152,1279.34638 C17.7151797,1278.93081 17.4348898,1279.00091 16.8445973,1279.00091 C16.2978834,1279.00091 15.8541735,1279.55366 15.8541735,1280.10642 L15.8541735,1285.11325 C15.8541735,1286.21977 16.7415932,1287.01185 17.835021,1287.01185 L22.7871397,1287.01185 C23.3338536,1287.01185 23.7775634,1286.66838 23.7775634,1286.11462 C23.7775634,1285.58991 23.8439218,1285.18035 23.4873692,1284.81985 M3.96908879,1288.11736 C3.96908879,1287.5646 4.41279862,1287.11599 4.95951252,1287.11599 C5.50622642,1287.11599 5.94993625,1287.5646 5.94993625,1288.11736 C5.94993625,1288.67111 5.50622642,1289.11873 4.95951252,1289.11873 C4.41279862,1289.11873 3.96908879,1288.67111 3.96908879,1288.11736" id="file_missing_love_favorite-[#1721]"></path>
            </g>
        </g>
    </g>
</svg>