<?xml version="1.0" encoding="UTF-8" standalone="no"?>
<svg width="20px" height="20px" viewBox="0 0 20 20" version="1.1" xmlns="http://www.w3.org/2000/svg" xmlns:xlink="http://www.w3.org/1999/xlink">
    <!-- Generator: Sketch 3.8.1 (29687) - http://www.bohemiancoding.com/sketch -->
    <title>file_src [#1724]</title>
    <desc>Created with Sketch.</desc>
    <defs></defs>
    <g id="Page-1" stroke="none" stroke-width="1" fill="none" fill-rule="evenodd">
        <g id="Dribbble-Dark-Preview" transform="translate(-340.000000, -1399.000000)" fill="#FFFFFF">
            <g id="icons" transform="translate(56.000000, 160.000000)">
                <path d="M297.9792,1239.0005 L284.0002,1239.0005 L284.0002,1249.0005 L286.0002,1249.0005 L286.0002,1241.0005 L296.0002,1241.0005 L296.0002,1247.0005 L302.0002,1247.0005 L302.0002,1249.0005 L304.0002,1249.0005 L304.0002,1245.4385 L297.9792,1239.0005 Z M295.0002,1254.1055 C295.0002,1253.5525 294.5522,1253.1055 294.0002,1253.1055 L293.0002,1253.1055 L293.0002,1255.1055 L294.0002,1255.1055 C294.5522,1255.1055 295.0002,1254.6575 295.0002,1254.1055 L295.0002,1254.1055 Z M295.7242,1256.4755 L297.0002,1259.0005 L295.0002,1259.0005 L294.0002,1257.0005 L293.0002,1257.0005 L293.0002,1259.0005 L291.0002,1259.0005 L291.0002,1251.0005 L294.0002,1251.0005 C295.6572,1251.0005 297.0002,1252.3965 297.0002,1254.0525 C297.0002,1255.0665 296.4942,1255.9325 295.7242,1256.4755 L295.7242,1256.4755 Z M286.0002,1251.0005 C284.8952,1251.0005 284.0002,1252.0005 284.0002,1253.1055 L284.0002,1254.1055 C284.0002,1255.2095 284.8952,1256.0005 286.0002,1256.0005 L287.5002,1256.0005 C287.7762,1256.0005 288.0002,1256.2245 288.0002,1256.5005 C288.0002,1256.7765 287.7762,1257.0005 287.5002,1257.0005 L284.0002,1257.0005 L284.0002,1259.0005 L288.0002,1259.0005 L288.0212,1259.0005 C289.1142,1259.0005 290.0002,1258.2195 290.0002,1257.1255 L290.0002,1256.0845 C290.0002,1254.9915 289.1142,1254.0005 288.0212,1254.0005 L288.0002,1254.0005 L286.5002,1254.0005 C286.2242,1254.0005 286.0002,1253.7765 286.0002,1253.5005 C286.0002,1253.2245 286.2242,1253.0005 286.5002,1253.0005 L290.0002,1253.0005 L290.0002,1251.0005 L286.0002,1251.0005 Z M302.0002,1251.0005 L304.0002,1251.0005 L304.0002,1253.0005 L302.0002,1253.0005 C300.8952,1253.0005 300.0002,1253.8955 300.0002,1255.0005 C300.0002,1256.1045 300.8952,1257.0005 302.0002,1257.0005 L304.0002,1257.0005 L304.0002,1259.0005 L302.0002,1259.0005 C299.7912,1259.0005 298.0002,1257.2095 298.0002,1255.0005 C298.0002,1252.7915 299.7912,1251.0005 302.0002,1251.0005 L302.0002,1251.0005 Z" id="file_src-[#1724]"></path>
            </g>
        </g>
    </g>
</svg>