<?xml version="1.0" encoding="UTF-8" standalone="no"?>
<svg width="20px" height="20px" viewBox="0 0 20 20" version="1.1" xmlns="http://www.w3.org/2000/svg" xmlns:xlink="http://www.w3.org/1999/xlink">
    <!-- Generator: Sketch 3.8.1 (29687) - http://www.bohemiancoding.com/sketch -->
    <title>fileboard [#1801]</title>
    <desc>Created with Sketch.</desc>
    <defs></defs>
    <g id="Page-1" stroke="none" stroke-width="1" fill="none" fill-rule="evenodd">
        <g id="Dribbble-Dark-Preview" transform="translate(-60.000000, -1119.000000)" fill="#FFFFFF">
            <g id="icons" transform="translate(56.000000, 160.000000)">
                <path d="M10,969 L18,969 L18,967 L10,967 L10,969 Z M10,973 L18,973 L18,971 L10,971 L10,973 Z M11,963 L17,963 L17,959 L11,959 L11,963 Z M24,959 L24,979 L4,979 L4,959 L9,959 L9,961 L6,961 L6,977 L22,977 L22,961 L19,961 L19,959 L24,959 Z" id="fileboard-[#1801]"></path>
            </g>
        </g>
    </g>
</svg>