<?xml version="1.0" encoding="UTF-8" standalone="no"?>
<svg width="14px" height="20px" viewBox="0 0 14 20" version="1.1" xmlns="http://www.w3.org/2000/svg" xmlns:xlink="http://www.w3.org/1999/xlink">
    <!-- Generator: Sketch 3.8.1 (29687) - http://www.bohemiancoding.com/sketch -->
    <title>fileboard_plus [#1588]</title>
    <desc>Created with Sketch.</desc>
    <defs></defs>
    <g id="Page-1" stroke="none" stroke-width="1" fill="none" fill-rule="evenodd">
        <g id="Dribbble-Dark-Preview" transform="translate(-183.000000, -1959.000000)" fill="#FFFFFF">
            <g id="icons" transform="translate(56.000000, 160.000000)">
                <path d="M137,1811 C137,1811.552 136.552,1812 136,1812 L135,1812 L135,1813 C135,1813.552 134.552,1814 134,1814 C133.448,1814 133,1813.552 133,1813 L133,1812 L132,1812 C131.448,1812 131,1811.552 131,1811 C131,1810.448 131.448,1810 132,1810 L133,1810 L133,1809 C133,1808.448 133.448,1808 134,1808 C134.552,1808 135,1808.448 135,1809 L135,1810 L136,1810 C136.552,1810 137,1810.448 137,1811 L137,1811 Z M139,1816 C139,1816.552 138.552,1817 138,1817 L130,1817 C129.448,1817 129,1816.552 129,1816 L129,1803.5 C129,1803.224 129.224,1803 129.5,1803 L130,1803 C130,1804.104 130.895,1805 132,1805 L136,1805 C137.105,1805 138,1804.104 138,1803 L138.5,1803 C138.776,1803 139,1803.224 139,1803.5 L139,1816 Z M133,1801 L135,1801 C135.552,1801 136,1801.448 136,1802 C136,1802.552 135.552,1803 135,1803 L133,1803 C132.448,1803 132,1802.552 132,1802 C132,1801.448 132.448,1801 133,1801 L133,1801 Z M139,1801 L138,1801 C138,1799.895 137.105,1799 136,1799 L132,1799 C130.895,1799 130,1799.895 130,1801 L129,1801 C127.895,1801 127,1801.895 127,1803 L127,1817 C127,1818.104 127.895,1819 129,1819 L139,1819 C140.105,1819 141,1818.104 141,1817 L141,1803 C141,1801.895 140.105,1801 139,1801 L139,1801 Z" id="fileboard_plus-[#1588]"></path>
            </g>
        </g>
    </g>
</svg>