<?xml version="1.0" encoding="UTF-8" standalone="no"?>
<svg width="22px" height="22px" viewBox="0 0 22 22" version="1.1" xmlns="http://www.w3.org/2000/svg" xmlns:xlink="http://www.w3.org/1999/xlink">
    <!-- Generator: Sketch 3.8.1 (29687) - http://www.bohemiancoding.com/sketch -->
    <title>file_done [#1705]</title>
    <desc>Created with Sketch.</desc>
    <defs></defs>
    <g id="Page-1" stroke="none" stroke-width="1" fill="none" fill-rule="evenodd">
        <g id="Dribbble-Dark-Preview" transform="translate(-298.000000, -1479.000000)" fill="#FFFFFF">
            <g id="icons" transform="translate(56.000000, 160.000000)">
                <path d="M245.329132,1332.84581 C245.316153,1332.84581 245.302175,1332.84482 245.288198,1332.84482 C245.282208,1332.84482 245.279212,1332.84581 245.273222,1332.84581 L245.329132,1332.84581 Z M263.893198,1324.84886 L258.711553,1319.4401 C258.524854,1319.25615 258.271263,1319 258.007688,1319 L246.439342,1319 L246.41538,1319 C245.325138,1319 244.218922,1320.02756 244.218922,1321.10654 L243.996281,1321.25884 L243.996281,1332.16143 C243.996281,1332.69449 244.740082,1332.8379 245.288198,1332.84482 C245.825332,1332.84185 245.993061,1332.70142 245.993061,1332.16143 L245.993061,1322.27157 C245.993061,1321.72466 246.885622,1320.97797 247.437732,1320.97797 L255.976963,1320.97797 L255.976963,1325.26226 C255.976963,1326.34125 257.30582,1326.91189 258.396062,1326.91189 L261.967303,1326.91189 L261.967303,1336.11737 C261.967303,1336.6633 261.966305,1336.80175 261.415194,1336.80175 L251.431292,1336.80175 C250.892162,1336.80175 250.034545,1337.36844 249.994609,1337.90447 C250.034545,1338.42864 250.892162,1338.77973 251.431292,1338.77973 L262.413584,1338.77973 L262.437545,1338.77973 C263.526789,1338.77973 263.964084,1338.20908 263.964084,1337.1301 L263.964084,1337.08263 L263.964084,1325.62522 C263.964084,1325.36215 264.080895,1325.03381 263.893198,1324.84886 L263.893198,1324.84886 Z M249.986622,1337.94304 C249.986622,1337.93019 249.993611,1337.91733 249.994609,1337.90447 C249.993611,1337.89162 249.986622,1337.87975 249.986622,1337.86689 L249.986622,1337.94304 Z M248.5739,1335.45574 C248.96427,1335.84244 248.96427,1336.46846 248.5739,1336.85417 L244.388648,1341 L244.303785,1340.91495 L244.303785,1340.91495 L242.292029,1338.92214 C241.902657,1338.53644 241.902657,1337.91041 242.292029,1337.52371 C242.6824,1337.13801 243.314381,1337.13801 243.703753,1337.52371 L244.388648,1338.20216 L247.162176,1335.45574 C247.551548,1335.07004 248.183529,1335.07004 248.5739,1335.45574 L248.5739,1335.45574 Z" id="file_done-[#1705]"></path>
            </g>
        </g>
    </g>
</svg>