<?xml version="1.0" encoding="UTF-8" standalone="no"?>
<svg width="20px" height="20px" viewBox="0 0 20 20" version="1.1" xmlns="http://www.w3.org/2000/svg" xmlns:xlink="http://www.w3.org/1999/xlink">
    <!-- Generator: Sketch 3.8.1 (29687) - http://www.bohemiancoding.com/sketch -->
    <title>file_exe [#1731]</title>
    <desc>Created with Sketch.</desc>
    <defs></defs>
    <g id="Page-1" stroke="none" stroke-width="1" fill="none" fill-rule="evenodd">
        <g id="Dribbble-Dark-Preview" transform="translate(-60.000000, -1399.000000)" fill="#FFFFFF">
            <g id="icons" transform="translate(56.000000, 160.000000)">
                <path d="M17.9792,1239.0005 L4.0002,1239.0005 L4.0002,1241.4385 L4.0002,1249.0005 L6.0002,1249.0005 L6.0002,1241.0005 L16.0002,1241.0005 L16.0002,1247.0005 L22.0002,1247.0005 L22.0002,1249.0005 L24.0002,1249.0005 L24.0002,1245.4385 L17.9792,1239.0005 Z M18.0002,1251.0005 L18.0002,1259.0005 L24.0002,1259.0005 L24.0002,1257.0005 L20.0002,1257.0005 L20.0002,1256.0005 L24.0002,1256.0005 L24.0002,1254.0005 L20.0002,1254.0005 L20.0002,1253.0005 L24.0002,1253.0005 L24.0002,1251.0005 L18.0002,1251.0005 Z M4.0002,1251.0005 L4.0002,1259.0005 L10.0002,1259.0005 L10.0002,1257.0005 L6.0002,1257.0005 L6.0002,1256.0005 L10.0002,1256.0005 L10.0002,1254.0005 L6.0002,1254.0005 L6.0002,1253.0005 L10.0002,1253.0005 L10.0002,1251.0005 L4.0002,1251.0005 Z M16.9792,1251.0005 L14.9792,1255.0005 L16.9792,1259.0005 L14.9792,1259.0005 L13.9792,1257.0005 L12.9792,1259.0005 L10.9792,1259.0005 L12.9792,1255.0005 L10.9792,1251.0005 L12.9792,1251.0005 L13.9792,1253.0005 L14.9792,1251.0005 L16.9792,1251.0005 Z" id="file_exe-[#1731]"></path>
            </g>
        </g>
    </g>
</svg>