<?xml version="1.0" encoding="UTF-8" standalone="no"?>
<svg width="20px" height="20px" viewBox="0 0 20 20" version="1.1" xmlns="http://www.w3.org/2000/svg" xmlns:xlink="http://www.w3.org/1999/xlink">
    <!-- Generator: Sketch 3.8.1 (29687) - http://www.bohemiancoding.com/sketch -->
    <title>file_iso [#1770]</title>
    <desc>Created with Sketch.</desc>
    <defs></defs>
    <g id="Page-1" stroke="none" stroke-width="1" fill="none" fill-rule="evenodd">
        <g id="Dribbble-Dark-Preview" transform="translate(-100.000000, -1239.000000)" fill="#FFFFFF">
            <g id="icons" transform="translate(56.000000, 160.000000)">
                <path d="M63.7195,1085.149 L58.2665,1079.364 C58.0785,1079.165 57.8135,1079.001 57.5395,1079.001 L45.9895,1079.001 C44.8845,1079.001 43.9995,1080.001 43.9995,1081.105 L43.9995,1088.105 C43.9995,1088.657 44.4425,1089.001 44.9945,1089.001 L44.9975,1089.001 C45.5495,1089.001 45.9995,1088.657 45.9995,1088.105 L45.9995,1082.105 C45.9995,1081.553 46.4375,1081.001 46.9895,1081.001 L55.9995,1081.001 L55.9995,1085.105 C55.9995,1086.21 56.8845,1087.001 57.9895,1087.001 L61.9995,1087.001 L61.9995,1088.105 C61.9995,1088.657 62.4425,1089.001 62.9945,1089.001 L62.9975,1089.001 C63.5495,1089.001 63.9995,1088.657 63.9995,1088.105 L63.9995,1085.838 C63.9995,1085.581 63.8965,1085.335 63.7195,1085.149 L63.7195,1085.149 Z M61.9995,1093.501 C61.9995,1093.224 61.7765,1093.001 61.4995,1093.001 L60.4995,1093.001 C60.2235,1093.001 59.9995,1093.224 59.9995,1093.501 L59.9995,1096.501 C59.9995,1096.777 60.2235,1097.001 60.4995,1097.001 L61.4995,1097.001 C61.7765,1097.001 61.9995,1096.777 61.9995,1096.501 L61.9995,1093.501 Z M63.9995,1092.001 L63.9995,1098.001 C63.9995,1098.553 63.5525,1099.001 62.9995,1099.001 L58.9995,1099.001 C58.4475,1099.001 57.9995,1098.553 57.9995,1098.001 L57.9995,1092.001 C57.9995,1091.448 58.4475,1091.001 58.9995,1091.001 L62.9995,1091.001 C63.5525,1091.001 63.9995,1091.448 63.9995,1092.001 L63.9995,1092.001 Z M49.0105,1091.001 L45.0105,1091.001 C44.4625,1091.001 44.0105,1091.493 44.0025,1092.04 C44.0105,1092.585 44.4625,1093.001 45.0105,1093.001 L45.9995,1093.001 L45.9995,1097.001 L45.0105,1097.001 C44.4625,1097.001 44.0105,1097.493 44.0025,1098.04 C44.0105,1098.585 44.4625,1099.001 45.0105,1099.001 L49.0105,1099.001 C49.5625,1099.001 49.9995,1098.605 49.9995,1098.053 L49.9995,1098.027 C49.9995,1097.474 49.5625,1097.001 49.0105,1097.001 L47.9995,1097.001 L47.9995,1093.001 L49.0105,1093.001 C49.5625,1093.001 49.9995,1092.605 49.9995,1092.053 L49.9995,1092.027 C49.9995,1091.474 49.5625,1091.001 49.0105,1091.001 L49.0105,1091.001 Z M43.9995,1092.053 C43.9995,1092.048 44.0025,1092.044 44.0025,1092.04 C44.0025,1092.035 43.9995,1092.031 43.9995,1092.027 L43.9995,1092.053 Z M43.9995,1098.053 C43.9995,1098.048 44.0025,1098.044 44.0025,1098.04 C44.0025,1098.035 43.9995,1098.031 43.9995,1098.027 L43.9995,1098.053 Z M50.9995,1098.053 C50.9995,1098.048 51.0025,1098.044 51.0025,1098.04 C51.0025,1098.035 50.9995,1098.031 50.9995,1098.027 L50.9995,1098.053 Z M56.9995,1092.027 L56.9995,1092.053 C56.9995,1092.605 56.5625,1093.001 56.0105,1093.001 L53.5105,1093.001 C53.2345,1093.001 53.0105,1093.224 53.0105,1093.501 C53.0105,1093.777 53.2345,1094.001 53.5105,1094.001 L55.0105,1094.001 L55.0315,1094.001 C56.1245,1094.001 56.9995,1094.991 56.9995,1096.084 L56.9995,1097.126 C56.9995,1098.219 56.1245,1099.001 55.0315,1099.001 L55.0105,1099.001 L52.0105,1099.001 C51.4625,1099.001 51.0105,1098.585 51.0025,1098.04 C51.0105,1097.493 51.4625,1097.001 52.0105,1097.001 L54.5105,1097.001 C54.7865,1097.001 55.0105,1096.777 55.0105,1096.501 C55.0105,1096.224 54.7865,1096.001 54.5105,1096.001 L53.0105,1096.001 C51.9055,1096.001 50.9995,1095.21 50.9995,1094.105 L50.9995,1093.105 C50.9995,1092.001 51.9055,1091.001 53.0105,1091.001 L56.0105,1091.001 C56.5625,1091.001 56.9995,1091.474 56.9995,1092.027 L56.9995,1092.027 Z" id="file_iso-[#1770]"></path>
            </g>
        </g>
    </g>
</svg>