<?xml version="1.0" encoding="UTF-8" standalone="no"?>
<svg width="20px" height="20px" viewBox="0 0 20 20" version="1.1" xmlns="http://www.w3.org/2000/svg" xmlns:xlink="http://www.w3.org/1999/xlink">
    <!-- Generator: Sketch 3.8.1 (29687) - http://www.bohemiancoding.com/sketch -->
    <title>file_arrow_down [#1717]</title>
    <desc>Created with Sketch.</desc>
    <defs></defs>
    <g id="Page-1" stroke="none" stroke-width="1" fill="none" fill-rule="evenodd">
        <g id="Dribbble-Dark-Preview" transform="translate(-220.000000, -1439.000000)" fill="#FFFFFF">
            <g id="icons" transform="translate(56.000000, 160.000000)">
                <path d="M182,1296.011 C182,1296.557 181.557,1297 181.011,1297 L166.989,1297 C166.443,1297 166,1296.557 166,1296.011 L166,1281.989 C166,1281.443 166.443,1281 166.989,1281 L171,1281 L171,1291.201 C171,1291.641 170.472,1291.867 170.154,1291.561 L169.195,1290.642 C168.797,1290.259 168.163,1290.277 167.787,1290.681 C167.416,1291.079 167.436,1291.701 167.832,1292.075 L170.688,1294.769 C171.462,1295.499 172.672,1295.495 173.441,1294.76 L176.254,1292.075 C176.646,1291.701 176.664,1291.081 176.295,1290.685 L176.281,1290.67 C175.909,1290.27 175.283,1290.248 174.883,1290.62 L173.841,1291.591 C173.521,1291.889 173,1291.662 173,1291.225 L173,1281 L176,1281 L176,1285 C176,1286.105 176.895,1287 178,1287 L182,1287 L182,1296.011 Z M183.71,1284.71 L178.29,1279.29 C178.104,1279.104 177.853,1279 177.59,1279 L166,1279 C164.895,1279 164,1279.896 164,1281 L164,1297 C164,1298.105 164.895,1299 166,1299 L182,1299 C183.105,1299 184,1298.105 184,1297 L184,1285.41 C184,1285.147 183.896,1284.896 183.71,1284.71 L183.71,1284.71 Z" id="file_arrow_down-[#1717]"></path>
            </g>
        </g>
    </g>
</svg>