<?xml version="1.0" encoding="UTF-8" standalone="no"?>
<svg width="20px" height="20px" viewBox="0 0 20 20" version="1.1" xmlns="http://www.w3.org/2000/svg" xmlns:xlink="http://www.w3.org/1999/xlink">
    <!-- Generator: Sketch 3.8.1 (29687) - http://www.bohemiancoding.com/sketch -->
    <title>file_eps [#1752]</title>
    <desc>Created with Sketch.</desc>
    <defs></defs>
    <g id="Page-1" stroke="none" stroke-width="1" fill="none" fill-rule="evenodd">
        <g id="Dribbble-Dark-Preview" transform="translate(-420.000000, -1279.000000)" fill="#FFFFFF">
            <g id="icons" transform="translate(56.000000, 160.000000)">
                <path d="M383.7248,1125.1169 L378.2748,1119.36182 C378.0858,1119.16385 377.8238,1119.0007 377.5498,1119.0007 L365.9998,1119.0007 C364.8958,1119.0007 363.9998,1119.99553 363.9998,1121.09382 L363.9998,1128.0576 C363.9998,1128.60675 364.4478,1129.05243 364.9998,1129.05243 C365.5528,1129.05243 365.9998,1128.60675 365.9998,1128.0576 L365.9998,1122.08864 C365.9998,1121.5395 366.4478,1120.99035 366.9998,1120.99035 L375.9998,1120.99035 L375.9998,1125.07312 C375.9998,1126.17241 376.8958,1126.95932 377.9998,1126.95932 L381.9998,1126.95932 L381.9998,1128.0576 C381.9998,1128.60675 382.4478,1129.05243 382.9998,1129.05243 C383.5528,1129.05243 383.9998,1128.60675 383.9998,1128.0576 L383.9998,1125.80233 C383.9998,1125.54766 383.9018,1125.30193 383.7248,1125.1169 L383.7248,1125.1169 Z M374.9998,1134.02657 C374.9998,1133.47742 374.5528,1133.03174 373.9998,1133.03174 L372.9998,1133.03174 L372.9998,1135.02139 L373.9998,1135.02139 C374.5528,1135.02139 374.9998,1134.57571 374.9998,1134.02657 L374.9998,1134.02657 Z M376.9958,1133.76194 C377.0868,1135.48399 375.7108,1136.90758 373.9998,1136.90758 L372.9998,1136.90758 L372.9998,1138.00587 C372.9998,1138.55502 372.5528,1139.0007 371.9998,1139.0007 C371.4478,1139.0007 370.9998,1138.55502 370.9998,1138.00587 L370.9998,1132.03691 C370.9998,1131.48777 371.4478,1130.93862 371.9998,1130.93862 L373.8298,1130.93862 C375.4548,1130.93862 376.9108,1132.14833 376.9958,1133.76194 L376.9958,1133.76194 Z M368.9998,1130.93862 L364.9998,1130.93862 C364.4478,1130.93862 363.9998,1131.48777 363.9998,1132.03691 L363.9998,1138.00587 C363.9998,1138.55502 364.4478,1138.89724 364.9998,1138.89724 L368.9998,1138.89724 C369.5528,1138.89724 369.9998,1138.50329 369.9998,1137.95414 L369.9998,1137.92828 C369.9998,1137.37913 369.5528,1136.90758 368.9998,1136.90758 L365.9998,1136.90758 L365.9998,1135.91276 L368.9998,1135.91276 C369.5528,1135.91276 369.9998,1135.51881 369.9998,1134.96966 L369.9998,1134.9438 C369.9998,1134.39465 369.5528,1133.9231 368.9998,1133.9231 L365.9998,1133.9231 L365.9998,1132.92828 L368.9998,1132.92828 C369.5528,1132.92828 369.9998,1132.53433 369.9998,1131.98518 L369.9998,1131.95932 C369.9998,1131.41017 369.5528,1130.93862 368.9998,1130.93862 L368.9998,1130.93862 Z M382.9998,1130.93862 L379.9998,1130.93862 C378.8958,1130.93862 377.9998,1131.93345 377.9998,1133.03174 L377.9998,1134.02657 C377.9998,1135.12585 378.8958,1135.91276 379.9998,1135.91276 L381.4998,1135.91276 C381.7758,1135.91276 381.9998,1136.1356 381.9998,1136.41017 C381.9998,1136.68474 381.7758,1136.90758 381.4998,1136.90758 L378.9998,1136.90758 C378.4528,1136.90758 378.0098,1137.39704 378.0028,1137.94121 C378.0098,1138.48339 378.4528,1138.89724 378.9998,1138.89724 L381.9998,1138.89724 L382.0208,1138.89724 C383.1138,1138.89724 383.9998,1138.11928 383.9998,1137.03194 L383.9998,1135.99533 C383.9998,1134.90798 383.1138,1133.9231 382.0208,1133.9231 L381.9998,1133.9231 L380.4998,1133.9231 C380.2238,1133.9231 379.9998,1133.70026 379.9998,1133.42569 C379.9998,1133.15112 380.2238,1132.92828 380.4998,1132.92828 L382.9998,1132.92828 C383.5528,1132.92828 383.9998,1132.53433 383.9998,1131.98518 L383.9998,1131.95932 C383.9998,1131.41017 383.5528,1130.93862 382.9998,1130.93862 L382.9998,1130.93862 Z M377.9998,1137.92828 C377.9998,1137.93325 378.0028,1137.93624 378.0028,1137.94121 C378.0028,1137.94519 377.9998,1137.94917 377.9998,1137.95414 L377.9998,1137.92828 Z" id="file_eps-[#1752]"></path>
            </g>
        </g>
    </g>
</svg>