<?xml version="1.0" encoding="UTF-8" standalone="no"?>
<svg width="20px" height="20px" viewBox="0 0 20 20" version="1.1" xmlns="http://www.w3.org/2000/svg" xmlns:xlink="http://www.w3.org/1999/xlink">
    <!-- Generator: Sketch 3.8.1 (29687) - http://www.bohemiancoding.com/sketch -->
    <title>file_rss [#1732]</title>
    <desc>Created with Sketch.</desc>
    <defs></defs>
    <g id="Page-1" stroke="none" stroke-width="1" fill="none" fill-rule="evenodd">
        <g id="Dribbble-Dark-Preview" transform="translate(-420.000000, -1359.000000)" fill="#FFFFFF">
            <g id="icons" transform="translate(56.000000, 160.000000)">
                <path d="M377.9792,1199.0005 L364.0002,1199.0005 L364.0002,1209.0005 L366.0002,1209.0005 L366.0002,1201.0005 L376.0002,1201.0005 L376.0002,1207.0005 L382.0002,1207.0005 L382.0002,1209.0005 L384.0002,1209.0005 L384.0002,1205.4385 L377.9792,1199.0005 Z M367.9962,1214.1055 C367.9962,1213.5525 367.5482,1213.1055 366.9962,1213.1055 L365.9962,1213.1055 L365.9962,1215.1055 L366.9962,1215.1055 C367.5482,1215.1055 367.9962,1214.6575 367.9962,1214.1055 L367.9962,1214.1055 Z M368.7202,1216.4755 L369.9962,1219.0005 L367.9962,1219.0005 L366.9962,1217.0005 L366.0002,1217.0005 L366.0002,1219.0005 L364.0002,1219.0005 L364.0002,1211.0005 L366.9962,1211.0005 C368.6532,1211.0005 369.9962,1212.3955 369.9962,1214.0525 C369.9962,1215.0665 369.4902,1215.9325 368.7202,1216.4755 L368.7202,1216.4755 Z M379.9962,1211.0005 C378.8912,1211.0005 378.0002,1212.0005 378.0002,1213.1055 L378.0002,1214.1055 C378.0002,1215.2095 378.8912,1216.0005 379.9962,1216.0005 L381.4962,1216.0005 C381.7722,1216.0005 381.9962,1216.2245 381.9962,1216.5005 C381.9962,1216.7765 381.7722,1217.0005 381.4962,1217.0005 L378.0002,1217.0005 L378.0002,1219.0005 L381.9962,1219.0005 L382.0172,1219.0005 C383.1102,1219.0005 384.0002,1218.2195 384.0002,1217.1255 L384.0002,1216.0845 C384.0002,1214.9915 383.1102,1214.0005 382.0172,1214.0005 L381.9962,1214.0005 L380.4962,1214.0005 C380.2202,1214.0005 379.9962,1213.7765 379.9962,1213.5005 C379.9962,1213.2245 380.2202,1213.0005 380.4962,1213.0005 L384.0002,1213.0005 L384.0002,1211.0005 L379.9962,1211.0005 Z M377.0002,1211.0005 L377.0002,1213.0005 L373.5002,1213.0005 C373.2242,1213.0005 373.0002,1213.2245 373.0002,1213.5005 C373.0002,1213.7765 373.2242,1214.0005 373.5002,1214.0005 L375.0002,1214.0005 L375.0212,1214.0005 C376.1142,1214.0005 377.0002,1214.9915 377.0002,1216.0845 L377.0002,1217.1255 C377.0002,1218.2195 376.1142,1219.0005 375.0212,1219.0005 L375.0002,1219.0005 L371.0002,1219.0005 L371.0002,1217.0005 L374.5002,1217.0005 C374.7762,1217.0005 375.0002,1216.7765 375.0002,1216.5005 C375.0002,1216.2245 374.7762,1216.0005 374.5002,1216.0005 L373.0002,1216.0005 C371.8952,1216.0005 371.0002,1215.2095 371.0002,1214.1055 L371.0002,1213.1055 C371.0002,1212.0005 371.8952,1211.0005 373.0002,1211.0005 L377.0002,1211.0005 Z" id="file_rss-[#1732]"></path>
            </g>
        </g>
    </g>
</svg>