<?xml version="1.0" encoding="UTF-8" standalone="no"?>
<svg width="20px" height="20px" viewBox="0 0 20 20" version="1.1" xmlns="http://www.w3.org/2000/svg" xmlns:xlink="http://www.w3.org/1999/xlink">
    <!-- Generator: Sketch 3.8.1 (29687) - http://www.bohemiancoding.com/sketch -->
    <title>file_image [#1688]</title>
    <desc>Created with Sketch.</desc>
    <defs></defs>
    <g id="Page-1" stroke="none" stroke-width="1" fill="none" fill-rule="evenodd">
        <g id="Dribbble-Dark-Preview" transform="translate(-180.000000, -1559.000000)" fill="#FFFFFF">
            <g id="icons" transform="translate(56.000000, 160.000000)">
                <path d="M136,1409.1052 C136,1408.5532 136.448,1408.1052 137,1408.1052 C137.552,1408.1052 138,1408.5532 138,1409.1052 C138,1409.6572 137.552,1410.1052 137,1410.1052 C136.448,1410.1052 136,1409.6572 136,1409.1052 L136,1409.1052 Z M136.75,1412.0532 L140,1416.0002 L128,1416.0002 L132.518,1410.0532 L135.354,1414.1052 L136.75,1412.0532 Z M128,1407.0002 L134,1407.0002 L134,1403.0002 L128,1403.0002 L128,1407.0002 Z M142,1417.0002 L126,1417.0002 L126,1401.0002 L136,1401.0002 L136,1407.0002 L142,1407.0002 L142,1417.0002 Z M138,1399.0002 L124,1399.0002 L124,1419.0002 L144,1419.0002 L144,1405.1052 L138,1399.0002 Z" id="file_image-[#1688]"></path>
            </g>
        </g>
    </g>
</svg>