<?xml version="1.0" encoding="UTF-8" standalone="no"?>
<svg width="20px" height="20px" viewBox="0 0 20 20" version="1.1" xmlns="http://www.w3.org/2000/svg" xmlns:xlink="http://www.w3.org/1999/xlink">
    <!-- Generator: Sketch 3.8.1 (29687) - http://www.bohemiancoding.com/sketch -->
    <title>file_music_player [#1607]</title>
    <desc>Created with Sketch.</desc>
    <defs></defs>
    <g id="Page-1" stroke="none" stroke-width="1" fill="none" fill-rule="evenodd">
        <g id="Dribbble-Dark-Preview" transform="translate(-220.000000, -1879.000000)" fill="#FFFFFF">
            <g id="icons" transform="translate(56.000000, 160.000000)">
                <path d="M182,1727 L178,1727 C176.895,1727 176,1726.104 176,1725 L176,1721 L167,1721 C166.448,1721 166,1721.448 166,1722 L166,1736 C166,1736.552 166.448,1737 167,1737 L181,1737 C181.552,1737 182,1736.552 182,1736 L182,1727 Z M184,1725.414 L184,1737 C184,1738.104 183.105,1739 182,1739 L166,1739 C164.895,1739 164,1738.104 164,1737 L164,1721 C164,1719.896 164.895,1719 166,1719 L177.586,1719 C177.851,1719 178.105,1719.105 178.293,1719.293 L183.707,1724.707 C183.895,1724.895 184,1725.149 184,1725.414 L184,1725.414 Z M178,1728 L178,1733 L177.998,1733 C177.986,1734.095 177.097,1734.979 176,1734.979 C174.895,1734.979 174,1734.084 174,1732.979 C174,1731.875 174.895,1730.979 176,1730.979 L176,1730 L172,1730 L172,1734 L171.998,1734 C171.986,1735.095 171.097,1735.979 170,1735.979 C168.895,1735.979 168,1735.084 168,1733.979 C168,1732.875 168.895,1731.979 170,1731.979 L170,1728 L178,1728 Z" id="file_music_player-[#1607]"></path>
            </g>
        </g>
    </g>
</svg>