<?xml version="1.0" encoding="UTF-8" standalone="no"?>
<svg width="20px" height="20px" viewBox="0 0 20 20" version="1.1" xmlns="http://www.w3.org/2000/svg" xmlns:xlink="http://www.w3.org/1999/xlink">
    <!-- Generator: Sketch 3.8.1 (29687) - http://www.bohemiancoding.com/sketch -->
    <title>file_jar [#1750]</title>
    <desc>Created with Sketch.</desc>
    <defs></defs>
    <g id="Page-1" stroke="none" stroke-width="1" fill="none" fill-rule="evenodd">
        <g id="Dribbble-Dark-Preview" transform="translate(-100.000000, -1319.000000)" fill="#FFFFFF">
            <g id="icons" transform="translate(56.000000, 160.000000)">
                <path d="M63.7248,1165.0442 L58.2748,1159.3112 C58.0858,1159.1132 57.8238,1159.0002 57.5498,1159.0002 L45.9998,1159.0002 C44.8958,1159.0002 43.9998,1159.8962 43.9998,1161.0002 L43.9998,1168.0002 C43.9998,1168.5522 44.4478,1169.0002 44.9998,1169.0002 C45.5528,1169.0002 45.9998,1168.5522 45.9998,1168.0002 L45.9998,1162.0002 C45.9998,1161.4482 46.4478,1161.0002 46.9998,1161.0002 L55.9998,1161.0002 L55.9998,1165.0002 C55.9998,1166.1052 56.8958,1167.0002 57.9998,1167.0002 L61.9998,1167.0002 L61.9998,1168.0002 C61.9998,1168.5522 62.4478,1169.0002 62.9998,1169.0002 C63.5528,1169.0002 63.9998,1168.5522 63.9998,1168.0002 L63.9998,1165.7332 C63.9998,1165.4772 63.9018,1165.2302 63.7248,1165.0442 L63.7248,1165.0442 Z M61.9958,1174.0002 C61.9958,1173.4482 61.5488,1173.0002 60.9958,1173.0002 L59.9958,1173.0002 L59.9958,1175.0002 L60.9958,1175.0002 C61.5488,1175.0002 61.9958,1174.5532 61.9958,1174.0002 L61.9958,1174.0002 Z M62.7208,1176.4492 L63.3488,1177.7062 C63.6458,1178.3012 63.2138,1179.0002 62.5488,1179.0002 C62.2098,1179.0002 61.9008,1178.8092 61.7488,1178.5062 L60.9958,1177.0002 L59.9998,1177.0002 L59.9998,1178.0002 C59.9998,1178.5522 59.5528,1179.0002 58.9998,1179.0002 C58.4478,1179.0002 57.9998,1178.5522 57.9998,1178.0002 L57.9998,1172.0002 C57.9998,1171.4482 58.4478,1171.0002 58.9998,1171.0002 L60.8488,1171.0002 C62.4108,1171.0002 63.8198,1172.1302 63.9798,1173.6842 C64.0978,1174.8262 63.5698,1175.8502 62.7208,1176.4492 L62.7208,1176.4492 Z M54.9998,1173.5002 C54.9998,1173.2242 54.7758,1173.0002 54.4998,1173.0002 L53.4998,1173.0002 C53.2238,1173.0002 52.9998,1173.2242 52.9998,1173.5002 L52.9998,1175.0002 L54.9998,1175.0002 L54.9998,1173.5002 Z M56.9998,1172.0002 L56.9998,1178.0002 C56.9998,1178.5522 56.5528,1179.0002 55.9998,1179.0002 C55.4478,1179.0002 54.9998,1178.5522 54.9998,1178.0002 L54.9998,1177.0002 L52.9998,1177.0002 L52.9998,1178.0002 C52.9998,1178.5522 52.5528,1179.0002 51.9998,1179.0002 C51.4478,1179.0002 50.9998,1178.5522 50.9998,1178.0002 L50.9998,1172.0002 C50.9998,1171.4482 51.4478,1171.0002 51.9998,1171.0002 L52.9998,1171.0002 L54.9998,1171.0002 L55.9998,1171.0002 C56.5528,1171.0002 56.9998,1171.4482 56.9998,1172.0002 L56.9998,1172.0002 Z M49.9998,1172.0002 L49.9998,1177.0002 C49.9998,1178.1052 49.1048,1179.0002 47.9998,1179.0002 L44.9998,1179.0002 C44.4478,1179.0002 43.9998,1178.5522 43.9998,1178.0002 C43.9998,1177.4482 44.4478,1177.0002 44.9998,1177.0002 L46.9998,1177.0002 C47.5528,1177.0002 47.9998,1176.5522 47.9998,1176.0002 L47.9998,1172.0002 C47.9998,1171.4482 48.4478,1171.0002 48.9998,1171.0002 C49.5528,1171.0002 49.9998,1171.4482 49.9998,1172.0002 L49.9998,1172.0002 Z" id="file_jar-[#1750]"></path>
            </g>
        </g>
    </g>
</svg>