<?xml version="1.0" encoding="UTF-8" standalone="no"?>
<svg width="20px" height="20px" viewBox="0 0 20 20" version="1.1" xmlns="http://www.w3.org/2000/svg" xmlns:xlink="http://www.w3.org/1999/xlink">
    <!-- Generator: Sketch 3.8.1 (29687) - http://www.bohemiancoding.com/sketch -->
    <title>file_zip [#1735]</title>
    <desc>Created with Sketch.</desc>
    <defs></defs>
    <g id="Page-1" stroke="none" stroke-width="1" fill="none" fill-rule="evenodd">
        <g id="Dribbble-Dark-Preview" transform="translate(-300.000000, -1359.000000)" fill="#FFFFFF">
            <g id="icons" transform="translate(56.000000, 160.000000)">
                <path d="M245.998401,1201.0005 L255.990408,1201.0005 L255.990408,1207.0005 L261.985612,1207.0005 L261.985612,1209.0005 L263.984013,1209.0005 L263.984013,1205.4385 L257.967826,1199.0005 L244,1199.0005 L244,1209.0005 L245.998401,1209.0005 L245.998401,1201.0005 Z M262.001599,1214.1055 C262.001599,1213.5525 261.553957,1213.1055 261.002398,1213.1055 L260.003197,1213.1055 L260.003197,1215.1055 L261.002398,1215.1055 C261.553957,1215.1055 262.001599,1214.6575 262.001599,1214.1055 L262.001599,1214.1055 Z M264,1214.0005 C264,1215.6575 262.657074,1217.0005 261.002398,1217.0005 L259.98721,1217.0005 L259.98721,1219.0005 L257.988809,1219.0005 L257.988809,1211.0005 L261.002398,1211.0005 C262.657074,1211.0005 264,1212.3435 264,1214.0005 L264,1214.0005 Z M249.995204,1211.0005 L244,1211.0005 L244,1213.0005 L246.997602,1213.0005 L244,1219.0005 L249.995204,1219.0005 L249.995204,1217.0005 L246.997602,1217.0005 C251.141287,1208.7065 248.200639,1214.5925 249.995204,1211.0005 L249.995204,1211.0005 Z M256.989608,1211.0005 L256.989608,1213.0005 L254.991207,1213.0005 L254.991207,1217.0005 L256.989608,1217.0005 L256.989608,1219.0005 L250.994404,1219.0005 L250.994404,1217.0005 L252.992806,1217.0005 L252.992806,1213.0005 L250.994404,1213.0005 L250.994404,1211.0005 L256.989608,1211.0005 Z" id="file_zip-[#1735]"></path>
            </g>
        </g>
    </g>
</svg>