<?xml version="1.0" encoding="UTF-8" standalone="no"?>
<svg width="20px" height="20px" viewBox="0 0 20 20" version="1.1" xmlns="http://www.w3.org/2000/svg" xmlns:xlink="http://www.w3.org/1999/xlink">
    <!-- Generator: Sketch 3.8.1 (29687) - http://www.bohemiancoding.com/sketch -->
    <title>file_pdf [#1729]</title>
    <desc>Created with Sketch.</desc>
    <defs></defs>
    <g id="Page-1" stroke="none" stroke-width="1" fill="none" fill-rule="evenodd">
        <g id="Dribbble-Dark-Preview" transform="translate(-140.000000, -1399.000000)" fill="#FFFFFF">
            <g id="icons" transform="translate(56.000000, 160.000000)">
                <path d="M97.9792,1239.0005 L84.0002,1239.0005 L84.0002,1249.0005 L86.0002,1249.0005 L86.0002,1241.0005 L96.0002,1241.0005 L96.0002,1247.0005 L102.0002,1247.0005 L102.0002,1249.0005 L104.0002,1249.0005 L104.0002,1245.4385 L97.9792,1239.0005 Z M88.0002,1254.1055 C88.0002,1253.5525 87.5522,1253.1055 87.0002,1253.1055 L86.0002,1253.1055 L86.0002,1255.1055 L87.0002,1255.1055 C87.5522,1255.1055 88.0002,1254.6575 88.0002,1254.1055 L88.0002,1254.1055 Z M90.0002,1254.0005 C90.0002,1255.6575 88.6572,1257.0005 87.0002,1257.0005 L86.0002,1257.0005 L86.0002,1259.0005 L84.0002,1259.0005 L84.0002,1251.0005 L87.0002,1251.0005 C88.6572,1251.0005 90.0002,1252.3435 90.0002,1254.0005 L90.0002,1254.0005 Z M95.0002,1254.1055 C95.0002,1253.5525 94.5522,1253.0005 94.0002,1253.0005 L93.0002,1253.0005 L93.0002,1257.0005 L94.0002,1257.0005 C94.5522,1257.0005 95.0002,1256.6575 95.0002,1256.1055 L95.0002,1254.1055 Z M97.0002,1254.0005 L97.0002,1256.0005 C97.0002,1257.6575 95.6572,1259.0005 94.0002,1259.0005 L91.0002,1259.0005 L91.0002,1257.1055 L91.0002,1253.1055 L91.0002,1251.0005 L94.0002,1251.0005 C95.6502,1251.0005 97.0002,1252.3505 97.0002,1254.0005 L97.0002,1254.0005 Z M104.0002,1251.0005 L104.0002,1253.0005 L100.0002,1253.0005 L100.0002,1255.0005 L104.0002,1255.0005 L104.0002,1257.0005 L100.0002,1257.0005 L100.0002,1259.0005 L98.0002,1259.0005 L98.0002,1251.0005 L104.0002,1251.0005 Z" id="file_pdf-[#1729]"></path>
            </g>
        </g>
    </g>
</svg>