<?xml version="1.0" encoding="UTF-8" standalone="no"?>
<svg width="20px" height="20px" viewBox="0 0 20 20" version="1.1" xmlns="http://www.w3.org/2000/svg" xmlns:xlink="http://www.w3.org/1999/xlink">
    <!-- Generator: Sketch 3.8.1 (29687) - http://www.bohemiancoding.com/sketch -->
    <title>file_ps [#1737]</title>
    <desc>Created with Sketch.</desc>
    <defs></defs>
    <g id="Page-1" stroke="none" stroke-width="1" fill="none" fill-rule="evenodd">
        <g id="Dribbble-Dark-Preview" transform="translate(-220.000000, -1359.000000)" fill="#FFFFFF">
            <g id="icons" transform="translate(56.000000, 160.000000)">
                <path d="M177.9792,1199.0005 L164.0002,1199.0005 L164.0002,1209.0005 L166.0002,1209.0005 L166.0002,1201.0005 L176.0002,1201.0005 L176.0002,1207.0005 L182.0002,1207.0005 L182.0002,1217.0005 L179.0002,1217.0005 L179.0002,1219.0005 L184.0002,1219.0005 L184.0002,1204.6525 L177.9792,1199.0005 Z M168.0002,1214.1055 C168.0002,1213.5525 167.5522,1213.1055 167.0002,1213.1055 L166.0002,1213.1055 L166.0002,1215.1055 L167.0002,1215.1055 C167.5522,1215.1055 168.0002,1214.6575 168.0002,1214.1055 L168.0002,1214.1055 Z M170.0002,1214.0005 C170.0002,1215.6575 168.6572,1217.0005 167.0002,1217.0005 L166.0002,1217.0005 L166.0002,1219.0005 L164.0002,1219.0005 L164.0002,1211.0005 L167.0002,1211.0005 C168.6572,1211.0005 170.0002,1212.3435 170.0002,1214.0005 L170.0002,1214.0005 Z M177.0002,1211.0005 L177.0002,1213.0005 L173.5002,1213.0005 C173.2242,1213.0005 173.0002,1213.2245 173.0002,1213.5005 C173.0002,1213.7765 173.2242,1214.0005 173.5002,1214.0005 L175.0002,1214.0005 L175.0212,1214.0005 C176.1142,1214.0005 177.0002,1214.9915 177.0002,1216.0845 L177.0002,1217.1255 C177.0002,1218.2195 176.1142,1219.0005 175.0212,1219.0005 L175.0002,1219.0005 L171.0002,1219.0005 L171.0002,1217.0005 L174.5002,1217.0005 C174.7762,1217.0005 175.0002,1216.7765 175.0002,1216.5005 C175.0002,1216.2245 174.7762,1216.0005 174.5002,1216.0005 L173.0002,1216.0005 C171.8952,1216.0005 171.0002,1215.2095 171.0002,1214.1055 L171.0002,1213.1055 C171.0002,1212.0005 171.8952,1211.0005 173.0002,1211.0005 L177.0002,1211.0005 Z" id="file_ps-[#1737]"></path>
            </g>
        </g>
    </g>
</svg>