<?xml version="1.0" encoding="UTF-8" standalone="no"?>
<svg width="20px" height="20px" viewBox="0 0 20 20" version="1.1" xmlns="http://www.w3.org/2000/svg" xmlns:xlink="http://www.w3.org/1999/xlink">
    <!-- Generator: Sketch 3.8.1 (29687) - http://www.bohemiancoding.com/sketch -->
    <title>file_ai [#1761]</title>
    <desc>Created with Sketch.</desc>
    <defs></defs>
    <g id="Page-1" stroke="none" stroke-width="1" fill="none" fill-rule="evenodd">
        <g id="Dribbble-Dark-Preview" transform="translate(-60.000000, -1279.000000)" fill="#FFFFFF">
            <g id="icons" transform="translate(56.000000, 160.000000)">
                <path d="M19,1137.92818 C19,1137.93315 19.003,1137.93614 19.003,1137.94111 C19.003,1137.94509 19,1137.94907 19,1137.95404 L19,1137.92818 Z M24,1125.0591 L24,1137.01095 C24,1138.11023 23.105,1138.89714 22,1138.89714 L21.292,1138.89714 L20,1138.89714 C19.452,1138.89714 19.01,1138.48329 19.003,1137.94111 C19.01,1137.39694 19.452,1136.90748 20,1136.90748 L21,1136.90748 C21.552,1136.90748 22,1136.56626 22,1136.01612 L22,1126.95922 L17,1126.95922 C16.448,1126.95922 16,1126.61799 16,1126.06785 L16,1120.99025 L7,1120.99025 C6.448,1120.99025 6,1121.5394 6,1122.08854 L6,1128.0575 C6,1128.60764 5.552,1129.05233 5,1129.05233 C4.448,1129.05233 4,1128.60764 4,1128.0575 L4,1123.82949 L4,1121.09372 C4,1119.99543 4.895,1119.0006 6,1119.0006 L17.589,1119.0006 C17.84,1119.0006 18.082,1119.14684 18.266,1119.31596 L23.678,1124.30104 C23.883,1124.49005 24,1124.78054 24,1125.0591 L24,1125.0591 Z M17,1131.95922 L17,1131.98508 C17,1132.53423 16.552,1132.92818 16,1132.92818 L15,1132.92818 L15,1136.90748 L16,1136.90748 C16.552,1136.90748 17,1137.37903 17,1137.92818 L17,1137.95404 C17,1138.50319 16.552,1138.89714 16,1138.89714 L12,1138.89714 C11.452,1138.89714 11.01,1138.48329 11.003,1137.94111 C11.01,1137.39694 11.452,1136.90748 12,1136.90748 L13,1136.90748 L13,1132.92818 L12,1132.92818 C11.452,1132.92818 11.01,1132.51433 11.003,1131.97215 C11.01,1131.42798 11.452,1130.93852 12,1130.93852 L16,1130.93852 C16.552,1130.93852 17,1131.41007 17,1131.95922 L17,1131.95922 Z M11,1131.95922 C11,1131.96419 11.003,1131.96717 11.003,1131.97215 C11.003,1131.97613 11,1131.98011 11,1131.98508 L11,1131.95922 Z M11,1137.92818 C11,1137.93315 11.003,1137.93614 11.003,1137.94111 C11.003,1137.94509 11,1137.94907 11,1137.95404 L11,1137.92818 Z M8,1135.02129 L6,1135.02129 L6,1133.52905 C6,1133.25448 6.224,1133.03164 6.5,1133.03164 L7.5,1133.03164 C7.776,1133.03164 8,1133.25448 8,1133.52905 L8,1135.02129 Z M9,1130.93852 L5,1130.93852 C4.448,1130.93852 4,1131.48767 4,1132.03681 L4,1138.00577 C4,1138.55591 4.448,1139.0006 5,1139.0006 C5.552,1139.0006 6,1138.55591 6,1138.00577 L6,1136.90748 L8,1136.90748 L8,1138.00577 C8,1138.55591 8.448,1139.0006 9,1139.0006 C9.552,1139.0006 10,1138.55591 10,1138.00577 L10,1132.03681 C10,1131.48767 9.552,1130.93852 9,1130.93852 L9,1130.93852 Z" id="file_ai-[#1761]"></path>
            </g>
        </g>
    </g>
</svg>