<?xml version="1.0" encoding="UTF-8" standalone="no"?>
<svg width="20px" height="20px" viewBox="0 0 20 20" version="1.1" xmlns="http://www.w3.org/2000/svg" xmlns:xlink="http://www.w3.org/1999/xlink">
    <!-- Generator: Sketch 3.8.1 (29687) - http://www.bohemiancoding.com/sketch -->
    <title>file_text_data [#1700]</title>
    <desc>Created with Sketch.</desc>
    <defs></defs>
    <g id="Page-1" stroke="none" stroke-width="1" fill="none" fill-rule="evenodd">
        <g id="Dribbble-Dark-Preview" transform="translate(-100.000000, -1519.000000)" fill="#FFFFFF">
            <g id="icons" transform="translate(56.000000, 160.000000)">
                <path d="M60,1374.0005 C60,1374.5525 59.552,1375.0005 59,1375.0005 L49,1375.0005 C48.448,1375.0005 48,1374.5525 48,1374.0005 C48,1373.4485 48.448,1373.0005 49,1373.0005 L59,1373.0005 C59.552,1373.0005 60,1373.4485 60,1374.0005 L60,1374.0005 Z M49,1369.0005 L59,1369.0005 C59.552,1369.0005 60,1369.4485 60,1370.0005 C60,1370.5525 59.552,1371.0005 59,1371.0005 L49,1371.0005 C48.448,1371.0005 48,1370.5525 48,1370.0005 C48,1369.4485 48.448,1369.0005 49,1369.0005 L49,1369.0005 Z M62,1376.0005 C62,1376.5525 61.552,1377.0005 61,1377.0005 L47,1377.0005 C46.448,1377.0005 46,1376.5525 46,1376.0005 L46,1362.0005 C46,1361.4485 46.448,1361.0005 47,1361.0005 L56,1361.0005 L56,1365.0005 C56,1366.1045 56.895,1367.0005 58,1367.0005 L62,1367.0005 L62,1376.0005 Z M63.707,1364.7075 L58.293,1359.2935 C58.105,1359.1055 57.851,1359.0005 57.586,1359.0005 L46,1359.0005 C44.895,1359.0005 44,1359.8955 44,1361.0005 L44,1377.0005 C44,1378.1045 44.895,1379.0005 46,1379.0005 L62,1379.0005 C63.105,1379.0005 64,1378.1045 64,1377.0005 L64,1365.4145 C64,1365.1495 63.895,1364.8955 63.707,1364.7075 L63.707,1364.7075 Z" id="file_text_data-[#1700]"></path>
            </g>
        </g>
    </g>
</svg>