<?xml version="1.0" encoding="UTF-8" standalone="no"?>
<svg width="20px" height="20px" viewBox="0 0 20 20" version="1.1" xmlns="http://www.w3.org/2000/svg" xmlns:xlink="http://www.w3.org/1999/xlink">
    <!-- Generator: Sketch 3.8.1 (29687) - http://www.bohemiancoding.com/sketch -->
    <title>file_music_player [#1606]</title>
    <desc>Created with Sketch.</desc>
    <defs></defs>
    <g id="Page-1" stroke="none" stroke-width="1" fill="none" fill-rule="evenodd">
        <g id="Dribbble-Dark-Preview" transform="translate(-260.000000, -1879.000000)" fill="#FFFFFF">
            <g id="icons" transform="translate(56.000000, 160.000000)">
                <path d="M218,1728 L218,1733 L217.998,1733 C217.986,1734.095 217.097,1734.979 216,1734.979 C214.895,1734.979 214,1734.084 214,1732.979 C214,1731.875 214.895,1730.979 216,1730.979 L216,1730 L212,1730 L212,1734 L211.998,1734 C211.986,1735.095 211.097,1735.979 210,1735.979 C208.895,1735.979 208,1735.084 208,1733.979 C208,1732.875 208.895,1731.979 210,1731.979 L210,1728 L218,1728 Z M222,1737 L206,1737 L206,1721 L216,1721 L216,1727 L222,1727 L222,1737 Z M218,1719 L204,1719 L204,1739 L224,1739 L224,1725.209 L218,1719 Z" id="file_music_player-[#1606]"></path>
            </g>
        </g>
    </g>
</svg>