<?xml version="1.0" encoding="UTF-8" standalone="no"?>
<svg width="20px" height="20px" viewBox="0 0 20 20" version="1.1" xmlns="http://www.w3.org/2000/svg" xmlns:xlink="http://www.w3.org/1999/xlink">
    <!-- Generator: Sketch 3.8.1 (29687) - http://www.bohemiancoding.com/sketch -->
    <title>file_src [#1749]</title>
    <desc>Created with Sketch.</desc>
    <defs></defs>
    <g id="Page-1" stroke="none" stroke-width="1" fill="none" fill-rule="evenodd">
        <g id="Dribbble-Dark-Preview" transform="translate(-140.000000, -1319.000000)" fill="#FFFFFF">
            <g id="icons" transform="translate(56.000000, 160.000000)">
                <path d="M103.7248,1165.0442 L98.2748,1159.3112 C98.0858,1159.1132 97.8238,1159.0002 97.5498,1159.0002 L85.9998,1159.0002 C84.8958,1159.0002 83.9998,1159.8962 83.9998,1161.0002 L83.9998,1168.0002 C83.9998,1168.5522 84.4698,1169.0002 85.0228,1169.0002 L85.0338,1169.0002 C85.5858,1169.0002 85.9998,1168.5522 85.9998,1168.0002 L85.9998,1162.0002 C85.9998,1161.4482 86.4478,1161.0002 86.9998,1161.0002 L95.9998,1161.0002 L95.9998,1165.0002 C95.9998,1166.1052 96.8958,1167.0002 97.9998,1167.0002 L101.9998,1167.0002 L101.9998,1168.0002 C101.9998,1168.5522 102.4698,1169.0002 103.0228,1169.0002 L103.0338,1169.0002 C103.5858,1169.0002 103.9998,1168.5522 103.9998,1168.0002 L103.9998,1165.7332 C103.9998,1165.4772 103.9018,1165.2302 103.7248,1165.0442 M94.9998,1174.0002 C94.9998,1173.4482 94.5528,1173.0002 93.9998,1173.0002 L92.9998,1173.0002 L92.9998,1175.0002 L93.9998,1175.0002 C94.5528,1175.0002 94.9998,1174.5532 94.9998,1174.0002 M95.7248,1176.4492 L96.3528,1177.7062 C96.6498,1178.3012 96.2178,1179.0002 95.5528,1179.0002 C95.2138,1179.0002 94.9048,1178.8092 94.7528,1178.5062 L93.9998,1177.0002 L92.9998,1177.0002 L92.9998,1178.0002 C92.9998,1178.5522 92.5858,1179.0002 92.0338,1179.0002 L92.0228,1179.0002 C91.4698,1179.0002 90.9998,1178.5522 90.9998,1178.0002 L90.9998,1172.0002 C90.9998,1171.4482 91.4478,1171.0002 91.9998,1171.0002 L93.8528,1171.0002 C95.4148,1171.0002 96.8238,1172.1302 96.9838,1173.6842 C97.1018,1174.8262 96.5738,1175.8502 95.7248,1176.4492 M86.4998,1173.0002 L88.9998,1173.0002 C89.5528,1173.0002 89.9998,1172.5522 89.9998,1172.0002 C89.9998,1171.4482 89.5528,1171.0002 88.9998,1171.0002 L85.9998,1171.0002 C84.8958,1171.0002 83.9998,1171.8962 83.9998,1173.0002 L83.9998,1174.0002 C83.9998,1175.1052 84.8958,1176.0002 85.9998,1176.0002 L87.4998,1176.0002 C87.7758,1176.0002 87.9998,1176.2242 87.9998,1176.5002 C87.9998,1176.7762 87.7758,1177.0002 87.4998,1177.0002 L84.9998,1177.0002 C84.4478,1177.0002 83.9998,1177.4482 83.9998,1178.0002 C83.9998,1178.5522 84.4478,1179.0002 84.9998,1179.0002 L87.9998,1179.0002 L88.0208,1179.0002 C89.1138,1179.0002 89.9998,1178.1142 89.9998,1177.0212 L89.9998,1175.9792 C89.9998,1174.8862 89.1138,1174.0002 88.0208,1174.0002 L87.9998,1174.0002 L86.4998,1174.0002 C86.2238,1174.0002 85.9998,1173.7762 85.9998,1173.5002 C85.9998,1173.2242 86.2238,1173.0002 86.4998,1173.0002 M100.0278,1175.3362 C100.1868,1176.3192 101.1108,1177.0002 102.1068,1177.0002 L102.9998,1177.0002 C103.5528,1177.0002 103.9998,1177.4482 103.9998,1178.0002 C103.9998,1178.5522 103.5528,1179.0002 102.9998,1179.0002 L102.1718,1179.0002 C100.0828,1179.0002 98.2168,1177.4732 98.0188,1175.3932 C97.7918,1173.0072 99.6608,1171.0002 101.9998,1171.0002 L102.9998,1171.0002 C103.5528,1171.0002 103.9998,1171.4482 103.9998,1172.0002 C103.9998,1172.5522 103.5528,1173.0002 102.9998,1173.0002 L101.9998,1173.0002 C100.7858,1173.0002 99.8238,1174.0832 100.0278,1175.3362" id="file_src-[#1749]"></path>
            </g>
        </g>
    </g>
</svg>