<?xml version="1.0" encoding="UTF-8" standalone="no"?>
<svg width="20px" height="20px" viewBox="0 0 20 20" version="1.1" xmlns="http://www.w3.org/2000/svg" xmlns:xlink="http://www.w3.org/1999/xlink">
    <!-- Generator: Sketch 3.8.1 (29687) - http://www.bohemiancoding.com/sketch -->
    <title>file_rar [#1755]</title>
    <desc>Created with Sketch.</desc>
    <defs></defs>
    <g id="Page-1" stroke="none" stroke-width="1" fill="none" fill-rule="evenodd">
        <g id="Dribbble-Dark-Preview" transform="translate(-300.000000, -1279.000000)" fill="#FFFFFF">
            <g id="icons" transform="translate(56.000000, 160.000000)">
                <path d="M264,1125.70972 L264,1127.97933 C264,1128.53196 263.552,1128.98048 263,1128.98048 C262.448,1128.98048 262,1128.53196 262,1127.97933 L262,1127.00921 L258,1127.00921 C256.895,1127.00921 256,1126.08214 256,1124.97587 L256,1121.0023 L247,1121.0023 C246.448,1121.0023 246,1121.41978 246,1121.97242 L246,1127.97933 C246,1128.53196 245.552,1128.98048 245,1128.98048 C244.448,1128.98048 244,1128.53196 244,1127.97933 L244,1120.97127 C244,1119.866 244.895,1119 246,1119 L257.55,1119 C257.824,1119 258.086,1119.09711 258.275,1119.29634 L263.725,1125.01992 C263.901,1125.20614 264,1125.45342 264,1125.70972 L264,1125.70972 Z M260.999,1134.98739 L259.999,1134.98739 L259.999,1132.98508 L260.999,1132.98508 C261.551,1132.98508 261.999,1133.4336 261.999,1133.98623 C261.999,1134.53987 261.551,1134.98739 260.999,1134.98739 L260.999,1134.98739 Z M263.983,1133.68489 C263.823,1132.1291 262.414,1131.01382 260.852,1131.01382 L259,1131.01382 C258.448,1131.01382 258,1131.4313 258,1131.98393 L258,1137.99084 C258,1138.54347 258.448,1138.99199 259,1138.99199 C259.552,1138.99199 260,1138.54347 260,1137.99084 L260,1137.02072 L260.999,1137.02072 L261.976,1138.51244 C262.127,1138.81579 262,1139 263,1139 L263,1138.996 C263,1138.996 263.873,1138.29319 263.576,1137.6985 L262.836,1136.44706 C263.684,1135.84737 264.1,1134.8292 263.983,1133.68489 L263.983,1133.68489 Z M246.998,1134.98739 L245.998,1134.98739 L245.998,1132.98508 L246.998,1132.98508 C247.55,1132.98508 247.998,1133.4336 247.998,1133.98623 C247.998,1134.53987 247.55,1134.98739 246.998,1134.98739 L246.998,1134.98739 Z M249.982,1133.68489 C249.822,1132.1291 248.413,1131.01382 246.851,1131.01382 L245,1131.01382 C244.448,1131.01382 244,1131.4313 244,1131.98393 L244,1137.99084 C244,1138.54347 244.448,1138.99199 245,1138.99199 C245.552,1138.99199 246,1138.54347 246,1137.99084 L246,1137.02072 L246.998,1137.02072 L247.975,1138.51244 C248.127,1138.81579 248,1139 249,1139 L249,1138.996 C249,1138.996 249.873,1138.29319 249.575,1137.6985 L248.835,1136.44706 C249.684,1135.84737 250.099,1134.8292 249.982,1133.68489 L249.982,1133.68489 Z M255,1134.98739 L253,1134.98739 L253,1133.48566 C253,1133.20934 253.224,1132.98508 253.5,1132.98508 L254.5,1132.98508 C254.776,1132.98508 255,1133.20934 255,1133.48566 L255,1134.98739 Z M256,1131.01382 L252,1131.01382 C251.448,1131.01382 251,1131.4313 251,1131.98393 L251,1137.99084 C251,1138.54347 251.448,1138.99199 252,1138.99199 C252.552,1138.99199 253,1138.54347 253,1137.99084 L253,1137.02072 L255,1137.02072 L255,1137.99084 C255,1138.54347 255.448,1138.99199 256,1138.99199 C256.552,1138.99199 257,1138.54347 257,1137.99084 L257,1131.98393 C257,1131.4313 256.552,1131.01382 256,1131.01382 L256,1131.01382 Z" id="file_rar-[#1755]"></path>
            </g>
        </g>
    </g>
</svg>