<?xml version="1.0" encoding="UTF-8" standalone="no"?>
<svg width="20px" height="20px" viewBox="0 0 20 20" version="1.1" xmlns="http://www.w3.org/2000/svg" xmlns:xlink="http://www.w3.org/1999/xlink">
    <!-- Generator: Sketch 3.8.1 (29687) - http://www.bohemiancoding.com/sketch -->
    <title>file_psd [#1728]</title>
    <desc>Created with Sketch.</desc>
    <defs></defs>
    <g id="Page-1" stroke="none" stroke-width="1" fill="none" fill-rule="evenodd">
        <g id="Dribbble-Dark-Preview" transform="translate(-180.000000, -1399.000000)" fill="#FFFFFF">
            <g id="icons" transform="translate(56.000000, 160.000000)">
                <path d="M137.9792,1239.0005 L124.0002,1239.0005 L124.0002,1249.0005 L126.0002,1249.0005 L126.0002,1241.0005 L136.0002,1241.0005 L136.0002,1247.0005 L142.0002,1247.0005 L142.0002,1249.0005 L144.0002,1249.0005 L144.0002,1245.4385 L137.9792,1239.0005 Z M128.0002,1254.1055 C128.0002,1253.5525 127.5522,1253.1055 127.0002,1253.1055 L126.0002,1253.1055 L126.0002,1255.1055 L127.0002,1255.1055 C127.5522,1255.1055 128.0002,1254.6575 128.0002,1254.1055 L128.0002,1254.1055 Z M130.0002,1254.0005 C130.0002,1255.6575 128.6572,1257.0005 127.0002,1257.0005 L126.0002,1257.0005 L126.0002,1259.0005 L124.0002,1259.0005 L124.0002,1251.0005 L127.0002,1251.0005 C128.6572,1251.0005 130.0002,1252.3435 130.0002,1254.0005 L130.0002,1254.0005 Z M142.0002,1254.1055 C142.0002,1253.5525 141.5522,1253.0005 141.0002,1253.0005 L140.0002,1253.0005 L140.0002,1257.0005 L141.0002,1257.0005 C141.5522,1257.0005 142.0002,1256.6575 142.0002,1256.1055 L142.0002,1254.1055 Z M144.0002,1254.0005 L144.0002,1256.0005 C144.0002,1257.6575 142.6572,1259.0005 141.0002,1259.0005 L138.0002,1259.0005 L138.0002,1257.1055 L138.0002,1253.1055 L138.0002,1251.0005 L141.0002,1251.0005 C142.6502,1251.0005 144.0002,1252.3505 144.0002,1254.0005 L144.0002,1254.0005 Z M137.0002,1251.0005 L137.0002,1253.0005 L133.5002,1253.0005 C133.2242,1253.0005 133.0002,1253.2245 133.0002,1253.5005 C133.0002,1253.7765 133.2242,1254.0005 133.5002,1254.0005 L135.0002,1254.0005 L135.0212,1254.0005 C136.1142,1254.0005 137.0002,1254.9915 137.0002,1256.0845 L137.0002,1257.1255 C137.0002,1258.2195 136.1142,1259.0005 135.0212,1259.0005 L135.0002,1259.0005 L131.0002,1259.0005 L131.0002,1257.0005 L134.5002,1257.0005 C134.7762,1257.0005 135.0002,1256.7765 135.0002,1256.5005 C135.0002,1256.2245 134.7762,1256.0005 134.5002,1256.0005 L133.0002,1256.0005 C131.8952,1256.0005 131.0002,1255.2095 131.0002,1254.1055 L131.0002,1253.1055 C131.0002,1252.0005 131.8952,1251.0005 133.0002,1251.0005 L137.0002,1251.0005 Z" id="file_psd-[#1728]"></path>
            </g>
        </g>
    </g>
</svg>