<?xml version="1.0" encoding="UTF-8" standalone="no"?>
<svg width="22px" height="20px" viewBox="0 0 22 20" version="1.1" xmlns="http://www.w3.org/2000/svg" xmlns:xlink="http://www.w3.org/1999/xlink">
    <!-- Generator: Sketch 3.8.1 (29687) - http://www.bohemiancoding.com/sketch -->
    <title>file_missing_minus [#1693]</title>
    <desc>Created with Sketch.</desc>
    <defs></defs>
    <g id="Page-1" stroke="none" stroke-width="1" fill="none" fill-rule="evenodd">
        <g id="Dribbble-Dark-Preview" transform="translate(-378.000000, -1519.000000)" fill="#FFFFFF">
            <g id="icons" transform="translate(56.000000, 160.000000)">
                <path d="M342,1371.04178 L344,1371.04178 L344,1369.05223 L342,1369.05223 L342,1371.04178 Z M334,1379 L336,1379 L336,1377.01045 L334,1377.01045 L334,1379 Z M338,1379 L340,1379 L340,1377.01045 L338,1377.01045 L338,1379 Z M342,1379 L344,1379 L344,1377.01045 L342,1377.01045 L342,1379 Z M322,1378.89555 L328,1378.89555 L328,1376.90599 L322,1376.90599 L322,1378.89555 Z M324,1361.09401 L326,1361.09401 L326,1359.10445 L324,1359.10445 L324,1361.09401 Z M342,1375.02089 L344,1375.02089 L344,1373.03134 L342,1373.03134 L342,1375.02089 Z M328,1361.09401 L330,1361.09401 L330,1359.10445 L328,1359.10445 L328,1361.09401 Z M332,1361.09401 L334,1361.09401 L334,1359.10445 L332,1359.10445 L332,1361.09401 Z M324,1365.07312 L326,1365.07312 L326,1363.08356 L324,1363.08356 L324,1365.07312 Z M324,1373.03134 L326,1373.03134 L326,1371.04178 L324,1371.04178 L324,1373.03134 Z M330,1379 L332,1379 L332,1377.01045 L330,1377.01045 L330,1379 Z M338,1359 L336,1359 L336,1366.95822 L344,1366.95822 L344,1365.07312 L338,1359 Z M324,1369.05223 L326,1369.05223 L326,1367.06267 L324,1367.06267 L324,1369.05223 Z" id="file_missing_minus-[#1693]"></path>
            </g>
        </g>
    </g>
</svg>