<?xml version="1.0" encoding="UTF-8" standalone="no"?>
<svg width="14px" height="20px" viewBox="0 0 14 20" version="1.1" xmlns="http://www.w3.org/2000/svg" xmlns:xlink="http://www.w3.org/1999/xlink">
    <!-- Generator: Sketch 3.8.1 (29687) - http://www.bohemiancoding.com/sketch -->
    <title>fileboard_love_favorite [#1590]</title>
    <desc>Created with Sketch.</desc>
    <defs></defs>
    <g id="Page-1" stroke="none" stroke-width="1" fill="none" fill-rule="evenodd">
        <g id="Dribbble-Dark-Preview" transform="translate(-103.000000, -1959.000000)" fill="#FFFFFF">
            <g id="icons" transform="translate(56.000000, 160.000000)">
                <path d="M55.897,1811.908 C53.995,1813.654 53.746,1813.436 52.048,1811.858 C50.453,1810.375 50.857,1808.601 52.017,1808.202 C52.749,1807.949 53.436,1808.264 53.884,1808.833 C53.942,1808.907 54.058,1808.905 54.116,1808.831 C54.532,1808.299 55.154,1807.989 55.85,1808.162 C57.131,1808.481 57.603,1810.344 55.897,1811.908 L55.897,1811.908 Z M59,1816 C59,1816.552 58.553,1817 58,1817 L50,1817 C49.448,1817 49,1816.552 49,1816 L49,1803.5 C49,1803.224 49.224,1803 49.5,1803 L50,1803 C50,1804.104 50.896,1805 52,1805 L56,1805 C57.105,1805 58,1804.104 58,1803 L58.5,1803 C58.776,1803 59,1803.224 59,1803.5 L59,1816 Z M53,1801 L55,1801 C55.553,1801 56,1801.447 56,1802 C56,1802.552 55.553,1803 55,1803 L53,1803 C52.448,1803 52,1802.552 52,1802 C52,1801.447 52.448,1801 53,1801 L53,1801 Z M59,1801 L58,1801 C58,1799.895 57.105,1799 56,1799 L52,1799 C50.896,1799 50,1799.895 50,1801 L49,1801 C47.896,1801 47,1801.895 47,1803 L47,1817 C47,1818.104 47.896,1819 49,1819 L59,1819 C60.105,1819 61,1818.104 61,1817 L61,1803 C61,1801.895 60.105,1801 59,1801 L59,1801 Z" id="fileboard_love_favorite-[#1590]"></path>
            </g>
        </g>
    </g>
</svg>