<?xml version="1.0" encoding="UTF-8" standalone="no"?>
<svg width="22px" height="20px" viewBox="0 0 22 20" version="1.1" xmlns="http://www.w3.org/2000/svg" xmlns:xlink="http://www.w3.org/1999/xlink">
    <!-- Generator: Sketch 3.8.1 (29687) - http://www.bohemiancoding.com/sketch -->
    <title>file_minus [#1704]</title>
    <desc>Created with Sketch.</desc>
    <defs></defs>
    <g id="Page-1" stroke="none" stroke-width="1" fill="none" fill-rule="evenodd">
        <g id="Dribbble-Dark-Preview" transform="translate(-338.000000, -1479.000000)" fill="#FFFFFF">
            <g id="icons" transform="translate(56.000000, 160.000000)">
                <path d="M303.706,1324.683 L298.293,1319.292 C298.106,1319.105 297.852,1319 297.587,1319 L286,1319 L285.976,1319 C284.885,1319 284,1319.885 284,1320.976 L284,1334 C284,1334.552 284.448,1335 285,1335 C285.553,1335 286,1334.552 286,1334 L286,1322 C286,1321.448 286.448,1321 287,1321 L296,1321 L296,1325.024 C296,1326.115 296.885,1327 297.976,1327 L302,1327 L302,1336 C302,1336.552 301.553,1337 301,1337 L291,1337 C290.448,1337 290,1337.448 290,1338 C290,1338.552 290.448,1339 291,1339 L302,1339 L302.024,1339 C303.116,1339 304,1338.115 304,1337.024 L304,1336.976 L304,1325.391 C304,1325.126 303.894,1324.87 303.706,1324.683 M288,1338 C288,1338.552 287.553,1339 287,1339 L283,1339 C282.448,1339 282,1338.552 282,1338 C282,1337.448 282.448,1337 283,1337 L287,1337 C287.553,1337 288,1337.448 288,1338" id="file_minus-[#1704]"></path>
            </g>
        </g>
    </g>
</svg>