<?xml version="1.0" encoding="UTF-8" standalone="no"?>
<svg width="14px" height="20px" viewBox="0 0 14 20" version="1.1" xmlns="http://www.w3.org/2000/svg" xmlns:xlink="http://www.w3.org/1999/xlink">
    <!-- Generator: Sketch 3.8.1 (29687) - http://www.bohemiancoding.com/sketch -->
    <title>fileboard_close [#1591]</title>
    <desc>Created with Sketch.</desc>
    <defs></defs>
    <g id="Page-1" stroke="none" stroke-width="1" fill="none" fill-rule="evenodd">
        <g id="Dribbble-Dark-Preview" transform="translate(-63.000000, -1959.000000)" fill="#FFFFFF">
            <g id="icons" transform="translate(56.000000, 160.000000)">
                <path d="M16.121,1809.795 L15.414,1810.502 L16.121,1811.209 C16.512,1811.6 16.512,1812.233 16.121,1812.623 C15.73,1813.014 15.097,1813.014 14.707,1812.623 L14,1811.916 L13.293,1812.623 C12.902,1813.014 12.269,1813.014 11.878,1812.623 C11.488,1812.233 11.488,1811.6 11.878,1811.209 L12.585,1810.502 L11.878,1809.795 C11.488,1809.404 11.488,1808.771 11.878,1808.381 C12.269,1807.99 12.902,1807.99 13.293,1808.381 L14,1809.088 L14.707,1808.381 C15.097,1807.99 15.73,1807.99 16.121,1808.381 C16.512,1808.771 16.512,1809.404 16.121,1809.795 L16.121,1809.795 Z M19,1815.916 C19,1816.469 18.552,1817 18,1817 L10,1817 C9.447,1817 9,1816.469 9,1815.916 L9,1803.416 C9,1803.14 9.224,1803 9.5,1803 L10,1803 C10,1804 10.895,1805 12,1805 L16,1805 C17.104,1805 18,1804 18,1803 L18.5,1803 C18.776,1803 19,1803.14 19,1803.416 L19,1815.916 Z M13,1801 L15,1801 C15.552,1801 16,1801.447 16,1802 C16,1802.552 15.552,1803 15,1803 L13,1803 C12.447,1803 12,1802.552 12,1802 C12,1801.447 12.447,1801 13,1801 L13,1801 Z M19,1801 L18,1801 C18,1800 17.104,1799 16,1799 L12,1799 C10.895,1799 10,1800 10,1801 L9,1801 C7.895,1801 7,1801.812 7,1802.916 L7,1816.916 C7,1818.021 7.895,1819 9,1819 L19,1819 C20.104,1819 21,1818.021 21,1816.916 L21,1802.916 C21,1801.812 20.104,1801 19,1801 L19,1801 Z" id="fileboard_close-[#1591]"></path>
            </g>
        </g>
    </g>
</svg>