<?xml version="1.0" encoding="UTF-8" standalone="no"?>
<svg width="20px" height="20px" viewBox="0 0 20 20" version="1.1" xmlns="http://www.w3.org/2000/svg" xmlns:xlink="http://www.w3.org/1999/xlink">
    <!-- Generator: Sketch 3.8.1 (29687) - http://www.bohemiancoding.com/sketch -->
    <title>file_arrow_up [#1718]</title>
    <desc>Created with Sketch.</desc>
    <defs></defs>
    <g id="Page-1" stroke="none" stroke-width="1" fill="none" fill-rule="evenodd">
        <g id="Dribbble-Dark-Preview" transform="translate(-180.000000, -1439.000000)" fill="#FFFFFF">
            <g id="icons" transform="translate(56.000000, 160.000000)">
                <path d="M141.942584,1296.0105 C141.942584,1296.5575 141.627592,1297.0005 141.082337,1297.0005 L132.971292,1297.0005 L132.971292,1290.8585 C132.971292,1290.4195 133.557416,1290.1935 133.875399,1290.4955 L134.909091,1291.4445 C135.304825,1291.8205 135.944777,1291.8025 136.319577,1291.4055 L136.341507,1291.3905 C136.715311,1290.9935 136.702352,1290.3665 136.305622,1289.9915 L133.472687,1287.3035 C132.70315,1286.5725 131.498006,1286.5755 130.730463,1287.3085 L127.91248,1289.9995 C127.52173,1290.3725 127.501794,1290.9905 127.867624,1291.3875 L127.867624,1291.3875 C128.239434,1291.7935 128.871411,1291.8155 129.271132,1291.4365 L130.200159,1290.4945 C130.518142,1290.1935 130.977671,1290.4195 130.977671,1290.8585 L130.977671,1297.0005 L127.107057,1297.0005 C126.561802,1297.0005 125.99362,1296.5575 125.99362,1296.0105 L125.99362,1281.9905 C125.99362,1281.4435 126.561802,1281.0005 127.107057,1281.0005 L135.961722,1281.0005 L135.961722,1285.0005 C135.961722,1286.1045 136.981459,1287.0005 138.081938,1287.0005 L141.942584,1287.0005 L141.942584,1296.0105 Z M143.936204,1297.0005 L143.936204,1285.4105 C143.936204,1285.1475 143.895335,1284.8965 143.710925,1284.7105 L138.371013,1279.2905 C138.186603,1279.1045 137.935407,1279.0005 137.673246,1279.0005 L126.120215,1279.0005 C125.019737,1279.0005 124.063796,1280.0005 124.063796,1281.0005 L124,1281.0005 L124,1297.0005 L124.063796,1297.0005 C124.063796,1298.0005 124.987839,1299.0005 126.088317,1299.0005 L126.120215,1299.0005 L142.069179,1299.0005 L142.069179,1299.0005 C143.170654,1299.0005 144,1298.1045 144,1297.0005 L143.936204,1297.0005 Z" id="file_arrow_up-[#1718]"></path>
            </g>
        </g>
    </g>
</svg>