<?xml version="1.0" encoding="UTF-8" standalone="no"?>
<svg width="14px" height="20px" viewBox="0 0 14 20" version="1.1" xmlns="http://www.w3.org/2000/svg" xmlns:xlink="http://www.w3.org/1999/xlink">
    <!-- Generator: Sketch 3.8.1 (29687) - http://www.bohemiancoding.com/sketch -->
    <title>fileboard_done [#1583]</title>
    <desc>Created with Sketch.</desc>
    <defs></defs>
    <g id="Page-1" stroke="none" stroke-width="1" fill="none" fill-rule="evenodd">
        <g id="Dribbble-Dark-Preview" transform="translate(-383.000000, -1959.000000)" fill="#FFFFFF">
            <g id="icons" transform="translate(56.000000, 160.000000)">
                <path d="M339,1803 L338,1803 L338,1805 L330,1805 L330,1803 L329,1803 L329,1817 L339,1817 L339,1803 Z M332,1803 L336,1803 L336,1801 L332,1801 L332,1803 Z M341,1801 L341,1819 L327,1819 L327,1801 L330,1801 L330,1799 L338,1799 L338,1801 L341,1801 Z M336.121,1807.172 L337.536,1808.586 L333.293,1812.828 C331.85,1811.385 332.322,1811.858 330.464,1810 L331.879,1808.586 L333.293,1810 L336.121,1807.172 Z" id="fileboard_done-[#1583]"></path>
            </g>
        </g>
    </g>
</svg>