<?xml version="1.0" encoding="UTF-8" standalone="no"?>
<svg width="20px" height="20px" viewBox="0 0 20 20" version="1.1" xmlns="http://www.w3.org/2000/svg" xmlns:xlink="http://www.w3.org/1999/xlink">
    <!-- Generator: Sketch 3.8.1 (29687) - http://www.bohemiancoding.com/sketch -->
    <title>file_svg [#1771]</title>
    <desc>Created with Sketch.</desc>
    <defs></defs>
    <g id="Page-1" stroke="none" stroke-width="1" fill="none" fill-rule="evenodd">
        <g id="Dribbble-Dark-Preview" transform="translate(-60.000000, -1239.000000)" fill="#FFFFFF">
            <g id="icons" transform="translate(56.000000, 160.000000)">
                <path d="M23.7248,1085.0442 L18.2748,1079.3112 C18.0858,1079.1132 17.8238,1079.0002 17.5498,1079.0002 L5.9998,1079.0002 C4.8958,1079.0002 3.9998,1079.8962 3.9998,1081.0002 L3.9998,1088.0002 C3.9998,1088.5522 4.4478,1089.0002 4.9998,1089.0002 C5.5528,1089.0002 5.9998,1088.5522 5.9998,1088.0002 L5.9998,1082.0002 C5.9998,1081.4482 6.4478,1081.0002 6.9998,1081.0002 L15.9998,1081.0002 L15.9998,1085.0002 C15.9998,1086.1052 16.8958,1087.0002 17.9998,1087.0002 L21.9998,1087.0002 L21.9998,1088.0002 C21.9998,1088.5522 22.4478,1089.0002 22.9998,1089.0002 C23.5528,1089.0002 23.9998,1088.5522 23.9998,1088.0002 L23.9998,1085.7332 C23.9998,1085.4772 23.9018,1085.2302 23.7248,1085.0442 M15.8758,1091.0002 C15.3758,1091.0002 14.9538,1091.3732 14.8918,1091.8692 L14.2498,1097.0002 L13.7498,1097.0002 L13.1088,1091.8692 C13.0468,1091.3732 12.6248,1091.0002 12.1238,1091.0002 C11.5268,1091.0002 11.0658,1091.5232 11.1398,1092.1162 L11.8908,1098.1242 C11.9528,1098.6252 12.3788,1099.0002 12.8828,1099.0002 L15.1168,1099.0002 C15.6218,1099.0002 16.0468,1098.6252 16.1098,1098.1242 L16.8608,1092.1162 C16.9348,1091.5232 16.4728,1091.0002 15.8758,1091.0002 M22.1068,1093.0002 L22.9998,1093.0002 C23.5528,1093.0002 23.9998,1092.5522 23.9998,1092.0002 C23.9998,1091.4482 23.5528,1091.0002 22.9998,1091.0002 L21.9998,1091.0002 C19.6608,1091.0002 17.7918,1093.0072 18.0188,1095.3932 C18.2168,1097.4732 20.0828,1099.0002 22.1718,1099.0002 L22.9998,1099.0002 C23.5528,1099.0002 23.9998,1098.5522 23.9998,1098.0002 L23.9998,1097.0002 L23.9998,1096.0002 C23.9998,1095.4482 23.5528,1095.0002 22.9998,1095.0002 C22.4478,1095.0002 21.9998,1095.4482 21.9998,1096.0002 L21.9998,1097.0002 C20.7858,1097.0002 19.8238,1095.9172 20.0278,1094.6642 C20.1878,1093.6812 21.1108,1093.0002 22.1068,1093.0002 M5.9998,1093.5002 C5.9998,1093.7762 6.2238,1094.0002 6.4998,1094.0002 L7.9998,1094.0002 L8.0208,1094.0002 C9.1138,1094.0002 9.9998,1094.8862 9.9998,1095.9792 L9.9998,1097.0212 C9.9998,1098.1142 9.1138,1099.0002 8.0208,1099.0002 L7.9998,1099.0002 L4.9998,1099.0002 C4.4478,1099.0002 3.9998,1098.5522 3.9998,1098.0002 C3.9998,1097.4482 4.4478,1097.0002 4.9998,1097.0002 L7.4998,1097.0002 C7.7758,1097.0002 7.9998,1096.7762 7.9998,1096.5002 C7.9998,1096.2242 7.7758,1096.0002 7.4998,1096.0002 L5.9998,1096.0002 C4.8958,1096.0002 3.9998,1095.1052 3.9998,1094.0002 L3.9998,1093.0002 C3.9998,1091.8962 4.8958,1091.0002 5.9998,1091.0002 L8.9998,1091.0002 C9.5528,1091.0002 9.9998,1091.4482 9.9998,1092.0002 C9.9998,1092.5522 9.5528,1093.0002 8.9998,1093.0002 L6.4998,1093.0002 C6.2238,1093.0002 5.9998,1093.2242 5.9998,1093.5002" id="file_svg-[#1771]"></path>
            </g>
        </g>
    </g>
</svg>