<?xml version="1.0" encoding="UTF-8" standalone="no"?>
<svg width="20px" height="20px" viewBox="0 0 20 20" version="1.1" xmlns="http://www.w3.org/2000/svg" xmlns:xlink="http://www.w3.org/1999/xlink">
    <!-- Generator: Sketch 3.8.1 (29687) - http://www.bohemiancoding.com/sketch -->
    <title>file_sketch [#1773]</title>
    <desc>Created with Sketch.</desc>
    <defs></defs>
    <g id="Page-1" stroke="none" stroke-width="1" fill="none" fill-rule="evenodd">
        <g id="Dribbble-Dark-Preview" transform="translate(-380.000000, -1199.000000)" fill="#FFFFFF">
            <g id="icons" transform="translate(56.000000, 160.000000)">
                <path d="M330.8171,1048.0005 L336.6501,1048.0005 C336.8671,1048.0005 337.0701,1048.1005 337.1891,1048.2825 L338.6171,1049.9875 C338.7761,1050.2295 338.7551,1050.5325 338.5641,1050.7505 L334.2021,1055.3705 C333.9471,1055.6635 333.4921,1055.6545 333.2341,1055.3645 L328.8871,1050.8365 C328.6951,1050.6225 328.6691,1050.2935 328.8221,1050.0505 L330.2701,1048.2935 C330.3891,1048.1055 330.5951,1048.0005 330.8171,1048.0005 L330.8171,1048.0005 Z M342.0001,1057.0005 L326.0001,1057.0005 L326.0001,1041.0005 L336.0001,1041.0005 L336.0001,1047.0005 L342.0001,1047.0005 L342.0001,1057.0005 Z M337.7231,1039.0005 L324.0001,1039.0005 L324.0001,1059.0005 L344.0001,1059.0005 L344.0001,1045.1055 L337.7231,1039.0005 Z" id="file_sketch-[#1773]"></path>
            </g>
        </g>
    </g>
</svg>