<?xml version="1.0" encoding="UTF-8" standalone="no"?>
<svg width="20px" height="20px" viewBox="0 0 20 20" version="1.1" xmlns="http://www.w3.org/2000/svg" xmlns:xlink="http://www.w3.org/1999/xlink">
    <!-- Generator: Sketch 3.8.1 (29687) - http://www.bohemiancoding.com/sketch -->
    <title>file_image [#1707]</title>
    <desc>Created with Sketch.</desc>
    <defs></defs>
    <g id="Page-1" stroke="none" stroke-width="1" fill="none" fill-rule="evenodd">
        <g id="Dribbble-Dark-Preview" transform="translate(-220.000000, -1479.000000)" fill="#FFFFFF">
            <g id="icons" transform="translate(56.000000, 160.000000)">
                <path d="M176,1329.07849 C176,1328.52795 176.448,1328.08114 177,1328.08114 C177.552,1328.08114 178,1328.52795 178,1329.07849 C178,1329.62903 177.552,1330.07585 177,1330.07585 C176.448,1330.07585 176,1329.62903 176,1329.07849 L176,1329.07849 Z M176.75,1332.0187 L180,1335.95527 L168,1335.95527 L172.518,1330.02399 L175.354,1334.06528 L176.75,1332.0187 Z M182,1336.05999 C182,1336.61053 181.552,1336.95263 181,1336.95263 L167,1336.95263 C166.448,1336.95263 166,1336.61053 166,1336.05999 L166,1322.09699 C166,1321.54645 166.448,1320.99491 167,1320.99491 L176,1320.99491 L176,1325.08906 C176,1326.19015 176.895,1326.97906 178,1326.97906 L182,1326.97906 L182,1336.05999 Z M183.707,1324.77091 L178.293,1319.34429 C178.105,1319.15778 177.851,1319.0002 177.586,1319.0002 L166,1319.0002 L166,1319.05306 C164.895,1319.05306 164,1319.97163 164,1321.07371 L164,1321.09964 L164,1337.05735 C164,1338.15843 164.895,1339.0002 166,1339.0002 L166,1338.94734 L182,1338.94734 L182,1339.0002 C183.105,1339.0002 184,1338.1325 184,1337.03142 L184,1325.50197 C184,1325.23767 183.895,1324.95741 183.707,1324.77091 L183.707,1324.77091 Z" id="file_image-[#1707]"></path>
            </g>
        </g>
    </g>
</svg>