<?xml version="1.0" encoding="UTF-8" standalone="no"?>
<svg width="14px" height="20px" viewBox="0 0 14 20" version="1.1" xmlns="http://www.w3.org/2000/svg" xmlns:xlink="http://www.w3.org/1999/xlink">
    <!-- Generator: Sketch 3.8.1 (29687) - http://www.bohemiancoding.com/sketch -->
    <title>fileboard [#1587]</title>
    <desc>Created with Sketch.</desc>
    <defs></defs>
    <g id="Page-1" stroke="none" stroke-width="1" fill="none" fill-rule="evenodd">
        <g id="Dribbble-Dark-Preview" transform="translate(-223.000000, -1959.000000)" fill="#FFFFFF">
            <g id="icons" transform="translate(56.000000, 160.000000)">
                <path d="M179,1816 C179,1816.552 178.552,1817 178,1817 L170,1817 C169.448,1817 169,1816.552 169,1816 L169,1803.5 C169,1803.224 169.224,1803 169.5,1803 L170,1803 C170,1804.104 170.895,1805 172,1805 L176,1805 C177.105,1805 178,1804.104 178,1803 L178.5,1803 C178.776,1803 179,1803.224 179,1803.5 L179,1816 Z M173,1801 L175,1801 C175.552,1801 176,1801.448 176,1802 C176,1802.552 175.552,1803 175,1803 L173,1803 C172.448,1803 172,1802.552 172,1802 C172,1801.448 172.448,1801 173,1801 L173,1801 Z M179,1801 L178,1801 C178,1799.895 177.105,1799 176,1799 L172,1799 C170.895,1799 170,1799.895 170,1801 L169,1801 C167.895,1801 167,1801.895 167,1803 L167,1817 C167,1818.104 167.895,1819 169,1819 L179,1819 C180.105,1819 181,1818.104 181,1817 L181,1803 C181,1801.895 180.105,1801 179,1801 L179,1801 Z" id="fileboard-[#1587]"></path>
            </g>
        </g>
    </g>
</svg>