<?xml version="1.0" encoding="UTF-8" standalone="no"?>
<svg width="20px" height="20px" viewBox="0 0 20 20" version="1.1" xmlns="http://www.w3.org/2000/svg" xmlns:xlink="http://www.w3.org/1999/xlink">
    <!-- Generator: Sketch 3.8.1 (29687) - http://www.bohemiancoding.com/sketch -->
    <title>file_py [#1739]</title>
    <desc>Created with Sketch.</desc>
    <defs></defs>
    <g id="Page-1" stroke="none" stroke-width="1" fill="none" fill-rule="evenodd">
        <g id="Dribbble-Dark-Preview" transform="translate(-140.000000, -1359.000000)" fill="#FFFFFF">
            <g id="icons" transform="translate(56.000000, 160.000000)">
                <path d="M88,1214.1052 C88,1213.5532 87.552,1213.1052 87,1213.1052 L86,1213.1052 L86,1215.1052 L87,1215.1052 C87.552,1215.1052 88,1214.6572 88,1214.1052 L88,1214.1052 Z M90,1214.0002 C90,1215.6572 88.657,1217.0002 87,1217.0002 L86,1217.0002 L86,1219.0002 L84,1219.0002 L84,1211.0002 L87,1211.0002 C88.657,1211.0002 90,1212.3432 90,1214.0002 L90,1214.0002 Z M95,1213.1052 C95,1213.6572 94.552,1214.1052 94,1214.1052 C93.448,1214.1052 93,1213.6572 93,1213.1052 L93,1211.0002 L91,1211.0002 L91,1214.1052 C91,1215.2092 91.895,1216.1052 93,1216.1052 L93,1219.0002 L95,1219.0002 L95,1216.1052 C96.105,1216.1052 97,1215.2092 97,1214.1052 L97,1211.0002 L95,1211.0002 L95,1213.1052 Z M104,1204.6522 L104,1219.0002 L99,1219.0002 L99,1217.0002 L102,1217.0002 L102,1207.0002 L96,1207.0002 L96,1201.0002 L86,1201.0002 L86,1209.0002 L84,1209.0002 L84,1199.0002 L97.979,1199.0002 L104,1204.6522 Z" id="file_py-[#1739]"></path>
            </g>
        </g>
    </g>
</svg>