<?xml version="1.0" encoding="UTF-8" standalone="no"?>
<svg width="20px" height="20px" viewBox="0 0 20 20" version="1.1" xmlns="http://www.w3.org/2000/svg" xmlns:xlink="http://www.w3.org/1999/xlink">
    <!-- Generator: Sketch 3.8.1 (29687) - http://www.bohemiancoding.com/sketch -->
    <title>file_zip [#1760]</title>
    <desc>Created with Sketch.</desc>
    <defs></defs>
    <g id="Page-1" stroke="none" stroke-width="1" fill="none" fill-rule="evenodd">
        <g id="Dribbble-Dark-Preview" transform="translate(-100.000000, -1279.000000)" fill="#FFFFFF">
            <g id="icons" transform="translate(56.000000, 160.000000)">
                <path d="M45.0024901,1129.0003 C45.5542645,1129.0003 45.9990826,1128.6573 45.9990826,1128.1053 L45.9990826,1122.1053 C45.9990826,1121.5533 46.4548962,1121.0003 47.0066706,1121.0003 L55.9949956,1121.0003 L55.9949956,1125.1053 C55.9949956,1126.2093 56.8976266,1127.0003 58.002175,1127.0003 L61.9925435,1127.0003 L61.9925435,1128.1053 C61.9925435,1128.6573 62.4433591,1129.0003 62.9951335,1129.0003 C63.5469079,1129.0003 63.9917261,1128.6573 63.9917261,1128.1053 L63.9917261,1125.8383 C63.9917261,1125.5813 63.8967649,1125.3353 63.7208368,1125.1493 L58.2750634,1119.3643 C58.0861407,1119.1653 57.8262469,1119.0003 57.5523589,1119.0003 L46.0070793,1119.0003 C44.9025309,1119.0003 43.9999,1120.0003 43.9999,1121.1053 L43.9999,1128.1053 C43.9999,1128.6573 44.4507157,1129.0003 45.0024901,1129.0003 L45.0024901,1129.0003 Z M45.0034897,1129.0003 L45.0024901,1129.0003 L45.0014905,1129.0003 L45.0034897,1129.0003 Z M62.9961331,1129.0003 L62.9951335,1129.0003 L62.994134,1129.0003 L62.9961331,1129.0003 Z M62.0005402,1134.1053 C62.0005402,1133.5533 61.5527233,1133.1053 61.0009489,1133.1053 L60.0013576,1133.1053 L60.0013576,1135.1053 L61.0009489,1135.1053 C61.5527233,1135.1053 62.0005402,1134.6573 62.0005402,1134.1053 L62.0005402,1134.1053 Z M63.9957244,1133.8393 C64.0856877,1135.5693 62.71025,1137.0003 61.0009489,1137.0003 L59.9933609,1137.0003 L59.9933609,1138.1053 C59.9933609,1138.6573 59.5435448,1139.0003 58.9917704,1139.0003 L58.9897712,1139.0003 C58.4379968,1139.0003 57.9941783,1138.6573 57.9941783,1138.1053 L57.9941783,1132.1053 C57.9941783,1131.5533 58.4339984,1131.0003 58.9857728,1131.0003 L60.8310184,1131.0003 C62.4553542,1131.0003 63.9107592,1132.2173 63.9957244,1133.8393 L63.9957244,1133.8393 Z M43.9999,1132.0523 C43.9999,1132.0483 44.0028988,1132.0443 44.0028988,1132.0393 C44.0028988,1132.0353 43.9999,1132.0313 43.9999,1132.0263 L43.9999,1132.0523 Z M48.9898598,1137.0003 L47.7993465,1137.0003 C47.4284982,1137.0003 47.1865971,1136.6613 47.3525292,1136.3293 C47.7753564,1135.4843 48.8419203,1133.3493 49.2667466,1132.5003 C49.5986109,1131.8353 49.1158083,1131.0003 48.3721124,1131.0003 L44.9914946,1131.0003 C44.4447181,1131.0003 44.0098959,1131.4923 44.0028988,1132.0393 C44.0098959,1132.5853 44.4447181,1133.0003 44.9914946,1133.0003 L46.1820078,1133.0003 C46.5538558,1133.0003 46.7957569,1133.4443 46.6288251,1133.7763 C44.7765824,1137.5133 45.1264394,1136.8283 44.7156074,1137.5923 C44.3827435,1138.2573 44.8665457,1139.0003 45.609242,1139.0003 L48.9898598,1139.0003 C49.5426338,1139.0003 49.9974478,1138.6053 49.9974478,1138.0523 L49.9974478,1138.0263 C49.9974478,1137.4743 49.5426338,1137.0003 48.9898598,1137.0003 L48.9898598,1137.0003 Z M55.9869989,1131.0003 L51.9886337,1131.0003 C51.4418573,1131.0003 51.007035,1131.4923 51.0000379,1132.0393 C51.007035,1132.5853 51.4418573,1133.0003 51.9886337,1133.0003 L52.9962217,1133.0003 L52.9962217,1137.0003 L51.9886337,1137.0003 C51.4418573,1137.0003 51.007035,1137.4923 51.0000379,1138.0393 C51.007035,1138.5853 51.4418573,1139.0003 51.9886337,1139.0003 L55.9869989,1139.0003 C56.5397729,1139.0003 56.9945869,1138.6053 56.9945869,1138.0523 L56.9945869,1138.0263 C56.9945869,1137.4743 56.5397729,1137.0003 55.9869989,1137.0003 L54.9954043,1137.0003 L54.9954043,1133.0003 L55.9869989,1133.0003 C56.5397729,1133.0003 56.9945869,1132.6053 56.9945869,1132.0523 L56.9945869,1132.0263 C56.9945869,1131.4743 56.5397729,1131.0003 55.9869989,1131.0003 L55.9869989,1131.0003 Z M50.9970391,1138.0523 C50.9970391,1138.0483 51.0000379,1138.0443 51.0000379,1138.0393 C51.0000379,1138.0353 50.9970391,1138.0313 50.9970391,1138.0263 L50.9970391,1138.0523 Z M50.9970391,1132.0263 C50.9970391,1132.0313 51.0000379,1132.0353 51.0000379,1132.0393 C51.0000379,1132.0443 50.9970391,1132.0483 50.9970391,1132.0523 L50.9970391,1132.0263 Z" id="file_zip-[#1760]"></path>
            </g>
        </g>
    </g>
</svg>