<?xml version="1.0" encoding="UTF-8" standalone="no"?>
<svg width="20px" height="20px" viewBox="0 0 20 20" version="1.1" xmlns="http://www.w3.org/2000/svg" xmlns:xlink="http://www.w3.org/1999/xlink">
    <!-- Generator: Sketch 3.8.1 (29687) - http://www.bohemiancoding.com/sketch -->
    <title>file_ps [#1762]</title>
    <desc>Created with Sketch.</desc>
    <defs></defs>
    <g id="Page-1" stroke="none" stroke-width="1" fill="none" fill-rule="evenodd">
        <g id="Dribbble-Dark-Preview" transform="translate(-420.000000, -1239.000000)" fill="#FFFFFF">
            <g id="icons" transform="translate(56.000000, 160.000000)">
                <path d="M383.6776,1084.30117 L378.2666,1079.31534 C378.0816,1079.14623 377.8396,1079 377.5886,1079 L365.5476,1079 C364.6926,1079 363.9996,1079.74111 363.9996,1080.59164 L363.9996,1080.64337 L363.9996,1088.05745 C363.9996,1088.60657 364.4476,1089.05223 364.9996,1089.05223 C365.5526,1089.05223 365.9996,1088.60657 365.9996,1088.05745 L365.9996,1082.08878 C365.9996,1081.53967 366.4476,1080.98955 366.9996,1080.98955 L375.9996,1080.98955 L375.9996,1085.52375 C375.9996,1086.37329 376.6926,1086.95822 377.5476,1086.95822 L381.9996,1086.95822 L381.9996,1096.01567 C381.9996,1096.56478 381.5526,1096.90599 380.9996,1096.90599 L379.9996,1096.90599 C379.4526,1096.90599 379.0096,1097.39642 379.0026,1097.94056 C379.0096,1098.48272 379.4526,1098.89555 379.9996,1098.89555 L382.4526,1098.89555 C383.3076,1098.89555 383.9996,1098.31062 383.9996,1097.46108 L383.9996,1085.05919 C383.9996,1084.78065 383.8836,1084.48918 383.6776,1084.30117 L383.6776,1084.30117 Z M378.9996,1097.95349 C378.9996,1097.94852 379.0026,1097.94454 379.0026,1097.94056 C379.0026,1097.93559 378.9996,1097.93161 378.9996,1097.92763 L378.9996,1097.95349 Z M367.9996,1094.02611 C367.9996,1093.477 367.5526,1093.03134 366.9996,1093.03134 L365.9996,1093.03134 L365.9996,1095.02089 L366.9996,1095.02089 C367.5526,1095.02089 367.9996,1094.57523 367.9996,1094.02611 L367.9996,1094.02611 Z M369.9956,1093.7615 C370.0866,1095.48247 368.7106,1096.90599 366.9996,1096.90599 L365.9996,1096.90599 L365.9996,1098.00522 C365.9996,1098.55434 365.5526,1099 364.9996,1099 C364.4476,1099 363.9996,1098.55434 363.9996,1098.00522 L363.9996,1092.03656 C363.9996,1091.48744 364.4476,1090.93733 364.9996,1090.93733 L366.8306,1090.93733 C368.4546,1090.93733 369.9106,1092.14797 369.9956,1093.7615 L369.9956,1093.7615 Z M370.9996,1097.95349 C370.9996,1097.94852 371.0026,1097.94454 371.0026,1097.94056 C371.0026,1097.93559 370.9996,1097.93161 370.9996,1097.92763 L370.9996,1097.95349 Z M376.9996,1091.95897 L376.9996,1091.98483 C376.9996,1092.53395 376.5526,1092.92688 375.9996,1092.92688 L373.4996,1092.92688 C373.2236,1092.92688 372.9996,1093.14971 372.9996,1093.42427 C372.9996,1093.69983 373.2236,1093.92166 373.4996,1093.92166 L374.9996,1093.92166 L375.0206,1093.92166 C376.1136,1093.92166 376.9996,1094.90749 376.9996,1095.99478 L376.9996,1097.03134 C376.9996,1098.11863 376.1136,1098.89555 375.0206,1098.89555 L374.9996,1098.89555 L371.9996,1098.89555 C371.4526,1098.89555 371.0096,1098.48272 371.0026,1097.94056 C371.0096,1097.39642 371.4526,1096.90599 371.9996,1096.90599 L374.4996,1096.90599 C374.7766,1096.90599 374.9996,1096.68416 374.9996,1096.4086 C374.9996,1096.13405 374.7766,1095.91122 374.4996,1095.91122 L372.9996,1095.91122 C371.8956,1095.91122 370.9996,1095.12534 370.9996,1094.02611 L370.9996,1093.03134 C370.9996,1091.9331 371.8956,1090.93733 372.9996,1090.93733 L375.9996,1090.93733 C376.5526,1090.93733 376.9996,1091.40885 376.9996,1091.95897 L376.9996,1091.95897 Z" id="file_ps-[#1762]"></path>
            </g>
        </g>
    </g>
</svg>