<?xml version="1.0" encoding="UTF-8" standalone="no"?>
<svg width="22px" height="21px" viewBox="0 0 22 21" version="1.1" xmlns="http://www.w3.org/2000/svg" xmlns:xlink="http://www.w3.org/1999/xlink">
    <!-- Generator: Sketch 3.8.1 (29687) - http://www.bohemiancoding.com/sketch -->
    <title>file_missing_close [#1711]</title>
    <desc>Created with Sketch.</desc>
    <defs></defs>
    <g id="Page-1" stroke="none" stroke-width="1" fill="none" fill-rule="evenodd">
        <g id="Dribbble-Dark-Preview" transform="translate(-58.000000, -1479.000000)" fill="#FFFFFF">
            <g id="icons" transform="translate(56.000000, 160.000000)">
                <path d="M22.600487,1328.8047 C22.0592898,1328.8047 21.6200573,1329.24393 21.6200573,1329.78513 C21.6200573,1330.32633 22.0592898,1330.76556 22.600487,1330.76556 C23.1416842,1330.76556 23.5809167,1330.32633 23.5809167,1329.78513 C23.5809167,1329.24393 23.1416842,1328.8047 22.600487,1328.8047 M14.7570494,1336.64814 C14.2158522,1336.64814 13.7766197,1337.08737 13.7766197,1337.62857 C13.7766197,1338.16976 14.2158522,1338.609 14.7570494,1338.609 C15.2982466,1338.609 15.7374791,1338.16976 15.7374791,1337.62857 C15.7374791,1337.08737 15.2982466,1336.64814 14.7570494,1336.64814 M18.6787682,1336.64814 C18.137571,1336.64814 17.6983385,1337.08737 17.6983385,1337.62857 C17.6983385,1338.16976 18.137571,1338.609 18.6787682,1338.609 C19.2199654,1338.609 19.6591979,1338.16976 19.6591979,1337.62857 C19.6591979,1337.08737 19.2199654,1336.64814 18.6787682,1336.64814 M22.600487,1336.64814 C22.0592898,1336.64814 21.6200573,1337.08737 21.6200573,1337.62857 C21.6200573,1338.16976 22.0592898,1338.609 22.600487,1338.609 C23.1416842,1338.609 23.5809167,1338.16976 23.5809167,1337.62857 C23.5809167,1337.08737 23.1416842,1336.64814 22.600487,1336.64814 M7.03224379,1335.54908 C6.64987621,1335.16573 6.02926421,1335.16573 5.6459162,1335.54908 L4.9527524,1336.24224 L4.2595886,1335.54908 C3.87624059,1335.16573 3.25562859,1335.16573 2.87326101,1335.54908 C2.489913,1335.93144 2.489913,1336.55206 2.87326101,1336.9354 L3.56642481,1337.62857 L2.87326101,1338.32173 C2.489913,1338.70508 2.489913,1339.32569 2.87326101,1339.70806 C3.25562859,1340.09141 3.87624059,1340.09141 4.2595886,1339.70806 L4.9527524,1339.0149 L5.6459162,1339.70806 C6.02926421,1340.09141 6.64987621,1340.09141 7.03224379,1339.70806 C7.4155918,1339.32569 7.4155918,1338.70508 7.03224379,1338.32173 L6.33907999,1337.62857 L7.03224379,1336.9354 C7.4155918,1336.55206 7.4155918,1335.93144 7.03224379,1335.54908 M4.9527524,1320.96126 C5.49394959,1320.96126 5.9331821,1320.52203 5.9331821,1319.98083 C5.9331821,1319.43964 5.49394959,1319.0004 4.9527524,1319.0004 C4.41155521,1319.0004 3.9723227,1319.43964 3.9723227,1319.98083 C3.9723227,1320.52203 4.41155521,1320.96126 4.9527524,1320.96126 M22.600487,1332.72642 C22.0592898,1332.72642 21.6200573,1333.16565 21.6200573,1333.70685 C21.6200573,1334.24805 22.0592898,1334.68728 22.600487,1334.68728 C23.1416842,1334.68728 23.5809167,1334.24805 23.5809167,1333.70685 C23.5809167,1333.16565 23.1416842,1332.72642 22.600487,1332.72642 M8.87447119,1319.0004 C8.333274,1319.0004 7.89404149,1319.43964 7.89404149,1319.98083 C7.89404149,1320.52203 8.333274,1320.96126 8.87447119,1320.96126 C9.41566838,1320.96126 9.85490089,1320.52203 9.85490089,1319.98083 C9.85490089,1319.43964 9.41566838,1319.0004 8.87447119,1319.0004 M12.79619,1319.0004 C12.2549928,1319.0004 11.8157603,1319.43964 11.8157603,1319.98083 C11.8157603,1320.52203 12.2549928,1320.96126 12.79619,1320.96126 C13.3373872,1320.96126 13.7766197,1320.52203 13.7766197,1319.98083 C13.7766197,1319.43964 13.3373872,1319.0004 12.79619,1319.0004 M4.9527524,1324.88298 C5.49394959,1324.88298 5.9331821,1324.44375 5.9331821,1323.90255 C5.9331821,1323.36135 5.49394959,1322.92212 4.9527524,1322.92212 C4.41155521,1322.92212 3.9723227,1323.36135 3.9723227,1323.90255 C3.9723227,1324.44375 4.41155521,1324.88298 4.9527524,1324.88298 M4.9527524,1332.72642 C5.49394959,1332.72642 5.9331821,1332.28719 5.9331821,1331.74599 C5.9331821,1331.20479 5.49394959,1330.76556 4.9527524,1330.76556 C4.41155521,1330.76556 3.9723227,1331.20479 3.9723227,1331.74599 C3.9723227,1332.28719 4.41155521,1332.72642 4.9527524,1332.72642 M10.8353306,1336.64814 C10.2941334,1336.64814 9.85490089,1337.08737 9.85490089,1337.62857 C9.85490089,1338.16976 10.2941334,1338.609 10.8353306,1338.609 C11.3765278,1338.609 11.8157603,1338.16976 11.8157603,1337.62857 C11.8157603,1337.08737 11.3765278,1336.64814 10.8353306,1336.64814 M23.2936508,1324.59572 L17.9856044,1319.28767 C17.6326497,1318.93471 17.2316539,1319.0004 16.7179088,1319.0004 C16.1767116,1319.0004 15.7374791,1319.43964 15.7374791,1319.98083 L15.7374791,1324.88298 C15.7374791,1325.96538 16.6149637,1326.84384 17.6983385,1326.84384 L22.600487,1326.84384 C23.1416842,1326.84384 23.5809167,1326.40461 23.5809167,1325.86341 C23.5809167,1325.34967 23.6466055,1324.94867 23.2936508,1324.59572 M3.9723227,1327.82427 C3.9723227,1327.28307 4.41155521,1326.84384 4.9527524,1326.84384 C5.49394959,1326.84384 5.9331821,1327.28307 5.9331821,1327.82427 C5.9331821,1328.36547 5.49394959,1328.8047 4.9527524,1328.8047 C4.41155521,1328.8047 3.9723227,1328.36547 3.9723227,1327.82427" id="file_missing_close-[#1711]"></path>
            </g>
        </g>
    </g>
</svg>