<?xml version="1.0" encoding="UTF-8" standalone="no"?>
<svg width="23px" height="22px" viewBox="0 0 23 22" version="1.1" xmlns="http://www.w3.org/2000/svg" xmlns:xlink="http://www.w3.org/1999/xlink">
    <!-- Generator: Sketch 3.8.1 (29687) - http://www.bohemiancoding.com/sketch -->
    <title>file_missing [#1692]</title>
    <desc>Created with Sketch.</desc>
    <defs></defs>
    <g id="Page-1" stroke="none" stroke-width="1" fill="none" fill-rule="evenodd">
        <g id="Dribbble-Dark-Preview" transform="translate(-417.000000, -1519.000000)" fill="#FFFFFF">
            <g id="icons" transform="translate(56.000000, 160.000000)">
                <path d="M381.828,1371.35663 L383.828,1371.35663 L383.828,1369.31505 L381.828,1369.31505 L381.828,1371.35663 Z M373.828,1379.52292 L375.828,1379.52292 L375.828,1377.48135 L373.828,1377.48135 L373.828,1379.52292 Z M377.828,1379.52292 L379.828,1379.52292 L379.828,1377.48135 L377.828,1377.48135 L377.828,1379.52292 Z M381.828,1379.52292 L383.828,1379.52292 L383.828,1377.48135 L381.828,1377.48135 L381.828,1379.52292 Z M363.828,1378.07953 L362.414,1376.63614 L361,1378.07953 L363.796,1381 C368.141,1376.56468 365.708,1379.04826 368.657,1376.03795 L367.243,1374.59456 L363.828,1378.07953 Z M363.828,1361.14876 L365.828,1361.14876 L365.828,1359.10718 L363.828,1359.10718 L363.828,1361.14876 Z M381.828,1375.43977 L383.828,1375.43977 L383.828,1373.3982 L381.828,1373.3982 L381.828,1375.43977 Z M367.828,1361.14876 L369.828,1361.14876 L369.828,1359.10718 L367.828,1359.10718 L367.828,1361.14876 Z M371.828,1361.14876 L373.828,1361.14876 L373.828,1359.10718 L371.828,1359.10718 L371.828,1361.14876 Z M363.828,1365.2319 L365.828,1365.2319 L365.828,1363.19033 L363.828,1363.19033 L363.828,1365.2319 Z M363.828,1373.3982 L365.828,1373.3982 L365.828,1371.35663 L363.828,1371.35663 L363.828,1373.3982 Z M369.828,1379.52292 L371.828,1379.52292 L371.828,1377.48135 L369.828,1377.48135 L369.828,1379.52292 Z M377.828,1359 L376,1359 L376,1367.1663 L384,1367.1663 L384,1365.2319 L377.828,1359 Z M363.828,1369.31505 L365.828,1369.31505 L365.828,1367.27348 L363.828,1367.27348 L363.828,1369.31505 Z" id="file_missing-[#1692]"></path>
            </g>
        </g>
    </g>
</svg>