<?xml version="1.0" encoding="UTF-8" standalone="no"?>
<svg width="20px" height="20px" viewBox="0 0 20 20" version="1.1" xmlns="http://www.w3.org/2000/svg" xmlns:xlink="http://www.w3.org/1999/xlink">
    <!-- Generator: Sketch 3.8.1 (29687) - http://www.bohemiancoding.com/sketch -->
    <title>file_txt [#1758]</title>
    <desc>Created with Sketch.</desc>
    <defs></defs>
    <g id="Page-1" stroke="none" stroke-width="1" fill="none" fill-rule="evenodd">
        <g id="Dribbble-Dark-Preview" transform="translate(-180.000000, -1279.000000)" fill="#FFFFFF">
            <g id="icons" transform="translate(56.000000, 160.000000)">
                <path d="M143.7248,1125.1172 L138.2748,1119.36212 C138.0858,1119.16415 137.8238,1119.001 137.5498,1119.001 L125.9998,1119.001 C124.8958,1119.001 123.9998,1119.99583 123.9998,1121.09412 L123.9998,1128.0579 C123.9998,1128.60705 124.4478,1129.05273 124.9998,1129.05273 C125.5528,1129.05273 125.9998,1128.60705 125.9998,1128.0579 L125.9998,1122.08894 C125.9998,1121.5398 126.4478,1120.99065 126.9998,1120.99065 L135.9998,1120.99065 L135.9998,1125.07342 C135.9998,1126.17271 136.8958,1126.95962 137.9998,1126.95962 L141.9998,1126.95962 L141.9998,1128.0579 C141.9998,1128.60705 142.4478,1129.05273 142.9998,1129.05273 C143.5528,1129.05273 143.9998,1128.60705 143.9998,1128.0579 L143.9998,1125.80263 C143.9998,1125.54696 143.9018,1125.30223 143.7248,1125.1172 L143.7248,1125.1172 Z M135.5318,1131.04238 C135.1928,1131.04238 134.8838,1131.23339 134.7318,1131.53482 L133.9788,1133.03204 L133.2268,1131.53482 C133.0748,1131.23339 132.7648,1131.04238 132.4268,1131.04238 C131.7618,1131.04238 131.3288,1131.73876 131.6268,1132.33069 L132.9788,1135.02169 L131.6268,1137.71369 C131.3288,1138.30462 131.7618,1139.001 132.4268,1139.001 C132.7648,1139.001 133.0748,1138.81099 133.2268,1138.50956 L133.9788,1137.01135 L134.7318,1138.50956 C134.8838,1138.81099 135.1928,1139.001 135.5318,1139.001 C136.1968,1139.001 136.6298,1138.30462 136.3318,1137.71369 L134.9788,1135.02169 L136.3318,1132.33069 C136.6298,1131.73876 136.1968,1131.04238 135.5318,1131.04238 L135.5318,1131.04238 Z M142.9998,1130.93892 L138.9998,1130.93892 C138.4528,1130.93892 138.0098,1131.42838 138.0028,1131.97255 C138.0098,1132.51473 138.4528,1132.92858 138.9998,1132.92858 L139.9998,1132.92858 L139.9998,1138.00617 C139.9998,1138.55532 140.4478,1139.001 140.9998,1139.001 C141.5528,1139.001 141.9998,1138.55532 141.9998,1138.00617 L141.9998,1132.92858 L142.9998,1132.92858 C143.5528,1132.92858 143.9998,1132.53463 143.9998,1131.98548 L143.9998,1131.95962 C143.9998,1131.40948 143.5528,1130.93892 142.9998,1130.93892 L142.9998,1130.93892 Z M137.9998,1131.98548 C137.9998,1131.98051 138.0028,1131.97653 138.0028,1131.97255 C138.0028,1131.96757 137.9998,1131.96359 137.9998,1131.95962 L137.9998,1131.98548 Z M123.9998,1131.98548 C123.9998,1131.98051 124.0028,1131.97653 124.0028,1131.97255 C124.0028,1131.96757 123.9998,1131.96359 123.9998,1131.95962 L123.9998,1131.98548 Z M129.9998,1131.95962 L129.9998,1131.98548 C129.9998,1132.53463 129.5528,1132.92858 128.9998,1132.92858 L127.9998,1132.92858 L127.9998,1138.00617 C127.9998,1138.55532 127.5528,1139.001 126.9998,1139.001 C126.4478,1139.001 125.9998,1138.55532 125.9998,1138.00617 L125.9998,1132.92858 L124.9998,1132.92858 C124.4528,1132.92858 124.0098,1132.51473 124.0028,1131.97255 C124.0098,1131.42838 124.4528,1130.93892 124.9998,1130.93892 L128.9998,1130.93892 C129.5528,1130.93892 129.9998,1131.40948 129.9998,1131.95962 L129.9998,1131.95962 Z" id="file_txt-[#1758]"></path>
            </g>
        </g>
    </g>
</svg>