<?xml version="1.0" encoding="UTF-8" standalone="no"?>
<svg width="23px" height="21px" viewBox="0 0 23 21" version="1.1" xmlns="http://www.w3.org/2000/svg" xmlns:xlink="http://www.w3.org/1999/xlink">
    <!-- Generator: Sketch 3.8.1 (29687) - http://www.bohemiancoding.com/sketch -->
    <title>file_missing_done [#1712]</title>
    <desc>Created with Sketch.</desc>
    <defs></defs>
    <g id="Page-1" stroke="none" stroke-width="1" fill="none" fill-rule="evenodd">
        <g id="Dribbble-Dark-Preview" transform="translate(-417.000000, -1439.000000)" fill="#FFFFFF">
            <g id="icons" transform="translate(56.000000, 160.000000)">
                <path d="M382.596687,1289.0435 C382.05508,1289.0435 381.615514,1289.48876 381.615514,1290.03739 C381.615514,1290.58602 382.05508,1291.03128 382.596687,1291.03128 C383.138295,1291.03128 383.57786,1290.58602 383.57786,1290.03739 C383.57786,1289.48876 383.138295,1289.0435 382.596687,1289.0435 L382.596687,1289.0435 Z M374.747303,1296.99465 C374.205695,1296.99465 373.766129,1297.43991 373.766129,1297.98854 C373.766129,1298.53717 374.205695,1298.98244 374.747303,1298.98244 C375.28891,1298.98244 375.728476,1298.53717 375.728476,1297.98854 C375.728476,1297.43991 375.28891,1296.99465 374.747303,1296.99465 L374.747303,1296.99465 Z M378.671995,1296.99465 C378.130387,1296.99465 377.690822,1297.43991 377.690822,1297.98854 C377.690822,1298.53717 378.130387,1298.98244 378.671995,1298.98244 C379.213602,1298.98244 379.653168,1298.53717 379.653168,1297.98854 C379.653168,1297.43991 379.213602,1296.99465 378.671995,1296.99465 L378.671995,1296.99465 Z M382.596687,1296.99465 C382.05508,1296.99465 381.615514,1297.43991 381.615514,1297.98854 C381.615514,1298.53717 382.05508,1298.98244 382.596687,1298.98244 C383.138295,1298.98244 383.57786,1298.53717 383.57786,1297.98854 C383.57786,1297.43991 383.138295,1296.99465 382.596687,1296.99465 L382.596687,1296.99465 Z M367.997813,1294.8866 C367.615155,1294.49799 366.994073,1294.49799 366.610434,1294.8866 L363.954399,1297.57707 L363.260709,1296.87439 C362.877071,1296.48577 362.255988,1296.48577 361.87333,1296.87439 L361.865481,1296.88234 C361.484786,1297.26697 361.481842,1297.89015 361.857632,1298.27975 L363.22833,1299.70102 C363.610988,1300.09659 364.237958,1300.10057 364.62454,1299.70897 L365.916745,1298.40001 L367.304123,1296.99465 L367.997813,1296.29197 C368.381452,1295.90335 368.381452,1295.27422 367.997813,1294.8866 L367.997813,1294.8866 Z M364.935572,1281.09235 C365.477179,1281.09235 365.916745,1280.64708 365.916745,1280.09845 C365.916745,1279.54982 365.477179,1279.10456 364.935572,1279.10456 C364.393964,1279.10456 363.954399,1279.54982 363.954399,1280.09845 C363.954399,1280.64708 364.393964,1281.09235 364.935572,1281.09235 L364.935572,1281.09235 Z M382.596687,1293.01907 C382.05508,1293.01907 381.615514,1293.46434 381.615514,1294.01297 C381.615514,1294.5616 382.05508,1295.00686 382.596687,1295.00686 C383.138295,1295.00686 383.57786,1294.5616 383.57786,1294.01297 C383.57786,1293.46434 383.138295,1293.01907 382.596687,1293.01907 L382.596687,1293.01907 Z M368.860264,1279.10456 C368.318656,1279.10456 367.879091,1279.54982 367.879091,1280.09845 C367.879091,1280.64708 368.318656,1281.09235 368.860264,1281.09235 C369.401872,1281.09235 369.841437,1280.64708 369.841437,1280.09845 C369.841437,1279.54982 369.401872,1279.10456 368.860264,1279.10456 L368.860264,1279.10456 Z M372.784956,1279.10456 C372.243349,1279.10456 371.803783,1279.54982 371.803783,1280.09845 C371.803783,1280.64708 372.243349,1281.09235 372.784956,1281.09235 C373.326564,1281.09235 373.766129,1280.64708 373.766129,1280.09845 C373.766129,1279.54982 373.326564,1279.10456 372.784956,1279.10456 L372.784956,1279.10456 Z M364.935572,1285.06792 C365.477179,1285.06792 365.916745,1284.62266 365.916745,1284.07403 C365.916745,1283.5254 365.477179,1283.08013 364.935572,1283.08013 C364.393964,1283.08013 363.954399,1283.5254 363.954399,1284.07403 C363.954399,1284.62266 364.393964,1285.06792 364.935572,1285.06792 L364.935572,1285.06792 Z M364.935572,1293.01907 C365.477179,1293.01907 365.916745,1292.57381 365.916745,1292.02518 C365.916745,1291.47655 365.477179,1291.03128 364.935572,1291.03128 C364.393964,1291.03128 363.954399,1291.47655 363.954399,1292.02518 C363.954399,1292.57381 364.393964,1293.01907 364.935572,1293.01907 L364.935572,1293.01907 Z M370.82261,1296.99465 C370.281003,1296.99465 369.841437,1297.43991 369.841437,1297.98854 C369.841437,1298.53717 370.281003,1298.98244 370.82261,1298.98244 C371.364218,1298.98244 371.803783,1298.53717 371.803783,1297.98854 C371.803783,1297.43991 371.364218,1296.99465 370.82261,1296.99465 L370.82261,1296.99465 Z M383.290377,1284.77671 L377.978305,1279.34309 C377.793845,1279.15724 377.544627,1279.0002 377.284616,1279.0002 L376.709649,1279.0002 C376.168041,1279.0002 375.728476,1279.54982 375.728476,1280.09845 L375.728476,1281.09235 L375.728476,1282.08624 L375.728476,1285.06792 C375.728476,1286.16518 376.606626,1286.95135 377.690822,1286.95135 L380.634341,1286.95135 L381.615514,1286.95135 L382.596687,1286.95135 C383.138295,1286.95135 383.57786,1286.61045 383.57786,1286.06182 L383.57786,1285.47939 C383.57786,1285.21601 383.474837,1284.96356 383.290377,1284.77671 L383.290377,1284.77671 Z M363.954399,1288.0496 C363.954399,1287.50097 364.393964,1287.05571 364.935572,1287.05571 C365.477179,1287.05571 365.916745,1287.50097 365.916745,1288.0496 C365.916745,1288.59823 365.477179,1289.0435 364.935572,1289.0435 C364.393964,1289.0435 363.954399,1288.59823 363.954399,1288.0496 L363.954399,1288.0496 Z" id="file_missing_done-[#1712]"></path>
            </g>
        </g>
    </g>
</svg>