<?xml version="1.0" encoding="UTF-8" standalone="no"?>
<svg width="21px" height="21px" viewBox="0 0 21 21" version="1.1" xmlns="http://www.w3.org/2000/svg" xmlns:xlink="http://www.w3.org/1999/xlink">
    <!-- Generator: Sketch 3.8.1 (29687) - http://www.bohemiancoding.com/sketch -->
    <title>file_close [#1706]</title>
    <desc>Created with Sketch.</desc>
    <defs></defs>
    <g id="Page-1" stroke="none" stroke-width="1" fill="none" fill-rule="evenodd">
        <g id="Dribbble-Dark-Preview" transform="translate(-260.000000, -1479.000000)" fill="#FFFFFF">
            <g id="icons" transform="translate(56.000000, 160.000000)">
                <path d="M224.886349,1324.56739 L219.686934,1319.28634 C219.50017,1319.10316 219.246492,1319.0003 218.981827,1319.0003 L207.409482,1319.0003 L207.385513,1319.0003 C206.295893,1319.0003 205.205274,1319.9799 205.205274,1320.95951 L204.998536,1320.95951 L204.998536,1331.73514 C204.998536,1332.25335 205.597777,1332.6736 206.133099,1332.70789 C206.664426,1332.68928 206.996006,1332.26413 206.996006,1331.73514 L206.996006,1321.93911 C206.996006,1321.39837 207.856916,1320.95951 208.408218,1320.95951 L216.983358,1320.95951 L216.983358,1324.90143 C216.983358,1325.97018 218.280715,1326.83713 219.370335,1326.83713 L222.975769,1326.83713 L222.975769,1335.65356 C222.975769,1336.1943 222.94281,1336.63316 222.39051,1336.63316 L212.403158,1336.63316 C211.851856,1336.63316 211.404423,1337.07202 211.404423,1337.61276 C211.404423,1338.1535 211.851856,1338.59237 212.403158,1338.59237 L223.389245,1338.59237 L223.414213,1338.59237 C224.503833,1338.59237 224.973239,1337.72542 224.973239,1336.65667 L224.973239,1336.60965 L224.973239,1325.26094 C224.973239,1325.00135 225.074111,1324.75057 224.886349,1324.56739 L224.886349,1324.56739 Z M206.204009,1332.71475 C206.181038,1332.71475 206.157069,1332.70985 206.133099,1332.70789 C206.121114,1332.70887 206.113124,1332.71475 206.101139,1332.71475 L206.204009,1332.71475 Z M208.530063,1336.94271 L207.823958,1337.63529 L208.530063,1338.32787 C208.91957,1338.7109 208.91957,1339.33099 208.530063,1339.71303 C208.139558,1340.09606 207.507359,1340.09606 207.116853,1339.71303 L206.410747,1339.02045 L205.704642,1339.71303 C205.315135,1340.09606 204.682935,1340.09606 204.29243,1339.71303 C203.902923,1339.33099 203.902923,1338.7109 204.29243,1338.32787 L204.998536,1337.63529 L204.29243,1336.94271 C203.902923,1336.55969 203.902923,1335.9396 204.29243,1335.55755 C204.682935,1335.17453 205.315135,1335.17453 205.704642,1335.55755 L206.410747,1336.25013 L207.117852,1335.55755 C207.507359,1335.17453 208.139558,1335.17453 208.530063,1335.55755 C208.91957,1335.9396 208.91957,1336.55969 208.530063,1336.94271 L208.530063,1336.94271 Z" id="file_close-[#1706]"></path>
            </g>
        </g>
    </g>
</svg>