<?xml version="1.0" encoding="UTF-8" standalone="no"?>
<svg width="20px" height="20px" viewBox="0 0 20 20" version="1.1" xmlns="http://www.w3.org/2000/svg" xmlns:xlink="http://www.w3.org/1999/xlink">
    <!-- Generator: Sketch 3.8.1 (29687) - http://www.bohemiancoding.com/sketch -->
    <title>file_favorite [#1608]</title>
    <desc>Created with Sketch.</desc>
    <defs></defs>
    <g id="Page-1" stroke="none" stroke-width="1" fill="none" fill-rule="evenodd">
        <g id="Dribbble-Dark-Preview" transform="translate(-180.000000, -1879.000000)" fill="#FFFFFF">
            <g id="icons" transform="translate(56.000000, 160.000000)">
                <path d="M135.952,1729.263 L137.528,1729.492 C138.148,1729.582 138.395,1730.344 137.947,1730.781 L136.806,1731.892 C136.628,1732.066 136.547,1732.316 136.589,1732.561 L136.858,1734.131 C136.942,1734.619 136.554,1735.016 136.113,1735.016 C135.997,1735.016 135.877,1734.988 135.762,1734.928 L134.352,1734.186 C134.242,1734.129 134.121,1734.1 134,1734.1 C133.88,1734.1 133.759,1734.129 133.649,1734.186 L132.239,1734.928 C132.124,1734.988 132.004,1735.016 131.888,1735.016 C131.447,1735.016 131.059,1734.619 131.143,1734.131 L131.412,1732.561 C131.454,1732.316 131.373,1732.066 131.195,1731.892 L130.054,1730.781 C129.606,1730.344 129.853,1729.582 130.473,1729.492 L132.049,1729.263 C132.295,1729.227 132.508,1729.073 132.618,1728.849 L133.323,1727.422 C133.461,1727.141 133.731,1727 134,1727 C134.27,1727 134.54,1727.141 134.678,1727.422 L135.383,1728.849 C135.493,1729.073 135.706,1729.227 135.952,1729.263 L135.952,1729.263 Z M142,1737 L126,1737 L126,1721 L136,1721 L136,1727 L142,1727 L142,1737 Z M138,1719 L124,1719 L124,1739 L144,1739 L144,1725.21 L138,1719 Z" id="file_favorite-[#1608]"></path>
            </g>
        </g>
    </g>
</svg>