<?xml version="1.0" encoding="UTF-8" standalone="no"?>
<svg width="14px" height="20px" viewBox="0 0 14 20" version="1.1" xmlns="http://www.w3.org/2000/svg" xmlns:xlink="http://www.w3.org/1999/xlink">
    <!-- Generator: Sketch 3.8.1 (29687) - http://www.bohemiancoding.com/sketch -->
    <title>fileboard_close [#1589]</title>
    <desc>Created with Sketch.</desc>
    <defs></defs>
    <g id="Page-1" stroke="none" stroke-width="1" fill="none" fill-rule="evenodd">
        <g id="Dribbble-Dark-Preview" transform="translate(-143.000000, -1959.000000)" fill="#FFFFFF">
            <g id="icons" transform="translate(56.000000, 160.000000)">
                <path d="M96.828,1808.674 L95.414,1810.088 L96.828,1811.502 L95.414,1812.917 L94,1811.502 L92.585,1812.917 L91.171,1811.502 L92.585,1810.088 L91.171,1808.674 L92.585,1807.26 L94,1808.674 L95.414,1807.26 L96.828,1808.674 Z M99,1817 L89,1817 L89,1803 L90,1803 L90,1805 L98,1805 L98,1803 L99,1803 L99,1817 Z M92,1803 L96,1803 L96,1801 L92,1801 L92,1803 Z M98,1801 L98,1799 L90,1799 L90,1801 L87,1801 L87,1819 L101,1819 L101,1801 L98,1801 Z" id="fileboard_close-[#1589]"></path>
            </g>
        </g>
    </g>
</svg>