<?xml version="1.0" encoding="UTF-8" standalone="no"?>
<svg width="24px" height="23px" viewBox="0 0 24 23" version="1.1" xmlns="http://www.w3.org/2000/svg" xmlns:xlink="http://www.w3.org/1999/xlink">
    <!-- Generator: Sketch 3.8.1 (29687) - http://www.bohemiancoding.com/sketch -->
    <title>file_missing_love_favorite [#1720]</title>
    <desc>Created with Sketch.</desc>
    <defs></defs>
    <g id="Page-1" stroke="none" stroke-width="1" fill="none" fill-rule="evenodd">
        <g id="Dribbble-Dark-Preview" transform="translate(-96.000000, -1439.000000)" fill="#FFFFFF">
            <g id="icons" transform="translate(56.000000, 160.000000)">
                <path d="M44.9197835,1296.27058 C44.8435046,1296.36975 44.6899564,1296.37175 44.6126869,1296.27258 C42.4808425,1293.53888 38.7283208,1297.06094 42.1886054,1300.31353 C44.7919917,1302.76173 45.1654607,1302.335 47.2715486,1300.38164 C50.8893441,1297.02688 47.018937,1293.55992 44.9197835,1296.27058 L44.9197835,1296.27058 Z M61.8011779,1291.12574 L63.782446,1291.12574 L63.782446,1289.12229 L61.8011779,1289.12229 L61.8011779,1291.12574 Z M53.8761057,1299.13951 L55.8573738,1299.13951 L55.8573738,1297.13607 L53.8761057,1297.13607 L53.8761057,1299.13951 Z M57.8386418,1299.13951 L59.8199099,1299.13951 L59.8199099,1297.13607 L57.8386418,1297.13607 L57.8386418,1299.13951 Z M61.8011779,1299.13951 L63.782446,1299.13951 L63.782446,1297.13607 L61.8011779,1297.13607 L61.8011779,1299.13951 Z M43.9697654,1281.10852 L45.9510335,1281.10852 L45.9510335,1279.10508 L43.9697654,1279.10508 L43.9697654,1281.10852 Z M61.8011779,1295.13262 L63.782446,1295.13262 L63.782446,1293.12918 L61.8011779,1293.12918 L61.8011779,1295.13262 Z M47.9323015,1281.10852 L49.9135696,1281.10852 L49.9135696,1279.10508 L47.9323015,1279.10508 L47.9323015,1281.10852 Z M51.8948376,1281.10852 L53.8761057,1281.10852 L53.8761057,1279.10508 L51.8948376,1279.10508 L51.8948376,1281.10852 Z M43.9697654,1285.11541 L45.9510335,1285.11541 L45.9510335,1283.11197 L43.9697654,1283.11197 L43.9697654,1285.11541 Z M43.9697654,1293.12918 L45.9510335,1293.12918 L45.9510335,1291.12574 L43.9697654,1291.12574 L43.9697654,1293.12918 Z M49.9135696,1299.13951 L51.8948376,1299.13951 L51.8948376,1297.13607 L49.9135696,1297.13607 L49.9135696,1299.13951 Z M57.8386418,1279.0009 L55.8573738,1279.0009 L55.8573738,1287.01467 L63.782446,1287.01467 L63.782446,1285.11541 L57.8386418,1279.0009 Z M43.9697654,1289.12229 L45.9510335,1289.12229 L45.9510335,1287.11885 L43.9697654,1287.11885 L43.9697654,1289.12229 Z" id="file_missing_love_favorite-[#1720]"></path>
            </g>
        </g>
    </g>
</svg>