<?xml version="1.0" encoding="UTF-8" standalone="no"?>
<svg width="20px" height="20px" viewBox="0 0 20 20" version="1.1" xmlns="http://www.w3.org/2000/svg" xmlns:xlink="http://www.w3.org/1999/xlink">
    <!-- Generator: Sketch 3.8.1 (29687) - http://www.bohemiancoding.com/sketch -->
    <title>file_js [#1738]</title>
    <desc>Created with Sketch.</desc>
    <defs></defs>
    <g id="Page-1" stroke="none" stroke-width="1" fill="none" fill-rule="evenodd">
        <g id="Dribbble-Dark-Preview" transform="translate(-180.000000, -1359.000000)" fill="#FFFFFF">
            <g id="icons" transform="translate(56.000000, 160.000000)">
                <path d="M137.9792,1199.0005 L124.0002,1199.0005 L124.0002,1209.0005 L126.0002,1209.0005 L126.0002,1201.0005 L136.0002,1201.0005 L136.0002,1207.0005 L142.0002,1207.0005 L142.0002,1217.0005 L139.0002,1217.0005 L139.0002,1219.0005 L144.0002,1219.0005 L144.0002,1204.6525 L137.9792,1199.0005 Z M128.0002,1216.1055 C128.0002,1216.6575 127.5522,1217.0005 127.0002,1217.0005 L124.0002,1217.0005 L124.0002,1219.0005 L128.0002,1219.0005 C129.1042,1219.0005 130.0002,1218.2095 130.0002,1217.1055 L130.0002,1211.0005 L128.0002,1211.0005 L128.0002,1216.1055 Z M137.0002,1211.0005 L137.0002,1213.0005 L133.5002,1213.0005 C133.2242,1213.0005 133.0002,1213.2245 133.0002,1213.5005 C133.0002,1213.7765 133.2242,1214.0005 133.5002,1214.0005 L135.0002,1214.0005 L135.0212,1214.0005 C136.1142,1214.0005 137.0002,1214.9915 137.0002,1216.0845 L137.0002,1217.1255 C137.0002,1218.2195 136.1142,1219.0005 135.0212,1219.0005 L135.0002,1219.0005 L131.0002,1219.0005 L131.0002,1217.0005 L134.5002,1217.0005 C134.7762,1217.0005 135.0002,1216.7765 135.0002,1216.5005 C135.0002,1216.2245 134.7762,1216.0005 134.5002,1216.0005 L133.0002,1216.0005 C131.8952,1216.0005 131.0002,1215.2095 131.0002,1214.1055 L131.0002,1213.1055 C131.0002,1212.0005 131.8952,1211.0005 133.0002,1211.0005 L137.0002,1211.0005 Z" id="file_js-[#1738]"></path>
            </g>
        </g>
    </g>
</svg>