<?xml version="1.0" encoding="UTF-8" standalone="no"?>
<svg width="20px" height="20px" viewBox="0 0 20 20" version="1.1" xmlns="http://www.w3.org/2000/svg" xmlns:xlink="http://www.w3.org/1999/xlink">
    <!-- Generator: Sketch 3.8.1 (29687) - http://www.bohemiancoding.com/sketch -->
    <title>file_favorite [#1609]</title>
    <desc>Created with Sketch.</desc>
    <defs></defs>
    <g id="Page-1" stroke="none" stroke-width="1" fill="none" fill-rule="evenodd">
        <g id="Dribbble-Dark-Preview" transform="translate(-140.000000, -1879.000000)" fill="#FFFFFF">
            <g id="icons" transform="translate(56.000000, 160.000000)">
                <path d="M97.946,1730.781 L96.806,1731.892 C96.628,1732.066 96.546,1732.316 96.588,1732.561 L96.858,1734.131 C96.941,1734.619 96.553,1735.016 96.113,1735.016 C95.997,1735.016 95.877,1734.988 95.761,1734.927 L94.352,1734.186 C94.242,1734.129 94.121,1734.1 94,1734.1 C93.879,1734.1 93.758,1734.129 93.648,1734.186 L92.239,1734.927 C92.123,1734.988 92.003,1735.016 91.887,1735.016 C91.447,1735.016 91.058,1734.619 91.142,1734.131 L91.411,1732.561 C91.454,1732.316 91.372,1732.066 91.194,1731.892 L90.054,1730.781 C89.605,1730.344 89.853,1729.582 90.473,1729.492 L92.048,1729.263 C92.295,1729.227 92.507,1729.073 92.618,1728.849 L93.322,1727.422 C93.461,1727.141 93.73,1727 94,1727 C94.27,1727 94.539,1727.141 94.678,1727.422 L95.382,1728.849 C95.493,1729.073 95.705,1729.227 95.951,1729.263 L97.527,1729.492 C98.147,1729.582 98.395,1730.344 97.946,1730.781 L97.946,1730.781 Z M102,1736 C102,1736.552 101.552,1737 101,1737 L87,1737 C86.448,1737 86,1736.552 86,1736 L86,1722 C86,1721.448 86.448,1721 87,1721 L96,1721 L96,1725 C96,1726.105 96.895,1727 98,1727 L102,1727 L102,1736 Z M103.707,1724.707 L98.293,1719.293 C98.105,1719.106 97.851,1719 97.586,1719 L86,1719 C84.895,1719 84,1719.896 84,1721 L84,1737 C84,1738.105 84.895,1739 86,1739 L102,1739 C103.105,1739 104,1738.105 104,1737 L104,1725.414 C104,1725.149 103.895,1724.895 103.707,1724.707 L103.707,1724.707 Z" id="file_favorite-[#1609]"></path>
            </g>
        </g>
    </g>
</svg>