<?xml version="1.0" encoding="UTF-8" standalone="no"?>
<svg width="20px" height="20px" viewBox="0 0 20 20" version="1.1" xmlns="http://www.w3.org/2000/svg" xmlns:xlink="http://www.w3.org/1999/xlink">
    <!-- Generator: Sketch 3.8.1 (29687) - http://www.bohemiancoding.com/sketch -->
    <title>file_doc [#1748]</title>
    <desc>Created with Sketch.</desc>
    <defs></defs>
    <g id="Page-1" stroke="none" stroke-width="1" fill="none" fill-rule="evenodd">
        <g id="Dribbble-Dark-Preview" transform="translate(-180.000000, -1319.000000)" fill="#FFFFFF">
            <g id="icons" transform="translate(56.000000, 160.000000)">
                <path d="M143.7248,1165.149 L138.2748,1159.364 C138.0858,1159.165 137.8238,1159.001 137.5498,1159.001 L125.9998,1159.001 C124.8958,1159.001 123.9998,1160.001 123.9998,1161.105 L123.9998,1168.105 C123.9998,1168.657 124.4478,1169.105 124.9998,1169.105 C125.5528,1169.105 125.9998,1168.657 125.9998,1168.105 L125.9998,1162.105 C125.9998,1161.553 126.4478,1161.001 126.9998,1161.001 L135.9998,1161.001 L135.9998,1165.105 C135.9998,1166.21 136.8958,1167.001 137.9998,1167.001 L141.9998,1167.001 L141.9998,1168.105 C141.9998,1168.657 142.4478,1169.105 142.9998,1169.105 C143.5528,1169.105 143.9998,1168.657 143.9998,1168.105 L143.9998,1165.838 C143.9998,1165.581 143.9018,1165.335 143.7248,1165.149 L143.7248,1165.149 Z M134.9998,1174.001 C134.9998,1173.448 134.5518,1173.001 133.9998,1173.001 C133.4478,1173.001 132.9998,1173.448 132.9998,1174.001 L132.9998,1176.001 C132.9998,1176.553 133.4478,1177.001 133.9998,1177.001 C134.5518,1177.001 134.9998,1176.553 134.9998,1176.001 L134.9998,1174.001 Z M136.9998,1173.001 L136.9998,1177.001 C136.9998,1178.105 136.1048,1179.001 134.9998,1179.001 L132.9998,1179.001 C131.8958,1179.001 130.9998,1178.105 130.9998,1177.001 L130.9998,1173.001 C130.9998,1171.896 131.8958,1171.001 132.9998,1171.001 L134.9998,1171.001 C136.1048,1171.001 136.9998,1171.896 136.9998,1173.001 L136.9998,1173.001 Z M127.9998,1174.105 C127.9998,1173.553 127.5528,1173.001 126.9998,1173.001 L125.9998,1173.001 L125.9998,1177.001 L126.9998,1177.001 C127.5528,1177.001 127.9998,1176.657 127.9998,1176.105 L127.9998,1174.105 Z M129.9998,1173.105 L129.9998,1177.105 C129.9998,1178.21 129.1048,1179.001 127.9998,1179.001 L124.9998,1179.001 C124.4478,1179.001 123.9998,1178.657 123.9998,1178.105 L123.9998,1177.105 L123.9998,1173.105 L123.9998,1172.105 C123.9998,1171.553 124.4478,1171.001 124.9998,1171.001 L127.9998,1171.001 C129.1048,1171.001 129.9998,1172.001 129.9998,1173.105 L129.9998,1173.105 Z M143.9998,1172.027 L143.9998,1172.053 C143.9998,1172.605 143.5528,1173.001 142.9998,1173.001 L141.9998,1173.001 C140.7858,1173.001 139.8238,1174.083 140.0278,1175.336 C140.1868,1176.32 141.1108,1177.001 142.1068,1177.001 L142.9998,1177.001 C143.5528,1177.001 143.9998,1177.474 143.9998,1178.027 L143.9998,1178.053 C143.9998,1178.605 143.5528,1179.001 142.9998,1179.001 L142.1718,1179.001 C140.0828,1179.001 138.2168,1177.473 138.0188,1175.393 C137.7918,1173.008 139.6608,1171.001 141.9998,1171.001 L142.9998,1171.001 C143.5528,1171.001 143.9998,1171.474 143.9998,1172.027 L143.9998,1172.027 Z" id="file_doc-[#1748]"></path>
            </g>
        </g>
    </g>
</svg>