<?xml version="1.0" encoding="UTF-8" standalone="no"?>
<svg width="20px" height="20px" viewBox="0 0 20 20" version="1.1" xmlns="http://www.w3.org/2000/svg" xmlns:xlink="http://www.w3.org/1999/xlink">
    <!-- Generator: Sketch 3.8.1 (29687) - http://www.bohemiancoding.com/sketch -->
    <title>file_text_data [#1701]</title>
    <desc>Created with Sketch.</desc>
    <defs></defs>
    <g id="Page-1" stroke="none" stroke-width="1" fill="none" fill-rule="evenodd">
        <g id="Dribbble-Dark-Preview" transform="translate(-60.000000, -1519.000000)" fill="#FFFFFF">
            <g id="icons" transform="translate(56.000000, 160.000000)">
                <path d="M20,1374.0005 C20,1374.5525 19.552,1375.0005 19,1375.0005 L9,1375.0005 C8.448,1375.0005 8,1374.5525 8,1374.0005 C8,1373.4485 8.448,1373.0005 9,1373.0005 L19,1373.0005 C19.552,1373.0005 20,1373.4485 20,1374.0005 L20,1374.0005 Z M9,1369.0005 L19,1369.0005 C19.552,1369.0005 20,1369.4485 20,1370.0005 C20,1370.5525 19.552,1371.0005 19,1371.0005 L9,1371.0005 C8.448,1371.0005 8,1370.5525 8,1370.0005 C8,1369.4485 8.448,1369.0005 9,1369.0005 L9,1369.0005 Z M8,1366.0005 L8,1364.0005 C8,1363.4485 8.448,1363.0005 9,1363.0005 L13,1363.0005 C13.552,1363.0005 14,1363.4485 14,1364.0005 L14,1366.0005 C14,1366.5525 13.552,1367.0005 13,1367.0005 L9,1367.0005 C8.448,1367.0005 8,1366.5525 8,1366.0005 L8,1366.0005 Z M22,1376.0005 C22,1376.5525 21.552,1377.0005 21,1377.0005 L7,1377.0005 C6.448,1377.0005 6,1376.5525 6,1376.0005 L6,1362.0005 C6,1361.4485 6.448,1361.0005 7,1361.0005 L16,1361.0005 L16,1365.0005 C16,1366.1045 16.895,1367.0005 18,1367.0005 L22,1367.0005 L22,1376.0005 Z M23.707,1364.7075 L18.293,1359.2935 C18.105,1359.1055 17.851,1359.0005 17.586,1359.0005 L6,1359.0005 C4.895,1359.0005 4,1359.8955 4,1361.0005 L4,1377.0005 C4,1378.1045 4.895,1379.0005 6,1379.0005 L22,1379.0005 C23.105,1379.0005 24,1378.1045 24,1377.0005 L24,1365.4145 C24,1365.1495 23.895,1364.8955 23.707,1364.7075 L23.707,1364.7075 Z" id="file_text_data-[#1701]"></path>
            </g>
        </g>
    </g>
</svg>