<?xml version="1.0" encoding="UTF-8" standalone="no"?>
<svg width="22px" height="22px" viewBox="0 0 22 22" version="1.1" xmlns="http://www.w3.org/2000/svg" xmlns:xlink="http://www.w3.org/1999/xlink">
    <!-- Generator: Sketch 3.8.1 (29687) - http://www.bohemiancoding.com/sketch -->
    <title>file_missing_plus [#1710]</title>
    <desc>Created with Sketch.</desc>
    <defs></defs>
    <g id="Page-1" stroke="none" stroke-width="1" fill="none" fill-rule="evenodd">
        <g id="Dribbble-Dark-Preview" transform="translate(-98.000000, -1479.000000)" fill="#FFFFFF">
            <g id="icons" transform="translate(56.000000, 160.000000)">
                <path d="M63,1329.05522 C62.448,1329.05522 62,1329.501 62,1330.05027 C62,1330.59954 62.448,1331.04533 63,1331.04533 C63.552,1331.04533 64,1330.59954 64,1330.05027 C64,1329.501 63.552,1329.05522 63,1329.05522 L63,1329.05522 Z M55,1337.01566 C54.448,1337.01566 54,1337.46145 54,1338.01072 C54,1338.55999 54.448,1339.00578 55,1339.00578 C55.552,1339.00578 56,1338.55999 56,1338.01072 C56,1337.46145 55.552,1337.01566 55,1337.01566 L55,1337.01566 Z M59,1337.01566 C58.448,1337.01566 58,1337.46145 58,1338.01072 C58,1338.55999 58.448,1339.00578 59,1339.00578 C59.552,1339.00578 60,1338.55999 60,1338.01072 C60,1337.46145 59.552,1337.01566 59,1337.01566 L59,1337.01566 Z M63,1337.01566 C62.448,1337.01566 62,1337.46145 62,1338.01072 C62,1338.55999 62.448,1339.00578 63,1339.00578 C63.552,1339.00578 64,1338.55999 64,1338.01072 C64,1337.46145 63.552,1337.01566 63,1337.01566 L63,1337.01566 Z M47,1336.91118 L46,1336.91118 L46,1336.02061 C46,1335.47134 45.552,1335.02555 45,1335.02555 C44.448,1335.02555 44,1335.47134 44,1336.02061 L44,1336.91118 L43,1336.91118 C42.452,1336.91118 42.01,1337.40175 42.003,1337.94505 C42.01,1338.48835 42.452,1338.9013 43,1338.9013 L44,1338.9013 L44,1340.00083 C44,1340.5501 44.448,1340.99589 45,1340.99589 C45.552,1340.99589 46,1340.5501 46,1340.00083 L46,1338.9013 L47,1338.9013 C47.552,1338.9013 48,1338.50825 48,1337.95898 L48,1337.93211 C48,1337.38284 47.552,1336.91118 47,1336.91118 L47,1336.91118 Z M42,1337.95898 C42,1337.954 42.003,1337.95002 42.003,1337.94505 C42.003,1337.94107 42,1337.93709 42,1337.93211 L42,1337.95898 Z M45,1321.09477 C45.552,1321.09477 46,1320.64899 46,1320.09972 C46,1319.55044 45.552,1319.10466 45,1319.10466 C44.448,1319.10466 44,1319.55044 44,1320.09972 C44,1320.64899 44.448,1321.09477 45,1321.09477 L45,1321.09477 Z M63,1333.03544 C62.448,1333.03544 62,1333.48123 62,1334.0305 C62,1334.57977 62.448,1335.02555 63,1335.02555 C63.552,1335.02555 64,1334.57977 64,1334.0305 C64,1333.48123 63.552,1333.03544 63,1333.03544 L63,1333.03544 Z M49,1319.10466 C48.448,1319.10466 48,1319.55044 48,1320.09972 C48,1320.64899 48.448,1321.09477 49,1321.09477 C49.552,1321.09477 50,1320.64899 50,1320.09972 C50,1319.55044 49.552,1319.10466 49,1319.10466 L49,1319.10466 Z M53,1319.10466 C52.448,1319.10466 52,1319.55044 52,1320.09972 C52,1320.64899 52.448,1321.09477 53,1321.09477 C53.552,1321.09477 54,1320.64899 54,1320.09972 C54,1319.55044 53.552,1319.10466 53,1319.10466 L53,1319.10466 Z M45,1325.07499 C45.552,1325.07499 46,1324.62921 46,1324.07994 C46,1323.53067 45.552,1323.08488 45,1323.08488 C44.448,1323.08488 44,1323.53067 44,1324.07994 C44,1324.62921 44.448,1325.07499 45,1325.07499 L45,1325.07499 Z M45,1333.03544 C45.552,1333.03544 46,1332.58966 46,1332.04039 C46,1331.49111 45.552,1331.04533 45,1331.04533 C44.448,1331.04533 44,1331.49111 44,1332.04039 C44,1332.58966 44.448,1333.03544 45,1333.03544 L45,1333.03544 Z M51,1337.01566 C50.448,1337.01566 50,1337.46145 50,1338.01072 C50,1338.55999 50.448,1339.00578 51,1339.00578 C51.552,1339.00578 52,1338.55999 52,1338.01072 C52,1337.46145 51.552,1337.01566 51,1337.01566 L51,1337.01566 Z M63.707,1324.78344 L58.293,1319.34347 C57.878,1318.93152 57.596,1319.00018 57,1319.00018 C56.448,1319.00018 56,1319.55044 56,1320.09972 L56,1325.07499 C56,1326.17354 56.895,1326.96063 58,1326.96063 L63,1326.96063 C63.552,1326.96063 64,1326.61932 64,1326.07005 C64,1325.54864 64.067,1325.14166 63.707,1324.78344 L63.707,1324.78344 Z M44,1328.06016 C44,1327.51089 44.448,1327.06511 45,1327.06511 C45.552,1327.06511 46,1327.51089 46,1328.06016 C46,1328.60943 45.552,1329.05522 45,1329.05522 C44.448,1329.05522 44,1328.60943 44,1328.06016 L44,1328.06016 Z" id="file_missing_plus-[#1710]"></path>
            </g>
        </g>
    </g>
</svg>