<?xml version="1.0" encoding="UTF-8" standalone="no"?>
<svg width="20px" height="20px" viewBox="0 0 20 20" version="1.1" xmlns="http://www.w3.org/2000/svg" xmlns:xlink="http://www.w3.org/1999/xlink">
    <!-- Generator: Sketch 3.8.1 (29687) - http://www.bohemiancoding.com/sketch -->
    <title>file_txt [#1733]</title>
    <desc>Created with Sketch.</desc>
    <defs></defs>
    <g id="Page-1" stroke="none" stroke-width="1" fill="none" fill-rule="evenodd">
        <g id="Dribbble-Dark-Preview" transform="translate(-380.000000, -1359.000000)" fill="#FFFFFF">
            <g id="icons" transform="translate(56.000000, 160.000000)">
                <path d="M337.9792,1199.0005 L324.0002,1199.0005 L324.0002,1209.0005 L326.0002,1209.0005 L326.0002,1201.0005 L336.0002,1201.0005 L336.0002,1207.0005 L342.0002,1207.0005 L342.0002,1209.0005 L344.0002,1209.0005 L344.0002,1205.4385 L337.9792,1199.0005 Z M334.9792,1211.0005 L333.9792,1213.0005 L332.9792,1211.0005 L330.9792,1211.0005 L332.9792,1215.0005 L330.9792,1219.0005 L332.9792,1219.0005 L333.9792,1217.0005 L334.9792,1219.0005 L336.9792,1219.0005 L334.9792,1215.0005 L336.9792,1211.0005 L334.9792,1211.0005 Z M338.0002,1211.0005 L338.0002,1213.0005 L340.0002,1213.0005 L340.0002,1219.0005 L342.0002,1219.0005 L342.0002,1213.0005 L344.0002,1213.0005 L344.0002,1211.0005 L338.0002,1211.0005 Z M330.0002,1211.0005 L330.0002,1213.0005 L328.0002,1213.0005 L328.0002,1219.0005 L326.0002,1219.0005 L326.0002,1213.0005 L324.0002,1213.0005 L324.0002,1211.0005 L330.0002,1211.0005 Z" id="file_txt-[#1733]"></path>
            </g>
        </g>
    </g>
</svg>