<?xml version="1.0" encoding="UTF-8" standalone="no"?>
<svg width="20px" height="20px" viewBox="0 0 20 20" version="1.1" xmlns="http://www.w3.org/2000/svg" xmlns:xlink="http://www.w3.org/1999/xlink">
    <!-- Generator: Sketch 3.8.1 (29687) - http://www.bohemiancoding.com/sketch -->
    <title>file_arrow_down [#1613]</title>
    <desc>Created with Sketch.</desc>
    <defs></defs>
    <g id="Page-1" stroke="none" stroke-width="1" fill="none" fill-rule="evenodd">
        <g id="Dribbble-Dark-Preview" transform="translate(-380.000000, -1839.000000)" fill="#FFFFFF">
            <g id="icons" transform="translate(56.000000, 160.000000)">
                <path d="M329.0857,1697.0005 L328.5547,1697.0005 C328.1087,1697.0005 327.8857,1696.4605 328.2027,1696.1465 L333.2857,1691.0905 C333.6677,1690.7095 333.6697,1690.0915 333.2897,1689.7085 C332.9077,1689.3225 332.2837,1689.3225 331.9017,1689.7085 L326.8547,1694.7955 C326.5407,1695.1125 325.9997,1694.8895 325.9997,1694.4435 L325.9997,1694.0005 C325.9997,1693.4485 325.5527,1693.0005 324.9997,1693.0005 C324.4477,1693.0005 323.9997,1693.4485 323.9997,1694.0005 L323.9997,1697.0005 C323.9997,1698.1045 324.8957,1699.0005 325.9997,1699.0005 L329.0857,1699.0005 C329.6327,1699.0005 330.0777,1698.5615 330.0857,1698.0155 C330.0937,1697.4575 329.6437,1697.0005 329.0857,1697.0005 M343.9997,1685.4915 L343.9997,1697.0005 C343.9997,1698.1045 343.1047,1699.0005 341.9997,1699.0005 L332.9997,1699.0005 C332.4477,1699.0005 331.9997,1698.5525 331.9997,1698.0005 C331.9997,1697.4485 332.4477,1697.0005 332.9997,1697.0005 L340.9997,1697.0005 C341.5527,1697.0005 341.9997,1696.5525 341.9997,1696.0005 L341.9997,1687.0005 L337.9997,1687.0005 C336.8957,1687.0005 335.9997,1686.1045 335.9997,1685.0005 L335.9997,1681.0005 L326.9997,1681.0005 C326.4477,1681.0005 325.9997,1681.4485 325.9997,1682.0005 L325.9997,1690.0005 C325.9997,1690.5525 325.5527,1691.0005 324.9997,1691.0005 C324.4477,1691.0005 323.9997,1690.5525 323.9997,1690.0005 L323.9997,1681.0005 C323.9997,1679.8955 324.8957,1679.0005 325.9997,1679.0005 L337.5817,1679.0005 C337.8497,1679.0005 338.1057,1679.1075 338.2937,1679.2985 L343.7117,1684.7895 C343.8967,1684.9765 343.9997,1685.2285 343.9997,1685.4915" id="file_arrow_down-[#1613]"></path>
            </g>
        </g>
    </g>
</svg>