<?xml version="1.0" encoding="UTF-8" standalone="no"?>
<svg width="20px" height="20px" viewBox="0 0 20 20" version="1.1" xmlns="http://www.w3.org/2000/svg" xmlns:xlink="http://www.w3.org/1999/xlink">
    <!-- Generator: Sketch 3.8.1 (29687) - http://www.bohemiancoding.com/sketch -->
    <title>file_eps [#1727]</title>
    <desc>Created with Sketch.</desc>
    <defs></defs>
    <g id="Page-1" stroke="none" stroke-width="1" fill="none" fill-rule="evenodd">
        <g id="Dribbble-Dark-Preview" transform="translate(-220.000000, -1399.000000)" fill="#FFFFFF">
            <g id="icons" transform="translate(56.000000, 160.000000)">
                <path d="M177.9792,1239.0005 L164.0002,1239.0005 L164.0002,1249.0005 L166.0002,1249.0005 L166.0002,1241.0005 L176.0002,1241.0005 L176.0002,1247.0005 L182.0002,1247.0005 L182.0002,1249.0005 L184.0002,1249.0005 L184.0002,1245.4385 L177.9792,1239.0005 Z M175.0002,1254.1055 C175.0002,1253.5525 174.5522,1253.1055 174.0002,1253.1055 L173.0002,1253.1055 L173.0002,1255.1055 L174.0002,1255.1055 C174.5522,1255.1055 175.0002,1254.6575 175.0002,1254.1055 L175.0002,1254.1055 Z M177.0002,1254.0005 C177.0002,1255.6575 175.6572,1257.0005 174.0002,1257.0005 L173.0002,1257.0005 L173.0002,1259.0005 L171.0002,1259.0005 L171.0002,1251.0005 L174.0002,1251.0005 C175.6572,1251.0005 177.0002,1252.3435 177.0002,1254.0005 L177.0002,1254.0005 Z M164.0002,1251.0005 L164.0002,1259.0005 L170.0002,1259.0005 L170.0002,1257.0005 L166.0002,1257.0005 L166.0002,1256.0005 L170.0002,1256.0005 L170.0002,1254.0005 L166.0002,1254.0005 L166.0002,1253.0005 L170.0002,1253.0005 L170.0002,1251.0005 L164.0002,1251.0005 Z M184.0002,1251.0005 L184.0002,1253.0005 L180.5002,1253.0005 C180.2242,1253.0005 180.0002,1253.2245 180.0002,1253.5005 C180.0002,1253.7765 180.2242,1254.0005 180.5002,1254.0005 L182.0002,1254.0005 L182.0212,1254.0005 C183.1142,1254.0005 184.0002,1254.9915 184.0002,1256.0845 L184.0002,1257.1255 C184.0002,1258.2195 183.1142,1259.0005 182.0212,1259.0005 L182.0002,1259.0005 L178.0002,1259.0005 L178.0002,1257.0005 L181.5002,1257.0005 C181.7762,1257.0005 182.0002,1256.7765 182.0002,1256.5005 C182.0002,1256.2245 181.7762,1256.0005 181.5002,1256.0005 L180.0002,1256.0005 C178.8952,1256.0005 178.0002,1255.2095 178.0002,1254.1055 L178.0002,1253.1055 C178.0002,1252.0005 178.8952,1251.0005 180.0002,1251.0005 L184.0002,1251.0005 Z" id="file_eps-[#1727]"></path>
            </g>
        </g>
    </g>
</svg>