<?xml version="1.0" encoding="UTF-8" standalone="no"?>
<svg width="20px" height="20px" viewBox="0 0 20 20" version="1.1" xmlns="http://www.w3.org/2000/svg" xmlns:xlink="http://www.w3.org/1999/xlink">
    <!-- Generator: Sketch 3.8.1 (29687) - http://www.bohemiancoding.com/sketch -->
    <title>file_locked [#1615]</title>
    <desc>Created with Sketch.</desc>
    <defs></defs>
    <g id="Page-1" stroke="none" stroke-width="1" fill="none" fill-rule="evenodd">
        <g id="Dribbble-Dark-Preview" transform="translate(-300.000000, -1839.000000)" fill="#FFFFFF">
            <g id="icons" transform="translate(56.000000, 160.000000)">
                <path d="M264,1685.2099 L264,1699.0009 L254,1699.0009 L254,1697.0009 L262,1697.0009 L262,1687.0009 L256,1687.0009 L256,1681.0009 L246,1681.0009 L246,1689.0009 L244,1689.0009 L244,1679.0009 L258.022,1679.0009 L264,1685.2099 Z M246,1697.0009 L250,1697.0009 L250,1696.0009 L246,1696.0009 L246,1697.0009 Z M249.022,1694.0009 L247.022,1694.0009 C247.022,1693.0009 249.022,1693.0009 249.022,1694.0009 L249.022,1694.0009 Z M245.022,1694.0009 L244,1694.0009 L244,1699.0009 L252,1699.0009 L252,1694.0009 L251.022,1694.0009 C251.022,1690.0009 245.022,1690.0009 245.022,1694.0009 L245.022,1694.0009 Z" id="file_locked-[#1615]"></path>
            </g>
        </g>
    </g>
</svg>