<?xml version="1.0" encoding="UTF-8" standalone="no"?>
<svg width="14px" height="20px" viewBox="0 0 14 20" version="1.1" xmlns="http://www.w3.org/2000/svg" xmlns:xlink="http://www.w3.org/1999/xlink">
    <!-- Generator: Sketch 3.8.1 (29687) - http://www.bohemiancoding.com/sketch -->
    <title>fileboard_done [#1584]</title>
    <desc>Created with Sketch.</desc>
    <defs></defs>
    <g id="Page-1" stroke="none" stroke-width="1" fill="none" fill-rule="evenodd">
        <g id="Dribbble-Dark-Preview" transform="translate(-343.000000, -1959.000000)" fill="#FFFFFF">
            <g id="icons" transform="translate(56.000000, 160.000000)">
                <path d="M299,1803.5 C299,1803.224 298.776,1803 298.5,1803 L298,1803 C298,1804.104 297.105,1805 296,1805 L292,1805 C290.895,1805 290,1804.104 290,1803 L289.5,1803 C289.224,1803 289,1803.224 289,1803.5 L289,1816 C289,1816.552 289.448,1817 290,1817 L298,1817 C298.552,1817 299,1816.552 299,1816 L299,1803.5 Z M292,1802 C292,1802.552 292.448,1803 293,1803 L295,1803 C295.552,1803 296,1802.552 296,1802 C296,1801.448 295.552,1801 295,1801 L293,1801 C292.448,1801 292,1801.448 292,1802 L292,1802 Z M301,1803 L301,1817 C301,1818.104 300.105,1819 299,1819 L289,1819 C287.895,1819 287,1818.104 287,1817 L287,1803 C287,1801.895 287.895,1801 289,1801 L290,1801 C290,1799.895 290.895,1799 292,1799 L296,1799 C297.105,1799 298,1799.895 298,1801 L299,1801 C300.105,1801 301,1801.895 301,1803 L301,1803 Z M296.828,1807.879 C297.219,1808.269 297.219,1808.902 296.828,1809.293 L293.293,1812.828 C291.549,1811.084 291.907,1811.442 291.172,1810.707 C290.781,1810.317 290.781,1809.683 291.172,1809.293 C291.562,1808.902 292.195,1808.902 292.586,1809.293 L293.293,1810 L295.414,1807.879 C295.805,1807.488 296.438,1807.488 296.828,1807.879 L296.828,1807.879 Z" id="fileboard_done-[#1584]"></path>
            </g>
        </g>
    </g>
</svg>