<?xml version="1.0" encoding="UTF-8" standalone="no"?>
<svg width="20px" height="20px" viewBox="0 0 20 20" version="1.1" xmlns="http://www.w3.org/2000/svg" xmlns:xlink="http://www.w3.org/1999/xlink">
    <!-- Generator: Sketch 3.8.1 (29687) - http://www.bohemiancoding.com/sketch -->
    <title>file_png [#1740]</title>
    <desc>Created with Sketch.</desc>
    <defs></defs>
    <g id="Page-1" stroke="none" stroke-width="1" fill="none" fill-rule="evenodd">
        <g id="Dribbble-Dark-Preview" transform="translate(-100.000000, -1359.000000)" fill="#FFFFFF">
            <g id="icons" transform="translate(56.000000, 160.000000)">
                <path d="M55,1215.1052 L53,1211.0002 L51,1211.0002 L51,1219.0002 L53,1219.0002 L53,1215.1052 L55,1219.0002 L57,1219.0002 L57,1211.0002 L55,1211.0002 L55,1215.1052 Z M58,1215.0002 C58,1217.2092 59.791,1219.0002 62,1219.0002 L64,1219.0002 L64,1215.0002 L62,1215.0002 L62,1217.1052 C60.895,1217.1052 60,1216.1572 60,1215.0532 C60,1213.9482 60.895,1213.0002 62,1213.0002 L64,1213.0002 L64,1211.0002 L62,1211.0002 C59.791,1211.0002 58,1212.7912 58,1215.0002 L58,1215.0002 Z M48,1214.1052 C48,1213.5532 47.552,1213.1052 47,1213.1052 L46,1213.1052 L46,1215.1052 L47,1215.1052 C47.552,1215.1052 48,1214.6572 48,1214.1052 L48,1214.1052 Z M50,1214.0002 C50,1215.6572 48.657,1217.0002 47,1217.0002 L46,1217.0002 L46,1219.0002 L44,1219.0002 L44,1211.0002 L47,1211.0002 C48.657,1211.0002 50,1212.3432 50,1214.0002 L50,1214.0002 Z M64,1205.4382 L64,1209.0002 L62,1209.0002 L62,1207.0002 L56,1207.0002 L56,1201.0002 L46,1201.0002 L46,1209.0002 L44,1209.0002 L44,1199.0002 L57.979,1199.0002 L64,1205.4382 Z" id="file_png-[#1740]"></path>
            </g>
        </g>
    </g>
</svg>