<?xml version="1.0" encoding="UTF-8" standalone="no"?>
<svg width="20px" height="20px" viewBox="0 0 20 20" version="1.1" xmlns="http://www.w3.org/2000/svg" xmlns:xlink="http://www.w3.org/1999/xlink">
    <!-- Generator: Sketch 3.8.1 (29687) - http://www.bohemiancoding.com/sketch -->
    <title>file_rar [#1730]</title>
    <desc>Created with Sketch.</desc>
    <defs></defs>
    <g id="Page-1" stroke="none" stroke-width="1" fill="none" fill-rule="evenodd">
        <g id="Dribbble-Dark-Preview" transform="translate(-100.000000, -1399.000000)" fill="#FFFFFF">
            <g id="icons" transform="translate(56.000000, 160.000000)">
                <path d="M64,1245.4384 L64,1249.0004 L62,1249.0004 L62,1247.0004 L56,1247.0004 L56,1241.0004 L46,1241.0004 L46,1249.0004 L44,1249.0004 L44,1239.0004 L57.979,1239.0004 L64,1245.4384 Z M60.999,1255.1054 L59.999,1255.1054 L59.999,1253.1054 L60.999,1253.1054 C61.551,1253.1054 61.999,1253.5524 61.999,1254.1054 C61.999,1254.6574 61.551,1255.1054 60.999,1255.1054 L60.999,1255.1054 Z M63.999,1254.0524 C63.999,1252.3964 62.656,1251.0004 60.999,1251.0004 L58,1251.0004 L58,1259.0004 L60,1259.0004 L60,1257.0004 L60.999,1257.0004 L61.999,1259.0004 L63.999,1259.0004 L62.723,1256.4754 C63.493,1255.9324 63.999,1255.0664 63.999,1254.0524 L63.999,1254.0524 Z M46.998,1255.1054 L45.998,1255.1054 L45.998,1253.1054 L46.998,1253.1054 C47.55,1253.1054 47.998,1253.5524 47.998,1254.1054 C47.998,1254.6574 47.55,1255.1054 46.998,1255.1054 L46.998,1255.1054 Z M49.998,1254.0524 C49.998,1252.3964 48.655,1251.0004 46.998,1251.0004 L44,1251.0004 L44,1259.0004 L46,1259.0004 L46,1257.0004 L46.998,1257.0004 L47.998,1259.0004 L49.998,1259.0004 L48.722,1256.4754 C49.492,1255.9324 49.998,1255.0664 49.998,1254.0524 L49.998,1254.0524 Z M53,1255.1054 L55,1255.1054 L55,1253.1054 L53,1253.1054 L53,1255.1054 Z M51,1251.0004 L51,1259.0004 L53,1259.0004 L53,1257.0004 L55,1257.0004 L55,1259.0004 L57,1259.0004 L57,1251.0004 L51,1251.0004 Z" id="file_rar-[#1730]"></path>
            </g>
        </g>
    </g>
</svg>