<?xml version="1.0" encoding="UTF-8" standalone="no"?>
<svg width="20px" height="20px" viewBox="0 0 20 20" version="1.1" xmlns="http://www.w3.org/2000/svg" xmlns:xlink="http://www.w3.org/1999/xlink">
    <!-- Generator: Sketch 3.8.1 (29687) - http://www.bohemiancoding.com/sketch -->
    <title>file_url [#1734]</title>
    <desc>Created with Sketch.</desc>
    <defs></defs>
    <g id="Page-1" stroke="none" stroke-width="1" fill="none" fill-rule="evenodd">
        <g id="Dribbble-Dark-Preview" transform="translate(-340.000000, -1359.000000)" fill="#FFFFFF">
            <g id="icons" transform="translate(56.000000, 160.000000)">
                <path d="M297.9792,1199.0005 L284.0002,1199.0005 L284.0002,1208.94827 L286.0002,1208.94827 L286.0002,1200.99005 L296.0002,1200.99005 L296.0002,1206.95872 L302.0002,1206.95872 L302.0002,1208.94827 L304.0002,1208.94827 L304.0002,1205.40488 L297.9792,1199.0005 Z M295.0002,1214.02661 C295.0002,1213.4765 294.5522,1213.03184 294.0002,1213.03184 L293.0002,1213.03184 L293.0002,1215.02139 L294.0002,1215.02139 C294.5522,1215.02139 295.0002,1214.57573 295.0002,1214.02661 L295.0002,1214.02661 Z M295.7242,1216.38424 L297.0002,1218.89605 L295.0002,1218.89605 L294.0002,1216.90649 L293.0002,1216.90649 L293.0002,1218.89605 L291.0002,1218.89605 L291.0002,1210.93783 L294.0002,1210.93783 C295.6572,1210.93783 297.0002,1212.32554 297.0002,1213.97389 C297.0002,1214.98259 296.4942,1215.84407 295.7242,1216.38424 L295.7242,1216.38424 Z M300.0002,1210.93783 L298.0002,1210.93783 L298.0002,1218.89605 L304.0002,1218.89605 L304.0002,1216.90649 L300.0002,1216.90649 L300.0002,1210.93783 Z M288.0002,1210.93783 L290.0002,1210.93783 L290.0002,1216.01617 C290.0002,1217.66352 288.6572,1219.0005 287.0002,1219.0005 C285.3432,1219.0005 284.0002,1217.66352 284.0002,1216.01617 L284.0002,1210.93783 L286.0002,1210.93783 L286.0002,1216.01617 C286.0002,1216.56528 286.4482,1217.01095 287.0002,1217.01095 C287.5522,1217.01095 288.0002,1216.56528 288.0002,1216.01617 L288.0002,1210.93783 Z" id="file_url-[#1734]"></path>
            </g>
        </g>
    </g>
</svg>