<?xml version="1.0" encoding="UTF-8" standalone="no"?>
<svg width="14px" height="20px" viewBox="0 0 14 20" version="1.1" xmlns="http://www.w3.org/2000/svg" xmlns:xlink="http://www.w3.org/1999/xlink">
    <!-- Generator: Sketch 3.8.1 (29687) - http://www.bohemiancoding.com/sketch -->
    <title>fileboard_checklist [#1595]</title>
    <desc>Created with Sketch.</desc>
    <defs></defs>
    <g id="Page-1" stroke="none" stroke-width="1" fill="none" fill-rule="evenodd">
        <g id="Dribbble-Dark-Preview" transform="translate(-303.000000, -1919.000000)" fill="#FFFFFF">
            <g id="icons" transform="translate(56.000000, 160.000000)">
                <path d="M258,1774 L258,1774 C258,1774.552 257.552,1775 257,1775 L254,1775 C253.448,1775 253,1774.552 253,1774 C253,1773.448 253.448,1773 254,1773 L257,1773 C257.552,1773 258,1773.448 258,1774 L258,1774 Z M258,1771 L258,1771 C258,1771.552 257.552,1772 257,1772 L254,1772 C253.448,1772 253,1771.552 253,1771 C253,1770.448 253.448,1770 254,1770 L257,1770 C257.552,1770 258,1770.448 258,1771 L258,1771 Z M258,1768 C258,1768.552 257.552,1769 257,1769 L254,1769 C253.448,1769 253,1768.552 253,1768 C253,1767.448 253.448,1767 254,1767 L257,1767 C257.552,1767 258,1767.448 258,1768 L258,1768 Z M252,1774 L252,1774 C252,1774.552 251.552,1775 251,1775 C250.448,1775 250,1774.552 250,1774 C250,1773.448 250.448,1773 251,1773 C251.552,1773 252,1773.448 252,1774 L252,1774 Z M252,1771 L252,1771 C252,1771.552 251.552,1772 251,1772 C250.448,1772 250,1771.552 250,1771 C250,1770.448 250.448,1770 251,1770 C251.552,1770 252,1770.448 252,1771 L252,1771 Z M252,1768 C252,1768.552 251.552,1769 251,1769 C250.448,1769 250,1768.552 250,1768 C250,1767.448 250.448,1767 251,1767 C251.552,1767 252,1767.448 252,1768 L252,1768 Z M259,1776 C259,1776.552 258.552,1777 258,1777 L250,1777 C249.448,1777 249,1776.552 249,1776 L249,1763.5 C249,1763.224 249.224,1763 249.5,1763 L250,1763 C250,1764.104 250.895,1765 252,1765 L256,1765 C257.105,1765 258,1764.104 258,1763 L258.5,1763 C258.776,1763 259,1763.224 259,1763.5 L259,1776 Z M252,1762 C252,1761.448 252.448,1761 253,1761 L255,1761 C255.552,1761 256,1761.448 256,1762 C256,1762.552 255.552,1763 255,1763 L253,1763 C252.448,1763 252,1762.552 252,1762 L252,1762 Z M259,1761 L258,1761 C258,1759.895 257.105,1759 256,1759 L252,1759 C250.895,1759 250,1759.895 250,1761 L249,1761 C247.895,1761 247,1761.895 247,1763 L247,1777 C247,1778.104 247.895,1779 249,1779 L259,1779 C260.105,1779 261,1778.104 261,1777 L261,1763 C261,1761.895 260.105,1761 259,1761 L259,1761 Z" id="fileboard_checklist-[#1595]"></path>
            </g>
        </g>
    </g>
</svg>