<?xml version="1.0" encoding="UTF-8" standalone="no"?>
<svg width="20px" height="20px" viewBox="0 0 20 20" version="1.1" xmlns="http://www.w3.org/2000/svg" xmlns:xlink="http://www.w3.org/1999/xlink">
    <!-- Generator: Sketch 3.8.1 (29687) - http://www.bohemiancoding.com/sketch -->
    <title>file_js [#1763]</title>
    <desc>Created with Sketch.</desc>
    <defs></defs>
    <g id="Page-1" stroke="none" stroke-width="1" fill="none" fill-rule="evenodd">
        <g id="Dribbble-Dark-Preview" transform="translate(-380.000000, -1239.000000)" fill="#FFFFFF">
            <g id="icons" transform="translate(56.000000, 160.000000)">
                <path d="M343.6776,1084.2505 L338.2666,1079.2645 C338.0816,1079.0945 337.8396,1079.0005 337.5886,1079.0005 L325.9996,1079.0005 C324.8956,1079.0005 323.9996,1079.8955 323.9996,1081.0005 L323.9996,1088.0005 C323.9996,1088.5525 324.4476,1089.0005 324.9996,1089.0005 C325.5526,1089.0005 325.9996,1088.5525 325.9996,1088.0005 L325.9996,1082.0005 C325.9996,1081.4485 326.4476,1081.0005 326.9996,1081.0005 L335.9996,1081.0005 L335.9996,1085.0005 C335.9996,1086.1045 336.8956,1087.0005 337.9996,1087.0005 L341.9996,1087.0005 L341.9996,1096.0005 C341.9996,1096.5525 341.5526,1097.0005 340.9996,1097.0005 L339.9996,1097.0005 C339.4476,1097.0005 338.9996,1097.4485 338.9996,1098.0005 C338.9996,1098.5525 339.4476,1099.0005 339.9996,1099.0005 L341.9996,1099.0005 C343.1046,1099.0005 343.9996,1098.1045 343.9996,1097.0005 L343.9996,1084.9855 C343.9996,1084.7065 343.8836,1084.4395 343.6776,1084.2505 M328.9996,1091.0005 C328.4476,1091.0005 327.9996,1091.4485 327.9996,1092.0005 L327.9996,1096.0005 C327.9996,1096.5525 327.5526,1097.0005 326.9996,1097.0005 L324.9996,1097.0005 C324.4476,1097.0005 323.9996,1097.4485 323.9996,1098.0005 C323.9996,1098.5525 324.4476,1099.0005 324.9996,1099.0005 L327.9996,1099.0005 C329.1046,1099.0005 329.9996,1098.1045 329.9996,1097.0005 L329.9996,1092.0005 C329.9996,1091.4485 329.5526,1091.0005 328.9996,1091.0005 M332.9996,1093.5005 C332.9996,1093.7765 333.2236,1094.0005 333.4996,1094.0005 L334.9996,1094.0005 L335.0206,1094.0005 C336.1136,1094.0005 336.9996,1094.8865 336.9996,1095.9795 L336.9996,1097.0215 C336.9996,1098.1145 336.1136,1099.0005 335.0206,1099.0005 L334.9996,1099.0005 L331.9996,1099.0005 C331.4476,1099.0005 330.9996,1098.5525 330.9996,1098.0005 C330.9996,1097.4485 331.4476,1097.0005 331.9996,1097.0005 L334.4996,1097.0005 C334.7766,1097.0005 334.9996,1096.7765 334.9996,1096.5005 C334.9996,1096.2245 334.7766,1096.0005 334.4996,1096.0005 L332.9996,1096.0005 C331.8956,1096.0005 330.9996,1095.1045 330.9996,1094.0005 L330.9996,1093.0005 C330.9996,1091.8955 331.8956,1091.0005 332.9996,1091.0005 L335.9996,1091.0005 C336.5526,1091.0005 336.9996,1091.4485 336.9996,1092.0005 C336.9996,1093.2425 335.7416,1093.0005 333.4996,1093.0005 C333.2236,1093.0005 332.9996,1093.2245 332.9996,1093.5005" id="file_js-[#1763]"></path>
            </g>
        </g>
    </g>
</svg>