<?xml version="1.0" encoding="UTF-8" standalone="no"?>
<svg width="20px" height="20px" viewBox="0 0 20 20" version="1.1" xmlns="http://www.w3.org/2000/svg" xmlns:xlink="http://www.w3.org/1999/xlink">
    <!-- Generator: Sketch 3.8.1 (29687) - http://www.bohemiancoding.com/sketch -->
    <title>file_text_data [#1680]</title>
    <desc>Created with Sketch.</desc>
    <defs></defs>
    <g id="Page-1" stroke="none" stroke-width="1" fill="none" fill-rule="evenodd">
        <g id="Dribbble-Dark-Preview" transform="translate(-100.000000, -1599.000000)" fill="#FFFFFF">
            <g id="icons" transform="translate(56.000000, 160.000000)">
                <path d="M48,1455 L60,1455 L60,1453 L48,1453 L48,1455 Z M48,1451 L60,1451 L60,1449 L48,1449 L48,1451 Z M48,1447 L54,1447 L54,1443 L48,1443 L48,1447 Z M62,1457 L46,1457 L46,1441 L56,1441 L56,1447 L62,1447 L62,1457 Z M58,1439 L44,1439 L44,1459 L64,1459 L64,1445.105 L58,1439 Z" id="file_text_data-[#1680]"></path>
            </g>
        </g>
    </g>
</svg>