<?xml version="1.0" encoding="UTF-8" standalone="no"?>
<svg width="20px" height="20px" viewBox="0 0 20 20" version="1.1" xmlns="http://www.w3.org/2000/svg" xmlns:xlink="http://www.w3.org/1999/xlink">
    <!-- Generator: Sketch 3.8.1 (29687) - http://www.bohemiancoding.com/sketch -->
    <title>file_php [#1769]</title>
    <desc>Created with Sketch.</desc>
    <defs></defs>
    <g id="Page-1" stroke="none" stroke-width="1" fill="none" fill-rule="evenodd">
        <g id="Dribbble-Dark-Preview" transform="translate(-140.000000, -1239.000000)" fill="#FFFFFF">
            <g id="icons" transform="translate(56.000000, 160.000000)">
                <path d="M104,1085.7332 L104,1088.0002 C104,1088.5522 103.552,1089.0002 103,1089.0002 C102.448,1089.0002 102,1088.5522 102,1088.0002 L102,1087.0002 L98,1087.0002 C96.895,1087.0002 96,1086.1052 96,1085.0002 L96,1081.0002 L87,1081.0002 C86.448,1081.0002 86,1081.4482 86,1082.0002 L86,1088.0002 C86,1088.5522 85.552,1089.0002 85,1089.0002 C84.448,1089.0002 84,1088.5522 84,1088.0002 L84,1081.0002 C84,1079.8962 84.895,1079.0002 86,1079.0002 L97.55,1079.0002 C97.824,1079.0002 98.086,1079.1132 98.275,1079.3112 L103.725,1085.0442 C103.901,1085.2302 104,1085.4772 104,1085.7332 M97,1092.0002 L97,1098.0002 C97,1098.5522 96.552,1099.0002 96,1099.0002 C95.448,1099.0002 95,1098.5522 95,1098.0002 L95,1096.0002 L93,1096.0002 L93,1098.0002 C93,1098.5522 92.552,1099.0002 92,1099.0002 C91.448,1099.0002 91,1098.5522 91,1098.0002 L91,1092.0002 C91,1091.4482 91.448,1091.0002 92,1091.0002 C92.552,1091.0002 93,1091.4482 93,1092.0002 L93,1094.0002 L95,1094.0002 L95,1092.0002 C95,1091.4482 95.448,1091.0002 96,1091.0002 C96.552,1091.0002 97,1091.4482 97,1092.0002 M101,1095.0002 L100,1095.0002 L100,1093.0002 L101,1093.0002 C101.552,1093.0002 102,1093.4482 102,1094.0002 C102,1094.5522 101.552,1095.0002 101,1095.0002 M100.83,1091.0002 L99,1091.0002 C98.448,1091.0002 98,1091.4482 98,1092.0002 L98,1098.0002 C98,1098.5522 98.448,1099.0002 99,1099.0002 C99.552,1099.0002 100,1098.5522 100,1098.0002 L100,1097.0002 L101,1097.0002 C102.71,1097.0002 104.086,1095.5692 103.996,1093.8392 C103.911,1092.2172 102.455,1091.0002 100.83,1091.0002 M87,1095.0002 L86,1095.0002 L86,1093.0002 L87,1093.0002 C87.552,1093.0002 88,1093.4482 88,1094.0002 C88,1094.5522 87.552,1095.0002 87,1095.0002 M86.83,1091.0002 L85,1091.0002 C84.448,1091.0002 84,1091.4482 84,1092.0002 L84,1098.0002 C84,1098.5522 84.448,1099.0002 85,1099.0002 C85.552,1099.0002 86,1098.5522 86,1098.0002 L86,1097.0002 L87,1097.0002 C88.71,1097.0002 90.086,1095.5692 89.996,1093.8392 C89.911,1092.2172 88.455,1091.0002 86.83,1091.0002" id="file_php-[#1769]"></path>
            </g>
        </g>
    </g>
</svg>