<?xml version="1.0" encoding="UTF-8" standalone="no"?>
<svg width="20px" height="20px" viewBox="0 0 20 20" version="1.1" xmlns="http://www.w3.org/2000/svg" xmlns:xlink="http://www.w3.org/1999/xlink">
    <!-- Generator: Sketch 3.8.1 (29687) - http://www.bohemiancoding.com/sketch -->
    <title>file_jps [#1726]</title>
    <desc>Created with Sketch.</desc>
    <defs></defs>
    <g id="Page-1" stroke="none" stroke-width="1" fill="none" fill-rule="evenodd">
        <g id="Dribbble-Dark-Preview" transform="translate(-260.000000, -1399.000000)" fill="#FFFFFF">
            <g id="icons" transform="translate(56.000000, 160.000000)">
                <path d="M217.9792,1239.0005 L204.0002,1239.0005 L204.0002,1249.0005 L206.0002,1249.0005 L206.0002,1241.0005 L216.0002,1241.0005 L216.0002,1247.0005 L222.0002,1247.0005 L222.0002,1249.0005 L224.0002,1249.0005 L224.0002,1245.4385 L217.9792,1239.0005 Z M222.0002,1254.1055 C222.0002,1253.5525 221.5522,1253.1055 221.0002,1253.1055 L220.0002,1253.1055 L220.0002,1255.1055 L221.0002,1255.1055 C221.5522,1255.1055 222.0002,1254.6575 222.0002,1254.1055 L222.0002,1254.1055 Z M224.0002,1254.0005 C224.0002,1255.6575 222.6572,1257.0005 221.0002,1257.0005 L220.0002,1257.0005 L220.0002,1259.0005 L218.0002,1259.0005 L218.0002,1251.0005 L221.0002,1251.0005 C222.6572,1251.0005 224.0002,1252.3435 224.0002,1254.0005 L224.0002,1254.0005 Z M208.0002,1256.1055 C208.0002,1256.6575 207.5522,1257.0005 207.0002,1257.0005 L204.0002,1257.0005 L204.0002,1259.0005 L208.0002,1259.0005 C209.1042,1259.0005 210.0002,1258.2095 210.0002,1257.1055 L210.0002,1251.0005 L208.0002,1251.0005 L208.0002,1256.1055 Z M217.0002,1251.0005 L217.0002,1253.0005 L213.5002,1253.0005 C213.2242,1253.0005 213.0002,1253.2245 213.0002,1253.5005 C213.0002,1253.7765 213.2242,1254.0005 213.5002,1254.0005 L215.0002,1254.0005 L215.0212,1254.0005 C216.1142,1254.0005 217.0002,1254.9915 217.0002,1256.0845 L217.0002,1257.1255 C217.0002,1258.2195 216.1142,1259.0005 215.0212,1259.0005 L215.0002,1259.0005 L211.0002,1259.0005 L211.0002,1257.0005 L214.5002,1257.0005 C214.7762,1257.0005 215.0002,1256.7765 215.0002,1256.5005 C215.0002,1256.2245 214.7762,1256.0005 214.5002,1256.0005 L213.0002,1256.0005 C211.8952,1256.0005 211.0002,1255.2095 211.0002,1254.1055 L211.0002,1253.1055 C211.0002,1252.0005 211.8952,1251.0005 213.0002,1251.0005 L217.0002,1251.0005 Z" id="file_jps-[#1726]"></path>
            </g>
        </g>
    </g>
</svg>