<?xml version="1.0" encoding="UTF-8" standalone="no"?>
<svg width="20px" height="20px" viewBox="0 0 20 20" version="1.1" xmlns="http://www.w3.org/2000/svg" xmlns:xlink="http://www.w3.org/1999/xlink">
    <!-- Generator: Sketch 3.8.1 (29687) - http://www.bohemiancoding.com/sketch -->
    <title>file_information [#1714]</title>
    <desc>Created with Sketch.</desc>
    <defs></defs>
    <g id="Page-1" stroke="none" stroke-width="1" fill="none" fill-rule="evenodd">
        <g id="Dribbble-Dark-Preview" transform="translate(-340.000000, -1439.000000)" fill="#FFFFFF">
            <g id="icons" transform="translate(56.000000, 160.000000)">
                <path d="M293.9,1287.0005 C293.348,1287.0005 292.9,1287.4485 292.9,1288.0005 C292.9,1288.5525 293.348,1289.0005 293.9,1289.0005 C294.452,1289.0005 294.9,1288.5525 294.9,1288.0005 C294.9,1287.4485 294.452,1287.0005 293.9,1287.0005 L293.9,1287.0005 Z M302,1287.0005 L297.878,1287.0005 C296.787,1287.0005 296,1286.1155 296,1285.0245 L296,1281.0005 L286.902,1281.0005 C286.35,1281.0005 286,1281.4485 286,1282.0005 L286,1296.0005 C286,1296.5525 286.35,1297.0005 286.902,1297.0005 L293,1297.0005 L293,1292.0005 C293,1291.4565 293.482,1291.0185 294.024,1291.0055 C294.565,1291.0185 295,1291.4565 295,1292.0005 L295,1297.0005 L300.902,1297.0005 C301.455,1297.0005 302,1296.5525 302,1296.0005 L302,1287.0005 Z M304,1285.3915 L304,1296.9765 L304,1297.0245 C304,1298.1155 303.018,1299.0005 301.926,1299.0005 L301.902,1299.0005 L285.902,1299.0005 L285.878,1299.0005 C284.787,1299.0005 284,1298.1155 284,1297.0245 L284,1296.9765 L284,1281.0005 C284,1280.0005 284.787,1279.0005 285.878,1279.0005 L285.902,1279.0005 L297.489,1279.0005 C297.754,1279.0005 298.007,1279.1055 298.195,1279.2925 L303.657,1284.6835 C303.845,1284.8705 304,1285.1255 304,1285.3915 L304,1285.3915 Z M294.049,1291.0005 C294.04,1291.0005 294.033,1291.0055 294.024,1291.0055 C294.016,1291.0055 294.009,1291.0005 294,1291.0005 L294.049,1291.0005 Z" id="file_information-[#1714]"></path>
            </g>
        </g>
    </g>
</svg>