<?xml version="1.0" encoding="UTF-8" standalone="no"?>
<svg width="20px" height="20px" viewBox="0 0 20 20" version="1.1" xmlns="http://www.w3.org/2000/svg" xmlns:xlink="http://www.w3.org/1999/xlink">
    <!-- Generator: Sketch 3.8.1 (29687) - http://www.bohemiancoding.com/sketch -->
    <title>file_jps [#1751]</title>
    <desc>Created with Sketch.</desc>
    <defs></defs>
    <g id="Page-1" stroke="none" stroke-width="1" fill="none" fill-rule="evenodd">
        <g id="Dribbble-Dark-Preview" transform="translate(-60.000000, -1319.000000)" fill="#FFFFFF">
            <g id="icons" transform="translate(56.000000, 160.000000)">
                <path d="M23.7248,1165.1172 L18.2748,1159.36212 C18.0858,1159.16415 17.8238,1159.001 17.5498,1159.001 L5.9998,1159.001 C4.8958,1159.001 3.9998,1159.99583 3.9998,1161.09412 L3.9998,1168.0579 C3.9998,1168.60705 4.4478,1169.05273 4.9998,1169.05273 C5.5528,1169.05273 5.9998,1168.60705 5.9998,1168.0579 L5.9998,1162.08894 C5.9998,1161.5398 6.4478,1160.99065 6.9998,1160.99065 L15.9998,1160.99065 L15.9998,1165.07342 C15.9998,1166.17271 16.8958,1166.95962 17.9998,1166.95962 L21.9998,1166.95962 L21.9998,1168.0579 C21.9998,1168.60705 22.4478,1169.05273 22.9998,1169.05273 C23.5528,1169.05273 23.9998,1168.60705 23.9998,1168.0579 L23.9998,1165.80263 C23.9998,1165.54696 23.9018,1165.30223 23.7248,1165.1172 L23.7248,1165.1172 Z M21.9998,1174.02687 C21.9998,1173.47772 21.5528,1173.03204 20.9998,1173.03204 L19.9998,1173.03204 L19.9998,1175.02169 L20.9998,1175.02169 C21.5528,1175.02169 21.9998,1174.57601 21.9998,1174.02687 L21.9998,1174.02687 Z M23.9958,1173.76224 C24.0868,1175.48329 22.7108,1176.90788 20.9998,1176.90788 L19.9998,1176.90788 L19.9998,1178.00617 C19.9998,1178.55532 19.5528,1179.001 18.9998,1179.001 C18.4478,1179.001 17.9998,1178.55532 17.9998,1178.00617 L17.9998,1172.03721 C17.9998,1171.48807 18.4478,1170.93892 18.9998,1170.93892 L20.8298,1170.93892 C22.4548,1170.93892 23.9108,1172.14863 23.9958,1173.76224 L23.9958,1173.76224 Z M8.9998,1171.04238 C8.4478,1171.04238 7.9998,1171.48807 7.9998,1172.03721 L7.9998,1176.01652 C7.9998,1176.56566 7.5528,1176.90788 6.9998,1176.90788 L4.9998,1176.90788 C4.4528,1176.90788 4.0098,1177.39734 4.0028,1177.94151 C4.0098,1178.48369 4.4528,1178.89754 4.9998,1178.89754 L7.9998,1178.89754 C9.1048,1178.89754 9.9998,1178.11063 9.9998,1177.01135 L9.9998,1172.03721 C9.9998,1171.48807 9.5528,1171.04238 8.9998,1171.04238 L8.9998,1171.04238 Z M3.9998,1177.95444 C3.9998,1177.94947 4.0028,1177.94549 4.0028,1177.94151 C4.0028,1177.93654 3.9998,1177.93256 3.9998,1177.92858 L3.9998,1177.95444 Z M15.9998,1170.93892 L12.9998,1170.93892 C11.8958,1170.93892 10.9998,1171.93375 10.9998,1173.03204 L10.9998,1174.02687 C10.9998,1175.12615 11.8958,1175.91306 12.9998,1175.91306 L14.4998,1175.91306 C14.7758,1175.91306 14.9998,1176.1349 14.9998,1176.41047 C14.9998,1176.68504 14.7758,1176.90788 14.4998,1176.90788 L11.9998,1176.90788 C11.4528,1176.90788 11.0098,1177.39734 11.0028,1177.94151 C11.0098,1178.48369 11.4528,1178.89754 11.9998,1178.89754 L14.9998,1178.89754 L15.0208,1178.89754 C16.1138,1178.89754 16.9998,1178.11958 16.9998,1177.03224 L16.9998,1175.99563 C16.9998,1174.90828 16.1138,1173.9234 15.0208,1173.9234 L14.9998,1173.9234 L13.4998,1173.9234 C13.2238,1173.9234 12.9998,1173.70056 12.9998,1173.42599 C12.9998,1173.15042 13.2238,1172.92858 13.4998,1172.92858 L15.9998,1172.92858 C16.5528,1172.92858 16.9998,1172.53463 16.9998,1171.98548 L16.9998,1171.95962 C16.9998,1171.40948 16.5528,1170.93892 15.9998,1170.93892 L15.9998,1170.93892 Z M10.9998,1177.92858 C10.9998,1177.93256 11.0028,1177.93654 11.0028,1177.94151 C11.0028,1177.94549 10.9998,1177.94947 10.9998,1177.95444 L10.9998,1177.92858 Z" id="file_jps-[#1751]"></path>
            </g>
        </g>
    </g>
</svg>