<?xml version="1.0" encoding="UTF-8" standalone="no"?>
<svg width="20px" height="20px" viewBox="0 0 20 20" version="1.1" xmlns="http://www.w3.org/2000/svg" xmlns:xlink="http://www.w3.org/1999/xlink">
    <!-- Generator: Sketch 3.8.1 (29687) - http://www.bohemiancoding.com/sketch -->
    <title>file_gif [#1743]</title>
    <desc>Created with Sketch.</desc>
    <defs></defs>
    <g id="Page-1" stroke="none" stroke-width="1" fill="none" fill-rule="evenodd">
        <g id="Dribbble-Dark-Preview" transform="translate(-380.000000, -1319.000000)" fill="#FFFFFF">
            <g id="icons" transform="translate(56.000000, 160.000000)">
                <path d="M338,1171.0005 L338,1179.0005 L340,1179.0005 L340,1177.0005 L344,1177.0005 L344,1175.0005 L340,1175.0005 L340,1173.0005 L344,1173.0005 L344,1171.0005 L338,1171.0005 Z M324,1175.0005 C324,1177.2095 325.791,1179.0005 328,1179.0005 L330,1179.0005 L330,1175.0005 L328,1175.0005 L328,1177.1055 C326.895,1177.1055 326,1176.1575 326,1175.0525 C326,1173.9485 326.895,1173.0005 328,1173.0005 L330,1173.0005 L330,1171.0005 L328,1171.0005 C325.791,1171.0005 324,1172.7915 324,1175.0005 L324,1175.0005 Z M331,1171.0005 L331,1173.0005 L333,1173.0005 L333,1177.0005 L331,1177.0005 L331,1179.0005 L337,1179.0005 L337,1177.0005 L335,1177.0005 L335,1173.0005 L337,1173.0005 L337,1171.0005 L331,1171.0005 Z M344,1165.4385 L344,1169.0005 L342,1169.0005 L342,1167.0005 L336,1167.0005 L336,1161.0005 L326,1161.0005 L326,1169.0005 L324,1169.0005 L324,1159.0005 L337.979,1159.0005 L344,1165.4385 Z" id="file_gif-[#1743]"></path>
            </g>
        </g>
    </g>
</svg>