<?xml version="1.0" encoding="UTF-8" standalone="no"?>
<svg width="20px" height="20px" viewBox="0 0 20 20" version="1.1" xmlns="http://www.w3.org/2000/svg" xmlns:xlink="http://www.w3.org/1999/xlink">
    <!-- Generator: Sketch 3.8.1 (29687) - http://www.bohemiancoding.com/sketch -->
    <title>file_jar [#1725]</title>
    <desc>Created with Sketch.</desc>
    <defs></defs>
    <g id="Page-1" stroke="none" stroke-width="1" fill="none" fill-rule="evenodd">
        <g id="Dribbble-Dark-Preview" transform="translate(-300.000000, -1399.000000)" fill="#FFFFFF">
            <g id="icons" transform="translate(56.000000, 160.000000)">
                <path d="M257.9792,1239.0005 L244.0002,1239.0005 L244.0002,1249.0005 L246.0002,1249.0005 L246.0002,1241.0005 L256.0002,1241.0005 L256.0002,1247.0005 L262.0002,1247.0005 L262.0002,1249.0005 L264.0002,1249.0005 L264.0002,1245.4385 L257.9792,1239.0005 Z M261.9962,1254.1055 C261.9962,1253.5525 261.5482,1253.1055 260.9962,1253.1055 L259.9962,1253.1055 L259.9962,1255.1055 L260.9962,1255.1055 C261.5482,1255.1055 261.9962,1254.6575 261.9962,1254.1055 L261.9962,1254.1055 Z M262.7202,1256.4755 L263.9962,1259.0005 L261.9962,1259.0005 L260.9962,1257.0005 L260.0002,1257.0005 L260.0002,1259.0005 L258.0002,1259.0005 L258.0002,1251.0005 L260.9962,1251.0005 C262.6532,1251.0005 263.9962,1252.3965 263.9962,1254.0525 C263.9962,1255.0665 263.4902,1255.9325 262.7202,1256.4755 L262.7202,1256.4755 Z M253.0002,1255.1055 L255.0002,1255.1055 L255.0002,1253.1055 L253.0002,1253.1055 L253.0002,1255.1055 Z M257.0002,1251.0005 L257.0002,1259.0005 L255.0002,1259.0005 L255.0002,1257.0005 L253.0002,1257.0005 L253.0002,1259.0005 L251.0002,1259.0005 L251.0002,1251.0005 L257.0002,1251.0005 Z M248.0002,1251.0005 L250.0002,1251.0005 L250.0002,1257.1055 C250.0002,1258.2095 249.1042,1259.0005 248.0002,1259.0005 L244.0002,1259.0005 L244.0002,1257.0005 L247.0002,1257.0005 C247.5522,1257.0005 248.0002,1256.6575 248.0002,1256.1055 L248.0002,1251.0005 Z" id="file_jar-[#1725]"></path>
            </g>
        </g>
    </g>
</svg>