<?xml version="1.0" encoding="UTF-8" standalone="no"?>
<svg width="23px" height="23px" viewBox="0 0 23 23" version="1.1" xmlns="http://www.w3.org/2000/svg" xmlns:xlink="http://www.w3.org/1999/xlink">
    <!-- Generator: Sketch 3.8.1 (29687) - http://www.bohemiancoding.com/sketch -->
    <title>file_love_favorite [#1719]</title>
    <desc>Created with Sketch.</desc>
    <defs></defs>
    <g id="Page-1" stroke="none" stroke-width="1" fill="none" fill-rule="evenodd">
        <g id="Dribbble-Dark-Preview" transform="translate(-137.000000, -1439.000000)" fill="#FFFFFF">
            <g id="icons" transform="translate(56.000000, 160.000000)">
                <path d="M85.1503448,1296.26783 C85.0734214,1296.36698 84.9185755,1296.36899 84.8406531,1296.26983 C82.6997845,1293.54859 78.8995678,1297.05205 82.3960868,1300.31013 C84.644848,1302.4074 85.005489,1302.69185 87.5219837,1300.37824 C91.1523694,1297.04003 87.2632413,1293.56461 85.1503448,1296.26783 L85.1503448,1296.26783 Z M85.0934015,1293.02277 C85.0854094,1293.02277 85.0774174,1293.01876 85.0684264,1293.01876 C85.0604343,1293.01876 85.0534413,1293.02277 85.0444502,1293.02277 L85.0934015,1293.02277 Z M103.780797,1284.7709 L98.4710832,1279.34444 C98.2832702,1279.15815 98.0305218,1279.0009 97.7657854,1279.0009 L86.1903095,1279.0009 L86.1663333,1279.0009 C85.0764184,1279.0009 83.9964935,1279.93936 83.9964935,1281.03207 L83.9964935,1281.08415 L83.9964935,1292.12537 C83.9964935,1292.67022 84.5259664,1293.00774 85.0684264,1293.01876 C85.6068903,1293.00774 85.9945044,1292.67022 85.9945044,1292.12537 L85.9945044,1282.10975 C85.9945044,1281.55689 86.6378639,1281.00402 87.1893149,1281.00402 L95.9845587,1281.00402 L95.9845587,1285.13847 C95.9845587,1286.23118 97.0644836,1287.0134 98.1543985,1287.0134 L101.978591,1287.0134 L101.978591,1296.13162 C101.978591,1296.68548 101.726842,1297.02901 101.175391,1297.02901 L92.184342,1297.02901 C91.6368871,1297.02901 91.0025186,1297.52178 90.9915296,1298.06964 C91.0025186,1298.61549 91.6368871,1299.03214 92.184342,1299.03214 L102.174396,1299.03214 L102.198372,1299.03214 C103.288287,1299.03214 103.976602,1298.24992 103.976602,1297.15721 L103.976602,1297.10914 L103.976602,1285.50705 C103.976602,1285.24063 103.96861,1284.95819 103.780797,1284.7709 L103.780797,1284.7709 Z M90.9895315,1298.05662 C90.9895315,1298.06062 90.9915296,1298.06463 90.9915296,1298.06964 C90.9915296,1298.07364 90.9895315,1298.07765 90.9895315,1298.08266 L90.9895315,1298.05662 Z" id="file_love_favorite-[#1719]"></path>
            </g>
        </g>
    </g>
</svg>