<?xml version="1.0" encoding="UTF-8" standalone="no"?>
<svg width="20px" height="20px" viewBox="0 0 20 20" version="1.1" xmlns="http://www.w3.org/2000/svg" xmlns:xlink="http://www.w3.org/1999/xlink">
    <!-- Generator: Sketch 3.8.1 (29687) - http://www.bohemiancoding.com/sketch -->
    <title>file_cpp [#1747]</title>
    <desc>Created with Sketch.</desc>
    <defs></defs>
    <g id="Page-1" stroke="none" stroke-width="1" fill="none" fill-rule="evenodd">
        <g id="Dribbble-Dark-Preview" transform="translate(-220.000000, -1319.000000)" fill="#FFFFFF">
            <g id="icons" transform="translate(56.000000, 160.000000)">
                <path d="M183.7247,1165.1171 L178.2747,1159.36202 C178.0857,1159.16505 177.8237,1159.0009 177.5497,1159.0009 L165.9997,1159.0009 C164.8957,1159.0009 163.9997,1159.99573 163.9997,1161.09402 L163.9997,1168.0578 C163.9997,1168.60794 164.4477,1169.05263 164.9997,1169.05263 C165.5527,1169.05263 165.9997,1168.60794 165.9997,1168.0578 L165.9997,1162.08884 C165.9997,1161.5397 166.4477,1160.99055 166.9997,1160.99055 L175.9997,1160.99055 L175.9997,1165.07332 C175.9997,1166.17261 176.8957,1166.95952 177.9997,1166.95952 L181.9997,1166.95952 L181.9997,1168.0578 C181.9997,1168.60794 182.4477,1169.05263 182.9997,1169.05263 C183.5527,1169.05263 183.9997,1168.60794 183.9997,1168.0578 L183.9997,1165.80253 C183.9997,1165.54786 183.9017,1165.30213 183.7247,1165.1171 M181.9997,1174.02677 C181.9997,1173.47762 181.5527,1173.03194 180.9997,1173.03194 L179.9997,1173.03194 L179.9997,1175.02159 L180.9997,1175.02159 C181.5527,1175.02159 181.9997,1174.5769 181.9997,1174.02677 M183.9997,1173.9233 C183.9997,1175.57173 182.6567,1176.90778 180.9997,1176.90778 L179.9997,1176.90778 L179.9997,1178.00607 C179.9997,1178.55621 179.5527,1179.0009 178.9997,1179.0009 C178.4477,1179.0009 177.9997,1178.55621 177.9997,1178.00607 L177.9997,1172.03711 C177.9997,1171.48797 178.4477,1170.93882 178.9997,1170.93882 L180.9997,1170.93882 C182.6567,1170.93882 183.9997,1172.27488 183.9997,1173.9233 M174.9997,1174.02677 C174.9997,1173.47762 174.5527,1173.03194 173.9997,1173.03194 L172.9997,1173.03194 L172.9997,1175.02159 L173.9997,1175.02159 C174.5527,1175.02159 174.9997,1174.5769 174.9997,1174.02677 M176.9997,1173.9233 C176.9997,1175.57173 175.6567,1176.90778 173.9997,1176.90778 L172.9997,1176.90778 L172.9997,1178.00607 C172.9997,1178.55621 172.5527,1179.0009 171.9997,1179.0009 C171.4477,1179.0009 170.9997,1178.55621 170.9997,1178.00607 L170.9997,1172.03711 C170.9997,1171.48797 171.4477,1170.93882 171.9997,1170.93882 L173.9997,1170.93882 C175.6567,1170.93882 176.9997,1172.27488 176.9997,1173.9233 M165.9997,1174.91813 C165.9997,1176.01642 166.8957,1176.90778 167.9997,1176.90778 L168.9997,1176.90778 C169.5527,1176.90778 169.9997,1177.35247 169.9997,1177.90261 C169.9997,1178.45176 169.5527,1178.89744 168.9997,1178.89744 L167.9997,1178.89744 C165.7907,1178.89744 163.9997,1177.1157 163.9997,1174.91813 C163.9997,1172.72056 165.7907,1170.93882 167.9997,1170.93882 L168.9997,1170.93882 C169.5527,1170.93882 169.9997,1171.38351 169.9997,1171.93365 C169.9997,1172.48279 169.5527,1172.92848 168.9997,1172.92848 L167.9997,1172.92848 C166.8957,1172.92848 165.9997,1173.81885 165.9997,1174.91813" id="file_cpp-[#1747]"></path>
            </g>
        </g>
    </g>
</svg>