<?xml version="1.0" encoding="UTF-8" standalone="no"?>
<svg width="22px" height="22px" viewBox="0 0 22 22" version="1.1" xmlns="http://www.w3.org/2000/svg" xmlns:xlink="http://www.w3.org/1999/xlink">
    <!-- Generator: Sketch 3.8.1 (29687) - http://www.bohemiancoding.com/sketch -->
    <title>file_missing [#1690]</title>
    <desc>Created with Sketch.</desc>
    <defs></defs>
    <g id="Page-1" stroke="none" stroke-width="1" fill="none" fill-rule="evenodd">
        <g id="Dribbble-Dark-Preview" transform="translate(-98.000000, -1559.000000)" fill="#FFFFFF">
            <g id="icons" transform="translate(56.000000, 160.000000)">
                <path d="M62,1411.105 L64,1411.105 L64,1409.105 L62,1409.105 L62,1411.105 Z M54,1419.105 L56,1419.105 L56,1417.105 L54,1417.105 L54,1419.105 Z M58,1419.105 L60,1419.105 L60,1417.105 L58,1417.105 L58,1419.105 Z M62,1419.105 L64,1419.105 L64,1417.105 L62,1417.105 L62,1419.105 Z M46,1415 L44,1415 L44,1417 L42,1417 L42,1419 L44,1419 L44,1421 L46,1421 L46,1419 L48,1419 L48,1417 L46,1417 L46,1415 Z M44,1401.105 L46,1401.105 L46,1399.105 L44,1399.105 L44,1401.105 Z M62,1415.105 L64,1415.105 L64,1413.105 L62,1413.105 L62,1415.105 Z M48,1401.105 L50,1401.105 L50,1399.105 L48,1399.105 L48,1401.105 Z M52,1401.105 L54,1401.105 L54,1399.105 L52,1399.105 L52,1401.105 Z M44,1405.105 L46,1405.105 L46,1403.105 L44,1403.105 L44,1405.105 Z M44,1413.105 L46,1413.105 L46,1411.105 L44,1411.105 L44,1413.105 Z M50,1419.105 L52,1419.105 L52,1417.105 L50,1417.105 L50,1419.105 Z M58,1399 L56,1399 L56,1407 L64,1407 L64,1405.105 L58,1399 Z M44,1409.105 L46,1409.105 L46,1407.105 L44,1407.105 L44,1409.105 Z" id="file_missing-[#1690]"></path>
            </g>
        </g>
    </g>
</svg>