<?xml version="1.0" encoding="UTF-8" standalone="no"?>
<svg width="20px" height="20px" viewBox="0 0 20 20" version="1.1" xmlns="http://www.w3.org/2000/svg" xmlns:xlink="http://www.w3.org/1999/xlink">
    <!-- Generator: Sketch 3.8.1 (29687) - http://www.bohemiancoding.com/sketch -->
    <title>file_exe [#1756]</title>
    <desc>Created with Sketch.</desc>
    <defs></defs>
    <g id="Page-1" stroke="none" stroke-width="1" fill="none" fill-rule="evenodd">
        <g id="Dribbble-Dark-Preview" transform="translate(-260.000000, -1279.000000)" fill="#FFFFFF">
            <g id="icons" transform="translate(56.000000, 160.000000)">
                <path d="M221.991004,1128.0005 C221.991004,1128.5525 222.433783,1129.0005 222.985507,1129.0005 L222.987506,1129.0005 C223.54023,1129.0005 223.990005,1128.5525 223.990005,1128.0005 L223.990005,1125.7335 C223.990005,1125.4765 223.886057,1125.2305 223.710145,1125.0445 L218.25987,1119.3115 C218.070965,1119.1125 217.807096,1119.0005 217.533233,1119.0005 L205.989005,1119.0005 C204.884558,1119.0005 204,1119.8955 204,1121.0005 L204,1128.0005 C204,1128.5525 204.442779,1129.0005 204.994503,1129.0005 L204.996502,1129.0005 C205.549225,1129.0005 205.999,1128.5525 205.999,1128.0005 L205.999,1122.0005 C205.999,1121.4485 206.435782,1121.0005 206.988506,1121.0005 L215.994003,1121.0005 L215.994003,1125.0005 C215.994003,1126.1055 216.878561,1127.0005 217.983008,1127.0005 L221.991004,1127.0005 L221.991004,1128.0005 Z M223.0005,1136.0005 C223.553223,1136.0005 224,1135.5525 224,1135.0005 C224,1134.4485 223.553223,1134.0005 223.0005,1134.0005 L219.992004,1134.0005 L219.992004,1133.0005 L223.0005,1133.0005 C223.553223,1133.0005 224,1132.5525 224,1132.0005 C224,1131.4485 223.553223,1131.0005 223.0005,1131.0005 L219.002499,1131.0005 C218.450775,1131.0005 217.993003,1131.4485 217.993003,1132.0005 L217.993003,1138.0005 C217.993003,1138.5525 218.450775,1139.0005 219.002499,1139.0005 L223.0005,1139.0005 C223.553223,1139.0005 224,1138.5525 224,1138.0005 C224,1137.4485 223.553223,1137.0005 223.0005,1137.0005 L219.992004,1137.0005 L219.992004,1136.0005 L223.0005,1136.0005 Z M209.007496,1133.0005 C209.56022,1133.0005 210.006997,1132.5525 210.006997,1132.0005 C210.006997,1131.4485 209.56022,1131.0005 209.007496,1131.0005 L205.009495,1131.0005 C204.457771,1131.0005 204,1131.4485 204,1132.0005 L204,1138.0005 C204,1138.5525 204.457771,1139.0005 205.009495,1139.0005 L209.007496,1139.0005 C209.56022,1139.0005 210.006997,1138.5525 210.006997,1138.0005 C210.006997,1137.4485 209.56022,1137.0005 209.007496,1137.0005 L205.999,1137.0005 L205.999,1136.0005 L209.007496,1136.0005 C209.56022,1136.0005 210.006997,1135.5525 210.006997,1135.0005 C210.006997,1134.4485 209.56022,1134.0005 209.007496,1134.0005 L205.999,1134.0005 L205.999,1133.0005 L209.007496,1133.0005 Z M216.335832,1132.2945 L214.984508,1135.0005 L216.335832,1137.7065 C216.633683,1138.3005 216.2009,1139.0005 215.536232,1139.0005 C215.198401,1139.0005 214.888556,1138.8095 214.736632,1138.5065 L213.985007,1137.0005 L213.232384,1138.5065 C213.08046,1138.8095 212.771614,1139.0005 212.432784,1139.0005 C211.768116,1139.0005 211.335332,1138.3005 211.633183,1137.7065 L212.985507,1135.0005 L211.633183,1132.2945 C211.335332,1131.7005 211.768116,1131.0005 212.432784,1131.0005 C212.771614,1131.0005 213.08046,1131.1915 213.232384,1131.4945 L213.985007,1133.0005 L214.736632,1131.4945 C214.888556,1131.1915 215.198401,1131.0005 215.536232,1131.0005 C216.2009,1131.0005 216.633683,1131.7005 216.335832,1132.2945 L216.335832,1132.2945 Z" id="file_exe-[#1756]"></path>
            </g>
        </g>
    </g>
</svg>