<?xml version="1.0" encoding="UTF-8" standalone="no"?>
<svg width="20px" height="20px" viewBox="0 0 20 20" version="1.1" xmlns="http://www.w3.org/2000/svg" xmlns:xlink="http://www.w3.org/1999/xlink">
    <!-- Generator: Sketch 3.8.1 (29687) - http://www.bohemiancoding.com/sketch -->
    <title>file_psd [#1753]</title>
    <desc>Created with Sketch.</desc>
    <defs></defs>
    <g id="Page-1" stroke="none" stroke-width="1" fill="none" fill-rule="evenodd">
        <g id="Dribbble-Dark-Preview" transform="translate(-380.000000, -1279.000000)" fill="#FFFFFF">
            <g id="icons" transform="translate(56.000000, 160.000000)">
                <path d="M343.7248,1125.0442 L338.2748,1119.3112 C338.0858,1119.1132 337.8238,1119.0002 337.5498,1119.0002 L325.9998,1119.0002 C324.8958,1119.0002 323.9998,1119.8962 323.9998,1121.0002 L323.9998,1128.0002 C323.9998,1128.5522 324.4478,1129.0002 324.9998,1129.0002 C325.5528,1129.0002 325.9998,1128.5522 325.9998,1128.0002 L325.9998,1122.0002 C325.9998,1121.4482 326.4478,1121.0002 326.9998,1121.0002 L335.9998,1121.0002 L335.9998,1125.0002 C335.9998,1126.1052 336.8958,1127.0002 337.9998,1127.0002 L341.9998,1127.0002 L341.9998,1128.0002 C341.9998,1128.5522 342.4478,1129.0002 342.9998,1129.0002 C343.5528,1129.0002 343.9998,1128.5522 343.9998,1128.0002 L343.9998,1125.7332 C343.9998,1125.4772 343.9018,1125.2302 343.7248,1125.0442 L343.7248,1125.0442 Z M327.9998,1134.0002 C327.9998,1133.4482 327.5528,1133.0002 326.9998,1133.0002 L325.9998,1133.0002 L325.9998,1135.0002 L326.9998,1135.0002 C327.5528,1135.0002 327.9998,1134.5522 327.9998,1134.0002 L327.9998,1134.0002 Z M329.9958,1133.8392 C330.0868,1135.5692 328.7108,1137.0002 326.9998,1137.0002 L325.9998,1137.0002 L325.9998,1138.0002 C325.9998,1138.5522 325.5528,1139.0002 324.9998,1139.0002 C324.4478,1139.0002 323.9998,1138.5522 323.9998,1138.0002 L323.9998,1132.0002 C323.9998,1131.4482 324.4478,1131.0002 324.9998,1131.0002 L326.8298,1131.0002 C328.4548,1131.0002 329.9108,1132.2172 329.9958,1133.8392 L329.9958,1133.8392 Z M341.9998,1134.0002 C341.9998,1133.4482 341.5528,1133.0002 340.9998,1133.0002 L339.9998,1133.0002 L339.9998,1137.0002 L340.9998,1137.0002 C341.5528,1137.0002 341.9998,1136.5522 341.9998,1136.0002 L341.9998,1134.0002 Z M343.9998,1134.0002 L343.9998,1136.0002 C343.9998,1137.6572 342.6568,1139.0002 340.9998,1139.0002 L338.9998,1139.0002 C338.4478,1139.0002 337.9998,1138.5532 337.9998,1138.0002 L337.9998,1137.0002 L337.9998,1133.0002 L337.9998,1132.0002 C337.9998,1131.4482 338.4478,1131.0002 338.9998,1131.0002 L340.9998,1131.0002 C342.6568,1131.0002 343.9998,1132.3432 343.9998,1134.0002 L343.9998,1134.0002 Z M332.9998,1133.5002 C332.9998,1133.7762 333.2238,1134.0002 333.4998,1134.0002 L334.9998,1134.0002 L335.0208,1134.0002 C336.1138,1134.0002 336.9998,1134.8862 336.9998,1135.9792 L336.9998,1137.0212 C336.9998,1138.1142 336.1138,1139.0002 335.0208,1139.0002 L334.9998,1139.0002 L331.9998,1139.0002 C331.4478,1139.0002 330.9998,1138.5522 330.9998,1138.0002 C330.9998,1137.4482 331.4478,1137.0002 331.9998,1137.0002 L334.4998,1137.0002 C334.7758,1137.0002 334.9998,1136.7762 334.9998,1136.5002 C334.9998,1136.2242 334.7758,1136.0002 334.4998,1136.0002 L332.9998,1136.0002 C331.8958,1136.0002 330.9998,1135.1052 330.9998,1134.0002 L330.9998,1133.0002 C330.9998,1131.8962 331.8958,1131.0002 332.9998,1131.0002 L335.9998,1131.0002 C336.5528,1131.0002 336.9998,1131.4482 336.9998,1132.0002 C336.9998,1132.5522 336.5528,1133.0002 335.9998,1133.0002 L333.4998,1133.0002 C333.2238,1133.0002 332.9998,1133.2242 332.9998,1133.5002 L332.9998,1133.5002 Z" id="file_psd-[#1753]"></path>
            </g>
        </g>
    </g>
</svg>