<?xml version="1.0" encoding="UTF-8" standalone="no"?>
<svg width="20px" height="20px" viewBox="0 0 20 20" version="1.1" xmlns="http://www.w3.org/2000/svg" xmlns:xlink="http://www.w3.org/1999/xlink">
    <!-- Generator: Sketch 3.8.1 (29687) - http://www.bohemiancoding.com/sketch -->
    <title>file [#1699]</title>
    <desc>Created with Sketch.</desc>
    <defs></defs>
    <g id="Page-1" stroke="none" stroke-width="1" fill="none" fill-rule="evenodd">
        <g id="Dribbble-Dark-Preview" transform="translate(-140.000000, -1519.000000)" fill="#FFFFFF">
            <g id="icons" transform="translate(56.000000, 160.000000)">
                <path d="M102,1376.0005 C102,1376.5525 101.552,1377.0005 101,1377.0005 L87,1377.0005 C86.448,1377.0005 86,1376.5525 86,1376.0005 L86,1362.0005 C86,1361.4485 86.448,1361.0005 87,1361.0005 L96,1361.0005 L96,1365.0005 C96,1366.1045 96.895,1367.0005 98,1367.0005 L102,1367.0005 L102,1376.0005 Z M103.707,1364.7075 L98.293,1359.2935 C98.105,1359.1055 97.851,1359.0005 97.586,1359.0005 L86,1359.0005 C84.895,1359.0005 84,1359.8955 84,1361.0005 L84,1377.0005 C84,1378.1045 84.895,1379.0005 86,1379.0005 L102,1379.0005 C103.105,1379.0005 104,1378.1045 104,1377.0005 L104,1365.4145 C104,1365.1495 103.895,1364.8955 103.707,1364.7075 L103.707,1364.7075 Z" id="file-[#1699]"></path>
            </g>
        </g>
    </g>
</svg>