<?xml version="1.0" encoding="UTF-8" standalone="no"?>
<svg width="20px" height="20px" viewBox="0 0 20 20" version="1.1" xmlns="http://www.w3.org/2000/svg" xmlns:xlink="http://www.w3.org/1999/xlink">
    <!-- Generator: Sketch 3.8.1 (29687) - http://www.bohemiancoding.com/sketch -->
    <title>file_jpg [#1741]</title>
    <desc>Created with Sketch.</desc>
    <defs></defs>
    <g id="Page-1" stroke="none" stroke-width="1" fill="none" fill-rule="evenodd">
        <g id="Dribbble-Dark-Preview" transform="translate(-60.000000, -1359.000000)" fill="#FFFFFF">
            <g id="icons" transform="translate(56.000000, 160.000000)">
                <path d="M8,1216.1052 C8,1216.6572 7.552,1217.0002 7,1217.0002 L4,1217.0002 L4,1219.0002 L8,1219.0002 C9.105,1219.0002 10,1218.2092 10,1217.1052 L10,1211.0002 L8,1211.0002 L8,1216.1052 Z M18,1215.0002 C18,1217.2092 19.791,1219.0002 22,1219.0002 L24,1219.0002 L24,1215.0002 L22,1215.0002 L22,1217.1052 C20.895,1217.1052 20,1216.1572 20,1215.0532 C20,1213.9482 20.895,1213.0002 22,1213.0002 L24,1213.0002 L24,1211.0002 L22,1211.0002 C19.791,1211.0002 18,1212.7912 18,1215.0002 L18,1215.0002 Z M15,1214.1052 C15,1213.5532 14.552,1213.1052 14,1213.1052 L13,1213.1052 L13,1215.1052 L14,1215.1052 C14.552,1215.1052 15,1214.6572 15,1214.1052 L15,1214.1052 Z M17,1214.0002 C17,1215.6572 15.657,1217.0002 14,1217.0002 L13,1217.0002 L13,1219.0002 L11,1219.0002 L11,1211.0002 L14,1211.0002 C15.657,1211.0002 17,1212.3432 17,1214.0002 L17,1214.0002 Z M24,1205.4382 L24,1209.0002 L22,1209.0002 L22,1207.0002 L16,1207.0002 L16,1201.0002 L6,1201.0002 L6,1209.0002 L4,1209.0002 L4,1199.0002 L17.979,1199.0002 L24,1205.4382 Z" id="file_jpg-[#1741]"></path>
            </g>
        </g>
    </g>
</svg>