<?xml version="1.0" encoding="UTF-8" standalone="no"?>
<svg width="22px" height="22px" viewBox="0 0 22 22" version="1.1" xmlns="http://www.w3.org/2000/svg" xmlns:xlink="http://www.w3.org/1999/xlink">
    <!-- Generator: Sketch 3.8.1 (29687) - http://www.bohemiancoding.com/sketch -->
    <title>file_plus [#1682]</title>
    <desc>Created with Sketch.</desc>
    <defs></defs>
    <g id="Page-1" stroke="none" stroke-width="1" fill="none" fill-rule="evenodd">
        <g id="Dribbble-Dark-Preview" transform="translate(-418.000000, -1559.000000)" fill="#FFFFFF">
            <g id="icons" transform="translate(56.000000, 160.000000)">
                <path d="M378,1399.0005 L364,1399.0005 L364,1413.0005 L366,1413.0005 L366,1401.0005 L376,1401.0005 L376,1407.0005 L382,1407.0005 L382,1417.0005 L370,1417.0005 L370,1419.0005 L384,1419.0005 L384,1405.0815 L378,1399.0005 Z M366,1417.0005 L368,1417.0005 L368,1419.0005 L366,1419.0005 L366,1421.0005 L364,1421.0005 L364,1419.0005 L362,1419.0005 L362,1417.0005 L364,1417.0005 L364,1415.0005 L366,1415.0005 L366,1417.0005 Z" id="file_plus-[#1682]"></path>
            </g>
        </g>
    </g>
</svg>