<?xml version="1.0" encoding="UTF-8" standalone="no"?>
<svg width="22px" height="22px" viewBox="0 0 22 22" version="1.1" xmlns="http://www.w3.org/2000/svg" xmlns:xlink="http://www.w3.org/1999/xlink">
    <!-- Generator: Sketch 3.8.1 (29687) - http://www.bohemiancoding.com/sketch -->
    <title>file_close [#1685]</title>
    <desc>Created with Sketch.</desc>
    <defs></defs>
    <g id="Page-1" stroke="none" stroke-width="1" fill="none" fill-rule="evenodd">
        <g id="Dribbble-Dark-Preview" transform="translate(-298.000000, -1559.000000)" fill="#FFFFFF">
            <g id="icons" transform="translate(56.000000, 160.000000)">
                <path d="M257.8284,1399.0005 L244.0004,1399.0005 L244.0004,1401.08567 L244.0004,1413.02856 L246.0004,1413.02856 L246.0004,1401.00451 L256.0004,1401.00451 L256.0004,1407.01653 L262.0004,1407.01653 L262.0004,1417.03657 L250.0004,1417.03657 L250.0004,1419.04058 L264.0004,1419.04058 L264.0004,1405.09369 L257.8284,1399.0005 Z M247.6564,1416.749 L246.2424,1418.16583 L247.6564,1419.58367 L246.2424,1421.0005 L244.8284,1419.58367 L243.4144,1421.0005 L242.0004,1419.58367 L243.4144,1418.16583 L242.0004,1416.749 L243.4144,1415.33216 L244.8284,1416.749 L246.2424,1415.33216 L247.6564,1416.749 Z" id="file_close-[#1685]"></path>
            </g>
        </g>
    </g>
</svg>