<?xml version="1.0" encoding="UTF-8" standalone="no"?>
<svg width="20px" height="20px" viewBox="0 0 20 20" version="1.1" xmlns="http://www.w3.org/2000/svg" xmlns:xlink="http://www.w3.org/1999/xlink">
    <!-- Generator: Sketch 3.8.1 (29687) - http://www.bohemiancoding.com/sketch -->
    <title>file_player_media [#1581]</title>
    <desc>Created with Sketch.</desc>
    <defs></defs>
    <g id="Page-1" stroke="none" stroke-width="1" fill="none" fill-rule="evenodd">
        <g id="Dribbble-Dark-Preview" transform="translate(-60.000000, -1999.000000)" fill="#FFFFFF">
            <g id="icons" transform="translate(56.000000, 160.000000)">
                <path d="M16.4806,1850.51423 L12.4966,1852.78995 C11.8296,1853.17074 10.9996,1852.68901 10.9996,1851.92144 L10.9996,1847.37099 C10.9996,1846.60342 11.8296,1846.12269 12.4966,1846.50348 L16.4806,1848.7782 C17.1526,1849.16199 17.1526,1850.13044 16.4806,1850.51423 L16.4806,1850.51423 Z M21.9996,1855.64935 C21.9996,1856.20104 21.5526,1856.99059 20.9996,1856.99059 L6.9996,1856.99059 C6.4476,1856.99059 5.9996,1856.20104 5.9996,1855.64935 L5.9996,1841.6572 C5.9996,1841.10551 6.4476,1840.99957 6.9996,1840.99957 L15.9996,1840.99957 L15.9996,1844.65552 C15.9996,1845.7589 16.8956,1846.9962 17.9996,1846.9962 L21.9996,1846.9962 L21.9996,1855.64935 Z M23.7076,1844.36268 L18.2926,1839.12263 C18.1056,1838.93473 17.8506,1839.00069 17.5856,1839.00069 L5.9996,1839.00069 C4.8956,1839.00069 3.9996,1839.55338 3.9996,1840.65776 L3.9996,1856.64878 C3.9996,1857.75216 4.8956,1858.98947 5.9996,1858.98947 L21.9996,1858.98947 C23.1046,1858.98947 23.9996,1857.75216 23.9996,1856.64878 L23.9996,1845.06929 C23.9996,1844.80443 23.8946,1844.54958 23.7076,1844.36268 L23.7076,1844.36268 Z" id="file_player_media-[#1581]"></path>
            </g>
        </g>
    </g>
</svg>