<?xml version="1.0" encoding="UTF-8" standalone="no"?>
<svg width="22px" height="20px" viewBox="0 0 22 20" version="1.1" xmlns="http://www.w3.org/2000/svg" xmlns:xlink="http://www.w3.org/1999/xlink">
    <!-- Generator: Sketch 3.8.1 (29687) - http://www.bohemiancoding.com/sketch -->
    <title>file_missing_minus [#1713]</title>
    <desc>Created with Sketch.</desc>
    <defs></defs>
    <g id="Page-1" stroke="none" stroke-width="1" fill="none" fill-rule="evenodd">
        <g id="Dribbble-Dark-Preview" transform="translate(-378.000000, -1439.000000)" fill="#FFFFFF">
            <g id="icons" transform="translate(56.000000, 160.000000)">
                <path d="M343,1289.0005 C342.448,1289.0005 342,1289.4485 342,1290.0005 C342,1290.5525 342.448,1291.0005 343,1291.0005 C343.552,1291.0005 344,1290.5525 344,1290.0005 C344,1289.4485 343.552,1289.0005 343,1289.0005 M335,1297.0005 C334.448,1297.0005 334,1297.4485 334,1298.0005 C334,1298.5525 334.448,1299.0005 335,1299.0005 C335.552,1299.0005 336,1298.5525 336,1298.0005 C336,1297.4485 335.552,1297.0005 335,1297.0005 M339,1297.0005 C338.448,1297.0005 338,1297.4485 338,1298.0005 C338,1298.5525 338.448,1299.0005 339,1299.0005 C339.552,1299.0005 340,1298.5525 340,1298.0005 C340,1297.4485 339.552,1297.0005 339,1297.0005 M343,1297.0005 C342.448,1297.0005 342,1297.4485 342,1298.0005 C342,1298.5525 342.448,1299.0005 343,1299.0005 C343.552,1299.0005 344,1298.5525 344,1298.0005 C344,1297.4485 343.552,1297.0005 343,1297.0005 M327,1297.0005 L326,1297.0005 L323,1297.0005 C322.448,1297.0005 322,1297.4485 322,1298.0005 C322,1298.5525 322.448,1299.0005 323,1299.0005 L326,1299.0005 L327,1299.0005 C327.552,1299.0005 328,1298.5525 328,1298.0005 C328,1297.4485 327.552,1297.0005 327,1297.0005 M325,1281.0005 C325.552,1281.0005 326,1280.5525 326,1280.0005 C326,1279.4485 325.552,1279.0005 325,1279.0005 C324.448,1279.0005 324,1279.4485 324,1280.0005 C324,1280.5525 324.448,1281.0005 325,1281.0005 M343,1293.0005 C342.448,1293.0005 342,1293.4485 342,1294.0005 C342,1294.5525 342.448,1295.0005 343,1295.0005 C343.552,1295.0005 344,1294.5525 344,1294.0005 C344,1293.4485 343.552,1293.0005 343,1293.0005 M329,1279.0005 C328.448,1279.0005 328,1279.4485 328,1280.0005 C328,1280.5525 328.448,1281.0005 329,1281.0005 C329.552,1281.0005 330,1280.5525 330,1280.0005 C330,1279.4485 329.552,1279.0005 329,1279.0005 M333,1279.0005 C332.448,1279.0005 332,1279.4485 332,1280.0005 C332,1280.5525 332.448,1281.0005 333,1281.0005 C333.552,1281.0005 334,1280.5525 334,1280.0005 C334,1279.4485 333.552,1279.0005 333,1279.0005 M325,1285.0005 C325.552,1285.0005 326,1284.5525 326,1284.0005 C326,1283.4485 325.552,1283.0005 325,1283.0005 C324.448,1283.0005 324,1283.4485 324,1284.0005 C324,1284.5525 324.448,1285.0005 325,1285.0005 M325,1293.0005 C325.552,1293.0005 326,1292.5525 326,1292.0005 C326,1291.4485 325.552,1291.0005 325,1291.0005 C324.448,1291.0005 324,1291.4485 324,1292.0005 C324,1292.5525 324.448,1293.0005 325,1293.0005 M331,1297.0005 C330.448,1297.0005 330,1297.4485 330,1298.0005 C330,1298.5525 330.448,1299.0005 331,1299.0005 C331.552,1299.0005 332,1298.5525 332,1298.0005 C332,1297.4485 331.552,1297.0005 331,1297.0005 M343.707,1284.7075 L338.293,1279.2935 C338.105,1279.1055 337.851,1279.0005 337.586,1279.0005 L337,1279.0005 C336.448,1279.0005 336,1279.4485 336,1280.0005 L336,1281.0005 L336,1282.0005 L336,1285.0005 C336,1286.1045 336.895,1287.0005 338,1287.0005 L341,1287.0005 L342,1287.0005 L343,1287.0005 C343.552,1287.0005 344,1286.5525 344,1286.0005 L344,1285.4145 C344,1285.1495 343.895,1284.8955 343.707,1284.7075 M324,1288.0005 C324,1287.4485 324.448,1287.0005 325,1287.0005 C325.552,1287.0005 326,1287.4485 326,1288.0005 C326,1288.5525 325.552,1289.0005 325,1289.0005 C324.448,1289.0005 324,1288.5525 324,1288.0005" id="file_missing_minus-[#1713]"></path>
            </g>
        </g>
    </g>
</svg>