<?xml version="1.0" encoding="UTF-8" standalone="no"?>
<svg width="22px" height="22px" viewBox="0 0 22 22" version="1.1" xmlns="http://www.w3.org/2000/svg" xmlns:xlink="http://www.w3.org/1999/xlink">
    <!-- Generator: Sketch 3.8.1 (29687) - http://www.bohemiancoding.com/sketch -->
    <title>file_plus [#1703]</title>
    <desc>Created with Sketch.</desc>
    <defs></defs>
    <g id="Page-1" stroke="none" stroke-width="1" fill="none" fill-rule="evenodd">
        <g id="Dribbble-Dark-Preview" transform="translate(-378.000000, -1479.000000)" fill="#FFFFFF">
            <g id="icons" transform="translate(56.000000, 160.000000)">
                <path d="M330,1337.96236 C330,1337.95738 330.003,1337.9534 330.003,1337.94942 C330.003,1337.94444 330,1337.94146 330,1337.93648 L330,1337.96236 Z M343.706,1324.73389 L338.293,1319.34238 C338.105,1319.15626 337.852,1319 337.587,1319 L326,1319 L325.976,1319 C324.885,1319 324,1319.93259 324,1321.01846 L324,1321.07021 L324,1332.04235 C324,1332.59274 324.448,1333.03764 325,1333.03764 C325.552,1333.03764 326,1332.59274 326,1332.04235 L326,1322.0894 C326,1321.53999 326.448,1320.99059 327,1320.99059 L336,1320.99059 L336,1325.07528 C336,1326.17508 336.895,1326.96236 338,1326.96236 L342,1326.96236 L342,1336.02353 C342,1336.57392 341.552,1336.91531 341,1336.91531 L331,1336.91531 C330.452,1336.91531 330.01,1337.40499 330.003,1337.94942 C330.01,1338.49186 330.452,1338.9059 331,1338.9059 L342,1338.9059 L342,1338.95765 C343.105,1338.95765 344,1338.11862 344,1337.01882 L344,1336.99493 L344,1325.46544 C344,1325.20069 343.894,1324.92101 343.706,1324.73389 L343.706,1324.73389 Z M327,1336.91531 L326,1336.91531 L326,1336.02353 C326,1335.47412 325.552,1335.02823 325,1335.02823 C324.448,1335.02823 324,1335.47412 324,1336.02353 L324,1336.91531 L323,1336.91531 C322.452,1336.91531 322.01,1337.40499 322.003,1337.94942 C322.01,1338.49186 322.452,1338.9059 323,1338.9059 L324,1338.9059 L324,1340.00471 C324,1340.5551 324.448,1341 325,1341 C325.552,1341 326,1340.5551 326,1340.00471 L326,1338.9059 L327,1338.9059 C327.552,1338.9059 328,1338.51176 328,1337.96236 L328,1337.93648 C328,1337.38708 327.552,1336.91531 327,1336.91531 L327,1336.91531 Z M322,1337.93648 C322,1337.94146 322.003,1337.94444 322.003,1337.94942 C322.003,1337.9534 322,1337.95738 322,1337.96236 L322,1337.93648 Z" id="file_plus-[#1703]"></path>
            </g>
        </g>
    </g>
</svg>