<?xml version="1.0" encoding="UTF-8" standalone="no"?>
<svg width="20px" height="20px" viewBox="0 0 20 20" version="1.1" xmlns="http://www.w3.org/2000/svg" xmlns:xlink="http://www.w3.org/1999/xlink">
    <!-- Generator: Sketch 3.8.1 (29687) - http://www.bohemiancoding.com/sketch -->
    <title>file_css [#1742]</title>
    <desc>Created with Sketch.</desc>
    <defs></defs>
    <g id="Page-1" stroke="none" stroke-width="1" fill="none" fill-rule="evenodd">
        <g id="Dribbble-Dark-Preview" transform="translate(-420.000000, -1319.000000)" fill="#FFFFFF">
            <g id="icons" transform="translate(56.000000, 160.000000)">
                <path d="M380,1171.0005 C378.895,1171.0005 378,1172.0005 378,1173.1055 L378,1174.1055 C378,1175.2095 378.895,1176.0005 380,1176.0005 L381.5,1176.0005 C381.776,1176.0005 382,1176.2245 382,1176.5005 C382,1176.7765 381.776,1177.0005 381.5,1177.0005 L378,1177.0005 L378,1179.0005 L382,1179.0005 L382.021,1179.0005 C383.114,1179.0005 384,1178.2195 384,1177.1255 L384,1176.0845 C384,1174.9915 383.114,1174.0005 382.021,1174.0005 L382,1174.0005 L380.5,1174.0005 C380.224,1174.0005 380,1173.7765 380,1173.5005 C380,1173.2245 380.224,1173.0005 380.5,1173.0005 L384,1173.0005 L384,1171.0005 L380,1171.0005 Z M373,1171.0005 C371.895,1171.0005 371,1172.0005 371,1173.1055 L371,1174.1055 C371,1175.2095 371.895,1176.0005 373,1176.0005 L374.5,1176.0005 C374.776,1176.0005 375,1176.2245 375,1176.5005 C375,1176.7765 374.776,1177.0005 374.5,1177.0005 L371,1177.0005 L371,1179.0005 L375,1179.0005 L375.021,1179.0005 C376.114,1179.0005 377,1178.2195 377,1177.1255 L377,1176.0845 C377,1174.9915 376.114,1174.0005 375.021,1174.0005 L375,1174.0005 L373.5,1174.0005 C373.224,1174.0005 373,1173.7765 373,1173.5005 C373,1173.2245 373.224,1173.0005 373.5,1173.0005 L377,1173.0005 L377,1171.0005 L373,1171.0005 Z M364,1175.0005 C364,1177.2095 365.791,1179.0005 368,1179.0005 L370,1179.0005 L370,1177.0005 L368,1177.0005 C366.895,1177.0005 366,1176.1055 366,1175.0005 C366,1173.8955 366.895,1173.0005 368,1173.0005 L370,1173.0005 L370,1171.0005 L368,1171.0005 C365.791,1171.0005 364,1172.7915 364,1175.0005 L364,1175.0005 Z M384,1165.4385 L384,1169.0005 L382,1169.0005 L382,1167.0005 L376,1167.0005 L376,1161.0005 L366,1161.0005 L366,1169.0005 L364,1169.0005 L364,1159.0005 L377.979,1159.0005 L384,1165.4385 Z" id="file_css-[#1742]"></path>
            </g>
        </g>
    </g>
</svg>