<?xml version="1.0" encoding="UTF-8" standalone="no"?>
<svg width="20px" height="20px" viewBox="0 0 20 20" version="1.1" xmlns="http://www.w3.org/2000/svg" xmlns:xlink="http://www.w3.org/1999/xlink">
    <!-- Generator: Sketch 3.8.1 (29687) - http://www.bohemiancoding.com/sketch -->
    <title>file_jpg [#1766]</title>
    <desc>Created with Sketch.</desc>
    <defs></defs>
    <g id="Page-1" stroke="none" stroke-width="1" fill="none" fill-rule="evenodd">
        <g id="Dribbble-Dark-Preview" transform="translate(-260.000000, -1239.000000)" fill="#FFFFFF">
            <g id="icons" transform="translate(56.000000, 160.000000)">
                <path d="M224,1085.80233 L224,1088.0576 C224,1088.60675 223.552,1089.05243 223,1089.05243 C222.448,1089.05243 222,1088.60675 222,1088.0576 L222,1086.95932 L218,1086.95932 C216.895,1086.95932 216,1086.17241 216,1085.07312 L216,1080.99035 L207,1080.99035 C206.448,1080.99035 206,1081.5395 206,1082.08864 L206,1088.0576 C206,1088.60675 205.552,1089.05243 205,1089.05243 C204.448,1089.05243 204,1088.60675 204,1088.0576 L204,1081.09382 C204,1079.99553 204.895,1079.0007 206,1079.0007 L217.55,1079.0007 C217.824,1079.0007 218.086,1079.16385 218.275,1079.36182 L223.725,1085.1169 C223.901,1085.30193 224,1085.54766 224,1085.80233 L224,1085.80233 Z M210,1092.03691 L210,1097.01105 C210,1098.11033 209.105,1098.89724 208,1098.89724 L205,1098.89724 C204.452,1098.89724 204.01,1098.48339 204.003,1097.94121 C204.01,1097.39704 204.452,1096.90758 205,1096.90758 L207,1096.90758 C207.552,1096.90758 208,1096.56536 208,1096.01622 L208,1092.03691 C208,1091.48777 208.448,1091.04208 209,1091.04208 C209.552,1091.04208 210,1091.48777 210,1092.03691 L210,1092.03691 Z M204,1097.92828 C204,1097.93226 204.003,1097.93624 204.003,1097.94121 C204.003,1097.94519 204,1097.94917 204,1097.95414 L204,1097.92828 Z M224,1091.95932 L224,1091.98518 C224,1092.53433 223.552,1092.92828 223,1092.92828 L222.107,1092.92828 C221.111,1092.92828 220.187,1093.65748 220.027,1094.6354 C219.824,1095.88192 220.785,1097.01105 222,1097.01105 L222,1096.01622 C222,1095.46707 222.448,1095.02139 223,1095.02139 C223.552,1095.02139 224,1095.46707 224,1096.01622 L224,1098.00587 C224,1098.55502 223.552,1098.89724 223,1098.89724 L222.172,1098.89724 C220.083,1098.89724 218.217,1097.37714 218.019,1095.3089 C217.791,1092.93524 219.661,1090.93862 222,1090.93862 L223,1090.93862 C223.552,1090.93862 224,1091.41017 224,1091.95932 L224,1091.95932 Z M214,1095.02139 L213,1095.02139 L213,1093.03174 L214,1093.03174 C214.552,1093.03174 215,1093.47742 215,1094.02657 C215,1094.57571 214.552,1095.02139 214,1095.02139 L214,1095.02139 Z M213.83,1090.93862 L212,1090.93862 C211.448,1090.93862 211,1091.48777 211,1092.03691 L211,1098.00587 C211,1098.55502 211.448,1099.0007 212,1099.0007 C212.552,1099.0007 213,1098.55502 213,1098.00587 L213,1096.90758 L214,1096.90758 C215.71,1096.90758 217.086,1095.48399 216.996,1093.76194 C216.911,1092.14833 215.455,1090.93862 213.83,1090.93862 L213.83,1090.93862 Z" id="file_jpg-[#1766]"></path>
            </g>
        </g>
    </g>
</svg>