<?xml version="1.0" encoding="UTF-8" standalone="no"?>
<svg width="20px" height="20px" viewBox="0 0 20 20" version="1.1" xmlns="http://www.w3.org/2000/svg" xmlns:xlink="http://www.w3.org/1999/xlink">
    <!-- Generator: Sketch 3.8.1 (29687) - http://www.bohemiancoding.com/sketch -->
    <title>file_py [#1764]</title>
    <desc>Created with Sketch.</desc>
    <defs></defs>
    <g id="Page-1" stroke="none" stroke-width="1" fill="none" fill-rule="evenodd">
        <g id="Dribbble-Dark-Preview" transform="translate(-340.000000, -1239.000000)" fill="#FFFFFF">
            <g id="icons" transform="translate(56.000000, 160.000000)">
                <path d="M288,1094.0005 C288,1093.4485 287.552,1093.0005 287,1093.0005 L286,1093.0005 L286,1095.0005 L287,1095.0005 C287.552,1095.0005 288,1094.5525 288,1094.0005 M289.996,1093.8395 C290.086,1095.5695 288.71,1097.0005 287,1097.0005 L286,1097.0005 L286,1098.0005 C286,1098.5525 285.552,1099.0005 285,1099.0005 C284.448,1099.0005 284,1098.5525 284,1098.0005 L284,1092.0005 C284,1091.4485 284.448,1091.0005 285,1091.0005 L286.83,1091.0005 C288.455,1091.0005 289.911,1092.2165 289.996,1093.8395 M296,1091.0005 C295.448,1091.0005 295,1091.4485 295,1092.0005 L295,1093.0005 C295,1093.5525 294.552,1094.0005 294,1094.0005 C293.448,1094.0005 293,1093.5525 293,1093.0005 L293,1092.0005 C293,1091.4485 292.552,1091.0005 292,1091.0005 C291.448,1091.0005 291,1091.4485 291,1092.0005 L291,1094.0005 C291,1095.1055 291.895,1096.0005 293,1096.0005 L293,1098.0005 C293,1098.5525 293.448,1099.0005 294,1099.0005 C294.552,1099.0005 295,1098.5525 295,1098.0005 L295,1096.0005 C296.105,1096.0005 297,1095.1055 297,1094.0005 L297,1092.0005 C297,1091.4485 296.552,1091.0005 296,1091.0005 M304,1084.9855 L304,1097.0005 C304,1098.1055 303.105,1099.0005 302,1099.0005 L301.979,1099.0005 L300,1099.0005 C299.448,1099.0005 299,1098.5525 299,1098.0005 C299,1097.4485 299.448,1097.0005 300,1097.0005 L301,1097.0005 C301.552,1097.0005 302,1096.5525 302,1096.0005 L302,1087.0005 L298,1087.0005 C296.895,1087.0005 296,1086.1055 296,1085.0005 L296,1081.0005 L287,1081.0005 C286.448,1081.0005 286,1081.4485 286,1082.0005 L286,1088.0005 C286,1088.5525 285.552,1089.0005 285,1089.0005 C284.448,1089.0005 284,1088.5525 284,1088.0005 L284,1081.0005 C284,1079.8955 284.895,1079.0005 286,1079.0005 L297.589,1079.0005 C297.84,1079.0005 298.082,1079.0945 298.266,1079.2655 L303.678,1084.2505 C303.883,1084.4395 304,1084.7065 304,1084.9855" id="file_py-[#1764]"></path>
            </g>
        </g>
    </g>
</svg>