<?xml version="1.0" encoding="UTF-8" standalone="no"?>
<svg width="20px" height="20px" viewBox="0 0 20 20" version="1.1" xmlns="http://www.w3.org/2000/svg" xmlns:xlink="http://www.w3.org/1999/xlink">
    <!-- Generator: Sketch 3.8.1 (29687) - http://www.bohemiancoding.com/sketch -->
    <title>file_missing [#1689]</title>
    <desc>Created with Sketch.</desc>
    <defs></defs>
    <g id="Page-1" stroke="none" stroke-width="1" fill="none" fill-rule="evenodd">
        <g id="Dribbble-Dark-Preview" transform="translate(-140.000000, -1559.000000)" fill="#FFFFFF">
            <g id="icons" transform="translate(56.000000, 160.000000)">
                <path d="M102,1411.04178 L104,1411.04178 L104,1409.05223 L102,1409.05223 L102,1411.04178 Z M94,1419 L96,1419 L96,1417.01045 L94,1417.01045 L94,1419 Z M98,1419 L100,1419 L100,1417.01045 L98,1417.01045 L98,1419 Z M102,1419 L104,1419 L104,1417.01045 L102,1417.01045 L102,1419 Z M86,1414.91644 L84,1414.91644 L84,1418.89555 L88,1418.89555 L88,1416.90599 L86,1416.90599 L86,1414.91644 Z M84,1401.09401 L86,1401.09401 L86,1399.10445 L84,1399.10445 L84,1401.09401 Z M102,1415.02089 L104,1415.02089 L104,1413.03134 L102,1413.03134 L102,1415.02089 Z M88,1401.09401 L90,1401.09401 L90,1399.10445 L88,1399.10445 L88,1401.09401 Z M92,1401.09401 L94,1401.09401 L94,1399.10445 L92,1399.10445 L92,1401.09401 Z M84,1405.07312 L86,1405.07312 L86,1403.08356 L84,1403.08356 L84,1405.07312 Z M84,1413.03134 L86,1413.03134 L86,1411.04178 L84,1411.04178 L84,1413.03134 Z M90,1419 L92,1419 L92,1417.01045 L90,1417.01045 L90,1419 Z M98,1399 L96,1399 L96,1406.95822 L104,1406.95822 L104,1405.07312 L98,1399 Z M84,1409.05223 L86,1409.05223 L86,1407.06267 L84,1407.06267 L84,1409.05223 Z" id="file_missing-[#1689]"></path>
            </g>
        </g>
    </g>
</svg>