<?xml version="1.0" encoding="UTF-8" standalone="no"?>
<svg width="14px" height="20px" viewBox="0 0 14 20" version="1.1" xmlns="http://www.w3.org/2000/svg" xmlns:xlink="http://www.w3.org/1999/xlink">
    <!-- Generator: Sketch 3.8.1 (29687) - http://www.bohemiancoding.com/sketch -->
    <title>fileboard_minus [#1592]</title>
    <desc>Created with Sketch.</desc>
    <defs></defs>
    <g id="Page-1" stroke="none" stroke-width="1" fill="none" fill-rule="evenodd">
        <g id="Dribbble-Dark-Preview" transform="translate(-423.000000, -1919.000000)" fill="#FFFFFF">
            <g id="icons" transform="translate(56.000000, 160.000000)">
                <path d="M371,1771 L377,1771 L377,1769 L371,1769 L371,1771 Z M379,1777 L369,1777 L369,1763 L370,1763 L370,1765 L378,1765 L378,1763 L379,1763 L379,1777 Z M372,1763 L376,1763 L376,1761 L372,1761 L372,1763 Z M378,1761 L378,1759 L370,1759 L370,1761 L367,1761 L367,1779 L381,1779 L381,1761 L378,1761 Z" id="fileboard_minus-[#1592]"></path>
            </g>
        </g>
    </g>
</svg>