<?xml version="1.0" encoding="UTF-8" standalone="no"?>
<svg width="20px" height="20px" viewBox="0 0 20 20" version="1.1" xmlns="http://www.w3.org/2000/svg" xmlns:xlink="http://www.w3.org/1999/xlink">
    <!-- Generator: Sketch 3.8.1 (29687) - http://www.bohemiancoding.com/sketch -->
    <title>file_css [#1767]</title>
    <desc>Created with Sketch.</desc>
    <defs></defs>
    <g id="Page-1" stroke="none" stroke-width="1" fill="none" fill-rule="evenodd">
        <g id="Dribbble-Dark-Preview" transform="translate(-220.000000, -1239.000000)" fill="#FFFFFF">
            <g id="icons" transform="translate(56.000000, 160.000000)">
                <path d="M183.7248,1085.149 L178.2748,1079.364 C178.0858,1079.165 177.8238,1079.001 177.5498,1079.001 L165.9998,1079.001 C164.8958,1079.001 163.9998,1080.001 163.9998,1081.105 L163.9998,1088.105 C163.9998,1088.657 164.4478,1089.105 164.9998,1089.105 C165.5528,1089.105 165.9998,1088.657 165.9998,1088.105 L165.9998,1082.105 C165.9998,1081.553 166.4478,1081.001 166.9998,1081.001 L175.9998,1081.001 L175.9998,1085.105 C175.9998,1086.21 176.8958,1087.001 177.9998,1087.001 L181.9998,1087.001 L181.9998,1088.105 C181.9998,1088.657 182.4478,1089.105 182.9998,1089.105 C183.5528,1089.105 183.9998,1088.657 183.9998,1088.105 L183.9998,1085.838 C183.9998,1085.581 183.9018,1085.335 183.7248,1085.149 L183.7248,1085.149 Z M182.9998,1091.001 L179.9998,1091.001 C178.8958,1091.001 177.9998,1092.001 177.9998,1093.105 L177.9998,1094.105 C177.9998,1095.21 178.8958,1096.001 179.9998,1096.001 L181.4998,1096.001 C181.7758,1096.001 181.9998,1096.224 181.9998,1096.501 C181.9998,1096.777 181.7758,1097.001 181.4998,1097.001 L178.9998,1097.001 C178.4528,1097.001 178.0098,1097.493 178.0028,1098.04 C178.0098,1098.585 178.4528,1099.001 178.9998,1099.001 L181.9998,1099.001 L182.0208,1099.001 C183.1138,1099.001 183.9998,1098.219 183.9998,1097.126 L183.9998,1096.084 C183.9998,1094.991 183.1138,1094.001 182.0208,1094.001 L181.9998,1094.001 L180.4998,1094.001 C180.2238,1094.001 179.9998,1093.777 179.9998,1093.501 C179.9998,1093.224 180.2238,1093.001 180.4998,1093.001 L182.9998,1093.001 C183.5528,1093.001 183.9998,1092.605 183.9998,1092.053 L183.9998,1092.027 C183.9998,1091.474 183.5528,1091.001 182.9998,1091.001 L182.9998,1091.001 Z M177.9998,1098.053 C177.9998,1098.048 178.0028,1098.044 178.0028,1098.04 C178.0028,1098.035 177.9998,1098.031 177.9998,1098.027 L177.9998,1098.053 Z M175.9998,1091.001 L172.9998,1091.001 C171.8958,1091.001 170.9998,1092.001 170.9998,1093.105 L170.9998,1094.105 C170.9998,1095.21 171.8958,1096.001 172.9998,1096.001 L174.4998,1096.001 C174.7758,1096.001 174.9998,1096.224 174.9998,1096.501 C174.9998,1096.777 174.7758,1097.001 174.4998,1097.001 L171.9998,1097.001 C171.4528,1097.001 171.0098,1097.493 171.0028,1098.04 C171.0098,1098.585 171.4528,1099.001 171.9998,1099.001 L174.9998,1099.001 L175.0208,1099.001 C176.1138,1099.001 176.9998,1098.219 176.9998,1097.126 L176.9998,1096.084 C176.9998,1094.991 176.1138,1094.001 175.0208,1094.001 L174.9998,1094.001 L173.4998,1094.001 C173.2238,1094.001 172.9998,1093.777 172.9998,1093.501 C172.9998,1093.224 173.2238,1093.001 173.4998,1093.001 L175.9998,1093.001 C176.5528,1093.001 176.9998,1092.605 176.9998,1092.053 L176.9998,1092.027 C176.9998,1091.474 176.5528,1091.001 175.9998,1091.001 L175.9998,1091.001 Z M170.9998,1098.053 C170.9998,1098.048 171.0028,1098.044 171.0028,1098.04 C171.0028,1098.035 170.9998,1098.031 170.9998,1098.027 L170.9998,1098.053 Z M169.9998,1092.027 L169.9998,1092.053 C169.9998,1092.605 169.5528,1093.001 168.9998,1093.001 L167.9998,1093.001 C166.7858,1093.001 165.8238,1094.083 166.0278,1095.336 C166.1868,1096.32 167.1108,1097.001 168.1068,1097.001 L168.9998,1097.001 C169.5528,1097.001 169.9998,1097.474 169.9998,1098.027 L169.9998,1098.053 C169.9998,1098.605 169.5528,1099.001 168.9998,1099.001 L168.1718,1099.001 C166.0828,1099.001 164.2168,1097.473 164.0188,1095.393 C163.7918,1093.008 165.6608,1091.001 167.9998,1091.001 L168.9998,1091.001 C169.5528,1091.001 169.9998,1091.474 169.9998,1092.027 L169.9998,1092.027 Z" id="file_css-[#1767]"></path>
            </g>
        </g>
    </g>
</svg>