<?xml version="1.0" encoding="UTF-8" standalone="no"?>
<svg width="20px" height="20px" viewBox="0 0 20 20" version="1.1" xmlns="http://www.w3.org/2000/svg" xmlns:xlink="http://www.w3.org/1999/xlink">
    <!-- Generator: Sketch 3.8.1 (29687) - http://www.bohemiancoding.com/sketch -->
    <title>file_svg [#1746]</title>
    <desc>Created with Sketch.</desc>
    <defs></defs>
    <g id="Page-1" stroke="none" stroke-width="1" fill="none" fill-rule="evenodd">
        <g id="Dribbble-Dark-Preview" transform="translate(-260.000000, -1319.000000)" fill="#FFFFFF">
            <g id="icons" transform="translate(56.000000, 160.000000)">
                <path d="M214.25,1177.0005 L213.75,1177.0005 L213,1171.0005 L211,1171.0005 L212,1179.0005 L213,1179.0005 L214,1179.0005 L215,1179.0005 L216,1179.0005 L217,1171.0005 L215,1171.0005 L214.25,1177.0005 Z M218,1175.0005 C218,1177.2095 219.791,1179.0005 222,1179.0005 L224,1179.0005 L224,1175.0005 L222,1175.0005 L222,1177.1055 C220.895,1177.1055 220,1176.1575 220,1175.0525 C220,1173.9485 220.895,1173.0005 222,1173.0005 L224,1173.0005 L224,1171.0005 L222,1171.0005 C219.791,1171.0005 218,1172.7915 218,1175.0005 L218,1175.0005 Z M206,1171.0005 C204.895,1171.0005 204,1172.0005 204,1173.1055 L204,1174.1055 C204,1175.2095 204.895,1176.0005 206,1176.0005 L207.5,1176.0005 C207.776,1176.0005 208,1176.2245 208,1176.5005 C208,1176.7765 207.776,1177.0005 207.5,1177.0005 L204,1177.0005 L204,1179.0005 L208,1179.0005 L208.021,1179.0005 C209.114,1179.0005 210,1178.2195 210,1177.1255 L210,1176.0845 C210,1174.9915 209.114,1174.0005 208.021,1174.0005 L208,1174.0005 L206.5,1174.0005 C206.224,1174.0005 206,1173.7765 206,1173.5005 C206,1173.2245 206.224,1173.0005 206.5,1173.0005 L210,1173.0005 L210,1171.0005 L206,1171.0005 Z M224,1165.4385 L224,1169.0005 L222,1169.0005 L222,1167.0005 L216,1167.0005 L216,1161.0005 L206,1161.0005 L206,1169.0005 L204,1169.0005 L204,1159.0005 L217.979,1159.0005 L224,1165.4385 Z" id="file_svg-[#1746]"></path>
            </g>
        </g>
    </g>
</svg>