<?xml version="1.0" encoding="UTF-8" standalone="no"?>
<svg width="20px" height="16px" viewBox="0 0 20 16" version="1.1" xmlns="http://www.w3.org/2000/svg" xmlns:xlink="http://www.w3.org/1999/xlink">
    <!-- Generator: Sketch 3.8.1 (29687) - http://www.bohemiancoding.com/sketch -->
    <title>file_mini [#1716]</title>
    <desc>Created with Sketch.</desc>
    <defs></defs>
    <g id="Page-1" stroke="none" stroke-width="1" fill="none" fill-rule="evenodd">
        <g id="Dribbble-Dark-Preview" transform="translate(-260.000000, -1441.000000)" fill="#FFFFFF">
            <g id="icons" transform="translate(56.000000, 160.000000)">
                <path d="M222,1294 C222,1294.552 221.552,1295 221,1295 L207,1295 C206.448,1295 206,1294.552 206,1294 L206,1284 C206,1283.448 206.448,1283 207,1283 L216,1283 L216,1287 C216,1288.104 216.895,1289 218,1289 L222,1289 L222,1294 Z M223.707,1286.707 L218.293,1281.293 C218.105,1281.105 217.851,1281 217.586,1281 L206,1281 C204.895,1281 204,1281.895 204,1283 L204,1295 C204,1296.104 204.895,1297 206,1297 L222,1297 C223.105,1297 224,1296.104 224,1295 L224,1287.414 C224,1287.149 223.895,1286.895 223.707,1286.707 L223.707,1286.707 Z" id="file_mini-[#1716]"></path>
            </g>
        </g>
    </g>
</svg>