<?xml version="1.0" encoding="UTF-8" standalone="no"?>
<svg width="20px" height="20px" viewBox="0 0 20 20" version="1.1" xmlns="http://www.w3.org/2000/svg" xmlns:xlink="http://www.w3.org/1999/xlink">
    <!-- Generator: Sketch 3.8.1 (29687) - http://www.bohemiancoding.com/sketch -->
    <title>file_rss [#1757]</title>
    <desc>Created with Sketch.</desc>
    <defs></defs>
    <g id="Page-1" stroke="none" stroke-width="1" fill="none" fill-rule="evenodd">
        <g id="Dribbble-Dark-Preview" transform="translate(-220.000000, -1279.000000)" fill="#FFFFFF">
            <g id="icons" transform="translate(56.000000, 160.000000)">
                <path d="M183.7248,1125.0442 L178.2748,1119.3112 C178.0858,1119.1132 177.8238,1119.0002 177.5498,1119.0002 L165.9998,1119.0002 C164.8958,1119.0002 163.9998,1119.8962 163.9998,1121.0002 L163.9998,1128.0002 C163.9998,1128.5522 164.4478,1129.0002 164.9998,1129.0002 C165.5528,1129.0002 165.9998,1128.5522 165.9998,1128.0002 L165.9998,1122.0002 C165.9998,1121.4482 166.4478,1121.0002 166.9998,1121.0002 L175.9998,1121.0002 L175.9998,1125.0002 C175.9998,1126.1052 176.8958,1127.0002 177.9998,1127.0002 L181.9998,1127.0002 L181.9998,1128.0002 C181.9998,1128.5522 182.4478,1129.0002 182.9998,1129.0002 C183.5528,1129.0002 183.9998,1128.5522 183.9998,1128.0002 L183.9998,1125.7332 C183.9998,1125.4772 183.9018,1125.2302 183.7248,1125.0442 M167.9958,1134.0002 C167.9958,1133.4482 167.5488,1133.0002 166.9958,1133.0002 L165.9958,1133.0002 L165.9958,1135.0002 L166.9958,1135.0002 C167.5488,1135.0002 167.9958,1134.5532 167.9958,1134.0002 M168.7208,1136.4492 L169.3488,1137.7062 C169.6458,1138.3012 169.2138,1139.0002 168.5488,1139.0002 C168.2098,1139.0002 167.9008,1138.8092 167.7488,1138.5062 L166.9958,1137.0002 L165.9998,1137.0002 L165.9998,1138.0002 C165.9998,1138.5522 165.5528,1139.0002 164.9998,1139.0002 C164.4478,1139.0002 163.9998,1138.5522 163.9998,1138.0002 L163.9998,1132.0002 C163.9998,1131.4482 164.4478,1131.0002 164.9998,1131.0002 L166.8488,1131.0002 C168.4108,1131.0002 169.8198,1132.1302 169.9798,1133.6842 C170.0978,1134.8262 169.5698,1135.8502 168.7208,1136.4492 M180.4958,1133.0002 L182.9998,1133.0002 C183.5528,1133.0002 183.9998,1132.5522 183.9998,1132.0002 C183.9998,1131.4482 183.5528,1131.0002 182.9998,1131.0002 L179.9958,1131.0002 C178.8938,1131.0002 177.9998,1131.8942 177.9998,1132.9962 L177.9998,1134.0002 C177.9998,1135.1052 178.8958,1136.0002 179.9998,1136.0002 L181.4958,1136.0002 C181.7718,1136.0002 181.9958,1136.2242 181.9958,1136.5002 C181.9958,1136.7762 181.7718,1137.0002 181.4958,1137.0002 L178.9998,1137.0002 C178.4478,1137.0002 177.9998,1137.4482 177.9998,1138.0002 C177.9998,1138.5522 178.4478,1139.0002 178.9998,1139.0002 L181.9958,1139.0002 L182.0168,1139.0002 C183.1118,1139.0002 183.9998,1138.1122 183.9998,1137.0172 L183.9998,1135.9792 C183.9998,1134.8862 183.1138,1134.0002 182.0208,1134.0002 L181.9958,1134.0002 L180.4958,1134.0002 C180.2198,1134.0002 179.9958,1133.7762 179.9958,1133.5002 C179.9958,1133.2242 180.2198,1133.0002 180.4958,1133.0002 M172.9998,1133.5002 C172.9998,1133.7762 173.2238,1134.0002 173.4998,1134.0002 L174.9998,1134.0002 L175.0208,1134.0002 C176.1138,1134.0002 176.9998,1134.8862 176.9998,1135.9792 L176.9998,1137.0212 C176.9998,1138.1142 176.1138,1139.0002 175.0208,1139.0002 L174.9998,1139.0002 L171.9998,1139.0002 C171.4478,1139.0002 170.9998,1138.5522 170.9998,1138.0002 C170.9998,1137.4482 171.4478,1137.0002 171.9998,1137.0002 L174.4998,1137.0002 C174.7758,1137.0002 174.9998,1136.7762 174.9998,1136.5002 C174.9998,1136.2242 174.7758,1136.0002 174.4998,1136.0002 L172.9998,1136.0002 C171.8958,1136.0002 170.9998,1135.1052 170.9998,1134.0002 L170.9998,1133.0002 C170.9998,1131.8962 171.8958,1131.0002 172.9998,1131.0002 L175.9998,1131.0002 C176.5528,1131.0002 176.9998,1131.4482 176.9998,1132.0002 C176.9998,1132.5522 176.5528,1133.0002 175.9998,1133.0002 L173.4998,1133.0002 C173.2238,1133.0002 172.9998,1133.2242 172.9998,1133.5002" id="file_rss-[#1757]"></path>
            </g>
        </g>
    </g>
</svg>