<?xml version="1.0" encoding="UTF-8" standalone="no"?>
<svg width="20px" height="20px" viewBox="0 0 20 20" version="1.1" xmlns="http://www.w3.org/2000/svg" xmlns:xlink="http://www.w3.org/1999/xlink">
    <!-- Generator: Sketch 3.8.1 (29687) - http://www.bohemiancoding.com/sketch -->
    <title>file_sketch [#1772]</title>
    <desc>Created with Sketch.</desc>
    <defs></defs>
    <g id="Page-1" stroke="none" stroke-width="1" fill="none" fill-rule="evenodd">
        <g id="Dribbble-Dark-Preview" transform="translate(-420.000000, -1199.000000)" fill="#FFFFFF">
            <g id="icons" transform="translate(56.000000, 160.000000)">
                <path d="M377.1896,1048.2826 L378.6166,1049.9876 C378.7766,1050.2296 378.7546,1050.5326 378.5636,1050.7506 L374.2026,1055.3706 C373.9466,1055.6636 373.4926,1055.6546 373.2336,1055.3646 L368.8866,1050.8366 C368.6956,1050.6216 368.6696,1050.2936 368.8226,1050.0506 L370.2706,1048.2936 C370.3886,1048.1056 370.5956,1048.0006 370.8176,1048.0006 L376.6496,1048.0006 C376.8676,1048.0006 377.0706,1048.1006 377.1896,1048.2826 L377.1896,1048.2826 Z M381.9996,1056.1056 C381.9996,1056.6576 381.5526,1057.0006 380.9996,1057.0006 L366.9996,1057.0006 C366.4476,1057.0006 365.9996,1056.6576 365.9996,1056.1056 L365.9996,1042.1056 C365.9996,1041.5526 366.4476,1041.0006 366.9996,1041.0006 L375.9996,1041.0006 L375.9996,1045.1056 C375.9996,1046.2096 376.8956,1047.0006 377.9996,1047.0006 L381.9996,1047.0006 L381.9996,1056.1056 Z M383.7076,1044.8126 L378.2926,1039.3456 C378.1056,1039.1576 377.8506,1039.0006 377.5856,1039.0006 L365.9996,1039.0006 C364.8956,1039.0006 363.9996,1040.0006 363.9996,1041.1056 L363.9996,1057.1056 C363.9996,1058.2096 364.8956,1059.0006 365.9996,1059.0006 L381.9996,1059.0006 C383.1046,1059.0006 383.9996,1058.2096 383.9996,1057.1056 L383.9996,1045.5196 C383.9996,1045.2536 383.8946,1044.9996 383.7076,1044.8126 L383.7076,1044.8126 Z" id="file_sketch-[#1772]"></path>
            </g>
        </g>
    </g>
</svg>