<?xml version="1.0" encoding="UTF-8" standalone="no"?>
<svg width="20px" height="20px" viewBox="0 0 20 20" version="1.1" xmlns="http://www.w3.org/2000/svg" xmlns:xlink="http://www.w3.org/1999/xlink">
    <!-- Generator: Sketch 3.8.1 (29687) - http://www.bohemiancoding.com/sketch -->
    <title>finish_line [#104]</title>
    <desc>Created with Sketch.</desc>
    <defs></defs>
    <g id="Page-1" stroke="none" stroke-width="1" fill="none" fill-rule="evenodd">
        <g id="Dribbble-Dark-Preview" transform="translate(-220.000000, -7759.000000)" fill="#FFFFFF">
            <g id="icons" transform="translate(56.000000, 160.000000)">
                <path d="M174,7611 L178,7611 L178,7607 L174,7607 L174,7611 Z M170,7607 L174,7607 L174,7603 L170,7603 L170,7607 Z M174,7603 L178,7603 L178,7599 L174,7599 L174,7603 Z M182,7599 L182,7603 L178,7603 L178,7607 L182,7607 L182,7619 L184,7619 L184,7599 L182,7599 Z M166,7607 L170,7607 L170,7611 L166,7611 L166,7619 L164,7619 L164,7599 L170,7599 L170,7603 L166,7603 L166,7607 Z" id="finish_line-[#104]"></path>
            </g>
        </g>
    </g>
</svg>