<?xml version="1.0" encoding="UTF-8" standalone="no"?>
<svg width="20px" height="20px" viewBox="0 0 20 20" version="1.1" xmlns="http://www.w3.org/2000/svg" xmlns:xlink="http://www.w3.org/1999/xlink">
    <!-- Generator: Sketch 3.8.1 (29687) - http://www.bohemiancoding.com/sketch -->
    <title>finish_line [#103]</title>
    <desc>Created with Sketch.</desc>
    <defs></defs>
    <g id="Page-1" stroke="none" stroke-width="1" fill="none" fill-rule="evenodd">
        <g id="Dribbble-Dark-Preview" transform="translate(-260.000000, -7759.000000)" fill="#FFFFFF">
            <g id="icons" transform="translate(56.000000, 160.000000)">
                <path d="M214,7611 L218,7611 L218,7607 L214,7607 L214,7611 Z M210,7607 L214,7607 L214,7603 L210,7603 L210,7607 Z M214,7603 L218,7603 L218,7599 L214,7599 L214,7603 Z M222,7599 L222,7603 L218,7603 L218,7607 L222,7607 L222,7611 L224,7611 L224,7599 L222,7599 Z M206,7607 L210,7607 L210,7611 L206,7611 L206,7619 L204,7619 L204,7599 L210,7599 L210,7603 L206,7603 L206,7607 Z" id="finish_line-[#103]"></path>
            </g>
        </g>
    </g>
</svg>