<?xml version="1.0" encoding="UTF-8" standalone="no"?>
<svg width="20px" height="14px" viewBox="0 0 20 14" version="1.1" xmlns="http://www.w3.org/2000/svg" xmlns:xlink="http://www.w3.org/1999/xlink">
    <!-- Generator: Sketch 3.8.1 (29687) - http://www.bohemiancoding.com/sketch -->
    <title>flag [#107]</title>
    <desc>Created with Sketch.</desc>
    <defs></defs>
    <g id="Page-1" stroke="none" stroke-width="1" fill="none" fill-rule="evenodd">
        <g id="Dribbble-Dark-Preview" transform="translate(-100.000000, -7762.000000)" fill="#FFFFFF">
            <g id="icons" transform="translate(56.000000, 160.000000)">
                <path d="M46,7608 L48,7608 L48,7606 L50,7606 L50,7604 L48,7604 L48,7602 L46,7602 L46,7604 L44,7604 L44,7606 L46,7606 L46,7608 Z M52,7604 L64,7604 L64,7602 L52,7602 L52,7604 Z M52,7608 L64,7608 L64,7606 L52,7606 L52,7608 Z M44,7612 L64,7612 L64,7610 L44,7610 L44,7612 Z M44,7616 L64,7616 L64,7614 L44,7614 L44,7616 Z" id="flag-[#107]"></path>
            </g>
        </g>
    </g>
</svg>