<?xml version="1.0" encoding="UTF-8" standalone="no"?>
<svg width="20px" height="20px" viewBox="0 0 20 20" version="1.1" xmlns="http://www.w3.org/2000/svg" xmlns:xlink="http://www.w3.org/1999/xlink">
    <!-- Generator: Sketch 3.8.1 (29687) - http://www.bohemiancoding.com/sketch -->
    <title>flower [#92]</title>
    <desc>Created with Sketch.</desc>
    <defs></defs>
    <g id="Page-1" stroke="none" stroke-width="1" fill="none" fill-rule="evenodd">
        <g id="Dribbble-Dark-Preview" transform="translate(-300.000000, -7799.000000)" fill="#FFFFFF">
            <g id="icons" transform="translate(56.000000, 160.000000)">
                <path d="M259.133152,7656.0504 C259.659536,7655.1554 259.967421,7654.1154 259.967421,7653.0004 C259.967421,7651.3274 259.287095,7647.7774 258.190626,7644.6704 C259.336754,7643.5634 260.430242,7642.6884 261.206907,7642.3504 C261.473079,7642.2344 261.787917,7642.3804 261.866378,7642.6614 C262.51393,7644.9644 261.414482,7654.1134 259.133152,7656.0504 M256.773362,7655.8624 C255.276642,7657.3294 252.939695,7657.3414 251.414174,7656.0054 C250.576925,7655.2714 250.035643,7654.2034 250.035643,7653.0004 C250.035643,7650.0154 252.091521,7643.1444 253.645844,7641.3664 C253.834548,7641.1504 254.178188,7641.1474 254.367885,7641.3634 C255.920222,7643.1324 257.981066,7649.9574 257.981066,7653.0004 C257.981066,7654.1224 257.516259,7655.1354 256.773362,7655.8624 M248.558787,7655.3854 C247.00645,7653.7034 245.622954,7645.1354 246.307253,7642.6644 C246.384721,7642.3824 246.701545,7642.2344 246.967717,7642.3524 C247.720545,7642.6844 248.763382,7643.5284 249.8817,7644.6004 C248.902427,7647.3504 247.365981,7652.6124 248.558787,7655.3854 M261.800828,7640.1984 C260.588158,7640.1984 258.989141,7641.2334 257.392111,7642.6724 C256.430715,7640.5614 255.264724,7639.0004 254.008354,7639.0004 C252.762909,7639.0004 251.60685,7640.5304 250.651413,7642.6124 C249.413914,7641.5064 247.062068,7639.6414 245.567336,7640.3584 C242.595748,7641.7824 244.509601,7652.5854 245.923887,7655.5774 C246.94388,7657.7354 249.077226,7658.9984 251.063582,7659.0004 L255.918235,7659.0004 L255.918235,7658.9924 C258.783553,7659.0544 260.883131,7657.5634 261.822678,7655.5774 C263.31741,7652.4164 265.877823,7640.1984 261.800828,7640.1984" id="flower-[#92]"></path>
            </g>
        </g>
    </g>
</svg>