<?xml version="1.0" encoding="UTF-8" standalone="no"?>
<svg width="16px" height="20px" viewBox="0 0 16 20" version="1.1" xmlns="http://www.w3.org/2000/svg" xmlns:xlink="http://www.w3.org/1999/xlink">
    <!-- Generator: Sketch 3.8.1 (29687) - http://www.bohemiancoding.com/sketch -->
    <title>focus_vertical [#842]</title>
    <desc>Created with Sketch.</desc>
    <defs></defs>
    <g id="Page-1" stroke="none" stroke-width="1" fill="none" fill-rule="evenodd">
        <g id="Dribbble-Dark-Preview" transform="translate(-380.000000, -4439.000000)" fill="#FFFFFF">
            <g id="icons" transform="translate(56.000000, 160.000000)">
                <path d="M324,4297 L329,4297 L329,4295 L326,4295 L326,4292 L324,4292 L324,4297 Z M340,4297 L340,4292 L338,4292 L338,4295 L335,4295 L335,4297 L340,4297 Z M324,4281 L324,4286 L326,4286 L326,4283 L329,4283 L329,4281 L324,4281 Z M335,4281 L335,4283 L338,4283 L338,4286 L340,4286 L340,4281 L335,4281 Z M331,4299 L333,4299 L333,4279 L331,4279 L331,4299 Z" id="focus_vertical-[#842]"></path>
            </g>
        </g>
    </g>
</svg>