<?xml version="1.0" encoding="UTF-8" standalone="no"?>
<svg width="20px" height="20px" viewBox="0 0 20 20" version="1.1" xmlns="http://www.w3.org/2000/svg" xmlns:xlink="http://www.w3.org/1999/xlink">
    <!-- Generator: Sketch 3.8.1 (29687) - http://www.bohemiancoding.com/sketch -->
    <title>focus_center_round [#841]</title>
    <desc>Created with Sketch.</desc>
    <defs></defs>
    <g id="Page-1" stroke="none" stroke-width="1" fill="none" fill-rule="evenodd">
        <g id="Dribbble-Dark-Preview" transform="translate(-420.000000, -4439.000000)" fill="#FFFFFF">
            <g id="icons" transform="translate(56.000000, 160.000000)">
                <path d="M370,4295 L369,4295 C368.448,4295 368,4294.552 368,4294 L368,4293 C368,4292.448 367.552,4292 367,4292 C366.448,4292 366,4292.448 366,4293 L366,4295 C366,4296.105 366.895,4297 368,4297 L370,4297 C370.552,4297 371,4296.552 371,4296 C371,4295.448 370.552,4295 370,4295 M381,4292 C380.448,4292 380,4292.448 380,4293 L380,4294 C380,4294.552 379.552,4295 379,4295 L378,4295 C377.448,4295 377,4295.448 377,4296 C377,4296.552 377.448,4297 378,4297 L380,4297 C381.105,4297 382,4296.105 382,4295 L382,4293 C382,4292.448 381.552,4292 381,4292 M367,4286 C367.552,4286 368,4285.552 368,4285 L368,4284 C368,4283.448 368.448,4283 369,4283 L370,4283 C370.552,4283 371,4282.552 371,4282 C371,4281.448 370.552,4281 370,4281 L368,4281 C366.895,4281 366,4281.895 366,4283 L366,4285 C366,4285.552 366.448,4286 367,4286 M378,4283 L379,4283 C379.552,4283 380,4283.448 380,4284 L380,4285 C380,4285.552 380.448,4286 381,4286 C381.552,4286 382,4285.552 382,4285 L382,4283 C382,4281.895 381.105,4281 380,4281 L378,4281 C377.448,4281 377,4281.448 377,4282 C377,4282.552 377.448,4283 378,4283 M384,4289 C384,4289.552 383.552,4290 383,4290 L375,4290 L375,4298 C375,4298.552 374.552,4299 374,4299 C373.448,4299 373,4298.552 373,4298 L373,4290 L365,4290 C364.448,4290 364,4289.552 364,4289 C364,4288.448 364.448,4288 365,4288 L373,4288 L373,4280 C373,4279.448 373.448,4279 374,4279 C374.552,4279 375,4279.448 375,4280 L375,4288 L383,4288 C383.552,4288 384,4288.448 384,4289" id="focus_center_round-[#841]"></path>
            </g>
        </g>
    </g>
</svg>