<?xml version="1.0" encoding="UTF-8" standalone="no"?>
<svg width="20px" height="20px" viewBox="0 0 20 20" version="1.1" xmlns="http://www.w3.org/2000/svg" xmlns:xlink="http://www.w3.org/1999/xlink">
    <!-- Generator: Sketch 3.8.1 (29687) - http://www.bohemiancoding.com/sketch -->
    <title>focus_point [#846]</title>
    <desc>Created with Sketch.</desc>
    <defs></defs>
    <g id="Page-1" stroke="none" stroke-width="1" fill="none" fill-rule="evenodd">
        <g id="Dribbble-Dark-Preview" transform="translate(-220.000000, -4439.000000)" fill="#FFFFFF">
            <g id="icons" transform="translate(56.000000, 160.000000)">
                <path d="M172,4291 L176,4291 L176,4287 L172,4287 L172,4291 Z M178,4293 L175,4293 L175,4295 L173,4295 L173,4293 L170,4293 L170,4290 L168,4290 L168,4288 L170,4288 L170,4285 L173,4285 L173,4283 L175,4283 L175,4285 L178,4285 L178,4288 L180,4288 L180,4290 L178,4290 L178,4293 Z M182.5,4279 L176,4279 L176,4281 L182,4281 L182,4287 L184,4287 L184,4280.5 L184,4279 L182.5,4279 Z M182,4297 L176,4297 L176,4299 L182.5,4299 L184,4299 L184,4296.5 L184,4291 L182,4291 L182,4297 Z M166,4291 L164,4291 L164,4296.5 L164,4299 L166.5,4299 L172,4299 L172,4297 L166,4297 L166,4291 Z M166,4281 L172,4281 L172,4279 L166.5,4279 L164,4279 L164,4280.5 L164,4287 L166,4287 L166,4281 Z M164.01,4289 L164,4289.01 L164,4288.99 L164.01,4289 Z" id="focus_point-[#846]"></path>
            </g>
        </g>
    </g>
</svg>