<?xml version="1.0" encoding="UTF-8" standalone="no"?>
<svg width="16px" height="20px" viewBox="0 0 16 20" version="1.1" xmlns="http://www.w3.org/2000/svg" xmlns:xlink="http://www.w3.org/1999/xlink">
    <!-- Generator: Sketch 3.8.1 (29687) - http://www.bohemiancoding.com/sketch -->
    <title>focus_vertical_round [#843]</title>
    <desc>Created with Sketch.</desc>
    <defs></defs>
    <g id="Page-1" stroke="none" stroke-width="1" fill="none" fill-rule="evenodd">
        <g id="Dribbble-Dark-Preview" transform="translate(-340.000000, -4439.000000)" fill="#FFFFFF">
            <g id="icons" transform="translate(56.000000, 160.000000)">
                <path d="M286,4297 L288,4297 C288.552,4297 289,4296.552 289,4296 C289,4295.448 288.552,4295 288,4295 L287,4295 C286.448,4295 286,4294.552 286,4294 L286,4293 C286,4292.448 285.552,4292 285,4292 C284.448,4292 284,4292.448 284,4293 L284,4295 C284,4296.105 284.895,4297 286,4297 L286,4297 Z M300,4295 L300,4293 C300,4292.448 299.552,4292 299,4292 C298.448,4292 298,4292.448 298,4293 L298,4294 C298,4294.552 297.552,4295 297,4295 L296,4295 C295.448,4295 295,4295.448 295,4296 C295,4296.552 295.448,4297 296,4297 L298,4297 C299.105,4297 300,4296.105 300,4295 L300,4295 Z M284,4283 L284,4285 C284,4285.552 284.448,4286 285,4286 C285.552,4286 286,4285.552 286,4285 L286,4284 C286,4283.448 286.448,4283 287,4283 L288,4283 C288.552,4283 289,4282.552 289,4282 C289,4281.448 288.552,4281 288,4281 L286,4281 C284.895,4281 284,4281.895 284,4283 L284,4283 Z M295,4282 L295,4282 C295,4282.552 295.448,4283 296,4283 L297,4283 C297.552,4283 298,4283.448 298,4284 L298,4285 C298,4285.552 298.448,4286 299,4286 C299.552,4286 300,4285.552 300,4285 L300,4283 C300,4281.895 299.105,4281 298,4281 L296,4281 C295.448,4281 295,4281.448 295,4282 L295,4282 Z M293,4298 C293,4298.552 292.552,4299 292,4299 C291.448,4299 291,4298.552 291,4298 L291,4280 C291,4279.448 291.448,4279 292,4279 C292.552,4279 293,4279.448 293,4280 L293,4298 Z" id="focus_vertical_round-[#843]"></path>
            </g>
        </g>
    </g>
</svg>