<?xml version="1.0" encoding="UTF-8" standalone="no"?>
<svg width="20px" height="20px" viewBox="0 0 20 20" version="1.1" xmlns="http://www.w3.org/2000/svg" xmlns:xlink="http://www.w3.org/1999/xlink">
    <!-- Generator: Sketch 3.8.1 (29687) - http://www.bohemiancoding.com/sketch -->
    <title>focus_point [#847]</title>
    <desc>Created with Sketch.</desc>
    <defs></defs>
    <g id="Page-1" stroke="none" stroke-width="1" fill="none" fill-rule="evenodd">
        <g id="Dribbble-Dark-Preview" transform="translate(-180.000000, -4439.000000)" fill="#FFFFFF">
            <g id="icons" transform="translate(56.000000, 160.000000)">
                <path d="M136,4290.0016 L136,4287.9986 C136,4287.4466 135.553,4286.9996 135.002,4286.9996 L132.998,4286.9996 C132.447,4286.9996 132,4287.4466 132,4287.9986 L132,4290.0016 C132,4290.5526 132.447,4290.9996 132.998,4290.9996 L135.002,4290.9996 C135.553,4290.9996 136,4290.5526 136,4290.0016 L136,4290.0016 Z M136,4292.9996 L135,4292.9996 L135,4293.9996 C135,4294.5526 134.552,4294.9996 134,4294.9996 C133.448,4294.9996 133,4294.5526 133,4293.9996 L133,4292.9996 L132,4292.9996 C130.895,4292.9996 130,4292.1046 130,4290.9996 L130,4289.9996 L129,4289.9996 C128.448,4289.9996 128,4289.5526 128,4288.9996 C128,4288.4476 128.448,4287.9996 129,4287.9996 L130,4287.9996 L130,4286.9996 C130,4285.8956 130.895,4284.9996 132,4284.9996 L133,4284.9996 L133,4283.9996 C133,4283.4476 133.448,4282.9996 134,4282.9996 C134.552,4282.9996 135,4283.4476 135,4283.9996 L135,4284.9996 L136,4284.9996 C137.105,4284.9996 138,4285.8956 138,4286.9996 L138,4287.9996 L139,4287.9996 C139.552,4287.9996 140,4288.4476 140,4288.9996 C140,4289.5526 139.552,4289.9996 139,4289.9996 L138,4289.9996 L138,4290.9996 C138,4292.1046 137.105,4292.9996 136,4292.9996 L136,4292.9996 Z M142,4278.9996 L137,4278.9996 C136.448,4278.9996 136,4279.4476 136,4279.9996 C136,4280.5526 136.448,4280.9996 137,4280.9996 L141,4280.9996 C141.552,4280.9996 142,4281.4476 142,4281.9996 L142,4285.9996 C142,4286.5526 142.448,4286.9996 143,4286.9996 C143.552,4286.9996 144,4286.5526 144,4285.9996 L144,4280.9996 C144,4279.8956 143.105,4278.9996 142,4278.9996 L142,4278.9996 Z M143,4290.9996 C142.448,4290.9996 142,4291.4476 142,4291.9996 L142,4295.9996 C142,4296.5526 141.552,4296.9996 141,4296.9996 L137,4296.9996 C136.448,4296.9996 136,4297.4476 136,4297.9996 C136,4298.5526 136.448,4298.9996 137,4298.9996 L142,4298.9996 C143.105,4298.9996 144,4298.1046 144,4296.9996 L144,4291.9996 C144,4291.4476 143.552,4290.9996 143,4290.9996 L143,4290.9996 Z M131,4296.9996 L127,4296.9996 C126.448,4296.9996 126,4296.5526 126,4295.9996 L126,4291.9996 C126,4291.4476 125.552,4290.9996 125,4290.9996 C124.448,4290.9996 124,4291.4476 124,4291.9996 L124,4296.9996 C124,4298.1046 124.895,4298.9996 126,4298.9996 L131,4298.9996 C131.552,4298.9996 132,4298.5526 132,4297.9996 C132,4297.4476 131.552,4296.9996 131,4296.9996 L131,4296.9996 Z M125,4286.9996 C125.552,4286.9996 126,4286.5526 126,4285.9996 L126,4281.9996 C126,4281.4476 126.448,4280.9996 127,4280.9996 L131,4280.9996 C131.552,4280.9996 132,4280.5526 132,4279.9996 C132,4279.4476 131.552,4278.9996 131,4278.9996 L126,4278.9996 C124.895,4278.9996 124,4279.8956 124,4280.9996 L124,4285.9996 C124,4286.5526 124.448,4286.9996 125,4286.9996 L125,4286.9996 Z M124.01,4288.9996 L124,4289.0096 L124,4288.9906 L124.01,4288.9996 Z" id="focus_point-[#847]"></path>
            </g>
        </g>
    </g>
</svg>