<?xml version="1.0" encoding="UTF-8" standalone="no"?>
<svg width="20px" height="20px" viewBox="0 0 20 20" version="1.1" xmlns="http://www.w3.org/2000/svg" xmlns:xlink="http://www.w3.org/1999/xlink">
    <!-- Generator: Sketch 3.8.1 (29687) - http://www.bohemiancoding.com/sketch -->
    <title>focus [#976]</title>
    <desc>Created with Sketch.</desc>
    <defs></defs>
    <g id="Page-1" stroke="none" stroke-width="1" fill="none" fill-rule="evenodd">
        <g id="Dribbble-Dark-Preview" transform="translate(-220.000000, -3879.000000)" fill="#FFFFFF">
            <g id="icons" transform="translate(56.000000, 160.000000)">
                <path d="M182,3733 L184,3733 L184,3725 L182,3725 L182,3733 Z M182,3737 L180,3737 L180,3739 L184,3739 L184,3735 L182,3735 L182,3737 Z M180,3719 L180,3721 L182,3721 L182,3723 L184,3723 L184,3719 L180,3719 Z M164,3733 L166,3733 L166,3725 L164,3725 L164,3733 Z M166,3735 L164,3735 L164,3739 L168,3739 L168,3737 L166,3737 L166,3735 Z M164,3723 L166,3723 L166,3721 L168,3721 L168,3719 L164,3719 L164,3723 Z M170,3739 L178,3739 L178,3737 L170,3737 L170,3739 Z M170,3721 L178,3721 L178,3719 L170,3719 L170,3721 Z" id="focus-[#976]"></path>
            </g>
        </g>
    </g>
</svg>