<?xml version="1.0" encoding="UTF-8" standalone="no"?>
<svg width="22px" height="22px" viewBox="0 0 22 22" version="1.1" xmlns="http://www.w3.org/2000/svg" xmlns:xlink="http://www.w3.org/1999/xlink">
    <!-- Generator: Sketch 3.8.1 (29687) - http://www.bohemiancoding.com/sketch -->
    <title>focus_plus_round [#895]</title>
    <desc>Created with Sketch.</desc>
    <defs></defs>
    <g id="Page-1" stroke="none" stroke-width="1" fill="none" fill-rule="evenodd">
        <g id="Dribbble-Dark-Preview" transform="translate(-260.000000, -4239.000000)" fill="#FFFFFF">
            <g id="icons" transform="translate(56.000000, 160.000000)">
                <path d="M223,4093 L223,4093 C223.552,4093 224,4092.552 224,4092 L224,4086 C224,4085.448 223.552,4085 223,4085 C222.448,4085 222,4085.448 222,4086 L222,4092 C222,4092.552 222.448,4093 223,4093 L223,4093 Z M224,4097 L224,4096.667 L224,4096 C224,4095.448 223.552,4095 223,4095 C222.448,4095 222,4095.448 222,4096 L222,4097 L221.667,4097 L221,4097 C220.448,4097 220,4097.448 220,4098 C220,4098.552 220.448,4099 221,4099 L222,4099 L222,4099.333 L222,4100 C222,4100.552 222.448,4101 223,4101 C223.552,4101 224,4100.552 224,4100 L224,4099 L224.333,4099 L225,4099 C225.552,4099 226,4098.552 226,4098 C226,4097.448 225.552,4097 225,4097 L224,4097 Z M221.989,4079 L221,4079 C220.448,4079 220,4079.448 220,4080 L220,4080 C220,4080.552 220.448,4081 221,4081 C221.552,4081 222,4081.448 222,4082 C222,4082.552 222.448,4083 223,4083 L223,4083 C223.552,4083 224,4082.552 224,4082 L224,4081.011 C224,4079.9 223.1,4079 221.989,4079 L221.989,4079 Z M205,4085 L205,4085 C204.448,4085 204,4085.448 204,4086 L204,4092 C204,4092.552 204.448,4093 205,4093 C205.552,4093 206,4092.552 206,4092 L206,4086 C206,4085.448 205.552,4085 205,4085 L205,4085 Z M205,4095 L205,4095 C204.448,4095 204,4095.448 204,4096 L204,4096.667 L204,4096.996 C204,4098.103 204.897,4099 206.004,4099 L206.42,4099 L207,4099 C207.552,4099 208,4098.552 208,4098 C208,4097.448 207.552,4097 207,4097 C206.448,4097 206,4096.552 206,4096 C206,4095.448 205.552,4095 205,4095 L205,4095 Z M204,4080.984 L204,4082 C204,4082.552 204.448,4083 205,4083 C205.552,4083 206,4082.552 206,4082 L206,4081.995 C206,4081.446 206.446,4081 206.995,4081 L207,4081 C207.552,4081 208,4080.552 208,4080 C208,4079.448 207.552,4079 207,4079 L205.984,4079 C204.888,4079 204,4079.888 204,4080.984 L204,4080.984 Z M211,4099 L217,4099 C217.552,4099 218,4098.552 218,4098 C218,4097.448 217.552,4097 217,4097 L211,4097 C210.448,4097 210,4097.448 210,4098 C210,4098.552 210.448,4099 211,4099 L211,4099 Z M210,4080 L210,4080 C210,4079.448 210.448,4079 211,4079 L217,4079 C217.552,4079 218,4079.448 218,4080 C218,4080.552 217.552,4081 217,4081 L211,4081 C210.448,4081 210,4080.552 210,4080 L210,4080 Z" id="focus_plus_round-[#895]"></path>
            </g>
        </g>
    </g>
</svg>