<?xml version="1.0" encoding="UTF-8" standalone="no"?>
<svg width="22px" height="22px" viewBox="0 0 22 22" version="1.1" xmlns="http://www.w3.org/2000/svg" xmlns:xlink="http://www.w3.org/1999/xlink">
    <!-- Generator: Sketch 3.8.1 (29687) - http://www.bohemiancoding.com/sketch -->
    <title>focus_plus [#894]</title>
    <desc>Created with Sketch.</desc>
    <defs></defs>
    <g id="Page-1" stroke="none" stroke-width="1" fill="none" fill-rule="evenodd">
        <g id="Dribbble-Dark-Preview" transform="translate(-300.000000, -4239.000000)" fill="#FFFFFF">
            <g id="icons" transform="translate(56.000000, 160.000000)">
                <path d="M262,4093 L264,4093 L264,4085 L262,4085 L262,4093 Z M264,4097 L264,4096.667 L264,4095 L262,4095 L262,4097 L261.667,4097 L260,4097 L260,4099 L262,4099 L262,4099.333 L262,4101 L264,4101 L264,4099 L264.333,4099 L266,4099 L266,4097 L264,4097 Z M262,4083 L264,4083 L264,4080.667 L264,4079 L262.42,4079 L260,4079 L260,4081 L262,4081 L262,4083 Z M244,4093 L246,4093 L246,4085 L244,4085 L244,4093 Z M246,4095 L244,4095 L244,4096.667 L244,4099 L246.42,4099 L248,4099 L248,4097 L246,4097 L246,4095 Z M244,4079 L244,4080.667 L244,4083 L246,4083 L246,4081 L248,4081 L248,4079 L246.42,4079 L244,4079 Z M250,4099 L258,4099 L258,4097 L250,4097 L250,4099 Z M250,4081 L258,4081 L258,4079 L250,4079 L250,4081 Z" id="focus_plus-[#894]"></path>
            </g>
        </g>
    </g>
</svg>