<?xml version="1.0" encoding="UTF-8" standalone="no"?>
<svg width="20px" height="16px" viewBox="0 0 20 16" version="1.1" xmlns="http://www.w3.org/2000/svg" xmlns:xlink="http://www.w3.org/1999/xlink">
    <!-- Generator: Sketch 3.8.1 (29687) - http://www.bohemiancoding.com/sketch -->
    <title>focus_horizontal [#838]</title>
    <desc>Created with Sketch.</desc>
    <defs></defs>
    <g id="Page-1" stroke="none" stroke-width="1" fill="none" fill-rule="evenodd">
        <g id="Dribbble-Dark-Preview" transform="translate(-140.000000, -4481.000000)" fill="#FFFFFF">
            <g id="icons" transform="translate(56.000000, 160.000000)">
                <path d="M102,4337 L102,4332 L100,4332 L100,4335 L97,4335 L97,4337 L102,4337 Z M102,4321 L97,4321 L97,4323 L100,4323 L100,4326 L102,4326 L102,4321 Z M86,4337 L91,4337 L91,4335 L88,4335 L88,4332 L86,4332 L86,4337 Z M86,4326 L88,4326 L88,4323 L91,4323 L91,4321 L86,4321 L86,4326 Z M84,4330 L104,4330 L104,4328 L84,4328 L84,4330 Z" id="focus_horizontal-[#838]"></path>
            </g>
        </g>
    </g>
</svg>