<?xml version="1.0" encoding="UTF-8" standalone="no"?>
<svg width="20px" height="20px" viewBox="0 0 20 20" version="1.1" xmlns="http://www.w3.org/2000/svg" xmlns:xlink="http://www.w3.org/1999/xlink">
    <!-- Generator: Sketch 3.8.1 (29687) - http://www.bohemiancoding.com/sketch -->
    <title>focus_center [#839]</title>
    <desc>Created with Sketch.</desc>
    <defs></defs>
    <g id="Page-1" stroke="none" stroke-width="1" fill="none" fill-rule="evenodd">
        <g id="Dribbble-Dark-Preview" transform="translate(-100.000000, -4479.000000)" fill="#FFFFFF">
            <g id="icons" transform="translate(56.000000, 160.000000)">
                <path d="M48,4332 L46,4332 L46,4337 L51,4337 L51,4335 L48,4335 L48,4332 Z M60,4335 L57,4335 L57,4337 L62,4337 L62,4332 L60,4332 L60,4335 Z M48,4323 L51,4323 L51,4321 L46,4321 L46,4326 L48,4326 L48,4323 Z M60,4326 L62,4326 L62,4321 L57,4321 L57,4323 L60,4323 L60,4326 Z M64,4328 L64,4330 L55,4330 L55,4339 L53,4339 L53,4330 L44,4330 L44,4328 L53,4328 L53,4319 L55,4319 L55,4328 L64,4328 Z" id="focus_center-[#839]"></path>
            </g>
        </g>
    </g>
</svg>