<?xml version="1.0" encoding="UTF-8" standalone="no"?>
<svg width="20px" height="20px" viewBox="0 0 20 20" version="1.1" xmlns="http://www.w3.org/2000/svg" xmlns:xlink="http://www.w3.org/1999/xlink">
    <!-- Generator: Sketch 3.8.1 (29687) - http://www.bohemiancoding.com/sketch -->
    <title>focus_point [#845]</title>
    <desc>Created with Sketch.</desc>
    <defs></defs>
    <g id="Page-1" stroke="none" stroke-width="1" fill="none" fill-rule="evenodd">
        <g id="Dribbble-Dark-Preview" transform="translate(-260.000000, -4439.000000)" fill="#FFFFFF">
            <g id="icons" transform="translate(56.000000, 160.000000)">
                <path d="M224,4279 L224,4280.5 L224,4287 L222,4287 L222,4281 L216,4281 L216,4279 L222.5,4279 L224,4279 Z M222,4291 L224,4291 L224,4296.5 L224,4299 L222.5,4299 L216,4299 L216,4297 L222,4297 L222,4291 Z M206,4297 L212,4297 L212,4299 L206.5,4299 L204,4299 L204,4296.5 L204,4291 L206,4291 L206,4297 Z M206,4287 L204,4287 L204,4280.5 L204,4279 L206.5,4279 L212,4279 L212,4281 L206,4281 L206,4287 Z M204.01,4289 L204,4289.01 L204,4288.99 L204.01,4289 Z M214,4291 C212.897,4291 212,4290.103 212,4289 C212,4287.897 212.897,4287 214,4287 C215.103,4287 216,4287.897 216,4289 C216,4290.103 215.103,4291 214,4291 L214,4291 Z M217.859,4290 L220,4290 L220,4288 L217.859,4288 C217.496,4286.599 216.401,4285.504 215,4285.141 L215,4283 L213,4283 L213,4285.141 C211.599,4285.504 210.504,4286.599 210.141,4288 L208,4288 L208,4290 L210.141,4290 C210.504,4291.401 211.599,4292.496 213,4292.859 L213,4295 L215,4295 L215,4292.859 C216.401,4292.496 217.496,4291.401 217.859,4290 L217.859,4290 Z" id="focus_point-[#845]"></path>
            </g>
        </g>
    </g>
</svg>