<?xml version="1.0" encoding="UTF-8" standalone="no"?>
<svg width="20px" height="21px" viewBox="0 0 20 21" version="1.1" xmlns="http://www.w3.org/2000/svg" xmlns:xlink="http://www.w3.org/1999/xlink">
    <!-- Generator: Sketch 3.8.1 (29687) - http://www.bohemiancoding.com/sketch -->
    <title>folder_plus [#1786]</title>
    <desc>Created with Sketch.</desc>
    <defs></defs>
    <g id="Page-1" stroke="none" stroke-width="1" fill="none" fill-rule="evenodd">
        <g id="Dribbble-Dark-Preview" transform="translate(-260.000000, -1159.000000)" fill="#FFFFFF">
            <g id="icons" transform="translate(56.000000, 160.000000)">
                <path d="M211,1010.0005 L213,1010.0005 L213,1008.0005 L215,1008.0005 L215,1010.0005 L217,1010.0005 L217,1012.0005 L215,1012.0005 L215,1014.0005 L213,1014.0005 L213,1012.0005 L211,1012.0005 L211,1010.0005 Z M222,1017.0005 L206,1017.0005 L206,1001.0005 L212,1001.0005 L212,1005.0005 L222,1005.0005 L222,1017.0005 Z M214,1003.0005 L214,999.0005 L204,999.0005 L204,1019.0005 L224,1019.0005 L224,1003.0005 L214,1003.0005 Z" id="folder_plus-[#1786]"></path>
            </g>
        </g>
    </g>
</svg>