<?xml version="1.0" encoding="UTF-8" standalone="no"?>
<svg width="20px" height="20px" viewBox="0 0 20 20" version="1.1" xmlns="http://www.w3.org/2000/svg" xmlns:xlink="http://www.w3.org/1999/xlink">
    <!-- Generator: Sketch 3.8.1 (29687) - http://www.bohemiancoding.com/sketch -->
    <title>folder_minus [#1783]</title>
    <desc>Created with Sketch.</desc>
    <defs></defs>
    <g id="Page-1" stroke="none" stroke-width="1" fill="none" fill-rule="evenodd">
        <g id="Dribbble-Dark-Preview" transform="translate(-380.000000, -1159.000000)" fill="#FFFFFF">
            <g id="icons" transform="translate(56.000000, 160.000000)">
                <path d="M336.8334,1011.0005 C336.8334,1011.5525 336.3854,1012.0005 335.8334,1012.0005 L331.8334,1012.0005 C331.2814,1012.0005 330.8334,1011.5525 330.8334,1011.0005 C330.8334,1010.4485 331.2814,1010.0005 331.8334,1010.0005 L335.8334,1010.0005 C336.3854,1010.0005 336.8334,1010.4485 336.8334,1011.0005 L336.8334,1011.0005 Z M342.0004,1016.0005 C342.0004,1016.5525 341.3854,1017.0005 340.8334,1017.0005 L326.8334,1017.0005 C326.2814,1017.0005 326.0004,1016.5525 326.0004,1016.0005 L326.0004,1002.0005 C326.0004,1001.4485 326.2814,1001.0005 326.8334,1001.0005 L330.8334,1001.0005 C331.3854,1001.0005 332.0004,1001.4485 332.0004,1002.0005 L332.0004,1003.0005 C332.0004,1004.1055 332.7284,1005.0005 333.8334,1005.0005 L340.8334,1005.0005 C341.3854,1005.0005 342.0004,1005.4485 342.0004,1006.0005 L342.0004,1016.0005 Z M341.8334,1003.0005 L334.8334,1003.0005 C334.2814,1003.0005 334.0004,1002.5525 334.0004,1002.0005 L334.0004,1001.0005 C334.0004,999.8955 332.9384,999.0005 331.8334,999.0005 L325.8334,999.0005 C324.7284,999.0005 324.0004,999.8955 324.0004,1001.0005 L324.0004,1017.0005 C324.0004,1018.1055 324.7284,1019.0005 325.8334,1019.0005 L341.8334,1019.0005 C342.9384,1019.0005 344.0004,1018.1055 344.0004,1017.0005 L344.0004,1005.0005 C344.0004,1003.8955 342.9384,1003.0005 341.8334,1003.0005 L341.8334,1003.0005 Z" id="folder_minus-[#1783]"></path>
            </g>
        </g>
    </g>
</svg>