<?xml version="1.0" encoding="UTF-8" standalone="no"?>
<svg width="20px" height="20px" viewBox="0 0 20 20" version="1.1" xmlns="http://www.w3.org/2000/svg" xmlns:xlink="http://www.w3.org/1999/xlink">
    <!-- Generator: Sketch 3.8.1 (29687) - http://www.bohemiancoding.com/sketch -->
    <title>folder [#1785]</title>
    <desc>Created with Sketch.</desc>
    <defs></defs>
    <g id="Page-1" stroke="none" stroke-width="1" fill="none" fill-rule="evenodd">
        <g id="Dribbble-Dark-Preview" transform="translate(-300.000000, -1159.000000)" fill="#FFFFFF">
            <g id="icons" transform="translate(56.000000, 160.000000)">
                <path d="M262,1007.0005 L246,1007.0005 L246,1002.0005 C246,1001.4485 246.448,1001.0005 247,1001.0005 L251,1001.0005 C251.552,1001.0005 252,1001.4485 252,1002.0005 L252,1003.0005 C252,1004.1055 252.895,1005.0005 254,1005.0005 L261,1005.0005 C261.552,1005.0005 262,1005.4485 262,1006.0005 L262,1007.0005 Z M262,1016.0005 C262,1016.5525 261.552,1017.0005 261,1017.0005 L247,1017.0005 C246.448,1017.0005 246,1016.5525 246,1016.0005 L246,1009.0005 L262,1009.0005 L262,1016.0005 Z M262,1003.0005 L255,1003.0005 C254.448,1003.0005 254,1002.5525 254,1002.0005 L254,1001.0005 C254,999.8955 253.105,999.0005 252,999.0005 L246,999.0005 C244.895,999.0005 244,999.8955 244,1001.0005 L244,1017.0005 C244,1018.1055 244.895,1019.0005 246,1019.0005 L262,1019.0005 C263.105,1019.0005 264,1018.1055 264,1017.0005 L264,1005.0005 C264,1003.8955 263.105,1003.0005 262,1003.0005 L262,1003.0005 Z" id="folder-[#1785]"></path>
            </g>
        </g>
    </g>
</svg>