<?xml version="1.0" encoding="UTF-8" standalone="no"?>
<svg width="20px" height="20px" viewBox="0 0 20 20" version="1.1" xmlns="http://www.w3.org/2000/svg" xmlns:xlink="http://www.w3.org/1999/xlink">
    <!-- Generator: Sketch 3.8.1 (29687) - http://www.bohemiancoding.com/sketch -->
    <title>folder_plus [#1782]</title>
    <desc>Created with Sketch.</desc>
    <defs></defs>
    <g id="Page-1" stroke="none" stroke-width="1" fill="none" fill-rule="evenodd">
        <g id="Dribbble-Dark-Preview" transform="translate(-420.000000, -1159.000000)" fill="#FFFFFF">
            <g id="icons" transform="translate(56.000000, 160.000000)">
                <path d="M377,1011.0005 C377,1011.5525 376.552,1012.0005 376,1012.0005 L375,1012.0005 L375,1013.0005 C375,1013.5525 374.552,1014.0005 374,1014.0005 C373.448,1014.0005 373,1013.5525 373,1013.0005 L373,1012.0005 L372,1012.0005 C371.448,1012.0005 371,1011.5525 371,1011.0005 C371,1010.4485 371.448,1010.0005 372,1010.0005 L373,1010.0005 L373,1009.0005 C373,1008.4485 373.448,1008.0005 374,1008.0005 C374.552,1008.0005 375,1008.4485 375,1009.0005 L375,1010.0005 L376,1010.0005 C376.552,1010.0005 377,1010.4485 377,1011.0005 L377,1011.0005 Z M382,1016.0005 C382,1016.5525 381.552,1017.0005 381,1017.0005 L367,1017.0005 C366.448,1017.0005 366,1016.5525 366,1016.0005 L366,1002.0005 C366,1001.4485 366.448,1001.0005 367,1001.0005 L371,1001.0005 C371.552,1001.0005 372,1001.4485 372,1002.0005 L372,1003.0005 C372,1004.1055 372.895,1005.0005 374,1005.0005 L381,1005.0005 C381.552,1005.0005 382,1005.4485 382,1006.0005 L382,1016.0005 Z M382,1003.0005 L375,1003.0005 C374.448,1003.0005 374,1002.5525 374,1002.0005 L374,1001.0005 C374,999.8955 373.105,999.0005 372,999.0005 L366,999.0005 C364.895,999.0005 364,999.8955 364,1001.0005 L364,1017.0005 C364,1018.1055 364.895,1019.0005 366,1019.0005 L382,1019.0005 C383.105,1019.0005 384,1018.1055 384,1017.0005 L384,1005.0005 C384,1003.8955 383.105,1003.0005 382,1003.0005 L382,1003.0005 Z" id="folder_plus-[#1782]"></path>
            </g>
        </g>
    </g>
</svg>