<?xml version="1.0" encoding="UTF-8" standalone="no"?>
<svg width="20px" height="20px" viewBox="0 0 20 20" version="1.1" xmlns="http://www.w3.org/2000/svg" xmlns:xlink="http://www.w3.org/1999/xlink">
    <!-- Generator: Sketch 3.8.1 (29687) - http://www.bohemiancoding.com/sketch -->
    <title>folder_fill [#1774]</title>
    <desc>Created with Sketch.</desc>
    <defs></defs>
    <g id="Page-1" stroke="none" stroke-width="1" fill="none" fill-rule="evenodd">
        <g id="Dribbble-Dark-Preview" transform="translate(-340.000000, -1199.000000)" fill="#FFFFFF">
            <g id="icons" transform="translate(56.000000, 160.000000)">
                <path d="M284,1057.0005 C284,1058.1055 284.895,1059.0005 286,1059.0005 L302,1059.0005 C303.105,1059.0005 304,1058.1055 304,1057.0005 L304,1049.0005 L284,1049.0005 L284,1057.0005 Z M304,1045.0005 L304,1047.0005 L284,1047.0005 L284,1041.0005 C284,1039.8955 284.895,1039.0005 286,1039.0005 L292,1039.0005 C293.105,1039.0005 294,1039.8955 294,1041.0005 L294,1042.0005 C294,1042.5525 294.448,1043.0005 295,1043.0005 L302,1043.0005 C303.105,1043.0005 304,1043.8955 304,1045.0005 L304,1045.0005 Z" id="folder_fill-[#1774]"></path>
            </g>
        </g>
    </g>
</svg>