<?xml version="1.0" encoding="UTF-8" standalone="no"?>
<svg width="20px" height="20px" viewBox="0 0 20 20" version="1.1" xmlns="http://www.w3.org/2000/svg" xmlns:xlink="http://www.w3.org/1999/xlink">
    <!-- Generator: Sketch 3.8.1 (29687) - http://www.bohemiancoding.com/sketch -->
    <title>folder_plus [#1780]</title>
    <desc>Created with Sketch.</desc>
    <defs></defs>
    <g id="Page-1" stroke="none" stroke-width="1" fill="none" fill-rule="evenodd">
        <g id="Dribbble-Dark-Preview" transform="translate(-100.000000, -1199.000000)" fill="#FFFFFF">
            <g id="icons" transform="translate(56.000000, 160.000000)">
                <path d="M56.8044,1051.0005 C56.8044,1051.5525 56.3564,1052.0005 55.8044,1052.0005 L55.0004,1052.0005 L55.0004,1053.0005 C55.0004,1053.5525 54.5034,1054.0005 53.9514,1054.0005 L53.9024,1054.0005 C53.3504,1054.0005 53.0004,1053.5525 53.0004,1053.0005 L53.0004,1052.0005 L51.8044,1052.0005 C51.2524,1052.0005 50.8044,1051.5525 50.8044,1051.0005 C50.8044,1050.4485 51.2524,1050.0005 51.8044,1050.0005 L53.0004,1050.0005 L53.0004,1049.0005 C53.0004,1048.4565 53.3884,1048.0185 53.9274,1048.0055 C54.4704,1048.0185 55.0004,1048.4565 55.0004,1049.0005 L55.0004,1050.0005 L55.8044,1050.0005 C56.3564,1050.0005 56.8044,1050.4485 56.8044,1051.0005 L56.8044,1051.0005 Z M53.9514,1048.0005 C53.9424,1048.0005 53.9354,1048.0055 53.9274,1048.0055 C53.9184,1048.0055 53.9104,1048.0005 53.9024,1048.0005 L53.9514,1048.0005 Z M62.0004,1056.0005 C62.0004,1056.5525 61.3564,1057.0005 60.8044,1057.0005 L46.8044,1057.0005 C46.2524,1057.0005 46.0004,1056.5525 46.0004,1056.0005 L46.0004,1042.0005 C46.0004,1041.4485 46.2524,1041.0005 46.8044,1041.0005 L50.1594,1041.0005 C50.5414,1041.0005 50.8904,1041.2175 51.0574,1041.5605 L52.1934,1043.8795 C52.5294,1044.5655 53.2264,1045.0005 53.9894,1045.0005 L60.8044,1045.0005 C61.3564,1045.0005 62.0004,1045.4485 62.0004,1046.0005 L62.0004,1056.0005 Z M61.8044,1043.0005 L55.0404,1043.0005 C54.2834,1043.0005 53.5904,1042.5725 53.2514,1041.8945 L52.3574,1040.1065 C52.0184,1039.4285 51.3254,1039.0005 50.5684,1039.0005 L45.8044,1039.0005 C44.6994,1039.0005 44.0004,1039.8955 44.0004,1041.0005 L44.0004,1057.0005 C44.0004,1058.1055 44.6994,1059.0005 45.8044,1059.0005 L61.8044,1059.0005 C62.9094,1059.0005 64.0004,1058.1055 64.0004,1057.0005 L64.0004,1045.0005 C64.0004,1043.8955 62.9094,1043.0005 61.8044,1043.0005 L61.8044,1043.0005 Z" id="folder_plus-[#1780]"></path>
            </g>
        </g>
    </g>
</svg>