<?xml version="1.0" encoding="UTF-8" standalone="no"?>
<svg width="20px" height="20px" viewBox="0 0 20 20" version="1.1" xmlns="http://www.w3.org/2000/svg" xmlns:xlink="http://www.w3.org/1999/xlink">
    <!-- Generator: Sketch 3.8.1 (29687) - http://www.bohemiancoding.com/sketch -->
    <title>folder_plus_fill [#1775]</title>
    <desc>Created with Sketch.</desc>
    <defs></defs>
    <g id="Page-1" stroke="none" stroke-width="1" fill="none" fill-rule="evenodd">
        <g id="Dribbble-Dark-Preview" transform="translate(-300.000000, -1199.000000)" fill="#FFFFFF">
            <g id="icons" transform="translate(56.000000, 160.000000)">
                <path d="M256,1052.0005 L255,1052.0005 L255,1053.1255 C255,1053.6775 254.552,1054.1255 254,1054.1255 C253.448,1054.1255 253,1053.6775 253,1053.1255 L253,1052.0005 L252,1052.0005 C251.448,1052.0005 251,1051.5525 251,1051.0005 C251,1050.4485 251.448,1050.0005 252,1050.0005 L253,1050.0005 L253,1049.1255 C253,1048.5735 253.448,1048.1255 254,1048.1255 C254.552,1048.1255 255,1048.5735 255,1049.1255 L255,1050.0005 L256,1050.0005 C256.552,1050.0005 257,1050.4485 257,1051.0005 C257,1051.5525 256.552,1052.0005 256,1052.0005 M262,1043.0005 L255,1043.0005 C254.448,1043.0005 254,1042.6775 254,1042.1255 L254,1041.1255 C254,1040.0205 253.105,1039.0005 252,1039.0005 L246,1039.0005 C244.895,1039.0005 244,1040.0205 244,1041.1255 L244,1057.1255 C244,1058.2305 244.895,1059.0005 246,1059.0005 L262,1059.0005 C263.105,1059.0005 264,1058.2305 264,1057.1255 L264,1045.1255 C264,1044.0205 263.105,1043.0005 262,1043.0005" id="folder_plus_fill-[#1775]"></path>
            </g>
        </g>
    </g>
</svg>