<?xml version="1.0" encoding="UTF-8" standalone="no"?>
<svg width="20px" height="20px" viewBox="0 0 20 20" version="1.1" xmlns="http://www.w3.org/2000/svg" xmlns:xlink="http://www.w3.org/1999/xlink">
    <!-- Generator: Sketch 3.8.1 (29687) - http://www.bohemiancoding.com/sketch -->
    <title>folder [#1793]</title>
    <desc>Created with Sketch.</desc>
    <defs></defs>
    <g id="Page-1" stroke="none" stroke-width="1" fill="none" fill-rule="evenodd">
        <g id="Dribbble-Dark-Preview" transform="translate(-380.000000, -1119.000000)" fill="#FFFFFF">
            <g id="icons" transform="translate(56.000000, 160.000000)">
                <path d="M342,967.0005 L326,967.0005 L326,962.0005 C326,961.4485 326.337,961.0005 326.889,961.0005 L330.244,961.0005 C330.626,961.0005 330.974,961.2175 331.142,961.5605 L332.278,963.8795 C332.614,964.5655 333.31,965.0005 334.074,965.0005 L340.889,965.0005 C341.441,965.0005 342,965.4485 342,966.0005 L342,967.0005 Z M342,976.0005 C342,976.5525 341.441,977.0005 340.889,977.0005 L326.889,977.0005 C326.337,977.0005 326,976.5525 326,976.0005 L326,969.0005 L342,969.0005 L342,976.0005 Z M341.889,963.0005 L335.125,963.0005 C334.367,963.0005 333.675,962.5725 333.336,961.8945 L332.442,960.1065 C332.103,959.4285 331.41,959.0005 330.653,959.0005 L325.889,959.0005 C324.784,959.0005 324,959.8955 324,961.0005 L324,977.0005 C324,978.1055 324.784,979.0005 325.889,979.0005 L341.889,979.0005 C342.993,979.0005 344,978.1055 344,977.0005 L344,965.0005 C344,963.8955 342.993,963.0005 341.889,963.0005 L341.889,963.0005 Z" id="folder-[#1793]"></path>
            </g>
        </g>
    </g>
</svg>