<?xml version="1.0" encoding="UTF-8" standalone="no"?>
<svg width="20px" height="20px" viewBox="0 0 20 20" version="1.1" xmlns="http://www.w3.org/2000/svg" xmlns:xlink="http://www.w3.org/1999/xlink">
    <!-- Generator: Sketch 3.8.1 (29687) - http://www.bohemiancoding.com/sketch -->
    <title>folder [#1795]</title>
    <desc>Created with Sketch.</desc>
    <defs></defs>
    <g id="Page-1" stroke="none" stroke-width="1" fill="none" fill-rule="evenodd">
        <g id="Dribbble-Dark-Preview" transform="translate(-300.000000, -1119.000000)" fill="#FFFFFF">
            <g id="icons" transform="translate(56.000000, 160.000000)">
                <path d="M262,976.0005 C262,976.5525 261.552,977.0005 261,977.0005 L247,977.0005 C246.448,977.0005 246,976.5525 246,976.0005 L246,962.0005 C246,961.4485 246.448,961.0005 247,961.0005 L251,961.0005 C251.552,961.0005 252,961.4485 252,962.0005 L252,963.0005 C252,964.1055 252.895,965.0005 254,965.0005 L261,965.0005 C261.552,965.0005 262,965.4485 262,966.0005 L262,976.0005 Z M262,963.0005 L255,963.0005 C254.448,963.0005 254,962.5525 254,962.0005 L254,961.0005 C254,959.8955 253.105,959.0005 252,959.0005 L246,959.0005 C244.895,959.0005 244,959.8955 244,961.0005 L244,977.0005 C244,978.1055 244.895,979.0005 246,979.0005 L262,979.0005 C263.105,979.0005 264,978.1055 264,977.0005 L264,965.0005 C264,963.8955 263.105,963.0005 262,963.0005 L262,963.0005 Z" id="folder-[#1795]"></path>
            </g>
        </g>
    </g>
</svg>