<?xml version="1.0" encoding="UTF-8" standalone="no"?>
<svg width="20px" height="20px" viewBox="0 0 20 20" version="1.1" xmlns="http://www.w3.org/2000/svg" xmlns:xlink="http://www.w3.org/1999/xlink">
    <!-- Generator: Sketch 3.8.1 (29687) - http://www.bohemiancoding.com/sketch -->
    <title>folder [#1791]</title>
    <desc>Created with Sketch.</desc>
    <defs></defs>
    <g id="Page-1" stroke="none" stroke-width="1" fill="none" fill-rule="evenodd">
        <g id="Dribbble-Dark-Preview" transform="translate(-60.000000, -1159.000000)" fill="#FFFFFF">
            <g id="icons" transform="translate(56.000000, 160.000000)">
                <path d="M22,1016.0005 C22,1016.5525 21.552,1017.0005 21,1017.0005 L7,1017.0005 C6.448,1017.0005 6,1016.5525 6,1016.0005 L6,1002.0005 C6,1001.4485 6.448,1001.0005 7,1001.0005 L11,1001.0005 C11.552,1001.0005 12,1001.4485 12,1002.0005 L12,1003.0005 C12,1004.1055 12.895,1005.0005 14,1005.0005 L21,1005.0005 C21.552,1005.0005 22,1005.4485 22,1006.0005 L22,1016.0005 Z M22,1003.0005 L15,1003.0005 C14.448,1003.0005 14,1002.5525 14,1002.0005 L14,1001.0005 C14,999.8955 13.105,999.0005 12,999.0005 L6,999.0005 C4.895,999.0005 4,999.8955 4,1001.0005 L4,1017.0005 C4,1018.1055 4.895,1019.0005 6,1019.0005 L22,1019.0005 C23.105,1019.0005 24,1018.1055 24,1017.0005 L24,1005.0005 C24,1003.8955 23.105,1003.0005 22,1003.0005 L22,1003.0005 Z" id="folder-[#1791]"></path>
            </g>
        </g>
    </g>
</svg>