<?xml version="1.0" encoding="UTF-8" standalone="no"?>
<svg width="20px" height="20px" viewBox="0 0 20 20" version="1.1" xmlns="http://www.w3.org/2000/svg" xmlns:xlink="http://www.w3.org/1999/xlink">
    <!-- Generator: Sketch 3.8.1 (29687) - http://www.bohemiancoding.com/sketch -->
    <title>folder_minus_minus_fill [#1776]</title>
    <desc>Created with Sketch.</desc>
    <defs></defs>
    <g id="Page-1" stroke="none" stroke-width="1" fill="none" fill-rule="evenodd">
        <g id="Dribbble-Dark-Preview" transform="translate(-260.000000, -1199.000000)" fill="#FFFFFF">
            <g id="icons" transform="translate(56.000000, 160.000000)">
                <path d="M216,1052.0005 L212,1052.0005 C211.448,1052.0005 211,1051.5525 211,1051.0005 C211,1050.4485 211.448,1050.0005 212,1050.0005 L216,1050.0005 C216.552,1050.0005 217,1050.4485 217,1051.0005 C217,1051.5525 216.552,1052.0005 216,1052.0005 M222,1043.0005 L215,1043.0005 C214.448,1043.0005 214,1042.6775 214,1042.1255 L214,1041.1255 C214,1040.0205 213.105,1039.0005 212,1039.0005 L206,1039.0005 C204.895,1039.0005 204,1040.0205 204,1041.1255 L204,1057.1255 C204,1058.2305 204.895,1059.0005 206,1059.0005 L222,1059.0005 C223.105,1059.0005 224,1058.2305 224,1057.1255 L224,1045.1255 C224,1044.0205 223.105,1043.0005 222,1043.0005" id="folder_minus_minus_fill-[#1776]"></path>
            </g>
        </g>
    </g>
</svg>