<?xml version="1.0" encoding="UTF-8" standalone="no"?>
<svg width="20px" height="20px" viewBox="0 0 20 20" version="1.1" xmlns="http://www.w3.org/2000/svg" xmlns:xlink="http://www.w3.org/1999/xlink">
    <!-- Generator: Sketch 3.8.1 (29687) - http://www.bohemiancoding.com/sketch -->
    <title>folder_plus [#1778]</title>
    <desc>Created with Sketch.</desc>
    <defs></defs>
    <g id="Page-1" stroke="none" stroke-width="1" fill="none" fill-rule="evenodd">
        <g id="Dribbble-Dark-Preview" transform="translate(-180.000000, -1199.000000)" fill="#FFFFFF">
            <g id="icons" transform="translate(56.000000, 160.000000)">
                <path d="M131,1050.0005 L133,1050.0005 L133,1048.0005 L135,1048.0005 L135,1050.0005 L137,1050.0005 L137,1052.0005 L135,1052.0005 L135,1054.0005 L133,1054.0005 L133,1052.0005 L131,1052.0005 L131,1050.0005 Z M142,1057.0005 L126,1057.0005 L126,1041.0005 L130.646,1041.0005 L132.604,1045.0005 L142,1045.0005 L142,1057.0005 Z M133.667,1043.0005 L131.667,1039.0005 L124,1039.0005 L124,1059.0005 L144,1059.0005 L144,1043.0005 L133.667,1043.0005 Z" id="folder_plus-[#1778]"></path>
            </g>
        </g>
    </g>
</svg>