<?xml version="1.0" encoding="UTF-8" standalone="no"?>
<svg width="20px" height="20px" viewBox="0 0 20 20" version="1.1" xmlns="http://www.w3.org/2000/svg" xmlns:xlink="http://www.w3.org/1999/xlink">
    <!-- Generator: Sketch 3.8.1 (29687) - http://www.bohemiancoding.com/sketch -->
    <title>folder_minus_minus [#1781]</title>
    <desc>Created with Sketch.</desc>
    <defs></defs>
    <g id="Page-1" stroke="none" stroke-width="1" fill="none" fill-rule="evenodd">
        <g id="Dribbble-Dark-Preview" transform="translate(-60.000000, -1199.000000)" fill="#FFFFFF">
            <g id="icons" transform="translate(56.000000, 160.000000)">
                <path d="M17.2226,1051.0005 C17.2226,1051.5525 16.7746,1052.0005 16.2226,1052.0005 L12.2226,1052.0005 C11.6706,1052.0005 11.2226,1051.5525 11.2226,1051.0005 C11.2226,1050.4485 11.6706,1050.0005 12.2226,1050.0005 L16.2226,1050.0005 C16.7746,1050.0005 17.2226,1050.4485 17.2226,1051.0005 L17.2226,1051.0005 Z M21.9996,1056.0005 C21.9996,1056.5525 21.7746,1057.0005 21.2226,1057.0005 L7.2226,1057.0005 C6.6706,1057.0005 5.9996,1056.5525 5.9996,1056.0005 L5.9996,1042.0005 C5.9996,1041.4485 6.6706,1041.0005 7.2226,1041.0005 L10.5776,1041.0005 C10.9596,1041.0005 11.3086,1041.2175 11.4756,1041.5605 L12.6116,1043.8795 C12.9476,1044.5655 13.6446,1045.0005 14.4076,1045.0005 L21.2226,1045.0005 C21.7746,1045.0005 21.9996,1045.4485 21.9996,1046.0005 L21.9996,1056.0005 Z M22.2226,1043.0005 L15.4586,1043.0005 C14.7016,1043.0005 14.0086,1042.5725 13.6696,1041.8945 L12.7756,1040.1065 C12.4366,1039.4285 11.7436,1039.0005 10.9866,1039.0005 L6.2226,1039.0005 C5.1176,1039.0005 3.9996,1039.8955 3.9996,1041.0005 L3.9996,1057.0005 C3.9996,1058.1055 5.1176,1059.0005 6.2226,1059.0005 L22.2226,1059.0005 C23.3276,1059.0005 23.9996,1058.1055 23.9996,1057.0005 L23.9996,1045.0005 C23.9996,1043.8955 23.3276,1043.0005 22.2226,1043.0005 L22.2226,1043.0005 Z" id="folder_minus_minus-[#1781]"></path>
            </g>
        </g>
    </g>
</svg>