<?xml version="1.0" encoding="UTF-8" standalone="no"?>
<svg width="20px" height="20px" viewBox="0 0 20 20" version="1.1" xmlns="http://www.w3.org/2000/svg" xmlns:xlink="http://www.w3.org/1999/xlink">
    <!-- Generator: Sketch 3.8.1 (29687) - http://www.bohemiancoding.com/sketch -->
    <title>football [#787]</title>
    <desc>Created with Sketch.</desc>
    <defs></defs>
    <g id="Page-1" stroke="none" stroke-width="1" fill="none" fill-rule="evenodd">
        <g id="Dribbble-Dark-Preview" transform="translate(-100.000000, -4759.000000)" fill="#FFFFFF">
            <g id="icons" transform="translate(56.000000, 160.000000)">
                <path d="M54,4610.4141 L52.585,4609.0001 L54,4607.5851 L55.414,4609.0001 L54,4610.4141 Z M49.757,4609.0001 L54,4613.2421 L58.242,4609.0001 L54,4604.7571 L49.757,4609.0001 Z M61.362,4612.1291 L60,4611.1701 L56,4614.2051 L56.734,4616.5081 C55.879,4616.8211 54.961,4617.0001 54,4617.0001 C53.027,4617.0001 52.098,4616.8171 51.235,4616.4971 L52,4613.9851 L48,4611.1701 L46.665,4612.1831 C46.239,4611.2071 46,4610.1311 46,4609.0001 C46,4607.9651 46.204,4606.9791 46.563,4606.0711 L48,4607.1281 L52,4603.9441 L51.245,4601.4991 C52.105,4601.1821 53.031,4601.0001 54,4601.0001 C54.982,4601.0001 55.918,4601.1861 56.788,4601.5111 L56,4604.1851 L60,4607.1281 L61.412,4606.0041 C61.788,4606.9301 62,4607.9401 62,4609.0001 C62,4610.1101 61.772,4611.1671 61.362,4612.1291 L61.362,4612.1291 Z M58.535,4615.5831 L58.323,4614.9301 L60.044,4613.6721 L60.334,4613.8681 C59.826,4614.5271 59.222,4615.1081 58.535,4615.5831 L58.535,4615.5831 Z M47.705,4613.9201 L48.044,4613.6721 L49.677,4614.7711 L49.432,4615.5581 C48.777,4615.1011 48.197,4614.5481 47.705,4613.9201 L47.705,4613.9201 Z M49.436,4602.4391 L49.677,4603.2401 L47.956,4604.6261 L47.537,4604.3051 C48.063,4603.5831 48.703,4602.9501 49.436,4602.4391 L49.436,4602.4391 Z M60.422,4604.2501 L59.956,4604.6261 L58.323,4603.3781 L58.591,4602.4591 C59.294,4602.9541 59.911,4603.5601 60.422,4604.2501 L60.422,4604.2501 Z M63.027,4604.7191 C62.601,4603.8221 62.047,4603.0021 61.387,4602.2771 C60.96,4601.8081 60.49,4601.3811 59.982,4601.0001 C59.188,4600.4061 58.306,4599.9281 57.354,4599.5891 C56.304,4599.2141 55.179,4599.0001 54,4599.0001 C52.824,4599.0001 51.701,4599.2131 50.653,4599.5861 C49.699,4599.9251 48.814,4600.4041 48.018,4601.0001 C47.528,4601.3671 47.074,4601.7761 46.659,4602.2261 C45.945,4602.9991 45.351,4603.8831 44.908,4604.8541 C44.331,4606.1181 44,4607.5191 44,4609.0001 C44,4610.5881 44.38,4612.0841 45.039,4613.4171 C45.444,4614.2381 45.958,4614.9941 46.564,4615.6691 C47.003,4616.1591 47.49,4616.6041 48.018,4617.0001 C48.813,4617.5951 49.698,4618.0741 50.651,4618.4131 C51.699,4618.7861 52.823,4619.0001 54,4619.0001 C55.174,4619.0001 56.295,4618.7871 57.342,4618.4161 C58.298,4618.0761 59.185,4617.5971 59.982,4617.0001 C60.486,4616.6221 60.953,4616.1991 61.377,4615.7341 C62.039,4615.0101 62.593,4614.1901 63.02,4613.2951 C63.642,4611.9921 64,4610.5401 64,4609.0001 C64,4607.4661 63.644,4606.0181 63.027,4604.7191 L63.027,4604.7191 Z" id="football-[#787]"></path>
            </g>
        </g>
    </g>
</svg>