<?xml version="1.0" encoding="UTF-8" standalone="no"?>
<svg width="14px" height="20px" viewBox="0 0 14 20" version="1.1" xmlns="http://www.w3.org/2000/svg" xmlns:xlink="http://www.w3.org/1999/xlink">
    <!-- Generator: Sketch 3.8.1 (29687) - http://www.bohemiancoding.com/sketch -->
    <title>foursquare [#138]</title>
    <desc>Created with Sketch.</desc>
    <defs></defs>
    <g id="Page-1" stroke="none" stroke-width="1" fill="none" fill-rule="evenodd">
        <g id="Dribbble-Dark-Preview" transform="translate(-303.000000, -7559.000000)" fill="#FFFFFF">
            <g id="icons" transform="translate(56.000000, 160.000000)">
                <path d="M260.980372,7399.977 L260.291872,7403.27798 C260.213359,7403.62998 259.879175,7403.94298 259.466477,7403.94298 L253.488406,7403.94298 C252.820038,7403.94298 252.26944,7404.48998 252.26944,7405.15398 L252.26944,7405.87697 C252.26944,7406.54097 252.820038,7407.08797 253.488406,7407.08797 L258.542438,7407.08797 C259.014523,7407.08797 259.407089,7407.53697 259.309451,7408.02497 C259.210806,7408.53297 258.679333,7411.11196 258.620951,7411.38495 C258.581695,7411.67795 258.266636,7412.04995 257.79455,7412.04995 L253.665564,7412.04995 C252.800913,7412.06895 252.623755,7412.08895 252.112413,7412.71395 C251.601071,7413.33895 247.078513,7418.96493 247.078513,7418.96493 C247.039257,7419.02293 247,7419.00393 247,7418.94493 L247,7399.821 C247,7399.371 247.373441,7399 247.825395,7399 L260.23349,7399 C260.665313,7399 261.098141,7399.43 260.980372,7399.977" id="foursquare-[#138]"></path>
            </g>
        </g>
    </g>
</svg>