<?xml version="1.0" encoding="UTF-8" standalone="no"?>
<svg width="21px" height="20px" viewBox="0 0 21 20" version="1.1" xmlns="http://www.w3.org/2000/svg" xmlns:xlink="http://www.w3.org/1999/xlink">
    <!-- Generator: Sketch 3.8.1 (29687) - http://www.bohemiancoding.com/sketch -->
    <title>gallery_grid_view [#1404]</title>
    <desc>Created with Sketch.</desc>
    <defs></defs>
    <g id="Page-1" stroke="none" stroke-width="1" fill="none" fill-rule="evenodd">
        <g id="Dribbble-Dark-Preview" transform="translate(-299.000000, -680.000000)" fill="#FFFFFF">
            <g id="icons" transform="translate(56.000000, 160.000000)">
                <path d="M245.1,538 L250.35,538 L250.35,536 L245.1,536 L245.1,538 Z M243,540 L252.45,540 L252.45,534 L243,534 L243,540 Z M256.65,524 L261.9,524 L261.9,522 L256.65,522 L256.65,524 Z M254.55,526 L264,526 L264,520 L254.55,520 L254.55,526 Z M256.65,538 L261.9,538 L261.9,530 L256.65,530 L256.65,538 Z M254.55,540 L264,540 L264,528 L254.55,528 L254.55,540 Z M245.1,530 L250.35,530 L250.35,522 L245.1,522 L245.1,530 Z M243,532 L252.45,532 L252.45,520 L243,520 L243,532 Z" id="gallery_grid_view-[#1404]"></path>
            </g>
        </g>
    </g>
</svg>