<?xml version="1.0" encoding="UTF-8" standalone="no"?>
<svg width="21px" height="20px" viewBox="0 0 21 20" version="1.1" xmlns="http://www.w3.org/2000/svg" xmlns:xlink="http://www.w3.org/1999/xlink">
    <!-- Generator: Sketch 3.8.1 (29687) - http://www.bohemiancoding.com/sketch -->
    <title>gallery_grid_view [#1405]</title>
    <desc>Created with Sketch.</desc>
    <defs></defs>
    <g id="Page-1" stroke="none" stroke-width="1" fill="none" fill-rule="evenodd">
        <g id="Dribbble-Dark-Preview" transform="translate(-259.000000, -680.000000)" fill="#FFFFFF">
            <g id="icons" transform="translate(56.000000, 160.000000)">
                <path d="M209.3,538 L206.15,538 C205.5704,538 205.1,537.552 205.1,537 C205.1,536.448 205.5704,536 206.15,536 L209.3,536 C209.8796,536 210.35,536.448 210.35,537 C210.35,537.552 209.8796,538 209.3,538 L209.3,538 Z M210.35,534 L205.1,534 C203.93975,534 203,534.895 203,536 L203,538 C203,539.105 203.93975,540 205.1,540 L210.35,540 C211.51025,540 212.45,539.105 212.45,538 L212.45,536 C212.45,534.895 211.51025,534 210.35,534 L210.35,534 Z M220.85,524 L217.7,524 C217.1204,524 216.65,523.552 216.65,523 C216.65,522.448 217.1204,522 217.7,522 L220.85,522 C221.4296,522 221.9,522.448 221.9,523 C221.9,523.552 221.4296,524 220.85,524 L220.85,524 Z M221.9,520 L216.65,520 C215.48975,520 214.55,520.895 214.55,522 L214.55,524 C214.55,525.105 215.48975,526 216.65,526 L221.9,526 C223.06025,526 224,525.105 224,524 L224,522 C224,520.895 223.06025,520 221.9,520 L221.9,520 Z M221.9,537 C221.9,537.552 221.4296,538 220.85,538 L217.7,538 C217.1204,538 216.65,537.552 216.65,537 L216.65,531 C216.65,530.448 217.1204,530 217.7,530 L220.85,530 C221.4296,530 221.9,530.448 221.9,531 L221.9,537 Z M221.9,528 L216.65,528 C215.48975,528 214.55,528.895 214.55,530 L214.55,538 C214.55,539.105 215.48975,540 216.65,540 L221.9,540 C223.06025,540 224,539.105 224,538 L224,530 C224,528.895 223.06025,528 221.9,528 L221.9,528 Z M210.35,529 C210.35,529.552 209.8796,530 209.3,530 L206.15,530 C205.5704,530 205.1,529.552 205.1,529 L205.1,523 C205.1,522.448 205.5704,522 206.15,522 L209.3,522 C209.8796,522 210.35,522.448 210.35,523 L210.35,529 Z M210.35,520 L205.1,520 C203.93975,520 203,520.895 203,522 L203,530 C203,531.105 203.93975,532 205.1,532 L210.35,532 C211.51025,532 212.45,531.105 212.45,530 L212.45,522 C212.45,520.895 211.51025,520 210.35,520 L210.35,520 Z" id="gallery_grid_view-[#1405]"></path>
            </g>
        </g>
    </g>
</svg>