<?xml version="1.0" encoding="UTF-8" standalone="no"?>
<svg width="21px" height="20px" viewBox="0 0 21 20" version="1.1" xmlns="http://www.w3.org/2000/svg" xmlns:xlink="http://www.w3.org/1999/xlink">
    <!-- Generator: Sketch 3.8.1 (29687) - http://www.bohemiancoding.com/sketch -->
    <title>gallery_grid_view [#1403]</title>
    <desc>Created with Sketch.</desc>
    <defs></defs>
    <g id="Page-1" stroke="none" stroke-width="1" fill="none" fill-rule="evenodd">
        <g id="Dribbble-Dark-Preview" transform="translate(-339.000000, -680.000000)" fill="#FFFFFF">
            <g id="icons" transform="translate(56.000000, 160.000000)">
                <path d="M301.9,537 C301.9,537.552 301.4296,538 300.85,538 L297.7,538 C297.1204,538 296.65,537.552 296.65,537 L296.65,534 C296.65,533.448 297.1204,533 297.7,533 L300.85,533 C301.4296,533 301.9,533.448 301.9,534 L301.9,537 Z M301.9,531 L296.65,531 C295.48975,531 294.55,531.895 294.55,533 L294.55,538 C294.55,539.105 295.48975,540 296.65,540 L301.9,540 C303.06025,540 304,539.105 304,538 L304,533 C304,531.895 303.06025,531 301.9,531 L301.9,531 Z M301.9,526 C301.9,526.552 301.4296,527 300.85,527 L297.7,527 C297.1204,527 296.65,526.552 296.65,526 L296.65,523 C296.65,522.448 297.1204,522 297.7,522 L300.85,522 C301.4296,522 301.9,522.448 301.9,523 L301.9,526 Z M301.9,520 L296.65,520 C295.48975,520 294.55,520.895 294.55,522 L294.55,527 C294.55,528.105 295.48975,529 296.65,529 L301.9,529 C303.06025,529 304,528.105 304,527 L304,522 C304,520.895 303.06025,520 301.9,520 L301.9,520 Z M290.35,537 C290.35,537.552 289.8796,538 289.3,538 L286.15,538 C285.5704,538 285.1,537.552 285.1,537 L285.1,523 C285.1,522.448 285.5704,522 286.15,522 L289.3,522 C289.8796,522 290.35,522.448 290.35,523 L290.35,537 Z M290.35,520 L285.1,520 C283.93975,520 283,520.895 283,522 L283,538 C283,539.105 283.93975,540 285.1,540 L290.35,540 C291.51025,540 292.45,539.105 292.45,538 L292.45,522 C292.45,520.895 291.51025,520 290.35,520 L290.35,520 Z" id="gallery_grid_view-[#1403]"></path>
            </g>
        </g>
    </g>
</svg>