<?xml version="1.0" encoding="UTF-8" standalone="no"?>
<svg width="20px" height="20px" viewBox="0 0 20 20" version="1.1" xmlns="http://www.w3.org/2000/svg" xmlns:xlink="http://www.w3.org/1999/xlink">
    <!-- Generator: Sketch 3.8.1 (29687) - http://www.bohemiancoding.com/sketch -->
    <title>game_controller_round [#795]</title>
    <desc>Created with Sketch.</desc>
    <defs></defs>
    <g id="Page-1" stroke="none" stroke-width="1" fill="none" fill-rule="evenodd">
        <g id="Dribbble-Dark-Preview" transform="translate(-180.000000, -4719.000000)" fill="#FFFFFF">
            <g id="icons" transform="translate(56.000000, 160.000000)">
                <path d="M142,4570 C142,4569.448 141.552,4569 141,4569 L127,4569 C126.448,4569 126,4569.448 126,4570 L126,4576 C126,4576.552 126.448,4577 127,4577 L141,4577 C141.552,4577 142,4576.552 142,4576 L142,4570 Z M144,4569 L144,4577 C144,4578.105 143.105,4579 142,4579 L126,4579 C124.895,4579 124,4578.105 124,4577 L124,4569 C124,4567.895 124.895,4567 126,4567 L133,4567 L133,4563 C133,4561.895 133.895,4561 135,4561 L137,4561 C137.552,4561 138,4560.552 138,4560 L138,4559 L140,4559 L140,4561 C140,4562.105 139.105,4563 138,4563 L136,4563 C135.448,4563 135,4563.448 135,4564 L135,4567 L142,4567 C143.105,4567 144,4567.895 144,4569 L144,4569 Z M138,4574 L140,4574 L140,4572 L138,4572 L138,4574 Z M135,4572 C134.448,4572 134,4572.448 134,4573 C134,4573.552 134.448,4574 135,4574 C135.552,4574 136,4573.552 136,4573 C136,4572.448 135.552,4572 135,4572 L135,4572 Z M131,4572 L132,4572 L132,4574 L131,4574 L131,4575 L129,4575 L129,4574 L128,4574 L128,4572 L129,4572 L129,4571 L131,4571 L131,4572 Z" id="game_controller_round-[#795]"></path>
            </g>
        </g>
    </g>
</svg>