<?xml version="1.0" encoding="UTF-8" standalone="no"?>
<svg width="20px" height="20px" viewBox="0 0 20 20" version="1.1" xmlns="http://www.w3.org/2000/svg" xmlns:xlink="http://www.w3.org/1999/xlink">
    <!-- Generator: Sketch 3.8.1 (29687) - http://www.bohemiancoding.com/sketch -->
    <title>game_controller [#800]</title>
    <desc>Created with Sketch.</desc>
    <defs></defs>
    <g id="Page-1" stroke="none" stroke-width="1" fill="none" fill-rule="evenodd">
        <g id="Dribbble-Dark-Preview" transform="translate(-380.000000, -4679.000000)" fill="#FFFFFF">
            <g id="icons" transform="translate(56.000000, 160.000000)">
                <path d="M342,4527 L326,4527 L326,4537 L330,4537 L330,4535 L338,4535 L338,4537 L342,4537 L342,4527 Z M344,4525 L344,4527 L344,4537 L344,4539 L336,4539 L336,4537 L332,4537 L332,4539 L324,4539 L324,4537 L324,4527 L324,4525 L326,4525 L333,4525 L333,4523 L333,4521 L338,4521 L338,4519 L340,4519 L340,4521 L340,4523 L335,4523 L335,4525 L342,4525 L344,4525 Z M336,4529 L336,4531 L336,4533 L340,4533 L340,4531 L340,4529 L336,4529 Z M328,4529 L332,4529 L332,4531 L332,4533 L328,4533 L328,4531 L328,4529 Z" id="game_controller-[#800]"></path>
            </g>
        </g>
    </g>
</svg>