<?xml version="1.0" encoding="UTF-8" standalone="no"?>
<svg width="20px" height="12px" viewBox="0 0 20 12" version="1.1" xmlns="http://www.w3.org/2000/svg" xmlns:xlink="http://www.w3.org/1999/xlink">
    <!-- Generator: Sketch 3.8.1 (29687) - http://www.bohemiancoding.com/sketch -->
    <title>game_controller [#798]</title>
    <desc>Created with Sketch.</desc>
    <defs></defs>
    <g id="Page-1" stroke="none" stroke-width="1" fill="none" fill-rule="evenodd">
        <g id="Dribbble-Dark-Preview" transform="translate(-60.000000, -4723.000000)" fill="#FFFFFF">
            <g id="icons" transform="translate(56.000000, 160.000000)">
                <path d="M6,4573 L22,4573 L22,4565 L6,4565 L6,4573 Z M15,4563 L22,4563 L24,4563 L24,4565 L24,4573 L24,4575 L22,4575 L6,4575 L4,4575 L4,4573 L4,4565 L4,4563 L6,4563 L13,4563 L15,4563 Z M18,4570 L20,4570 L20,4568 L18,4568 L18,4570 Z M15,4570 C15.552,4570 16,4569.552 16,4569 C16,4568.448 15.552,4568 15,4568 C14.448,4568 14,4568.448 14,4569 C14,4569.552 14.448,4570 15,4570 L15,4570 Z M8,4568 L9,4568 L9,4567 L11,4567 L11,4568 L12,4568 L12,4570 L11,4570 L11,4571 L9,4571 L9,4570 L8,4570 L8,4568 Z" id="game_controller-[#798]"></path>
            </g>
        </g>
    </g>
</svg>