<?xml version="1.0" encoding="UTF-8" standalone="no"?>
<svg width="20px" height="12px" viewBox="0 0 20 12" version="1.1" xmlns="http://www.w3.org/2000/svg" xmlns:xlink="http://www.w3.org/1999/xlink">
    <!-- Generator: Sketch 3.8.1 (29687) - http://www.bohemiancoding.com/sketch -->
    <title>game_controller_round [#797]</title>
    <desc>Created with Sketch.</desc>
    <defs></defs>
    <g id="Page-1" stroke="none" stroke-width="1" fill="none" fill-rule="evenodd">
        <g id="Dribbble-Dark-Preview" transform="translate(-100.000000, -4723.000000)" fill="#FFFFFF">
            <g id="icons" transform="translate(56.000000, 160.000000)">
                <path d="M62,4566 C62,4565.448 61.552,4565 61,4565 L47,4565 C46.448,4565 46,4565.448 46,4566 L46,4572 C46,4572.552 46.448,4573 47,4573 L61,4573 C61.552,4573 62,4572.552 62,4572 L62,4566 Z M55,4563 L62,4563 C63.105,4563 64,4563.895 64,4565 L64,4573 C64,4574.105 63.105,4575 62,4575 L46,4575 C44.895,4575 44,4574.105 44,4573 L44,4565 C44,4563.895 44.895,4563 46,4563 L53,4563 L55,4563 Z M58,4570 L60,4570 L60,4568 L58,4568 L58,4570 Z M55,4568 C54.448,4568 54,4568.448 54,4569 C54,4569.552 54.448,4570 55,4570 C55.552,4570 56,4569.552 56,4569 C56,4568.448 55.552,4568 55,4568 L55,4568 Z M51,4568 L52,4568 L52,4570 L51,4570 L51,4571 L49,4571 L49,4570 L48,4570 L48,4568 L49,4568 L49,4567 L51,4567 L51,4568 Z" id="game_controller_round-[#797]"></path>
            </g>
        </g>
    </g>
</svg>