<?xml version="1.0" encoding="UTF-8" standalone="no"?>
<svg width="20px" height="20px" viewBox="0 0 20 20" version="1.1" xmlns="http://www.w3.org/2000/svg" xmlns:xlink="http://www.w3.org/1999/xlink">
    <!-- Generator: Sketch 3.8.1 (29687) - http://www.bohemiancoding.com/sketch -->
    <title>game_controller [#794]</title>
    <desc>Created with Sketch.</desc>
    <defs></defs>
    <g id="Page-1" stroke="none" stroke-width="1" fill="none" fill-rule="evenodd">
        <g id="Dribbble-Dark-Preview" transform="translate(-220.000000, -4719.000000)" fill="#FFFFFF">
            <g id="icons" transform="translate(56.000000, 160.000000)">
                <path d="M168.169,4570 L166,4570 L166,4568 L168.169,4568 L169.169,4569 L168.169,4570 Z M170.588,4567.581 L170.583,4567.586 L168.997,4566 L165.997,4566 L164,4566 L164,4572 L165.997,4572 L168.997,4572 L172.003,4568.995 L170.588,4567.581 Z M182,4570 L179.831,4570 L178.831,4569 L179.831,4568 L182,4568 L182,4570 Z M182.003,4566 L179.003,4566 L175.997,4569.005 L177.412,4570.419 L177.417,4570.414 L179.003,4572 L182.003,4572 L184,4572 L184,4566 L182.003,4566 Z M175,4574.834 L175,4577 L173,4577 L173,4574.834 L174,4573.834 L175,4574.834 Z M172.583,4572.414 L172.587,4572.419 L171,4574.005 L171,4577.005 L171,4579 L177,4579 L177,4577.005 L177,4574.005 L173.996,4571 L172.583,4572.414 Z M173,4563.172 L173,4561 L175,4561 L175,4563.172 L174,4564.172 L173,4563.172 Z M175.422,4565.591 L175.416,4565.586 L177,4564 L177,4561 L177,4559 L171,4559 L171,4561 L171,4564 L174.006,4567.005 L175.422,4565.591 Z" id="game_controller-[#794]"></path>
            </g>
        </g>
    </g>
</svg>