<?xml version="1.0" encoding="UTF-8" standalone="no"?>
<svg width="14px" height="10px" viewBox="0 0 14 10" version="1.1" xmlns="http://www.w3.org/2000/svg" xmlns:xlink="http://www.w3.org/1999/xlink">
    <!-- Generator: Sketch 3.8.1 (29687) - http://www.bohemiancoding.com/sketch -->
    <title>games [#776]</title>
    <desc>Created with Sketch.</desc>
    <defs></defs>
    <g id="Page-1" stroke="none" stroke-width="1" fill="none" fill-rule="evenodd">
        <g id="Dribbble-Dark-Preview" transform="translate(-143.000000, -4804.000000)" fill="#FFFFFF">
            <g id="icons" transform="translate(56.000000, 160.000000)">
                <path d="M96.728,4652 L98.728,4652 L98.728,4650 L96.728,4650 L96.728,4652 Z M92.728,4648 L94.728,4648 L94.728,4646 L92.728,4646 L92.728,4648 Z M92.728,4652 L94.728,4652 L94.728,4650 L92.728,4650 L92.728,4652 Z M88.728,4652 L90.728,4652 L90.728,4650 L88.728,4650 L88.728,4652 Z M97,4648 L97,4644 L91,4644 L91,4648 L87,4648 L87,4654 L90.728,4654 L92.728,4654 L94.728,4654 L96.728,4654 L101,4654 L101,4648 L97,4648 Z" id="games-[#776]"></path>
            </g>
        </g>
    </g>
</svg>