<?xml version="1.0" encoding="UTF-8" standalone="no"?>
<svg width="20px" height="20px" viewBox="0 0 20 20" version="1.1" xmlns="http://www.w3.org/2000/svg" xmlns:xlink="http://www.w3.org/1999/xlink">
    <!-- Generator: Sketch 3.8.1 (29687) - http://www.bohemiancoding.com/sketch -->
    <title>game_of_thrones [#123]</title>
    <desc>Created with Sketch.</desc>
    <defs></defs>
    <g id="Page-1" stroke="none" stroke-width="1" fill="none" fill-rule="evenodd">
        <g id="Dribbble-Dark-Preview" transform="translate(-100.000000, -7639.000000)" fill="#FFFFFF">
            <g id="icons" transform="translate(56.000000, 160.000000)">
                <path d="M55,7489 C55,7489.552 54.552,7490 54,7490 C53.448,7490 53,7489.552 53,7489 C53,7488.448 53.448,7488 54,7488 C54.552,7488 55,7488.448 55,7489 L55,7489 Z M58.5,7488.415 L60.655,7484.569 C61.503,7485.838 62,7487.362 62,7489 C62,7489.597 61.929,7490.177 61.805,7490.736 L58.5,7488.415 Z M57.863,7496.001 L57.609,7492.421 L61.479,7491.814 C60.805,7493.6 59.516,7495.085 57.863,7496.001 L57.863,7496.001 Z M55.483,7490.729 C55.537,7491.487 55.59,7492.233 55.645,7493.007 C55.022,7492.416 54.608,7492.024 54,7491.448 C53.389,7492.026 52.978,7492.416 52.355,7493.007 C52.41,7492.233 52.463,7491.487 52.517,7490.729 C51.069,7490.503 51.168,7490.518 50.202,7490.367 C50.936,7489.85 51.384,7489.536 52.128,7489.014 C51.222,7487.397 51.363,7487.649 50.99,7486.983 C51.626,7487.183 51.253,7487.066 53.189,7487.674 C53.367,7487.214 53.815,7486.048 54,7485.568 C54.185,7486.048 54.633,7487.214 54.811,7487.674 C56.747,7487.066 56.374,7487.183 57.01,7486.983 C56.637,7487.649 56.907,7487.166 55.872,7489.014 C56.616,7489.536 57.064,7489.85 57.798,7490.367 C57.03,7490.487 57.418,7490.426 55.483,7490.729 L55.483,7490.729 Z M54,7497 C53.12,7497 52.276,7496.852 51.484,7496.588 L54,7494.203 L56.516,7496.588 C55.724,7496.852 54.88,7497 54,7497 L54,7497 Z M50.137,7496.001 C48.484,7495.085 47.195,7493.6 46.521,7491.814 L50.391,7492.421 L50.137,7496.001 Z M46,7489 C46,7487.362 46.497,7485.838 47.345,7484.569 L49.5,7488.415 L46.195,7490.736 C46.071,7490.177 46,7489.597 46,7489 L46,7489 Z M53.607,7481.02 L51.997,7485.203 L47.843,7483.898 C49.233,7482.224 51.294,7481.133 53.607,7481.02 L53.607,7481.02 Z M60.157,7483.898 L56.003,7485.203 L54.393,7481.02 C56.706,7481.133 58.767,7482.224 60.157,7483.898 L60.157,7483.898 Z M54,7479 C48.477,7479 44,7483.477 44,7489 C44,7494.523 48.477,7499 54,7499 C59.523,7499 64,7494.523 64,7489 C64,7483.477 59.523,7479 54,7479 L54,7479 Z" id="game_of_thrones-[#123]"></path>
            </g>
        </g>
    </g>
</svg>