<?xml version="1.0" encoding="UTF-8" standalone="no"?>
<svg width="20px" height="20px" viewBox="0 0 20 20" version="1.1" xmlns="http://www.w3.org/2000/svg" xmlns:xlink="http://www.w3.org/1999/xlink">
    <!-- Generator: Sketch 3.8.1 (29687) - http://www.bohemiancoding.com/sketch -->
    <title>game_controller [#793]</title>
    <desc>Created with Sketch.</desc>
    <defs></defs>
    <g id="Page-1" stroke="none" stroke-width="1" fill="none" fill-rule="evenodd">
        <g id="Dribbble-Dark-Preview" transform="translate(-260.000000, -4719.000000)" fill="#FFFFFF">
            <g id="icons" transform="translate(56.000000, 160.000000)">
                <path d="M217,4572 L217,4577 L211,4577 L211,4572 L206,4572 L206,4566 L211,4566 L211,4561 L217,4561 L217,4566 L222,4566 L222,4572 L217,4572 Z M219,4579 L219,4574.003 L219,4574 L224,4574 L224,4564 L219,4564 L219,4559 L209,4559 L209,4564 L204,4564 L204,4574 L209,4574 L209,4574.003 L209,4579 L219,4579 Z" id="game_controller-[#793]"></path>
            </g>
        </g>
    </g>
</svg>