<?xml version="1.0" encoding="UTF-8" standalone="no"?>
<svg width="20px" height="20px" viewBox="0 0 20 20" version="1.1" xmlns="http://www.w3.org/2000/svg" xmlns:xlink="http://www.w3.org/1999/xlink">
    <!-- Generator: Sketch 3.8.1 (29687) - http://www.bohemiancoding.com/sketch -->
    <title>ghost [#586]</title>
    <desc>Created with Sketch.</desc>
    <defs></defs>
    <g id="Page-1" stroke="none" stroke-width="1" fill="none" fill-rule="evenodd">
        <g id="Dribbble-Dark-Preview" transform="translate(-140.000000, -5639.000000)" fill="#FFFFFF">
            <g id="icons" transform="translate(56.000000, 160.000000)">
                <path d="M98,5491 L100,5491 L100,5487 L98,5487 L98,5491 Z M88,5491 L90,5491 L90,5487 L88,5487 L88,5491 Z M102,5497 L100,5497 L100,5495 L98,5495 L98,5497 L95,5497 L95,5495 L93,5495 L93,5497 L90,5497 L90,5495 L88,5495 L88,5497 L86,5497 L86,5488.841 C86,5484.564 89.589,5481 94,5481 C98.411,5481 102,5484.564 102,5488.841 L102,5497 Z M94,5479 C88.477,5479 84,5483.453 84,5488.841 L84,5499 L104,5499 L104,5488.841 C104,5483.453 99.523,5479 94,5479 L94,5479 Z" id="ghost-[#586]"></path>
            </g>
        </g>
    </g>
</svg>