<?xml version="1.0" encoding="UTF-8" standalone="no"?>
<svg width="20px" height="20px" viewBox="0 0 20 20" version="1.1" xmlns="http://www.w3.org/2000/svg" xmlns:xlink="http://www.w3.org/1999/xlink">
    <!-- Generator: Sketch 3.8.1 (29687) - http://www.bohemiancoding.com/sketch -->
    <title>ghost [#588]</title>
    <desc>Created with Sketch.</desc>
    <defs></defs>
    <g id="Page-1" stroke="none" stroke-width="1" fill="none" fill-rule="evenodd">
        <g id="Dribbble-Dark-Preview" transform="translate(-60.000000, -5639.000000)" fill="#FFFFFF">
            <g id="icons" transform="translate(56.000000, 160.000000)">
                <path d="M22,5488.82569 C22,5484.55534 18.411,5480.99689 14,5480.99689 C9.589,5480.99689 6,5484.55534 6,5488.82569 L6,5495.55919 C6,5496.11033 6.448,5496.5836 7,5496.5836 C7.552,5496.5836 8,5496.16225 8,5495.61111 C8,5495.05897 8.448,5494.66459 9,5494.66459 C9.552,5494.66459 10,5495.21473 10,5495.76587 C10,5496.31801 10.448,5496.97199 11,5496.97199 L12,5496.97199 C12.552,5496.97199 13,5496.36993 13,5495.81779 C13,5495.26665 13.448,5494.66459 14,5494.66459 C14.552,5494.66459 15,5495.21473 15,5495.76587 C15,5496.31801 15.448,5496.97199 16,5496.97199 L17,5496.97199 C17.552,5496.97199 18,5496.31801 18,5495.76587 C18,5495.21473 18.448,5494.56075 19,5494.56075 C19.552,5494.56075 20,5495.00805 20,5495.55919 C20,5496.11033 20.448,5496.55764 21,5496.55764 C21.552,5496.55764 22,5496.11033 22,5495.55919 L22,5488.82569 Z M24,5488.82569 L24,5496.55764 C24,5497.65992 23.105,5498.96888 22,5498.96888 L21.239,5498.96888 C20.687,5498.96888 20.113,5498.63839 19.761,5498.21405 C19.58,5497.9954 19.307,5497.70085 19,5497.70085 C18.693,5497.70085 18.42,5497.94348 18.239,5498.16214 C17.887,5498.58647 17.313,5498.96888 16.761,5498.96888 L16.239,5498.96888 C15.687,5498.96888 15.113,5498.63839 14.761,5498.21405 C14.58,5497.9954 14.307,5497.70085 14,5497.70085 C13.693,5497.70085 13.42,5497.94348 13.239,5498.16214 C12.266,5499.33331 10.596,5499.2115 9.771,5498.20107 C9.588,5497.97842 9.311,5497.67989 9,5497.67989 C8.689,5497.67989 8.412,5497.9265 8.229,5498.14916 C7.876,5498.58248 7.295,5498.96888 6.736,5498.96888 L6,5498.96888 C4.895,5498.96888 4,5497.65992 4,5496.55764 L4,5488.82569 C4,5483.44607 8.477,5479 14,5479 C19.523,5479 24,5483.44607 24,5488.82569 L24,5488.82569 Z M18,5487.57164 L18,5489.56853 C18,5490.11967 18.448,5490.56697 19,5490.56697 C19.552,5490.56697 20,5490.11967 20,5489.56853 L20,5487.57164 C20,5487.0205 19.552,5486.5732 19,5486.5732 C18.448,5486.5732 18,5487.0205 18,5487.57164 L18,5487.57164 Z M10,5487.57164 L10,5489.56853 C10,5490.11967 9.552,5490.56697 9,5490.56697 C8.448,5490.56697 8,5490.11967 8,5489.56853 L8,5487.57164 C8,5487.0205 8.448,5486.5732 9,5486.5732 C9.552,5486.5732 10,5487.0205 10,5487.57164 L10,5487.57164 Z" id="ghost-[#588]"></path>
            </g>
        </g>
    </g>
</svg>