<?xml version="1.0" encoding="UTF-8" standalone="no"?>
<svg width="20px" height="20px" viewBox="0 0 20 20" version="1.1" xmlns="http://www.w3.org/2000/svg" xmlns:xlink="http://www.w3.org/1999/xlink">
    <!-- Generator: Sketch 3.8.1 (29687) - http://www.bohemiancoding.com/sketch -->
    <title>ghost [#587]</title>
    <desc>Created with Sketch.</desc>
    <defs></defs>
    <g id="Page-1" stroke="none" stroke-width="1" fill="none" fill-rule="evenodd">
        <g id="Dribbble-Dark-Preview" transform="translate(-100.000000, -5639.000000)" fill="#FFFFFF">
            <g id="icons" transform="translate(56.000000, 160.000000)">
                <path d="M62,5495.597 C62,5496.149 61.541,5496.597 60.988,5496.597 C60.436,5496.597 59.983,5496.149 59.983,5495.597 C59.983,5495.045 59.532,5494.597 58.98,5494.597 C58.427,5494.597 57.978,5495.246 57.978,5495.799 C57.978,5496.351 57.529,5497 56.977,5497 L55.977,5497 C55.424,5497 54.977,5496.351 54.977,5495.799 C54.977,5495.246 54.529,5494.698 53.977,5494.698 C53.424,5494.698 52.977,5495.297 52.977,5495.849 C52.977,5496.401 52.529,5497 51.977,5497 L50.977,5497 C50.424,5497 49.977,5496.351 49.977,5495.799 C49.977,5495.246 49.529,5494.698 48.977,5494.698 C48.424,5494.698 47.977,5495.095 47.977,5495.647 C47.977,5496.2 47.541,5496.622 46.988,5496.622 C46.436,5496.622 46,5496.149 46,5495.597 L46,5488.853 C46,5484.576 49.566,5481 53.977,5481 C58.388,5481 62,5484.576 62,5488.853 L62,5495.597 Z M53.977,5479 C48.454,5479 44,5483.465 44,5488.853 L44,5496.597 C44,5497.702 44.872,5499 45.977,5499 L46.712,5499 C47.272,5499 47.853,5498.619 48.206,5498.186 C48.388,5497.962 48.665,5497.719 48.977,5497.719 C49.288,5497.719 49.565,5498.013 49.747,5498.236 C50.101,5498.669 50.682,5499 51.241,5499 L51.738,5499 C52.29,5499 52.863,5498.623 53.216,5498.198 C53.397,5497.98 53.67,5497.739 53.977,5497.739 C54.284,5497.739 54.556,5498.03 54.738,5498.249 C55.09,5498.673 55.663,5499 56.215,5499 L56.738,5499 C57.29,5499 57.863,5498.623 58.216,5498.198 C58.397,5497.98 58.67,5497.739 58.977,5497.739 C59.284,5497.739 59.556,5498.03 59.738,5498.249 C60.09,5498.673 60.663,5499 61.215,5499 L61.977,5499 C63.081,5499 64,5497.702 64,5496.597 L64,5488.853 C64,5483.465 59.5,5479 53.977,5479 L53.977,5479 Z M56.977,5489.597 C56.425,5489.597 55.977,5489.148 55.977,5488.597 C55.977,5488.046 56.425,5487.597 56.977,5487.597 C57.528,5487.597 57.977,5488.046 57.977,5488.597 C57.977,5489.148 57.528,5489.597 56.977,5489.597 L56.977,5489.597 Z M56.977,5485.597 C55.32,5485.597 53.977,5486.94 53.977,5488.597 C53.977,5490.254 55.32,5491.597 56.977,5491.597 C58.634,5491.597 59.977,5490.254 59.977,5488.597 C59.977,5486.94 58.634,5485.597 56.977,5485.597 L56.977,5485.597 Z M50.977,5489.597 C50.425,5489.597 49.977,5489.148 49.977,5488.597 C49.977,5488.046 50.425,5487.597 50.977,5487.597 C51.528,5487.597 51.977,5488.046 51.977,5488.597 C51.977,5489.148 51.528,5489.597 50.977,5489.597 L50.977,5489.597 Z M50.977,5485.597 C49.32,5485.597 47.977,5486.94 47.977,5488.597 C47.977,5490.254 49.32,5491.597 50.977,5491.597 C52.634,5491.597 53.977,5490.254 53.977,5488.597 C53.977,5486.94 52.634,5485.597 50.977,5485.597 L50.977,5485.597 Z" id="ghost-[#587]"></path>
            </g>
        </g>
    </g>
</svg>