<?xml version="1.0" encoding="UTF-8" standalone="no"?>
<svg width="20px" height="20px" viewBox="0 0 20 20" version="1.1" xmlns="http://www.w3.org/2000/svg" xmlns:xlink="http://www.w3.org/1999/xlink">
    <!-- Generator: Sketch 3.8.1 (29687) - http://www.bohemiancoding.com/sketch -->
    <title>glasses [#761]</title>
    <desc>Created with Sketch.</desc>
    <defs></defs>
    <g id="Page-1" stroke="none" stroke-width="1" fill="none" fill-rule="evenodd">
        <g id="Dribbble-Dark-Preview" transform="translate(-340.000000, -4839.000000)" fill="#FFFFFF">
            <g id="icons" transform="translate(56.000000, 160.000000)">
                <path d="M298,4697 L302,4697 L302,4693 L298,4693 L298,4697 Z M286,4697 L290,4697 L290,4693 L286,4693 L286,4697 Z M301.818,4679 L298,4679 L298,4681 L302,4681 L302,4691 L295.818,4691 L291.818,4691 L286,4691 L286,4681 L290,4681 L290,4679 L285.818,4679 L284,4679 L284,4691.031 L284,4693 L284,4699 L292,4699 L292,4693 L296,4693 L296,4699 L304,4699 L304,4693 L304,4691.031 L304,4679 L301.818,4679 Z" id="glasses-[#761]"></path>
            </g>
        </g>
    </g>
</svg>