<?xml version="1.0" encoding="UTF-8" standalone="no"?>
<svg width="20px" height="20px" viewBox="0 0 20 20" version="1.1" xmlns="http://www.w3.org/2000/svg" xmlns:xlink="http://www.w3.org/1999/xlink">
    <!-- Generator: Sketch 3.8.1 (29687) - http://www.bohemiancoding.com/sketch -->
    <title>glasses [#805]</title>
    <desc>Created with Sketch.</desc>
    <defs></defs>
    <g id="Page-1" stroke="none" stroke-width="1" fill="none" fill-rule="evenodd">
        <g id="Dribbble-Dark-Preview" transform="translate(-180.000000, -4679.000000)" fill="#FFFFFF">
            <g id="icons" transform="translate(56.000000, 160.000000)">
                <path d="M142,4537 L136.809,4537 C136.254,4537 136,4536.55 136,4535.995 L136,4533 L142,4533 L142,4537 Z M132,4535.995 C132,4536.55 131.354,4537 130.8,4537 L126,4537 L126,4533 L132,4533 L132,4535.995 Z M138,4519 L138,4521 L140.804,4521 C141.357,4521 142,4521.448 142,4522 L142,4531 L135.804,4531 L133.804,4531 L131.804,4531 L126,4531 L126,4522 C126,4521.448 126.252,4521 126.804,4521 L130,4521 L130,4519 L125.802,4519 C124.699,4519 124,4519.894 124,4520.997 L124,4529 L124,4531 L124,4537 L124,4539 L125.804,4539 L131.804,4539 C132.909,4539 133.804,4538.105 133.804,4537 C133.804,4538.105 134.7,4539 135.804,4539 L141.804,4539 L144,4539 L144,4537 L144,4531 L144,4529 L144,4520.997 C144,4519.894 142.91,4519 141.807,4519 L138,4519 Z" id="glasses-[#805]"></path>
            </g>
        </g>
    </g>
</svg>