<?xml version="1.0" encoding="UTF-8" standalone="no"?>
<svg width="20px" height="20px" viewBox="0 0 20 20" version="1.1" xmlns="http://www.w3.org/2000/svg" xmlns:xlink="http://www.w3.org/1999/xlink">
    <!-- Generator: Sketch 3.8.1 (29687) - http://www.bohemiancoding.com/sketch -->
    <title>glasses [#762]</title>
    <desc>Created with Sketch.</desc>
    <defs></defs>
    <g id="Page-1" stroke="none" stroke-width="1" fill="none" fill-rule="evenodd">
        <g id="Dribbble-Dark-Preview" transform="translate(-300.000000, -4839.000000)" fill="#FFFFFF">
            <g id="icons" transform="translate(56.000000, 160.000000)">
                <path d="M262,4697 L259,4697 C258.448,4697 258,4696.552 258,4696 L258,4693 L262,4693 L262,4697 Z M249,4697 L246,4697 L246,4693 L250,4693 L250,4696 C250,4696.552 249.552,4697 249,4697 L249,4697 Z M246,4679 C244.895,4679 244,4679.895 244,4681 L244,4691.031 L244,4693 L244,4699 L250,4699 C251.105,4699 252,4698.105 252,4697 L252,4693 L256,4693 L256,4697 C256,4698.105 256.895,4699 258,4699 L264,4699 L264,4693 L264,4691.031 L264,4681 C264,4679.895 263.105,4679 262,4679 L258,4679 L258,4681 L261,4681 C261.552,4681 262,4681.448 262,4682 L262,4691 L255.708,4691 L251.708,4691 L246,4691 L246,4682 C246,4681.448 246.448,4681 247,4681 L250,4681 L250,4679 L246,4679 Z" id="glasses-[#762]"></path>
            </g>
        </g>
    </g>
</svg>