<?xml version="1.0" encoding="UTF-8" standalone="no"?>
<svg width="20px" height="20px" viewBox="0 0 20 20" version="1.1" xmlns="http://www.w3.org/2000/svg" xmlns:xlink="http://www.w3.org/1999/xlink">
    <!-- Generator: Sketch 3.8.1 (29687) - http://www.bohemiancoding.com/sketch -->
    <title>golf [#785]</title>
    <desc>Created with Sketch.</desc>
    <defs></defs>
    <g id="Page-1" stroke="none" stroke-width="1" fill="none" fill-rule="evenodd">
        <g id="Dribbble-Dark-Preview" transform="translate(-180.000000, -4759.000000)" fill="#FFFFFF">
            <g id="icons" transform="translate(56.000000, 160.000000)">
                <path d="M141.888431,4610.307 C140.249094,4610.576 138.736862,4611.338 137.538885,4612.535 C136.310884,4613.762 135.573283,4615.291 135.311069,4616.885 C136.950405,4616.616 138.463639,4615.854 139.661616,4614.657 C140.888616,4613.43 141.626217,4611.9 141.888431,4610.307 M133.27641,4616.965 C133.539625,4614.829 134.482393,4612.761 136.122731,4611.121 C137.763068,4609.482 139.831754,4608.541 141.968496,4608.277 C141.806364,4606.476 141.038738,4604.719 139.661616,4603.343 C138.321523,4602.004 136.589111,4601.201 134.72359,4601.035 C134.460375,4603.171 133.517607,4605.239 131.877269,4606.878 C130.236932,4608.517 128.168246,4609.459 126.031504,4609.722 C126.193636,4611.524 126.961262,4613.281 128.338384,4614.657 C129.678477,4615.996 131.410889,4616.798 133.27641,4616.965 M126.111569,4607.692 C127.750906,4607.424 129.264139,4606.661 130.462116,4605.464 C131.689116,4604.238 132.426717,4602.708 132.688931,4601.115 C131.049595,4601.383 129.536361,4602.146 128.338384,4603.343 C127.111384,4604.569 126.373783,4606.099 126.111569,4607.692 M143.92309,4610.227 C143.660876,4612.363 142.718107,4614.431 141.076769,4616.071 C139.436432,4617.71 137.367745,4618.651 135.232004,4618.915 C134.822671,4618.965 134.411335,4619 134,4619 C133.74279,4619 133.485581,4618.983 133.228371,4618.963 C130.930498,4618.786 128.680664,4617.827 126.923231,4616.071 C125.165798,4614.314 124.205015,4612.067 124.028871,4609.771 C123.97783,4609.105 123.994843,4608.436 124.07691,4607.772 C124.340125,4605.636 125.281893,4603.568 126.923231,4601.929 C128.563568,4600.29 130.632255,4599.348 132.768996,4599.085 C133.177329,4599.034 133.588665,4599 134,4599 C134.25721,4599 134.514419,4599.017 134.771629,4599.037 C137.069502,4599.213 139.319336,4600.172 141.076769,4601.929 C142.834202,4603.685 143.794985,4605.932 143.971129,4608.229 C144.02217,4608.895 144.005157,4609.564 143.92309,4610.227 M134.771629,4599.037 C134.514419,4599.017 134.25721,4599 134,4599 C133.588665,4599 133.177329,4599.034 132.768996,4599.085 M124.07691,4607.772 C123.994843,4608.436 123.97783,4609.105 124.028871,4609.771 M143.92309,4610.227 C144.005157,4609.564 144.02217,4608.895 143.971129,4608.229 M135.232004,4618.915 C134.822671,4618.965 134.411335,4619 134,4619 C133.74279,4619 133.485581,4618.983 133.228371,4618.963" id="golf-[#785]"></path>
            </g>
        </g>
    </g>
</svg>