<?xml version="1.0" encoding="UTF-8" standalone="no"?>
<svg width="20px" height="12px" viewBox="0 0 20 12" version="1.1" xmlns="http://www.w3.org/2000/svg" xmlns:xlink="http://www.w3.org/1999/xlink">
    <!-- Generator: Sketch 3.8.1 (29687) - http://www.bohemiancoding.com/sketch -->
    <title>google_plus [#165]</title>
    <desc>Created with Sketch.</desc>
    <defs></defs>
    <g id="Page-1" stroke="none" stroke-width="1" fill="none" fill-rule="evenodd">
        <g id="Dribbble-Dark-Preview" transform="translate(-420.000000, -7443.000000)" fill="#FFFFFF">
            <g id="icons" transform="translate(56.000000, 160.000000)">
                <path d="M382,7287.70673 L382,7285.82629 L380,7285.82629 L380,7287.70673 L378,7287.70673 L378,7289.58717 L380,7289.58717 L380,7291.4676 L382,7291.4676 L382,7289.58717 L384,7289.58717 L384,7287.70673 L382,7287.70673 Z M376.4,7287.70673 C376.454,7287.70673 376.5,7288.5266 376.5,7288.92055 C376.5,7292.34671 374.058,7295 370.377,7295 C366.852,7295 364,7292.31568 364,7289.00141 C364,7285.6862 366.852,7283 370.377,7283 C372.099,7283 373.539,7283.58105 374.65,7284.55794 L372.919,7286.10648 C372.446,7285.67774 371.616,7285.14276 370.377,7285.14276 C368.2,7285.14276 366.423,7286.76087 366.423,7288.85098 C366.423,7290.94108 368.2,7292.48304 370.377,7292.48304 C372.901,7292.48304 373.849,7290.52738 373.994,7289.58717 L370,7289.58717 L370,7287.70673 L376.4,7287.70673 Z" id="google_plus-[#165]"></path>
            </g>
        </g>
    </g>
</svg>