<?xml version="1.0" encoding="UTF-8" standalone="no"?>
<svg width="19px" height="20px" viewBox="0 0 19 20" version="1.1" xmlns="http://www.w3.org/2000/svg" xmlns:xlink="http://www.w3.org/1999/xlink">
    <!-- Generator: Sketch 3.8.1 (29687) - http://www.bohemiancoding.com/sketch -->
    <title>google_wallet [#147]</title>
    <desc>Created with Sketch.</desc>
    <defs></defs>
    <g id="Page-1" stroke="none" stroke-width="1" fill="none" fill-rule="evenodd">
        <g id="Dribbble-Dark-Preview" transform="translate(-341.000000, -7519.000000)" fill="#FFFFFF">
            <g id="icons" transform="translate(56.000000, 160.000000)">
                <path d="M290.649127,7365.80295 C289.315491,7364.62295 288.154491,7363.98995 288.04041,7363.92795 C287.04195,7363.38895 285.794127,7363.74195 285.250981,7364.72995 C284.707835,7365.71795 285.075316,7366.93095 286.072767,7367.46896 C286.11315,7367.49096 289.501251,7369.33496 290.511826,7372.64396 C291.907045,7370.36896 291.17511,7367.33195 290.649127,7365.80295 M302.071349,7360.14894 C301.522145,7359.10394 300.220816,7358.69694 299.16582,7359.24194 C298.110824,7359.78594 297.70094,7361.07495 298.250144,7362.11995 C298.284469,7362.18395 301.55748,7368.57196 298.121929,7375.97497 C297.625223,7377.04497 298.098709,7378.31197 299.178944,7378.80397 C300.259179,7379.29697 301.538298,7378.82797 302.036014,7377.75697 C306.343829,7368.47596 302.248023,7360.48494 302.071349,7360.14894 M297.833194,7373.96197 C297.579793,7372.41496 297.057847,7371.09896 296.430907,7369.98996 C296.361247,7371.90696 295.869589,7373.95597 294.539991,7375.82997 C293.890841,7376.74597 292.607683,7376.97497 291.675855,7376.32597 C290.746045,7375.67897 290.522931,7374.40897 291.17511,7373.48896 C292.392646,7371.77296 293.012519,7368.80896 291.192273,7364.42695 C290.677394,7363.32395 291.15189,7362.15295 292.123092,7361.68095 C292.794453,7361.35495 293.611191,7361.45495 294.170491,7361.76095 C294.337069,7361.85195 296.288559,7362.95995 298.231972,7365.19895 C298.726659,7367.29595 299.023471,7370.45396 297.833194,7373.96197" id="google_wallet-[#147]"></path>
            </g>
        </g>
    </g>
</svg>