<?xml version="1.0" encoding="UTF-8" standalone="no"?>
<svg width="20px" height="20px" viewBox="0 0 20 20" version="1.1" xmlns="http://www.w3.org/2000/svg" xmlns:xlink="http://www.w3.org/1999/xlink">
    <!-- Generator: Sketch 3.8.1 (29687) - http://www.bohemiancoding.com/sketch -->
    <title>google_chrome [#157]</title>
    <desc>Created with Sketch.</desc>
    <defs></defs>
    <g id="Page-1" stroke="none" stroke-width="1" fill="none" fill-rule="evenodd">
        <g id="Dribbble-Dark-Preview" transform="translate(-340.000000, -7478.000000)" fill="#FFFFFF">
            <g id="icons" transform="translate(56.000000, 160.000000)">
                <path d="M289.984927,7326.44101 C290.804646,7324.46637 292.659903,7323.48351 294.06075,7323.48153 C294.036,7323.4845 294.20628,7323.50632 302.991525,7323.50632 C299.89778,7317.55562 294.06867,7318.00787 294.06867,7318.00787 C288.173231,7318.23995 285.864555,7322.54727 285.864555,7322.54727 L289.931468,7326.54416 L289.984927,7326.44101 Z M289.810688,7329.32909 C288.63853,7327.29494 286.470434,7323.60153 285.864555,7322.54727 C281.904562,7328.16275 285.483405,7333.08299 285.483405,7333.08299 C288.52864,7337.91496 293.099462,7337.99132 293.395471,7337.99132 L294.715139,7332.51469 C292.487643,7332.84397 290.402707,7331.45051 289.810688,7329.32909 L289.810688,7329.32909 Z M302.991525,7323.50632 L297.545544,7325.20822 C298.417733,7326.34679 299.161221,7328.99684 297.405954,7331.02999 C296.252606,7333.03141 294.01521,7336.91722 293.395471,7337.99132 C300.01262,7338.24324 302.713335,7332.92529 302.713335,7332.92529 C305.350691,7327.89794 303.141014,7323.81278 302.991525,7323.50632 L302.991525,7323.50632 Z M297.742554,7328.13795 C297.742554,7330.17111 296.097177,7331.82243 294.06471,7331.82243 C292.035214,7331.82243 290.386867,7330.17111 290.386867,7328.13795 C290.386867,7326.1048 292.032244,7324.45348 294.06471,7324.45348 C296.094207,7324.45348 297.742554,7326.10182 297.742554,7328.13795 L297.742554,7328.13795 Z" id="google_chrome-[#157]"></path>
            </g>
        </g>
    </g>
</svg>