<?xml version="1.0" encoding="UTF-8" standalone="no"?>
<svg width="21px" height="20px" viewBox="0 0 21 20" version="1.1" xmlns="http://www.w3.org/2000/svg" xmlns:xlink="http://www.w3.org/1999/xlink">
    <!-- Generator: Sketch 3.8.1 (29687) - http://www.bohemiancoding.com/sketch -->
    <title>grid [#1525]</title>
    <desc>Created with Sketch.</desc>
    <defs></defs>
    <g id="Page-1" stroke="none" stroke-width="1" fill="none" fill-rule="evenodd">
        <g id="Dribbble-Dark-Preview" transform="translate(-259.000000, -200.000000)" fill="#FFFFFF">
            <g id="icons" transform="translate(56.000000, 160.000000)">
                <path d="M219.8,58 L221.9,58 L221.9,56 L219.8,56 L219.8,58 Z M221.9,54 L219.8,54 C218.63975,54 217.7,54.895 217.7,56 L217.7,58 C217.7,59.104 218.63975,60 219.8,60 L221.9,60 C223.0592,60 224,59.104 224,58 L224,56 C224,54.895 223.0592,54 221.9,54 L221.9,54 Z M212.45,58 L214.55,58 L214.55,56 L212.45,56 L212.45,58 Z M214.55,54 L212.45,54 C211.28975,54 210.35,54.895 210.35,56 L210.35,58 C210.35,59.104 211.28975,60 212.45,60 L214.55,60 C215.7092,60 216.65,59.104 216.65,58 L216.65,56 C216.65,54.895 215.7092,54 214.55,54 L214.55,54 Z M205.1,58 L207.2,58 L207.2,56 L205.1,56 L205.1,58 Z M207.2,54 L205.1,54 C203.93975,54 203,54.895 203,56 L203,58 C203,59.104 203.93975,60 205.1,60 L207.2,60 C208.3592,60 209.3,59.104 209.3,58 L209.3,56 C209.3,54.895 208.3592,54 207.2,54 L207.2,54 Z M219.8,51 L221.9,51 L221.9,49 L219.8,49 L219.8,51 Z M221.9,47 L219.8,47 C218.63975,47 217.7,47.895 217.7,49 L217.7,51 C217.7,52.104 218.63975,53 219.8,53 L221.9,53 C223.0592,53 224,52.104 224,51 L224,49 C224,47.895 223.0592,47 221.9,47 L221.9,47 Z M212.45,51 L214.55,51 L214.55,49 L212.45,49 L212.45,51 Z M214.55,47 L212.45,47 C211.28975,47 210.35,47.895 210.35,49 L210.35,51 C210.35,52.104 211.28975,53 212.45,53 L214.55,53 C215.7092,53 216.65,52.104 216.65,51 L216.65,49 C216.65,47.895 215.7092,47 214.55,47 L214.55,47 Z M205.1,51 L207.2,51 L207.2,49 L205.1,49 L205.1,51 Z M207.2,47 L205.1,47 C203.93975,47 203,47.895 203,49 L203,51 C203,52.104 203.93975,53 205.1,53 L207.2,53 C208.3592,53 209.3,52.104 209.3,51 L209.3,49 C209.3,47.895 208.3592,47 207.2,47 L207.2,47 Z M219.8,44 L221.9,44 L221.9,42 L219.8,42 L219.8,44 Z M221.9,40 L219.8,40 C218.63975,40 217.7,40.895 217.7,42 L217.7,44 C217.7,45.104 218.63975,46 219.8,46 L221.9,46 C223.0592,46 224,45.104 224,44 L224,42 C224,40.895 223.0592,40 221.9,40 L221.9,40 Z M212.45,44 L214.55,44 L214.55,42 L212.45,42 L212.45,44 Z M214.55,40 L212.45,40 C211.28975,40 210.35,40.895 210.35,42 L210.35,44 C210.35,45.104 211.28975,46 212.45,46 L214.55,46 C215.7092,46 216.65,45.104 216.65,44 L216.65,42 C216.65,40.895 215.7092,40 214.55,40 L214.55,40 Z M205.1,44 L207.2,44 L207.2,42 L205.1,42 L205.1,44 Z M207.2,40 L205.1,40 C203.93975,40 203,40.895 203,42 L203,44 C203,45.104 203.93975,46 205.1,46 L207.2,46 C208.3592,46 209.3,45.104 209.3,44 L209.3,42 C209.3,40.895 208.3592,40 207.2,40 L207.2,40 Z" id="grid-[#1525]"></path>
            </g>
        </g>
    </g>
</svg>