<?xml version="1.0" encoding="UTF-8" standalone="no"?>
<svg width="20px" height="20px" viewBox="0 0 20 20" version="1.1" xmlns="http://www.w3.org/2000/svg" xmlns:xlink="http://www.w3.org/1999/xlink">
    <!-- Generator: Sketch 3.8.1 (29687) - http://www.bohemiancoding.com/sketch -->
    <title>hanger [#109]</title>
    <desc>Created with Sketch.</desc>
    <defs></defs>
    <g id="Page-1" stroke="none" stroke-width="1" fill="none" fill-rule="evenodd">
        <g id="Dribbble-Dark-Preview" transform="translate(-420.000000, -7719.000000)" fill="#FFFFFF">
            <g id="icons" transform="translate(56.000000, 160.000000)">
                <path d="M382.9994,7567.0001 C382.4474,7567.0001 382.0004,7567.4481 382.0004,7568.0001 L382.0004,7570.0001 C382.0004,7570.5521 381.5504,7571.0001 380.9984,7571.0001 L375.0004,7571.0001 L375.0004,7560.0001 C375.0004,7559.4481 374.5514,7559.0001 373.9994,7559.0001 C373.4474,7559.0001 373.0004,7559.4481 373.0004,7560.0001 L373.0004,7567.0001 L366.9984,7567.0001 C366.4464,7567.0001 366.0004,7566.5521 366.0004,7566.0001 L366.0004,7564.0001 C366.0004,7563.4481 365.5514,7563.0001 364.9994,7563.0001 C364.4474,7563.0001 364.0004,7563.4481 364.0004,7564.0001 L364.0004,7567.0001 C364.0004,7568.1041 364.8934,7569.0001 365.9984,7569.0001 L373.0004,7569.0001 L373.0004,7577.0001 L369.9984,7577.0001 C369.4524,7577.0001 369.0134,7577.3341 369.0034,7577.8751 C369.0224,7578.4181 369.4584,7579.0001 369.9984,7579.0001 L377.9984,7579.0001 C378.5504,7579.0001 379.0004,7578.4451 379.0004,7577.8921 L379.0004,7577.8391 C379.0004,7577.2861 378.5504,7577.0001 377.9984,7577.0001 L375.0004,7577.0001 L375.0004,7573.0001 L381.9984,7573.0001 C383.1024,7573.0001 384.0004,7572.1041 384.0004,7571.0001 L384.0004,7568.0001 C384.0004,7567.4481 383.5514,7567.0001 382.9994,7567.0001 L382.9994,7567.0001 Z M369.0004,7577.8391 C369.0004,7577.8511 369.0034,7577.8631 369.0034,7577.8751 C369.0034,7577.8821 369.0004,7577.8861 369.0004,7577.8921 L369.0004,7577.8391 Z" id="hanger-[#109]"></path>
            </g>
        </g>
    </g>
</svg>