<?xml version="1.0" encoding="UTF-8" standalone="no"?>
<svg width="17px" height="20px" viewBox="0 0 17 20" version="1.1" xmlns="http://www.w3.org/2000/svg" xmlns:xlink="http://www.w3.org/1999/xlink">
    <!-- Generator: Sketch 3.8.1 (29687) - http://www.bohemiancoding.com/sketch -->
    <title>hangouts [#153]</title>
    <desc>Created with Sketch.</desc>
    <defs></defs>
    <g id="Page-1" stroke="none" stroke-width="1" fill="none" fill-rule="evenodd">
        <g id="Dribbble-Dark-Preview" transform="translate(-101.000000, -7519.000000)" fill="#FFFFFF">
            <g id="icons" transform="translate(56.000000, 160.000000)">
                <path d="M56.4051748,7371.242 C56.1564399,7371.31 56.1227467,7371.341 55.7620315,7371.394 C55.6114032,7371.417 55.4974409,7371.331 55.495459,7371.177 C55.4914951,7370.888 55.494468,7370.437 55.495459,7370.151 C55.495459,7370.003 55.5519446,7369.94 55.7342842,7369.899 C56.2773389,7369.773 56.6271534,7369.489 56.7361607,7368.862 C55.9602266,7368.86 54.6640303,7368.858 54.6640303,7368.858 C54.4093495,7368.854 54.2359287,7368.676 54.2359287,7368.418 C54.2359287,7368.378 54.2389016,7365.38 54.2359287,7365.34 C54.2022355,7365.015 54.4182682,7364.83 54.6491656,7364.83 C55.6341956,7364.83 56.6192256,7364.831 57.6042556,7364.829 C57.8658732,7364.829 58.0828969,7365.096 57.9996549,7365.357 C58.0254203,7365.421 58.0155105,7368.806 58.0155105,7368.88 C58.0145196,7369.83 57.5418241,7370.663 56.4051748,7371.242 C56.4220214,7371.262 56.4408499,7371.268 56.4616604,7371.269 C56.4408499,7371.268 56.4210304,7371.262 56.4051748,7371.242 M50.4761664,7371.398 C50.3612132,7371.415 50.285899,7371.351 50.243287,7371.246 C50.243287,7370.923 50.244278,7370.601 50.244278,7370.278 C50.2551787,7370.103 50.1957202,7369.971 50.4246356,7369.913 C51.0519233,7369.753 51.3224597,7369.562 51.4820068,7368.862 C51.3779544,7368.862 49.3870839,7368.869 49.2869953,7368.841 C49.1145656,7368.793 48.9827658,7368.634 48.9827658,7368.456 C48.9817748,7367.427 48.9837567,7366.397 48.9847477,7365.369 C48.9540275,7365.01 49.1542046,7364.83 49.3751922,7364.83 C50.367159,7364.83 51.3581349,7364.831 52.3501017,7364.83 C52.6127103,7364.829 52.829734,7365.096 52.745501,7365.358 C52.7782032,7365.436 52.7613566,7368.789 52.7603657,7368.875 C52.7514469,7370.053 51.9705579,7371.178 50.4761664,7371.398 M61.8674336,7366.055 C61.1995159,7362.383 58.2652364,7359 52.8981113,7359 C52.8981113,7359 52.1826267,7359.094 51.9755128,7359.134 C48.069086,7359.881 45.3092183,7363.081 45.0238173,7366.947 C44.6631021,7371.822 48.4436749,7376.079 53.3757617,7376.141 C53.4758502,7376.142 53.5026066,7376.167 53.5016156,7376.27 C53.5006246,7376.496 53.4936878,7378.779 53.5035975,7379 C55.8095983,7378.052 58.6209968,7375.743 60.0341283,7373.688 C61.811939,7371.103 62.261842,7368.228 61.8674336,7366.055" id="hangouts-[#153]"></path>
            </g>
        </g>
    </g>
</svg>