<?xml version="1.0" encoding="UTF-8" standalone="no"?>
<svg width="20px" height="20px" viewBox="0 0 20 20" version="1.1" xmlns="http://www.w3.org/2000/svg" xmlns:xlink="http://www.w3.org/1999/xlink">
    <!-- Generator: Sketch 3.8.1 (29687) - http://www.bohemiancoding.com/sketch -->
    <title>HD [#941]</title>
    <desc>Created with Sketch.</desc>
    <defs></defs>
    <g id="Page-1" stroke="none" stroke-width="1" fill="none" fill-rule="evenodd">
        <g id="Dribbble-Dark-Preview" transform="translate(-420.000000, -3999.000000)" fill="#FFFFFF">
            <g id="icons" transform="translate(56.000000, 160.000000)">
                <path d="M367,3845 L367,3853 L369,3853 L369,3850 L371,3850 L371,3853 L373,3853 L373,3845 L371,3845 L371,3848 L369,3848 L369,3845 L367,3845 Z M379,3847.5 C379,3847.224 378.776,3847 378.5,3847 L377,3847 L377,3851 L378.5,3851 C378.775,3851 379,3850.775 379,3850.5 L379,3847.5 Z M379.395,3853 L375,3853 L375,3845 L379.395,3845 C380.282,3845 381,3845.719 381,3846.605 L381,3851.395 C381,3852.281 380.282,3853 379.395,3853 L379.395,3853 Z M364,3839 L364,3843 L366,3843 L366,3841 L382,3841 L382,3843 L384,3843 L384,3839 L364,3839 Z M382,3855 L384,3855 L384,3859 L364,3859 L364,3855 L366,3855 L366,3857 L382,3857 L382,3855 Z" id="HD-[#941]"></path>
            </g>
        </g>
    </g>
</svg>