<?xml version="1.0" encoding="UTF-8" standalone="no"?>
<svg width="20px" height="20px" viewBox="0 0 20 20" version="1.1" xmlns="http://www.w3.org/2000/svg" xmlns:xlink="http://www.w3.org/1999/xlink">
    <!-- Generator: Sketch 3.8.1 (29687) - http://www.bohemiancoding.com/sketch -->
    <title>HD [#942]</title>
    <desc>Created with Sketch.</desc>
    <defs></defs>
    <g id="Page-1" stroke="none" stroke-width="1" fill="none" fill-rule="evenodd">
        <g id="Dribbble-Dark-Preview" transform="translate(-380.000000, -3999.000000)" fill="#FFFFFF">
            <g id="icons" transform="translate(56.000000, 160.000000)">
                <path d="M327,3846 L327,3852 C327,3852.552 327.448,3853 328,3853 C328.552,3853 329,3852.552 329,3852 L329,3850 L331,3850 L331,3852 C331,3852.552 331.448,3853 332,3853 C332.552,3853 333,3852.552 333,3852 L333,3846 C333,3845.448 332.552,3845 332,3845 C331.448,3845 331,3845.448 331,3846 L331,3848 L329,3848 L329,3846 C329,3845.448 328.552,3845 328,3845 C327.448,3845 327,3845.448 327,3846 L327,3846 Z M339,3847.5 C339,3847.224 338.776,3847 338.5,3847 L337,3847 L337,3851 L338.5,3851 C338.775,3851 339,3850.775 339,3850.5 L339,3847.5 Z M339.395,3853 L336,3853 C335.448,3853 335,3852.552 335,3852 L335,3846 C335,3845.448 335.448,3845 336,3845 L339.395,3845 C340.282,3845 341,3845.718 341,3846.605 L341,3851.395 C341,3852.282 340.282,3853 339.395,3853 L339.395,3853 Z M326,3839 C324.895,3839 324,3839.895 324,3841 L324,3842 C324,3842.552 324.448,3843 325,3843 C325.552,3843 326,3842.552 326,3842 C326,3841.448 326.448,3841 327,3841 L341,3841 C341.552,3841 342,3841.448 342,3842 C342,3842.552 342.448,3843 343,3843 C343.552,3843 344,3842.552 344,3842 L344,3841 C344,3839.895 343.105,3839 342,3839 L326,3839 Z M342,3856 L342,3856 C342,3855.448 342.448,3855 343,3855 C343.552,3855 344,3855.448 344,3856 L344,3857 C344,3858.105 343.105,3859 342,3859 L326,3859 C324.895,3859 324,3858.105 324,3857 L324,3856 C324,3855.448 324.448,3855 325,3855 C325.552,3855 326,3855.448 326,3856 C326,3856.552 326.448,3857 327,3857 L341,3857 C341.552,3857 342,3856.552 342,3856 L342,3856 Z" id="HD-[#942]"></path>
            </g>
        </g>
    </g>
</svg>