<?xml version="1.0" encoding="UTF-8" standalone="no"?>
<svg width="21px" height="10px" viewBox="0 0 21 10" version="1.1" xmlns="http://www.w3.org/2000/svg" xmlns:xlink="http://www.w3.org/1999/xlink">
    <!-- Generator: Sketch 3.8.1 (29687) - http://www.bohemiancoding.com/sketch -->
    <title>header [#1539]</title>
    <desc>Created with Sketch.</desc>
    <defs></defs>
    <g id="Page-1" stroke="none" stroke-width="1" fill="none" fill-rule="evenodd">
        <g id="Dribbble-Dark-Preview" transform="translate(-99.000000, -165.000000)" fill="#FFFFFF">
            <g id="icons" transform="translate(56.000000, 160.000000)">
                <path d="M46.15,5 C47.88985,5 49.3,6.343 49.3,8 C49.3,9.657 47.88985,11 46.15,11 C44.41015,11 43,9.657 43,8 C43,6.343 44.41015,5 46.15,5 L46.15,5 Z M46.15,7 C45.57145,7 45.1,7.449 45.1,8 C45.1,8.551 45.57145,9 46.15,9 C46.72855,9 47.2,8.551 47.2,8 C47.2,7.449 46.72855,7 46.15,7 L46.15,7 Z M43,15 L64,15 L64,13 L43,13 L43,15 Z M51.4,7 L64,7 L64,5 L51.4,5 L51.4,7 Z M51.4,11 L64,11 L64,9 L51.4,9 L51.4,11 Z" id="header-[#1539]"></path>
            </g>
        </g>
    </g>
</svg>