<?xml version="1.0" encoding="UTF-8" standalone="no"?>
<svg width="20px" height="14px" viewBox="0 0 20 14" version="1.1" xmlns="http://www.w3.org/2000/svg" xmlns:xlink="http://www.w3.org/1999/xlink">
    <!-- Generator: Sketch 3.8.1 (29687) - http://www.bohemiancoding.com/sketch -->
    <title>headphones [#992]</title>
    <desc>Created with Sketch.</desc>
    <defs></defs>
    <g id="Page-1" stroke="none" stroke-width="1" fill="none" fill-rule="evenodd">
        <g id="Dribbble-Dark-Preview" transform="translate(-380.000000, -3802.000000)" fill="#FFFFFF">
            <g id="icons" transform="translate(56.000000, 160.000000)">
                <path d="M343.995719,3652.839 C344.087004,3654.569 342.706693,3656 340.990332,3656 C339.370272,3656 338.044131,3654.678 338.044131,3653.063 L338.044131,3644.998 C338.044131,3644.447 337.59573,3644 337.043004,3644 L330.611918,3644 C330.283894,3644 330.019067,3644.265 330.019067,3644.591 L330.019067,3653 C330.019067,3654.657 328.671859,3656 327.009668,3656 C325.293307,3656 323.912996,3654.569 324.004281,3652.839 C324.089548,3651.217 325.550109,3650 327.1802,3650 L328.012801,3650 L328.012801,3643.593 C328.012801,3642.714 328.728035,3642 329.610792,3642 L338.452406,3642 C339.33416,3642 340.050397,3642.714 340.050397,3643.593 L340.050397,3650 L340.820803,3650 C342.449891,3650 343.910452,3651.217 343.995719,3652.839" id="headphones-[#992]"></path>
            </g>
        </g>
    </g>
</svg>