<?xml version="1.0" encoding="UTF-8" standalone="no"?>
<svg width="20px" height="20px" viewBox="0 0 20 20" version="1.1" xmlns="http://www.w3.org/2000/svg" xmlns:xlink="http://www.w3.org/1999/xlink">
    <!-- Generator: Sketch 3.8.1 (29687) - http://www.bohemiancoding.com/sketch -->
    <title>helmet [#598]</title>
    <desc>Created with Sketch.</desc>
    <defs></defs>
    <g id="Page-1" stroke="none" stroke-width="1" fill="none" fill-rule="evenodd">
        <g id="Dribbble-Dark-Preview" transform="translate(-60.000000, -5559.000000)" fill="#FFFFFF">
            <g id="icons" transform="translate(56.000000, 160.000000)">
                <path d="M17.4644383,5416.35539 C16.7887918,5416.67906 16.0299426,5416.20515 16.0299426,5415.45195 L16.0299426,5414.1966 L21.9684139,5408.19718 C22.3493422,5411.68995 20.3905689,5414.95384 17.4644383,5416.35539 L17.4644383,5416.35539 Z M11.727458,5407.06687 L17.1055638,5401.6573 C17.7471272,5401.93156 18.3415758,5402.29354 18.8848998,5402.71905 L14.5623663,5407.06687 L11.727458,5407.06687 Z M6.21702978,5407.06687 C7.79687968,5402.54562 11.1871413,5400.66311 14.8550796,5401.06744 L8.89154725,5407.06687 L6.21702978,5407.06687 Z M21.3829873,5405.93454 L16.0299426,5411.3441 L16.0299426,5408.49261 L20.3394443,5404.14479 C20.7624752,5404.6913 21.1093204,5405.28922 21.3829873,5405.93454 L21.3829873,5405.93454 Z M23.8600236,5407.37541 C23.1783624,5403.19699 19.8281985,5399.82622 15.6740754,5399.14057 C10.0994909,5398.21998 5.18852344,5401.93055 4.15199756,5407.06687 L4.14798779,5407.08603 C3.95150899,5408.07013 3.95050655,5409.08348 4.1459829,5410.06658 L4.79556585,5413.32946 C4.88678815,5413.79227 5.29077261,5414.12501 5.75891341,5414.12501 C6.37942552,5414.12501 6.84455899,5413.55431 6.72326341,5412.94227 L6.19497604,5410.28942 C6.07167557,5409.66527 6.54583103,5409.08348 7.17837245,5409.08348 L12.972492,5409.08348 C13.5268429,5409.08348 14.025057,5409.53419 14.025057,5410.09179 L14.025057,5417.279 C14.025057,5418.33873 14.953319,5419.17663 15.9858351,5418.96791 C15.9918498,5418.9659 15.9858351,5418.96489 15.9928522,5418.96388 C21.0762398,5417.92532 24.7772587,5413.00176 23.8600236,5407.37541 L23.8600236,5407.37541 Z" id="helmet-[#598]"></path>
            </g>
        </g>
    </g>
</svg>