<?xml version="1.0" encoding="UTF-8" standalone="no"?>
<svg width="20px" height="20px" viewBox="0 0 20 20" version="1.1" xmlns="http://www.w3.org/2000/svg" xmlns:xlink="http://www.w3.org/1999/xlink">
    <!-- Generator: Sketch 3.8.1 (29687) - http://www.bohemiancoding.com/sketch -->
    <title>helmet [#599]</title>
    <desc>Created with Sketch.</desc>
    <defs></defs>
    <g id="Page-1" stroke="none" stroke-width="1" fill="none" fill-rule="evenodd">
        <g id="Dribbble-Dark-Preview" transform="translate(-420.000000, -5519.000000)" fill="#FFFFFF">
            <g id="icons" transform="translate(56.000000, 160.000000)">
                <path d="M379.643756,5374.78741 C378.992272,5375.44383 378.270629,5375.96916 377.462789,5376.35636 C376.786249,5376.68003 376.027521,5376.20612 376.027521,5375.4529 L376.027521,5369.05612 C376.027521,5367.94192 375.081366,5367.0667 373.973844,5367.0667 L366.21718,5367.0667 C367.805798,5362.52119 371.232601,5360.62756 374.977129,5361.07727 C378.520197,5361.50379 381.420803,5364.36743 381.911921,5367.92276 C382.267731,5370.49902 381.427819,5372.9926 379.643756,5374.78741 L379.643756,5374.78741 Z M374.022956,5377.27998 C374.022956,5378.33872 374.951069,5379.17663 375.98342,5378.96791 C375.990436,5378.9669 375.984423,5378.96589 375.990436,5378.96388 C377.953908,5378.56357 379.703893,5377.5855 381.066997,5376.21318 C383.245959,5374.0221 384.422639,5370.82572 383.860358,5367.37525 C383.178806,5363.19676 379.827174,5359.82595 375.672713,5359.14029 C370.09902,5358.2207 365.188838,5361.93132 364.152478,5367.0667 L364.148469,5367.08687 C363.952022,5368.06796 363.950017,5369.07931 364.145462,5370.06242 L364.795944,5373.33039 C364.887151,5373.7922 365.291071,5374.12495 365.759137,5374.12495 L365.759137,5374.12495 C366.37955,5374.12495 366.844609,5373.55424 366.723333,5372.94219 L366.19513,5370.28929 C366.071849,5369.66514 366.545929,5369.08334 367.178369,5369.08334 L372.971562,5369.08334 C373.524821,5369.08334 374.022956,5369.53507 374.022956,5370.09166 L374.022956,5377.27998 Z" id="helmet-[#599]"></path>
            </g>
        </g>
    </g>
</svg>