<?xml version="1.0" encoding="UTF-8" standalone="no"?>
<svg width="20px" height="20px" viewBox="0 0 20 20" version="1.1" xmlns="http://www.w3.org/2000/svg" xmlns:xlink="http://www.w3.org/1999/xlink">
    <!-- Generator: Sketch 3.8.1 (29687) - http://www.bohemiancoding.com/sketch -->
    <title>helmet [#591]</title>
    <desc>Created with Sketch.</desc>
    <defs></defs>
    <g id="Page-1" stroke="none" stroke-width="1" fill="none" fill-rule="evenodd">
        <g id="Dribbble-Dark-Preview" transform="translate(-340.000000, -5559.000000)" fill="#FFFFFF">
            <g id="icons" transform="translate(56.000000, 160.000000)">
                <path d="M301.969958,5403.018 C301.396916,5402.252 300.719049,5401.573 299.955326,5401 C298.288113,5399.749 296.225561,5399 293.98331,5399 C291.741059,5399 289.678507,5399.749 288.011294,5401 C286.819287,5401.894 284.68186,5404.215 284.245589,5407 L296.978303,5407 L294.981641,5413 L284,5413 L284,5414.833 C284,5417.042 285.788011,5419 287.993324,5419 L299.973296,5419 C302.178609,5419 303.96662,5417.042 303.96662,5414.833 C303.96662,5408.958 304.421859,5406.297 301.969958,5403.018 L301.969958,5403.018 Z" id="helmet-[#591]"></path>
            </g>
        </g>
    </g>
</svg>