<?xml version="1.0" encoding="UTF-8" standalone="no"?>
<svg width="20px" height="20px" viewBox="0 0 20 20" version="1.1" xmlns="http://www.w3.org/2000/svg" xmlns:xlink="http://www.w3.org/1999/xlink">
    <!-- Generator: Sketch 3.8.1 (29687) - http://www.bohemiancoding.com/sketch -->
    <title>helmet [#593]</title>
    <desc>Created with Sketch.</desc>
    <defs></defs>
    <g id="Page-1" stroke="none" stroke-width="1" fill="none" fill-rule="evenodd">
        <g id="Dribbble-Dark-Preview" transform="translate(-260.000000, -5559.000000)" fill="#FFFFFF">
            <g id="icons" transform="translate(56.000000, 160.000000)">
                <path d="M222,5414.833 C222,5415.938 221.105,5417 220,5417 L208.018,5417 L207.852,5417 C206.829,5417 206,5416.004 206,5414.981 L206,5413 L215,5413 L217,5407 L206.367,5407 C207.319,5404 210.049,5401.329 213.452,5401.101 C218.11,5400.789 222,5404.407 222,5409 L222,5414.833 Z M214,5399 C211.754,5399 209.688,5399.749 208.018,5401 C205.548,5402.85 204,5405.788 204,5409 L204,5414.833 C204,5417.042 205.791,5419 208,5419 L220,5419 C222.209,5419 224,5417.042 224,5414.833 L224,5409 C224,5403.508 219.506,5399 214,5399 L214,5399 Z" id="helmet-[#593]"></path>
            </g>
        </g>
    </g>
</svg>