<?xml version="1.0" encoding="UTF-8" standalone="no"?>
<svg width="20px" height="20px" viewBox="0 0 20 20" version="1.1" xmlns="http://www.w3.org/2000/svg" xmlns:xlink="http://www.w3.org/1999/xlink">
    <!-- Generator: Sketch 3.8.1 (29687) - http://www.bohemiancoding.com/sketch -->
    <title>helmet_round [#592]</title>
    <desc>Created with Sketch.</desc>
    <defs></defs>
    <g id="Page-1" stroke="none" stroke-width="1" fill="none" fill-rule="evenodd">
        <g id="Dribbble-Dark-Preview" transform="translate(-300.000000, -5559.000000)" fill="#FFFFFF">
            <g id="icons" transform="translate(56.000000, 160.000000)">
                <path d="M262,5403.018 C261.426,5402.252 260.747,5401.573 259.982,5401 C258.312,5399.749 256.246,5399 254,5399 C251.754,5399 249.688,5399.749 248.018,5401 C245.861,5402.616 244.975,5404.68 244.246,5407 L254.225,5407 C255.59,5407 256.554,5408.254 256.123,5409.549 L255.456,5411.591 C255.184,5412.407 254.419,5413 253.558,5413 L244,5413 L244,5414.833 C244,5417.042 245.791,5419 248,5419 L260,5419 C262.209,5419 264,5417.042 264,5414.833 L264,5409 C264,5406.754 263.25,5404.687 262,5403.018" id="helmet_round-[#592]"></path>
            </g>
        </g>
    </g>
</svg>