<?xml version="1.0" encoding="UTF-8" standalone="no"?>
<svg width="21px" height="20px" viewBox="0 0 21 20" version="1.1" xmlns="http://www.w3.org/2000/svg" xmlns:xlink="http://www.w3.org/1999/xlink">
    <!-- Generator: Sketch 3.8.1 (29687) - http://www.bohemiancoding.com/sketch -->
    <title>help [#1436]</title>
    <desc>Created with Sketch.</desc>
    <defs></defs>
    <g id="Page-1" stroke="none" stroke-width="1" fill="none" fill-rule="evenodd">
        <g id="Dribbble-Dark-Preview" transform="translate(-219.000000, -560.000000)" fill="#FFFFFF">
            <g id="icons" transform="translate(56.000000, 160.000000)">
                <path d="M181.9,417 L181.9,407 C181.9,406.448 181.4296,406 180.85,406 L166.15,406 C165.5704,406 165.1,406.448 165.1,407 L165.1,417 C165.1,417.552 165.5704,418 166.15,418 L180.85,418 C181.4296,418 181.9,417.552 181.9,417 L181.9,417 Z M171.4,403 L171.4,404 L175.6,404 L175.6,403 C175.6,402.448 175.1296,402 174.55,402 L172.45,402 C171.8704,402 171.4,402.448 171.4,403 L171.4,403 Z M181.9,404 C183.06025,404 184,404.895 184,406 L184,418 C184,419.105 183.06025,420 181.9,420 L165.1,420 C163.93975,420 163,419.105 163,418 L163,406 C163,404.895 163.93975,404 165.1,404 L169.3,404 L169.3,402 C169.3,400.895 170.23975,400 171.4,400 L175.6,400 C176.76025,400 177.7,400.895 177.7,402 L177.7,404 L181.9,404 Z M172.45,415 L172.45,413 L170.35,413 C169.7704,413 169.3,412.552 169.3,412 C169.3,411.448 169.7704,411 170.35,411 L172.45,411 L172.45,409 C172.45,408.448 172.9204,408 173.5,408 C174.0796,408 174.55,408.448 174.55,409 L174.55,411 L176.65,411 C177.2296,411 177.7,411.448 177.7,412 C177.7,412.552 177.2296,413 176.65,413 L174.55,413 L174.55,415 C174.55,415.552 174.0796,416 173.5,416 C172.9204,416 172.45,415.552 172.45,415 L172.45,415 Z" id="help-[#1436]"></path>
            </g>
        </g>
    </g>
</svg>