<?xml version="1.0" encoding="UTF-8" standalone="no"?>
<svg width="21px" height="20px" viewBox="0 0 21 20" version="1.1" xmlns="http://www.w3.org/2000/svg" xmlns:xlink="http://www.w3.org/1999/xlink">
    <!-- Generator: Sketch 3.8.1 (29687) - http://www.bohemiancoding.com/sketch -->
    <title>help [#1435]</title>
    <desc>Created with Sketch.</desc>
    <defs></defs>
    <g id="Page-1" stroke="none" stroke-width="1" fill="none" fill-rule="evenodd">
        <g id="Dribbble-Dark-Preview" transform="translate(-259.000000, -560.000000)" fill="#FFFFFF">
            <g id="icons" transform="translate(56.000000, 160.000000)">
                <path d="M205.1,418 L221.9,418 L221.9,406 L205.1,406 L205.1,418 Z M211.4,404 L215.6,404 L215.6,402 L211.4,402 L211.4,404 Z M224,404 L224,420 L203,420 L203,404 L209.3,404 L209.3,400 L217.7,400 L217.7,404 L224,404 Z M212.45,413 L209.3,413 L209.3,411 L212.45,411 L212.45,408 L214.55,408 L214.55,411 L217.7,411 L217.7,413 L214.55,413 L214.55,416 L212.45,416 L212.45,413 Z" id="help-[#1435]"></path>
            </g>
        </g>
    </g>
</svg>