<?xml version="1.0" encoding="UTF-8" standalone="no"?>
<svg width="20px" height="20px" viewBox="0 0 20 20" version="1.1" xmlns="http://www.w3.org/2000/svg" xmlns:xlink="http://www.w3.org/1999/xlink">
    <!-- Generator: Sketch 3.8.1 (29687) - http://www.bohemiancoding.com/sketch -->
    <title>hospital [#1215]</title>
    <desc>Created with Sketch.</desc>
    <defs></defs>
    <g id="Page-1" stroke="none" stroke-width="1" fill="none" fill-rule="evenodd">
        <g id="Dribbble-Dark-Preview" transform="translate(-340.000000, -2719.000000)" fill="#FFFFFF">
            <g id="icons" transform="translate(56.000000, 160.000000)">
                <path d="M291,2565 L291,2573 L293,2573 L293,2570 L295,2570 L295,2573 L297,2573 L297,2565 L295,2565 L295,2568 L293,2568 L293,2565 L291,2565 Z M302,2573 L304,2573 L304,2565 L302,2565 L302,2573 Z M302,2577 L300,2577 L300,2579 L302.42,2579 L304,2579 L304,2576.667 L304,2575 L302,2575 L302,2577 Z M302.42,2559 L300,2559 L300,2561 L302,2561 L302,2563 L304,2563 L304,2560.667 L304,2559 L302.42,2559 Z M284,2573 L286,2573 L286,2565 L284,2565 L284,2573 Z M286,2575 L284,2575 L284,2576.667 L284,2579 L286.42,2579 L288,2579 L288,2577 L286,2577 L286,2575 Z M284,2559 L284,2560.667 L284,2563 L286,2563 L286,2561 L288,2561 L288,2559 L286.42,2559 L284,2559 Z M290,2579 L298,2579 L298,2577 L290,2577 L290,2579 Z M290,2561 L298,2561 L298,2559 L290,2559 L290,2561 Z" id="hospital-[#1215]"></path>
            </g>
        </g>
    </g>
</svg>