<?xml version="1.0" encoding="UTF-8" standalone="no"?>
<svg width="20px" height="20px" viewBox="0 0 20 20" version="1.1" xmlns="http://www.w3.org/2000/svg" xmlns:xlink="http://www.w3.org/1999/xlink">
    <!-- Generator: Sketch 3.8.1 (29687) - http://www.bohemiancoding.com/sketch -->
    <title>hospital [#1216]</title>
    <desc>Created with Sketch.</desc>
    <defs></defs>
    <g id="Page-1" stroke="none" stroke-width="1" fill="none" fill-rule="evenodd">
        <g id="Dribbble-Dark-Preview" transform="translate(-300.000000, -2719.000000)" fill="#FFFFFF">
            <g id="icons" transform="translate(56.000000, 160.000000)">
                <path d="M252,2565 C251.448,2565 251,2565.448 251,2566 L251,2572 C251,2572.552 251.448,2573 252,2573 C252.552,2573 253,2572.552 253,2572 L253,2570 L255,2570 L255,2572 C255,2572.552 255.448,2573 256,2573 C256.552,2573 257,2572.552 257,2572 L257,2566 C257,2565.448 256.552,2565 256,2565 C255.448,2565 255,2565.448 255,2566 L255,2568 L253,2568 L253,2566 C253,2565.448 252.552,2565 252,2565 M263,2565 C262.448,2565 262,2565.448 262,2566 L262,2572 C262,2572.552 262.448,2573 263,2573 C263.552,2573 264,2572.552 264,2572 L264,2566 C264,2565.448 263.552,2565 263,2565 M263,2575 C262.448,2575 262,2575.448 262,2576 C262,2576.552 261.552,2577 261,2577 C260.448,2577 260,2577.448 260,2578 C260,2578.552 260.448,2579 261,2579 L262,2579 C263.105,2579 264,2578.104 264,2577 L264,2576 C264,2575.448 263.552,2575 263,2575 M262,2559 L261,2559 C260.448,2559 260,2559.448 260,2560 C260,2560.552 260.448,2561 261,2561 C261.552,2561 262,2561.448 262,2562 C262,2562.552 262.448,2563 263,2563 C263.552,2563 264,2562.552 264,2562 L264,2561 C264,2559.895 263.105,2559 262,2559 M245,2573 C245.552,2573 246,2572.552 246,2572 L246,2566 C246,2565.448 245.552,2565 245,2565 C244.448,2565 244,2565.448 244,2566 L244,2572 C244,2572.552 244.448,2573 245,2573 M247,2577 C246.448,2577 246,2576.552 246,2576 C246,2575.448 245.552,2575 245,2575 C244.448,2575 244,2575.448 244,2576 L244,2577 C244,2578.104 244.895,2579 246,2579 L247,2579 C247.552,2579 248,2578.552 248,2578 C248,2577.448 247.552,2577 247,2577 M247,2559 L246,2559 C244.895,2559 244,2559.895 244,2561 L244,2562 C244,2562.552 244.448,2563 245,2563 C245.552,2563 246,2562.552 246,2562 C246,2561.448 246.448,2561 247,2561 C247.552,2561 248,2560.552 248,2560 C248,2559.448 247.552,2559 247,2559 M257,2577 L251,2577 C250.448,2577 250,2577.448 250,2578 C250,2578.552 250.448,2579 251,2579 L257,2579 C257.552,2579 258,2578.552 258,2578 C258,2577.448 257.552,2577 257,2577 M258,2560 C258,2560.552 257.552,2561 257,2561 L251,2561 C250.448,2561 250,2560.552 250,2560 C250,2559.448 250.448,2559 251,2559 L257,2559 C257.552,2559 258,2559.448 258,2560" id="hospital-[#1216]"></path>
            </g>
        </g>
    </g>
</svg>