<?xml version="1.0" encoding="UTF-8" standalone="no"?>
<svg width="14px" height="20px" viewBox="0 0 14 20" version="1.1" xmlns="http://www.w3.org/2000/svg" xmlns:xlink="http://www.w3.org/1999/xlink">
    <!-- Generator: Sketch 3.8.1 (29687) - http://www.bohemiancoding.com/sketch -->
    <title>hot_air_balloon [#595]</title>
    <desc>Created with Sketch.</desc>
    <defs></defs>
    <g id="Page-1" stroke="none" stroke-width="1" fill="none" fill-rule="evenodd">
        <g id="Dribbble-Dark-Preview" transform="translate(-183.000000, -5559.000000)" fill="#FFFFFF">
            <g id="icons" transform="translate(56.000000, 160.000000)">
                <path d="M136,5418 C136,5417.448 135.552,5417 135,5417 L133,5417 C132.448,5417 132,5417.448 132,5418 L132,5418 C132,5418.552 132.448,5419 133,5419 L135,5419 C135.552,5419 136,5418.552 136,5418 L136,5418 Z M141,5404.842 C141,5410.239 136.583,5410.05 135.93,5414.159 C135.853,5414.643 135.439,5415 134.949,5415 L132.761,5415 C132.268,5415 131.852,5414.639 131.778,5414.152 C131.152,5410.05 127,5410.234 127,5404.84 C127,5400.551 130.539,5399 133.853,5399 C137.167,5399 141,5400.553 141,5404.842 L141,5404.842 Z" id="hot_air_balloon-[#595]"></path>
            </g>
        </g>
    </g>
</svg>