<?xml version="1.0" encoding="UTF-8" standalone="no"?>
<svg width="12px" height="20px" viewBox="0 0 12 20" version="1.1" xmlns="http://www.w3.org/2000/svg" xmlns:xlink="http://www.w3.org/1999/xlink">
    <!-- Generator: Sketch 3.8.1 (29687) - http://www.bohemiancoding.com/sketch -->
    <title>hot_air_balloon [#610]</title>
    <desc>Created with Sketch.</desc>
    <defs></defs>
    <g id="Page-1" stroke="none" stroke-width="1" fill="none" fill-rule="evenodd">
        <g id="Dribbble-Dark-Preview" transform="translate(-384.000000, -5479.000000)" fill="#FFFFFF">
            <g id="icons" transform="translate(56.000000, 160.000000)">
                <path d="M333,5337 L335,5337 L335,5335 L333,5335 L333,5337 Z M331,5339 L337,5339 L337,5333 L331,5333 L331,5339 Z M336.162,5329.021 C333.482,5328.993 334.468,5328.993 331.837,5329.021 C330.981,5327.931 330,5325.79 330,5324.851 C330,5322.727 331.794,5321 334,5321 C336.206,5321 338,5322.727 338,5324.851 C338,5325.79 337.019,5327.931 336.162,5329.021 L336.162,5329.021 Z M334,5319 C330.686,5319 328,5321.619 328,5324.851 C328,5326.638 329.706,5329.956 331,5331.03 C334.684,5330.991 333.316,5330.991 337,5331.03 C338.294,5329.956 340,5326.638 340,5324.851 C340,5321.619 337.314,5319 334,5319 L334,5319 Z" id="hot_air_balloon-[#610]"></path>
            </g>
        </g>
    </g>
</svg>