<?xml version="1.0" encoding="UTF-8" standalone="no"?>
<svg width="12px" height="20px" viewBox="0 0 12 20" version="1.1" xmlns="http://www.w3.org/2000/svg" xmlns:xlink="http://www.w3.org/1999/xlink">
    <!-- Generator: Sketch 3.8.1 (29687) - http://www.bohemiancoding.com/sketch -->
    <title>hot_air_balloon [#596]</title>
    <desc>Created with Sketch.</desc>
    <defs></defs>
    <g id="Page-1" stroke="none" stroke-width="1" fill="none" fill-rule="evenodd">
        <g id="Dribbble-Dark-Preview" transform="translate(-144.000000, -5559.000000)" fill="#FFFFFF">
            <g id="icons" transform="translate(56.000000, 160.000000)">
                <path d="M93,5415 L95,5415 L95,5416 C95,5416.552 94.552,5417 94,5417 C93.448,5417 93,5416.552 93,5416 L93,5415 Z M93,5419 L95,5419 C96.105,5419 97,5418.105 97,5417 L97,5414 C97,5413.448 96.552,5413 96,5413 L92,5413 C91.448,5413 91,5413.448 91,5414 L91,5417 C91,5418.105 91.895,5419 93,5419 L93,5419 Z M96.162,5409.021 C93.482,5408.993 94.468,5408.993 91.837,5409.021 C90.981,5407.931 90,5405.79 90,5404.851 C90,5402.728 91.794,5401 94,5401 C96.206,5401 98,5402.728 98,5404.851 C98,5405.79 97.019,5407.931 96.162,5409.021 L96.162,5409.021 Z M94,5399 C90.686,5399 88,5401.62 88,5404.851 C88,5406.481 89.42,5409.388 90.652,5410.699 C90.849,5410.908 91.119,5411.028 91.406,5411.025 C95.112,5410.987 96.601,5411.026 96.594,5411.025 C96.881,5411.028 97.151,5410.908 97.348,5410.699 C98.58,5409.388 100,5406.481 100,5404.851 C100,5401.62 97.314,5399 94,5399 L94,5399 Z" id="hot_air_balloon-[#596]"></path>
            </g>
        </g>
    </g>
</svg>