<?xml version="1.0" encoding="UTF-8" standalone="no"?>
<svg width="20px" height="20px" viewBox="0 0 20 20" version="1.1" xmlns="http://www.w3.org/2000/svg" xmlns:xlink="http://www.w3.org/1999/xlink">
    <!-- Generator: Sketch 3.8.1 (29687) - http://www.bohemiancoding.com/sketch -->
    <title>images [#967]</title>
    <desc>Created with Sketch.</desc>
    <defs></defs>
    <g id="Page-1" stroke="none" stroke-width="1" fill="none" fill-rule="evenodd">
        <g id="Dribbble-Dark-Preview" transform="translate(-180.000000, -3919.000000)" fill="#FFFFFF">
            <g id="icons" transform="translate(56.000000, 160.000000)">
                <path d="M135.083,3769.667 C136.188,3769.667 137.083,3768.772 137.083,3767.667 C137.083,3766.562 136.188,3765.667 135.083,3765.667 C133.979,3765.667 133.083,3766.562 133.083,3767.667 C133.083,3768.772 133.979,3769.667 135.083,3769.667 L135.083,3769.667 Z M126,3777 L127.956,3777 L130.824,3773.882 L127.594,3770.402 L126,3771.996 L126,3777 Z M126,3769.167 L127.578,3767.589 L127.594,3767.605 L127.61,3767.589 L132.238,3772.218 L133.669,3770.787 L133.685,3770.803 L133.701,3770.787 L138,3775.086 L138,3765 L126,3765 L126,3769.167 Z M136.586,3777 L133.685,3774.099 L130.784,3777 L136.586,3777 Z M124,3779 L140,3779 L140,3763 L124,3763 L124,3779 Z M144,3759 L144,3775 L142,3775 L142,3761 L128,3761 L128,3759 L144,3759 Z" id="images-[#967]"></path>
            </g>
        </g>
    </g>
</svg>