<?xml version="1.0" encoding="UTF-8" standalone="no"?>
<svg width="20px" height="20px" viewBox="0 0 20 20" version="1.1" xmlns="http://www.w3.org/2000/svg" xmlns:xlink="http://www.w3.org/1999/xlink">
    <!-- Generator: Sketch 3.8.1 (29687) - http://www.bohemiancoding.com/sketch -->
    <title>image_picture [#969]</title>
    <desc>Created with Sketch.</desc>
    <defs></defs>
    <g id="Page-1" stroke="none" stroke-width="1" fill="none" fill-rule="evenodd">
        <g id="Dribbble-Dark-Preview" transform="translate(-100.000000, -3919.000000)" fill="#FFFFFF">
            <g id="icons" transform="translate(56.000000, 160.000000)">
                <path d="M56.083,3767.79585 C56.083,3766.70341 56.979,3765.81859 58.083,3765.81859 C59.188,3765.81859 60.083,3766.70341 60.083,3767.79585 C60.083,3768.88828 59.188,3769.77311 58.083,3769.77311 C56.979,3769.77311 56.083,3768.88828 56.083,3767.79585 L56.083,3767.79585 Z M62,3775.1305 L57.987,3771.16411 L57.971,3771.17894 L57.956,3771.16411 L56.525,3772.57785 L51.896,3768.00247 L51.881,3768.01829 L51.865,3768.00247 L46,3773.80079 L46,3765.15917 L62,3765.15917 L62,3775.1305 Z M55.357,3777.02274 L57.971,3774.43846 L60.586,3777.02274 L55.357,3777.02274 Z M52.529,3777.02274 L46.069,3777.02274 L51.881,3771.02966 L55.111,3774.34652 L52.529,3777.02274 Z M53.973,3762.04301 L55.125,3763.18191 L52.821,3763.18191 L53.973,3762.04301 Z M57.953,3763.18191 L53.973,3759 C52.192,3760.91597 53.072,3759.98962 49.993,3763.18191 L44,3763.18191 L44,3779 L64,3779 L64,3763.18191 L57.953,3763.18191 Z" id="image_picture-[#969]"></path>
            </g>
        </g>
    </g>
</svg>