<?xml version="1.0" encoding="UTF-8" standalone="no"?>
<svg width="20px" height="16px" viewBox="0 0 20 16" version="1.1" xmlns="http://www.w3.org/2000/svg" xmlns:xlink="http://www.w3.org/1999/xlink">
    <!-- Generator: Sketch 3.8.1 (29687) - http://www.bohemiancoding.com/sketch -->
    <title>image_picture [#968]</title>
    <desc>Created with Sketch.</desc>
    <defs></defs>
    <g id="Page-1" stroke="none" stroke-width="1" fill="none" fill-rule="evenodd">
        <g id="Dribbble-Dark-Preview" transform="translate(-140.000000, -3921.000000)" fill="#FFFFFF">
            <g id="icons" transform="translate(56.000000, 160.000000)">
                <path d="M98.141,3768.755 L98.129,3768.768 L98.102,3768.74 L98.141,3768.755 Z M98.143,3768.756 L98.141,3768.755 L98.156,3768.74 L98.143,3768.756 Z M102,3772.752 L98.129,3768.768 L96.74,3770.171 L92.118,3765.542 L92.106,3765.558 L91.977,3765.542 L86,3771.407 L86,3763 L102,3763 L102,3772.752 Z M95.586,3775 L98.2,3772.386 L100.814,3775 L95.586,3775 Z M92.758,3775 L86.297,3775 L92.11,3768.771 L95.34,3772.21 L92.758,3775 Z M84,3777 L104,3777 L104,3761 L84,3761 L84,3777 Z" id="image_picture-[#968]"></path>
            </g>
        </g>
    </g>
</svg>