<?xml version="1.0" encoding="UTF-8" standalone="no"?>
<svg width="20px" height="20px" viewBox="0 0 20 20" version="1.1" xmlns="http://www.w3.org/2000/svg" xmlns:xlink="http://www.w3.org/1999/xlink">
    <!-- Generator: Sketch 3.8.1 (29687) - http://www.bohemiancoding.com/sketch -->
    <title>image_picture [#975]</title>
    <desc>Created with Sketch.</desc>
    <defs></defs>
    <g id="Page-1" stroke="none" stroke-width="1" fill="none" fill-rule="evenodd">
        <g id="Dribbble-Dark-Preview" transform="translate(-260.000000, -3879.000000)" fill="#FFFFFF">
            <g id="icons" transform="translate(56.000000, 160.000000)">
                <path d="M216,3727.5 C216,3726.948 216.448,3726.5 217,3726.5 C217.552,3726.5 218,3726.948 218,3727.5 C218,3728.823 216,3728.821 216,3727.5 L216,3727.5 Z M220,3735 L208,3735 L212.518,3728.812 L215.354,3732.625 L216.75,3730.75 L220,3735 Z M206,3737 L222,3737 L222,3723 L206,3723 L206,3737 Z M222,3719 L222,3721 L218,3721 L218,3719 L216,3719 L216,3721 L212,3721 L212,3719 L210,3719 L210,3721 L206,3721 L206,3719 L204,3719 L204,3739 L224,3739 L224,3719 L222,3719 Z" id="image_picture-[#975]"></path>
            </g>
        </g>
    </g>
</svg>