<?xml version="1.0" encoding="UTF-8" standalone="no"?>
<svg width="20px" height="20px" viewBox="0 0 20 20" version="1.1" xmlns="http://www.w3.org/2000/svg" xmlns:xlink="http://www.w3.org/1999/xlink">
    <!-- Generator: Sketch 3.8.1 (29687) - http://www.bohemiancoding.com/sketch -->
    <title>images_round [#965]</title>
    <desc>Created with Sketch.</desc>
    <defs></defs>
    <g id="Page-1" stroke="none" stroke-width="1" fill="none" fill-rule="evenodd">
        <g id="Dribbble-Dark-Preview" transform="translate(-260.000000, -3919.000000)" fill="#FFFFFF">
            <g id="icons" transform="translate(56.000000, 160.000000)">
                <path d="M218,3765.5 C218,3764.948 217.552,3765 217,3765 L207,3765 C206.448,3765 206,3764.948 206,3765.5 L206,3775 L218,3775 L218,3765.5 Z M220,3765 L220,3777 C220,3778.104 219.105,3779 218,3779 L206,3779 C204.896,3779 204,3778.104 204,3777 L204,3765 C204,3763.895 204.896,3763 206,3763 L218,3763 C219.105,3763 220,3763.895 220,3765 L220,3765 Z M224,3761.063 L224,3773.5 C224,3774.052 223.552,3774.5 223,3774.5 C222.448,3774.5 222,3774.052 222,3773.5 L222,3761.5 C222,3760.948 221.552,3761 221,3761 L209,3761 C208.448,3761 208,3760.474 208,3759.922 C208,3759.37 208.448,3759 209,3759 L222,3759 C223.219,3759 224,3759.813 224,3761.063 L224,3761.063 Z" id="images_round-[#965]"></path>
            </g>
        </g>
    </g>
</svg>