<?xml version="1.0" encoding="UTF-8" standalone="no"?>
<svg width="20px" height="16px" viewBox="0 0 20 16" version="1.1" xmlns="http://www.w3.org/2000/svg" xmlns:xlink="http://www.w3.org/1999/xlink">
    <!-- Generator: Sketch 3.8.1 (29687) - http://www.bohemiancoding.com/sketch -->
    <title>image_picture [#973]</title>
    <desc>Created with Sketch.</desc>
    <defs></defs>
    <g id="Page-1" stroke="none" stroke-width="1" fill="none" fill-rule="evenodd">
        <g id="Dribbble-Dark-Preview" transform="translate(-340.000000, -3881.000000)" fill="#FFFFFF">
            <g id="icons" transform="translate(56.000000, 160.000000)">
                <path d="M296,3725.5 C296,3724.948 296.448,3724.5 297,3724.5 C297.552,3724.5 298,3724.948 298,3725.5 C298,3726.052 297.552,3726.5 297,3726.5 C296.448,3726.5 296,3726.052 296,3725.5 L296,3725.5 Z M296.75,3728.75 L300,3733 L288,3733 L292.518,3726.812 L295.354,3730.625 L296.75,3728.75 Z M302,3734 C302,3734.552 301.552,3735 301,3735 L287,3735 C286.448,3735 286,3734.552 286,3734 L286,3724 C286,3723.448 286.448,3723 287,3723 L301,3723 C301.552,3723 302,3723.448 302,3724 L302,3734 Z M302,3721 L286,3721 C284.896,3721 284,3721.895 284,3723 L284,3735 C284,3736.104 284.896,3737 286,3737 L302,3737 C303.105,3737 304,3736.104 304,3735 L304,3723 C304,3721.895 303.105,3721 302,3721 L302,3721 Z" id="image_picture-[#973]"></path>
            </g>
        </g>
    </g>
</svg>