<?xml version="1.0" encoding="UTF-8" standalone="no"?>
<svg width="20px" height="20px" viewBox="0 0 20 20" version="1.1" xmlns="http://www.w3.org/2000/svg" xmlns:xlink="http://www.w3.org/1999/xlink">
    <!-- Generator: Sketch 3.8.1 (29687) - http://www.bohemiancoding.com/sketch -->
    <title>image_picture [#974]</title>
    <desc>Created with Sketch.</desc>
    <defs></defs>
    <g id="Page-1" stroke="none" stroke-width="1" fill="none" fill-rule="evenodd">
        <g id="Dribbble-Dark-Preview" transform="translate(-300.000000, -3879.000000)" fill="#FFFFFF">
            <g id="icons" transform="translate(56.000000, 160.000000)">
                <path d="M256,3727.63075 C256,3727.08502 256.448,3726.64212 257,3726.64212 C257.552,3726.64212 258,3727.08502 258,3727.63075 C258,3728.17647 257.552,3728.61938 257,3728.61938 C256.448,3728.61938 256,3728.17647 256,3727.63075 L256,3727.63075 Z M260,3735.04548 L248,3735.04548 L252.518,3728.92783 L255.354,3732.69748 L256.75,3730.8438 L260,3735.04548 Z M246,3737.02274 L262,3737.02274 L262,3725.15917 L246,3725.15917 L246,3737.02274 Z M253.987,3722.04301 L255.139,3723.18191 L252.835,3723.18191 L253.987,3722.04301 Z M257.967,3723.18191 L253.984,3719 L250,3723.18191 L244,3723.18191 L244,3739 L264,3739 L264,3723.18191 L257.967,3723.18191 Z" id="image_picture-[#974]"></path>
            </g>
        </g>
    </g>
</svg>