<?xml version="1.0" encoding="UTF-8" standalone="no"?>
<svg width="20px" height="20px" viewBox="0 0 20 20" version="1.1" xmlns="http://www.w3.org/2000/svg" xmlns:xlink="http://www.w3.org/1999/xlink">
    <!-- Generator: Sketch 3.8.1 (29687) - http://www.bohemiancoding.com/sketch -->
    <title>image [#987]</title>
    <desc>Created with Sketch.</desc>
    <defs></defs>
    <g id="Page-1" stroke="none" stroke-width="1" fill="none" fill-rule="evenodd">
        <g id="Dribbble-Dark-Preview" transform="translate(-180.000000, -3839.000000)" fill="#FFFFFF">
            <g id="icons" transform="translate(56.000000, 160.000000)">
                <path d="M138.242,3684.469 C138.242,3683.917 138.69,3683.469 139.242,3683.469 C139.794,3683.469 140.242,3683.917 140.242,3684.469 C140.242,3685.021 139.794,3685.469 139.242,3685.469 C138.69,3685.469 138.242,3685.021 138.242,3684.469 L138.242,3684.469 Z M142,3690 L138.686,3686.864 L133.073,3692.531 L129.607,3689.013 L126,3692.525 L126,3681 L142,3681 L142,3690 Z M142,3697 L126,3697 L126,3695.352 L129.578,3691.918 L133.035,3695.352 L133.061,3695.337 L133.082,3695.352 L138.596,3689.746 L142,3693.242 L142,3697 Z M124,3699 L144,3699 L144,3679 L124,3679 L124,3699 Z" id="image-[#987]"></path>
            </g>
        </g>
    </g>
</svg>