<?xml version="1.0" encoding="UTF-8" standalone="no"?>
<svg width="20px" height="20px" viewBox="0 0 20 20" version="1.1" xmlns="http://www.w3.org/2000/svg" xmlns:xlink="http://www.w3.org/1999/xlink">
    <!-- Generator: Sketch 3.8.1 (29687) - http://www.bohemiancoding.com/sketch -->
    <title>image_picture [#970]</title>
    <desc>Created with Sketch.</desc>
    <defs></defs>
    <g id="Page-1" stroke="none" stroke-width="1" fill="none" fill-rule="evenodd">
        <g id="Dribbble-Dark-Preview" transform="translate(-60.000000, -3919.000000)" fill="#FFFFFF">
            <g id="icons" transform="translate(56.000000, 160.000000)">
                <path d="M16.083,3767.667 C16.083,3766.562 16.979,3765.667 18.083,3765.667 C19.188,3765.667 20.083,3766.562 20.083,3767.667 C20.083,3768.772 19.188,3769.667 18.083,3769.667 C16.979,3769.667 16.083,3768.772 16.083,3767.667 L16.083,3767.667 Z M22,3775.086 L17.987,3771.074 L17.971,3771.089 L17.956,3771.074 L16.525,3772.504 L11.896,3767.876 L11.881,3767.892 L11.865,3767.876 L6,3773.741 L6,3763 L22,3763 L22,3775.086 Z M15.357,3777 L17.971,3774.386 L20.586,3777 L15.357,3777 Z M12.529,3777 L6.069,3777 L11.881,3770.938 L15.111,3774.293 L12.529,3777 Z M22,3759 L22,3761 L18,3761 L18,3759 L16,3759 L16,3761 L12,3761 L12,3759 L10,3759 L10,3761 L6,3761 L6,3759 L4,3759 L4,3779 L24,3779 L24,3759 L22,3759 Z" id="image_picture-[#970]"></path>
            </g>
        </g>
    </g>
</svg>