<?xml version="1.0" encoding="UTF-8" standalone="no"?>
<svg width="11px" height="10px" viewBox="0 0 11 10" version="1.1" xmlns="http://www.w3.org/2000/svg" xmlns:xlink="http://www.w3.org/1999/xlink">
    <!-- Generator: Sketch 3.8.1 (29687) - http://www.bohemiancoding.com/sketch -->
    <title>important_details [#1434]</title>
    <desc>Created with Sketch.</desc>
    <defs></defs>
    <g id="Page-1" stroke="none" stroke-width="1" fill="none" fill-rule="evenodd">
        <g id="Dribbble-Dark-Preview" transform="translate(-304.000000, -565.000000)" fill="#FFFFFF">
            <g id="icons" transform="translate(56.000000, 160.000000)">
                <path d="M259,410 C259,410.552 258.5072,411 257.9,411 L256.1554,411 L257.3896,412.121 C257.8186,412.512 257.8186,413.145 257.3896,413.536 L257.3896,413.536 C256.9595,413.926 256.2632,413.926 255.8331,413.536 L254.6,412.414 L254.6,414 C254.6,414.552 254.1072,415 253.5,415 L253.5,415 C252.8928,415 252.4,414.552 252.4,414 L252.4,412.414 L251.1669,413.536 C250.7368,413.926 250.0405,413.926 249.6104,413.536 C249.1814,413.145 249.1814,412.512 249.6104,412.121 L250.8446,411 L249.1,411 C248.4928,411 248,410.552 248,410 L248,410 C248,409.448 248.4928,409 249.1,409 L250.8446,409 L249.6104,407.879 C249.1814,407.488 249.1814,406.855 249.6104,406.464 L249.6104,406.464 C250.0405,406.074 250.7368,406.074 251.1669,406.464 L252.4,407.586 L252.4,406 C252.4,405.448 252.8928,405 253.5,405 L253.5,405 C254.1072,405 254.6,405.448 254.6,406 L254.6,407.586 L255.8331,406.464 C256.2632,406.074 256.9595,406.074 257.3896,406.464 L257.3896,406.464 C257.8186,406.855 257.8186,407.488 257.3896,407.879 L256.1554,409 L257.9,409 C258.5072,409 259,409.448 259,410 L259,410 Z" id="important_details-[#1434]"></path>
            </g>
        </g>
    </g>
</svg>