<?xml version="1.0" encoding="UTF-8" standalone="no"?>
<svg width="21px" height="20px" viewBox="0 0 21 20" version="1.1" xmlns="http://www.w3.org/2000/svg" xmlns:xlink="http://www.w3.org/1999/xlink">
    <!-- Generator: Sketch 3.8.1 (29687) - http://www.bohemiancoding.com/sketch -->
    <title>important_message [#1448]</title>
    <desc>Created with Sketch.</desc>
    <defs></defs>
    <g id="Page-1" stroke="none" stroke-width="1" fill="none" fill-rule="evenodd">
        <g id="Dribbble-Dark-Preview" transform="translate(-139.000000, -520.000000)" fill="#FFFFFF">
            <g id="icons" transform="translate(56.000000, 160.000000)">
                <path d="M94.55,365.007 L94.55,372.007 C94.55,372.559 94.0796,373.007 93.5,373.007 C92.9204,373.007 92.45,372.559 92.45,372.007 L92.45,365.007 C92.45,364.455 92.9204,364.007 93.5,364.007 C94.0796,364.007 94.55,364.455 94.55,365.007 L94.55,365.007 Z M94.55,375.007 C94.55,375.559 94.0796,376.007 93.5,376.007 C92.9204,376.007 92.45,375.559 92.45,375.007 C92.45,374.455 92.9204,374.007 93.5,374.007 C94.0796,374.007 94.55,374.455 94.55,375.007 L94.55,375.007 Z M101.9,377 C101.9,377.552 101.4296,378 100.85,378 L86.15,378 C85.5704,378 85.1,377.552 85.1,377 L85.1,363 C85.1,362.448 85.5704,362 86.15,362 L100.85,362 C101.4296,362 101.9,362.448 101.9,363 L101.9,377 Z M101.9,360 L85.1,360 C83.93975,360 83,360.899 83,362.003 L83,362.007 L83,378.007 C83,379.112 83.93975,380 85.1,380 L101.9,380 C103.06025,380 104,379.108 104,378.003 L104,362.007 C104,360.902 102.95,360 101.9,360 L101.9,360 Z" id="important_message-[#1448]"></path>
            </g>
        </g>
    </g>
</svg>