<?xml version="1.0" encoding="UTF-8" standalone="no"?>
<svg width="20px" height="20px" viewBox="0 0 20 20" version="1.1" xmlns="http://www.w3.org/2000/svg" xmlns:xlink="http://www.w3.org/1999/xlink">
    <!-- Generator: Sketch 3.8.1 (29687) - http://www.bohemiancoding.com/sketch -->
    <title>inbox_paper_round [#1556]</title>
    <desc>Created with Sketch.</desc>
    <defs></defs>
    <g id="Page-1" stroke="none" stroke-width="1" fill="none" fill-rule="evenodd">
        <g id="Dribbble-Dark-Preview" transform="translate(-180.000000, -999.000000)" fill="#FFFFFF">
            <g id="icons" transform="translate(56.000000, 160.000000)">
                <path d="M141,849 L141,846 L142,849 L141,849 Z M141,857 L127,857 C126.448,857 126,856.552 126,856 L126,851 L129,851 C129.552,851 130,851.448 130,852 L130,853 C130,854.105 130.895,855 132,855 L136,855 C137.105,855 138,854.105 138,853 L138,852 C138,851.448 138.448,851 139,851 L142,851 L142,856 C142,856.552 141.552,857 141,857 L141,857 Z M127,846 L127,849 L126,849 L127,846 Z M130,841 L138,841 C138.552,841 139,841.448 139,842 L139,849 L138,849 C136.895,849 136,849.895 136,851 L136,852 C136,852.552 135.552,853 135,853 L133,853 C132.448,853 132,852.552 132,852 L132,851 C132,849.895 131.105,849 130,849 L129,849 L129,842 C129,841.448 129.448,841 130,841 L130,841 Z M142,843 L141,843 L141,841 C141,839.895 140.105,839 139,839 L129,839 C127.895,839 127,839.895 127,841 L127,843 L126,843 L124,849 L124,857 C124,858.105 124.895,859 126,859 L142,859 C143.105,859 144,858.105 144,857 L144,849 L142,843 Z" id="inbox_paper_round-[#1556]"></path>
            </g>
        </g>
    </g>
</svg>