<?xml version="1.0" encoding="UTF-8" standalone="no"?>
<svg width="20px" height="20px" viewBox="0 0 20 20" version="1.1" xmlns="http://www.w3.org/2000/svg" xmlns:xlink="http://www.w3.org/1999/xlink">
    <!-- Generator: Sketch 3.8.1 (29687) - http://www.bohemiancoding.com/sketch -->
    <title>inbox_done [#1542]</title>
    <desc>Created with Sketch.</desc>
    <defs></defs>
    <g id="Page-1" stroke="none" stroke-width="1" fill="none" fill-rule="evenodd">
        <g id="Dribbble-Dark-Preview" transform="translate(-340.000000, -1039.000000)" fill="#FFFFFF">
            <g id="icons" transform="translate(56.000000, 160.000000)">
                <path d="M293.293,888.536 C292.27,887.513 291.488,886.731 290.465,885.708 L291.879,884.293 L293.293,885.708 L296.121,882.879 L297.536,884.293 L293.293,888.536 Z M301,889 L301,885.917 L302,889 L301,889 Z M302,897 L286,897 L286,891 L290,891 L290,895 L298,895 L298,891 L302,891 L302,897 Z M287,885.917 L287,889 L286,889 L287,885.917 Z M289,881 L299,881 L299,889 L296,889 L296,893 L292,893 L292,889 L289,889 L289,881 Z M302,883 L301,883 L301,879 L287,879 L287,883 L286,883 L284,888.917 L284,899 L304,899 L304,888.917 L302,883 Z" id="inbox_done-[#1542]"></path>
            </g>
        </g>
    </g>
</svg>