<?xml version="1.0" encoding="UTF-8" standalone="no"?>
<svg width="20px" height="20px" viewBox="0 0 20 20" version="1.1" xmlns="http://www.w3.org/2000/svg" xmlns:xlink="http://www.w3.org/1999/xlink">
    <!-- Generator: Sketch 3.8.1 (29687) - http://www.bohemiancoding.com/sketch -->
    <title>inbox_done_round [#1543]</title>
    <desc>Created with Sketch.</desc>
    <defs></defs>
    <g id="Page-1" stroke="none" stroke-width="1" fill="none" fill-rule="evenodd">
        <g id="Dribbble-Dark-Preview" transform="translate(-300.000000, -1039.000000)" fill="#FFFFFF">
            <g id="icons" transform="translate(56.000000, 160.000000)">
                <path d="M251.172,886.414 C250.781,886.023 250.781,885.39 251.172,885 C251.563,884.609 252.196,884.609 252.586,885 L253.293,885.707 L255.415,883.586 C255.805,883.195 256.438,883.195 256.829,883.586 C257.219,883.976 257.219,884.609 256.829,885 L253.293,888.535 C250.363,885.605 252.441,887.683 251.172,886.414 L251.172,886.414 Z M261,889 L261,885.916 L262,889 L261,889 Z M262,895.916 C262,896.469 261.553,897 261,897 L247,897 C246.448,897 246,896.469 246,895.916 L246,891 L249,891 C249.553,891 250,891.364 250,891.916 L250,892.916 C250,894.021 250.896,895 252,895 L256,895 C257.105,895 258,894.021 258,892.916 L258,891.916 C258,891.364 258.448,891 259,891 L262,891 L262,895.916 Z M247,885.916 L247,889 L246,889 L247,885.916 Z M249,881.916 C249,881.364 249.448,881 250,881 L258,881 C258.553,881 259,881.364 259,881.916 L259,889 L258,889 C256.896,889 256,889.812 256,890.916 L256,891.916 C256,892.469 255.553,893 255,893 L253,893 C252.448,893 252,892.469 252,891.916 L252,890.916 C252,889.812 251.105,889 250,889 L249,889 L249,881.916 Z M262,883 L261,883 L261,880.916 C261,879.812 260.105,879 259,879 L249,879 C247.896,879 247,879.812 247,880.916 L247,883 L246,883 L244,888.916 L244,896.916 C244,898.021 244.896,899 246,899 L262,899 C263.105,899 264,898.021 264,896.916 L264,888.916 L262,883 Z" id="inbox_done_round-[#1543]"></path>
            </g>
        </g>
    </g>
</svg>