<?xml version="1.0" encoding="UTF-8" standalone="no"?>
<svg width="20px" height="20px" viewBox="0 0 20 20" version="1.1" xmlns="http://www.w3.org/2000/svg" xmlns:xlink="http://www.w3.org/1999/xlink">
    <!-- Generator: Sketch 3.8.1 (29687) - http://www.bohemiancoding.com/sketch -->
    <title>inbox_up [#1549]</title>
    <desc>Created with Sketch.</desc>
    <defs></defs>
    <g id="Page-1" stroke="none" stroke-width="1" fill="none" fill-rule="evenodd">
        <g id="Dribbble-Dark-Preview" transform="translate(-60.000000, -1039.000000)" fill="#FFFFFF">
            <g id="icons" transform="translate(56.000000, 160.000000)">
                <path d="M21,889 L21,886.207 L22,889 L21,889 Z M22,897 L6,897 L6,891 L10,891 L10,895 L18,895 L18,891 L22,891 L22,897 Z M7,886.207 L7,889 L6,889 L7,886.207 Z M9,881 L19,881 L19,889 L16,889 L16,893 L14.966,893 L14.933,885.721 L16.812,887.6 L18.226,886.186 L13.984,881.943 C11.826,884.101 12.739,883.188 9.691,886.236 L11.084,887.671 L13.034,885.721 L13.012,893 L12,893 L12,889 L9,889 L9,881 Z M22,883 L21,883 L21,879 L7,879 L7,883 L6,883 L4,889.207 L4,899 L24,899 L24,889.207 L22,883 Z" id="inbox_up-[#1549]"></path>
            </g>
        </g>
    </g>
</svg>