<?xml version="1.0" encoding="UTF-8" standalone="no"?>
<svg width="20px" height="20px" viewBox="0 0 20 20" version="1.1" xmlns="http://www.w3.org/2000/svg" xmlns:xlink="http://www.w3.org/1999/xlink">
    <!-- Generator: Sketch 3.8.1 (29687) - http://www.bohemiancoding.com/sketch -->
    <title>inbox_close_round [#1547]</title>
    <desc>Created with Sketch.</desc>
    <defs></defs>
    <g id="Page-1" stroke="none" stroke-width="1" fill="none" fill-rule="evenodd">
        <g id="Dribbble-Dark-Preview" transform="translate(-140.000000, -1039.000000)" fill="#FFFFFF">
            <g id="icons" transform="translate(56.000000, 160.000000)">
                <path d="M91.879,885.707 L92.586,885 L91.879,884.293 C91.488,883.902 91.488,883.269 91.879,882.879 C92.27,882.488 92.903,882.488 93.293,882.879 L94,883.586 L94.707,882.879 C95.098,882.488 95.731,882.488 96.122,882.879 C96.512,883.269 96.512,883.902 96.122,884.293 L95.415,885 L96.122,885.707 C96.512,886.098 96.512,886.731 96.122,887.121 C95.731,887.512 95.098,887.512 94.707,887.121 L94,886.414 L93.293,887.121 C92.903,887.512 92.27,887.512 91.879,887.121 C91.488,886.731 91.488,886.098 91.879,885.707 L91.879,885.707 Z M101,889 L101,885.917 L102,889 L101,889 Z M102,895.917 C102,896.469 101.553,897 101,897 L87,897 C86.448,897 86,896.469 86,895.917 L86,891 L89,891 C89.553,891 90,891.364 90,891.917 L90,892.917 C90,894.021 90.896,895 92,895 L96,895 C97.105,895 98,894.021 98,892.917 L98,891.917 C98,891.364 98.448,891 99,891 L102,891 L102,895.917 Z M87,885.917 L87,889 L86,889 L87,885.917 Z M89,881.917 C89,881.364 89.448,881 90,881 L98,881 C98.553,881 99,881.364 99,881.917 L99,889 L98,889 C96.896,889 96,889.812 96,890.917 L96,891.917 C96,892.469 95.553,893 95,893 L93,893 C92.448,893 92,892.469 92,891.917 L92,890.917 C92,889.812 91.105,889 90,889 L89,889 L89,881.917 Z M102,883 L101,883 L101,880.917 C101,879.812 100.105,879 99,879 L89,879 C87.896,879 87,879.812 87,880.917 L87,883 L86,883 L84,888.917 L84,896.917 C84,898.021 84.896,899 86,899 L102,899 C103.105,899 104,898.021 104,896.917 L104,888.917 L102,883 Z" id="inbox_close_round-[#1547]"></path>
            </g>
        </g>
    </g>
</svg>