<?xml version="1.0" encoding="UTF-8" standalone="no"?>
<svg width="20px" height="20px" viewBox="0 0 20 20" version="1.1" xmlns="http://www.w3.org/2000/svg" xmlns:xlink="http://www.w3.org/1999/xlink">
    <!-- Generator: Sketch 3.8.1 (29687) - http://www.bohemiancoding.com/sketch -->
    <title>inbox_minus [#1544]</title>
    <desc>Created with Sketch.</desc>
    <defs></defs>
    <g id="Page-1" stroke="none" stroke-width="1" fill="none" fill-rule="evenodd">
        <g id="Dribbble-Dark-Preview" transform="translate(-260.000000, -1039.000000)" fill="#FFFFFF">
            <g id="icons" transform="translate(56.000000, 160.000000)">
                <path d="M211,886 L217,886 L217,884 L211,884 L211,886 Z M221,889 L221,885.917 L222,889 L221,889 Z M222,897 L206,897 L206,891 L210,891 L210,895 L218,895 L218,891 L222,891 L222,897 Z M207,885.917 L207,889 L206,889 L207,885.917 Z M209,881 L219,881 L219,889 L216,889 L216,893 L212,893 L212,889 L209,889 L209,881 Z M222,883 L221,883 L221,879 L207,879 L207,883 L206,883 L204,888.917 L204,899 L224,899 L224,888.917 L222,883 Z" id="inbox_minus-[#1544]"></path>
            </g>
        </g>
    </g>
</svg>