<?xml version="1.0" encoding="UTF-8" standalone="no"?>
<svg width="20px" height="20px" viewBox="0 0 20 20" version="1.1" xmlns="http://www.w3.org/2000/svg" xmlns:xlink="http://www.w3.org/1999/xlink">
    <!-- Generator: Sketch 3.8.1 (29687) - http://www.bohemiancoding.com/sketch -->
    <title>inbox_up_round [#1551]</title>
    <desc>Created with Sketch.</desc>
    <defs></defs>
    <g id="Page-1" stroke="none" stroke-width="1" fill="none" fill-rule="evenodd">
        <g id="Dribbble-Dark-Preview" transform="translate(-380.000000, -999.000000)" fill="#FFFFFF">
            <g id="icons" transform="translate(56.000000, 160.000000)">
                <path d="M341,849 L341,846.051 L342,849 L341,849 Z M342,856.051 C342,856.603 341.552,857 341,857 L327,857 C326.448,857 326,856.603 326,856.051 L326,851 L329,851 C329.552,851 330,851.499 330,852.051 L330,853.051 C330,854.155 330.895,855 332,855 L336,855 C337.105,855 338,854.155 338,853.051 L338,852.051 C338,851.499 338.448,851 339,851 L342,851 L342,856.051 Z M327,846.051 L327,849 L326,849 L327,846.051 Z M329,842.051 C329,841.499 329.448,841 330,841 L338,841 C338.552,841 339,841.499 339,842.051 L339,849 L338,849 C336.895,849 336,849.946 336,851.051 L336,852.051 C336,852.603 335.552,853 335,853 L334.967,853 L334.939,846.755 C334.937,846.308 335.477,846.096 335.792,846.412 L336.105,846.73 C336.495,847.121 337.129,847.124 337.519,846.734 C337.91,846.343 337.91,845.712 337.519,845.321 C335.672,843.475 336.237,844.039 335.398,843.201 C334.617,842.42 333.35,842.42 332.569,843.201 C332.098,843.673 330.873,844.897 330.387,845.383 C330.001,845.77 329.996,846.395 330.377,846.787 C330.766,847.187 331.407,847.192 331.802,846.797 L332.177,846.422 C332.492,846.107 333.031,846.306 333.03,846.752 L333.011,853 L333,853 C332.448,853 332,852.603 332,852.051 L332,851.051 C332,849.946 331.105,849 330,849 L329,849 L329,842.051 Z M342,843 L341,843 L341,841.051 C341,839.946 340.105,839 339,839 L329,839 C327.895,839 327,839.946 327,841.051 L327,843 L326,843 L324,849.051 L324,857.051 C324,858.155 324.895,859 326,859 L342,859 C343.105,859 344,858.155 344,857.051 L344,849.051 L342,843 Z" id="inbox_up_round-[#1551]"></path>
            </g>
        </g>
    </g>
</svg>