<?xml version="1.0" encoding="UTF-8" standalone="no"?>
<svg width="20px" height="20px" viewBox="0 0 20 20" version="1.1" xmlns="http://www.w3.org/2000/svg" xmlns:xlink="http://www.w3.org/1999/xlink">
    <!-- Generator: Sketch 3.8.1 (29687) - http://www.bohemiancoding.com/sketch -->
    <title>inbox_down_round [#1550]</title>
    <desc>Created with Sketch.</desc>
    <defs></defs>
    <g id="Page-1" stroke="none" stroke-width="1" fill="none" fill-rule="evenodd">
        <g id="Dribbble-Dark-Preview" transform="translate(-420.000000, -999.000000)" fill="#FFFFFF">
            <g id="icons" transform="translate(56.000000, 160.000000)">
                <path d="M381,849 L381,846 L382,849 L381,849 Z M382,856 C382,856.552 381.552,857 381,857 L367,857 C366.448,857 366,856.552 366,856 L366,851 L369,851 C369.552,851 370,851.448 370,852 L370,853 C370,854.105 370.895,855 372,855 L376,855 C377.105,855 378,854.105 378,853 L378,852 C378,851.448 378.448,851 379,851 L382,851 L382,856 Z M367,846 L367,849 L366,849 L367,846 Z M369,842 C369,841.448 369.448,841 370,841 L373.014,841 L373.036,844.067 C373.039,844.514 372.498,844.74 372.182,844.424 L371.873,844.115 C371.482,843.724 370.849,843.724 370.458,844.115 C370.068,844.505 370.068,845.138 370.458,845.529 C371.71,846.78 371.772,846.843 372.58,847.65 C373.361,848.431 374.627,848.431 375.408,847.65 C376.267,846.791 376.749,846.31 377.59,845.468 C377.977,845.082 377.981,844.457 377.601,844.064 C377.212,843.664 376.571,843.659 376.176,844.054 L375.803,844.427 C375.487,844.743 374.947,844.518 374.95,844.071 L374.964,841 L378,841 C378.552,841 379,841.448 379,842 L379,849 L378,849 C376.895,849 376,849.895 376,851 L376,852 C376,852.552 375.552,853 375,853 L373,853 C372.448,853 372,852.552 372,852 L372,851 C372,849.895 371.105,849 370,849 L369,849 L369,842 Z M382,843 L381,843 L381,841 C381,839.895 380.105,839 379,839 L369,839 C367.895,839 367,839.895 367,841 L367,843 L366,843 L364,849 L364,857 C364,858.105 364.895,859 366,859 L382,859 C383.105,859 384,858.105 384,857 L384,849 L382,843 Z" id="inbox_down_round-[#1550]"></path>
            </g>
        </g>
    </g>
</svg>