<?xml version="1.0" encoding="UTF-8" standalone="no"?>
<svg width="20px" height="20px" viewBox="0 0 20 20" version="1.1" xmlns="http://www.w3.org/2000/svg" xmlns:xlink="http://www.w3.org/1999/xlink">
    <!-- Generator: Sketch 3.8.1 (29687) - http://www.bohemiancoding.com/sketch -->
    <title>inbox_minus_round [#1545]</title>
    <desc>Created with Sketch.</desc>
    <defs></defs>
    <g id="Page-1" stroke="none" stroke-width="1" fill="none" fill-rule="evenodd">
        <g id="Dribbble-Dark-Preview" transform="translate(-220.000000, -1039.000000)" fill="#FFFFFF">
            <g id="icons" transform="translate(56.000000, 160.000000)">
                <path d="M171,885 C171,884.448 171.448,884 172,884 L176,884 C176.552,884 177,884.448 177,885 C177,885.552 176.552,886 176,886 L172,886 C171.448,886 171,885.552 171,885 L171,885 Z M181,889 L181,885.917 L182,889 L181,889 Z M182,895.917 C182,896.469 181.552,897 181,897 L167,897 C166.448,897 166,896.469 166,895.917 L166,891 L169,891 C169.552,891 170,891.364 170,891.917 L170,892.917 C170,894.021 170.895,895 172,895 L176,895 C177.105,895 178,894.021 178,892.917 L178,891.917 C178,891.364 178.448,891 179,891 L182,891 L182,895.917 Z M167,885.917 L167,889 L166,889 L167,885.917 Z M169,881.917 C169,881.364 169.448,881 170,881 L178,881 C178.552,881 179,881.364 179,881.917 L179,889 L178,889 C176.895,889 176,889.812 176,890.917 L176,891.917 C176,892.469 175.552,893 175,893 L173,893 C172.448,893 172,892.469 172,891.917 L172,890.917 C172,889.812 171.105,889 170,889 L169,889 L169,881.917 Z M182,883 L181,883 L181,880.917 C181,879.812 180.105,879 179,879 L169,879 C167.895,879 167,879.812 167,880.917 L167,883 L166,883 L164,888.917 L164,896.917 C164,898.021 164.895,899 166,899 L182,899 C183.105,899 184,898.021 184,896.917 L184,888.917 L182,883 Z" id="inbox_minus_round-[#1545]"></path>
            </g>
        </g>
    </g>
</svg>