<?xml version="1.0" encoding="UTF-8" standalone="no"?>
<svg width="20px" height="20px" viewBox="0 0 20 20" version="1.1" xmlns="http://www.w3.org/2000/svg" xmlns:xlink="http://www.w3.org/1999/xlink">
    <!-- Generator: Sketch 3.8.1 (29687) - http://www.bohemiancoding.com/sketch -->
    <title>inbox_close [#1546]</title>
    <desc>Created with Sketch.</desc>
    <defs></defs>
    <g id="Page-1" stroke="none" stroke-width="1" fill="none" fill-rule="evenodd">
        <g id="Dribbble-Dark-Preview" transform="translate(-180.000000, -1039.000000)" fill="#FFFFFF">
            <g id="icons" transform="translate(56.000000, 160.000000)">
                <path d="M132.586,887.828 L131.172,886.414 L132.586,885 L131.172,883.585 L132.586,882.171 L134,883.585 L135.414,882.171 L136.829,883.585 L135.414,885 L136.829,886.414 L135.414,887.828 L134,886.414 L132.586,887.828 Z M141,889 L141,885.916 L142,889 L141,889 Z M142,897 L126,897 L126,891 L130,891 L130,895 L138,895 L138,891 L142,891 L142,897 Z M127,885.916 L127,889 L126,889 L127,885.916 Z M129,881 L139,881 L139,889 L136,889 L136,893 L132,893 L132,889 L129,889 L129,881 Z M142,883 L141,883 L141,879 L127,879 L127,883 L126,883 L124,888.916 L124,899 L144,899 L144,888.916 L142,883 Z" id="inbox_close-[#1546]"></path>
            </g>
        </g>
    </g>
</svg>