<?xml version="1.0" encoding="UTF-8" standalone="no"?>
<svg width="20px" height="11px" viewBox="0 0 20 11" version="1.1" xmlns="http://www.w3.org/2000/svg" xmlns:xlink="http://www.w3.org/1999/xlink">
    <!-- Generator: Sketch 3.8.1 (29687) - http://www.bohemiancoding.com/sketch -->
    <title>∞ [#1224]</title>
    <desc>Created with Sketch.</desc>
    <defs></defs>
    <g id="Page-1" stroke="none" stroke-width="1" fill="none" fill-rule="evenodd">
        <g id="Dribbble-Dark-Preview" transform="translate(-380.000000, -2684.000000)" fill="#FFFFFF">
            <g id="icons" transform="translate(56.000000, 160.000000)">
                <path d="M338.5,2533 C336.57,2533 335,2531.43 335,2529.5 C335,2527.57 336.57,2526 338.5,2526 C340.43,2526 342,2527.57 342,2529.5 C342,2531.43 340.43,2533 338.5,2533 M329.5,2533 C327.57,2533 326,2531.43 326,2529.5 C326,2527.57 327.57,2526 329.5,2526 C331.43,2526 333,2527.57 333,2529.5 C333,2531.43 331.43,2533 329.5,2533 M338.5,2524 C336.638,2524 334.995,2524.928 334,2526.344 C333.005,2524.928 331.362,2524 329.5,2524 C326.462,2524 324,2526.462 324,2529.5 C324,2532.538 326.462,2535 329.5,2535 C331.362,2535 333.005,2534.072 334,2532.656 C334.995,2534.072 336.638,2535 338.5,2535 C341.538,2535 344,2532.538 344,2529.5 C344,2526.462 341.538,2524 338.5,2524" id="∞-[#1224]"></path>
            </g>
        </g>
    </g>
</svg>