<?xml version="1.0" encoding="UTF-8" standalone="no"?>
<svg width="20px" height="11px" viewBox="0 0 20 11" version="1.1" xmlns="http://www.w3.org/2000/svg" xmlns:xlink="http://www.w3.org/1999/xlink">
    <!-- Generator: Sketch 3.8.1 (29687) - http://www.bohemiancoding.com/sketch -->
    <title>∞ [#1225]</title>
    <desc>Created with Sketch.</desc>
    <defs></defs>
    <g id="Page-1" stroke="none" stroke-width="1" fill="none" fill-rule="evenodd">
        <g id="Dribbble-Dark-Preview" transform="translate(-340.000000, -2684.000000)" fill="#FFFFFF">
            <g id="icons" transform="translate(56.000000, 160.000000)">
                <path d="M304,2529.5 C304,2532.538 301.538,2535 298.5,2535 C297.007,2535 295.655,2534.403 294.664,2533.437 C295.103,2532.861 295.42,2532.291 295.669,2531.54 C296.305,2532.421 297.333,2533 298.5,2533 C300.43,2533 302,2531.43 302,2529.5 C302,2527.57 300.43,2526 298.5,2526 C297.333,2526 296.305,2526.579 295.668,2527.46 C294.401,2529.214 295.639,2530.325 294,2532.656 C292.991,2534.092 291.338,2535 289.5,2535 C286.462,2535 284,2532.538 284,2529.5 C284,2526.462 286.462,2524 289.5,2524 C290.993,2524 292.345,2524.597 293.336,2525.563 C292.897,2526.139 292.58,2526.709 292.332,2527.46 C291.695,2526.579 290.667,2526 289.5,2526 C287.57,2526 286,2527.57 286,2529.5 C286,2531.43 287.57,2533 289.5,2533 C291.466,2533 293,2531.362 293,2529.5 C293,2526.447 295.486,2524 298.5,2524 C301.538,2524 304,2526.462 304,2529.5" id="∞-[#1225]"></path>
            </g>
        </g>
    </g>
</svg>