<?xml version="1.0" encoding="UTF-8" standalone="no"?>
<svg width="21px" height="20px" viewBox="0 0 21 20" version="1.1" xmlns="http://www.w3.org/2000/svg" xmlns:xlink="http://www.w3.org/1999/xlink">
    <!-- Generator: Sketch 3.8.1 (29687) - http://www.bohemiancoding.com/sketch -->
    <title>information [#1446]</title>
    <desc>Created with Sketch.</desc>
    <defs></defs>
    <g id="Page-1" stroke="none" stroke-width="1" fill="none" fill-rule="evenodd">
        <g id="Dribbble-Dark-Preview" transform="translate(-219.000000, -520.000000)" fill="#FFFFFF">
            <g id="icons" transform="translate(56.000000, 160.000000)">
                <path d="M174.55,366.512 L174.55,366.512 C174.55,367.064 174.0796,367.512 173.5,367.512 C172.9204,367.512 172.45,367.064 172.45,366.512 C172.45,365.96 172.9204,365.512 173.5,365.512 C174.0796,365.512 174.55,365.96 174.55,366.512 M180.85,378 L174.55,378 L174.55,371 C174.55,370.448 174.0796,370 173.5,370 C172.9204,370 172.45,370.448 172.45,371 L172.45,378 L166.15,378 C165.5704,378 165.1,377.552 165.1,377 L165.1,363 C165.1,362.448 165.5704,362 166.15,362 L180.85,362 C181.4296,362 181.9,362.448 181.9,363 L181.9,377 C181.9,377.552 181.4296,378 180.85,378 M163,362 L163,378 C163,379.105 163.93975,380 165.1,380 L181.9,380 C183.06025,380 184,379.105 184,378 L184,362 C184,360.896 183.06025,360 181.9,360 L165.1,360 C163.93975,360 163,360.896 163,362" id="information-[#1446]"></path>
            </g>
        </g>
    </g>
</svg>