<?xml version="1.0" encoding="UTF-8" standalone="no"?>
<svg width="20px" height="20px" viewBox="0 0 20 20" version="1.1" xmlns="http://www.w3.org/2000/svg" xmlns:xlink="http://www.w3.org/1999/xlink">
    <!-- Generator: Sketch 3.8.1 (29687) - http://www.bohemiancoding.com/sketch -->
    <title>key [#677]</title>
    <desc>Created with Sketch.</desc>
    <defs></defs>
    <g id="Page-1" stroke="none" stroke-width="1" fill="none" fill-rule="evenodd">
        <g id="Dribbble-Dark-Preview" transform="translate(-100.000000, -5199.000000)" fill="#FFFFFF">
            <g id="icons" transform="translate(56.000000, 160.000000)">
                <path d="M58.0221182,5048.95372 C55.8242503,5048.95372 54.0368636,5047.16802 54.0368636,5044.97223 C54.0368636,5042.77644 55.8242503,5040.99074 58.0221182,5040.99074 C60.2199861,5040.99074 62.0073727,5042.77644 62.0073727,5044.97223 C62.0073727,5047.16802 60.2199861,5048.95372 58.0221182,5048.95372 M58.0221182,5039 C54.7203348,5039 52.0442363,5041.67357 52.0442363,5044.97223 C52.0442363,5046.26621 52.4606954,5047.46165 53.1611039,5048.4401 L44,5057.59254 L45.4087875,5059 L46.8295307,5057.5806 L48.2104214,5058.96019 L49.6202052,5057.55273 L48.2383182,5056.17314 L50.2100229,5054.2033 L51.6108399,5055.6028 L53.0196274,5054.19534 L51.6188104,5052.79585 L54.5728803,5049.84457 C55.5482714,5050.53536 56.7358773,5050.94446 58.0221182,5050.94446 C61.3239016,5050.94446 64,5048.27089 64,5044.97223 C64,5041.67357 61.3239016,5039 58.0221182,5039" id="key-[#677]"></path>
            </g>
        </g>
    </g>
</svg>