<?xml version="1.0" encoding="UTF-8" standalone="no"?>
<svg width="20px" height="20px" viewBox="0 0 20 20" version="1.1" xmlns="http://www.w3.org/2000/svg" xmlns:xlink="http://www.w3.org/1999/xlink">
    <!-- Generator: Sketch 3.8.1 (29687) - http://www.bohemiancoding.com/sketch -->
    <title>key [#678]</title>
    <desc>Created with Sketch.</desc>
    <defs></defs>
    <g id="Page-1" stroke="none" stroke-width="1" fill="none" fill-rule="evenodd">
        <g id="Dribbble-Dark-Preview" transform="translate(-60.000000, -5199.000000)" fill="#FFFFFF">
            <g id="icons" transform="translate(56.000000, 160.000000)">
                <path d="M17.8962887,5049.16307 C15.6521707,5049.16307 13.8271718,5047.33984 13.8271718,5045.0979 C13.8271718,5042.85596 15.6521707,5041.03274 17.8962887,5041.03274 C20.1404067,5041.03274 21.9654057,5042.85596 21.9654057,5045.0979 C21.9654057,5047.33984 20.1404067,5049.16307 17.8962887,5049.16307 M16.5178754,5039.15057 C14.2646018,5039.64347 12.4497757,5041.45958 11.948257,5043.70863 C11.5352416,5045.55726 11.9726717,5047.29715 12.9329833,5048.63866 L4.29831714,5057.26494 C3.90056095,5057.66129 3.90056095,5058.3046 4.29831714,5058.70197 L4.29831714,5058.70197 C4.69607332,5059.09934 5.34001108,5059.09934 5.73674998,5058.70197 L6.46817375,5057.97126 L7.15890636,5058.66132 C7.55666254,5059.05869 8.2006003,5059.05869 8.5973392,5058.66132 L8.5973392,5058.66132 C8.99509539,5058.26497 8.99509539,5057.62166 8.5973392,5057.22429 L7.9066066,5056.53422 L9.91980221,5054.52298 L10.6308804,5055.23337 C11.0276193,5055.63074 11.6715571,5055.63074 12.0693132,5055.23337 L12.0693132,5055.23337 C12.4660522,5054.83702 12.4660522,5054.19371 12.0693132,5053.79634 L11.3582351,5053.08595 L14.374468,5050.07265 C15.715242,5051.02186 17.4507204,5051.45175 19.2940304,5051.03914 C21.5412002,5050.53709 23.3550091,5048.72504 23.8483896,5046.47802 C24.8219258,5042.04191 20.9582992,5038.18102 16.5178754,5039.15057" id="key-[#678]"></path>
            </g>
        </g>
    </g>
</svg>