<?xml version="1.0" encoding="UTF-8" standalone="no"?>
<svg width="20px" height="20px" viewBox="0 0 20 20" version="1.1" xmlns="http://www.w3.org/2000/svg" xmlns:xlink="http://www.w3.org/1999/xlink">
    <!-- Generator: Sketch 3.8.1 (29687) - http://www.bohemiancoding.com/sketch -->
    <title>key_round [#680]</title>
    <desc>Created with Sketch.</desc>
    <defs></defs>
    <g id="Page-1" stroke="none" stroke-width="1" fill="none" fill-rule="evenodd">
        <g id="Dribbble-Dark-Preview" transform="translate(-380.000000, -5159.000000)" fill="#FFFFFF">
            <g id="icons" transform="translate(56.000000, 160.000000)">
                <path d="M337.896289,5009.16307 C335.652171,5009.16307 333.827172,5007.33984 333.827172,5005.0979 C333.827172,5002.85596 335.652171,5001.03274 337.896289,5001.03274 C340.140407,5001.03274 341.965406,5002.85596 341.965406,5005.0979 C341.965406,5007.33984 340.140407,5009.16307 337.896289,5009.16307 M336.517875,4999.15057 C334.264602,4999.64347 332.449776,5001.45958 331.948257,5003.70863 C331.535242,5005.55726 331.972672,5007.29715 332.932983,5008.63866 L328.025628,5013.54125 L327.323706,5012.84001 C326.925949,5012.44264 326.282012,5012.44264 325.885273,5012.84001 L325.885273,5012.84001 C325.487517,5013.23636 325.487517,5013.87967 325.885273,5014.27704 L326.587195,5014.97828 L324.298317,5017.26494 C323.900561,5017.66129 323.900561,5018.3046 324.298317,5018.70197 C324.696073,5019.09934 325.340011,5019.09934 325.73675,5018.70197 L326.468174,5017.97126 L327.158906,5018.66132 C327.556663,5019.05869 328.2006,5019.05869 328.597339,5018.66132 C328.995095,5018.26497 328.995095,5017.62166 328.597339,5017.22429 L327.906607,5016.53422 L329.919802,5014.52298 L330.63088,5015.23337 C331.027619,5015.63074 331.671557,5015.63074 332.069313,5015.23337 L332.069313,5015.23337 C332.466052,5014.83702 332.466052,5014.19371 332.069313,5013.79634 L331.358235,5013.08595 L334.374468,5010.07265 C335.715242,5011.02186 337.45072,5011.45175 339.29403,5011.03914 C341.5412,5010.53709 343.355009,5008.72504 343.84839,5006.47802 C344.821926,5002.04191 340.958299,4998.18102 336.517875,4999.15057" id="key_round-[#680]"></path>
            </g>
        </g>
    </g>
</svg>