<?xml version="1.0" encoding="UTF-8" standalone="no"?>
<svg width="20px" height="20px" viewBox="0 0 20 20" version="1.1" xmlns="http://www.w3.org/2000/svg" xmlns:xlink="http://www.w3.org/1999/xlink">
    <!-- Generator: Sketch 3.8.1 (29687) - http://www.bohemiancoding.com/sketch -->
    <title>leaf [#97]</title>
    <desc>Created with Sketch.</desc>
    <defs></defs>
    <g id="Page-1" stroke="none" stroke-width="1" fill="none" fill-rule="evenodd">
        <g id="Dribbble-Dark-Preview" transform="translate(-100.000000, -7799.000000)" fill="#FFFFFF">
            <g id="icons" transform="translate(56.000000, 160.000000)">
                <path d="M55.6813834,7653.7949 C55.248946,7653.3299 54.6393292,7653.0629 54.0106933,7653.0629 C53.3830583,7653.0629 52.7744426,7653.3279 52.3420051,7653.7909 C51.0026501,7655.2209 48.8324546,7655.3799 47.4740804,7654.4259 C45.2958768,7652.8969 45.7633497,7649.9629 47.2688728,7647.8169 C47.8064166,7647.0519 48.4630809,7646.2749 49.334963,7645.3729 C49.5471777,7645.1539 53.8915727,7640.8259 54.1107945,7641.0359 C56.3100194,7643.1459 59.8335841,7646.0109 61.3381062,7648.7619 C64.1119123,7653.8329 58.5733091,7656.9039 55.6813834,7653.7949 M63.0928814,7647.8029 C61.402171,7644.7119 57.8505779,7641.8499 55.4971971,7639.5929 C54.6573475,7638.7879 53.3820573,7638.8149 52.5281935,7639.5979 C50.5872299,7641.3769 47.4150206,7644.1259 45.630215,7646.6689 C43.1567126,7650.1919 43.3669253,7654.6609 47.1657685,7656.5629 C48.1677822,7657.0649 50.9195661,7657.5399 53.1728456,7655.7339 L52.6873545,7657.1129 C52.3630264,7658.0349 53.047719,7658.9999 54.0257084,7658.9999 C55.0036978,7658.9999 55.6873895,7658.0349 55.3630614,7657.1129 L54.8875804,7655.7619 C58.4631977,7658.5489 63.9847837,7656.4199 63.9847837,7651.9189 C63.9847837,7650.5599 63.9977969,7650.6799 63.9977969,7650.6799 C64.0328323,7650.6799 63.6464414,7648.8149 63.0928814,7647.8029" id="leaf-[#97]"></path>
            </g>
        </g>
    </g>
</svg>