<?xml version="1.0" encoding="UTF-8" standalone="no"?>
<svg width="14px" height="20px" viewBox="0 0 14 20" version="1.1" xmlns="http://www.w3.org/2000/svg" xmlns:xlink="http://www.w3.org/1999/xlink">
    <!-- Generator: Sketch 3.8.1 (29687) - http://www.bohemiancoding.com/sketch -->
    <title>light_bulb [#676]</title>
    <desc>Created with Sketch.</desc>
    <defs></defs>
    <g id="Page-1" stroke="none" stroke-width="1" fill="none" fill-rule="evenodd">
        <g id="Dribbble-Dark-Preview" transform="translate(-143.000000, -5199.000000)" fill="#FFFFFF">
            <g id="icons" transform="translate(56.000000, 160.000000)">
                <path d="M98.1242718,5054.86 C97.1734717,5056.22 95.680775,5057 94.0292809,5057 C92.3787792,5057 90.8860825,5056.22 89.9352824,5054.86 C88.9834898,5053.5 88.7572033,5051.822 89.3120022,5050.255 L90.4662616,5047 L97.5932926,5047 L98.7475521,5050.255 C99.3023509,5051.822 99.0750719,5053.5 98.1242718,5054.86 L98.1242718,5054.86 Z M90.9932709,5045 L96.9481777,5045 L96.9481777,5041 L90.9932709,5041 L90.9932709,5045 Z M100.586626,5049.582 L98.9331467,5045 L98.9331467,5039 L89.0083019,5039 L89.0083019,5045 L87.4133794,5049.582 C85.7866973,5054.172 89.1631295,5059 93.9995063,5059 C98.8368757,5059 102.213308,5054.172 100.586626,5049.582 L100.586626,5049.582 Z" id="light_bulb-[#676]"></path>
            </g>
        </g>
    </g>
</svg>