<?xml version="1.0" encoding="UTF-8" standalone="no"?>
<svg width="21px" height="20px" viewBox="0 0 21 20" version="1.1" xmlns="http://www.w3.org/2000/svg" xmlns:xlink="http://www.w3.org/1999/xlink">
    <!-- Generator: Sketch 3.8.1 (29687) - http://www.bohemiancoding.com/sketch -->
    <title>like [#1386]</title>
    <desc>Created with Sketch.</desc>
    <defs></defs>
    <g id="Page-1" stroke="none" stroke-width="1" fill="none" fill-rule="evenodd">
        <g id="Dribbble-Dark-Preview" transform="translate(-219.000000, -760.000000)" fill="#FFFFFF">
            <g id="icons" transform="translate(56.000000, 160.000000)">
                <path d="M163,610.021159 L163,618.021159 C163,619.126159 163.93975,620.000159 165.1,620.000159 L167.199999,620.000159 L167.199999,608.000159 L165.1,608.000159 C163.93975,608.000159 163,608.916159 163,610.021159 M183.925446,611.355159 L182.100546,617.890159 C181.800246,619.131159 180.639996,620.000159 179.302297,620.000159 L169.299999,620.000159 L169.299999,608.021159 L171.104948,601.826159 C171.318098,600.509159 172.754498,599.625159 174.209798,600.157159 C175.080247,600.476159 175.599997,601.339159 175.599997,602.228159 L175.599997,607.021159 C175.599997,607.573159 176.070397,608.000159 176.649997,608.000159 L181.127196,608.000159 C182.974146,608.000159 184.340196,609.642159 183.925446,611.355159" id="like-[#1386]"></path>
            </g>
        </g>
    </g>
</svg>