<?xml version="1.0" encoding="UTF-8" standalone="no"?>
<svg width="18px" height="18px" viewBox="0 0 18 18" version="1.1" xmlns="http://www.w3.org/2000/svg" xmlns:xlink="http://www.w3.org/1999/xlink">
    <!-- Generator: Sketch 3.8.1 (29687) - http://www.bohemiancoding.com/sketch -->
    <title>linkbroken_down_round [#1015]</title>
    <desc>Created with Sketch.</desc>
    <defs></defs>
    <g id="Page-1" stroke="none" stroke-width="1" fill="none" fill-rule="evenodd">
        <g id="Dribbble-Dark-Preview" transform="translate(-182.000000, -3680.000000)" fill="#FFFFFF">
            <g id="icons" transform="translate(56.000000, 160.000000)">
                <path d="M137.184269,3533.83669 C137.190407,3533.84283 137.194499,3533.85203 137.200636,3533.85817 C137.207797,3533.86431 137.21598,3533.86738 137.222118,3533.87454 L137.184269,3533.83669 Z M135.692844,3534.03207 L134.968613,3534.75528 C133.27874,3536.44619 130.46365,3536.34594 128.90778,3534.4525 C127.551381,3532.80353 127.800975,3530.35054 129.311836,3528.84069 L129.906155,3528.24637 C130.298959,3527.85254 130.347036,3527.03215 129.967531,3526.62502 C129.564498,3526.24961 128.852542,3526.40612 128.459739,3526.79995 L127.917588,3527.34005 C125.541333,3529.71735 125.300945,3533.62085 127.604573,3536.06668 C129.989012,3538.59844 133.97433,3538.64345 136.416053,3536.20273 L137.139261,3535.4785 C137.532064,3535.08569 137.580142,3534.2653 137.200636,3533.85817 C136.797604,3533.48276 136.085648,3533.63926 135.692844,3534.03207 L135.692844,3534.03207 Z M129.951164,3526.60354 C129.957302,3526.60968 129.961393,3526.61889 129.967531,3526.62502 C129.974691,3526.63116 129.981852,3526.63423 129.989012,3526.64139 L129.951164,3526.60354 Z M132.76114,3523.86822 C133.161104,3524.26819 133.846464,3524.30604 134.245405,3523.90607 L134.839725,3523.31175 C136.350585,3521.80088 138.802537,3521.55128 140.452516,3522.90769 C142.344928,3524.46357 142.446198,3527.27868 140.755302,3528.96958 L140.032094,3529.6928 C139.633153,3530.09174 139.557456,3530.66458 139.95742,3531.06455 L139.994245,3531.10137 C140.394209,3531.50134 141.079569,3531.53816 141.47851,3531.13922 L142.202741,3530.41601 C144.643441,3527.97529 144.598433,3523.98893 142.066692,3521.60448 C139.619855,3519.30083 135.716372,3519.54122 133.340116,3521.91852 L132.798988,3522.45965 C132.400047,3522.85859 132.324351,3523.43143 132.724315,3523.83038 L132.76114,3523.86822 Z M138.585677,3531.13922 C138.185713,3530.73925 137.538202,3530.73925 137.139261,3531.13922 C136.739297,3531.53816 136.739297,3532.1867 137.139261,3532.58565 L140.755302,3536.20273 C141.155266,3536.60167 141.802778,3536.60167 142.202741,3536.20273 C142.601682,3535.80276 142.601682,3535.15525 142.202741,3534.75528 L138.585677,3531.13922 Z M131.352572,3526.79995 C131.752536,3527.19889 132.400047,3527.19889 132.798988,3526.79995 C133.198952,3526.39998 133.198952,3525.75246 132.798988,3525.3525 L129.182947,3521.73541 C128.782983,3521.33647 128.135472,3521.33647 127.735508,3521.73541 C127.336567,3522.13538 127.336567,3522.78289 127.735508,3523.18286 L131.352572,3526.79995 Z M139.429591,3524.50858 C139.829554,3524.90752 139.829554,3525.55606 139.429591,3525.955 L132.196485,3533.18917 C131.796522,3533.58812 131.14901,3533.58812 130.750069,3533.18917 C130.350105,3532.78921 130.350105,3532.14169 130.750069,3531.74173 L137.983174,3524.50858 C138.382115,3524.10964 139.029627,3524.10964 139.429591,3524.50858 L139.429591,3524.50858 Z" id="linkbroken_down_round-[#1015]"></path>
            </g>
        </g>
    </g>
</svg>