<?xml version="1.0" encoding="UTF-8" standalone="no"?>
<svg width="20px" height="12px" viewBox="0 0 20 12" version="1.1" xmlns="http://www.w3.org/2000/svg" xmlns:xlink="http://www.w3.org/1999/xlink">
    <!-- Generator: Sketch 3.8.1 (29687) - http://www.bohemiancoding.com/sketch -->
    <title>link_round [#1109]</title>
    <desc>Created with Sketch.</desc>
    <defs></defs>
    <g id="Page-1" stroke="none" stroke-width="1" fill="none" fill-rule="evenodd">
        <g id="Dribbble-Dark-Preview" transform="translate(-420.000000, -3283.000000)" fill="#FFFFFF">
            <g id="icons" transform="translate(56.000000, 160.000000)">
                <path d="M370.999774,3133 L369.999774,3133 C367.662774,3133 365.786774,3130.985 366.019774,3128.6 C366.221774,3126.522 368.089774,3125 370.177774,3125 L370.999774,3125 C371.551774,3125 371.999774,3124.552 371.999774,3124 C371.999774,3123.448 371.551774,3123 370.999774,3123 L370.251774,3123 C366.965774,3123 364.100774,3125.532 364.002774,3128.815 C363.900774,3132.213 366.624774,3135 369.999774,3135 L370.999774,3135 C371.551774,3135 371.999774,3134.552 371.999774,3134 C371.999774,3133.448 371.551774,3133 370.999774,3133 M377.747774,3123 L376.999774,3123 C376.447774,3123 375.999774,3123.448 375.999774,3124 C375.999774,3124.552 376.447774,3125 376.999774,3125 L377.821774,3125 C379.909774,3125 381.777774,3126.522 381.979774,3128.6 C382.212774,3130.985 380.336774,3133 377.999774,3133 L376.999774,3133 C376.447774,3133 375.999774,3133.448 375.999774,3134 C375.999774,3135.104 376.999774,3135 377.999774,3135 C381.374774,3135 384.098774,3132.213 383.996774,3128.815 C383.898774,3125.532 381.033774,3123 377.747774,3123 M368.999774,3128 L378.999774,3128 C379.551774,3128 379.999774,3128.448 379.999774,3129 C379.999774,3130.346 379.210774,3130 368.999774,3130 C368.447774,3130 367.999774,3129.552 367.999774,3129 C367.999774,3128.448 368.447774,3128 368.999774,3128" id="link_round-[#1109]"></path>
            </g>
        </g>
    </g>
</svg>