<?xml version="1.0" encoding="UTF-8" standalone="no"?>
<svg width="20px" height="20px" viewBox="0 0 20 20" version="1.1" xmlns="http://www.w3.org/2000/svg" xmlns:xlink="http://www.w3.org/1999/xlink">
    <!-- Generator: Sketch 3.8.1 (29687) - http://www.bohemiancoding.com/sketch -->
    <title>linkbroken_down [#1017]</title>
    <desc>Created with Sketch.</desc>
    <defs></defs>
    <g id="Page-1" stroke="none" stroke-width="1" fill="none" fill-rule="evenodd">
        <g id="Dribbble-Dark-Preview" transform="translate(-100.000000, -3679.000000)" fill="#FFFFFF">
            <g id="icons" transform="translate(56.000000, 160.000000)">
                <path d="M53,3538.96905 L55,3539 L55,3532.01083 L53,3531.97988 L53,3538.96905 Z M55,3519.03095 L53,3519 L53,3525.98917 L55,3526.02012 L55,3519.03095 Z M48,3529.98298 L60,3529.98298 L60,3527.98607 L48,3527.98607 L48,3529.98298 Z M57,3522.99381 L57,3524.99071 L62,3524.99071 L62,3532.97833 L57,3532.97833 L57,3534.97524 L64,3534.97524 L64,3522.99381 L57,3522.99381 Z M46,3532.97833 L51,3532.97833 L51,3534.97524 L44,3534.97524 L44,3522.99381 L51,3522.99381 L51,3524.99071 L46,3524.99071 L46,3532.97833 Z" id="linkbroken_down-[#1017]"></path>
            </g>
        </g>
    </g>
</svg>