<?xml version="1.0" encoding="UTF-8" standalone="no"?>
<svg width="20px" height="20px" viewBox="0 0 20 20" version="1.1" xmlns="http://www.w3.org/2000/svg" xmlns:xlink="http://www.w3.org/1999/xlink">
    <!-- Generator: Sketch 3.8.1 (29687) - http://www.bohemiancoding.com/sketch -->
    <title>linkbroken_down_round [#1016]</title>
    <desc>Created with Sketch.</desc>
    <defs></defs>
    <g id="Page-1" stroke="none" stroke-width="1" fill="none" fill-rule="evenodd">
        <g id="Dribbble-Dark-Preview" transform="translate(-140.000000, -3679.000000)" fill="#FFFFFF">
            <g id="icons" transform="translate(56.000000, 160.000000)">
                <path d="M92.1667741,3533.948 L92.1667741,3533.896 C92.1667741,3533.896 92.1637741,3533.914 92.1627741,3533.922 C92.1637741,3533.931 92.1667741,3533.939 92.1667741,3533.948 L92.1667741,3533.948 Z M90.9997741,3533 L89.9997741,3533 C87.6627741,3533 85.7867741,3530.985 86.0197741,3528.601 C86.2217741,3526.523 88.0907741,3525 90.1777741,3525 L90.9997741,3525 C91.5437741,3525 92.1437741,3524.466 92.1627741,3523.922 C92.1437741,3523.384 91.5437741,3523 90.9997741,3523 L90.2517741,3523 C86.9667741,3523 84.1017741,3525.532 84.0027741,3528.816 C83.9007741,3532.214 86.6247741,3535 89.9997741,3535 L90.9997741,3535 C91.5437741,3535 92.1437741,3534.466 92.1627741,3533.922 C92.1437741,3533.384 91.5437741,3533 90.9997741,3533 L90.9997741,3533 Z M92.1667741,3523.896 C92.1667741,3523.896 92.1637741,3523.914 92.1627741,3523.922 C92.1637741,3523.931 92.1667741,3523.939 92.1667741,3523.948 L92.1667741,3523.896 Z M97.7487741,3523 L96.9997741,3523 C96.4477741,3523 95.9997741,3523.344 95.9997741,3523.896 L95.9997741,3523.948 C95.9997741,3524.5 96.4477741,3525 96.9997741,3525 L97.8217741,3525 C99.9097741,3525 101.777774,3526.523 101.980774,3528.601 C102.212774,3530.985 100.337774,3533 97.9997741,3533 L96.9997741,3533 C96.4477741,3533 95.9997741,3533.344 95.9997741,3533.896 L95.9997741,3533.948 C95.9997741,3534.5 96.4477741,3535 96.9997741,3535 L97.9997741,3535 C101.374774,3535 104.098774,3532.214 103.997774,3528.816 C103.898774,3525.532 101.033774,3523 97.7487741,3523 L97.7487741,3523 Z M93.9997741,3532 C93.4477741,3532 92.9997741,3532.448 92.9997741,3533 L92.9997741,3538 C92.9997741,3538.552 93.4477741,3539 93.9997741,3539 C94.5527741,3539 94.9997741,3538.552 94.9997741,3538 L94.9997741,3533 C94.9997741,3532.448 94.5527741,3532 93.9997741,3532 L93.9997741,3532 Z M93.9997741,3526 C94.5527741,3526 94.9997741,3525.552 94.9997741,3525 L94.9997741,3520 C94.9997741,3519.448 94.5527741,3519 93.9997741,3519 C93.4477741,3519 92.9997741,3519.448 92.9997741,3520 L92.9997741,3525 C92.9997741,3525.552 93.4477741,3526 93.9997741,3526 L93.9997741,3526 Z M89.1667741,3528 L99.1667741,3528 C99.7187741,3528 100.166774,3528.448 100.166774,3529 C100.166774,3529.552 99.7187741,3530 99.1667741,3530 L89.1667741,3530 C88.6147741,3530 88.1667741,3529.552 88.1667741,3529 C88.1667741,3528.448 88.6147741,3528 89.1667741,3528 L89.1667741,3528 Z" id="linkbroken_down_round-[#1016]"></path>
            </g>
        </g>
    </g>
</svg>