<?xml version="1.0" encoding="UTF-8" standalone="no"?>
<svg width="20px" height="20px" viewBox="0 0 20 20" version="1.1" xmlns="http://www.w3.org/2000/svg" xmlns:xlink="http://www.w3.org/1999/xlink">
    <!-- Generator: Sketch 3.8.1 (29687) - http://www.bohemiancoding.com/sketch -->
    <title>link_round [#1110]</title>
    <desc>Created with Sketch.</desc>
    <defs></defs>
    <g id="Page-1" stroke="none" stroke-width="1" fill="none" fill-rule="evenodd">
        <g id="Dribbble-Dark-Preview" transform="translate(-380.000000, -3279.000000)" fill="#FFFFFF">
            <g id="icons" transform="translate(56.000000, 160.000000)">
                <path d="M342.238743,3120.76128 C339.890401,3118.41291 336.082738,3118.41291 333.734396,3120.76128 L331.165552,3123.33016 L332.582776,3124.7474 L335.15162,3122.17852 C336.718184,3120.61194 339.253953,3120.61194 340.821519,3122.17852 C342.384074,3123.7421 342.384074,3126.28491 340.821519,3127.84849 L338.252675,3130.41737 L339.669899,3131.83461 L342.238743,3129.26573 C344.587086,3126.91736 344.587086,3123.10965 342.238743,3120.76128 L342.238743,3120.76128 Z M332.84838,3135.82073 C332.091659,3136.57846 331.084367,3136.99541 330.013932,3136.99541 C328.943496,3136.99541 327.936205,3136.57846 327.179483,3135.82073 C325.615926,3134.25815 325.615926,3131.71433 327.179483,3130.15176 L329.748327,3127.58288 L328.330101,3126.16464 L325.761257,3128.73352 C323.412914,3131.08189 323.412914,3134.8896 325.761257,3137.23897 C326.935929,3138.41266 328.474429,3139 330.013932,3139 C331.553434,3139 333.091934,3138.41266 334.266607,3137.23897 L336.835451,3134.6701 L335.417224,3133.25185 L332.84838,3135.82073 Z M336.263149,3125.31971 L337.680373,3126.73695 L331.721817,3132.69558 L330.304593,3131.27834 L336.263149,3125.31971 Z" id="link_round-[#1110]"></path>
            </g>
        </g>
    </g>
</svg>