<?xml version="1.0" encoding="UTF-8" standalone="no"?>
<svg width="16px" height="20px" viewBox="0 0 16 20" version="1.1" xmlns="http://www.w3.org/2000/svg" xmlns:xlink="http://www.w3.org/1999/xlink">
    <!-- Generator: Sketch 3.8.1 (29687) - http://www.bohemiancoding.com/sketch -->
    <title>lire [#1187]</title>
    <desc>Created with Sketch.</desc>
    <defs></defs>
    <g id="Page-1" stroke="none" stroke-width="1" fill="none" fill-rule="evenodd">
        <g id="Dribbble-Dark-Preview" transform="translate(-142.000000, -2919.000000)" fill="#FFFFFF">
            <g id="icons" transform="translate(56.000000, 160.000000)">
                <path d="M101.4895,2775.95816 L101.4895,2777.95324 C97.0795,2778.73332 97.1835,2779.17423 95.8675,2778.93482 C93.8885,2778.57471 93.0175,2777.3228 89.7545,2778.13679 L86.4895,2778.95078 L86.4895,2776.9557 C87.7765,2776.9557 87.9675,2776.2255 88.5165,2775.06437 C89.0475,2773.93914 89.3495,2772.95158 89.4705,2771.96801 L86.4895,2771.96801 L86.4895,2769.97293 L89.4835,2769.97293 C89.4235,2769.34947 89.3085,2768.69209 89.1495,2767.97785 L86.4895,2767.97785 L86.4895,2765.98277 L88.7165,2765.98277 C88.2715,2762.33577 91.1115,2759 94.9175,2759 L99.4895,2759 L99.4895,2762.99016 L97.4895,2762.99016 L97.4895,2760.99508 L95.0285,2760.99508 C92.3405,2760.99508 90.2835,2763.38618 90.6915,2765.98277 L96.4895,2765.98277 L96.4895,2767.97785 L91.1175,2767.97785 C91.2595,2768.68511 91.3645,2769.34149 91.4205,2769.97293 L96.4895,2769.97293 L96.4895,2771.96801 L91.4045,2771.96801 C91.2325,2773.46631 91.1475,2774.1596 89.9685,2776.11976 C92.4925,2775.46338 93.3305,2776.10181 95.3965,2776.75619 C96.8785,2777.22504 97.0225,2776.66941 101.4895,2775.95816" id="lire-[#1187]"></path>
            </g>
        </g>
    </g>
</svg>