<?xml version="1.0" encoding="UTF-8" standalone="no"?>
<svg width="21px" height="20px" viewBox="0 0 21 20" version="1.1" xmlns="http://www.w3.org/2000/svg" xmlns:xlink="http://www.w3.org/1999/xlink">
    <!-- Generator: Sketch 3.8.1 (29687) - http://www.bohemiancoding.com/sketch -->
    <title>list [#1540]</title>
    <desc>Created with Sketch.</desc>
    <defs></defs>
    <g id="Page-1" stroke="none" stroke-width="1" fill="none" fill-rule="evenodd">
        <g id="Dribbble-Dark-Preview" transform="translate(-59.000000, -160.000000)" fill="#FFFFFF">
            <g id="icons" transform="translate(56.000000, 160.000000)">
                <path d="M6.15,14 C7.88985,14 9.3,15.343 9.3,17 C9.3,18.657 7.88985,20 6.15,20 C4.41015,20 3,18.657 3,17 C3,15.343 4.41015,14 6.15,14 L6.15,14 Z M6.15,16 C5.57145,16 5.1,16.449 5.1,17 C5.1,17.551 5.57145,18 6.15,18 C6.72855,18 7.2,17.551 7.2,17 C7.2,16.449 6.72855,16 6.15,16 L6.15,16 Z M6.15,0 C7.88985,0 9.3,1.343 9.3,3 C9.3,4.657 7.88985,6 6.15,6 C4.41015,6 3,4.657 3,3 C3,1.343 4.41015,0 6.15,0 L6.15,0 Z M6.15,2 C5.57145,2 5.1,2.449 5.1,3 C5.1,3.551 5.57145,4 6.15,4 C6.72855,4 7.2,3.551 7.2,3 C7.2,2.449 6.72855,2 6.15,2 L6.15,2 Z M6.15,7 C7.88985,7 9.3,8.343 9.3,10 C9.3,11.657 7.88985,13 6.15,13 C4.41015,13 3,11.657 3,10 C3,8.343 4.41015,7 6.15,7 L6.15,7 Z M6.15,9 C5.57145,9 5.1,9.449 5.1,10 C5.1,10.551 5.57145,11 6.15,11 C6.72855,11 7.2,10.551 7.2,10 C7.2,9.449 6.72855,9 6.15,9 L6.15,9 Z M11.4,18 L24,18 L24,16 L11.4,16 L11.4,18 Z M11.4,4 L24,4 L24,2 L11.4,2 L11.4,4 Z M11.4,11 L24,11 L24,9 L11.4,9 L11.4,11 Z" id="list-[#1540]"></path>
            </g>
        </g>
    </g>
</svg>