<?xml version="1.0" encoding="UTF-8" standalone="no"?>
<svg width="21px" height="10px" viewBox="0 0 21 10" version="1.1" xmlns="http://www.w3.org/2000/svg" xmlns:xlink="http://www.w3.org/1999/xlink">
    <!-- Generator: Sketch 3.8.1 (29687) - http://www.bohemiancoding.com/sketch -->
    <title>list [#1508]</title>
    <desc>Created with Sketch.</desc>
    <defs></defs>
    <g id="Page-1" stroke="none" stroke-width="1" fill="none" fill-rule="evenodd">
        <g id="Dribbble-Dark-Preview" transform="translate(-139.000000, -285.000000)" fill="#FFFFFF">
            <g id="icons" transform="translate(56.000000, 160.000000)">
                <path d="M84.575,133 L83.525,133 C83.2352,133 83,133.224 83,133.5 L83,134.5 C83,134.776 83.2352,135 83.525,135 L84.575,135 C84.8648,135 85.1,134.776 85.1,134.5 L85.1,133.5 C85.1,133.224 84.8648,133 84.575,133 M84.575,125.006 L83.525,125.006 C83.2352,125.006 83,125.23 83,125.506 L83,126.506 C83,126.782 83.2352,127.006 83.525,127.006 L84.575,127.006 C84.8648,127.006 85.1,126.782 85.1,126.506 L85.1,125.506 C85.1,125.23 84.8648,125.006 84.575,125.006 M84.575,129 L83.525,129 C83.2352,129 83,129.224 83,129.5 L83,130.5 C83,130.776 83.2352,131 83.525,131 L84.575,131 C84.8648,131 85.1,130.776 85.1,130.5 L85.1,129.5 C85.1,129.224 84.8648,129 84.575,129 M103.475,133 L87.725,133 C87.4352,133 87.2,133.224 87.2,133.5 L87.2,134.5 C87.2,134.776 87.4352,135 87.725,135 L103.475,135 C103.7648,135 104,134.776 104,134.5 L104,133.5 C104,133.224 103.7648,133 103.475,133 M103.475,125 L87.725,125 C87.4352,125 87.2,125.224 87.2,125.5 L87.2,126.5 C87.2,126.776 87.4352,127 87.725,127 L103.475,127 C103.7648,127 104,126.776 104,126.5 L104,125.5 C104,125.224 103.7648,125 103.475,125 M104,129.5 L104,130.5 C104,130.776 103.7648,131 103.475,131 L87.725,131 C87.4352,131 87.2,130.776 87.2,130.5 L87.2,129.5 C87.2,129.224 87.4352,129 87.725,129 L103.475,129 C103.7648,129 104,129.224 104,129.5" id="list-[#1508]"></path>
            </g>
        </g>
    </g>
</svg>