<?xml version="1.0" encoding="UTF-8" standalone="no"?>
<svg width="21px" height="20px" viewBox="0 0 21 20" version="1.1" xmlns="http://www.w3.org/2000/svg" xmlns:xlink="http://www.w3.org/1999/xlink">
    <!-- Generator: Sketch 3.8.1 (29687) - http://www.bohemiancoding.com/sketch -->
    <title>list [#1422]</title>
    <desc>Created with Sketch.</desc>
    <defs></defs>
    <g id="Page-1" stroke="none" stroke-width="1" fill="none" fill-rule="evenodd">
        <g id="Dribbble-Dark-Preview" transform="translate(-379.000000, -600.000000)" fill="#FFFFFF">
            <g id="icons" transform="translate(56.000000, 160.000000)">
                <path d="M326.15,444 C325.5704,444 325.1,443.552 325.1,443 C325.1,442.448 325.5704,442 326.15,442 C326.7296,442 327.2,442.448 327.2,443 C327.2,443.552 326.7296,444 326.15,444 M327.2,440 L325.1,440 C323.93975,440 323,440.895 323,442 L323,444 C323,445.105 323.93975,446 325.1,446 L327.2,446 C328.36025,446 329.3,445.105 329.3,444 L329.3,442 C329.3,440.895 328.36025,440 327.2,440 M326.15,451 C325.5704,451 325.1,450.552 325.1,450 C325.1,449.448 325.5704,449 326.15,449 C326.7296,449 327.2,449.448 327.2,450 C327.2,450.552 326.7296,451 326.15,451 M327.2,447 L325.1,447 C323.93975,447 323,447.895 323,449 L323,451 C323,452.105 323.93975,453 325.1,453 L327.2,453 C328.36025,453 329.3,452.105 329.3,451 L329.3,449 C329.3,447.895 328.36025,447 327.2,447 M326.15,458 C325.5704,458 325.1,457.552 325.1,457 C325.1,456.448 325.5704,456 326.15,456 C326.7296,456 327.2,456.448 327.2,457 C327.2,457.552 326.7296,458 326.15,458 M327.2,454 L325.1,454 C323.93975,454 323,454.895 323,456 L323,458 C323,459.105 323.93975,460 325.1,460 L327.2,460 C328.36025,460 329.3,459.105 329.3,458 L329.3,456 C329.3,454.895 328.36025,454 327.2,454 M340.85,451 L334.55,451 C333.9704,451 333.5,450.552 333.5,450 C333.5,449.448 333.9704,449 334.55,449 L340.85,449 C341.4296,449 341.9,449.448 341.9,450 C341.9,450.552 341.4296,451 340.85,451 M341.9,447 L333.5,447 C332.33975,447 331.4,447.895 331.4,449 L331.4,451 C331.4,452.105 332.33975,453 333.5,453 L341.9,453 C343.06025,453 344,452.105 344,451 L344,449 C344,447.895 343.06025,447 341.9,447 M340.85,444 L334.55,444 C333.9704,444 333.5,443.552 333.5,443 C333.5,442.448 333.9704,442 334.55,442 L340.85,442 C341.4296,442 341.9,442.448 341.9,443 C341.9,443.552 341.4296,444 340.85,444 M341.9,440 L333.5,440 C332.33975,440 331.4,440.895 331.4,442 L331.4,444 C331.4,445.105 332.33975,446 333.5,446 L341.9,446 C343.06025,446 344,445.105 344,444 L344,442 C344,440.895 343.06025,440 341.9,440 M340.85,458 L334.55,458 C333.9704,458 333.5,457.552 333.5,457 C333.5,456.448 333.9704,456 334.55,456 L340.85,456 C341.4296,456 341.9,456.448 341.9,457 C341.9,457.552 341.4296,458 340.85,458 M341.9,454 L333.5,454 C332.33975,454 331.4,454.895 331.4,456 L331.4,458 C331.4,459.105 332.33975,460 333.5,460 L341.9,460 C343.06025,460 344,459.105 344,458 L344,456 C344,454.895 343.06025,454 341.9,454" id="list-[#1422]"></path>
            </g>
        </g>
    </g>
</svg>