<?xml version="1.0" encoding="UTF-8" standalone="no"?>
<svg width="21px" height="15px" viewBox="0 0 21 15" version="1.1" xmlns="http://www.w3.org/2000/svg" xmlns:xlink="http://www.w3.org/1999/xlink">
    <!-- Generator: Sketch 3.8.1 (29687) - http://www.bohemiancoding.com/sketch -->
    <title>list [#1496]</title>
    <desc>Created with Sketch.</desc>
    <defs></defs>
    <g id="Page-1" stroke="none" stroke-width="1" fill="none" fill-rule="evenodd">
        <g id="Dribbble-Dark-Preview" transform="translate(-219.000000, -322.000000)" fill="#FFFFFF">
            <g id="icons" transform="translate(56.000000, 160.000000)">
                <path d="M163,177 L166.15,177 L166.15,174 L163,174 L163,177 Z M168.25,177 L184,177 L184,175 L168.25,175 L168.25,177 Z M163,171 L166.15,171 L166.15,168 L163,168 L163,171 Z M168.25,171 L184,171 L184,169 L168.25,169 L168.25,171 Z M163,165 L166.15,165 L166.15,162 L163,162 L163,165 Z M168.25,165 L184,165 L184,163 L168.25,163 L168.25,165 Z" id="list-[#1496]"></path>
            </g>
        </g>
    </g>
</svg>