<?xml version="1.0" encoding="UTF-8" standalone="no"?>
<svg width="21px" height="10px" viewBox="0 0 21 10" version="1.1" xmlns="http://www.w3.org/2000/svg" xmlns:xlink="http://www.w3.org/1999/xlink">
    <!-- Generator: Sketch 3.8.1 (29687) - http://www.bohemiancoding.com/sketch -->
    <title>list [#1509]</title>
    <desc>Created with Sketch.</desc>
    <defs></defs>
    <g id="Page-1" stroke="none" stroke-width="1" fill="none" fill-rule="evenodd">
        <g id="Dribbble-Dark-Preview" transform="translate(-99.000000, -285.000000)" fill="#FFFFFF">
            <g id="icons" transform="translate(56.000000, 160.000000)">
                <path d="M44.05,133 C43.4704,133 43,133.448 43,134 C43,134.552 43.4704,135 44.05,135 C44.6296,135 45.1,134.552 45.1,134 C45.1,133.448 44.6296,133 44.05,133 L44.05,133 Z M44.05,125.006 C43.4704,125.006 43,125.454 43,126.006 C43,126.559 43.4704,127.006 44.05,127.006 C44.6296,127.006 45.1,126.559 45.1,126.006 C45.1,125.454 44.6296,125.006 44.05,125.006 L44.05,125.006 Z M44.05,129 C43.4704,129 43,129.448 43,130 C43,130.552 43.4704,131 44.05,131 C44.6296,131 45.1,130.552 45.1,130 C45.1,129.448 44.6296,129 44.05,129 L44.05,129 Z M47.2,135 L64,135 L64,133 L47.2,133 L47.2,135 Z M47.2,127 L64,127 L64,125 L47.2,125 L47.2,127 Z M47.2,131 L64,131 L64,129 L47.2,129 L47.2,131 Z" id="list-[#1509]"></path>
            </g>
        </g>
    </g>
</svg>