<?xml version="1.0" encoding="UTF-8" standalone="no"?>
<svg width="21px" height="15px" viewBox="0 0 21 15" version="1.1" xmlns="http://www.w3.org/2000/svg" xmlns:xlink="http://www.w3.org/1999/xlink">
    <!-- Generator: Sketch 3.8.1 (29687) - http://www.bohemiancoding.com/sketch -->
    <title>list [#1497]</title>
    <desc>Created with Sketch.</desc>
    <defs></defs>
    <g id="Page-1" stroke="none" stroke-width="1" fill="none" fill-rule="evenodd">
        <g id="Dribbble-Dark-Preview" transform="translate(-179.000000, -322.000000)" fill="#FFFFFF">
            <g id="icons" transform="translate(56.000000, 160.000000)">
                <path d="M124.575,174 C123.7056,174 123,174.672 123,175.5 C123,176.328 123.7056,177 124.575,177 C125.4444,177 126.15,176.328 126.15,175.5 C126.15,174.672 125.4444,174 124.575,174 L124.575,174 Z M128.25,177 L144,177 L144,175 L128.25,175 L128.25,177 Z M124.575,168 C123.7056,168 123,168.672 123,169.5 C123,170.328 123.7056,171 124.575,171 C125.4444,171 126.15,170.328 126.15,169.5 C126.15,168.672 125.4444,168 124.575,168 L124.575,168 Z M128.25,171 L144,171 L144,169 L128.25,169 L128.25,171 Z M124.575,162 C123.7056,162 123,162.672 123,163.5 C123,164.328 123.7056,165 124.575,165 C125.4444,165 126.15,164.328 126.15,163.5 C126.15,162.672 125.4444,162 124.575,162 L124.575,162 Z M128.25,165 L144,165 L144,163 L128.25,163 L128.25,165 Z" id="list-[#1497]"></path>
            </g>
        </g>
    </g>
</svg>