<?xml version="1.0" encoding="UTF-8" standalone="no"?>
<svg width="21px" height="10px" viewBox="0 0 21 10" version="1.1" xmlns="http://www.w3.org/2000/svg" xmlns:xlink="http://www.w3.org/1999/xlink">
    <!-- Generator: Sketch 3.8.1 (29687) - http://www.bohemiancoding.com/sketch -->
    <title>list [#1510]</title>
    <desc>Created with Sketch.</desc>
    <defs></defs>
    <g id="Page-1" stroke="none" stroke-width="1" fill="none" fill-rule="evenodd">
        <g id="Dribbble-Dark-Preview" transform="translate(-59.000000, -285.000000)" fill="#FFFFFF">
            <g id="icons" transform="translate(56.000000, 160.000000)">
                <path d="M3,135 L5.1,135 L5.1,133 L3,133 L3,135 Z M3,127.006 L5.1,127.006 L5.1,125.006 L3,125.006 L3,127.006 Z M3,131 L5.1,131 L5.1,129 L3,129 L3,131 Z M7.2,135 L24,135 L24,133 L7.2,133 L7.2,135 Z M7.2,127 L24,127 L24,125 L7.2,125 L7.2,127 Z M7.2,131 L24,131 L24,129 L7.2,129 L7.2,131 Z" id="list-[#1510]"></path>
            </g>
        </g>
    </g>
</svg>