<?xml version="1.0" encoding="UTF-8" standalone="no"?>
<svg width="14px" height="20px" viewBox="0 0 14 20" version="1.1" xmlns="http://www.w3.org/2000/svg" xmlns:xlink="http://www.w3.org/1999/xlink">
    <!-- Generator: Sketch 3.8.1 (29687) - http://www.bohemiancoding.com/sketch -->
    <title>lock_close_plus [#709]</title>
    <desc>Created with Sketch.</desc>
    <defs></defs>
    <g id="Page-1" stroke="none" stroke-width="1" fill="none" fill-rule="evenodd">
        <g id="Dribbble-Dark-Preview" transform="translate(-423.000000, -5039.000000)" fill="#FFFFFF">
            <g id="icons" transform="translate(56.000000, 160.000000)">
                <path d="M373,4893 L371,4893 L371,4891 L373,4891 L373,4889 L375,4889 L375,4891 L377,4891 L377,4893 L375,4893 L375,4895 L373,4895 L373,4893 Z M369,4897 L379,4897 L379,4887 L369,4887 L369,4897 Z M372,4883 C372,4881.897 372.897,4881 374,4881 C375.103,4881 376,4882 376,4883 L376,4885 L372,4885 L372,4883 Z M378,4885 L378,4883 C378,4881 376.209,4879 374,4879 C371.791,4879 370,4880.791 370,4883 L370,4885 L367,4885 L367,4899 L381,4899 L381,4885 L378,4885 Z" id="lock_close_plus-[#709]"></path>
            </g>
        </g>
    </g>
</svg>