<?xml version="1.0" encoding="UTF-8" standalone="no"?>
<svg width="14px" height="20px" viewBox="0 0 14 20" version="1.1" xmlns="http://www.w3.org/2000/svg" xmlns:xlink="http://www.w3.org/1999/xlink">
    <!-- Generator: Sketch 3.8.1 (29687) - http://www.bohemiancoding.com/sketch -->
    <title>lock_open_minus_round [#716]</title>
    <desc>Created with Sketch.</desc>
    <defs></defs>
    <g id="Page-1" stroke="none" stroke-width="1" fill="none" fill-rule="evenodd">
        <g id="Dribbble-Dark-Preview" transform="translate(-143.000000, -5039.000000)" fill="#FFFFFF">
            <g id="icons" transform="translate(56.000000, 160.000000)">
                <path d="M93,4893.00012 L92,4893.00012 C91.448,4893.00012 91,4892.55212 91,4892.00012 C91,4891.44812 91.448,4891.00012 92,4891.00012 L93,4891.00012 L95,4891.00012 L96,4891.00012 C96.552,4891.00012 97,4891.44812 97,4892.00012 C97,4892.55212 96.552,4893.00012 96,4893.00012 L95,4893.00012 L93,4893.00012 Z M99,4896.00012 C99,4896.55212 98.552,4897.00012 98,4897.00012 L90,4897.00012 C89.448,4897.00012 89,4896.55212 89,4896.00012 L89,4888.00012 C89,4887.44812 89.448,4887.00012 90,4887.00012 L98,4887.00012 C98.552,4887.00012 99,4887.44812 99,4888.00012 L99,4896.00012 Z M98,4885.00012 L92,4885.00012 L92,4883.13212 C92,4882.33412 92.417,4881.56112 93.133,4881.20912 C94.353,4880.60912 95.54,4881.39112 95.894,4882.39712 C96.026,4882.77212 96.408,4883.00012 96.805,4883.00012 C97.485,4883.00012 97.993,4882.32212 97.749,4881.68712 C97.052,4879.86812 94.995,4878.45712 92.78,4879.20412 C91.072,4879.78012 90,4881.48612 90,4883.28812 L90,4885.00012 C88.343,4885.00012 87,4886.34312 87,4888.00012 L87,4896.00012 C87,4897.65712 88.343,4899.00012 90,4899.00012 L98,4899.00012 C99.657,4899.00012 101,4897.65712 101,4896.00012 L101,4888.00012 C101,4886.34312 99.657,4885.00012 98,4885.00012 L98,4885.00012 Z" id="lock_open_minus_round-[#716]"></path>
            </g>
        </g>
    </g>
</svg>