<?xml version="1.0" encoding="UTF-8" standalone="no"?>
<svg width="14px" height="20px" viewBox="0 0 14 20" version="1.1" xmlns="http://www.w3.org/2000/svg" xmlns:xlink="http://www.w3.org/1999/xlink">
    <!-- Generator: Sketch 3.8.1 (29687) - http://www.bohemiancoding.com/sketch -->
    <title>lock_circle_open [#702]</title>
    <desc>Created with Sketch.</desc>
    <defs></defs>
    <g id="Page-1" stroke="none" stroke-width="1" fill="none" fill-rule="evenodd">
        <g id="Dribbble-Dark-Preview" transform="translate(-303.000000, -5079.000000)" fill="#FFFFFF">
            <g id="icons" transform="translate(56.000000, 160.000000)">
                <path d="M254,4931.04165 C254.552,4931.04165 255,4931.49024 255,4932.04296 C255,4932.59567 254.552,4933.04426 254,4933.04426 C253.448,4933.04426 253,4932.59567 253,4932.04296 C253,4931.49024 253.448,4931.04165 254,4931.04165 L254,4931.04165 Z M254,4935.04686 C255.654,4935.04686 257,4933.69911 257,4932.04296 C257,4930.3868 255.654,4929.03905 254,4929.03905 C252.346,4929.03905 251,4930.3868 251,4932.04296 C251,4933.69911 252.346,4935.04686 254,4935.04686 L254,4935.04686 Z M249,4936.9974 L259,4936.9974 L259,4926.98438 L249,4926.98438 L249,4936.9974 Z M252,4924.98178 L252,4923.03124 C252,4921.9268 252.897,4921.0026 254,4921.0026 C255.103,4921.0026 256,4921.97787 256,4922.97917 L258,4922.97917 C258,4920.97657 256.209,4919 254,4919 C251.791,4919 250,4920.81937 250,4923.03124 L250,4924.98178 L247,4924.98178 L247,4939 L261,4939 L261,4924.98178 L252,4924.98178 Z" id="lock_circle_open-[#702]"></path>
            </g>
        </g>
    </g>
</svg>