<?xml version="1.0" encoding="UTF-8" standalone="no"?>
<svg width="14px" height="20px" viewBox="0 0 14 20" version="1.1" xmlns="http://www.w3.org/2000/svg" xmlns:xlink="http://www.w3.org/1999/xlink">
    <!-- Generator: Sketch 3.8.1 (29687) - http://www.bohemiancoding.com/sketch -->
    <title>lock_close_cx_round [#719]</title>
    <desc>Created with Sketch.</desc>
    <defs></defs>
    <g id="Page-1" stroke="none" stroke-width="1" fill="none" fill-rule="evenodd">
        <g id="Dribbble-Dark-Preview" transform="translate(-423.000000, -4999.000000)" fill="#FFFFFF">
            <g id="icons" transform="translate(56.000000, 160.000000)">
                <path d="M376.121,4854.12149 C375.731,4854.51149 375.097,4854.51249 374.707,4854.12149 L374,4853.41449 L373.293,4854.12149 C372.902,4854.51149 372.269,4854.51249 371.878,4854.12149 C371.488,4853.73049 371.488,4853.09749 371.878,4852.70749 L372.585,4852.00049 L371.878,4851.29349 C371.488,4850.90249 371.488,4850.26949 371.878,4849.87849 C372.269,4849.48849 372.902,4849.48849 373.293,4849.87849 L374,4850.58549 L374.707,4849.87849 C375.097,4849.48849 375.73,4849.48849 376.121,4849.87849 C376.512,4850.26949 376.512,4850.90249 376.121,4851.29349 L375.414,4852.00049 L376.121,4852.70749 C376.512,4853.09749 376.512,4853.73049 376.121,4854.12149 L376.121,4854.12149 Z M379,4856.00049 C379,4856.55249 378.552,4857.00049 378,4857.00049 L370,4857.00049 C369.447,4857.00049 369,4856.55249 369,4856.00049 L369,4848.00049 C369,4847.44749 369.447,4847.00049 370,4847.00049 L378,4847.00049 C378.552,4847.00049 379,4847.44749 379,4848.00049 L379,4856.00049 Z M372,4843.00049 C372,4841.89749 372.897,4841.00049 374,4841.00049 C375.102,4841.00049 376,4842.00049 376,4843.00049 L376,4845.00049 L372,4845.00049 L372,4843.00049 Z M379,4845.00049 L378,4845.00049 L378,4843.00049 C378,4840.75249 375.739,4838.50549 373.164,4839.09549 C371.266,4839.53049 370,4841.34149 370,4843.28849 L370,4845.00049 L369,4845.00049 C367.895,4845.00049 367,4845.89549 367,4847.00049 L367,4857.00049 C367,4858.10449 367.895,4859.00049 369,4859.00049 L379,4859.00049 C380.104,4859.00049 381,4858.10449 381,4857.00049 L381,4847.00049 C381,4845.89549 380.104,4845.00049 379,4845.00049 L379,4845.00049 Z" id="lock_close_cx_round-[#719]"></path>
            </g>
        </g>
    </g>
</svg>