<?xml version="1.0" encoding="UTF-8" standalone="no"?>
<svg width="14px" height="20px" viewBox="0 0 14 20" version="1.1" xmlns="http://www.w3.org/2000/svg" xmlns:xlink="http://www.w3.org/1999/xlink">
    <!-- Generator: Sketch 3.8.1 (29687) - http://www.bohemiancoding.com/sketch -->
    <title>lock_close [#705]</title>
    <desc>Created with Sketch.</desc>
    <defs></defs>
    <g id="Page-1" stroke="none" stroke-width="1" fill="none" fill-rule="evenodd">
        <g id="Dribbble-Dark-Preview" transform="translate(-183.000000, -5079.000000)" fill="#FFFFFF">
            <g id="icons" transform="translate(56.000000, 160.000000)">
                <path d="M129,4937 L139,4937 L139,4927 L129,4927 L129,4937 Z M132,4923 C132,4921.897 132.897,4921 134,4921 C135.103,4921 136,4922 136,4923 L136,4925 L132,4925 L132,4923 Z M138,4925 L138,4923 C138,4921 136.209,4919 134,4919 C131.791,4919 130,4920.791 130,4923 L130,4925 L127,4925 L127,4939 L141,4939 L141,4925 L138,4925 Z" id="lock_close-[#705]"></path>
            </g>
        </g>
    </g>
</svg>