<?xml version="1.0" encoding="UTF-8" standalone="no"?>
<svg width="14px" height="20px" viewBox="0 0 14 20" version="1.1" xmlns="http://www.w3.org/2000/svg" xmlns:xlink="http://www.w3.org/1999/xlink">
    <!-- Generator: Sketch 3.8.1 (29687) - http://www.bohemiancoding.com/sketch -->
    <title>lock_open_cx [#718]</title>
    <desc>Created with Sketch.</desc>
    <defs></defs>
    <g id="Page-1" stroke="none" stroke-width="1" fill="none" fill-rule="evenodd">
        <g id="Dribbble-Dark-Preview" transform="translate(-63.000000, -5039.000000)" fill="#FFFFFF">
            <g id="icons" transform="translate(56.000000, 160.000000)">
                <path d="M12.586,4892.04296 L11.172,4890.62712 L12.586,4889.21127 L14,4890.62712 L15.414,4889.21127 L16.829,4890.62712 L15.414,4892.04296 L16.829,4893.4588 L15.414,4894.87464 L14,4893.4588 L12.586,4894.87464 L11.172,4893.4588 L12.586,4892.04296 Z M9,4896.9974 L19,4896.9974 L19,4886.98438 L9,4886.98438 L9,4896.9974 Z M12,4884.98178 L12,4883.03124 C12,4881.9268 12.897,4881.0026 14,4881.0026 C15.103,4881.0026 16,4881.97787 16,4882.97917 L18,4882.97917 C18,4880.97657 16.209,4879 14,4879 C11.791,4879 10,4880.81937 10,4883.03124 L10,4884.98178 L7,4884.98178 L7,4899 L21,4899 L21,4884.98178 L12,4884.98178 Z" id="lock_open_cx-[#718]"></path>
            </g>
        </g>
    </g>
</svg>