<?xml version="1.0" encoding="UTF-8" standalone="no"?>
<svg width="14px" height="20px" viewBox="0 0 14 20" version="1.1" xmlns="http://www.w3.org/2000/svg" xmlns:xlink="http://www.w3.org/1999/xlink">
    <!-- Generator: Sketch 3.8.1 (29687) - http://www.bohemiancoding.com/sketch -->
    <title>lock_close_cx [#717]</title>
    <desc>Created with Sketch.</desc>
    <defs></defs>
    <g id="Page-1" stroke="none" stroke-width="1" fill="none" fill-rule="evenodd">
        <g id="Dribbble-Dark-Preview" transform="translate(-103.000000, -5039.000000)" fill="#FFFFFF">
            <g id="icons" transform="translate(56.000000, 160.000000)">
                <path d="M54,4893.414 L52.586,4894.828 L51.172,4893.414 L52.586,4892 L51.172,4890.586 L52.586,4889.171 L54,4890.586 L55.414,4889.171 L56.828,4890.586 L55.414,4892 L56.828,4893.414 L55.414,4894.828 L54,4893.414 Z M49,4897 L59,4897 L59,4887 L49,4887 L49,4897 Z M52,4883 C52,4881.897 52.897,4881 54,4881 C55.103,4881 56,4882 56,4883 L56,4885 L52,4885 L52,4883 Z M58,4885 L58,4883 C58,4881 56.209,4879 54,4879 C51.791,4879 50,4880.791 50,4883 L50,4885 L47,4885 L47,4899 L61,4899 L61,4885 L58,4885 Z" id="lock_close_cx-[#717]"></path>
            </g>
        </g>
    </g>
</svg>