<?xml version="1.0" encoding="UTF-8" standalone="no"?>
<svg width="14px" height="20px" viewBox="0 0 14 20" version="1.1" xmlns="http://www.w3.org/2000/svg" xmlns:xlink="http://www.w3.org/1999/xlink">
    <!-- Generator: Sketch 3.8.1 (29687) - http://www.bohemiancoding.com/sketch -->
    <title>lock_close_minus_round [#715]</title>
    <desc>Created with Sketch.</desc>
    <defs></defs>
    <g id="Page-1" stroke="none" stroke-width="1" fill="none" fill-rule="evenodd">
        <g id="Dribbble-Dark-Preview" transform="translate(-183.000000, -5039.000000)" fill="#FFFFFF">
            <g id="icons" transform="translate(56.000000, 160.000000)">
                <path d="M133,4893.00046 L132,4893.00046 C131.448,4893.00046 131,4892.55246 131,4892.00046 C131,4891.44846 131.448,4891.00046 132,4891.00046 L133,4891.00046 L135,4891.00046 L136,4891.00046 C136.552,4891.00046 137,4891.44846 137,4892.00046 C137,4892.55246 136.552,4893.00046 136,4893.00046 L135,4893.00046 L133,4893.00046 Z M139,4896.00046 C139,4896.55246 138.552,4897.00046 138,4897.00046 L130,4897.00046 C129.448,4897.00046 129,4896.55246 129,4896.00046 L129,4888.00046 C129,4887.44846 129.448,4887.00046 130,4887.00046 L138,4887.00046 C138.552,4887.00046 139,4887.44846 139,4888.00046 L139,4896.00046 Z M132,4883.00046 C132,4881.89746 132.897,4881.00046 134,4881.00046 C135.103,4881.00046 136,4882.00046 136,4883.00046 L136,4885.00046 L132,4885.00046 L132,4883.00046 Z M139,4885.00046 L138,4885.00046 L138,4883.00046 C138,4880.75346 135.739,4878.50546 133.164,4879.09546 C131.266,4879.53046 130,4881.34146 130,4883.28846 L130,4885.00046 L129,4885.00046 C127.895,4885.00046 127,4885.89546 127,4887.00046 L127,4897.00046 C127,4898.10546 127.895,4899.00046 129,4899.00046 L139,4899.00046 C140.105,4899.00046 141,4898.10546 141,4897.00046 L141,4887.00046 C141,4885.89546 140.105,4885.00046 139,4885.00046 L139,4885.00046 Z" id="lock_close_minus_round-[#715]"></path>
            </g>
        </g>
    </g>
</svg>