<?xml version="1.0" encoding="UTF-8" standalone="no"?>
<svg width="14px" height="20px" viewBox="0 0 14 20" version="1.1" xmlns="http://www.w3.org/2000/svg" xmlns:xlink="http://www.w3.org/1999/xlink">
    <!-- Generator: Sketch 3.8.1 (29687) - http://www.bohemiancoding.com/sketch -->
    <title>lock_open_round [#708]</title>
    <desc>Created with Sketch.</desc>
    <defs></defs>
    <g id="Page-1" stroke="none" stroke-width="1" fill="none" fill-rule="evenodd">
        <g id="Dribbble-Dark-Preview" transform="translate(-63.000000, -5079.000000)" fill="#FFFFFF">
            <g id="icons" transform="translate(56.000000, 160.000000)">
                <path d="M19,4936.00012 C19,4936.55212 18.552,4937.00012 18,4937.00012 L10,4937.00012 C9.448,4937.00012 9,4936.55212 9,4936.00012 L9,4928.00012 C9,4927.44812 9.448,4927.00012 10,4927.00012 L18,4927.00012 C18.552,4927.00012 19,4927.44812 19,4928.00012 L19,4936.00012 Z M12,4925.00012 L12,4923.13212 C12,4922.33412 12.417,4921.56112 13.133,4921.20912 C14.353,4920.60912 15.54,4921.39112 15.894,4922.39712 C16.026,4922.77212 16.408,4923.00012 16.805,4923.00012 L16.805,4923.00012 C17.485,4923.00012 17.993,4922.32212 17.749,4921.68712 C17.052,4919.86812 14.995,4918.45712 12.78,4919.20412 C11.072,4919.78012 10,4921.48612 10,4923.28812 L10,4925.00012 L10,4925.00012 C8.343,4925.00012 7,4926.34312 7,4928.00012 L7,4936.00012 C7,4937.65712 8.343,4939.00012 10,4939.00012 L18,4939.00012 C19.657,4939.00012 21,4937.65712 21,4936.00012 L21,4928.00012 C21,4926.34312 19.657,4925.00012 18,4925.00012 L12,4925.00012 Z" id="lock_open_round-[#708]"></path>
            </g>
        </g>
    </g>
</svg>