<?xml version="1.0" encoding="UTF-8" standalone="no"?>
<svg width="14px" height="20px" viewBox="0 0 14 20" version="1.1" xmlns="http://www.w3.org/2000/svg" xmlns:xlink="http://www.w3.org/1999/xlink">
    <!-- Generator: Sketch 3.8.1 (29687) - http://www.bohemiancoding.com/sketch -->
    <title>lock_close_plus_round [#711]</title>
    <desc>Created with Sketch.</desc>
    <defs></defs>
    <g id="Page-1" stroke="none" stroke-width="1" fill="none" fill-rule="evenodd">
        <g id="Dribbble-Dark-Preview" transform="translate(-343.000000, -5039.000000)" fill="#FFFFFF">
            <g id="icons" transform="translate(56.000000, 160.000000)">
                <path d="M297,4892.00046 C297,4892.55246 296.552,4893.00046 296,4893.00046 L295,4893.00046 L295,4894.00046 C295,4894.55246 294.552,4895.00046 294,4895.00046 C293.448,4895.00046 293,4894.55246 293,4894.00046 L293,4893.00046 L292,4893.00046 C291.448,4893.00046 291,4892.55246 291,4892.00046 C291,4891.44846 291.448,4891.00046 292,4891.00046 L293,4891.00046 L293,4890.00046 C293,4889.44846 293.448,4889.00046 294,4889.00046 C294.552,4889.00046 295,4889.44846 295,4890.00046 L295,4891.00046 L296,4891.00046 C296.552,4891.00046 297,4891.44846 297,4892.00046 L297,4892.00046 Z M299,4896.00046 C299,4896.55246 298.552,4897.00046 298,4897.00046 L290,4897.00046 C289.448,4897.00046 289,4896.55246 289,4896.00046 L289,4888.00046 C289,4887.44846 289.448,4887.00046 290,4887.00046 L298,4887.00046 C298.552,4887.00046 299,4887.44846 299,4888.00046 L299,4896.00046 Z M292,4883.00046 C292,4881.89746 292.897,4881.00046 294,4881.00046 C295.103,4881.00046 296,4882.00046 296,4883.00046 L296,4885.00046 L292,4885.00046 L292,4883.00046 Z M299,4885.00046 L298,4885.00046 L298,4883.00046 C298,4880.75346 295.739,4878.50546 293.164,4879.09546 C291.266,4879.53046 290,4881.34146 290,4883.28846 L290,4885.00046 L289,4885.00046 C287.895,4885.00046 287,4885.89546 287,4887.00046 L287,4897.00046 C287,4898.10546 287.895,4899.00046 289,4899.00046 L299,4899.00046 C300.105,4899.00046 301,4898.10546 301,4897.00046 L301,4887.00046 C301,4885.89546 300.105,4885.00046 299,4885.00046 L299,4885.00046 Z" id="lock_close_plus_round-[#711]"></path>
            </g>
        </g>
    </g>
</svg>