<?xml version="1.0" encoding="UTF-8" standalone="no"?>
<svg width="14px" height="20px" viewBox="0 0 14 20" version="1.1" xmlns="http://www.w3.org/2000/svg" xmlns:xlink="http://www.w3.org/1999/xlink">
    <!-- Generator: Sketch 3.8.1 (29687) - http://www.bohemiancoding.com/sketch -->
    <title>lock_circle_open_round [#704]</title>
    <desc>Created with Sketch.</desc>
    <defs></defs>
    <g id="Page-1" stroke="none" stroke-width="1" fill="none" fill-rule="evenodd">
        <g id="Dribbble-Dark-Preview" transform="translate(-223.000000, -5079.000000)" fill="#FFFFFF">
            <g id="icons" transform="translate(56.000000, 160.000000)">
                <path d="M174,4931.00012 C174.552,4931.00012 175,4931.44812 175,4932.00012 C175,4932.55212 174.552,4933.00012 174,4933.00012 C173.448,4933.00012 173,4932.55212 173,4932.00012 C173,4931.44812 173.448,4931.00012 174,4931.00012 L174,4931.00012 Z M174,4935.00012 C175.654,4935.00012 177,4933.65412 177,4932.00012 C177,4930.34612 175.654,4929.00012 174,4929.00012 C172.346,4929.00012 171,4930.34612 171,4932.00012 C171,4933.65412 172.346,4935.00012 174,4935.00012 L174,4935.00012 Z M179,4936.00012 C179,4936.55212 178.552,4937.00012 178,4937.00012 L170,4937.00012 C169.448,4937.00012 169,4936.55212 169,4936.00012 L169,4928.00012 C169,4927.44812 169.448,4927.00012 170,4927.00012 L178,4927.00012 C178.552,4927.00012 179,4927.44812 179,4928.00012 L179,4936.00012 Z M172,4925.00012 L172,4923.13212 C172,4922.33412 172.417,4921.56112 173.133,4921.20912 C174.353,4920.60912 175.54,4921.39112 175.894,4922.39712 C176.026,4922.77212 176.408,4923.00012 176.805,4923.00012 C177.485,4923.00012 177.993,4922.32212 177.749,4921.68712 C177.052,4919.86812 174.995,4918.45712 172.78,4919.20412 C171.072,4919.78012 170,4921.48612 170,4923.28812 L170,4925.00012 C168.343,4925.00012 167,4926.34312 167,4928.00012 L167,4936.00012 C167,4937.65712 168.343,4939.00012 170,4939.00012 L178,4939.00012 C179.657,4939.00012 181,4937.65712 181,4936.00012 L181,4928.00012 C181,4926.34312 179.657,4925.00012 178,4925.00012 L172,4925.00012 Z" id="lock_circle_open_round-[#704]"></path>
            </g>
        </g>
    </g>
</svg>