<?xml version="1.0" encoding="UTF-8" standalone="no"?>
<svg width="14px" height="20px" viewBox="0 0 14 20" version="1.1" xmlns="http://www.w3.org/2000/svg" xmlns:xlink="http://www.w3.org/1999/xlink">
    <!-- Generator: Sketch 3.8.1 (29687) - http://www.bohemiancoding.com/sketch -->
    <title>lock_close_round [#707]</title>
    <desc>Created with Sketch.</desc>
    <defs></defs>
    <g id="Page-1" stroke="none" stroke-width="1" fill="none" fill-rule="evenodd">
        <g id="Dribbble-Dark-Preview" transform="translate(-103.000000, -5079.000000)" fill="#FFFFFF">
            <g id="icons" transform="translate(56.000000, 160.000000)">
                <path d="M59,4936.00046 C59,4936.55246 58.552,4937.00046 58,4937.00046 L50,4937.00046 C49.448,4937.00046 49,4936.55246 49,4936.00046 L49,4928.00046 C49,4927.44846 49.448,4927.00046 50,4927.00046 L58,4927.00046 C58.552,4927.00046 59,4927.44846 59,4928.00046 L59,4936.00046 Z M52,4923.00046 C52,4921.89746 52.897,4921.00046 54,4921.00046 C55.103,4921.00046 56,4922.00046 56,4923.00046 L56,4925.00046 L52,4925.00046 L52,4923.00046 Z M58,4925.00046 L58,4923.00046 C58,4920.75346 55.739,4918.50546 53.164,4919.09546 C51.266,4919.53046 50,4921.34146 50,4923.28846 L50,4925.00046 L49,4925.00046 C47.895,4925.00046 47,4925.89546 47,4927.00046 L47,4937.00046 C47,4938.10546 47.895,4939.00046 49,4939.00046 L59,4939.00046 C60.105,4939.00046 61,4938.10546 61,4937.00046 L61,4927.00046 C61,4925.89546 60.105,4925.00046 59,4925.00046 L58,4925.00046 Z" id="lock_close_round-[#707]"></path>
            </g>
        </g>
    </g>
</svg>