<?xml version="1.0" encoding="UTF-8" standalone="no"?>
<svg width="14px" height="20px" viewBox="0 0 14 20" version="1.1" xmlns="http://www.w3.org/2000/svg" xmlns:xlink="http://www.w3.org/1999/xlink">
    <!-- Generator: Sketch 3.8.1 (29687) - http://www.bohemiancoding.com/sketch -->
    <title>lock_circle_close_round [#703]</title>
    <desc>Created with Sketch.</desc>
    <defs></defs>
    <g id="Page-1" stroke="none" stroke-width="1" fill="none" fill-rule="evenodd">
        <g id="Dribbble-Dark-Preview" transform="translate(-263.000000, -5079.000000)" fill="#FFFFFF">
            <g id="icons" transform="translate(56.000000, 160.000000)">
                <path d="M214,4931.00046 C214.552,4931.00046 215,4931.44846 215,4932.00046 C215,4932.55246 214.552,4933.00046 214,4933.00046 C213.448,4933.00046 213,4932.55246 213,4932.00046 C213,4931.44846 213.448,4931.00046 214,4931.00046 L214,4931.00046 Z M214,4935.00046 C215.654,4935.00046 217,4933.65446 217,4932.00046 C217,4930.34646 215.654,4929.00046 214,4929.00046 C212.346,4929.00046 211,4930.34646 211,4932.00046 C211,4933.65446 212.346,4935.00046 214,4935.00046 L214,4935.00046 Z M219,4936.00046 C219,4936.55246 218.552,4937.00046 218,4937.00046 L210,4937.00046 C209.448,4937.00046 209,4936.55246 209,4936.00046 L209,4928.00046 C209,4927.44846 209.448,4927.00046 210,4927.00046 L218,4927.00046 C218.552,4927.00046 219,4927.44846 219,4928.00046 L219,4936.00046 Z M212,4923.00046 C212,4921.89746 212.897,4921.00046 214,4921.00046 C215.103,4921.00046 216,4922.00046 216,4923.00046 L216,4925.00046 L212,4925.00046 L212,4923.00046 Z M218,4925.00046 L218,4923.00046 C218,4920.75346 215.739,4918.50546 213.164,4919.09546 C211.266,4919.53046 210,4921.34146 210,4923.28846 L210,4925.00046 L209,4925.00046 C207.895,4925.00046 207,4925.89546 207,4927.00046 L207,4937.00046 C207,4938.10546 207.895,4939.00046 209,4939.00046 L219,4939.00046 C220.105,4939.00046 221,4938.10546 221,4937.00046 L221,4927.00046 C221,4925.89546 220.105,4925.00046 219,4925.00046 L218,4925.00046 Z" id="lock_circle_close_round-[#703]"></path>
            </g>
        </g>
    </g>
</svg>