<?xml version="1.0" encoding="UTF-8" standalone="no"?>
<svg width="14px" height="20px" viewBox="0 0 14 20" version="1.1" xmlns="http://www.w3.org/2000/svg" xmlns:xlink="http://www.w3.org/1999/xlink">
    <!-- Generator: Sketch 3.8.1 (29687) - http://www.bohemiancoding.com/sketch -->
    <title>lock_open_plus [#714]</title>
    <desc>Created with Sketch.</desc>
    <defs></defs>
    <g id="Page-1" stroke="none" stroke-width="1" fill="none" fill-rule="evenodd">
        <g id="Dribbble-Dark-Preview" transform="translate(-223.000000, -5039.000000)" fill="#FFFFFF">
            <g id="icons" transform="translate(56.000000, 160.000000)">
                <path d="M173,4892.99219 L171,4892.99219 L171,4890.98959 L173,4890.98959 L175,4890.98959 L177,4890.98959 L177,4892.99219 L175,4892.99219 L173,4892.99219 Z M169,4896.9974 L179,4896.9974 L179,4886.98438 L169,4886.98438 L169,4896.9974 Z M172,4884.98178 L172,4883.03124 C172,4881.92781 172.897,4881.0026 174,4881.0026 C175.103,4881.0026 176,4881.97787 176,4882.97917 L178,4882.97917 C178,4880.97657 176.209,4879 174,4879 C171.791,4879 170,4880.81937 170,4883.03124 L170,4884.98178 L167,4884.98178 L167,4899 L181,4899 L181,4884.98178 L172,4884.98178 Z" id="lock_open_plus-[#714]"></path>
            </g>
        </g>
    </g>
</svg>