<?xml version="1.0" encoding="UTF-8" standalone="no"?>
<svg width="14px" height="20px" viewBox="0 0 14 20" version="1.1" xmlns="http://www.w3.org/2000/svg" xmlns:xlink="http://www.w3.org/1999/xlink">
    <!-- Generator: Sketch 3.8.1 (29687) - http://www.bohemiancoding.com/sketch -->
    <title>lock_circle_close [#701]</title>
    <desc>Created with Sketch.</desc>
    <defs></defs>
    <g id="Page-1" stroke="none" stroke-width="1" fill="none" fill-rule="evenodd">
        <g id="Dribbble-Dark-Preview" transform="translate(-343.000000, -5079.000000)" fill="#FFFFFF">
            <g id="icons" transform="translate(56.000000, 160.000000)">
                <path d="M294,4931 C294.552,4931 295,4931.448 295,4932 C295,4932.552 294.552,4933 294,4933 C293.448,4933 293,4932.552 293,4932 C293,4931.448 293.448,4931 294,4931 L294,4931 Z M294,4935 C295.654,4935 297,4933.654 297,4932 C297,4930.346 295.654,4929 294,4929 C292.346,4929 291,4930.346 291,4932 C291,4933.654 292.346,4935 294,4935 L294,4935 Z M289,4937 L299,4937 L299,4927 L289,4927 L289,4937 Z M292,4923 C292,4921.897 292.897,4921 294,4921 C295.103,4921 296,4922 296,4923 L296,4925 L292,4925 L292,4923 Z M298,4925 L298,4923 C298,4921 296.209,4919 294,4919 C291.791,4919 290,4920.791 290,4923 L290,4925 L287,4925 L287,4939 L301,4939 L301,4925 L298,4925 Z" id="lock_circle_close-[#701]"></path>
            </g>
        </g>
    </g>
</svg>