<?xml version="1.0" encoding="UTF-8" standalone="no"?>
<svg width="14px" height="20px" viewBox="0 0 14 20" version="1.1" xmlns="http://www.w3.org/2000/svg" xmlns:xlink="http://www.w3.org/1999/xlink">
    <!-- Generator: Sketch 3.8.1 (29687) - http://www.bohemiancoding.com/sketch -->
    <title>lock_close_plus [#713]</title>
    <desc>Created with Sketch.</desc>
    <defs></defs>
    <g id="Page-1" stroke="none" stroke-width="1" fill="none" fill-rule="evenodd">
        <g id="Dribbble-Dark-Preview" transform="translate(-263.000000, -5039.000000)" fill="#FFFFFF">
            <g id="icons" transform="translate(56.000000, 160.000000)">
                <path d="M213,4893 L211,4893 L211,4891 L213,4891 L215,4891 L217,4891 L217,4893 L215,4893 L213,4893 Z M209,4897 L219,4897 L219,4887 L209,4887 L209,4897 Z M212,4883 C212,4881.897 212.897,4881 214,4881 C215.103,4881 216,4882 216,4883 L216,4885 L212,4885 L212,4883 Z M218,4885 L218,4883 C218,4881 216.209,4879 214,4879 C211.791,4879 210,4880.791 210,4883 L210,4885 L207,4885 L207,4899 L221,4899 L221,4885 L218,4885 Z" id="lock_close_plus-[#713]"></path>
            </g>
        </g>
    </g>
</svg>