<?xml version="1.0" encoding="UTF-8" standalone="no"?>
<svg width="14px" height="20px" viewBox="0 0 14 20" version="1.1" xmlns="http://www.w3.org/2000/svg" xmlns:xlink="http://www.w3.org/1999/xlink">
    <!-- Generator: Sketch 3.8.1 (29687) - http://www.bohemiancoding.com/sketch -->
    <title>lock_open_cx_round [#720]</title>
    <desc>Created with Sketch.</desc>
    <defs></defs>
    <g id="Page-1" stroke="none" stroke-width="1" fill="none" fill-rule="evenodd">
        <g id="Dribbble-Dark-Preview" transform="translate(-383.000000, -4999.000000)" fill="#FFFFFF">
            <g id="icons" transform="translate(56.000000, 160.000000)">
                <path d="M336.121,4854.12112 C335.731,4854.51212 335.097,4854.51212 334.707,4854.12112 L334,4853.41412 L333.293,4854.12112 C332.902,4854.51212 332.269,4854.51212 331.878,4854.12112 C331.488,4853.73012 331.488,4853.09712 331.878,4852.70712 L332.585,4852.00012 L331.878,4851.29312 C331.488,4850.90212 331.488,4850.26912 331.878,4849.87812 C332.269,4849.48812 332.902,4849.48812 333.293,4849.87812 L334,4850.58512 L334.707,4849.87812 C335.097,4849.48812 335.73,4849.48812 336.121,4849.87812 C336.512,4850.26912 336.512,4850.90212 336.121,4851.29312 L335.414,4852.00012 L336.121,4852.70712 C336.512,4853.09712 336.512,4853.73012 336.121,4854.12112 L336.121,4854.12112 Z M339,4856.00012 C339,4856.55212 338.552,4857.00012 338,4857.00012 L330,4857.00012 C329.447,4857.00012 329,4856.55212 329,4856.00012 L329,4848.00012 C329,4847.44712 329.447,4847.00012 330,4847.00012 L338,4847.00012 C338.552,4847.00012 339,4847.44712 339,4848.00012 L339,4856.00012 Z M338,4845.00012 L332,4845.00012 L332,4843.13112 C332,4842.33312 332.416,4841.56112 333.133,4841.20912 C334.353,4840.60912 335.54,4841.39112 335.894,4842.39712 C336.026,4842.77212 336.408,4843.00012 336.805,4843.00012 C337.485,4843.00012 337.992,4842.32112 337.749,4841.68712 C337.051,4839.86812 334.995,4838.45712 332.78,4839.20412 C331.072,4839.78012 330,4841.48512 330,4843.28812 L330,4845.00012 C328.343,4845.00012 327,4846.34312 327,4848.00012 L327,4856.00012 C327,4857.65712 328.343,4859.00012 330,4859.00012 L338,4859.00012 C339.657,4859.00012 341,4857.65712 341,4856.00012 L341,4848.00012 C341,4846.34312 339.657,4845.00012 338,4845.00012 L338,4845.00012 Z" id="lock_open_cx_round-[#720]"></path>
            </g>
        </g>
    </g>
</svg>