<?xml version="1.0" encoding="UTF-8" standalone="no"?>
<svg width="14px" height="20px" viewBox="0 0 14 20" version="1.1" xmlns="http://www.w3.org/2000/svg" xmlns:xlink="http://www.w3.org/1999/xlink">
    <!-- Generator: Sketch 3.8.1 (29687) - http://www.bohemiancoding.com/sketch -->
    <title>lock_open_plus [#710]</title>
    <desc>Created with Sketch.</desc>
    <defs></defs>
    <g id="Page-1" stroke="none" stroke-width="1" fill="none" fill-rule="evenodd">
        <g id="Dribbble-Dark-Preview" transform="translate(-383.000000, -5039.000000)" fill="#FFFFFF">
            <g id="icons" transform="translate(56.000000, 160.000000)">
                <path d="M333,4892.99219 L331,4892.99219 L331,4890.98959 L333,4890.98959 L333,4888.98698 L335,4888.98698 L335,4890.98959 L337,4890.98959 L337,4892.99219 L335,4892.99219 L335,4894.99479 L333,4894.99479 L333,4892.99219 Z M329,4896.9974 L339,4896.9974 L339,4886.98438 L329,4886.98438 L329,4896.9974 Z M332,4884.98178 L332,4883.03124 C332,4881.92781 332.897,4881.0026 334,4881.0026 C335.103,4881.0026 336,4881.97787 336,4882.97917 L338,4882.97917 C338,4880.97657 336.209,4879 334,4879 C331.791,4879 330,4880.81937 330,4883.03124 L330,4884.98178 L327,4884.98178 L327,4899 L341,4899 L341,4884.98178 L332,4884.98178 Z" id="lock_open_plus-[#710]"></path>
            </g>
        </g>
    </g>
</svg>