<?xml version="1.0" encoding="UTF-8" standalone="no"?>
<svg width="14px" height="20px" viewBox="0 0 14 20" version="1.1" xmlns="http://www.w3.org/2000/svg" xmlns:xlink="http://www.w3.org/1999/xlink">
    <!-- Generator: Sketch 3.8.1 (29687) - http://www.bohemiancoding.com/sketch -->
    <title>lock_open_plus_round [#712]</title>
    <desc>Created with Sketch.</desc>
    <defs></defs>
    <g id="Page-1" stroke="none" stroke-width="1" fill="none" fill-rule="evenodd">
        <g id="Dribbble-Dark-Preview" transform="translate(-303.000000, -5039.000000)" fill="#FFFFFF">
            <g id="icons" transform="translate(56.000000, 160.000000)">
                <path d="M257,4892.00012 C257,4892.55212 256.552,4893.00012 256,4893.00012 L255,4893.00012 L255,4894.00012 C255,4894.55212 254.552,4895.00012 254,4895.00012 C253.448,4895.00012 253,4894.55212 253,4894.00012 L253,4893.00012 L252,4893.00012 C251.448,4893.00012 251,4892.55212 251,4892.00012 C251,4891.44812 251.448,4891.00012 252,4891.00012 L253,4891.00012 L253,4890.00012 C253,4889.44812 253.448,4889.00012 254,4889.00012 C254.552,4889.00012 255,4889.44812 255,4890.00012 L255,4891.00012 L256,4891.00012 C256.552,4891.00012 257,4891.44812 257,4892.00012 L257,4892.00012 Z M259,4896.00012 C259,4896.55212 258.552,4897.00012 258,4897.00012 L250,4897.00012 C249.448,4897.00012 249,4896.55212 249,4896.00012 L249,4888.00012 C249,4887.44812 249.448,4887.00012 250,4887.00012 L258,4887.00012 C258.552,4887.00012 259,4887.44812 259,4888.00012 L259,4896.00012 Z M258,4885.00012 L252,4885.00012 L252,4883.13212 C252,4882.33412 252.417,4881.56112 253.133,4881.20912 C254.353,4880.60912 255.54,4881.39112 255.894,4882.39712 C256.026,4882.77212 256.408,4883.00012 256.805,4883.00012 C257.485,4883.00012 257.993,4882.32212 257.749,4881.68712 C257.052,4879.86812 254.995,4878.45712 252.78,4879.20412 C251.072,4879.78012 250,4881.48612 250,4883.28812 L250,4885.00012 C248.343,4885.00012 247,4886.34312 247,4888.00012 L247,4896.00012 C247,4897.65712 248.343,4899.00012 250,4899.00012 L258,4899.00012 C259.657,4899.00012 261,4897.65712 261,4896.00012 L261,4888.00012 C261,4886.34312 259.657,4885.00012 258,4885.00012 L258,4885.00012 Z" id="lock_open_plus_round-[#712]"></path>
            </g>
        </g>
    </g>
</svg>