<?xml version="1.0" encoding="UTF-8" standalone="no"?>
<svg width="21px" height="16px" viewBox="0 0 21 16" version="1.1" xmlns="http://www.w3.org/2000/svg" xmlns:xlink="http://www.w3.org/1999/xlink">
    <!-- Generator: Sketch 3.8.1 (29687) - http://www.bohemiancoding.com/sketch -->
    <title>love [#1489]</title>
    <desc>Created with Sketch.</desc>
    <defs></defs>
    <g id="Page-1" stroke="none" stroke-width="1" fill="none" fill-rule="evenodd">
        <g id="Dribbble-Dark-Preview" transform="translate(-99.000000, -362.000000)" fill="#FFFFFF">
            <g id="icons" transform="translate(56.000000, 160.000000)">
                <path d="M55.5929644,215.348992 C55.0175653,215.814817 54.2783665,216.071721 53.5108177,216.071721 C52.7443189,216.071721 52.0030201,215.815817 51.4045211,215.334997 C47.6308271,212.307129 45.2284309,210.70073 45.1034811,207.405962 C44.9722313,203.919267 48.9832249,202.644743 51.442321,205.509672 C51.9400202,206.088455 52.687619,206.420331 53.4940177,206.420331 C54.3077664,206.420331 55.0606152,206.084457 55.5593644,205.498676 C57.9649106,202.67973 62.083004,203.880281 61.8950543,207.507924 C61.7270546,210.734717 59.2322586,212.401094 55.5929644,215.348992 M53.9066671,204.31012 C53.8037672,204.431075 53.6483675,204.492052 53.4940177,204.492052 C53.342818,204.492052 53.1926682,204.433074 53.0918684,204.316118 C49.3717243,199.982739 42.8029348,202.140932 43.0045345,207.472937 C43.1651842,211.71635 46.3235792,213.819564 50.0426732,216.803448 C51.0370217,217.601149 52.2739197,218 53.5108177,218 C54.7508657,218 55.9898637,217.59915 56.9821122,216.795451 C60.6602563,213.815565 63.7787513,211.726346 63.991901,207.59889 C64.2754005,202.147929 57.6173611,199.958748 53.9066671,204.31012" id="love-[#1489]"></path>
            </g>
        </g>
    </g>
</svg>