<?xml version="1.0" encoding="UTF-8" standalone="no"?>
<svg width="20px" height="20px" viewBox="0 0 20 20" version="1.1" xmlns="http://www.w3.org/2000/svg" xmlns:xlink="http://www.w3.org/1999/xlink">
    <!-- Generator: Sketch 3.8.1 (29687) - http://www.bohemiancoding.com/sketch -->
    <title>magnet [#675]</title>
    <desc>Created with Sketch.</desc>
    <defs></defs>
    <g id="Page-1" stroke="none" stroke-width="1" fill="none" fill-rule="evenodd">
        <g id="Dribbble-Dark-Preview" transform="translate(-180.000000, -5199.000000)" fill="#FFFFFF">
            <g id="icons" transform="translate(56.000000, 160.000000)">
                <path d="M142,5043 L140,5043 L140,5042 C140,5041.448 140.448,5041 141,5041 C141.552,5041 142,5041.448 142,5042 L142,5043 Z M142,5049 C142,5059.667 126,5059.667 126,5049 L126,5045 L128,5045 L128,5049 C128,5057 140,5057 140,5049 L140,5045 L142,5045 L142,5049 Z M127,5041 L127,5041 C127.552,5041 128,5041.448 128,5042 L128,5043 L126,5043 L126,5042 C126,5041.448 126.448,5041 127,5041 L127,5041 Z M142,5039 L140,5039 C138.895,5039 138,5039.895 138,5041 L138,5041 L138,5043 L138,5045 L138,5049 C138,5054.333 130,5054.333 130,5049 L130,5045 L130,5043 L130,5041 L130,5041 C130,5039.895 129.105,5039 128,5039 L126,5039 C124.895,5039 124,5039.895 124,5041 L124,5041 L124,5043 L124,5045 L124,5049 C124,5062.333 144,5062.333 144,5049 L144,5045 L144,5043 L144,5041 L144,5041 C144,5039.895 143.105,5039 142,5039 L142,5039 Z" id="magnet-[#675]"></path>
            </g>
        </g>
    </g>
</svg>