<?xml version="1.0" encoding="UTF-8" standalone="no"?>
<svg width="20px" height="20px" viewBox="0 0 20 20" version="1.1" xmlns="http://www.w3.org/2000/svg" xmlns:xlink="http://www.w3.org/1999/xlink">
    <!-- Generator: Sketch 3.8.1 (29687) - http://www.bohemiancoding.com/sketch -->
    <title>map_round [#667]</title>
    <desc>Created with Sketch.</desc>
    <defs></defs>
    <g id="Page-1" stroke="none" stroke-width="1" fill="none" fill-rule="evenodd">
        <g id="Dribbble-Dark-Preview" transform="translate(-100.000000, -5279.000000)" fill="#FFFFFF">
            <g id="icons" transform="translate(56.000000, 160.000000)">
                <path d="M62,5135.5 C62,5136.052 61.45,5137 60.898,5137 L54,5137 L54,5125 L60.898,5125 C61.45,5125 62,5124.948 62,5125.5 L62,5135.5 Z M52,5135.346 L50,5132.885 L50,5121.571 L52,5123.914 L52,5135.346 Z M48,5133 L46.898,5133 C46.345,5133 46,5132.052 46,5131.5 L46,5121.5 C46,5120.948 46.345,5121 46.898,5121 L48,5121 L48,5133 Z M61.898,5123 L54.234,5123 C53.649,5123 53.093,5122.494 52.713,5122.049 L50.497,5119.577 C50.117,5119.132 49.561,5119 48.975,5119 L45.898,5119 C44.793,5119 44,5119.395 44,5120.5 L44,5132.5 C44,5133.605 44.793,5135 45.898,5135 L47.695,5135 C48.297,5135 48.867,5135.021 49.247,5135.489 L51.297,5138.137 C51.677,5138.604 52.247,5139 52.849,5139 L61.898,5139 C63.002,5139 64,5137.605 64,5136.5 L64,5124.5 C64,5123.395 63.002,5123 61.898,5123 L61.898,5123 Z" id="map_round-[#667]"></path>
            </g>
        </g>
    </g>
</svg>