<?xml version="1.0" encoding="UTF-8" standalone="no"?>
<svg width="20px" height="14px" viewBox="0 0 20 14" version="1.1" xmlns="http://www.w3.org/2000/svg" xmlns:xlink="http://www.w3.org/1999/xlink">
    <!-- Generator: Sketch 3.8.1 (29687) - http://www.bohemiancoding.com/sketch -->
    <title>marvelapp [#151]</title>
    <desc>Created with Sketch.</desc>
    <defs></defs>
    <g id="Page-1" stroke="none" stroke-width="1" fill="none" fill-rule="evenodd">
        <g id="Dribbble-Dark-Preview" transform="translate(-180.000000, -7522.000000)" fill="#FFFFFF">
            <g id="icons" transform="translate(56.000000, 160.000000)">
                <path d="M139.947848,7363.17224 C140.765148,7363.17224 141.542433,7363.87522 141.542433,7364.67313 C141.542433,7366.16594 137.627998,7369.88381 137.627998,7371.66245 C137.627998,7371.97959 137.785055,7372.13817 138.09917,7372.13817 C139.228585,7372.13817 141.191304,7369.30911 141.83254,7368.36878 C142.65184,7367.16585 143.319085,7367.16282 143.753244,7367.60016 C144.328455,7368.18193 143.77025,7369.3485 143.373105,7370.07066 C142.142653,7372.30482 139.247592,7375.65101 136.721665,7375.65101 C136.045417,7375.65101 135.489213,7375.42476 135.055054,7374.97429 C133.447465,7373.30777 135.006036,7370.34236 136.287506,7368.40514 C133.566508,7370.51911 132.4541,7373.67137 131.502751,7374.68139 C130.733469,7375.49647 129.15489,7374.98439 129.254927,7373.60168 C129.313949,7372.78761 129.555037,7371.95131 130.431359,7370.41407 C130.800494,7369.68988 131.298677,7368.68189 131.611791,7368.14961 C127.495282,7371.47257 127.157158,7374.62281 126.156791,7375.63283 C125.372503,7376.42468 124,7375.89947 124,7374.40666 C124,7371.86445 127.597319,7363.80351 129.61806,7362.27535 C130.465371,7361.63298 131.574778,7362.19455 131.574778,7363.13588 C131.574778,7363.88936 130.281304,7365.78516 129.363967,7367.63652 C131.30768,7365.28217 132.703192,7363.7126 133.804596,7363.13588 C135.005036,7362.50866 135.924373,7363.18739 135.924373,7364.08732 C135.924373,7364.97613 135.09907,7366.13462 134.112709,7368.00316 C135.540232,7366.44066 138.543333,7363.17224 139.947848,7363.17224" id="marvelapp-[#151]"></path>
            </g>
        </g>
    </g>
</svg>