<?xml version="1.0" encoding="UTF-8" standalone="no"?>
<svg width="20px" height="20px" viewBox="0 0 20 20" version="1.1" xmlns="http://www.w3.org/2000/svg" xmlns:xlink="http://www.w3.org/1999/xlink">
    <!-- Generator: Sketch 3.8.1 (29687) - http://www.bohemiancoding.com/sketch -->
    <title>maze [#863]</title>
    <desc>Created with Sketch.</desc>
    <defs></defs>
    <g id="Page-1" stroke="none" stroke-width="1" fill="none" fill-rule="evenodd">
        <g id="Dribbble-Dark-Preview" transform="translate(-340.000000, -4359.000000)" fill="#FFFFFF">
            <g id="icons" transform="translate(56.000000, 160.000000)">
                <path d="M295,4199 L295,4201.02925 C298.94,4201.52676 302,4204.90783 302,4209.0005 C302,4213.09217 298.94,4216.47324 295,4216.97075 L295,4219 C300.053,4218.49545 304,4214.21182 304,4209.0005 C304,4203.78818 300.053,4199.50455 295,4199 M290.667,4211.17046 L292.137,4209.71712 C292.052,4209.49299 292,4209.25177 292,4208.99849 C292,4207.88788 292.895,4206.98633 294,4206.98633 C294.253,4206.98633 294.492,4207.03558 294.714,4207.12101 L296.181,4205.64053 C295.554,4205.22242 294.81,4204.95407 294,4204.95407 C292.142,4204.95407 290.589,4205.93402 290.142,4207.94417 L288.09,4207.94417 C288.248,4206.93909 288.641,4206.16518 289.182,4205.42243 L287.747,4204.00628 C286.658,4205.37821 286,4207.11096 286,4209.0005 C286,4213.09217 289.06,4216.47324 293,4216.97075 L293,4219 C287.947,4218.49545 284,4214.21182 284,4209.0005 C284,4203.78818 287.947,4199.50455 293,4199 L293,4201.02925 C291.575,4201.20916 290.269,4201.76396 289.178,4202.59516 L290.617,4204.03442 C291.582,4203.36605 292.738,4202.94392 294,4202.94392 C296.972,4202.94392 299.433,4204.92894 299.91,4207.94417 L297.858,4207.94417 C297.781,4207.94417 297.66,4207.39138 297.521,4207.12403 L295.971,4208.70702 C295.985,4208.80351 296,4208.89798 296,4208.99849 C296,4210.1091 295.105,4211.00663 294,4211.00663 C293.9,4211.00663 293.805,4210.98854 293.709,4210.97447 L292.146,4212.53937 C292.7,4212.83487 293.329,4212.99467 294,4212.99467 C295.858,4212.99467 297.411,4211.96447 297.858,4209.95432 L299.91,4209.95432 C299.433,4212.96955 296.972,4214.9797 294,4214.9797 C291.028,4214.9797 288.567,4212.96955 288.09,4209.95432 L290.142,4209.95432 C290.253,4209.95432 290.432,4210.80863 290.667,4211.17046" id="maze-[#863]"></path>
            </g>
        </g>
    </g>
</svg>