<?xml version="1.0" encoding="UTF-8" standalone="no"?>
<svg width="12px" height="20px" viewBox="0 0 12 20" version="1.1" xmlns="http://www.w3.org/2000/svg" xmlns:xlink="http://www.w3.org/1999/xlink">
    <!-- Generator: Sketch 3.8.1 (29687) - http://www.bohemiancoding.com/sketch -->
    <title>medal [#95]</title>
    <desc>Created with Sketch.</desc>
    <defs></defs>
    <g id="Page-1" stroke="none" stroke-width="1" fill="none" fill-rule="evenodd">
        <g id="Dribbble-Dark-Preview" transform="translate(-184.000000, -7799.000000)" fill="#FFFFFF">
            <g id="icons" transform="translate(56.000000, 160.000000)">
                <path d="M134,7657 C131.794,7657 130,7655.206 130,7653 C130,7650.794 131.794,7649 134,7649 C136.206,7649 138,7650.794 138,7653 C138,7655.206 136.206,7657 134,7657 L134,7657 Z M130,7647 L133,7647 L133,7641 L130,7641 L130,7647 Z M135,7647 L138,7647 L138,7641 L135,7641 L135,7647 Z M138.463,7649 L140,7649 L140,7639 L128,7639 L128,7649 L129.537,7649 C128.584,7650.062 128,7651.461 128,7653 C128,7656.314 130.686,7659 134,7659 C137.314,7659 140,7656.314 140,7653 C140,7651.461 139.416,7650.062 138.463,7649 L138.463,7649 Z" id="medal-[#95]"></path>
            </g>
        </g>
    </g>
</svg>