<?xml version="1.0" encoding="UTF-8" standalone="no"?>
<svg width="12px" height="20px" viewBox="0 0 12 20" version="1.1" xmlns="http://www.w3.org/2000/svg" xmlns:xlink="http://www.w3.org/1999/xlink">
    <!-- Generator: Sketch 3.8.1 (29687) - http://www.bohemiancoding.com/sketch -->
    <title>medal [#98]</title>
    <desc>Created with Sketch.</desc>
    <defs></defs>
    <g id="Page-1" stroke="none" stroke-width="1" fill="none" fill-rule="evenodd">
        <g id="Dribbble-Dark-Preview" transform="translate(-64.000000, -7799.000000)" fill="#FFFFFF">
            <g id="icons" transform="translate(56.000000, 160.000000)">
                <path d="M14.1031941,7657 C11.9351351,7657 10.1719902,7655.206 10.1719902,7653 C10.1719902,7650.794 11.9351351,7649 14.1031941,7649 C16.2712531,7649 18.034398,7650.794 18.034398,7653 C18.034398,7655.206 16.2712531,7657 14.1031941,7657 L14.1031941,7657 Z M9.96560197,7647 L17.8280098,7647 L17.8280098,7641 L9.96560197,7641 L9.96560197,7647 Z M18.4894349,7649 L19.7936118,7649 L19.7936118,7639 L8,7639 L8,7649 L9.71695332,7649 C8.78034398,7650.062 8.20638821,7651.461 8.20638821,7653 C8.20638821,7656.314 10.8461916,7659 14.1031941,7659 C17.3601966,7659 20,7656.314 20,7653 C20,7651.461 19.4260442,7650.062 18.4894349,7649 L18.4894349,7649 Z" id="medal-[#98]"></path>
            </g>
        </g>
    </g>
</svg>