<?xml version="1.0" encoding="UTF-8" standalone="no"?>
<svg width="20px" height="17px" viewBox="0 0 20 17" version="1.1" xmlns="http://www.w3.org/2000/svg" xmlns:xlink="http://www.w3.org/1999/xlink">
    <!-- Generator: Sketch 3.8.1 (29687) - http://www.bohemiancoding.com/sketch -->
    <title>medium [#149]</title>
    <desc>Created with Sketch.</desc>
    <defs></defs>
    <g id="Page-1" stroke="none" stroke-width="1" fill="none" fill-rule="evenodd">
        <g id="Dribbble-Dark-Preview" transform="translate(-260.000000, -7520.000000)" fill="#FFFFFF">
            <g id="icons" transform="translate(56.000000, 160.000000)">
                <path d="M212,7365.33318 L212,7371.20376 L217.333,7373.81607 L212,7365.33318 Z M223.856,7363.13685 L217.519,7360.03908 C217.416,7359.98525 217.285,7360.02538 217.223,7360.12032 L213.56,7365.94784 L217.919,7372.8794 L223.917,7363.34532 C223.966,7363.27094 223.931,7363.17698 223.856,7363.13685 Z M218.232,7374.24868 L223.45,7376.79932 C223.752,7376.94809 224,7376.79932 224,7376.46262 L224,7365.08066 L218.232,7374.24868 Z M211,7362.95089 L211,7376.46948 C211,7376.79932 210.586,7377.11056 210.283,7376.96179 L204,7373.71721 L204,7360.34935 C204,7360.12619 204.229,7359.87269 204.635,7360.07236 L211,7362.95089 Z" id="medium-[#149]"></path>
            </g>
        </g>
    </g>
</svg>