<?xml version="1.0" encoding="UTF-8" standalone="no"?>
<svg width="20px" height="18px" viewBox="0 0 20 18" version="1.1" xmlns="http://www.w3.org/2000/svg" xmlns:xlink="http://www.w3.org/1999/xlink">
    <!-- Generator: Sketch 3.8.1 (29687) - http://www.bohemiancoding.com/sketch -->
    <title>megaphone [#775]</title>
    <desc>Created with Sketch.</desc>
    <defs></defs>
    <g id="Page-1" stroke="none" stroke-width="1" fill="none" fill-rule="evenodd">
        <g id="Dribbble-Dark-Preview" transform="translate(-180.000000, -4800.000000)" fill="#FFFFFF">
            <g id="icons" transform="translate(56.000000, 160.000000)">
                <path d="M142,4653.6 L126.804,4650.561 C126.336,4650.467 126,4650.057 126,4649.58 L126,4648.42 C126,4647.943 126.336,4647.533 126.804,4647.439 L142,4644.4 L142,4653.6 Z M132,4654.362 C132,4654.995 131.419,4655.469 130.798,4655.341 L128.798,4654.93 C128.334,4654.834 128,4654.425 128,4653.95 L128,4652.8 L132,4653.6 L132,4654.362 Z M142,4641 L142,4642.4 L125.608,4645.678 C124.673,4645.865 124,4646.686 124,4647.64 L124,4650.36 C124,4651.314 124.673,4652.135 125.608,4652.322 L126,4652.4 L126,4654.724 C126,4655.673 126.667,4656.491 127.597,4656.683 L131.597,4657.506 C132.838,4657.761 134,4656.813 134,4655.547 L134,4654 L142,4655.6 L142,4657 C142,4657.552 142.448,4658 143,4658 C143.552,4658 144,4657.552 144,4657 L144,4641 C144,4640.448 143.552,4640 143,4640 C142.448,4640 142,4640.448 142,4641 L142,4641 Z" id="megaphone-[#775]"></path>
            </g>
        </g>
    </g>
</svg>