<?xml version="1.0" encoding="UTF-8" standalone="no"?>
<svg width="20px" height="17px" viewBox="0 0 20 17" version="1.1" xmlns="http://www.w3.org/2000/svg" xmlns:xlink="http://www.w3.org/1999/xlink">
    <!-- Generator: Sketch 3.8.1 (29687) - http://www.bohemiancoding.com/sketch -->
    <title>megaphone [#774]</title>
    <desc>Created with Sketch.</desc>
    <defs></defs>
    <g id="Page-1" stroke="none" stroke-width="1" fill="none" fill-rule="evenodd">
        <g id="Dribbble-Dark-Preview" transform="translate(-220.000000, -4801.000000)" fill="#FFFFFF">
            <g id="icons" transform="translate(56.000000, 160.000000)">
                <path d="M182,4653.53433 L166,4650.28657 L166,4647.44478 L182,4644.19701 L182,4653.53433 Z M172,4655.55301 L168,4654.71773 L168,4652.72239 L172,4653.53433 L172,4655.55301 Z M182,4641 L182,4642.16716 L164,4645.8209 L164,4647.85075 L164,4649.8806 L164,4651.91045 L166,4652.31642 L166,4654.29958 L166,4654.95522 L166,4656.32943 L174,4658 L174,4656.98507 L174,4655.97015 L174,4653.9403 L182,4655.56418 L182,4657.23881 L184,4657.23881 L184,4655.97015 L184,4653.9403 L184,4643.79104 L184,4641.76119 L184,4641 L182,4641 Z" id="megaphone-[#774]"></path>
            </g>
        </g>
    </g>
</svg>