<?xml version="1.0" encoding="UTF-8" standalone="no"?>
<svg width="7px" height="20px" viewBox="0 0 7 20" version="1.1" xmlns="http://www.w3.org/2000/svg" xmlns:xlink="http://www.w3.org/1999/xlink">
    <!-- Generator: Sketch 3.8.1 (29687) - http://www.bohemiancoding.com/sketch -->
    <title>menu_option [#1375]</title>
    <desc>Created with Sketch.</desc>
    <defs></defs>
    <g id="Page-1" stroke="none" stroke-width="1" fill="none" fill-rule="evenodd">
        <g id="Dribbble-Dark-Preview" transform="translate(-266.000000, -800.000000)" fill="#FFFFFF">
            <g id="icons" transform="translate(56.000000, 160.000000)">
                <path d="M212.333333,658 L214.666667,658 L214.666667,656 L212.333333,656 L212.333333,658 Z M210,660 L217,660 L217,654 L210,654 L210,660 Z M212.333333,651 L214.666667,651 L214.666667,649 L212.333333,649 L212.333333,651 Z M210,653 L217,653 L217,647 L210,647 L210,653 Z M212.333333,644 L214.666667,644 L214.666667,642 L212.333333,642 L212.333333,644 Z M210,646 L217,646 L217,640 L210,640 L210,646 Z" id="menu_option-[#1375]"></path>
            </g>
        </g>
    </g>
</svg>