<?xml version="1.0" encoding="UTF-8" standalone="no"?>
<svg width="20px" height="20px" viewBox="0 0 20 20" version="1.1" xmlns="http://www.w3.org/2000/svg" xmlns:xlink="http://www.w3.org/1999/xlink">
    <!-- Generator: Sketch 3.8.1 (29687) - http://www.bohemiancoding.com/sketch -->
    <title>message [#1576]</title>
    <desc>Created with Sketch.</desc>
    <defs></defs>
    <g id="Page-1" stroke="none" stroke-width="1" fill="none" fill-rule="evenodd">
        <g id="Dribbble-Dark-Preview" transform="translate(-180.000000, -919.000000)" fill="#FFFFFF">
            <g id="icons" transform="translate(56.000000, 160.000000)">
                <path d="M144,759 L124,759 L124,776 L131.046,776 C131.847,777.504 132.39,779.001 134.079,779.001 C135.861,779.001 136.154,777.779 137.116,776 L144,776 L144,759 Z M142,761 L142,774 L136.064,774 C135.333,775.362 135.663,774.792 134.445,776.805 C134.337,776.967 134.187,777.032 134.079,777.032 C133.973,777.032 133.824,777.013 133.716,776.854 C133.16,776.04 133.479,776.583 132.109,774 L126,774 L126,761 L142,761 L142,761 Z" id="message-[#1576]"></path>
            </g>
        </g>
    </g>
</svg>