<?xml version="1.0" encoding="UTF-8" standalone="no"?>
<svg width="20px" height="20px" viewBox="0 0 20 20" version="1.1" xmlns="http://www.w3.org/2000/svg" xmlns:xlink="http://www.w3.org/1999/xlink">
    <!-- Generator: Sketch 3.8.1 (29687) - http://www.bohemiancoding.com/sketch -->
    <title>message_three_points [#1560]</title>
    <desc>Created with Sketch.</desc>
    <defs></defs>
    <g id="Page-1" stroke="none" stroke-width="1" fill="none" fill-rule="evenodd">
        <g id="Dribbble-Dark-Preview" transform="translate(-420.000000, -959.000000)" fill="#FFFFFF">
            <g id="icons" transform="translate(56.000000, 160.000000)">
                <path d="M380.872728,808.94 C380.872728,810.045 379.977728,810.94 378.872728,810.94 C377.767728,810.94 376.872728,810.045 376.872728,808.94 C376.872728,807.835 377.767728,806.94 378.872728,806.94 C379.977728,806.94 380.872728,807.835 380.872728,808.94 M375.872728,808.94 C375.872728,810.045 374.977728,810.94 373.872728,810.94 C372.767728,810.94 371.872728,810.045 371.872728,808.94 C371.872728,807.835 372.767728,806.94 373.872728,806.94 C374.977728,806.94 375.872728,807.835 375.872728,808.94 M370.872728,808.94 C370.872728,810.045 369.977728,810.94 368.872728,810.94 C367.767728,810.94 366.872728,810.045 366.872728,808.94 C366.872728,807.835 367.767728,806.94 368.872728,806.94 C369.977728,806.94 370.872728,807.835 370.872728,808.94 M381.441728,817 C381.441728,817 378.825728,816.257 377.018728,816.257 C375.544728,816.257 375.208728,816.518 373.957728,816.518 C369.877728,816.518 366.581728,813.508 366.075728,809.851 C365.403728,804.997 369.268728,800.999 373.957728,801 C377.900728,801 381.002728,803.703 381.732728,807.083 C382.000728,808.318 381.973728,809.544 381.654728,810.726 C381.274728,812.131 381.291728,813.711 381.703728,815.294 C381.914728,816.103 382.302728,817 381.441728,817 M383.917728,815.859 C383.917728,815.859 383.640728,814.794 383.639728,814.79 C383.336728,813.63 383.271728,812.405 383.584728,811.248 C383.970728,809.822 384.035728,808.268 383.687728,806.66 C382.767728,802.405 378.861728,799 373.957728,799 C367.999728,798.999 363.264728,804.127 364.094728,810.125 C364.736728,814.766 368.870728,818.518 373.957728,818.518 C375.426728,818.518 375.722728,818.257 377.019728,818.257 C378.583728,818.257 380.795728,818.919 380.795728,818.919 C382.683728,819.392 384.399728,817.71 383.917728,815.859" id="message_three_points-[#1560]"></path>
            </g>
        </g>
    </g>
</svg>