<?xml version="1.0" encoding="UTF-8" standalone="no"?>
<svg width="20px" height="20px" viewBox="0 0 20 20" version="1.1" xmlns="http://www.w3.org/2000/svg" xmlns:xlink="http://www.w3.org/1999/xlink">
    <!-- Generator: Sketch 3.8.1 (29687) - http://www.bohemiancoding.com/sketch -->
    <title>message_one_point [#1563]</title>
    <desc>Created with Sketch.</desc>
    <defs></defs>
    <g id="Page-1" stroke="none" stroke-width="1" fill="none" fill-rule="evenodd">
        <g id="Dribbble-Dark-Preview" transform="translate(-300.000000, -959.000000)" fill="#FFFFFF">
            <g id="icons" transform="translate(56.000000, 160.000000)">
                <path d="M255.872728,808.94 C255.872728,810.045 254.977728,810.94 253.872728,810.94 C252.767728,810.94 251.872728,810.045 251.872728,808.94 C251.872728,807.835 252.767728,806.94 253.872728,806.94 C254.977728,806.94 255.872728,807.835 255.872728,808.94 M261.441728,817 C260.441728,817 258.638728,815.827 255.318728,816.401 C254.163728,816.601 252.993728,816.544 251.834728,816.235 C248.806728,815.429 246.492728,812.863 246.075728,809.851 C245.765728,807.608 246.409728,805.437 247.889728,803.738 C249.405728,801.998 251.617728,801 253.957728,801 C257.900728,801 261.002728,803.703 261.732728,807.083 C262.556728,810.891 260.453728,810.494 261.982728,816.363 C262.073728,816.714 261.761728,817 261.441728,817 M263.917728,815.859 L263.917728,815.859 C262.517728,810.484 264.641728,811.073 263.687728,806.66 C262.767728,802.405 258.861728,799 253.957728,799 C247.999728,798.999 243.264728,804.127 244.094728,810.125 C244.623728,813.946 247.522728,817.156 251.319728,818.168 C252.736728,818.545 254.196728,818.625 255.659728,818.372 C258.391728,817.899 260.256728,819 261.441728,819 C263.052728,819 264.343728,817.496 263.917728,815.859" id="message_one_point-[#1563]"></path>
            </g>
        </g>
    </g>
</svg>