<?xml version="1.0" encoding="UTF-8" standalone="no"?>
<svg width="20px" height="20px" viewBox="0 0 20 20" version="1.1" xmlns="http://www.w3.org/2000/svg" xmlns:xlink="http://www.w3.org/1999/xlink">
    <!-- Generator: Sketch 3.8.1 (29687) - http://www.bohemiancoding.com/sketch -->
    <title>message [#1577]</title>
    <desc>Created with Sketch.</desc>
    <defs></defs>
    <g id="Page-1" stroke="none" stroke-width="1" fill="none" fill-rule="evenodd">
        <g id="Dribbble-Dark-Preview" transform="translate(-140.000000, -919.000000)" fill="#FFFFFF">
            <g id="icons" transform="translate(56.000000, 160.000000)">
                <path d="M96.0372543,759 L92.4962543,759 C87.8122543,759 84.1862543,762.171 84.0072543,766.319 C83.8352543,770.323 86.7422543,773.676 90.5552543,774.225 C91.0912543,774.302 91.5532543,774.641 91.8172543,775.113 L94.0002543,779.001 L96.1822543,775.114 C96.4472543,774.642 96.9102543,774.302 97.4452543,774.225 C101.259254,773.675 104.165254,770.323 103.993254,766.319 C103.814254,762.171 100.188254,759 96.0372543,759 M95.9392543,760.996 C99.0962543,760.996 101.817254,763.422 101.946254,766.402 C102.071254,769.317 100.017254,771.829 97.1362543,772.244 C95.2162543,772.521 94.5472543,773.915 93.9942543,774.915 C93.4362543,773.915 92.7632543,772.523 90.8392543,772.245 C87.9572543,771.83 85.8792543,769.319 86.0052543,766.405 C86.1372543,763.324 88.9282543,761 92.4962543,761 L96.0002543,761" id="message-[#1577]"></path>
            </g>
        </g>
    </g>
</svg>