<?xml version="1.0" encoding="UTF-8" standalone="no"?>
<svg width="20px" height="18px" viewBox="0 0 20 18" version="1.1" xmlns="http://www.w3.org/2000/svg" xmlns:xlink="http://www.w3.org/1999/xlink">
    <!-- Generator: Sketch 3.8.1 (29687) - http://www.bohemiancoding.com/sketch -->
    <title>message_three_points [#1558]</title>
    <desc>Created with Sketch.</desc>
    <defs></defs>
    <g id="Page-1" stroke="none" stroke-width="1" fill="none" fill-rule="evenodd">
        <g id="Dribbble-Dark-Preview" transform="translate(-100.000000, -1000.000000)" fill="#FFFFFF">
            <g id="icons" transform="translate(56.000000, 160.000000)">
                <path d="M57,848.091065 C57,846.987965 57.895,846.094504 59,846.094504 C60.105,846.094504 61,846.987965 61,848.091065 C61,849.194166 60.105,850.087627 59,850.087627 C57.895,850.087627 57,849.194166 57,848.091065 L57,848.091065 Z M52,848.091065 C52,846.987965 52.895,846.094504 54,846.094504 C55.105,846.094504 56,846.987965 56,848.091065 C56,849.194166 55.105,850.087627 54,850.087627 C52.895,850.087627 52,849.194166 52,848.091065 L52,848.091065 Z M47,848.091065 C47,846.987965 47.895,846.094504 49,846.094504 C50.105,846.094504 51,846.987965 51,848.091065 C51,849.194166 50.105,850.087627 49,850.087627 C47.895,850.087627 47,849.194166 47,848.091065 L47,848.091065 Z M62,852.97765 L56.064,852.97765 L55.468,854.10371 C54.747,855.307637 54.952,854.965227 54.445,855.806777 C54.337,855.968499 54.187,856.035384 54.079,856.035384 C53.595,856.035384 52.93,854.542954 52.703,854.113693 L52.109,852.97765 L46,852.97765 L46,841.996561 L62,841.996561 L62,852.97765 Z M44,840 L44,854.974211 L51.046,854.974211 C51.838,856.481615 52.382,858 54.079,858 C55.907,858 56.205,856.680273 57.116,854.974211 L64,854.974211 L64,840 L44,840 Z" id="message_three_points-[#1558]"></path>
            </g>
        </g>
    </g>
</svg>