<?xml version="1.0" encoding="UTF-8" standalone="no"?>
<svg width="20px" height="20px" viewBox="0 0 20 20" version="1.1" xmlns="http://www.w3.org/2000/svg" xmlns:xlink="http://www.w3.org/1999/xlink">
    <!-- Generator: Sketch 3.8.1 (29687) - http://www.bohemiancoding.com/sketch -->
    <title>messages_chat [#1557]</title>
    <desc>Created with Sketch.</desc>
    <defs></defs>
    <g id="Page-1" stroke="none" stroke-width="1" fill="none" fill-rule="evenodd">
        <g id="Dribbble-Dark-Preview" transform="translate(-140.000000, -999.000000)" fill="#FFFFFF">
            <g id="icons" transform="translate(56.000000, 160.000000)">
                <path d="M97.1784026,840.884344 C92.8882915,837.134592 86.2359857,839.256228 84.7592414,844.817545 C84.139128,847.151543 84.7373784,848.235292 84.7373784,849.987037 C84.7373784,851.787636 84,854.395812 84,854.395812 C84,854.714855 84.2832249,855.025921 84.6320386,854.935194 C85.8792217,854.609172 87.8627895,853.964107 90.2349218,854.608175 C98.2119249,856.770688 103.330841,846.261214 97.1784026,840.884344 M103.447113,859 C103.395437,859 103.341773,858.993021 103.287115,858.979063 C96.9806421,857.395812 97.4039887,859.174477 93.8999507,858.237288 C92.8395967,857.954137 91.8746446,857.443669 91.0418642,856.781655 C97.4059763,857.561316 102.710728,852.016948 101.771614,845.487535 C102.732591,846.487535 103.438169,847.72582 103.7363,849.11266 C104.584981,853.048852 102.430484,852.38285 103.983749,858.364905 C104.075176,858.714855 103.765119,859 103.447113,859" id="messages_chat-[#1557]"></path>
            </g>
        </g>
    </g>
</svg>