<?xml version="1.0" encoding="UTF-8" standalone="no"?>
<svg width="20px" height="20px" viewBox="0 0 20 20" version="1.1" xmlns="http://www.w3.org/2000/svg" xmlns:xlink="http://www.w3.org/1999/xlink">
    <!-- Generator: Sketch 3.8.1 (29687) - http://www.bohemiancoding.com/sketch -->
    <title>message_three_points [#1559]</title>
    <desc>Created with Sketch.</desc>
    <defs></defs>
    <g id="Page-1" stroke="none" stroke-width="1" fill="none" fill-rule="evenodd">
        <g id="Dribbble-Dark-Preview" transform="translate(-60.000000, -999.000000)" fill="#FFFFFF">
            <g id="icons" transform="translate(56.000000, 160.000000)">
                <path d="M19.1953368,845.056848 C20.3003368,845.056848 21.1953368,845.944789 21.1953368,847.041073 C21.1953368,848.137358 20.3003368,849.025299 19.1953368,849.025299 C18.0903368,849.025299 17.1953368,848.137358 17.1953368,847.041073 C17.1953368,845.944789 18.0903368,845.056848 19.1953368,845.056848 M16.1953368,847.041073 C16.1953368,848.137358 15.3003368,849.025299 14.1953368,849.025299 C13.0903368,849.025299 12.1953368,848.137358 12.1953368,847.041073 C12.1953368,845.944789 13.0903368,845.056848 14.1953368,845.056848 C15.3003368,845.056848 16.1953368,845.944789 16.1953368,847.041073 M11.1953368,847.041073 C11.1953368,848.137358 10.3003368,849.025299 9.19533677,849.025299 C8.09033677,849.025299 7.19533677,848.137358 7.19533677,847.041073 C7.19533677,845.944789 8.09033677,845.056848 9.19533677,845.056848 C10.3003368,845.056848 11.1953368,845.944789 11.1953368,847.041073 M17.1593368,852.299271 C16.0283368,852.460985 15.0103368,853.166377 14.4383368,854.178332 L13.9993368,854.955157 L13.5613368,854.181309 C12.9883368,853.169354 11.9713368,852.469914 10.8403368,852.3082 C7.95833677,851.896473 5.87933677,849.321941 6.00533677,846.429932 C6.13733677,843.373233 8.92833677,840.984225 12.4953368,840.984225 L16.1953368,840.984225 L16.0363368,841.063594 C19.1933368,841.063594 21.8663368,843.513121 21.9943368,846.469617 C22.1193368,849.361625 20.0413368,851.887544 17.1593368,852.299271 M16.0363368,839 L12.4953368,839 C7.81133677,839 4.18533677,842.230319 4.00733677,846.34461 C3.83433677,850.318022 6.74133677,853.686244 10.5553368,854.230914 C11.0903368,854.307307 11.5523368,854.664467 11.8173368,855.132745 L13.9993368,859 L16.1823368,855.149611 C16.4473368,854.680341 16.9093368,854.346991 17.4453368,854.269607 C21.2583368,853.724937 24.1643368,850.316038 23.9923368,846.343618 C23.8143368,842.229327 20.1883368,839 16.0363368,839" id="message_three_points-[#1559]"></path>
            </g>
        </g>
    </g>
</svg>