<?xml version="1.0" encoding="UTF-8" standalone="no"?>
<svg width="20px" height="18px" viewBox="0 0 20 18" version="1.1" xmlns="http://www.w3.org/2000/svg" xmlns:xlink="http://www.w3.org/1999/xlink">
    <!-- Generator: Sketch 3.8.1 (29687) - http://www.bohemiancoding.com/sketch -->
    <title>message_one_point [#1561]</title>
    <desc>Created with Sketch.</desc>
    <defs></defs>
    <g id="Page-1" stroke="none" stroke-width="1" fill="none" fill-rule="evenodd">
        <g id="Dribbble-Dark-Preview" transform="translate(-380.000000, -960.000000)" fill="#FFFFFF">
            <g id="icons" transform="translate(56.000000, 160.000000)">
                <path d="M332,808.091065 C332,806.987965 332.895,806.094504 334,806.094504 C335.105,806.094504 336,806.987965 336,808.091065 C336,809.194166 335.105,810.087627 334,810.087627 C332.895,810.087627 332,809.194166 332,808.091065 L332,808.091065 Z M342,812.97765 L336.064,812.97765 C335.347,814.332317 335.654,813.801231 334.445,815.806777 C334.337,815.968499 334.187,816.035384 334.079,816.035384 C333.973,816.035384 333.824,816.018413 333.716,815.858688 C333.158,815.046087 333.469,815.575176 332.109,812.97765 L326,812.97765 L326,801.996561 L342,801.996561 L342,812.97765 Z M324,800 L324,814.974211 L331.046,814.974211 C331.838,816.481615 332.383,818 334.079,818 C335.907,818 336.205,816.680273 337.116,814.974211 L344,814.974211 L344,800 L324,800 Z" id="message_one_point-[#1561]"></path>
            </g>
        </g>
    </g>
</svg>