<?xml version="1.0" encoding="UTF-8" standalone="no"?>
<svg width="16px" height="20px" viewBox="0 0 16 20" version="1.1" xmlns="http://www.w3.org/2000/svg" xmlns:xlink="http://www.w3.org/1999/xlink">
    <!-- Generator: Sketch 3.8.1 (29687) - http://www.bohemiancoding.com/sketch -->
    <title>microphone [#933]</title>
    <desc>Created with Sketch.</desc>
    <defs></defs>
    <g id="Page-1" stroke="none" stroke-width="1" fill="none" fill-rule="evenodd">
        <g id="Dribbble-Dark-Preview" transform="translate(-342.000000, -4039.000000)" fill="#FFFFFF">
            <g id="icons" transform="translate(56.000000, 160.000000)">
                <path d="M295,3894.437 L295,3897 L298,3897 L298,3899 L290,3899 L290,3897 L293,3897 L293,3894.437 C289.36,3894.028 286,3891 286,3887 L288,3887 C288,3895 300,3895 300,3887 L302,3887 C302,3891 298.64,3894.028 295,3894.437 L295,3894.437 Z M292,3881 L296,3881 L296,3886.393 C296,3887.389 295.319,3888.313 294.336,3888.473 C293.083,3888.677 292,3887.715 292,3886.5 L292,3881 Z M294.393,3890.481 C296.473,3890.283 298,3888.417 298,3886.328 L298,3879 L290,3879 L290,3886.5 C290,3888.839 292.007,3890.709 294.393,3890.481 L294.393,3890.481 Z" id="microphone-[#933]"></path>
            </g>
        </g>
    </g>
</svg>