<?xml version="1.0" encoding="UTF-8" standalone="no"?>
<svg width="20px" height="20px" viewBox="0 0 20 20" version="1.1" xmlns="http://www.w3.org/2000/svg" xmlns:xlink="http://www.w3.org/1999/xlink">
    <!-- Generator: Sketch 3.8.1 (29687) - http://www.bohemiancoding.com/sketch -->
    <title>microphone [#219]</title>
    <desc>Created with Sketch.</desc>
    <defs></defs>
    <g id="Page-1" stroke="none" stroke-width="1" fill="none" fill-rule="evenodd">
        <g id="Dribbble-Dark-Preview" transform="translate(-220.000000, -7199.000000)" fill="#FFFFFF">
            <g id="icons" transform="translate(56.000000, 160.000000)">
                <path d="M179.166014,7054.17934 C178.617473,7054.7264 178.491118,7054.92043 177.74803,7054.17934 L176.87959,7053.31323 C177.409078,7052.90218 177.885416,7052.42713 178.297574,7051.89806 L179.166014,7052.76517 C179.897068,7053.49425 179.846928,7053.50026 179.166014,7054.17934 M174.44876,7052.45713 C169.453724,7054.7284 164.173889,7049.36275 166.528505,7044.42816 C168.740721,7039.7896 175.651138,7040.01262 177.556492,7044.7862 C178.725777,7047.71656 177.324841,7051.15097 174.44876,7052.45713 M174.316388,7052.51814 C174.266247,7052.54014 174.271261,7052.53814 174.316388,7052.51814 M183.704767,7057.29171 L181.292991,7054.88642 C182.076191,7054.10533 182.076191,7052.83918 181.292991,7052.05808 L179.352538,7050.12185 C181.844541,7044.26814 176.448378,7037.82636 170.239933,7039.18252 C164.434621,7040.45068 162.020839,7047.63355 165.862634,7052.14509 C168.112957,7054.78841 171.880543,7055.72853 175.098585,7054.36536 L177.039038,7056.30059 C177.822238,7057.08169 179.091806,7057.08169 179.875006,7056.30059 L182.286783,7058.70589 C183.199347,7059.616 184.619337,7058.20382 183.704767,7057.29171" id="microphone-[#219]"></path>
            </g>
        </g>
    </g>
</svg>