<?xml version="1.0" encoding="UTF-8" standalone="no"?>
<svg width="20px" height="20px" viewBox="0 0 20 20" version="1.1" xmlns="http://www.w3.org/2000/svg" xmlns:xlink="http://www.w3.org/1999/xlink">
    <!-- Generator: Sketch 3.8.1 (29687) - http://www.bohemiancoding.com/sketch -->
    <title>microphone [#218]</title>
    <desc>Created with Sketch.</desc>
    <defs></defs>
    <g id="Page-1" stroke="none" stroke-width="1" fill="none" fill-rule="evenodd">
        <g id="Dribbble-Dark-Preview" transform="translate(-260.000000, -7199.000000)" fill="#FFFFFF">
            <g id="icons" transform="translate(56.000000, 160.000000)">
                <path d="M218.4608,7054.88743 L216.884005,7053.31436 C217.413279,7052.90334 217.889425,7052.42832 218.301416,7051.89929 L219.878211,7053.47337 L218.4608,7054.88743 Z M214.454158,7052.45832 C209.461142,7054.72842 204.183441,7049.36418 206.537105,7044.42995 C208.749429,7039.79174 215.65605,7040.01475 217.560634,7044.78797 C218.731451,7047.7231 217.324064,7051.15426 214.454158,7052.45832 L214.454158,7052.45832 Z M221.295622,7054.88743 L222.714036,7053.47337 L219.355954,7050.12321 C221.846949,7044.26794 216.534163,7037.87265 210.322214,7039.16871 C204.48216,7040.38676 201.995175,7047.6411 205.856467,7052.17631 C208.100869,7054.81243 211.905023,7055.72147 215.103721,7054.36641 L218.4608,7057.71556 L219.878211,7056.3015 L222.58272,7058.99962 L224.000131,7057.58556 L221.295622,7054.88743 Z" id="microphone-[#218]"></path>
            </g>
        </g>
    </g>
</svg>