<?xml version="1.0" encoding="UTF-8" standalone="no"?>
<svg width="16px" height="20px" viewBox="0 0 16 20" version="1.1" xmlns="http://www.w3.org/2000/svg" xmlns:xlink="http://www.w3.org/1999/xlink">
    <!-- Generator: Sketch 3.8.1 (29687) - http://www.bohemiancoding.com/sketch -->
    <title>microphone [#934]</title>
    <desc>Created with Sketch.</desc>
    <defs></defs>
    <g id="Page-1" stroke="none" stroke-width="1" fill="none" fill-rule="evenodd">
        <g id="Dribbble-Dark-Preview" transform="translate(-302.000000, -4039.000000)" fill="#FFFFFF">
            <g id="icons" transform="translate(56.000000, 160.000000)">
                <path d="M254.99328,3894.437 L254.99328,3897 L257.03455,3897 C257.576337,3897 257.985195,3897.31 258.006343,3897.836 C257.966061,3898.372 257.562238,3899 257.03455,3899 L250.992311,3899 C250.435418,3899 249.958081,3898.427 249.958081,3897.875 L249.958081,3897.75 C249.958081,3897.198 250.435418,3897 250.992311,3897 L252.9792,3897 L252.9792,3894.437 C249.958081,3894.061 246.483794,3892.043 246.006457,3887.873 C245.937978,3887.278 246.423371,3887 247.026588,3887 L247.029609,3887 C247.535143,3887 247.962128,3887.251 248.021543,3887.75 C248.836239,3894.583 259.190622,3894.458 260.00431,3887.625 C260.063725,3887.126 260.491717,3887 260.997251,3887 L261.000272,3887 C261.603489,3887 262.061692,3887.278 261.993214,3887.873 C261.515877,3892.043 259.021439,3894.061 254.99328,3894.437 L254.99328,3894.437 Z M258.014399,3897.875 C258.014399,3897.861 258.00735,3897.85 258.006343,3897.836 C258.008357,3897.808 258.014399,3897.778 258.014399,3897.75 L258.014399,3897.875 Z M251.972161,3881.5 C251.972161,3880.948 252.449497,3881 253.00639,3881 L255.02047,3881 C255.576356,3881 256.00032,3880.948 256.00032,3881.5 L256.00032,3886.5 C256.00032,3887.604 255.098012,3888.5 253.98624,3888.5 C252.874468,3888.5 251.972161,3887.604 251.972161,3886.5 L251.972161,3881.5 Z M253.98624,3890.5 C256.210791,3890.5 258.014399,3888.709 258.014399,3886.5 L258.014399,3880.5 C258.014399,3879.395 257.139282,3879 256.02751,3879 L251.999351,3879 C250.886572,3879 249.958081,3879.395 249.958081,3880.5 L249.958081,3886.5 C249.958081,3888.709 251.761689,3890.5 253.98624,3890.5 L253.98624,3890.5 Z" id="microphone-[#934]"></path>
            </g>
        </g>
    </g>
</svg>