<?xml version="1.0" encoding="UTF-8" standalone="no"?>
<svg width="20px" height="10px" viewBox="0 0 20 10" version="1.1" xmlns="http://www.w3.org/2000/svg" xmlns:xlink="http://www.w3.org/1999/xlink">
    <!-- Generator: Sketch 3.8.1 (29687) - http://www.bohemiancoding.com/sketch -->
    <title>mill-half [#51]</title>
    <desc>Created with Sketch.</desc>
    <defs></defs>
    <g id="Page-1" stroke="none" stroke-width="1" fill="none" fill-rule="evenodd">
        <g id="Dribbble-Dark-Preview" transform="translate(-340.000000, -7969.000000)" fill="#FFFFFF">
            <g id="icons" transform="translate(56.000000, 160.000000)">
                <path d="M297.674,7815.02981 L295.507,7810.99563 L299.948,7810.99563 L297.674,7815.02981 Z M291.757,7815.98472 L293.837,7812.1102 L295.918,7815.98472 L291.757,7815.98472 Z M289.969,7815.08669 L287.663,7810.99563 L292.167,7810.99563 L289.969,7815.08669 Z M303,7809 L285,7809 C284.448,7809 284,7809.44602 284,7809.99782 C284,7810.54861 284.448,7810.99563 285,7810.99563 L285.368,7810.99563 L288.85,7817.01547 L288.542,7817.51038 C288.281,7817.99632 288.464,7818.56208 288.951,7818.82251 C289.438,7819.08294 290.044,7819.03704 290.305,7818.55111 L290.685,7817.98036 L296.989,7817.98036 L297.369,7818.53115 C297.63,7819.01709 298.236,7819.12186 298.723,7818.86143 C299.21,7818.601 299.393,7817.95741 299.132,7817.47147 L298.794,7816.97755 L302.243,7810.99563 L303,7810.99563 C303.552,7810.99563 304,7810.54861 304,7809.99782 C304,7809.44602 303.552,7809 303,7809 L303,7809 Z" id="mill-half-[#51]"></path>
            </g>
        </g>
    </g>
</svg>