<?xml version="1.0" encoding="UTF-8" standalone="no"?>
<svg width="20px" height="18px" viewBox="0 0 20 18" version="1.1" xmlns="http://www.w3.org/2000/svg" xmlns:xlink="http://www.w3.org/1999/xlink">
    <!-- Generator: Sketch 3.8.1 (29687) - http://www.bohemiancoding.com/sketch -->
    <title>mill [#50]</title>
    <desc>Created with Sketch.</desc>
    <defs></defs>
    <g id="Page-1" stroke="none" stroke-width="1" fill="none" fill-rule="evenodd">
        <g id="Dribbble-Dark-Preview" transform="translate(-380.000000, -7960.000000)" fill="#FFFFFF">
            <g id="icons" transform="translate(56.000000, 160.000000)">
                <path d="M335.508,7807.85408 L337.675,7803.92015 L339.949,7807.85408 L335.508,7807.85408 Z M337.675,7813.73405 L335.508,7809.80012 L339.949,7809.80012 L337.675,7813.73405 Z M331.757,7814.66523 L333.838,7810.88699 L335.918,7814.66523 L331.757,7814.66523 Z M329.97,7813.79049 L327.663,7809.80012 L332.167,7809.80012 L329.97,7813.79049 Z M329.97,7803.86372 L332.167,7807.85408 L327.663,7807.85408 L329.97,7803.86372 Z M335.918,7802.98897 L333.838,7806.76721 L331.757,7802.98897 L335.918,7802.98897 Z M343,7807.85408 L342.244,7807.85408 L338.794,7802.00427 L339.133,7801.4477 C339.393,7800.97384 339.21,7800.41338 338.724,7800.15942 C338.237,7799.90547 337.631,7799.98136 337.37,7800.45522 L336.99,7801.04293 L330.685,7801.04293 L330.305,7800.46982 C330.045,7799.99596 329.438,7799.87627 328.952,7800.13023 C328.465,7800.38419 328.282,7801.00303 328.543,7801.4769 L328.851,7801.93324 L325.369,7807.85408 L325,7807.85408 C324.448,7807.85408 324,7808.28999 324,7808.8271 C324,7809.36421 324.448,7809.80012 325,7809.80012 L325.369,7809.80012 L328.851,7815.93989 L328.543,7816.55776 C328.282,7817.03162 328.465,7817.65046 328.952,7817.90442 C329.438,7818.15838 330.045,7817.87718 330.305,7817.40331 L330.685,7816.61128 L336.99,7816.61128 L337.37,7817.41791 C337.631,7817.89177 338.237,7818.12919 338.724,7817.87523 C339.21,7817.62127 339.393,7817.06081 339.133,7816.58695 L338.794,7815.86983 L342.244,7809.80012 L343,7809.80012 C343.553,7809.80012 344,7809.36421 344,7808.8271 C344,7808.28999 343.553,7807.85408 343,7807.85408 L343,7807.85408 Z" id="mill-[#50]"></path>
            </g>
        </g>
    </g>
</svg>