<?xml version="1.0" encoding="UTF-8" standalone="no"?>
<svg width="21px" height="20px" viewBox="0 0 21 20" version="1.1" xmlns="http://www.w3.org/2000/svg" xmlns:xlink="http://www.w3.org/1999/xlink">
    <!-- Generator: Sketch 3.8.1 (29687) - http://www.bohemiancoding.com/sketch -->
    <title>minus_circle [#1442]</title>
    <desc>Created with Sketch.</desc>
    <defs></defs>
    <g id="Page-1" stroke="none" stroke-width="1" fill="none" fill-rule="evenodd">
        <g id="Dribbble-Dark-Preview" transform="translate(-379.000000, -520.000000)" fill="#FFFFFF">
            <g id="icons" transform="translate(56.000000, 160.000000)">
                <path d="M329.3,371 L337.7,371 L337.7,369 L329.3,369 L329.3,371 Z M333.5,378 C328.8674,378 325.1,374.411 325.1,370 C325.1,365.588 328.8674,362 333.5,362 C338.13155,362 341.9,365.588 341.9,370 C341.9,374.411 338.13155,378 333.5,378 L333.5,378 Z M333.5,360 C327.70085,360 323,364.477 323,370 C323,375.523 327.70085,380 333.5,380 C339.2981,380 344,375.523 344,370 C344,364.477 339.2981,360 333.5,360 L333.5,360 Z" id="minus_circle-[#1442]"></path>
            </g>
        </g>
    </g>
</svg>