<?xml version="1.0" encoding="UTF-8" standalone="no"?>
<svg width="21px" height="20px" viewBox="0 0 21 20" version="1.1" xmlns="http://www.w3.org/2000/svg" xmlns:xlink="http://www.w3.org/1999/xlink">
    <!-- Generator: Sketch 3.8.1 (29687) - http://www.bohemiancoding.com/sketch -->
    <title>minus_circle [#1429]</title>
    <desc>Created with Sketch.</desc>
    <defs></defs>
    <g id="Page-1" stroke="none" stroke-width="1" fill="none" fill-rule="evenodd">
        <g id="Dribbble-Dark-Preview" transform="translate(-99.000000, -600.000000)" fill="#FFFFFF">
            <g id="icons" transform="translate(56.000000, 160.000000)">
                <path d="M49.3,451 L57.7,451 L57.7,449 L49.3,449 L49.3,451 Z M53.5,458 C48.8674,458 45.1,454.411 45.1,450 C45.1,445.588 48.8674,442 53.5,442 C58.13155,442 61.9,445.588 61.9,450 C61.9,454.411 58.13155,458 53.5,458 L53.5,458 Z M53.5,440 C47.70085,440 43,444.477 43,450 C43,455.523 47.70085,460 53.5,460 C59.2981,460 64,455.523 64,450 C64,444.477 59.2981,440 53.5,440 L53.5,440 Z" id="minus_circle-[#1429]"></path>
            </g>
        </g>
    </g>
</svg>