<?xml version="1.0" encoding="UTF-8" standalone="no"?>
<svg width="20px" height="12px" viewBox="0 0 20 12" version="1.1" xmlns="http://www.w3.org/2000/svg" xmlns:xlink="http://www.w3.org/1999/xlink">
    <!-- Generator: Sketch 3.8.1 (29687) - http://www.bohemiancoding.com/sketch -->
    <title>money [#1182]</title>
    <desc>Created with Sketch.</desc>
    <defs></defs>
    <g id="Page-1" stroke="none" stroke-width="1" fill="none" fill-rule="evenodd">
        <g id="Dribbble-Dark-Preview" transform="translate(-340.000000, -2923.000000)" fill="#FFFFFF">
            <g id="icons" transform="translate(56.000000, 160.000000)">
                <path d="M292,2769 C292,2767.895 292.895,2767 294,2767 C295.105,2767 296,2767.895 296,2769 C296,2770.105 295.105,2771 294,2771 C292.895,2771 292,2770.105 292,2769 L292,2769 Z M300.343,2765 L302,2765 L302,2766.657 L300.343,2765 Z M302,2773 L300.343,2773 L302,2771.343 L302,2773 Z M286,2773 L286,2771.343 L287.657,2773 L286,2773 Z M286,2765 L287.657,2765 L286,2766.657 L286,2765 Z M297.515,2765 L301.515,2769 L297.515,2773 L290.485,2773 L286.485,2769 L290.485,2765 L297.515,2765 Z M284,2775 L304,2775 L304,2763 L284,2763 L284,2775 Z" id="money-[#1182]"></path>
            </g>
        </g>
    </g>
</svg>