<?xml version="1.0" encoding="UTF-8" standalone="no"?>
<svg width="20px" height="18px" viewBox="0 0 20 18" version="1.1" xmlns="http://www.w3.org/2000/svg" xmlns:xlink="http://www.w3.org/1999/xlink">
    <!-- Generator: Sketch 3.8.1 (29687) - http://www.bohemiancoding.com/sketch -->
    <title>money_round [#1184]</title>
    <desc>Created with Sketch.</desc>
    <defs></defs>
    <g id="Page-1" stroke="none" stroke-width="1" fill="none" fill-rule="evenodd">
        <g id="Dribbble-Dark-Preview" transform="translate(-260.000000, -2920.000000)" fill="#FFFFFF">
            <g id="icons" transform="translate(56.000000, 160.000000)">
                <path d="M206,2763 L206,2762 C206,2760.895 206.895,2760 208,2760 L220,2760 C221.105,2760 222,2760.895 222,2762 L222,2763 C222,2763.552 221.552,2764 221,2764 C220.448,2764 220,2763.552 220,2763 C220,2762.448 219.552,2762 219,2762 L209,2762 C208.448,2762 208,2762.448 208,2763 C208,2763.552 207.552,2764 207,2764 C206.448,2764 206,2763.552 206,2763 L206,2763 Z M216,2772 C216,2773.105 215.105,2774 214,2774 C212.895,2774 212,2773.105 212,2772 C212,2770.895 212.895,2770 214,2770 C215.105,2770 216,2770.895 216,2772 L216,2772 Z M222,2769.657 L220.343,2768 C221.972,2768 222,2768.384 222,2769.657 L222,2769.657 Z M220.343,2776 L222,2774.343 C222,2775.97 221.62,2776 220.343,2776 L220.343,2776 Z M210.485,2776 L206.485,2772 L210.485,2768 L217.515,2768 L221.515,2772 L217.515,2776 L210.485,2776 Z M206,2774.343 L207.657,2776 C206.03,2776 206,2775.62 206,2774.343 L206,2774.343 Z M207.657,2768 L206,2769.657 C206,2768.028 206.384,2768 207.657,2768 L207.657,2768 Z M222,2766 L206,2766 C204.895,2766 204,2766.895 204,2768 L204,2776 C204,2777.105 204.895,2778 206,2778 L222,2778 C223.105,2778 224,2777.105 224,2776 L224,2768 C224,2766.895 223.105,2766 222,2766 L222,2766 Z" id="money_round-[#1184]"></path>
            </g>
        </g>
    </g>
</svg>