<?xml version="1.0" encoding="UTF-8" standalone="no"?>
<svg width="20px" height="18px" viewBox="0 0 20 18" version="1.1" xmlns="http://www.w3.org/2000/svg" xmlns:xlink="http://www.w3.org/1999/xlink">
    <!-- Generator: Sketch 3.8.1 (29687) - http://www.bohemiancoding.com/sketch -->
    <title>money [#1183]</title>
    <desc>Created with Sketch.</desc>
    <defs></defs>
    <g id="Page-1" stroke="none" stroke-width="1" fill="none" fill-rule="evenodd">
        <g id="Dribbble-Dark-Preview" transform="translate(-300.000000, -2920.000000)" fill="#FFFFFF">
            <g id="icons" transform="translate(56.000000, 160.000000)">
                <path d="M248,2764 L246,2764 L246,2760 L262,2760 L262,2764 L260,2764 L260,2762 L248,2762 L248,2764 Z M256,2772 C256,2773.105 255.105,2774 254,2774 C252.895,2774 252,2773.105 252,2772 C252,2770.895 252.895,2770 254,2770 C255.105,2770 256,2770.895 256,2772 L256,2772 Z M262,2769.657 L260.343,2768 L262,2768 L262,2769.657 Z M262,2776 L260.343,2776 L262,2774.343 L262,2776 Z M250.485,2776 L246.485,2772 L250.485,2768 L257.515,2768 L261.515,2772 L257.515,2776 L250.485,2776 Z M246,2776 L246,2774.343 L247.657,2776 L246,2776 Z M246,2768 L247.657,2768 L246,2769.657 L246,2768 Z M244,2778 L264,2778 L264,2766 L244,2766 L244,2778 Z" id="money-[#1183]"></path>
            </g>
        </g>
    </g>
</svg>