<?xml version="1.0" encoding="UTF-8" standalone="no"?>
<svg width="20px" height="12px" viewBox="0 0 20 12" version="1.1" xmlns="http://www.w3.org/2000/svg" xmlns:xlink="http://www.w3.org/1999/xlink">
    <!-- Generator: Sketch 3.8.1 (29687) - http://www.bohemiancoding.com/sketch -->
    <title>money_round [#1181]</title>
    <desc>Created with Sketch.</desc>
    <defs></defs>
    <g id="Page-1" stroke="none" stroke-width="1" fill="none" fill-rule="evenodd">
        <g id="Dribbble-Dark-Preview" transform="translate(-380.000000, -2923.000000)" fill="#FFFFFF">
            <g id="icons" transform="translate(56.000000, 160.000000)">
                <path d="M332,2769 C332,2767.895 332.895,2767 334,2767 C335.105,2767 336,2767.895 336,2769 C336,2770.105 335.105,2771 334,2771 C332.895,2771 332,2770.105 332,2769 L332,2769 Z M340.343,2765 C341.972,2765 342,2765.384 342,2766.657 L340.343,2765 Z M340.343,2773 L342,2771.343 C342,2772.97 341.62,2773 340.343,2773 L340.343,2773 Z M326,2771.343 L327.657,2773 C326.03,2773 326,2772.62 326,2771.343 L326,2771.343 Z M327.657,2765 L326,2766.657 C326,2765.028 326.384,2765 327.657,2765 L327.657,2765 Z M337.515,2765 L341.515,2769 L337.515,2773 L330.485,2773 L326.485,2769 L330.485,2765 L337.515,2765 Z M342,2763 L326,2763 C324.895,2763 324,2763.895 324,2765 L324,2773 C324,2774.105 324.895,2775 326,2775 L342,2775 C343.105,2775 344,2774.105 344,2773 L344,2765 C344,2763.895 343.105,2763 342,2763 L342,2763 Z" id="money_round-[#1181]"></path>
            </g>
        </g>
    </g>
</svg>