<?xml version="1.0" encoding="UTF-8" standalone="no"?>
<svg width="20px" height="20px" viewBox="0 0 20 20" version="1.1" xmlns="http://www.w3.org/2000/svg" xmlns:xlink="http://www.w3.org/1999/xlink">
    <!-- Generator: Sketch 3.8.1 (29687) - http://www.bohemiancoding.com/sketch -->
    <title>moon [#1251]</title>
    <desc>Created with Sketch.</desc>
    <defs></defs>
    <g id="Page-1" stroke="none" stroke-width="1" fill="none" fill-rule="evenodd">
        <g id="Dribbble-Dark-Preview" transform="translate(-100.000000, -2599.000000)" fill="#FFFFFF">
            <g id="icons" transform="translate(56.000000, 160.000000)">
                <path d="M57.0182378,2456.974 L57.0182378,2457 L56.9381368,2457 C48.5816002,2457 48.4884828,2457.17 47.3560549,2456.429 L47.3560549,2456.429 C44.8388811,2454.783 46.093463,2450.979 49.008138,2450.979 C49.3786051,2450.979 49.7300482,2451.055 50.0584623,2451.178 L50.0374358,2451.943 C50.0033929,2453.221 51.9057916,2453.342 52.0459683,2452.104 C52.2171842,2450.595 52.3173105,2448.354 55.2660284,2447.309 C58.3098663,2446.23 61.1204101,2448.036 61.8102799,2450.682 C61.8162875,2450.706 61.8273014,2450.728 61.833309,2450.752 C62.6283114,2454.01 60.1411754,2456.924 57.0182378,2456.974 M57.7461556,2441.894 C59.6645745,2442.915 61.116405,2444.693 61.7091524,2446.824 C60.5907422,2445.795 59.1379104,2445.128 57.5248766,2445.006 C57.7922136,2443.872 57.8312629,2442.895 57.7461556,2441.894 M54.848502,2439 C55.8788011,2440.931 56.0550233,2443.153 55.4062052,2445.179 C53.2134404,2445.688 51.415173,2447.212 50.5500822,2449.246 C48.6256557,2448.618 46.7723189,2449.18 45.517737,2450.402 C44.9980818,2450.248 44.4934455,2450.062 44.0238534,2449.811 C44.0859317,2450.544 44.2411274,2451.247 44.453395,2451.926 C42.9414887,2455.265 45.4015906,2459 49.008138,2459 L57.0182378,2459 C57.0082251,2459 56.9992138,2458.987 56.9881999,2458.987 C56.9992138,2458.985 57.0182378,2458.979 57.0182378,2458.979 C61.5569605,2458.911 64.644854,2454.942 63.8468478,2450.678 C64.8821532,2444.729 60.5346715,2439.482 54.848502,2439" id="moon-[#1251]"></path>
            </g>
        </g>
    </g>
</svg>