<?xml version="1.0" encoding="UTF-8" standalone="no"?>
<svg width="20px" height="20px" viewBox="0 0 20 20" version="1.1" xmlns="http://www.w3.org/2000/svg" xmlns:xlink="http://www.w3.org/1999/xlink">
    <!-- Generator: Sketch 3.8.1 (29687) - http://www.bohemiancoding.com/sketch -->
    <title>moon [#1249]</title>
    <desc>Created with Sketch.</desc>
    <defs></defs>
    <g id="Page-1" stroke="none" stroke-width="1" fill="none" fill-rule="evenodd">
        <g id="Dribbble-Dark-Preview" transform="translate(-180.000000, -2599.000000)" fill="#FFFFFF">
            <g id="icons" transform="translate(56.000000, 160.000000)">
                <path d="M141.844584,2454.926 C141.406584,2456.295 139.931584,2457 138.931584,2457 L138.912584,2457 L138.894584,2457 L128.116584,2457 C127.203584,2457 126.243584,2456.373 126.041584,2455.382 C125.670584,2453.556 127.765584,2452.228 129.236584,2453.397 C128.606584,2451.323 129.431584,2449.299 130.764584,2448.155 C133.676584,2445.656 138.158584,2447.295 138.899584,2450.967 C138.916584,2450.966 138.933584,2450.964 138.949584,2450.961 C138.966584,2450.959 138.982584,2450.957 138.999584,2450.957 C140.885584,2450.957 142.518584,2452.82 141.844584,2454.926 M137.726584,2441.894 C140.558584,2443.403 142.327584,2446.518 141.913584,2449.921 C141.471584,2449.605 140.977584,2449.356 140.445584,2449.194 C140.440584,2449.192 140.435584,2449.19 140.431584,2449.186 C140.427584,2449.183 140.424584,2449.179 140.422584,2449.174 C139.823584,2447.794 138.793584,2446.596 137.275584,2445.787 C137.729584,2444.376 137.833584,2443.159 137.726584,2441.894 M143.537584,2451.87 C143.818584,2450.948 143.978584,2449.972 143.978584,2448.957 C143.978584,2443.669 139.888584,2439.429 134.832584,2439 C135.811584,2440.837 136.060584,2443.009 135.399584,2445.114 C133.078584,2444.641 130.921584,2445.334 129.363584,2446.716 C128.212584,2447.737 127.406584,2449.136 127.123584,2450.715 C126.076584,2450.63 125.072584,2450.371 124.021584,2449.811 C124.110584,2450.865 124.346584,2451.77 124.714584,2452.683 C124.171584,2453.46 123.898584,2454.439 124.034584,2455.489 C124.301584,2457.561 126.212584,2459 128.200584,2459 L138.769584,2459 C141.318584,2459 143.752584,2457.094 143.981584,2454.403 C144.058584,2453.495 143.889584,2452.626 143.537584,2451.87" id="moon-[#1249]"></path>
            </g>
        </g>
    </g>
</svg>