<?xml version="1.0" encoding="UTF-8" standalone="no"?>
<svg width="20px" height="20px" viewBox="0 0 20 20" version="1.1" xmlns="http://www.w3.org/2000/svg" xmlns:xlink="http://www.w3.org/1999/xlink">
    <!-- Generator: Sketch 3.8.1 (29687) - http://www.bohemiancoding.com/sketch -->
    <title>moon [#1248]</title>
    <desc>Created with Sketch.</desc>
    <defs></defs>
    <g id="Page-1" stroke="none" stroke-width="1" fill="none" fill-rule="evenodd">
        <g id="Dribbble-Dark-Preview" transform="translate(-220.000000, -2599.000000)" fill="#FFFFFF">
            <g id="icons" transform="translate(56.000000, 160.000000)">
                <path d="M168.839405,2442.24999 C168.502681,2441.81104 168.584857,2441.18169 169.023801,2440.84497 C169.462745,2440.50724 170.092098,2440.59042 170.428822,2441.02936 C170.766548,2441.46831 170.683369,2442.09766 170.244426,2442.43438 C169.805482,2442.77111 169.176129,2442.68893 168.839405,2442.24999 M171.062184,2444.84156 C171.39991,2445.2805 171.316731,2445.90986 170.877787,2446.24658 C170.438844,2446.58431 169.80949,2446.50113 169.472766,2446.06218 C169.136042,2445.62324 169.218219,2444.99489 169.657163,2444.65716 C170.096107,2444.32044 170.72546,2444.40262 171.062184,2444.84156 M165.66057,2445.69339 C165.322844,2445.25445 165.406023,2444.62509 165.844967,2444.28837 C166.28391,2443.95165 166.912261,2444.03382 167.249987,2444.47277 C167.586711,2444.91171 167.504535,2445.54106 167.065591,2445.87779 C166.626647,2446.21551 165.997294,2446.13233 165.66057,2445.69339 M173.978454,2456.99569 C170.914867,2456.99569 168.249136,2455.26697 166.900236,2452.73453 C173.101568,2453.26066 178.261663,2448.1176 177.734529,2441.90024 C180.266974,2443.24914 181.995691,2445.91487 181.995691,2448.97845 C181.995691,2453.39896 178.398958,2456.99569 173.978454,2456.99569 M174.834294,2439 C178.54427,2445.96097 170.927895,2453.52623 164,2449.83429 C164.429924,2454.90419 168.683069,2459 173.978454,2459 C179.513354,2459 184,2454.51335 184,2448.97845 C184,2443.68006 179.901188,2439.42992 174.834294,2439" id="moon-[#1248]"></path>
            </g>
        </g>
    </g>
</svg>