<?xml version="1.0" encoding="UTF-8" standalone="no"?>
<svg width="20px" height="24px" viewBox="0 0 20 24" version="1.1" xmlns="http://www.w3.org/2000/svg" xmlns:xlink="http://www.w3.org/1999/xlink">
    <!-- Generator: Sketch 3.8.1 (29687) - http://www.bohemiancoding.com/sketch -->
    <title>moon [#1252]</title>
    <desc>Created with Sketch.</desc>
    <defs></defs>
    <g id="Page-1" stroke="none" stroke-width="1" fill="none" fill-rule="evenodd">
        <g id="Dribbble-Dark-Preview" transform="translate(-60.000000, -2599.000000)" fill="#FFFFFF">
            <g id="icons" transform="translate(56.000000, 160.000000)">
                <path d="M19.0041947,2461.98546 C19.0041947,2462.54549 18.5556455,2463 18.0029688,2463 C17.4502921,2463 17.0017429,2462.54549 17.0017429,2461.98546 C17.0017429,2461.42543 17.4502921,2460.97092 18.0029688,2460.97092 C18.5556455,2460.97092 19.0041947,2461.42543 19.0041947,2461.98546 M14.999291,2461.98546 C14.999291,2462.54549 14.5507418,2463 13.9980651,2463 C13.4453884,2463 12.9968392,2462.54549 12.9968392,2461.98546 C12.9968392,2461.42543 13.4453884,2460.97092 13.9980651,2460.97092 C14.5507418,2460.97092 14.999291,2461.42543 14.999291,2461.98546 M10.9943874,2461.98546 C10.9943874,2462.54549 10.5458382,2463 9.99316146,2463 C9.44048475,2463 8.99193554,2462.54549 8.99193554,2461.98546 C8.99193554,2461.42543 9.44048475,2460.97092 9.99316146,2460.97092 C10.5458382,2460.97092 10.9943874,2461.42543 10.9943874,2461.98546 M17.0037453,2457.23537 L17.0037453,2457.26175 L16.9376644,2457.26175 C8.58143292,2457.26175 8.48831891,2457.43422 7.3559324,2456.68245 L7.3559324,2456.68245 C4.83985168,2455.01251 6.09338653,2451.1532 9.00795516,2451.1532 C9.37940997,2451.1532 9.73084027,2451.2303 10.0582411,2451.35509 L10.0372154,2452.13121 C10.0031737,2453.4278 11.905503,2453.55056 12.0466758,2452.29456 C12.2178854,2450.76361 12.3170068,2448.49002 15.2656171,2447.42983 C18.3103451,2446.33514 21.1207863,2448.1674 21.8096297,2450.85188 C21.8166383,2450.87623 21.8196419,2450.89855 21.8256493,2450.92289 C22.6206227,2454.22827 20.007423,2457.18465 17.0037453,2457.23537 M17.7456537,2441.93608 C19.6640026,2442.97193 21.1157801,2444.77579 21.7085059,2446.93777 C20.5901365,2445.89381 19.138359,2445.21711 17.5243828,2445.09334 C17.7917101,2443.94285 17.8307579,2442.95164 17.7456537,2441.93608 M14.8481059,2439 C15.8783674,2440.95908 16.0545831,2443.21238 15.4057887,2445.26885 C13.213104,2445.78526 11.4149023,2447.33142 10.5498431,2449.39499 C8.62648809,2448.75786 6.77321892,2449.32804 5.51768163,2450.56781 C4.9990466,2450.41157 4.49342752,2450.22185 4.02385256,2449.96821 C4.08592857,2450.71187 4.24111859,2451.42509 4.45337848,2452.11397 C2.94152735,2455.50152 5.40153942,2459.29084 9.00795516,2459.29084 L17.0177625,2459.29084 C17.0077502,2459.29084 16.9987392,2459.27765 16.9887269,2459.27765 C16.9987392,2459.27562 17.0177625,2459.26953 17.0177625,2459.26953 C21.5563195,2459.20054 24.6441002,2455.17382 23.8471244,2450.84782 C24.8813908,2444.81231 20.5340679,2439.48901 14.8481059,2439" id="moon-[#1252]"></path>
            </g>
        </g>
    </g>
</svg>