<?xml version="1.0" encoding="UTF-8" standalone="no"?>
<svg width="20px" height="24px" viewBox="0 0 20 24" version="1.1" xmlns="http://www.w3.org/2000/svg" xmlns:xlink="http://www.w3.org/1999/xlink">
    <!-- Generator: Sketch 3.8.1 (29687) - http://www.bohemiancoding.com/sketch -->
    <title>moon [#1250]</title>
    <desc>Created with Sketch.</desc>
    <defs></defs>
    <g id="Page-1" stroke="none" stroke-width="1" fill="none" fill-rule="evenodd">
        <g id="Dribbble-Dark-Preview" transform="translate(-140.000000, -2599.000000)" fill="#FFFFFF">
            <g id="icons" transform="translate(56.000000, 160.000000)">
                <path d="M98.9495844,2451.13545 C98.9335844,2451.13748 98.9165844,2451.14052 98.8995844,2451.14052 C98.1575844,2447.40989 93.6685844,2445.76018 90.7645844,2448.28852 C89.4425844,2449.44008 88.6065844,2451.49968 89.2365844,2453.60698 C88.0615844,2452.65935 86.4145844,2453.31883 86.0695844,2454.68446 C86.0625844,2454.71084 86.0565844,2454.74027 86.0515844,2454.76766 C85.7545844,2456.19011 86.8995844,2457.26252 88.1165844,2457.26252 C99.4125844,2457.26252 99.5255844,2457.49182 100.726584,2456.65885 C103.400584,2454.80419 101.367584,2450.77324 98.9495844,2451.13545 M97.2755844,2445.88599 C98.7935844,2446.70679 99.8235844,2447.92226 100.422584,2449.32137 C100.424584,2449.32644 100.427584,2449.3305 100.431584,2449.33456 C100.435584,2449.3376 100.440584,2449.34065 100.445584,2449.34268 C100.978584,2449.50602 101.471584,2449.75967 101.913584,2450.08028 C102.327584,2446.62765 100.558584,2443.46722 97.7265844,2441.93621 C97.8335844,2443.21966 97.7295844,2444.45339 97.2755844,2445.88599 M103.981584,2454.62663 C103.869584,2455.9598 103.225584,2457.12758 102.280584,2457.95244 C101.334584,2458.7773 100.087584,2459.29169 98.7695844,2459.29169 L88.2005844,2459.29169 C86.2125844,2459.29169 84.3015844,2457.83272 84.0345844,2455.72847 C83.8985844,2454.66417 84.1715844,2453.67089 84.7145844,2452.88256 C84.3465844,2451.95625 84.1105844,2451.03703 84.0215844,2449.96867 C85.0725844,2450.53684 86.0765844,2450.79962 87.1235844,2450.88586 C87.4075844,2449.28282 88.2125844,2447.86443 89.3635844,2446.82752 C90.9215844,2445.42536 93.0785844,2444.72226 95.3995844,2445.20317 C96.0675844,2443.04616 95.8025844,2440.84654 94.8325844,2439 C101.048584,2439.53469 105.426584,2445.77337 103.537584,2452.0577 C103.889584,2452.82372 104.058584,2453.70539 103.981584,2454.62663 M97.9975844,2460.97083 C97.4455844,2460.97083 96.9975844,2461.42536 96.9975844,2461.98542 C96.9975844,2462.54648 97.4455844,2463 97.9975844,2463 C98.5505844,2463 98.9975844,2462.54648 98.9975844,2461.98542 C98.9975844,2461.42536 98.5505844,2460.97083 97.9975844,2460.97083 M93.9975844,2460.97083 C93.4455844,2460.97083 92.9975844,2461.42536 92.9975844,2461.98542 C92.9975844,2462.54648 93.4455844,2463 93.9975844,2463 C94.5505844,2463 94.9975844,2462.54648 94.9975844,2461.98542 C94.9975844,2461.42536 94.5505844,2460.97083 93.9975844,2460.97083 M90.9975844,2461.98542 C90.9975844,2462.54648 90.5505844,2463 89.9975844,2463 C89.4455844,2463 88.9975844,2462.54648 88.9975844,2461.98542 C88.9975844,2461.42536 89.4455844,2460.97083 89.9975844,2460.97083 C90.5505844,2460.97083 90.9975844,2461.42536 90.9975844,2461.98542" id="moon-[#1250]"></path>
            </g>
        </g>
    </g>
</svg>