<?xml version="1.0" encoding="UTF-8" standalone="no"?>
<svg width="20px" height="20px" viewBox="0 0 20 20" version="1.1" xmlns="http://www.w3.org/2000/svg" xmlns:xlink="http://www.w3.org/1999/xlink">
    <!-- Generator: Sketch 3.8.1 (29687) - http://www.bohemiancoding.com/sketch -->
    <title>moon [#1253]</title>
    <desc>Created with Sketch.</desc>
    <defs></defs>
    <g id="Page-1" stroke="none" stroke-width="1" fill="none" fill-rule="evenodd">
        <g id="Dribbble-Dark-Preview" transform="translate(-420.000000, -2559.000000)" fill="#FFFFFF">
            <g id="icons" transform="translate(56.000000, 160.000000)">
                <path d="M381.827719,2410.752 C381.821713,2410.728 381.811702,2410.706 381.804695,2410.682 C381.115972,2408.036 378.306021,2406.23 375.261825,2407.309 C372.313729,2408.354 372.214625,2410.595 372.043446,2412.104 C371.986386,2412.607 371.549927,2412.979 371.043396,2412.979 C370.584914,2412.979 370.213524,2412.669 370.089394,2412.253 C370.055358,2412.155 370.031333,2412.054 370.034336,2411.943 L370.055358,2411.178 C369.728014,2411.055 369.376645,2410.979 369.005256,2410.979 C367.167326,2410.979 365.709795,2412.636 366.052155,2414.533 C366.182291,2415.254 366.60974,2415.943 367.353521,2416.429 L367.353521,2416.429 C367.899094,2416.786 368.59983,2417 369.168427,2417 L376.93358,2417 L377.013664,2417 L377.013664,2416.974 C380.135943,2416.924 382.622554,2414.01 381.827719,2410.752 M377.520196,2405.005 C379.133891,2405.127 380.585415,2405.795 381.703589,2406.824 C381.110967,2404.692 379.659442,2402.915 377.741428,2401.894 C377.826518,2402.895 377.787477,2403.872 377.520196,2405.005 M383.841834,2410.678 C383.920917,2411.1 383.965964,2411.536 383.965964,2411.981 C383.965964,2415.81 381.017869,2418.919 377.013664,2418.979 C377.013664,2418.979 376.994644,2418.985 376.984634,2418.987 C376.994644,2418.987 377.003654,2419 377.013664,2419 L369.005256,2419 C366.241353,2419 364,2416.751 364,2413.989 C364,2413.256 364.167176,2412.554 364.451474,2411.926 C364.239251,2411.247 364.084088,2410.544 364.022023,2409.811 C364.491516,2410.061 364.997047,2410.248 365.515591,2410.402 C366.770909,2409.18 368.623855,2408.618 370.546874,2409.246 C371.411782,2407.212 373.20967,2405.688 375.401972,2405.178 C376.050653,2403.152 375.874468,2400.931 374.844387,2399 C379.905701,2399.429 384,2403.67 384,2408.957 C384,2409.544 383.938936,2410.118 383.841834,2410.678 M370.259573,2402.427 C370.698033,2402.091 370.78112,2401.463 370.443766,2401.025 C370.107413,2400.587 369.478753,2400.504 369.040292,2400.841 C368.601832,2401.177 368.519746,2401.805 368.856099,2402.243 C369.192452,2402.681 369.821112,2402.763 370.259573,2402.427 M369.672957,2404.645 C369.234496,2404.982 369.15241,2405.609 369.488763,2406.047 C369.825116,2406.485 370.453776,2406.568 370.892237,2406.231 C371.330697,2405.895 371.412783,2405.267 371.07643,2404.829 C370.740077,2404.391 370.111417,2404.309 369.672957,2404.645 M365.680765,2405.679 C365.343411,2405.241 365.426498,2404.613 365.864958,2404.277 C366.303419,2403.941 366.931078,2404.023 367.268432,2404.461 C367.604785,2404.899 367.522699,2405.527 367.084238,2405.863 C366.645778,2406.2 366.017118,2406.117 365.680765,2405.679" id="moon-[#1253]"></path>
            </g>
        </g>
    </g>
</svg>