<?xml version="1.0" encoding="UTF-8" standalone="no"?>
<svg width="20px" height="20px" viewBox="0 0 20 20" version="1.1" xmlns="http://www.w3.org/2000/svg" xmlns:xlink="http://www.w3.org/1999/xlink">
    <!-- Generator: Sketch 3.8.1 (29687) - http://www.bohemiancoding.com/sketch -->
    <title>moon [#1254]</title>
    <desc>Created with Sketch.</desc>
    <defs></defs>
    <g id="Page-1" stroke="none" stroke-width="1" fill="none" fill-rule="evenodd">
        <g id="Dribbble-Dark-Preview" transform="translate(-380.000000, -2559.000000)" fill="#FFFFFF">
            <g id="icons" transform="translate(56.000000, 160.000000)">
                <path d="M339.000414,2410.957 C338.983414,2410.957 338.966414,2410.959 338.950414,2410.962 C338.933414,2410.964 338.917414,2410.967 338.900414,2410.967 C337.867414,2405.843 330.638414,2405.555 329.218414,2410.614 L329.218414,2410.614 C328.952414,2411.561 328.888414,2412.25 329.237414,2413.397 C327.129414,2411.722 324.689414,2414.983 326.788414,2416.542 C327.162414,2416.82 327.632414,2417 328.117414,2417 L338.894414,2417 L338.913414,2417 L338.932414,2417 C340.024414,2417 341.427414,2416.229 341.845414,2414.926 C342.517414,2412.828 340.890414,2410.957 339.000414,2410.957 M337.294414,2405.797 C338.799414,2406.607 339.823414,2407.792 340.422414,2409.174 C340.425414,2409.179 340.428414,2409.183 340.432414,2409.186 C340.436414,2409.19 340.440414,2409.193 340.445414,2409.194 C340.986414,2409.358 341.487414,2409.611 341.933414,2409.934 C341.973414,2409.613 341.999414,2409.288 341.999414,2408.957 C341.999414,2405.9 340.274414,2403.241 337.748414,2401.894 C337.853414,2403.129 337.760414,2404.353 337.294414,2405.797 M343.549414,2411.905 C344.449414,2413.868 343.999414,2416.203 342.281414,2417.681 C341.335414,2418.494 340.088414,2419 338.770414,2419 L328.201414,2419 C327.179414,2419 326.203414,2418.618 325.450414,2418.004 C324.696414,2417.391 324.165414,2416.502 324.034414,2415.489 C323.898414,2414.436 324.173414,2413.454 324.719414,2412.675 C324.722414,2412.671 324.725414,2412.668 324.728414,2412.665 C324.369414,2411.766 324.133414,2410.872 324.043414,2409.811 C325.098414,2410.374 326.099414,2410.628 327.124414,2410.714 C327.435414,2408.985 328.383414,2407.409 329.848414,2406.323 C329.718414,2406.258 329.598414,2406.17 329.504414,2406.047 C329.167414,2405.609 329.250414,2404.981 329.688414,2404.645 C330.126414,2404.309 330.753414,2404.391 331.090414,2404.829 C331.245414,2405.032 331.302414,2405.275 331.285414,2405.511 C332.669414,2404.926 334.021414,2404.83 335.419414,2405.119 C336.081414,2403.016 335.837414,2400.846 334.854414,2399 C341.140414,2399.536 345.449414,2405.757 343.549414,2411.905 M330.274414,2402.427 C330.712414,2402.091 330.794414,2401.463 330.458414,2401.025 C330.121414,2400.587 329.494414,2400.504 329.056414,2400.841 C328.618414,2401.177 328.535414,2401.805 328.872414,2402.243 C329.208414,2402.681 329.836414,2402.764 330.274414,2402.427 M325.699414,2405.679 C325.363414,2405.241 325.445414,2404.614 325.883414,2404.277 C326.321414,2403.941 326.949414,2404.023 327.285414,2404.461 C327.622414,2404.899 327.539414,2405.527 327.101414,2405.863 C326.663414,2406.2 326.036414,2406.117 325.699414,2405.679" id="moon-[#1254]"></path>
            </g>
        </g>
    </g>
</svg>