<?xml version="1.0" encoding="UTF-8" standalone="no"?>
<svg width="20px" height="20px" viewBox="0 0 20 20" version="1.1" xmlns="http://www.w3.org/2000/svg" xmlns:xlink="http://www.w3.org/1999/xlink">
    <!-- Generator: Sketch 3.8.1 (29687) - http://www.bohemiancoding.com/sketch -->
    <title>moon [#114]</title>
    <desc>Created with Sketch.</desc>
    <defs></defs>
    <g id="Page-1" stroke="none" stroke-width="1" fill="none" fill-rule="evenodd">
        <g id="Dribbble-Dark-Preview" transform="translate(-220.000000, -7719.000000)" fill="#FFFFFF">
            <g id="icons" transform="translate(56.000000, 160.000000)">
                <path d="M173.99029,7576.998 C171.388688,7576.998 169.058358,7575.74775 167.591892,7573.8028 C174.222522,7575.15916 180.17047,7569.27528 178.803103,7562.59159 C180.748048,7564.05806 181.998298,7566.38839 181.998298,7568.98999 C181.998298,7573.40541 178.405705,7576.998 173.99029,7576.998 M174.610911,7559 C176.076376,7560.36937 176.993293,7562.32032 176.993293,7564.48549 C176.993293,7571.32432 168.608909,7574.54254 164.0003,7569.60961 C164.32062,7574.84985 168.66997,7579 173.99029,7579 C179.518819,7579 184.0003,7574.51852 184.0003,7568.98999 C184.0003,7563.66967 179.85015,7559.32032 174.610911,7559" id="moon-[#114]"></path>
            </g>
        </g>
    </g>
</svg>