<?xml version="1.0" encoding="UTF-8" standalone="no"?>
<svg width="12px" height="20px" viewBox="0 0 12 20" version="1.1" xmlns="http://www.w3.org/2000/svg" xmlns:xlink="http://www.w3.org/1999/xlink">
    <!-- Generator: Sketch 3.8.1 (29687) - http://www.bohemiancoding.com/sketch -->
    <title>mouse [#216]</title>
    <desc>Created with Sketch.</desc>
    <defs></defs>
    <g id="Page-1" stroke="none" stroke-width="1" fill="none" fill-rule="evenodd">
        <g id="Dribbble-Dark-Preview" transform="translate(-344.000000, -7199.000000)" fill="#FFFFFF">
            <g id="icons" transform="translate(56.000000, 160.000000)">
                <path d="M298,7053 C298,7055.337 295.985,7057.213 293.6,7056.98 C291.522,7056.778 290,7054.91 290,7052.822 L290,7045 C290,7043.142 291,7041.589 293,7041.142 L293,7045 C293,7045.552 293.448,7046 294,7046 C294.552,7046 295,7045.552 295,7045 L295,7041.142 C297,7041.589 298,7043.142 298,7045 L298,7053 Z M294,7039 C290.686,7039 288,7041.686 288,7045 L288,7053 C288,7056.314 290.686,7059 294,7059 C297.314,7059 300,7056.314 300,7053 L300,7045 C300,7041.686 297.314,7039 294,7039 L294,7039 Z" id="mouse-[#216]"></path>
            </g>
        </g>
    </g>
</svg>