<?xml version="1.0" encoding="UTF-8" standalone="no"?>
<svg width="20px" height="20px" viewBox="0 0 20 20" version="1.1" xmlns="http://www.w3.org/2000/svg" xmlns:xlink="http://www.w3.org/1999/xlink">
    <!-- Generator: Sketch 3.8.1 (29687) - http://www.bohemiancoding.com/sketch -->
    <title>mouse_↑_window [#4]</title>
    <desc>Created with Sketch.</desc>
    <defs></defs>
    <g id="Page-1" stroke="none" stroke-width="1" fill="none" fill-rule="evenodd">
        <g id="Dribbble-Dark-Preview" transform="translate(-220.000000, -8159.000000)" fill="#FFFFFF">
            <g id="icons" transform="translate(56.000000, 160.000000)">
                <path d="M165.999975,7999 C164.895989,7999 164,7999.89499 164,8000.99998 L164,8005.99991 C164,8006.55191 164.447994,8006.9999 164.999987,8006.9999 C165.551981,8006.9999 165.999975,8006.55191 165.999975,8005.99991 L165.999975,8001.99996 C165.999975,8001.44797 166.447969,8000.99998 166.999962,8000.99998 L180.999787,8000.99998 C181.551781,8000.99998 181.999775,8001.44797 181.999775,8001.99996 L181.999775,8015.99979 C181.999775,8016.55178 181.551781,8016.99978 180.999787,8016.99978 L176.999837,8016.99978 C176.447844,8016.99978 175.99985,8017.44777 175.99985,8017.99976 C175.99985,8018.55176 176.447844,8018.99975 176.999837,8018.99975 L181.999775,8018.99975 C183.104761,8018.99975 183.99975,8018.10476 183.99975,8016.99978 L183.99975,8000.99998 C183.99975,7999.89499 183.104761,7999 181.999775,7999 L165.999975,7999 Z M172.93581,8011.36222 L170.652132,8017.56929 C170.39738,8018.26177 169.510799,8018.45688 168.989163,8017.93423 L167.758868,8016.70495 L165.760271,8018.70355 C165.366011,8019.09882 164.725085,8019.09882 164.330825,8018.70355 L164.296453,8018.66918 C163.901182,8018.27491 163.901182,8017.63399 164.296453,8017.23973 L166.29505,8015.24113 L165.065767,8014.01084 C164.543119,8013.4892 164.738227,8012.60262 165.431721,8012.34787 L171.637783,8010.06419 C172.446522,8009.76698 173.233021,8010.55348 172.93581,8011.36222" id="mouse_↑_window-[#4]"></path>
            </g>
        </g>
    </g>
</svg>