<?xml version="1.0" encoding="UTF-8" standalone="no"?>
<svg width="14px" height="20px" viewBox="0 0 14 20" version="1.1" xmlns="http://www.w3.org/2000/svg" xmlns:xlink="http://www.w3.org/1999/xlink">
    <!-- Generator: Sketch 3.8.1 (29687) - http://www.bohemiancoding.com/sketch -->
    <title>mouse [#698]</title>
    <desc>Created with Sketch.</desc>
    <defs></defs>
    <g id="Page-1" stroke="none" stroke-width="1" fill="none" fill-rule="evenodd">
        <g id="Dribbble-Dark-Preview" transform="translate(-63.000000, -5119.000000)" fill="#FFFFFF">
            <g id="icons" transform="translate(56.000000, 160.000000)">
                <path d="M14,4977 C11.243,4977 9,4974.757 9,4972 L9,4968 L19,4968 L19,4972 C19,4974.757 16.757,4977 14,4977 M13,4961.101 L13,4966 L9.05,4966 C9.05,4963.585 11,4961.566 13,4961.101 M19.05,4966 L15,4966 L15,4961.101 C17,4961.566 19.05,4963.585 19.05,4966 M14,4959 C10.134,4959 7,4962.134 7,4966 L7,4972 C7,4975.866 10.134,4979 14,4979 C17.866,4979 21,4975.866 21,4972 L21,4966 C21,4962.134 17.866,4959 14,4959" id="mouse-[#698]"></path>
            </g>
        </g>
    </g>
</svg>