<?xml version="1.0" encoding="UTF-8" standalone="no"?>
<svg width="12px" height="20px" viewBox="0 0 12 20" version="1.1" xmlns="http://www.w3.org/2000/svg" xmlns:xlink="http://www.w3.org/1999/xlink">
    <!-- Generator: Sketch 3.8.1 (29687) - http://www.bohemiancoding.com/sketch -->
    <title>mouse [#217]</title>
    <desc>Created with Sketch.</desc>
    <defs></defs>
    <g id="Page-1" stroke="none" stroke-width="1" fill="none" fill-rule="evenodd">
        <g id="Dribbble-Dark-Preview" transform="translate(-304.000000, -7199.000000)" fill="#FFFFFF">
            <g id="icons" transform="translate(56.000000, 160.000000)">
                <path d="M258,7053 C258,7055.337 255.985,7057.213 253.6,7056.98 C251.522,7056.778 250,7054.91 250,7052.822 L250,7051 C250,7049.142 251,7047.589 253,7047.142 L253,7051 C253,7051.552 253.448,7052 254,7052 C254.552,7052 255,7051.552 255,7051 L255,7047.142 C257,7047.589 258,7049.142 258,7051 L258,7053 Z M253,7043 L253,7045.09 C250,7045.567 248,7048.028 248,7051 L248,7052.748 C248,7056.034 250.532,7058.899 253.815,7058.997 C257.213,7059.099 260,7056.375 260,7053 L260,7051 C260,7048.028 258,7045.567 255,7045.09 L255,7044 C255,7043.448 255.507,7043 256.059,7043 L257.059,7043 C258.164,7043 259,7042.105 259,7041 C259,7040 259.108,7039 258.03,7039 L258.045,7039 C257.492,7039 257.052,7039 257.052,7040 L257.056,7040 C257.056,7041 256.612,7041 256.059,7041 L255.059,7041 C253.955,7041 253,7041.895 253,7043 L253,7043 Z" id="mouse-[#217]"></path>
            </g>
        </g>
    </g>
</svg>