<?xml version="1.0" encoding="UTF-8" standalone="no"?>
<svg width="12px" height="20px" viewBox="0 0 12 20" version="1.1" xmlns="http://www.w3.org/2000/svg" xmlns:xlink="http://www.w3.org/1999/xlink">
    <!-- Generator: Sketch 3.8.1 (29687) - http://www.bohemiancoding.com/sketch -->
    <title>mouse [#215]</title>
    <desc>Created with Sketch.</desc>
    <defs></defs>
    <g id="Page-1" stroke="none" stroke-width="1" fill="none" fill-rule="evenodd">
        <g id="Dribbble-Dark-Preview" transform="translate(-384.000000, -7199.000000)" fill="#FFFFFF">
            <g id="icons" transform="translate(56.000000, 160.000000)">
                <path d="M335,7044 L335,7048 C335,7048.552 334.552,7049 334,7049 C333.448,7049 333,7048.552 333,7048 L333,7044 C333,7043.448 333.448,7043 334,7043 C334.552,7043 335,7043.448 335,7044 M337,7057 L331,7057 C330.448,7057 330,7056.552 330,7056 L330,7042 C330,7041.448 330.448,7041 331,7041 L337,7041 C337.552,7041 338,7041.448 338,7042 L338,7056 C338,7056.552 337.552,7057 337,7057 M338,7039 L330,7039 C328.895,7039 328,7039.895 328,7041 L328,7057 C328,7058.105 328.895,7059 330,7059 L338,7059 C339.105,7059 340,7058.105 340,7057 L340,7041 C340,7039.895 339.105,7039 338,7039" id="mouse-[#215]"></path>
            </g>
        </g>
    </g>
</svg>