<?xml version="1.0" encoding="UTF-8" standalone="no"?>
<svg width="20px" height="20px" viewBox="0 0 20 20" version="1.1" xmlns="http://www.w3.org/2000/svg" xmlns:xlink="http://www.w3.org/1999/xlink">
    <!-- Generator: Sketch 3.8.1 (29687) - http://www.bohemiancoding.com/sketch -->
    <title>movement_focus [#892]</title>
    <desc>Created with Sketch.</desc>
    <defs></defs>
    <g id="Page-1" stroke="none" stroke-width="1" fill="none" fill-rule="evenodd">
        <g id="Dribbble-Dark-Preview" transform="translate(-380.000000, -4239.000000)" fill="#FFFFFF">
            <g id="icons" transform="translate(56.000000, 160.000000)">
                <path d="M342,4079 L336,4079 L336,4081 L342,4081 L342,4087 L344,4087 L344,4080.5 L344,4079 L342,4079 Z M342,4097 L336,4097 L336,4099 L342,4099 L344,4099 L344,4096.5 L344,4091 L342,4091 L342,4097 Z M326,4097 L330,4097 L330,4093 L326,4093 L326,4097 Z M330,4091 L332,4091 L332,4093.5 L332,4097 L332,4099 L330,4099 L326,4099 L324,4099 L324,4096.5 L324,4093 L324,4091 L326,4091 L330,4091 Z M326,4079 L332,4079 L332,4081 L326,4081 L326,4087 L324,4087 L324,4080.5 L324,4079 L326,4079 Z" id="movement_focus-[#892]"></path>
            </g>
        </g>
    </g>
</svg>