<?xml version="1.0" encoding="UTF-8" standalone="no"?>
<svg width="20px" height="20px" viewBox="0 0 20 20" version="1.1" xmlns="http://www.w3.org/2000/svg" xmlns:xlink="http://www.w3.org/1999/xlink">
    <!-- Generator: Sketch 3.8.1 (29687) - http://www.bohemiancoding.com/sketch -->
    <title>movement_focus_round [#893]</title>
    <desc>Created with Sketch.</desc>
    <defs></defs>
    <g id="Page-1" stroke="none" stroke-width="1" fill="none" fill-rule="evenodd">
        <g id="Dribbble-Dark-Preview" transform="translate(-340.000000, -4239.000000)" fill="#FFFFFF">
            <g id="icons" transform="translate(56.000000, 160.000000)">
                <path d="M302,4079 L297,4079 C296.448,4079 296,4079.448 296,4080 C296,4080.552 296.448,4081 297,4081 L301,4081 C301.552,4081 302,4081.448 302,4082 L302,4086 C302,4086.552 302.448,4087 303,4087 C303.552,4087 304,4086.552 304,4086 L304,4081 C304,4079.895 303.105,4079 302,4079 L302,4079 Z M304,4097 L304,4092 C304,4091.448 303.552,4091 303,4091 C302.448,4091 302,4091.448 302,4092 L302,4096 C302,4096.552 301.552,4097 301,4097 L297,4097 C296.448,4097 296,4097.448 296,4098 C296,4098.552 296.448,4099 297,4099 L302,4099 C303.105,4099 304,4098.105 304,4097 L304,4097 Z M290,4094 C290,4093.448 289.552,4093 289,4093 L287,4093 C286.448,4093 286,4093.448 286,4094 L286,4096 C286,4096.552 286.448,4097 287,4097 L289,4097 C289.552,4097 290,4096.552 290,4096 L290,4094 Z M292,4097 C292,4098.105 291.105,4099 290,4099 L286,4099 C284.895,4099 284,4098.105 284,4097 L284,4093 C284,4091.895 284.895,4091 286,4091 L290,4091 C291.105,4091 292,4091.895 292,4093 L292,4097 Z M284,4086 L284,4081 C284,4079.895 284.895,4079 286,4079 L291,4079 C291.552,4079 292,4079.448 292,4080 C292,4080.552 291.552,4081 291,4081 L287,4081 C286.448,4081 286,4081.448 286,4082 L286,4086 C286,4086.552 285.552,4087 285,4087 C284.448,4087 284,4086.552 284,4086 L284,4086 Z" id="movement_focus_round-[#893]"></path>
            </g>
        </g>
    </g>
</svg>