<?xml version="1.0" encoding="UTF-8" standalone="no"?>
<svg width="21px" height="20px" viewBox="0 0 21 20" version="1.1" xmlns="http://www.w3.org/2000/svg" xmlns:xlink="http://www.w3.org/1999/xlink">
    <!-- Generator: Sketch 3.8.1 (29687) - http://www.bohemiancoding.com/sketch -->
    <title>movie_frames [#1492]</title>
    <desc>Created with Sketch.</desc>
    <defs></defs>
    <g id="Page-1" stroke="none" stroke-width="1" fill="none" fill-rule="evenodd">
        <g id="Dribbble-Dark-Preview" transform="translate(-379.000000, -320.000000)" fill="#FFFFFF">
            <g id="icons" transform="translate(56.000000, 160.000000)">
                <path d="M329.3,178 L337.7,178 L337.7,173 L329.3,173 L329.3,178 Z M327.2,180 L339.8,180 L339.8,171 L327.2,171 L327.2,180 Z M329.3,167 L337.7,167 L337.7,162 L329.3,162 L329.3,167 Z M327.2,169 L339.8,169 L339.8,160 L327.2,160 L327.2,169 Z M341.9,180 L344,180 L344,160 L341.9,160 L341.9,180 Z M323,180 L325.1,180 L325.1,160 L323,160 L323,180 Z" id="movie_frames-[#1492]"></path>
            </g>
        </g>
    </g>
</svg>