<?xml version="1.0" encoding="UTF-8" standalone="no"?>
<svg width="12px" height="10px" viewBox="0 0 12 10" version="1.1" xmlns="http://www.w3.org/2000/svg" xmlns:xlink="http://www.w3.org/1999/xlink">
    <!-- Generator: Sketch 3.8.1 (29687) - http://www.bohemiancoding.com/sketch -->
    <title>mr_robot [#120]</title>
    <desc>Created with Sketch.</desc>
    <defs></defs>
    <g id="Page-1" stroke="none" stroke-width="1" fill="none" fill-rule="evenodd">
        <g id="Dribbble-Dark-Preview" transform="translate(-224.000000, -7644.000000)" fill="#FFFFFF">
            <g id="icons" transform="translate(56.000000, 160.000000)">
                <path d="M178.365468,7487.85364 C178.309468,7487.7877 178.086468,7487.58287 177.968468,7487.52791 C176.968468,7486.87446 175.711468,7487.43 175.510468,7488.1454 C176.630468,7487.51592 177.365468,7487.75473 178.365468,7487.85364 L178.365468,7487.85364 Z M169.665468,7487.85364 C170.665468,7487.75872 171.455468,7487.5499 172.491468,7488.1454 C172.236468,7487.17221 170.504468,7486.85447 169.665468,7487.85364 L169.665468,7487.85364 Z M173.242468,7487.92958 C173.205468,7487.96855 173.132468,7488.02251 173.062468,7488.07346 C172.844468,7488.25331 172.542468,7488.45715 172.464468,7488.72892 C172.448468,7488.90478 172.553468,7489.28946 172.617468,7489.44833 C172.711468,7489.2325 172.792468,7488.82684 172.792468,7488.82684 C172.792468,7488.82684 173.062468,7488.636 173.356468,7488.42917 C173.430468,7488.36622 173.507468,7488.30827 173.591468,7488.21335 C173.833468,7487.89861 173.694468,7487.23516 173.507468,7486.91542 C173.485468,7486.99935 173.322468,7487.89661 173.242468,7487.92958 L173.242468,7487.92958 Z M168.986468,7486.60168 C168.927468,7486.76954 168.993468,7486.98836 169.108468,7487.08428 C169.219468,7487.1852 169.334468,7487.17021 169.329468,7487.17321 C169.334468,7487.17221 169.327468,7487.06929 169.350468,7486.98037 C169.351468,7486.97337 169.440468,7486.72358 169.441468,7486.72058 C169.501468,7486.54173 169.497468,7486.19602 169.488468,7486.18203 C169.484468,7486.16604 169.080468,7486.24198 168.986468,7486.60168 L168.986468,7486.60168 Z M178.695468,7486.18203 C178.685468,7486.19602 178.617468,7486.51975 178.672468,7486.71159 C178.694468,7486.8145 178.743468,7486.90343 178.781468,7486.99336 C178.821468,7487.07929 178.853468,7487.17321 178.853468,7487.17321 C178.853468,7487.17321 178.957468,7487.15422 179.041468,7487.04731 C179.124468,7486.9454 179.174468,7486.76654 179.133468,7486.61467 C179.073468,7486.28994 178.705468,7486.16504 178.695468,7486.18203 L178.695468,7486.18203 Z M174.679468,7488.42917 C174.974468,7488.636 175.242468,7488.82684 175.242468,7488.82684 C175.243468,7488.82684 175.323468,7489.2315 175.418468,7489.44833 C175.700468,7488.7519 175.545468,7488.60502 175.395468,7488.43916 C175.239468,7488.2693 174.826468,7487.96455 174.793468,7487.92958 C174.716468,7487.89861 174.550468,7486.99935 174.528468,7486.91542 C174.350468,7487.21917 174.203468,7487.90061 174.444468,7488.21335 C174.528468,7488.30827 174.605468,7488.36622 174.679468,7488.42917 L174.679468,7488.42917 Z M169.670468,7487.85864 C169.675468,7487.85464 169.679468,7487.85065 169.684468,7487.84665 C169.678468,7487.84965 169.671468,7487.85165 169.665468,7487.85364 L169.670468,7487.85864 Z M171.953468,7487.69777 C172.060468,7487.61884 172.470468,7487.3061 172.423468,7487.1812 C171.939468,7485.88627 170.129468,7486.10209 169.902468,7487.27512 L170.191468,7487.61884 L171.953468,7487.69777 Z M177.592468,7487.61884 L177.880468,7487.27512 C177.742468,7486.56271 176.979468,7486.15005 176.257468,7486.34789 C175.559468,7486.53973 175.271468,7487.19719 175.403468,7487.32408 C175.527468,7487.44398 175.691468,7487.59486 175.830468,7487.69777 L177.592468,7487.61884 Z M175.078468,7485.93024 C175.673468,7485.66945 176.170468,7485.28677 176.610468,7484.82715 C176.969468,7484.44946 177.299468,7484.44047 177.742468,7484.6433 C177.911468,7484.72124 178.776468,7485.15488 178.927468,7485.19085 C179.214468,7485.25879 179.070468,7484.80517 178.815468,7484.66428 C178.000468,7484.20966 177.070468,7483.71207 176.239468,7484.20267 C175.881468,7484.41449 175.108468,7485.09093 174.713468,7485.11691 C174.513468,7485.1309 174.439468,7485.20384 174.434468,7485.39768 C174.450468,7485.4896 174.460468,7485.58352 174.485468,7485.67345 C174.577468,7486.01217 174.747468,7486.07711 175.078468,7485.93024 L175.078468,7485.93024 Z M169.243468,7485.1299 C169.243468,7485.1299 170.008468,7484.75321 170.266468,7484.6403 C170.710468,7484.44746 171.030468,7484.45146 171.384468,7484.81716 C171.919468,7485.3687 172.284468,7485.64647 173.034468,7485.98319 C173.223468,7486.06812 173.369468,7486.01117 173.452468,7485.81833 C173.507468,7485.68944 173.549468,7485.54855 173.564468,7485.40967 C173.585468,7485.21083 173.501468,7485.14988 173.304468,7485.11291 C172.871468,7485.03198 172.368468,7484.59534 171.973468,7484.32157 C171.448468,7483.95487 170.784468,7483.93689 170.186468,7484.15371 C169.927468,7484.24663 169.182468,7484.62332 169.002468,7484.86212 C168.946468,7484.93606 168.908468,7485.08494 168.949468,7485.14988 C169.022468,7485.26479 169.144468,7485.15488 169.243468,7485.1299 L169.243468,7485.1299 Z M176.583468,7492.6247 C176.288468,7492.56275 175.653468,7492.48981 175.376468,7492.58673 C174.550468,7492.87249 173.722468,7492.88448 172.881468,7492.66466 C172.289468,7492.50979 172.127468,7492.5038 171.418468,7492.6247 C172.689468,7494.5531 175.492468,7494.36126 176.583468,7492.6247 L176.583468,7492.6247 Z M179.739468,7489.69912 C179.647468,7489.6022 178.777468,7488.66597 178.659468,7488.60402 C178.709468,7489.09662 178.860468,7488.93875 178.806468,7489.63317 C178.737468,7490.54042 178.072468,7490.48047 177.278468,7490.48347 C176.555468,7490.48747 176.458468,7490.16074 175.889468,7489.93392 C175.477468,7489.77006 174.985468,7489.85299 174.733468,7490.24167 C174.626468,7490.40653 174.453468,7490.49846 174.235468,7490.48547 C174.091468,7490.47647 173.946468,7490.47747 173.802468,7490.48547 C173.557468,7490.49846 173.382468,7490.40354 173.249468,7490.2067 C173.073468,7489.94691 172.789468,7489.841 172.497468,7489.85099 C172.182468,7489.86098 171.896468,7490.00287 171.636468,7490.19071 C171.097468,7490.58239 170.739468,7490.45649 170.166468,7490.48447 C169.581468,7490.51344 169.193468,7490.07381 169.190468,7489.55124 C169.188468,7489.01169 169.280468,7489.01069 169.341468,7488.59903 C168.969468,7488.82984 168.472468,7489.30844 168.172468,7489.88996 C167.967468,7490.28763 167.970468,7490.71128 168.051468,7491.13593 C168.290468,7492.3809 169.941468,7492.46083 171.197468,7492.34593 C171.523468,7492.31595 171.846468,7492.259 172.170468,7492.20504 C172.492468,7492.15109 172.810468,7492.12911 173.125468,7492.24801 C173.285468,7492.30796 173.446468,7492.38689 173.613468,7492.40488 C173.987468,7492.44485 174.373468,7492.48082 174.724468,7492.31495 C175.081468,7492.14709 175.449468,7492.11112 175.818468,7492.20604 C176.822468,7492.46283 178.856468,7492.57374 179.582468,7491.81437 C179.784468,7491.60154 179.914468,7491.36474 179.963468,7491.07498 C180.044468,7490.58938 179.999468,7490.12277 179.739468,7489.69912 L179.739468,7489.69912 Z M169.665468,7487.85364 C169.660468,7487.86464 169.656468,7487.87563 169.651468,7487.88662 C169.657468,7487.87763 169.663468,7487.86863 169.670468,7487.85864 L169.665468,7487.85364 Z M178.336468,7487.85564 C178.346468,7487.86164 178.355468,7487.86763 178.365468,7487.87363 C178.354468,7487.86863 178.342468,7487.86464 178.331468,7487.86064 L178.336468,7487.85564 Z" id="mr_robot-[#120]"></path>
            </g>
        </g>
    </g>
</svg>