<?xml version="1.0" encoding="UTF-8" standalone="no"?>
<svg width="12px" height="20px" viewBox="0 0 12 20" version="1.1" xmlns="http://www.w3.org/2000/svg" xmlns:xlink="http://www.w3.org/1999/xlink">
    <!-- Generator: Sketch 3.8.1 (29687) - http://www.bohemiancoding.com/sketch -->
    <title>mu_sign [#3]</title>
    <desc>Created with Sketch.</desc>
    <defs></defs>
    <g id="Page-1" stroke="none" stroke-width="1" fill="none" fill-rule="evenodd">
        <g id="Dribbble-Dark-Preview" transform="translate(-264.000000, -8159.000000)" fill="#FFFFFF">
            <g id="icons" transform="translate(56.000000, 160.000000)">
                <path d="M220,8012 C220,8012.552 219.552,8013 219,8013 C217.349,8013.02 216,8011.686 216,8010.035 L216,8010 C214.053,8010.649 211.947,8010.649 210,8010 L210,8019 L208,8019 L208,7999 L210,7999 L210,8008 C211.947,8008.649 214.053,8008.649 216,8008 L216,7999 L218,7999 L218,8010 C218,8010.548 218.44,8011.007 218.988,8011 C219.546,8010.993 220,8011.444 220,8012" id="mu_sign-[#3]"></path>
            </g>
        </g>
    </g>
</svg>