<?xml version="1.0" encoding="UTF-8" standalone="no"?>
<svg width="21px" height="20px" viewBox="0 0 21 20" version="1.1" xmlns="http://www.w3.org/2000/svg" xmlns:xlink="http://www.w3.org/1999/xlink">
    <!-- Generator: Sketch 3.8.1 (29687) - http://www.bohemiancoding.com/sketch -->
    <title>multitasking [#1440]</title>
    <desc>Created with Sketch.</desc>
    <defs></defs>
    <g id="Page-1" stroke="none" stroke-width="1" fill="none" fill-rule="evenodd">
        <g id="Dribbble-Dark-Preview" transform="translate(-59.000000, -560.000000)" fill="#FFFFFF">
            <g id="icons" transform="translate(56.000000, 160.000000)">
                <path d="M21.9,412.917 C21.9,413.469 21.4275,414 20.8479,414 L19.8,414 L19.8,405.92 C19.8,404.814 18.85605,404 17.69475,404 L9.3,404 L9.3,402.917 C9.3,402.365 9.7683,402 10.3479,402 L20.8479,402 C21.4275,402 21.9,402.365 21.9,402.917 L21.9,412.917 Z M17.7,417 C17.7,417.552 17.2296,418 16.65,418 L6.15,418 C5.5704,418 5.1,417.552 5.1,417 L5.1,407 C5.1,406.447 5.5704,406 6.15,406 L16.65,406 C17.2296,406 17.7,406.447 17.7,407 L17.7,417 Z M21.89475,400 L9.3021,400 C8.13975,400 7.2,400.814 7.2,401.92 L7.2,404 L5.1021,404 C3.93975,404 3,404.814 3,405.92 L3,417.914 C3,419.02 3.93975,420 5.1021,420 L17.69475,420 C18.85605,420 19.8,419.02 19.8,417.914 L19.8,416 L21.89475,416 C23.05605,416 24,415.02 24,413.914 L24,401.92 C24,400.814 23.05605,400 21.89475,400 L21.89475,400 Z" id="multitasking-[#1440]"></path>
            </g>
        </g>
    </g>
</svg>