<?xml version="1.0" encoding="UTF-8" standalone="no"?>
<svg width="20px" height="20px" viewBox="0 0 20 20" version="1.1" xmlns="http://www.w3.org/2000/svg" xmlns:xlink="http://www.w3.org/1999/xlink">
    <!-- Generator: Sketch 3.8.1 (29687) - http://www.bohemiancoding.com/sketch -->
    <title>music [#1005]</title>
    <desc>Created with Sketch.</desc>
    <defs></defs>
    <g id="Page-1" stroke="none" stroke-width="1" fill="none" fill-rule="evenodd">
        <g id="Dribbble-Dark-Preview" transform="translate(-260.000000, -3759.000000)" fill="#FFFFFF">
            <g id="icons" transform="translate(56.000000, 160.000000)">
                <path d="M224,3601.05129 L224,3610.55901 C224,3612.90979 222.17612,3614.95492 219.888035,3614.89646 C217.266519,3614.82877 215.248971,3612.1662 216.234285,3609.31593 C216.777356,3607.74464 218.297755,3606.71797 219.920978,3606.69233 C220.695653,3606.68105 220.976173,3606.88208 222.003416,3607.24105 L222.003416,3604.12822 C222.003416,3603.56207 221.556181,3603.10258 221.005124,3603.10258 L213.018786,3603.10258 C212.467729,3603.10258 212.020494,3603.56207 212.020494,3604.12822 L212.020494,3614.65851 C212.020494,3617.02057 210.179644,3619.07289 207.881575,3618.99801 C205.681339,3618.92622 203.914362,3617.02775 204.00321,3614.73031 C204.090061,3612.51594 205.989811,3610.84209 208.147121,3610.79081 C209.166377,3610.76619 209.352059,3610.92619 210.02391,3611.34363 L210.02391,3601.05129 C210.02391,3599.91795 210.91838,3599 212.020494,3599 L222.003416,3599 C223.106529,3599 224,3599.91795 224,3601.05129" id="music-[#1005]"></path>
            </g>
        </g>
    </g>
</svg>