<?xml version="1.0" encoding="UTF-8" standalone="no"?>
<svg width="20px" height="20px" viewBox="0 0 20 20" version="1.1" xmlns="http://www.w3.org/2000/svg" xmlns:xlink="http://www.w3.org/1999/xlink">
    <!-- Generator: Sketch 3.8.1 (29687) - http://www.bohemiancoding.com/sketch -->
    <title>music [#993]</title>
    <desc>Created with Sketch.</desc>
    <defs></defs>
    <g id="Page-1" stroke="none" stroke-width="1" fill="none" fill-rule="evenodd">
        <g id="Dribbble-Dark-Preview" transform="translate(-340.000000, -3799.000000)" fill="#FFFFFF">
            <g id="icons" transform="translate(56.000000, 160.000000)">
                <path d="M304,3639 L304,3650.79487 C304,3653.06051 302.209,3654.89744 300,3654.89744 C297.791,3654.89744 296,3653.06051 296,3650.79487 C296,3648.52923 297.791,3646.69231 300,3646.69231 C300.729,3646.69231 301.412,3646.89231 302,3647.24103 L302,3641.05128 L292,3641.05128 L292,3654.89744 C292,3657.16308 290.209,3659 288,3659 C285.791,3659 284,3657.16308 284,3654.89744 C284,3652.63179 285.791,3650.79487 288,3650.79487 C288.729,3650.79487 289.412,3650.99487 290,3651.34359 L290,3639 L304,3639 Z" id="music-[#993]"></path>
            </g>
        </g>
    </g>
</svg>