<?xml version="1.0" encoding="UTF-8" standalone="no"?>
<svg width="20px" height="20px" viewBox="0 0 20 20" version="1.1" xmlns="http://www.w3.org/2000/svg" xmlns:xlink="http://www.w3.org/1999/xlink">
    <!-- Generator: Sketch 3.8.1 (29687) - http://www.bohemiancoding.com/sketch -->
    <title>music [#1004]</title>
    <desc>Created with Sketch.</desc>
    <defs></defs>
    <g id="Page-1" stroke="none" stroke-width="1" fill="none" fill-rule="evenodd">
        <g id="Dribbble-Dark-Preview" transform="translate(-300.000000, -3759.000000)" fill="#FFFFFF">
            <g id="icons" transform="translate(56.000000, 160.000000)">
                <path d="M264,3599 L264,3610.79487 C264,3613.06051 262.195068,3614.89744 259.989817,3614.89744 C257.784566,3614.89744 255.979635,3613.06051 255.979635,3610.79487 C255.979635,3608.52923 257.778576,3606.69231 259.984826,3606.69231 C260.71159,3606.69231 261.005091,3606.89231 262.003394,3607.24103 L262.003394,3603.10256 L252.020365,3603.10256 L252.020365,3614.89744 C252.020365,3617.16308 250.215434,3619 248.010183,3619 C245.804932,3619 244,3617.16308 244,3614.89744 C244,3612.63179 245.800938,3610.87692 248.005191,3610.79487 C249.150245,3610.75179 249.321953,3610.90667 250.02376,3611.34359 L250.02376,3599 L264,3599 Z" id="music-[#1004]"></path>
            </g>
        </g>
    </g>
</svg>