<?xml version="1.0" encoding="UTF-8" standalone="no"?>
<svg width="20px" height="20px" viewBox="0 0 20 20" version="1.1" xmlns="http://www.w3.org/2000/svg" xmlns:xlink="http://www.w3.org/1999/xlink">
    <!-- Generator: Sketch 3.8.1 (29687) - http://www.bohemiancoding.com/sketch -->
    <title>music [#995]</title>
    <desc>Created with Sketch.</desc>
    <defs></defs>
    <g id="Page-1" stroke="none" stroke-width="1" fill="none" fill-rule="evenodd">
        <g id="Dribbble-Dark-Preview" transform="translate(-260.000000, -3799.000000)" fill="#FFFFFF">
            <g id="icons" transform="translate(56.000000, 160.000000)">
                <path d="M211.987988,3643 L221.997998,3643 L221.997998,3641 L211.987988,3641 L211.987988,3643 Z M209.985986,3639 L209.985986,3651.535 C208.984985,3651.195 208.726727,3651 207.997998,3651 C205.785786,3651 204,3652.791 204,3655 C204,3657.209 205.782783,3659 207.993994,3659 C210.205205,3659 211.987988,3657.209 211.987988,3655 L211.987988,3645 L221.997998,3645 L221.997998,3651.535 C220.996997,3651.195 220.738739,3651 220.01001,3651 C217.797798,3651 216.012012,3652.791 216.012012,3655 C216.012012,3657.209 217.794795,3659 220.006006,3659 C222.217217,3659 224,3657.209 224,3655 L224,3639 L209.985986,3639 Z" id="music-[#995]"></path>
            </g>
        </g>
    </g>
</svg>