<?xml version="1.0" encoding="UTF-8" standalone="no"?>
<svg width="20px" height="20px" viewBox="0 0 20 20" version="1.1" xmlns="http://www.w3.org/2000/svg" xmlns:xlink="http://www.w3.org/1999/xlink">
    <!-- Generator: Sketch 3.8.1 (29687) - http://www.bohemiancoding.com/sketch -->
    <title>music [#994]</title>
    <desc>Created with Sketch.</desc>
    <defs></defs>
    <g id="Page-1" stroke="none" stroke-width="1" fill="none" fill-rule="evenodd">
        <g id="Dribbble-Dark-Preview" transform="translate(-300.000000, -3799.000000)" fill="#FFFFFF">
            <g id="icons" transform="translate(56.000000, 160.000000)">
                <path d="M263.999786,3641.05125 L263.999786,3650.60392 C263.999786,3652.8603 262.302786,3654.83873 260.103786,3654.89616 C257.683786,3654.95873 255.733786,3652.8162 256.029786,3650.287 C256.233786,3648.54036 257.568786,3647.07167 259.257786,3646.7609 C260.262786,3646.57527 261.215786,3646.77629 261.999786,3647.2409 L261.999786,3642.07688 C261.999786,3641.51073 261.551786,3641.05125 260.999786,3641.05125 L252.999786,3641.05125 C252.447786,3641.05125 251.999786,3641.51073 251.999786,3642.07688 L251.999786,3654.70642 C251.999786,3656.9628 250.302786,3658.94123 248.103786,3658.99866 C245.683786,3659.06123 243.733786,3656.9187 244.029786,3654.3895 C244.233786,3652.64286 245.568786,3651.17417 247.257786,3650.86341 C248.262786,3650.67777 249.215786,3650.87879 249.999786,3651.3434 L249.999786,3641.05125 C249.999786,3639.91793 250.895786,3639 251.999786,3639 L261.999786,3639 C263.104786,3639 263.999786,3639.91793 263.999786,3641.05125" id="music-[#994]"></path>
            </g>
        </g>
    </g>
</svg>