<?xml version="1.0" encoding="UTF-8" standalone="no"?>
<svg width="20px" height="20px" viewBox="0 0 20 20" version="1.1" xmlns="http://www.w3.org/2000/svg" xmlns:xlink="http://www.w3.org/1999/xlink">
    <!-- Generator: Sketch 3.8.1 (29687) - http://www.bohemiancoding.com/sketch -->
    <title>music [#996]</title>
    <desc>Created with Sketch.</desc>
    <defs></defs>
    <g id="Page-1" stroke="none" stroke-width="1" fill="none" fill-rule="evenodd">
        <g id="Dribbble-Dark-Preview" transform="translate(-220.000000, -3799.000000)" fill="#FFFFFF">
            <g id="icons" transform="translate(56.000000, 160.000000)">
                <path d="M184,3639 L184,3655 C184,3657.209 182.21484,3659 180.003402,3659 C177.792965,3659 176.007805,3657.209 176.007805,3655 C176.007805,3652.791 177.794967,3651 180.006404,3651 C180.734878,3651 180.998049,3651.195 181.998699,3651.535 L181.998699,3641 L171.992195,3641 L171.992195,3655 C171.992195,3657.209 170.207035,3659 167.995597,3659 C165.78516,3659 164,3657.209 164,3655 C164,3652.791 165.787162,3651 167.998599,3651 C168.727073,3651 168.990244,3651.195 169.990894,3651.535 L169.990894,3639 L184,3639 Z" id="music-[#996]"></path>
            </g>
        </g>
    </g>
</svg>