<?xml version="1.0" encoding="UTF-8" standalone="no"?>
<svg width="20px" height="20px" viewBox="0 0 20 20" version="1.1" xmlns="http://www.w3.org/2000/svg" xmlns:xlink="http://www.w3.org/1999/xlink">
    <!-- Generator: Sketch 3.8.1 (29687) - http://www.bohemiancoding.com/sketch -->
    <title>music [#997]</title>
    <desc>Created with Sketch.</desc>
    <defs></defs>
    <g id="Page-1" stroke="none" stroke-width="1" fill="none" fill-rule="evenodd">
        <g id="Dribbble-Dark-Preview" transform="translate(-180.000000, -3799.000000)" fill="#FFFFFF">
            <g id="icons" transform="translate(56.000000, 160.000000)">
                <path d="M141.998719,3639 L131.992311,3639 C130.887604,3639 129.99103,3639.89499 129.99103,3640.99997 L129.99103,3651.53483 C128.99139,3651.19483 128.728221,3650.99983 128.001756,3650.99983 C126.247633,3650.99883 124.673625,3652.10282 124.178308,3653.78479 C123.390804,3656.46276 125.319039,3658.90972 127.854662,3658.99772 C130.149131,3659.07672 131.992311,3657.08975 131.992311,3654.79578 L131.992311,3641.99996 C131.992311,3641.44797 132.440599,3640.99997 132.992952,3640.99997 L140.998078,3640.99997 C141.550432,3640.99997 141.998719,3641.44797 141.998719,3641.99996 L141.998719,3651.53483 C140.999079,3651.19483 140.73591,3650.99983 140.009445,3650.99983 C138.255322,3650.99883 136.681314,3652.10282 136.185997,3653.78479 C135.398492,3656.46276 137.326727,3658.90972 139.862351,3658.99772 C142.15682,3659.07672 144,3657.08975 144,3654.79578 L144,3640.99997 C144,3639.89499 143.104427,3639 141.998719,3639" id="music-[#997]"></path>
            </g>
        </g>
    </g>
</svg>