<?xml version="1.0" encoding="UTF-8" standalone="no"?>
<svg width="20px" height="20px" viewBox="0 0 20 20" version="1.1" xmlns="http://www.w3.org/2000/svg" xmlns:xlink="http://www.w3.org/1999/xlink">
    <!-- Generator: Sketch 3.8.1 (29687) - http://www.bohemiancoding.com/sketch -->
    <title>naruto [#119]</title>
    <desc>Created with Sketch.</desc>
    <defs></defs>
    <g id="Page-1" stroke="none" stroke-width="1" fill="none" fill-rule="evenodd">
        <g id="Dribbble-Dark-Preview" transform="translate(-260.000000, -7639.000000)" fill="#FFFFFF">
            <g id="icons" transform="translate(56.000000, 160.000000)">
                <path d="M210.593931,7496.99997 L207.738773,7496.99997 C206.968159,7496.99997 206.488644,7496.06497 206.879434,7495.39897 L207.994979,7493.53898 C208.577177,7494.87897 209.474398,7495.99997 210.593931,7496.99997 M211.722437,7484.45598 C214.470925,7482.13098 217.528457,7483.06498 220.109464,7483.56598 C220.872102,7483.71498 221.651688,7483.40498 222.106281,7482.77298 L223.81798,7480.53099 C224.094125,7480.14599 224.052254,7479.61799 223.718289,7479.28299 C223.288619,7478.85199 222.572836,7478.92299 222.235879,7479.42999 C220.40455,7481.83398 220.703624,7481.84898 217.294182,7481.05899 C216.470732,7480.86799 215.615381,7480.78999 214.779968,7480.92499 C210.230058,7481.65998 206.838561,7485.82598 207.288168,7490.65598 L204.277491,7495.89197 C203.496909,7497.22497 204.455939,7498.99997 205.997166,7498.99997 L215.963304,7498.99997 C219.950955,7499.00997 222.511027,7496.40397 223.039391,7492.90298 C223.611619,7489.10298 221.175164,7485.76798 217.732824,7484.98398 C214.524758,7484.25298 211.234946,7486.47998 211.215008,7489.77998 C211.201051,7492.26898 213.008454,7494.33897 215.373131,7494.73997 C217.163587,7495.04297 218.997906,7493.94598 219.18732,7492.13498 C219.376733,7490.33198 217.975074,7488.80998 216.21652,7488.80998 C215.666224,7488.80998 215.220604,7489.25698 215.220604,7489.80998 C215.220604,7490.36198 215.667221,7490.80998 216.218513,7490.80998 C216.768809,7490.80998 217.215426,7491.25698 217.215426,7491.80998 C217.215426,7492.36198 216.768809,7492.80998 216.218513,7492.80998 C214.459959,7492.80998 213.056306,7491.28698 213.244722,7489.48498 C213.435133,7487.67298 215.264468,7486.57598 217.054923,7486.87998 C219.4196,7487.28098 221.217034,7489.35098 221.203078,7491.83898 C221.184136,7495.08197 217.970089,7497.31997 214.803894,7496.66597 C211.62773,7496.00997 209.240124,7493.18898 209.240124,7489.80998 C209.240124,7487.66198 210.205135,7485.73998 211.722437,7484.45598" id="naruto-[#119]"></path>
            </g>
        </g>
    </g>
</svg>