<?xml version="1.0" encoding="UTF-8" standalone="no"?>
<svg width="20px" height="20px" viewBox="0 0 20 20" version="1.1" xmlns="http://www.w3.org/2000/svg" xmlns:xlink="http://www.w3.org/1999/xlink">
    <!-- Generator: Sketch 3.8.1 (29687) - http://www.bohemiancoding.com/sketch -->
    <title>network_2_round [#1079]</title>
    <desc>Created with Sketch.</desc>
    <defs></defs>
    <g id="Page-1" stroke="none" stroke-width="1" fill="none" fill-rule="evenodd">
        <g id="Dribbble-Dark-Preview" transform="translate(-420.000000, -3399.000000)" fill="#FFFFFF">
            <g id="icons" transform="translate(56.000000, 160.000000)">
                <path d="M372.907,3255 L373.907,3255 L373.907,3257 L372.907,3257 C372.355,3257 371.907,3256.552 371.907,3256 C371.907,3255.448 372.355,3255 372.907,3255 L372.907,3255 Z M376,3255 L380.907,3255 C381.459,3255 381.907,3255.448 381.907,3256 C381.907,3256.552 381.459,3257 380.907,3257 L376,3257 L376,3255 Z M372.907,3248 L373.907,3248 L373.907,3250 L372.907,3250 C372.355,3250 371.907,3249.552 371.907,3249 C371.907,3248.448 372.355,3248 372.907,3248 L372.907,3248 Z M376,3248 L380.907,3248 C381.459,3248 381.907,3248.448 381.907,3249 C381.907,3249.552 381.459,3250 380.907,3250 L376,3250 L376,3248 Z M369.907,3250 C369.907,3251.105 370.802,3252 371.907,3252 L381.907,3252 C383.012,3252 384,3251.105 384,3250 L384,3248 C384,3246.895 383.012,3246 381.907,3246 L371.907,3246 C370.802,3246 369.907,3246.895 369.907,3248 L366,3248 L366,3239 L364,3239 L364,3254.999 C364,3256.104 364.803,3257 365.908,3257 L366.126,3257 L369.907,3257 C369.907,3258.105 370.802,3259 371.907,3259 L381.907,3259 C383.012,3259 384,3258.105 384,3257 L384,3255 C384,3253.895 383.012,3253 381.907,3253 L371.907,3253 C370.802,3253 369.907,3253.895 369.907,3255 L366.903,3255 C366.353,3255 366,3254.554 366,3254.004 L366,3250 L369.907,3250 Z" id="network_2_round-[#1079]"></path>
            </g>
        </g>
    </g>
</svg>