<?xml version="1.0" encoding="UTF-8" standalone="no"?>
<svg width="20px" height="20px" viewBox="0 0 20 20" version="1.1" xmlns="http://www.w3.org/2000/svg" xmlns:xlink="http://www.w3.org/1999/xlink">
    <!-- Generator: Sketch 3.8.1 (29687) - http://www.bohemiancoding.com/sketch -->
    <title>network_2_round [#1080]</title>
    <desc>Created with Sketch.</desc>
    <defs></defs>
    <g id="Page-1" stroke="none" stroke-width="1" fill="none" fill-rule="evenodd">
        <g id="Dribbble-Dark-Preview" transform="translate(-380.000000, -3399.000000)" fill="#FFFFFF">
            <g id="icons" transform="translate(56.000000, 160.000000)">
                <path d="M333,3255 L341,3255 C341.552,3255 342,3255.448 342,3256 C342,3256.552 341.552,3257 341,3257 L333,3257 C332.448,3257 332,3256.552 332,3256 C332,3255.448 332.448,3255 333,3255 L333,3255 Z M333,3248 L341,3248 C341.552,3248 342,3248.448 342,3249 C342,3249.552 341.552,3250 341,3250 L333,3250 C332.448,3250 332,3249.552 332,3249 C332,3248.448 332.448,3248 333,3248 L333,3248 Z M330,3250 C330,3251.105 330.895,3252 332,3252 L342,3252 C343.105,3252 344,3251.105 344,3250 L344,3248 C344,3246.895 343.105,3246 342,3246 L332,3246 C330.895,3246 330,3246.895 330,3248 L326,3248 L326,3239 L324,3239 L324,3254.999 C324,3256.104 324.896,3257 326.001,3257 L326.219,3257 L330,3257 C330,3258.105 330.895,3259 332,3259 L342,3259 C343.105,3259 344,3258.105 344,3257 L344,3255 C344,3253.895 343.105,3253 342,3253 L332,3253 C330.895,3253 330,3253.895 330,3255 L326.996,3255 C326.446,3255 326,3254.554 326,3254.004 L326,3250 L330,3250 Z" id="network_2_round-[#1080]"></path>
            </g>
        </g>
    </g>
</svg>