<?xml version="1.0" encoding="UTF-8" standalone="no"?>
<svg width="20px" height="20px" viewBox="0 0 20 20" version="1.1" xmlns="http://www.w3.org/2000/svg" xmlns:xlink="http://www.w3.org/1999/xlink">
    <!-- Generator: Sketch 3.8.1 (29687) - http://www.bohemiancoding.com/sketch -->
    <title>network_3 [#1081]</title>
    <desc>Created with Sketch.</desc>
    <defs></defs>
    <g id="Page-1" stroke="none" stroke-width="1" fill="none" fill-rule="evenodd">
        <g id="Dribbble-Dark-Preview" transform="translate(-340.000000, -3399.000000)" fill="#FFFFFF">
            <g id="icons" transform="translate(56.000000, 160.000000)">
                <path d="M292,3250 L302,3250 L302,3248 L292,3248 L292,3250 Z M292,3257 L302,3257 L302,3255 L292,3255 L292,3257 Z M292,3243 L302,3243 L302,3241 L292,3241 L292,3243 Z M304,3245 L304,3239 L290,3239 L290,3241 L286,3241 L286,3239 L284,3239 L284,3257 L290,3257 L290,3259 L304,3259 L304,3253 L290,3253 L290,3255 L286,3255 L286,3250 L290,3250 L290,3252 L304,3252 L304,3246 L290,3246 L290,3248 L286,3248 L286,3243 L290,3243 L290,3245 L304,3245 Z" id="network_3-[#1081]"></path>
            </g>
        </g>
    </g>
</svg>