<?xml version="1.0" encoding="UTF-8" standalone="no"?>
<svg width="20px" height="18px" viewBox="0 0 20 18" version="1.1" xmlns="http://www.w3.org/2000/svg" xmlns:xlink="http://www.w3.org/1999/xlink">
    <!-- Generator: Sketch 3.8.1 (29687) - http://www.bohemiancoding.com/sketch -->
    <title>network_2 [#1118]</title>
    <desc>Created with Sketch.</desc>
    <defs></defs>
    <g id="Page-1" stroke="none" stroke-width="1" fill="none" fill-rule="evenodd">
        <g id="Dribbble-Dark-Preview" transform="translate(-60.000000, -3280.000000)" fill="#FFFFFF">
            <g id="icons" transform="translate(56.000000, 160.000000)">
                <path d="M12,3124 L16,3124 L16,3120 L12,3120 L12,3124 Z M20,3138 L24,3138 L24,3134 L20,3134 L20,3138 Z M4,3138 L8,3138 L8,3134 L4,3134 L4,3138 Z M7,3132 L5,3132 L5,3128 L13,3128 L13,3126 L15,3126 L15,3128 L23,3128 L23,3132 L21,3132 L21,3130 L7,3130 L7,3132 Z" id="network_2-[#1118]"></path>
            </g>
        </g>
    </g>
</svg>