<?xml version="1.0" encoding="UTF-8" standalone="no"?>
<svg width="20px" height="20px" viewBox="0 0 20 20" version="1.1" xmlns="http://www.w3.org/2000/svg" xmlns:xlink="http://www.w3.org/1999/xlink">
    <!-- Generator: Sketch 3.8.1 (29687) - http://www.bohemiancoding.com/sketch -->
    <title>network_2 [#1077]</title>
    <desc>Created with Sketch.</desc>
    <defs></defs>
    <g id="Page-1" stroke="none" stroke-width="1" fill="none" fill-rule="evenodd">
        <g id="Dribbble-Dark-Preview" transform="translate(-100.000000, -3439.000000)" fill="#FFFFFF">
            <g id="icons" transform="translate(56.000000, 160.000000)">
                <path d="M52,3297 L62,3297 L62,3295 L52,3295 L52,3297 Z M52,3290 L62,3290 L62,3288 L52,3288 L52,3290 Z M64,3292 L64,3286 L50,3286 L50,3288 L46,3288 L46,3279 L44,3279 L44,3297 L50,3297 L50,3299 L64,3299 L64,3293 L50,3293 L50,3295 L46,3295 L46,3290 L50,3290 L50,3292 L64,3292 Z" id="network_2-[#1077]"></path>
            </g>
        </g>
    </g>
</svg>