<?xml version="1.0" encoding="UTF-8" standalone="no"?>
<svg width="20px" height="20px" viewBox="0 0 20 20" version="1.1" xmlns="http://www.w3.org/2000/svg" xmlns:xlink="http://www.w3.org/1999/xlink">
    <!-- Generator: Sketch 3.8.1 (29687) - http://www.bohemiancoding.com/sketch -->
    <title>network_3_round [#1083]</title>
    <desc>Created with Sketch.</desc>
    <defs></defs>
    <g id="Page-1" stroke="none" stroke-width="1" fill="none" fill-rule="evenodd">
        <g id="Dribbble-Dark-Preview" transform="translate(-260.000000, -3399.000000)" fill="#FFFFFF">
            <g id="icons" transform="translate(56.000000, 160.000000)">
                <path d="M212.907,3248 L213.907,3248 L213.907,3250 L212.907,3250 C212.355,3250 211.907,3249.552 211.907,3249 C211.907,3248.448 212.355,3248 212.907,3248 L212.907,3248 Z M216,3248 L220.907,3248 C221.459,3248 221.907,3248.448 221.907,3249 C221.907,3249.552 221.459,3250 220.907,3250 L216,3250 L216,3248 Z M212.907,3255 L213.907,3255 L213.907,3257 L212.907,3257 C212.355,3257 211.907,3256.552 211.907,3256 C211.907,3255.448 212.355,3255 212.907,3255 L212.907,3255 Z M216,3255 L220.907,3255 C221.459,3255 221.907,3255.448 221.907,3256 C221.907,3256.552 221.459,3257 220.907,3257 L216,3257 L216,3255 Z M212.907,3241 L213.907,3241 L213.907,3243 L212.907,3243 C212.355,3243 211.907,3242.552 211.907,3242 C211.907,3241.448 212.355,3241 212.907,3241 L212.907,3241 Z M216,3241 L220.907,3241 C221.459,3241 221.907,3241.448 221.907,3242 C221.907,3242.552 221.459,3243 220.907,3243 L216,3243 L216,3241 Z M209.907,3243 C209.907,3244.105 210.802,3245 211.907,3245 L221.907,3245 C223.012,3245 224,3244.105 224,3243 L224,3241 C224,3239.895 223.012,3239 221.907,3239 L211.907,3239 C210.802,3239 209.907,3239.895 209.907,3241 L206,3241 L206,3239 L204,3239 L204,3254.999 C204,3256.104 204.803,3257 205.908,3257 L206.126,3257 L209.907,3257 C209.907,3258.105 210.802,3259 211.907,3259 L221.907,3259 C223.012,3259 224,3258.105 224,3257 L224,3255 C224,3253.895 223.012,3253 221.907,3253 L211.907,3253 C210.802,3253 209.907,3253.895 209.907,3255 L206.903,3255 C206.353,3255 206,3254.554 206,3254.004 L206,3250 L209.907,3250 C209.907,3251.105 210.802,3252 211.907,3252 L221.907,3252 C223.012,3252 224,3251.105 224,3250 L224,3248 C224,3246.895 223.012,3246 221.907,3246 L211.907,3246 C210.802,3246 209.907,3246.895 209.907,3248 L206,3248 L206,3243 L209.907,3243 Z" id="network_3_round-[#1083]"></path>
            </g>
        </g>
    </g>
</svg>