<?xml version="1.0" encoding="UTF-8" standalone="no"?>
<svg width="20px" height="20px" viewBox="0 0 20 20" version="1.1" xmlns="http://www.w3.org/2000/svg" xmlns:xlink="http://www.w3.org/1999/xlink">
    <!-- Generator: Sketch 3.8.1 (29687) - http://www.bohemiancoding.com/sketch -->
    <title>network_3_round [#1084]</title>
    <desc>Created with Sketch.</desc>
    <defs></defs>
    <g id="Page-1" stroke="none" stroke-width="1" fill="none" fill-rule="evenodd">
        <g id="Dribbble-Dark-Preview" transform="translate(-220.000000, -3399.000000)" fill="#FFFFFF">
            <g id="icons" transform="translate(56.000000, 160.000000)">
                <path d="M173,3248 L181,3248 C181.552,3248 182,3248.448 182,3249 C182,3249.552 181.552,3250 181,3250 L173,3250 C172.448,3250 172,3249.552 172,3249 C172,3248.448 172.448,3248 173,3248 L173,3248 Z M173,3255 L181,3255 C181.552,3255 182,3255.448 182,3256 C182,3256.552 181.552,3257 181,3257 L173,3257 C172.448,3257 172,3256.552 172,3256 C172,3255.448 172.448,3255 173,3255 L173,3255 Z M173,3241 L181,3241 C181.552,3241 182,3241.448 182,3242 C182,3242.552 181.552,3243 181,3243 L173,3243 C172.448,3243 172,3242.552 172,3242 C172,3241.448 172.448,3241 173,3241 L173,3241 Z M170,3243 C170,3244.105 170.895,3245 172,3245 L182,3245 C183.105,3245 184,3244.105 184,3243 L184,3241 C184,3239.895 183.105,3239 182,3239 L172,3239 C170.895,3239 170,3239.895 170,3241 L166,3241 L166,3239 L164,3239 L164,3254.999 C164,3256.104 164.896,3257 166.001,3257 L166.219,3257 L170,3257 C170,3258.105 170.895,3259 172,3259 L182,3259 C183.105,3259 184,3258.105 184,3257 L184,3255 C184,3253.895 183.105,3253 182,3253 L172,3253 C170.895,3253 170,3253.895 170,3255 L166.996,3255 C166.446,3255 166,3254.554 166,3254.004 L166,3250 L170,3250 C170,3251.105 170.895,3252 172,3252 L182,3252 C183.105,3252 184,3251.105 184,3250 L184,3248 C184,3246.895 183.105,3246 182,3246 L172,3246 C170.895,3246 170,3246.895 170,3248 L166,3248 L166,3243 L170,3243 Z" id="network_3_round-[#1084]"></path>
            </g>
        </g>
    </g>
</svg>