<?xml version="1.0" encoding="UTF-8" standalone="no"?>
<svg width="20px" height="20px" viewBox="0 0 20 20" version="1.1" xmlns="http://www.w3.org/2000/svg" xmlns:xlink="http://www.w3.org/1999/xlink">
    <!-- Generator: Sketch 3.8.1 (29687) - http://www.bohemiancoding.com/sketch -->
    <title>network_3 [#1082]</title>
    <desc>Created with Sketch.</desc>
    <defs></defs>
    <g id="Page-1" stroke="none" stroke-width="1" fill="none" fill-rule="evenodd">
        <g id="Dribbble-Dark-Preview" transform="translate(-300.000000, -3399.000000)" fill="#FFFFFF">
            <g id="icons" transform="translate(56.000000, 160.000000)">
                <path d="M251.907,3250 L253.907,3250 L253.907,3248 L251.907,3248 L251.907,3250 Z M256,3250 L262,3250 L262,3248 L256,3248 L256,3250 Z M251.907,3257 L253.907,3257 L253.907,3255 L251.907,3255 L251.907,3257 Z M256,3257 L262,3257 L262,3255 L256,3255 L256,3257 Z M251.907,3243 L253.907,3243 L253.907,3241 L251.907,3241 L251.907,3243 Z M256,3243 L262,3243 L262,3241 L256,3241 L256,3243 Z M264,3245 L264,3239 L250,3239 L250,3241 L246,3241 L246,3239 L244,3239 L244,3257 L250,3257 L250,3259 L264,3259 L264,3253 L250,3253 L250,3255 L246,3255 L246,3250 L250,3250 L250,3252 L264,3252 L264,3246 L250,3246 L250,3248 L246,3248 L246,3243 L250,3243 L250,3245 L264,3245 Z" id="network_3-[#1082]"></path>
            </g>
        </g>
    </g>
</svg>