<?xml version="1.0" encoding="UTF-8" standalone="no"?>
<svg width="18px" height="20px" viewBox="0 0 18 20" version="1.1" xmlns="http://www.w3.org/2000/svg" xmlns:xlink="http://www.w3.org/1999/xlink">
    <!-- Generator: Sketch 3.8.1 (29687) - http://www.bohemiancoding.com/sketch -->
    <title>network_2 right [#1117]</title>
    <desc>Created with Sketch.</desc>
    <defs></defs>
    <g id="Page-1" stroke="none" stroke-width="1" fill="none" fill-rule="evenodd">
        <g id="Dribbble-Dark-Preview" transform="translate(-101.000000, -3279.000000)" fill="#FFFFFF">
            <g id="icons" transform="translate(56.000000, 160.000000)">
                <path d="M45,3131 L49,3131 L49,3127 L45,3127 L45,3131 Z M59,3123 L63,3123 L63,3119 L59,3119 L59,3123 Z M59,3139 L63,3139 L63,3135 L59,3135 L59,3139 Z M57,3136 L57,3138 L53,3138 L53,3130 L51,3130 L51,3128 L53,3128 L53,3120 L57,3120 L57,3122 L55,3122 L55,3136 L57,3136 Z" id="network_2-right-[#1117]"></path>
            </g>
        </g>
    </g>
</svg>