<?xml version="1.0" encoding="UTF-8" standalone="no"?>
<svg width="20px" height="20px" viewBox="0 0 20 20" version="1.1" xmlns="http://www.w3.org/2000/svg" xmlns:xlink="http://www.w3.org/1999/xlink">
    <!-- Generator: Sketch 3.8.1 (29687) - http://www.bohemiancoding.com/sketch -->
    <title>network_2 [#1078]</title>
    <desc>Created with Sketch.</desc>
    <defs></defs>
    <g id="Page-1" stroke="none" stroke-width="1" fill="none" fill-rule="evenodd">
        <g id="Dribbble-Dark-Preview" transform="translate(-60.000000, -3439.000000)" fill="#FFFFFF">
            <g id="icons" transform="translate(56.000000, 160.000000)">
                <path d="M11.907,3297 L13.907,3297 L13.907,3295 L11.907,3295 L11.907,3297 Z M16,3297 L22,3297 L22,3295 L16,3295 L16,3297 Z M11.907,3290 L13.907,3290 L13.907,3288 L11.907,3288 L11.907,3290 Z M16,3290 L22,3290 L22,3288 L16,3288 L16,3290 Z M24,3292 L24,3286 L10,3286 L10,3288 L6,3288 L6,3279 L4,3279 L4,3297 L10,3297 L10,3299 L24,3299 L24,3293 L10,3293 L10,3295 L6,3295 L6,3290 L10,3290 L10,3292 L24,3292 Z" id="network_2-[#1078]"></path>
            </g>
        </g>
    </g>
</svg>