<?xml version="1.0" encoding="UTF-8" standalone="no"?>
<svg width="20px" height="18px" viewBox="0 0 20 18" version="1.1" xmlns="http://www.w3.org/2000/svg" xmlns:xlink="http://www.w3.org/1999/xlink">
    <!-- Generator: Sketch 3.8.1 (29687) - http://www.bohemiancoding.com/sketch -->
    <title>network_3 [#1116]</title>
    <desc>Created with Sketch.</desc>
    <defs></defs>
    <g id="Page-1" stroke="none" stroke-width="1" fill="none" fill-rule="evenodd">
        <g id="Dribbble-Dark-Preview" transform="translate(-140.000000, -3280.000000)" fill="#FFFFFF">
            <g id="icons" transform="translate(56.000000, 160.000000)">
                <path d="M92,3124 L96,3124 L96,3120 L92,3120 L92,3124 Z M92,3138 L96,3138 L96,3134 L92,3134 L92,3138 Z M100,3138 L104,3138 L104,3134 L100,3134 L100,3138 Z M84,3138 L88,3138 L88,3134 L84,3134 L84,3138 Z M87,3132 L85,3132 L85,3128 L93,3128 L93,3126 L95,3126 L95,3128 L103,3128 L103,3132 L101,3132 L101,3130 L95,3130 L95,3132 L93,3132 L93,3130 L87,3130 L87,3132 Z" id="network_3-[#1116]"></path>
            </g>
        </g>
    </g>
</svg>