<?xml version="1.0" encoding="UTF-8" standalone="no"?>
<svg width="20px" height="12px" viewBox="0 0 20 12" version="1.1" xmlns="http://www.w3.org/2000/svg" xmlns:xlink="http://www.w3.org/1999/xlink">
    <!-- Generator: Sketch 3.8.1 (29687) - http://www.bohemiancoding.com/sketch -->
    <title>next_arrow [#11]</title>
    <desc>Created with Sketch.</desc>
    <defs></defs>
    <g id="Page-1" stroke="none" stroke-width="1" fill="none" fill-rule="evenodd">
        <g id="Dribbble-Dark-Preview" transform="translate(-340.000000, -8123.000000)" fill="#FFFFFF">
            <g id="icons" transform="translate(56.000000, 160.000000)">
                <path d="M294,7969 C294,7969.552 293.552,7970 293,7970 L289,7970 C288.448,7970 288,7969.552 288,7969 C288,7968.448 288.448,7968 289,7968 L293,7968 C293.552,7968 294,7968.448 294,7969 L294,7969 Z M296.8,7972.9 C296.713,7972.965 296.608,7973 296.5,7973 L287,7973 C286.448,7973 286,7972.552 286,7972 L286,7966 C286,7965.448 286.448,7965 287,7965 L296.5,7965 C296.608,7965 296.713,7965.035 296.8,7965.1 L302,7969 L296.8,7972.9 Z M303.2,7967.4 L297.6,7963.2 C297.427,7963.07 297.216,7963 297,7963 L286,7963 C284.896,7963 284,7963.895 284,7965 L284,7973 C284,7974.105 284.896,7975 286,7975 L297,7975 C297.216,7975 297.427,7974.93 297.6,7974.8 L303.2,7970.6 C304.267,7969.8 304.267,7968.2 303.2,7967.4 L303.2,7967.4 Z" id="next_arrow-[#11]"></path>
            </g>
        </g>
    </g>
</svg>