<?xml version="1.0" encoding="UTF-8" standalone="no"?>
<svg width="20px" height="12px" viewBox="0 0 20 12" version="1.1" xmlns="http://www.w3.org/2000/svg" xmlns:xlink="http://www.w3.org/1999/xlink">
    <!-- Generator: Sketch 3.8.1 (29687) - http://www.bohemiancoding.com/sketch -->
    <title>next_arrow [#9]</title>
    <desc>Created with Sketch.</desc>
    <defs></defs>
    <g id="Page-1" stroke="none" stroke-width="1" fill="none" fill-rule="evenodd">
        <g id="Dribbble-Dark-Preview" transform="translate(-420.000000, -8123.000000)" fill="#FFFFFF">
            <g id="icons" transform="translate(56.000000, 160.000000)">
                <path d="M374,7969 C374,7969.552 373.552,7970 373,7970 L372,7970 L372,7971 C372,7971.552 371.552,7972 371,7972 C370.448,7972 370,7971.552 370,7971 L370,7970 L369,7970 C368.448,7970 368,7969.552 368,7969 C368,7968.448 368.448,7968 369,7968 L370,7968 L370,7967 C370,7966.448 370.448,7966 371,7966 C371.552,7966 372,7966.448 372,7967 L372,7968 L373,7968 C373.552,7968 374,7968.448 374,7969 L374,7969 Z M376.8,7972.9 C376.713,7972.965 376.608,7973 376.5,7973 L367,7973 C366.448,7973 366,7972.552 366,7972 L366,7966 C366,7965.448 366.448,7965 367,7965 L376.5,7965 C376.608,7965 376.713,7965.035 376.8,7965.1 L382,7969 L376.8,7972.9 Z M383.2,7967.4 L377.6,7963.2 C377.427,7963.07 377.216,7963 377,7963 L366,7963 C364.896,7963 364,7963.895 364,7965 L364,7973 C364,7974.105 364.896,7975 366,7975 L377,7975 C377.216,7975 377.427,7974.93 377.6,7974.8 L383.2,7970.6 C384.267,7969.8 384.267,7968.2 383.2,7967.4 L383.2,7967.4 Z" id="next_arrow-[#9]"></path>
            </g>
        </g>
    </g>
</svg>