<?xml version="1.0" encoding="UTF-8" standalone="no"?>
<svg width="20px" height="16px" viewBox="0 0 20 16" version="1.1" xmlns="http://www.w3.org/2000/svg" xmlns:xlink="http://www.w3.org/1999/xlink">
    <!-- Generator: Sketch 3.8.1 (29687) - http://www.bohemiancoding.com/sketch -->
    <title>next [#983]</title>
    <desc>Created with Sketch.</desc>
    <defs></defs>
    <g id="Page-1" stroke="none" stroke-width="1" fill="none" fill-rule="evenodd">
        <g id="Dribbble-Dark-Preview" transform="translate(-300.000000, -3841.000000)" fill="#FFFFFF">
            <g id="icons" transform="translate(56.000000, 160.000000)">
                <path d="M257,3691.51 L257,3686.2 C258.167,3685.289 257.4,3685.866 260.821,3683.339 C261.153,3683.1 262,3683.281 262,3683.748 C262,3696.895 263.034,3696.081 257,3691.51 M254.33,3694.5 C253.961,3694.5 247.063,3689.484 246.762,3689.27 C246.466,3689.057 246.482,3688.654 246.747,3688.464 L253.886,3683.331 C254.212,3683.097 255,3683.276 255,3683.734 C255,3694.296 255.33,3694.5 254.33,3694.5 M261.255,3681.24 C260.076,3681.24 259.748,3681.67 256.998,3683.719 C256.988,3682.253 255.62,3681.233 254.33,3681.233 C253.36,3681.233 251.921,3682.587 246,3687 L246,3682 C246,3681.447 245.552,3681 245,3681 C244.448,3681 244,3681.447 244,3682 L244,3696 C244,3696.552 244.448,3697 245,3697 C245.552,3697 246,3696.552 246,3696 L246,3691 L252.718,3695.927 C253.172,3696.253 253.839,3696.45 254.33,3696.45 C255.609,3696.45 256.96,3695.473 256.994,3694.028 C259.578,3695.95 260.009,3696.487 261.296,3696.487 C262.595,3696.487 264,3695.464 264,3693.985 L264,3683.748 C264,3682.269 262.554,3681.24 261.255,3681.24" id="next-[#983]"></path>
            </g>
        </g>
    </g>
</svg>