<?xml version="1.0" encoding="UTF-8" standalone="no"?>
<svg width="20px" height="12px" viewBox="0 0 20 12" version="1.1" xmlns="http://www.w3.org/2000/svg" xmlns:xlink="http://www.w3.org/1999/xlink">
    <!-- Generator: Sketch 3.8.1 (29687) - http://www.bohemiancoding.com/sketch -->
    <title>next_arrow [#13]</title>
    <desc>Created with Sketch.</desc>
    <defs></defs>
    <g id="Page-1" stroke="none" stroke-width="1" fill="none" fill-rule="evenodd">
        <g id="Dribbble-Dark-Preview" transform="translate(-260.000000, -8123.000000)" fill="#FFFFFF">
            <g id="icons" transform="translate(56.000000, 160.000000)">
                <path d="M213.121,7968.293 L212.414,7969 L213.121,7969.707 C213.512,7970.098 213.512,7970.731 213.121,7971.121 C212.73,7971.512 212.097,7971.512 211.707,7971.121 L211,7970.414 L210.293,7971.121 C209.902,7971.512 209.269,7971.512 208.878,7971.121 C208.488,7970.731 208.488,7970.098 208.878,7969.707 L209.585,7969 L208.878,7968.293 C208.488,7967.902 208.488,7967.269 208.878,7966.879 C209.269,7966.488 209.902,7966.488 210.293,7966.879 L211,7967.586 L211.707,7966.879 C212.097,7966.488 212.73,7966.488 213.121,7966.879 C213.512,7967.269 213.512,7967.902 213.121,7968.293 L213.121,7968.293 Z M216.8,7972.9 C216.713,7972.965 216.608,7973 216.5,7973 L207,7973 C206.447,7973 206,7972.552 206,7972 L206,7966 C206,7965.448 206.447,7965 207,7965 L216.5,7965 C216.608,7965 216.713,7965.035 216.8,7965.1 L222,7969 L216.8,7972.9 Z M223.2,7967.4 L217.6,7963.2 C217.427,7963.07 217.216,7963 217,7963 L206,7963 C204.895,7963 204,7963.895 204,7965 L204,7973 C204,7974.105 204.895,7975 206,7975 L217,7975 C217.216,7975 217.427,7974.93 217.6,7974.8 L223.2,7970.6 C224.266,7969.8 224.266,7968.2 223.2,7967.4 L223.2,7967.4 Z" id="next_arrow-[#13]"></path>
            </g>
        </g>
    </g>
</svg>