<?xml version="1.0" encoding="UTF-8" standalone="no"?>
<svg width="20px" height="14px" viewBox="0 0 20 14" version="1.1" xmlns="http://www.w3.org/2000/svg" xmlns:xlink="http://www.w3.org/1999/xlink">
    <!-- Generator: Sketch 3.8.1 (29687) - http://www.bohemiancoding.com/sketch -->
    <title>nightlight [#53]</title>
    <desc>Created with Sketch.</desc>
    <defs></defs>
    <g id="Page-1" stroke="none" stroke-width="1" fill="none" fill-rule="evenodd">
        <g id="Dribbble-Dark-Preview" transform="translate(-260.000000, -7959.000000)" fill="#FFFFFF">
            <g id="icons" transform="translate(56.000000, 160.000000)">
                <path d="M221,7811 L207,7811 C206.448,7811 206,7810.552 206,7810 C206,7809.448 206.448,7809 207,7809 L221,7809 C221.552,7809 222,7809.448 222,7810 C222,7810.552 221.552,7811 221,7811 M214,7803 C216.454,7803 218.927,7804.253 219.73,7807 L208.27,7807 C209.073,7804.253 211.546,7803 214,7803 M221.784,7807 C221.033,7803.553 218.339,7801.414 215,7801.059 L215,7799 L213,7799 L213,7801.059 C209.661,7801.414 206.967,7803.553 206.216,7807 C204.729,7807 204,7807.992 204,7809 L204,7811 C204,7812.105 204.896,7813 206,7813 L222,7813 C223.105,7813 224,7812.105 224,7811 L224,7809 C224,7807.99 223.272,7807 221.784,7807" id="nightlight-[#53]"></path>
            </g>
        </g>
    </g>
</svg>