<?xml version="1.0" encoding="UTF-8" standalone="no"?>
<svg width="20px" height="14px" viewBox="0 0 20 14" version="1.1" xmlns="http://www.w3.org/2000/svg" xmlns:xlink="http://www.w3.org/1999/xlink">
    <!-- Generator: Sketch 3.8.1 (29687) - http://www.bohemiancoding.com/sketch -->
    <title>nightlight [#52]</title>
    <desc>Created with Sketch.</desc>
    <defs></defs>
    <g id="Page-1" stroke="none" stroke-width="1" fill="none" fill-rule="evenodd">
        <g id="Dribbble-Dark-Preview" transform="translate(-300.000000, -7959.000000)" fill="#FFFFFF">
            <g id="icons" transform="translate(56.000000, 160.000000)">
                <path d="M246,7811 L262,7811 L262,7809 L246,7809 L246,7811 Z M253.995,7803 C256.45,7803 258.922,7804 259.726,7807 L248.265,7807 C249.068,7804 251.541,7803 253.995,7803 L253.995,7803 Z M261.78,7807 C261.029,7804 258,7801.531 255,7801.176 L255,7799 L253,7799 L253,7801.176 C250,7801.531 246.962,7804 246.211,7807 L244,7807 L244,7813 L264,7813 L264,7807 L261.78,7807 Z" id="nightlight-[#52]"></path>
            </g>
        </g>
    </g>
</svg>