<?xml version="1.0" encoding="UTF-8" standalone="no"?>
<svg width="18px" height="20px" viewBox="0 0 18 20" version="1.1" xmlns="http://www.w3.org/2000/svg" xmlns:xlink="http://www.w3.org/1999/xlink">
    <!-- Generator: Sketch 3.8.1 (29687) - http://www.bohemiancoding.com/sketch -->
    <title>notebook_and_pen [#1283]</title>
    <desc>Created with Sketch.</desc>
    <defs></defs>
    <g id="Page-1" stroke="none" stroke-width="1" fill="none" fill-rule="evenodd">
        <g id="Dribbble-Dark-Preview" transform="translate(-423.000000, -2439.000000)" fill="#FFFFFF">
            <g id="icons" transform="translate(56.000000, 160.000000)">
                <path d="M383,2281 L385,2281 L385,2279 L383,2279 L383,2281 Z M383,2299 L385,2299 L385,2283 L383,2283 L383,2299 Z M371,2297 L379,2297 L379,2281 L371,2281 L371,2297 Z M369,2283 L367,2283 L367,2285 L369,2285 L369,2287 L367,2287 L367,2289 L369,2289 L369,2291 L367,2291 L367,2293 L369,2293 L369,2295 L367,2295 L367,2297 L369,2297 L369,2299 L381,2299 L381,2279 L369,2279 L369,2283 Z" id="notebook_and_pen-[#1283]"></path>
            </g>
        </g>
    </g>
</svg>