<?xml version="1.0" encoding="UTF-8" standalone="no"?>
<svg width="14px" height="20px" viewBox="0 0 14 20" version="1.1" xmlns="http://www.w3.org/2000/svg" xmlns:xlink="http://www.w3.org/1999/xlink">
    <!-- Generator: Sketch 3.8.1 (29687) - http://www.bohemiancoding.com/sketch -->
    <title>notebook [#1286]</title>
    <desc>Created with Sketch.</desc>
    <defs></defs>
    <g id="Page-1" stroke="none" stroke-width="1" fill="none" fill-rule="evenodd">
        <g id="Dribbble-Dark-Preview" transform="translate(-303.000000, -2439.000000)" fill="#FFFFFF">
            <g id="icons" transform="translate(56.000000, 160.000000)">
                <path d="M259,2296 C259,2296.552 258.552,2297 258,2297 L252,2297 C251.448,2297 251,2296.552 251,2296 L251,2282 C251,2281.448 251.448,2281 252,2281 L258,2281 C258.552,2281 259,2281.448 259,2282 L259,2296 Z M259,2279 L251,2279 C249.895,2279 249,2279.895 249,2281 L249,2283 L248,2283 C247.448,2283 247,2283.448 247,2284 C247,2284.552 247.448,2285 248,2285 L249,2285 L249,2287 L248,2287 C247.448,2287 247,2287.448 247,2288 C247,2288.552 247.448,2289 248,2289 L249,2289 L249,2291 L248,2291 C247.448,2291 247,2291.448 247,2292 C247,2292.552 247.448,2293 248,2293 L249,2293 L249,2295 L248,2295 C247.448,2295 247,2295.448 247,2296 C247,2296.552 247.448,2297 248,2297 L249,2297 C249,2298.105 249.895,2299 251,2299 L259,2299 C260.105,2299 261,2298.105 261,2297 L261,2281 C261,2279.895 260.105,2279 259,2279 L259,2279 Z" id="notebook-[#1286]"></path>
            </g>
        </g>
    </g>
</svg>