<?xml version="1.0" encoding="UTF-8" standalone="no"?>
<svg width="14px" height="20px" viewBox="0 0 14 20" version="1.1" xmlns="http://www.w3.org/2000/svg" xmlns:xlink="http://www.w3.org/1999/xlink">
    <!-- Generator: Sketch 3.8.1 (29687) - http://www.bohemiancoding.com/sketch -->
    <title>notebook [#1278]</title>
    <desc>Created with Sketch.</desc>
    <defs></defs>
    <g id="Page-1" stroke="none" stroke-width="1" fill="none" fill-rule="evenodd">
        <g id="Dribbble-Dark-Preview" transform="translate(-223.000000, -2479.000000)" fill="#FFFFFF">
            <g id="icons" transform="translate(56.000000, 160.000000)">
                <path d="M173,2335 L177,2335 L177,2323 L173,2323 L173,2335 Z M171,2337 L179,2337 L179,2321 L171,2321 L171,2337 Z M169,2319 L169,2323 L167,2323 L167,2325 L169,2325 L169,2327 L167,2327 L167,2329 L169,2329 L169,2331 L167,2331 L167,2333 L169,2333 L169,2335 L167,2335 L167,2337 L169,2337 L169,2339 L181,2339 L181,2319 L169,2319 Z" id="notebook-[#1278]"></path>
            </g>
        </g>
    </g>
</svg>