<?xml version="1.0" encoding="UTF-8" standalone="no"?>
<svg width="18px" height="20px" viewBox="0 0 18 20" version="1.1" xmlns="http://www.w3.org/2000/svg" xmlns:xlink="http://www.w3.org/1999/xlink">
    <!-- Generator: Sketch 3.8.1 (29687) - http://www.bohemiancoding.com/sketch -->
    <title>notebook_and_pen [#1290]</title>
    <desc>Created with Sketch.</desc>
    <defs></defs>
    <g id="Page-1" stroke="none" stroke-width="1" fill="none" fill-rule="evenodd">
        <g id="Dribbble-Dark-Preview" transform="translate(-141.000000, -2439.000000)" fill="#FFFFFF">
            <g id="icons" transform="translate(56.000000, 160.000000)">
                <path d="M102,2279 C101.448,2279 101,2279.448 101,2280 L101,2281 L103,2281 L103,2280 C103,2279.448 102.552,2279 102,2279 L102,2279 Z M101,2298 C101,2298.552 101.448,2299 102,2299 C102.552,2299 103,2298.552 103,2298 L103,2283 L101,2283 L101,2298 Z M97,2282 C97,2281.448 96.552,2281 96,2281 L90,2281 C89.448,2281 89,2281.448 89,2282 L89,2296 C89,2296.552 89.448,2297 90,2297 L96,2297 C96.552,2297 97,2296.552 97,2296 L97,2282 Z M99,2281 L99,2297 C99,2298.104 98.105,2299 97,2299 L89,2299 C87.895,2299 87,2298.104 87,2297 L86,2297 C85.448,2297 85,2296.552 85,2296 C85,2295.448 85.448,2295 86,2295 L87,2295 L87,2293 L86,2293 C85.448,2293 85,2292.552 85,2292 C85,2291.448 85.448,2291 86,2291 L87,2291 L87,2289 L86,2289 C85.448,2289 85,2288.552 85,2288 C85,2287.448 85.448,2287 86,2287 L87,2287 L87,2285 L86,2285 C85.448,2285 85,2284.552 85,2284 C85,2283.448 85.448,2283 86,2283 L87,2283 L87,2281 C87,2279.896 87.895,2279 89,2279 L97,2279 C98.105,2279 99,2279.896 99,2281 L99,2281 Z M95,2284 L95,2294 C95,2294.552 94.552,2295 94,2295 L92,2295 C91.448,2295 91,2294.552 91,2294 L91,2284 C91,2283.448 91.448,2283 92,2283 L94,2283 C94.552,2283 95,2283.448 95,2284 L95,2284 Z" id="notebook_and_pen-[#1290]"></path>
            </g>
        </g>
    </g>
</svg>