<?xml version="1.0" encoding="UTF-8" standalone="no"?>
<svg width="14px" height="20px" viewBox="0 0 14 20" version="1.1" xmlns="http://www.w3.org/2000/svg" xmlns:xlink="http://www.w3.org/1999/xlink">
    <!-- Generator: Sketch 3.8.1 (29687) - http://www.bohemiancoding.com/sketch -->
    <title>notebook [#1279]</title>
    <desc>Created with Sketch.</desc>
    <defs></defs>
    <g id="Page-1" stroke="none" stroke-width="1" fill="none" fill-rule="evenodd">
        <g id="Dribbble-Dark-Preview" transform="translate(-183.000000, -2479.000000)" fill="#FFFFFF">
            <g id="icons" transform="translate(56.000000, 160.000000)">
                <path d="M133,2335 L137,2335 L137,2323 L133,2323 L133,2335 Z M131,2337 L139,2337 L139,2321 L131,2321 L131,2337 Z M129,2319 L129,2323 L127,2323 L127,2325 L129,2325 L129,2327 L127,2327 L127,2329 L129,2329 L129,2331 L127,2331 L127,2333 L129,2333 L129,2335 L127,2335 L127,2337 L129,2337 L129,2339 L141,2339 L141,2319 L129,2319 Z" id="notebook-[#1279]"></path>
            </g>
        </g>
    </g>
</svg>