<?xml version="1.0" encoding="UTF-8" standalone="no"?>
<svg width="20px" height="20px" viewBox="0 0 20 20" version="1.1" xmlns="http://www.w3.org/2000/svg" xmlns:xlink="http://www.w3.org/1999/xlink">
    <!-- Generator: Sketch 3.8.1 (29687) - http://www.bohemiancoding.com/sketch -->
    <title>notebook_and_pen [#1288]</title>
    <desc>Created with Sketch.</desc>
    <defs></defs>
    <g id="Page-1" stroke="none" stroke-width="1" fill="none" fill-rule="evenodd">
        <g id="Dribbble-Dark-Preview" transform="translate(-220.000000, -2439.000000)" fill="#FFFFFF">
            <g id="icons" transform="translate(56.000000, 160.000000)">
                <path d="M184,2280 C184,2280.552 183.552,2281 183,2281 C182.448,2281 182,2281.448 182,2282 L182,2298 C182,2298.552 181.552,2299 181,2299 C180.448,2299 180,2298.552 180,2298 L180,2281 C180,2279.895 180.895,2279 182,2279 L183,2279 C183.552,2279 184,2279.448 184,2280 L184,2280 Z M174,2284 L174,2294 C174,2294.552 173.552,2295 173,2295 L171,2295 C170.448,2295 170,2294.552 170,2294 L170,2284 C170,2283.448 170.448,2283 171,2283 L173,2283 C173.552,2283 174,2283.448 174,2284 L174,2284 Z M176,2296 C176,2296.552 175.552,2297 175,2297 L169,2297 C168.448,2297 168,2296.552 168,2296 L168,2282 C168,2281.448 168.448,2281 169,2281 L175,2281 C175.552,2281 176,2281.448 176,2282 L176,2296 Z M176,2279 L168,2279 C166.895,2279 166,2279.895 166,2281 L166,2283 L165,2283 C164.448,2283 164,2283.448 164,2284 C164,2284.552 164.448,2285 165,2285 L166,2285 L166,2287 L165,2287 C164.448,2287 164,2287.448 164,2288 C164,2288.552 164.448,2289 165,2289 L166,2289 L166,2291 L165,2291 C164.448,2291 164,2291.448 164,2292 C164,2292.552 164.448,2293 165,2293 L166,2293 L166,2295 L165,2295 C164.448,2295 164,2295.448 164,2296 C164,2296.552 164.448,2297 165,2297 L166,2297 C166,2298.105 166.895,2299 168,2299 L176,2299 C177.105,2299 178,2298.105 178,2297 L178,2281 C178,2279.895 177.105,2279 176,2279 L176,2279 Z" id="notebook_and_pen-[#1288]"></path>
            </g>
        </g>
    </g>
</svg>