<?xml version="1.0" encoding="UTF-8" standalone="no"?>
<svg width="14px" height="20px" viewBox="0 0 14 20" version="1.1" xmlns="http://www.w3.org/2000/svg" xmlns:xlink="http://www.w3.org/1999/xlink">
    <!-- Generator: Sketch 3.8.1 (29687) - http://www.bohemiancoding.com/sketch -->
    <title>notebook [#1285]</title>
    <desc>Created with Sketch.</desc>
    <defs></defs>
    <g id="Page-1" stroke="none" stroke-width="1" fill="none" fill-rule="evenodd">
        <g id="Dribbble-Dark-Preview" transform="translate(-343.000000, -2439.000000)" fill="#FFFFFF">
            <g id="icons" transform="translate(56.000000, 160.000000)">
                <path d="M297,2283.998 L297,2294.001 C297,2294.553 296.553,2295 296.002,2295 L293.998,2295 C293.447,2295 293,2294.553 293,2294.001 L293,2283.998 C293,2283.447 293.447,2283 293.998,2283 L296.002,2283 C296.553,2283 297,2283.447 297,2283.998 L297,2283.998 Z M299,2296 C299,2296.552 298.552,2297 298,2297 L292,2297 C291.448,2297 291,2296.552 291,2296 L291,2282 C291,2281.447 291.448,2281 292,2281 L298,2281 C298.552,2281 299,2281.447 299,2282 L299,2296 Z M299,2279 L291,2279 C289.895,2279 289,2279.895 289,2281 L289,2283 L288,2283 C287.448,2283 287,2283.447 287,2284 C287,2284.552 287.448,2285 288,2285 L289,2285 L289,2287 L288,2287 C287.448,2287 287,2287.447 287,2288 C287,2288.552 287.448,2289 288,2289 L289,2289 L289,2291 L288,2291 C287.448,2291 287,2291.447 287,2292 C287,2292.552 287.448,2293 288,2293 L289,2293 L289,2295 L288,2295 C287.448,2295 287,2295.447 287,2296 C287,2296.552 287.448,2297 288,2297 L289,2297 C289,2298.104 289.895,2299 291,2299 L299,2299 C300.105,2299 301,2298.104 301,2297 L301,2281 C301,2279.895 300.105,2279 299,2279 L299,2279 Z" id="notebook-[#1285]"></path>
            </g>
        </g>
    </g>
</svg>