<?xml version="1.0" encoding="UTF-8" standalone="no"?>
<svg width="20px" height="20px" viewBox="0 0 20 20" version="1.1" xmlns="http://www.w3.org/2000/svg" xmlns:xlink="http://www.w3.org/1999/xlink">
    <!-- Generator: Sketch 3.8.1 (29687) - http://www.bohemiancoding.com/sketch -->
    <title>notebook_and_pen [#1282]</title>
    <desc>Created with Sketch.</desc>
    <defs></defs>
    <g id="Page-1" stroke="none" stroke-width="1" fill="none" fill-rule="evenodd">
        <g id="Dribbble-Dark-Preview" transform="translate(-60.000000, -2479.000000)" fill="#FFFFFF">
            <g id="icons" transform="translate(56.000000, 160.000000)">
                <path d="M24,2319 L24,2321 L22,2321 L22,2339 L20,2339 L20,2319 L24,2319 Z M10,2335 L14,2335 L14,2323 L10,2323 L10,2335 Z M8,2337 L16,2337 L16,2321 L8,2321 L8,2337 Z M6,2323 L4,2323 L4,2325 L6,2325 L6,2327 L4,2327 L4,2329 L6,2329 L6,2331 L4,2331 L4,2333 L6,2333 L6,2335 L4,2335 L4,2337 L6,2337 L6,2339 L18,2339 L18,2319 L6,2319 L6,2323 Z" id="notebook_and_pen-[#1282]"></path>
            </g>
        </g>
    </g>
</svg>