<?xml version="1.0" encoding="UTF-8" standalone="no"?>
<svg width="18px" height="20px" viewBox="0 0 18 20" version="1.1" xmlns="http://www.w3.org/2000/svg" xmlns:xlink="http://www.w3.org/1999/xlink">
    <!-- Generator: Sketch 3.8.1 (29687) - http://www.bohemiancoding.com/sketch -->
    <title>notebook_and_pen [#1284]</title>
    <desc>Created with Sketch.</desc>
    <defs></defs>
    <g id="Page-1" stroke="none" stroke-width="1" fill="none" fill-rule="evenodd">
        <g id="Dribbble-Dark-Preview" transform="translate(-381.000000, -2439.000000)" fill="#FFFFFF">
            <g id="icons" transform="translate(56.000000, 160.000000)">
                <path d="M341,2281 L343,2281 L343,2279 L341,2279 L341,2281 Z M341,2299 L343,2299 L343,2283 L341,2283 L341,2299 Z M329,2297 L337,2297 L337,2281 L329,2281 L329,2297 Z M327,2283 L325,2283 L325,2285 L327,2285 L327,2287 L325,2287 L325,2289 L327,2289 L327,2291 L325,2291 L325,2293 L327,2293 L327,2295 L325,2295 L325,2297 L327,2297 L327,2299 L339,2299 L339,2279 L327,2279 L327,2283 Z" id="notebook_and_pen-[#1284]"></path>
            </g>
        </g>
    </g>
</svg>