<?xml version="1.0" encoding="UTF-8" standalone="no"?>
<svg width="18px" height="20px" viewBox="0 0 18 20" version="1.1" xmlns="http://www.w3.org/2000/svg" xmlns:xlink="http://www.w3.org/1999/xlink">
    <!-- Generator: Sketch 3.8.1 (29687) - http://www.bohemiancoding.com/sketch -->
    <title>notebook_and_pen [#1289]</title>
    <desc>Created with Sketch.</desc>
    <defs></defs>
    <g id="Page-1" stroke="none" stroke-width="1" fill="none" fill-rule="evenodd">
        <g id="Dribbble-Dark-Preview" transform="translate(-181.000000, -2439.000000)" fill="#FFFFFF">
            <g id="icons" transform="translate(56.000000, 160.000000)">
                <path d="M143,2280 L143,2281 L141,2281 L141,2280 C141,2279.448 141.448,2279 142,2279 C142.552,2279 143,2279.448 143,2280 L143,2280 Z M141,2283 L143,2283 L143,2298 C143,2298.552 142.552,2299 142,2299 C141.448,2299 141,2298.552 141,2298 L141,2283 Z M137,2296 C137,2296.552 136.552,2297 136,2297 L130,2297 C129.448,2297 129,2296.552 129,2296 L129,2282 C129,2281.448 129.448,2281 130,2281 L136,2281 C136.552,2281 137,2281.448 137,2282 L137,2296 Z M137,2279 L129,2279 C127.895,2279 127,2279.895 127,2281 L127,2283 L126,2283 C125.448,2283 125,2283.448 125,2284 C125,2284.552 125.448,2285 126,2285 L127,2285 L127,2287 L126,2287 C125.448,2287 125,2287.448 125,2288 C125,2288.552 125.448,2289 126,2289 L127,2289 L127,2291 L126,2291 C125.448,2291 125,2291.448 125,2292 C125,2292.552 125.448,2293 126,2293 L127,2293 L127,2295 L126,2295 C125.448,2295 125,2295.448 125,2296 C125,2296.552 125.448,2297 126,2297 L127,2297 C127,2298.105 127.895,2299 129,2299 L137,2299 C138.105,2299 139,2298.105 139,2297 L139,2281 C139,2279.895 138.105,2279 137,2279 L137,2279 Z" id="notebook_and_pen-[#1289]"></path>
            </g>
        </g>
    </g>
</svg>