<?xml version="1.0" encoding="UTF-8" standalone="no"?>
<svg width="20px" height="20px" viewBox="0 0 20 20" version="1.1" xmlns="http://www.w3.org/2000/svg" xmlns:xlink="http://www.w3.org/1999/xlink">
    <!-- Generator: Sketch 3.8.1 (29687) - http://www.bohemiancoding.com/sketch -->
    <title>notebook_and_pen [#1287]</title>
    <desc>Created with Sketch.</desc>
    <defs></defs>
    <g id="Page-1" stroke="none" stroke-width="1" fill="none" fill-rule="evenodd">
        <g id="Dribbble-Dark-Preview" transform="translate(-260.000000, -2439.000000)" fill="#FFFFFF">
            <g id="icons" transform="translate(56.000000, 160.000000)">
                <path d="M224,2280 C224,2280.552 223.552,2281 223,2281 C222.448,2281 222,2281.448 222,2282 L222,2298 C222,2298.552 221.552,2299 221,2299 C220.448,2299 220,2298.552 220,2298 L220,2281 C220,2279.895 220.895,2279 222,2279 L223,2279 C223.552,2279 224,2279.448 224,2280 L224,2280 Z M216,2296 C216,2296.552 215.552,2297 215,2297 L209,2297 C208.448,2297 208,2296.552 208,2296 L208,2282 C208,2281.448 208.448,2281 209,2281 L215,2281 C215.552,2281 216,2281.448 216,2282 L216,2296 Z M216,2279 L208,2279 C206.895,2279 206,2279.895 206,2281 L206,2283 L205,2283 C204.448,2283 204,2283.448 204,2284 C204,2284.552 204.448,2285 205,2285 L206,2285 L206,2287 L205,2287 C204.448,2287 204,2287.448 204,2288 C204,2288.552 204.448,2289 205,2289 L206,2289 L206,2291 L205,2291 C204.448,2291 204,2291.448 204,2292 C204,2292.552 204.448,2293 205,2293 L206,2293 L206,2295 L205,2295 C204.448,2295 204,2295.448 204,2296 C204,2296.552 204.448,2297 205,2297 L206,2297 C206,2298.105 206.895,2299 208,2299 L216,2299 C217.105,2299 218,2298.105 218,2297 L218,2281 C218,2279.895 217.105,2279 216,2279 L216,2279 Z" id="notebook_and_pen-[#1287]"></path>
            </g>
        </g>
    </g>
</svg>