<?xml version="1.0" encoding="UTF-8" standalone="no"?>
<svg width="20px" height="20px" viewBox="0 0 20 20" version="1.1" xmlns="http://www.w3.org/2000/svg" xmlns:xlink="http://www.w3.org/1999/xlink">
    <!-- Generator: Sketch 3.8.1 (29687) - http://www.bohemiancoding.com/sketch -->
    <title>notebook_and_pen [#1281]</title>
    <desc>Created with Sketch.</desc>
    <defs></defs>
    <g id="Page-1" stroke="none" stroke-width="1" fill="none" fill-rule="evenodd">
        <g id="Dribbble-Dark-Preview" transform="translate(-100.000000, -2479.000000)" fill="#FFFFFF">
            <g id="icons" transform="translate(56.000000, 160.000000)">
                <path d="M64,2319 L64,2321 L62,2321 L62,2339 L60,2339 L60,2319 L64,2319 Z M48,2337 L56,2337 L56,2321 L48,2321 L48,2337 Z M46,2323 L44,2323 L44,2325 L46,2325 L46,2327 L44,2327 L44,2329 L46,2329 L46,2331 L44,2331 L44,2333 L46,2333 L46,2335 L44,2335 L44,2337 L46,2337 L46,2339 L58,2339 L58,2319 L46,2319 L46,2323 Z" id="notebook_and_pen-[#1281]"></path>
            </g>
        </g>
    </g>
</svg>