<?xml version="1.0" encoding="UTF-8" standalone="no"?>
<svg width="17px" height="20px" viewBox="0 0 17 20" version="1.1" xmlns="http://www.w3.org/2000/svg" xmlns:xlink="http://www.w3.org/1999/xlink">
    <!-- Generator: Sketch 3.8.1 (29687) - http://www.bohemiancoding.com/sketch -->
    <title>notification_bell [#1395]</title>
    <desc>Created with Sketch.</desc>
    <defs></defs>
    <g id="Page-1" stroke="none" stroke-width="1" fill="none" fill-rule="evenodd">
        <g id="Dribbble-Dark-Preview" transform="translate(-261.000000, -720.000000)" fill="#FFFFFF">
            <g id="icons" transform="translate(56.000000, 160.000000)">
                <path d="M217.75,574 L209.25,574 L209.25,568 C209.25,565.334 211.375,564 213.498937,564 L213.501063,564 C215.625,564 217.75,565.334 217.75,568 L217.75,574 Z M214.5625,577 C214.5625,577.552 214.0865,578 213.5,578 C212.9135,578 212.4375,577.552 212.4375,577 L212.4375,576 L214.5625,576 L214.5625,577 Z M219.875,574 L219.875,568 C219.875,564.447 217.359,562.475 214.5625,562.079 L214.5625,560 L212.4375,560 L212.4375,562.079 C209.641,562.475 207.125,564.447 207.125,568 L207.125,574 L205,574 L205,576 L210.3125,576 L210.3125,577 C210.3125,578.657 211.739437,580 213.5,580 C215.260563,580 216.6875,578.657 216.6875,577 L216.6875,576 L222,576 L222,574 L219.875,574 Z" id="notification_bell-[#1395]"></path>
            </g>
        </g>
    </g>
</svg>