<?xml version="1.0" encoding="UTF-8" standalone="no"?>
<svg width="17px" height="20px" viewBox="0 0 17 20" version="1.1" xmlns="http://www.w3.org/2000/svg" xmlns:xlink="http://www.w3.org/1999/xlink">
    <!-- Generator: Sketch 3.8.1 (29687) - http://www.bohemiancoding.com/sketch -->
    <title>notification_bell [#1398]</title>
    <desc>Created with Sketch.</desc>
    <defs></defs>
    <g id="Page-1" stroke="none" stroke-width="1" fill="none" fill-rule="evenodd">
        <g id="Dribbble-Dark-Preview" transform="translate(-141.000000, -720.000000)" fill="#FFFFFF">
            <g id="icons" transform="translate(56.000000, 160.000000)">
                <path d="M97.75,574 L89.25,574 L89.25,568 C89.25,565.334 91.375,564 93.4989375,564 L93.5010625,564 C95.625,564 97.75,565.334 97.75,568 L97.75,574 Z M94.5625,577 C94.5625,577.552 94.0865,578 93.5,578 C92.9135,578 92.4375,577.552 92.4375,577 L92.4375,576 L94.5625,576 L94.5625,577 Z M100.9375,574 L99.875,574 L99.875,568 C99.875,564.447 97.359,562.475 94.5625,562.079 L94.5625,560 L92.4375,560 L92.4375,562.079 C89.641,562.475 87.125,564.447 87.125,568 L87.125,574 L86.0625,574 C85.476,574 85,574.448 85,575 C85,575.552 85.476,576 86.0625,576 L90.3125,576 L90.3125,577 C90.3125,578.657 91.7394375,580 93.5,580 C95.2605625,580 96.6875,578.657 96.6875,577 L96.6875,576 L100.9375,576 C101.524,576 102,575.552 102,575 C102,574.448 101.524,574 100.9375,574 L100.9375,574 Z" id="notification_bell-[#1398]"></path>
            </g>
        </g>
    </g>
</svg>