<?xml version="1.0" encoding="UTF-8" standalone="no"?>
<svg width="20px" height="20px" viewBox="0 0 20 20" version="1.1" xmlns="http://www.w3.org/2000/svg" xmlns:xlink="http://www.w3.org/1999/xlink">
    <!-- Generator: Sketch 3.8.1 (29687) - http://www.bohemiancoding.com/sketch -->
    <title>object_placement [#67]</title>
    <desc>Created with Sketch.</desc>
    <defs></defs>
    <g id="Page-1" stroke="none" stroke-width="1" fill="none" fill-rule="evenodd">
        <g id="Dribbble-Dark-Preview" transform="translate(-100.000000, -7919.000000)" fill="#FFFFFF">
            <g id="icons" transform="translate(56.000000, 160.000000)">
                <path d="M44,7770 L64,7770 L64,7768 L44,7768 L44,7770 Z M50,7777 L62,7777 L62,7774 L50,7774 L50,7777 Z M46,7777 L48,7777 L48,7774 L46,7774 L46,7777 Z M50,7772 L48,7772 L46,7772 L44,7772 L44,7774 L44,7777 L44,7779 L46,7779 L48,7779 L50,7779 L62,7779 L64,7779 L64,7772 L62,7772 L50,7772 Z M50,7764 L62,7764 L62,7761 L50,7761 L50,7764 Z M46,7764 L48,7764 L48,7761 L46,7761 L46,7764 Z M62,7759 L50,7759 L48,7759 L46,7759 L44,7759 L44,7761 L44,7764 L44,7766 L46,7766 L48,7766 L50,7766 L62,7766 L64,7766 L64,7759 L62,7759 Z" id="object_placement-[#67]"></path>
            </g>
        </g>
    </g>
</svg>