<?xml version="1.0" encoding="UTF-8" standalone="no"?>
<svg width="20px" height="14px" viewBox="0 0 20 14" version="1.1" xmlns="http://www.w3.org/2000/svg" xmlns:xlink="http://www.w3.org/1999/xlink">
    <!-- Generator: Sketch 3.8.1 (29687) - http://www.bohemiancoding.com/sketch -->
    <title>object_alignment_round [#875]</title>
    <desc>Created with Sketch.</desc>
    <defs></defs>
    <g id="Page-1" stroke="none" stroke-width="1" fill="none" fill-rule="evenodd">
        <g id="Dribbble-Dark-Preview" transform="translate(-260.000000, -4322.000000)" fill="#FFFFFF">
            <g id="icons" transform="translate(56.000000, 160.000000)">
                <path d="M222,4167.9469 L212,4167.9469 L212,4165.22124 C212,4164.67412 212.353,4163.9823 212.905,4163.9823 L215.905,4163.9823 L217.905,4163.9823 L220.907,4163.9823 C221.458,4163.9823 222,4164.67313 222,4165.21926 L222,4167.9469 Z M222,4173.15044 C222,4173.69756 221.458,4173.89381 220.905,4173.89381 L206.905,4173.89381 C206.353,4173.89381 206,4173.69756 206,4173.15044 L206,4171.16814 C206,4170.62103 206.353,4169.9292 206.905,4169.9292 L209.905,4169.9292 L211.905,4169.9292 L222,4169.9292 L222,4173.15044 Z M223.953,4164.10619 C223.953,4163.01097 223.01,4162 221.905,4162 L211.905,4162 C210.801,4162 210,4163.13487 210,4164.23009 L210,4167.9469 L205.905,4167.9469 C204.801,4167.9469 204,4169.08177 204,4170.17699 L204,4174.14159 C204,4175.23681 204.801,4175.87611 205.905,4175.87611 L222,4176 C223,4176 224,4175.17437 224,4174.07915 L224,4170.17699 L224,4168.19469 L224,4164.23009 L223.953,4164.10619 Z" id="object_alignment_round-[#875]"></path>
            </g>
        </g>
    </g>
</svg>