<?xml version="1.0" encoding="UTF-8" standalone="no"?>
<svg width="20px" height="20px" viewBox="0 0 20 20" version="1.1" xmlns="http://www.w3.org/2000/svg" xmlns:xlink="http://www.w3.org/1999/xlink">
    <!-- Generator: Sketch 3.8.1 (29687) - http://www.bohemiancoding.com/sketch -->
    <title>object_distribution_round [#901]</title>
    <desc>Created with Sketch.</desc>
    <defs></defs>
    <g id="Page-1" stroke="none" stroke-width="1" fill="none" fill-rule="evenodd">
        <g id="Dribbble-Dark-Preview" transform="translate(-420.000000, -4199.000000)" fill="#FFFFFF">
            <g id="icons" transform="translate(56.000000, 160.000000)">
                <path d="M382,4045.9997 C382,4046.5517 381.552,4046.9997 381,4046.9997 L377,4046.9997 C376.448,4046.9997 376,4046.5517 376,4045.9997 L376,4042.0007 C376,4041.4477 376.448,4040.9997 377,4040.9997 L381,4040.9997 C381.552,4040.9997 382,4041.4477 382,4042.0007 L382,4045.9997 Z M380,4054.0637 C380,4054.6167 379.351,4054.9997 378.798,4054.9997 L374.798,4054.9997 L374,4054.9997 L374,4051.0647 C374,4049.9597 372.903,4048.9997 371.798,4048.9997 L368,4048.9997 L368,4048.1897 L368,4044.0647 C368,4043.5127 368.246,4042.9997 368.799,4042.9997 L374,4042.9997 L374,4043.1897 L374,4047.0647 C374,4048.1687 374.694,4048.9997 375.798,4048.9997 L380,4048.9997 L380,4054.0637 Z M372,4055.9997 C372,4056.5517 371.552,4056.9997 371,4056.9997 L367,4056.9997 C366.448,4056.9997 366,4056.5517 366,4055.9997 L366,4052.0007 C366,4051.4477 366.448,4050.9997 367,4050.9997 L371,4050.9997 C371.552,4050.9997 372,4051.4477 372,4052.0007 L372,4055.9997 Z M382,4055.0647 L382,4049.0647 C383.105,4049.0647 384,4048.1687 384,4047.0647 L384,4041.0647 C384,4039.9597 382.903,4038.9997 381.798,4038.9997 L375.798,4038.9997 C374.694,4038.9997 373.798,4039.8957 373.798,4040.9997 L367.798,4040.9997 C366.694,4040.9997 366,4041.9597 366,4043.0647 L366,4049.0647 C364.895,4049.0647 364,4049.9597 364,4051.0647 L364,4057.0647 C364,4058.1687 364.694,4058.9997 365.798,4058.9997 L371.798,4058.9997 C372.903,4058.9997 373.798,4058.1047 373.798,4056.9997 L379.798,4056.9997 C380.903,4056.9997 382,4056.1687 382,4055.0647 L382,4055.0647 Z" id="object_distribution_round-[#901]"></path>
            </g>
        </g>
    </g>
</svg>