<?xml version="1.0" encoding="UTF-8" standalone="no"?>
<svg width="20px" height="20px" viewBox="0 0 20 20" version="1.1" xmlns="http://www.w3.org/2000/svg" xmlns:xlink="http://www.w3.org/1999/xlink">
    <!-- Generator: Sketch 3.8.1 (29687) - http://www.bohemiancoding.com/sketch -->
    <title>object_connection [#1093]</title>
    <desc>Created with Sketch.</desc>
    <defs></defs>
    <g id="Page-1" stroke="none" stroke-width="1" fill="none" fill-rule="evenodd">
        <g id="Dribbble-Dark-Preview" transform="translate(-260.000000, -3359.000000)" fill="#FFFFFF">
            <g id="icons" transform="translate(56.000000, 160.000000)">
                <path d="M206,3217 L210,3217 L210,3213 L206,3213 L206,3217 Z M204,3219 L212,3219 L212,3211 L204,3211 L204,3219 Z M219,3209 L221,3209 L221,3216 L214,3216 L214,3214 L219,3214 L219,3209 Z M218,3205 L222,3205 L222,3201 L218,3201 L218,3205 Z M216,3207 L224,3207 L224,3199 L216,3199 L216,3207 Z" id="object_connection-[#1093]"></path>
            </g>
        </g>
    </g>
</svg>