<?xml version="1.0" encoding="UTF-8" standalone="no"?>
<svg width="20px" height="20px" viewBox="0 0 20 20" version="1.1" xmlns="http://www.w3.org/2000/svg" xmlns:xlink="http://www.w3.org/1999/xlink">
    <!-- Generator: Sketch 3.8.1 (29687) - http://www.bohemiancoding.com/sketch -->
    <title>object_connection_round [#1095]</title>
    <desc>Created with Sketch.</desc>
    <defs></defs>
    <g id="Page-1" stroke="none" stroke-width="1" fill="none" fill-rule="evenodd">
        <g id="Dribbble-Dark-Preview" transform="translate(-181.000000, -3359.000000)" fill="#FFFFFF">
            <g id="icons" transform="translate(56.000000, 160.000000)">
                <path d="M131,3214 C131,3213.448 130.552,3213 130,3213 L128,3213 C127.448,3213 127,3213.448 127,3214 L127,3216 C127,3216.552 127.448,3217 128,3217 L130,3217 C130.552,3217 131,3216.552 131,3216 L131,3214 Z M133,3213 L133,3217 C133,3218.105 132.105,3219 131,3219 L127,3219 C125.895,3219 125,3218.105 125,3217 L125,3213 C125,3211.895 125.895,3211 127,3211 L131,3211 C132.105,3211 133,3211.895 133,3213 L133,3213 Z M143,3202 C143,3201.448 142.552,3201 142,3201 L140,3201 C139.448,3201 139,3201.448 139,3202 L139,3204 C139,3204.552 139.448,3205 140,3205 L142,3205 C142.552,3205 143,3204.552 143,3204 L143,3202 Z M145,3201 L145,3205 C145,3206.105 144.105,3207 143,3207 L139,3207 C137.895,3207 137,3206.105 137,3205 L137,3201 C137,3199.895 137.895,3199 139,3199 L143,3199 C144.105,3199 145,3199.895 145,3201 L145,3201 Z M143,3209.995 C143,3210.547 142.552,3210.99 142,3210.99 L142,3213.99 C142,3215.095 141.105,3216 140,3216 L137,3216 C137,3217 136.552,3216.995 136,3216.995 C135.448,3216.995 135,3216.543 135,3215.99 L135,3213.99 C135,3213.438 135.448,3212.995 136,3212.995 C136.552,3212.995 137,3213 137,3214 L139,3214 C139.552,3214 140,3213.543 140,3212.99 L140,3210.99 C139.448,3210.99 139,3210.547 139,3209.995 C139,3209.443 139.448,3209 140,3209 L142,3209 C142.552,3209 143,3209.443 143,3209.995 L143,3209.995 Z" id="object_connection_round-[#1095]"></path>
            </g>
        </g>
    </g>
</svg>