<?xml version="1.0" encoding="UTF-8" standalone="no"?>
<svg width="20px" height="20px" viewBox="0 0 20 20" version="1.1" xmlns="http://www.w3.org/2000/svg" xmlns:xlink="http://www.w3.org/1999/xlink">
    <!-- Generator: Sketch 3.8.1 (29687) - http://www.bohemiancoding.com/sketch -->
    <title>object_connection_round [#1094]</title>
    <desc>Created with Sketch.</desc>
    <defs></defs>
    <g id="Page-1" stroke="none" stroke-width="1" fill="none" fill-rule="evenodd">
        <g id="Dribbble-Dark-Preview" transform="translate(-220.000000, -3359.000000)" fill="#FFFFFF">
            <g id="icons" transform="translate(56.000000, 160.000000)">
                <path d="M170,3216 C170,3216.552 169.552,3217 169,3217 L167,3217 C166.448,3217 166,3216.552 166,3216 L166,3214 C166,3213.448 166.448,3213 167,3213 L169,3213 C169.552,3213 170,3213.448 170,3214 L170,3216 Z M170,3211 L166,3211 C164.895,3211 164,3211.895 164,3213 L164,3217 C164,3218.105 164.895,3219 166,3219 L170,3219 C171.105,3219 172,3218.105 172,3217 L172,3213 C172,3211.895 171.105,3211 170,3211 L170,3211 Z M181,3210 L181,3214 C181,3215.105 180.105,3216 179,3216 L175,3216 C174.448,3216 174,3215.552 174,3215 C174,3214.448 174.448,3214 175,3214 L178,3214 C178.552,3214 179,3213.552 179,3213 L179,3210 C179,3209.448 179.448,3209 180,3209 C180.552,3209 181,3209.448 181,3210 L181,3210 Z M182,3204 C182,3204.552 181.552,3205 181,3205 L179,3205 C178.448,3205 178,3204.552 178,3204 L178,3202 C178,3201.448 178.448,3201 179,3201 L181,3201 C181.552,3201 182,3201.448 182,3202 L182,3204 Z M182,3199 L178,3199 C176.895,3199 176,3199.895 176,3201 L176,3205 C176,3206.105 176.895,3207 178,3207 L182,3207 C183.105,3207 184,3206.105 184,3205 L184,3201 C184,3199.895 183.105,3199 182,3199 L182,3199 Z" id="object_connection_round-[#1094]"></path>
            </g>
        </g>
    </g>
</svg>