<?xml version="1.0" encoding="UTF-8" standalone="no"?>
<svg width="20px" height="20px" viewBox="0 0 20 20" version="1.1" xmlns="http://www.w3.org/2000/svg" xmlns:xlink="http://www.w3.org/1999/xlink">
    <!-- Generator: Sketch 3.8.1 (29687) - http://www.bohemiancoding.com/sketch -->
    <title>object_alignment [#872]</title>
    <desc>Created with Sketch.</desc>
    <defs></defs>
    <g id="Page-1" stroke="none" stroke-width="1" fill="none" fill-rule="evenodd">
        <g id="Dribbble-Dark-Preview" transform="translate(-380.000000, -4319.000000)" fill="#FFFFFF">
            <g id="icons" transform="translate(56.000000, 160.000000)">
                <path d="M338,4177 L342,4177 L342,4173 L338,4173 L338,4177 Z M332,4177 L332,4167 L336,4167 L336,4171.343 L336,4173.343 L336,4177 L332,4177 Z M326,4177 L326,4161 L330,4161 L330,4165.343 L330,4167.343 L330,4177 L326,4177 Z M338,4171 L338,4167.343 L338,4165 L336.033,4165 L332,4165 L332,4161.343 L332,4159 L330.033,4159 L326.033,4159 L324,4159 L324,4161.343 L324,4177.343 L324,4179 L326.033,4179 L330.033,4179 L332.033,4179 L336.033,4179 L338.033,4179 L342.033,4179 L344,4179 L344,4177.343 L344,4173.343 L344,4171.345 L344,4171 L338,4171 Z" id="object_alignment-[#872]"></path>
            </g>
        </g>
    </g>
</svg>