<?xml version="1.0" encoding="UTF-8" standalone="no"?>
<svg width="20px" height="20px" viewBox="0 0 20 20" version="1.1" xmlns="http://www.w3.org/2000/svg" xmlns:xlink="http://www.w3.org/1999/xlink">
    <!-- Generator: Sketch 3.8.1 (29687) - http://www.bohemiancoding.com/sketch -->
    <title>object_connection_round [#1091]</title>
    <desc>Created with Sketch.</desc>
    <defs></defs>
    <g id="Page-1" stroke="none" stroke-width="1" fill="none" fill-rule="evenodd">
        <g id="Dribbble-Dark-Preview" transform="translate(-340.000000, -3359.000000)" fill="#FFFFFF">
            <g id="icons" transform="translate(56.000000, 160.000000)">
                <path d="M302,3202 C302,3201.448 301.552,3201 301,3201 L299,3201 C298.448,3201 298,3201.448 298,3202 L298,3204 C298,3204.552 298.448,3205 299,3205 L301,3205 C301.552,3205 302,3204.552 302,3204 L302,3202 Z M304,3201 L304,3205 C304,3206.105 303.105,3207 302,3207 L298,3207 C296.895,3207 296,3206.105 296,3205 L296,3201 C296,3199.895 296.895,3199 298,3199 L302,3199 C303.105,3199 304,3199.895 304,3201 L304,3201 Z M290,3214 C290,3213.448 289.552,3213 289,3213 L287,3213 C286.448,3213 286,3213.448 286,3214 L286,3216 C286,3216.552 286.448,3217 287,3217 L289,3217 C289.552,3217 290,3216.552 290,3216 L290,3214 Z M292,3213 L292,3217 C292,3218.105 291.105,3219 290,3219 L286,3219 C284.895,3219 284,3218.105 284,3217 L284,3213 C284,3211.895 284.895,3211 286,3211 L290,3211 C291.105,3211 292,3211.895 292,3213 L292,3213 Z M294,3202 L294,3204 C294,3204.552 293.552,3205 293,3205 C292.448,3205 292,3204.552 292,3204 L290,3204 C289.448,3204 289,3204.448 289,3205 L289,3207 C289.552,3207 290,3207.448 290,3208 C290,3208.552 289.552,3209 289,3209 L287,3209 C286.448,3209 286,3208.552 286,3208 C286,3207.448 286.448,3207 287,3207 L287,3204 C287,3202.895 287.895,3202 289,3202 L292,3202 C292,3201.448 292.448,3201 293,3201 C293.552,3201 294,3201.448 294,3202 L294,3202 Z" id="object_connection_round-[#1091]"></path>
            </g>
        </g>
    </g>
</svg>