<?xml version="1.0" encoding="UTF-8" standalone="no"?>
<svg width="20px" height="20px" viewBox="0 0 20 20" version="1.1" xmlns="http://www.w3.org/2000/svg" xmlns:xlink="http://www.w3.org/1999/xlink">
    <!-- Generator: Sketch 3.8.1 (29687) - http://www.bohemiancoding.com/sketch -->
    <title>object_distribution [#900]</title>
    <desc>Created with Sketch.</desc>
    <defs></defs>
    <g id="Page-1" stroke="none" stroke-width="1" fill="none" fill-rule="evenodd">
        <g id="Dribbble-Dark-Preview" transform="translate(-60.000000, -4239.000000)" fill="#FFFFFF">
            <g id="icons" transform="translate(56.000000, 160.000000)">
                <path d="M16,4087 L22,4087 L22,4081 L16,4081 L16,4087 Z M20,4095 L14.889,4095 L14,4095 L14,4089 L8,4089 L8,4087.786 L8,4083 L14,4083 L14,4082.786 L14,4089 L20,4089 L20,4095 Z M6,4097 L6,4090.786 L6,4091 L12,4091 L12,4097 L6,4097 Z M14,4079 L14,4081 L6,4081 L6,4087.786 L6,4089 L4,4089 L4,4090.005 L4,4092.005 L4,4099 L10.17,4099 L12.17,4099 L14,4099 L14,4097 L14.889,4097 L22,4097 L22,4089 L24,4089 L24,4079 L14,4079 Z" id="object_distribution-[#900]"></path>
            </g>
        </g>
    </g>
</svg>