<?xml version="1.0" encoding="UTF-8" standalone="no"?>
<svg width="20px" height="20px" viewBox="0 0 20 20" version="1.1" xmlns="http://www.w3.org/2000/svg" xmlns:xlink="http://www.w3.org/1999/xlink">
    <!-- Generator: Sketch 3.8.1 (29687) - http://www.bohemiancoding.com/sketch -->
    <title>object_connection_round [#1097]</title>
    <desc>Created with Sketch.</desc>
    <defs></defs>
    <g id="Page-1" stroke="none" stroke-width="1" fill="none" fill-rule="evenodd">
        <g id="Dribbble-Dark-Preview" transform="translate(-100.000000, -3359.000000)" fill="#FFFFFF">
            <g id="icons" transform="translate(56.000000, 160.000000)">
                <path d="M57,3213 C57,3212.448 57.448,3212 58,3212 L61,3212 C61.552,3212 62,3212.448 62,3213 L62,3216 C62,3216.552 61.552,3217 61,3217 L58,3217 C57.448,3217 57,3216.552 57,3216 L57,3213 Z M57,3202 C57,3201.448 57.448,3201 58,3201 L61,3201 C61.552,3201 62,3201.448 62,3202 L62,3205 C62,3205.552 61.552,3206 61,3206 L58,3206 C57.448,3206 57,3205.552 57,3205 L57,3202 Z M54.905,3206 C54.905,3207.105 55.801,3208 56.905,3208 L61.905,3208 C63.01,3208 64,3207.105 64,3206 L64,3201 C64,3199.895 63.01,3199 61.905,3199 L56.905,3199 C55.801,3199 55,3199.895 55,3201 L55,3204 L46,3204 L46,3199 L44,3199 L44,3215 C44,3216.105 44.848,3217 45.953,3217 L54.905,3217 C54.905,3218.105 55.801,3219 56.905,3219 L61.905,3219 C63.01,3219 64,3218.105 64,3217 L64,3212 C64,3210.895 63.01,3210 61.905,3210 L56.905,3210 C55.801,3210 55,3210.895 55,3212 L55,3215 L46.905,3215 C46.353,3215 46,3214.552 46,3214 L46,3206 L54.905,3206 Z" id="object_connection_round-[#1097]"></path>
            </g>
        </g>
    </g>
</svg>