<?xml version="1.0" encoding="UTF-8" standalone="no"?>
<svg width="20px" height="20px" viewBox="0 0 20 20" version="1.1" xmlns="http://www.w3.org/2000/svg" xmlns:xlink="http://www.w3.org/1999/xlink">
    <!-- Generator: Sketch 3.8.1 (29687) - http://www.bohemiancoding.com/sketch -->
    <title>object_connection_round [#1089]</title>
    <desc>Created with Sketch.</desc>
    <defs></defs>
    <g id="Page-1" stroke="none" stroke-width="1" fill="none" fill-rule="evenodd">
        <g id="Dribbble-Dark-Preview" transform="translate(-420.000000, -3359.000000)" fill="#FFFFFF">
            <g id="icons" transform="translate(56.000000, 160.000000)">
                <path d="M382,3204 C382,3204.552 381.552,3205 381,3205 L379,3205 C378.448,3205 378,3204.552 378,3204 L378,3202 C378,3201.448 378.448,3201 379,3201 L381,3201 C381.552,3201 382,3201.448 382,3202 L382,3204 Z M382,3199 L378,3199 C376.895,3199 376,3199.895 376,3201 L376,3205 C376,3206.105 376.895,3207 378,3207 L382,3207 C383.105,3207 384,3206.105 384,3205 L384,3201 C384,3199.895 383.105,3199 382,3199 L382,3199 Z M374,3203 C374,3203.552 373.552,3204 373,3204 L370,3204 C369.448,3204 369,3204.448 369,3205 L369,3208 C369,3208.552 368.552,3209 368,3209 C367.448,3209 367,3208.552 367,3208 L367,3204 C367,3202.895 367.895,3202 369,3202 L373,3202 C373.552,3202 374,3202.448 374,3203 L374,3203 Z M370,3216 C370,3216.552 369.552,3217 369,3217 L367,3217 C366.448,3217 366,3216.552 366,3216 L366,3214 C366,3213.448 366.448,3213 367,3213 L369,3213 C369.552,3213 370,3213.448 370,3214 L370,3216 Z M370,3211 L366,3211 C364.895,3211 364,3211.895 364,3213 L364,3217 C364,3218.105 364.895,3219 366,3219 L370,3219 C371.105,3219 372,3218.105 372,3217 L372,3213 C372,3211.895 371.105,3211 370,3211 L370,3211 Z" id="object_connection_round-[#1089]"></path>
            </g>
        </g>
    </g>
</svg>