<?xml version="1.0" encoding="UTF-8" standalone="no"?>
<svg width="20px" height="20px" viewBox="0 0 20 20" version="1.1" xmlns="http://www.w3.org/2000/svg" xmlns:xlink="http://www.w3.org/1999/xlink">
    <!-- Generator: Sketch 3.8.1 (29687) - http://www.bohemiancoding.com/sketch -->
    <title>object_placement [#70]</title>
    <desc>Created with Sketch.</desc>
    <defs></defs>
    <g id="Page-1" stroke="none" stroke-width="1" fill="none" fill-rule="evenodd">
        <g id="Dribbble-Dark-Preview" transform="translate(-380.000000, -7879.000000)" fill="#FFFFFF">
            <g id="icons" transform="translate(56.000000, 160.000000)">
                <path d="M344,7729 C344,7729.552 343.552,7730 343,7730 L325,7730 C324.448,7730 324,7729.552 324,7729 C324,7728.448 324.448,7728 325,7728 L343,7728 C343.552,7728 344,7728.448 344,7729 L344,7729 Z M342,7736 C342,7736.552 341.552,7737 341,7737 L330,7737 L330,7734 L341,7734 C341.552,7734 342,7734.448 342,7735 L342,7736 Z M328,7737 L327,7737 C326.448,7737 326,7736.552 326,7736 L326,7735 C326,7734.448 326.448,7734 327,7734 L328,7734 L328,7737 Z M342,7732 L326,7732 C324.896,7732 324,7732.895 324,7734 L324,7737 C324,7738.105 324.896,7739 326,7739 L342,7739 C343.105,7739 344,7738.105 344,7737 L344,7734 C344,7732.895 343.105,7732 342,7732 L342,7732 Z M342,7723 C342,7723.552 341.552,7724 341,7724 L330,7724 L330,7721 L341,7721 C341.552,7721 342,7721.448 342,7722 L342,7723 Z M328,7724 L327,7724 C326.448,7724 326,7723.552 326,7723 L326,7722 C326,7721.448 326.448,7721 327,7721 L328,7721 L328,7724 Z M342,7719 L326,7719 C324.896,7719 324,7719.895 324,7721 L324,7724 C324,7725.105 324.896,7726 326,7726 L342,7726 C343.105,7726 344,7725.105 344,7724 L344,7721 C344,7719.895 343.105,7719 342,7719 L342,7719 Z" id="object_placement-[#70]"></path>
            </g>
        </g>
    </g>
</svg>