<?xml version="1.0" encoding="UTF-8" standalone="no"?>
<svg width="20px" height="20px" viewBox="0 0 20 20" version="1.1" xmlns="http://www.w3.org/2000/svg" xmlns:xlink="http://www.w3.org/1999/xlink">
    <!-- Generator: Sketch 3.8.1 (29687) - http://www.bohemiancoding.com/sketch -->
    <title>object_connection [#1087]</title>
    <desc>Created with Sketch.</desc>
    <defs></defs>
    <g id="Page-1" stroke="none" stroke-width="1" fill="none" fill-rule="evenodd">
        <g id="Dribbble-Dark-Preview" transform="translate(-100.000000, -3399.000000)" fill="#FFFFFF">
            <g id="icons" transform="translate(56.000000, 160.000000)">
                <path d="M58,3245 L62,3245 L62,3241 L58,3241 L58,3245 Z M56,3247 L64,3247 L64,3239 L56,3239 L56,3247 Z M47,3242 L54,3242 L54,3244 L49,3244 L49,3249 L47,3249 L47,3242 Z M46,3257 L50,3257 L50,3253 L46,3253 L46,3257 Z M44,3259 L52,3259 L52,3251 L44,3251 L44,3259 Z" id="object_connection-[#1087]"></path>
            </g>
        </g>
    </g>
</svg>