<?xml version="1.0" encoding="UTF-8" standalone="no"?>
<svg width="20px" height="20px" viewBox="0 0 20 20" version="1.1" xmlns="http://www.w3.org/2000/svg" xmlns:xlink="http://www.w3.org/1999/xlink">
    <!-- Generator: Sketch 3.8.1 (29687) - http://www.bohemiancoding.com/sketch -->
    <title>object_placement [#66]</title>
    <desc>Created with Sketch.</desc>
    <defs></defs>
    <g id="Page-1" stroke="none" stroke-width="1" fill="none" fill-rule="evenodd">
        <g id="Dribbble-Dark-Preview" transform="translate(-140.000000, -7919.000000)" fill="#FFFFFF">
            <g id="icons" transform="translate(56.000000, 160.000000)">
                <path d="M93,7779 L95,7779 L95,7759 L93,7759 L93,7779 Z M86,7775 L89,7775 L89,7763 L86,7763 L86,7775 Z M86,7761 L84,7761 L84,7763 L84,7775 L84,7777 L86,7777 L89,7777 L91,7777 L91,7775 L91,7763 L91,7761 L89,7761 L86,7761 Z M99,7775 L102,7775 L102,7763 L99,7763 L99,7775 Z M102,7761 L99,7761 L97,7761 L97,7763 L97,7775 L97,7777 L99,7777 L102,7777 L104,7777 L104,7775 L104,7763 L104,7761 L102,7761 Z" id="object_placement-[#66]"></path>
            </g>
        </g>
    </g>
</svg>