<?xml version="1.0" encoding="UTF-8" standalone="no"?>
<svg width="20px" height="20px" viewBox="0 0 20 20" version="1.1" xmlns="http://www.w3.org/2000/svg" xmlns:xlink="http://www.w3.org/1999/xlink">
    <!-- Generator: Sketch 3.8.1 (29687) - http://www.bohemiancoding.com/sketch -->
    <title>object_placement [#69]</title>
    <desc>Created with Sketch.</desc>
    <defs></defs>
    <g id="Page-1" stroke="none" stroke-width="1" fill="none" fill-rule="evenodd">
        <g id="Dribbble-Dark-Preview" transform="translate(-420.000000, -7879.000000)" fill="#FFFFFF">
            <g id="icons" transform="translate(56.000000, 160.000000)">
                <path d="M384,7729 C384,7729.552 383.552,7730 383,7730 L365,7730 C364.448,7730 364,7729.552 364,7729 C364,7728.448 364.448,7728 365,7728 L383,7728 C383.552,7728 384,7728.448 384,7729 L384,7729 Z M382,7736 C382,7736.552 381.552,7737 381,7737 L367,7737 C366.448,7737 366,7736.552 366,7736 L366,7735 C366,7734.448 366.448,7734 367,7734 L381,7734 C381.552,7734 382,7734.448 382,7735 L382,7736 Z M382,7732 L366,7732 C364.896,7732 364,7732.895 364,7734 L364,7737 C364,7738.105 364.896,7739 366,7739 L382,7739 C383.105,7739 384,7738.105 384,7737 L384,7734 C384,7732.895 383.105,7732 382,7732 L382,7732 Z M382,7723 C382,7723.552 381.552,7724 381,7724 L367,7724 C366.448,7724 366,7723.552 366,7723 L366,7722 C366,7721.448 366.448,7721 367,7721 L381,7721 C381.552,7721 382,7721.448 382,7722 L382,7723 Z M382,7719 L366,7719 C364.896,7719 364,7719.895 364,7721 L364,7724 C364,7725.105 364.896,7726 366,7726 L382,7726 C383.105,7726 384,7725.105 384,7724 L384,7721 C384,7719.895 383.105,7719 382,7719 L382,7719 Z" id="object_placement-[#69]"></path>
            </g>
        </g>
    </g>
</svg>