<?xml version="1.0" encoding="UTF-8" standalone="no"?>
<svg width="20px" height="20px" viewBox="0 0 20 20" version="1.1" xmlns="http://www.w3.org/2000/svg" xmlns:xlink="http://www.w3.org/1999/xlink">
    <!-- Generator: Sketch 3.8.1 (29687) - http://www.bohemiancoding.com/sketch -->
    <title>object_placement [#65]</title>
    <desc>Created with Sketch.</desc>
    <defs></defs>
    <g id="Page-1" stroke="none" stroke-width="1" fill="none" fill-rule="evenodd">
        <g id="Dribbble-Dark-Preview" transform="translate(-180.000000, -7919.000000)" fill="#FFFFFF">
            <g id="icons" transform="translate(56.000000, 160.000000)">
                <path d="M135,7760 L135,7778 C135,7778.552 134.552,7779 134,7779 C133.448,7779 133,7778.552 133,7778 L133,7760 C133,7759.448 133.448,7759 134,7759 C134.552,7759 135,7759.448 135,7760 L135,7760 Z M129,7774 C129,7774.552 128.552,7775 128,7775 L127,7775 C126.448,7775 126,7774.552 126,7774 L126,7764 C126,7763.448 126.448,7763 127,7763 L128,7763 C128.552,7763 129,7763.448 129,7764 L129,7774 Z M129,7761 L126,7761 C124.896,7761 124,7761.895 124,7763 L124,7775 C124,7776.105 124.896,7777 126,7777 L129,7777 C130.104,7777 131,7776.105 131,7775 L131,7763 C131,7761.895 130.104,7761 129,7761 L129,7761 Z M142,7774 C142,7774.552 141.552,7775 141,7775 L140,7775 C139.448,7775 139,7774.552 139,7774 L139,7764 C139,7763.448 139.448,7763 140,7763 L141,7763 C141.552,7763 142,7763.448 142,7764 L142,7774 Z M142,7761 L138,7761 C137.448,7761 137,7761.448 137,7762 L137,7775 C137,7776.105 137.896,7777 139,7777 L142,7777 C143.104,7777 144,7776.105 144,7775 L144,7763 C144,7761.895 143.104,7761 142,7761 L142,7761 Z" id="object_placement-[#65]"></path>
            </g>
        </g>
    </g>
</svg>