<?xml version="1.0" encoding="UTF-8" standalone="no"?>
<svg width="20px" height="20px" viewBox="0 0 20 20" version="1.1" xmlns="http://www.w3.org/2000/svg" xmlns:xlink="http://www.w3.org/1999/xlink">
    <!-- Generator: Sketch 3.8.1 (29687) - http://www.bohemiancoding.com/sketch -->
    <title>object_placement [#68]</title>
    <desc>Created with Sketch.</desc>
    <defs></defs>
    <g id="Page-1" stroke="none" stroke-width="1" fill="none" fill-rule="evenodd">
        <g id="Dribbble-Dark-Preview" transform="translate(-60.000000, -7919.000000)" fill="#FFFFFF">
            <g id="icons" transform="translate(56.000000, 160.000000)">
                <path d="M4,7770 L24,7770 L24,7768 L4,7768 L4,7770 Z M6,7777 L22,7777 L22,7774 L6,7774 L6,7777 Z M6,7772 L4,7772 L4,7774 L4,7777 L4,7779 L6,7779 L22,7779 L24,7779 L24,7772 L22,7772 L6,7772 Z M22,7764 L18,7764 L6,7764 L6,7761 L22,7761 L22,7764 Z M22,7759 L6,7759 L4,7759 L4,7761 L4,7764 L4,7766 L6,7766 L22,7766 L24,7766 L24,7759 L22,7759 Z" id="object_placement-[#68]"></path>
            </g>
        </g>
    </g>
</svg>