<?xml version="1.0" encoding="UTF-8" standalone="no"?>
<svg width="20px" height="20px" viewBox="0 0 20 20" version="1.1" xmlns="http://www.w3.org/2000/svg" xmlns:xlink="http://www.w3.org/1999/xlink">
    <!-- Generator: Sketch 3.8.1 (29687) - http://www.bohemiancoding.com/sketch -->
    <title>object_connection [#1088]</title>
    <desc>Created with Sketch.</desc>
    <defs></defs>
    <g id="Page-1" stroke="none" stroke-width="1" fill="none" fill-rule="evenodd">
        <g id="Dribbble-Dark-Preview" transform="translate(-60.000000, -3399.000000)" fill="#FFFFFF">
            <g id="icons" transform="translate(56.000000, 160.000000)">
                <path d="M6,3257 L10,3257 L10,3253 L6,3253 L6,3257 Z M4,3259 L12,3259 L12,3251 L4,3251 L4,3259 Z M19,3254 L14,3254 L14,3256 L21,3256 L21,3249 L19,3249 L19,3254 Z M18,3245 L22,3245 L22,3241 L18,3241 L18,3245 Z M16,3247 L24,3247 L24,3239 L16,3239 L16,3247 Z M9,3249 L7,3249 L7,3242 L14,3242 L14,3244 L9,3244 L9,3249 Z" id="object_connection-[#1088]"></path>
            </g>
        </g>
    </g>
</svg>