<?xml version="1.0" encoding="UTF-8" standalone="no"?>
<svg width="20px" height="20px" viewBox="0 0 20 20" version="1.1" xmlns="http://www.w3.org/2000/svg" xmlns:xlink="http://www.w3.org/1999/xlink">
    <!-- Generator: Sketch 3.8.1 (29687) - http://www.bohemiancoding.com/sketch -->
    <title>object_placement [#72]</title>
    <desc>Created with Sketch.</desc>
    <defs></defs>
    <g id="Page-1" stroke="none" stroke-width="1" fill="none" fill-rule="evenodd">
        <g id="Dribbble-Dark-Preview" transform="translate(-300.000000, -7879.000000)" fill="#FFFFFF">
            <g id="icons" transform="translate(56.000000, 160.000000)">
                <path d="M244,7730 L264,7730 L264,7728 L244,7728 L244,7730 Z M246,7737 L248,7737 L248,7734 L246,7734 L246,7737 Z M250,7737 L258,7737 L258,7734 L250,7734 L250,7737 Z M260,7737 L262,7737 L262,7734 L260,7734 L260,7737 Z M244,7739 L264,7739 L264,7732 L244,7732 L244,7739 Z M260,7724 L262,7724 L262,7721 L260,7721 L260,7724 Z M250,7724 L258,7724 L258,7721 L250,7721 L250,7724 Z M246,7724 L248,7724 L248,7721 L246,7721 L246,7724 Z M244,7726 L264,7726 L264,7719 L244,7719 L244,7726 Z" id="object_placement-[#72]"></path>
            </g>
        </g>
    </g>
</svg>