<?xml version="1.0" encoding="UTF-8" standalone="no"?>
<svg width="20px" height="20px" viewBox="0 0 20 20" version="1.1" xmlns="http://www.w3.org/2000/svg" xmlns:xlink="http://www.w3.org/1999/xlink">
    <!-- Generator: Sketch 3.8.1 (29687) - http://www.bohemiancoding.com/sketch -->
    <title>object_connection [#1086]</title>
    <desc>Created with Sketch.</desc>
    <defs></defs>
    <g id="Page-1" stroke="none" stroke-width="1" fill="none" fill-rule="evenodd">
        <g id="Dribbble-Dark-Preview" transform="translate(-140.000000, -3399.000000)" fill="#FFFFFF">
            <g id="icons" transform="translate(56.000000, 160.000000)">
                <path d="M86,3257 L90,3257 L90,3253 L86,3253 L86,3257 Z M84,3259 L92,3259 L92,3251 L84,3251 L84,3259 Z M98,3245 L102,3245 L102,3241 L98,3241 L98,3245 Z M96,3247 L104,3247 L104,3239 L96,3239 L96,3247 Z M98,3249 L98,3251 L99,3251 L99,3254 L96,3254 L96,3253 L94,3253 L94,3257 L96,3257 L96,3256 L101,3256 L101,3251 L102,3251 L102,3249 L98,3249 Z M92,3245 L92,3244 L89,3244 L89,3247 L90,3247 L90,3249 L86,3249 L86,3247 L87,3247 L87,3242 L92,3242 L92,3241 L94,3241 L94,3245 L92,3245 Z" id="object_connection-[#1086]"></path>
            </g>
        </g>
    </g>
</svg>