<?xml version="1.0" encoding="UTF-8" standalone="no"?>
<svg width="20px" height="20px" viewBox="0 0 20 20" version="1.1" xmlns="http://www.w3.org/2000/svg" xmlns:xlink="http://www.w3.org/1999/xlink">
    <!-- Generator: Sketch 3.8.1 (29687) - http://www.bohemiancoding.com/sketch -->
    <title>object_connection [#1092]</title>
    <desc>Created with Sketch.</desc>
    <defs></defs>
    <g id="Page-1" stroke="none" stroke-width="1" fill="none" fill-rule="evenodd">
        <g id="Dribbble-Dark-Preview" transform="translate(-300.000000, -3359.000000)" fill="#FFFFFF">
            <g id="icons" transform="translate(56.000000, 160.000000)">
                <path d="M246,3217 L250,3217 L250,3213 L246,3213 L246,3217 Z M244,3219 L252,3219 L252,3211 L244,3211 L244,3219 Z M258,3205 L262,3205 L262,3201 L258,3201 L258,3205 Z M256,3207 L264,3207 L264,3199 L256,3199 L256,3207 Z M262,3209 L262,3211 L261,3211 L261,3216 L256,3216 L256,3217 L254,3217 L254,3213 L256,3213 L256,3214 L259,3214 L259,3211 L258,3211 L258,3209 L262,3209 Z" id="object_connection-[#1092]"></path>
            </g>
        </g>
    </g>
</svg>