<?xml version="1.0" encoding="UTF-8" standalone="no"?>
<svg width="20px" height="14px" viewBox="0 0 20 14" version="1.1" xmlns="http://www.w3.org/2000/svg" xmlns:xlink="http://www.w3.org/1999/xlink">
    <!-- Generator: Sketch 3.8.1 (29687) - http://www.bohemiancoding.com/sketch -->
    <title>object_alignment [#877]</title>
    <desc>Created with Sketch.</desc>
    <defs></defs>
    <g id="Page-1" stroke="none" stroke-width="1" fill="none" fill-rule="evenodd">
        <g id="Dribbble-Dark-Preview" transform="translate(-180.000000, -4322.000000)" fill="#FFFFFF">
            <g id="icons" transform="translate(56.000000, 160.000000)">
                <path d="M126,4174 L142,4174 L142,4172 L126,4172 L126,4174 Z M130,4170 L138,4170 L138,4168 L130,4168 L130,4170 Z M133,4166.078 L135,4166.078 L135,4164.078 L133,4164.078 L133,4166.078 Z M142,4170 L140,4170 L140,4167.583 L140,4166 L138,4166 L137,4166 L137,4163.583 L137,4162 L135,4162 L133,4162 L131,4162 L131,4166 L130,4166 L128,4166 L128,4167.583 L128,4170 L126,4170 L124,4170 L124,4171.583 L124,4173.583 L124,4176 L144,4176 L144,4173.583 L144,4171.583 L144,4170 L142,4170 Z" id="object_alignment-[#877]"></path>
            </g>
        </g>
    </g>
</svg>