<?xml version="1.0" encoding="UTF-8" standalone="no"?>
<svg width="20px" height="20px" viewBox="0 0 20 20" version="1.1" xmlns="http://www.w3.org/2000/svg" xmlns:xlink="http://www.w3.org/1999/xlink">
    <!-- Generator: Sketch 3.8.1 (29687) - http://www.bohemiancoding.com/sketch -->
    <title>object_connection [#1085]</title>
    <desc>Created with Sketch.</desc>
    <defs></defs>
    <g id="Page-1" stroke="none" stroke-width="1" fill="none" fill-rule="evenodd">
        <g id="Dribbble-Dark-Preview" transform="translate(-180.000000, -3399.000000)" fill="#FFFFFF">
            <g id="icons" transform="translate(56.000000, 160.000000)">
                <path d="M138,3245 L142,3245 L142,3241 L138,3241 L138,3245 Z M136,3247 L144,3247 L144,3239 L136,3239 L136,3247 Z M126,3257 L130,3257 L130,3253 L126,3253 L126,3257 Z M124,3259 L132,3259 L132,3251 L124,3251 L124,3259 Z M132,3241 L134,3241 L134,3245 L132,3245 L132,3244 L129,3244 L129,3247 L130,3247 L130,3249 L126,3249 L126,3247 L127,3247 L127,3242 L132,3242 L132,3241 Z" id="object_connection-[#1085]"></path>
            </g>
        </g>
    </g>
</svg>