<?xml version="1.0" encoding="UTF-8" standalone="no"?>
<svg width="20px" height="20px" viewBox="0 0 20 20" version="1.1" xmlns="http://www.w3.org/2000/svg" xmlns:xlink="http://www.w3.org/1999/xlink">
    <!-- Generator: Sketch 3.8.1 (29687) - http://www.bohemiancoding.com/sketch -->
    <title>object_placement [#71]</title>
    <desc>Created with Sketch.</desc>
    <defs></defs>
    <g id="Page-1" stroke="none" stroke-width="1" fill="none" fill-rule="evenodd">
        <g id="Dribbble-Dark-Preview" transform="translate(-340.000000, -7879.000000)" fill="#FFFFFF">
            <g id="icons" transform="translate(56.000000, 160.000000)">
                <path d="M304,7729 C304,7729.552 303.552,7730 303,7730 L285,7730 C284.448,7730 284,7729.552 284,7729 C284,7728.448 284.448,7728 285,7728 L303,7728 C303.552,7728 304,7728.448 304,7729 L304,7729 Z M302,7736 C302,7736.552 301.552,7737 301,7737 L300,7737 L300,7734 L301,7734 C301.552,7734 302,7734.448 302,7735 L302,7736 Z M290,7737 L298,7737 L298,7734 L290,7734 L290,7737 Z M288,7737 L287,7737 C286.448,7737 286,7736.552 286,7736 L286,7735 C286,7734.448 286.448,7734 287,7734 L288,7734 L288,7737 Z M302,7732 L286,7732 C284.896,7732 284,7732.895 284,7734 L284,7737 C284,7738.105 284.896,7739 286,7739 L302,7739 C303.105,7739 304,7738.105 304,7737 L304,7734 C304,7732.895 303.105,7732 302,7732 L302,7732 Z M302,7723 C302,7723.552 301.552,7724 301,7724 L300,7724 L300,7721 L301,7721 C301.552,7721 302,7721.448 302,7722 L302,7723 Z M290,7724 L298,7724 L298,7721 L290,7721 L290,7724 Z M288,7724 L287,7724 C286.448,7724 286,7723.552 286,7723 L286,7722 C286,7721.448 286.448,7721 287,7721 L288,7721 L288,7724 Z M302,7719 L286,7719 C284.896,7719 284,7719.895 284,7721 L284,7724 C284,7725.105 284.896,7726 286,7726 L302,7726 C303.105,7726 304,7725.105 304,7724 L304,7721 C304,7719.895 303.105,7719 302,7719 L302,7719 Z" id="object_placement-[#71]"></path>
            </g>
        </g>
    </g>
</svg>