<?xml version="1.0" encoding="UTF-8" standalone="no"?>
<svg width="20px" height="20px" viewBox="0 0 20 20" version="1.1" xmlns="http://www.w3.org/2000/svg" xmlns:xlink="http://www.w3.org/1999/xlink">
    <!-- Generator: Sketch 3.8.1 (29687) - http://www.bohemiancoding.com/sketch -->
    <title>object_connection_round [#1090]</title>
    <desc>Created with Sketch.</desc>
    <defs></defs>
    <g id="Page-1" stroke="none" stroke-width="1" fill="none" fill-rule="evenodd">
        <g id="Dribbble-Dark-Preview" transform="translate(-380.000000, -3359.000000)" fill="#FFFFFF">
            <g id="icons" transform="translate(56.000000, 160.000000)">
                <path d="M330,3214 C330,3213.448 329.552,3213 329,3213 L327,3213 C326.448,3213 326,3213.448 326,3214 L326,3216 C326,3216.552 326.448,3217 327,3217 L329,3217 C329.552,3217 330,3216.552 330,3216 L330,3214 Z M332,3213 L332,3217 C332,3218.105 331.105,3219 330,3219 L326,3219 C324.895,3219 324,3218.105 324,3217 L324,3213 C324,3211.895 324.895,3211 326,3211 L330,3211 C331.105,3211 332,3211.895 332,3213 L332,3213 Z M340,3209.01 C339.448,3209.01 339,3209.457 339,3210.01 L339,3213.01 C339,3213.562 338.552,3214 338,3214 L335,3214 C334.448,3214 334,3214.448 334,3215 C334,3215.552 334.448,3216 335,3216 L339,3216 C340.105,3216 341,3215.114 341,3214.01 L341,3210.01 C341,3209.457 340.552,3209.01 340,3209.01 L340,3209.01 Z M342,3202 C342,3201.448 341.552,3201 341,3201 L339,3201 C338.448,3201 338,3201.448 338,3202 L338,3204 C338,3204.552 338.448,3205 339,3205 L341,3205 C341.552,3205 342,3204.552 342,3204 L342,3202 Z M344,3201 L344,3205 C344,3206.105 343.105,3207 342,3207 L338,3207 C336.895,3207 336,3206.105 336,3205 L336,3201 C336,3199.895 336.895,3199 338,3199 L342,3199 C343.105,3199 344,3199.895 344,3201 L344,3201 Z M334,3203 C334,3203.552 333.552,3204 333,3204 L330,3204 C329.448,3204 329,3204.457 329,3205.01 L329,3208.01 C329,3208.562 328.552,3209.01 328,3209.01 C327.448,3209.01 327,3208.562 327,3208.01 L327,3204.01 C327,3202.905 327.895,3202 329,3202 L333,3202 C333.552,3202 334,3202.448 334,3203 L334,3203 Z" id="object_connection_round-[#1090]"></path>
            </g>
        </g>
    </g>
</svg>