<?xml version="1.0" encoding="UTF-8" standalone="no"?>
<svg width="20px" height="20px" viewBox="0 0 20 20" version="1.1" xmlns="http://www.w3.org/2000/svg" xmlns:xlink="http://www.w3.org/1999/xlink">
    <!-- Generator: Sketch 3.8.1 (29687) - http://www.bohemiancoding.com/sketch -->
    <title>object_alignment_round [#869]</title>
    <desc>Created with Sketch.</desc>
    <defs></defs>
    <g id="Page-1" stroke="none" stroke-width="1" fill="none" fill-rule="evenodd">
        <g id="Dribbble-Dark-Preview" transform="translate(-100.000000, -4359.000000)" fill="#FFFFFF">
            <g id="icons" transform="translate(56.000000, 160.000000)">
                <path d="M62,4214 L62,4216 C62,4216.552 61.415,4217 60.863,4217 L58,4217 L58,4213 L60.863,4213 C61.415,4213 62,4213.448 62,4214 L62,4214 Z M56,4211 L56,4213 L56,4217 L52,4217 L52,4207 L54.863,4207 C55.415,4207 56,4207.448 56,4208 L56,4211 Z M50,4205 L50,4207 L50,4217 L46.863,4217 C46.31,4217 46,4216.552 46,4216 L46,4202 C46,4201.448 46.31,4201 46.863,4201 L48.863,4201 C49.415,4201 50,4201.448 50,4202 L50,4205 Z M58,4207 C58,4205.895 56.967,4205 55.863,4205 L52,4205 L52,4201 C52,4199.895 50.967,4199 49.863,4199 L45.863,4199 C44.758,4199 44,4199.895 44,4201 L44,4217 C44,4218.105 44.827,4219 45.931,4219 L45.863,4219 L49.863,4219 L51.863,4219 L55.863,4219 L57.863,4219 L61.863,4219 L61.863,4219 C62.967,4219 64,4218.105 64,4217 L64,4213 C64,4211.896 63.105,4211.002 62.002,4211.001 L58,4211 L58,4207 Z" id="object_alignment_round-[#869]"></path>
            </g>
        </g>
    </g>
</svg>