<?xml version="1.0" encoding="UTF-8" standalone="no"?>
<svg width="14px" height="20px" viewBox="0 0 14 20" version="1.1" xmlns="http://www.w3.org/2000/svg" xmlns:xlink="http://www.w3.org/1999/xlink">
    <!-- Generator: Sketch 3.8.1 (29687) - http://www.bohemiancoding.com/sketch -->
    <title>object_alignment [#874]</title>
    <desc>Created with Sketch.</desc>
    <defs></defs>
    <g id="Page-1" stroke="none" stroke-width="1" fill="none" fill-rule="evenodd">
        <g id="Dribbble-Dark-Preview" transform="translate(-302.000000, -4319.000000)" fill="#FFFFFF">
            <g id="icons" transform="translate(56.000000, 160.000000)">
                <path d="M254,4177 L254,4167 L258,4167 L258,4171 L258,4173 L258,4177 L254,4177 Z M248,4177 L248,4161 L252,4161 L252,4165 L252,4167 L252,4177 L248,4177 Z M260,4165 L257.617,4165 L254,4165 L254,4161 L254,4159 L251.617,4159 L247.617,4159 L246,4159 L246,4161 L246,4177 L246,4179 L247.617,4179 L251.617,4179 L253.617,4179 L257.617,4179 L260,4179 L260,4165 Z" id="object_alignment-[#874]"></path>
            </g>
        </g>
    </g>
</svg>