<?xml version="1.0" encoding="UTF-8" standalone="no"?>
<svg width="14px" height="20px" viewBox="0 0 14 20" version="1.1" xmlns="http://www.w3.org/2000/svg" xmlns:xlink="http://www.w3.org/1999/xlink">
    <!-- Generator: Sketch 3.8.1 (29687) - http://www.bohemiancoding.com/sketch -->
    <title>object_alignment_round [#870]</title>
    <desc>Created with Sketch.</desc>
    <defs></defs>
    <g id="Page-1" stroke="none" stroke-width="1" fill="none" fill-rule="evenodd">
        <g id="Dribbble-Dark-Preview" transform="translate(-60.000000, -4359.000000)" fill="#FFFFFF">
            <g id="icons" transform="translate(56.000000, 160.000000)">
                <path d="M18,4207 C18,4205.895 17.071,4205 15.967,4205 L12,4205 L12,4201 C12,4199.895 11.071,4199 9.967,4199 L5.967,4199 C4.862,4199 4,4199.895 4,4201 L4,4217 C4,4218.105 4.879,4219 5.983,4219 L5.967,4219 L9.967,4219 L11.967,4219 L15.967,4219 L16,4219 C17.105,4219 18,4218.105 18,4217 L18,4207 Z M16,4211 L16,4213 L16,4216.002 C16,4216.553 15.52,4217 14.969,4217 L12,4217 L12,4207 L14.967,4207 C15.519,4207 16,4207.448 16,4208 L16,4211 Z M10,4205 L10,4207 L10,4217 L6.967,4217 C6.415,4217 6,4216.552 6,4216 L6,4202 C6,4201.448 6.415,4201 6.967,4201 L8.967,4201 C9.519,4201 10,4201.448 10,4202 L10,4205 Z" id="object_alignment_round-[#870]"></path>
            </g>
        </g>
    </g>
</svg>