<?xml version="1.0" encoding="UTF-8" standalone="no"?>
<svg width="20px" height="14px" viewBox="0 0 20 14" version="1.1" xmlns="http://www.w3.org/2000/svg" xmlns:xlink="http://www.w3.org/1999/xlink">
    <!-- Generator: Sketch 3.8.1 (29687) - http://www.bohemiancoding.com/sketch -->
    <title>object_alignment [#876]</title>
    <desc>Created with Sketch.</desc>
    <defs></defs>
    <g id="Page-1" stroke="none" stroke-width="1" fill="none" fill-rule="evenodd">
        <g id="Dribbble-Dark-Preview" transform="translate(-220.000000, -4322.000000)" fill="#FFFFFF">
            <g id="icons" transform="translate(56.000000, 160.000000)">
                <path d="M182,4168 L172,4168 L172,4164 L176.093,4164 L178.093,4164 L182,4164 L182,4168 Z M182,4174 L166,4174 L166,4170 L170.093,4170 L172.093,4170 L182,4170 L182,4174 Z M170,4162 L170,4164.25 L170,4168 L166.093,4168 L164,4168 L164,4170.25 L164,4174.25 L164,4176 L166.093,4176 L182.093,4176 L184,4176 L184,4174.25 L184,4170.25 L184,4168.25 L184,4164.25 L184,4162 L170,4162 Z" id="object_alignment-[#876]"></path>
            </g>
        </g>
    </g>
</svg>