<?xml version="1.0" encoding="UTF-8" standalone="no"?>
<svg width="20px" height="20px" viewBox="0 0 20 20" version="1.1" xmlns="http://www.w3.org/2000/svg" xmlns:xlink="http://www.w3.org/1999/xlink">
    <!-- Generator: Sketch 3.8.1 (29687) - http://www.bohemiancoding.com/sketch -->
    <title>object_alignment [#873]</title>
    <desc>Created with Sketch.</desc>
    <defs></defs>
    <g id="Page-1" stroke="none" stroke-width="1" fill="none" fill-rule="evenodd">
        <g id="Dribbble-Dark-Preview" transform="translate(-340.000000, -4319.000000)" fill="#FFFFFF">
            <g id="icons" transform="translate(56.000000, 160.000000)">
                <path d="M298,4165 L302,4165 L302,4161 L298,4161 L298,4165 Z M302,4171 L292,4171 L292,4167 L296.351,4167 L298.351,4167 L302,4167 L302,4171 Z M302,4177 L286,4177 L286,4173 L290.351,4173 L292.351,4173 L302,4173 L302,4177 Z M296,4165 L292.351,4165 L290,4165 L290,4167.25 L290,4171 L286.351,4171 L284,4171 L284,4173.25 L284,4177.25 L284,4179 L286.351,4179 L302.351,4179 L304,4179 L304,4177.25 L304,4173.25 L304,4171.25 L304,4167.25 L304,4165.25 L304,4161.25 L304,4159 L302.351,4159 L298.351,4159 L296.353,4159 L296,4159 L296,4165 Z" id="object_alignment-[#873]"></path>
            </g>
        </g>
    </g>
</svg>