<?xml version="1.0" encoding="UTF-8" standalone="no"?>
<svg width="20px" height="20px" viewBox="0 0 20 20" version="1.1" xmlns="http://www.w3.org/2000/svg" xmlns:xlink="http://www.w3.org/1999/xlink">
    <!-- Generator: Sketch 3.8.1 (29687) - http://www.bohemiancoding.com/sketch -->
    <title>object_connection [#1098]</title>
    <desc>Created with Sketch.</desc>
    <defs></defs>
    <g id="Page-1" stroke="none" stroke-width="1" fill="none" fill-rule="evenodd">
        <g id="Dribbble-Dark-Preview" transform="translate(-60.000000, -3359.000000)" fill="#FFFFFF">
            <g id="icons" transform="translate(56.000000, 160.000000)">
                <path d="M17,3206 L22,3206 L22,3201 L17,3201 L17,3206 Z M17,3217 L22,3217 L22,3212 L17,3212 L17,3217 Z M15,3199 L15,3204 L6,3204 L6,3199 L4,3199 L4,3217 L15,3217 L15,3219 L24,3219 L24,3210 L15,3210 L15,3215 L6,3215 L6,3206 L15,3206 L15,3208 L24,3208 L24,3199 L15,3199 Z" id="object_connection-[#1098]"></path>
            </g>
        </g>
    </g>
</svg>