<?xml version="1.0" encoding="UTF-8" standalone="no"?>
<svg width="20px" height="20px" viewBox="0 0 20 20" version="1.1" xmlns="http://www.w3.org/2000/svg" xmlns:xlink="http://www.w3.org/1999/xlink">
    <!-- Generator: Sketch 3.8.1 (29687) - http://www.bohemiancoding.com/sketch -->
    <title>object_connection_round [#1096]</title>
    <desc>Created with Sketch.</desc>
    <defs></defs>
    <g id="Page-1" stroke="none" stroke-width="1" fill="none" fill-rule="evenodd">
        <g id="Dribbble-Dark-Preview" transform="translate(-140.000000, -3359.000000)" fill="#FFFFFF">
            <g id="icons" transform="translate(56.000000, 160.000000)">
                <path d="M90,3214 C90,3213.448 89.552,3213 89,3213 L87,3213 C86.448,3213 86,3213.448 86,3214 L86,3216 C86,3216.552 86.448,3217 87,3217 L89,3217 C89.552,3217 90,3216.552 90,3216 L90,3214 Z M92,3213 L92,3217 C92,3218.105 91.105,3219 90,3219 L86,3219 C84.895,3219 84,3218.105 84,3217 L84,3213 C84,3211.895 84.895,3211 86,3211 L90,3211 C91.105,3211 92,3211.895 92,3213 L92,3213 Z M102,3202 C102,3201.448 101.552,3201 101,3201 L99,3201 C98.448,3201 98,3201.448 98,3202 L98,3204 C98,3204.552 98.448,3205 99,3205 L101,3205 C101.552,3205 102,3204.552 102,3204 L102,3202 Z M104,3201 L104,3205 C104,3206.105 103.105,3207 102,3207 L98,3207 C96.895,3207 96,3206.105 96,3205 L96,3201 C96,3199.895 96.895,3199 98,3199 L102,3199 C103.105,3199 104,3199.895 104,3201 L104,3201 Z M101,3209 L99,3209 C98.448,3209 98,3209.443 98,3209.995 C98,3210.547 98.448,3210.99 99,3210.99 L99,3212.99 C99,3213.543 98.552,3214 98,3214 L96,3214 C96,3213 95.552,3212.995 95,3212.995 C94.448,3212.995 94,3213.438 94,3213.99 L94,3215.99 C94,3216.543 94.448,3216.995 95,3216.995 C95.552,3216.995 96,3217 96,3216 L99,3216 C100.105,3216 101,3215.095 101,3213.99 L101,3210.99 C101.552,3210.99 102,3210.547 102,3209.995 C102,3209.443 101.552,3209 101,3209 L101,3209 Z M94,3204 C94,3204.552 93.552,3205 93,3205 C92.448,3205 92,3204.552 92,3204 L90,3204 C89.448,3204 89,3204.448 89,3205 L89,3207 C89.552,3207 90,3207.448 90,3208 C90,3208.552 89.552,3209 89,3209 L87,3209 C86.448,3209 86,3208.552 86,3208 C86,3207.448 86.448,3207 87,3207 L87,3204 C87,3202.895 87.895,3202 89,3202 L92,3202 C92,3201.448 92.448,3201 93,3201 C93.552,3201 94,3201.448 94,3202 L94,3204 Z" id="object_connection_round-[#1096]"></path>
            </g>
        </g>
    </g>
</svg>