<?xml version="1.0" encoding="UTF-8" standalone="no"?>
<svg width="20px" height="20px" viewBox="0 0 20 20" version="1.1" xmlns="http://www.w3.org/2000/svg" xmlns:xlink="http://www.w3.org/1999/xlink">
    <!-- Generator: Sketch 3.8.1 (29687) - http://www.bohemiancoding.com/sketch -->
    <title>oil [#736]</title>
    <desc>Created with Sketch.</desc>
    <defs></defs>
    <g id="Page-1" stroke="none" stroke-width="1" fill="none" fill-rule="evenodd">
        <g id="Dribbble-Dark-Preview" transform="translate(-140.000000, -4959.000000)" fill="#FFFFFF">
            <g id="icons" transform="translate(56.000000, 160.000000)">
                <path d="M90,4809 L90,4807 L88,4807 L88,4809 L86,4809 L86,4801 L96,4801 L96,4809 L90,4809 Z M94,4817 L88,4817 L88,4811 L88.049,4811 L90.049,4811 L94,4811 L94,4817 Z M102.018,4805 L100,4805 L100,4806.778 C100,4810.091 99,4812.778 96,4812.778 L96,4811 L98,4811 L98,4799 L84,4799 L84,4811 L86,4811 L86,4819 L96,4819 L96,4814.778 C100,4814.778 102.018,4812 102.018,4807 L104,4807 L104,4805 L102.018,4805 Z" id="oil-[#736]"></path>
            </g>
        </g>
    </g>
</svg>