<?xml version="1.0" encoding="UTF-8" standalone="no"?>
<svg width="20px" height="20px" viewBox="0 0 20 20" version="1.1" xmlns="http://www.w3.org/2000/svg" xmlns:xlink="http://www.w3.org/1999/xlink">
    <!-- Generator: Sketch 3.8.1 (29687) - http://www.bohemiancoding.com/sketch -->
    <title>oil_round [#735]</title>
    <desc>Created with Sketch.</desc>
    <defs></defs>
    <g id="Page-1" stroke="none" stroke-width="1" fill="none" fill-rule="evenodd">
        <g id="Dribbble-Dark-Preview" transform="translate(-180.000000, -4959.000000)" fill="#FFFFFF">
            <g id="icons" transform="translate(56.000000, 160.000000)">
                <path d="M134.99054,4809 L130.006307,4809 L130.006307,4808 C130.006307,4807.448 129.557836,4807 129.005256,4807 C128.452675,4807 128.004204,4807.448 128.004204,4808 L128.004204,4809 L126.982131,4809 C126.429551,4809 126.002102,4808.552 126.002102,4808 L126.002102,4802 C126.002102,4801.448 126.429551,4801 126.982131,4801 L134.99054,4801 C135.54312,4801 136.012613,4801.448 136.012613,4802 L136.012613,4808 C136.012613,4808.552 135.54312,4809 134.99054,4809 L134.99054,4809 Z M134.010511,4816 C134.010511,4816.552 133.541018,4817 132.988438,4817 L128.984233,4817 C128.431653,4817 128.004204,4816.552 128.004204,4816 L128.004204,4811 L128.014215,4811 L130.016317,4811 L134.010511,4811 L134.010511,4816 Z M142.998949,4805 L141.997898,4805 C140.891736,4805 139.995796,4806 139.995796,4807 L140.006807,4807 C140.006807,4810 139.015767,4813 136.012613,4813 L136.012613,4811 C137.013664,4811 138.014715,4810.105 138.014715,4809 L138.014715,4801 C138.014715,4799.895 137.097753,4799 135.991591,4799 L125.98108,4799 C124.874919,4799 124,4799.895 124,4801 L124,4809 C124,4810.105 125.001051,4811 126.002102,4811 L126.002102,4817 C126.002102,4818.105 126.877021,4819 127.983182,4819 L133.989489,4819 C135.09565,4819 136.012613,4818.105 136.012613,4817 L136.012613,4815 C140.016818,4815 141.900796,4811.93 141.997898,4807.969 C142.010911,4807.43 142.445368,4807 142.985935,4807 L142.998949,4807 C143.551529,4807 144,4806.552 144,4806 C144,4805.448 143.551529,4805 142.998949,4805 L142.998949,4805 Z" id="oil_round-[#735]"></path>
            </g>
        </g>
    </g>
</svg>