<?xml version="1.0" encoding="UTF-8" standalone="no"?>
<svg width="21px" height="20px" viewBox="0 0 21 20" version="1.1" xmlns="http://www.w3.org/2000/svg" xmlns:xlink="http://www.w3.org/1999/xlink">
    <!-- Generator: Sketch 3.8.1 (29687) - http://www.bohemiancoding.com/sketch -->
    <title>open_box [#1438]</title>
    <desc>Created with Sketch.</desc>
    <defs></defs>
    <g id="Page-1" stroke="none" stroke-width="1" fill="none" fill-rule="evenodd">
        <g id="Dribbble-Dark-Preview" transform="translate(-139.000000, -560.000000)" fill="#FFFFFF">
            <g id="icons" transform="translate(56.000000, 160.000000)">
                <path d="M98.75,413 L101.9,413 L101.9,407 L98.75,407 L98.75,413 Z M90.35,405 L96.65,405 L96.65,402 L90.35,402 L90.35,405 Z M90.35,413 L96.65,413 L96.65,407 L90.35,407 L90.35,413 Z M90.35,418 L96.65,418 L96.65,415 L90.35,415 L90.35,418 Z M85.1,413 L88.25,413 L88.25,407 L85.1,407 L85.1,413 Z M98.75,405 L98.75,400 L88.25,400 L88.25,405 L83,405 L83,415 L88.25,415 L88.25,420 L98.75,420 L98.75,415 L104,415 L104,405 L98.75,405 Z" id="open_box-[#1438]"></path>
            </g>
        </g>
    </g>
</svg>