<?xml version="1.0" encoding="UTF-8" standalone="no"?>
<svg width="21px" height="20px" viewBox="0 0 21 20" version="1.1" xmlns="http://www.w3.org/2000/svg" xmlns:xlink="http://www.w3.org/1999/xlink">
    <!-- Generator: Sketch 3.8.1 (29687) - http://www.bohemiancoding.com/sketch -->
    <title>open_box [#1439]</title>
    <desc>Created with Sketch.</desc>
    <defs></defs>
    <g id="Page-1" stroke="none" stroke-width="1" fill="none" fill-rule="evenodd">
        <g id="Dribbble-Dark-Preview" transform="translate(-99.000000, -560.000000)" fill="#FFFFFF">
            <g id="icons" transform="translate(56.000000, 160.000000)">
                <path d="M61.9,412 C61.9,412.552 61.4296,413 60.85,413 L58.75,413 L58.75,407 L60.85,407 C61.4296,407 61.9,407.448 61.9,408 L61.9,412 Z M56.65,405 L50.35,405 L50.35,403 C50.35,402.448 50.8204,402 51.4,402 L55.6,402 C56.1796,402 56.65,402.448 56.65,403 L56.65,405 Z M50.35,413 L56.65,413 L56.65,407 L50.35,407 L50.35,413 Z M56.65,417 C56.65,417.552 56.1796,418 55.6,418 L51.4,418 C50.8204,418 50.35,417.552 50.35,417 L50.35,415 L56.65,415 L56.65,417 Z M48.25,413 L46.15,413 C45.5704,413 45.1,412.552 45.1,412 L45.1,408 C45.1,407.448 45.5704,407 46.15,407 L48.25,407 L48.25,413 Z M61.9,405 L59.8,405 C59.2204,405 58.75,404.552 58.75,404 L58.75,402 C58.75,400.895 57.81025,400 56.65,400 L50.35,400 C49.18975,400 48.25,400.895 48.25,402 L48.25,404 C48.25,404.552 47.7796,405 47.2,405 L45.1,405 C43.93975,405 43,405.895 43,407 L43,413 C43,414.105 43.93975,415 45.1,415 L47.2,415 C47.7796,415 48.25,415.448 48.25,416 L48.25,418 C48.25,419.105 49.18975,420 50.35,420 L56.65,420 C57.81025,420 58.75,419.105 58.75,418 L58.75,416 C58.75,415.448 59.2204,415 59.8,415 L61.9,415 C63.06025,415 64,414.105 64,413 L64,407 C64,405.895 63.06025,405 61.9,405 L61.9,405 Z" id="open_box-[#1439]"></path>
            </g>
        </g>
    </g>
</svg>