<?xml version="1.0" encoding="UTF-8" standalone="no"?>
<svg width="21px" height="20px" viewBox="0 0 21 20" version="1.1" xmlns="http://www.w3.org/2000/svg" xmlns:xlink="http://www.w3.org/1999/xlink">
    <!-- Generator: Sketch 3.8.1 (29687) - http://www.bohemiancoding.com/sketch -->
    <title>option_bar_settings [#1400]</title>
    <desc>Created with Sketch.</desc>
    <defs></defs>
    <g id="Page-1" stroke="none" stroke-width="1" fill="none" fill-rule="evenodd">
        <g id="Dribbble-Dark-Preview" transform="translate(-59.000000, -720.000000)" fill="#FFFFFF">
            <g id="icons" transform="translate(56.000000, 160.000000)">
                <path d="M21.9,574 L21.9,560 L19.8,560 L19.8,574 L17.7,574 L17.7,576 L19.8,576 L19.8,580 L21.9,580 L21.9,576 L24,576 L24,574 L21.9,574 Z M14.55,560 L12.45,560 L12.45,569 L10.35,569 L10.35,571 L12.45,571 L12.45,580 L14.55,580 L14.55,571 L16.65,571 L16.65,569 L14.55,569 L14.55,560 Z M7.2,574 L9.3,574 L9.3,576 L7.2,576 L7.2,580 L5.1,580 L5.1,576 L3,576 L3,574 L5.1,574 L5.1,560 L7.2,560 L7.2,574 Z" id="option_bar_settings-[#1400]"></path>
            </g>
        </g>
    </g>
</svg>