<?xml version="1.0" encoding="UTF-8" standalone="no"?>
<svg width="21px" height="20px" viewBox="0 0 21 20" version="1.1" xmlns="http://www.w3.org/2000/svg" xmlns:xlink="http://www.w3.org/1999/xlink">
    <!-- Generator: Sketch 3.8.1 (29687) - http://www.bohemiancoding.com/sketch -->
    <title>option_bar_settings [#1399]</title>
    <desc>Created with Sketch.</desc>
    <defs></defs>
    <g id="Page-1" stroke="none" stroke-width="1" fill="none" fill-rule="evenodd">
        <g id="Dribbble-Dark-Preview" transform="translate(-99.000000, -720.000000)" fill="#FFFFFF">
            <g id="icons" transform="translate(56.000000, 160.000000)">
                <path d="M61.9,564 L61.9,560 L59.8,560 L59.8,564 L57.7,564 L57.7,566 L59.8,566 L59.8,580 L61.9,580 L61.9,566 L64,566 L64,564 L61.9,564 Z M54.55,560 L52.45,560 L52.45,569 L50.35,569 L50.35,571 L52.45,571 L52.45,580 L54.55,580 L54.55,571 L56.65,571 L56.65,569 L54.55,569 L54.55,560 Z M47.2,574 L49.3,574 L49.3,576 L47.2,576 L47.2,580 L45.1,580 L45.1,576 L43,576 L43,574 L45.1,574 L45.1,560 L47.2,560 L47.2,574 Z" id="option_bar_settings-[#1399]"></path>
            </g>
        </g>
    </g>
</svg>