<?xml version="1.0" encoding="UTF-8" standalone="no"?>
<svg width="21px" height="20px" viewBox="0 0 21 20" version="1.1" xmlns="http://www.w3.org/2000/svg" xmlns:xlink="http://www.w3.org/1999/xlink">
    <!-- Generator: Sketch 3.8.1 (29687) - http://www.bohemiancoding.com/sketch -->
    <title>option_bar_settings [#1401]</title>
    <desc>Created with Sketch.</desc>
    <defs></defs>
    <g id="Page-1" stroke="none" stroke-width="1" fill="none" fill-rule="evenodd">
        <g id="Dribbble-Dark-Preview" transform="translate(-419.000000, -680.000000)" fill="#FFFFFF">
            <g id="icons" transform="translate(56.000000, 160.000000)">
                <path d="M381.9,529 L381.9,520 L379.8,520 L379.8,529 L377.7,529 L377.7,531 L379.8,531 L379.8,540 L381.9,540 L381.9,531 L384,531 L384,529 L381.9,529 Z M374.55,520 L372.45,520 L372.45,524 L370.35,524 L370.35,526 L372.45,526 L372.45,540 L374.55,540 L374.55,526 L376.65,526 L376.65,524 L374.55,524 L374.55,520 Z M367.2,529 L369.3,529 L369.3,531 L367.2,531 L367.2,540 L365.1,540 L365.1,531 L363,531 L363,529 L365.1,529 L365.1,520 L367.2,520 L367.2,529 Z" id="option_bar_settings-[#1401]"></path>
            </g>
        </g>
    </g>
</svg>