<?xml version="1.0" encoding="UTF-8" standalone="no"?>
<svg width="20px" height="20px" viewBox="0 0 20 20" version="1.1" xmlns="http://www.w3.org/2000/svg" xmlns:xlink="http://www.w3.org/1999/xlink">
    <!-- Generator: Sketch 3.8.1 (29687) - http://www.bohemiancoding.com/sketch -->
    <title>pac-man [#91]</title>
    <desc>Created with Sketch.</desc>
    <defs></defs>
    <g id="Page-1" stroke="none" stroke-width="1" fill="none" fill-rule="evenodd">
        <g id="Dribbble-Dark-Preview" transform="translate(-340.000000, -7799.000000)" fill="#FFFFFF">
            <g id="icons" transform="translate(56.000000, 160.000000)">
                <path d="M292.598473,7649.0125 C294.320664,7647.2875 293.840448,7647.7685 298.904187,7642.6965 C295.73336,7640.2155 291.224714,7640.4585 288.347408,7643.3405 C285.233488,7646.4595 285.224502,7651.5255 288.338423,7654.6445 C291.212734,7657.5235 295.748335,7657.7395 298.87823,7655.3025 C297.230917,7653.6525 296.191612,7652.6115 292.598473,7649.0125 L292.598473,7649.0125 Z M295.421868,7649.0125 L301.775503,7655.3765 C296.510093,7660.6505 290.386082,7659.5245 286.924729,7656.0575 C283.026088,7652.1525 283.024092,7645.8195 286.92373,7641.9135 C290.585757,7638.2455 296.423234,7638.0615 300.303904,7641.2455 C300.830046,7641.6775 301.253355,7642.1255 301.775503,7642.6485 L295.421868,7649.0125 Z M303.999875,7648.9155 C303.999875,7650.0195 303.106332,7650.9155 302.003132,7650.9155 C300.899932,7650.9155 300.006389,7650.0195 300.006389,7648.9155 C300.006389,7647.8105 300.899932,7646.9155 302.003132,7646.9155 C303.106332,7646.9155 303.999875,7647.8105 303.999875,7648.9155 L303.999875,7648.9155 Z" id="pac-man-[#91]"></path>
            </g>
        </g>
    </g>
</svg>