<?xml version="1.0" encoding="UTF-8" standalone="no"?>
<svg width="20px" height="20px" viewBox="0 0 20 20" version="1.1" xmlns="http://www.w3.org/2000/svg" xmlns:xlink="http://www.w3.org/1999/xlink">
    <!-- Generator: Sketch 3.8.1 (29687) - http://www.bohemiancoding.com/sketch -->
    <title>patreon [#141]</title>
    <desc>Created with Sketch.</desc>
    <defs></defs>
    <g id="Page-1" stroke="none" stroke-width="1" fill="none" fill-rule="evenodd">
        <g id="Dribbble-Dark-Preview" transform="translate(-180.000000, -7559.000000)" fill="#FFFFFF">
            <g id="icons" transform="translate(56.000000, 160.000000)">
                <path d="M124,7408.70915 C124,7400.62942 134.319362,7395.52381 140.916036,7401.81847 C144.447791,7405.17795 145.058576,7410.71985 142.163596,7414.7692 C138.572862,7419.68812 133.881516,7418.96231 129.403095,7418.96231 L129.403095,7409.37406 C129.44508,7407.25654 130.150832,7405.43054 132.727923,7404.55797 C134.973131,7403.89406 137.591208,7405.13902 138.38093,7407.50513 C139.212637,7410.03797 138.007062,7411.73918 136.59356,7412.77747 C135.181058,7413.81577 132.977835,7413.81577 131.523348,7412.8194 L131.523348,7416.09802 C134.662241,7417.59756 139.62949,7415.79452 141.207933,7411.69825 C142.288552,7408.83395 141.539816,7405.5134 139.295607,7403.43781 C136.59456,7401.23743 133.6426,7400.69831 130.484714,7402.23379 C128.281491,7403.35495 126.744033,7405.6382 126.369165,7408.12811 L126.369165,7418.96231 L124.041985,7418.96231 L124,7408.70915 Z" id="patreon-[#141]"></path>
            </g>
        </g>
    </g>
</svg>