<?xml version="1.0" encoding="UTF-8" standalone="no"?>
<svg width="22px" height="22px" viewBox="0 0 22 22" version="1.1" xmlns="http://www.w3.org/2000/svg" xmlns:xlink="http://www.w3.org/1999/xlink">
    <!-- Generator: Sketch 3.8.1 (29687) - http://www.bohemiancoding.com/sketch -->
    <title>pause_focus [#955]</title>
    <desc>Created with Sketch.</desc>
    <defs></defs>
    <g id="Page-1" stroke="none" stroke-width="1" fill="none" fill-rule="evenodd">
        <g id="Dribbble-Dark-Preview" transform="translate(-260.000000, -3959.000000)" fill="#FFFFFF">
            <g id="icons" transform="translate(56.000000, 160.000000)">
                <path d="M216,3813 L218,3813 L218,3805 L216,3805 L216,3813 Z M210,3813 L212,3813 L212,3805 L210,3805 L210,3813 Z M222,3813 L224,3813 L224,3805 L222,3805 L222,3813 Z M224,3817 L224,3815 L222,3815 L222,3817 L220,3817 L220,3819 L222,3819 L222,3821 L224,3821 L224,3819 L226,3819 L226,3817 L224,3817 Z M222,3803 L224,3803 L224,3799 L220,3799 L220,3801 L222,3801 L222,3803 Z M204,3813 L206,3813 L206,3805 L204,3805 L204,3813 Z M206,3815 L204,3815 L204,3819 L206.42,3819 L208,3819 L208,3817 L206,3817 L206,3815 Z M204,3803 L206,3803 L206,3801 L208,3801 L208,3799 L204,3799 L204,3803 Z M210,3819 L218,3819 L218,3817 L210,3817 L210,3819 Z M210,3801 L218,3801 L218,3799 L210,3799 L210,3801 Z" id="pause_focus-[#955]"></path>
            </g>
        </g>
    </g>
</svg>