<?xml version="1.0" encoding="UTF-8" standalone="no"?>
<svg width="22px" height="22px" viewBox="0 0 22 22" version="1.1" xmlns="http://www.w3.org/2000/svg" xmlns:xlink="http://www.w3.org/1999/xlink">
    <!-- Generator: Sketch 3.8.1 (29687) - http://www.bohemiancoding.com/sketch -->
    <title>pause_focus [#956]</title>
    <desc>Created with Sketch.</desc>
    <defs></defs>
    <g id="Page-1" stroke="none" stroke-width="1" fill="none" fill-rule="evenodd">
        <g id="Dribbble-Dark-Preview" transform="translate(-220.000000, -3959.000000)" fill="#FFFFFF">
            <g id="icons" transform="translate(56.000000, 160.000000)">
                <path d="M177,3813 L177,3813 C177.552,3813 178,3812.552 178,3812 L178,3806 C178,3805.448 177.552,3805 177,3805 C176.448,3805 176,3805.448 176,3806 L176,3812 C176,3812.552 176.448,3813 177,3813 L177,3813 Z M171,3805 L171,3805 C170.448,3805 170,3805.448 170,3806 L170,3812 C170,3812.552 170.448,3813 171,3813 C171.552,3813 172,3812.552 172,3812 L172,3806 C172,3805.448 171.552,3805 171,3805 L171,3805 Z M182,3813 L184,3813 L184,3805 L182,3805 L182,3813 Z M184,3817 L184,3816 C184,3815.448 183.552,3815 183,3815 C182.448,3815 182,3815.448 182,3816 L182,3817 L181,3817 C180.448,3817 180,3817.448 180,3818 C180,3818.552 180.448,3819 181,3819 L182,3819 L182,3820 C182,3820.552 182.448,3821 183,3821 C183.552,3821 184,3820.552 184,3820 L184,3819 L185,3819 C185.552,3819 186,3818.552 186,3818 C186,3817.448 185.552,3817 185,3817 L184,3817 Z M182,3803 L184,3803 L184,3801 C184,3799.895 183.105,3799 182,3799 L180,3799 L180,3801 L181,3801 C181.552,3801 182,3801.448 182,3802 L182,3803 Z M164,3813 L166,3813 L166,3805 L164,3805 L164,3813 Z M166,3815 L164,3815 L164,3817 C164,3818.105 164.895,3819 166,3819 L166.42,3819 L168,3819 L168,3817 L167,3817 C166.448,3817 166,3816.552 166,3816 L166,3815 Z M164,3803 L166,3803 L166,3802 C166,3801.448 166.448,3801 167,3801 L168,3801 L168,3799 L166,3799 C164.895,3799 164,3799.895 164,3801 L164,3803 Z M170,3819 L178,3819 L178,3817 L170,3817 L170,3819 Z M170,3801 L178,3801 L178,3799 L170,3799 L170,3801 Z" id="pause_focus-[#956]"></path>
            </g>
        </g>
    </g>
</svg>