<?xml version="1.0" encoding="UTF-8" standalone="no"?>
<svg width="17px" height="20px" viewBox="0 0 17 20" version="1.1" xmlns="http://www.w3.org/2000/svg" xmlns:xlink="http://www.w3.org/1999/xlink">
    <!-- Generator: Sketch 3.8.1 (29687) - http://www.bohemiancoding.com/sketch -->
    <title>paypal [#140]</title>
    <desc>Created with Sketch.</desc>
    <defs></defs>
    <g id="Page-1" stroke="none" stroke-width="1" fill="none" fill-rule="evenodd">
        <g id="Dribbble-Dark-Preview" transform="translate(-222.000000, -7559.000000)" fill="#FFFFFF">
            <g id="icons" transform="translate(56.000000, 160.000000)">
                <path d="M182.475463,7404.9 C181.260804,7410.117 177.555645,7411 172.578656,7411 L171.078137,7419 L173.825411,7419 C174.325918,7419 174.53555,7418.659 174.627828,7418.179 C175.312891,7413.848 175.216601,7414.557 175.278788,7413.879 C175.337966,7413.501 175.664951,7413 176.049108,7413 C179.698098,7413 182.118387,7411.945 182.857614,7408.158 C183.120405,7406.811 183.034145,7405.772 182.475463,7404.9 M171.134306,7410.86 L170.011926,7417 L166.535456,7417 C166.206465,7417 165.954707,7416.598 166.006864,7416.274 L168.602682,7399.751 C168.670887,7399.319 169.045014,7399 169.484337,7399 L175.718111,7399 C179.409228,7399 181.894714,7400.401 181.319983,7404.054 C180.313953,7410.56 174.737157,7410 172.199514,7410 C171.760191,7410 171.203515,7410.428 171.134306,7410.86" id="paypal-[#140]"></path>
            </g>
        </g>
    </g>
</svg>