<?xml version="1.0" encoding="UTF-8" standalone="no"?>
<svg width="20px" height="20px" viewBox="0 0 20 20" version="1.1" xmlns="http://www.w3.org/2000/svg" xmlns:xlink="http://www.w3.org/1999/xlink">
    <!-- Generator: Sketch 3.8.1 (29687) - http://www.bohemiancoding.com/sketch -->
    <title>pen [#1321]</title>
    <desc>Created with Sketch.</desc>
    <defs></defs>
    <g id="Page-1" stroke="none" stroke-width="1" fill="none" fill-rule="evenodd">
        <g id="Dribbble-Dark-Preview" transform="translate(-100.000000, -2319.000000)" fill="#FFFFFF">
            <g id="icons" transform="translate(56.000000, 160.000000)">
                <path d="M60.7679879,2163.59204 L48.3983407,2176.1136 C48.009107,2176.50761 47.3773508,2176.50761 46.9871191,2176.1136 C46.5978854,2175.71857 46.5978854,2175.07906 46.9871191,2174.68403 L59.3567663,2162.16348 C59.746,2161.76846 60.3777562,2161.76846 60.7679879,2162.16348 L60.7679879,2162.16348 C61.1582197,2162.5575 61.1582197,2163.19701 60.7679879,2163.59204 M63.698219,2161.88262 L61.0444437,2159.28011 C60.6512178,2158.89317 60.0214577,2158.91135 59.6362161,2159.3084 L44.2864361,2175.10431 C44.1027976,2175.29324 44,2175.54682 44,2175.81253 L44,2178.17762 C44,2178.73631 44.4461217,2179 44.9980351,2179 L47.2865296,2179 C47.5470168,2179 47.7975236,2178.99091 47.9841562,2178.80703 L63.6992171,2163.30612 C64.1004272,2162.90908 64.1004272,2162.27866 63.698219,2161.88262" id="pen-[#1321]"></path>
            </g>
        </g>
    </g>
</svg>