<?xml version="1.0" encoding="UTF-8" standalone="no"?>
<svg width="16px" height="20px" viewBox="0 0 16 20" version="1.1" xmlns="http://www.w3.org/2000/svg" xmlns:xlink="http://www.w3.org/1999/xlink">
    <!-- Generator: Sketch 3.8.1 (29687) - http://www.bohemiancoding.com/sketch -->
    <title>periscope [#121]</title>
    <desc>Created with Sketch.</desc>
    <defs></defs>
    <g id="Page-1" stroke="none" stroke-width="1" fill="none" fill-rule="evenodd">
        <g id="Dribbble-Dark-Preview" transform="translate(-182.000000, -7639.000000)" fill="#FFFFFF">
            <g id="icons" transform="translate(56.000000, 160.000000)">
                <path d="M134,7491.575 C131.319334,7491.575 129.145711,7489.453 129.145711,7486.836 C129.145711,7485.799 129.487836,7484.84 130.067606,7484.059 C130.13009,7485.062 130.979257,7485.856 132.022023,7485.856 C133.104738,7485.856 133.982586,7484.999 133.982586,7483.942 C133.982586,7483.187 133.533931,7482.536 132.882458,7482.225 C133.241997,7482.142 133.614853,7482.097 134,7482.097 C136.680666,7482.097 138.854289,7484.219 138.854289,7486.836 C138.854289,7489.453 136.680666,7491.575 134,7491.575 M134,7479 C129.58105,7479 126,7482.497 126,7486.81 C126,7492.618 132.396927,7499 134,7499 C135.603073,7499 142,7492.618 142,7486.81 C142,7482.497 138.41895,7479 134,7479" id="periscope-[#121]"></path>
            </g>
        </g>
    </g>
</svg>