<?xml version="1.0" encoding="UTF-8" standalone="no"?>
<svg width="12px" height="20px" viewBox="0 0 12 20" version="1.1" xmlns="http://www.w3.org/2000/svg" xmlns:xlink="http://www.w3.org/1999/xlink">
    <!-- Generator: Sketch 3.8.1 (29687) - http://www.bohemiancoding.com/sketch -->
    <title>phone [#224]</title>
    <desc>Created with Sketch.</desc>
    <defs></defs>
    <g id="Page-1" stroke="none" stroke-width="1" fill="none" fill-rule="evenodd">
        <g id="Dribbble-Dark-Preview" transform="translate(-424.000000, -7159.000000)" fill="#FFFFFF">
            <g id="icons" transform="translate(56.000000, 160.000000)">
                <path d="M378,7016 L378,7011 L370,7011 L370,7016 C370,7016.552 370.448,7017 371,7017 L377,7017 C377.552,7017 378,7016.552 378,7016 M370,7002 L370,7009 L378,7009 L378,7002 C378,7001.448 377.552,7001 377,7001 L371,7001 C370.448,7001 370,7001.448 370,7002 M380,7001 L380,7017 C380,7018.105 379.105,7019 378,7019 L370,7019 C368.895,7019 368,7018.105 368,7017 L368,7001 C368,6999.895 368.895,6999 370,6999 L378,6999 C379.105,6999 380,6999.895 380,7001 M375.021,7014 C375.021,7014.552 374.573,7015 374.021,7015 C373.469,7015 373.021,7014.552 373.021,7014 C373.021,7013.448 373.469,7013 374.021,7013 C374.573,7013 375.021,7013.448 375.021,7014" id="phone-[#224]"></path>
            </g>
        </g>
    </g>
</svg>