<?xml version="1.0" encoding="UTF-8" standalone="no"?>
<svg width="15px" height="20px" viewBox="0 0 15 20" version="1.1" xmlns="http://www.w3.org/2000/svg" xmlns:xlink="http://www.w3.org/1999/xlink">
    <!-- Generator: Sketch 3.8.1 (29687) - http://www.bohemiancoding.com/sketch -->
    <title>phone_phone [#204]</title>
    <desc>Created with Sketch.</desc>
    <defs></defs>
    <g id="Page-1" stroke="none" stroke-width="1" fill="none" fill-rule="evenodd">
        <g id="Dribbble-Dark-Preview" transform="translate(-423.000000, -7239.000000)" fill="#FFFFFF">
            <g id="icons" transform="translate(56.000000, 160.000000)">
                <path d="M382,7093 L382,7079 L372,7079 L372,7083 L374,7083 L374,7081 L380,7081 L380,7091 L378,7091 L378,7093 L382,7093 Z M369,7097 L375,7097 L375,7086 L369,7086 L369,7097 Z M367,7099 L367,7099 L367,7084 L377,7084 L377,7099 L367,7099 Z M371.042,7095 L373.042,7095 L373.042,7093 L371.042,7093 L371.042,7095 Z" id="phone_phone-[#204]"></path>
            </g>
        </g>
    </g>
</svg>