<?xml version="1.0" encoding="UTF-8" standalone="no"?>
<svg width="20px" height="20px" viewBox="0 0 20 20" version="1.1" xmlns="http://www.w3.org/2000/svg" xmlns:xlink="http://www.w3.org/1999/xlink">
    <!-- Generator: Sketch 3.8.1 (29687) - http://www.bohemiancoding.com/sketch -->
    <title>phone_rotation [#199]</title>
    <desc>Created with Sketch.</desc>
    <defs></defs>
    <g id="Page-1" stroke="none" stroke-width="1" fill="none" fill-rule="evenodd">
        <g id="Dribbble-Dark-Preview" transform="translate(-220.000000, -7279.000000)" fill="#FFFFFF">
            <g id="icons" transform="translate(56.000000, 160.000000)">
                <path d="M184,7135 L181.997898,7135 L181.997898,7137 L168.984233,7137 L168.984233,7126.905 L170.526853,7128.332 L171.888283,7126.879 L167.935132,7123.208 L164,7126.879 L165.385455,7128.332 L166.982131,7126.905 L166.982131,7139 L184,7139 L184,7135 Z M175.991591,7132 L181.997898,7132 L181.997898,7121 L175.991591,7121 L175.991591,7132 Z M173.989489,7134 L173.989489,7134 L173.989489,7119 L184,7119 L184,7134 L173.989489,7134 Z M177.993693,7130 L179.995796,7130 L179.995796,7128 L177.993693,7128 L177.993693,7130 Z" id="phone_rotation-[#199]"></path>
            </g>
        </g>
    </g>
</svg>