<?xml version="1.0" encoding="UTF-8" standalone="no"?>
<svg width="15px" height="20px" viewBox="0 0 15 20" version="1.1" xmlns="http://www.w3.org/2000/svg" xmlns:xlink="http://www.w3.org/1999/xlink">
    <!-- Generator: Sketch 3.8.1 (29687) - http://www.bohemiancoding.com/sketch -->
    <title>phone_phone [#205]</title>
    <desc>Created with Sketch.</desc>
    <defs></defs>
    <g id="Page-1" stroke="none" stroke-width="1" fill="none" fill-rule="evenodd">
        <g id="Dribbble-Dark-Preview" transform="translate(-383.000000, -7239.000000)" fill="#FFFFFF">
            <g id="icons" transform="translate(56.000000, 160.000000)">
                <path d="M340,7079 L334,7079 C332.895,7079 332,7079.895 332,7081 L332,7082 C332,7082.552 332.448,7083 333,7083 C333.552,7083 334,7082.552 334,7082 C334,7081.448 334.448,7081 335,7081 L339,7081 C339.552,7081 340,7081.448 340,7082 L340,7090 C340,7090.552 339.552,7091 339,7091 C338.448,7091 338,7091.448 338,7092 C338,7092.552 338.448,7093 339,7093 L340,7093 C341.105,7093 342,7092.105 342,7091 L342,7081 C342,7079.895 341.105,7079 340,7079 M335,7096 L335,7087 C335,7086.448 334.552,7086 334,7086 L330,7086 C329.448,7086 329,7086.448 329,7087 L329,7096 C329,7096.552 329.448,7097 330,7097 L334,7097 C334.552,7097 335,7096.552 335,7096 M329,7084 L335,7084 C336.105,7084 337,7084.895 337,7086 L337,7097 C337,7098.105 336.105,7099 335,7099 L329,7099 C327.895,7099 327,7098.105 327,7097 L327,7086 C327,7084.895 327.895,7084 329,7084 M333.042,7094 L333.042,7094 C333.042,7094.552 332.594,7095 332.042,7095 C331.489,7095 331.042,7094.552 331.042,7094 C331.042,7093.448 331.489,7093 332.042,7093 C332.594,7093 333.042,7093.448 333.042,7094" id="phone_phone-[#205]"></path>
            </g>
        </g>
    </g>
</svg>