<?xml version="1.0" encoding="UTF-8" standalone="no"?>
<svg width="20px" height="20px" viewBox="0 0 20 20" version="1.1" xmlns="http://www.w3.org/2000/svg" xmlns:xlink="http://www.w3.org/1999/xlink">
    <!-- Generator: Sketch 3.8.1 (29687) - http://www.bohemiancoding.com/sketch -->
    <title>phone_rotation [#198]</title>
    <desc>Created with Sketch.</desc>
    <defs></defs>
    <g id="Page-1" stroke="none" stroke-width="1" fill="none" fill-rule="evenodd">
        <g id="Dribbble-Dark-Preview" transform="translate(-260.000000, -7279.000000)" fill="#FFFFFF">
            <g id="icons" transform="translate(56.000000, 160.000000)">
                <path d="M222.653798,7129.6676 L221.181262,7131.0946 L221.181262,7118.9996 L204,7118.9996 L204,7122.9996 L206.021325,7122.9996 L206.021325,7120.9996 L219.159937,7120.9996 L219.159937,7131.0946 L217.463035,7129.6676 L216.018798,7131.1216 L219.974531,7134.7926 L224,7131.1216 L222.653798,7129.6676 Z M206.021325,7136.9996 L212.0853,7136.9996 L212.0853,7125.9996 L206.021325,7125.9996 L206.021325,7136.9996 Z M204,7138.9996 L214.106625,7138.9996 L214.106625,7123.9996 L204,7123.9996 L204,7138.9996 Z M208.085098,7134.9996 L210.106423,7134.9996 L210.106423,7132.9996 L208.085098,7132.9996 L208.085098,7134.9996 Z" id="phone_rotation-[#198]"></path>
            </g>
        </g>
    </g>
</svg>