<?xml version="1.0" encoding="UTF-8" standalone="no"?>
<svg width="20px" height="20px" viewBox="0 0 20 20" version="1.1" xmlns="http://www.w3.org/2000/svg" xmlns:xlink="http://www.w3.org/1999/xlink">
    <!-- Generator: Sketch 3.8.1 (29687) - http://www.bohemiancoding.com/sketch -->
    <title>phone_desktop [#207]</title>
    <desc>Created with Sketch.</desc>
    <defs></defs>
    <g id="Page-1" stroke="none" stroke-width="1" fill="none" fill-rule="evenodd">
        <g id="Dribbble-Dark-Preview" transform="translate(-300.000000, -7239.000000)" fill="#FFFFFF">
            <g id="icons" transform="translate(56.000000, 160.000000)">
                <path d="M262,7079 L246,7079 C244.895,7079 244,7079.895 244,7081 L244,7082 C244,7082.552 244.448,7083 245,7083 C245.552,7083 246,7082.552 246,7082 C246,7081.448 246.448,7081 247,7081 L261,7081 C261.552,7081 262,7081.448 262,7082 L262,7090 C262,7090.552 261.552,7091 261,7091 L257,7091 C255.895,7091 255,7091.895 255,7093 L255,7097 C255,7098.105 255.895,7099 257,7099 L260,7099 C260.552,7099 261,7098.552 261,7098 C261,7097.448 260.552,7097 260,7097 L258,7097 C257.448,7097 257,7096.552 257,7096 L257,7094 C257,7093.448 257.448,7093 258,7093 L262,7093 C263.105,7093 264,7092.105 264,7091 L264,7081 C264,7079.895 263.105,7079 262,7079 M252,7096 L252,7087 C252,7086.448 251.552,7086 251,7086 L247,7086 C246.448,7086 246,7086.448 246,7087 L246,7096 C246,7096.552 246.448,7097 247,7097 L251,7097 C251.552,7097 252,7096.552 252,7096 M246,7084 L252,7084 C253.105,7084 254,7084.895 254,7086 L254,7097 C254,7098.105 253.105,7099 252,7099 L246,7099 C244.895,7099 244,7098.105 244,7097 L244,7086 C244,7084.895 244.895,7084 246,7084 M250.042,7094 L250.042,7094 C250.042,7094.552 249.594,7095 249.042,7095 C248.489,7095 248.042,7094.552 248.042,7094 C248.042,7093.448 248.489,7093 249.042,7093 C249.594,7093 250.042,7093.448 250.042,7094" id="phone_desktop-[#207]"></path>
            </g>
        </g>
    </g>
</svg>