<?xml version="1.0" encoding="UTF-8" standalone="no"?>
<svg width="20px" height="20px" viewBox="0 0 20 20" version="1.1" xmlns="http://www.w3.org/2000/svg" xmlns:xlink="http://www.w3.org/1999/xlink">
    <!-- Generator: Sketch 3.8.1 (29687) - http://www.bohemiancoding.com/sketch -->
    <title>phone_rotation [#200]</title>
    <desc>Created with Sketch.</desc>
    <defs></defs>
    <g id="Page-1" stroke="none" stroke-width="1" fill="none" fill-rule="evenodd">
        <g id="Dribbble-Dark-Preview" transform="translate(-180.000000, -7279.000000)" fill="#FFFFFF">
            <g id="icons" transform="translate(56.000000, 160.000000)">
                <path d="M142.981597,7135 L142.97444,7135 C142.411046,7135 141.955014,7135.446 141.955014,7135.996 L141.955014,7136.004 C141.955014,7136.554 141.498983,7137 140.936612,7137 L129.682033,7137 C129.11864,7137 128.662608,7136.554 128.662608,7136.004 L128.662608,7126.905 L129.494917,7127.659 C129.905959,7128.031 130.548084,7128.009 130.930497,7127.609 C131.315977,7127.206 131.293482,7126.574 130.880395,7126.198 L128.986738,7124.477 C128.200441,7123.762 126.983675,7123.763 126.199423,7124.479 L124.323148,7126.192 C123.909039,7126.57 123.890634,7127.206 124.281226,7127.607 L124.305766,7127.633 C124.685111,7128.023 125.312921,7128.047 125.722941,7127.688 L126.617622,7126.905 L126.617622,7137 C126.617622,7138.105 127.533776,7139 128.662608,7139 L141.955014,7139 C143.084869,7139 144,7138.105 144,7137 L144,7135.996 C144,7135.446 143.543968,7135 142.981597,7135 L142.981597,7135 Z M141.955014,7121.996 C141.955014,7121.446 141.498983,7121 140.936612,7121 L136.839483,7121 C136.276089,7121 135.820057,7121.446 135.820057,7121.996 L135.820057,7131.004 C135.820057,7131.554 136.276089,7132 136.839483,7132 L140.936612,7132 C141.498983,7132 141.955014,7131.554 141.955014,7131.004 L141.955014,7121.996 Z M144,7121 L144,7132 C144,7133.105 143.084869,7134 141.955014,7134 L135.820057,7134 C134.691225,7134 133.775072,7133.105 133.775072,7132 L133.775072,7121 C133.775072,7119.895 134.691225,7119 135.820057,7119 L141.955014,7119 C143.084869,7119 144,7119.895 144,7121 L144,7121 Z M139.910029,7128.996 L139.910029,7129.004 C139.910029,7129.554 139.453997,7130 138.891626,7130 L138.884468,7130 C138.321075,7130 137.865043,7129.554 137.865043,7129.004 L137.865043,7128.996 C137.865043,7128.446 138.321075,7128 138.884468,7128 L138.891626,7128 C139.453997,7128 139.910029,7128.446 139.910029,7128.996 L139.910029,7128.996 Z" id="phone_rotation-[#200]"></path>
            </g>
        </g>
    </g>
</svg>