<?xml version="1.0" encoding="UTF-8" standalone="no"?>
<svg width="14px" height="20px" viewBox="0 0 14 20" version="1.1" xmlns="http://www.w3.org/2000/svg" xmlns:xlink="http://www.w3.org/1999/xlink">
    <!-- Generator: Sketch 3.8.1 (29687) - http://www.bohemiancoding.com/sketch -->
    <title>pin_fill_rounded_minus [#631]</title>
    <desc>Created with Sketch.</desc>
    <defs></defs>
    <g id="Page-1" stroke="none" stroke-width="1" fill="none" fill-rule="evenodd">
        <g id="Dribbble-Dark-Preview" transform="translate(-343.000000, -5399.000000)" fill="#FFFFFF">
            <g id="icons" transform="translate(56.000000, 160.000000)">
                <path d="M296,5247 L292,5247 C291.448,5247 291,5246.552 291,5246 C291,5245.448 291.448,5245 292,5245 L296,5245 C296.552,5245 297,5245.448 297,5246 C297,5246.552 296.552,5247 296,5247 M294,5239 C290.134,5239 287,5242.134 287,5246 C287,5249.866 290.134,5259 294,5259 C297.866,5259 301,5249.866 301,5246 C301,5242.134 297.866,5239 294,5239" id="pin_fill_rounded_minus-[#631]"></path>
            </g>
        </g>
    </g>
</svg>