<?xml version="1.0" encoding="UTF-8" standalone="no"?>
<svg width="14px" height="20px" viewBox="0 0 14 20" version="1.1" xmlns="http://www.w3.org/2000/svg" xmlns:xlink="http://www.w3.org/1999/xlink">
    <!-- Generator: Sketch 3.8.1 (29687) - http://www.bohemiancoding.com/sketch -->
    <title>pin_fill_sharp_plus [#637]</title>
    <desc>Created with Sketch.</desc>
    <defs></defs>
    <g id="Page-1" stroke="none" stroke-width="1" fill="none" fill-rule="evenodd">
        <g id="Dribbble-Dark-Preview" transform="translate(-103.000000, -5399.000000)" fill="#FFFFFF">
            <g id="icons" transform="translate(56.000000, 160.000000)">
                <path d="M56,5247 L55,5247 L55,5248 C55,5248.552 54.552,5249 54,5249 C53.448,5249 53,5248.552 53,5248 L53,5247 L52,5247 C51.448,5247 51,5246.552 51,5246 C51,5245.448 51.448,5245 52,5245 L53,5245 L53,5244 C53,5243.448 53.448,5243 54,5243 C54.552,5243 55,5243.448 55,5244 L55,5245 L56,5245 C56.552,5245 57,5245.448 57,5246 C57,5246.552 56.552,5247 56,5247 M54,5239 C50.134,5239 47,5242.134 47,5246 C47,5249.866 54,5259 54,5259 C54,5259 61,5249.866 61,5246 C61,5242.134 57.866,5239 54,5239" id="pin_fill_sharp_plus-[#637]"></path>
            </g>
        </g>
    </g>
</svg>