<?xml version="1.0" encoding="UTF-8" standalone="no"?>
<svg width="14px" height="20px" viewBox="0 0 14 20" version="1.1" xmlns="http://www.w3.org/2000/svg" xmlns:xlink="http://www.w3.org/1999/xlink">
    <!-- Generator: Sketch 3.8.1 (29687) - http://www.bohemiancoding.com/sketch -->
    <title>pin_fill_sharp_circle [#635]</title>
    <desc>Created with Sketch.</desc>
    <defs></defs>
    <g id="Page-1" stroke="none" stroke-width="1" fill="none" fill-rule="evenodd">
        <g id="Dribbble-Dark-Preview" transform="translate(-183.000000, -5399.000000)" fill="#FFFFFF">
            <g id="icons" transform="translate(56.000000, 160.000000)">
                <path d="M137,5246.635 C137,5244.978 135.657,5243.635 134,5243.635 C132.343,5243.635 131,5244.978 131,5246.635 C131,5248.292 132.343,5249.635 134,5249.635 C135.657,5249.635 137,5248.292 137,5246.635 M141,5246 C141,5249.866 134,5259 134,5259 C134,5259 127,5249.866 127,5246 C127,5242.134 130.134,5239 134,5239 C137.866,5239 141,5242.134 141,5246 M135,5246.635 C135,5247.186 134.551,5247.635 134,5247.635 C133.449,5247.635 133,5247.186 133,5246.635 C133,5246.084 133.449,5245.635 134,5245.635 C134.551,5245.635 135,5246.084 135,5246.635" id="pin_fill_sharp_circle-[#635]"></path>
            </g>
        </g>
    </g>
</svg>