<?xml version="1.0" encoding="UTF-8" standalone="no"?>
<svg width="14px" height="20px" viewBox="0 0 14 20" version="1.1" xmlns="http://www.w3.org/2000/svg" xmlns:xlink="http://www.w3.org/1999/xlink">
    <!-- Generator: Sketch 3.8.1 (29687) - http://www.bohemiancoding.com/sketch -->
    <title>pin_sharp_plus [#627]</title>
    <desc>Created with Sketch.</desc>
    <defs></defs>
    <g id="Page-1" stroke="none" stroke-width="1" fill="none" fill-rule="evenodd">
        <g id="Dribbble-Dark-Preview" transform="translate(-103.000000, -5439.000000)" fill="#FFFFFF">
            <g id="icons" transform="translate(56.000000, 160.000000)">
                <path d="M57,5286 C57,5286.552 56.552,5287 56,5287 L55,5287 L55,5288 C55,5288.552 54.552,5289 54,5289 C53.448,5289 53,5288.552 53,5288 L53,5287 L52,5287 C51.448,5287 51,5286.552 51,5286 C51,5285.448 51.448,5285 52,5285 L53,5285 L53,5284 C53,5283.448 53.448,5283 54,5283 C54.552,5283 55,5283.448 55,5284 L55,5285 L56,5285 C56.552,5285 57,5285.448 57,5286 M54,5296 C54,5296 49,5289 49,5286 C49,5283.243 51.243,5281 54,5281 C56.757,5281 59,5283.243 59,5286 C59,5289 54,5296 54,5296 M54,5279 C50.134,5279 47,5282.134 47,5286 C47,5289.866 54,5299 54,5299 C54,5299 61,5289.866 61,5286 C61,5282.134 57.866,5279 54,5279" id="pin_sharp_plus-[#627]"></path>
            </g>
        </g>
    </g>
</svg>