<?xml version="1.0" encoding="UTF-8" standalone="no"?>
<svg width="14px" height="20px" viewBox="0 0 14 20" version="1.1" xmlns="http://www.w3.org/2000/svg" xmlns:xlink="http://www.w3.org/1999/xlink">
    <!-- Generator: Sketch 3.8.1 (29687) - http://www.bohemiancoding.com/sketch -->
    <title>pin_rounded_close [#623]</title>
    <desc>Created with Sketch.</desc>
    <defs></defs>
    <g id="Page-1" stroke="none" stroke-width="1" fill="none" fill-rule="evenodd">
        <g id="Dribbble-Dark-Preview" transform="translate(-263.000000, -5439.000000)" fill="#FFFFFF">
            <g id="icons" transform="translate(56.000000, 160.000000)">
                <path d="M216.121,5285.512 L215.414,5286.219 L216.121,5286.926 C216.512,5287.317 216.512,5287.95 216.121,5288.34 C215.73,5288.731 215.097,5288.731 214.707,5288.34 L214,5287.633 L213.293,5288.34 C212.902,5288.731 212.269,5288.731 211.878,5288.34 C211.488,5287.95 211.488,5287.317 211.878,5286.926 L212.585,5286.219 L211.878,5285.512 C211.488,5285.121 211.488,5284.488 211.878,5284.098 C212.269,5283.707 212.902,5283.707 213.293,5284.098 L214,5284.805 L214.707,5284.098 C215.097,5283.707 215.73,5283.707 216.121,5284.098 C216.512,5284.488 216.512,5285.121 216.121,5285.512 M214,5297 C212.177,5297 209,5290.01 209,5286 C209,5283.243 211.243,5281 214,5281 C216.757,5281 219,5283.243 219,5286 C219,5290.01 215.822,5297 214,5297 M214,5279 C210.134,5279 207,5282.134 207,5286 C207,5289.866 210.134,5299 214,5299 C217.866,5299 221,5289.866 221,5286 C221,5282.134 217.866,5279 214,5279" id="pin_rounded_close-[#623]"></path>
            </g>
        </g>
    </g>
</svg>