<?xml version="1.0" encoding="UTF-8" standalone="no"?>
<svg width="14px" height="20px" viewBox="0 0 14 20" version="1.1" xmlns="http://www.w3.org/2000/svg" xmlns:xlink="http://www.w3.org/1999/xlink">
    <!-- Generator: Sketch 3.8.1 (29687) - http://www.bohemiancoding.com/sketch -->
    <title>pin_fill_sharp_minus [#636]</title>
    <desc>Created with Sketch.</desc>
    <defs></defs>
    <g id="Page-1" stroke="none" stroke-width="1" fill="none" fill-rule="evenodd">
        <g id="Dribbble-Dark-Preview" transform="translate(-143.000000, -5399.000000)" fill="#FFFFFF">
            <g id="icons" transform="translate(56.000000, 160.000000)">
                <path d="M96,5247 L92,5247 C91.448,5247 91,5246.552 91,5246 C91,5245.448 91.448,5245 92,5245 L96,5245 C96.552,5245 97,5245.448 97,5246 C97,5246.552 96.552,5247 96,5247 M94,5239 C90.134,5239 87,5242.134 87,5246 C87,5249.866 94,5259 94,5259 C94,5259 101,5249.866 101,5246 C101,5242.134 97.866,5239 94,5239" id="pin_fill_sharp_minus-[#636]"></path>
            </g>
        </g>
    </g>
</svg>