<?xml version="1.0" encoding="UTF-8" standalone="no"?>
<svg width="14px" height="20px" viewBox="0 0 14 20" version="1.1" xmlns="http://www.w3.org/2000/svg" xmlns:xlink="http://www.w3.org/1999/xlink">
    <!-- Generator: Sketch 3.8.1 (29687) - http://www.bohemiancoding.com/sketch -->
    <title>pin_fill_rounded_plus [#632]</title>
    <desc>Created with Sketch.</desc>
    <defs></defs>
    <g id="Page-1" stroke="none" stroke-width="1" fill="none" fill-rule="evenodd">
        <g id="Dribbble-Dark-Preview" transform="translate(-303.000000, -5399.000000)" fill="#FFFFFF">
            <g id="icons" transform="translate(56.000000, 160.000000)">
                <path d="M256,5247 L255,5247 L255,5248 C255,5248.552 254.552,5249 254,5249 C253.448,5249 253,5248.552 253,5248 L253,5247 L252,5247 C251.448,5247 251,5246.552 251,5246 C251,5245.448 251.448,5245 252,5245 L253,5245 L253,5244 C253,5243.448 253.448,5243 254,5243 C254.552,5243 255,5243.448 255,5244 L255,5245 L256,5245 C256.552,5245 257,5245.448 257,5246 C257,5246.552 256.552,5247 256,5247 M254,5239 C250.134,5239 247,5242.134 247,5246 C247,5249.866 250.134,5259 254,5259 C257.866,5259 261,5249.866 261,5246 C261,5242.134 257.866,5239 254,5239" id="pin_fill_rounded_plus-[#632]"></path>
            </g>
        </g>
    </g>
</svg>