<?xml version="1.0" encoding="UTF-8" standalone="no"?>
<svg width="14px" height="20px" viewBox="0 0 14 20" version="1.1" xmlns="http://www.w3.org/2000/svg" xmlns:xlink="http://www.w3.org/1999/xlink">
    <!-- Generator: Sketch 3.8.1 (29687) - http://www.bohemiancoding.com/sketch -->
    <title>pin_fill_rounded_circle [#630]</title>
    <desc>Created with Sketch.</desc>
    <defs></defs>
    <g id="Page-1" stroke="none" stroke-width="1" fill="none" fill-rule="evenodd">
        <g id="Dribbble-Dark-Preview" transform="translate(-383.000000, -5399.000000)" fill="#FFFFFF">
            <g id="icons" transform="translate(56.000000, 160.000000)">
                <path d="M337,5246.635 C337,5244.978 335.657,5243.635 334,5243.635 C332.343,5243.635 331,5244.978 331,5246.635 C331,5248.292 332.343,5249.635 334,5249.635 C335.657,5249.635 337,5248.292 337,5246.635 M341,5246 C341,5249.866 337.866,5259 334,5259 C330.134,5259 327,5249.866 327,5246 C327,5242.134 330.134,5239 334,5239 C337.866,5239 341,5242.134 341,5246 M335,5246.635 C335,5247.186 334.551,5247.635 334,5247.635 C333.449,5247.635 333,5247.186 333,5246.635 C333,5246.084 333.449,5245.635 334,5245.635 C334.551,5245.635 335,5246.084 335,5246.635" id="pin_fill_rounded_circle-[#630]"></path>
            </g>
        </g>
    </g>
</svg>