<?xml version="1.0" encoding="UTF-8" standalone="no"?>
<svg width="14px" height="20px" viewBox="0 0 14 20" version="1.1" xmlns="http://www.w3.org/2000/svg" xmlns:xlink="http://www.w3.org/1999/xlink">
    <!-- Generator: Sketch 3.8.1 (29687) - http://www.bohemiancoding.com/sketch -->
    <title>pin_fill_sharp_close [#638]</title>
    <desc>Created with Sketch.</desc>
    <defs></defs>
    <g id="Page-1" stroke="none" stroke-width="1" fill="none" fill-rule="evenodd">
        <g id="Dribbble-Dark-Preview" transform="translate(-63.000000, -5399.000000)" fill="#FFFFFF">
            <g id="icons" transform="translate(56.000000, 160.000000)">
                <path d="M16.121,5246.926 C16.512,5247.317 16.512,5247.95 16.121,5248.34 C15.73,5248.731 15.097,5248.731 14.707,5248.34 L14,5247.633 L13.293,5248.34 C12.902,5248.731 12.269,5248.731 11.878,5248.34 C11.488,5247.95 11.488,5247.317 11.878,5246.926 L12.585,5246.219 L11.878,5245.512 C11.488,5245.121 11.488,5244.488 11.878,5244.098 C12.269,5243.707 12.902,5243.707 13.293,5244.098 L14,5244.805 L14.707,5244.098 C15.097,5243.707 15.73,5243.707 16.121,5244.098 C16.512,5244.488 16.512,5245.121 16.121,5245.512 L15.414,5246.219 L16.121,5246.926 Z M14,5239 C10.134,5239 7,5242.134 7,5246 C7,5249.866 14,5259 14,5259 C14,5259 21,5249.866 21,5246 C21,5242.134 17.866,5239 14,5239 L14,5239 Z" id="pin_fill_sharp_close-[#638]"></path>
            </g>
        </g>
    </g>
</svg>