<?xml version="1.0" encoding="UTF-8" standalone="no"?>
<svg width="14px" height="20px" viewBox="0 0 14 20" version="1.1" xmlns="http://www.w3.org/2000/svg" xmlns:xlink="http://www.w3.org/1999/xlink">
    <!-- Generator: Sketch 3.8.1 (29687) - http://www.bohemiancoding.com/sketch -->
    <title>pin_rounded_circle [#619]</title>
    <desc>Created with Sketch.</desc>
    <defs></defs>
    <g id="Page-1" stroke="none" stroke-width="1" fill="none" fill-rule="evenodd">
        <g id="Dribbble-Dark-Preview" transform="translate(-423.000000, -5439.000000)" fill="#FFFFFF">
            <g id="icons" transform="translate(56.000000, 160.000000)">
                <path d="M376,5286.219 C376,5287.324 375.105,5288.219 374,5288.219 C372.895,5288.219 372,5287.324 372,5286.219 C372,5285.114 372.895,5284.219 374,5284.219 C375.105,5284.219 376,5285.114 376,5286.219 M374,5297 C372.178,5297 369,5290.01 369,5286 C369,5283.243 371.243,5281 374,5281 C376.757,5281 379,5283.243 379,5286 C379,5290.01 375.822,5297 374,5297 M374,5279 C370.134,5279 367,5282.134 367,5286 C367,5289.866 370.134,5299 374,5299 C377.866,5299 381,5289.866 381,5286 C381,5282.134 377.866,5279 374,5279" id="pin_rounded_circle-[#619]"></path>
            </g>
        </g>
    </g>
</svg>