<?xml version="1.0" encoding="UTF-8" standalone="no"?>
<svg width="14px" height="20px" viewBox="0 0 14 20" version="1.1" xmlns="http://www.w3.org/2000/svg" xmlns:xlink="http://www.w3.org/1999/xlink">
    <!-- Generator: Sketch 3.8.1 (29687) - http://www.bohemiancoding.com/sketch -->
    <title>pin_sharp_minus [#626]</title>
    <desc>Created with Sketch.</desc>
    <defs></defs>
    <g id="Page-1" stroke="none" stroke-width="1" fill="none" fill-rule="evenodd">
        <g id="Dribbble-Dark-Preview" transform="translate(-143.000000, -5439.000000)" fill="#FFFFFF">
            <g id="icons" transform="translate(56.000000, 160.000000)">
                <path d="M99,5286 C99,5283.243 96.757,5281 94,5281 C91.243,5281 89,5283.243 89,5286 C89,5289 94,5296 94,5296 C94,5296 99,5289 99,5286 M101,5286 C101,5289.866 94,5299 94,5299 C94,5299 87,5289.866 87,5286 C87,5282.134 90.134,5279 94,5279 C97.866,5279 101,5282.134 101,5286 M97,5286 C97,5286.552 96.552,5287 96,5287 L92,5287 C91.448,5287 91,5286.552 91,5286 C91,5285.448 91.448,5285 92,5285 L96,5285 C96.552,5285 97,5285.448 97,5286" id="pin_sharp_minus-[#626]"></path>
            </g>
        </g>
    </g>
</svg>