<?xml version="1.0" encoding="UTF-8" standalone="no"?>
<svg width="14px" height="20px" viewBox="0 0 14 20" version="1.1" xmlns="http://www.w3.org/2000/svg" xmlns:xlink="http://www.w3.org/1999/xlink">
    <!-- Generator: Sketch 3.8.1 (29687) - http://www.bohemiancoding.com/sketch -->
    <title>pin_fill_rounded_close [#633]</title>
    <desc>Created with Sketch.</desc>
    <defs></defs>
    <g id="Page-1" stroke="none" stroke-width="1" fill="none" fill-rule="evenodd">
        <g id="Dribbble-Dark-Preview" transform="translate(-263.000000, -5399.000000)" fill="#FFFFFF">
            <g id="icons" transform="translate(56.000000, 160.000000)">
                <path d="M216.121,5246.926 C216.512,5247.317 216.512,5247.95 216.121,5248.34 C215.73,5248.731 215.097,5248.731 214.707,5248.34 L214,5247.633 L213.293,5248.34 C212.902,5248.731 212.269,5248.731 211.878,5248.34 C211.488,5247.95 211.488,5247.317 211.878,5246.926 L212.585,5246.219 L211.878,5245.512 C211.488,5245.121 211.488,5244.488 211.878,5244.098 C212.269,5243.707 212.902,5243.707 213.293,5244.098 L214,5244.805 L214.707,5244.098 C215.097,5243.707 215.73,5243.707 216.121,5244.098 C216.512,5244.488 216.512,5245.121 216.121,5245.512 L215.414,5246.219 L216.121,5246.926 Z M214,5239 C210.134,5239 207,5242.134 207,5246 C207,5249.866 210.134,5259 214,5259 C217.866,5259 221,5249.866 221,5246 C221,5242.134 217.866,5239 214,5239 L214,5239 Z" id="pin_fill_rounded_close-[#633]"></path>
            </g>
        </g>
    </g>
</svg>