<?xml version="1.0" encoding="UTF-8" standalone="no"?>
<svg width="14px" height="20px" viewBox="0 0 14 20" version="1.1" xmlns="http://www.w3.org/2000/svg" xmlns:xlink="http://www.w3.org/1999/xlink">
    <!-- Generator: Sketch 3.8.1 (29687) - http://www.bohemiancoding.com/sketch -->
    <title>pin_rounded_minus [#621]</title>
    <desc>Created with Sketch.</desc>
    <defs></defs>
    <g id="Page-1" stroke="none" stroke-width="1" fill="none" fill-rule="evenodd">
        <g id="Dribbble-Dark-Preview" transform="translate(-343.000000, -5439.000000)" fill="#FFFFFF">
            <g id="icons" transform="translate(56.000000, 160.000000)">
                <path d="M297,5286 C297,5286.552 296.552,5287 296,5287 L292,5287 C291.448,5287 291,5286.552 291,5286 C291,5285.448 291.448,5285 292,5285 L296,5285 C296.552,5285 297,5285.448 297,5286 M294,5297 C292.178,5297 289,5290.009 289,5286 C289,5283.243 291.243,5281 294,5281 C296.757,5281 299,5283.243 299,5286 C299,5290.009 295.822,5297 294,5297 M294,5279 C290.134,5279 287,5282.134 287,5286 C287,5289.866 290.134,5299 294,5299 C297.866,5299 301,5289.866 301,5286 C301,5282.134 297.866,5279 294,5279" id="pin_rounded_minus-[#621]"></path>
            </g>
        </g>
    </g>
</svg>