<?xml version="1.0" encoding="UTF-8" standalone="no"?>
<svg width="14px" height="20px" viewBox="0 0 14 20" version="1.1" xmlns="http://www.w3.org/2000/svg" xmlns:xlink="http://www.w3.org/1999/xlink">
    <!-- Generator: Sketch 3.8.1 (29687) - http://www.bohemiancoding.com/sketch -->
    <title>pin_sharp_close [#628]</title>
    <desc>Created with Sketch.</desc>
    <defs></defs>
    <g id="Page-1" stroke="none" stroke-width="1" fill="none" fill-rule="evenodd">
        <g id="Dribbble-Dark-Preview" transform="translate(-63.000000, -5439.000000)" fill="#FFFFFF">
            <g id="icons" transform="translate(56.000000, 160.000000)">
                <path d="M16.121,5285.512 L15.414,5286.219 L16.121,5286.926 C16.512,5287.317 16.512,5287.95 16.121,5288.34 C15.73,5288.731 15.097,5288.731 14.707,5288.34 L14,5287.633 L13.293,5288.34 C12.902,5288.731 12.269,5288.731 11.878,5288.34 C11.488,5287.95 11.488,5287.317 11.878,5286.926 L12.585,5286.219 L11.878,5285.512 C11.488,5285.121 11.488,5284.488 11.878,5284.098 C12.269,5283.707 12.902,5283.707 13.293,5284.098 L14,5284.805 L14.707,5284.098 C15.097,5283.707 15.73,5283.707 16.121,5284.098 C16.512,5284.488 16.512,5285.121 16.121,5285.512 M14,5296 C14,5296 9,5289 9,5286 C9,5283.243 11.243,5281 14,5281 C16.757,5281 19,5283.243 19,5286 C19,5289 14,5296 14,5296 M14,5279 C10.134,5279 7,5282.134 7,5286 C7,5289.866 14,5299 14,5299 C14,5299 21,5289.866 21,5286 C21,5282.134 17.866,5279 14,5279" id="pin_sharp_close-[#628]"></path>
            </g>
        </g>
    </g>
</svg>