<?xml version="1.0" encoding="UTF-8" standalone="no"?>
<svg width="14px" height="20px" viewBox="0 0 14 20" version="1.1" xmlns="http://www.w3.org/2000/svg" xmlns:xlink="http://www.w3.org/1999/xlink">
    <!-- Generator: Sketch 3.8.1 (29687) - http://www.bohemiancoding.com/sketch -->
    <title>pin_rounded_plus [#622]</title>
    <desc>Created with Sketch.</desc>
    <defs></defs>
    <g id="Page-1" stroke="none" stroke-width="1" fill="none" fill-rule="evenodd">
        <g id="Dribbble-Dark-Preview" transform="translate(-303.000000, -5439.000000)" fill="#FFFFFF">
            <g id="icons" transform="translate(56.000000, 160.000000)">
                <path d="M257,5286 C257,5286.552 256.552,5287 256,5287 L255,5287 L255,5288 C255,5288.552 254.552,5289 254,5289 C253.448,5289 253,5288.552 253,5288 L253,5287 L252,5287 C251.448,5287 251,5286.552 251,5286 C251,5285.448 251.448,5285 252,5285 L253,5285 L253,5284 C253,5283.448 253.448,5283 254,5283 C254.552,5283 255,5283.448 255,5284 L255,5285 L256,5285 C256.552,5285 257,5285.448 257,5286 M254,5297 C252.178,5297 249,5290.009 249,5286 C249,5283.243 251.243,5281 254,5281 C256.757,5281 259,5283.243 259,5286 C259,5290.009 255.822,5297 254,5297 M254,5279 C250.134,5279 247,5282.134 247,5286 C247,5289.866 250.134,5299 254,5299 C257.866,5299 261,5289.866 261,5286 C261,5282.134 257.866,5279 254,5279" id="pin_rounded_plus-[#622]"></path>
            </g>
        </g>
    </g>
</svg>