<?xml version="1.0" encoding="UTF-8" standalone="no"?>
<svg width="20px" height="20px" viewBox="0 0 20 20" version="1.1" xmlns="http://www.w3.org/2000/svg" xmlns:xlink="http://www.w3.org/1999/xlink">
    <!-- Generator: Sketch 3.8.1 (29687) - http://www.bohemiancoding.com/sketch -->
    <title>planet_system [#1299]</title>
    <desc>Created with Sketch.</desc>
    <defs></defs>
    <g id="Page-1" stroke="none" stroke-width="1" fill="none" fill-rule="evenodd">
        <g id="Dribbble-Dark-Preview" transform="translate(-180.000000, -2399.000000)" fill="#FFFFFF">
            <g id="icons" transform="translate(56.000000, 160.000000)">
                <path d="M140,2242 C140,2240.708 142,2240.648 142,2242 C142,2243.3 140,2243.347 140,2242 M134,2257 C129.589,2257 126,2253.411 126,2249 C126,2244.589 129.589,2241 134,2241 C135.462,2241 136.828,2241.401 138.009,2242.088 C138.056,2243.673 139.327,2244.944 140.912,2244.991 C141.599,2246.172 142,2247.538 142,2249 C142,2253.411 138.411,2257 134,2257 M144,2242 C144,2240.343 142.657,2239 141,2239 C140.044,2239 139.202,2239.456 138.653,2240.152 C137.263,2239.419 135.681,2239 134,2239 C128.477,2239 124,2243.477 124,2249 C124,2254.523 128.477,2259 134,2259 C139.523,2259 144,2254.523 144,2249 C144,2247.319 143.581,2245.738 142.848,2244.347 C143.544,2243.798 144,2242.956 144,2242 M134,2252 C132.346,2252 131,2250.654 131,2249 C131,2247.346 132.346,2246 134,2246 C135.654,2246 137,2247.346 137,2249 C137,2250.654 135.654,2252 134,2252 M134,2244 C131.239,2244 129,2246.239 129,2249 C129,2251.761 131.239,2254 134,2254 C136.761,2254 139,2251.761 139,2249 C139,2246.239 136.761,2244 134,2244" id="planet_system-[#1299]"></path>
            </g>
        </g>
    </g>
</svg>