<?xml version="1.0" encoding="UTF-8" standalone="no"?>
<svg width="20px" height="15px" viewBox="0 0 20 15" version="1.1" xmlns="http://www.w3.org/2000/svg" xmlns:xlink="http://www.w3.org/1999/xlink">
    <!-- Generator: Sketch 3.8.1 (29687) - http://www.bohemiancoding.com/sketch -->
    <title>planet [#1301]</title>
    <desc>Created with Sketch.</desc>
    <defs></defs>
    <g id="Page-1" stroke="none" stroke-width="1" fill="none" fill-rule="evenodd">
        <g id="Dribbble-Dark-Preview" transform="translate(-100.000000, -2402.000000)" fill="#FFFFFF">
            <g id="icons" transform="translate(56.000000, 160.000000)">
                <path d="M45.686512,2246.09598 C45.686512,2246.66122 46.1323329,2247.11997 46.681648,2247.11997 C47.2309631,2247.11997 47.676784,2246.66122 47.676784,2246.09598 C47.676784,2245.53073 47.2309631,2245.07198 46.681648,2245.07198 C46.1323329,2245.07198 45.686512,2245.53073 45.686512,2246.09598 L45.686512,2246.09598 Z M45.686512,2244.04799 C46.2358271,2244.04799 46.681648,2243.58924 46.681648,2243.02399 C46.681648,2242.45875 46.2358271,2242 45.686512,2242 C45.1371969,2242 44.691376,2242.45875 44.691376,2243.02399 C44.691376,2243.58924 45.1371969,2244.04799 45.686512,2244.04799 L45.686512,2244.04799 Z M48.67192,2245.07198 C49.2212351,2245.07198 49.667056,2244.61323 49.667056,2244.04799 C49.667056,2243.48274 49.2212351,2243.02399 48.67192,2243.02399 C48.1226049,2243.02399 47.676784,2243.48274 47.676784,2244.04799 C47.676784,2244.61323 48.1226049,2245.07198 48.67192,2245.07198 L48.67192,2245.07198 Z M59.1596584,2249.96975 C59.0054124,2250.05474 58.6710467,2250.2493 58.6780126,2250.26773 C58.8501711,2250.16636 58.9994415,2250.06908 59.1596584,2249.96975 L59.1596584,2249.96975 Z M59.1596584,2249.96975 C60.1677312,2249.34204 60.9280151,2248.75632 61.3907534,2248.29757 C60.1926096,2248.2095 58.9675972,2248.40611 57.7963221,2248.65085 C58.1884057,2249.13519 58.4799805,2249.67484 58.6780126,2250.26773 C59.2910164,2249.90831 59.3049483,2249.88988 59.1596584,2249.96975 L59.1596584,2249.96975 Z M56.873831,2251.22926 C56.4727912,2249.46902 54.6158674,2248.40611 52.9510049,2249.03894 C51.3269429,2249.65538 50.5437708,2251.66549 51.3030596,2253.26394 C53.2087451,2252.7755 55.1353284,2252.06587 56.873831,2251.22926 L56.873831,2251.22926 Z M54.298419,2252.32289 C54.2805066,2252.33006 54.2625941,2252.3362 54.2456768,2252.34235 C54.2596087,2252.33723 54.2824968,2252.32903 54.298419,2252.32289 L54.298419,2252.32289 Z M56.4319906,2253.66227 C55.3562486,2254.12205 54.2606039,2254.52448 53.1450564,2254.86752 C53.7550748,2255.05184 54.4098743,2255.03238 55.007951,2254.80608 C54.9323207,2254.83475 54.8885347,2254.85113 55.007951,2254.80608 C55.0477564,2254.79174 55.0646737,2254.78457 55.0915424,2254.77536 C55.0626835,2254.7856 55.0338245,2254.79686 55.007951,2254.80608 C55.5960764,2254.58387 56.0846882,2254.18349 56.4319906,2253.66227 L56.4319906,2253.66227 Z M49.3078119,2253.68583 C49.1177409,2253.15335 49.0431057,2252.61063 49.0271836,2252.07304 C47.9136264,2252.7499 47.0160137,2253.46874 46.5214311,2253.95821 C47.4558638,2254.02784 48.3942771,2253.83635 49.3078119,2253.68583 L49.3078119,2253.68583 Z M63.8576956,2247.36164 C64.3154581,2248.6447 62.2475655,2250.67528 58.9058988,2252.47854 C58.4570924,2256.64824 53.3918501,2258.51806 50.4810773,2255.55154 C49.3018411,2255.79116 43.6544442,2256.87557 44.0166737,2254.29101 C44.1530074,2253.32231 45.1192844,2252.4683 45.7989623,2251.88769 C46.974218,2250.88213 48.3186467,2250.07932 49.6839733,2249.38403 C50.8602241,2247.2746 53.3460739,2246.29463 55.5891104,2247.08721 C57.2111821,2246.63255 58.8949523,2246.27313 60.5807127,2246.23524 C61.5320627,2246.21271 63.4417287,2246.19531 63.8576956,2247.36164 L63.8576956,2247.36164 Z M63.9104378,2247.50909 C63.9572092,2247.64119 63.9860681,2247.72208 64,2247.76202 C63.9830827,2247.71184 63.9472578,2247.61354 63.9104378,2247.50909 L63.9104378,2247.50909 Z M54.4238062,2252.27579 L54.422811,2252.27579 L54.4238062,2252.27579 Z M63.8487393,2247.33501 C63.8517247,2247.34525 63.853715,2247.35037 63.8576956,2247.36164 C63.8785934,2247.42 63.8945156,2247.46404 63.9104378,2247.50909 C63.8885448,2247.44868 63.8676469,2247.38826 63.8487393,2247.33501 L63.8487393,2247.33501 Z" id="planet-[#1301]"></path>
            </g>
        </g>
    </g>
</svg>