<?xml version="1.0" encoding="UTF-8" standalone="no"?>
<svg width="22px" height="22px" viewBox="0 0 22 22" version="1.1" xmlns="http://www.w3.org/2000/svg" xmlns:xlink="http://www.w3.org/1999/xlink">
    <!-- Generator: Sketch 3.8.1 (29687) - http://www.bohemiancoding.com/sketch -->
    <title>play_plus_focus [#957]</title>
    <desc>Created with Sketch.</desc>
    <defs></defs>
    <g id="Page-1" stroke="none" stroke-width="1" fill="none" fill-rule="evenodd">
        <g id="Dribbble-Dark-Preview" transform="translate(-180.000000, -3959.000000)" fill="#FFFFFF">
            <g id="icons" transform="translate(56.000000, 160.000000)">
                <path d="M130,3813 L138,3809.25 L130,3805.5 L130,3813 Z M142,3813 L144,3813 L144,3805 L142,3805 L142,3813 Z M144,3817 L144,3815 L142,3815 L142,3817 L140,3817 L140,3819 L142,3819 L142,3821 L144,3821 L144,3819 L146,3819 L146,3817 L144,3817 Z M142,3803 L144,3803 L144,3799 L140,3799 L140,3801 L142,3801 L142,3803 Z M124,3813 L126,3813 L126,3805 L124,3805 L124,3813 Z M126,3815 L124,3815 L124,3819 L128,3819 L128,3817 L126,3817 L126,3815 Z M124,3803 L126,3803 L126,3801 L128,3801 L128,3799 L124,3799 L124,3803 Z M130,3819 L138,3819 L138,3817 L130,3817 L130,3819 Z M130,3801 L138,3801 L138,3799 L130,3799 L130,3801 Z" id="play_plus_focus-[#957]"></path>
            </g>
        </g>
    </g>
</svg>