<?xml version="1.0" encoding="UTF-8" standalone="no"?>
<svg width="21px" height="20px" viewBox="0 0 21 20" version="1.1" xmlns="http://www.w3.org/2000/svg" xmlns:xlink="http://www.w3.org/1999/xlink">
    <!-- Generator: Sketch 3.8.1 (29687) - http://www.bohemiancoding.com/sketch -->
    <title>plus_circle [#1441]</title>
    <desc>Created with Sketch.</desc>
    <defs></defs>
    <g id="Page-1" stroke="none" stroke-width="1" fill="none" fill-rule="evenodd">
        <g id="Dribbble-Dark-Preview" transform="translate(-419.000000, -520.000000)" fill="#FFFFFF">
            <g id="icons" transform="translate(56.000000, 160.000000)">
                <path d="M374.55,369 L377.7,369 L377.7,371 L374.55,371 L374.55,374 L372.45,374 L372.45,371 L369.3,371 L369.3,369 L372.45,369 L372.45,366 L374.55,366 L374.55,369 Z M373.5,378 C368.86845,378 365.1,374.411 365.1,370 C365.1,365.589 368.86845,362 373.5,362 C378.13155,362 381.9,365.589 381.9,370 C381.9,374.411 378.13155,378 373.5,378 L373.5,378 Z M373.5,360 C367.70085,360 363,364.477 363,370 C363,375.523 367.70085,380 373.5,380 C379.29915,380 384,375.523 384,370 C384,364.477 379.29915,360 373.5,360 L373.5,360 Z" id="plus_circle-[#1441]"></path>
            </g>
        </g>
    </g>
</svg>