<?xml version="1.0" encoding="UTF-8" standalone="no"?>
<svg width="21px" height="20px" viewBox="0 0 21 20" version="1.1" xmlns="http://www.w3.org/2000/svg" xmlns:xlink="http://www.w3.org/1999/xlink">
    <!-- Generator: Sketch 3.8.1 (29687) - http://www.bohemiancoding.com/sketch -->
    <title>plus_circle [#1425]</title>
    <desc>Created with Sketch.</desc>
    <defs></defs>
    <g id="Page-1" stroke="none" stroke-width="1" fill="none" fill-rule="evenodd">
        <g id="Dribbble-Dark-Preview" transform="translate(-259.000000, -600.000000)" fill="#FFFFFF">
            <g id="icons" transform="translate(56.000000, 160.000000)">
                <path d="M214.55,449 L217.7,449 L217.7,451 L214.55,451 L214.55,454 L212.45,454 L212.45,451 L209.3,451 L209.3,449 L212.45,449 L212.45,446 L214.55,446 L214.55,449 Z M213.5,458 C208.86845,458 205.1,454.411 205.1,450 C205.1,445.589 208.86845,442 213.5,442 C218.13155,442 221.9,445.589 221.9,450 C221.9,454.411 218.13155,458 213.5,458 L213.5,458 Z M213.5,440 C207.70085,440 203,444.477 203,450 C203,455.523 207.70085,460 213.5,460 C219.29915,460 224,455.523 224,450 C224,444.477 219.29915,440 213.5,440 L213.5,440 Z" id="plus_circle-[#1425]"></path>
            </g>
        </g>
    </g>
</svg>