<?xml version="1.0" encoding="UTF-8" standalone="no"?>
<svg width="21px" height="20px" viewBox="0 0 21 20" version="1.1" xmlns="http://www.w3.org/2000/svg" xmlns:xlink="http://www.w3.org/1999/xlink">
    <!-- Generator: Sketch 3.8.1 (29687) - http://www.bohemiancoding.com/sketch -->
    <title>plus [#1469]</title>
    <desc>Created with Sketch.</desc>
    <defs></defs>
    <g id="Page-1" stroke="none" stroke-width="1" fill="none" fill-rule="evenodd">
        <g id="Dribbble-Dark-Preview" transform="translate(-99.000000, -440.000000)" fill="#FFFFFF">
            <g id="icons" transform="translate(56.000000, 160.000000)">
                <path d="M57.7,289 L54.55,289 L54.55,286 L52.45,286 L52.45,289 L49.3,289 L49.3,291 L52.45,291 L52.45,294 L54.55,294 L54.55,291 L57.7,291 L57.7,289 Z M55.6,280 L55.6,282 L61.9,282 L61.9,288 L64,288 L64,280 L55.6,280 Z M61.9,298 L55.6,298 L55.6,300 L64,300 L64,292 L61.9,292 L61.9,298 Z M45.1,292 L43,292 L43,300 L51.4,300 L51.4,298 L45.1,298 L45.1,292 Z M45.1,288 L43,288 L43,280 L51.4,280 L51.4,282 L45.1,282 L45.1,288 Z" id="plus-[#1469]"></path>
            </g>
        </g>
    </g>
</svg>