<?xml version="1.0" encoding="UTF-8" standalone="no"?>
<svg width="20px" height="18px" viewBox="0 0 20 18" version="1.1" xmlns="http://www.w3.org/2000/svg" xmlns:xlink="http://www.w3.org/1999/xlink">
    <!-- Generator: Sketch 3.8.1 (29687) - http://www.bohemiancoding.com/sketch -->
    <title>pocket [#137]</title>
    <desc>Created with Sketch.</desc>
    <defs></defs>
    <g id="Page-1" stroke="none" stroke-width="1" fill="none" fill-rule="evenodd">
        <g id="Dribbble-Dark-Preview" transform="translate(-340.000000, -7560.000000)" fill="#FFFFFF">
            <g id="icons" transform="translate(56.000000, 160.000000)">
                <path d="M289.967,7405.39 L293.525,7408.77 C293.782,7409.015 294.185,7409.015 294.443,7408.771 L298.005,7405.39 C299.804,7404.634 300.589,7406.689 299.85,7407.29 L295.074,7411.849 C294.476,7412.42 293.496,7412.42 292.897,7411.849 L288.122,7407.29 C287.416,7406.626 288.334,7404.538 289.967,7405.39 L289.967,7405.39 Z M285.75,7400 C284.66,7400.071 284,7400.693 284,7401.799 L284,7408.425 C284,7413.808 289.353,7418.037 293.984,7418.004 C299.19,7417.966 304,7413.57 304,7408.425 L304,7401.799 C304,7400.689 303.299,7400.062 302.201,7400 L285.75,7400 Z" id="pocket-[#137]"></path>
            </g>
        </g>
    </g>
</svg>