<?xml version="1.0" encoding="UTF-8" standalone="no"?>
<svg width="20px" height="16px" viewBox="0 0 20 16" version="1.1" xmlns="http://www.w3.org/2000/svg" xmlns:xlink="http://www.w3.org/1999/xlink">
    <!-- Generator: Sketch 3.8.1 (29687) - http://www.bohemiancoding.com/sketch -->
    <title>previous [#984]</title>
    <desc>Created with Sketch.</desc>
    <defs></defs>
    <g id="Page-1" stroke="none" stroke-width="1" fill="none" fill-rule="evenodd">
        <g id="Dribbble-Dark-Preview" transform="translate(-340.000000, -3841.000000)" fill="#FFFFFF">
            <g id="icons" transform="translate(56.000000, 160.000000)">
                <path d="M301.253,3689.536 C296.275,3693.115 297.904,3691.944 294.114,3694.669 C293.788,3694.902 293,3694.723 293,3694.266 L293,3684 C293,3683.57 293.715,3683.369 294.033,3683.598 C297.777,3686.252 296.169,3685.106 301.238,3688.73 C301.534,3688.943 301.518,3689.346 301.253,3689.536 L301.253,3689.536 Z M291,3691.799 C289.833,3692.711 290.6,3692.133 287.18,3694.66 C286.847,3694.899 286,3694.719 286,3694.252 L286,3684.015 C286,3683.578 286.821,3683.372 287.146,3683.606 C290.537,3686.133 289.758,3685.549 291,3686.49 L291,3691.799 Z M303,3681 C302.448,3681 302,3681.448 302,3682 L302,3686.8 L298.288,3684.133 C295.224,3681.931 294.901,3681.5 293.67,3681.5 C292.391,3681.5 291.04,3682.502 291.006,3683.947 C288.403,3682.023 287.998,3681.507 286.704,3681.507 C285.405,3681.507 284,3682.536 284,3684.015 L284,3694.252 C284,3696.248 286.631,3697.492 288.313,3696.285 L291.002,3694.281 C291.015,3696.266 293.526,3697.495 295.2,3696.293 C298.943,3693.639 297.393,3694.744 302,3691.449 L302,3696 C302,3696.552 302.448,3697 303,3697 C303.552,3697 304,3696.552 304,3696 L304,3682 C304,3681.448 303.552,3681 303,3681 L303,3681 Z" id="previous-[#984]"></path>
            </g>
        </g>
    </g>
</svg>