<?xml version="1.0" encoding="UTF-8" standalone="no"?>
<svg width="20px" height="20px" viewBox="0 0 20 20" version="1.1" xmlns="http://www.w3.org/2000/svg" xmlns:xlink="http://www.w3.org/1999/xlink">
    <!-- Generator: Sketch 3.8.1 (29687) - http://www.bohemiancoding.com/sketch -->
    <title>printer [#1599]</title>
    <desc>Created with Sketch.</desc>
    <defs></defs>
    <g id="Page-1" stroke="none" stroke-width="1" fill="none" fill-rule="evenodd">
        <g id="Dribbble-Dark-Preview" transform="translate(-140.000000, -1919.000000)" fill="#FFFFFF">
            <g id="icons" transform="translate(56.000000, 160.000000)">
                <path d="M93.167,1768.833 C93.167,1769.385 92.719,1769.833 92.167,1769.833 C91.615,1769.833 91.167,1769.385 91.167,1768.833 C91.167,1768.281 91.615,1767.833 92.167,1767.833 C92.719,1767.833 93.167,1768.281 93.167,1768.833 L93.167,1768.833 Z M89.167,1768.833 C89.167,1769.385 88.719,1769.833 88.167,1769.833 C87.615,1769.833 87.167,1769.385 87.167,1768.833 C87.167,1768.281 87.615,1767.833 88.167,1767.833 C88.719,1767.833 89.167,1768.281 89.167,1768.833 L89.167,1768.833 Z M102,1767.041 L102,1775 L101,1775 L101,1771 L87,1771 L87,1775 L86,1775 L86,1767.041 L86,1767 L102,1767 L102,1767.041 Z M89,1777 L99,1777 L99,1773 L89,1773 L89,1777 Z M88,1765 L100,1765 L100,1761 L88,1761 L88,1765 Z M102,1765 L102,1759 L86,1759 L86,1765 L84,1765 L84,1777 L87,1777 L87,1779 L101,1779 L101,1777 L104,1777 L104,1765 L102,1765 Z" id="printer-[#1599]"></path>
            </g>
        </g>
    </g>
</svg>