<?xml version="1.0" encoding="UTF-8" standalone="no"?>
<svg width="20px" height="20px" viewBox="0 0 20 20" version="1.1" xmlns="http://www.w3.org/2000/svg" xmlns:xlink="http://www.w3.org/1999/xlink">
    <!-- Generator: Sketch 3.8.1 (29687) - http://www.bohemiancoding.com/sketch -->
    <title>printer [#1597]</title>
    <desc>Created with Sketch.</desc>
    <defs></defs>
    <g id="Page-1" stroke="none" stroke-width="1" fill="none" fill-rule="evenodd">
        <g id="Dribbble-Dark-Preview" transform="translate(-220.000000, -1919.000000)" fill="#FFFFFF">
            <g id="icons" transform="translate(56.000000, 160.000000)">
                <path d="M182,1774.5 C182,1774.776 181.776,1775 181.5,1775 L181,1775 L181,1771 L167,1771 L167,1775 L166.5,1775 C166.224,1775 166,1774.776 166,1774.5 L166,1768 C166,1767.448 166.448,1767 167,1767 L181,1767 C181.552,1767 182,1767.448 182,1768 L182,1774.5 Z M179,1776 C179,1776.552 178.552,1777 178,1777 L170,1777 C169.448,1777 169,1776.552 169,1776 L169,1773 L179,1773 L179,1776 Z M168,1762 C168,1761.448 168.448,1761 169,1761 L179,1761 C179.552,1761 180,1761.448 180,1762 L180,1765 L168,1765 L168,1762 Z M182,1765 L182,1761 C182,1759.895 181.105,1759 180,1759 L168,1759 C166.895,1759 166,1759.895 166,1761 L166,1765 C164.895,1765 164,1765.895 164,1767 L164,1775 C164,1776.104 164.895,1777 166,1777 L167,1777 C167,1778.104 167.895,1779 169,1779 L179,1779 C180.105,1779 181,1778.104 181,1777 L182,1777 C183.105,1777 184,1776.104 184,1775 L184,1767 C184,1765.895 183.105,1765 182,1765 L182,1765 Z" id="printer-[#1597]"></path>
            </g>
        </g>
    </g>
</svg>