<?xml version="1.0" encoding="UTF-8" standalone="no"?>
<svg width="20px" height="20px" viewBox="0 0 20 20" version="1.1" xmlns="http://www.w3.org/2000/svg" xmlns:xlink="http://www.w3.org/1999/xlink">
    <!-- Generator: Sketch 3.8.1 (29687) - http://www.bohemiancoding.com/sketch -->
    <title>printer [#1596]</title>
    <desc>Created with Sketch.</desc>
    <defs></defs>
    <g id="Page-1" stroke="none" stroke-width="1" fill="none" fill-rule="evenodd">
        <g id="Dribbble-Dark-Preview" transform="translate(-260.000000, -1919.000000)" fill="#FFFFFF">
            <g id="icons" transform="translate(56.000000, 160.000000)">
                <path d="M222,1767.042 L222,1775 L221,1775 L221,1771 L207,1771 L207,1775 L206,1775 L206,1767.042 L206,1767 L222,1767 L222,1767.042 Z M209,1777 L219,1777 L219,1773 L209,1773 L209,1777 Z M208,1765 L220,1765 L220,1761 L208,1761 L208,1765 Z M222,1765 L222,1759 L206,1759 L206,1765 L204,1765 L204,1777 L207,1777 L207,1779 L221,1779 L221,1777 L224,1777 L224,1765 L222,1765 Z" id="printer-[#1596]"></path>
            </g>
        </g>
    </g>
</svg>