<?xml version="1.0" encoding="UTF-8" standalone="no"?>
<svg width="20px" height="20px" viewBox="0 0 20 20" version="1.1" xmlns="http://www.w3.org/2000/svg" xmlns:xlink="http://www.w3.org/1999/xlink">
    <!-- Generator: Sketch 3.8.1 (29687) - http://www.bohemiancoding.com/sketch -->
    <title>printer [#1598]</title>
    <desc>Created with Sketch.</desc>
    <defs></defs>
    <g id="Page-1" stroke="none" stroke-width="1" fill="none" fill-rule="evenodd">
        <g id="Dribbble-Dark-Preview" transform="translate(-180.000000, -1919.000000)" fill="#FFFFFF">
            <g id="icons" transform="translate(56.000000, 160.000000)">
                <path d="M133.167,1768.833 C133.167,1769.385 132.719,1769.833 132.167,1769.833 C131.615,1769.833 131.167,1769.385 131.167,1768.833 C131.167,1768.281 131.615,1767.833 132.167,1767.833 C132.719,1767.833 133.167,1768.281 133.167,1768.833 L133.167,1768.833 Z M129.167,1768.833 C129.167,1769.385 128.719,1769.833 128.167,1769.833 C127.615,1769.833 127.167,1769.385 127.167,1768.833 C127.167,1768.281 127.615,1767.833 128.167,1767.833 C128.719,1767.833 129.167,1768.281 129.167,1768.833 L129.167,1768.833 Z M142,1774.5 C142,1774.776 141.776,1775 141.5,1775 L141,1775 L141,1771 L127,1771 L127,1775 L126.5,1775 C126.224,1775 126,1774.776 126,1774.5 L126,1768 C126,1767.448 126.448,1767 127,1767 L141,1767 C141.553,1767 142,1767.448 142,1768 L142,1774.5 Z M139,1776 C139,1776.552 138.553,1777 138,1777 L130,1777 C129.448,1777 129,1776.552 129,1776 L129,1773 L139,1773 L139,1776 Z M128,1762 C128,1761.448 128.448,1761 129,1761 L139,1761 C139.553,1761 140,1761.448 140,1762 L140,1765 L128,1765 L128,1762 Z M142,1765 L142,1761 C142,1759.895 141.105,1759 140,1759 L128,1759 C126.896,1759 126,1759.895 126,1761 L126,1765 C124.896,1765 124,1765.895 124,1767 L124,1775 C124,1776.104 124.896,1777 126,1777 L127,1777 C127,1778.104 127.896,1779 129,1779 L139,1779 C140.105,1779 141,1778.104 141,1777 L142,1777 C143.105,1777 144,1776.104 144,1775 L144,1767 C144,1765.895 143.105,1765 142,1765 L142,1765 Z" id="printer-[#1598]"></path>
            </g>
        </g>
    </g>
</svg>