<?xml version="1.0" encoding="UTF-8" standalone="no"?>
<svg width="20px" height="20px" viewBox="0 0 20 20" version="1.1" xmlns="http://www.w3.org/2000/svg" xmlns:xlink="http://www.w3.org/1999/xlink">
    <!-- Generator: Sketch 3.8.1 (29687) - http://www.bohemiancoding.com/sketch -->
    <title>product_hunt [#135]</title>
    <desc>Created with Sketch.</desc>
    <defs></defs>
    <g id="Page-1" stroke="none" stroke-width="1" fill="none" fill-rule="evenodd">
        <g id="Dribbble-Dark-Preview" transform="translate(-420.000000, -7559.000000)" fill="#FFFFFF">
            <g id="icons" transform="translate(56.000000, 160.000000)">
                <path d="M376.5,7408 C376.5,7408.69 375.957,7409 375.289,7409 L373,7409 L373,7407 L375.289,7407 C375.957,7407 376.5,7407.31 376.5,7408 M375.27,7411 L373,7411 L373,7413 L371,7413 L371,7405 L375.27,7405 C376.777,7405 378,7406.473 378,7408 C378,7409.488 376.777,7410 375.27,7411 M374,7399 C368.477,7399 364,7403.477 364,7409 C364,7414.523 368.477,7419 374,7419 C379.523,7419 384,7414.523 384,7409 C384,7403.477 379.523,7399 374,7399" id="product_hunt-[#135]"></path>
            </g>
        </g>
    </g>
</svg>