<?xml version="1.0" encoding="UTF-8" standalone="no"?>
<svg width="22px" height="22px" viewBox="0 0 22 22" version="1.1" xmlns="http://www.w3.org/2000/svg" xmlns:xlink="http://www.w3.org/1999/xlink">
    <!-- Generator: Sketch 3.8.1 (29687) - http://www.bohemiancoding.com/sketch -->
    <title>profile_image_close [#1361]</title>
    <desc>Created with Sketch.</desc>
    <defs></defs>
    <g id="Page-1" stroke="none" stroke-width="1" fill="none" fill-rule="evenodd">
        <g id="Dribbble-Dark-Preview" transform="translate(-180.000000, -2079.000000)" fill="#FFFFFF">
            <g id="icons" transform="translate(56.000000, 160.000000)">
                <path d="M143.929354,1937.5481 L146,1939.61865 L144.61957,1941 L142.548924,1938.92847 L140.477302,1941 L139.096872,1939.61865 L141.168493,1937.5481 L139.096872,1935.47755 L140.477302,1934.0962 L142.548924,1936.16773 L144.61957,1934.0962 L146,1935.47755 L143.929354,1937.5481 Z M131.820812,1926.71406 C131.807144,1926.71406 131.793477,1926.71211 131.779809,1926.71211 C131.765165,1926.71211 131.751498,1926.71406 131.73783,1926.71406 C130.680541,1926.6916 129.827291,1925.82863 129.827291,1924.76553 C129.827291,1923.68876 130.702995,1922.8131 131.779809,1922.8131 C132.855647,1922.8131 133.732327,1923.68876 133.732327,1924.76553 C133.732327,1925.82863 132.878101,1926.6916 131.820812,1926.71406 L131.820812,1926.71406 Z M128.840293,1927.29295 C127.716619,1927.75177 126.928777,1928.46636 125.952518,1929.36253 L125.952518,1920.95243 L130.952918,1920.95243 C129.193699,1921.33218 127.874773,1922.89315 127.874773,1924.76553 C127.874773,1925.73491 128.255514,1926.61058 128.840293,1927.29295 L128.840293,1927.29295 Z M139.583049,1934.61945 C139.583049,1934.61945 139.589882,1934.55502 139.589882,1934.515 C139.589882,1931.24858 137.581717,1928.4566 134.732993,1927.29295 C135.317772,1926.61058 135.684846,1925.73491 135.684846,1924.76553 C135.684846,1922.89315 134.364943,1921.33218 132.605724,1920.95243 L141.572665,1920.95243 L141.572665,1931.69081 L143.525183,1931.69081 L143.525183,1919 L124,1919 L124,1938.52432 L136.691369,1938.52432 L136.691369,1936.57188 L125.952518,1936.57188 L125.952518,1934.61945 L125.928112,1934.61945 C125.927136,1934.61945 125.922254,1934.55502 125.922254,1934.515 C125.922254,1931.29934 128.526914,1928.68894 131.73783,1928.66649 C131.752474,1928.66649 131.765165,1928.67039 131.779809,1928.67039 C131.793477,1928.67039 131.806168,1928.66649 131.820812,1928.66649 C135.031728,1928.68894 137.637364,1931.29641 137.637364,1934.51207 C137.637364,1934.55112 137.631507,1934.61945 137.63053,1934.61945 L139.583049,1934.61945 Z" id="profile_image_close-[#1361]"></path>
            </g>
        </g>
    </g>
</svg>