<?xml version="1.0" encoding="UTF-8" standalone="no"?>
<svg width="23px" height="20px" viewBox="0 0 23 20" version="1.1" xmlns="http://www.w3.org/2000/svg" xmlns:xlink="http://www.w3.org/1999/xlink">
    <!-- Generator: Sketch 3.8.1 (29687) - http://www.bohemiancoding.com/sketch -->
    <title>profile_image_minus [#1360]</title>
    <desc>Created with Sketch.</desc>
    <defs></defs>
    <g id="Page-1" stroke="none" stroke-width="1" fill="none" fill-rule="evenodd">
        <g id="Dribbble-Dark-Preview" transform="translate(-220.000000, -2079.000000)" fill="#FFFFFF">
            <g id="icons" transform="translate(56.000000, 160.000000)">
                <path d="M179,1939 L187,1939 L187,1937 L179,1937 L179,1939 Z M172.011,1926.902 C171.997,1926.902 171.983,1926.9 171.969,1926.9 C171.954,1926.9 171.941,1926.902 171.926,1926.902 C170.844,1926.879 169.969,1925.995 169.969,1924.906 C169.969,1923.803 170.866,1922.906 171.969,1922.906 C173.072,1922.906 173.969,1923.803 173.969,1924.906 C173.969,1925.995 173.094,1926.879 172.011,1926.902 L172.011,1926.902 Z M168.958,1927.495 C167.807,1927.965 167,1928.697 166,1929.615 L166,1921 L171.122,1921 C169.32,1921.389 167.969,1922.988 167.969,1924.906 C167.969,1925.899 168.359,1926.796 168.958,1927.495 L168.958,1927.495 Z M179.963,1935 C179.963,1935 179.969,1934.934 179.969,1934.893 C179.969,1931.547 177.912,1928.687 174.995,1927.495 C175.594,1926.796 175.969,1925.899 175.969,1924.906 C175.969,1922.988 174.617,1921.389 172.815,1921 L182,1921 L182,1932 L184,1932 L184,1919 L164,1919 L164,1939 L177,1939 L177,1937 L166,1937 L166,1935 C165.962,1935 165.969,1934.935 165.969,1934.893 C165.969,1931.599 168.638,1928.925 171.926,1928.902 C171.941,1928.902 171.954,1928.906 171.969,1928.906 C171.983,1928.906 171.997,1928.902 172.011,1928.902 C175.3,1928.925 177.969,1931.596 177.969,1934.89 C177.969,1934.93 177.964,1935 177.963,1935 L179.963,1935 Z" id="profile_image_minus-[#1360]"></path>
            </g>
        </g>
    </g>
</svg>