<?xml version="1.0" encoding="UTF-8" standalone="no"?>
<svg width="22px" height="20px" viewBox="0 0 22 20" version="1.1" xmlns="http://www.w3.org/2000/svg" xmlns:xlink="http://www.w3.org/1999/xlink">
    <!-- Generator: Sketch 3.8.1 (29687) - http://www.bohemiancoding.com/sketch -->
    <title>profile_image_minus_round [#1329]</title>
    <desc>Created with Sketch.</desc>
    <defs></defs>
    <g id="Page-1" stroke="none" stroke-width="1" fill="none" fill-rule="evenodd">
        <g id="Dribbble-Dark-Preview" transform="translate(-260.000000, -2199.000000)" fill="#FFFFFF">
            <g id="icons" transform="translate(56.000000, 160.000000)">
                <path d="M226,2058 C226,2058.552 225.552,2059 225,2059 L221,2059 C220.448,2059 220,2058.552 220,2058 C220,2057.448 220.448,2057 221,2057 L225,2057 C225.552,2057 226,2057.448 226,2058 M214.623,2048.933 C214.037,2048.885 213.864,2048.893 213.368,2048.93 C212.017,2048.639 211,2047.437 211,2046 C211,2044.346 212.346,2043 214,2043 C215.654,2043 217,2044.346 217,2046 C217,2047.44 215.979,2048.645 214.623,2048.933 M206.012,2056.059 C206.011,2056.038 206,2056.021 206,2056 L206,2042 C206,2041.448 206.448,2041 207,2041 L213.936,2041 C211.205,2041.035 209,2043.257 209,2045.997 C209,2047.441 209.622,2048.734 210.602,2049.647 C208.107,2050.805 206.307,2053.204 206.012,2056.059 M214.064,2041 L221,2041 C221.552,2041 222,2041.448 222,2042 L222,2051.09 C222,2051.593 222.408,2052 222.91,2052 C223.668,2052 224,2051.594 224,2051.09 L224,2041 C224,2039.895 223.105,2039 222,2039 L206,2039 C204.895,2039 204,2039.895 204,2041 L204,2057 C204,2058.104 204.895,2059 206,2059 L216.09,2059 C216.593,2059 217,2058.593 217,2058.09 C217,2057.332 216.594,2057 216.09,2057 L207.975,2057 C207.974,2057 207.969,2056.934 207.969,2056.893 C207.969,2050.795 215.355,2049.989 217.21,2051.713 C218.221,2052.652 219.716,2051.151 218.596,2050.356 C218.214,2050.084 217.806,2049.845 217.375,2049.642 C218.368,2048.728 219,2047.443 219,2045.987 C219,2043.248 216.795,2041.035 214.064,2041" id="profile_image_minus_round-[#1329]"></path>
            </g>
        </g>
    </g>
</svg>