<?xml version="1.0" encoding="UTF-8" standalone="no"?>
<svg width="20px" height="20px" viewBox="0 0 20 20" version="1.1" xmlns="http://www.w3.org/2000/svg" xmlns:xlink="http://www.w3.org/1999/xlink">
    <!-- Generator: Sketch 3.8.1 (29687) - http://www.bohemiancoding.com/sketch -->
    <title>profile_image [#1348]</title>
    <desc>Created with Sketch.</desc>
    <defs></defs>
    <g id="Page-1" stroke="none" stroke-width="1" fill="none" fill-rule="evenodd">
        <g id="Dribbble-Dark-Preview" transform="translate(-300.000000, -2119.000000)" fill="#FFFFFF">
            <g id="icons" transform="translate(56.000000, 160.000000)">
                <path d="M262,1977 L261.53,1977 C260.921,1974.495 259.138,1972.454 256.791,1971.495 C257.39,1970.796 257.765,1969.899 257.765,1968.906 C257.765,1966.697 255.974,1964.906 253.765,1964.906 C251.556,1964.906 249.765,1966.697 249.765,1968.906 C249.765,1969.899 250.14,1970.796 250.739,1971.495 C248.392,1972.453 246.609,1974.493 246,1976.997 L246,1961 L262,1961 L262,1977 Z M251.765,1968.906 C251.765,1967.803 252.662,1966.906 253.765,1966.906 C254.868,1966.906 255.765,1967.803 255.765,1968.906 C255.765,1969.995 254.89,1970.879 253.807,1970.902 C253.793,1970.902 253.779,1970.9 253.765,1970.9 C253.751,1970.9 253.737,1970.902 253.723,1970.902 C252.64,1970.879 251.765,1969.995 251.765,1968.906 L251.765,1968.906 Z M248.076,1977 C248.867,1974.632 251.095,1972.92 253.723,1972.902 C253.737,1972.902 253.75,1972.906 253.765,1972.906 C253.78,1972.906 253.793,1972.902 253.807,1972.902 C256.436,1972.92 258.665,1974.632 259.455,1977 L248.076,1977 Z M244,1979 L264,1979 L264,1959 L244,1959 L244,1979 Z" id="profile_image-[#1348]"></path>
            </g>
        </g>
    </g>
</svg>