<?xml version="1.0" encoding="UTF-8" standalone="no"?>
<svg width="20px" height="20px" viewBox="0 0 20 20" version="1.1" xmlns="http://www.w3.org/2000/svg" xmlns:xlink="http://www.w3.org/1999/xlink">
    <!-- Generator: Sketch 3.8.1 (29687) - http://www.bohemiancoding.com/sketch -->
    <title>profile_close [#1352]</title>
    <desc>Created with Sketch.</desc>
    <defs></defs>
    <g id="Page-1" stroke="none" stroke-width="1" fill="none" fill-rule="evenodd">
        <g id="Dribbble-Dark-Preview" transform="translate(-140.000000, -2119.000000)" fill="#FFFFFF">
            <g id="icons" transform="translate(56.000000, 160.000000)">
                <path d="M101.831953,1962.536 L104,1964.657 L102.554636,1966.072 L100.386589,1963.95 L98.2175202,1966.072 L96.7721558,1964.657 L98.9412246,1962.536 L96.7721558,1960.415 L98.2175202,1959 L100.386589,1961.122 L102.554636,1959 L104,1960.415 L101.831953,1962.536 Z M92.2203823,1970.438 C92.2060718,1970.438 92.1917612,1970.436 92.1774507,1970.436 C92.162118,1970.436 92.1478074,1970.438 92.1334969,1970.438 C91.0264745,1970.415 90.133088,1969.531 90.133088,1968.442 C90.133088,1967.339 91.0499847,1966.442 92.1774507,1966.442 C93.3038945,1966.442 94.2218133,1967.339 94.2218133,1968.442 C94.2218133,1969.531 93.3274047,1970.415 92.2203823,1970.438 L92.2203823,1970.438 Z M95.2695492,1971.264 C95.8818358,1970.564 96.266176,1969.551 96.266176,1968.558 C96.266176,1966.349 94.4354492,1964.5 92.1774507,1964.5 C89.9184299,1964.5 88.0887253,1966.262 88.0887253,1968.471 C88.0887253,1969.464 88.4720433,1970.578 89.0833078,1971.278 C86.1016048,1972.469 84,1975 84,1979 L84.0051109,1979 L86.0443627,1979 C86.0443627,1975 88.7715425,1972.693 92.1334969,1972.67 C92.1488296,1972.67 92.162118,1972.558 92.1774507,1972.558 C92.1917612,1972.558 92.2050496,1972.729 92.2203823,1972.728 C95.5823367,1972.751 98.3105387,1975 98.3105387,1979 L100.354901,1979 C100.354901,1975 98.2522744,1972.455 95.2695492,1971.264 L95.2695492,1971.264 Z" id="profile_close-[#1352]"></path>
            </g>
        </g>
    </g>
</svg>