<?xml version="1.0" encoding="UTF-8" standalone="no"?>
<svg width="20px" height="17px" viewBox="0 0 20 17" version="1.1" xmlns="http://www.w3.org/2000/svg" xmlns:xlink="http://www.w3.org/1999/xlink">
    <!-- Generator: Sketch 3.8.1 (29687) - http://www.bohemiancoding.com/sketch -->
    <title>profile_minus_minus [#1356]</title>
    <desc>Created with Sketch.</desc>
    <defs></defs>
    <g id="Page-1" stroke="none" stroke-width="1" fill="none" fill-rule="evenodd">
        <g id="Dribbble-Dark-Preview" transform="translate(-380.000000, -2082.000000)" fill="#FFFFFF">
            <g id="icons" transform="translate(56.000000, 160.000000)">
                <path d="M336,1924 L344,1924 L344,1922 L336,1922 L336,1924 Z M326.312,1937 C327.103,1934.633 329.33,1932.92 331.958,1932.902 C331.972,1932.902 331.985,1932.906 332,1932.906 C332.015,1932.906 332.028,1932.902 332.042,1932.902 C334.671,1932.92 336.899,1934.632 337.69,1937 L326.312,1937 Z M332,1926.906 C333.103,1926.906 334,1927.803 334,1928.906 C334,1929.995 333.125,1930.879 332.042,1930.902 C332.028,1930.902 332.014,1930.9 332,1930.9 C331.986,1930.9 331.972,1930.902 331.958,1930.902 C330.875,1930.879 330,1929.995 330,1928.906 C330,1927.803 330.897,1926.906 332,1926.906 L332,1926.906 Z M335.026,1931.495 C335.625,1930.796 336,1929.899 336,1928.906 C336,1926.697 334.209,1924.906 332,1924.906 C329.791,1924.906 328,1926.697 328,1928.906 C328,1929.899 328.375,1930.796 328.974,1931.495 C326.057,1932.686 324,1935.543 324,1938.89 C324,1938.93 324.005,1939 324.006,1939 L339.994,1939 C339.994,1939 340,1938.934 340,1938.893 C340,1935.547 337.943,1932.687 335.026,1931.495 L335.026,1931.495 Z" id="profile_minus_minus-[#1356]"></path>
            </g>
        </g>
    </g>
</svg>