<?xml version="1.0" encoding="UTF-8" standalone="no"?>
<svg width="23px" height="24px" viewBox="0 0 23 24" version="1.1" xmlns="http://www.w3.org/2000/svg" xmlns:xlink="http://www.w3.org/1999/xlink">
    <!-- Generator: Sketch 3.8.1 (29687) - http://www.bohemiancoding.com/sketch -->
    <title>profile_image_round [#1332]</title>
    <desc>Created with Sketch.</desc>
    <defs></defs>
    <g id="Page-1" stroke="none" stroke-width="1" fill="none" fill-rule="evenodd">
        <g id="Dribbble-Dark-Preview" transform="translate(-140.000000, -2199.000000)" fill="#FFFFFF">
            <g id="icons" transform="translate(56.000000, 160.000000)">
                <path d="M107,2055.01401 L107,2060.01839 L106.998,2060.01839 C106.986,2061.11435 106.097,2061.99912 105,2061.99912 C103.895,2061.99912 103,2061.10334 103,2059.99737 C103,2058.89241 103.895,2057.99562 105,2057.99562 L105,2057.01576 L101,2057.01576 L101,2061.01927 L100.998,2061.01927 C100.986,2062.11523 100.097,2063 99,2063 C97.895,2063 97,2062.10422 97,2060.99825 C97,2059.89328 97.895,2058.9965 99,2058.9965 L99,2055.01401 L107,2055.01401 Z M86,2056.01489 L86,2042.00263 C86,2041.45014 86.448,2041.00175 87,2041.00175 L93.936,2041.00175 C91.205,2041.03678 89,2043.26073 89,2046.00313 C89,2047.44839 89.622,2048.74252 90.602,2049.65632 C88.107,2050.81534 86.307,2053.21644 86.012,2056.07394 C86.011,2056.05292 86,2056.03591 86,2056.01489 L86,2056.01489 Z M97,2046.00613 C97,2047.44739 95.979,2048.65345 94.623,2048.9417 C94.037,2048.89366 93.864,2048.90166 93.368,2048.9387 C92.017,2048.64744 91,2047.44439 91,2046.00613 C91,2044.35068 92.346,2043.0035 94,2043.0035 C95.654,2043.0035 97,2044.35068 97,2046.00613 L97,2046.00613 Z M96.09,2057.01576 L87.975,2057.01576 C87.974,2057.01576 87.969,2056.94971 87.969,2056.90867 C87.969,2053.81096 90.326,2051.25973 93.339,2050.94345 C94.274,2051.06856 93.941,2051.00751 94.623,2050.92143 C95.571,2051.02452 96.447,2051.01451 97.21,2051.72413 C97.394,2051.89428 97.621,2052.01138 97.872,2052.01138 C99.055,2052.01138 99.264,2050.84036 98.596,2050.36595 C98.214,2050.09371 97.806,2049.8545 97.375,2049.65132 C98.368,2048.73652 99,2047.45039 99,2045.99312 C99,2043.25172 96.795,2041.03678 94.064,2041.00175 L101,2041.00175 C101.552,2041.00175 102,2041.45014 102,2042.00263 L102,2051.10059 C102,2051.60403 102.408,2052.01138 102.91,2052.01138 L103.09,2052.01138 C103.593,2052.01138 104,2051.60403 104,2051.10059 L104,2041.00175 C104,2039.89578 103.105,2039 102,2039 L86,2039 C84.895,2039 84,2039.89578 84,2041.00175 L84,2057.01576 C84,2058.12073 84.895,2059.01752 86,2059.01752 L96.09,2059.01752 C96.593,2059.01752 97,2058.61016 97,2058.10672 C97,2057.34805 96.594,2057.01576 96.09,2057.01576 L96.09,2057.01576 Z" id="profile_image_round-[#1332]"></path>
            </g>
        </g>
    </g>
</svg>