<?xml version="1.0" encoding="UTF-8" standalone="no"?>
<svg width="20px" height="20px" viewBox="0 0 20 20" version="1.1" xmlns="http://www.w3.org/2000/svg" xmlns:xlink="http://www.w3.org/1999/xlink">
    <!-- Generator: Sketch 3.8.1 (29687) - http://www.bohemiancoding.com/sketch -->
    <title>profile_plus [#1357]</title>
    <desc>Created with Sketch.</desc>
    <defs></defs>
    <g id="Page-1" stroke="none" stroke-width="1" fill="none" fill-rule="evenodd">
        <g id="Dribbble-Dark-Preview" transform="translate(-340.000000, -2079.000000)" fill="#FFFFFF">
            <g id="icons" transform="translate(56.000000, 160.000000)">
                <path d="M304,1922 L304,1924 L301,1924 L301,1927 L299,1927 L299,1924 L296,1924 L296,1922 L299,1922 L299,1919 L301,1919 L301,1922 L304,1922 Z M286.312,1937 C287.103,1934.633 289.33,1932.92 291.958,1932.902 C291.972,1932.902 291.985,1932.906 292,1932.906 C292.015,1932.906 292.028,1932.902 292.042,1932.902 C294.671,1932.92 296.899,1934.632 297.69,1937 L286.312,1937 Z M292,1926.906 C293.103,1926.906 294,1927.803 294,1928.906 C294,1929.995 293.125,1930.879 292.042,1930.902 C292.028,1930.902 292.014,1930.9 292,1930.9 C291.986,1930.9 291.972,1930.902 291.958,1930.902 C290.875,1930.879 290,1929.995 290,1928.906 C290,1927.803 290.897,1926.906 292,1926.906 L292,1926.906 Z M295.026,1931.495 C295.625,1930.796 296,1929.899 296,1928.906 C296,1926.697 294.209,1924.906 292,1924.906 C289.791,1924.906 288,1926.697 288,1928.906 C288,1929.899 288.375,1930.796 288.974,1931.495 C286.057,1932.686 284,1935.543 284,1938.89 C284,1938.93 284.024,1939 284.024,1939 L299.994,1939 C300.216,1936.566 298.564,1932.941 295.026,1931.495 L295.026,1931.495 Z" id="profile_plus-[#1357]"></path>
            </g>
        </g>
    </g>
</svg>