<?xml version="1.0" encoding="UTF-8" standalone="no"?>
<svg width="20px" height="20px" viewBox="0 0 20 20" version="1.1" xmlns="http://www.w3.org/2000/svg" xmlns:xlink="http://www.w3.org/1999/xlink">
    <!-- Generator: Sketch 3.8.1 (29687) - http://www.bohemiancoding.com/sketch -->
    <title>profile_minus [#1340]</title>
    <desc>Created with Sketch.</desc>
    <defs></defs>
    <g id="Page-1" stroke="none" stroke-width="1" fill="none" fill-rule="evenodd">
        <g id="Dribbble-Dark-Preview" transform="translate(-220.000000, -2159.000000)" fill="#FFFFFF">
            <g id="icons" transform="translate(56.000000, 160.000000)">
                <path d="M178,2005 C178,2002.794 176.206,2001 174,2001 C171.794,2001 170,2002.794 170,2005 C170,2007.206 171.794,2009 174,2009 C176.206,2009 178,2007.206 178,2005 L178,2005 Z M184,2019 L179,2019 L179,2017 L181.784,2017 C180.958,2013.214 177.785,2011 174,2011 C170.215,2011 167.042,2013.214 166.216,2017 L169,2017 L169,2019 L164,2019 C164,2014.445 166.583,2011.048 170.242,2009.673 C168.876,2008.574 168,2006.89 168,2005 C168,2001.686 170.686,1999 174,1999 C177.314,1999 180,2001.686 180,2005 C180,2006.89 179.124,2008.574 177.758,2009.673 C181.417,2011.048 184,2014.445 184,2019 L184,2019 Z M171,2019 L177,2019 L177,2017 L171,2017 L171,2019 Z" id="profile_minus-[#1340]"></path>
            </g>
        </g>
    </g>
</svg>