<?xml version="1.0" encoding="UTF-8" standalone="no"?>
<svg width="23px" height="22px" viewBox="0 0 23 22" version="1.1" xmlns="http://www.w3.org/2000/svg" xmlns:xlink="http://www.w3.org/1999/xlink">
    <!-- Generator: Sketch 3.8.1 (29687) - http://www.bohemiancoding.com/sketch -->
    <title>profile_image_favorite_round [#1330]</title>
    <desc>Created with Sketch.</desc>
    <defs></defs>
    <g id="Page-1" stroke="none" stroke-width="1" fill="none" fill-rule="evenodd">
        <g id="Dribbble-Dark-Preview" transform="translate(-220.000000, -2199.000000)" fill="#FFFFFF">
            <g id="icons" transform="translate(56.000000, 160.000000)">
                <path d="M185.499538,2059.38057 C183.354926,2061.33708 182.971959,2061.75784 180.327475,2059.31345 C176.808214,2056.06162 180.624778,2052.53629 182.793578,2055.2722 C182.872186,2055.37138 183.028396,2055.36937 183.107005,2055.27019 C185.242548,2052.55833 189.157876,2056.04659 185.499538,2059.38057 M174.70593,2048.95086 C174.115355,2048.90277 173.941004,2048.91078 173.440124,2048.94785 C172.078578,2048.65633 171.054646,2047.45217 171.054646,2046.01258 C171.054646,2044.35561 172.411154,2043.00719 174.078066,2043.00719 C175.744978,2043.00719 177.101486,2044.35561 177.101486,2046.01258 C177.101486,2047.45517 176.072515,2048.66234 174.70593,2048.95086 M166.027707,2056.08967 C166.025691,2056.06863 166.015613,2056.0516 166.015613,2056.03056 L166.015613,2042.00539 C166.015613,2041.4524 166.466103,2041.0036 167.02342,2041.0036 L174.013566,2041.0036 C171.261247,2041.03866 169.039033,2043.26565 169.039033,2046.00958 C169.039033,2047.45718 169.665889,2048.7525 170.652531,2049.66614 C168.138054,2050.82722 166.324002,2053.22953 166.027707,2056.08967 M178.709945,2050.37641 C178.324963,2050.10493 177.913778,2049.8645 177.479413,2049.66113 C178.479157,2048.74649 179.117099,2047.45818 179.117099,2045.99956 C179.117099,2043.25564 176.894885,2041.03866 174.142566,2041.0036 L181.132712,2041.0036 C181.689021,2041.0036 182.140519,2041.4524 182.140519,2042.00539 L182.140519,2051.11173 C182.140519,2051.61564 182.550696,2052.02337 183.057623,2052.02337 C183.82154,2052.02337 184.156132,2051.61764 184.156132,2051.11173 L184.156132,2041.0036 C184.156132,2039.89761 183.253137,2039 182.140519,2039 L166.015613,2039 C164.901987,2039 164,2039.89761 164,2041.0036 L164,2057.03236 C164,2058.13934 164.901987,2059.03595 166.015613,2059.03595 L176.184382,2059.03595 C176.690301,2059.03595 177.101486,2058.62822 177.101486,2058.12432 C177.101486,2057.36495 176.692316,2057.03236 176.184382,2057.03236 L168.006031,2057.03236 C168.005023,2057.03236 167.998977,2056.96624 167.998977,2056.92617 C167.998977,2050.8162 175.443644,2050.00875 177.313125,2051.73585 C178.320932,2052.66652 179.844735,2051.17685 178.709945,2050.37641" id="profile_image_favorite_round-[#1330]"></path>
            </g>
        </g>
    </g>
</svg>