<?xml version="1.0" encoding="UTF-8" standalone="no"?>
<svg width="20px" height="20px" viewBox="0 0 20 20" version="1.1" xmlns="http://www.w3.org/2000/svg" xmlns:xlink="http://www.w3.org/1999/xlink">
    <!-- Generator: Sketch 3.8.1 (29687) - http://www.bohemiancoding.com/sketch -->
    <title>profile_close [#1358]</title>
    <desc>Created with Sketch.</desc>
    <defs></defs>
    <g id="Page-1" stroke="none" stroke-width="1" fill="none" fill-rule="evenodd">
        <g id="Dribbble-Dark-Preview" transform="translate(-300.000000, -2079.000000)" fill="#FFFFFF">
            <g id="icons" transform="translate(56.000000, 160.000000)">
                <path d="M261.854759,1922.536 L264,1924.657 L262.569839,1926.072 L260.424599,1923.95 L258.278346,1926.072 L256.848186,1924.657 L258.994438,1922.536 L256.848186,1920.415 L258.278346,1919 L260.424599,1921.122 L262.569839,1919 L264,1920.415 L261.854759,1922.536 Z M246.547793,1937 C247.347833,1934 249.601297,1932.689 252.258321,1932.67 C252.273493,1932.67 252.286641,1932.558 252.301813,1932.558 C252.315973,1932.558 252.329121,1932.729 252.344293,1932.728 C255.002328,1932.747 257.256803,1934 258.055832,1937 L246.547793,1937 Z M252.301813,1926.442 C253.416407,1926.442 254.324671,1927.339 254.324671,1928.442 C254.324671,1929.531 253.43967,1930.415 252.344293,1930.438 C252.330133,1930.438 252.315973,1930.436 252.301813,1930.436 C252.286641,1930.436 252.273493,1930.438 252.258321,1930.438 C251.162944,1930.415 250.278955,1929.531 250.278955,1928.442 C250.278955,1927.339 251.186206,1926.442 252.301813,1926.442 L252.301813,1926.442 Z M255.362397,1931.147 C255.967231,1930.448 256.347528,1929.493 256.347528,1928.5 C256.347528,1926.291 254.536059,1924.471 252.301813,1924.471 C250.066555,1924.471 248.256097,1926.248 248.256097,1928.457 C248.256097,1929.449 248.635383,1930.339 249.240217,1931.038 C246.289879,1932.229 244.210381,1935.315 244.210381,1938.662 C244.210381,1938.702 243.998992,1939 244.000004,1939 L260.387176,1939 C260.464044,1935.229 258.241935,1932.311 255.362397,1931.147 L255.362397,1931.147 Z" id="profile_close-[#1358]"></path>
            </g>
        </g>
    </g>
</svg>