<?xml version="1.0" encoding="UTF-8" standalone="no"?>
<svg width="20px" height="17px" viewBox="0 0 20 17" version="1.1" xmlns="http://www.w3.org/2000/svg" xmlns:xlink="http://www.w3.org/1999/xlink">
    <!-- Generator: Sketch 3.8.1 (29687) - http://www.bohemiancoding.com/sketch -->
    <title>profile_minus [#1350]</title>
    <desc>Created with Sketch.</desc>
    <defs></defs>
    <g id="Page-1" stroke="none" stroke-width="1" fill="none" fill-rule="evenodd">
        <g id="Dribbble-Dark-Preview" transform="translate(-220.000000, -2122.000000)" fill="#FFFFFF">
            <g id="icons" transform="translate(56.000000, 160.000000)">
                <path d="M176,1963.99791 L184,1963.99791 L184,1962 L176,1962 L176,1963.99791 Z M172.042,1970.8927 C172.028,1970.8927 172.014,1970.8907 172,1970.8907 C171.986,1970.8907 171.972,1970.8927 171.958,1970.8927 C170.875,1970.86972 170,1969.98665 170,1968.89879 C170,1967.79694 170.897,1966.90087 172,1966.90087 C173.103,1966.90087 174,1967.79694 174,1968.89879 C174,1969.98665 173.125,1970.86972 172.042,1970.8927 L172.042,1970.8927 Z M175.026,1971.48508 C175.625,1970.78681 176,1969.89075 176,1968.89879 C176,1966.69209 174.209,1964.90296 172,1964.90296 C169.791,1964.90296 168,1966.69209 168,1968.89879 C168,1969.89075 168.375,1970.78681 168.974,1971.48508 C166.057,1972.67484 164,1975.63874 164,1978.98224 C164,1979.0222 164.005,1978.98224 164.006,1978.98224 L166,1978.98224 C166,1975.69168 168.669,1972.91359 171.958,1972.89061 C171.972,1972.89061 171.985,1972.89461 172,1972.89461 C172.015,1972.89461 172.028,1972.89061 172.042,1972.89061 C175.331,1972.91359 178,1975.69168 178,1978.98224 L180,1978.98224 C180,1975.63874 177.943,1972.67584 175.026,1971.48508 L175.026,1971.48508 Z" id="profile_minus-[#1350]"></path>
            </g>
        </g>
    </g>
</svg>