<?xml version="1.0" encoding="UTF-8" standalone="no"?>
<svg width="19px" height="19px" viewBox="0 0 19 19" version="1.1" xmlns="http://www.w3.org/2000/svg" xmlns:xlink="http://www.w3.org/1999/xlink">
    <!-- Generator: Sketch 3.8.1 (29687) - http://www.bohemiancoding.com/sketch -->
    <title>profile_close_round [#1325]</title>
    <desc>Created with Sketch.</desc>
    <defs></defs>
    <g id="Page-1" stroke="none" stroke-width="1" fill="none" fill-rule="evenodd">
        <g id="Dribbble-Dark-Preview" transform="translate(-420.000000, -2200.000000)" fill="#FFFFFF">
            <g id="icons" transform="translate(56.000000, 160.000000)">
                <path d="M382.710196,2044.5355 C383.096601,2044.9265 383.096601,2045.5595 382.710196,2045.9495 C382.323792,2046.3405 381.698231,2046.3405 381.312815,2045.9495 L379.915433,2044.5355 L378.517063,2045.9495 C378.131647,2046.3405 377.506086,2046.3405 377.119681,2045.9495 C376.734265,2045.5595 376.734265,2044.9265 377.119681,2044.5355 L378.517063,2043.1215 L377.119681,2041.7075 C376.734265,2041.3165 376.734265,2040.6835 377.119681,2040.2925 L377.119681,2040.2925 C377.506086,2039.9025 378.131647,2039.9025 378.517063,2040.2925 L379.915433,2041.7075 L381.312815,2040.2925 C381.698231,2039.9025 382.323792,2039.9025 382.710196,2040.2925 C383.096601,2040.6835 383.096601,2041.3165 382.710196,2041.7075 L381.312815,2043.1215 L382.710196,2044.5355 Z M375.995056,2056.9995 L367.962582,2056.9995 C367.176925,2056.9995 366.679837,2056.1595 367.132454,2055.5095 C368.198773,2053.9805 369.951924,2053.0075 371.936324,2052.9925 C371.95016,2052.9935 371.963995,2053.0125 371.977831,2053.0125 C371.992654,2053.0125 372.005502,2053.0155 372.020325,2053.0155 C374.005714,2053.0295 375.759853,2053.9765 376.825184,2055.5055 C377.277801,2056.1555 376.781701,2056.9995 375.995056,2056.9995 L375.995056,2056.9995 Z M371.977831,2047.0275 C373.067867,2047.0275 373.954325,2047.9245 373.954325,2049.0275 C373.954325,2050.1155 373.089609,2051.0005 372.020325,2051.0235 C372.005502,2051.0235 371.992654,2051.0215 371.977831,2051.0215 C371.963995,2051.0215 371.95016,2051.0235 371.936324,2051.0235 C370.866052,2051.0005 370.001336,2050.1155 370.001336,2049.0275 C370.001336,2047.9245 370.888782,2047.0275 371.977831,2047.0275 L371.977831,2047.0275 Z M374.968267,2051.6165 C375.788512,2050.6485 376.183811,2049.3015 375.757877,2047.8445 C375.365542,2046.5015 374.248823,2045.4405 372.897889,2045.1325 C370.31461,2044.5435 368.024841,2046.5145 368.024841,2049.0275 C368.024841,2050.0205 368.181973,2050.9165 368.773933,2051.6165 C366.681813,2052.4805 364.924709,2054.2195 364.1183,2056.4205 C363.647894,2057.7025 364.643059,2058.9995 365.994981,2058.9995 L377.572299,2058.9995 C378.904456,2058.9995 379.88875,2057.7435 379.464792,2056.4655 C378.726572,2054.2445 377.074222,2052.4875 374.968267,2051.6165 L374.968267,2051.6165 Z" id="profile_close_round-[#1325]"></path>
            </g>
        </g>
    </g>
</svg>