<?xml version="1.0" encoding="UTF-8" standalone="no"?>
<svg width="20px" height="20px" viewBox="0 0 20 20" version="1.1" xmlns="http://www.w3.org/2000/svg" xmlns:xlink="http://www.w3.org/1999/xlink">
    <!-- Generator: Sketch 3.8.1 (29687) - http://www.bohemiancoding.com/sketch -->
    <title>profile_image [#1349]</title>
    <desc>Created with Sketch.</desc>
    <defs></defs>
    <g id="Page-1" stroke="none" stroke-width="1" fill="none" fill-rule="evenodd">
        <g id="Dribbble-Dark-Preview" transform="translate(-260.000000, -2119.000000)" fill="#FFFFFF">
            <g id="icons" transform="translate(56.000000, 160.000000)">
                <path d="M222,1977 L221.963,1977 C222.115,1974.097 220.291,1970.769 216.995,1969.422 C217.594,1968.723 217.969,1967.813 217.969,1966.821 C217.969,1964.611 216.178,1962.814 213.969,1962.814 C211.76,1962.814 209.969,1964.602 209.969,1966.811 C209.969,1967.804 210.351,1968.699 210.95,1969.398 C208.133,1970.548 206,1973.252 206,1976.449 L206,1961 L222,1961 L222,1977 Z M211.969,1966.808 C211.969,1965.705 212.866,1964.808 213.969,1964.808 C215.072,1964.808 215.969,1965.705 215.969,1966.808 C215.969,1967.896 215.094,1968.781 214.011,1968.804 C213.997,1968.804 213.983,1968.802 213.969,1968.802 C213.954,1968.802 213.941,1968.804 213.926,1968.804 C212.844,1968.781 211.969,1967.896 211.969,1966.808 L211.969,1966.808 Z M219.963,1977 L207.975,1977 C207.974,1977 207.969,1976.885 207.969,1976.844 C207.969,1973.683 210.463,1970.87 214.011,1970.81 C217.3,1970.833 219.969,1973.55 219.969,1976.844 C219.969,1976.885 219.964,1977 219.963,1977 L219.963,1977 Z M204,1979 L224,1979 L224,1959 L204,1959 L204,1979 Z" id="profile_image-[#1349]"></path>
            </g>
        </g>
    </g>
</svg>