<?xml version="1.0" encoding="UTF-8" standalone="no"?>
<svg width="19px" height="19px" viewBox="0 0 19 19" version="1.1" xmlns="http://www.w3.org/2000/svg" xmlns:xlink="http://www.w3.org/1999/xlink">
    <!-- Generator: Sketch 3.8.1 (29687) - http://www.bohemiancoding.com/sketch -->
    <title>profile_close [#1355]</title>
    <desc>Created with Sketch.</desc>
    <defs></defs>
    <g id="Page-1" stroke="none" stroke-width="1" fill="none" fill-rule="evenodd">
        <g id="Dribbble-Dark-Preview" transform="translate(-420.000000, -2080.000000)" fill="#FFFFFF">
            <g id="icons" transform="translate(56.000000, 160.000000)">
                <path d="M382.707993,1924.50668 C383.097336,1924.8952 383.097336,1925.52417 382.707993,1925.9117 C382.31865,1926.30021 381.688332,1926.30021 381.299985,1925.9117 L379.891977,1924.50668 L378.482973,1925.9117 C378.094625,1926.30021 377.464308,1926.30021 377.074965,1925.9117 L377.074965,1925.9117 C376.686617,1925.52417 376.686617,1924.8952 377.074965,1924.50668 L378.482973,1923.10167 L377.074965,1921.69665 C376.686617,1921.30813 376.686617,1920.67916 377.074965,1920.29064 L377.074965,1920.29064 C377.464308,1919.90312 378.094625,1919.90312 378.482973,1920.29064 L379.891977,1921.69665 L381.299985,1920.29064 C381.688332,1919.90312 382.31865,1919.90312 382.707993,1920.29064 C383.097336,1920.67916 383.097336,1921.30813 382.707993,1921.69665 L381.299985,1923.10167 L382.707993,1924.50668 Z M371.936831,1930.95346 C371.921894,1930.95346 371.908949,1930.95147 371.894013,1930.95147 C371.880072,1930.95147 371.866131,1930.95346 371.852191,1930.95346 C370.77378,1930.9306 369.902488,1930.05123 369.902488,1928.97014 C369.902488,1927.87415 370.796683,1926.98285 371.894013,1926.98285 C372.992339,1926.98285 373.885538,1927.87415 373.885538,1928.97014 C373.885538,1930.05123 373.015241,1930.9306 371.936831,1930.95346 L371.936831,1930.95346 Z M374.90719,1931.54269 C375.733673,1930.58084 376.131978,1929.2424 375.702804,1927.79466 C375.307486,1926.46019 374.182275,1925.40593 372.822063,1925.09989 C370.218145,1924.51463 367.910963,1926.47311 367.910963,1928.97014 C367.910963,1929.95683 368.284374,1930.84714 368.880836,1931.54269 C366.308781,1932.59098 364.409863,1935.02343 364.009566,1937.87619 C363.925922,1938.46939 364.401896,1939 365.003337,1939 C365.495244,1939 365.910476,1938.6403 365.979184,1938.15441 C366.389438,1935.26389 368.863908,1932.96161 371.852191,1932.94075 C371.866131,1932.94075 371.880072,1932.94472 371.894013,1932.94472 C371.908949,1932.94472 371.921894,1932.94075 371.936831,1932.94075 C374.925114,1932.96161 377.399583,1935.20427 377.808842,1938.09379 C377.878545,1938.57969 378.293778,1938.87878 378.785685,1938.87878 L378.788672,1938.87878 C379.389117,1938.87878 379.865091,1938.40977 379.781447,1937.81557 C379.38115,1934.96282 377.48024,1932.59198 374.90719,1931.54269 L374.90719,1931.54269 Z" id="profile_close-[#1355]"></path>
            </g>
        </g>
    </g>
</svg>