<?xml version="1.0" encoding="UTF-8" standalone="no"?>
<svg width="20px" height="20px" viewBox="0 0 20 20" version="1.1" xmlns="http://www.w3.org/2000/svg" xmlns:xlink="http://www.w3.org/1999/xlink">
    <!-- Generator: Sketch 3.8.1 (29687) - http://www.bohemiancoding.com/sketch -->
    <title>profile_plus [#1354]</title>
    <desc>Created with Sketch.</desc>
    <defs></defs>
    <g id="Page-1" stroke="none" stroke-width="1" fill="none" fill-rule="evenodd">
        <g id="Dribbble-Dark-Preview" transform="translate(-60.000000, -2119.000000)" fill="#FFFFFF">
            <g id="icons" transform="translate(56.000000, 160.000000)">
                <path d="M20.0382507,1959 C20.0352403,1959 20.0322298,1959.002 20.0292194,1959.002 C20.0262089,1959.002 20.024202,1959 20.0211915,1959 L20.0382507,1959 Z M24,1963 C24,1963.552 23.5504398,1964 22.9965174,1964 L21.0587925,1964 L21.0587925,1966 C21.0587925,1966.552 20.5921731,1967 20.0382507,1967 L20.0211915,1967 C19.4662657,1967 19.0518273,1966.552 19.0518273,1966 L19.0518273,1964 L16.9756219,1964 C16.4216995,1964 15.9721393,1963.552 15.9721393,1963 C15.9721393,1962.448 16.4216995,1962 16.9756219,1962 L19.0518273,1962 L19.0518273,1960 C19.0518273,1959.451 19.4793109,1959.007 20.0292194,1959.002 C20.5801313,1959.007 21.0587925,1959.451 21.0587925,1960 L21.0587925,1962 L22.9965174,1962 C23.5504398,1962 24,1962.448 24,1963 L24,1963 Z M12.0003552,1970.902 C11.9863064,1970.902 11.9722577,1970.9 11.9582089,1970.9 C11.9441601,1970.9 11.9301114,1970.902 11.9160626,1970.902 C10.829291,1970.879 9.95124372,1969.995 9.95124372,1968.906 C9.95124372,1967.803 10.8513676,1966.906 11.9582089,1966.906 C13.0650502,1966.906 13.9651741,1967.803 13.9651741,1968.906 C13.9651741,1969.995 13.0871268,1970.879 12.0003552,1970.902 L12.0003552,1970.902 Z M14.9947472,1971.495 C15.8266343,1970.527 16.2280273,1969.18 15.7965298,1967.724 C15.3981472,1966.38 14.2642119,1965.32 12.8924512,1965.011 C10.2693477,1964.422 7.94427854,1966.393 7.94427854,1968.906 C7.94427854,1969.899 8.32058451,1970.796 8.92167058,1971.495 C6.32967505,1972.55 4.41402678,1974.997 4.00962329,1977.867 C3.92533076,1978.466 4.40599892,1979 5.0121024,1979 C5.5078228,1979 5.92727853,1978.637 5.99752231,1978.147 C6.41095714,1975.24 8.90461138,1972.923 11.9160626,1972.902 C11.9301114,1972.902 11.9431567,1972.906 11.9582089,1972.906 C11.9722577,1972.906 11.9863064,1972.902 12.0003552,1972.902 C15.0118064,1972.923 17.5054607,1975.24 17.9188955,1978.148 C17.9881358,1978.637 18.4075915,1979 18.9043154,1979 L18.9043154,1979 C19.5104189,1979 19.991087,1978.466 19.9067945,1977.868 C19.502391,1974.998 17.5867428,1972.551 14.9947472,1971.495 L14.9947472,1971.495 Z" id="profile_plus-[#1354]"></path>
            </g>
        </g>
    </g>
</svg>