<?xml version="1.0" encoding="UTF-8" standalone="no"?>
<svg width="23px" height="23px" viewBox="0 0 23 23" version="1.1" xmlns="http://www.w3.org/2000/svg" xmlns:xlink="http://www.w3.org/1999/xlink">
    <!-- Generator: Sketch 3.8.1 (29687) - http://www.bohemiancoding.com/sketch -->
    <title>profile_image_plus [#1359]</title>
    <desc>Created with Sketch.</desc>
    <defs></defs>
    <g id="Page-1" stroke="none" stroke-width="1" fill="none" fill-rule="evenodd">
        <g id="Dribbble-Dark-Preview" transform="translate(-260.000000, -2079.000000)" fill="#FFFFFF">
            <g id="icons" transform="translate(56.000000, 160.000000)">
                <path d="M227,1937 L227,1939 L224,1939 L224,1942 L222,1942 L222,1939 L219,1939 L219,1937 L222,1937 L222,1934 L224,1934 L224,1937 L227,1937 Z M212.011,1926.902 C211.997,1926.902 211.983,1926.9 211.969,1926.9 C211.954,1926.9 211.941,1926.902 211.926,1926.902 C210.844,1926.879 209.969,1925.995 209.969,1924.906 C209.969,1923.803 210.866,1922.906 211.969,1922.906 C213.072,1922.906 213.969,1923.803 213.969,1924.906 C213.969,1925.995 213.094,1926.879 212.011,1926.902 L212.011,1926.902 Z M208.958,1927.495 C207.807,1927.965 207,1928.697 206,1929.615 L206,1921 L211.122,1921 C209.32,1921.389 207.969,1922.988 207.969,1924.906 C207.969,1925.899 208.359,1926.796 208.958,1927.495 L208.958,1927.495 Z M219.963,1935 C219.963,1935 219.969,1934.934 219.969,1934.893 C219.969,1931.547 217.912,1928.687 214.995,1927.495 C215.594,1926.796 215.969,1925.899 215.969,1924.906 C215.969,1922.988 214.617,1921.389 212.815,1921 L222,1921 L222,1932 L224,1932 L224,1919 L204,1919 L204,1939 L217,1939 L217,1937 L206,1937 L206,1935 L205.975,1935 C205.974,1935 205.969,1934.934 205.969,1934.893 C205.969,1931.599 208.638,1928.925 211.926,1928.902 C211.941,1928.902 211.954,1928.906 211.969,1928.906 C211.983,1928.906 211.997,1928.902 212.011,1928.902 C215.3,1928.925 217.969,1931.596 217.969,1934.89 C217.969,1934.93 217.964,1935 217.963,1935 L219.963,1935 Z" id="profile_image_plus-[#1359]"></path>
            </g>
        </g>
    </g>
</svg>