<?xml version="1.0" encoding="UTF-8" standalone="no"?>
<svg width="20px" height="20px" viewBox="0 0 20 20" version="1.1" xmlns="http://www.w3.org/2000/svg" xmlns:xlink="http://www.w3.org/1999/xlink">
    <!-- Generator: Sketch 3.8.1 (29687) - http://www.bohemiancoding.com/sketch -->
    <title>profile_favorite [#1333]</title>
    <desc>Created with Sketch.</desc>
    <defs></defs>
    <g id="Page-1" stroke="none" stroke-width="1" fill="none" fill-rule="evenodd">
        <g id="Dribbble-Dark-Preview" transform="translate(-100.000000, -2199.000000)" fill="#FFFFFF">
            <g id="icons" transform="translate(56.000000, 160.000000)">
                <path d="M54.0015651,2048.736 C54.0015651,2047.61443 53.0981541,2046.70232 51.9872708,2046.70232 C50.8763876,2046.70232 49.9729766,2047.61443 49.9729766,2048.736 C49.9729766,2049.84233 50.8542303,2050.74223 51.9449707,2050.76562 C51.9590707,2050.76562 51.9731708,2050.76358 51.9872708,2050.76358 C52.0013709,2050.76358 52.015471,2050.76562 52.029571,2050.76562 C53.1203114,2050.74223 54.0015651,2049.84233 54.0015651,2048.736 M59.9648832,2057.84894 C60.0494836,2058.45701 59.5670601,2059 58.9587433,2059 L58.9587433,2059 C58.4602054,2059 58.0392179,2058.63089 57.9697248,2058.13365 C57.5547802,2055.17668 55.0520195,2052.82065 52.029571,2052.7993 C52.015471,2052.7993 52.002378,2052.80337 51.9872708,2052.80337 C51.9721636,2052.80337 51.9590707,2052.7993 51.9449707,2052.7993 C48.9225221,2052.82065 46.4197615,2055.17566 46.0048169,2058.13263 C45.9353237,2058.63089 45.5143362,2059 45.0157984,2059 C44.4074816,2059 43.9250581,2058.45599 44.0096584,2057.84792 C44.4155387,2054.92958 46.3381826,2052.44036 48.9396436,2051.36861 C48.3363625,2050.65783 47.9586823,2049.74573 47.9586823,2048.736 C47.9586823,2046.18068 50.2922422,2044.17649 52.9249248,2044.77541 C54.3016949,2045.08859 55.4397712,2046.16746 55.8396086,2047.53308 C56.2726819,2049.01462 55.869823,2050.3843 55.034898,2051.36861 C57.6363591,2052.44239 59.5590029,2054.92958 59.9648832,2057.84894 M62.4938297,2044.1653 C59.9668975,2046.50709 59.5982817,2046.23051 57.3251506,2044.09717 C53.8081928,2040.7965 57.622259,2037.21722 59.7906468,2039.99523 C59.8681971,2040.0959 60.0243049,2040.09285 60.1028624,2039.9932 C62.2420429,2037.23451 66.1628667,2040.76905 62.4938297,2044.1653" id="profile_favorite-[#1333]"></path>
            </g>
        </g>
    </g>
</svg>