<?xml version="1.0" encoding="UTF-8" standalone="no"?>
<svg width="20px" height="22px" viewBox="0 0 20 22" version="1.1" xmlns="http://www.w3.org/2000/svg" xmlns:xlink="http://www.w3.org/1999/xlink">
    <!-- Generator: Sketch 3.8.1 (29687) - http://www.bohemiancoding.com/sketch -->
    <title>profile_close [#1338]</title>
    <desc>Created with Sketch.</desc>
    <defs></defs>
    <g id="Page-1" stroke="none" stroke-width="1" fill="none" fill-rule="evenodd">
        <g id="Dribbble-Dark-Preview" transform="translate(-300.000000, -2159.000000)" fill="#FFFFFF">
            <g id="icons" transform="translate(56.000000, 160.000000)">
                <path d="M258,2005.04728 C258,2002.8239 256.206,2001.01576 254,2001.01576 C251.794,2001.01576 250,2002.8239 250,2005.04728 C250,2007.27066 251.794,2009.0788 254,2009.0788 C256.206,2009.0788 258,2007.27066 258,2005.04728 L258,2005.04728 Z M264,2019.1576 L259,2019.1576 L259,2017.14184 L261.784,2017.14184 C260.958,2013.326 257.785,2011.09456 254,2011.09456 C250.215,2011.09456 247.042,2013.326 246.216,2017.14184 L249,2017.14184 L249,2019.1576 L244,2019.1576 C244,2014.5667 246.583,2011.14294 250.242,2009.7571 C248.876,2008.64944 248,2006.95217 248,2005.04728 C248,2001.70717 250.686,1999 254,1999 C257.314,1999 260,2001.70717 260,2005.04728 C260,2006.95217 259.124,2008.64944 257.758,2009.7571 C261.417,2011.14294 264,2014.5667 264,2019.1576 L264,2019.1576 Z M256.828,2016.72457 L255.414,2018.14972 L256.828,2019.57486 L255.414,2021 L254,2019.57486 L252.586,2021 L251.172,2019.57486 L252.586,2018.14972 L251.172,2016.72457 L252.586,2015.29943 L254,2016.72457 L255.414,2015.29943 L256.828,2016.72457 Z" id="profile_close-[#1338]"></path>
            </g>
        </g>
    </g>
</svg>