<?xml version="1.0" encoding="UTF-8" standalone="no"?>
<svg width="20px" height="20px" viewBox="0 0 20 20" version="1.1" xmlns="http://www.w3.org/2000/svg" xmlns:xlink="http://www.w3.org/1999/xlink">
    <!-- Generator: Sketch 3.8.1 (29687) - http://www.bohemiancoding.com/sketch -->
    <title>profile_image_zoom [#1347]</title>
    <desc>Created with Sketch.</desc>
    <defs></defs>
    <g id="Page-1" stroke="none" stroke-width="1" fill="none" fill-rule="evenodd">
        <g id="Dribbble-Dark-Preview" transform="translate(-340.000000, -2119.000000)" fill="#FFFFFF">
            <g id="icons" transform="translate(56.000000, 160.000000)">
                <path d="M302,1972.618 C301,1971.194 299.559,1970.115 297.86,1969.477 C299.226,1968.377 300.153,1966.792 300.153,1964.902 C300.153,1963.363 299.619,1962 298.667,1961 L302,1961 L302,1972.618 Z M286.42,1977 C287.246,1973 290.419,1971 294.204,1971 C297.989,1971 301.161,1973 301.987,1977 L286.42,1977 Z M286,1972.618 L286,1961 L289.741,1961 C288.788,1962 288.204,1963.363 288.204,1964.902 C288.204,1966.792 288.978,1968.426 290.344,1969.526 C288.645,1970.164 287,1971.194 286,1972.618 L286,1972.618 Z M294.204,1960.804 C296.409,1960.804 298.204,1962.598 298.204,1964.804 C298.204,1967.009 296.409,1968.804 294.204,1968.804 C291.998,1968.804 290.204,1967.009 290.204,1964.804 C290.204,1962.598 291.998,1960.804 294.204,1960.804 L294.204,1960.804 Z M284,1979 L304,1979 L304,1959 L284,1959 L284,1979 Z" id="profile_image_zoom-[#1347]"></path>
            </g>
        </g>
    </g>
</svg>