<?xml version="1.0" encoding="UTF-8" standalone="no"?>
<svg width="20px" height="17px" viewBox="0 0 20 17" version="1.1" xmlns="http://www.w3.org/2000/svg" xmlns:xlink="http://www.w3.org/1999/xlink">
    <!-- Generator: Sketch 3.8.1 (29687) - http://www.bohemiancoding.com/sketch -->
    <title>profile_minus [#1323]</title>
    <desc>Created with Sketch.</desc>
    <defs></defs>
    <g id="Page-1" stroke="none" stroke-width="1" fill="none" fill-rule="evenodd">
        <g id="Dribbble-Dark-Preview" transform="translate(-100.000000, -2242.000000)" fill="#FFFFFF">
            <g id="icons" transform="translate(56.000000, 160.000000)">
                <path d="M56.7055402,2095.359 C55.6155402,2094.01 53.9275402,2092.933 52.0315402,2092.92 C52.0175402,2092.92 52.0045402,2092.942 51.9895402,2092.942 C51.9745402,2092.942 51.9615402,2092.926 51.9475402,2092.926 C50.0525402,2092.939 48.3665402,2094.011 47.2765402,2095.359 C46.7435402,2096.017 47.2035402,2097 48.0505402,2097 L55.9305402,2097 C56.7775402,2097 57.2375402,2096.018 56.7055402,2095.359 L56.7055402,2095.359 Z M49.9895402,2088.953 C49.9895402,2090.042 50.8645402,2090.926 51.9475402,2090.949 C51.9615402,2090.949 51.9755402,2090.947 51.9895402,2090.947 C52.0035402,2090.947 52.0175402,2090.949 52.0315402,2090.949 C53.1145402,2090.926 53.9895402,2090.042 53.9895402,2088.953 C53.9895402,2087.851 53.0925402,2086.953 51.9895402,2086.953 C50.8865402,2086.953 49.9895402,2087.851 49.9895402,2088.953 L49.9895402,2088.953 Z M59.4505402,2096.244 C59.9625402,2097.569 59.0135402,2099 57.5935402,2099 L46.0015402,2099 C44.5575402,2099 43.5995402,2097.522 44.1645402,2096.194 C45.0295402,2094.159 46.7355402,2092.338 48.7465402,2091.517 C48.1475402,2090.818 47.9895402,2089.943 47.9895402,2088.95 C47.9895402,2086.422 50.3355402,2084.437 52.9705402,2085.064 C54.4295402,2085.412 55.5925402,2086.625 55.8995402,2088.093 C56.1805402,2089.43 55.7805402,2090.626 55.0155402,2091.519 C57.0435402,2092.348 58.6555402,2094.19 59.4505402,2096.244 L59.4505402,2096.244 Z M64.0005402,2083 C64.0005402,2083.552 63.5525402,2084 63.0005402,2084 L57.0005402,2084 C56.4475402,2084 56.0005402,2083.552 56.0005402,2083 C56.0005402,2082.448 56.4475402,2082 57.0005402,2082 L63.0005402,2082 C63.5525402,2082 64.0005402,2082.448 64.0005402,2083 L64.0005402,2083 Z" id="profile_minus-[#1323]"></path>
            </g>
        </g>
    </g>
</svg>