<?xml version="1.0" encoding="UTF-8" standalone="no"?>
<svg width="20px" height="20px" viewBox="0 0 20 20" version="1.1" xmlns="http://www.w3.org/2000/svg" xmlns:xlink="http://www.w3.org/1999/xlink">
    <!-- Generator: Sketch 3.8.1 (29687) - http://www.bohemiancoding.com/sketch -->
    <title>profile_plus [#1351]</title>
    <desc>Created with Sketch.</desc>
    <defs></defs>
    <g id="Page-1" stroke="none" stroke-width="1" fill="none" fill-rule="evenodd">
        <g id="Dribbble-Dark-Preview" transform="translate(-180.000000, -2119.000000)" fill="#FFFFFF">
            <g id="icons" transform="translate(56.000000, 160.000000)">
                <path d="M144,1961.99734 L144,1963.99556 L141,1963.99556 L141,1966.9929 L139,1966.9929 L139,1963.99556 L136,1963.99556 L136,1961.99734 L139,1961.99734 L139,1959 L141,1959 L141,1961.99734 L144,1961.99734 Z M132.042,1970.89143 C132.028,1970.89143 132.014,1970.88943 132,1970.88943 C131.986,1970.88943 131.972,1970.89143 131.958,1970.89143 C130.875,1970.86845 130,1969.98524 130,1968.8972 C130,1967.79518 130.897,1966.89898 132,1966.89898 C133.103,1966.89898 134,1967.79518 134,1968.8972 C134,1969.98524 133.125,1970.86845 132.042,1970.89143 L132.042,1970.89143 Z M135.026,1971.4839 C135.625,1970.78552 136,1969.88932 136,1968.8972 C136,1966.69016 134.209,1964.90075 132,1964.90075 C129.791,1964.90075 128,1966.69016 128,1968.8972 C128,1969.88932 128.375,1970.78552 128.974,1971.4839 C126.057,1972.67385 124,1975.63821 124,1978.98224 C124,1979.0222 124.005,1978.98224 124.006,1978.98224 L126,1978.98224 C126,1975.69116 128.669,1972.91263 131.958,1972.88965 C131.972,1972.88965 131.985,1972.89365 132,1972.89365 C132.015,1972.89365 132.028,1972.88965 132.042,1972.88965 C135.331,1972.91263 138,1975.69116 138,1978.98224 L140,1978.98224 C140,1975.63821 137.943,1972.67484 135.026,1971.4839 L135.026,1971.4839 Z" id="profile_plus-[#1351]"></path>
            </g>
        </g>
    </g>
</svg>