<?xml version="1.0" encoding="UTF-8" standalone="no"?>
<svg width="23px" height="23px" viewBox="0 0 23 23" version="1.1" xmlns="http://www.w3.org/2000/svg" xmlns:xlink="http://www.w3.org/1999/xlink">
    <!-- Generator: Sketch 3.8.1 (29687) - http://www.bohemiancoding.com/sketch -->
    <title>profile_image_favorite_round [#1331]</title>
    <desc>Created with Sketch.</desc>
    <defs></defs>
    <g id="Page-1" stroke="none" stroke-width="1" fill="none" fill-rule="evenodd">
        <g id="Dribbble-Dark-Preview" transform="translate(-180.000000, -2199.000000)" fill="#FFFFFF">
            <g id="icons" transform="translate(56.000000, 160.000000)">
                <path d="M145.641115,2058.87817 C145.464461,2059.05205 145.384074,2059.30188 145.425756,2059.54671 L145.692722,2061.11462 C145.776087,2061.60328 145.390028,2062 144.953356,2062 C144.838233,2062 144.71914,2061.97202 144.604017,2061.91106 L143.205671,2061.17058 C143.096503,2061.11262 142.976418,2061.08364 142.856333,2061.08364 C142.736248,2061.08364 142.617155,2061.11262 142.506994,2061.17058 L141.108649,2061.91106 C140.993526,2061.97202 140.874433,2062 140.75931,2062 C140.322637,2062 139.937571,2061.60328 140.019943,2061.11462 L140.287902,2059.54671 C140.329584,2059.30188 140.248204,2059.05205 140.07155,2058.87817 L138.94017,2057.76794 C138.494565,2057.33025 138.74069,2056.56878 139.356002,2056.47884 L140.920085,2056.25 C141.164225,2056.21502 141.375614,2056.06013 141.484783,2055.83729 L142.183459,2054.41028 C142.321408,2054.12948 142.589367,2053.98957 142.856333,2053.98957 C143.124291,2053.98957 143.391257,2054.12948 143.529206,2054.41028 L144.228875,2055.83729 C144.338044,2056.06013 144.548441,2056.21502 144.793573,2056.25 L146.356664,2056.47884 C146.971976,2056.56878 147.2181,2057.33025 146.772495,2057.76794 L145.641115,2058.87817 Z M134.543667,2048.92609 C134.328308,2048.90811 134.112949,2048.89312 133.89362,2048.89312 C133.692155,2048.89312 133.49466,2048.90811 133.297165,2048.9231 C131.95638,2048.6313 130.94707,2047.43113 130.94707,2045.99513 C130.94707,2044.34228 132.282892,2042.99722 133.924386,2042.99722 C135.565879,2042.99722 136.901701,2044.34228 136.901701,2045.99513 C136.901701,2047.43413 135.888422,2048.6383 134.543667,2048.92609 L134.543667,2048.92609 Z M125.996786,2056.04714 C125.995794,2056.02616 125.984877,2056.00917 125.984877,2055.98818 L125.984877,2041.99791 C125.984877,2041.4463 126.42949,2040.99861 126.977316,2040.99861 L133.86087,2040.99861 C131.15052,2041.03359 128.962193,2043.25404 128.962193,2045.99214 C128.962193,2047.43513 129.57949,2048.72723 130.552079,2049.6396 C128.075945,2050.79679 126.289556,2053.19413 125.996786,2056.04714 L125.996786,2056.04714 Z M138.486626,2050.34811 C138.106522,2050.07629 137.701607,2049.83746 137.273866,2049.6346 C138.259357,2048.72124 138.886579,2047.43713 138.886579,2045.98214 C138.886579,2043.24505 136.698251,2041.03359 133.987902,2040.99861 L140.871456,2040.99861 C141.419282,2040.99861 141.863894,2041.4463 141.863894,2041.99791 L141.863894,2051.0816 C141.863894,2051.58325 142.268809,2051.99096 142.767013,2051.99096 C143.519282,2051.99096 143.848771,2051.58525 143.848771,2051.0816 L143.848771,2040.99861 C143.848771,2039.89438 142.960539,2039 141.863894,2039 L125.984877,2039 C124.889225,2039 124,2039.89438 124,2040.99861 L124,2056.98749 C124,2058.09072 124.889225,2058.9861 125.984877,2058.9861 L135.998582,2058.9861 C136.497779,2058.9861 136.901701,2058.57838 136.901701,2058.07673 C136.901701,2057.31926 136.498771,2056.98749 135.998582,2056.98749 L127.944943,2056.98749 C127.943951,2056.98749 127.938989,2056.92153 127.938989,2056.88056 C127.938989,2053.78771 130.278166,2051.23949 133.268384,2050.9247 C133.485728,2050.95368 133.700095,2050.99166 133.924386,2050.99166 C134.136768,2050.99166 134.338233,2050.9287 134.542675,2050.90272 C135.483507,2051.00565 136.353875,2050.99566 137.110114,2051.70416 C138.102552,2052.63152 139.603119,2051.14655 138.486626,2050.34811 L138.486626,2050.34811 Z" id="profile_image_favorite_round-[#1331]"></path>
            </g>
        </g>
    </g>
</svg>