<?xml version="1.0" encoding="UTF-8" standalone="no"?>
<svg width="20px" height="21px" viewBox="0 0 20 21" version="1.1" xmlns="http://www.w3.org/2000/svg" xmlns:xlink="http://www.w3.org/1999/xlink">
    <!-- Generator: Sketch 3.8.1 (29687) - http://www.bohemiancoding.com/sketch -->
    <title>profile_close_round [#1344]</title>
    <desc>Created with Sketch.</desc>
    <defs></defs>
    <g id="Page-1" stroke="none" stroke-width="1" fill="none" fill-rule="evenodd">
        <g id="Dribbble-Dark-Preview" transform="translate(-60.000000, -2159.000000)" fill="#FFFFFF">
            <g id="icons" transform="translate(56.000000, 160.000000)">
                <path d="M18.0831232,2004.88392 C18.0831232,2002.72059 16.2518424,2000.96129 14,2000.96129 C11.7481576,2000.96129 9.91687685,2002.72059 9.91687685,2004.88392 C9.91687685,2007.04724 11.7481576,2008.80654 14,2008.80654 C16.2518424,2008.80654 18.0831232,2007.04724 18.0831232,2004.88392 M21.9457577,2018.61311 L20.1246847,2018.61311 C19.5612137,2018.61311 19.1039039,2018.17377 19.1039039,2017.63245 C19.1039039,2017.09113 19.5612137,2016.65179 20.1246847,2016.65179 L20.5625997,2016.65179 C21.26898,2016.65179 21.790599,2015.96828 21.5231544,2015.33968 C20.2869889,2012.43301 17.3838883,2010.76785 14,2010.76785 C10.6161117,2010.76785 7.71301112,2012.43301 6.47684559,2015.33968 C6.20940102,2015.96828 6.73102,2016.65179 7.43740031,2016.65179 L7.87531527,2016.65179 C8.43878626,2016.65179 8.89609606,2017.09113 8.89609606,2017.63245 C8.89609606,2018.17377 8.43878626,2018.61311 7.87531527,2018.61311 L6.05424234,2018.61311 C4.77826636,2018.61311 3.77381806,2017.49222 4.04432497,2016.29483 C4.78745338,2013.00081 7.10768812,2010.56976 10.1639058,2009.46652 C8.76951924,2008.38878 7.87531527,2006.73736 7.87531527,2004.88392 C7.87531527,2001.40161 11.0234032,1998.62635 14.7339414,1999.04116 C17.422678,1999.34125 19.6500217,2001.39964 20.0532301,2003.97191 C20.4002955,2006.18917 19.4560733,2008.21423 17.8360942,2009.46652 C20.8923119,2010.56976 23.2125466,2013.00081 23.955675,2016.29483 C24.2261819,2017.49222 23.2217336,2018.61311 21.9457577,2018.61311 M16.1650761,2016.93913 L15.443384,2017.63245 L16.1650761,2018.32577 C16.5642013,2018.70921 16.5642013,2019.32997 16.1650761,2019.71242 C15.7669715,2020.09586 15.1208173,2020.09586 14.721692,2019.71242 L14,2019.0191 L13.278308,2019.71242 C12.8791827,2020.09586 12.2330285,2020.09586 11.8349239,2019.71242 C11.4357987,2019.32997 11.4357987,2018.70921 11.8349239,2018.32577 L12.556616,2017.63245 L11.8349239,2016.93913 C11.4357987,2016.55569 11.4357987,2015.93493 11.8349239,2015.55248 C12.2330285,2015.16904 12.8791827,2015.16904 13.278308,2015.55248 L14,2016.2458 L14.721692,2015.55248 C15.1208173,2015.16904 15.7669715,2015.16904 16.1650761,2015.55248 C16.5642013,2015.93493 16.5642013,2016.55569 16.1650761,2016.93913" id="profile_close_round-[#1344]"></path>
            </g>
        </g>
    </g>
</svg>