<?xml version="1.0" encoding="UTF-8" standalone="no"?>
<svg width="20px" height="10px" viewBox="0 0 20 10" version="1.1" xmlns="http://www.w3.org/2000/svg" xmlns:xlink="http://www.w3.org/1999/xlink">
    <!-- Generator: Sketch 3.8.1 (29687) - http://www.bohemiancoding.com/sketch -->
    <title>projector [#211]</title>
    <desc>Created with Sketch.</desc>
    <defs></defs>
    <g id="Page-1" stroke="none" stroke-width="1" fill="none" fill-rule="evenodd">
        <g id="Dribbble-Dark-Preview" transform="translate(-140.000000, -7244.000000)" fill="#FFFFFF">
            <g id="icons" transform="translate(56.000000, 160.000000)">
                <path d="M100,7090 L100,7088 L101,7088 C101.552,7088 102,7088.448 102,7089 L102,7090 L100,7090 Z M98,7091 C98,7091.552 97.552,7092 97,7092 L93,7092 C92.448,7092 92,7091.552 92,7091 L92,7087 C92,7086.448 92.448,7086 93,7086 L97,7086 C97.552,7086 98,7086.448 98,7087 L98,7091 Z M90,7090 L86,7090 L86,7089 C86,7088.448 86.448,7088 87,7088 L90,7088 L90,7090 Z M100,7086 C100,7084.895 99.105,7084 98,7084 L92,7084 C90.895,7084 90,7084.895 90,7086 L86,7086 C84.895,7086 84,7086.895 84,7088 L84,7093 C84,7093.552 84.448,7094 85,7094 C85.552,7094 86,7093.552 86,7093 L86,7092 L90,7092 C90,7093.105 90.895,7094 92,7094 L98,7094 C99.105,7094 100,7093.105 100,7092 L102,7092 L102,7093 C102,7093.552 102.448,7094 103,7094 C103.552,7094 104,7093.552 104,7093 L104,7088 C104,7086.895 103.105,7086 102,7086 L100,7086 Z" id="projector-[#211]"></path>
            </g>
        </g>
    </g>
</svg>