<?xml version="1.0" encoding="UTF-8" standalone="no"?>
<svg width="20px" height="18px" viewBox="0 0 20 18" version="1.1" xmlns="http://www.w3.org/2000/svg" xmlns:xlink="http://www.w3.org/1999/xlink">
    <!-- Generator: Sketch 3.8.1 (29687) - http://www.bohemiancoding.com/sketch -->
    <title>projector [#209]</title>
    <desc>Created with Sketch.</desc>
    <defs></defs>
    <g id="Page-1" stroke="none" stroke-width="1" fill="none" fill-rule="evenodd">
        <g id="Dribbble-Dark-Preview" transform="translate(-220.000000, -7241.000000)" fill="#FFFFFF">
            <g id="icons" transform="translate(56.000000, 160.000000)">
                <path d="M178.647,7085.706 L179.753,7083.495 C179.904,7083.192 180.214,7083 180.553,7083 C181.217,7083 181.65,7083.7 181.353,7084.295 L180.247,7086.506 C180.095,7086.809 179.786,7087 179.447,7087 C178.782,7087 178.35,7086.301 178.647,7085.706 L178.647,7085.706 Z M168.647,7084.295 C168.35,7083.7 168.782,7083 169.447,7083 C169.786,7083 170.095,7083.192 170.247,7083.495 L171.353,7085.706 C171.65,7086.301 171.217,7087 170.553,7087 C170.214,7087 169.904,7086.809 169.753,7086.506 L168.647,7084.295 Z M174,7084 L174,7082 C174,7081.448 174.448,7081 175,7081 C175.552,7081 176,7081.448 176,7082 L176,7084 C176,7084.553 175.552,7085 175,7085 C174.448,7085 174,7084.553 174,7084 L174,7084 Z M182,7095 L179.899,7095 C180.031,7094.35 180.036,7093.673 179.899,7093 L182,7093 L182,7095 Z M177.815,7095 C177.401,7096.162 176.302,7097 175,7097 C173.698,7097 172.598,7096.162 172.184,7095 C171.485,7093.039 172.964,7091 175,7091 C177.038,7091 178.514,7093.042 177.815,7095 L177.815,7095 Z M170.101,7095 L166,7095 L166,7093 L170.101,7093 C169.968,7093.651 169.964,7094.328 170.101,7095 L170.101,7095 Z M184,7091 L178.977,7091 C178.064,7089.793 176.63,7089 175,7089 C173.369,7089 171.935,7089.793 171.022,7091 L164,7091 L164,7099 L166,7099 L166,7097 L171.022,7097 C171.935,7098.208 173.369,7099 175,7099 C176.63,7099 178.064,7098.208 178.977,7097 L182,7097 L182,7099 L184,7099 L184,7091 Z" id="projector-[#209]"></path>
            </g>
        </g>
    </g>
</svg>