<?xml version="1.0" encoding="UTF-8" standalone="no"?>
<svg width="20px" height="10px" viewBox="0 0 20 10" version="1.1" xmlns="http://www.w3.org/2000/svg" xmlns:xlink="http://www.w3.org/1999/xlink">
    <!-- Generator: Sketch 3.8.1 (29687) - http://www.bohemiancoding.com/sketch -->
    <title>projector [#212]</title>
    <desc>Created with Sketch.</desc>
    <defs></defs>
    <g id="Page-1" stroke="none" stroke-width="1" fill="none" fill-rule="evenodd">
        <g id="Dribbble-Dark-Preview" transform="translate(-100.000000, -7244.000000)" fill="#FFFFFF">
            <g id="icons" transform="translate(56.000000, 160.000000)">
                <path d="M59.813,7089.844 L61.813,7089.844 L61.813,7087.844 L59.813,7087.844 L59.813,7089.844 Z M52,7092 L58,7092 L58,7086 L52,7086 L52,7092 Z M46,7090 L50,7090 L50,7088 L46,7088 L46,7090 Z M44,7094 L46,7094 L46,7092 L50,7092 L50,7094 L60,7094 L60,7092 L62,7092 L62,7094 L64,7094 L64,7086 L60,7086 L60,7084 L50,7084 L50,7086 L44,7086 L44,7094 Z" id="projector-[#212]"></path>
            </g>
        </g>
    </g>
</svg>