<?xml version="1.0" encoding="UTF-8" standalone="no"?>
<svg width="20px" height="18px" viewBox="0 0 20 18" version="1.1" xmlns="http://www.w3.org/2000/svg" xmlns:xlink="http://www.w3.org/1999/xlink">
    <!-- Generator: Sketch 3.8.1 (29687) - http://www.bohemiancoding.com/sketch -->
    <title>projector [#210]</title>
    <desc>Created with Sketch.</desc>
    <defs></defs>
    <g id="Page-1" stroke="none" stroke-width="1" fill="none" fill-rule="evenodd">
        <g id="Dribbble-Dark-Preview" transform="translate(-180.000000, -7241.000000)" fill="#FFFFFF">
            <g id="icons" transform="translate(56.000000, 160.000000)">
                <path d="M138.647,7085.706 L139.753,7083.495 C139.904,7083.192 140.214,7083 140.553,7083 C141.217,7083 141.65,7083.7 141.353,7084.295 L140.247,7086.506 C140.095,7086.809 139.786,7087 139.447,7087 C138.782,7087 138.35,7086.301 138.647,7085.706 L138.647,7085.706 Z M128.647,7084.295 C128.35,7083.7 128.782,7083 129.447,7083 C129.786,7083 130.095,7083.192 130.247,7083.495 L131.353,7085.706 C131.65,7086.301 131.217,7087 130.553,7087 C130.214,7087 129.904,7086.809 129.753,7086.506 L128.647,7084.295 Z M134,7084 L134,7082 C134,7081.448 134.448,7081 135,7081 C135.552,7081 136,7081.448 136,7082 L136,7084 C136,7084.553 135.552,7085 135,7085 C134.448,7085 134,7084.553 134,7084 L134,7084 Z M140,7095 L142,7095 L142,7093 L140,7093 L140,7095 Z M132,7097 L138,7097 L138,7091 L132,7091 L132,7097 Z M126,7095 L130,7095 L130,7093 L126,7093 L126,7095 Z M144,7091 L140,7091 L140,7089 L130,7089 L130,7091 L124,7091 L124,7099 L126,7099 L126,7097 L130,7097 L130,7099 L140,7099 L140,7097 L142,7097 L142,7099 L144,7099 L144,7091 Z" id="projector-[#210]"></path>
            </g>
        </g>
    </g>
</svg>