<?xml version="1.0" encoding="UTF-8" standalone="no"?>
<svg width="20px" height="10px" viewBox="0 0 20 10" version="1.1" xmlns="http://www.w3.org/2000/svg" xmlns:xlink="http://www.w3.org/1999/xlink">
    <!-- Generator: Sketch 3.8.1 (29687) - http://www.bohemiancoding.com/sketch -->
    <title>projector [#213]</title>
    <desc>Created with Sketch.</desc>
    <defs></defs>
    <g id="Page-1" stroke="none" stroke-width="1" fill="none" fill-rule="evenodd">
        <g id="Dribbble-Dark-Preview" transform="translate(-60.000000, -7244.000000)" fill="#FFFFFF">
            <g id="icons" transform="translate(56.000000, 160.000000)">
                <path d="M20.066,7090 C20.198,7089.349 20.203,7088.673 20.066,7088 L22,7088 L22,7090 L20.066,7090 Z M17.982,7090 C17.568,7091.161 16.469,7092 15.167,7092 C13.865,7092 12.765,7091.161 12.351,7090 C11.653,7088.041 13.13,7086 15.167,7086 C17.2,7086 18.683,7088.036 17.982,7090 L17.982,7090 Z M10.268,7090 L6,7090 L6,7088 L10.268,7088 C10.135,7088.651 10.131,7089.327 10.268,7090 L10.268,7090 Z M24,7086 L19.144,7086 C18.231,7084.792 16.797,7084 15.167,7084 C13.536,7084 12.102,7084.792 11.189,7086 L4,7086 L4,7094 L6,7094 L6,7092 L11.189,7092 C12.102,7093.208 13.536,7094 15.167,7094 C16.797,7094 18.231,7093.208 19.144,7092 L22,7092 L22,7094 L24,7094 L24,7086 Z" id="projector-[#213]"></path>
            </g>
        </g>
    </g>
</svg>