<?xml version="1.0" encoding="UTF-8" standalone="no"?>
<svg width="20px" height="18px" viewBox="0 0 20 18" version="1.1" xmlns="http://www.w3.org/2000/svg" xmlns:xlink="http://www.w3.org/1999/xlink">
    <!-- Generator: Sketch 3.8.1 (29687) - http://www.bohemiancoding.com/sketch -->
    <title>projector [#208]</title>
    <desc>Created with Sketch.</desc>
    <defs></defs>
    <g id="Page-1" stroke="none" stroke-width="1" fill="none" fill-rule="evenodd">
        <g id="Dribbble-Dark-Preview" transform="translate(-260.000000, -7241.000000)" fill="#FFFFFF">
            <g id="icons" transform="translate(56.000000, 160.000000)">
                <path d="M218.647,7085.706 L219.753,7083.495 C219.904,7083.192 220.214,7083 220.553,7083 C221.217,7083 221.65,7083.7 221.353,7084.295 L220.247,7086.506 C220.095,7086.809 219.786,7087 219.447,7087 C218.782,7087 218.35,7086.301 218.647,7085.706 L218.647,7085.706 Z M208.647,7084.295 C208.35,7083.7 208.782,7083 209.447,7083 C209.786,7083 210.095,7083.192 210.247,7083.495 L211.353,7085.706 C211.65,7086.301 211.217,7087 210.553,7087 C210.214,7087 209.904,7086.809 209.753,7086.506 L208.647,7084.295 Z M214,7084 L214,7082 C214,7081.448 214.448,7081 215,7081 C215.552,7081 216,7081.448 216,7082 L216,7084 C216,7084.553 215.552,7085 215,7085 C214.448,7085 214,7084.553 214,7084 L214,7084 Z M222,7095 L220,7095 L220,7093 L221,7093 C221.552,7093 222,7093.448 222,7094 L222,7095 Z M218,7096 C218,7096.553 217.552,7097 217,7097 L213,7097 C212.447,7097 212,7096.553 212,7096 L212,7092 C212,7091.448 212.447,7091 213,7091 L217,7091 C217.552,7091 218,7091.448 218,7092 L218,7096 Z M210,7095 L206,7095 L206,7094 C206,7093.448 206.447,7093 207,7093 L210,7093 L210,7095 Z M220,7091 C220,7089.896 219.104,7089 218,7089 L212,7089 C210.895,7089 210,7089.896 210,7091 L206,7091 C204.895,7091 204,7091.896 204,7093 L204,7098 C204,7098.553 204.447,7099 205,7099 C205.552,7099 206,7098.553 206,7098 L206,7097 L210,7097 C210,7098.105 210.895,7099 212,7099 L218,7099 C219.104,7099 220,7098.105 220,7097 L222,7097 L222,7098 C222,7098.553 222.447,7099 223,7099 C223.552,7099 224,7098.553 224,7098 L224,7093 C224,7091.896 223.104,7091 222,7091 L220,7091 Z" id="projector-[#208]"></path>
            </g>
        </g>
    </g>
</svg>