<?xml version="1.0" encoding="UTF-8" standalone="no"?>
<svg width="17px" height="20px" viewBox="0 0 17 20" version="1.1" xmlns="http://www.w3.org/2000/svg" xmlns:xlink="http://www.w3.org/1999/xlink">
    <!-- Generator: Sketch 3.8.1 (29687) - http://www.bohemiancoding.com/sketch -->
    <title>quora [#172]</title>
    <desc>Created with Sketch.</desc>
    <defs></defs>
    <g id="Page-1" stroke="none" stroke-width="1" fill="none" fill-rule="evenodd">
        <g id="Dribbble-Dark-Preview" transform="translate(-141.000000, -7439.000000)" fill="#FFFFFF">
            <g id="icons" transform="translate(56.000000, 160.000000)">
                <path d="M94.6307159,7294.53993 C94.2430139,7294.63693 93.8504042,7294.67493 93.4715358,7294.67493 C91.455485,7294.67493 89.0409353,7293.78793 89.0409353,7288.25196 C89.0409353,7282.71798 91.5693418,7281.18899 93.5853926,7281.18899 C95.6014434,7281.18899 97.9453233,7282.50598 97.9453233,7288.04196 C97.9453233,7290.55095 97.4437644,7292.14594 96.7076212,7293.14293 C96.695843,7293.14393 96.6870092,7293.14093 96.6870092,7293.14093 C95.0105658,7290.93694 92.8355081,7291.46494 92.3143187,7291.70494 C92.3143187,7291.70494 92.3800808,7292.20994 92.5184758,7293.12893 C93.6688222,7293.12793 94.2390878,7293.73593 94.6366051,7294.52093 C94.632679,7294.52993 94.6307159,7294.53993 94.6307159,7294.53993 M97.9090069,7295.59792 C97.9090069,7295.59792 97.91097,7295.59192 97.912933,7295.58492 C100.362818,7294.03693 102,7291.21394 102,7287.83196 C102,7281.31499 97.8579677,7279 93.5274827,7279 C89.4413972,7279 85,7282.27098 85,7287.95696 C85,7294.47393 89.1420323,7296.86392 93.4734988,7296.86392 C94.1546767,7296.86392 94.816224,7296.78092 95.4512702,7296.62592 C95.4512702,7296.62592 95.4610855,7296.62992 95.4669746,7296.63092 C97.1738453,7299.7369 99.7159931,7298.98591 100.371651,7298.74091 C100.371651,7298.74091 100.283314,7298.19391 100.129215,7297.17592 C98.903291,7297.14392 98.356582,7296.51692 97.9090069,7295.59792" id="quora-[#172]"></path>
            </g>
        </g>
    </g>
</svg>