<?xml version="1.0" encoding="UTF-8" standalone="no"?>
<svg width="20px" height="19px" viewBox="0 0 20 19" version="1.1" xmlns="http://www.w3.org/2000/svg" xmlns:xlink="http://www.w3.org/1999/xlink">
    <!-- Generator: Sketch 3.8.1 (29687) - http://www.bohemiancoding.com/sketch -->
    <title>radio_tower [#1108]</title>
    <desc>Created with Sketch.</desc>
    <defs></defs>
    <g id="Page-1" stroke="none" stroke-width="1" fill="none" fill-rule="evenodd">
        <g id="Dribbble-Dark-Preview" transform="translate(-60.000000, -3320.000000)" fill="#FFFFFF">
            <g id="icons" transform="translate(56.000000, 160.000000)">
                <path d="M14.0000871,3171.007 L13.9940871,3171 L8.00008712,3177.4 L9.49808712,3179 L14.0000871,3174.194 L18.5020871,3179 L20.0000871,3177.4 L14.0060871,3171 L14.0000871,3171.007 Z M12.6360871,3168.586 C13.4170871,3169.367 14.7560871,3169.294 15.4640871,3168.587 C16.1290871,3167.921 16.2530871,3166.543 15.3670871,3165.657 L15.3640871,3165.66 C14.5830871,3164.879 13.2430871,3164.952 12.5360871,3165.659 C11.8710871,3166.325 11.7470871,3167.703 12.6330871,3168.589 L12.6360871,3168.586 Z M9.80508712,3171.417 L11.2190871,3170.003 C9.80508712,3168.589 9.70608712,3165.657 11.1200871,3164.243 L9.70608712,3162.829 C7.58408712,3164.95 7.68308712,3169.296 9.80508712,3171.417 L9.80508712,3171.417 Z M8.29108712,3161.415 L6.87708712,3160 C2.63408712,3164.243 3.44108712,3170.71 6.97608712,3174.246 L8.39008712,3172.832 C5.56208712,3170.003 5.46308712,3164.243 8.29108712,3161.415 L8.29108712,3161.415 Z M16.8800871,3170.003 L18.2940871,3171.417 C20.4160871,3169.296 20.3170871,3164.95 18.1950871,3162.829 L16.7810871,3164.243 C18.1950871,3165.657 18.2940871,3168.589 16.8800871,3170.003 L16.8800871,3170.003 Z M21.1230871,3174.246 L19.7090871,3172.832 C22.5370871,3170.003 22.4380871,3164.243 19.6100871,3161.415 L21.0240871,3160 C24.5590871,3163.536 25.3650871,3170.003 21.1230871,3174.246 L21.1230871,3174.246 Z" id="radio_tower-[#1108]"></path>
            </g>
        </g>
    </g>
</svg>