<?xml version="1.0" encoding="UTF-8" standalone="no"?>
<svg width="20px" height="17px" viewBox="0 0 20 17" version="1.1" xmlns="http://www.w3.org/2000/svg" xmlns:xlink="http://www.w3.org/1999/xlink">
    <!-- Generator: Sketch 3.8.1 (29687) - http://www.bohemiancoding.com/sketch -->
    <title>radio_tower [#1019]</title>
    <desc>Created with Sketch.</desc>
    <defs></defs>
    <g id="Page-1" stroke="none" stroke-width="1" fill="none" fill-rule="evenodd">
        <g id="Dribbble-Dark-Preview" transform="translate(-420.000000, -3641.000000)" fill="#FFFFFF">
            <g id="icons" transform="translate(56.000000, 160.000000)">
                <path d="M378.195439,3483.828 L376.781439,3485.242 C378.195439,3486.656 378.294439,3489.588 376.880439,3491.002 L378.294439,3492.417 C380.415439,3490.295 380.316439,3485.949 378.195439,3483.828 M381.023439,3481 L379.609439,3482.414 C382.438439,3485.242 382.537439,3491.002 379.708439,3493.831 L381.122439,3495.245 C385.365439,3491.002 384.559439,3484.535 381.023439,3481 M375.432439,3486.737 C375.409439,3486.711 375.392439,3486.682 375.367439,3486.656 L375.363439,3486.66 C374.582439,3485.879 373.243439,3485.952 372.536439,3486.659 C371.829439,3487.366 371.831439,3488.778 372.538439,3489.485 C372.547439,3489.494 372.558439,3489.499 372.567439,3489.508 C372.590439,3489.534 372.607439,3489.563 372.632439,3489.588 L372.636439,3489.585 C373.201439,3490.15 373.000439,3488.284 373.000439,3498 L375.000439,3498 C375.000439,3488.058 374.753439,3490.296 375.463439,3489.586 C376.170439,3488.879 376.168439,3487.467 375.461439,3486.76 C375.452439,3486.751 375.441439,3486.746 375.432439,3486.737 M371.119439,3485.242 L369.705439,3483.828 C367.584439,3485.949 367.683439,3490.295 369.804439,3492.417 L371.218439,3491.002 C369.804439,3489.588 369.705439,3486.656 371.119439,3485.242 M368.390439,3493.831 L366.976439,3495.245 C363.440439,3491.709 362.634439,3485.242 366.877439,3481 L368.291439,3482.414 C365.462439,3485.242 365.561439,3491.002 368.390439,3493.831" id="radio_tower-[#1019]"></path>
            </g>
        </g>
    </g>
</svg>