<?xml version="1.0" encoding="UTF-8" standalone="no"?>
<svg width="22px" height="22px" viewBox="0 0 22 22" version="1.1" xmlns="http://www.w3.org/2000/svg" xmlns:xlink="http://www.w3.org/1999/xlink">
    <!-- Generator: Sketch 3.8.1 (29687) - http://www.bohemiancoding.com/sketch -->
    <title>record_focus [#958]</title>
    <desc>Created with Sketch.</desc>
    <defs></defs>
    <g id="Page-1" stroke="none" stroke-width="1" fill="none" fill-rule="evenodd">
        <g id="Dribbble-Dark-Preview" transform="translate(-140.000000, -3959.000000)" fill="#FFFFFF">
            <g id="icons" transform="translate(56.000000, 160.000000)">
                <path d="M94,3805.5 C91.791,3805.5 90,3807.291 90,3809.5 C90,3811.709 91.791,3813.5 94,3813.5 C96.209,3813.5 98,3811.709 98,3809.5 C98,3807.291 96.209,3805.5 94,3805.5 L94,3805.5 Z M102,3813 L104,3813 L104,3805 L102,3805 L102,3813 Z M104,3817 L104,3815 L102,3815 L102,3817 L100,3817 L100,3819 L102,3819 L102,3821 L104,3821 L104,3819 L106,3819 L106,3817 L104,3817 Z M102,3803 L104,3803 L104,3799 L100,3799 L100,3801 L102,3801 L102,3803 Z M84,3813 L86,3813 L86,3805 L84,3805 L84,3813 Z M86,3815 L84,3815 L84,3819 L88,3819 L88,3817 L86,3817 L86,3815 Z M84,3803 L86,3803 L86,3801 L88,3801 L88,3799 L84,3799 L84,3803 Z M90,3819 L98,3819 L98,3817 L90,3817 L90,3819 Z M90,3801 L98,3801 L98,3799 L90,3799 L90,3801 Z" id="record_focus-[#958]"></path>
            </g>
        </g>
    </g>
</svg>