<?xml version="1.0" encoding="UTF-8" standalone="no"?>
<svg width="20px" height="20px" viewBox="0 0 20 20" version="1.1" xmlns="http://www.w3.org/2000/svg" xmlns:xlink="http://www.w3.org/1999/xlink">
    <!-- Generator: Sketch 3.8.1 (29687) - http://www.bohemiancoding.com/sketch -->
    <title>record [#978]</title>
    <desc>Created with Sketch.</desc>
    <defs></defs>
    <g id="Page-1" stroke="none" stroke-width="1" fill="none" fill-rule="evenodd">
        <g id="Dribbble-Dark-Preview" transform="translate(-140.000000, -3879.000000)" fill="#FFFFFF">
            <g id="icons" transform="translate(56.000000, 160.000000)">
                <path d="M102,3733 L104,3733 L104,3725 L102,3725 L102,3733 Z M102,3737 L100,3737 L100,3739 L104,3739 L104,3735 L102,3735 L102,3737 Z M100,3719 L100,3721 L102,3721 L102,3723 L104,3723 L104,3719 L100,3719 Z M84,3733 L86,3733 L86,3725 L84,3725 L84,3733 Z M86,3735 L84,3735 L84,3739 L88,3739 L88,3737 L86,3737 L86,3735 Z M84,3719 L84,3723 L86,3723 L86,3721 L88,3721 L88,3719 L84,3719 Z M90,3739 L98,3739 L98,3737 L90,3737 L90,3739 Z M94,3725 C91.791,3725 90,3726.791 90,3729 C90,3731.209 91.791,3733 94,3733 C96.209,3733 98,3731.209 98,3729 C98,3726.791 96.209,3725 94,3725 L94,3725 Z M90,3721 L98,3721 L98,3719 L90,3719 L90,3721 Z" id="record-[#978]"></path>
            </g>
        </g>
    </g>
</svg>