<?xml version="1.0" encoding="UTF-8" standalone="no"?>
<svg width="22px" height="22px" viewBox="0 0 22 22" version="1.1" xmlns="http://www.w3.org/2000/svg" xmlns:xlink="http://www.w3.org/1999/xlink">
    <!-- Generator: Sketch 3.8.1 (29687) - http://www.bohemiancoding.com/sketch -->
    <title>record_plus_focus [#948]</title>
    <desc>Created with Sketch.</desc>
    <defs></defs>
    <g id="Page-1" stroke="none" stroke-width="1" fill="none" fill-rule="evenodd">
        <g id="Dribbble-Dark-Preview" transform="translate(-140.000000, -3999.000000)" fill="#FFFFFF">
            <g id="icons" transform="translate(56.000000, 160.000000)">
                <path d="M94,3845.5 C91.791,3845.5 90,3847.291 90,3849.5 C90,3851.709 91.791,3853.5 94,3853.5 C96.209,3853.5 98,3851.709 98,3849.5 C98,3847.291 96.209,3845.5 94,3845.5 L94,3845.5 Z M102,3853 L104,3853 L104,3845 L102,3845 L102,3853 Z M104,3857 L104,3856 C104,3855.448 103.552,3855 103,3855 C102.448,3855 102,3855.448 102,3856 L102,3857 L101,3857 C100.448,3857 100,3857.448 100,3858 C100,3858.552 100.448,3859 101,3859 L102,3859 L102,3860 C102,3860.552 102.448,3861 103,3861 C103.552,3861 104,3860.552 104,3860 L104,3859 L105,3859 C105.552,3859 106,3858.552 106,3858 C106,3857.448 105.552,3857 105,3857 L104,3857 Z M102,3843 L104,3843 L104,3841 C104,3839.895 103.105,3839 102,3839 L100,3839 L100,3841 L101,3841 C101.552,3841 102,3841.448 102,3842 L102,3843 Z M84,3853 L86,3853 L86,3845 L84,3845 L84,3853 Z M86,3855 L84,3855 L84,3857 C84,3858.105 84.895,3859 86,3859 L88,3859 L88,3857 L87,3857 C86.448,3857 86,3856.552 86,3856 L86,3855 Z M84,3843 L86,3843 L86,3842 C86,3841.448 86.448,3841 87,3841 L88,3841 L88,3839 L86,3839 C84.895,3839 84,3839.895 84,3841 L84,3843 Z M90,3859 L98,3859 L98,3857 L90,3857 L90,3859 Z M90,3841 L98,3841 L98,3839 L90,3839 L90,3841 Z" id="record_plus_focus-[#948]"></path>
            </g>
        </g>
    </g>
</svg>