<?xml version="1.0" encoding="UTF-8" standalone="no"?>
<svg width="20px" height="20px" viewBox="0 0 20 20" version="1.1" xmlns="http://www.w3.org/2000/svg" xmlns:xlink="http://www.w3.org/1999/xlink">
    <!-- Generator: Sketch 3.8.1 (29687) - http://www.bohemiancoding.com/sketch -->
    <title>record [#979]</title>
    <desc>Created with Sketch.</desc>
    <defs></defs>
    <g id="Page-1" stroke="none" stroke-width="1" fill="none" fill-rule="evenodd">
        <g id="Dribbble-Dark-Preview" transform="translate(-100.000000, -3879.000000)" fill="#FFFFFF">
            <g id="icons" transform="translate(56.000000, 160.000000)">
                <path d="M56,3719 L56,3721 L62,3721 L62,3727 L64,3727 L64,3719 L56,3719 Z M58,3729.151 C58,3726.942 56.209,3725.151 54,3725.151 C51.791,3725.151 50,3726.942 50,3729.151 C50,3731.36 51.791,3733.151 54,3733.151 C56.209,3733.151 58,3731.36 58,3729.151 L58,3729.151 Z M62,3737 L56,3737 L56,3739 L64,3739 L64,3731 L62,3731 L62,3737 Z M46,3731 L44,3731 L44,3739 L52,3739 L52,3737 L46,3737 L46,3731 Z M46,3727 L44,3727 L44,3719 L52,3719 L52,3721 L46,3721 L46,3727 Z" id="record-[#979]"></path>
            </g>
        </g>
    </g>
</svg>