<?xml version="1.0" encoding="UTF-8" standalone="no"?>
<svg width="20px" height="17px" viewBox="0 0 20 17" version="1.1" xmlns="http://www.w3.org/2000/svg" xmlns:xlink="http://www.w3.org/1999/xlink">
    <!-- Generator: Sketch 3.8.1 (29687) - http://www.bohemiancoding.com/sketch -->
    <title>reddit [#143]</title>
    <desc>Created with Sketch.</desc>
    <defs></defs>
    <g id="Page-1" stroke="none" stroke-width="1" fill="none" fill-rule="evenodd">
        <g id="Dribbble-Dark-Preview" transform="translate(-100.000000, -7561.000000)" fill="#FFFFFF">
            <g id="icons" transform="translate(56.000000, 160.000000)">
                <path d="M57.029,7412.24746 C56.267,7412.24746 55.628,7411.6217 55.628,7410.8499 C55.628,7410.07708 56.267,7409.43103 57.029,7409.43103 C57.79,7409.43103 58.407,7410.07708 58.407,7410.8499 C58.407,7411.6217 57.791,7412.24746 57.029,7412.24746 M57.223,7414.82961 C56.55,7415.51116 55.495,7415.8428 53.999,7415.8428 C52.502,7415.8428 51.448,7415.51116 50.776,7414.82961 C50.63,7414.68154 50.63,7414.44219 50.776,7414.2931 C50.921,7414.14503 51.158,7414.14503 51.304,7414.2931 C51.829,7414.82556 52.71,7415.08519 53.999,7415.08519 C55.287,7415.08519 56.169,7414.82556 56.695,7414.2931 C56.84,7414.14503 57.077,7414.14503 57.223,7414.2931 C57.369,7414.44219 57.369,7414.68154 57.223,7414.82961 M49.592,7410.8499 C49.592,7410.07809 50.23,7409.43103 50.991,7409.43103 C51.752,7409.43103 52.369,7410.07809 52.369,7410.8499 C52.369,7411.6217 51.752,7412.24746 50.991,7412.24746 C50.23,7412.24746 49.592,7411.6217 49.592,7410.8499 M64,7409.31339 C64,7408.04665 62.984,7407.01623 61.735,7407.01623 C61.159,7407.01623 60.616,7407.23428 60.2,7407.62475 C58.705,7406.63793 56.703,7406 54.486,7405.91278 L55.709,7402.12677 L58.921,7402.89351 C58.922,7403.93611 59.758,7404.78296 60.786,7404.78296 C61.814,7404.78296 62.651,7403.93408 62.651,7402.89148 C62.651,7401.84888 61.814,7401 60.786,7401 C60.016,7401 59.355,7401.47465 59.07,7402.15112 C58.378,7401.9858 55.904,7401.39452 55.212,7401.22921 L53.702,7405.90467 C51.401,7405.94828 49.316,7406.58316 47.765,7407.59331 C47.354,7407.22312 46.822,7407.01623 46.264,7407.01623 C45.016,7407.01623 44,7408.04665 44,7409.31339 C44,7410.11765 44.414,7410.85497 45.076,7411.26876 C44.473,7414.88134 48.67,7418 53.958,7418 C59.224,7418 63.407,7414.90872 62.849,7411.3144 C63.557,7410.91176 64,7410.1572 64,7409.31339" id="reddit-[#143]"></path>
            </g>
        </g>
    </g>
</svg>