<?xml version="1.0" encoding="UTF-8" standalone="no"?>
<svg width="12px" height="20px" viewBox="0 0 12 20" version="1.1" xmlns="http://www.w3.org/2000/svg" xmlns:xlink="http://www.w3.org/1999/xlink">
    <!-- Generator: Sketch 3.8.1 (29687) - http://www.bohemiancoding.com/sketch -->
    <title>refrigerator [#693]</title>
    <desc>Created with Sketch.</desc>
    <defs></defs>
    <g id="Page-1" stroke="none" stroke-width="1" fill="none" fill-rule="evenodd">
        <g id="Dribbble-Dark-Preview" transform="translate(-264.000000, -5119.000000)" fill="#FFFFFF">
            <g id="icons" transform="translate(56.000000, 160.000000)">
                <path d="M211,4964 L213,4964 L213,4962 L211,4962 L211,4964 Z M211,4970 L213,4970 L213,4968 L211,4968 L211,4970 Z M210,4965 L218,4965 L218,4961 L210,4961 L210,4965 Z M210,4975 L218,4975 L218,4967 L210,4967 L210,4975 Z M208,4959 L208,4965 L208,4967 L208,4977 L210,4977 L210,4979 L212,4979 L212,4977 L216,4977 L216,4979 L218,4979 L218,4977 L220,4977 L220,4967 L220,4965 L220,4959 L208,4959 Z" id="refrigerator-[#693]"></path>
            </g>
        </g>
    </g>
</svg>