<?xml version="1.0" encoding="UTF-8" standalone="no"?>
<svg width="12px" height="20px" viewBox="0 0 12 20" version="1.1" xmlns="http://www.w3.org/2000/svg" xmlns:xlink="http://www.w3.org/1999/xlink">
    <!-- Generator: Sketch 3.8.1 (29687) - http://www.bohemiancoding.com/sketch -->
    <title>refrigerator_round [#695]</title>
    <desc>Created with Sketch.</desc>
    <defs></defs>
    <g id="Page-1" stroke="none" stroke-width="1" fill="none" fill-rule="evenodd">
        <g id="Dribbble-Dark-Preview" transform="translate(-184.000000, -5119.000000)" fill="#FFFFFF">
            <g id="icons" transform="translate(56.000000, 160.000000)">
                <path d="M133,4963 L133,4963 C133,4963.552 132.552,4964 132,4964 C131.448,4964 131,4963.552 131,4963 C131,4962.448 131.448,4962 132,4962 C132.552,4962 133,4962.448 133,4963 L133,4963 Z M133,4969 L133,4969 C133,4969.552 132.552,4970 132,4970 C131.448,4970 131,4969.552 131,4969 C131,4968.448 131.448,4968 132,4968 C132.552,4968 133,4968.448 133,4969 L133,4969 Z M130,4965 L130,4962 C130,4961.448 130.448,4961 131,4961 L137,4961 C137.552,4961 138,4961.448 138,4962 L138,4965 L130,4965 Z M137,4975 L131,4975 C130.448,4975 130,4974.552 130,4974 L130,4967 L138,4967 L138,4974 C138,4974.552 137.552,4975 137,4975 L137,4975 Z M130,4959 C128.895,4959 128,4959.895 128,4961 L128,4965 L128,4967 L128,4975 C128,4976.105 128.895,4977 130,4977 L130,4978 C130,4978.552 130.448,4979 131,4979 C131.552,4979 132,4978.552 132,4978 L132,4977 L136,4977 L136,4978 C136,4978.552 136.448,4979 137,4979 C137.552,4979 138,4978.552 138,4978 L138,4977 C139.105,4977 140,4976.105 140,4975 L140,4967 L140,4965 L140,4961 C140,4959.895 139.105,4959 138,4959 L130,4959 Z" id="refrigerator_round-[#695]"></path>
            </g>
        </g>
    </g>
</svg>