<?xml version="1.0" encoding="UTF-8" standalone="no"?>
<svg width="12px" height="20px" viewBox="0 0 12 20" version="1.1" xmlns="http://www.w3.org/2000/svg" xmlns:xlink="http://www.w3.org/1999/xlink">
    <!-- Generator: Sketch 3.8.1 (29687) - http://www.bohemiancoding.com/sketch -->
    <title>refrigerator [#692]</title>
    <desc>Created with Sketch.</desc>
    <defs></defs>
    <g id="Page-1" stroke="none" stroke-width="1" fill="none" fill-rule="evenodd">
        <g id="Dribbble-Dark-Preview" transform="translate(-304.000000, -5119.000000)" fill="#FFFFFF">
            <g id="icons" transform="translate(56.000000, 160.000000)">
                <path d="M251,4970 L253,4970 L253,4968 L251,4968 L251,4970 Z M250,4965 L258,4965 L258,4961 L250,4961 L250,4965 Z M250,4975 L258,4975 L258,4967 L250,4967 L250,4975 Z M248,4959 L248,4965 L248,4967 L248,4977 L250,4977 L250,4979 L252,4979 L252,4977 L256,4977 L256,4979 L258,4979 L258,4977 L260,4977 L260,4967 L260,4965 L260,4959 L248,4959 Z" id="refrigerator-[#692]"></path>
            </g>
        </g>
    </g>
</svg>