<?xml version="1.0" encoding="UTF-8" standalone="no"?>
<svg width="12px" height="20px" viewBox="0 0 12 20" version="1.1" xmlns="http://www.w3.org/2000/svg" xmlns:xlink="http://www.w3.org/1999/xlink">
    <!-- Generator: Sketch 3.8.1 (29687) - http://www.bohemiancoding.com/sketch -->
    <title>refrigerator_round [#694]</title>
    <desc>Created with Sketch.</desc>
    <defs></defs>
    <g id="Page-1" stroke="none" stroke-width="1" fill="none" fill-rule="evenodd">
        <g id="Dribbble-Dark-Preview" transform="translate(-224.000000, -5119.000000)" fill="#FFFFFF">
            <g id="icons" transform="translate(56.000000, 160.000000)">
                <path d="M173,4969 L173,4969 C173,4969.552 172.552,4970 172,4970 C171.448,4970 171,4969.552 171,4969 C171,4968.448 171.448,4968 172,4968 C172.552,4968 173,4968.448 173,4969 L173,4969 Z M170,4965 L170,4962 C170,4961.448 170.448,4961 171,4961 L177,4961 C177.552,4961 178,4961.448 178,4962 L178,4965 L170,4965 Z M177,4975 L171,4975 C170.448,4975 170,4974.552 170,4974 L170,4967 L178,4967 L178,4974 C178,4974.552 177.552,4975 177,4975 L177,4975 Z M170,4959 C168.895,4959 168,4959.895 168,4961 L168,4965 L168,4967 L168,4975 C168,4976.105 168.895,4977 170,4977 L170,4978 C170,4978.552 170.448,4979 171,4979 C171.552,4979 172,4978.552 172,4978 L172,4977 L176,4977 L176,4978 C176,4978.552 176.448,4979 177,4979 C177.552,4979 178,4978.552 178,4978 L178,4977 C179.105,4977 180,4976.105 180,4975 L180,4967 L180,4965 L180,4961 C180,4959.895 179.105,4959 178,4959 L170,4959 Z" id="refrigerator_round-[#694]"></path>
            </g>
        </g>
    </g>
</svg>