<?xml version="1.0" encoding="UTF-8" standalone="no"?>
<svg width="20px" height="20px" viewBox="0 0 20 20" version="1.1" xmlns="http://www.w3.org/2000/svg" xmlns:xlink="http://www.w3.org/1999/xlink">
    <!-- Generator: Sketch 3.8.1 (29687) - http://www.bohemiancoding.com/sketch -->
    <title>remote [#221]</title>
    <desc>Created with Sketch.</desc>
    <defs></defs>
    <g id="Page-1" stroke="none" stroke-width="1" fill="none" fill-rule="evenodd">
        <g id="Dribbble-Dark-Preview" transform="translate(-140.000000, -7199.000000)" fill="#FFFFFF">
            <g id="icons" transform="translate(56.000000, 160.000000)">
                <path d="M101.285351,7043.13386 L99.8669896,7041.71555 C99.4747836,7041.32336 98.8398311,7041.32336 98.4486281,7041.71555 L95.348094,7044.81496 L98.18582,7047.65158 L101.285351,7044.55217 C101.677557,7044.16098 101.677557,7043.52605 101.285351,7043.13386 L101.285351,7043.13386 Z M96.7674586,7049.07089 L93.9297325,7046.23327 L86.7155489,7053.44819 C86.3233429,7053.83938 86.3233429,7054.4743 86.7155489,7054.8665 L88.1339104,7056.2848 C88.5261164,7056.67699 89.1610689,7056.67699 89.5522719,7056.2848 L96.7674586,7049.07089 Z M103.412893,7045.26132 L90.2614526,7058.41227 C89.4780436,7059.19564 88.2081386,7059.19564 87.4247297,7058.41227 L84.5880067,7055.57565 C83.8045978,7054.79227 83.8045978,7053.52241 84.5880067,7052.73803 L97.7384443,7039.58809 C98.5218533,7038.8037 99.7927614,7038.8037 100.57617,7039.58809 L103.412893,7042.4247 C104.196302,7043.20808 104.196302,7044.47794 103.412893,7045.26132 L103.412893,7045.26132 Z M92.5113711,7049.07089 L92.5113711,7049.07089 C92.1201681,7049.46208 92.1201681,7050.09701 92.5113711,7050.4892 C92.9035771,7050.88039 93.5385296,7050.88039 93.9297325,7050.4892 C94.3219386,7050.09701 94.3219386,7049.46208 93.9297325,7049.07089 L93.9297325,7049.07089 C93.5385296,7048.6787 92.9035771,7048.6787 92.5113711,7049.07089 L92.5113711,7049.07089 Z M91.0930096,7051.90751 C91.4842126,7052.2997 91.4842126,7052.93463 91.0930096,7053.32582 C90.7008036,7053.71801 90.0658511,7053.71801 89.6746482,7053.32582 C89.2824421,7052.93463 89.2824421,7052.2997 89.6746482,7051.90751 L89.6746482,7051.90751 C90.0658511,7051.51632 90.7008036,7051.51632 91.0930096,7051.90751 L91.0930096,7051.90751 Z" id="remote-[#221]"></path>
            </g>
        </g>
    </g>
</svg>