<?xml version="1.0" encoding="UTF-8" standalone="no"?>
<svg width="21px" height="20px" viewBox="0 0 21 20" version="1.1" xmlns="http://www.w3.org/2000/svg" xmlns:xlink="http://www.w3.org/1999/xlink">
    <!-- Generator: Sketch 3.8.1 (29687) - http://www.bohemiancoding.com/sketch -->
    <title>report_flag [#1419]</title>
    <desc>Created with Sketch.</desc>
    <defs></defs>
    <g id="Page-1" stroke="none" stroke-width="1" fill="none" fill-rule="evenodd">
        <g id="Dribbble-Dark-Preview" transform="translate(-99.000000, -640.000000)" fill="#FFFFFF">
            <g id="icons" transform="translate(56.000000, 160.000000)">
                <path d="M61.9,483 C61.9,482.448 61.4296,482 60.85,482 L49.3,482 L49.3,490 L60.85,490 C61.4296,490 61.9,489.552 61.9,489 L61.9,483 Z M64,482 L64,490 C64,491.105 63.06025,492 61.9,492 L47.2,492 L47.2,480 L61.9,480 C63.06025,480 64,480.895 64,482 L64,482 Z M44.05,480 L45.1,480 L45.1,499 C45.1,499.552 44.6296,500 44.05,500 C43.4704,500 43,499.552 43,499 L43,481 C43,480.448 43.4704,480 44.05,480 L44.05,480 Z" id="report_flag-[#1419]"></path>
            </g>
        </g>
    </g>
</svg>