<?xml version="1.0" encoding="UTF-8" standalone="no"?>
<svg width="21px" height="20px" viewBox="0 0 21 20" version="1.1" xmlns="http://www.w3.org/2000/svg" xmlns:xlink="http://www.w3.org/1999/xlink">
    <!-- Generator: Sketch 3.8.1 (29687) - http://www.bohemiancoding.com/sketch -->
    <title>report_flag [#1418]</title>
    <desc>Created with Sketch.</desc>
    <defs></defs>
    <g id="Page-1" stroke="none" stroke-width="1" fill="none" fill-rule="evenodd">
        <g id="Dribbble-Dark-Preview" transform="translate(-139.000000, -640.000000)" fill="#FFFFFF">
            <g id="icons" transform="translate(56.000000, 160.000000)">
                <path d="M101.9,489 C101.9,489.552 101.4296,490 100.85,490 L85.1,490 L85.1,483 C85.1,482.448 85.5704,482 86.15,482 L100.85,482 C101.4296,482 101.9,482.448 101.9,483 L101.9,489 Z M101.9,480 L85.1,480 C83.93975,480 83,480.895 83,482 L83,499 C83,499.552 83.4704,500 84.05,500 C84.6296,500 85.1,499.552 85.1,499 L85.1,492 L101.9,492 C103.06025,492 104,491.105 104,490 L104,482 C104,480.895 103.06025,480 101.9,480 L101.9,480 Z" id="report_flag-[#1418]"></path>
            </g>
        </g>
    </g>
</svg>