<?xml version="1.0" encoding="UTF-8" standalone="no"?>
<svg width="21px" height="20px" viewBox="0 0 21 20" version="1.1" xmlns="http://www.w3.org/2000/svg" xmlns:xlink="http://www.w3.org/1999/xlink">
    <!-- Generator: Sketch 3.8.1 (29687) - http://www.bohemiancoding.com/sketch -->
    <title>report_flag [#1421]</title>
    <desc>Created with Sketch.</desc>
    <defs></defs>
    <g id="Page-1" stroke="none" stroke-width="1" fill="none" fill-rule="evenodd">
        <g id="Dribbble-Dark-Preview" transform="translate(-419.000000, -600.000000)" fill="#FFFFFF">
            <g id="icons" transform="translate(56.000000, 160.000000)">
                <path d="M381.9,440 L369.3,440 C368.13975,440 367.2,440.895 367.2,442 L367.2,450 C367.2,451.105 368.13975,452 369.3,452 L381.9,452 C383.06025,452 384,451.105 384,450 L384,442 C384,440.895 383.06025,440 381.9,440 M365.1,441 L365.1,459 C365.1,459.552 364.6296,460 364.05,460 C363.4704,460 363,459.552 363,459 L363,441 C363,440.448 363.4704,440 364.05,440 C364.6296,440 365.1,440.448 365.1,441" id="report_flag-[#1421]"></path>
            </g>
        </g>
    </g>
</svg>