<?xml version="1.0" encoding="UTF-8" standalone="no"?>
<svg width="18px" height="18px" viewBox="0 0 18 18" version="1.1" xmlns="http://www.w3.org/2000/svg" xmlns:xlink="http://www.w3.org/1999/xlink">
    <!-- Generator: Sketch 3.8.1 (29687) - http://www.bohemiancoding.com/sketch -->
    <title>resize [#903]</title>
    <desc>Created with Sketch.</desc>
    <defs></defs>
    <g id="Page-1" stroke="none" stroke-width="1" fill="none" fill-rule="evenodd">
        <g id="Dribbble-Dark-Preview" transform="translate(-340.000000, -4201.000000)" fill="#FFFFFF">
            <g id="icons" transform="translate(56.000000, 160.000000)">
                <path d="M294,4049 L300,4049 L300,4043 L294,4043 L294,4049 Z M298,4057 L293.31,4057 L286,4057 L286,4049.886 L286,4045 L292,4045 L292,4051 L298,4051 L298,4057 Z M292,4041 L292,4042.886 L292,4043 L284,4043 L284,4049.886 L284,4059 L293.31,4059 L300,4059 L300,4051 L300.31,4051 L302,4051 L302,4041 L292,4041 Z" id="resize-[#903]"></path>
            </g>
        </g>
    </g>
</svg>