<?xml version="1.0" encoding="UTF-8" standalone="no"?>
<svg width="20px" height="20px" viewBox="0 0 20 20" version="1.1" xmlns="http://www.w3.org/2000/svg" xmlns:xlink="http://www.w3.org/1999/xlink">
    <!-- Generator: Sketch 3.8.1 (29687) - http://www.bohemiancoding.com/sketch -->
    <title>rings [#909]</title>
    <desc>Created with Sketch.</desc>
    <defs></defs>
    <g id="Page-1" stroke="none" stroke-width="1" fill="none" fill-rule="evenodd">
        <g id="Dribbble-Dark-Preview" transform="translate(-100.000000, -4199.000000)" fill="#FFFFFF">
            <g id="icons" transform="translate(56.000000, 160.000000)">
                <path d="M46,4046.5 C46,4043.467 48.467,4041 51.5,4041 C53.634,4041 55.484,4042.225 56.396,4044.006 C55.862,4044.013 55.341,4044.077 54.84,4044.191 C52.032,4044.826 49.826,4047.032 49.191,4049.84 C49.74,4050.221 50.392,4050.454 51.092,4050.525 C51.497,4048.274 53.274,4046.497 55.525,4046.092 C55.842,4046.035 56.167,4046 56.5,4046 C56.662,4046 56.819,4046.02 56.977,4046.036 C56.989,4046.189 57,4046.343 57,4046.5 C57,4049.533 54.533,4052 51.5,4052 C48.467,4052 46,4049.533 46,4046.5 M60.379,4045.09 C60.451,4045.55 60.5,4046.019 60.5,4046.5 C60.5,4046.89 60.467,4047.271 60.419,4047.647 C61.395,4048.641 62,4050 62,4051.5 C62,4054.533 59.533,4057 56.5,4057 C55,4057 53.641,4056.395 52.647,4055.419 C52.228,4055.007 51.884,4054.522 51.613,4053.994 C55.703,4053.933 59,4050.604 59,4046.5 C59,4042.358 55.642,4039 51.5,4039 C47.358,4039 44,4042.358 44,4046.5 C44,4049.891 46.252,4052.754 49.341,4053.681 C49.523,4054.281 49.771,4054.853 50.09,4055.379 C51.405,4057.547 53.779,4059 56.5,4059 C60.642,4059 64,4055.642 64,4051.5 C64,4048.779 62.547,4046.405 60.379,4045.09" id="rings-[#909]"></path>
            </g>
        </g>
    </g>
</svg>