<?xml version="1.0" encoding="UTF-8" standalone="no"?>
<svg width="20px" height="20px" viewBox="0 0 20 20" version="1.1" xmlns="http://www.w3.org/2000/svg" xmlns:xlink="http://www.w3.org/1999/xlink">
    <!-- Generator: Sketch 3.8.1 (29687) - http://www.bohemiancoding.com/sketch -->
    <title>rings [#94]</title>
    <desc>Created with Sketch.</desc>
    <defs></defs>
    <g id="Page-1" stroke="none" stroke-width="1" fill="none" fill-rule="evenodd">
        <g id="Dribbble-Dark-Preview" transform="translate(-220.000000, -7799.000000)" fill="#FFFFFF">
            <g id="icons" transform="translate(56.000000, 160.000000)">
                <path d="M180.001,7657 C178.898,7657 178.001,7656.103 178.001,7655 C178.001,7653.897 178.898,7653 180.001,7653 C181.104,7653 182.001,7653.897 182.001,7655 C182.001,7656.103 181.104,7657 180.001,7657 M181,7651.141 L181,7639 L179,7639 L179,7651.141 C177,7651.587 176.001,7653.138 176.001,7655 C176.001,7657.209 177.792,7659 180.001,7659 C182.21,7659 184,7657.209 184,7655 C184,7653.138 183,7651.587 181,7651.141 M168.001,7657 C166.898,7657 166.001,7656.103 166.001,7655 C166.001,7653.897 166.898,7653 168.001,7653 C169.104,7653 170.001,7653.897 170.001,7655 C170.001,7656.103 169.104,7657 168.001,7657 M169,7651.141 L169,7639 L167,7639 L167,7651.141 C165,7651.587 164.001,7653.138 164.001,7655 C164.001,7657.209 165.792,7659 168.001,7659 C170.21,7659 172,7657.209 172,7655 C172,7653.138 171,7651.587 169,7651.141" id="rings-[#94]"></path>
            </g>
        </g>
    </g>
</svg>