<?xml version="1.0" encoding="UTF-8" standalone="no"?>
<svg width="12px" height="20px" viewBox="0 0 12 20" version="1.1" xmlns="http://www.w3.org/2000/svg" xmlns:xlink="http://www.w3.org/1999/xlink">
    <!-- Generator: Sketch 3.8.1 (29687) - http://www.bohemiancoding.com/sketch -->
    <title>road [#606]</title>
    <desc>Created with Sketch.</desc>
    <defs></defs>
    <g id="Page-1" stroke="none" stroke-width="1" fill="none" fill-rule="evenodd">
        <g id="Dribbble-Dark-Preview" transform="translate(-144.000000, -5519.000000)" fill="#FFFFFF">
            <g id="icons" transform="translate(56.000000, 160.000000)">
                <path d="M98,5377 L98,5361 L95,5361 L95,5365 L93,5365 L93,5361 L90,5361 L90,5377 L93,5377 L93,5373 L95,5373 L95,5377 L98,5377 Z M100,5359 L100,5379 L98.817,5379 L98,5379 L90,5379 L89.183,5379 L88,5379 L88,5359 L89.183,5359 L90,5359 L98,5359 L98.817,5359 L100,5359 Z M93,5371 L95,5371 L95,5367 L93,5367 L93,5371 Z" id="road-[#606]"></path>
            </g>
        </g>
    </g>
</svg>