<?xml version="1.0" encoding="UTF-8" standalone="no"?>
<svg width="12px" height="18px" viewBox="0 0 12 18" version="1.1" xmlns="http://www.w3.org/2000/svg" xmlns:xlink="http://www.w3.org/1999/xlink">
    <!-- Generator: Sketch 3.8.1 (29687) - http://www.bohemiancoding.com/sketch -->
    <title>road_mini [#602]</title>
    <desc>Created with Sketch.</desc>
    <defs></defs>
    <g id="Page-1" stroke="none" stroke-width="1" fill="none" fill-rule="evenodd">
        <g id="Dribbble-Dark-Preview" transform="translate(-304.000000, -5520.000000)" fill="#FFFFFF">
            <g id="icons" transform="translate(56.000000, 160.000000)">
                <path d="M250,5376 L258,5376 L258,5362 L250,5362 L250,5376 Z M248,5378 L260,5378 L260,5360 L248,5360 L248,5378 Z M254,5366 C254.552,5366 255,5365.552 255,5365 C255,5364.448 254.552,5364 254,5364 C253.448,5364 253,5364.448 253,5365 C253,5365.552 253.448,5366 254,5366 L254,5366 Z M254,5368 C253.448,5368 253,5368.448 253,5369 C253,5369.552 253.448,5370 254,5370 C254.552,5370 255,5369.552 255,5369 C255,5368.448 254.552,5368 254,5368 L254,5368 Z M255,5373 C255,5373.552 254.552,5374 254,5374 C253.448,5374 253,5373.552 253,5373 C253,5372.448 253.448,5372 254,5372 C254.552,5372 255,5372.448 255,5373 L255,5373 Z" id="road_mini-[#602]"></path>
            </g>
        </g>
    </g>
</svg>