<?xml version="1.0" encoding="UTF-8" standalone="no"?>
<svg width="12px" height="20px" viewBox="0 0 12 20" version="1.1" xmlns="http://www.w3.org/2000/svg" xmlns:xlink="http://www.w3.org/1999/xlink">
    <!-- Generator: Sketch 3.8.1 (29687) - http://www.bohemiancoding.com/sketch -->
    <title>road_round [#605]</title>
    <desc>Created with Sketch.</desc>
    <defs></defs>
    <g id="Page-1" stroke="none" stroke-width="1" fill="none" fill-rule="evenodd">
        <g id="Dribbble-Dark-Preview" transform="translate(-184.000000, -5519.000000)" fill="#FFFFFF">
            <g id="icons" transform="translate(56.000000, 160.000000)">
                <path d="M131.293,5377 L137.293,5377 C137.845,5377 138,5376.552 138,5376 L138,5362 C138,5361.448 137.845,5361 137.293,5361 L135,5361 L135,5362 C135,5362.552 134.626,5363 134.073,5363 L134.147,5363 C133.594,5363 133,5362.552 133,5362 L133,5361 L131.293,5361 C130.741,5361 130,5361.448 130,5362 L130,5376 C130,5376.552 130.741,5377 131.293,5377 L131.293,5377 Z M140,5377 C140,5378.105 139.105,5379 138,5379 L130,5379 C128.896,5379 128,5378.105 128,5377 L128,5361 C128,5359.895 128.896,5359 130,5359 L138,5359 C139.105,5359 140,5359.895 140,5361 L140,5377 Z M134.293,5367 L134.293,5367 C134.845,5367 135.293,5366.552 135.293,5366 C135.293,5365.448 134.845,5365 134.293,5365 C133.741,5365 133.293,5365.448 133.293,5366 C133.293,5366.552 133.741,5367 134.293,5367 L134.293,5367 Z M134.293,5371 L134.293,5371 C134.845,5371 135.293,5370.552 135.293,5370 C135.293,5369.448 134.845,5369 134.293,5369 C133.741,5369 133.293,5369.448 133.293,5370 C133.293,5370.552 133.741,5371 134.293,5371 L134.293,5371 Z M133.293,5374 L133.293,5374 C133.293,5373.448 133.741,5373 134.293,5373 C134.845,5373 135.293,5373.448 135.293,5374 C135.293,5374.552 134.845,5375 134.293,5375 C133.741,5375 133.293,5374.552 133.293,5374 L133.293,5374 Z" id="road_round-[#605]"></path>
            </g>
        </g>
    </g>
</svg>