<?xml version="1.0" encoding="UTF-8" standalone="no"?>
<svg width="12px" height="18px" viewBox="0 0 12 18" version="1.1" xmlns="http://www.w3.org/2000/svg" xmlns:xlink="http://www.w3.org/1999/xlink">
    <!-- Generator: Sketch 3.8.1 (29687) - http://www.bohemiancoding.com/sketch -->
    <title>road_mini [#603]</title>
    <desc>Created with Sketch.</desc>
    <defs></defs>
    <g id="Page-1" stroke="none" stroke-width="1" fill="none" fill-rule="evenodd">
        <g id="Dribbble-Dark-Preview" transform="translate(-264.000000, -5520.000000)" fill="#FFFFFF">
            <g id="icons" transform="translate(56.000000, 160.000000)">
                <path d="M210,5376 L218,5376 L218,5362 L210,5362 L210,5376 Z M220,5360 L220,5378 L218.817,5378 L218,5378 L210,5378 L209.183,5378 L208,5378 L208,5360 L209.183,5360 L210,5360 L218,5360 L218.817,5360 L220,5360 Z M214,5366 C214.552,5366 215,5365.552 215,5365 C215,5364.448 214.552,5364 214,5364 C213.448,5364 213,5364.448 213,5365 C213,5365.552 213.448,5366 214,5366 L214,5366 Z M214,5368 C213.448,5368 213,5368.448 213,5369 C213,5369.552 213.448,5370 214,5370 C214.552,5370 215,5369.552 215,5369 C215,5368.448 214.552,5368 214,5368 L214,5368 Z M215,5373 C215,5373.552 214.552,5374 214,5374 C213.448,5374 213,5373.552 213,5373 C213,5372.448 213.448,5372 214,5372 C214.552,5372 215,5372.448 215,5373 L215,5373 Z" id="road_mini-[#603]"></path>
            </g>
        </g>
    </g>
</svg>