<?xml version="1.0" encoding="UTF-8" standalone="no"?>
<svg width="12px" height="20px" viewBox="0 0 12 20" version="1.1" xmlns="http://www.w3.org/2000/svg" xmlns:xlink="http://www.w3.org/1999/xlink">
    <!-- Generator: Sketch 3.8.1 (29687) - http://www.bohemiancoding.com/sketch -->
    <title>road [#604]</title>
    <desc>Created with Sketch.</desc>
    <defs></defs>
    <g id="Page-1" stroke="none" stroke-width="1" fill="none" fill-rule="evenodd">
        <g id="Dribbble-Dark-Preview" transform="translate(-224.000000, -5519.000000)" fill="#FFFFFF">
            <g id="icons" transform="translate(56.000000, 160.000000)">
                <path d="M178,5377 L178,5361 L175,5361 L175,5363 L173,5363 L173,5361 L170,5361 L170,5377 L178,5377 Z M168,5379 L180,5379 L180,5359 L168,5359 L168,5379 Z M173,5367 L175,5367 L175,5365 L173,5365 L173,5367 Z M173,5371 L175,5371 L175,5369 L173,5369 L173,5371 Z M173,5375 L175,5375 L175,5373 L173,5373 L173,5375 Z" id="road-[#604]"></path>
            </g>
        </g>
    </g>
</svg>