<?xml version="1.0" encoding="UTF-8" standalone="no"?>
<svg width="20px" height="20px" viewBox="0 0 20 20" version="1.1" xmlns="http://www.w3.org/2000/svg" xmlns:xlink="http://www.w3.org/1999/xlink">
    <!-- Generator: Sketch 3.8.1 (29687) - http://www.bohemiancoding.com/sketch -->
    <title>round [#601]</title>
    <desc>Created with Sketch.</desc>
    <defs></defs>
    <g id="Page-1" stroke="none" stroke-width="1" fill="none" fill-rule="evenodd">
        <g id="Dribbble-Dark-Preview" transform="translate(-340.000000, -5519.000000)" fill="#FFFFFF">
            <g id="icons" transform="translate(56.000000, 160.000000)">
                <path d="M300.000282,5377 C298.897282,5377 298.000282,5376.103 298.000282,5375 C298.000282,5373.897 298.897282,5373 300.000282,5373 C301.103282,5373 302.000282,5373.897 302.000282,5375 C302.000282,5376.103 301.103282,5377 300.000282,5377 M290.000282,5375 C290.000282,5376.103 289.103282,5377 288.000282,5377 C286.897282,5377 286.000282,5376.103 286.000282,5375 C286.000282,5373.897 286.897282,5373 288.000282,5373 C289.103282,5373 290.000282,5373.897 290.000282,5375 M301.000282,5371.141 L301.000282,5361 L301.000282,5361 C301.000282,5359.896 300.105282,5359 299.000282,5359 L296.000282,5359 C295.448282,5359 295.000282,5359.448 295.000282,5360 L295.000282,5360 C295.000282,5360.552 295.448282,5361 296.000282,5361 L298.000282,5361 C298.552282,5361 299.000282,5361.448 299.000282,5362 L299.000282,5365.992 L289.000282,5368.469 L289.000282,5367 L290.000282,5367 C290.552282,5367 291.000282,5366.552 291.000282,5366 L291.000282,5366 C291.000282,5365.448 290.552282,5365 290.000282,5365 L286.000282,5365 C285.448282,5365 285.000282,5365.448 285.000282,5366 L285.000282,5366 C285.000282,5366.552 285.448282,5367 286.000282,5367 L287.000282,5367 L287.000282,5371.141 C284.992282,5371.662 283.588282,5373.684 284.109282,5375.949 C284.441282,5377.388 285.608282,5378.558 287.046282,5378.89 C289.670282,5379.496 292.000282,5377.52 292.000282,5375 C292.000282,5373.138 290.722282,5371.587 289.000282,5371.141 L289.000282,5370.529 L299.000282,5368.052 L299.000282,5371.141 C296.992282,5371.662 295.588282,5373.684 296.109282,5375.949 C296.441282,5377.388 297.608282,5378.558 299.046282,5378.89 C301.670282,5379.496 304.000282,5377.52 304.000282,5375 C304.000282,5373.138 302.722282,5371.587 301.000282,5371.141" id="round-[#601]"></path>
            </g>
        </g>
    </g>
</svg>