<?xml version="1.0" encoding="UTF-8" standalone="no"?>
<svg width="20px" height="16px" viewBox="0 0 20 16" version="1.1" xmlns="http://www.w3.org/2000/svg" xmlns:xlink="http://www.w3.org/1999/xlink">
    <!-- Generator: Sketch 3.8.1 (29687) - http://www.bohemiancoding.com/sketch -->
    <title>router_middle [#1114]</title>
    <desc>Created with Sketch.</desc>
    <defs></defs>
    <g id="Page-1" stroke="none" stroke-width="1" fill="none" fill-rule="evenodd">
        <g id="Dribbble-Dark-Preview" transform="translate(-220.000000, -3281.000000)" fill="#FFFFFF">
            <g id="icons" transform="translate(56.000000, 160.000000)">
                <path d="M168.622,3130.312 C169.174,3130.312 169.622,3129.864 169.622,3129.312 C169.622,3128.76 169.174,3128.312 168.622,3128.312 C168.07,3128.312 167.622,3128.76 167.622,3129.312 C167.622,3129.864 168.07,3130.312 168.622,3130.312 L168.622,3130.312 Z M166,3131 L182,3131 L182,3127 L166,3127 L166,3131 Z M164,3133 L184,3133 L184,3125 L164,3125 L164,3133 Z M166,3137 L182,3137 L182,3135 L166,3135 L166,3137 Z M166,3123 L182,3123 L182,3121 L166,3121 L166,3123 Z" id="router_middle-[#1114]"></path>
            </g>
        </g>
    </g>
</svg>