<?xml version="1.0" encoding="UTF-8" standalone="no"?>
<svg width="20px" height="16px" viewBox="0 0 20 16" version="1.1" xmlns="http://www.w3.org/2000/svg" xmlns:xlink="http://www.w3.org/1999/xlink">
    <!-- Generator: Sketch 3.8.1 (29687) - http://www.bohemiancoding.com/sketch -->
    <title>router_bottom [#1112]</title>
    <desc>Created with Sketch.</desc>
    <defs></defs>
    <g id="Page-1" stroke="none" stroke-width="1" fill="none" fill-rule="evenodd">
        <g id="Dribbble-Dark-Preview" transform="translate(-300.000000, -3281.000000)" fill="#FFFFFF">
            <g id="icons" transform="translate(56.000000, 160.000000)">
                <path d="M246,3135 L262,3135 L262,3131 L246,3131 L246,3135 Z M244,3137 L264,3137 L264,3129 L244,3129 L244,3137 Z M248.15,3133.953 C248.702,3133.953 249.15,3133.505 249.15,3132.953 C249.15,3132.401 248.702,3131.953 248.15,3131.953 C247.598,3131.953 247.15,3132.401 247.15,3132.953 C247.15,3133.505 247.598,3133.953 248.15,3133.953 L248.15,3133.953 Z M246,3123 L262,3123 L262,3121 L246,3121 L246,3123 Z M246,3127 L262,3127 L262,3125 L246,3125 L246,3127 Z" id="router_bottom-[#1112]"></path>
            </g>
        </g>
    </g>
</svg>