<?xml version="1.0" encoding="UTF-8" standalone="no"?>
<svg width="20px" height="16px" viewBox="0 0 20 16" version="1.1" xmlns="http://www.w3.org/2000/svg" xmlns:xlink="http://www.w3.org/1999/xlink">
    <!-- Generator: Sketch 3.8.1 (29687) - http://www.bohemiancoding.com/sketch -->
    <title>router_top [#1113]</title>
    <desc>Created with Sketch.</desc>
    <defs></defs>
    <g id="Page-1" stroke="none" stroke-width="1" fill="none" fill-rule="evenodd">
        <g id="Dribbble-Dark-Preview" transform="translate(-260.000000, -3281.000000)" fill="#FFFFFF">
            <g id="icons" transform="translate(56.000000, 160.000000)">
                <path d="M209.183,3125.953 C209.735,3125.953 210.183,3125.505 210.183,3124.953 C210.183,3124.401 209.735,3123.953 209.183,3123.953 C208.631,3123.953 208.183,3124.401 208.183,3124.953 C208.183,3125.505 208.631,3125.953 209.183,3125.953 L209.183,3125.953 Z M206,3127 L222,3127 L222,3123 L206,3123 L206,3127 Z M204,3129 L224,3129 L224,3121 L204,3121 L204,3129 Z M206,3137 L222,3137 L222,3135 L206,3135 L206,3137 Z M206,3133 L222,3133 L222,3131 L206,3131 L206,3133 Z" id="router_top-[#1113]"></path>
            </g>
        </g>
    </g>
</svg>