<?xml version="1.0" encoding="UTF-8" standalone="no"?>
<svg width="10px" height="10px" viewBox="0 0 10 10" version="1.1" xmlns="http://www.w3.org/2000/svg" xmlns:xlink="http://www.w3.org/1999/xlink">
    <!-- Generator: Sketch 3.8.1 (29687) - http://www.bohemiancoding.com/sketch -->
    <title>rss [#1028]</title>
    <desc>Created with Sketch.</desc>
    <defs></defs>
    <g id="Page-1" stroke="none" stroke-width="1" fill="none" fill-rule="evenodd">
        <g id="Dribbble-Dark-Preview" transform="translate(-65.000000, -3644.000000)" fill="#FFFFFF">
            <g id="icons" transform="translate(56.000000, 160.000000)">
                <path d="M9.01405871,3491.9522 L9.01405871,3492.95455 C9.01405871,3493.50785 9.46393743,3493.9569 10.0182523,3493.9569 L11.0224458,3493.9569 C11.0224458,3492.8493 10.1236926,3491.9522 9.01405871,3491.9522 M9,3487.94279 L9,3489.94749 C11.215251,3489.94749 13.0167743,3491.9953 13.0167743,3494 L15.0251614,3494 C15.0251614,3490.99295 12.3278975,3487.94279 9,3487.94279 M18.9937344,3492.85231 C19.0600112,3493.45071 18.592057,3494 17.9895408,3494 L17.0476073,3494 C17.0476073,3489.99059 13.0167743,3485.93809 9,3485.93809 L9,3484.99788 C9,3484.39647 9.53623937,3483.9394 10.1347387,3484.00656 C14.7801382,3484.52477 18.4745663,3488.21643 18.9937344,3492.85231" id="rss-[#1028]"></path>
            </g>
        </g>
    </g>
</svg>