<?xml version="1.0" encoding="UTF-8" standalone="no"?>
<svg width="20px" height="20px" viewBox="0 0 20 20" version="1.1" xmlns="http://www.w3.org/2000/svg" xmlns:xlink="http://www.w3.org/1999/xlink">
    <!-- Generator: Sketch 3.8.1 (29687) - http://www.bohemiancoding.com/sketch -->
    <title>rss [#1022]</title>
    <desc>Created with Sketch.</desc>
    <defs></defs>
    <g id="Page-1" stroke="none" stroke-width="1" fill="none" fill-rule="evenodd">
        <g id="Dribbble-Dark-Preview" transform="translate(-300.000000, -3639.000000)" fill="#FFFFFF">
            <g id="icons" transform="translate(56.000000, 160.000000)">
                <path d="M248.786,3492.105 L248.786,3494.105 L250.786,3494.105 C250.786,3493 249.891,3492.105 248.786,3492.105 L248.786,3492.105 Z M252.786,3494 L254.786,3494 C254.786,3491 252,3488.105 249,3488.105 L249,3490.105 C251,3490.105 252.786,3492 252.786,3494 L252.786,3494 Z M249,3484.105 L249,3486.105 C253,3486.105 256.786,3490 256.786,3494 L258.786,3494 C258.786,3489 254,3484.105 249,3484.105 L249,3484.105 Z M262,3493 L264,3493 L264,3485 L262,3485 L262,3493 Z M262,3497 L260,3497 L260,3499 L264,3499 L264,3495 L262,3495 L262,3497 Z M260,3479 L260,3481 L262,3481 L262,3483 L264,3483 L264,3479 L260,3479 Z M244,3493 L246,3493 L246,3485 L244,3485 L244,3493 Z M246,3495 L244,3495 L244,3499 L248,3499 L248,3497 L246,3497 L246,3495 Z M244,3479 L244,3483 L246,3483 L246,3481 L248,3481 L248,3479 L244,3479 Z M250,3499 L258,3499 L258,3497 L250,3497 L250,3499 Z M250,3481 L258,3481 L258,3479 L250,3479 L250,3481 Z" id="rss-[#1022]"></path>
            </g>
        </g>
    </g>
</svg>