<?xml version="1.0" encoding="UTF-8" standalone="no"?>
<svg width="20px" height="20px" viewBox="0 0 20 20" version="1.1" xmlns="http://www.w3.org/2000/svg" xmlns:xlink="http://www.w3.org/1999/xlink">
    <!-- Generator: Sketch 3.8.1 (29687) - http://www.bohemiancoding.com/sketch -->
    <title>rss_cover [#1030]</title>
    <desc>Created with Sketch.</desc>
    <defs></defs>
    <g id="Page-1" stroke="none" stroke-width="1" fill="none" fill-rule="evenodd">
        <g id="Dribbble-Dark-Preview" transform="translate(-380.000000, -3599.000000)" fill="#FFFFFF">
            <g id="icons" transform="translate(56.000000, 160.000000)">
                <path d="M331,3454.102 L329,3454.102 L329,3452.102 C330.105,3452.102 331,3452.997 331,3454.102 L331,3454.102 Z M329,3450.102 L329,3448.102 C332,3448.102 335.143,3451 335.143,3454 L333.143,3454 C333.143,3452 331,3450.102 329,3450.102 L329,3450.102 Z M329,3446.102 L329,3444.102 C334,3444.102 339.143,3448 339.143,3454 L337.143,3454 C337.143,3450 333,3446.102 329,3446.102 L329,3446.102 Z M326,3457 L342,3457 L342,3441 L326,3441 L326,3457 Z M324,3459 L344,3459 L344,3439 L324,3439 L324,3459 Z" id="rss_cover-[#1030]"></path>
            </g>
        </g>
    </g>
</svg>