<?xml version="1.0" encoding="UTF-8" standalone="no"?>
<svg width="20px" height="20px" viewBox="0 0 20 20" version="1.1" xmlns="http://www.w3.org/2000/svg" xmlns:xlink="http://www.w3.org/1999/xlink">
    <!-- Generator: Sketch 3.8.1 (29687) - http://www.bohemiancoding.com/sketch -->
    <title>rss_round [#1027]</title>
    <desc>Created with Sketch.</desc>
    <defs></defs>
    <g id="Page-1" stroke="none" stroke-width="1" fill="none" fill-rule="evenodd">
        <g id="Dribbble-Dark-Preview" transform="translate(-100.000000, -3639.000000)" fill="#FFFFFF">
            <g id="icons" transform="translate(56.000000, 160.000000)">
                <path d="M48.986,3492.105 L48.986,3493.105 C48.986,3493.657 49.434,3494.105 49.986,3494.105 L50.986,3494.105 C50.986,3493 50.091,3492.105 48.986,3492.105 L48.986,3492.105 Z M53,3494 L55,3494 C55,3491 52.314,3488.105 49,3488.105 L49,3490.105 C51.206,3490.105 53,3492 53,3494 L53,3494 Z M50.116,3484.141 C49.52,3484.075 49,3484.567 49,3485.168 L49,3486.105 C53,3486.105 56.986,3490 56.986,3494 L57.924,3494 C58.524,3494 58.99,3493.526 58.924,3492.929 C58.407,3488.304 54.742,3484.658 50.116,3484.141 L50.116,3484.141 Z M63,3485 C62.448,3485 62,3485.448 62,3486 L62,3492 C62,3492.553 62.448,3493 63,3493 C63.552,3493 64,3492.553 64,3492 L64,3486 C64,3485.448 63.552,3485 63,3485 L63,3485 Z M60,3498.105 C60,3498.096 60.005,3498.088 60.005,3498.079 C60.005,3498.069 60,3498.062 60,3498.053 L60,3498.105 Z M62.993,3495 L62.989,3495 C62.437,3495 62,3495.5 62,3496.053 L62,3496.079 C62,3496.631 61.545,3497.092 60.993,3497.092 L60.996,3497.098 C60.453,3497.098 60.02,3497.539 60.005,3498.079 C60.02,3498.616 60.443,3499 60.986,3499 L61.986,3499 C63.091,3499 64,3498.21 64,3497.105 L64,3496.105 C64,3495.553 63.545,3495 62.993,3495 L62.993,3495 Z M61.986,3479 L60.986,3479 C60.434,3479 60,3479.5 60,3480.053 L60,3480.079 C60,3480.631 60,3481.092 61,3481.092 L61,3481.098 C62,3481.098 62,3481.549 62,3482.102 L62,3482.103 C62,3482.656 62.434,3483 62.986,3483 L62.993,3483 C63.545,3483 64,3482.657 64,3482.105 L64,3481.105 C64,3480 63.091,3479 61.986,3479 L61.986,3479 Z M45,3493 C45.552,3493 46,3492.553 46,3492 L46,3486 C46,3485.448 45.552,3485 45,3485 C44.448,3485 44,3485.448 44,3486 L44,3492 C44,3492.553 44.448,3493 45,3493 L45,3493 Z M48,3498.079 L48,3498.053 L48,3498.053 L48,3498.079 L48,3498.079 Z M47,3497.092 L47,3497.098 C46,3497.098 46,3496.654 46,3496.102 L46,3496.103 C46,3495.552 45.54,3495.004 44.99,3495.001 C44.439,3495.004 44,3495.554 44,3496.105 L44,3497.105 C44,3498.21 44.881,3499 45.986,3499 L46.986,3499 C47.538,3499 47.999,3498.605 48,3498.054 C47.999,3497.514 47.984,3497.092 47,3497.092 L47,3497.092 Z M44.986,3495 C44.987,3495 44.988,3495.001 44.99,3495.001 C44.991,3495.001 44.992,3495 44.993,3495 L44.986,3495 Z M44.993,3483 L44.991,3483 L44.989,3483 L44.993,3483 Z M46.986,3479 L45.986,3479 C44.881,3479 44,3480 44,3481.105 L44,3482.105 C44,3482.657 44.44,3482.999 44.991,3483 C45.543,3482.999 46,3482.604 46,3482.053 L46,3482.079 C46,3481.527 46.441,3481.092 46.993,3481.092 L46.996,3481.098 C47.549,3481.098 48,3480.657 48,3480.105 L48,3480.053 C48,3479.5 47.538,3479 46.986,3479 L46.986,3479 Z M57,3497 L51,3497 C50.448,3497 50,3497.448 50,3498 C50,3498.553 50.448,3499 51,3499 L57,3499 C57.552,3499 58,3498.553 58,3498 C58,3497.448 57.552,3497 57,3497 L57,3497 Z M50,3480 C50,3479.448 50.448,3479 51,3479 L57,3479 C57.552,3479 58,3479.448 58,3480 C58,3480.553 57.552,3481 57,3481 L51,3481 C50.448,3481 50,3480.553 50,3480 L50,3480 Z" id="rss_round-[#1027]"></path>
            </g>
        </g>
    </g>
</svg>