<?xml version="1.0" encoding="UTF-8" standalone="no"?>
<svg width="20px" height="20px" viewBox="0 0 20 20" version="1.1" xmlns="http://www.w3.org/2000/svg" xmlns:xlink="http://www.w3.org/1999/xlink">
    <!-- Generator: Sketch 3.8.1 (29687) - http://www.bohemiancoding.com/sketch -->
    <title>rss_cover [#1031]</title>
    <desc>Created with Sketch.</desc>
    <defs></defs>
    <g id="Page-1" stroke="none" stroke-width="1" fill="none" fill-rule="evenodd">
        <g id="Dribbble-Dark-Preview" transform="translate(-340.000000, -3599.000000)" fill="#FFFFFF">
            <g id="icons" transform="translate(56.000000, 160.000000)">
                <path d="M291.014,3454.053 L290.014,3454.053 C289.462,3454.053 289.014,3453.605 289.014,3453.053 L289.014,3452.053 C290.119,3452.053 291.014,3452.948 291.014,3454.053 L291.014,3454.053 Z M295,3454 L293,3454 C293,3452 291.206,3450.053 289,3450.053 L289,3448.053 C292.314,3448.053 295,3451 295,3454 L295,3454 Z M298.948,3452.903 C299.015,3453.5 298.552,3454 297.951,3454 L297.014,3454 C297.014,3450 293,3446.053 289,3446.053 L289,3445.115 C289,3444.515 289.534,3444.049 290.13,3444.115 C294.756,3444.632 298.431,3448.278 298.948,3452.903 L298.948,3452.903 Z M302,3456 C302,3456.553 301.552,3457 301,3457 L287,3457 C286.448,3457 286,3456.553 286,3456 L286,3442 C286,3441.448 286.448,3441 287,3441 L301,3441 C301.552,3441 302,3441.448 302,3442 L302,3456 Z M302,3439 L286,3439 C284.895,3439 284,3439.896 284,3441 L284,3457 C284,3458.105 284.895,3459 286,3459 L302,3459 C303.105,3459 304,3458.105 304,3457 L304,3441 C304,3439.896 303.105,3439 302,3439 L302,3439 Z" id="rss_cover-[#1031]"></path>
            </g>
        </g>
    </g>
</svg>