<?xml version="1.0" encoding="UTF-8" standalone="no"?>
<svg width="22px" height="22px" viewBox="0 0 22 22" version="1.1" xmlns="http://www.w3.org/2000/svg" xmlns:xlink="http://www.w3.org/1999/xlink">
    <!-- Generator: Sketch 3.8.1 (29687) - http://www.bohemiancoding.com/sketch -->
    <title>rss_missing_plus [#1042]</title>
    <desc>Created with Sketch.</desc>
    <defs></defs>
    <g id="Page-1" stroke="none" stroke-width="1" fill="none" fill-rule="evenodd">
        <g id="Dribbble-Dark-Preview" transform="translate(-300.000000, -3559.000000)" fill="#FFFFFF">
            <g id="icons" transform="translate(56.000000, 160.000000)">
                <path d="M262,3413 L264,3413 L264,3405 L262,3405 L262,3413 Z M264,3417 L264,3415 L262,3415 L262,3417 L260,3417 L260,3419 L262,3419 L262,3421 L264,3421 L264,3419 L266,3419 L266,3417 L264,3417 Z M262,3403 L264,3403 L264,3399 L260,3399 L260,3401 L262,3401 L262,3403 Z M244,3413 L246,3413 L246,3405 L244,3405 L244,3413 Z M246,3415 L244,3415 L244,3419 L248,3419 L248,3417 L246,3417 L246,3415 Z M244,3399 L244,3403 L246,3403 L246,3401 L248,3401 L248,3399 L244,3399 Z M250,3419 L258,3419 L258,3417 L250,3417 L250,3419 Z M250,3401 L258,3401 L258,3399 L250,3399 L250,3401 Z M249,3412.101 L249,3414.101 L251,3414.101 C251,3412.997 250.105,3412.101 249,3412.101 L249,3412.101 Z M253.143,3414 L255.143,3414 C255.143,3411 252,3408.101 249,3408.101 L249,3410.101 C251,3410.101 253.143,3412 253.143,3414 L253.143,3414 Z M259.143,3414 L257.143,3414 C257.143,3410 253,3406.101 249,3406.101 L249,3404.101 C254,3404.101 259.143,3408 259.143,3414 L259.143,3414 Z" id="rss_missing_plus-[#1042]"></path>
            </g>
        </g>
    </g>
</svg>