<?xml version="1.0" encoding="UTF-8" standalone="no"?>
<svg width="23px" height="22px" viewBox="0 0 23 22" version="1.1" xmlns="http://www.w3.org/2000/svg" xmlns:xlink="http://www.w3.org/1999/xlink">
    <!-- Generator: Sketch 3.8.1 (29687) - http://www.bohemiancoding.com/sketch -->
    <title>rss_missing_plus_round [#1041]</title>
    <desc>Created with Sketch.</desc>
    <defs></defs>
    <g id="Page-1" stroke="none" stroke-width="1" fill="none" fill-rule="evenodd">
        <g id="Dribbble-Dark-Preview" transform="translate(-340.000000, -3559.000000)" fill="#FFFFFF">
            <g id="icons" transform="translate(56.000000, 160.000000)">
                <path d="M303.179,3405.0754 C302.627,3405.0754 302.179,3405.52127 302.179,3406.07065 L302.179,3412.04215 C302.179,3412.59153 302.627,3413.0374 303.179,3413.0374 C303.731,3413.0374 304.179,3412.59153 304.179,3412.04215 L304.179,3406.07065 C304.179,3405.52127 303.731,3405.0754 303.179,3405.0754 L303.179,3405.0754 Z M301.179,3401.0944 C301.731,3401.0944 302.179,3401.54027 302.179,3402.08965 C302.179,3402.63903 302.627,3403.0849 303.179,3403.0849 C303.731,3403.0849 304.179,3402.63903 304.179,3402.08965 L304.179,3401.0944 C304.179,3399.99465 303.284,3398.9994 302.179,3398.9994 L301.179,3398.9994 C300.627,3398.9994 300.179,3399.49702 300.179,3400.0474 C300.179,3400.59678 300.627,3401.0944 301.179,3401.0944 L301.179,3401.0944 Z M285.179,3413.0374 C285.731,3413.0374 286.179,3412.59153 286.179,3412.04215 L286.179,3406.07065 C286.179,3405.52127 285.731,3405.0754 285.179,3405.0754 C284.627,3405.0754 284.179,3405.52127 284.179,3406.07065 L284.179,3412.04215 C284.179,3412.59153 284.627,3413.0374 285.179,3413.0374 L285.179,3413.0374 Z M287.179,3417.0184 C286.627,3417.0184 286.179,3416.57253 286.179,3416.02315 C286.179,3415.47377 285.731,3415.0279 285.179,3415.0279 C284.627,3415.0279 284.179,3415.47377 284.179,3416.02315 L284.179,3417.0184 C284.179,3418.11815 285.074,3418.9044 286.179,3418.9044 L287.179,3418.9044 C287.731,3418.9044 288.179,3418.51128 288.179,3417.9619 C288.179,3417.41152 287.731,3417.0184 287.179,3417.0184 L287.179,3417.0184 Z M287.179,3398.9994 L286.179,3398.9994 C285.074,3398.9994 284.179,3399.99465 284.179,3401.0944 L284.179,3402.08965 C284.179,3402.63903 284.627,3403.0849 285.179,3403.0849 C285.731,3403.0849 286.179,3402.63903 286.179,3402.08965 C286.179,3401.54027 286.627,3401.0944 287.179,3401.0944 C287.731,3401.0944 288.179,3400.59678 288.179,3400.0474 C288.179,3399.49702 287.731,3398.9994 287.179,3398.9994 L287.179,3398.9994 Z M305.179,3416.9139 L304.179,3416.9139 L304.179,3416.02315 C304.179,3415.47377 303.731,3415.0279 303.179,3415.0279 C302.627,3415.0279 302.179,3415.47377 302.179,3416.02315 L302.179,3416.9139 L301.179,3416.9139 C300.627,3416.9139 300.179,3417.35977 300.179,3417.90915 C300.179,3419.0089 301.179,3418.9044 302.179,3418.9044 L302.179,3420.00415 C302.179,3420.55353 302.627,3420.9994 303.179,3420.9994 C303.731,3420.9994 304.179,3420.55353 304.179,3420.00415 L304.179,3418.9044 C305.179,3418.9044 306.179,3419.0089 306.179,3417.90915 C306.179,3417.35977 305.731,3416.9139 305.179,3416.9139 L305.179,3416.9139 Z M297.179,3416.9139 L291.179,3416.9139 C290.627,3416.9139 290.179,3417.35977 290.179,3417.90915 C290.179,3418.45952 290.627,3418.9044 291.179,3418.9044 L297.179,3418.9044 C297.731,3418.9044 298.179,3418.45952 298.179,3417.90915 C298.179,3417.35977 297.731,3416.9139 297.179,3416.9139 L297.179,3416.9139 Z M291.179,3400.9899 L297.179,3400.9899 C297.731,3400.9899 298.179,3400.54502 298.179,3399.99465 C298.179,3399.44527 297.731,3398.9994 297.179,3398.9994 L291.179,3398.9994 C290.627,3398.9994 290.179,3399.44527 290.179,3399.99465 C290.179,3400.54502 290.627,3400.9899 291.179,3400.9899 L291.179,3400.9899 Z M291.214,3413.97891 C291.214,3412.87916 290.319,3411.98841 289.214,3411.98841 L289.214,3412.98366 C289.214,3413.53303 289.662,3413.97891 290.214,3413.97891 L291.214,3413.97891 Z M293.2,3413.92815 L295.2,3413.92815 C295.2,3410.9424 292.179,3408.0094 289.179,3408.0094 L289.179,3409.9999 C291.179,3409.9999 293.2,3411.93765 293.2,3413.92815 L293.2,3413.92815 Z M299.143,3412.83536 C299.21,3413.42953 298.752,3413.92815 298.152,3413.92815 L297.214,3413.92815 C297.214,3409.94715 293.179,3406.01691 289.179,3406.01691 L289.179,3405.08336 C289.179,3404.48621 289.723,3404.02243 290.32,3404.08811 C294.945,3404.60266 298.626,3408.23233 299.143,3412.83536 L299.143,3412.83536 Z" id="rss_missing_plus_round-[#1041]"></path>
            </g>
        </g>
    </g>
</svg>