<?xml version="1.0" encoding="UTF-8" standalone="no"?>
<svg width="20px" height="20px" viewBox="0 0 20 20" version="1.1" xmlns="http://www.w3.org/2000/svg" xmlns:xlink="http://www.w3.org/1999/xlink">
    <!-- Generator: Sketch 3.8.1 (29687) - http://www.bohemiancoding.com/sketch -->
    <title>rss_focus [#1038]</title>
    <desc>Created with Sketch.</desc>
    <defs></defs>
    <g id="Page-1" stroke="none" stroke-width="1" fill="none" fill-rule="evenodd">
        <g id="Dribbble-Dark-Preview" transform="translate(-60.000000, -3599.000000)" fill="#FFFFFF">
            <g id="icons" transform="translate(56.000000, 160.000000)">
                <path d="M22.5,3439 L17,3439 C16.448,3439 16,3439.448 16,3440 C16,3440.552 16.448,3441 17,3441 L21,3441 C21.552,3441 22,3441.552 22,3442.105 L22,3446.105 C22,3446.657 22.448,3447.105 23,3447.105 C23.552,3447.105 24,3446.657 24,3446.105 L24,3440.605 C24,3439.776 23.328,3439 22.5,3439 L22.5,3439 Z M23,3451.105 C22.448,3451.105 22,3451.552 22,3452.105 L22,3456.105 C22,3456.657 21.552,3457 21,3457 L17,3457 C16.448,3457 16,3457.448 16,3458 C16,3458.552 16.448,3459 17,3459 L22.5,3459 C23.328,3459 24,3458.433 24,3457.605 L24,3452.105 C24,3451.552 23.552,3451.105 23,3451.105 L23,3451.105 Z M11,3457 L7,3457 C6.448,3457 6,3456.657 6,3456.105 L6,3452.105 C6,3451.552 5.552,3451.105 5,3451.105 C4.448,3451.105 4,3451.552 4,3452.105 L4,3457.605 C4,3458.433 4.672,3459 5.5,3459 L11,3459 C11.552,3459 12,3458.552 12,3458 C12,3457.448 11.552,3457 11,3457 L11,3457 Z M5,3447.105 C5.552,3447.105 6,3446.657 6,3446.105 L6,3442.105 C6,3441.552 6.448,3441 7,3441 L11,3441 C11.552,3441 12,3440.552 12,3440 C12,3439.448 11.552,3439 11,3439 L5.5,3439 C4.672,3439 4,3439.776 4,3440.605 L4,3446.105 C4,3446.657 4.448,3447.105 5,3447.105 L5,3447.105 Z M11.035,3454.051 C11.035,3452.946 10.14,3452.051 9.035,3452.051 L9.035,3453.051 C9.035,3453.603 9.483,3454.051 10.035,3454.051 L11.035,3454.051 Z M9,3448.053 L9,3450.053 C11.206,3450.053 13,3452 13,3454 L15,3454 C15,3451 12.314,3448.053 9,3448.053 L9,3448.053 Z M10.141,3444.1 C14.766,3444.617 18.456,3448.277 18.973,3452.902 C19.039,3453.499 18.573,3454 17.973,3454 L17.035,3454 C17.035,3450 13,3446.051 9,3446.051 L9,3445.113 C9,3444.513 9.544,3444.034 10.141,3444.1 L10.141,3444.1 Z" id="rss_focus-[#1038]"></path>
            </g>
        </g>
    </g>
</svg>