<?xml version="1.0" encoding="UTF-8" standalone="no"?>
<svg width="20px" height="20px" viewBox="0 0 20 20" version="1.1" xmlns="http://www.w3.org/2000/svg" xmlns:xlink="http://www.w3.org/1999/xlink">
    <!-- Generator: Sketch 3.8.1 (29687) - http://www.bohemiancoding.com/sketch -->
    <title>rss_focus [#1037]</title>
    <desc>Created with Sketch.</desc>
    <defs></defs>
    <g id="Page-1" stroke="none" stroke-width="1" fill="none" fill-rule="evenodd">
        <g id="Dribbble-Dark-Preview" transform="translate(-100.000000, -3599.000000)" fill="#FFFFFF">
            <g id="icons" transform="translate(56.000000, 160.000000)">
                <path d="M56,3439 L56,3441 L62,3441 L62,3447 L64,3447 L64,3439 L56,3439 Z M62,3457 L56,3457 L56,3459 L64,3459 L64,3451 L62,3451 L62,3457 Z M46,3451 L44,3451 L44,3459 L52,3459 L52,3457 L46,3457 L46,3451 Z M46,3441 L52,3441 L52,3439 L44,3439 L44,3447 L46,3447 L46,3441 Z M49,3452.102 L49,3454.102 L51,3454.102 C51,3452.997 50.105,3452.102 49,3452.102 L49,3452.102 Z M49,3448.102 L49,3450.102 C51,3450.102 53.143,3452 53.143,3454 L55.143,3454 C55.143,3451 52,3448.102 49,3448.102 L49,3448.102 Z M49,3444.102 C54,3444.102 59.143,3448 59.143,3454 L57.143,3454 C57.143,3450 53,3446.102 49,3446.102 L49,3444.102 Z" id="rss_focus-[#1037]"></path>
            </g>
        </g>
    </g>
</svg>