<?xml version="1.0" encoding="UTF-8" standalone="no"?>
<svg width="20px" height="20px" viewBox="0 0 20 20" version="1.1" xmlns="http://www.w3.org/2000/svg" xmlns:xlink="http://www.w3.org/1999/xlink">
    <!-- Generator: Sketch 3.8.1 (29687) - http://www.bohemiancoding.com/sketch -->
    <title>ruler#4 [#865]</title>
    <desc>Created with Sketch.</desc>
    <defs></defs>
    <g id="Page-1" stroke="none" stroke-width="1" fill="none" fill-rule="evenodd">
        <g id="Dribbble-Dark-Preview" transform="translate(-260.000000, -4359.000000)" fill="#FFFFFF">
            <g id="icons" transform="translate(56.000000, 160.000000)">
                <path d="M210.428608,4212.57139 C210.823577,4212.96636 210.823577,4213.60579 210.428608,4213.99975 C210.033638,4214.39472 209.394212,4214.39472 209.000253,4213.99975 C208.605283,4213.60579 208.605283,4212.96636 209.000253,4212.57139 C209.394212,4212.17642 210.033638,4212.17642 210.428608,4212.57139 L210.428608,4212.57139 Z M219.713925,4206.14278 L218.28557,4204.71443 L216.857215,4206.14278 L218.28557,4207.57114 L216.857215,4208.99949 L215.42886,4207.57114 L214.000505,4208.99949 L215.42886,4210.42886 L214.000505,4211.85722 L212.57114,4210.42886 L211.142785,4211.85722 L212.57114,4213.28557 L209.71443,4216.14329 L206.85671,4213.28557 L218.28557,4201.85671 L221.14329,4204.71443 L219.713925,4206.14278 Z M222.571645,4203.28608 L219.713925,4200.42835 L218.28557,4199 L216.857215,4200.42835 L205.428355,4211.85722 L204,4213.28557 L205.428355,4214.71392 L208.286075,4217.57165 L209.71443,4219 L211.142785,4217.57165 L214.000505,4214.71392 L215.42886,4213.28557 L216.857215,4211.85722 L218.28557,4210.42886 L219.713925,4208.99949 L221.14329,4207.57114 L222.571645,4206.14278 L224,4204.71443 L222.571645,4203.28608 Z" id="ruler#4-[#865]"></path>
            </g>
        </g>
    </g>
</svg>