<?xml version="1.0" encoding="UTF-8" standalone="no"?>
<svg width="20px" height="8px" viewBox="0 0 20 8" version="1.1" xmlns="http://www.w3.org/2000/svg" xmlns:xlink="http://www.w3.org/1999/xlink">
    <!-- Generator: Sketch 3.8.1 (29687) - http://www.bohemiancoding.com/sketch -->
    <title>ruler#2_round [#867]</title>
    <desc>Created with Sketch.</desc>
    <defs></defs>
    <g id="Page-1" stroke="none" stroke-width="1" fill="none" fill-rule="evenodd">
        <g id="Dribbble-Dark-Preview" transform="translate(-180.000000, -4365.000000)" fill="#FFFFFF">
            <g id="icons" transform="translate(56.000000, 160.000000)">
                <path d="M127,4209 C127,4208.448 127.448,4208 128,4208 C128.552,4208 129,4208.448 129,4209 C129,4209.552 128.552,4210 128,4210 C127.448,4210 127,4209.552 127,4209 L127,4209 Z M142,4210 C142,4210.552 141.552,4211 141,4211 L140,4211 L140,4210 C140,4209.448 139.552,4209 139,4209 C138.448,4209 138,4209.448 138,4210 L138,4211 L136,4211 L136,4210 C136,4209.448 135.552,4209 135,4209 C134.448,4209 134,4209.448 134,4210 L134,4211 L132,4211 L132,4210 C132,4209.448 131.552,4209 131,4209 C130.448,4209 130,4209.448 130,4210 L130,4211 L127,4211 C126.448,4211 126,4210.552 126,4210 L126,4208 C126,4207.448 126.448,4207 127,4207 L141,4207 C141.552,4207 142,4207.448 142,4208 L142,4210 Z M142,4205 L126,4205 C124.895,4205 124,4205.895 124,4207 L124,4211 C124,4212.105 124.895,4213 126,4213 L130,4213 L132,4213 L134,4213 L136,4213 L138,4213 L140,4213 L142,4213 C143.105,4213 144,4212.105 144,4211 L144,4207 C144,4205.895 143.105,4205 142,4205 L142,4205 Z" id="ruler#2_round-[#867]"></path>
            </g>
        </g>
    </g>
</svg>