<?xml version="1.0" encoding="UTF-8" standalone="no"?>
<svg width="20px" height="8px" viewBox="0 0 20 8" version="1.1" xmlns="http://www.w3.org/2000/svg" xmlns:xlink="http://www.w3.org/1999/xlink">
    <!-- Generator: Sketch 3.8.1 (29687) - http://www.bohemiancoding.com/sketch -->
    <title>ruler#3 [#866]</title>
    <desc>Created with Sketch.</desc>
    <defs></defs>
    <g id="Page-1" stroke="none" stroke-width="1" fill="none" fill-rule="evenodd">
        <g id="Dribbble-Dark-Preview" transform="translate(-220.000000, -4365.000000)" fill="#FFFFFF">
            <g id="icons" transform="translate(56.000000, 160.000000)">
                <path d="M167,4209 C167,4208.448 167.448,4208 168,4208 C168.552,4208 169,4208.448 169,4209 C169,4209.552 168.552,4210 168,4210 C167.448,4210 167,4209.552 167,4209 L167,4209 Z M182,4211 L180,4211 L180,4209 L178,4209 L178,4211 L176,4211 L176,4209 L174,4209 L174,4211 L172,4211 L172,4209 L170,4209 L170,4211 L166,4211 L166,4207 L182,4207 L182,4211 Z M182,4205 L166,4205 L164,4205 L164,4207 L164,4211 L164,4213 L166,4213 L170,4213 L172,4213 L174,4213 L176,4213 L178,4213 L180,4213 L182,4213 L184,4213 L184,4211 L184,4207 L184,4205 L182,4205 Z" id="ruler#3-[#866]"></path>
            </g>
        </g>
    </g>
</svg>