<?xml version="1.0" encoding="UTF-8" standalone="no"?>
<svg width="20px" height="20px" viewBox="0 0 20 20" version="1.1" xmlns="http://www.w3.org/2000/svg" xmlns:xlink="http://www.w3.org/1999/xlink">
    <!-- Generator: Sketch 3.8.1 (29687) - http://www.bohemiancoding.com/sketch -->
    <title>ruler#1_round [#868]</title>
    <desc>Created with Sketch.</desc>
    <defs></defs>
    <g id="Page-1" stroke="none" stroke-width="1" fill="none" fill-rule="evenodd">
        <g id="Dribbble-Dark-Preview" transform="translate(-140.000000, -4359.000000)" fill="#FFFFFF">
            <g id="icons" transform="translate(56.000000, 160.000000)">
                <path d="M89.4995902,4213.50041 C89.8880362,4213.88886 89.8880362,4214.51772 89.4995902,4214.90517 C89.1111442,4215.29362 88.482279,4215.29362 88.0948265,4214.90517 C87.7063805,4214.51772 87.7063805,4213.88886 88.0948265,4213.50041 C88.482279,4213.11196 89.1111442,4213.11196 89.4995902,4213.50041 M101.310931,4204.4986 L98.6315476,4207.17798 L97.9291657,4206.4756 C97.5417132,4206.08715 96.912848,4206.08715 96.5244021,4206.4756 C96.1369496,4206.86305 96.1369496,4207.49291 96.5244021,4207.88036 L97.2267839,4208.58274 L95.8220202,4209.98751 L95.1196384,4209.28513 C94.7311924,4208.89767 94.1023272,4208.89767 93.7148747,4209.28513 C93.3264287,4209.67357 93.3264287,4210.30244 93.7148747,4210.69088 L94.4172565,4211.39326 L93.0124929,4212.79803 L92.3091176,4212.09565 C91.9216651,4211.7072 91.2927998,4211.7072 90.9043539,4212.09565 C90.5169014,4212.4831 90.5169014,4213.11196 90.9043539,4213.50041 L91.6067357,4214.20279 L89.4995902,4216.30994 C89.1111442,4216.69838 88.482279,4216.69838 88.0948265,4216.30994 L86.6900628,4214.90517 C86.3016169,4214.51772 86.3016169,4213.88886 86.6900628,4213.50041 L98.5014033,4201.68907 C98.8888558,4201.30062 99.517721,4201.30062 99.906167,4201.68907 L101.310931,4203.09383 C101.699377,4203.48228 101.699377,4204.11114 101.310931,4204.4986 M103.418076,4202.39145 L100.608549,4199.58192 C99.8326503,4198.80603 98.5749199,4198.80603 97.7990214,4199.58192 L84.5819239,4212.79803 C83.8060254,4213.57393 83.8060254,4214.83166 84.5819239,4215.60756 L87.3924447,4218.41808 C88.1683431,4219.19397 89.4260736,4219.19397 90.201972,4218.41808 L93.0124929,4215.60756 L94.4172565,4214.20279 L95.8220202,4212.79803 L97.2267839,4211.39326 L98.6315476,4209.98751 L100.037305,4208.58274 L103.418076,4205.20098 C104.193975,4204.42508 104.193975,4203.16735 103.418076,4202.39145" id="ruler#1_round-[#868]"></path>
            </g>
        </g>
    </g>
</svg>