<?xml version="1.0" encoding="UTF-8" standalone="no"?>
<svg width="20px" height="20px" viewBox="0 0 20 20" version="1.1" xmlns="http://www.w3.org/2000/svg" xmlns:xlink="http://www.w3.org/1999/xlink">
    <!-- Generator: Sketch 3.8.1 (29687) - http://www.bohemiancoding.com/sketch -->
    <title>satellite [#1013]</title>
    <desc>Created with Sketch.</desc>
    <defs></defs>
    <g id="Page-1" stroke="none" stroke-width="1" fill="none" fill-rule="evenodd">
        <g id="Dribbble-Dark-Preview" transform="translate(-260.000000, -3679.000000)" fill="#FFFFFF">
            <g id="icons" transform="translate(56.000000, 160.000000)">
                <path d="M221.407204,3533.35204 L222.820003,3534.76378 L218.581606,3539 L217.167807,3537.58826 L221.407204,3533.35204 Z M220.468002,3532.41354 L216.228606,3536.64876 L214.815807,3535.23702 L219.054204,3531.0008 L220.468002,3532.41354 Z M207.750812,3528.17732 L206.337014,3526.76558 L210.57641,3522.52935 L211.989209,3523.94109 L207.750812,3528.17732 Z M209.652196,3521.60583 L205.413798,3525.84205 L204,3524.43031 L208.239397,3520.19409 L209.652196,3521.60583 Z M211.28281,3533.11941 L209.87001,3531.70667 L214.109407,3527.47145 C214.97667,3528.33806 214.653944,3528.01657 215.522206,3528.88319 L211.28281,3533.11941 Z M218.07104,3522.95867 L220.037368,3524.92352 L217.481541,3525.51358 L218.07104,3522.95867 Z M217.111855,3527.64816 L224,3526.0597 L216.935005,3519 L215.345356,3525.88299 L214.109407,3524.64696 L207.044412,3531.70667 L211.28281,3535.94289 L218.347804,3528.88319 L217.111855,3527.64816 Z" id="satellite-[#1013]"></path>
            </g>
        </g>
    </g>
</svg>