<?xml version="1.0" encoding="UTF-8" standalone="no"?>
<svg width="21px" height="20px" viewBox="0 0 21 20" version="1.1" xmlns="http://www.w3.org/2000/svg" xmlns:xlink="http://www.w3.org/1999/xlink">
    <!-- Generator: Sketch 3.8.1 (29687) - http://www.bohemiancoding.com/sketch -->
    <title>save_item [#1408]</title>
    <desc>Created with Sketch.</desc>
    <defs></defs>
    <g id="Page-1" stroke="none" stroke-width="1" fill="none" fill-rule="evenodd">
        <g id="Dribbble-Dark-Preview" transform="translate(-139.000000, -680.000000)" fill="#FFFFFF">
            <g id="icons" transform="translate(56.000000, 160.000000)">
                <path d="M90.21875,525 L92.31875,525 L92.31875,523 L90.21875,523 L90.21875,525 Z M87.2,536 L99.8,536 L99.8,534 L87.2,534 L87.2,536 Z M87.2,532 L99.8,532 L99.8,530 L87.2,530 L87.2,532 Z M101.9,538 L85.1,538 L85.1,526.837 L87.2,524.837 L87.2,528 L88.11875,528 L89.3,528 L97.7,528 L99.47135,528 L99.8,528 L99.8,522 L101.9,522 L101.9,538 Z M89.3,522.837 L90.17885,522 L97.7,522 L97.7,526 L89.3,526 L89.3,522.837 Z M103.9664,520 L101.8664,520 L89.3,520 L89.3,520.008 L87.2084,522 L87.2,522 L87.2,522.008 L83.0084,526 L83,526 L83,538 L83,540 L85.1,540 L101.8664,540 L103.9664,540 L104,540 L104,538 L104,522 L104,520 L103.9664,520 Z" id="save_item-[#1408]"></path>
            </g>
        </g>
    </g>
</svg>