<?xml version="1.0" encoding="UTF-8" standalone="no"?>
<svg width="21px" height="20px" viewBox="0 0 21 20" version="1.1" xmlns="http://www.w3.org/2000/svg" xmlns:xlink="http://www.w3.org/1999/xlink">
    <!-- Generator: Sketch 3.8.1 (29687) - http://www.bohemiancoding.com/sketch -->
    <title>save_item [#1410]</title>
    <desc>Created with Sketch.</desc>
    <defs></defs>
    <g id="Page-1" stroke="none" stroke-width="1" fill="none" fill-rule="evenodd">
        <g id="Dribbble-Dark-Preview" transform="translate(-59.000000, -680.000000)" fill="#FFFFFF">
            <g id="icons" transform="translate(56.000000, 160.000000)">
                <path d="M10.21875,524 C10.21875,523.448 10.68915,523 11.26875,523 C11.84835,523 12.31875,523.448 12.31875,524 C12.31875,524.552 11.84835,525 11.26875,525 C10.68915,525 10.21875,524.552 10.21875,524 L10.21875,524 Z M19.8,535 C19.8,535.552 19.3296,536 18.75,536 L8.25,536 C7.6704,536 7.2,535.552 7.2,535 C7.2,534.448 7.6704,534 8.25,534 L18.75,534 C19.3296,534 19.8,534.448 19.8,535 L19.8,535 Z M19.8,531 C19.8,531.552 19.3296,532 18.75,532 L8.25,532 C7.6704,532 7.2,531.552 7.2,531 C7.2,530.448 7.6704,530 8.25,530 L18.75,530 C19.3296,530 19.8,530.448 19.8,531 L19.8,531 Z M21.9,537 C21.9,537.552 21.4296,538 20.85,538 L6.15,538 C5.5704,538 5.1,537.552 5.1,537 L5.1,527.044 C5.1,526.911 5.15565,526.784 5.2533,526.691 L7.2,524.837 L7.2,526 C7.2,527.105 8.13975,528 9.3,528 L17.7,528 C18.86025,528 19.8,527.105 19.8,526 L19.8,522 L20.85,522 C21.4296,522 21.9,522.448 21.9,523 L21.9,537 Z M9.3,522.837 L10.02555,522.146 C10.1232,522.053 10.2576,522 10.3962,522 L17.7,522 L17.7,525 C17.7,525.552 17.2296,526 16.65,526 L10.35,526 C9.7704,526 9.3,525.552 9.3,525 L9.3,522.837 Z M21.9,520 L9.75045,520 C9.4722,520 9.2055,520.105 9.00915,520.292 L3.31185,525.707 C3.11445,525.895 3.0042,526.149 3.0042,526.415 L3,538 C3,539.104 3.93975,540 5.09895,540 L21.9,540 C23.06025,540 24,539.105 24,538 L24,522 C24,520.895 23.06025,520 21.9,520 L21.9,520 Z" id="save_item-[#1410]"></path>
            </g>
        </g>
    </g>
</svg>