<?xml version="1.0" encoding="UTF-8" standalone="no"?>
<svg width="20px" height="20px" viewBox="0 0 20 20" version="1.1" xmlns="http://www.w3.org/2000/svg" xmlns:xlink="http://www.w3.org/1999/xlink">
    <!-- Generator: Sketch 3.8.1 (29687) - http://www.bohemiancoding.com/sketch -->
    <title>script [#1602]</title>
    <desc>Created with Sketch.</desc>
    <defs></defs>
    <g id="Page-1" stroke="none" stroke-width="1" fill="none" fill-rule="evenodd">
        <g id="Dribbble-Dark-Preview" transform="translate(-420.000000, -1879.000000)" fill="#FFFFFF">
            <g id="icons" transform="translate(56.000000, 160.000000)">
                <path d="M371,1732 L377,1732 L377,1730 L371,1730 L371,1732 Z M371,1729 L377,1729 L377,1723 L371,1723 L371,1729 Z M380,1723 L380,1721 C381.103,1721 382,1721.898 382,1723 L380,1723 Z M378,1735 C378,1736.103 377.103,1737 376,1737 L376,1733 L370,1733 L370,1723 C370,1721.898 370.897,1721 372,1721 L378,1721 L378,1735 Z M374,1737 L368,1737 C366.897,1737 366,1736.103 366,1735 L374,1735 L374,1737 Z M380,1719 L372,1719 C369.791,1719 368,1720.791 368,1723 L368,1733 L364,1733 L364,1735 C364,1737.21 365.791,1739 368,1739 L376,1739 C378.209,1739 380,1737.21 380,1735 L380,1725 L384,1725 L384,1723 C384,1720.791 382.209,1719 380,1719 L380,1719 Z" id="script-[#1602]"></path>
            </g>
        </g>
    </g>
</svg>