<?xml version="1.0" encoding="UTF-8" standalone="no"?>
<svg width="20px" height="20px" viewBox="0 0 20 20" version="1.1" xmlns="http://www.w3.org/2000/svg" xmlns:xlink="http://www.w3.org/1999/xlink">
    <!-- Generator: Sketch 3.8.1 (29687) - http://www.bohemiancoding.com/sketch -->
    <title>script [#1605]</title>
    <desc>Created with Sketch.</desc>
    <defs></defs>
    <g id="Page-1" stroke="none" stroke-width="1" fill="none" fill-rule="evenodd">
        <g id="Dribbble-Dark-Preview" transform="translate(-300.000000, -1879.000000)" fill="#FFFFFF">
            <g id="icons" transform="translate(56.000000, 160.000000)">
                <path d="M257,1731 C257,1731.552 256.552,1732 256,1732 L252,1732 C251.448,1732 251,1731.552 251,1731 C251,1730.448 251.448,1730 252,1730 L256,1730 C256.552,1730 257,1730.448 257,1731 L257,1731 Z M252,1723 L256,1723 C257.294,1723 257,1724.265 257,1728 C257,1728.552 256.552,1729 256,1729 L252,1729 C251.448,1729 251,1728.552 251,1728 L251,1724 C251,1723.448 251.448,1723 252,1723 L252,1723 Z M260,1723 L260,1721 C261.103,1721 262,1721.897 262,1723 L260,1723 Z M258,1735 C258,1736.103 257.103,1737 256,1737 L256,1735 C256,1733.895 255.105,1733 254,1733 L250,1733 L250,1723 C250,1721.895 250.895,1721 252,1721 L258,1721 L258,1735 Z M254,1737 L248,1737 C246.897,1737 246,1736.103 246,1735 L253,1735 C253.552,1735 254,1735.448 254,1736 L254,1737 Z M260,1719 L252,1719 C249.791,1719 248,1720.791 248,1723 L248,1733 L245,1733 C244.448,1733 244,1733.448 244,1734 L244,1735 C244,1737.209 245.791,1739 248,1739 L256,1739 C258.209,1739 260,1737.209 260,1735 L260,1725 L263,1725 C263.552,1725 264,1724.552 264,1724 L264,1723 C264,1720.791 262.209,1719 260,1719 L260,1719 Z" id="script-[#1605]"></path>
            </g>
        </g>
    </g>
</svg>