<?xml version="1.0" encoding="UTF-8" standalone="no"?>
<svg width="20px" height="20px" viewBox="0 0 20 20" version="1.1" xmlns="http://www.w3.org/2000/svg" xmlns:xlink="http://www.w3.org/1999/xlink">
    <!-- Generator: Sketch 3.8.1 (29687) - http://www.bohemiancoding.com/sketch -->
    <title>script [#1601]</title>
    <desc>Created with Sketch.</desc>
    <defs></defs>
    <g id="Page-1" stroke="none" stroke-width="1" fill="none" fill-rule="evenodd">
        <g id="Dribbble-Dark-Preview" transform="translate(-60.000000, -1919.000000)" fill="#FFFFFF">
            <g id="icons" transform="translate(56.000000, 160.000000)">
                <path d="M11,1769 L17,1769 L17,1767 L11,1767 L11,1769 Z M11,1765 L17,1765 L17,1763 L11,1763 L11,1765 Z M20,1763 L20,1761 C21.103,1761 22,1761.898 22,1763 L20,1763 Z M18,1775 C18,1776.103 17.103,1777 16,1777 L16,1773 L10,1773 L10,1763 C10,1761.898 10.897,1761 12,1761 L18,1761 L18,1775 Z M14,1777 L8,1777 C6.897,1777 6,1776.103 6,1775 L14,1775 L14,1777 Z M20,1759 L12,1759 C9.791,1759 8,1760.791 8,1763 L8,1773 L4,1773 L4,1775 C4,1777.21 5.791,1779 8,1779 L16,1779 C18.209,1779 20,1777.21 20,1775 L20,1765 L24,1765 L24,1763 C24,1760.791 22.209,1759 20,1759 L20,1759 Z" id="script-[#1601]"></path>
            </g>
        </g>
    </g>
</svg>