<?xml version="1.0" encoding="UTF-8" standalone="no"?>
<svg width="20px" height="20px" viewBox="0 0 20 20" version="1.1" xmlns="http://www.w3.org/2000/svg" xmlns:xlink="http://www.w3.org/1999/xlink">
    <!-- Generator: Sketch 3.8.1 (29687) - http://www.bohemiancoding.com/sketch -->
    <title>script [#1600]</title>
    <desc>Created with Sketch.</desc>
    <defs></defs>
    <g id="Page-1" stroke="none" stroke-width="1" fill="none" fill-rule="evenodd">
        <g id="Dribbble-Dark-Preview" transform="translate(-100.000000, -1919.000000)" fill="#FFFFFF">
            <g id="icons" transform="translate(56.000000, 160.000000)">
                <path d="M60.5,1763 L60.5,1761 C61.603,1761 62.5,1761.897 62.5,1763 L60.5,1763 Z M58,1775 C58,1776.103 58,1777 56,1777 L56,1773 L50,1773 L50,1763 C50,1761.897 51.397,1761 52.5,1761 L58,1761 L58,1775 Z M54,1777 L48.5,1777 C47.397,1777 46.5,1776.103 46.5,1775 L54,1775 L54,1777 Z M60.5,1759 L52.5,1759 C50.291,1759 48,1760.791 48,1763 L48,1773 L44,1773 L44,1775 C44,1777.209 46.291,1779 48.5,1779 L56.5,1779 C58.709,1779 60,1777.209 60,1775 L60,1765 L64,1765 L64,1763 C64,1760.791 62.709,1759 60.5,1759 L60.5,1759 Z" id="script-[#1600]"></path>
            </g>
        </g>
    </g>
</svg>