<?xml version="1.0" encoding="UTF-8" standalone="no"?>
<svg width="20px" height="20px" viewBox="0 0 20 20" version="1.1" xmlns="http://www.w3.org/2000/svg" xmlns:xlink="http://www.w3.org/1999/xlink">
    <!-- Generator: Sketch 3.8.1 (29687) - http://www.bohemiancoding.com/sketch -->
    <title>script [#1604]</title>
    <desc>Created with Sketch.</desc>
    <defs></defs>
    <g id="Page-1" stroke="none" stroke-width="1" fill="none" fill-rule="evenodd">
        <g id="Dribbble-Dark-Preview" transform="translate(-340.000000, -1879.000000)" fill="#FFFFFF">
            <g id="icons" transform="translate(56.000000, 160.000000)">
                <path d="M297,1728 C297,1728.552 296.552,1729 296,1729 L292,1729 C291.448,1729 291,1728.552 291,1728 C291,1727.448 291.448,1727 292,1727 L296,1727 C296.552,1727 297,1727.448 297,1728 L297,1728 Z M292,1723 L296,1723 C296.552,1723 297,1723.448 297,1724 C297,1724.552 296.552,1725 296,1725 L292,1725 C291.448,1725 291,1724.552 291,1724 C291,1723.448 291.448,1723 292,1723 L292,1723 Z M300,1723 L300,1721 C301.103,1721 302,1721.897 302,1723 L300,1723 Z M298,1735 C298,1736.103 297.103,1737 296,1737 L296,1735 C296,1733.895 295.105,1733 294,1733 L290,1733 L290,1723 C290,1721.895 290.895,1721 292,1721 L298,1721 L298,1735 Z M294,1737 L288,1737 C286.897,1737 286,1736.103 286,1735 L293,1735 C293.552,1735 294,1735.448 294,1736 L294,1737 Z M300,1719 L292,1719 C289.791,1719 288,1720.791 288,1723 L288,1733 L285,1733 C284.448,1733 284,1733.448 284,1734 L284,1735 C284,1737.209 285.791,1739 288,1739 L296,1739 C298.209,1739 300,1737.209 300,1735 L300,1725 L303,1725 C303.552,1725 304,1724.552 304,1724 L304,1723 C304,1720.791 302.209,1719 300,1719 L300,1719 Z" id="script-[#1604]"></path>
            </g>
        </g>
    </g>
</svg>