<?xml version="1.0" encoding="UTF-8" standalone="no"?>
<svg width="20px" height="20px" viewBox="0 0 20 20" version="1.1" xmlns="http://www.w3.org/2000/svg" xmlns:xlink="http://www.w3.org/1999/xlink">
    <!-- Generator: Sketch 3.8.1 (29687) - http://www.bohemiancoding.com/sketch -->
    <title>script [#1603]</title>
    <desc>Created with Sketch.</desc>
    <defs></defs>
    <g id="Page-1" stroke="none" stroke-width="1" fill="none" fill-rule="evenodd">
        <g id="Dribbble-Dark-Preview" transform="translate(-380.000000, -1879.000000)" fill="#FFFFFF">
            <g id="icons" transform="translate(56.000000, 160.000000)">
                <path d="M340,1723 L340,1721 C341.103,1721 342,1721.897 342,1723 L340,1723 Z M338,1735 C338,1736.103 337.103,1737 336,1737 L336,1735 C336,1733.895 335.105,1733 334,1733 L330,1733 L330,1723 C330,1721.895 330.895,1721 332,1721 L338,1721 L338,1735 Z M334,1737 L328,1737 C326.897,1737 326,1736.103 326,1735 L333,1735 C333.552,1735 334,1735.448 334,1736 L334,1737 Z M340,1719 L332,1719 C329.791,1719 328,1720.791 328,1723 L328,1733 L325,1733 C324.448,1733 324,1733.448 324,1734 L324,1735 C324,1737.209 325.791,1739 328,1739 L336,1739 C338.209,1739 340,1737.209 340,1735 L340,1725 L343,1725 C343.552,1725 344,1724.552 344,1724 L344,1723 C344,1720.791 342.209,1719 340,1719 L340,1719 Z" id="script-[#1603]"></path>
            </g>
        </g>
    </g>
</svg>