<?xml version="1.0" encoding="UTF-8" standalone="no"?>
<svg width="20px" height="20px" viewBox="0 0 20 20" version="1.1" xmlns="http://www.w3.org/2000/svg" xmlns:xlink="http://www.w3.org/1999/xlink">
    <!-- Generator: Sketch 3.8.1 (29687) - http://www.bohemiancoding.com/sketch -->
    <title>SD [#944]</title>
    <desc>Created with Sketch.</desc>
    <defs></defs>
    <g id="Page-1" stroke="none" stroke-width="1" fill="none" fill-rule="evenodd">
        <g id="Dribbble-Dark-Preview" transform="translate(-300.000000, -3999.000000)" fill="#FFFFFF">
            <g id="icons" transform="translate(56.000000, 160.000000)">
                <path d="M250.5,3851 L248,3851 C247.448,3851 247,3851.448 247,3852 C247,3852.552 247.448,3853 248,3853 L251,3853 C252.105,3853 253,3852.105 253,3851 L253,3850 C253,3848.895 252.105,3848 251,3848 L249.5,3848 C249.224,3848 249,3847.776 249,3847.5 C249,3847.224 249.224,3847 249.5,3847 L251,3847 L252,3847 C252.552,3847 253,3846.552 253,3846 C253,3845.448 252.552,3845 252,3845 L251,3845 L249.738,3845 C248.653,3845 247.62,3845.609 247.204,3846.611 C246.489,3848.333 247.757,3850 249.395,3850 L250.5,3850 C250.776,3850 251,3850.224 251,3850.5 C251,3850.776 250.776,3851 250.5,3851 L250.5,3851 Z M259,3847.5 C259,3847.224 258.776,3847 258.5,3847 L257,3847 L257,3851 L258.5,3851 C258.775,3851 259,3850.775 259,3850.5 L259,3847.5 Z M259,3853 L256,3853 C255.448,3853 255,3852.552 255,3852 L255,3846 C255,3845.448 255.448,3845 256,3845 L259,3845 C260.105,3845 261,3845.895 261,3847 L261,3851 C261,3852.105 260.105,3853 259,3853 L259,3853 Z M244,3841 L244,3842 C244,3842.552 244.448,3843 245,3843 C245.552,3843 246,3842.552 246,3842 C246,3841.448 246.448,3841 247,3841 L261,3841 C261.552,3841 262,3841.448 262,3842 C262,3842.552 262.448,3843 263,3843 C263.552,3843 264,3842.552 264,3842 L264,3841 C264,3839.895 263.105,3839 262,3839 L246,3839 C244.895,3839 244,3839.895 244,3841 L244,3841 Z M262,3856 L262,3856 C262,3855.448 262.448,3855 263,3855 C263.552,3855 264,3855.448 264,3856 L264,3857 C264,3858.105 263.105,3859 262,3859 L246,3859 C244.895,3859 244,3858.105 244,3857 L244,3856 C244,3855.448 244.448,3855 245,3855 C245.552,3855 246,3855.448 246,3856 C246,3856.552 246.448,3857 247,3857 L261,3857 C261.552,3857 262,3856.552 262,3856 L262,3856 Z" id="SD-[#944]"></path>
            </g>
        </g>
    </g>
</svg>