<?xml version="1.0" encoding="UTF-8" standalone="no"?>
<svg width="20px" height="20px" viewBox="0 0 20 20" version="1.1" xmlns="http://www.w3.org/2000/svg" xmlns:xlink="http://www.w3.org/1999/xlink">
    <!-- Generator: Sketch 3.8.1 (29687) - http://www.bohemiancoding.com/sketch -->
    <title>SD [#943]</title>
    <desc>Created with Sketch.</desc>
    <defs></defs>
    <g id="Page-1" stroke="none" stroke-width="1" fill="none" fill-rule="evenodd">
        <g id="Dribbble-Dark-Preview" transform="translate(-340.000000, -3999.000000)" fill="#FFFFFF">
            <g id="icons" transform="translate(56.000000, 160.000000)">
                <path d="M290.5,3851 L287,3851 L287,3853 L291,3853 C292.105,3853 293,3852.104 293,3851 L293,3850 C293,3848.895 292.105,3848 291,3848 L289.5,3848 C289.224,3848 289,3847.776 289,3847.5 C289,3847.224 289.224,3847 289.5,3847 L291,3847 L293,3847 L293,3845 L291,3845 L289.605,3845 C288.166,3845 287,3846.166 287,3847.605 C287,3848.922 288.078,3850 289.395,3850 L290.5,3850 C290.776,3850 291,3850.224 291,3850.5 C291,3850.776 290.776,3851 290.5,3851 L290.5,3851 Z M299,3847.5 C299,3847.224 298.776,3847 298.5,3847 L297,3847 L297,3851 L298.5,3851 C298.775,3851 299,3850.775 299,3850.5 L299,3847.5 Z M299,3853 L295,3853 L295,3845 L299,3845 C300.105,3845 301,3845.895 301,3847 L301,3851 C301,3852.104 300.105,3853 299,3853 L299,3853 Z M284,3839 L284,3843 L286,3843 L286,3841 L302,3841 L302,3843 L304,3843 L304,3839 L284,3839 Z M302,3855 L304,3855 L304,3859 L284,3859 L284,3855 L286,3855 L286,3857 L302,3857 L302,3855 Z" id="SD-[#943]"></path>
            </g>
        </g>
    </g>
</svg>