<?xml version="1.0" encoding="UTF-8" standalone="no"?>
<svg width="20px" height="20px" viewBox="0 0 20 20" version="1.1" xmlns="http://www.w3.org/2000/svg" xmlns:xlink="http://www.w3.org/1999/xlink">
    <!-- Generator: Sketch 3.8.1 (29687) - http://www.bohemiancoding.com/sketch -->
    <title>seat [#93]</title>
    <desc>Created with Sketch.</desc>
    <defs></defs>
    <g id="Page-1" stroke="none" stroke-width="1" fill="none" fill-rule="evenodd">
        <g id="Dribbble-Dark-Preview" transform="translate(-260.000000, -7799.000000)" fill="#FFFFFF">
            <g id="icons" transform="translate(56.000000, 160.000000)">
                <path d="M219.75,7651.175 L221.75,7651.175 L221.75,7649.175 L219.75,7649.175 L219.75,7651.175 Z M210,7649 L218,7649 L218,7641 L210,7641 L210,7649 Z M210,7653 L218,7653 L218,7651 L210,7651 L210,7653 Z M205.75,7651.175 L207.75,7651.175 L207.75,7649.175 L205.75,7649.175 L205.75,7651.175 Z M220,7647 L220,7639 L208,7639 L208,7647 L204,7647 L204,7653 L208,7653 L208,7655 L213,7655 L213,7657 L211,7657 L211,7659 L217,7659 L217,7657 L215,7657 L215,7655 L220,7655 L220,7653 L224,7653 L224,7647 L220,7647 Z" id="seat-[#93]"></path>
            </g>
        </g>
    </g>
</svg>