<?xml version="1.0" encoding="UTF-8" standalone="no"?>
<svg width="20px" height="20px" viewBox="0 0 20 20" version="1.1" xmlns="http://www.w3.org/2000/svg" xmlns:xlink="http://www.w3.org/1999/xlink">
    <!-- Generator: Sketch 3.8.1 (29687) - http://www.bohemiancoding.com/sketch -->
    <title>send_round [#1569]</title>
    <desc>Created with Sketch.</desc>
    <defs></defs>
    <g id="Page-1" stroke="none" stroke-width="1" fill="none" fill-rule="evenodd">
        <g id="Dribbble-Dark-Preview" transform="translate(-60.000000, -959.000000)" fill="#FFFFFF">
            <g id="icons" transform="translate(56.000000, 160.000000)">
                <path d="M15.732,809.137 L21.547,803.322 C21.859,803.01 22.393,803.222 22.406,803.663 L22.444,805.029 C22.46,805.581 22.92,806 23.472,806 L23.25,806 C23.802,806 24,805.524 24,804.972 L24,801 C24,799.9 23.1,799 22,799 L18.483,799 C17.93,799 17,799.425 17,799.977 L17,799.98 C17,800.532 17.647,800.994 18.199,801.009 L19.733,801.05 C20.174,801.061 20.387,801.595 20.076,801.907 L14.289,807.723 C13.899,808.113 13.913,808.746 14.304,809.137 C14.694,809.527 15.341,809.528 15.732,809.137 M24,812.011 L24,817.015 C24,818.117 23.55,819 22.448,819 L6.44,819 C5.338,819 4,818.117 4,817.015 L4,801.007 C4,799.904 5.338,799 6.44,799 L11.444,799 C11.996,799 12.444,799.448 12.444,800 C12.444,800.553 11.996,801 11.444,801 L7.444,801 C6.892,801 6,801.458 6,802.011 L6,815.015 C6,816.117 7.338,817 8.44,817 L21.444,817 C21.996,817 22,816.563 22,816.011 L22,812.011 C22,811.458 22.447,811.011 23,811.011 C23.552,811.011 24,811.458 24,812.011" id="send_round-[#1569]"></path>
            </g>
        </g>
    </g>
</svg>