<?xml version="1.0" encoding="UTF-8" standalone="no"?>
<svg width="21px" height="20px" viewBox="0 0 21 20" version="1.1" xmlns="http://www.w3.org/2000/svg" xmlns:xlink="http://www.w3.org/1999/xlink">
    <!-- Generator: Sketch 3.8.1 (29687) - http://www.bohemiancoding.com/sketch -->
    <title>settings [#1365]</title>
    <desc>Created with Sketch.</desc>
    <defs></defs>
    <g id="Page-1" stroke="none" stroke-width="1" fill="none" fill-rule="evenodd">
        <g id="Dribbble-Dark-Preview" transform="translate(-259.000000, -840.000000)" fill="#FFFFFF">
            <g id="icons" transform="translate(56.000000, 160.000000)">
                <path d="M211.261065,690.694762 C209.623062,692.25443 206.966811,692.25443 205.328807,690.694762 L203.614251,689.062203 C202.79525,688.282368 202.79525,687.018258 203.614251,686.238424 C204.433253,685.45859 205.761903,685.45859 206.580905,686.238424 C207.721845,687.3248 208.972894,687.224949 209.777214,686.458096 C210.587827,685.686249 210.685352,684.498026 209.541266,683.409653 C208.722264,682.629819 208.722264,681.36471 209.541266,680.584876 C210.361317,679.805041 211.688918,679.805041 212.50792,680.584876 L214.22667,682.221429 C215.864674,683.781098 215.864674,686.310317 214.22667,687.869985 L223.356286,696.563988 C225.318325,698.431197 222.350623,701.253977 220.390682,699.387767 L211.261065,690.694762 Z" id="settings-[#1365]"></path>
            </g>
        </g>
    </g>
</svg>