<?xml version="1.0" encoding="UTF-8" standalone="no"?>
<svg width="15px" height="20px" viewBox="0 0 15 20" version="1.1" xmlns="http://www.w3.org/2000/svg" xmlns:xlink="http://www.w3.org/1999/xlink">
    <!-- Generator: Sketch 3.8.1 (29687) - http://www.bohemiancoding.com/sketch -->
    <title>settings [#1390]</title>
    <desc>Created with Sketch.</desc>
    <defs></defs>
    <g id="Page-1" stroke="none" stroke-width="1" fill="none" fill-rule="evenodd">
        <g id="Dribbble-Dark-Preview" transform="translate(-62.000000, -760.000000)" fill="#FFFFFF">
            <g id="icons" transform="translate(56.000000, 160.000000)">
                <path d="M17.7857143,610 C17.4075,610 16.7142857,609.928 16.7142857,609.816 L16.7142857,620 L18.8571429,620 L18.8571429,609.816 C18.8571429,609.928 18.1639286,610 17.7857143,610 M18.8571429,602.184 L18.8571429,600 L16.7142857,600 L16.7142857,602.184 C15.6428571,602.597 14.5714286,603.696 14.5714286,605 C14.5714286,606.657 16.0103571,608 17.7857143,608 C19.5610714,608 21,606.657 21,605 C21,603.696 19.9285714,602.597 18.8571429,602.184 M10.2857143,610.184 L10.2857143,600 L8.14285714,600 L8.14285714,610.184 C8.47928571,610.072 8.83607143,610 9.21428571,610 C9.5925,610 10.2857143,610.072 10.2857143,610.184 M12.4285714,615 C12.4285714,616.304 11.3571429,617.403 10.2857143,617.816 L10.2857143,620 L8.14285714,620 L8.14285714,617.816 C7.07142857,617.403 6,616.304 6,615 C6,613.343 7.43892857,612 9.21428571,612 C10.9896429,612 12.4285714,613.343 12.4285714,615" id="settings-[#1390]"></path>
            </g>
        </g>
    </g>
</svg>