<?xml version="1.0" encoding="UTF-8" standalone="no"?>
<svg width="20px" height="20px" viewBox="0 0 20 20" version="1.1" xmlns="http://www.w3.org/2000/svg" xmlns:xlink="http://www.w3.org/1999/xlink">
    <!-- Generator: Sketch 3.8.1 (29687) - http://www.bohemiancoding.com/sketch -->
    <title>shaded [#36]</title>
    <desc>Created with Sketch.</desc>
    <defs></defs>
    <g id="Page-1" stroke="none" stroke-width="1" fill="none" fill-rule="evenodd">
        <g id="Dribbble-Dark-Preview" transform="translate(-140.000000, -8039.000000)" fill="#FFFFFF">
            <g id="icons" transform="translate(56.000000, 160.000000)">
                <path d="M93.1218,7896.9492 C92.3338,7896.8632 91.5798,7896.6642 90.8778,7896.3652 L101.3648,7885.8782 C101.6638,7886.5802 101.8628,7887.3342 101.9488,7888.1222 L93.1218,7896.9492 Z M96.2188,7896.6802 L101.6798,7891.2192 C100.9198,7893.8472 98.8478,7895.9192 96.2188,7896.6802 L96.2188,7896.6802 Z M89.1028,7895.3122 C88.5738,7894.9002 88.0998,7894.4262 87.6878,7893.8972 L98.8978,7882.6882 C99.4258,7883.0992 99.9008,7883.5742 100.3118,7884.1022 L89.1028,7895.3122 Z M86.6348,7892.1222 C86.3358,7891.4202 86.1368,7890.6662 86.0508,7889.8782 L94.8778,7881.0512 C95.6658,7881.1372 96.4198,7881.3362 97.1218,7881.6352 L86.6348,7892.1222 Z M91.7808,7881.3202 L86.3198,7886.7802 C87.0808,7884.1522 89.1528,7882.0802 91.7808,7881.3202 L91.7808,7881.3202 Z M103.9948,7888.9042 C103.9868,7888.0442 103.8638,7887.2142 103.6518,7886.4192 C103.4608,7885.7052 103.1988,7885.0212 102.8628,7884.3792 C102.5458,7883.7722 102.1718,7883.1992 101.7418,7882.6722 C101.3188,7882.1552 100.8448,7881.6812 100.3278,7881.2582 C99.8008,7880.8282 99.2278,7880.4542 98.6208,7880.1362 C97.9788,7879.8012 97.2948,7879.5392 96.5808,7879.3482 C95.7858,7879.1362 94.9548,7879.0132 94.0958,7879.0052 C94.0638,7879.0042 94.0318,7879.0002 93.9998,7879.0002 C88.4768,7879.0002 83.9998,7883.4772 83.9998,7889.0002 C83.9998,7889.0322 84.0048,7889.0632 84.0048,7889.0952 C84.0128,7889.9552 84.1368,7890.7852 84.3488,7891.5802 C84.5388,7892.2952 84.8008,7892.9792 85.1368,7893.6202 C85.4538,7894.2282 85.8278,7894.8012 86.2578,7895.3272 C86.6818,7895.8442 87.1548,7896.3182 87.6728,7896.7412 C88.1988,7897.1722 88.7718,7897.5462 89.3798,7897.8632 C90.0208,7898.1992 90.7048,7898.4612 91.4198,7898.6512 C92.2148,7898.8632 93.0448,7898.9872 93.9038,7898.9952 C93.9368,7898.9952 93.9678,7899.0002 93.9998,7899.0002 C99.5228,7899.0002 103.9998,7894.5232 103.9998,7889.0002 C103.9998,7888.9672 103.9958,7888.9362 103.9948,7888.9042 L103.9948,7888.9042 Z" id="shaded-[#36]"></path>
            </g>
        </g>
    </g>
</svg>