<?xml version="1.0" encoding="UTF-8" standalone="no"?>
<svg width="20px" height="20px" viewBox="0 0 20 20" version="1.1" xmlns="http://www.w3.org/2000/svg" xmlns:xlink="http://www.w3.org/1999/xlink">
    <!-- Generator: Sketch 3.8.1 (29687) - http://www.bohemiancoding.com/sketch -->
    <title>shaded [#35]</title>
    <desc>Created with Sketch.</desc>
    <defs></defs>
    <g id="Page-1" stroke="none" stroke-width="1" fill="none" fill-rule="evenodd">
        <g id="Dribbble-Dark-Preview" transform="translate(-180.000000, -8039.000000)" fill="#FFFFFF">
            <g id="icons" transform="translate(56.000000, 160.000000)">
                <path d="M142,7885.1716 L130.243,7896.9996 L127.414,7896.9996 L142,7882.3436 L142,7885.1716 Z M142,7890.8286 L135.899,7896.9996 L133.071,7896.9996 L142,7887.9996 L142,7890.8286 Z M142,7895.9996 C142,7896.5526 141.552,7896.9996 141,7896.9996 L138.728,7896.9996 L142,7893.6566 L142,7895.9996 Z M126,7892.6866 L137.757,7880.9996 L140.586,7880.9996 L126,7895.5146 L126,7892.6866 Z M126,7887.0296 L132.101,7880.9996 L134.929,7880.9996 L126,7889.8576 L126,7887.0296 Z M126,7881.9996 C126,7881.4476 126.448,7880.9996 127,7880.9996 L129.272,7880.9996 L126,7884.2006 L126,7881.9996 Z M142,7878.9996 L126,7878.9996 C124.896,7878.9996 124,7879.8956 124,7880.9996 L124,7896.9996 C124,7898.1046 124.896,7898.9996 126,7898.9996 L142,7898.9996 C143.104,7898.9996 144,7898.1046 144,7896.9996 L144,7880.9996 C144,7879.8956 143.104,7878.9996 142,7878.9996 L142,7878.9996 Z" id="shaded-[#35]"></path>
            </g>
        </g>
    </g>
</svg>