<?xml version="1.0" encoding="UTF-8" standalone="no"?>
<svg width="20px" height="20px" viewBox="0 0 20 20" version="1.1" xmlns="http://www.w3.org/2000/svg" xmlns:xlink="http://www.w3.org/1999/xlink">
    <!-- Generator: Sketch 3.8.1 (29687) - http://www.bohemiancoding.com/sketch -->
    <title>shaded [#34]</title>
    <desc>Created with Sketch.</desc>
    <defs></defs>
    <g id="Page-1" stroke="none" stroke-width="1" fill="none" fill-rule="evenodd">
        <g id="Dribbble-Dark-Preview" transform="translate(-220.000000, -8039.000000)" fill="#FFFFFF">
            <g id="icons" transform="translate(56.000000, 160.000000)">
                <path d="M182,7885.2756 L170.243,7896.9996 L167.414,7896.9996 L182,7882.4476 L182,7885.2756 Z M182,7890.9326 L175.899,7896.9996 L173.071,7896.9996 L182,7888.1036 L182,7890.9326 Z M182,7896.9996 L178.728,7896.9996 L182,7893.7606 L182,7896.9996 Z M166,7892.7906 L177.757,7880.9996 L180.586,7880.9996 L166,7895.6186 L166,7892.7906 Z M166,7887.1336 L172.101,7880.9996 L174.929,7880.9996 L166,7889.9616 L166,7887.1336 Z M166,7880.9996 L169.272,7880.9996 L166,7884.3046 L166,7880.9996 Z M164,7898.9996 L184,7898.9996 L184,7878.9996 L164,7878.9996 L164,7898.9996 Z" id="shaded-[#34]"></path>
            </g>
        </g>
    </g>
</svg>