<?xml version="1.0" encoding="UTF-8" standalone="no"?>
<svg width="20px" height="20px" viewBox="0 0 20 20" version="1.1" xmlns="http://www.w3.org/2000/svg" xmlns:xlink="http://www.w3.org/1999/xlink">
    <!-- Generator: Sketch 3.8.1 (29687) - http://www.bohemiancoding.com/sketch -->
    <title>Shape 1 copy 55 [#64]</title>
    <desc>Created with Sketch.</desc>
    <defs></defs>
    <g id="Page-1" stroke="none" stroke-width="1" fill="none" fill-rule="evenodd">
        <g id="Dribbble-Dark-Preview" transform="translate(-220.000000, -7919.000000)" fill="#FFFFFF">
            <g id="icons" transform="translate(56.000000, 160.000000)">
                <path d="M184,7769 C184,7769.552 183.552,7770 183,7770 L165,7770 C164.448,7770 164,7769.552 164,7769 C164,7768.448 164.448,7768 165,7768 L183,7768 C183.552,7768 184,7768.448 184,7769 L184,7769 Z M180,7776 C180,7776.552 179.552,7777 179,7777 L169,7777 C168.448,7777 168,7776.552 168,7776 L168,7775 C168,7774.448 168.448,7774 169,7774 L179,7774 C179.552,7774 180,7774.448 180,7775 L180,7776 Z M180,7772 L168,7772 C166.896,7772 166,7772.895 166,7774 L166,7777 C166,7778.105 166.896,7779 168,7779 L180,7779 C181.105,7779 182,7778.105 182,7777 L182,7774 C182,7772.895 181.105,7772 180,7772 L180,7772 Z M168,7762 C168,7761.448 168.448,7761 169,7761 L179,7761 C179.552,7761 180,7761.448 180,7762 L180,7763 C180,7763.552 179.552,7764 179,7764 L169,7764 C168.448,7764 168,7763.552 168,7763 L168,7762 Z M167,7766 L180,7766 C181.105,7766 182,7765.105 182,7764 L182,7761 C182,7759.895 181.105,7759 180,7759 L168,7759 C166.896,7759 166,7759.895 166,7761 L166,7765 C166,7765.552 166.448,7766 167,7766 L167,7766 Z" id="Shape-1-copy-55-[#64]"></path>
            </g>
        </g>
    </g>
</svg>