<?xml version="1.0" encoding="UTF-8" standalone="no"?>
<svg width="20px" height="20px" viewBox="0 0 20 20" version="1.1" xmlns="http://www.w3.org/2000/svg" xmlns:xlink="http://www.w3.org/1999/xlink">
    <!-- Generator: Sketch 3.8.1 (29687) - http://www.bohemiancoding.com/sketch -->
    <title>Shape 1 copy 56 [#63]</title>
    <desc>Created with Sketch.</desc>
    <defs></defs>
    <g id="Page-1" stroke="none" stroke-width="1" fill="none" fill-rule="evenodd">
        <g id="Dribbble-Dark-Preview" transform="translate(-260.000000, -7919.000000)" fill="#FFFFFF">
            <g id="icons" transform="translate(56.000000, 160.000000)">
                <path d="M204,7770 L224,7770 L224,7768 L204,7768 L204,7770 Z M208,7777 L220,7777 L220,7774 L208,7774 L208,7777 Z M208,7772 L206,7772 L206,7774 L206,7777 L206,7779 L208,7779 L220,7779 L222,7779 L222,7777 L222,7774 L222,7772 L220,7772 L208,7772 Z M208,7764 L220,7764 L220,7761 L208,7761 L208,7764 Z M220,7766 L222,7766 L222,7764 L222,7761 L222,7759 L220,7759 L208,7759 L206,7759 L206,7761 L206,7764 L206,7766 L208,7766 L220,7766 Z" id="Shape-1-copy-56-[#63]"></path>
            </g>
        </g>
    </g>
</svg>