<?xml version="1.0" encoding="UTF-8" standalone="no"?>
<svg width="20px" height="20px" viewBox="0 0 20 20" version="1.1" xmlns="http://www.w3.org/2000/svg" xmlns:xlink="http://www.w3.org/1999/xlink">
    <!-- Generator: Sketch 3.8.1 (29687) - http://www.bohemiancoding.com/sketch -->
    <title>share [#1102]</title>
    <desc>Created with Sketch.</desc>
    <defs></defs>
    <g id="Page-1" stroke="none" stroke-width="1" fill="none" fill-rule="evenodd">
        <g id="Dribbble-Dark-Preview" transform="translate(-300.000000, -3319.000000)" fill="#FFFFFF">
            <g id="icons" transform="translate(56.000000, 160.000000)">
                <path d="M260,3177 C258.897,3177 258,3176.103 258,3175 C258,3172.357 262,3172.356 262,3175 C262,3176.103 261.103,3177 260,3177 M251.875,3163 C251.875,3161.897 252.772,3161 253.875,3161 C254.978,3161 255.875,3161.897 255.875,3163 C255.875,3165.643 251.875,3165.644 251.875,3163 M248,3177 C246.897,3177 246,3176.103 246,3175 C246,3173.897 246.897,3173 248,3173 C249.103,3173 250,3173.897 250,3175 C250,3176.103 249.103,3177 248,3177 M259.399,3171.061 L256.49,3166.005 C257.332,3165.272 257.875,3164.204 257.875,3163 C257.875,3160.791 256.084,3159 253.875,3159 C251.666,3159 249.875,3160.791 249.875,3163 C249.875,3164.221 250.434,3165.3 251.296,3166.034 L248.405,3171.041 C245.919,3170.788 244,3172.731 244,3175 C244,3177.209 245.791,3179 248,3179 C250.209,3179 252,3177.209 252,3175 C252,3173.653 251.329,3172.468 250.309,3171.743 L253.093,3166.921 C253.637,3167.029 254.161,3167.026 254.704,3166.912 L257.551,3171.859 C256.613,3172.591 256,3173.719 256,3175 C256,3177.209 257.791,3179 260,3179 C262.209,3179 264,3177.209 264,3175 C264,3172.638 261.928,3170.676 259.399,3171.061" id="share-[#1102]"></path>
            </g>
        </g>
    </g>
</svg>