<?xml version="1.0" encoding="UTF-8" standalone="no"?>
<svg width="20px" height="20px" viewBox="0 0 20 20" version="1.1" xmlns="http://www.w3.org/2000/svg" xmlns:xlink="http://www.w3.org/1999/xlink">
    <!-- Generator: Sketch 3.8.1 (29687) - http://www.bohemiancoding.com/sketch -->
    <title>share [#1101]</title>
    <desc>Created with Sketch.</desc>
    <defs></defs>
    <g id="Page-1" stroke="none" stroke-width="1" fill="none" fill-rule="evenodd">
        <g id="Dribbble-Dark-Preview" transform="translate(-340.000000, -3319.000000)" fill="#FFFFFF">
            <g id="icons" transform="translate(56.000000, 160.000000)">
                <path d="M300,3177 C298.897,3177 298,3176.103 298,3175 C298,3173.897 298.897,3173 300,3173 C301.103,3173 302,3173.897 302,3175 C302,3176.103 301.103,3177 300,3177 M296.141,3174 L291.859,3174 C291.619,3173 291.066,3172.281 290.309,3171.743 L293.093,3166.921 C293.637,3167.029 294.161,3167.026 294.704,3166.912 L297.551,3171.859 C296.868,3172.392 296.365,3173 296.141,3174 M288,3177 C286.897,3177 286,3176.103 286,3175 C286,3173.897 286.897,3173 288,3173 C289.103,3173 290,3173.897 290,3175 C290,3176.103 289.103,3177 288,3177 M293.875,3161 C294.978,3161 295.875,3161.897 295.875,3163 C295.875,3164.103 294.978,3165 293.875,3165 C292.772,3165 291.875,3164.103 291.875,3163 C291.875,3161.897 292.772,3161 293.875,3161 M299.399,3171.061 L296.49,3166.005 C297.332,3165.272 297.875,3164.204 297.875,3163 C297.875,3160.791 296.084,3159 293.875,3159 C291.666,3159 289.875,3160.791 289.875,3163 C289.875,3164.221 290.434,3165.3 291.296,3166.034 L288.405,3171.041 C285.919,3170.788 284,3172.731 284,3175 C284,3177.209 285.791,3179 288,3179 C289.862,3179 291.412,3178 291.859,3176 L296.141,3176 C296.587,3178 298.138,3179 300,3179 C302.209,3179 304,3177.209 304,3175 C304,3172.638 301.928,3170.676 299.399,3171.061" id="share-[#1101]"></path>
            </g>
        </g>
    </g>
</svg>