<?xml version="1.0" encoding="UTF-8" standalone="no"?>
<svg width="20px" height="20px" viewBox="0 0 20 20" version="1.1" xmlns="http://www.w3.org/2000/svg" xmlns:xlink="http://www.w3.org/1999/xlink">
    <!-- Generator: Sketch 3.8.1 (29687) - http://www.bohemiancoding.com/sketch -->
    <title>share [#1100]</title>
    <desc>Created with Sketch.</desc>
    <defs></defs>
    <g id="Page-1" stroke="none" stroke-width="1" fill="none" fill-rule="evenodd">
        <g id="Dribbble-Dark-Preview" transform="translate(-380.000000, -3319.000000)" fill="#FFFFFF">
            <g id="icons" transform="translate(56.000000, 160.000000)">
                <path d="M340,3170.875 C338.897,3170.875 338,3169.978 338,3168.875 C338,3167.772 338.897,3166.875 340,3166.875 C341.103,3166.875 342,3167.772 342,3168.875 C342,3169.978 341.103,3170.875 340,3170.875 M328,3177 C326.897,3177 326,3176.103 326,3175 C326,3173.897 326.897,3173 328,3173 C330.643,3173 330.644,3177 328,3177 M328,3165 C326.897,3165 326,3164.103 326,3163 C326,3161.897 326.897,3161 328,3161 C330.643,3161 330.644,3165 328,3165 M340,3164.875 C338.779,3164.875 337.7,3165.434 336.966,3166.296 L331.959,3163.405 C332.212,3160.919 330.269,3159 328,3159 C325.791,3159 324,3160.791 324,3163 C324,3165.209 325.791,3167 328,3167 C329.347,3167 330.532,3166.329 331.257,3165.309 L336.079,3168.093 C335.971,3168.637 335.974,3169.161 336.088,3169.704 L331.141,3172.551 C330.409,3171.613 329.281,3171 328,3171 C325.791,3171 324,3172.791 324,3175 C324,3177.209 325.791,3179 328,3179 C330.362,3179 332.324,3176.928 331.939,3174.399 L336.995,3171.49 C337.728,3172.332 338.796,3172.875 340,3172.875 C342.209,3172.875 344,3171.084 344,3168.875 C344,3166.666 342.209,3164.875 340,3164.875" id="share-[#1100]"></path>
            </g>
        </g>
    </g>
</svg>