<?xml version="1.0" encoding="UTF-8" standalone="no"?>
<svg width="20px" height="20px" viewBox="0 0 20 20" version="1.1" xmlns="http://www.w3.org/2000/svg" xmlns:xlink="http://www.w3.org/1999/xlink">
    <!-- Generator: Sketch 3.8.1 (29687) - http://www.bohemiancoding.com/sketch -->
    <title>ship_round [#614]</title>
    <desc>Created with Sketch.</desc>
    <defs></defs>
    <g id="Page-1" stroke="none" stroke-width="1" fill="none" fill-rule="evenodd">
        <g id="Dribbble-Dark-Preview" transform="translate(-220.000000, -5479.000000)" fill="#FFFFFF">
            <g id="icons" transform="translate(56.000000, 160.000000)">
                <path d="M174.000058,5320.00172 L174.002058,5332.99972 L182.998058,5332.99972 C183.790058,5332.99972 184.267058,5332.12472 183.840058,5331.45872 L175.841058,5319.46072 C175.301058,5318.62172 174.000058,5319.00372 174.000058,5320.00172 M183.893058,5336.44672 L182.893058,5338.44672 C182.724058,5338.78572 182.377058,5338.99972 181.999058,5338.99972 L166.502058,5338.99972 C166.187058,5338.99972 165.891058,5338.85172 165.702058,5338.59972 L164.202058,5336.59972 C163.707058,5335.94072 164.178058,5334.99972 165.002058,5334.99972 L182.999058,5334.99972 C183.742058,5334.99972 184.226058,5335.78272 183.893058,5336.44672" id="ship_round-[#614]"></path>
            </g>
        </g>
    </g>
</svg>