<?xml version="1.0" encoding="UTF-8" standalone="no"?>
<svg width="20px" height="20px" viewBox="0 0 20 20" version="1.1" xmlns="http://www.w3.org/2000/svg" xmlns:xlink="http://www.w3.org/1999/xlink">
    <!-- Generator: Sketch 3.8.1 (29687) - http://www.bohemiancoding.com/sketch -->
    <title>ship_round [#613]</title>
    <desc>Created with Sketch.</desc>
    <defs></defs>
    <g id="Page-1" stroke="none" stroke-width="1" fill="none" fill-rule="evenodd">
        <g id="Dribbble-Dark-Preview" transform="translate(-260.000000, -5479.000000)" fill="#FFFFFF">
            <g id="icons" transform="translate(56.000000, 160.000000)">
                <path d="M215.000058,5320.00172 L215.000058,5332.99972 L222.998058,5332.99972 C223.790058,5332.99972 224.267058,5332.12472 223.840058,5331.45872 L216.841058,5319.46072 C216.301058,5318.62172 215.000058,5319.00372 215.000058,5320.00172 M211.168058,5325.74772 L207.036058,5331.44472 C206.593058,5332.10972 207.070058,5332.99972 207.869058,5332.99972 L213.000058,5332.99972 L213.000058,5326.30272 C213.000058,5325.31372 211.717058,5324.92472 211.168058,5325.74772 M223.893058,5336.44672 L222.893058,5338.44672 C222.724058,5338.78572 222.377058,5338.99972 221.999058,5338.99972 L206.502058,5338.99972 C206.187058,5338.99972 205.891058,5338.85172 205.702058,5338.59972 L204.202058,5336.59972 C203.707058,5335.94072 204.178058,5334.99972 205.002058,5334.99972 L222.999058,5334.99972 C223.742058,5334.99972 224.226058,5335.78272 223.893058,5336.44672" id="ship_round-[#613]"></path>
            </g>
        </g>
    </g>
</svg>