<?xml version="1.0" encoding="UTF-8" standalone="no"?>
<svg width="20px" height="20px" viewBox="0 0 20 20" version="1.1" xmlns="http://www.w3.org/2000/svg" xmlns:xlink="http://www.w3.org/1999/xlink">
    <!-- Generator: Sketch 3.8.1 (29687) - http://www.bohemiancoding.com/sketch -->
    <title>shopping_bag_play] [#1141]</title>
    <desc>Created with Sketch.</desc>
    <defs></defs>
    <g id="Page-1" stroke="none" stroke-width="1" fill="none" fill-rule="evenodd">
        <g id="Dribbble-Dark-Preview" transform="translate(-380.000000, -3079.000000)" fill="#FFFFFF">
            <g id="icons" transform="translate(56.000000, 160.000000)">
                <path d="M335.573,2932.9397 L333.511,2934.17269 C332.846,2934.5704 332,2934.09295 332,2933.31946 L332,2930.85348 C332,2930.07999 332.846,2929.60254 333.511,2930.00025 L335.573,2931.23324 C336.219,2931.61999 336.219,2932.55295 335.573,2932.9397 L335.573,2932.9397 Z M342,2936.00972 C342,2936.55993 341.552,2937.00648 341,2937.00648 L327,2937.00648 C326.447,2937.00648 326,2936.55993 326,2936.00972 L326,2928.03563 C326,2927.48443 326.447,2927.03887 327,2927.03887 L341,2927.03887 C341.552,2927.03887 342,2927.48443 342,2928.03563 L342,2936.00972 Z M334,2920.98455 C336.259,2920.98455 338.221,2923.05183 338.813,2925.04535 L329.096,2925.04535 C329.542,2923.05183 331.603,2920.98455 334,2920.98455 L334,2920.98455 Z M342,2925.04535 L340.876,2925.04535 C340.264,2922.05507 337.366,2919 334,2919 C330.53,2919 327.56,2922.05507 327.076,2925.04535 L326,2925.04535 C324.895,2925.04535 324,2926.00125 324,2927.10267 L324,2937.07027 C324,2938.17169 324.895,2939 326,2939 L342,2939 C343.104,2939 344,2938.17169 344,2937.07027 L344,2927.10267 C344,2926.00125 343.104,2925.04535 342,2925.04535 L342,2925.04535 Z" id="shopping_bag_play]-[#1141]"></path>
            </g>
        </g>
    </g>
</svg>