<?xml version="1.0" encoding="UTF-8" standalone="no"?>
<svg width="20px" height="20px" viewBox="0 0 20 20" version="1.1" xmlns="http://www.w3.org/2000/svg" xmlns:xlink="http://www.w3.org/1999/xlink">
    <!-- Generator: Sketch 3.8.1 (29687) - http://www.bohemiancoding.com/sketch -->
    <title>shopping_bag_minus [#1147]</title>
    <desc>Created with Sketch.</desc>
    <defs></defs>
    <g id="Page-1" stroke="none" stroke-width="1" fill="none" fill-rule="evenodd">
        <g id="Dribbble-Dark-Preview" transform="translate(-140.000000, -3079.000000)" fill="#FFFFFF">
            <g id="icons" transform="translate(56.000000, 160.000000)">
                <path d="M91,2933.01914 L97,2933.01914 L97,2931.02552 L91,2931.02552 L91,2933.01914 Z M86,2937.00638 L102,2937.00638 L102,2927.03828 L86,2927.03828 L86,2937.00638 Z M94,2920.98465 C96.259,2920.98465 98.221,2923.05104 98.813,2925.04466 L89.096,2925.04466 C89.543,2923.05104 91.604,2920.98465 94,2920.98465 L94,2920.98465 Z M100.876,2925.04466 C100.265,2922.05423 97.367,2919 94,2919 C90.53,2919 87.56,2922.05423 87.077,2925.04466 L84,2925.04466 L84,2939 L104,2939 L104,2925.04466 L100.876,2925.04466 Z" id="shopping_bag_minus-[#1147]"></path>
            </g>
        </g>
    </g>
</svg>