<?xml version="1.0" encoding="UTF-8" standalone="no"?>
<svg width="20px" height="19px" viewBox="0 0 20 19" version="1.1" xmlns="http://www.w3.org/2000/svg" xmlns:xlink="http://www.w3.org/1999/xlink">
    <!-- Generator: Sketch 3.8.1 (29687) - http://www.bohemiancoding.com/sketch -->
    <title>shopping_cart_round [#1137]</title>
    <desc>Created with Sketch.</desc>
    <defs></defs>
    <g id="Page-1" stroke="none" stroke-width="1" fill="none" fill-rule="evenodd">
        <g id="Dribbble-Dark-Preview" transform="translate(-140.000000, -3120.000000)" fill="#FFFFFF">
            <g id="icons" transform="translate(56.000000, 160.000000)">
                <path d="M98.477,2976.95566 L89.541,2976.95566 C89.052,2976.95566 88.635,2976.59484 88.555,2976.10113 L87.361,2968.77831 L100.819,2968.77831 L99.46,2976.12362 C99.37,2976.60608 98.958,2976.95566 98.477,2976.95566 L98.477,2976.95566 Z M101,2966.73398 L97.473,2960.51101 C97.198,2960.02651 96.592,2959.85887 96.116,2960.1369 L96.116,2960.1369 C95.635,2960.41697 95.47,2961.04356 95.747,2961.53216 L98.69,2966.73398 L89.309,2966.73398 L92.257,2961.53625 C92.532,2961.0497 92.371,2960.42822 91.897,2960.14405 L91.888,2960.13894 C91.411,2959.85478 90.798,2960.02037 90.522,2960.50897 L87,2966.73398 L85,2966.73398 C84.447,2966.73398 84,2967.19191 84,2967.75614 C84,2968.32038 84.447,2968.77831 85,2968.77831 L85.333,2968.77831 L86.721,2977.29196 C86.882,2978.27733 87.716,2979 88.694,2979 L99.305,2979 C100.283,2979 101.118,2978.27733 101.278,2977.29196 L102.666,2968.77831 L103,2968.77831 C103.552,2968.77831 104,2968.32038 104,2967.75614 C104,2967.19191 103.552,2966.73398 103,2966.73398 L101,2966.73398 Z" id="shopping_cart_round-[#1137]"></path>
            </g>
        </g>
    </g>
</svg>