<?xml version="1.0" encoding="UTF-8" standalone="no"?>
<svg width="20px" height="20px" viewBox="0 0 20 20" version="1.1" xmlns="http://www.w3.org/2000/svg" xmlns:xlink="http://www.w3.org/1999/xlink">
    <!-- Generator: Sketch 3.8.1 (29687) - http://www.bohemiancoding.com/sketch -->
    <title>shopping_bag_plus [#1145]</title>
    <desc>Created with Sketch.</desc>
    <defs></defs>
    <g id="Page-1" stroke="none" stroke-width="1" fill="none" fill-rule="evenodd">
        <g id="Dribbble-Dark-Preview" transform="translate(-220.000000, -3079.000000)" fill="#FFFFFF">
            <g id="icons" transform="translate(56.000000, 160.000000)">
                <path d="M173,2933.01914 L171,2933.01914 L171,2931.02552 L173,2931.02552 L173,2929.0319 L175,2929.0319 L175,2931.02552 L177,2931.02552 L177,2933.01914 L175,2933.01914 L175,2935.01276 L173,2935.01276 L173,2933.01914 Z M166,2937.00638 L182,2937.00638 L182,2927.03828 L166,2927.03828 L166,2937.00638 Z M174,2920.98465 C176.259,2920.98465 178.221,2923.05104 178.813,2925.04466 L169.096,2925.04466 C169.543,2923.05104 171.604,2920.98465 174,2920.98465 L174,2920.98465 Z M180.876,2925.04466 C180.265,2922.05423 177.367,2919 174,2919 C170.53,2919 167.56,2922.05423 167.077,2925.04466 L164,2925.04466 L164,2939 L184,2939 L184,2925.04466 L180.876,2925.04466 Z" id="shopping_bag_plus-[#1145]"></path>
            </g>
        </g>
    </g>
</svg>