<?xml version="1.0" encoding="UTF-8" standalone="no"?>
<svg width="20px" height="19px" viewBox="0 0 20 19" version="1.1" xmlns="http://www.w3.org/2000/svg" xmlns:xlink="http://www.w3.org/1999/xlink">
    <!-- Generator: Sketch 3.8.1 (29687) - http://www.bohemiancoding.com/sketch -->
    <title>shopping_cart_minus [#1133]</title>
    <desc>Created with Sketch.</desc>
    <defs></defs>
    <g id="Page-1" stroke="none" stroke-width="1" fill="none" fill-rule="evenodd">
        <g id="Dribbble-Dark-Preview" transform="translate(-300.000000, -3120.000000)" fill="#FFFFFF">
            <g id="icons" transform="translate(56.000000, 160.000000)">
                <path d="M251,2973.98866 L257,2973.98866 L257,2971.98412 L251,2971.98412 L251,2973.98866 Z M259.306,2976.99546 L248.694,2976.99546 L247.361,2968.97732 L260.82,2968.97732 L259.306,2976.99546 Z M261,2966.97278 L256.977,2960.01203 L255.245,2961.00227 L258.691,2966.97278 L249.309,2966.97278 L252.755,2961.0143 L251.023,2960 L247,2966.97278 L244,2966.97278 L244,2968.97732 L245.333,2968.97732 L247,2979 L261,2979 L262.667,2968.97732 L264,2968.97732 L264,2966.97278 L261,2966.97278 Z" id="shopping_cart_minus-[#1133]"></path>
            </g>
        </g>
    </g>
</svg>