<?xml version="1.0" encoding="UTF-8" standalone="no"?>
<svg width="20px" height="20px" viewBox="0 0 20 20" version="1.1" xmlns="http://www.w3.org/2000/svg" xmlns:xlink="http://www.w3.org/1999/xlink">
    <!-- Generator: Sketch 3.8.1 (29687) - http://www.bohemiancoding.com/sketch -->
    <title>shopping_bag_close [#1146]</title>
    <desc>Created with Sketch.</desc>
    <defs></defs>
    <g id="Page-1" stroke="none" stroke-width="1" fill="none" fill-rule="evenodd">
        <g id="Dribbble-Dark-Preview" transform="translate(-180.000000, -3079.000000)" fill="#FFFFFF">
            <g id="icons" transform="translate(56.000000, 160.000000)">
                <path d="M131.172,2933.46399 L132.586,2932.05457 L131.172,2930.64515 L132.586,2929.23474 L134,2930.64515 L135.415,2929.23474 L136.829,2930.64515 L135.415,2932.05457 L136.829,2933.46399 L135.415,2934.87341 L134,2933.46399 L132.586,2934.87341 L131.172,2933.46399 Z M126,2937.00648 L142,2937.00648 L142,2927.03887 L126,2927.03887 L126,2937.00648 Z M134,2920.98455 C136.26,2920.98455 138.222,2923.05183 138.814,2925.04535 L129.096,2925.04535 C129.543,2923.05183 131.604,2920.98455 134,2920.98455 L134,2920.98455 Z M140.877,2925.04535 C140.265,2922.05507 137.367,2919 134,2919 C130.531,2919 127.56,2922.05507 127.077,2925.04535 L124,2925.04535 L124,2939 L144,2939 L144,2925.04535 L140.877,2925.04535 Z" id="shopping_bag_close-[#1146]"></path>
            </g>
        </g>
    </g>
</svg>