<?xml version="1.0" encoding="UTF-8" standalone="no"?>
<svg width="20px" height="19px" viewBox="0 0 20 19" version="1.1" xmlns="http://www.w3.org/2000/svg" xmlns:xlink="http://www.w3.org/1999/xlink">
    <!-- Generator: Sketch 3.8.1 (29687) - http://www.bohemiancoding.com/sketch -->
    <title>shopping_cart_love [#1119]</title>
    <desc>Created with Sketch.</desc>
    <defs></defs>
    <g id="Page-1" stroke="none" stroke-width="1" fill="none" fill-rule="evenodd">
        <g id="Dribbble-Dark-Preview" transform="translate(-60.000000, -3200.000000)" fill="#FFFFFF">
            <g id="icons" transform="translate(56.000000, 160.000000)">
                <path d="M15.701,3054.81641 C14.115,3056.27579 13.842,3056.62159 11.852,3054.7663 C9.237,3052.33065 12.066,3049.6725 13.688,3051.73327 C13.746,3051.80845 13.862,3051.80644 13.92,3051.73227 C15.506,3049.70357 18.427,3052.31161 15.701,3054.81641 L15.701,3054.81641 Z M19.306,3056.95236 L8.694,3056.95236 L7.361,3048.93379 L20.639,3048.93379 L19.306,3056.95236 L19.306,3056.95236 Z M21,3046.92915 L16.976,3039.96803 L15.244,3040.95932 L18.691,3046.92915 L9.309,3046.92915 L12.755,3040.97035 L11.023,3039.957 L7,3046.92915 L4,3046.92915 L4,3048.93379 L5.333,3048.93379 L7,3058.957 L21,3058.957 L22.667,3048.93379 L24,3048.93379 L24,3046.92915 L21,3046.92915 L21,3046.92915 Z" id="shopping_cart_love-[#1119]"></path>
            </g>
        </g>
    </g>
</svg>