<?xml version="1.0" encoding="UTF-8" standalone="no"?>
<svg width="20px" height="20px" viewBox="0 0 20 20" version="1.1" xmlns="http://www.w3.org/2000/svg" xmlns:xlink="http://www.w3.org/1999/xlink">
    <!-- Generator: Sketch 3.8.1 (29687) - http://www.bohemiancoding.com/sketch -->
    <title>shopping_bag [#1152]</title>
    <desc>Created with Sketch.</desc>
    <defs></defs>
    <g id="Page-1" stroke="none" stroke-width="1" fill="none" fill-rule="evenodd">
        <g id="Dribbble-Dark-Preview" transform="translate(-340.000000, -3039.000000)" fill="#FFFFFF">
            <g id="icons" transform="translate(56.000000, 160.000000)">
                <path d="M297,2892.02233 C297,2892.57257 296.552,2893.01914 296,2893.01914 L292,2893.01914 C291.448,2893.01914 291,2892.57257 291,2892.02233 C291,2891.47209 291.448,2891.02552 292,2891.02552 L296,2891.02552 C296.552,2891.02552 297,2891.47209 297,2892.02233 L297,2892.02233 Z M302,2896.00957 C302,2896.55981 301.552,2897.00638 301,2897.00638 L287,2897.00638 C286.448,2897.00638 286,2896.55981 286,2896.00957 L286,2888.03509 C286,2887.48485 286.448,2887.03828 287,2887.03828 L301,2887.03828 C301.552,2887.03828 302,2887.48485 302,2888.03509 L302,2896.00957 Z M293.955,2880.98465 C296.214,2880.98465 298.176,2883.05104 298.768,2885.04466 L289.051,2885.04466 C289.498,2883.05104 291.559,2880.98465 293.955,2880.98465 L293.955,2880.98465 Z M301.955,2885.04466 L300.831,2885.04466 C300.22,2882.05423 297.321,2879 293.955,2879 C290.485,2879 287.515,2882.05423 287.031,2885.04466 L285.955,2885.04466 C284.85,2885.04466 284,2886.00159 284,2887.10207 L284,2897.07018 C284,2898.17165 284.85,2899 285.955,2899 L301.955,2899 C303.059,2899 304,2898.17165 304,2897.07018 L304,2887.10207 C304,2886.00159 303.059,2885.04466 301.955,2885.04466 L301.955,2885.04466 Z" id="shopping_bag-[#1152]"></path>
            </g>
        </g>
    </g>
</svg>