<?xml version="1.0" encoding="UTF-8" standalone="no"?>
<svg width="20px" height="20px" viewBox="0 0 20 20" version="1.1" xmlns="http://www.w3.org/2000/svg" xmlns:xlink="http://www.w3.org/1999/xlink">
    <!-- Generator: Sketch 3.8.1 (29687) - http://www.bohemiancoding.com/sketch -->
    <title>shopping_bag [#1148]</title>
    <desc>Created with Sketch.</desc>
    <defs></defs>
    <g id="Page-1" stroke="none" stroke-width="1" fill="none" fill-rule="evenodd">
        <g id="Dribbble-Dark-Preview" transform="translate(-100.000000, -3079.000000)" fill="#FFFFFF">
            <g id="icons" transform="translate(56.000000, 160.000000)">
                <path d="M55,2930.09295 L55,2934.07999 C55,2934.6302 54.552,2935.07675 54,2935.07675 C53.448,2935.07675 53,2934.6302 53,2934.07999 L53,2930.09295 C53,2929.54274 53.448,2929.09619 54,2929.09619 C54.552,2929.09619 55,2929.54274 55,2930.09295 L55,2930.09295 Z M62,2936.00972 C62,2936.55993 61.552,2937.00648 61,2937.00648 L47,2937.00648 C46.448,2937.00648 46,2936.55993 46,2936.00972 L46,2928.03563 C46,2927.48443 46.448,2927.03887 47,2927.03887 L61,2927.03887 C61.552,2927.03887 62,2927.48443 62,2928.03563 L62,2936.00972 Z M54,2920.98455 C56.259,2920.98455 58.221,2923.05183 58.813,2925.04535 L49.096,2925.04535 C49.543,2923.05183 51.604,2920.98455 54,2920.98455 L54,2920.98455 Z M62,2925.04535 L60.876,2925.04535 C60.265,2922.05507 57.367,2919 54,2919 C50.53,2919 47.56,2922.05507 47.077,2925.04535 L46,2925.04535 C44.895,2925.04535 44,2926.00125 44,2927.10267 L44,2937.07027 C44,2938.17169 44.895,2939 46,2939 L62,2939 C63.105,2939 64,2938.17169 64,2937.07027 L64,2927.10267 C64,2926.00125 63.105,2925.04535 62,2925.04535 L62,2925.04535 Z" id="shopping_bag-[#1148]"></path>
            </g>
        </g>
    </g>
</svg>