<?xml version="1.0" encoding="UTF-8" standalone="no"?>
<svg width="20px" height="19px" viewBox="0 0 20 19" version="1.1" xmlns="http://www.w3.org/2000/svg" xmlns:xlink="http://www.w3.org/1999/xlink">
    <!-- Generator: Sketch 3.8.1 (29687) - http://www.bohemiancoding.com/sketch -->
    <title>shopping_cart_close [#1131]</title>
    <desc>Created with Sketch.</desc>
    <defs></defs>
    <g id="Page-1" stroke="none" stroke-width="1" fill="none" fill-rule="evenodd">
        <g id="Dribbble-Dark-Preview" transform="translate(-380.000000, -3120.000000)" fill="#FFFFFF">
            <g id="icons" transform="translate(56.000000, 160.000000)">
                <path d="M336.828,2971.61629 L335.414,2973.0335 L336.828,2974.4507 L335.414,2975.86891 L334,2974.4507 L332.585,2975.86891 L331.171,2974.4507 L332.585,2973.0335 L331.171,2971.61629 L332.585,2970.19908 L334,2971.61629 L335.414,2970.19908 L336.828,2971.61629 Z M339.305,2976.99546 L328.694,2976.99546 L327.36,2968.97732 L340.819,2968.97732 L339.305,2976.99546 Z M341,2966.97278 L336.976,2960.01203 L335.244,2961.00227 L338.69,2966.97278 L329.309,2966.97278 L332.755,2961.0143 L331.023,2960 L327,2966.97278 L324,2966.97278 L324,2968.97732 L325.333,2968.97732 L327,2979 L341,2979 L342.666,2968.97732 L344,2968.97732 L344,2966.97278 L341,2966.97278 Z" id="shopping_cart_close-[#1131]"></path>
            </g>
        </g>
    </g>
</svg>