<?xml version="1.0" encoding="UTF-8" standalone="no"?>
<svg width="20px" height="19px" viewBox="0 0 20 19" version="1.1" xmlns="http://www.w3.org/2000/svg" xmlns:xlink="http://www.w3.org/1999/xlink">
    <!-- Generator: Sketch 3.8.1 (29687) - http://www.bohemiancoding.com/sketch -->
    <title>shopping_cart_minus_round [#1134]</title>
    <desc>Created with Sketch.</desc>
    <defs></defs>
    <g id="Page-1" stroke="none" stroke-width="1" fill="none" fill-rule="evenodd">
        <g id="Dribbble-Dark-Preview" transform="translate(-260.000000, -3120.000000)" fill="#FFFFFF">
            <g id="icons" transform="translate(56.000000, 160.000000)">
                <path d="M211.001809,2972.95319 C211.001809,2972.39688 211.449622,2971.94539 212.00139,2971.94539 L215.999714,2971.94539 C216.551483,2971.94539 216.999296,2972.39688 216.999296,2972.95319 C216.999296,2973.5095 216.551483,2973.96099 215.999714,2973.96099 L212.00139,2973.96099 C211.449622,2973.96099 211.001809,2973.5095 211.001809,2972.95319 L211.001809,2972.95319 Z M219.458265,2976.16405 C219.368303,2976.63973 218.956475,2976.9844 218.475677,2976.9844 L209.543421,2976.9844 C209.055625,2976.9844 208.6378,2976.62864 208.557834,2976.14187 L207.364334,2968.92198 L220.817695,2968.92198 L219.458265,2976.16405 Z M222.996782,2966.90638 L220.99762,2966.90638 L217.476096,2960.57436 C217.199212,2960.09264 216.588468,2959.83665 216.109668,2960.11481 C215.631869,2960.39296 215.467937,2961.14579 215.744821,2961.62752 L218.689587,2966.90638 L209.311518,2966.90638 L212.256283,2961.58217 C212.533167,2961.10044 212.369236,2960.39296 211.891436,2960.11481 C211.412637,2959.83665 210.801893,2960.13799 210.525009,2960.61972 L207.003485,2966.90638 L205.004323,2966.90638 C203.807824,2966.90638 203.41199,2968.92198 205.337183,2968.92198 L206.724602,2977.31596 C206.885535,2978.28748 207.720185,2979 208.696775,2979 L219.304329,2979 C220.28092,2979 221.11557,2978.28748 221.276503,2977.31596 L222.663921,2968.92198 C224.590114,2968.92198 224.189282,2966.90638 222.996782,2966.90638 L222.996782,2966.90638 Z" id="shopping_cart_minus_round-[#1134]"></path>
            </g>
        </g>
    </g>
</svg>