<?xml version="1.0" encoding="UTF-8" standalone="no"?>
<svg width="20px" height="20px" viewBox="0 0 20 20" version="1.1" xmlns="http://www.w3.org/2000/svg" xmlns:xlink="http://www.w3.org/1999/xlink">
    <!-- Generator: Sketch 3.8.1 (29687) - http://www.bohemiancoding.com/sketch -->
    <title>shopping_bag [#1144]</title>
    <desc>Created with Sketch.</desc>
    <defs></defs>
    <g id="Page-1" stroke="none" stroke-width="1" fill="none" fill-rule="evenodd">
        <g id="Dribbble-Dark-Preview" transform="translate(-260.000000, -3079.000000)" fill="#FFFFFF">
            <g id="icons" transform="translate(56.000000, 160.000000)">
                <path d="M213,2935.01276 L215,2935.01276 L215,2929.0319 L213,2929.0319 L213,2935.01276 Z M206,2937.00638 L222,2937.00638 L222,2927.03828 L206,2927.03828 L206,2937.00638 Z M214,2920.98465 C216.259,2920.98465 218.221,2923.05104 218.813,2925.04466 L209.096,2925.04466 C209.543,2923.05104 211.604,2920.98465 214,2920.98465 L214,2920.98465 Z M220.876,2925.04466 C220.265,2922.05423 217.367,2919 214,2919 C210.53,2919 207.56,2922.05423 207.077,2925.04466 L204,2925.04466 L204,2939 L224,2939 L224,2925.04466 L220.876,2925.04466 Z" id="shopping_bag-[#1144]"></path>
            </g>
        </g>
    </g>
</svg>