<?xml version="1.0" encoding="UTF-8" standalone="no"?>
<svg width="20px" height="20px" viewBox="0 0 20 20" version="1.1" xmlns="http://www.w3.org/2000/svg" xmlns:xlink="http://www.w3.org/1999/xlink">
    <!-- Generator: Sketch 3.8.1 (29687) - http://www.bohemiancoding.com/sketch -->
    <title>shop_center [#1139]</title>
    <desc>Created with Sketch.</desc>
    <defs></defs>
    <g id="Page-1" stroke="none" stroke-width="1" fill="none" fill-rule="evenodd">
        <g id="Dribbble-Dark-Preview" transform="translate(-60.000000, -3119.000000)" fill="#FFFFFF">
            <g id="icons" transform="translate(56.000000, 160.000000)">
                <path d="M21.7001111,2961 L18.3501111,2961 C18.5861111,2962.614 18.7931111,2964.818 18.4451111,2966.157 C18.6641111,2966.175 18.8931111,2966.19 19.1541111,2966.19 C20.5281111,2966.19 21.5281111,2965.897 21.8761111,2965.7 C22.1011111,2965.017 22.0161111,2963.048 21.7001111,2961 L21.7001111,2961 Z M20.0001111,2968.155 C18.8681111,2968.24 17.5941111,2968.172 16.5451111,2967.819 C14.9411111,2968.299 12.6941111,2968.329 11.1771111,2967.818 C10.3221111,2968.075 9.22311111,2968.225 8.00011111,2968.179 L8.00011111,2977 L13.0001111,2977 L13.0001111,2973 L15.0001111,2973 L15.0001111,2977 L20.0001111,2977 L20.0001111,2968.155 Z M6.14111111,2965.805 C6.40811111,2965.954 7.18211111,2966.19 8.41811111,2966.19 C8.82911111,2966.19 9.20211111,2966.162 9.53911111,2966.12 C9.23011111,2964.756 9.40911111,2962.59 9.61811111,2961 L6.26011111,2961 C5.97111111,2963.105 5.90911111,2965.125 6.14111111,2965.805 L6.14111111,2965.805 Z M11.5111111,2965.805 C12.5281111,2966.372 15.4871111,2966.279 16.5101111,2965.7 C16.7351111,2965.017 16.6501111,2963.048 16.3341111,2961 L11.6301111,2961 C11.3411111,2963.105 11.2791111,2965.125 11.5111111,2965.805 L11.5111111,2965.805 Z M23.3661111,2967.067 C23.0641111,2967.369 22.5801111,2967.609 22.0001111,2967.792 L22.0001111,2979 L6.00011111,2979 L6.00011111,2967.881 C5.37011111,2967.696 4.85611111,2967.428 4.56311111,2967.067 C3.29611111,2965.498 4.56311111,2959 4.56311111,2959 L23.3661111,2959 C23.3661111,2959 24.7921111,2965.641 23.3661111,2967.067 L23.3661111,2967.067 Z M10.0001111,2973 L12.0001111,2973 L12.0001111,2969 L10.0001111,2969 L10.0001111,2973 Z M16.0001111,2973 L18.0001111,2973 L18.0001111,2969 L16.0001111,2969 L16.0001111,2973 Z" id="shop_center-[#1139]"></path>
            </g>
        </g>
    </g>
</svg>