<?xml version="1.0" encoding="UTF-8" standalone="no"?>
<svg width="20px" height="20px" viewBox="0 0 20 20" version="1.1" xmlns="http://www.w3.org/2000/svg" xmlns:xlink="http://www.w3.org/1999/xlink">
    <!-- Generator: Sketch 3.8.1 (29687) - http://www.bohemiancoding.com/sketch -->
    <title>shopping_bag [#1149]</title>
    <desc>Created with Sketch.</desc>
    <defs></defs>
    <g id="Page-1" stroke="none" stroke-width="1" fill="none" fill-rule="evenodd">
        <g id="Dribbble-Dark-Preview" transform="translate(-60.000000, -3079.000000)" fill="#FFFFFF">
            <g id="icons" transform="translate(56.000000, 160.000000)">
                <path d="M17,2932.08647 L12,2935.07675 L12,2929.09619 L17,2932.08647 Z M6,2937.00648 L22,2937.00648 L22,2927.03887 L6,2927.03887 L6,2937.00648 Z M14,2920.98455 C16.259,2920.98455 18.221,2923.05183 18.813,2925.04535 L9.096,2925.04535 C9.543,2923.05183 11.604,2920.98455 14,2920.98455 L14,2920.98455 Z M20.876,2925.04535 C20.265,2922.05507 17.367,2919 14,2919 C10.53,2919 7.56,2922.05507 7.077,2925.04535 L4,2925.04535 L4,2939 L24,2939 L24,2925.04535 L20.876,2925.04535 Z" id="shopping_bag-[#1149]"></path>
            </g>
        </g>
    </g>
</svg>