<?xml version="1.0" encoding="UTF-8" standalone="no"?>
<svg width="20px" height="19px" viewBox="0 0 20 19" version="1.1" xmlns="http://www.w3.org/2000/svg" xmlns:xlink="http://www.w3.org/1999/xlink">
    <!-- Generator: Sketch 3.8.1 (29687) - http://www.bohemiancoding.com/sketch -->
    <title>shopping_cart_plus [#1129]</title>
    <desc>Created with Sketch.</desc>
    <defs></defs>
    <g id="Page-1" stroke="none" stroke-width="1" fill="none" fill-rule="evenodd">
        <g id="Dribbble-Dark-Preview" transform="translate(-60.000000, -3160.000000)" fill="#FFFFFF">
            <g id="icons" transform="translate(56.000000, 160.000000)">
                <path d="M15,3011.98412 L17,3011.98412 L17,3013.98866 L15,3013.98866 L15,3015.9932 L13,3015.9932 L13,3013.98866 L11,3013.98866 L11,3011.98412 L13,3011.98412 L13,3009.97959 L15,3009.97959 L15,3011.98412 Z M19.306,3016.99546 L8.694,3016.99546 L7.361,3008.97732 L20.82,3008.97732 L19.306,3016.99546 Z M21,3006.97278 L16.977,3000.01203 L15.245,3001.00227 L18.691,3006.97278 L9.309,3006.97278 L12.755,3001.0143 L11.023,3000 L7,3006.97278 L4,3006.97278 L4,3008.97732 L5.333,3008.97732 L7,3019 L21,3019 L22.667,3008.97732 L24,3008.97732 L24,3006.97278 L21,3006.97278 Z" id="shopping_cart_plus-[#1129]"></path>
            </g>
        </g>
    </g>
</svg>