<?xml version="1.0" encoding="UTF-8" standalone="no"?>
<svg width="20px" height="20px" viewBox="0 0 20 20" version="1.1" xmlns="http://www.w3.org/2000/svg" xmlns:xlink="http://www.w3.org/1999/xlink">
    <!-- Generator: Sketch 3.8.1 (29687) - http://www.bohemiancoding.com/sketch -->
    <title>shop_center_round [#1140]</title>
    <desc>Created with Sketch.</desc>
    <defs></defs>
    <g id="Page-1" stroke="none" stroke-width="1" fill="none" fill-rule="evenodd">
        <g id="Dribbble-Dark-Preview" transform="translate(-420.000000, -3079.000000)" fill="#FFFFFF">
            <g id="icons" transform="translate(56.000000, 160.000000)">
                <path d="M381.822132,2921.88 C381.760132,2921.379 381.333132,2921 380.828132,2921 L378.349132,2921 C378.586132,2922.614 378.793132,2924.818 378.445132,2926.157 C380.054132,2926.289 381.408132,2925.964 381.876132,2925.699 C382.069132,2925.116 382.034132,2923.59 381.822132,2921.88 L381.822132,2921.88 Z M380.000132,2928.154 C378.868132,2928.24 377.594132,2928.171 376.544132,2927.819 C375.739132,2928.06 374.759132,2928.19 373.787132,2928.19 C372.841132,2928.19 371.914132,2928.066 371.176132,2927.818 C370.321132,2928.075 369.223132,2928.225 368.000132,2928.179 L368.000132,2936 C368.000132,2936.552 368.447132,2937 369.000132,2937 L373.000132,2937 L373.000132,2934 C373.000132,2933.448 373.447132,2933 374.000132,2933 C374.552132,2933 375.000132,2933.448 375.000132,2934 L375.000132,2937 L379.000132,2937 C379.552132,2937 380.000132,2936.552 380.000132,2936 L380.000132,2928.154 Z M369.539132,2926.12 C369.230132,2924.756 369.409132,2922.59 369.618132,2921 L367.145132,2921 C366.631132,2921 366.204132,2921.392 366.149132,2921.903 C365.958132,2923.661 365.942132,2925.223 366.141132,2925.805 C366.905132,2926.232 368.617132,2926.235 369.539132,2926.12 L369.539132,2926.12 Z M371.511132,2925.805 C372.514132,2926.365 375.494132,2926.275 376.510132,2925.699 C376.735132,2925.017 376.649132,2923.047 376.333132,2921 L371.629132,2921 C371.340132,2923.105 371.278132,2925.125 371.511132,2925.805 L371.511132,2925.805 Z M383.366132,2927.067 C383.064132,2927.368 382.579132,2927.609 382.000132,2927.792 L382.000132,2937 C382.000132,2938.104 381.104132,2939 380.000132,2939 L368.000132,2939 C366.895132,2939 366.000132,2938.104 366.000132,2937 L366.000132,2927.881 C365.370132,2927.696 364.855132,2927.428 364.563132,2927.067 C363.715132,2926.017 364.002132,2922.758 364.285132,2920.718 C364.422132,2919.73 365.268132,2919 366.265132,2919 L381.693132,2919 C382.680132,2919 383.518132,2919.714 383.670132,2920.689 C383.991132,2922.756 384.330132,2926.103 383.366132,2927.067 L383.366132,2927.067 Z M371.000132,2929 C370.447132,2929 370.000132,2929.448 370.000132,2930 L370.000132,2932 C370.000132,2932.552 370.447132,2933 371.000132,2933 C371.552132,2933 372.000132,2932.552 372.000132,2932 L372.000132,2930 C372.000132,2929.448 371.552132,2929 371.000132,2929 L371.000132,2929 Z M378.000132,2930 L378.000132,2932 C378.000132,2932.552 377.552132,2933 377.000132,2933 C376.447132,2933 376.000132,2932.552 376.000132,2932 L376.000132,2930 C376.000132,2929.448 376.447132,2929 377.000132,2929 C377.552132,2929 378.000132,2929.448 378.000132,2930 L378.000132,2930 Z" id="shop_center_round-[#1140]"></path>
            </g>
        </g>
    </g>
</svg>