<?xml version="1.0" encoding="UTF-8" standalone="no"?>
<svg width="20px" height="20px" viewBox="0 0 20 20" version="1.1" xmlns="http://www.w3.org/2000/svg" xmlns:xlink="http://www.w3.org/1999/xlink">
    <!-- Generator: Sketch 3.8.1 (29687) - http://www.bohemiancoding.com/sketch -->
    <title>shopping_bag [#1151]</title>
    <desc>Created with Sketch.</desc>
    <defs></defs>
    <g id="Page-1" stroke="none" stroke-width="1" fill="none" fill-rule="evenodd">
        <g id="Dribbble-Dark-Preview" transform="translate(-380.000000, -3039.000000)" fill="#FFFFFF">
            <g id="icons" transform="translate(56.000000, 160.000000)">
                <path d="M336.121,2891.38176 L335.414,2892.08647 L336.121,2892.79118 C336.512,2893.18091 336.512,2893.81186 336.121,2894.2006 C335.73,2894.59033 335.097,2894.59033 334.707,2894.2006 L334,2893.49589 L333.293,2894.2006 C332.902,2894.59033 332.269,2894.59033 331.878,2894.2006 C331.488,2893.81186 331.488,2893.18091 331.878,2892.79118 L332.585,2892.08647 L331.878,2891.38176 C331.488,2890.99203 331.488,2890.36108 331.878,2889.97234 C332.269,2889.58261 332.902,2889.58261 333.293,2889.97234 L334,2890.67705 L334.707,2889.97234 C335.097,2889.58261 335.73,2889.58261 336.121,2889.97234 C336.512,2890.36108 336.512,2890.99203 336.121,2891.38176 L336.121,2891.38176 Z M342,2896.00972 C342,2896.55993 341.552,2897.00648 341,2897.00648 L327,2897.00648 C326.447,2897.00648 326,2896.55993 326,2896.00972 L326,2888.03563 C326,2887.48443 326.447,2887.03887 327,2887.03887 L341,2887.03887 C341.552,2887.03887 342,2887.48443 342,2888.03563 L342,2896.00972 Z M333.909,2880.98455 C336.168,2880.98455 338.13,2883.05183 338.722,2885.04535 L329.005,2885.04535 C329.452,2883.05183 331.513,2880.98455 333.909,2880.98455 L333.909,2880.98455 Z M341.909,2885.04535 L340.785,2885.04535 C340.174,2882.05507 337.276,2879 333.909,2879 C330.439,2879 327.469,2882.05507 326.986,2885.04535 L325.909,2885.04535 C324.804,2885.04535 324,2886.00125 324,2887.10267 L324,2897.07027 C324,2898.17169 324.804,2899 325.909,2899 L341.909,2899 C343.014,2899 344,2898.17169 344,2897.07027 L344,2887.10267 C344,2886.00125 343.014,2885.04535 341.909,2885.04535 L341.909,2885.04535 Z" id="shopping_bag-[#1151]"></path>
            </g>
        </g>
    </g>
</svg>