<?xml version="1.0" encoding="UTF-8" standalone="no"?>
<svg width="20px" height="20px" viewBox="0 0 20 20" version="1.1" xmlns="http://www.w3.org/2000/svg" xmlns:xlink="http://www.w3.org/1999/xlink">
    <!-- Generator: Sketch 3.8.1 (29687) - http://www.bohemiancoding.com/sketch -->
    <title>shopping_bag_plus [#1150]</title>
    <desc>Created with Sketch.</desc>
    <defs></defs>
    <g id="Page-1" stroke="none" stroke-width="1" fill="none" fill-rule="evenodd">
        <g id="Dribbble-Dark-Preview" transform="translate(-420.000000, -3039.000000)" fill="#FFFFFF">
            <g id="icons" transform="translate(56.000000, 160.000000)">
                <path d="M377,2892.02233 C377,2892.57257 376.552,2893.01914 376,2893.01914 L375,2893.01914 L375,2894.07974 C375,2894.63098 374.552,2895.07656 374,2895.07656 C373.448,2895.07656 373,2894.63098 373,2894.07974 L373,2893.01914 L372,2893.01914 C371.448,2893.01914 371,2892.57257 371,2892.02233 C371,2891.47209 371.448,2891.02552 372,2891.02552 L373,2891.02552 L373,2890.0925 C373,2889.54226 373.448,2889.09569 374,2889.09569 C374.552,2889.09569 375,2889.54226 375,2890.0925 L375,2891.02552 L376,2891.02552 C376.552,2891.02552 377,2891.47209 377,2892.02233 L377,2892.02233 Z M382,2896.00957 C382,2896.55981 381.552,2897.00638 381,2897.00638 L367,2897.00638 C366.448,2897.00638 366,2896.55981 366,2896.00957 L366,2888.03509 C366,2887.48485 366.448,2887.03828 367,2887.03828 L381,2887.03828 C381.552,2887.03828 382,2887.48485 382,2888.03509 L382,2896.00957 Z M373.955,2880.98465 C376.214,2880.98465 378.176,2883.05104 378.768,2885.04466 L369.051,2885.04466 C369.498,2883.05104 371.559,2880.98465 373.955,2880.98465 L373.955,2880.98465 Z M381.955,2885.04466 L380.831,2885.04466 C380.22,2882.05423 377.321,2879 373.955,2879 C370.485,2879 367.515,2882.05423 367.031,2885.04466 L365.955,2885.04466 C364.85,2885.04466 364,2886.00159 364,2887.10207 L364,2897.07018 C364,2898.17165 364.85,2899 365.955,2899 L381.955,2899 C383.059,2899 384,2898.17165 384,2897.07018 L384,2887.10207 C384,2886.00159 383.059,2885.04466 381.955,2885.04466 L381.955,2885.04466 Z" id="shopping_bag_plus-[#1150]"></path>
            </g>
        </g>
    </g>
</svg>