<?xml version="1.0" encoding="UTF-8" standalone="no"?>
<svg width="20px" height="20px" viewBox="0 0 20 20" version="1.1" xmlns="http://www.w3.org/2000/svg" xmlns:xlink="http://www.w3.org/1999/xlink">
    <!-- Generator: Sketch 3.8.1 (29687) - http://www.bohemiancoding.com/sketch -->
    <title>shower [#55]</title>
    <desc>Created with Sketch.</desc>
    <defs></defs>
    <g id="Page-1" stroke="none" stroke-width="1" fill="none" fill-rule="evenodd">
        <g id="Dribbble-Dark-Preview" transform="translate(-180.000000, -7959.000000)" fill="#FFFFFF">
            <g id="icons" transform="translate(56.000000, 160.000000)">
                <path d="M142,7810 C142,7809.448 141.552,7809 141,7809 L127,7809 C126.448,7809 126,7809.448 126,7810 C126,7810.552 126.448,7811 127,7811 L141,7811 C141.552,7811 142,7810.552 142,7810 M128.105,7807 L139.565,7807 C138.762,7804.253 136.29,7803 133.835,7803 C131.381,7803 128.908,7804.253 128.105,7807 M144,7809 L144,7811 C144,7812.105 142.94,7813 141.835,7813 L125.835,7813 C124.731,7813 124,7812.105 124,7811 L124,7809 C124,7808 124.653,7807 126.051,7807 C126.802,7803.553 129,7801.414 133,7801.059 L133,7799 L135,7799 L135,7801.059 C138,7801.414 140.868,7803.553 141.619,7807 C143.199,7807 144,7807.966 144,7809 M141,7815 C140.448,7815 140,7815.448 140,7816 L140,7818 C140,7818.552 140.448,7819 141,7819 C141.552,7819 142,7818.552 142,7818 L142,7816 C142,7815.448 141.552,7815 141,7815 M127,7815 C126.448,7815 126,7815.448 126,7816 L126,7818 C126,7818.552 126.448,7819 127,7819 C127.552,7819 128,7818.552 128,7818 L128,7816 C128,7815.448 127.552,7815 127,7815 M135,7816 L135,7818 C135,7818.552 134.552,7819 134,7819 C133.448,7819 133,7818.552 133,7818 L133,7816 C133,7815.448 133.448,7815 134,7815 C134.552,7815 135,7815.448 135,7816" id="shower-[#55]"></path>
            </g>
        </g>
    </g>
</svg>