<?xml version="1.0" encoding="UTF-8" standalone="no"?>
<svg width="20px" height="20px" viewBox="0 0 20 20" version="1.1" xmlns="http://www.w3.org/2000/svg" xmlns:xlink="http://www.w3.org/1999/xlink">
    <!-- Generator: Sketch 3.8.1 (29687) - http://www.bohemiancoding.com/sketch -->
    <title>showcase_round [#724]</title>
    <desc>Created with Sketch.</desc>
    <defs></defs>
    <g id="Page-1" stroke="none" stroke-width="1" fill="none" fill-rule="evenodd">
        <g id="Dribbble-Dark-Preview" transform="translate(-220.000000, -4999.000000)" fill="#FFFFFF">
            <g id="icons" transform="translate(56.000000, 160.000000)">
                <path d="M179,4848 L169,4848 C168.448,4848 168,4847.552 168,4847 C168,4846.448 168.448,4846 169,4846 L179,4846 C179.552,4846 180,4846.448 180,4847 C180,4847.552 179.552,4848 179,4848 L179,4848 Z M182,4850 C182,4850.552 181.552,4851 181,4851 L175,4851 L173,4851 L167,4851 C166.448,4851 166,4850.552 166,4850 L166,4844 C166,4843.448 166.448,4843 167,4843 L181,4843 C181.552,4843 182,4843.448 182,4844 L182,4850 Z M182,4841 L175,4841 L175,4840 C175,4839.448 174.552,4839 174,4839 C173.448,4839 173,4839.448 173,4840 L173,4841 L166,4841 C164.895,4841 164,4841.895 164,4843 L164,4851 C164,4852.105 164.895,4853 166,4853 L170.793,4853 L168.658,4857.581 C168.35,4858.243 168.833,4859 169.562,4859 C169.95,4859 170.302,4858.776 170.466,4858.425 L173,4853 L173,4858.003 C173,4858.553 173.447,4859 173.997,4859 L174.003,4859 C174.553,4859 175,4858.553 175,4858.003 L175,4853 L177.534,4858.425 C177.698,4858.776 178.05,4859 178.438,4859 C179.167,4859 179.65,4858.243 179.342,4857.581 L177.207,4853 L182,4853 C183.105,4853 184,4852.105 184,4851 L184,4843 C184,4841.895 183.105,4841 182,4841 L182,4841 Z" id="showcase_round-[#724]"></path>
            </g>
        </g>
    </g>
</svg>