<?xml version="1.0" encoding="UTF-8" standalone="no"?>
<svg width="20px" height="20px" viewBox="0 0 20 20" version="1.1" xmlns="http://www.w3.org/2000/svg" xmlns:xlink="http://www.w3.org/1999/xlink">
    <!-- Generator: Sketch 3.8.1 (29687) - http://www.bohemiancoding.com/sketch -->
    <title>showcase_round [#726]</title>
    <desc>Created with Sketch.</desc>
    <defs></defs>
    <g id="Page-1" stroke="none" stroke-width="1" fill="none" fill-rule="evenodd">
        <g id="Dribbble-Dark-Preview" transform="translate(-140.000000, -4999.000000)" fill="#FFFFFF">
            <g id="icons" transform="translate(56.000000, 160.000000)">
                <path d="M102,4850 C102,4850.552 101.552,4851 101,4851 L95,4851 L93,4851 L87,4851 C86.448,4851 86,4850.552 86,4850 L86,4844 C86,4843.448 86.448,4843 87,4843 L101,4843 C101.552,4843 102,4843.448 102,4844 L102,4850 Z M102,4841 L95,4841 L95,4840 C95,4839.448 94.552,4839 94,4839 C93.448,4839 93,4839.448 93,4840 L93,4841 L86,4841 C84.895,4841 84,4841.895 84,4843 L84,4851 C84,4852.105 84.895,4853 86,4853 L90.793,4853 L88.658,4857.581 C88.35,4858.243 88.833,4859 89.562,4859 L89.563,4859 C89.95,4859 90.302,4858.776 90.466,4858.425 L93,4853 L93,4858.003 C93,4858.553 93.447,4859 93.997,4859 L94.003,4859 C94.553,4859 95,4858.553 95,4858.003 L95,4853 L97.534,4858.425 C97.698,4858.776 98.05,4859 98.437,4859 L98.437,4859 C99.167,4859 99.65,4858.243 99.342,4857.581 L97.207,4853 L102,4853 C103.105,4853 104,4852.105 104,4851 L104,4843 C104,4841.895 103.105,4841 102,4841 L102,4841 Z" id="showcase_round-[#726]"></path>
            </g>
        </g>
    </g>
</svg>