<?xml version="1.0" encoding="UTF-8" standalone="no"?>
<svg width="20px" height="20px" viewBox="0 0 20 20" version="1.1" xmlns="http://www.w3.org/2000/svg" xmlns:xlink="http://www.w3.org/1999/xlink">
    <!-- Generator: Sketch 3.8.1 (29687) - http://www.bohemiancoding.com/sketch -->
    <title>shower [#54]</title>
    <desc>Created with Sketch.</desc>
    <defs></defs>
    <g id="Page-1" stroke="none" stroke-width="1" fill="none" fill-rule="evenodd">
        <g id="Dribbble-Dark-Preview" transform="translate(-220.000000, -7959.000000)" fill="#FFFFFF">
            <g id="icons" transform="translate(56.000000, 160.000000)">
                <path d="M166,7811 L182,7811 L182,7809 L166,7809 L166,7811 Z M168.27,7807 L179.73,7807 C178.927,7804.253 176.454,7803 174,7803 C171.546,7803 169.073,7804.253 168.27,7807 L168.27,7807 Z M184,7807 L184,7813 L164,7813 L164,7807 L166.216,7807 C166.967,7803.553 169.661,7801.414 173,7801.059 L173,7799 L175,7799 L175,7801.059 C178.339,7801.414 181.033,7803.553 181.784,7807 L184,7807 Z M180,7819 L182,7819 L182,7815 L180,7815 L180,7819 Z M166,7819 L168,7819 L168,7815 L166,7815 L166,7819 Z M173,7819 L175,7819 L175,7815 L173,7815 L173,7819 Z" id="shower-[#54]"></path>
            </g>
        </g>
    </g>
</svg>