<?xml version="1.0" encoding="UTF-8" standalone="no"?>
<svg width="20px" height="20px" viewBox="0 0 20 20" version="1.1" xmlns="http://www.w3.org/2000/svg" xmlns:xlink="http://www.w3.org/1999/xlink">
    <!-- Generator: Sketch 3.8.1 (29687) - http://www.bohemiancoding.com/sketch -->
    <title>showcase [#725]</title>
    <desc>Created with Sketch.</desc>
    <defs></defs>
    <g id="Page-1" stroke="none" stroke-width="1" fill="none" fill-rule="evenodd">
        <g id="Dribbble-Dark-Preview" transform="translate(-180.000000, -4999.000000)" fill="#FFFFFF">
            <g id="icons" transform="translate(56.000000, 160.000000)">
                <path d="M142,4851 L135,4851 L133,4851 L126,4851 L126,4843 L142,4843 L142,4851 Z M142,4841 L135,4841 L135,4839 L133,4839 L133,4841 L126,4841 L124,4841 L124,4843 L124,4851 L124,4853 L126,4853 L130.793,4853 L127.997,4859 L130.197,4859 L133,4853 L133,4859 L135,4859 L135,4853 L137.803,4859 L140.003,4859 L137.207,4853 L142,4853 L144,4853 L144,4851 L144,4843 L144,4841 L142,4841 Z" id="showcase-[#725]"></path>
            </g>
        </g>
    </g>
</svg>