<?xml version="1.0" encoding="UTF-8" standalone="no"?>
<svg width="20px" height="20px" viewBox="0 0 20 20" version="1.1" xmlns="http://www.w3.org/2000/svg" xmlns:xlink="http://www.w3.org/1999/xlink">
    <!-- Generator: Sketch 3.8.1 (29687) - http://www.bohemiancoding.com/sketch -->
    <title>showcase [#723]</title>
    <desc>Created with Sketch.</desc>
    <defs></defs>
    <g id="Page-1" stroke="none" stroke-width="1" fill="none" fill-rule="evenodd">
        <g id="Dribbble-Dark-Preview" transform="translate(-260.000000, -4999.000000)" fill="#FFFFFF">
            <g id="icons" transform="translate(56.000000, 160.000000)">
                <path d="M208,4848 L220,4848 L220,4846 L208,4846 L208,4848 Z M222,4851 L215,4851 L213,4851 L206,4851 L206,4843 L222,4843 L222,4851 Z M222,4841 L215,4841 L215,4839 L213,4839 L213,4841 L206,4841 L204,4841 L204,4843 L204,4851 L204,4853 L206,4853 L210.793,4853 L207.997,4859 L210.197,4859 L213,4853 L213,4859 L215,4859 L215,4853 L217.803,4859 L220.003,4859 L217.207,4853 L222,4853 L224,4853 L224,4851 L224,4843 L224,4841 L222,4841 Z" id="showcase-[#723]"></path>
            </g>
        </g>
    </g>
</svg>