<?xml version="1.0" encoding="UTF-8" standalone="no"?>
<svg width="20px" height="25px" viewBox="0 0 20 25" version="1.1" xmlns="http://www.w3.org/2000/svg" xmlns:xlink="http://www.w3.org/1999/xlink">
    <!-- Generator: Sketch 3.8.1 (29687) - http://www.bohemiancoding.com/sketch -->
    <title>shuffle [#240]</title>
    <desc>Created with Sketch.</desc>
    <defs></defs>
    <g id="Page-1" stroke="none" stroke-width="1" fill="none" fill-rule="evenodd">
        <g id="Dribbble-Dark-Preview" transform="translate(-140.000000, -7076.000000)" fill="#FFFFFF">
            <g id="icons" transform="translate(56.000000, 160.000000)">
                <path d="M98.343,6929.77732 L96.929,6931.33865 L100.171,6934.69955 L99,6934.69955 C95.686,6934.69955 93,6932.05533 93,6928.79287 C93,6924.44359 89.418,6920.91731 85,6920.91731 L84,6920.91731 L84,6922.8862 L85,6922.8862 C88.314,6922.8862 91,6925.53042 91,6928.79287 C91,6933.14215 94.582,6936.66844 99,6936.66844 L100.171,6936.66844 L96.929,6939.69167 L98.343,6941 C102.955,6936.40854 101.764,6937.5948 104,6935.367 C102.185,6933.56743 103.327,6934.69659 98.343,6929.77732 M93.285,6923.11754 C93.684,6923.69738 94.015,6924.40815 94.282,6925.06675 C96.188,6922.6775 98.852,6922.8862 100.171,6922.8862 L96.929,6925.90943 L98.343,6927.21776 C103.325,6922.26304 102.181,6923.40205 104,6921.58476 C101.773,6919.3796 103.009,6920.59933 98.343,6916 L96.929,6917.55838 L100.171,6920.91731 C98.759,6920.91731 95.687,6920.70171 93.285,6923.11754 M84,6934.69955 L84,6936.66844 C85.139,6936.66844 87.949,6936.91652 90.719,6934.12463 C90.321,6933.54578 89.983,6933.00925 89.716,6932.35164 C87.649,6934.94172 85.019,6934.69955 84,6934.69955" id="shuffle-[#240]"></path>
            </g>
        </g>
    </g>
</svg>