<?xml version="1.0" encoding="UTF-8" standalone="no"?>
<svg width="20px" height="20px" viewBox="0 0 20 20" version="1.1" xmlns="http://www.w3.org/2000/svg" xmlns:xlink="http://www.w3.org/1999/xlink">
    <!-- Generator: Sketch 3.8.1 (29687) - http://www.bohemiancoding.com/sketch -->
    <title>sign_round [#728]</title>
    <desc>Created with Sketch.</desc>
    <defs></defs>
    <g id="Page-1" stroke="none" stroke-width="1" fill="none" fill-rule="evenodd">
        <g id="Dribbble-Dark-Preview" transform="translate(-60.000000, -4999.000000)" fill="#FFFFFF">
            <g id="icons" transform="translate(56.000000, 160.000000)">
                <path d="M10,4843 L14,4843 L14,4841 L10,4841 L10,4843 Z M18,4850 C18,4850.552 17.552,4851 17,4851 L7,4851 C6.448,4851 6,4850.552 6,4850 L6,4846 C6,4845.448 6.448,4845 7,4845 L17,4845 C17.552,4845 18,4845.448 18,4846 L18,4850 Z M22,4839 L5,4839 C4.448,4839 4,4839.448 4,4840 C4,4840.552 4.448,4841 5,4841 L8,4841 L8,4843 L6,4843 L6,4843 C4.895,4843 4,4843.895 4,4845 L4,4845 L4,4851 L4,4851 C4,4852.105 4.895,4853 6,4853 L18,4853 C19.105,4853 20,4852.105 20,4851 L20,4851 L20,4845 L20,4845 C20,4843.895 19.105,4843 18,4843 L18,4843 L16,4843 L16,4841 L20.997,4841 C21.551,4841 22,4841.449 22,4842.003 L22,4858 C22,4858.552 22.448,4859 23,4859 L23,4859 C23.552,4859 24,4858.552 24,4858 L24,4841 L24,4841 C24,4839.895 23.105,4839 22,4839 L22,4839 Z" id="sign_round-[#728]"></path>
            </g>
        </g>
    </g>
</svg>