<?xml version="1.0" encoding="UTF-8" standalone="no"?>
<svg width="20px" height="20px" viewBox="0 0 20 20" version="1.1" xmlns="http://www.w3.org/2000/svg" xmlns:xlink="http://www.w3.org/1999/xlink">
    <!-- Generator: Sketch 3.8.1 (29687) - http://www.bohemiancoding.com/sketch -->
    <title>sign_round [#732]</title>
    <desc>Created with Sketch.</desc>
    <defs></defs>
    <g id="Page-1" stroke="none" stroke-width="1" fill="none" fill-rule="evenodd">
        <g id="Dribbble-Dark-Preview" transform="translate(-300.000000, -4959.000000)" fill="#FFFFFF">
            <g id="icons" transform="translate(56.000000, 160.000000)">
                <path d="M251,4808 C251,4807.448 251.448,4807 252,4807 C252.552,4807 253,4807.448 253,4808 C253,4808.552 252.552,4809 252,4809 C251.448,4809 251,4808.552 251,4808 L251,4808 Z M254,4808 C254,4807.448 254.448,4807 255,4807 C255.552,4807 256,4807.448 256,4808 C256,4808.552 255.552,4809 255,4809 C254.448,4809 254,4808.552 254,4808 L254,4808 Z M248.062,4808 C248.062,4807.448 248.51,4807 249.062,4807 C249.615,4807 250.062,4807.448 250.062,4808 C250.062,4808.552 249.615,4809 249.062,4809 C248.51,4809 248.062,4808.552 248.062,4808 L248.062,4808 Z M257,4805 C257.552,4805 258,4805.448 258,4806 L258,4810 C258,4810.552 257.552,4811 257,4811 L247,4811 C246.448,4811 246,4810.552 246,4810 L246,4806 C246,4805.448 246.448,4805 247,4805 L257,4805 Z M250,4803 L254,4803 L254,4801 L250,4801 L250,4803 Z M262,4799 L245,4799 C244.448,4799 244,4799.448 244,4800 C244,4800.552 244.448,4801 245,4801 L248,4801 L248,4803 L246,4803 C244.895,4803 244,4803.896 244,4805 L244,4811 C244,4812.104 244.895,4813 246,4813 L258,4813 C259.105,4813 260,4812.104 260,4811 L260,4805 C260,4803.896 259.105,4803 258,4803 L256,4803 L256,4801 L261,4801 C261.552,4801 262,4801.448 262,4802 L262,4818 C262,4818.552 262.448,4819 263,4819 C263.552,4819 264,4818.552 264,4818 L264,4801 C264,4799.896 263.105,4799 262,4799 L262,4799 Z" id="sign_round-[#732]"></path>
            </g>
        </g>
    </g>
</svg>