<?xml version="1.0" encoding="UTF-8" standalone="no"?>
<svg width="20px" height="20px" viewBox="0 0 20 20" version="1.1" xmlns="http://www.w3.org/2000/svg" xmlns:xlink="http://www.w3.org/1999/xlink">
    <!-- Generator: Sketch 3.8.1 (29687) - http://www.bohemiancoding.com/sketch -->
    <title>sign [#731]</title>
    <desc>Created with Sketch.</desc>
    <defs></defs>
    <g id="Page-1" stroke="none" stroke-width="1" fill="none" fill-rule="evenodd">
        <g id="Dribbble-Dark-Preview" transform="translate(-340.000000, -4959.000000)" fill="#FFFFFF">
            <g id="icons" transform="translate(56.000000, 160.000000)">
                <path d="M291,4809 L293,4809 L293,4807 L291,4807 L291,4809 Z M294,4809 L296,4809 L296,4807 L294,4807 L294,4809 Z M288,4809 L290,4809 L290,4807 L288,4807 L288,4809 Z M286,4811 L298,4811 L298,4805 L286,4805 L286,4811 Z M290,4803 L294,4803 L294,4801 L290,4801 L290,4803 Z M302,4799 L284,4799 L284,4801 L288,4801 L288,4803 L286,4803 L284,4803 L284,4805 L284,4811 L284,4813 L300,4813 L300,4811 L300,4805 L300,4803 L298,4803 L296,4803 L296,4801 L302,4801 L302,4819 L304,4819 L304,4801 L304,4799 L302,4799 Z" id="sign-[#731]"></path>
            </g>
        </g>
    </g>
</svg>