<?xml version="1.0" encoding="UTF-8" standalone="no"?>
<svg width="20px" height="20px" viewBox="0 0 20 20" version="1.1" xmlns="http://www.w3.org/2000/svg" xmlns:xlink="http://www.w3.org/1999/xlink">
    <!-- Generator: Sketch 3.8.1 (29687) - http://www.bohemiancoding.com/sketch -->
    <title>sign [#730]</title>
    <desc>Created with Sketch.</desc>
    <defs></defs>
    <g id="Page-1" stroke="none" stroke-width="1" fill="none" fill-rule="evenodd">
        <g id="Dribbble-Dark-Preview" transform="translate(-380.000000, -4959.000000)" fill="#FFFFFF">
            <g id="icons" transform="translate(56.000000, 160.000000)">
                <path d="M328,4809 L336,4809 L336,4807 L328,4807 L328,4809 Z M326,4811 L338,4811 L338,4805 L326,4805 L326,4811 Z M330,4803 L334,4803 L334,4801 L330,4801 L330,4803 Z M342,4799 L324,4799 L324,4801 L328,4801 L328,4803 L326,4803 L324,4803 L324,4805 L324,4811 L324,4813 L340,4813 L340,4811 L340,4805 L340,4803 L338,4803 L336,4803 L336,4801 L342,4801 L342,4819 L344,4819 L344,4801 L344,4799 L342,4799 Z" id="sign-[#730]"></path>
            </g>
        </g>
    </g>
</svg>