<?xml version="1.0" encoding="UTF-8" standalone="no"?>
<svg width="20px" height="20px" viewBox="0 0 20 20" version="1.1" xmlns="http://www.w3.org/2000/svg" xmlns:xlink="http://www.w3.org/1999/xlink">
    <!-- Generator: Sketch 3.8.1 (29687) - http://www.bohemiancoding.com/sketch -->
    <title>sign [#727]</title>
    <desc>Created with Sketch.</desc>
    <defs></defs>
    <g id="Page-1" stroke="none" stroke-width="1" fill="none" fill-rule="evenodd">
        <g id="Dribbble-Dark-Preview" transform="translate(-100.000000, -4999.000000)" fill="#FFFFFF">
            <g id="icons" transform="translate(56.000000, 160.000000)">
                <path d="M50,4843 L54,4843 L54,4841 L50,4841 L50,4843 Z M46,4851 L58,4851 L58,4845 L46,4845 L46,4851 Z M61.5,4839 L44,4839 L44,4841 L48,4841 L48,4843 L45.5,4843 L44,4843 L44,4845 L44,4851 L44,4853 L60,4853 L60,4851 L60,4845 L60,4843 L57.5,4843 L56,4843 L56,4841 L62,4841 L62,4859 L64,4859 L64,4841 L64,4839 L61.5,4839 Z" id="sign-[#727]"></path>
            </g>
        </g>
    </g>
</svg>