<?xml version="1.0" encoding="UTF-8" standalone="no"?>
<svg width="20px" height="20px" viewBox="0 0 20 20" version="1.1" xmlns="http://www.w3.org/2000/svg" xmlns:xlink="http://www.w3.org/1999/xlink">
    <!-- Generator: Sketch 3.8.1 (29687) - http://www.bohemiancoding.com/sketch -->
    <title>sign_round [#729]</title>
    <desc>Created with Sketch.</desc>
    <defs></defs>
    <g id="Page-1" stroke="none" stroke-width="1" fill="none" fill-rule="evenodd">
        <g id="Dribbble-Dark-Preview" transform="translate(-420.000000, -4959.000000)" fill="#FFFFFF">
            <g id="icons" transform="translate(56.000000, 160.000000)">
                <path d="M376,4807.95567 C376,4808.50495 375.552,4808.95074 375,4808.95074 L369,4808.95074 C368.448,4808.95074 368,4808.50495 368,4807.95567 C368,4807.40639 368.448,4806.9606 369,4806.9606 L375,4806.9606 C375.552,4806.9606 376,4807.40639 376,4807.95567 L376,4807.95567 Z M378,4809.94582 C378,4810.4951 377.552,4810.94089 377,4810.94089 L367,4810.94089 C366.448,4810.94089 366,4810.4951 366,4809.94582 L366,4805.96552 C366,4805.41624 366.448,4804.97045 367,4804.97045 L377,4804.97045 C377.552,4804.97045 378,4805.41624 378,4805.96552 L378,4809.94582 Z M370,4802.9803 L374,4802.9803 L374,4800.99015 L370,4800.99015 L370,4802.9803 Z M382,4799 L365,4799 C364.448,4799 364,4799.44579 364,4799.99507 C364,4800.54436 364.448,4800.99015 365,4800.99015 L368,4800.99015 L368,4802.9803 L366,4802.9803 C364.895,4802.9803 364,4803.9704 364,4805.06896 L364,4811.0394 C364,4812.13896 364.895,4812.93104 366,4812.93104 L378,4812.93104 C379.105,4812.93104 380,4812.13896 380,4811.0394 L380,4805.06896 C380,4803.9704 379.105,4802.9803 378,4802.9803 L376,4802.9803 L376,4800.99015 L380.997,4800.99015 C381.551,4800.99015 382,4801.53545 382,4802.08772 L382,4818.00493 C382,4818.5552 382.448,4819 383,4819 C383.552,4819 384,4818.5552 384,4818.00493 L384,4801.08866 C384,4799.9901 383.105,4799 382,4799 L382,4799 Z" id="sign_round-[#729]"></path>
            </g>
        </g>
    </g>
</svg>