<?xml version="1.0" encoding="UTF-8" standalone="no"?>
<svg width="20px" height="20px" viewBox="0 0 20 20" version="1.1" xmlns="http://www.w3.org/2000/svg" xmlns:xlink="http://www.w3.org/1999/xlink">
    <!-- Generator: Sketch 3.8.1 (29687) - http://www.bohemiancoding.com/sketch -->
    <title>sim_card [#203]</title>
    <desc>Created with Sketch.</desc>
    <defs></defs>
    <g id="Page-1" stroke="none" stroke-width="1" fill="none" fill-rule="evenodd">
        <g id="Dribbble-Dark-Preview" transform="translate(-60.000000, -7279.000000)" fill="#FFFFFF">
            <g id="icons" transform="translate(56.000000, 160.000000)">
                <path d="M16,7133 L16,7131 L14,7131 L14,7127 L16,7127 L16,7129 L18,7129 L18,7133 L16,7133 Z M12,7135 L20,7135 L20,7125 L12,7125 L12,7135 Z M22,7137 L6,7137 L6,7125.837 L10.837,7121 L22,7121 L22,7137 Z M4,7139 L24,7139 L24,7119 L10,7119 L10,7119.009 L4.008,7125 L4,7125 L4,7139 Z" id="sim_card-[#203]"></path>
            </g>
        </g>
    </g>
</svg>