<?xml version="1.0" encoding="UTF-8" standalone="no"?>
<svg width="20px" height="20px" viewBox="0 0 20 20" version="1.1" xmlns="http://www.w3.org/2000/svg" xmlns:xlink="http://www.w3.org/1999/xlink">
    <!-- Generator: Sketch 3.8.1 (29687) - http://www.bohemiancoding.com/sketch -->
    <title>sim_card [#202]</title>
    <desc>Created with Sketch.</desc>
    <defs></defs>
    <g id="Page-1" stroke="none" stroke-width="1" fill="none" fill-rule="evenodd">
        <g id="Dribbble-Dark-Preview" transform="translate(-100.000000, -7279.000000)" fill="#FFFFFF">
            <g id="icons" transform="translate(56.000000, 160.000000)">
                <path d="M55.9994,7133 L55.9994,7133 C55.9994,7131.895 55.1044,7131 53.9994,7131 L54.0004,7130.999 L54.0004,7127.999 C54.0004,7127.447 54.4474,7127 54.9994,7127 L55.9994,7127 L55.9994,7127 C55.9994,7128.104 56.8954,7129 57.9994,7129 L58.0004,7128.999 L58.0004,7131.999 C58.0004,7132.552 57.5514,7133 56.9994,7133 L55.9994,7133 Z M60.0004,7127 C60.0004,7125.895 59.1044,7125 58.0004,7125 L54.0004,7125 C52.8954,7125 52.0004,7125.895 52.0004,7127 L52.0004,7133 C52.0004,7134.105 52.8954,7135 54.0004,7135 L58.0004,7135 C59.1044,7135 60.0004,7134.105 60.0004,7133 L60.0004,7127 Z M60.9994,7137 L46.9994,7137 C46.4474,7137 46.0004,7136.552 46.0004,7135.999 L46.0004,7126.044 C46.0004,7125.911 46.0524,7125.784 46.1464,7125.69 L50.6904,7121.146 C50.7844,7121.052 50.9114,7121 51.0434,7121 L60.9994,7121 C61.5514,7121 62.0004,7121.447 62.0004,7121.999 L62.0004,7135.999 C62.0004,7136.552 61.5514,7137 60.9994,7137 L60.9994,7137 Z M49.7064,7119.296 L44.2964,7124.707 C44.1094,7124.894 44.0034,7125.148 44.0034,7125.413 L44.0004,7136.999 C43.9994,7138.104 44.8954,7139 46.0004,7139 L61.9994,7139 C63.1044,7139 64.0004,7138.104 64.0004,7136.999 L64.0004,7121 C64.0004,7119.895 63.1044,7119 61.9994,7119 L50.4134,7119.004 C50.1484,7119.004 49.8944,7119.109 49.7064,7119.296 L49.7064,7119.296 Z" id="sim_card-[#202]"></path>
            </g>
        </g>
    </g>
</svg>