<?xml version="1.0" encoding="UTF-8" standalone="no"?>
<svg width="16px" height="20px" viewBox="0 0 16 20" version="1.1" xmlns="http://www.w3.org/2000/svg" xmlns:xlink="http://www.w3.org/1999/xlink">
    <!-- Generator: Sketch 3.8.1 (29687) - http://www.bohemiancoding.com/sketch -->
    <title>simple_car [#733]</title>
    <desc>Created with Sketch.</desc>
    <defs></defs>
    <g id="Page-1" stroke="none" stroke-width="1" fill="none" fill-rule="evenodd">
        <g id="Dribbble-Dark-Preview" transform="translate(-262.000000, -4959.000000)" fill="#FFFFFF">
            <g id="icons" transform="translate(56.000000, 160.000000)">
                <path d="M218,4811 L217.312,4811 L216,4811 L212,4811 L211.312,4811 L210,4811 L210,4809 L210,4807 L210,4801 L218,4801 L218,4807 L218,4809 L218,4811 Z M218,4815 L220,4815 L220,4813 L218,4813 L218,4815 Z M212,4815 L216,4815 L216,4813 L212,4813 L212,4815 Z M208,4815 L210,4815 L210,4813 L208,4813 L208,4815 Z M222,4809 L222,4807 L220,4807 L220,4801 L220,4799 L208,4799 L208,4801 L208,4807 L206,4807 L206,4809 L208,4809 L208,4811 L206,4811 L206,4813 L206,4815 L206,4817 L206,4819 L208,4819 L208,4817 L210,4817 L212,4817 L216,4817 L218,4817 L220,4817 L220,4819 L222,4819 L222,4817 L222,4815 L222,4813 L222,4811 L220,4811 L220,4809 L222,4809 Z" id="simple_car-[#733]"></path>
            </g>
        </g>
    </g>
</svg>