<?xml version="1.0" encoding="UTF-8" standalone="no"?>
<svg width="16px" height="20px" viewBox="0 0 16 20" version="1.1" xmlns="http://www.w3.org/2000/svg" xmlns:xlink="http://www.w3.org/1999/xlink">
    <!-- Generator: Sketch 3.8.1 (29687) - http://www.bohemiancoding.com/sketch -->
    <title>simple_car_round [#734]</title>
    <desc>Created with Sketch.</desc>
    <defs></defs>
    <g id="Page-1" stroke="none" stroke-width="1" fill="none" fill-rule="evenodd">
        <g id="Dribbble-Dark-Preview" transform="translate(-222.000000, -4959.000000)" fill="#FFFFFF">
            <g id="icons" transform="translate(56.000000, 160.000000)">
                <path d="M174.518,4802.582 C174.952,4802.923 175.027,4803.552 174.686,4803.986 L173.449,4805.558 C173.108,4805.992 172.479,4806.067 172.045,4805.726 C171.611,4805.384 171.536,4804.756 171.877,4804.322 L173.114,4802.75 C173.455,4802.316 174.084,4802.241 174.518,4802.582 L174.518,4802.582 Z M180,4815 L178,4815 L178,4813 L179,4813 C179.552,4813 180,4813.447 180,4814 L180,4815 Z M177.313,4811 L176,4811 L174,4811 L172,4811 L171.313,4811 L170,4811 L170,4809 L170,4807 L170,4802 C170,4801.447 170.448,4801 171,4801 L177,4801 C177.552,4801 178,4801.447 178,4802 L178,4807 L178,4809 L178,4811 L177.313,4811 Z M172,4815 L176,4815 L176,4813 L172,4813 L172,4815 Z M170,4815 L168,4815 L168,4814 C168,4813.447 168.448,4813 169,4813 L170,4813 L170,4815 Z M180,4811 L181,4811 C181.552,4811 182,4810.552 182,4810 C182,4809.447 181.552,4809 181,4809 L180,4809 L180,4807 L180,4801 C180,4799.895 179.105,4799 178,4799 L170,4799 C168.896,4799 168,4799.895 168,4801 L168,4807 L168,4809 L167,4809 C166.448,4809 166,4809.447 166,4810 C166,4810.552 166.448,4811 167,4811 L168,4811 C166.896,4811 166,4811.895 166,4813 L166,4815 L166,4817 L166,4818 C166,4818.552 166.448,4819 167,4819 C167.552,4819 168,4818.552 168,4818 L168,4817 L170,4817 L172,4817 L176,4817 L178,4817 L180,4817 L180,4818 C180,4818.552 180.448,4819 181,4819 C181.552,4819 182,4818.552 182,4818 L182,4817 L182,4815 L182,4813 C182,4811.895 181.105,4811 180,4811 L180,4811 Z" id="simple_car_round-[#734]"></path>
            </g>
        </g>
    </g>
</svg>