<?xml version="1.0" encoding="UTF-8" standalone="no"?>
<svg width="20px" height="20px" viewBox="0 0 20 20" version="1.1" xmlns="http://www.w3.org/2000/svg" xmlns:xlink="http://www.w3.org/1999/xlink">
    <!-- Generator: Sketch 3.8.1 (29687) - http://www.bohemiancoding.com/sketch -->
    <title>skype [#170]</title>
    <desc>Created with Sketch.</desc>
    <defs></defs>
    <g id="Page-1" stroke="none" stroke-width="1" fill="none" fill-rule="evenodd">
        <g id="Dribbble-Dark-Preview" transform="translate(-220.000000, -7439.000000)" fill="#FFFFFF">
            <g id="icons" transform="translate(56.000000, 160.000000)">
                <path d="M175.89681,7295.36998 C179.825962,7294.55179 180.342823,7290.96907 178.817578,7289.31175 C178.086879,7288.50353 176.992351,7288.05506 174.390821,7287.42722 C173.204069,7287.15116 170.957247,7286.63394 171.78929,7285.40814 C172.062922,7284.95868 172.748016,7284.6896 173.660122,7284.64476 C176.803849,7284.43249 176.146119,7287.84777 178.315919,7286.84322 C179.319236,7286.34991 179.228026,7284.73445 178.132485,7283.79168 C175.732631,7281.84237 168.868523,7281.86529 168.868523,7286.12568 C168.868523,7290.27146 174.829645,7289.35062 176.352863,7291.01691 C177.141329,7291.98459 176.298137,7293.54623 173.796938,7293.4406 C170.95522,7293.23331 171.709228,7290.56845 169.964064,7290.56845 C168.640496,7290.56845 168.184443,7291.64575 168.868523,7293.03698 C170.052234,7295.45369 173.381423,7295.90116 175.942415,7295.36998 L175.89681,7295.36998 L175.89681,7295.36998 Z M177.129167,7298.82513 C175.778236,7298.38365 175.845124,7298.41155 174.618848,7298.46636 C169.787723,7298.69159 166.054167,7295.66497 164.853227,7291.55606 C164.353595,7289.71437 164.918088,7288.08994 164.351568,7286.30506 C162.607418,7281.63408 167.70812,7277.50225 171.834896,7279.5283 C172.200752,7279.70868 172.428778,7279.75253 173.843557,7279.75253 C175.12152,7279.75253 175.623178,7279.79738 176.261653,7279.97776 C179.136815,7280.6953 181.464714,7282.53499 182.696058,7285.09322 C183.472362,7286.66383 183.745993,7288.28029 183.563572,7290.11899 C183.472362,7291.1076 183.472362,7291.19729 183.700388,7291.78029 C185.124288,7295.89418 181.228579,7299.88948 177.173759,7298.82613 L177.129167,7298.82613 L177.129167,7298.82513 Z" id="skype-[#170]"></path>
            </g>
        </g>
    </g>
</svg>