<?xml version="1.0" encoding="UTF-8" standalone="no"?>
<svg width="20px" height="20px" viewBox="0 0 20 20" version="1.1" xmlns="http://www.w3.org/2000/svg" xmlns:xlink="http://www.w3.org/1999/xlink">
    <!-- Generator: Sketch 3.8.1 (29687) - http://www.bohemiancoding.com/sketch -->
    <title>slack [#175]</title>
    <desc>Created with Sketch.</desc>
    <defs></defs>
    <g id="Page-1" stroke="none" stroke-width="1" fill="none" fill-rule="evenodd">
        <g id="Dribbble-Dark-Preview" transform="translate(-420.000000, -7399.000000)" fill="#FFFFFF">
            <g id="icons" transform="translate(56.000000, 160.000000)">
                <path d="M383.934652,7249.55474 L383.912652,7249.48231 C383.679652,7248.78625 383.016652,7248.32254 382.262652,7248.32857 C382.072652,7248.33058 381.883652,7248.36177 381.700652,7248.42312 L379.736652,7249.09103 L378.468652,7245.30188 L378.468652,7245.30188 L378.468652,7245.30188 C380.318652,7244.66616 380.357652,7244.65309 380.357652,7244.65309 C381.145652,7244.38653 381.804652,7243.55567 381.539652,7242.62423 L381.517652,7242.55583 C381.279652,7241.84266 380.629652,7241.38499 379.863652,7241.39102 C379.691652,7241.39203 379.518652,7241.41717 379.346652,7241.46747 L377.404652,7242.1223 L376.758652,7240.19403 C376.610652,7239.75043 376.298652,7239.39234 375.882652,7239.18412 C375.634652,7239.0604 375.369652,7238.99804 375.096652,7239.00005 C374.913652,7239.00206 374.730652,7239.03324 374.553652,7239.09259 C373.671652,7239.39234 373.179652,7240.33083 373.435652,7241.23109 L373.458652,7241.31055 L374.102652,7243.2348 L375.262652,7246.70106 L376.438652,7250.21258 L372.715652,7251.47898 L372.715652,7251.47898 L371.454652,7247.71096 L371.454652,7247.71096 L371.454652,7247.71096 C372.724652,7247.27441 373.802652,7246.90425 374.736652,7246.58337 L374.102652,7243.2348 L370.376652,7244.49014 L369.734652,7242.57192 C369.494652,7241.85272 368.825652,7241.37392 368.070652,7241.37996 C367.886652,7241.38096 367.704652,7241.41215 367.528652,7241.47149 C366.646652,7241.77024 366.155652,7242.70973 366.411652,7243.60999 C366.418652,7243.63614 366.427652,7243.6623 366.435652,7243.68845 L367.075652,7245.60264 L367.075652,7245.60264 L368.159652,7248.84258 L368.159652,7248.84258 L368.159652,7248.84258 L369.417652,7252.60054 L367.541652,7253.23827 C366.655652,7253.53802 366.163652,7254.48355 366.420652,7255.38783 C366.428652,7255.41499 366.436652,7255.44114 366.445652,7255.4673 C366.675652,7256.15532 367.310652,7256.5969 368.062652,7256.59086 L368.062652,7256.59187 C368.263652,7256.58986 368.465652,7256.55465 368.663652,7256.48826 L370.506652,7255.85456 L371.159652,7257.80697 C371.400652,7258.52617 372.069652,7259.00598 372.824652,7258.99994 L372.824652,7258.99994 L372.824652,7258.99994 C373.007652,7258.99793 373.189652,7258.96776 373.364652,7258.90841 C374.248652,7258.60866 374.739652,7257.66917 374.483652,7256.7679 C374.476652,7256.74275 374.468652,7256.71559 374.459652,7256.69045 L373.800652,7254.72093 L377.519652,7253.44246 L378.184652,7255.43008 C378.424652,7256.14828 379.093652,7256.62707 379.848652,7256.62205 C380.032652,7256.62003 380.214652,7256.58885 380.389652,7256.53051 C381.271652,7256.23176 381.762652,7255.29127 381.497652,7254.35681 L381.483652,7254.31154 L380.813652,7252.30884 L382.876652,7251.59969 C382.876652,7251.59969 383.515652,7251.32006 383.718652,7251.0032 C383.990652,7250.57671 384.071652,7250.03555 383.934652,7249.55474 L383.934652,7249.55474 Z M367.749652,7248.9834 C367.271652,7249.14736 366.791652,7249.31232 366.277652,7249.48835 C366.088652,7249.55273 365.895652,7249.58491 365.702652,7249.58693 C364.955652,7249.59296 364.323652,7249.14534 364.090652,7248.44726 C364.081652,7248.42011 364.073652,7248.39395 364.066652,7248.3678 C363.812652,7247.47357 364.305652,7246.53811 365.187652,7246.23835 L367.041652,7245.6137 L367.749652,7248.9834 Z" id="slack-[#175]"></path>
            </g>
        </g>
    </g>
</svg>