<?xml version="1.0" encoding="UTF-8" standalone="no"?>
<svg width="20px" height="19px" viewBox="0 0 20 19" version="1.1" xmlns="http://www.w3.org/2000/svg" xmlns:xlink="http://www.w3.org/1999/xlink">
    <!-- Generator: Sketch 3.8.1 (29687) - http://www.bohemiancoding.com/sketch -->
    <title>snapchat [#136]</title>
    <desc>Created with Sketch.</desc>
    <defs></defs>
    <g id="Page-1" stroke="none" stroke-width="1" fill="none" fill-rule="evenodd">
        <g id="Dribbble-Dark-Preview" transform="translate(-380.000000, -7560.000000)" fill="#FFFFFF">
            <g id="icons" transform="translate(56.000000, 160.000000)">
                <path d="M334.125531,7419 C332.838531,7419 332.277531,7418.71061 331.183531,7417.92743 C330.193531,7417.21913 329.558531,7416.82957 327.720531,7417.19283 C327.003531,7417.33449 327.017531,7417.26973 326.863531,7416.55333 C326.781531,7416.17591 326.722531,7415.94622 326.582531,7415.92396 C325.089531,7415.69123 324.206531,7415.3472 324.030531,7414.93133 C323.946531,7414.73098 324.046531,7414.57313 324.200531,7414.54682 C326.147531,7414.22303 327.721531,7412.58888 328.404531,7410.97902 C328.406531,7410.97497 328.407531,7410.97092 328.409531,7410.96789 C328.582531,7410.61374 328.616531,7410.30816 328.512531,7410.05924 C328.277531,7409.49867 327.520531,7409.3813 326.977531,7409.16274 C326.603531,7409.01298 325.988531,7408.69728 326.070531,7408.26219 C326.145531,7407.86352 326.784531,7407.61055 327.126531,7407.77245 C327.985531,7408.18023 328.673531,7408.05577 328.879531,7407.86352 C328.869531,7407.66823 328.999531,7407.45675 328.999531,7407.25843 C328.999531,7405.87927 328.651531,7404.16316 329.085531,7403.17963 C330.958531,7398.92984 337.206531,7398.95109 339.069531,7403.17761 C339.503531,7404.16215 339.396531,7405.87927 339.310531,7407.26045 L339.306531,7407.32622 C339.294531,7407.51341 339.283531,7407.69049 339.274531,7407.8625 C339.314531,7407.89994 339.475531,7408.02946 339.804531,7408.04261 C340.083531,7408.03148 340.405531,7407.94042 340.759531,7407.77245 C341.176531,7407.57514 341.927531,7407.87768 341.935531,7408.33099 C341.939531,7408.54247 341.784531,7408.85817 341.021531,7409.16274 C340.480531,7409.37927 339.721531,7409.49867 339.487531,7410.05924 C339.382531,7410.30816 339.416531,7410.61374 339.589531,7410.96688 C339.591531,7410.97092 339.592531,7410.97497 339.594531,7410.97902 C339.647531,7411.1055 340.932531,7414.06923 343.798531,7414.54682 C343.919531,7414.56706 344.006531,7414.67634 343.999531,7414.79979 C343.996531,7414.84431 343.986531,7414.88883 343.967531,7414.93234 C343.792531,7415.34619 342.910531,7415.68921 341.416531,7415.92193 C341.276531,7415.9442 341.217531,7416.17389 341.136531,7416.54929 C341.013531,7417.11997 341.032531,7417.31627 340.278531,7417.16652 C338.460531,7416.80832 337.771531,7417.24139 336.816531,7417.9244 C336.112531,7418.4283 335.316531,7419 334.125531,7419" id="snapchat-[#136]"></path>
            </g>
        </g>
    </g>
</svg>