<?xml version="1.0" encoding="UTF-8" standalone="no"?>
<svg width="20px" height="11px" viewBox="0 0 20 11" version="1.1" xmlns="http://www.w3.org/2000/svg" xmlns:xlink="http://www.w3.org/1999/xlink">
    <!-- Generator: Sketch 3.8.1 (29687) - http://www.bohemiancoding.com/sketch -->
    <title>soundcloud [#164]</title>
    <desc>Created with Sketch.</desc>
    <defs></defs>
    <g id="Page-1" stroke="none" stroke-width="1" fill="none" fill-rule="evenodd">
        <g id="Dribbble-Dark-Preview" transform="translate(-60.000000, -7483.000000)" fill="#FFFFFF">
            <g id="icons" transform="translate(56.000000, 160.000000)">
                <path d="M12.5857188,7333.74807 L12.5857188,7323.71968 C12.5857188,7323.40078 12.681671,7323.20964 12.8745748,7323.14824 C16.086973,7322.38863 19.3323547,7324.62982 19.6272077,7328.00596 C22.7676418,7326.67987 25.4982802,7330.67597 23.0644937,7333.07562 C22.4478012,7333.6837 21.7081701,7333.98774 20.8456002,7333.98774 L12.7526356,7333.97883 C12.6456889,7333.94317 12.5857188,7333.83225 12.5857188,7333.74807 L12.5857188,7333.74807 Z M10.4088043,7333.45294 C10.4088043,7334.17789 11.7861176,7334.1868 11.7861176,7333.45294 L11.7861176,7323.80485 C11.7861176,7322.89173 10.4088043,7322.8957 10.4088043,7323.80485 L10.4088043,7333.45294 L10.4088043,7333.45294 Z M8.26987088,7333.45294 C8.26987088,7334.16105 9.6461846,7334.18878 9.6461846,7333.45294 L9.6461846,7327.76629 C9.6461846,7326.85318 8.26987088,7326.85714 8.26987088,7327.76629 L8.26987088,7333.45294 L8.26987088,7333.45294 Z M6.13893345,7333.15782 C6.13893345,7333.88672 7.50725116,7333.89861 7.50725116,7333.15782 L7.50725116,7326.92746 C7.50725116,7326.04504 6.13893345,7326.03415 6.13893345,7326.92746 L6.13893345,7333.15782 Z M4,7332.01494 C4,7332.86566 5.3673182,7333.08057 5.3673182,7332.01494 L5.3673182,7329.34196 C5.3673182,7328.43677 4,7328.44469 4,7329.34196 L4,7332.01494 Z" id="soundcloud-[#164]"></path>
            </g>
        </g>
    </g>
</svg>