<?xml version="1.0" encoding="UTF-8" standalone="no"?>
<svg width="16px" height="20px" viewBox="0 0 16 20" version="1.1" xmlns="http://www.w3.org/2000/svg" xmlns:xlink="http://www.w3.org/1999/xlink">
    <!-- Generator: Sketch 3.8.1 (29687) - http://www.bohemiancoding.com/sketch -->
    <title>spaceship [#83]</title>
    <desc>Created with Sketch.</desc>
    <defs></defs>
    <g id="Page-1" stroke="none" stroke-width="1" fill="none" fill-rule="evenodd">
        <g id="Dribbble-Dark-Preview" transform="translate(-262.000000, -7839.000000)" fill="#FFFFFF">
            <g id="icons" transform="translate(56.000000, 160.000000)">
                <path d="M213.99983,7693.17055 C212.892317,7693.17055 211.991646,7692.27332 211.991646,7691.17005 C211.991646,7690.06677 212.892317,7689.16955 213.99983,7689.16955 C215.107344,7689.16955 216.008015,7690.06677 216.008015,7691.17005 C216.008015,7692.27332 215.107344,7693.17055 213.99983,7693.17055 M213.99983,7687.16905 L213.99983,7687.16905 C211.781791,7687.16905 209.983461,7688.9605 209.983461,7691.17005 C209.983461,7693.3796 211.781791,7695.17105 213.99983,7695.17105 L213.99983,7695.17105 C216.21787,7695.17105 218.016199,7693.3796 218.016199,7691.17005 C218.016199,7688.9605 216.21787,7687.16905 213.99983,7687.16905 M211.991646,7684.16829 C211.991646,7683.06302 212.891313,7682.16779 213.99983,7682.16779 L213.99983,7682.16779 C215.109352,7682.16779 216.008015,7683.06302 216.008015,7684.16829 C216.008015,7685.27357 215.109352,7686.1688 213.99983,7686.1688 L213.99983,7686.1688 C212.891313,7686.1688 211.991646,7685.27357 211.991646,7684.16829 M213.97272,7697.00451 C211.391199,7697.00451 209.034594,7695.29508 208.239353,7692.84847 C207.44612,7690.40986 208.35884,7687.73919 210.34393,7686.22681 C210.894173,7685.80771 211.095996,7685.11253 211.005627,7684.42836 C210.780711,7682.73193 212.099084,7681.0005 213.97272,7681.0005 C215.845352,7681.0005 217.163725,7682.73193 216.939812,7684.42836 C216.849444,7685.11153 217.050263,7685.80771 217.600505,7686.22681 C219.5866,7687.73919 220.498315,7690.40986 219.706087,7692.84847 C218.910846,7695.29508 216.554241,7697.00451 213.97272,7697.00451 M219.315495,7685.03851 C219.075517,7684.82346 218.955026,7684.51938 218.968079,7684.1983 C219.075517,7681.43161 216.833379,7679 213.97272,7679 C211.111057,7679 208.868919,7681.43261 208.977361,7684.2003 C208.98941,7684.52038 208.868919,7684.82446 208.628941,7685.03751 C204.384643,7688.81746 205.367649,7696.12429 210.940361,7698.41586 C213.88938,7699.62917 217.376593,7698.90899 219.63078,7696.65842 C223.126025,7693.16955 222.527586,7687.90523 219.315495,7685.03851" id="spaceship-[#83]"></path>
            </g>
        </g>
    </g>
</svg>