<?xml version="1.0" encoding="UTF-8" standalone="no"?>
<svg width="16px" height="20px" viewBox="0 0 16 20" version="1.1" xmlns="http://www.w3.org/2000/svg" xmlns:xlink="http://www.w3.org/1999/xlink">
    <!-- Generator: Sketch 3.8.1 (29687) - http://www.bohemiancoding.com/sketch -->
    <title>spaceship [#85]</title>
    <desc>Created with Sketch.</desc>
    <defs></defs>
    <g id="Page-1" stroke="none" stroke-width="1" fill="none" fill-rule="evenodd">
        <g id="Dribbble-Dark-Preview" transform="translate(-182.000000, -7839.000000)" fill="#FFFFFF">
            <g id="icons" transform="translate(56.000000, 160.000000)">
                <path d="M134.941669,7690.063 C134.941669,7690.615 134.491836,7691.063 133.937577,7691.063 C133.383318,7691.063 132.933484,7690.615 132.933484,7690.063 C132.933484,7689.511 133.383318,7689.063 133.937577,7689.063 C134.491836,7689.063 134.941669,7689.511 134.941669,7690.063 M134.941669,7694.063 C134.941669,7694.615 134.491836,7695.063 133.937577,7695.063 C133.383318,7695.063 132.933484,7694.615 132.933484,7694.063 C132.933484,7693.511 133.383318,7693.063 133.937577,7693.063 C134.491836,7693.063 134.941669,7693.511 134.941669,7694.063 M136.008015,7684.167 C136.008015,7685.272 135.109352,7686.167 133.99983,7686.167 L133.99983,7686.167 C132.891313,7686.167 131.991646,7685.272 131.991646,7684.167 C131.991646,7683.063 132.891313,7682.167 133.99983,7682.167 L133.99983,7682.167 C135.109352,7682.167 136.008015,7683.063 136.008015,7684.167 M133.97272,7697 C131.391199,7697 129.034594,7695.291 128.239353,7692.845 C127.44612,7690.407 128.35884,7687.737 130.34393,7686.225 C130.894173,7685.806 131.095996,7685.111 131.005627,7684.427 C130.780711,7682.731 132.099084,7681 133.97272,7681 C135.845352,7681 137.163725,7682.731 136.939812,7684.427 C136.849444,7685.111 137.050263,7685.806 137.600505,7686.225 C139.5866,7687.737 140.498315,7690.407 139.706087,7692.845 C138.910846,7695.291 136.554241,7697 133.97272,7697 M139.315495,7685.037 C139.075517,7684.823 138.955026,7684.519 138.968079,7684.197 C139.075517,7681.431 136.833379,7679 133.97272,7679 C131.112061,7679 128.868919,7681.432 128.977361,7684.199 C128.98941,7684.519 128.868919,7684.823 128.628941,7685.037 C124.384643,7688.815 125.367649,7696.12 130.940361,7698.412 C133.88938,7699.624 137.376593,7698.904 139.63078,7696.654 C143.126025,7693.166 142.527586,7687.903 139.315495,7685.037" id="spaceship-[#85]"></path>
            </g>
        </g>
    </g>
</svg>