<?xml version="1.0" encoding="UTF-8" standalone="no"?>
<svg width="16px" height="20px" viewBox="0 0 16 20" version="1.1" xmlns="http://www.w3.org/2000/svg" xmlns:xlink="http://www.w3.org/1999/xlink">
    <!-- Generator: Sketch 3.8.1 (29687) - http://www.bohemiancoding.com/sketch -->
    <title>spaceship [#84]</title>
    <desc>Created with Sketch.</desc>
    <defs></defs>
    <g id="Page-1" stroke="none" stroke-width="1" fill="none" fill-rule="evenodd">
        <g id="Dribbble-Dark-Preview" transform="translate(-222.000000, -7839.000000)" fill="#FFFFFF">
            <g id="icons" transform="translate(56.000000, 160.000000)">
                <path d="M176.008265,7691.17005 C176.008265,7692.27533 175.108576,7693.17055 174.00003,7693.17055 L174.00003,7693.17055 C172.890481,7693.17055 171.991796,7692.27533 171.991796,7691.17005 C171.991796,7690.06477 172.890481,7689.16955 174.00003,7689.16955 L174.00003,7689.16955 C175.108576,7689.16955 176.008265,7690.06477 176.008265,7691.17005 M173.972919,7697.00451 C171.390329,7697.00451 169.03467,7695.29508 168.239409,7692.84847 C167.446156,7690.40986 168.357895,7687.73919 170.344039,7686.22681 C170.894295,7685.80771 171.095119,7685.11253 171.004748,7684.42836 C170.78083,7682.73193 172.099236,7681.0005 173.972919,7681.0005 C175.845598,7681.0005 177.164004,7682.73193 176.940086,7684.42836 C176.849716,7685.11153 177.050539,7685.80771 177.600795,7686.22681 C179.585935,7687.73919 180.498678,7690.40986 179.705425,7692.84847 C178.910164,7695.29508 176.554505,7697.00451 173.972919,7697.00451 M179.315828,7685.03851 C179.075844,7684.82346 178.95535,7684.51938 178.968403,7684.1983 C179.07484,7681.43161 176.832646,7679 173.972919,7679 C171.111185,7679 168.867987,7681.43261 168.977435,7684.2003 C168.989485,7684.52038 168.868991,7684.82446 168.629007,7685.03751 C164.384603,7688.81746 165.367633,7696.12429 170.940485,7698.41586 C173.889578,7699.62917 177.376877,7698.90899 179.631121,7696.65842 C183.125449,7693.16955 182.527999,7687.90523 179.315828,7685.03851" id="spaceship-[#84]"></path>
            </g>
        </g>
    </g>
</svg>