<?xml version="1.0" encoding="UTF-8" standalone="no"?>
<svg width="20px" height="20px" viewBox="0 0 20 20" version="1.1" xmlns="http://www.w3.org/2000/svg" xmlns:xlink="http://www.w3.org/1999/xlink">
    <!-- Generator: Sketch 3.8.1 (29687) - http://www.bohemiancoding.com/sketch -->
    <title>speaker [#921]</title>
    <desc>Created with Sketch.</desc>
    <defs></defs>
    <g id="Page-1" stroke="none" stroke-width="1" fill="none" fill-rule="evenodd">
        <g id="Dribbble-Dark-Preview" transform="translate(-420.000000, -4079.000000)" fill="#FFFFFF">
            <g id="icons" transform="translate(56.000000, 160.000000)">
                <path d="M382,3937 L379.061,3937 C380.359,3935 381.167,3933.71 381.167,3931.75 C381.167,3928.945 379.513,3926.407 377.13,3925.29 C377.768,3924.581 378.167,3923.841 378.167,3922.812 C378.167,3922.08 377.956,3921 377.612,3921 L382,3921 L382,3937 L382,3937 Z M374.167,3936.5 C371.41,3936.5 369.167,3934.257 369.167,3931.5 C369.167,3928.743 371.41,3926.5 374.167,3926.5 C376.924,3926.5 379.167,3928.743 379.167,3931.5 C379.167,3934.257 376.924,3936.5 374.167,3936.5 L374.167,3936.5 Z M366,3937 L366,3921 L370.721,3921 C370.378,3921 370.167,3922.018 370.167,3922.75 C370.167,3923.778 370.566,3924.581 371.203,3925.29 C368.821,3926.407 367.167,3929.007 367.167,3931.813 C367.167,3933.772 367.974,3935 369.272,3937 L366,3937 L366,3937 Z M374.167,3920.5 C375.269,3920.5 376.167,3921.397 376.167,3922.5 C376.167,3923.603 375.269,3924.5 374.167,3924.5 C373.064,3924.5 372.167,3923.603 372.167,3922.5 C372.167,3921.397 373.064,3920.5 374.167,3920.5 L374.167,3920.5 Z M364,3939 L384,3939 L384,3919 L364,3919 L364,3939 L364,3939 Z" id="speaker-[#921]"></path>
            </g>
        </g>
    </g>
</svg>