<?xml version="1.0" encoding="UTF-8" standalone="no"?>
<svg width="20px" height="20px" viewBox="0 0 20 20" version="1.1" xmlns="http://www.w3.org/2000/svg" xmlns:xlink="http://www.w3.org/1999/xlink">
    <!-- Generator: Sketch 3.8.1 (29687) - http://www.bohemiancoding.com/sketch -->
    <title>speaker [#922]</title>
    <desc>Created with Sketch.</desc>
    <defs></defs>
    <g id="Page-1" stroke="none" stroke-width="1" fill="none" fill-rule="evenodd">
        <g id="Dribbble-Dark-Preview" transform="translate(-380.000000, -4079.000000)" fill="#FFFFFF">
            <g id="icons" transform="translate(56.000000, 160.000000)">
                <path d="M342,3935.695 C342,3936.247 341.552,3937 341,3937 L339.061,3937 C340.359,3936 341.167,3933.808 341.167,3931.848 C341.167,3929.042 339.513,3926.553 337.13,3925.436 C337.768,3924.728 338.167,3923.914 338.167,3922.886 C338.167,3922.153 337.956,3922 337.612,3921 L341,3921 C341.552,3921 342,3921.143 342,3921.695 L342,3935.695 Z M334.167,3936.695 C331.41,3936.695 329.167,3934.452 329.167,3931.695 C329.167,3928.938 331.41,3926.695 334.167,3926.695 C336.924,3926.695 339.167,3928.938 339.167,3931.695 C339.167,3934.452 336.924,3936.695 334.167,3936.695 L334.167,3936.695 Z M327,3937 C326.448,3937 326,3936.247 326,3935.695 L326,3921.695 C326,3921.143 326.448,3921 327,3921 L330.721,3921 C330.378,3922 330.167,3922.115 330.167,3922.848 C330.167,3923.876 330.566,3924.728 331.203,3925.436 C328.821,3926.553 327.167,3929.08 327.167,3931.886 C327.167,3933.846 327.974,3936 329.272,3937 L327,3937 Z M334.167,3920.695 C335.269,3920.695 336.167,3921.592 336.167,3922.695 C336.167,3923.798 335.269,3924.695 334.167,3924.695 C333.064,3924.695 332.167,3923.798 332.167,3922.695 C332.167,3921.592 333.064,3920.695 334.167,3920.695 L334.167,3920.695 Z M342,3919 L326,3919 C324.895,3919 324,3919.896 324,3921 L324,3937 C324,3938.105 324.895,3939 326,3939 L342,3939 C343.105,3939 344,3938.105 344,3937 L344,3921 C344,3919.896 343.105,3919 342,3919 L342,3919 Z" id="speaker-[#922]"></path>
            </g>
        </g>
    </g>
</svg>