<?xml version="1.0" encoding="UTF-8" standalone="no"?>
<svg width="20px" height="20px" viewBox="0 0 20 20" version="1.1" xmlns="http://www.w3.org/2000/svg" xmlns:xlink="http://www.w3.org/1999/xlink">
    <!-- Generator: Sketch 3.8.1 (29687) - http://www.bohemiancoding.com/sketch -->
    <title>speaker [#923]</title>
    <desc>Created with Sketch.</desc>
    <defs></defs>
    <g id="Page-1" stroke="none" stroke-width="1" fill="none" fill-rule="evenodd">
        <g id="Dribbble-Dark-Preview" transform="translate(-340.000000, -4079.000000)" fill="#FFFFFF">
            <g id="icons" transform="translate(56.000000, 160.000000)">
                <path d="M297.13,3931.797 C297.13,3933.454 295.787,3934.797 294.13,3934.797 C292.473,3934.797 291.13,3933.454 291.13,3931.797 C291.13,3930.14 292.473,3928.797 294.13,3928.797 C295.787,3928.797 297.13,3930.14 297.13,3931.797 L297.13,3931.797 Z M302,3937 L299.061,3937 C300.359,3935 301.167,3933.71 301.167,3931.75 C301.167,3928.945 299.513,3926.407 297.13,3925.29 C297.768,3924.582 298.167,3923.841 298.167,3922.813 C298.167,3922.08 297.956,3921 297.612,3921 L302,3921 L302,3937 Z M294.167,3936.5 C291.41,3936.5 289.167,3934.257 289.167,3931.5 C289.167,3928.743 291.41,3926.5 294.167,3926.5 C296.924,3926.5 299.167,3928.743 299.167,3931.5 C299.167,3934.257 296.924,3936.5 294.167,3936.5 L294.167,3936.5 Z M286,3937 L286,3921 L290.722,3921 C290.378,3921 290.167,3922.018 290.167,3922.75 C290.167,3923.779 290.566,3924.582 291.203,3925.29 C288.821,3926.407 287.167,3929.008 287.167,3931.813 C287.167,3933.773 287.974,3935 289.272,3937 L286,3937 Z M294.167,3920.5 C295.27,3920.5 296.167,3921.398 296.167,3922.5 C296.167,3923.603 295.27,3924.5 294.167,3924.5 C293.064,3924.5 292.167,3923.603 292.167,3922.5 C292.167,3921.398 293.064,3920.5 294.167,3920.5 L294.167,3920.5 Z M284,3939 L304,3939 L304,3919 L284,3919 L284,3939 Z" id="speaker-[#923]"></path>
            </g>
        </g>
    </g>
</svg>