<?xml version="1.0" encoding="UTF-8" standalone="no"?>
<svg width="20px" height="20px" viewBox="0 0 20 20" version="1.1" xmlns="http://www.w3.org/2000/svg" xmlns:xlink="http://www.w3.org/1999/xlink">
    <!-- Generator: Sketch 3.8.1 (29687) - http://www.bohemiancoding.com/sketch -->
    <title>speaker [#924]</title>
    <desc>Created with Sketch.</desc>
    <defs></defs>
    <g id="Page-1" stroke="none" stroke-width="1" fill="none" fill-rule="evenodd">
        <g id="Dribbble-Dark-Preview" transform="translate(-300.000000, -4079.000000)" fill="#FFFFFF">
            <g id="icons" transform="translate(56.000000, 160.000000)">
                <path d="M257.13,3931.797 C257.13,3933.454 255.787,3934.797 254.13,3934.797 C252.473,3934.797 251.13,3933.454 251.13,3931.797 C251.13,3930.14 252.473,3928.797 254.13,3928.797 C255.787,3928.797 257.13,3930.14 257.13,3931.797 L257.13,3931.797 Z M262,3935.5 C262,3936.053 261.552,3937 261,3937 L259.061,3937 C260.359,3935 261.167,3933.71 261.167,3931.75 C261.167,3928.945 259.513,3926.407 257.13,3925.29 C257.768,3924.582 258.167,3923.841 258.167,3922.813 C258.167,3922.08 257.956,3921 257.612,3921 L261,3921 C261.552,3921 262,3920.948 262,3921.5 L262,3935.5 Z M254.167,3936.5 C251.41,3936.5 249.167,3934.257 249.167,3931.5 C249.167,3928.743 251.41,3926.5 254.167,3926.5 C256.924,3926.5 259.167,3928.743 259.167,3931.5 C259.167,3934.257 256.924,3936.5 254.167,3936.5 L254.167,3936.5 Z M247,3937 C246.448,3937 246,3936.053 246,3935.5 L246,3921.5 C246,3920.948 246.448,3921 247,3921 L250.722,3921 C250.378,3921 250.167,3922.018 250.167,3922.75 C250.167,3923.779 250.566,3924.582 251.203,3925.29 C248.821,3926.407 247.167,3929.008 247.167,3931.813 C247.167,3933.773 247.974,3935 249.272,3937 L247,3937 Z M254.167,3920.5 C255.27,3920.5 256.167,3921.398 256.167,3922.5 C256.167,3923.603 255.27,3924.5 254.167,3924.5 C253.064,3924.5 252.167,3923.603 252.167,3922.5 C252.167,3921.398 253.064,3920.5 254.167,3920.5 L254.167,3920.5 Z M262,3919 L246,3919 C244.896,3919 244,3919.896 244,3921 L244,3937 C244,3938.105 244.896,3939 246,3939 L262,3939 C263.105,3939 264,3938.105 264,3937 L264,3921 C264,3919.896 263.105,3919 262,3919 L262,3919 Z" id="speaker-[#924]"></path>
            </g>
        </g>
    </g>
</svg>