<?xml version="1.0" encoding="UTF-8" standalone="no"?>
<svg width="20px" height="20px" viewBox="0 0 20 20" version="1.1" xmlns="http://www.w3.org/2000/svg" xmlns:xlink="http://www.w3.org/1999/xlink">
    <!-- Generator: Sketch 3.8.1 (29687) - http://www.bohemiancoding.com/sketch -->
    <title> spiral [#33]</title>
    <desc>Created with Sketch.</desc>
    <defs></defs>
    <g id="Page-1" stroke="none" stroke-width="1" fill="none" fill-rule="evenodd">
        <g id="Dribbble-Dark-Preview" transform="translate(-260.000000, -8039.000000)" fill="#FFFFFF">
            <g id="icons" transform="translate(56.000000, 160.000000)">
                <path d="M218,7888 L218,7886 C218,7885.448 217.552,7885 217,7885 L211,7885 C210.448,7885 210,7885.448 210,7886 L210,7892 C210,7892.552 210.448,7893 211,7893 L221,7893 C221.552,7893 222,7892.552 222,7892 L222,7882 C222,7881.448 221.552,7881 221,7881 L207,7881 C206.448,7881 206,7881.448 206,7882 L206,7896 C206,7896.552 206.448,7897 207,7897 L223,7897 C223.552,7897 224,7897.448 224,7898 C224,7898.552 223.552,7899 223,7899 L206,7899 C204.896,7899 204,7898.105 204,7897 L204,7881 C204,7879.895 204.896,7879 206,7879 L222,7879 C223.105,7879 224,7879.895 224,7881 L224,7893 C224,7894.105 223.105,7895 222,7895 L210,7895 C208.896,7895 208,7894.105 208,7893 L208,7885 C208,7883.895 208.896,7883 210,7883 L218,7883 C219.105,7883 220,7883.895 220,7885 L220,7889 C220,7890.105 219.105,7891 218,7891 L214,7891 C212.896,7891 212,7890.105 212,7889 C212,7887.895 212.896,7887 214,7887 C215.105,7887 216,7887.895 216,7889 L217,7889 C217.552,7889 218,7888.552 218,7888" id="-spiral-[#33]"></path>
            </g>
        </g>
    </g>
</svg>