<?xml version="1.0" encoding="UTF-8" standalone="no"?>
<svg width="18px" height="20px" viewBox="0 0 18 20" version="1.1" xmlns="http://www.w3.org/2000/svg" xmlns:xlink="http://www.w3.org/1999/xlink">
    <!-- Generator: Sketch 3.8.1 (29687) - http://www.bohemiancoding.com/sketch -->
    <title> spiral [#31]</title>
    <desc>Created with Sketch.</desc>
    <defs></defs>
    <g id="Page-1" stroke="none" stroke-width="1" fill="none" fill-rule="evenodd">
        <g id="Dribbble-Dark-Preview" transform="translate(-341.000000, -8039.000000)" fill="#FFFFFF">
            <g id="icons" transform="translate(56.000000, 160.000000)">
                <path d="M297,7888.302 L297,7886.302 C297,7885.75 296.552,7885 296,7885 L292,7885 C291.448,7885 291,7885.75 291,7886.302 L291,7892.302 C291,7892.854 291.448,7893 292,7893 L300,7893 C300.552,7893 301,7892.854 301,7892.302 L301,7882.302 C301,7881.75 300.552,7881 300,7881 L288,7881 C287.448,7881 287,7881.75 287,7882.302 L287,7896.302 C287,7896.854 287.448,7897 288,7897 L302,7897 C302.552,7897 303,7897.524 303,7898.076 L303,7898.151 C303,7898.703 302.552,7899 302,7899 L287,7899 C285.896,7899 285,7898.407 285,7897.302 L285,7881.302 C285,7880.197 285.896,7879 287,7879 L301,7879 C302.105,7879 303,7880.197 303,7881.302 L303,7893.302 C303,7894.407 302.105,7895 301,7895 L291,7895 C289.896,7895 289,7894.407 289,7893.302 L289,7885.302 C289,7884.197 289.896,7883 291,7883 L297,7883 C298.105,7883 299,7884.197 299,7885.302 L299,7889.302 C299,7890.407 298.105,7891 297,7891 L295,7891 C293.896,7891 293,7890.407 293,7889.302 L293,7888.302 C293,7887.75 293.448,7887.302 294,7887.302 C294.552,7887.302 295,7887.75 295,7888.302 C295,7888.854 295.448,7889.302 296,7889.302 C296.552,7889.302 297,7888.854 297,7888.302" id="-spiral-[#31]"></path>
            </g>
        </g>
    </g>
</svg>