<?xml version="1.0" encoding="UTF-8" standalone="no"?>
<svg width="20px" height="20px" viewBox="0 0 20 20" version="1.1" xmlns="http://www.w3.org/2000/svg" xmlns:xlink="http://www.w3.org/1999/xlink">
    <!-- Generator: Sketch 3.8.1 (29687) - http://www.bohemiancoding.com/sketch -->
    <title> spiral [#32]</title>
    <desc>Created with Sketch.</desc>
    <defs></defs>
    <g id="Page-1" stroke="none" stroke-width="1" fill="none" fill-rule="evenodd">
        <g id="Dribbble-Dark-Preview" transform="translate(-300.000000, -8039.000000)" fill="#FFFFFF">
            <g id="icons" transform="translate(56.000000, 160.000000)">
                <path d="M264,7887 C264,7891.418 260.418,7895 256,7895 L254,7895 C250.686,7895 248,7892.314 248,7889 C248,7885.686 250.686,7883 254,7883 L256,7883 C258.209,7883 260,7884.791 260,7887 C260,7889.209 258.209,7891 256,7891 L254,7891 C252.896,7891 252,7890.105 252,7889 C252,7887.895 252.896,7887 254,7887 C255.105,7887 256,7887.895 256,7889 C257.105,7889 258,7888.105 258,7887 C258,7885.895 257.105,7885 256,7885 L254,7885 C251.791,7885 250,7886.791 250,7889 C250,7891.209 251.791,7893 254,7893 L256,7893 C259.314,7893 262,7890.314 262,7887 C262,7883.686 259.314,7881 256,7881 L254,7881 C249.582,7881 246,7884.582 246,7889 C246,7893.418 249.582,7897 254,7897 L255,7897 C255.552,7897 256,7897.448 256,7898 C256,7898.552 255.552,7899 255,7899 L254,7899 C248.477,7899 244,7894.523 244,7889 C244,7883.477 248.477,7879 254,7879 L256,7879 C260.418,7879 264,7882.582 264,7887" id="-spiral-[#32]"></path>
            </g>
        </g>
    </g>
</svg>