<?xml version="1.0" encoding="UTF-8" standalone="no"?>
<svg width="20px" height="20px" viewBox="0 0 20 20" version="1.1" xmlns="http://www.w3.org/2000/svg" xmlns:xlink="http://www.w3.org/1999/xlink">
    <!-- Generator: Sketch 3.8.1 (29687) - http://www.bohemiancoding.com/sketch -->
    <title>sport [#1316]</title>
    <desc>Created with Sketch.</desc>
    <defs></defs>
    <g id="Page-1" stroke="none" stroke-width="1" fill="none" fill-rule="evenodd">
        <g id="Dribbble-Dark-Preview" transform="translate(-300.000000, -2319.000000)" fill="#FFFFFF">
            <g id="icons" transform="translate(56.000000, 160.000000)">
                <path d="M260.612,2173.499 C258.849,2171.944 256.535,2171 254,2171 C251.465,2171 249.151,2171.944 247.388,2173.499 C246.513,2172.216 246,2170.667 246,2169 C246,2167.334 246.513,2165.785 247.388,2164.502 C249.151,2166.057 251.465,2167 254,2167 C256.535,2167 258.849,2166.057 260.612,2164.502 C261.487,2165.785 262,2167.334 262,2169 C262,2170.667 261.487,2172.216 260.612,2173.499 M254,2177 C251.976,2177 250.125,2176.244 248.715,2175 C250.125,2173.756 251.976,2173 254,2173 C256.024,2173 257.875,2173.756 259.285,2175 C257.875,2176.244 256.024,2177 254,2177 M254,2161 C256.024,2161 257.875,2161.756 259.285,2163 C257.875,2164.244 256.024,2165 254,2165 C251.976,2165 250.125,2164.244 248.715,2163 C250.125,2161.756 251.976,2161 254,2161 M254,2159 C248.484,2159 244,2163.472 244,2169 C244,2174.519 248.474,2179 254,2179 C259.522,2179 264,2174.522 264,2169 C264,2163.49 259.535,2159 254,2159" id="sport-[#1316]"></path>
            </g>
        </g>
    </g>
</svg>