<?xml version="1.0" encoding="UTF-8" standalone="no"?>
<svg width="20px" height="16px" viewBox="0 0 20 16" version="1.1" xmlns="http://www.w3.org/2000/svg" xmlns:xlink="http://www.w3.org/1999/xlink">
    <!-- Generator: Sketch 3.8.1 (29687) - http://www.bohemiancoding.com/sketch -->
    <title>squarespace [#132]</title>
    <desc>Created with Sketch.</desc>
    <defs></defs>
    <g id="Page-1" stroke="none" stroke-width="1" fill="none" fill-rule="evenodd">
        <g id="Dribbble-Dark-Preview" transform="translate(-140.000000, -7601.000000)" fill="#FFFFFF">
            <g id="icons" transform="translate(56.000000, 160.000000)">
                <path d="M102.8695,7446.25504 C101.3625,7444.73916 98.9185,7444.73916 97.4115,7446.25504 L91.2705,7452.43224 C90.8935,7452.81045 90.8935,7453.42505 91.2705,7453.80428 C91.6475,7454.1835 92.2585,7454.1835 92.6355,7453.80428 L98.7755,7447.62809 C99.5285,7446.86964 100.7515,7446.86964 101.5045,7447.62809 C102.2585,7448.38552 102.2585,7449.61473 101.5045,7450.37317 L95.4825,7456.43066 C96.2355,7457.1881 97.4575,7457.1881 98.2115,7456.43066 L102.8695,7451.74521 C104.3765,7450.22933 104.3765,7447.77092 102.8695,7446.25504 M100.8225,7448.31411 C100.4455,7447.93488 99.8345,7447.93488 99.4575,7448.31411 L93.3175,7454.49029 C92.5635,7455.24874 91.3415,7455.24874 90.5885,7454.49029 C90.2115,7454.11107 89.6005,7454.11107 89.2235,7454.49029 C88.8465,7454.86952 88.8465,7455.48412 89.2235,7455.86233 C90.7305,7457.37922 93.1745,7457.37922 94.6825,7455.86233 L100.8225,7449.68615 C101.1995,7449.30793 101.1995,7448.69232 100.8225,7448.31411 M98.7755,7442.13691 C97.2685,7440.62103 94.8245,7440.62103 93.3175,7442.13691 L87.1765,7448.31411 C86.8005,7448.69232 86.8005,7449.30793 87.1765,7449.68615 C87.5535,7450.06537 88.1645,7450.06537 88.5415,7449.68615 L94.6825,7443.50996 C95.4355,7442.75151 96.6575,7442.75151 97.4105,7443.50996 C97.7875,7443.88918 98.3985,7443.88918 98.7755,7443.50996 C99.1525,7443.13073 99.1525,7442.51613 98.7755,7442.13691 M96.7285,7444.19598 C96.3515,7443.81675 95.7405,7443.81675 95.3645,7444.19598 L89.2235,7450.37317 C88.4695,7451.13061 87.2485,7451.13061 86.4945,7450.37317 C85.7405,7449.61473 85.7405,7448.38552 86.4945,7447.62708 L92.5175,7441.56959 C91.7635,7440.81114 90.5415,7440.81114 89.7875,7441.56959 L85.1295,7446.25504 C83.6235,7447.77092 83.6235,7450.22933 85.1295,7451.74521 C86.6375,7453.2621 89.0805,7453.2621 90.5885,7451.74521 L96.7285,7445.56902 C97.1055,7445.1898 97.1055,7444.5752 96.7285,7444.19598" id="squarespace-[#132]"></path>
            </g>
        </g>
    </g>
</svg>