<?xml version="1.0" encoding="UTF-8" standalone="no"?>
<svg width="10px" height="20px" viewBox="0 0 10 20" version="1.1" xmlns="http://www.w3.org/2000/svg" xmlns:xlink="http://www.w3.org/1999/xlink">
    <!-- Generator: Sketch 3.8.1 (29687) - http://www.bohemiancoding.com/sketch -->
    <title>stairs [#806]</title>
    <desc>Created with Sketch.</desc>
    <defs></defs>
    <g id="Page-1" stroke="none" stroke-width="1" fill="none" fill-rule="evenodd">
        <g id="Dribbble-Dark-Preview" transform="translate(-145.000000, -4679.000000)" fill="#FFFFFF">
            <g id="icons" transform="translate(56.000000, 160.000000)">
                <path d="M91,4533 L97,4533 L97,4531 L91,4531 L91,4533 Z M91,4529 L97,4529 L97,4527 L91,4527 L91,4529 Z M91,4525 L97,4525 L97,4523 L91,4523 L91,4525 Z M97,4519 L97,4521 L91,4521 L91,4519 L89,4519 L89,4539 L91,4539 L91,4535 L97,4535 L97,4539 L99,4539 L99,4519 L97,4519 Z" id="stairs-[#806]"></path>
            </g>
        </g>
    </g>
</svg>