<?xml version="1.0" encoding="UTF-8" standalone="no"?>
<svg width="20px" height="20px" viewBox="0 0 20 20" version="1.1" xmlns="http://www.w3.org/2000/svg" xmlns:xlink="http://www.w3.org/1999/xlink">
    <!-- Generator: Sketch 3.8.1 (29687) - http://www.bohemiancoding.com/sketch -->
    <title>stairs [#59]</title>
    <desc>Created with Sketch.</desc>
    <defs></defs>
    <g id="Page-1" stroke="none" stroke-width="1" fill="none" fill-rule="evenodd">
        <g id="Dribbble-Dark-Preview" transform="translate(-420.000000, -7919.000000)" fill="#FFFFFF">
            <g id="icons" transform="translate(56.000000, 160.000000)">
                <path d="M382,7764 C382,7764.552 381.552,7765 381,7765 L378,7765 C376.896,7765 376,7765.895 376,7767 L376,7770 C376,7770.552 375.552,7771 375,7771 L372,7771 C370.896,7771 370,7771.895 370,7773 L370,7776 C370,7776.552 369.552,7777 369,7777 L367,7777 C366.448,7777 366,7776.552 366,7776 L366,7762 C366,7761.448 366.448,7761 367,7761 L381,7761 C381.552,7761 382,7761.448 382,7762 L382,7764 Z M382,7759 L366,7759 C364.896,7759 364,7759.895 364,7761 L364,7777 C364,7778.105 364.896,7779 366,7779 L370,7779 C371.104,7779 372,7778.105 372,7777.002 L372,7773.999 C372,7773.447 372.447,7773 372.999,7773 L376,7773 C377.105,7773 378,7772.105 378,7771 L378,7767.999 C378,7767.447 378.447,7767 378.999,7767 L382,7767 C383.105,7767 384,7766.105 384,7765 L384,7761 C384,7759.895 383.105,7759 382,7759 L382,7759 Z" id="stairs-[#59]"></path>
            </g>
        </g>
    </g>
</svg>