<?xml version="1.0" encoding="UTF-8" standalone="no"?>
<svg width="14px" height="14px" viewBox="0 0 14 14" version="1.1" xmlns="http://www.w3.org/2000/svg" xmlns:xlink="http://www.w3.org/1999/xlink">
    <!-- Generator: Sketch 3.8.1 (29687) - http://www.bohemiancoding.com/sketch -->
    <title>star [#1271]</title>
    <desc>Created with Sketch.</desc>
    <defs></defs>
    <g id="Page-1" stroke="none" stroke-width="1" fill="none" fill-rule="evenodd">
        <g id="Dribbble-Dark-Preview" transform="translate(-103.000000, -2522.000000)" fill="#FFFFFF">
            <g id="icons" transform="translate(56.000000, 160.000000)">
                <path d="M57.5355,2372.5355 C55.3385,2374.7325 51.5875,2374.4535 49.7845,2371.6965 C48.7015,2370.0395 48.7415,2367.8175 49.8645,2366.1865 C51.0215,2364.5075 52.9085,2363.8215 54.6895,2364.0685 L51.8785,2366.8785 C51.4885,2367.2695 51.4885,2367.9025 51.8785,2368.2925 C52.2695,2368.6835 52.9025,2368.6835 53.2925,2368.2925 L56.7565,2364.8285 C57.3205,2365.2015 57.7985,2365.6795 58.1715,2366.2435 L54.7075,2369.7075 C54.3165,2370.0975 54.3165,2370.7305 54.7075,2371.1215 L54.7075,2371.1215 C55.0975,2371.5115 55.7305,2371.5115 56.1215,2371.1215 L58.9315,2368.3105 C59.1395,2369.8105 58.6865,2371.3845 57.5355,2372.5355 M58.9495,2364.0505 C56.2165,2361.3165 51.7835,2361.3165 49.0505,2364.0505 C46.3165,2366.7835 46.3165,2371.2165 49.0505,2373.9495 C51.7835,2376.6835 56.2165,2376.6835 58.9495,2373.9495 C61.6835,2371.2165 61.6835,2366.7835 58.9495,2364.0505" id="star-[#1271]"></path>
            </g>
        </g>
    </g>
</svg>