<?xml version="1.0" encoding="UTF-8" standalone="no"?>
<svg width="19px" height="20px" viewBox="0 0 19 20" version="1.1" xmlns="http://www.w3.org/2000/svg" xmlns:xlink="http://www.w3.org/1999/xlink">
    <!-- Generator: Sketch 3.8.1 (29687) - http://www.bohemiancoding.com/sketch -->
    <title>star_wars [#134]</title>
    <desc>Created with Sketch.</desc>
    <defs></defs>
    <g id="Page-1" stroke="none" stroke-width="1" fill="none" fill-rule="evenodd">
        <g id="Dribbble-Dark-Preview" transform="translate(-60.000000, -7599.000000)" fill="#FFFFFF">
            <g id="icons" transform="translate(56.000000, 160.000000)">
                <path d="M18.8939465,7441.658 C21.3719927,7443.378 23,7446.246 23,7449.483 C23,7454.725 18.7320343,7459 13.5004936,7459 C8.26796571,7459 4,7454.725 4,7449.483 C4,7446.118 5.75931411,7443.152 8.40420889,7441.459 C7.5255391,7443.868 6.08708756,7445.396 6.7376981,7447.96 C7.2866199,7450.124 9.0074305,7451.558 10.5663289,7451.152 C11.9060535,7450.803 12.7017927,7449.205 12.5507405,7447.39 C12.4016628,7445.601 11.3294882,7444.619 9.99568719,7443.376 L10.9681476,7442.082 L12.8646921,7444.059 L12.0294622,7441.362 L13.6071187,7439 L15.0544557,7441.323 L14.1767732,7444.2 L16.0723305,7442.12 L16.9638348,7443.315 C15.9479345,7444.588 14.6605352,7445.369 14.6338789,7447.162 C14.6131463,7448.567 15.2282151,7450.809 16.543258,7451.152 C18.1021564,7451.558 19.8219797,7450.124 20.3718888,7447.96 C20.9464796,7445.696 19.5949078,7443.702 18.8939465,7441.658" id="star_wars-[#134]"></path>
            </g>
        </g>
    </g>
</svg>