<?xml version="1.0" encoding="UTF-8" standalone="no"?>
<svg width="14px" height="14px" viewBox="0 0 14 14" version="1.1" xmlns="http://www.w3.org/2000/svg" xmlns:xlink="http://www.w3.org/1999/xlink">
    <!-- Generator: Sketch 3.8.1 (29687) - http://www.bohemiancoding.com/sketch -->
    <title>star [#1272]</title>
    <desc>Created with Sketch.</desc>
    <defs></defs>
    <g id="Page-1" stroke="none" stroke-width="1" fill="none" fill-rule="evenodd">
        <g id="Dribbble-Dark-Preview" transform="translate(-63.000000, -2522.000000)" fill="#FFFFFF">
            <g id="icons" transform="translate(56.000000, 160.000000)">
                <path d="M18.899,2370 L14,2370 C13.448,2370 13,2370.482 13,2371.034 L13,2371.051 C13,2371.603 13.448,2372 14,2372 L17.975,2372 C17.061,2373 15.627,2374 14,2374 C10.892,2374 8.438,2371.15 9.113,2367.927 C9.518,2365.988 11.118,2364.445 13.065,2364.086 C15.071,2363.717 16.889,2364 17.975,2366 L14,2366 C13.448,2366 13,2366.482 13,2367.034 L13,2367.051 C13,2367.603 13.448,2368 14,2368 L18.899,2368 C18.965,2368 19,2368.658 19,2369 C19,2369.342 18.965,2370 18.899,2370 M14,2362 C10.134,2362 7,2365.134 7,2369 C7,2372.866 10.134,2376 14,2376 C17.866,2376 21,2372.866 21,2369 C21,2365.134 17.866,2362 14,2362" id="star-[#1272]"></path>
            </g>
        </g>
    </g>
</svg>