<?xml version="1.0" encoding="UTF-8" standalone="no"?>
<svg width="20px" height="20px" viewBox="0 0 20 20" version="1.1" xmlns="http://www.w3.org/2000/svg" xmlns:xlink="http://www.w3.org/1999/xlink">
    <!-- Generator: Sketch 3.8.1 (29687) - http://www.bohemiancoding.com/sketch -->
    <title>star [#1259]</title>
    <desc>Created with Sketch.</desc>
    <defs></defs>
    <g id="Page-1" stroke="none" stroke-width="1" fill="none" fill-rule="evenodd">
        <g id="Dribbble-Dark-Preview" transform="translate(-180.000000, -2559.000000)" fill="#FFFFFF">
            <g id="icons" transform="translate(56.000000, 160.000000)">
                <path d="M134,2411 C132.897,2411 132,2410.103 132,2409 C132,2407.897 132.897,2407 134,2407 C135.103,2407 136,2407.897 136,2409 C136,2410.103 135.103,2411 134,2411 L134,2411 Z M134,2405 C131.791,2405 130,2406.791 130,2409 C130,2411.209 131.791,2413 134,2413 C136.209,2413 138,2411.209 138,2409 C138,2406.791 136.209,2405 134,2405 L134,2405 Z M141.254,2412.043 C139.46,2412.777 139.453,2412.78 138.339,2413.236 C137.915,2414.246 138.259,2413.425 137.019,2416.382 C134.43,2415.296 135.05,2415.556 133.872,2415.062 C132.868,2415.473 133.531,2415.202 130.957,2416.254 C130.223,2414.46 130.22,2414.453 129.764,2413.339 C128.755,2412.915 129.575,2413.259 126.618,2412.019 C127.704,2409.43 127.444,2410.05 127.938,2408.872 C127.733,2408.372 127.782,2408.491 126.746,2405.957 C129.308,2404.909 128.608,2405.195 129.661,2404.764 C130.081,2403.764 129.743,2404.57 130.981,2401.618 C133.57,2402.704 132.95,2402.444 134.128,2402.938 C134.628,2402.733 134.509,2402.782 137.043,2401.746 C138.088,2404.301 138.031,2404.161 138.236,2404.661 C139.245,2405.085 138.425,2404.741 141.382,2405.981 C140.202,2408.794 140.517,2408.044 140.062,2409.128 C140.267,2409.628 140.218,2409.509 141.254,2412.043 L141.254,2412.043 Z M144,2404.911 L139.773,2403.138 L138.138,2399.138 L134.138,2400.773 L129.911,2399 L128.138,2403.227 L124.138,2404.862 L125.773,2408.862 L124,2413.089 L128.227,2414.862 L129.862,2418.862 L133.862,2417.227 L138.089,2419 L139.862,2414.773 L143.862,2413.138 L142.227,2409.138 L144,2404.911 Z" id="star-[#1259]"></path>
            </g>
        </g>
    </g>
</svg>