<?xml version="1.0" encoding="UTF-8" standalone="no"?>
<svg width="19px" height="19px" viewBox="0 0 19 19" version="1.1" xmlns="http://www.w3.org/2000/svg" xmlns:xlink="http://www.w3.org/1999/xlink">
    <!-- Generator: Sketch 3.8.1 (29687) - http://www.bohemiancoding.com/sketch -->
    <title>star [#1260]</title>
    <desc>Created with Sketch.</desc>
    <defs></defs>
    <g id="Page-1" stroke="none" stroke-width="1" fill="none" fill-rule="evenodd">
        <g id="Dribbble-Dark-Preview" transform="translate(-141.000000, -2560.000000)" fill="#FFFFFF">
            <g id="icons" transform="translate(56.000000, 160.000000)">
                <path d="M94.5,2411.54666 C93.3712648,2411.54666 92.4533361,2410.62874 92.4533361,2409.5 C92.4533361,2408.37126 93.3712648,2407.45334 94.5,2407.45334 C95.6287352,2407.45334 96.5466639,2408.37126 96.5466639,2409.5 C96.5466639,2410.62874 95.6287352,2411.54666 94.5,2411.54666 L94.5,2411.54666 Z M94.5,2405.40667 C92.2394597,2405.40667 90.4066721,2407.23946 90.4066721,2409.5 C90.4066721,2411.76054 92.2394597,2413.59333 94.5,2413.59333 C96.7605403,2413.59333 98.5933279,2411.76054 98.5933279,2409.5 C98.5933279,2407.23946 96.7605403,2405.40667 94.5,2405.40667 L94.5,2405.40667 Z M101.024765,2410.41588 L101.024765,2410.41588 C101.521081,2411.62955 100.938805,2413.01719 99.7241097,2413.51351 L99.7241097,2413.51351 L98.9402374,2413.83483 C98.7795743,2414.21654 98.6690544,2414.48056 98.5083913,2414.86328 C98.0407286,2415.97769 96.7881703,2416.71858 95.1508391,2416.0309 L94.3690135,2415.70344 L93.5841179,2416.02476 L93.5841179,2416.02476 C92.5444126,2416.44945 91.2079411,2416.16701 90.486492,2414.72411 L90.1651658,2413.94024 C89.780393,2413.77855 89.5194433,2413.66905 89.1367171,2413.50839 C88.0223086,2413.04073 87.2814163,2411.78817 87.968072,2410.15084 L88.2965616,2409.36901 L87.9752354,2408.58412 L87.9752354,2408.58412 C87.4789194,2407.37045 88.0611952,2405.98281 89.2758903,2405.48649 L89.2758903,2405.48649 L90.0597626,2405.16517 C90.2327057,2404.75379 90.3432255,2404.49079 90.4916087,2404.13672 C90.9623414,2403.01412 92.218993,2402.28449 93.8491609,2402.96807 L94.6309865,2403.29656 L95.4158821,2402.97524 L95.4158821,2402.97524 C96.6295538,2402.47892 98.017192,2403.0612 98.513508,2404.27589 L98.513508,2404.27589 L98.8348342,2405.05976 C99.2462137,2405.23271 99.50921,2405.34323 99.8632829,2405.49161 C100.985878,2405.96234 101.715514,2407.21899 101.031928,2408.84916 L100.703438,2409.63099 L101.024765,2410.41588 Z M103.291445,2410.55199 C103.053009,2409.96869 103.056079,2409.31478 103.299632,2408.73352 L103.814368,2407.50655 C104.32194,2406.29595 103.752968,2404.90422 102.542366,2404.39664 L101.315391,2403.88191 C100.734138,2403.63733 100.273639,2403.17274 100.035203,2402.59046 L99.6330332,2401.60602 C99.1367172,2400.39235 97.7501023,2399.81007 96.5354073,2400.30639 L95.5519853,2400.70856 C94.968686,2400.94699 94.3147769,2400.94392 93.7335244,2400.70037 L92.5065493,2400.18563 C91.2959476,2399.67806 89.9042161,2400.24703 89.3966435,2401.45763 L88.8819075,2402.68461 C88.6373311,2403.26586 88.1737618,2403.72636 87.5904625,2403.9648 L86.6060172,2404.36697 C85.3923455,2404.86328 84.8100696,2406.2499 85.3063856,2407.46459 L85.708555,2408.44801 C85.9469914,2409.03131 85.9439214,2409.68522 85.7003684,2410.26648 L85.1856324,2411.49345 C84.6780598,2412.70405 85.2470323,2414.09578 86.4576341,2414.60336 L87.6846091,2415.11809 C88.2658616,2415.36267 88.726361,2415.82624 88.9647974,2416.40954 L89.3669668,2417.39398 C89.8632828,2418.60765 91.2498977,2419.18993 92.4645927,2418.69361 L93.4480147,2418.29144 C94.031314,2418.05301 94.6852231,2418.05608 95.2664756,2418.29963 L96.4934507,2418.81437 C97.7040524,2419.32194 99.0957839,2418.75297 99.6033565,2417.54237 L100.118093,2416.31539 C100.362669,2415.73414 100.827262,2415.27364 101.409537,2415.0352 L102.393983,2414.63303 C103.607655,2414.13672 104.18993,2412.7501 103.693614,2411.53541 L103.291445,2410.55199 Z" id="star-[#1260]"></path>
            </g>
        </g>
    </g>
</svg>