<?xml version="1.0" encoding="UTF-8" standalone="no"?>
<svg width="11px" height="20px" viewBox="0 0 11 20" version="1.1" xmlns="http://www.w3.org/2000/svg" xmlns:xlink="http://www.w3.org/1999/xlink">
    <!-- Generator: Sketch 3.8.1 (29687) - http://www.bohemiancoding.com/sketch -->
    <title>star_favorite_half [#1500]</title>
    <desc>Created with Sketch.</desc>
    <defs></defs>
    <g id="Page-1" stroke="none" stroke-width="1" fill="none" fill-rule="evenodd">
        <g id="Dribbble-Dark-Preview" transform="translate(-59.000000, -320.000000)" fill="#FFFFFF">
            <g id="icons" transform="translate(56.000000, 160.000000)">
                <path d="M9.24050774,168.143597 L6.42456681,168.531348 L8.46172408,170.411144 C9.55840107,171.421496 10.0577906,172.877564 9.79929602,174.304649 L9.3186061,176.959948 L11.8386532,175.705751 C13.2466237,174.962228 14.0023079,175.201075 14.0023079,175.201075 L14.0023079,177.715464 C14.0023079,177.715464 13.3643212,177.787418 13.0750273,177.932325 L9.36040523,179.780141 C9.05571162,179.931044 8.73891826,180 8.43312468,180 C7.27264902,180 6.24967048,179.011633 6.47076584,177.793414 L7.18025096,173.879921 C7.29134863,173.268313 7.07685313,172.644713 6.60716298,172.21199 L3.60312599,169.440766 C2.42175077,168.350464 3.07403709,166.450681 4.70750282,166.225825 L8.85881575,165.655191 C9.50780213,165.566248 10.0687904,165.180495 10.3580843,164.623852 L12.2159453,161.064133 C12.7428343,159.804939 14.0023079,160.012806 14.0023079,160.012806 L14.0023079,163.321686 L12.7417343,165.737139 C12.0641485,167.035307 10.755176,167.93573 9.24050774,168.143597" id="star_favorite_half-[#1500]"></path>
            </g>
        </g>
    </g>
</svg>