<?xml version="1.0" encoding="UTF-8" standalone="no"?>
<svg width="21px" height="20px" viewBox="0 0 21 20" version="1.1" xmlns="http://www.w3.org/2000/svg" xmlns:xlink="http://www.w3.org/1999/xlink">
    <!-- Generator: Sketch 3.8.1 (29687) - http://www.bohemiancoding.com/sketch -->
    <title>star_favorite [#1498]</title>
    <desc>Created with Sketch.</desc>
    <defs></defs>
    <g id="Page-1" stroke="none" stroke-width="1" fill="none" fill-rule="evenodd">
        <g id="Dribbble-Dark-Preview" transform="translate(-139.000000, -320.000000)" fill="#FFFFFF">
            <g id="icons" transform="translate(56.000000, 160.000000)">
                <path d="M98.7860271,170.404 C97.7402268,171.416 97.2624767,172.872 97.5102768,174.301 L97.9691269,176.957 L95.5646263,175.703 C94.9304261,175.372 94.216426,175.197 93.5003258,175.197 C92.7831756,175.197 92.0691754,175.372 91.4349753,175.703 L89.0304747,176.957 L89.4903748,174.301 C89.7371249,172.872 89.2593748,171.416 88.2135745,170.404 L86.268974,168.523 L88.9569747,168.135 C90.402825,167.927 91.6512753,167.027 92.2980755,165.727 L93.5003258,163.31 L94.7025761,165.727 C95.3483262,167.027 96.5978265,167.927 98.0426269,168.135 L100.731678,168.523 L98.7860271,170.404 Z M103.423878,169.433 C104.551578,168.342 103.929978,166.441 102.370728,166.216 L98.408027,165.645 C97.7885268,165.556 97.2530267,165.17 96.9768766,164.613 L95.2044762,161.051 C94.8558761,160.35 94.1775759,160 93.5003258,160 C92.8220256,160 92.1437255,160.35 91.7951254,161.051 L90.0237749,164.613 C89.7465749,165.17 89.2110747,165.556 88.5926246,165.645 L84.6299236,166.216 C83.0706733,166.441 82.4480231,168.342 83.5757234,169.433 L86.4432741,172.206 C86.8916242,172.639 87.0963742,173.263 86.9903242,173.875 L86.313074,177.791 C86.102024,179.01 87.0785242,180 88.1862745,180 C88.4781746,180 88.7805746,179.931 89.0714247,179.779 L92.6151756,177.93 C92.8923756,177.786 93.1958257,177.713 93.5003258,177.713 C93.8037759,177.713 94.1072259,177.786 94.384426,177.93 L97.9292269,179.779 C98.2200769,179.931 98.521427,180 98.8133271,180 C99.9210773,180 100.897578,179.01 100.686528,177.791 L100.010327,173.875 C99.9042773,173.263 100.107977,172.639 100.556327,172.206 L103.423878,169.433 Z" id="star_favorite-[#1498]"></path>
            </g>
        </g>
    </g>
</svg>