<?xml version="1.0" encoding="UTF-8" standalone="no"?>
<svg width="21px" height="20px" viewBox="0 0 21 20" version="1.1" xmlns="http://www.w3.org/2000/svg" xmlns:xlink="http://www.w3.org/1999/xlink">
    <!-- Generator: Sketch 3.8.1 (29687) - http://www.bohemiancoding.com/sketch -->
    <title>star_favorite [#1499]</title>
    <desc>Created with Sketch.</desc>
    <defs></defs>
    <g id="Page-1" stroke="none" stroke-width="1" fill="none" fill-rule="evenodd">
        <g id="Dribbble-Dark-Preview" transform="translate(-99.000000, -320.000000)" fill="#FFFFFF">
            <g id="icons" transform="translate(56.000000, 160.000000)">
                <path d="M60.556381,172.206 C60.1080307,172.639 59.9043306,173.263 60.0093306,173.875 L60.6865811,177.791 C60.8976313,179.01 59.9211306,180 58.8133798,180 C58.5214796,180 58.2201294,179.931 57.9282291,179.779 L54.3844766,177.93 C54.1072764,177.786 53.8038262,177.714 53.499326,177.714 C53.1958758,177.714 52.8924256,177.786 52.6152254,177.93 L49.0714729,179.779 C48.7795727,179.931 48.4782224,180 48.1863222,180 C47.0785715,180 46.1020708,179.01 46.3131209,177.791 L46.9903714,173.875 C47.0953715,173.263 46.8916713,172.639 46.443321,172.206 L43.575769,169.433 C42.4480682,168.342 43.0707186,166.441 44.6289197,166.216 L48.5916225,165.645 C49.211123,165.556 49.7466233,165.17 50.0227735,164.613 L51.7951748,161.051 C52.143775,160.35 52.8220755,160 53.499326,160 C54.1776265,160 54.855927,160.35 55.2045272,161.051 L56.9769285,164.613 C57.2530787,165.17 57.7885791,165.556 58.4080795,165.645 L62.3707823,166.216 C63.9289834,166.441 64.5516338,168.342 63.423933,169.433 L60.556381,172.206 Z" id="star_favorite-[#1499]"></path>
            </g>
        </g>
    </g>
</svg>