<?xml version="1.0" encoding="UTF-8" standalone="no"?>
<svg width="21px" height="20px" viewBox="0 0 21 20" version="1.1" xmlns="http://www.w3.org/2000/svg" xmlns:xlink="http://www.w3.org/1999/xlink">
    <!-- Generator: Sketch 3.8.1 (29687) - http://www.bohemiancoding.com/sketch -->
    <title>stats [#1368]</title>
    <desc>Created with Sketch.</desc>
    <defs></defs>
    <g id="Page-1" stroke="none" stroke-width="1" fill="none" fill-rule="evenodd">
        <g id="Dribbble-Dark-Preview" transform="translate(-139.000000, -840.000000)" fill="#FFFFFF">
            <g id="icons" transform="translate(56.000000, 160.000000)">
                <path d="M99.8,698 L101.9,698 L101.9,682 L99.8,682 L99.8,698 Z M97.7,700 L104,700 L104,680 L97.7,680 L97.7,700 Z M85.1,698 L87.2,698 L87.2,686 L85.1,686 L85.1,698 Z M83,700 L89.3,700 L89.3,684 L83,684 L83,700 Z M92.45,698 L94.55,698 L94.55,692 L92.45,692 L92.45,698 Z M90.35,700 L96.65,700 L96.65,690 L90.35,690 L90.35,700 Z" id="stats-[#1368]"></path>
            </g>
        </g>
    </g>
</svg>