<?xml version="1.0" encoding="UTF-8" standalone="no"?>
<svg width="20px" height="20px" viewBox="0 0 20 20" version="1.1" xmlns="http://www.w3.org/2000/svg" xmlns:xlink="http://www.w3.org/1999/xlink">
    <!-- Generator: Sketch 3.8.1 (29687) - http://www.bohemiancoding.com/sketch -->
    <title>stats [#1192]</title>
    <desc>Created with Sketch.</desc>
    <defs></defs>
    <g id="Page-1" stroke="none" stroke-width="1" fill="none" fill-rule="evenodd">
        <g id="Dribbble-Dark-Preview" transform="translate(-60.000000, -2839.000000)" fill="#FFFFFF">
            <g id="icons" transform="translate(56.000000, 160.000000)">
                <path d="M14,2696.982 C9.941,2696.982 6.606,2693.95 6.096,2690.028 L10,2690.036 L10,2690.029 L12.417,2687.592 C15.085,2692.167 14.403,2690.997 15.699,2693.219 L18.907,2690 L21.925,2690 C21.414,2694 18.059,2696.982 14,2696.982 M14,2680.964 C18.085,2680.964 21.458,2684 21.936,2688 L18,2688 L18,2688.048 L16.04,2690.043 L13.793,2686.177 L13.799,2686.172 L12.754,2684.38 L11.342,2685.795 L11.351,2685.789 L9.122,2688 L6.064,2688 C6.542,2684 9.915,2680.964 14,2680.964 M14,2679 C8.477,2679 4,2683.478 4,2689 C4,2694.523 8.477,2699 14,2699 C19.523,2699 24,2694.523 24,2689 C24,2683.478 19.523,2679 14,2679" id="stats-[#1192]"></path>
            </g>
        </g>
    </g>
</svg>