<?xml version="1.0" encoding="UTF-8" standalone="no"?>
<svg width="21px" height="20px" viewBox="0 0 21 20" version="1.1" xmlns="http://www.w3.org/2000/svg" xmlns:xlink="http://www.w3.org/1999/xlink">
    <!-- Generator: Sketch 3.8.1 (29687) - http://www.bohemiancoding.com/sketch -->
    <title>stats [#1370]</title>
    <desc>Created with Sketch.</desc>
    <defs></defs>
    <g id="Page-1" stroke="none" stroke-width="1" fill="none" fill-rule="evenodd">
        <g id="Dribbble-Dark-Preview" transform="translate(-59.000000, -840.000000)" fill="#FFFFFF">
            <g id="icons" transform="translate(56.000000, 160.000000)">
                <path d="M12.45,698 L14.55,698 L14.55,682 L12.45,682 L12.45,698 Z M10.35,700 L16.65,700 L16.65,680 L10.35,680 L10.35,700 Z M5.1,698 L7.2,698 L7.2,686 L5.1,686 L5.1,698 Z M3,700 L9.3,700 L9.3,684 L3,684 L3,700 Z M19.8,698 L21.9,698 L21.9,692 L19.8,692 L19.8,698 Z M17.7,700 L24,700 L24,690 L17.7,690 L17.7,700 Z" id="stats-[#1370]"></path>
            </g>
        </g>
    </g>
</svg>