<?xml version="1.0" encoding="UTF-8" standalone="no"?>
<svg width="20px" height="20px" viewBox="0 0 20 20" version="1.1" xmlns="http://www.w3.org/2000/svg" xmlns:xlink="http://www.w3.org/1999/xlink">
    <!-- Generator: Sketch 3.8.1 (29687) - http://www.bohemiancoding.com/sketch -->
    <title>stats [#1190]</title>
    <desc>Created with Sketch.</desc>
    <defs></defs>
    <g id="Page-1" stroke="none" stroke-width="1" fill="none" fill-rule="evenodd">
        <g id="Dribbble-Dark-Preview" transform="translate(-140.000000, -2839.000000)" fill="#FFFFFF">
            <g id="icons" transform="translate(56.000000, 160.000000)">
                <path d="M102,2688 L98.118,2688 L96.112,2690.015 C94.956,2688.044 93.001,2684.71 92.795,2684.36 L91.381,2685.775 L91.389,2685.78 L89.16,2688 L86,2688 L86,2681 L102,2681 L102,2688 L102,2688 Z M102,2697 L86,2697 L86,2690 L89.99,2690 L92.434,2687.564 C95.157,2692.218 94.437,2690.985 95.731,2693.207 L98.944,2690 L102,2690 L102,2697 L102,2697 Z M84,2699 L104,2699 L104,2679 L84,2679 L84,2699 L84,2699 Z" id="stats-[#1190]"></path>
            </g>
        </g>
    </g>
</svg>