<?xml version="1.0" encoding="UTF-8" standalone="no"?>
<svg width="21px" height="20px" viewBox="0 0 21 20" version="1.1" xmlns="http://www.w3.org/2000/svg" xmlns:xlink="http://www.w3.org/1999/xlink">
    <!-- Generator: Sketch 3.8.1 (29687) - http://www.bohemiancoding.com/sketch -->
    <title>stats [#1366]</title>
    <desc>Created with Sketch.</desc>
    <defs></defs>
    <g id="Page-1" stroke="none" stroke-width="1" fill="none" fill-rule="evenodd">
        <g id="Dribbble-Dark-Preview" transform="translate(-219.000000, -840.000000)" fill="#FFFFFF">
            <g id="icons" transform="translate(56.000000, 160.000000)">
                <path d="M179.8,698 L181.9,698 L181.9,682 L179.8,682 L179.8,698 Z M177.7,700 L184,700 L184,680 L177.7,680 L177.7,700 Z M172.45,698 L174.55,698 L174.55,686 L172.45,686 L172.45,698 Z M170.35,700 L176.65,700 L176.65,684 L170.35,684 L170.35,700 Z M165.1,698 L167.2,698 L167.2,692 L165.1,692 L165.1,698 Z M163,700 L169.3,700 L169.3,690 L163,690 L163,700 Z" id="stats-[#1366]"></path>
            </g>
        </g>
    </g>
</svg>