<?xml version="1.0" encoding="UTF-8" standalone="no"?>
<svg width="20px" height="20px" viewBox="0 0 20 20" version="1.1" xmlns="http://www.w3.org/2000/svg" xmlns:xlink="http://www.w3.org/1999/xlink">
    <!-- Generator: Sketch 3.8.1 (29687) - http://www.bohemiancoding.com/sketch -->
    <title>stats [#1191]</title>
    <desc>Created with Sketch.</desc>
    <defs></defs>
    <g id="Page-1" stroke="none" stroke-width="1" fill="none" fill-rule="evenodd">
        <g id="Dribbble-Dark-Preview" transform="translate(-100.000000, -2839.000000)" fill="#FFFFFF">
            <g id="icons" transform="translate(56.000000, 160.000000)">
                <path d="M62,2688 L58.288,2688 C58.155,2688 58.028,2688.053 57.934,2688.146 L56.533,2689.548 C56.302,2689.779 55.914,2689.729 55.748,2689.447 C53.527,2685.655 53.847,2686.202 53.413,2685.46 C53.082,2684.895 52.306,2684.796 51.843,2685.259 L51.344,2685.757 L51.352,2685.771 L49.269,2687.854 C49.175,2687.947 49.048,2688 48.915,2688 L46,2688 L46,2682 C46,2681.448 46.448,2681 47,2681 L61,2681 C61.552,2681 62,2681.448 62,2682 L62,2688 Z M62,2696 C62,2696.552 61.552,2697 61,2697 L47,2697 C46.448,2697 46,2696.552 46,2696 L46,2690 L49.745,2690 C49.878,2690 50.005,2689.947 50.099,2689.854 L51.939,2688.013 C52.17,2687.781 52.558,2687.831 52.724,2688.114 C54.922,2691.866 54.484,2691.115 55.043,2692.078 C55.372,2692.645 56.149,2692.747 56.613,2692.284 L58.761,2690.146 C58.854,2690.052 58.981,2690 59.113,2690 L62,2690 L62,2696 Z M62,2679 L46,2679 C44.895,2679 44,2679.895 44,2681 L44,2697 C44,2698.104 44.895,2699 46,2699 L62,2699 C63.105,2699 64,2698.104 64,2697 L64,2681 C64,2679.895 63.105,2679 62,2679 L62,2679 Z" id="stats-[#1191]"></path>
            </g>
        </g>
    </g>
</svg>