<?xml version="1.0" encoding="UTF-8" standalone="no"?>
<svg width="20px" height="20px" viewBox="0 0 20 20" version="1.1" xmlns="http://www.w3.org/2000/svg" xmlns:xlink="http://www.w3.org/1999/xlink">
    <!-- Generator: Sketch 3.8.1 (29687) - http://www.bohemiancoding.com/sketch -->
    <title>steering_wheel [#666]</title>
    <desc>Created with Sketch.</desc>
    <defs></defs>
    <g id="Page-1" stroke="none" stroke-width="1" fill="none" fill-rule="evenodd">
        <g id="Dribbble-Dark-Preview" transform="translate(-140.000000, -5279.000000)" fill="#FFFFFF">
            <g id="icons" transform="translate(56.000000, 160.000000)">
                <path d="M98.899,5130 C99.031,5129.349 99.036,5128.673 98.899,5128 L101.93,5128 C102.022,5128.733 102.023,5129.261 101.93,5130 L98.899,5130 Z M97,5136.411 L97,5132.977 C97.479,5132.792 97.768,5132.392 97.977,5132 L101.411,5132 C100.598,5134 99,5135.598 97,5136.411 L97,5136.411 Z M94,5132 C90.035,5132 90.035,5126 94,5126 C97.964,5126 97.964,5132 94,5132 L94,5132 Z M93,5137 L95,5137 L95,5134 L93,5134 L93,5137 Z M91,5136.411 C89,5135.598 87.402,5134 86.589,5132 L90.022,5132 C90.302,5132.37 91,5132.698 91,5132.977 L91,5136.411 Z M86.069,5128 L89.101,5128 C88.968,5128.651 88.964,5129.327 89.101,5130 L86.069,5130 C85.977,5129.267 85.976,5128.739 86.069,5128 L86.069,5128 Z M94,5121 C97.35,5121 100.221,5123.072 101.411,5126 L97.977,5126 C97.064,5124.792 95.63,5124 94,5124 C92.369,5124 90.935,5124.792 90.022,5126 L86.589,5126 C87.778,5123.072 90.65,5121 94,5121 L94,5121 Z M94,5119 C88.477,5119 84,5123.477 84,5129 C84,5134.523 88.477,5139 94,5139 C99.523,5139 104,5134.523 104,5129 C104,5123.477 99.523,5119 94,5119 L94,5119 Z" id="steering_wheel-[#666]"></path>
            </g>
        </g>
    </g>
</svg>