<?xml version="1.0" encoding="UTF-8" standalone="no"?>
<svg width="22px" height="22px" viewBox="0 0 22 22" version="1.1" xmlns="http://www.w3.org/2000/svg" xmlns:xlink="http://www.w3.org/1999/xlink">
    <!-- Generator: Sketch 3.8.1 (29687) - http://www.bohemiancoding.com/sketch -->
    <title>stop [#950]</title>
    <desc>Created with Sketch.</desc>
    <defs></defs>
    <g id="Page-1" stroke="none" stroke-width="1" fill="none" fill-rule="evenodd">
        <g id="Dribbble-Dark-Preview" transform="translate(-60.000000, -3999.000000)" fill="#FFFFFF">
            <g id="icons" transform="translate(56.000000, 160.000000)">
                <path d="M12,3853 L16,3853 C17.105,3853 18,3852.105 18,3851 L18,3847 C18,3845.895 17.105,3845 16,3845 L12,3845 C10.895,3845 10,3845.895 10,3847 L10,3851 C10,3852.105 10.895,3853 12,3853 L12,3853 Z M22,3853 L24,3853 L24,3845 L22,3845 L22,3853 Z M24,3857 L24,3856 C24,3855.448 23.552,3855 23,3855 L23,3855 C22.448,3855 22,3855.448 22,3856 L22,3857 L21,3857 C20.448,3857 20,3857.448 20,3858 C20,3858.552 20.448,3859 21,3859 L22,3859 L22,3860 C22,3860.552 22.448,3861 23,3861 L23,3861 C23.552,3861 24,3860.552 24,3860 L24,3859 C25,3859 26,3859.111 26,3858 C26,3857.448 25.552,3857 25,3857 L24,3857 Z M22,3843 L24,3843 L24,3841 C24,3839.895 23.105,3839 22,3839 L20,3839 L20,3841 L21,3841 C21.552,3841 22,3841.448 22,3842 L22,3843 Z M4,3853 L6,3853 L6,3845 L4,3845 L4,3853 Z M6,3855 L4,3855 L4,3857 C4,3858.105 4.895,3859 6,3859 L8,3859 L8,3857 L7,3857 C6.448,3857 6,3856.552 6,3856 L6,3855 Z M4,3843 L6,3843 L6,3842 C6,3841.448 6.448,3841 7,3841 L8,3841 L8,3839 L6,3839 C4.895,3839 4,3839.895 4,3841 L4,3843 Z M10,3859 L18,3859 L18,3857 L10,3857 L10,3859 Z M10,3841 L18,3841 L18,3839 L10,3839 L10,3841 Z" id="stop-[#950]"></path>
            </g>
        </g>
    </g>
</svg>