<?xml version="1.0" encoding="UTF-8" standalone="no"?>
<svg width="21px" height="20px" viewBox="0 0 21 20" version="1.1" xmlns="http://www.w3.org/2000/svg" xmlns:xlink="http://www.w3.org/1999/xlink">
    <!-- Generator: Sketch 3.8.1 (29687) - http://www.bohemiancoding.com/sketch -->
    <title>stop [#1470]</title>
    <desc>Created with Sketch.</desc>
    <defs></defs>
    <g id="Page-1" stroke="none" stroke-width="1" fill="none" fill-rule="evenodd">
        <g id="Dribbble-Dark-Preview" transform="translate(-59.000000, -440.000000)" fill="#FFFFFF">
            <g id="icons" transform="translate(56.000000, 160.000000)">
                <path d="M9.3,294 L17.7,294 L17.7,286 L9.3,286 L9.3,294 Z M15.6,280 L15.6,282 L21.9,282 L21.9,288 L24,288 L24,280 L15.6,280 Z M21.9,298 L15.6,298 L15.6,300 L24,300 L24,292 L21.9,292 L21.9,298 Z M5.1,292 L3,292 L3,300 L11.4,300 L11.4,298 L5.1,298 L5.1,292 Z M5.1,288 L3,288 L3,280 L11.4,280 L11.4,282 L5.1,282 L5.1,288 Z" id="stop-[#1470]"></path>
            </g>
        </g>
    </g>
</svg>