<?xml version="1.0" encoding="UTF-8" standalone="no"?>
<svg width="20px" height="20px" viewBox="0 0 20 20" version="1.1" xmlns="http://www.w3.org/2000/svg" xmlns:xlink="http://www.w3.org/1999/xlink">
    <!-- Generator: Sketch 3.8.1 (29687) - http://www.bohemiancoding.com/sketch -->
    <title>stop [#977]</title>
    <desc>Created with Sketch.</desc>
    <defs></defs>
    <g id="Page-1" stroke="none" stroke-width="1" fill="none" fill-rule="evenodd">
        <g id="Dribbble-Dark-Preview" transform="translate(-180.000000, -3879.000000)" fill="#FFFFFF">
            <g id="icons" transform="translate(56.000000, 160.000000)">
                <path d="M142,3733 L144,3733 L144,3725 L142,3725 L142,3733 Z M142,3737 L140,3737 L140,3739 L144,3739 L144,3735 L142,3735 L142,3737 Z M140,3719 L140,3721 L142,3721 L142,3723 L144,3723 L144,3719 L140,3719 Z M124,3733 L126,3733 L126,3725 L124,3725 L124,3733 Z M126,3735 L124,3735 L124,3739 L128,3739 L128,3737 L126,3737 L126,3735 Z M124,3723 L126,3723 L126,3721 L128,3721 L128,3719 L124,3719 L124,3723 Z M130,3739 L138,3739 L138,3737 L130,3737 L130,3739 Z M130,3733 L138,3733 L138,3725 L130,3725 L130,3733 Z M130,3721 L138,3721 L138,3719 L130,3719 L130,3721 Z" id="stop-[#977]"></path>
            </g>
        </g>
    </g>
</svg>