<?xml version="1.0" encoding="UTF-8" standalone="no"?>
<svg width="22px" height="22px" viewBox="0 0 22 22" version="1.1" xmlns="http://www.w3.org/2000/svg" xmlns:xlink="http://www.w3.org/1999/xlink">
    <!-- Generator: Sketch 3.8.1 (29687) - http://www.bohemiancoding.com/sketch -->
    <title>stop_focus [#960]</title>
    <desc>Created with Sketch.</desc>
    <defs></defs>
    <g id="Page-1" stroke="none" stroke-width="1" fill="none" fill-rule="evenodd">
        <g id="Dribbble-Dark-Preview" transform="translate(-60.000000, -3959.000000)" fill="#FFFFFF">
            <g id="icons" transform="translate(56.000000, 160.000000)">
                <path d="M10,3813 L18,3813 L18,3805 L10,3805 L10,3813 Z M22,3813 L24,3813 L24,3805 L22,3805 L22,3813 Z M24,3817 L24,3815 L22,3815 L22,3817 L20,3817 L20,3819 L22,3819 L22,3821 L24,3821 L24,3819 L26,3819 L26,3817 L24,3817 Z M22,3803 L24,3803 L24,3799 L20,3799 L20,3801 L22,3801 L22,3803 Z M4,3813 L6,3813 L6,3805 L4,3805 L4,3813 Z M6,3815 L4,3815 L4,3819 L8,3819 L8,3817 L6,3817 L6,3815 Z M4,3803 L6,3803 L6,3801 L8,3801 L8,3799 L4,3799 L4,3803 Z M10,3819 L18,3819 L18,3817 L10,3817 L10,3819 Z M10,3801 L18,3801 L18,3799 L10,3799 L10,3801 Z" id="stop_focus-[#960]"></path>
            </g>
        </g>
    </g>
</svg>