<?xml version="1.0" encoding="UTF-8" standalone="no"?>
<svg width="12px" height="20px" viewBox="0 0 12 20" version="1.1" xmlns="http://www.w3.org/2000/svg" xmlns:xlink="http://www.w3.org/1999/xlink">
    <!-- Generator: Sketch 3.8.1 (29687) - http://www.bohemiancoding.com/sketch -->
    <title>street_light [#112]</title>
    <desc>Created with Sketch.</desc>
    <defs></defs>
    <g id="Page-1" stroke="none" stroke-width="1" fill="none" fill-rule="evenodd">
        <g id="Dribbble-Dark-Preview" transform="translate(-304.000000, -7719.000000)" fill="#FFFFFF">
            <g id="icons" transform="translate(56.000000, 160.000000)">
                <path d="M254,7563 C253.449,7563 253,7562.551 253,7562 C253,7561.449 253.449,7561 254,7561 C254.551,7561 255,7561.449 255,7562 C255,7562.551 254.551,7563 254,7563 L254,7563 Z M257,7577 L257,7575 L255,7575 L255,7564.816 C256.163,7564.403 257,7563.304 257,7562 C257,7560.343 255.657,7559 254,7559 C252.343,7559 251,7560.343 251,7562 C251,7563.304 251.837,7564.403 253,7564.816 L253,7575 L251,7575 L251,7577 L248,7577 L248,7579 L260,7579 L260,7577 L257,7577 Z" id="street_light-[#112]"></path>
            </g>
        </g>
    </g>
</svg>