<?xml version="1.0" encoding="UTF-8" standalone="no"?>
<svg width="12px" height="20px" viewBox="0 0 12 20" version="1.1" xmlns="http://www.w3.org/2000/svg" xmlns:xlink="http://www.w3.org/1999/xlink">
    <!-- Generator: Sketch 3.8.1 (29687) - http://www.bohemiancoding.com/sketch -->
    <title>street_light [#113]</title>
    <desc>Created with Sketch.</desc>
    <defs></defs>
    <g id="Page-1" stroke="none" stroke-width="1" fill="none" fill-rule="evenodd">
        <g id="Dribbble-Dark-Preview" transform="translate(-264.000000, -7719.000000)" fill="#FFFFFF">
            <g id="icons" transform="translate(56.000000, 160.000000)">
                <path d="M214,7562.99951 C213.449,7562.99951 213,7562.55051 213,7561.99951 C213,7561.44851 213.449,7560.99951 214,7560.99951 C214.551,7560.99951 215,7561.44851 215,7561.99951 C215,7562.55051 214.551,7562.99951 214,7562.99951 M219,7576.99951 L218,7576.99951 C217.452,7576.99951 216.993,7576.55951 217,7576.01251 C217.007,7575.45351 216.556,7574.99951 216,7574.99951 L215,7574.99951 L215,7565.98151 C215,7565.37151 215.262,7564.77551 215.757,7564.41851 C216.656,7563.77051 217.182,7562.64051 216.942,7561.39951 C216.713,7560.22251 215.744,7559.26551 214.564,7559.05151 C212.659,7558.70451 211,7560.15751 211,7561.99951 C211,7562.97751 211.471,7563.83951 212.196,7564.38451 C212.7,7564.76251 213,7565.35051 213,7565.98051 L213,7574.99951 L212,7574.99951 C211.452,7574.99951 210.993,7575.43951 211,7575.98751 C211.007,7576.54551 210.556,7576.99951 210,7576.99951 L209,7576.99951 C208.448,7576.99951 208,7577.44751 208,7577.99951 C208,7578.55151 208.448,7578.99951 209,7578.99951 L213,7578.99951 L213,7577.99951 C213,7577.44751 213.448,7576.99951 214,7576.99951 C214.552,7576.99951 215,7577.44751 215,7577.99951 L215,7578.99951 L219,7578.99951 C219.552,7578.99951 220,7578.55151 220,7577.99951 C220,7577.44751 219.552,7576.99951 219,7576.99951" id="street_light-[#113]"></path>
            </g>
        </g>
    </g>
</svg>