<?xml version="1.0" encoding="UTF-8" standalone="no"?>
<svg width="20px" height="20px" viewBox="0 0 20 20" version="1.1" xmlns="http://www.w3.org/2000/svg" xmlns:xlink="http://www.w3.org/1999/xlink">
    <!-- Generator: Sketch 3.8.1 (29687) - http://www.bohemiancoding.com/sketch -->
    <title>sun_star [#1269]</title>
    <desc>Created with Sketch.</desc>
    <defs></defs>
    <g id="Page-1" stroke="none" stroke-width="1" fill="none" fill-rule="evenodd">
        <g id="Dribbble-Dark-Preview" transform="translate(-180.000000, -2519.000000)" fill="#FFFFFF">
            <g id="icons" transform="translate(56.000000, 160.000000)">
                <path d="M126.929,2363.343 C126.538,2362.952 126.538,2362.319 126.929,2361.929 C127.32,2361.538 127.953,2361.538 128.343,2361.929 C128.734,2362.319 128.734,2362.952 128.343,2363.343 C127.953,2363.734 127.32,2363.734 126.929,2363.343 M141.071,2374.657 C141.462,2375.047 141.462,2375.68 141.071,2376.071 C140.681,2376.461 140.047,2376.461 139.657,2376.071 C139.266,2375.68 139.266,2375.047 139.657,2374.657 C140.047,2374.266 140.681,2374.266 141.071,2374.657 M128.343,2374.657 C128.734,2375.047 128.734,2375.68 128.343,2376.071 C127.953,2376.461 127.32,2376.461 126.929,2376.071 C126.538,2375.68 126.538,2375.047 126.929,2374.657 C127.32,2374.266 127.953,2374.266 128.343,2374.657 M141.071,2361.929 C141.462,2362.319 141.462,2362.952 141.071,2363.343 C140.681,2363.734 140.047,2363.734 139.657,2363.343 C139.266,2362.952 139.266,2362.319 139.657,2361.929 C140.047,2361.538 140.681,2361.538 141.071,2361.929 M126,2369 C126,2369.552 125.552,2370 125,2370 C124.448,2370 124,2369.552 124,2369 C124,2368.448 124.448,2368 125,2368 C125.552,2368 126,2368.448 126,2369 M144,2369 C144,2369.552 143.552,2370 143,2370 C142.448,2370 142,2369.552 142,2369 C142,2368.448 142.448,2368 143,2368 C143.552,2368 144,2368.448 144,2369 M135,2378 C135,2378.552 134.552,2379 134,2379 C133.448,2379 133,2378.552 133,2378 C133,2377.448 133.448,2377 134,2377 C134.552,2377 135,2377.448 135,2378 M133,2360 C133,2359.448 133.448,2359 134,2359 C134.552,2359 135,2359.448 135,2360 C135,2360.552 134.552,2361 134,2361 C133.448,2361 133,2360.552 133,2360 M137.536,2372.535 C135.338,2374.733 131.587,2374.453 129.785,2371.697 C128.701,2370.039 128.741,2367.817 129.865,2366.186 C131.021,2364.507 132.908,2363.822 134.689,2364.068 L131.879,2366.879 C131.488,2367.269 131.488,2367.902 131.879,2368.293 C132.269,2368.683 132.902,2368.683 133.293,2368.293 L136.757,2364.829 C137.32,2365.201 137.799,2365.68 138.171,2366.243 L134.707,2369.707 C134.317,2370.097 134.317,2370.731 134.707,2371.121 C135.098,2371.512 135.731,2371.512 136.121,2371.121 L138.932,2368.311 C139.139,2369.81 138.686,2371.385 137.536,2372.535 M138.95,2364.05 C136.216,2361.316 131.784,2361.316 129.05,2364.05 C126.317,2366.784 126.317,2371.216 129.05,2373.95 C131.784,2376.683 136.216,2376.683 138.95,2373.95 C141.683,2371.216 141.683,2366.784 138.95,2364.05" id="sun_star-[#1269]"></path>
            </g>
        </g>
    </g>
</svg>