<?xml version="1.0" encoding="UTF-8" standalone="no"?>
<svg width="20px" height="20px" viewBox="0 0 20 20" version="1.1" xmlns="http://www.w3.org/2000/svg" xmlns:xlink="http://www.w3.org/1999/xlink">
    <!-- Generator: Sketch 3.8.1 (29687) - http://www.bohemiancoding.com/sketch -->
    <title>sun_star [#1270]</title>
    <desc>Created with Sketch.</desc>
    <defs></defs>
    <g id="Page-1" stroke="none" stroke-width="1" fill="none" fill-rule="evenodd">
        <g id="Dribbble-Dark-Preview" transform="translate(-140.000000, -2519.000000)" fill="#FFFFFF">
            <g id="icons" transform="translate(56.000000, 160.000000)">
                <path d="M86.929,2363.343 C86.538,2362.952 86.538,2362.319 86.929,2361.929 C87.32,2361.538 87.953,2361.538 88.343,2361.929 C88.734,2362.319 88.734,2362.952 88.343,2363.343 C87.953,2363.734 87.32,2363.734 86.929,2363.343 M101.071,2374.657 C101.462,2375.047 101.462,2375.68 101.071,2376.071 C100.681,2376.461 100.047,2376.461 99.657,2376.071 C99.266,2375.68 99.266,2375.047 99.657,2374.657 C100.047,2374.266 100.681,2374.266 101.071,2374.657 M88.343,2374.657 C88.734,2375.047 88.734,2375.68 88.343,2376.071 C87.953,2376.461 87.32,2376.461 86.929,2376.071 C86.538,2375.68 86.538,2375.047 86.929,2374.657 C87.32,2374.266 87.953,2374.266 88.343,2374.657 M101.071,2361.929 C101.462,2362.319 101.462,2362.952 101.071,2363.343 C100.681,2363.734 100.047,2363.734 99.657,2363.343 C99.266,2362.952 99.266,2362.319 99.657,2361.929 C100.047,2361.538 100.681,2361.538 101.071,2361.929 M86,2369 C86,2369.552 85.552,2370 85,2370 C84.448,2370 84,2369.552 84,2369 C84,2368.448 84.448,2368 85,2368 C85.552,2368 86,2368.448 86,2369 M104,2369 C104,2369.552 103.552,2370 103,2370 C102.448,2370 102,2369.552 102,2369 C102,2368.448 102.448,2368 103,2368 C103.552,2368 104,2368.448 104,2369 M95,2378 C95,2378.552 94.552,2379 94,2379 C93.448,2379 93,2378.552 93,2378 C93,2377.448 93.448,2377 94,2377 C94.552,2377 95,2377.448 95,2378 M93,2360 C93,2359.448 93.448,2359 94,2359 C94.552,2359 95,2359.448 95,2360 C95,2360.552 94.552,2361 94,2361 C93.448,2361 93,2360.552 93,2360 M98.899,2370 L94,2370 C93.448,2370 93,2370.448 93,2371 C93,2371.552 93.448,2372 94,2372 L97.975,2372 C97.061,2373.207 95.627,2374 94,2374 C90.892,2374 88.438,2371.15 89.112,2367.926 C89.518,2365.988 91.118,2364.445 93.065,2364.086 C95.07,2363.717 96.889,2364.566 97.975,2366 L94,2366 C93.448,2366 93,2366.448 93,2367 C93,2367.552 93.448,2368 94,2368 L98.899,2368 C99.034,2368.662 99.034,2369.338 98.899,2370 M94,2362 C90.134,2362 87,2365.134 87,2369 C87,2372.866 90.134,2376 94,2376 C97.866,2376 101,2372.866 101,2369 C101,2365.134 97.866,2362 94,2362" id="sun_star-[#1270]"></path>
            </g>
        </g>
    </g>
</svg>