<?xml version="1.0" encoding="UTF-8" standalone="no"?>
<svg width="20px" height="20px" viewBox="0 0 20 20" version="1.1" xmlns="http://www.w3.org/2000/svg" xmlns:xlink="http://www.w3.org/1999/xlink">
    <!-- Generator: Sketch 3.8.1 (29687) - http://www.bohemiancoding.com/sketch -->
    <title>sun_star [#1268]</title>
    <desc>Created with Sketch.</desc>
    <defs></defs>
    <g id="Page-1" stroke="none" stroke-width="1" fill="none" fill-rule="evenodd">
        <g id="Dribbble-Dark-Preview" transform="translate(-220.000000, -2519.000000)" fill="#FFFFFF">
            <g id="icons" transform="translate(56.000000, 160.000000)">
                <path d="M166.929,2363.343 C166.538,2362.952 166.538,2362.319 166.929,2361.929 C167.32,2361.538 167.953,2361.538 168.343,2361.929 C168.734,2362.319 168.734,2362.952 168.343,2363.343 C167.953,2363.734 167.32,2363.734 166.929,2363.343 M181.071,2374.657 C181.462,2375.047 181.462,2375.68 181.071,2376.071 C180.681,2376.461 180.047,2376.461 179.657,2376.071 C179.266,2375.68 179.266,2375.047 179.657,2374.657 C180.047,2374.266 180.681,2374.266 181.071,2374.657 M168.343,2374.657 C168.734,2375.047 168.734,2375.68 168.343,2376.071 C167.953,2376.461 167.32,2376.461 166.929,2376.071 C166.538,2375.68 166.538,2375.047 166.929,2374.657 C167.32,2374.266 167.953,2374.266 168.343,2374.657 M181.071,2361.929 C181.462,2362.319 181.462,2362.952 181.071,2363.343 C180.681,2363.734 180.047,2363.734 179.657,2363.343 C179.266,2362.952 179.266,2362.319 179.657,2361.929 C180.047,2361.538 180.681,2361.538 181.071,2361.929 M166,2369 C166,2369.552 165.552,2370 165,2370 C164.448,2370 164,2369.552 164,2369 C164,2368.448 164.448,2368 165,2368 C165.552,2368 166,2368.448 166,2369 M184,2369 C184,2369.552 183.552,2370 183,2370 C182.448,2370 182,2369.552 182,2369 C182,2368.448 182.448,2368 183,2368 C183.552,2368 184,2368.448 184,2369 M175,2378 C175,2378.552 174.552,2379 174,2379 C173.448,2379 173,2378.552 173,2378 C173,2377.448 173.448,2377 174,2377 C174.552,2377 175,2377.448 175,2378 M173,2360 C173,2359.448 173.448,2359 174,2359 C174.552,2359 175,2359.448 175,2360 C175,2360.552 174.552,2361 174,2361 C173.448,2361 173,2360.552 173,2360 M174,2374 C171.243,2374 169,2371.757 169,2369 C169,2366.243 171.243,2364 174,2364 C176.757,2364 179,2366.243 179,2369 C179,2371.757 176.757,2374 174,2374 M174,2362 C170.134,2362 167,2365.134 167,2369 C167,2372.866 170.134,2376 174,2376 C177.866,2376 181,2372.866 181,2369 C181,2365.134 177.866,2362 174,2362" id="sun_star-[#1268]"></path>
            </g>
        </g>
    </g>
</svg>