<?xml version="1.0" encoding="UTF-8" standalone="no"?>
<svg width="20px" height="20px" viewBox="0 0 20 20" version="1.1" xmlns="http://www.w3.org/2000/svg" xmlns:xlink="http://www.w3.org/1999/xlink">
    <!-- Generator: Sketch 3.8.1 (29687) - http://www.bohemiancoding.com/sketch -->
    <title>sunset [#1257]</title>
    <desc>Created with Sketch.</desc>
    <defs></defs>
    <g id="Page-1" stroke="none" stroke-width="1" fill="none" fill-rule="evenodd">
        <g id="Dribbble-Dark-Preview" transform="translate(-260.000000, -2559.000000)" fill="#FFFFFF">
            <g id="icons" transform="translate(56.000000, 160.000000)">
                <path d="M218.232558,2406.22875 C217.841558,2405.82953 217.841558,2405.18324 218.232558,2404.78504 L220.353558,2402.61846 C220.744558,2402.22027 221.377558,2402.22027 221.768558,2402.61846 L221.768558,2402.61846 C222.158558,2403.01767 222.158558,2403.66397 221.768558,2404.06319 L219.646558,2406.22875 C219.256558,2406.62796 218.623558,2406.62796 218.232558,2406.22875 L218.232558,2406.22875 Z M213.000558,2403.08404 L213.000558,2400.02101 C213.000558,2399.45639 213.447558,2399 214.000558,2399 C214.552558,2399 215.000558,2399.45639 215.000558,2400.02101 L215.000558,2403.08404 C215.000558,2403.64764 214.552558,2404.10505 214.000558,2404.10505 C213.447558,2404.10505 213.000558,2403.64764 213.000558,2403.08404 L213.000558,2403.08404 Z M206.232558,2404.06319 C205.841558,2403.66397 205.841558,2403.01767 206.232558,2402.61846 L206.232558,2402.61846 C206.623558,2402.22027 207.256558,2402.22027 207.646558,2402.61846 L209.768558,2404.78504 C210.158558,2405.18324 210.158558,2405.82953 209.768558,2406.22875 C209.377558,2406.62796 208.744558,2406.62796 208.353558,2406.22875 L206.232558,2404.06319 Z M218.986558,2415.47195 C215.654558,2414.63983 212.345558,2414.63983 209.013558,2415.47195 C209.010558,2415.42601 209.000558,2415.3821 209.000558,2415.33616 C209.000558,2412.52123 211.243558,2410.23111 214.000558,2410.23111 C216.757558,2410.23111 219.000558,2412.52123 219.000558,2415.33616 C219.000558,2415.3821 218.989558,2415.42601 218.986558,2415.47195 L218.986558,2415.47195 Z M223.430558,2417.0586 C222.600558,2416.67164 221.773558,2416.33777 220.948558,2416.05291 C221.401558,2411.82286 218.111558,2408.18909 214.000558,2408.18909 C209.882558,2408.18909 206.599558,2411.83001 207.052558,2416.05291 C206.227558,2416.33777 205.400558,2416.67164 204.570558,2417.0586 C204.057558,2417.29752 203.854558,2417.93871 204.110558,2418.45126 C204.356558,2418.94339 204.935558,2419.13227 205.428558,2418.90357 C211.223558,2416.21014 216.777558,2416.21014 222.572558,2418.90357 C223.065558,2419.13227 223.644558,2418.94339 223.889558,2418.45126 C224.145558,2417.93871 223.942558,2417.29752 223.430558,2417.0586 L223.430558,2417.0586 Z" id="sunset-[#1257]"></path>
            </g>
        </g>
    </g>
</svg>