<?xml version="1.0" encoding="UTF-8" standalone="no"?>
<svg width="20px" height="18px" viewBox="0 0 20 18" version="1.1" xmlns="http://www.w3.org/2000/svg" xmlns:xlink="http://www.w3.org/1999/xlink">
    <!-- Generator: Sketch 3.8.1 (29687) - http://www.bohemiancoding.com/sketch -->
    <title>sunset [#1256]</title>
    <desc>Created with Sketch.</desc>
    <defs></defs>
    <g id="Page-1" stroke="none" stroke-width="1" fill="none" fill-rule="evenodd">
        <g id="Dribbble-Dark-Preview" transform="translate(-300.000000, -2560.000000)" fill="#FFFFFF">
            <g id="icons" transform="translate(56.000000, 160.000000)">
                <path d="M259.646,2407.08 L261.767,2404.959 C262.158,2404.568 262.158,2403.935 261.767,2403.544 L261.767,2403.544 C261.377,2403.154 260.744,2403.154 260.353,2403.544 L258.232,2405.666 C257.841,2406.056 257.841,2406.689 258.232,2407.08 C258.622,2407.471 259.255,2407.471 259.646,2407.08 L259.646,2407.08 Z M254,2405 L254,2405 C254.552,2405 255,2404.552 255,2404 L255,2401 C255,2400.447 254.552,2400 254,2400 L254,2400 C253.447,2400 253,2400.447 253,2401 L253,2404 C253,2404.552 253.447,2405 254,2405 L254,2405 Z M248.353,2407.08 C248.744,2407.471 249.377,2407.471 249.767,2407.08 C250.158,2406.689 250.158,2406.056 249.767,2405.666 L247.646,2403.544 C247.255,2403.154 246.622,2403.154 246.232,2403.544 L246.232,2403.544 C245.841,2403.935 245.841,2404.568 246.232,2404.959 L248.353,2407.08 Z M259,2415.804 C259,2413.047 256.757,2410.922 254,2410.922 C251.243,2410.922 249,2413.086 249,2415.843 C249,2415.95 249.025,2416 249.031,2416 L258.968,2416 C258.975,2416 259,2415.911 259,2415.804 L259,2415.804 Z M264,2417 C264,2417.552 263.552,2418 263,2418 L245,2418 C244.447,2418 244,2417.552 244,2417 C244,2416.447 244.447,2416 245,2416 L247.015,2416 C247.011,2416 247,2415.91 247,2415.804 C247,2412.018 250.005,2409.047 253.761,2408.925 C256.325,2408.843 258.653,2410.346 259.87,2412.605 C261.154,2414.989 261.005,2416 260.984,2416 L263,2416 C263.552,2416 264,2416.447 264,2417 L264,2417 Z M258,2415.995 C257,2415.998 258,2415.99 258,2415.984 L258,2415.995 Z" id="sunset-[#1256]"></path>
            </g>
        </g>
    </g>
</svg>