<?xml version="1.0" encoding="UTF-8" standalone="no"?>
<svg width="20px" height="18px" viewBox="0 0 20 18" version="1.1" xmlns="http://www.w3.org/2000/svg" xmlns:xlink="http://www.w3.org/1999/xlink">
    <!-- Generator: Sketch 3.8.1 (29687) - http://www.bohemiancoding.com/sketch -->
    <title>sunset [#1255]</title>
    <desc>Created with Sketch.</desc>
    <defs></defs>
    <g id="Page-1" stroke="none" stroke-width="1" fill="none" fill-rule="evenodd">
        <g id="Dribbble-Dark-Preview" transform="translate(-340.000000, -2560.000000)" fill="#FFFFFF">
            <g id="icons" transform="translate(56.000000, 160.000000)">
                <path d="M302.475,2404.252 L301.061,2402.838 L297.525,2406.373 L298.939,2407.788 L302.475,2404.252 Z M293,2405 L295,2405 L295,2400 L293,2400 L293,2405 Z M290.475,2406.373 L286.939,2402.838 L285.525,2404.252 L289.061,2407.788 L290.475,2406.373 Z M299,2415.805 C299,2413.048 296.757,2410.922 294,2410.922 C291.243,2410.922 289,2413.087 289,2415.844 C289,2415.951 289.025,2416 289.032,2416 L298.969,2416 C298.975,2416 299,2415.912 299,2415.805 L299,2415.805 Z M304,2416 L304,2418 L284,2418 L284,2416 L287.016,2416 C287.011,2416 287,2415.91 287,2415.805 C287,2411.939 290.134,2408.922 294,2408.922 C297.866,2408.922 301,2411.978 301,2415.844 C301,2415.949 300.989,2416 300.984,2416 L304,2416 Z M298,2415.996 C297,2415.998 298,2415.991 298,2415.984 L298,2415.996 Z" id="sunset-[#1255]"></path>
            </g>
        </g>
    </g>
</svg>