<?xml version="1.0" encoding="UTF-8" standalone="no"?>
<svg width="20px" height="18px" viewBox="0 0 20 18" version="1.1" xmlns="http://www.w3.org/2000/svg" xmlns:xlink="http://www.w3.org/1999/xlink">
    <!-- Generator: Sketch 3.8.1 (29687) - http://www.bohemiancoding.com/sketch -->
    <title>swift [#146]</title>
    <desc>Created with Sketch.</desc>
    <defs></defs>
    <g id="Page-1" stroke="none" stroke-width="1" fill="none" fill-rule="evenodd">
        <g id="Dribbble-Dark-Preview" transform="translate(-380.000000, -7520.000000)" fill="#FFFFFF">
            <g id="icons" transform="translate(56.000000, 160.000000)">
                <path d="M336.322,7360 C345.113,7366.02452 342.27,7372.66771 342.27,7372.66771 C342.27,7372.66771 344.77,7375.5122 343.759,7378 C343.759,7378 342.728,7376.25784 340.999,7376.25784 C339.332,7376.25784 338.353,7378 334.999,7378 C327.531,7378 324,7371.71249 324,7371.71249 C330.728,7376.1732 335.322,7373.01433 335.322,7373.01433 C332.291,7371.24093 325.843,7362.75985 325.843,7362.75985 C331.458,7367.57725 333.885,7368.84785 333.885,7368.84785 C332.437,7367.64073 328.374,7361.74216 328.374,7361.74216 C331.624,7365.05923 338.082,7369.68719 338.082,7369.68719 C339.916,7364.56549 336.322,7360 336.322,7360" id="swift-[#146]"></path>
            </g>
        </g>
    </g>
</svg>