<?xml version="1.0" encoding="UTF-8" standalone="no"?>
<svg width="21px" height="18px" viewBox="0 0 21 18" version="1.1" xmlns="http://www.w3.org/2000/svg" xmlns:xlink="http://www.w3.org/1999/xlink">
    <!-- Generator: Sketch 3.8.1 (29687) - http://www.bohemiancoding.com/sketch -->
    <title>swipe_left [#1380]</title>
    <desc>Created with Sketch.</desc>
    <defs></defs>
    <g id="Page-1" stroke="none" stroke-width="1" fill="none" fill-rule="evenodd">
        <g id="Dribbble-Dark-Preview" transform="translate(-59.000000, -800.000000)" fill="#FFFFFF">
            <g id="icons" transform="translate(56.000000, 160.000000)">
                <path d="M22.95,644.029807 L20.85,644.029807 C20.2704,644.029807 19.8,644.476764 19.8,645.027479 C19.8,645.578193 20.2704,646.02515 20.85,646.02515 L22.95,646.02515 C23.5296,646.02515 24,645.578193 24,645.027479 C24,644.476764 23.5296,644.029807 22.95,644.029807 L22.95,644.029807 Z M7.04565,646.99788 C6.7149,646.683614 6.94905,646.02515 7.41735,646.02515 L12.81015,646.02515 C13.3908,646.02515 13.86015,645.578193 13.86015,645.027479 C13.86015,644.476764 13.3908,644.029807 12.81015,644.029807 L7.41945,644.029807 C6.95115,644.029807 6.717,643.613778 7.04775,643.299511 L8.8128,641.639386 C9.22335,641.249296 9.22335,640.669649 8.8128,640.279559 C8.4033,639.88947 7.7376,639.916407 7.32705,640.305499 L3.98805,643.492062 L3.61425,643.855215 C2.79525,644.634396 2.79525,645.902437 3.61425,646.680621 L7.3281,650.216369 C7.7376,650.606458 8.40225,650.617433 8.8128,650.228341 C9.2223,649.838251 9.2223,649.125914 8.8128,648.735824 L7.04565,646.99788 Z M23.56635,653.050754 L23.21775,656.599472 C23.0214,657.532295 22.15935,657.99721 21.1587,657.99721 L16.08195,657.99721 C15.7365,657.99721 15.4173,658.042105 15.222,657.771736 L12.9582,653.853879 C12.67365,653.461794 12.73245,652.932031 13.0863,652.595815 C13.542,652.162826 14.31585,652.224682 14.6865,652.725513 L15.6,653.915735 L15.6,645.440515 C15.6,644.8898 16.0347,644.442843 16.61535,644.442843 C17.36085,644.442843 17.6307,645.087339 17.6307,645.440515 L17.63805,650.47277 L22.17195,650.869844 C23.1768,651.187103 23.77425,652.064057 23.56635,653.050754 L23.56635,653.050754 Z" id="swipe_left-[#1380]"></path>
            </g>
        </g>
    </g>
</svg>