<?xml version="1.0" encoding="UTF-8" standalone="no"?>
<svg width="21px" height="18px" viewBox="0 0 21 18" version="1.1" xmlns="http://www.w3.org/2000/svg" xmlns:xlink="http://www.w3.org/1999/xlink">
    <!-- Generator: Sketch 3.8.1 (29687) - http://www.bohemiancoding.com/sketch -->
    <title>swipe_right [#1378]</title>
    <desc>Created with Sketch.</desc>
    <defs></defs>
    <g id="Page-1" stroke="none" stroke-width="1" fill="none" fill-rule="evenodd">
        <g id="Dribbble-Dark-Preview" transform="translate(-139.000000, -800.000000)" fill="#FFFFFF">
            <g id="icons" transform="translate(56.000000, 160.000000)">
                <path d="M87.2,645.00025 C87.2,644.44825 86.7296,644.00025 86.15,644.00025 L84.05,644.00025 C83.4704,644.00025 83,644.44825 83,645.00025 C83,645.55225 83.4704,646.00025 84.05,646.00025 L86.15,646.00025 C86.7296,646.00025 87.2,645.55225 87.2,645.00025 M103.38575,643.83125 L103.01195,643.47425 L99.67295,640.29325 C99.2624,639.90225 98.5967,639.90225 98.1872,640.29325 C97.77665,640.68425 97.77665,641.31725 98.1872,641.70725 L99.95225,643.26825 C100.283,643.58325 100.04885,644.00025 99.58055,644.00025 L94.18985,644.00025 C93.6092,644.00025 93.13985,644.44825 93.13985,645.00025 C93.13985,645.55225 93.6092,646.00025 94.18985,646.00025 L99.58265,646.00025 C100.05095,646.00025 100.2851,646.66025 99.95435,646.97525 L98.1872,648.71725 C97.7777,649.10825 97.7777,649.77125 98.1872,650.16225 C98.59775,650.55225 99.2624,650.56725 99.6719,650.17725 L103.38575,646.64825 C104.20475,645.86725 104.20475,644.61225 103.38575,643.83125 M97.3451,653.04225 L96.9965,656.59925 C96.80015,657.53425 95.9381,658.00025 94.93745,658.00025 L89.8607,658.00025 C89.51525,658.00025 89.1908,658.04525 88.9955,657.77425 L86.7275,653.84725 C86.4419,653.45425 86.49125,652.92325 86.8451,652.58625 C87.3008,652.15225 88.05575,652.21425 88.42535,652.71625 L89.3,653.90925 L89.3,645.41425 C89.3,644.86225 89.7746,644.41425 90.3542,644.41425 C91.10075,644.41425 91.4084,645.06025 91.4084,645.41425 L91.4168,650.45825 L95.94965,650.85625 C96.9545,651.17425 97.553,652.05325 97.3451,653.04225" id="swipe_right-[#1378]"></path>
            </g>
        </g>
    </g>
</svg>