<?xml version="1.0" encoding="UTF-8" standalone="no"?>
<svg width="20px" height="20px" viewBox="0 0 20 20" version="1.1" xmlns="http://www.w3.org/2000/svg" xmlns:xlink="http://www.w3.org/1999/xlink">
    <!-- Generator: Sketch 3.8.1 (29687) - http://www.bohemiancoding.com/sketch -->
    <title>syringe [#1309]</title>
    <desc>Created with Sketch.</desc>
    <defs></defs>
    <g id="Page-1" stroke="none" stroke-width="1" fill="none" fill-rule="evenodd">
        <g id="Dribbble-Dark-Preview" transform="translate(-180.000000, -2359.000000)" fill="#FFFFFF">
            <g id="icons" transform="translate(56.000000, 160.000000)">
                <path d="M134.528234,2209.87131 L133.234179,2208.56451 L138.881691,2202.86039 L140.176745,2204.16719 L134.528234,2209.87131 Z M130.938628,2213.49626 C130.581166,2213.85724 130.002036,2213.85724 129.644573,2213.49626 C129.28711,2213.13528 129.28711,2212.54944 129.644573,2212.18845 L131.821302,2209.99029 L133.116356,2211.29709 L130.938628,2213.49626 Z M143.708438,2204.88512 C142.714931,2203.87679 143.197206,2204.36583 141.706446,2202.86039 L142.412385,2202.1475 C142.8018,2201.75325 142.8018,2201.11497 142.412385,2200.72172 C142.021972,2200.32747 141.389922,2200.32747 141.000507,2200.72072 L140.294568,2201.43461 C139.039454,2200.16714 139.777345,2200.9123 138.175752,2199.29494 C137.786338,2198.90169 137.154287,2198.90169 136.763874,2199.29494 C136.374459,2199.68919 136.374459,2200.32747 136.763874,2200.72072 L137.469813,2201.43461 C137.209205,2201.69779 127.695502,2211.30516 127.434894,2211.56833 C126.757911,2212.25198 126.650073,2213.33291 127.558708,2214.26763 C123.942143,2217.62436 124.000056,2217.22305 124.000056,2218.19608 C124.000056,2219.12274 125.857265,2219.1298 126.156815,2218.80713 L128.969587,2215.95759 L128.983566,2215.95759 C129.711473,2216.97701 130.818808,2216.61099 131.700483,2215.64098 L141.586626,2205.62624 L142.288571,2206.32401 C142.68198,2206.71725 143.316027,2206.71322 143.707439,2206.31796 C144.096854,2205.92168 144.097852,2205.28139 143.708438,2204.88512 L143.708438,2204.88512 Z" id="syringe-[#1309]"></path>
            </g>
        </g>
    </g>
</svg>