<?xml version="1.0" encoding="UTF-8" standalone="no"?>
<svg width="20px" height="20px" viewBox="0 0 20 20" version="1.1" xmlns="http://www.w3.org/2000/svg" xmlns:xlink="http://www.w3.org/1999/xlink">
    <!-- Generator: Sketch 3.8.1 (29687) - http://www.bohemiancoding.com/sketch -->
    <title>syringe [#1303]</title>
    <desc>Created with Sketch.</desc>
    <defs></defs>
    <g id="Page-1" stroke="none" stroke-width="1" fill="none" fill-rule="evenodd">
        <g id="Dribbble-Dark-Preview" transform="translate(-420.000000, -2359.000000)" fill="#FFFFFF">
            <g id="icons" transform="translate(56.000000, 160.000000)">
                <path d="M384,2205.96484 L382.616709,2207.37924 L381.233418,2205.95883 L371.548425,2215.86968 L370.165134,2217.27407 L368.89728,2215.95082 L365.870475,2219 L364,2219 L364,2217.68176 L367.269419,2214.58349 L366.12972,2213.16608 L367.513011,2211.74967 L370.165134,2214.46529 L372.931716,2211.63147 L371.663862,2210.33327 L373.047153,2208.91686 L374.315985,2210.21507 L379.849149,2204.54843 L378.581295,2203.25023 L373.047153,2208.91686 L368.89728,2213.16608 L367.513011,2211.74967 L377.198004,2201.83382 L375.814713,2200.41741 L377.198004,2199 C379.830562,2201.69658 378.254549,2200.08184 379.964586,2201.83382 L381.347877,2200.41741 L382.732146,2201.83382 L381.347877,2203.25023 C382.941499,2204.882 382.324203,2204.24892 384,2205.96484" id="syringe-[#1303]"></path>
            </g>
        </g>
    </g>
</svg>