<?xml version="1.0" encoding="UTF-8" standalone="no"?>
<svg width="20px" height="20px" viewBox="0 0 20 20" version="1.1" xmlns="http://www.w3.org/2000/svg" xmlns:xlink="http://www.w3.org/1999/xlink">
    <!-- Generator: Sketch 3.8.1 (29687) - http://www.bohemiancoding.com/sketch -->
    <title>tag_round [#1178]</title>
    <desc>Created with Sketch.</desc>
    <defs></defs>
    <g id="Page-1" stroke="none" stroke-width="1" fill="none" fill-rule="evenodd">
        <g id="Dribbble-Dark-Preview" transform="translate(-100.000000, -2959.000000)" fill="#FFFFFF">
            <g id="icons" transform="translate(56.000000, 160.000000)">
                <path d="M55.2890531,2816.17617 L46.2685166,2807.14053 C46.1706145,2807.04246 46.1154144,2806.90997 46.1154144,2806.77121 L46.1154144,2802.12977 C46.1154144,2801.55285 46.5820118,2801.08651 47.1569265,2801.08651 L51.7916554,2801.08651 C51.9301765,2801.08651 52.0624485,2801.14076 52.1603507,2801.23883 L61.1808871,2810.27447 C61.5870768,2810.68238 61.5870768,2811.34276 61.1808871,2811.74963 L56.7617512,2816.17617 C56.3555615,2816.58408 55.6962843,2816.58408 55.2890531,2816.17617 L55.2890531,2816.17617 Z M59.9404462,2806.08162 L59.9404462,2806.08162 C59.7665136,2805.9074 53.0018925,2799.13145 53.175825,2799.30463 C52.9800207,2799.10954 52.7154766,2799 52.4384344,2799 L46.1154144,2799 L46.1154144,2799 C44.965585,2799 44.0323901,2799.93371 44.0323901,2801.08651 C44.0323901,2807.4076 43.85325,2807.67154 44.3375532,2808.1577 C48.4223637,2812.24831 45.4811335,2809.30215 54.552704,2818.38891 C55.366125,2819.2037 56.6846793,2819.2037 57.4981002,2818.38891 L57.4981002,2818.38891 C57.6834894,2818.20321 63.4555495,2812.42253 63.3899343,2812.48826 C64.2033552,2811.67243 64.2033552,2810.35167 63.3899343,2809.53689 L59.9404462,2806.08162 Z" id="tag_round-[#1178]"></path>
            </g>
        </g>
    </g>
</svg>