<?xml version="1.0" encoding="UTF-8" standalone="no"?>
<svg width="20px" height="20px" viewBox="0 0 20 20" version="1.1" xmlns="http://www.w3.org/2000/svg" xmlns:xlink="http://www.w3.org/1999/xlink">
    <!-- Generator: Sketch 3.8.1 (29687) - http://www.bohemiancoding.com/sketch -->
    <title>tag_fill_round [#1176]</title>
    <desc>Created with Sketch.</desc>
    <defs></defs>
    <g id="Page-1" stroke="none" stroke-width="1" fill="none" fill-rule="evenodd">
        <g id="Dribbble-Dark-Preview" transform="translate(-180.000000, -2959.000000)" fill="#FFFFFF">
            <g id="icons" transform="translate(56.000000, 160.000000)">
                <path d="M129.020148,2805.2265 C128.444271,2805.2265 127.976892,2804.76459 127.976892,2804.19545 C127.976892,2803.62631 128.444271,2803.1644 129.020148,2803.1644 C129.596025,2803.1644 130.063404,2803.62631 130.063404,2804.19545 C130.063404,2804.76459 129.596025,2805.2265 129.020148,2805.2265 M143.388913,2809.64763 L139.933649,2806.2328 L139.933649,2806.2328 C134.061161,2800.42903 135.435129,2801.81888 133.157701,2799.41861 C132.961569,2799.22477 132.696582,2799 132.420119,2799 L126.085469,2799 C124.933714,2799 124,2800.15684 124,2801.29511 L124,2807.5546 C124,2807.82886 124.109542,2808.09075 124.304631,2808.28458 C128.396281,2812.32732 125.450126,2809.41564 134.536886,2818.39606 C135.351669,2819.20131 136.672431,2819.20131 137.487214,2818.39606 L137.487214,2818.39606 C142.018074,2813.91926 141.012376,2814.91215 143.388913,2812.56343 C144.203696,2811.75818 144.203696,2810.45287 143.388913,2809.64763" id="tag_fill_round-[#1176]"></path>
            </g>
        </g>
    </g>
</svg>