<?xml version="1.0" encoding="UTF-8" standalone="no"?>
<svg width="20px" height="20px" viewBox="0 0 20 20" version="1.1" xmlns="http://www.w3.org/2000/svg" xmlns:xlink="http://www.w3.org/1999/xlink">
    <!-- Generator: Sketch 3.8.1 (29687) - http://www.bohemiancoding.com/sketch -->
    <title>tag_round [#1174]</title>
    <desc>Created with Sketch.</desc>
    <defs></defs>
    <g id="Page-1" stroke="none" stroke-width="1" fill="none" fill-rule="evenodd">
        <g id="Dribbble-Dark-Preview" transform="translate(-260.000000, -2959.000000)" fill="#FFFFFF">
            <g id="icons" transform="translate(56.000000, 160.000000)">
                <path d="M207.977728,2804.02015 L207.977728,2804.02015 C207.977728,2803.44427 208.445082,2802.97689 209.020929,2802.97689 C209.596777,2802.97689 210.064131,2803.44427 210.064131,2804.02015 C210.064131,2804.59603 209.596777,2805.0634 209.020929,2805.0634 C208.445082,2805.0634 207.977728,2804.59603 207.977728,2804.02015 L207.977728,2804.02015 Z M215.274923,2816.17617 L206.239754,2807.14053 C206.141693,2807.04246 206.087446,2806.90997 206.087446,2806.77121 L206.087446,2802.12977 C206.087446,2801.55285 206.553757,2801.08547 207.130648,2801.08547 L211.771852,2801.08547 C211.910598,2801.08547 212.043084,2801.14076 212.141145,2801.23883 L221.176314,2810.27447 C221.583163,2810.68238 221.583163,2811.34276 221.176314,2811.74963 L216.75001,2816.17617 C216.343161,2816.58304 215.682815,2816.58304 215.274923,2816.17617 L215.274923,2816.17617 Z M219.933861,2806.08162 L219.933861,2806.08162 C219.76069,2805.9074 212.984052,2799.13145 213.158267,2799.30463 C212.962145,2799.10954 212.697172,2799 212.420723,2799 L206.087446,2799 C204.934709,2799 204,2799.93371 204,2801.08547 L204,2807.42012 C204,2807.69658 204.110579,2807.96157 204.305658,2808.1577 L214.537379,2818.38891 C215.35212,2819.2037 216.672813,2819.2037 217.487553,2818.38891 L217.487553,2818.38891 C217.673243,2818.20321 223.454666,2812.42253 223.388945,2812.48721 C224.203685,2811.67243 224.203685,2810.35167 223.388945,2809.53689 L219.933861,2806.08162 Z" id="tag_round-[#1174]"></path>
            </g>
        </g>
    </g>
</svg>