<?xml version="1.0" encoding="UTF-8" standalone="no"?>
<svg width="16px" height="20px" viewBox="0 0 16 20" version="1.1" xmlns="http://www.w3.org/2000/svg" xmlns:xlink="http://www.w3.org/1999/xlink">
    <!-- Generator: Sketch 3.8.1 (29687) - http://www.bohemiancoding.com/sketch -->
    <title>tap [#1379]</title>
    <desc>Created with Sketch.</desc>
    <defs></defs>
    <g id="Page-1" stroke="none" stroke-width="1" fill="none" fill-rule="evenodd">
        <g id="Dribbble-Dark-Preview" transform="translate(-102.000000, -800.000000)" fill="#FFFFFF">
            <g id="icons" transform="translate(56.000000, 160.000000)">
                <path d="M61.9390986,652.473 L61.4223655,657.703 C61.1319072,659.038 59.8569364,660 58.3752723,660 L50.8614299,660 C50.3501362,660 49.8888839,659.769 49.5984256,659.382 L46.2597862,653.475 C45.8376968,652.914 45.9453949,652.156 46.4708308,651.674 C47.1453034,651.054 48.3332455,651.143 48.8804386,651.86 L50.3185883,653.564 L50.3185883,641.428 C50.3185883,640.639 50.8777478,640 51.7360686,640 C52.8402455,640 53.1524611,640.923 53.1524611,641.428 L53.1644275,648.634 L59.8743421,649.202 C61.3614454,649.658 62.2469627,651.06 61.9390986,652.473" id="tap-[#1379]"></path>
            </g>
        </g>
    </g>
</svg>