<?xml version="1.0" encoding="UTF-8" standalone="no"?>
<svg width="13px" height="18px" viewBox="0 0 13 18" version="1.1" xmlns="http://www.w3.org/2000/svg" xmlns:xlink="http://www.w3.org/1999/xlink">
    <!-- Generator: Sketch 3.8.1 (29687) - http://www.bohemiancoding.com/sketch -->
    <title>tap_click_force_touch [#1383]</title>
    <desc>Created with Sketch.</desc>
    <defs></defs>
    <g id="Page-1" stroke="none" stroke-width="1" fill="none" fill-rule="evenodd">
        <g id="Dribbble-Dark-Preview" transform="translate(-343.000000, -760.000000)" fill="#FFFFFF">
            <g id="icons" transform="translate(56.000000, 160.000000)">
                <path d="M298.479989,610.79211 L293.68268,610.399562 L293.674903,605.424658 C293.674903,605.076493 293.34938,604.438356 292.559457,604.438356 C291.946183,604.438356 291.44401,604.880219 291.44401,605.424658 L291.44401,613.803288 L290.518545,612.627616 C290.126361,612.132493 289.328661,612.070356 288.846486,612.498411 C288.472078,612.831781 288.419861,613.355507 288.722054,613.742137 L291.120709,617.697205 C291.328466,617.964493 291.670655,618 292.036175,618 L297.407872,618 C298.467768,618 299.379902,617.459507 299.587659,616.538301 L299.956512,612.988603 C300.17649,612.013151 299.543219,611.10674 298.479989,610.79211 M288.111003,607.39726 C287.497729,607.39726 287,606.956384 287,606.410959 L287,605.178082 C287,598.273973 298.110026,598.273973 298.110026,605.178082 L298.110026,606.410959 C298.110026,606.956384 297.612296,607.39726 296.999023,607.39726 C296.38575,607.39726 295.888021,606.956384 295.888021,606.410959 L295.888021,605.178082 C295.888021,601.232877 289.222005,601.232877 289.222005,605.178082 L289.222005,606.410959 C289.222005,606.956384 288.724276,607.39726 288.111003,607.39726" id="tap_click_force_touch-[#1383]"></path>
            </g>
        </g>
    </g>
</svg>