<?xml version="1.0" encoding="UTF-8" standalone="no"?>
<svg width="20px" height="20px" viewBox="0 0 20 20" version="1.1" xmlns="http://www.w3.org/2000/svg" xmlns:xlink="http://www.w3.org/1999/xlink">
    <!-- Generator: Sketch 3.8.1 (29687) - http://www.bohemiancoding.com/sketch -->
    <title>tape [#939]</title>
    <desc>Created with Sketch.</desc>
    <defs></defs>
    <g id="Page-1" stroke="none" stroke-width="1" fill="none" fill-rule="evenodd">
        <g id="Dribbble-Dark-Preview" transform="translate(-100.000000, -4039.000000)" fill="#FFFFFF">
            <g id="icons" transform="translate(56.000000, 160.000000)">
                <path d="M56.998,3886.5 L57.998,3886.5 L57.998,3884.5 L56.998,3884.5 L56.998,3886.5 Z M52.998,3886.5 L54.998,3886.5 L54.998,3884.5 L52.998,3884.5 L52.998,3886.5 Z M49.998,3886.5 L50.998,3886.5 L50.998,3884.5 L49.998,3884.5 L49.998,3886.5 Z M48,3888 L60,3888 L60,3883 L48,3883 L48,3888 Z M62,3897 L59.331,3897 L57.998,3893 L49.998,3893 L48.664,3897 L46,3897 L46,3881 L62,3881 L62,3897 Z M50.664,3897 L51.331,3895 L56.664,3895 L57.331,3897 L50.664,3897 Z M44,3899 L64,3899 L64,3879 L44,3879 L44,3899 Z" id="tape-[#939]"></path>
            </g>
        </g>
    </g>
</svg>