<?xml version="1.0" encoding="UTF-8" standalone="no"?>
<svg width="20px" height="20px" viewBox="0 0 20 20" version="1.1" xmlns="http://www.w3.org/2000/svg" xmlns:xlink="http://www.w3.org/1999/xlink">
    <!-- Generator: Sketch 3.8.1 (29687) - http://www.bohemiancoding.com/sketch -->
    <title>tape [#940]</title>
    <desc>Created with Sketch.</desc>
    <defs></defs>
    <g id="Page-1" stroke="none" stroke-width="1" fill="none" fill-rule="evenodd">
        <g id="Dribbble-Dark-Preview" transform="translate(-60.000000, -4039.000000)" fill="#FFFFFF">
            <g id="icons" transform="translate(56.000000, 160.000000)">
                <path d="M16.998,3886.5 L18.042,3886.5 L18.042,3884.5 L16.998,3884.5 L16.998,3886.5 Z M12.998,3886.5 L14.998,3886.5 L14.998,3884.5 L12.998,3884.5 L12.998,3886.5 Z M10.042,3886.5 L10.998,3886.5 L10.998,3884.5 L10.042,3884.5 L10.042,3886.5 Z M18,3883 L10,3883 C8.895,3883 8,3883.895 8,3885 L8,3886 C8,3887.105 8.895,3888 10,3888 L18,3888 C19.105,3888 20,3887.105 20,3886 L20,3885 C20,3883.895 19.105,3883 18,3883 L18,3883 Z M21.044,3897 L19.331,3897 L18.454,3894.368 C18.181,3893.551 17.417,3893 16.556,3893 L11.439,3893 C10.578,3893 9.814,3893.551 9.542,3894.368 L8.664,3897 L7.044,3897 C6.492,3897 6.044,3896.552 6.044,3896 L6.044,3882 C6.044,3881.448 6.492,3881 7.044,3881 L21.044,3881 C21.596,3881 22.044,3881.448 22.044,3882 L22.044,3896 C22.044,3896.552 21.596,3897 21.044,3897 L21.044,3897 Z M10.664,3897 L11.139,3895.665 C11.28,3895.266 11.658,3895 12.081,3895 L15.972,3895 C16.41,3895 16.797,3895.285 16.927,3895.703 L17.331,3897 L10.664,3897 Z M4,3881 L4,3897 C4,3898.105 4.895,3899 6,3899 L22,3899 C23.105,3899 24,3898.105 24,3897 L24,3881 C24,3879.895 23.105,3879 22,3879 L6,3879 C4.895,3879 4,3879.895 4,3881 L4,3881 Z" id="tape-[#940]"></path>
            </g>
        </g>
    </g>
</svg>