<?xml version="1.0" encoding="UTF-8" standalone="no"?>
<svg width="20px" height="20px" viewBox="0 0 20 20" version="1.1" xmlns="http://www.w3.org/2000/svg" xmlns:xlink="http://www.w3.org/1999/xlink">
    <!-- Generator: Sketch 3.8.1 (29687) - http://www.bohemiancoding.com/sketch -->
    <title>target [#784]</title>
    <desc>Created with Sketch.</desc>
    <defs></defs>
    <g id="Page-1" stroke="none" stroke-width="1" fill="none" fill-rule="evenodd">
        <g id="Dribbble-Dark-Preview" transform="translate(-220.000000, -4759.000000)" fill="#FFFFFF">
            <g id="icons" transform="translate(56.000000, 160.000000)">
                <path d="M176,4609 C176,4610.105 175.105,4611 174,4611 C172.895,4611 172,4610.105 172,4609 C172,4607.895 172.895,4607 174,4607 C175.105,4607 176,4607.895 176,4609 M174,4613 C171.794,4613 170,4611.206 170,4609 C170,4606.794 171.794,4605 174,4605 C176.206,4605 178,4606.794 178,4609 C178,4611.206 176.206,4613 174,4613 M174,4603 C170.686,4603 168,4605.686 168,4609 C168,4612.314 170.686,4615 174,4615 C177.314,4615 180,4612.314 180,4609 C180,4605.686 177.314,4603 174,4603 M174,4617 C169.589,4617 166,4613.411 166,4609 C166,4604.589 169.589,4601 174,4601 C178.411,4601 182,4604.589 182,4609 C182,4613.411 178.411,4617 174,4617 M174,4599 C168.477,4599 164,4603.477 164,4609 C164,4614.523 168.477,4619 174,4619 C179.523,4619 184,4614.523 184,4609 C184,4603.477 179.523,4599 174,4599" id="target-[#784]"></path>
            </g>
        </g>
    </g>
</svg>