<?xml version="1.0" encoding="UTF-8" standalone="no"?>
<svg width="20px" height="20px" viewBox="0 0 20 20" version="1.1" xmlns="http://www.w3.org/2000/svg" xmlns:xlink="http://www.w3.org/1999/xlink">
    <!-- Generator: Sketch 3.8.1 (29687) - http://www.bohemiancoding.com/sketch -->
    <title>target [#81]</title>
    <desc>Created with Sketch.</desc>
    <defs></defs>
    <g id="Page-1" stroke="none" stroke-width="1" fill="none" fill-rule="evenodd">
        <g id="Dribbble-Dark-Preview" transform="translate(-340.000000, -7839.000000)" fill="#FFFFFF">
            <g id="icons" transform="translate(56.000000, 160.000000)">
                <path d="M298,7689 C298,7688.448 298.448,7688 299,7688 L299.91,7688 C299.486,7685.493 297.507,7683.514 295,7683.09 L295,7684 C295,7684.552 294.552,7685 294,7685 C293.448,7685 293,7684.552 293,7684 L293,7683.09 C290.493,7683.514 288.514,7685.493 288.09,7688 L289,7688 C289.552,7688 290,7688.448 290,7689 C290,7689.552 289.552,7690 289,7690 L288.09,7690 C288.514,7692.507 290.493,7694.486 293,7694.91 L293,7694 C293,7693.448 293.448,7693 294,7693 C294.552,7693 295,7693.448 295,7694 L295,7694.91 C297.507,7694.486 299.486,7692.507 299.91,7690 L299,7690 C298.448,7690 298,7689.552 298,7689 M304,7689 C304,7689.552 303.552,7690 303,7690 L301.931,7690 C301.479,7693.617 298.617,7696.479 295,7696.931 L295,7698 C295,7698.552 294.552,7699 294,7699 C293.448,7699 293,7698.552 293,7698 L293,7696.931 C289.383,7696.479 286.521,7693.617 286.069,7690 L285,7690 C284.448,7690 284,7689.552 284,7689 C284,7688.448 284.448,7688 285,7688 L286.069,7688 C286.521,7684.383 289.383,7681.521 293,7681.069 L293,7680 C293,7679.448 293.448,7679 294,7679 C294.552,7679 295,7679.448 295,7680 L295,7681.069 C298.617,7681.521 301.479,7684.383 301.931,7688 L303,7688 C303.552,7688 304,7688.448 304,7689 M297,7689 C297,7689.552 296.552,7690 296,7690 L295,7690 L295,7691 C295,7691.552 294.552,7692 294,7692 C293.448,7692 293,7691.552 293,7691 L293,7690 L292,7690 C291.448,7690 291,7689.552 291,7689 C291,7688.448 291.448,7688 292,7688 L293,7688 L293,7687 C293,7686.448 293.448,7686 294,7686 C294.552,7686 295,7686.448 295,7687 L295,7688 L296,7688 C296.552,7688 297,7688.448 297,7689" id="target-[#81]"></path>
            </g>
        </g>
    </g>
</svg>