<?xml version="1.0" encoding="UTF-8" standalone="no"?>
<svg width="20px" height="20px" viewBox="0 0 20 20" version="1.1" xmlns="http://www.w3.org/2000/svg" xmlns:xlink="http://www.w3.org/1999/xlink">
    <!-- Generator: Sketch 3.8.1 (29687) - http://www.bohemiancoding.com/sketch -->
    <title>target [#102]</title>
    <desc>Created with Sketch.</desc>
    <defs></defs>
    <g id="Page-1" stroke="none" stroke-width="1" fill="none" fill-rule="evenodd">
        <g id="Dribbble-Dark-Preview" transform="translate(-300.000000, -7759.000000)" fill="#FFFFFF">
            <g id="icons" transform="translate(56.000000, 160.000000)">
                <path d="M255,7616.9305 L255,7614.9095 C258,7614.4875 259.488,7612.5105 259.91,7609.9995 L261.931,7609.9995 C261.477,7613.6115 259,7616.4775 255,7616.9305 L255,7616.9305 Z M255,7610.7225 C255,7610.5475 255.548,7610.3005 255.723,7609.9995 L257.858,7609.9995 C257.494,7611.3985 256,7612.4945 255,7612.8575 L255,7610.7225 Z M255,7605.1415 C256,7605.5055 257.494,7606.6015 257.858,7607.9995 L255.723,7607.9995 C255.548,7607.6995 255,7607.4515 255,7607.2775 L255,7605.1415 Z M255,7601.0695 C259,7601.5225 261.477,7604.3885 261.931,7607.9995 L259.91,7607.9995 C259.488,7605.4895 258,7603.5125 255,7603.0895 L255,7601.0695 Z M253,7603.0895 C250,7603.5125 248.512,7605.4895 248.09,7607.9995 L246.069,7607.9995 C246.523,7604.3885 249,7601.5225 253,7601.0695 L253,7603.0895 Z M253,7607.2775 C253,7607.4515 252.452,7607.6995 252.277,7607.9995 L250.142,7607.9995 C250.506,7606.6015 252,7605.5055 253,7605.1415 L253,7607.2775 Z M253,7612.8575 C252,7612.4945 250.506,7611.3985 250.142,7609.9995 L252.277,7609.9995 C252.452,7610.3005 253,7610.5475 253,7610.7225 L253,7612.8575 Z M253,7616.9305 C249,7616.4775 246.523,7613.6115 246.069,7609.9995 L248.09,7609.9995 C248.512,7612.5105 250,7614.4875 253,7614.9095 L253,7616.9305 Z M254,7598.9995 C248.477,7598.9995 244,7603.4775 244,7608.9995 C244,7614.5225 248.477,7618.9995 254,7618.9995 C259.523,7618.9995 264,7614.5225 264,7608.9995 C264,7603.4775 259.523,7598.9995 254,7598.9995 L254,7598.9995 Z" id="target-[#102]"></path>
            </g>
        </g>
    </g>
</svg>