<?xml version="1.0" encoding="UTF-8" standalone="no"?>
<svg width="20px" height="20px" viewBox="0 0 20 20" version="1.1" xmlns="http://www.w3.org/2000/svg" xmlns:xlink="http://www.w3.org/1999/xlink">
    <!-- Generator: Sketch 3.8.1 (29687) - http://www.bohemiancoding.com/sketch -->
    <title>tenis [#786]</title>
    <desc>Created with Sketch.</desc>
    <defs></defs>
    <g id="Page-1" stroke="none" stroke-width="1" fill="none" fill-rule="evenodd">
        <g id="Dribbble-Dark-Preview" transform="translate(-140.000000, -4759.000000)" fill="#FFFFFF">
            <g id="icons" transform="translate(56.000000, 160.000000)">
                <path d="M101.953848,4608.277 C101.791848,4606.476 101.024848,4604.719 99.6488477,4603.343 C98.3098477,4602.004 96.5788477,4601.201 94.7148477,4601.035 C94.6518477,4601.546 94.5478477,4602.052 94.4068477,4602.551 L95.4488477,4603.037 C95.9498477,4603.27 96.1658477,4603.865 95.9328477,4604.366 C95.6988477,4604.866 95.1038477,4605.083 94.6038477,4604.849 L93.6658477,4604.412 C93.3928477,4604.94 93.0688477,4605.448 92.6948477,4605.931 L93.4638477,4606.7 C93.8548477,4607.091 93.8548477,4607.724 93.4638477,4608.115 L93.4638477,4608.115 C93.0738477,4608.505 92.4408477,4608.505 92.0498477,4608.115 L91.3198477,4607.384 C90.7488477,4607.876 90.1348477,4608.287 89.4918477,4608.627 L89.8618477,4609.644 C90.0508477,4610.163 89.7838477,4610.736 89.2648477,4610.925 C88.7458477,4611.114 88.1718477,4610.847 87.9828477,4610.328 L87.6408477,4609.388 C87.1118477,4609.543 86.5738477,4609.655 86.0298477,4609.722 C86.1918477,4611.524 86.9588477,4613.28 88.3348477,4614.656 C89.6738477,4615.996 91.4048477,4616.798 93.2688477,4616.964 C93.3368477,4616.411 93.4528477,4615.863 93.6128477,4615.325 L92.5528477,4614.831 C92.0518477,4614.598 91.8358477,4614.003 92.0688477,4613.502 C92.3028477,4613.001 92.8978477,4612.785 93.3978477,4613.018 L94.3778477,4613.475 C94.7158477,4612.841 95.1218477,4612.235 95.6078477,4611.672 L94.8278477,4610.893 C94.4368477,4610.502 94.4368477,4609.869 94.8278477,4609.478 L94.8278477,4609.478 C95.2178477,4609.088 95.8518477,4609.088 96.2418477,4609.478 L97.0608477,4610.297 C97.5328477,4609.931 98.0298477,4609.612 98.5468477,4609.343 L98.1398477,4608.224 C97.9508477,4607.705 98.2178477,4607.131 98.7368477,4606.942 L98.7368477,4606.942 C99.2558477,4606.753 99.8298477,4607.021 100.018848,4607.54 L100.402848,4608.594 C100.911848,4608.448 101.430848,4608.342 101.953848,4608.277 L101.953848,4608.277 Z M101.873848,4610.307 C100.235848,4610.576 98.7248477,4611.338 97.5278477,4612.535 C96.3008477,4613.762 95.5648477,4615.291 95.3028477,4616.885 C96.9408477,4616.616 98.4518477,4615.853 99.6488477,4614.656 C100.874848,4613.43 101.611848,4611.9 101.873848,4610.307 L101.873848,4610.307 Z M86.1098477,4607.692 C86.4628477,4607.634 86.8068477,4607.543 87.1468477,4607.439 C87.3328477,4607.383 87.5128477,4607.31 87.6938477,4607.24 C88.7148477,4606.846 89.6598477,4606.261 90.4568477,4605.464 C91.6828477,4604.238 92.4198477,4602.708 92.6818477,4601.114 C91.0438477,4601.383 89.5318477,4602.146 88.3348477,4603.343 C87.1088477,4604.569 86.3718477,4606.099 86.1098477,4607.692 L86.1098477,4607.692 Z M103.954848,4608.229 L103.907848,4610.227 C103.644848,4612.363 102.702848,4614.431 101.062848,4616.071 C99.4238477,4617.709 97.3568477,4618.651 95.2228477,4618.915 L93.2208477,4618.963 C90.9248477,4618.786 88.6768477,4617.827 86.9208477,4616.071 C85.1648477,4614.314 84.2058477,4612.067 84.0288477,4609.77 L84.0768477,4607.772 C84.3398477,4605.636 85.2818477,4603.568 86.9208477,4601.928 C88.5598477,4600.29 90.6268477,4599.348 92.7618477,4599.085 L94.7628477,4599.036 C97.0588477,4599.213 99.3068477,4600.172 101.062848,4601.928 C102.819848,4603.685 103.778848,4605.932 103.954848,4608.229 L103.954848,4608.229 Z M87.1468477,4607.439 C87.3328477,4607.383 87.5128477,4607.31 87.6938477,4607.24 L87.1468477,4607.439 Z M93.9918477,4599 C93.5808477,4599 93.1698477,4599.034 92.7618477,4599.085 L94.7628477,4599.036 C94.5058477,4599.017 94.2488477,4599 93.9918477,4599 L93.9918477,4599 Z M84.0288477,4609.77 L84.0768477,4607.772 C83.9948477,4608.436 83.9778477,4609.104 84.0288477,4609.77 L84.0288477,4609.77 Z M103.954848,4608.229 L103.907848,4610.227 C103.988848,4609.564 104.006848,4608.895 103.954848,4608.229 L103.954848,4608.229 Z M93.2208477,4618.963 L95.2228477,4618.915 C94.8138477,4618.965 94.4038477,4619 93.9918477,4619 C93.7348477,4619 93.4778477,4618.983 93.2208477,4618.963 L93.2208477,4618.963 Z" id="tenis-[#786]"></path>
            </g>
        </g>
    </g>
</svg>