<?xml version="1.0" encoding="UTF-8" standalone="no"?>
<svg width="20px" height="20px" viewBox="0 0 20 20" version="1.1" xmlns="http://www.w3.org/2000/svg" xmlns:xlink="http://www.w3.org/1999/xlink">
    <!-- Generator: Sketch 3.8.1 (29687) - http://www.bohemiancoding.com/sketch -->
    <title>tenis [#781]</title>
    <desc>Created with Sketch.</desc>
    <defs></defs>
    <g id="Page-1" stroke="none" stroke-width="1" fill="none" fill-rule="evenodd">
        <g id="Dribbble-Dark-Preview" transform="translate(-340.000000, -4759.000000)" fill="#FFFFFF">
            <g id="icons" transform="translate(56.000000, 160.000000)">
                <path d="M298.502,4612.447 L290.554,4604.499 C292.276,4600.766 297.335,4599.854 300.241,4602.76 C303.147,4605.666 302.235,4610.725 298.502,4612.447 L298.502,4612.447 Z M296.216,4612.99 C292.789,4613.111 289.89,4610.212 290.011,4606.785 L296.216,4612.99 Z M288.243,4616.172 L286.829,4614.758 L289.686,4611.901 C290.097,4612.429 290.572,4612.904 291.1,4613.315 L288.243,4616.172 Z M296,4599 C290.374,4599 286.427,4604.926 288.634,4610.124 L284,4614.758 L288.243,4619 L292.876,4614.367 C297.599,4616.372 303.113,4613.301 303.903,4608.244 C304.65,4603.459 300.846,4599 296,4599 L296,4599 Z" id="tenis-[#781]"></path>
            </g>
        </g>
    </g>
</svg>