<?xml version="1.0" encoding="UTF-8" standalone="no"?>
<svg width="20px" height="20px" viewBox="0 0 20 20" version="1.1" xmlns="http://www.w3.org/2000/svg" xmlns:xlink="http://www.w3.org/1999/xlink">
    <!-- Generator: Sketch 3.8.1 (29687) - http://www.bohemiancoding.com/sketch -->
    <title>tenis_round [#782]</title>
    <desc>Created with Sketch.</desc>
    <defs></defs>
    <g id="Page-1" stroke="none" stroke-width="1" fill="none" fill-rule="evenodd">
        <g id="Dribbble-Dark-Preview" transform="translate(-300.000000, -4759.000000)" fill="#FFFFFF">
            <g id="icons" transform="translate(56.000000, 160.000000)">
                <path d="M258.50375,4612.4466 L250.55575,4604.4986 C252.27775,4600.7656 257.33675,4599.8536 260.24275,4602.7596 C263.14875,4605.6656 262.23675,4610.7246 258.50375,4612.4466 L258.50375,4612.4466 Z M256.21775,4612.9896 C252.79075,4613.1106 249.89175,4610.2116 250.01275,4606.7846 L256.21775,4612.9896 Z M246.70775,4616.2946 L246.70775,4616.2946 C246.31675,4615.9036 246.31675,4615.2706 246.70775,4614.8806 L249.68775,4611.9006 C250.09875,4612.4286 250.57375,4612.9036 251.10175,4613.3146 L248.12175,4616.2946 C247.73075,4616.6846 247.09775,4616.6846 246.70775,4616.2946 L246.70775,4616.2946 Z M256.76075,4599.0356 C250.73775,4598.4726 246.33075,4604.6946 248.63575,4610.1236 L244.58575,4614.1736 C243.80475,4614.9546 243.80475,4616.2206 244.58575,4617.0016 L246.00075,4618.4156 C246.78175,4619.1966 248.04775,4619.1966 248.82875,4618.4156 L252.87775,4614.3666 C258.03575,4616.5566 264.13675,4612.6926 263.99875,4606.7996 C263.90475,4602.8066 260.73675,4599.4076 256.76075,4599.0356 L256.76075,4599.0356 Z" id="tenis_round-[#782]"></path>
            </g>
        </g>
    </g>
</svg>