<?xml version="1.0" encoding="UTF-8" standalone="no"?>
<svg width="14px" height="10px" viewBox="0 0 14 10" version="1.1" xmlns="http://www.w3.org/2000/svg" xmlns:xlink="http://www.w3.org/1999/xlink">
    <!-- Generator: Sketch 3.8.1 (29687) - http://www.bohemiancoding.com/sketch -->
    <title>tetrix [#78]</title>
    <desc>Created with Sketch.</desc>
    <defs></defs>
    <g id="Page-1" stroke="none" stroke-width="1" fill="none" fill-rule="evenodd">
        <g id="Dribbble-Dark-Preview" transform="translate(-63.000000, -7884.000000)" fill="#FFFFFF">
            <g id="icons" transform="translate(56.000000, 160.000000)">
                <path d="M17,7732.031 L19,7732.031 L19,7730.031 L17,7730.031 L17,7732.031 Z M13,7728 L15,7728 L15,7726 L13,7726 L13,7728 Z M13,7732.031 L15,7732.031 L15,7730.031 L13,7730.031 L13,7732.031 Z M9,7728 L11,7728 L11,7726 L9,7726 L9,7728 Z M17,7728 L17,7724 L7,7724 L7,7730 L11,7730 L11,7734 L21,7734 L21,7728 L17,7728 Z" id="tetrix-[#78]"></path>
            </g>
        </g>
    </g>
</svg>