<?xml version="1.0" encoding="UTF-8" standalone="no"?>
<svg width="14px" height="10px" viewBox="0 0 14 10" version="1.1" xmlns="http://www.w3.org/2000/svg" xmlns:xlink="http://www.w3.org/1999/xlink">
    <!-- Generator: Sketch 3.8.1 (29687) - http://www.bohemiancoding.com/sketch -->
    <title>tetrix [#77]</title>
    <desc>Created with Sketch.</desc>
    <defs></defs>
    <g id="Page-1" stroke="none" stroke-width="1" fill="none" fill-rule="evenodd">
        <g id="Dribbble-Dark-Preview" transform="translate(-103.000000, -7884.000000)" fill="#FFFFFF">
            <g id="icons" transform="translate(56.000000, 160.000000)">
                <path d="M57,7728 L59,7728 L59,7726 L57,7726 L57,7728 Z M53,7728 L55,7728 L55,7726 L53,7726 L53,7728 Z M49,7728 L51,7728 L51,7726 L49,7726 L49,7728 Z M49,7732 L51,7732 L51,7730 L49,7730 L49,7732 Z M47,7724 L47,7734 L53,7734 L53,7730 L61,7730 L61,7724 L47,7724 Z" id="tetrix-[#77]"></path>
            </g>
        </g>
    </g>
</svg>