<?xml version="1.0" encoding="UTF-8" standalone="no"?>
<svg width="14px" height="10px" viewBox="0 0 14 10" version="1.1" xmlns="http://www.w3.org/2000/svg" xmlns:xlink="http://www.w3.org/1999/xlink">
    <!-- Generator: Sketch 3.8.1 (29687) - http://www.bohemiancoding.com/sketch -->
    <title>tetrix [#79]</title>
    <desc>Created with Sketch.</desc>
    <defs></defs>
    <g id="Page-1" stroke="none" stroke-width="1" fill="none" fill-rule="evenodd">
        <g id="Dribbble-Dark-Preview" transform="translate(-423.000000, -7844.000000)" fill="#FFFFFF">
            <g id="icons" transform="translate(56.000000, 160.000000)">
                <path d="M377,7688.031 L379,7688.031 L379,7686.031 L377,7686.031 L377,7688.031 Z M373,7688.031 L375,7688.031 L375,7686.031 L373,7686.031 L373,7688.031 Z M373,7692.063 L375,7692.063 L375,7690.063 L373,7690.063 L373,7692.063 Z M369,7692.063 L371,7692.063 L371,7690.063 L369,7690.063 L369,7692.063 Z M371,7684 L371,7688 L367,7688 L367,7694 L377,7694 L377,7690 L381,7690 L381,7684 L371,7684 Z" id="tetrix-[#79]"></path>
            </g>
        </g>
    </g>
</svg>