<?xml version="1.0" encoding="UTF-8" standalone="no"?>
<svg width="20px" height="10px" viewBox="0 0 20 10" version="1.1" xmlns="http://www.w3.org/2000/svg" xmlns:xlink="http://www.w3.org/1999/xlink">
    <!-- Generator: Sketch 3.8.1 (29687) - http://www.bohemiancoding.com/sketch -->
    <title>text_distribution [#916]</title>
    <desc>Created with Sketch.</desc>
    <defs></defs>
    <g id="Page-1" stroke="none" stroke-width="1" fill="none" fill-rule="evenodd">
        <g id="Dribbble-Dark-Preview" transform="translate(-220.000000, -4164.000000)" fill="#FFFFFF">
            <g id="icons" transform="translate(56.000000, 160.000000)">
                <path d="M164,4006 L166,4006 L166,4004 L164,4004 L164,4006 Z M182,4010 L184,4010 L184,4008 L182,4008 L182,4010 Z M164,4014 L166,4014 L166,4012 L164,4012 L164,4014 Z M168,4014 L184,4014 L184,4012 L168,4012 L168,4014 Z M168,4006 L184,4006 L184,4004 L168,4004 L168,4006 Z M164,4010 L180,4010 L180,4008 L164,4008 L164,4010 Z" id="text_distribution-[#916]"></path>
            </g>
        </g>
    </g>
</svg>