<?xml version="1.0" encoding="UTF-8" standalone="no"?>
<svg width="20px" height="20px" viewBox="0 0 20 20" version="1.1" xmlns="http://www.w3.org/2000/svg" xmlns:xlink="http://www.w3.org/1999/xlink">
    <!-- Generator: Sketch 3.8.1 (29687) - http://www.bohemiancoding.com/sketch -->
    <title>text_style [#1212]</title>
    <desc>Created with Sketch.</desc>
    <defs></defs>
    <g id="Page-1" stroke="none" stroke-width="1" fill="none" fill-rule="evenodd">
        <g id="Dribbble-Dark-Preview" transform="translate(-60.000000, -2759.000000)" fill="#FFFFFF">
            <g id="icons" transform="translate(56.000000, 160.000000)">
                <path d="M24,2599 L24,2605 L22,2605 C22,2602.791 20.209,2601 18,2601 L16.586,2601 C15.71,2601 15,2601.71 15,2602.586 L15,2616 C15,2616.552 15.448,2617 16,2617 L18,2617 L18,2619 L10,2619 L10,2617 L12,2617 C12.552,2617 13,2616.552 13,2616 L13,2602.586 C13,2601.71 12.29,2601 11.414,2601 L10,2601 C7.791,2601 6,2602.791 6,2605 L4,2605 L4,2599 L24,2599 Z" id="text_style-[#1212]"></path>
            </g>
        </g>
    </g>
</svg>