<?xml version="1.0" encoding="UTF-8" standalone="no"?>
<svg width="20px" height="20px" viewBox="0 0 20 20" version="1.1" xmlns="http://www.w3.org/2000/svg" xmlns:xlink="http://www.w3.org/1999/xlink">
    <!-- Generator: Sketch 3.8.1 (29687) - http://www.bohemiancoding.com/sketch -->
    <title>thermometer_f [#744]</title>
    <desc>Created with Sketch.</desc>
    <defs></defs>
    <g id="Page-1" stroke="none" stroke-width="1" fill="none" fill-rule="evenodd">
        <g id="Dribbble-Dark-Preview" transform="translate(-220.000000, -4919.000000)" fill="#FFFFFF">
            <g id="icons" transform="translate(56.000000, 160.000000)">
                <path d="M174,4765 L170,4765 L170,4767 L168,4767 L168,4765 L168,4763 L168,4761 L168,4759 L174,4759 L174,4761 L170,4761 L170,4763 L174,4763 L174,4765 Z M164,4761 L166,4761 L166,4759 L164,4759 L164,4761 Z M179,4777 C177.346,4777 176,4775.654 176,4774 C176,4772.698 176.839,4771.599 178,4771.184 L178,4769.101 L178,4769 L180,4769 L180,4769.101 L180,4771.184 C181.161,4771.599 182,4772.698 182,4774 C182,4775.654 180.654,4777 179,4777 L179,4777 Z M178,4763 L180,4763 L180,4761 L178,4761 L178,4763 Z M178,4767 L180,4767 L180,4765 L178,4765 L178,4767 Z M182,4770.023 L182,4759 L176,4759 L176,4770.023 C174.792,4770.935 174,4772.37 174,4774 C174,4776.761 176.239,4779 179,4779 C181.761,4779 184,4776.761 184,4774 C184,4772.37 183.208,4770.935 182,4770.023 L182,4770.023 Z" id="thermometer_f-[#744]"></path>
            </g>
        </g>
    </g>
</svg>