<?xml version="1.0" encoding="UTF-8" standalone="no"?>
<svg width="18px" height="20px" viewBox="0 0 18 20" version="1.1" xmlns="http://www.w3.org/2000/svg" xmlns:xlink="http://www.w3.org/1999/xlink">
    <!-- Generator: Sketch 3.8.1 (29687) - http://www.bohemiancoding.com/sketch -->
    <title>thermometer_plus [#752]</title>
    <desc>Created with Sketch.</desc>
    <defs></defs>
    <g id="Page-1" stroke="none" stroke-width="1" fill="none" fill-rule="evenodd">
        <g id="Dribbble-Dark-Preview" transform="translate(-301.000000, -4879.000000)" fill="#FFFFFF">
            <g id="icons" transform="translate(56.000000, 160.000000)">
                <path d="M251,4724 C251,4724.552 250.552,4725 250,4725 L249,4725 L249,4726 C249,4726.552 248.552,4727 248,4727 C247.448,4727 247,4726.552 247,4726 L247,4725 L246,4725 C245.448,4725 245,4724.552 245,4724 C245,4723.448 245.448,4723 246,4723 L247,4723 L247,4722 C247,4721.448 247.448,4721 248,4721 C248.552,4721 249,4721.448 249,4722 L249,4723 L250,4723 C250.552,4723 251,4723.448 251,4724 L251,4724 Z M258,4737 C256.346,4737 255,4735.654 255,4734 C255,4732.698 255.839,4731.599 257,4731.184 L257,4729.101 L257,4729 L259,4729 L259,4729.101 L259,4731.184 C260.161,4731.599 261,4732.698 261,4734 C261,4735.654 259.654,4737 258,4737 L258,4737 Z M257,4727 L259,4727 L259,4725 L257,4725 L257,4727 Z M257,4722 C257,4721.448 257.448,4721 258,4721 C258.552,4721 259,4721.448 259,4722 L259,4723 L257,4723 L257,4722 Z M261,4730.023 L261,4721 C261,4719.895 260.105,4719 259,4719 L257,4719 C255.895,4719 255,4719.895 255,4721 L255,4730.023 C253.566,4731.106 252.718,4732.925 253.086,4734.935 C253.443,4736.885 254.988,4738.486 256.929,4738.889 C260.158,4739.559 263,4737.111 263,4734 C263,4732.37 262.208,4730.935 261,4730.023 L261,4730.023 Z" id="thermometer_plus-[#752]"></path>
            </g>
        </g>
    </g>
</svg>