<?xml version="1.0" encoding="UTF-8" standalone="no"?>
<svg width="18px" height="20px" viewBox="0 0 18 20" version="1.1" xmlns="http://www.w3.org/2000/svg" xmlns:xlink="http://www.w3.org/1999/xlink">
    <!-- Generator: Sketch 3.8.1 (29687) - http://www.bohemiancoding.com/sketch -->
    <title>thermometer_minus [#753]</title>
    <desc>Created with Sketch.</desc>
    <defs></defs>
    <g id="Page-1" stroke="none" stroke-width="1" fill="none" fill-rule="evenodd">
        <g id="Dribbble-Dark-Preview" transform="translate(-261.000000, -4879.000000)" fill="#FFFFFF">
            <g id="icons" transform="translate(56.000000, 160.000000)">
                <path d="M205,4725 L211,4725 L211,4723 L205,4723 L205,4725 Z M218,4737 C216.346,4737 215,4735.654 215,4734 C215,4732.698 215.839,4731.599 217,4731.184 L217,4729.101 L217,4729 L219,4729 L219,4729.101 L219,4731.184 C220.161,4731.599 221,4732.698 221,4734 C221,4735.654 219.654,4737 218,4737 L218,4737 Z M217,4727 L219,4727 L219,4725 L217,4725 L217,4727 Z M217,4723 L219,4723 L219,4721 L217,4721 L217,4723 Z M221,4730.023 L221,4719 L215,4719 L215,4730.023 C213.792,4730.935 213,4732.37 213,4734 C213,4736.761 215.239,4739 218,4739 C220.761,4739 223,4736.761 223,4734 C223,4732.37 222.208,4730.935 221,4730.023 L221,4730.023 Z" id="thermometer_minus-[#753]"></path>
            </g>
        </g>
    </g>
</svg>