<?xml version="1.0" encoding="UTF-8" standalone="no"?>
<svg width="20px" height="20px" viewBox="0 0 20 20" version="1.1" xmlns="http://www.w3.org/2000/svg" xmlns:xlink="http://www.w3.org/1999/xlink">
    <!-- Generator: Sketch 3.8.1 (29687) - http://www.bohemiancoding.com/sketch -->
    <title>thermometer_c [#745]</title>
    <desc>Created with Sketch.</desc>
    <defs></defs>
    <g id="Page-1" stroke="none" stroke-width="1" fill="none" fill-rule="evenodd">
        <g id="Dribbble-Dark-Preview" transform="translate(-180.000000, -4919.000000)" fill="#FFFFFF">
            <g id="icons" transform="translate(56.000000, 160.000000)">
                <path d="M130,4763.13638 L130,4764.12784 C130,4764.67513 130.448,4764.94877 131,4764.94877 L132,4764.94877 L133,4764.94877 C133.545,4764.94877 133.984,4765.46433 133.996,4766.00369 C133.984,4766.54007 133.545,4766.93169 133,4766.93169 L132,4766.93169 L130,4767.01696 C128.896,4767.01696 128,4766.21487 128,4765.1193 L128,4763.13638 L128,4761.15346 L128,4761.06819 C128,4759.97362 128.896,4759 130,4759 L132,4759 L133,4759 C133.552,4759 134,4759.48681 134,4760.03409 L134,4760.07673 C134,4760.62401 133.552,4760.98292 133,4760.98292 L132,4760.98292 L131,4760.98292 C130.448,4760.98292 130,4761.59763 130,4762.14492 L130,4763.13638 Z M134,4766.0255 C134,4766.01856 133.996,4766.01162 133.996,4766.00369 C133.996,4765.99675 134,4765.9908 134,4765.98287 L134,4766.0255 Z M124,4760.16199 L124,4760.16199 C124,4759.61471 124.448,4759.17053 125,4759.17053 C125.552,4759.17053 126,4759.61471 126,4760.16199 C126,4760.70928 125.552,4761.15346 125,4761.15346 C124.448,4761.15346 124,4760.70928 124,4760.16199 L124,4760.16199 Z M139,4777.01684 C137.346,4777.01684 136,4775.68234 136,4774.04246 C136,4772.75158 136.839,4771.66196 138,4771.2505 L138,4769.18529 L138,4768.91462 L140,4768.91462 L140,4769.18529 L140,4771.2505 C141.161,4771.66196 142,4772.75158 142,4774.04246 C142,4775.68234 140.654,4777.01684 139,4777.01684 L139,4777.01684 Z M140,4762.14492 L140,4763.13638 L138,4763.13638 L138,4762.14492 C138,4761.59763 138.448,4761.15346 139,4761.15346 C139.552,4761.15346 140,4761.59763 140,4762.14492 L140,4762.14492 Z M138,4767.10223 L140,4767.10223 L140,4765.1193 L138,4765.1193 L138,4767.10223 Z M142,4770.09942 L142,4761.15346 C142,4760.05789 141.105,4759 140,4759 L138,4759 C136.895,4759 136,4760.05789 136,4761.15346 L136,4770.09942 C134.566,4771.17317 133.718,4772.97664 134.086,4774.96948 C134.443,4776.90283 135.988,4778.49016 137.929,4778.88972 C141.158,4779.554 144,4777.1269 144,4774.04246 C144,4772.42638 143.208,4771.00363 142,4770.09942 L142,4770.09942 Z" id="thermometer_c-[#745]"></path>
            </g>
        </g>
    </g>
</svg>