<?xml version="1.0" encoding="UTF-8" standalone="no"?>
<svg width="20px" height="20px" viewBox="0 0 20 20" version="1.1" xmlns="http://www.w3.org/2000/svg" xmlns:xlink="http://www.w3.org/1999/xlink">
    <!-- Generator: Sketch 3.8.1 (29687) - http://www.bohemiancoding.com/sketch -->
    <title>thermometer_down [#741]</title>
    <desc>Created with Sketch.</desc>
    <defs></defs>
    <g id="Page-1" stroke="none" stroke-width="1" fill="none" fill-rule="evenodd">
        <g id="Dribbble-Dark-Preview" transform="translate(-340.000000, -4919.000000)" fill="#FFFFFF">
            <g id="icons" transform="translate(56.000000, 160.000000)">
                <path d="M286.161989,4769.00403 L284.365989,4767.54203 C283.899989,4767.16203 283.874989,4766.45903 284.313989,4766.04803 L284.313989,4766.04803 C284.691989,4765.69403 285.277989,4765.69003 285.660989,4766.03903 L286.412989,4766.72503 L286.456989,4759.99303 C286.460989,4759.44003 286.911989,4758.99603 287.464989,4759.00003 C288.016989,4759.00403 288.460989,4759.45503 288.456989,4760.00703 L288.413989,4766.56703 L289.200989,4765.93303 C289.596989,4765.61403 290.170989,4765.64603 290.528989,4766.00803 L290.610989,4766.09003 C291.027989,4766.51203 290.983989,4767.20303 290.517989,4767.56903 L288.658989,4769.02703 C287.923989,4769.60403 286.886989,4769.59403 286.161989,4769.00403 L286.161989,4769.00403 Z M300.404989,4776.62803 C298.501989,4777.66503 296.310989,4776.27603 296.234989,4774.11103 C296.194989,4772.96103 296.786989,4771.90903 297.600989,4771.36103 C297.873989,4771.17703 298.036989,4770.87103 298.036989,4770.54203 L298.036989,4769.00003 L300.036989,4769.00003 L300.036989,4770.59003 C300.036989,4770.93303 300.215989,4771.24503 300.504989,4771.43103 C301.315989,4771.95203 301.991989,4772.90503 301.991989,4774.00003 C301.991989,4775.13003 301.343989,4776.11603 300.404989,4776.62803 L300.404989,4776.62803 Z M298.105989,4767.00003 L300.105989,4767.00003 L300.105989,4765.00003 L298.105989,4765.00003 L298.105989,4767.00003 Z M299.105989,4761.00003 L299.105989,4761.00003 C299.657989,4761.00003 300.105989,4761.44803 300.105989,4762.00003 L300.105989,4763.00003 L298.105989,4763.00003 L298.105989,4762.00003 C298.105989,4761.44803 298.553989,4761.00003 299.105989,4761.00003 L299.105989,4761.00003 Z M302.036989,4769.81103 L302.036989,4761.00003 C302.036989,4759.89603 301.140989,4759.00003 300.036989,4759.00003 L298.036989,4759.00003 C296.931989,4759.00003 296.036989,4759.89603 296.036989,4761.00003 L296.036989,4769.81603 C296.036989,4769.94803 295.982989,4770.07003 295.888989,4770.16403 C294.133989,4771.91403 292.866989,4775.88303 296.473989,4778.39603 C297.151989,4778.86803 298.254989,4779.01703 299.079989,4778.99903 C301.791989,4778.94103 304.003989,4776.72503 304.003989,4774.00003 C304.003989,4772.45303 303.132989,4771.08203 302.188989,4770.16603 C302.091989,4770.07203 302.036989,4769.94703 302.036989,4769.81103 L302.036989,4769.81103 Z" id="thermometer_down-[#741]"></path>
            </g>
        </g>
    </g>
</svg>