<?xml version="1.0" encoding="UTF-8" standalone="no"?>
<svg width="18px" height="20px" viewBox="0 0 18 20" version="1.1" xmlns="http://www.w3.org/2000/svg" xmlns:xlink="http://www.w3.org/1999/xlink">
    <!-- Generator: Sketch 3.8.1 (29687) - http://www.bohemiancoding.com/sketch -->
    <title>thermometer_plus [#751]</title>
    <desc>Created with Sketch.</desc>
    <defs></defs>
    <g id="Page-1" stroke="none" stroke-width="1" fill="none" fill-rule="evenodd">
        <g id="Dribbble-Dark-Preview" transform="translate(-341.000000, -4879.000000)" fill="#FFFFFF">
            <g id="icons" transform="translate(56.000000, 160.000000)">
                <path d="M289,4723 L291,4723 L291,4725 L289,4725 L289,4727 L287,4727 L287,4725 L285,4725 L285,4723 L287,4723 L287,4721 L289,4721 L289,4723 Z M298,4737 C296.346,4737 295,4735.654 295,4734 C295,4732.698 295.839,4731.599 297,4731.184 L297,4729.101 L297,4729 L299,4729 L299,4729.101 L299,4731.184 C300.161,4731.599 301,4732.698 301,4734 C301,4735.654 299.654,4737 298,4737 L298,4737 Z M297,4727 L299,4727 L299,4725 L297,4725 L297,4727 Z M297,4723 L299,4723 L299,4721 L297,4721 L297,4723 Z M301,4730.023 L301,4719 L295,4719 L295,4730.023 C293.792,4730.935 293,4732.37 293,4734 C293,4736.761 295.239,4739 298,4739 C300.761,4739 303,4736.761 303,4734 C303,4732.37 302.208,4730.935 301,4730.023 L301,4730.023 Z" id="thermometer_plus-[#751]"></path>
            </g>
        </g>
    </g>
</svg>