<?xml version="1.0" encoding="UTF-8" standalone="no"?>
<svg width="17px" height="20px" viewBox="0 0 17 20" version="1.1" xmlns="http://www.w3.org/2000/svg" xmlns:xlink="http://www.w3.org/1999/xlink">
    <!-- Generator: Sketch 3.8.1 (29687) - http://www.bohemiancoding.com/sketch -->
    <title>thermometer_close [#756]</title>
    <desc>Created with Sketch.</desc>
    <defs></defs>
    <g id="Page-1" stroke="none" stroke-width="1" fill="none" fill-rule="evenodd">
        <g id="Dribbble-Dark-Preview" transform="translate(-141.000000, -4879.000000)" fill="#FFFFFF">
            <g id="icons" transform="translate(56.000000, 160.000000)">
                <path d="M89.427546,4723.29295 L88.737374,4723.99994 L89.427546,4724.70693 C89.8092394,4725.09793 89.8092394,4725.73092 89.427546,4726.12092 C89.0458526,4726.51191 88.4279193,4726.51191 88.047202,4726.12092 L87.3570301,4725.41392 L86.6668581,4726.12092 C86.2851647,4726.51191 85.6672313,4726.51191 85.2855379,4726.12092 C84.9048207,4725.73092 84.9048207,4725.09793 85.2855379,4724.70693 L85.9757099,4723.99994 L85.2855379,4723.29295 C84.9048207,4722.90195 84.9048207,4722.26896 85.2855379,4721.87897 C85.6672313,4721.48797 86.2851647,4721.48797 86.6668581,4721.87897 L87.3570301,4722.58596 L88.047202,4721.87897 C88.4279193,4721.48797 89.0458526,4721.48797 89.427546,4721.87897 C89.8092394,4722.26896 89.8092394,4722.90195 89.427546,4723.29295 L89.427546,4723.29295 Z M97.11901,4736.99979 C95.5034023,4736.99979 94.190416,4735.65381 94.190416,4733.99982 C94.190416,4732.69784 95.00847,4731.59885 96.142812,4731.18386 L96.142812,4729.10088 L96.142812,4728.99988 L98.095208,4728.99988 L98.095208,4729.10088 L98.095208,4731.18386 C99.2285739,4731.59885 100.047604,4732.69784 100.047604,4733.99982 C100.047604,4735.65381 98.7336415,4736.99979 97.11901,4736.99979 L97.11901,4736.99979 Z M96.142812,4726.99991 L98.095208,4726.99991 L98.095208,4724.99993 L96.142812,4724.99993 L96.142812,4726.99991 Z M96.142812,4721.99996 C96.142812,4721.44797 96.5791725,4720.99998 97.11901,4720.99998 C97.6578713,4720.99998 98.095208,4721.44797 98.095208,4721.99996 L98.095208,4722.99995 L96.142812,4722.99995 L96.142812,4721.99996 Z M100.047604,4730.02287 L100.047604,4720.99998 C100.047604,4719.89499 99.1729306,4719 98.095208,4719 L96.142812,4719 C95.0641132,4719 94.190416,4719.89499 94.190416,4720.99998 L94.190416,4730.02287 C92.7905481,4731.10586 91.961756,4732.92484 92.3219731,4734.93481 C92.6704758,4736.88479 94.1777255,4738.48577 96.0725258,4738.88877 C99.2256453,4739.55876 102,4737.11079 102,4733.99982 C102,4732.36984 101.225875,4730.93486 100.047604,4730.02287 L100.047604,4730.02287 Z" id="thermometer_close-[#756]"></path>
            </g>
        </g>
    </g>
</svg>