<?xml version="1.0" encoding="UTF-8" standalone="no"?>
<svg width="20px" height="20px" viewBox="0 0 20 20" version="1.1" xmlns="http://www.w3.org/2000/svg" xmlns:xlink="http://www.w3.org/1999/xlink">
    <!-- Generator: Sketch 3.8.1 (29687) - http://www.bohemiancoding.com/sketch -->
    <title>thermometer_up [#740]</title>
    <desc>Created with Sketch.</desc>
    <defs></defs>
    <g id="Page-1" stroke="none" stroke-width="1" fill="none" fill-rule="evenodd">
        <g id="Dribbble-Dark-Preview" transform="translate(-380.000000, -4919.000000)" fill="#FFFFFF">
            <g id="icons" transform="translate(56.000000, 160.000000)">
                <path d="M331.956535,4762.189 L330.450347,4763.592 L329.010564,4762.289 L328.959251,4769.461 L326.946977,4769.446 L326.997283,4762.447 L325.504175,4763.643 L324,4762.132 L328.016501,4759.001 L331.956535,4762.189 Z M338.913975,4777 C337.248818,4777 336.182312,4775.655 336.182312,4774 C336.182312,4772.698 336.991247,4771.54 337.997384,4771.125 L337.997384,4769 L340.009659,4769 L340.009659,4771.185 C341.015796,4771.599 341.976658,4772.698 341.976658,4774 C341.976658,4775.655 340.578127,4777 338.913975,4777 L338.913975,4777 Z M338.066808,4767 L340.079082,4767 L340.079082,4765 L338.066808,4765 L338.066808,4767 Z M338.066808,4763 L340.079082,4763 L340.079082,4761 L338.066808,4761 L338.066808,4763 Z M342.021934,4770.023 L342.021934,4759 L335.985109,4759 L335.985109,4770.023 C334.978972,4770.936 333.927558,4772.37 333.927558,4774 C333.927558,4776.762 336.158165,4779 338.93611,4779 C341.714056,4779 344,4776.762 344,4774 C344,4772.37 343.028071,4770.936 342.021934,4770.023 L342.021934,4770.023 Z" id="thermometer_up-[#740]"></path>
            </g>
        </g>
    </g>
</svg>