<?xml version="1.0" encoding="UTF-8" standalone="no"?>
<svg width="20px" height="20px" viewBox="0 0 20 20" version="1.1" xmlns="http://www.w3.org/2000/svg" xmlns:xlink="http://www.w3.org/1999/xlink">
    <!-- Generator: Sketch 3.8.1 (29687) - http://www.bohemiancoding.com/sketch -->
    <title>thermometer_down [#739]</title>
    <desc>Created with Sketch.</desc>
    <defs></defs>
    <g id="Page-1" stroke="none" stroke-width="1" fill="none" fill-rule="evenodd">
        <g id="Dribbble-Dark-Preview" transform="translate(-420.000000, -4919.000000)" fill="#FFFFFF">
            <g id="icons" transform="translate(56.000000, 160.000000)">
                <path d="M364,4766.293 L365.494998,4764.879 L366.942744,4766.172 L366.942744,4759 L368.953501,4759 L368.953501,4766 L370.43744,4764.793 L371.950535,4766.293 L367.960187,4769.453 L364,4766.293 Z M378.91781,4777 C377.254914,4777 376.188207,4775.654 376.188207,4774 C376.188207,4772.698 376.996531,4771.539 378.00191,4771.125 L378.00191,4769 L380.012668,4769 L380.012668,4771.184 C381.018047,4771.599 381.978183,4772.698 381.978183,4774 C381.978183,4775.654 380.580707,4777 378.91781,4777 L378.91781,4777 Z M378.071281,4767 L380.082039,4767 L380.082039,4765 L378.071281,4765 L378.071281,4767 Z M378.071281,4763 L380.082039,4763 L380.082039,4761 L378.071281,4761 L378.071281,4763 Z M382.023425,4770.023 L382.023425,4759 L375.991153,4759 L375.991153,4770.023 C374.985774,4770.935 373.935153,4772.37 373.935153,4774 C373.935153,4776.761 376.164078,4779 378.939929,4779 C381.715779,4779 384,4776.761 384,4774 C384,4772.37 383.028804,4770.935 382.023425,4770.023 L382.023425,4770.023 Z" id="thermometer_down-[#739]"></path>
            </g>
        </g>
    </g>
</svg>