<?xml version="1.0" encoding="UTF-8" standalone="no"?>
<svg width="10px" height="20px" viewBox="0 0 10 20" version="1.1" xmlns="http://www.w3.org/2000/svg" xmlns:xlink="http://www.w3.org/1999/xlink">
    <!-- Generator: Sketch 3.8.1 (29687) - http://www.bohemiancoding.com/sketch -->
    <title>thermometer [#749]</title>
    <desc>Created with Sketch.</desc>
    <defs></defs>
    <g id="Page-1" stroke="none" stroke-width="1" fill="none" fill-rule="evenodd">
        <g id="Dribbble-Dark-Preview" transform="translate(-425.000000, -4879.000000)" fill="#FFFFFF">
            <g id="icons" transform="translate(56.000000, 160.000000)">
                <path d="M374.0178,4736.99979 C372.359406,4736.99979 370.985766,4735.65381 370.985766,4733.99982 C370.985766,4732.69784 371.963357,4731.59885 372.966013,4731.18386 L372.966013,4729.10088 L372.966013,4728.99988 L374.971326,4728.99988 L374.971326,4729.10088 L374.971326,4731.18386 C375.973983,4731.59885 377.001706,4732.69784 377.001706,4733.99982 C377.001706,4735.65381 375.676194,4736.99979 374.0178,4736.99979 L374.0178,4736.99979 Z M373.015143,4726.99991 L375.020456,4726.99991 L375.020456,4724.99993 L373.015143,4724.99993 L373.015143,4726.99991 Z M373.015143,4721.99996 C373.015143,4721.44797 373.464333,4720.99998 374.0178,4720.99998 C374.571266,4720.99998 375.020456,4721.44797 375.020456,4721.99996 L375.020456,4722.99995 L373.015143,4722.99995 L373.015143,4721.99996 Z M376.976639,4730.02287 L376.976639,4720.99998 C376.976639,4719.89499 376.128392,4719 375.020456,4719 L373.015143,4719 C371.907208,4719 370.9607,4719.89499 370.9607,4720.99998 L370.9607,4730.02287 C369.958043,4731.10586 368.696702,4732.92484 369.065679,4734.93481 C369.42463,4736.88479 370.985766,4738.48577 372.931923,4738.88877 C376.169501,4739.55876 379,4737.11079 379,4733.99982 C379,4732.36984 377.979296,4730.93486 376.976639,4730.02287 L376.976639,4730.02287 Z" id="thermometer-[#749]"></path>
            </g>
        </g>
    </g>
</svg>