<?xml version="1.0" encoding="UTF-8" standalone="no"?>
<svg width="20px" height="20px" viewBox="0 0 20 20" version="1.1" xmlns="http://www.w3.org/2000/svg" xmlns:xlink="http://www.w3.org/1999/xlink">
    <!-- Generator: Sketch 3.8.1 (29687) - http://www.bohemiancoding.com/sketch -->
    <title>thermometer_up [#742]</title>
    <desc>Created with Sketch.</desc>
    <defs></defs>
    <g id="Page-1" stroke="none" stroke-width="1" fill="none" fill-rule="evenodd">
        <g id="Dribbble-Dark-Preview" transform="translate(-300.000000, -4919.000000)" fill="#FFFFFF">
            <g id="icons" transform="translate(56.000000, 160.000000)">
                <path d="M248.743534,4759.4492 L250.542536,4760.91115 C251.009316,4761.29114 251.034357,4761.99412 250.594623,4762.4051 C250.215991,4762.75909 249.629012,4762.76309 249.246373,4762.4141 L248.492114,4761.72813 L248.44804,4768.45991 C248.444034,4769.01289 247.992279,4769.45688 247.438355,4769.45288 C246.885432,4769.44888 246.44069,4768.99789 246.444696,4768.44591 L246.487768,4761.88612 L245.699452,4762.5201 C245.30279,4762.83909 244.72783,4762.80709 244.369232,4762.4451 L244.287095,4762.36311 C243.869397,4761.94112 243.913471,4761.25014 244.38025,4760.88415 L246.242358,4759.4262 C246.978587,4758.84922 248.017321,4758.85922 248.743534,4759.4492 L248.743534,4759.4492 Z M260.395984,4776.62765 C258.489802,4777.66362 256.295139,4776.27566 256.219012,4774.10973 C256.178945,4772.96077 256.771935,4771.9088 257.586294,4771.36082 C257.859751,4771.17583 258.023023,4770.87083 258.023023,4770.54185 L258.023023,4768.99989 L260.026367,4768.99989 L260.026367,4770.58884 C260.026367,4770.93283 260.206668,4771.24482 260.496151,4771.43082 C261.307506,4771.9518 261.985638,4772.90377 261.985638,4773.99974 C261.985638,4775.1297 261.335552,4776.11567 260.395984,4776.62765 L260.395984,4776.62765 Z M258.09314,4766.99996 L260.096484,4766.99996 L260.096484,4765.00002 L258.09314,4765.00002 L258.09314,4766.99996 Z M259.094812,4761.00015 L259.094812,4761.00015 C259.647735,4761.00015 260.096484,4761.44813 260.096484,4762.00012 L260.096484,4763.00009 L258.09314,4763.00009 L258.09314,4762.00012 C258.09314,4761.44813 258.540888,4761.00015 259.094812,4761.00015 L259.094812,4761.00015 Z M262.029711,4769.81087 L262.029711,4761.00015 C262.029711,4759.89518 261.133215,4759.00021 260.026367,4759.00021 L258.023023,4759.00021 C256.917177,4759.00021 256.019679,4759.89518 256.019679,4761.00015 L256.019679,4769.81487 C256.019679,4769.94786 255.96659,4770.06986 255.872433,4770.16386 C254.113497,4771.9138 252.844379,4775.88268 256.458411,4778.3956 C257.136543,4778.86658 258.242389,4779.01658 259.068769,4778.99858 C261.784301,4778.93958 264,4776.72465 264,4773.99974 C264,4772.45278 263.127544,4771.08183 262.182967,4770.16586 C262.085805,4770.07186 262.029711,4769.94586 262.029711,4769.81087 L262.029711,4769.81087 Z" id="thermometer_up-[#742]"></path>
            </g>
        </g>
    </g>
</svg>