<?xml version="1.0" encoding="UTF-8" standalone="no"?>
<svg width="18px" height="20px" viewBox="0 0 18 20" version="1.1" xmlns="http://www.w3.org/2000/svg" xmlns:xlink="http://www.w3.org/1999/xlink">
    <!-- Generator: Sketch 3.8.1 (29687) - http://www.bohemiancoding.com/sketch -->
    <title>thermometer [#738]</title>
    <desc>Created with Sketch.</desc>
    <defs></defs>
    <g id="Page-1" stroke="none" stroke-width="1" fill="none" fill-rule="evenodd">
        <g id="Dribbble-Dark-Preview" transform="translate(-61.000000, -4959.000000)" fill="#FFFFFF">
            <g id="icons" transform="translate(56.000000, 160.000000)">
                <path d="M8,4805 C7.448,4805 7,4804.552 7,4804 C7,4803.448 7.448,4803 8,4803 C8.552,4803 9,4803.448 9,4804 C9,4804.552 8.552,4805 8,4805 L8,4805 Z M9,4801 L7,4801 C5.895,4801 5,4801.896 5,4803 L5,4805 C5,4806.104 5.895,4807 7,4807 L9,4807 C10.105,4807 11,4806.104 11,4805 L11,4803 C11,4801.896 10.105,4801 9,4801 L9,4801 Z M18,4817 C16.346,4817 15,4815.654 15,4814 C15,4812.698 15.839,4811.599 17,4811.185 L17,4809.101 L17,4809 L19,4809 L19,4809.101 L19,4811.185 C20.161,4811.599 21,4812.698 21,4814 C21,4815.654 19.654,4817 18,4817 L18,4817 Z M17,4807 L19,4807 L19,4805 L17,4805 L17,4807 Z M17,4802 C17,4801.448 17.448,4801 18,4801 C18.552,4801 19,4801.448 19,4802 L19,4803 L17,4803 L17,4802 Z M21,4810.022 L21,4801 C21,4799.896 20.105,4799 19,4799 L17,4799 C15.895,4799 15,4799.896 15,4801 L15,4810.022 C13.566,4811.106 12.718,4812.925 13.086,4814.935 C13.443,4816.885 14.988,4818.486 16.929,4818.889 C20.158,4819.559 23,4817.111 23,4814 C23,4812.37 22.208,4810.936 21,4810.022 L21,4810.022 Z" id="thermometer-[#738]"></path>
            </g>
        </g>
    </g>
</svg>