<?xml version="1.0" encoding="UTF-8" standalone="no"?>
<svg width="20px" height="20px" viewBox="0 0 20 20" version="1.1" xmlns="http://www.w3.org/2000/svg" xmlns:xlink="http://www.w3.org/1999/xlink">
    <!-- Generator: Sketch 3.8.1 (29687) - http://www.bohemiancoding.com/sketch -->
    <title>thermometer_c [#743]</title>
    <desc>Created with Sketch.</desc>
    <defs></defs>
    <g id="Page-1" stroke="none" stroke-width="1" fill="none" fill-rule="evenodd">
        <g id="Dribbble-Dark-Preview" transform="translate(-260.000000, -4919.000000)" fill="#FFFFFF">
            <g id="icons" transform="translate(56.000000, 160.000000)">
                <path d="M214,4767 L212,4767 L210,4767 L208,4767 L208,4765 L208,4763 L208,4761 L208,4759 L212,4759 L214,4759 L214,4761 L212,4761 L210,4761 L210,4763 L210,4765 L212,4765 L214,4765 L214,4767 Z M204,4761 L206,4761 L206,4759 L204,4759 L204,4761 Z M219,4777 C217.346,4777 216,4775.654 216,4774 C216,4772.698 216.839,4771.599 218,4771.184 L218,4769.101 L218,4769 L220,4769 L220,4769.101 L220,4771.184 C221.161,4771.599 222,4772.698 222,4774 C222,4775.654 220.654,4777 219,4777 L219,4777 Z M218,4763 L220,4763 L220,4761 L218,4761 L218,4763 Z M218,4767 L220,4767 L220,4765 L218,4765 L218,4767 Z M222,4770.023 L222,4759 L216,4759 L216,4770.023 C214.792,4770.935 214,4772.37 214,4774 C214,4776.761 216.239,4779 219,4779 C221.761,4779 224,4776.761 224,4774 C224,4772.37 223.208,4770.935 222,4770.023 L222,4770.023 Z" id="thermometer_c-[#743]"></path>
            </g>
        </g>
    </g>
</svg>