<?xml version="1.0" encoding="UTF-8" standalone="no"?>
<svg width="18px" height="20px" viewBox="0 0 18 20" version="1.1" xmlns="http://www.w3.org/2000/svg" xmlns:xlink="http://www.w3.org/1999/xlink">
    <!-- Generator: Sketch 3.8.1 (29687) - http://www.bohemiancoding.com/sketch -->
    <title>thermometer_minus [#754]</title>
    <desc>Created with Sketch.</desc>
    <defs></defs>
    <g id="Page-1" stroke="none" stroke-width="1" fill="none" fill-rule="evenodd">
        <g id="Dribbble-Dark-Preview" transform="translate(-221.000000, -4879.000000)" fill="#FFFFFF">
            <g id="icons" transform="translate(56.000000, 160.000000)">
                <path d="M171,4724 C171,4724.552 170.552,4725 170,4725 L166,4725 C165.448,4725 165,4724.552 165,4724 C165,4723.448 165.448,4723 166,4723 L170,4723 C170.552,4723 171,4723.448 171,4724 L171,4724 Z M178,4737 C176.346,4737 175,4735.654 175,4734 C175,4732.698 175.839,4731.599 177,4731.184 L177,4729.101 L177,4729 L179,4729 L179,4729.101 L179,4731.184 C180.161,4731.599 181,4732.698 181,4734 C181,4735.654 179.654,4737 178,4737 L178,4737 Z M177,4727 L179,4727 L179,4725 L177,4725 L177,4727 Z M177,4722 C177,4721.448 177.448,4721 178,4721 C178.552,4721 179,4721.448 179,4722 L179,4723 L177,4723 L177,4722 Z M181,4730.023 L181,4721 C181,4719.895 180.105,4719 179,4719 L177,4719 C175.895,4719 175,4719.895 175,4721 L175,4730.023 C173.566,4731.106 172.718,4732.925 173.086,4734.935 C173.443,4736.885 174.988,4738.486 176.929,4738.889 C180.158,4739.559 183,4737.111 183,4734 C183,4732.37 182.208,4730.935 181,4730.023 L181,4730.023 Z" id="thermometer_minus-[#754]"></path>
            </g>
        </g>
    </g>
</svg>