<?xml version="1.0" encoding="UTF-8" standalone="no"?>
<svg width="20px" height="20px" viewBox="0 0 20 20" version="1.1" xmlns="http://www.w3.org/2000/svg" xmlns:xlink="http://www.w3.org/1999/xlink">
    <!-- Generator: Sketch 3.8.1 (29687) - http://www.bohemiancoding.com/sketch -->
    <title>thermometer_sun [#750]</title>
    <desc>Created with Sketch.</desc>
    <defs></defs>
    <g id="Page-1" stroke="none" stroke-width="1" fill="none" fill-rule="evenodd">
        <g id="Dribbble-Dark-Preview" transform="translate(-380.000000, -4879.000000)" fill="#FFFFFF">
            <g id="icons" transform="translate(56.000000, 160.000000)">
                <path d="M328,4728 C328,4728.552 327.552,4729 327,4729 C326.448,4729 326,4728.552 326,4728 C326,4727.448 326.448,4727 327,4727 C327.552,4727 328,4727.448 328,4728 L328,4728 Z M332.594,4726.594 C332.594,4727.146 332.146,4727.594 331.594,4727.594 C331.041,4727.594 330.594,4727.146 330.594,4726.594 C330.594,4726.041 331.041,4725.594 331.594,4725.594 C332.146,4725.594 332.594,4726.041 332.594,4726.594 L332.594,4726.594 Z M334,4722 C334,4722.552 333.552,4723 333,4723 C332.448,4723 332,4722.552 332,4722 C332,4721.448 332.448,4721 333,4721 C333.552,4721 334,4721.448 334,4722 L334,4722 Z M339,4737 C337.346,4737 336,4735.654 336,4734 C336,4732.698 336.839,4731.599 338,4731.184 L338,4729.101 L338,4729 L340,4729 L340,4729.101 L340,4731.184 C341.161,4731.599 342,4732.698 342,4734 C342,4735.654 340.654,4737 339,4737 L339,4737 Z M338,4727 L340,4727 L340,4725 L338,4725 L338,4727 Z M339,4721 L339,4721 C339.552,4721 340,4721.448 340,4722 L340,4723 L338,4723 L338,4722 C338,4721.448 338.448,4721 339,4721 L339,4721 Z M342,4730.023 L342,4721 C342,4719.895 341.105,4719 340,4719 L338,4719 C336.895,4719 336,4719.895 336,4721 L336,4730.023 C334.566,4731.106 333.718,4732.925 334.086,4734.935 C334.443,4736.885 335.988,4738.486 337.929,4738.889 C341.158,4739.559 344,4737.111 344,4734 C344,4732.37 343.208,4730.935 342,4730.023 L342,4730.023 Z M327,4723 C326.449,4723 326,4722.551 326,4722 C326,4721.449 326.449,4721 327,4721 C327.551,4721 328,4721.449 328,4722 C328,4722.551 327.551,4723 327,4723 L327,4723 Z M327,4719 C325.343,4719 324,4720.343 324,4722 C324,4723.657 325.343,4725 327,4725 C328.657,4725 330,4723.657 330,4722 C330,4720.343 328.657,4719 327,4719 L327,4719 Z" id="thermometer_sun-[#750]"></path>
            </g>
        </g>
    </g>
</svg>