<?xml version="1.0" encoding="UTF-8" standalone="no"?>
<svg width="18px" height="20px" viewBox="0 0 18 20" version="1.1" xmlns="http://www.w3.org/2000/svg" xmlns:xlink="http://www.w3.org/1999/xlink">
    <!-- Generator: Sketch 3.8.1 (29687) - http://www.bohemiancoding.com/sketch -->
    <title>thermometer_close [#755]</title>
    <desc>Created with Sketch.</desc>
    <defs></defs>
    <g id="Page-1" stroke="none" stroke-width="1" fill="none" fill-rule="evenodd">
        <g id="Dribbble-Dark-Preview" transform="translate(-181.000000, -4879.000000)" fill="#FFFFFF">
            <g id="icons" transform="translate(56.000000, 160.000000)">
                <path d="M130.677186,4722.586 L129.25814,4724 L130.677186,4725.414 L129.25814,4726.829 L127.839095,4725.414 L126.419045,4726.829 L125,4725.414 L126.419045,4724 L125,4722.586 L126.419045,4721.172 L127.839095,4722.586 L129.25814,4721.172 L130.677186,4722.586 Z M137.874777,4737 C136.213872,4737 134.949376,4735.654 134.949376,4734 C134.949376,4732.698 136.039251,4731.599 137.042819,4731.185 L137.042819,4729.101 L137.042819,4729 L139.049955,4729 L139.049955,4729.101 L139.049955,4731.185 C140.053524,4731.599 140.970785,4732.698 140.970785,4734 C140.970785,4735.654 139.534679,4737 137.874777,4737 L137.874777,4737 Z M136.871209,4727 L138.878345,4727 L138.878345,4725 L136.871209,4725 L136.871209,4727 Z M136.871209,4723 L138.878345,4723 L138.878345,4721 L136.871209,4721 L136.871209,4723 Z M141.057092,4730.023 L141.057092,4719 L135.035682,4719 L135.035682,4730.023 C134.032114,4730.936 132.942239,4732.37 132.942239,4734 C132.942239,4736.762 135.146075,4739 137.916927,4739 C140.688782,4739 143,4736.762 143,4734 C143,4732.37 142.06066,4730.936 141.057092,4730.023 L141.057092,4730.023 Z" id="thermometer_close-[#755]"></path>
            </g>
        </g>
    </g>
</svg>