<?xml version="1.0" encoding="UTF-8" standalone="no"?>
<svg width="20px" height="20px" viewBox="0 0 20 20" version="1.1" xmlns="http://www.w3.org/2000/svg" xmlns:xlink="http://www.w3.org/1999/xlink">
    <!-- Generator: Sketch 3.8.1 (29687) - http://www.bohemiancoding.com/sketch -->
    <title>thermometer_f [#746]</title>
    <desc>Created with Sketch.</desc>
    <defs></defs>
    <g id="Page-1" stroke="none" stroke-width="1" fill="none" fill-rule="evenodd">
        <g id="Dribbble-Dark-Preview" transform="translate(-140.000000, -4919.000000)" fill="#FFFFFF">
            <g id="icons" transform="translate(56.000000, 160.000000)">
                <path d="M94,4764 L94,4764 C94,4764.552 93.552,4765 93,4765 L90,4765 L90,4766 C90,4766.552 89.552,4767 89,4767 C88.448,4767 88,4766.552 88,4766 L88,4765 L88,4763 L88,4761 C88,4759.895 88.895,4759 90,4759 L93,4759 C93.552,4759 94,4759.448 94,4760 C94,4760.552 93.552,4761 93,4761 L91,4761 C90.448,4761 90,4761.448 90,4762 L90,4763 L93,4763 C93.552,4763 94,4763.448 94,4764 L94,4764 Z M84,4760 L84,4760 C84,4759.448 84.448,4759 85,4759 C85.552,4759 86,4759.448 86,4760 C86,4760.552 85.552,4761 85,4761 C84.448,4761 84,4760.552 84,4760 L84,4760 Z M99,4777 C97.346,4777 96,4775.654 96,4774 C96,4772.698 96.839,4771.599 98,4771.184 L98,4769.101 L98,4769 L100,4769 L100,4769.101 L100,4771.184 C101.161,4771.599 102,4772.698 102,4774 C102,4775.654 100.654,4777 99,4777 L99,4777 Z M100,4762 L100,4763 L98,4763 L98,4762 C98,4761.448 98.448,4761 99,4761 C99.552,4761 100,4761.448 100,4762 L100,4762 Z M98,4767 L100,4767 L100,4765 L98,4765 L98,4767 Z M102,4770.023 L102,4761 C102,4759.895 101.105,4759 100,4759 L98,4759 C96.895,4759 96,4759.895 96,4761 L96,4770.023 C94.566,4771.106 93.718,4772.925 94.086,4774.935 C94.443,4776.885 95.988,4778.486 97.929,4778.889 C101.158,4779.559 104,4777.111 104,4774 C104,4772.37 103.208,4770.935 102,4770.023 L102,4770.023 Z" id="thermometer_f-[#746]"></path>
            </g>
        </g>
    </g>
</svg>