<?xml version="1.0" encoding="UTF-8" standalone="no"?>
<svg width="20px" height="20px" viewBox="0 0 20 20" version="1.1" xmlns="http://www.w3.org/2000/svg" xmlns:xlink="http://www.w3.org/1999/xlink">
    <!-- Generator: Sketch 3.8.1 (29687) - http://www.bohemiancoding.com/sketch -->
    <title>thermometer_sun [#747]</title>
    <desc>Created with Sketch.</desc>
    <defs></defs>
    <g id="Page-1" stroke="none" stroke-width="1" fill="none" fill-rule="evenodd">
        <g id="Dribbble-Dark-Preview" transform="translate(-100.000000, -4919.000000)" fill="#FFFFFF">
            <g id="icons" transform="translate(56.000000, 160.000000)">
                <path d="M48,4768 C48,4768.552 47.552,4769 47,4769 C46.448,4769 46,4768.552 46,4768 C46,4767.448 46.448,4767 47,4767 C47.552,4767 48,4767.448 48,4768 L48,4768 Z M52.594,4766.594 C52.594,4767.146 52.146,4767.594 51.594,4767.594 C51.041,4767.594 50.594,4767.146 50.594,4766.594 C50.594,4766.041 51.041,4765.594 51.594,4765.594 C52.146,4765.594 52.594,4766.041 52.594,4766.594 L52.594,4766.594 Z M54,4762 C54,4762.552 53.552,4763 53,4763 C52.448,4763 52,4762.552 52,4762 C52,4761.448 52.448,4761 53,4761 C53.552,4761 54,4761.448 54,4762 L54,4762 Z M59,4777 C57.346,4777 56,4775.654 56,4774 C56,4772.698 56.839,4771.599 58,4771.184 L58,4769.101 L58,4769 L60,4769 L60,4769.101 L60,4771.184 C61.161,4771.599 62,4772.698 62,4774 C62,4775.654 60.654,4777 59,4777 L59,4777 Z M58,4767 L60,4767 L60,4765 L58,4765 L58,4767 Z M58,4763 L60,4763 L60,4761 L58,4761 L58,4763 Z M62,4770.023 L62,4759 L56,4759 L56,4770.023 C54.792,4770.935 54,4772.37 54,4774 C54,4776.761 56.239,4779 59,4779 C61.761,4779 64,4776.761 64,4774 C64,4772.37 63.208,4770.935 62,4770.023 L62,4770.023 Z M47,4763 C46.449,4763 46,4762.551 46,4762 C46,4761.449 46.449,4761 47,4761 C47.551,4761 48,4761.449 48,4762 C48,4762.551 47.551,4763 47,4763 L47,4763 Z M47,4759 C45.343,4759 44,4760.343 44,4762 C44,4763.657 45.343,4765 47,4765 C48.657,4765 50,4763.657 50,4762 C50,4760.343 48.657,4759 47,4759 L47,4759 Z" id="thermometer_sun-[#747]"></path>
            </g>
        </g>
    </g>
</svg>