<?xml version="1.0" encoding="UTF-8" standalone="no"?>
<svg width="10px" height="20px" viewBox="0 0 10 20" version="1.1" xmlns="http://www.w3.org/2000/svg" xmlns:xlink="http://www.w3.org/1999/xlink">
    <!-- Generator: Sketch 3.8.1 (29687) - http://www.bohemiancoding.com/sketch -->
    <title>tie_round [#766]</title>
    <desc>Created with Sketch.</desc>
    <defs></defs>
    <g id="Page-1" stroke="none" stroke-width="1" fill="none" fill-rule="evenodd">
        <g id="Dribbble-Dark-Preview" transform="translate(-145.000000, -4839.000000)" fill="#FFFFFF">
            <g id="icons" transform="translate(56.000000, 160.000000)">
                <path d="M95.5687681,4686.96604 L92.4312319,4686.96604 C91.4919694,4686.96604 90.666302,4687.60034 90.4086096,4688.4547 L89.0812309,4692.87585 C88.8708697,4693.57189 89.0759718,4694.33165 89.6165999,4694.84247 L92.5122209,4698.41524 C93.3336811,4699.19293 94.6663189,4699.19591 95.4877791,4698.41823 L98.3834001,4694.85243 C98.9240282,4694.34061 99.1291303,4693.59379 98.9187691,4692.89776 L97.5913904,4688.4547 C97.333698,4687.59934 96.5080306,4686.96604 95.5687681,4686.96604 M97.4483448,4683.35444 L97.7985961,4681.34102 C98.0131645,4680.1272 97.0244672,4679 95.7244354,4679 L92.2766164,4679 C90.9765846,4679 89.9878873,4680.1491 90.2014039,4681.36293 L90.5516552,4683.33253 C90.7209959,4684.29344 91.5982018,4684.97453 92.6268677,4684.97453 L95.3731323,4684.97453 C96.4017982,4684.97453 97.2790041,4684.31534 97.4483448,4683.35444" id="tie_round-[#766]"></path>
            </g>
        </g>
    </g>
</svg>