<?xml version="1.0" encoding="UTF-8" standalone="no"?>
<svg width="9px" height="20px" viewBox="0 0 9 20" version="1.1" xmlns="http://www.w3.org/2000/svg" xmlns:xlink="http://www.w3.org/1999/xlink">
    <!-- Generator: Sketch 3.8.1 (29687) - http://www.bohemiancoding.com/sketch -->
    <title>tie_round [#764]</title>
    <desc>Created with Sketch.</desc>
    <defs></defs>
    <g id="Page-1" stroke="none" stroke-width="1" fill="none" fill-rule="evenodd">
        <g id="Dribbble-Dark-Preview" transform="translate(-225.000000, -4839.000000)" fill="#FFFFFF">
            <g id="icons" transform="translate(56.000000, 160.000000)">
                <path d="M172.830665,4696.28586 L171.287666,4694.65654 C171.044383,4694.39964 170.951614,4694.0238 171.046276,4693.67494 L171.891613,4689.63561 C172.008048,4689.20579 172.380071,4688.99587 172.802266,4688.99587 L174.197592,4688.99587 C174.620734,4688.99587 174.991811,4689.20579 175.108246,4689.63561 L175.953582,4693.71792 C176.048245,4694.06678 175.955476,4694.42063 175.71314,4694.67753 L174.169193,4696.29686 C173.80001,4696.6867 173.200796,4696.6767 172.830665,4696.28586 M174.912294,4686.9967 L172.088511,4686.9967 C171.243174,4686.9967 170.500073,4687.50249 170.26815,4688.36114 L169.072562,4693.73392 C168.884184,4694.43163 169.068776,4695.16233 169.554395,4695.67512 L172.161401,4698.41698 C172.900715,4699.19766 174.099143,4699.19266 174.838458,4698.41199 L177.445464,4695.65612 C177.932029,4695.14334 178.115675,4694.39065 177.927296,4693.69194 L176.732655,4688.36214 C176.499785,4687.50349 175.756684,4686.9967 174.912294,4686.9967 M174.867803,4682.16369 L174.867803,4682.16369 C174.792073,4682.6455 174.39733,4682.99835 173.93443,4682.99835 L173.065428,4682.99835 C172.603475,4682.99835 172.207786,4682.6455 172.132056,4682.16369 C172.0355,4681.55395 172.48136,4680.99917 173.065428,4680.99917 L173.93443,4680.99917 C174.519445,4680.99917 174.964359,4681.55395 174.867803,4682.16369 M176.603914,4683.32721 L176.91914,4681.32804 C177.111305,4680.10954 176.221477,4679 175.051448,4679 L171.94841,4679 C170.778381,4679 169.888553,4680.10954 170.080718,4681.32804 L170.396891,4683.32721 C170.548351,4684.29082 171.338784,4684.99752 172.263637,4684.99752 L174.736222,4684.99752 C175.662022,4684.99752 176.451507,4684.29082 176.603914,4683.32721" id="tie_round-[#764]"></path>
            </g>
        </g>
    </g>
</svg>