<?xml version="1.0" encoding="UTF-8" standalone="no"?>
<svg width="15px" height="20px" viewBox="0 0 15 20" version="1.1" xmlns="http://www.w3.org/2000/svg" xmlns:xlink="http://www.w3.org/1999/xlink">
    <!-- Generator: Sketch 3.8.1 (29687) - http://www.bohemiancoding.com/sketch -->
    <title>tinder [#130]</title>
    <desc>Created with Sketch.</desc>
    <defs></defs>
    <g id="Page-1" stroke="none" stroke-width="1" fill="none" fill-rule="evenodd">
        <g id="Dribbble-Dark-Preview" transform="translate(-262.000000, -7599.000000)" fill="#FFFFFF">
            <g id="icons" transform="translate(56.000000, 160.000000)">
                <path d="M214.027682,7439 C215.011814,7439.75968 217.216943,7442.15767 218.523173,7444.2368 C219.599474,7445.94908 220.427017,7447.84328 220.794704,7449.84344 C221.330873,7452.74222 220.884891,7455.93388 218.644083,7457.65115 C216.941426,7458.94961 213.88695,7459.16352 211.846338,7458.90263 C208.120907,7458.43482 205.739367,7456.21976 206.022813,7452.63227 C206.245804,7449.71749 208.273532,7446.53983 210.210082,7444.45171 C210.219992,7444.44371 210.240805,7444.42572 210.253689,7444.41772 C210.221975,7446.07802 211.055464,7447.51842 211.296294,7447.5504 C214.547993,7445.08844 215.208045,7442.03472 214.027682,7439" id="tinder-[#130]"></path>
            </g>
        </g>
    </g>
</svg>