<?xml version="1.0" encoding="UTF-8" standalone="no"?>
<svg width="21px" height="20px" viewBox="0 0 21 20" version="1.1" xmlns="http://www.w3.org/2000/svg" xmlns:xlink="http://www.w3.org/1999/xlink">
    <!-- Generator: Sketch 3.8.1 (29687) - http://www.bohemiancoding.com/sketch -->
    <title>touch_id [#1377]</title>
    <desc>Created with Sketch.</desc>
    <defs></defs>
    <g id="Page-1" stroke="none" stroke-width="1" fill="none" fill-rule="evenodd">
        <g id="Dribbble-Dark-Preview" transform="translate(-179.000000, -800.000000)" fill="#FFFFFF">
            <g id="icons" transform="translate(56.000000, 160.000000)">
                <path d="M132.445565,642.020902 L132.445565,640 C128.680982,640.373832 125.142044,643.014772 123.693724,646.029545 L126.030977,646.029545 C127.277791,644.019697 129.651776,642.358557 132.445565,642.020902 L132.445565,642.020902 Z M123,649.833183 C123,649.836197 123.002099,650.049241 123.005248,650.049241 L123,650.049241 L123,653.009748 C123,653.564466 123.470179,654.014672 124.049507,654.014672 C124.628835,654.014672 125.099014,653.564466 125.099014,653.009748 L125.099014,650.049241 L125.093767,650.049241 C125.093767,649.488494 125.163034,649.044317 125.281629,648.039393 L123.141683,648.039393 C123.056673,649.044317 123,649.27746 123,649.833183 L123,649.833183 Z M140.135304,642.214853 C138.580984,640.996885 136.654088,640.200985 134.544579,640 L134.544579,642.025927 C136.072661,642.211838 137.474803,642.78766 138.635558,643.651894 L140.135304,642.214853 Z M131.224988,646.675711 C132.185287,646.043614 133.126695,645.888855 134.131073,646.036579 L135.046243,644.157371 C133.085764,643.681037 131.248077,644.121194 129.740985,645.254748 L131.224988,646.675711 Z M127.198029,650.049241 L129.297043,650.049241 C129.297043,649.044317 129.498548,648.769973 129.823896,648.202191 L128.305259,646.762134 C127.607337,647.74294 127.198029,649.044317 127.198029,650.049241 L127.198029,650.049241 Z M129.297043,652.05909 L127.198029,652.05909 C127.198029,655.771279 130.34655,659.454326 134.544579,659.99598 L134.544579,657.963019 C131.396057,657.442468 129.297043,654.76535 129.297043,652.05909 L129.297043,652.05909 Z M143.990144,652.004824 C143.990144,649.789971 144.287154,646.758115 141.620356,643.63682 L140.119561,645.072857 C142.125169,647.542961 141.891129,649.759823 141.891129,652.004824 C141.891129,652.64697 141.784079,653.264998 141.589921,653.84685 L143.203013,655.391418 C143.703628,654.359361 143.990144,653.214752 143.990144,652.004824 L143.990144,652.004824 Z M136.643593,657.969048 L136.643593,660 C138.742608,659.73671 140.730374,658.682544 142.05905,657.140991 L140.560354,655.707969 C139.612649,656.880716 138.742608,657.709778 136.643593,657.969048 L136.643593,657.969048 Z M135.594086,652.004824 L135.594086,652.037986 C135.594086,653.325294 137.6931,653.25093 137.6931,651.963622 C137.6931,650.051251 137.978566,648.27957 136.057968,646.848558 L136.967891,644.994473 C140.16364,647.02241 139.792115,650.049241 139.792115,652.05909 C139.792115,656.078786 133.495072,656.078786 133.495072,652.05909 C132.445565,652.05909 131.396057,651.131545 131.396057,650.022108 C131.396057,648.911667 132.335366,647.985127 133.495072,647.985127 C134.654777,647.985127 135.594086,648.884534 135.594086,649.994975 L135.594086,652.004824 Z" id="touch_id-[#1377]"></path>
            </g>
        </g>
    </g>
</svg>