<?xml version="1.0" encoding="UTF-8" standalone="no"?>
<svg width="18px" height="20px" viewBox="0 0 18 20" version="1.1" xmlns="http://www.w3.org/2000/svg" xmlns:xlink="http://www.w3.org/1999/xlink">
    <!-- Generator: Sketch 3.8.1 (29687) - http://www.bohemiancoding.com/sketch -->
    <title>tower [#89]</title>
    <desc>Created with Sketch.</desc>
    <defs></defs>
    <g id="Page-1" stroke="none" stroke-width="1" fill="none" fill-rule="evenodd">
        <g id="Dribbble-Dark-Preview" transform="translate(-421.000000, -7799.000000)" fill="#FFFFFF">
            <g id="icons" transform="translate(56.000000, 160.000000)">
                <path d="M369,7650 L371,7650 L371,7648 L369,7648 L369,7650 Z M377,7650 L379,7650 L379,7648 L377,7648 L377,7650 Z M373,7650 L375,7650 L375,7648 L373,7648 L373,7650 Z M381,7657 L375,7657 L375,7653 L373,7653 L373,7657 L367,7657 L367,7641 L368,7641 L368,7645 L373,7645 L373,7641 L375,7641 L375,7645 L377.656,7645 L377.773,7645 L380,7645 L380,7641 L381,7641 L381,7657 Z M378,7639 L378,7643 L377,7643 L377,7639 L371,7639 L371,7643 L370,7643 L370,7639 L365,7639 L365,7659 L383,7659 L383,7639 L378,7639 Z" id="tower-[#89]"></path>
            </g>
        </g>
    </g>
</svg>