<?xml version="1.0" encoding="UTF-8" standalone="no"?>
<svg width="16px" height="20px" viewBox="0 0 16 20" version="1.1" xmlns="http://www.w3.org/2000/svg" xmlns:xlink="http://www.w3.org/1999/xlink">
    <!-- Generator: Sketch 3.8.1 (29687) - http://www.bohemiancoding.com/sketch -->
    <title>train [#608]</title>
    <desc>Created with Sketch.</desc>
    <defs></defs>
    <g id="Page-1" stroke="none" stroke-width="1" fill="none" fill-rule="evenodd">
        <g id="Dribbble-Dark-Preview" transform="translate(-62.000000, -5519.000000)" fill="#FFFFFF">
            <g id="icons" transform="translate(56.000000, 160.000000)">
                <path d="M8,5368.95856 L8,5362.09114 C8,5361.54142 8.448,5360.99171 9,5360.99171 L19,5360.99171 C19.552,5360.99171 20,5361.54142 20,5362.09114 L20,5368.95856 L8,5368.95856 Z M17.984,5372.05766 L17.984,5372.04173 C17.984,5371.496 18.429,5371.05384 18.977,5371.05384 L18.992,5371.05384 C19.54,5371.05384 19.984,5371.496 19.984,5372.04173 L19.984,5372.05766 C19.984,5372.60339 19.54,5373.04555 18.992,5373.04555 L18.977,5373.04555 C18.429,5373.04555 17.984,5372.60339 17.984,5372.05766 L17.984,5372.05766 Z M9.008,5373.04555 L8.992,5373.04555 C8.444,5373.04555 8,5372.60339 8,5372.05766 C8,5371.51193 8.444,5371.06977 8.992,5371.06977 L9.008,5371.06977 C9.556,5371.06977 10,5371.51193 10,5372.05766 C10,5372.60339 9.556,5373.04555 9.008,5373.04555 L9.008,5373.04555 Z M8,5359 C6.895,5359 6,5359.99586 6,5361.09528 L6,5369.06213 L6,5373.04555 C6,5374.14597 6.895,5374.93369 8,5374.93369 L10.356,5374.93369 L9.313,5377.53586 C9.068,5378.03678 9,5378.66616 10,5378.90118 L10,5378.91412 C10,5379.14417 10.871,5378.89122 11.11,5378.40325 L12.582,5374.93369 L15.452,5374.93369 L17.459,5378.42217 C17.702,5378.90217 18,5379.12823 19,5378.90118 L19,5378.91412 C19,5378.67711 19.498,5378.01985 19.243,5377.51794 L17.692,5374.93369 L20,5374.93369 C21.105,5374.93369 22,5374.14597 22,5373.04555 L22,5369.06213 L22,5361.09528 C22,5359.99586 21.105,5359 20,5359 L8,5359 Z" id="train-[#608]"></path>
            </g>
        </g>
    </g>
</svg>