<?xml version="1.0" encoding="UTF-8" standalone="no"?>
<svg width="20px" height="20px" viewBox="0 0 20 20" version="1.1" xmlns="http://www.w3.org/2000/svg" xmlns:xlink="http://www.w3.org/1999/xlink">
    <!-- Generator: Sketch 3.8.1 (29687) - http://www.bohemiancoding.com/sketch -->
    <title>trillo [#183]</title>
    <desc>Created with Sketch.</desc>
    <defs></defs>
    <g id="Page-1" stroke="none" stroke-width="1" fill="none" fill-rule="evenodd">
        <g id="Dribbble-Dark-Preview" transform="translate(-100.000000, -7399.000000)" fill="#FFFFFF">
            <g id="icons" transform="translate(56.000000, 160.000000)">
                <path d="M61,7250.063 C61,7250.581 60.58,7251 60.063,7251 L55.938,7251 C55.42,7251 55,7250.581 55,7250.063 L55,7242.938 C55,7242.42 55.42,7242 55.938,7242 L60.063,7242 C60.58,7242 61,7242.42 61,7242.938 L61,7250.063 Z M53,7255.063 C53,7255.581 52.58,7256 52.062,7256 L47.937,7256 C47.42,7256 47,7255.581 47,7255.063 L47,7242.938 C47,7242.42 47.42,7242 47.937,7242 L52.062,7242 C52.58,7242 53,7242.42 53,7242.938 L53,7255.063 Z M62.047,7239 L45.953,7239 C44.874,7239 44,7239.875 44,7240.954 L44,7257.047 C44,7258.126 44.874,7259.001 45.953,7259.001 L62.047,7259.001 C63.126,7259.001 64,7258.126 64,7257.047 L64,7240.954 C64,7239.875 63.126,7239 62.047,7239 L62.047,7239 Z" id="trillo-[#183]"></path>
            </g>
        </g>
    </g>
</svg>