<?xml version="1.0" encoding="UTF-8" standalone="no"?>
<svg width="20px" height="20px" viewBox="0 0 20 20" version="1.1" xmlns="http://www.w3.org/2000/svg" xmlns:xlink="http://www.w3.org/1999/xlink">
    <!-- Generator: Sketch 3.8.1 (29687) - http://www.bohemiancoding.com/sketch -->
    <title>truck [#652]</title>
    <desc>Created with Sketch.</desc>
    <defs></defs>
    <g id="Page-1" stroke="none" stroke-width="1" fill="none" fill-rule="evenodd">
        <g id="Dribbble-Dark-Preview" transform="translate(-300.000000, -5319.000000)" fill="#FFFFFF">
            <g id="icons" transform="translate(56.000000, 160.000000)">
                <path d="M258,5170 L262,5170 L262,5166 L258,5166 L258,5170 Z M262,5174 L261.388,5174 C260.839,5173.39 259.968,5173 259.083,5173 C258.731,5173 258,5173.072 258,5173.184 L258,5172 L262,5172 L262,5174 Z M259.167,5177 C258.615,5177 258.167,5176.551 258.167,5176 C258.167,5175.449 258.615,5175 259.167,5175 C259.718,5175 260.167,5175.449 260.167,5176 C260.167,5176.551 259.718,5177 259.167,5177 L259.167,5177 Z M256,5174 L253.65,5174 C253.204,5172.278 251.57,5171 249.708,5171 C248.097,5171 247,5171.958 246,5173.331 L246,5161 L256,5161 L256,5174 Z M251.513,5176 C251.167,5176.595 250.529,5177 249.792,5177 C249.055,5177 248.417,5176.595 248.07,5176 C247.898,5175.705 247.792,5175.366 247.792,5175 C247.792,5174.634 247.898,5174.295 248.07,5174 C248.417,5173.405 249.055,5173 249.792,5173 C250.529,5173 251.166,5173.405 251.513,5174 C251.686,5174.295 251.792,5174.634 251.792,5175 C251.792,5175.366 251.686,5175.705 251.513,5176 L251.513,5176 Z M258,5164 L258,5159 L244,5159 L244,5176 L245.933,5176 C246.379,5177.722 247.93,5179 249.792,5179 C251.653,5179 253.204,5177.722 253.65,5176 L256.167,5176 C256.167,5177.657 257.51,5179 259.167,5179 C260.824,5179 262.167,5177.657 262.167,5176 L264,5176 L264,5164 L258,5164 Z" id="truck-[#652]"></path>
            </g>
        </g>
    </g>
</svg>