<?xml version="1.0" encoding="UTF-8" standalone="no"?>
<svg width="20px" height="20px" viewBox="0 0 20 20" version="1.1" xmlns="http://www.w3.org/2000/svg" xmlns:xlink="http://www.w3.org/1999/xlink">
    <!-- Generator: Sketch 3.8.1 (29687) - http://www.bohemiancoding.com/sketch -->
    <title>truck_round [#653]</title>
    <desc>Created with Sketch.</desc>
    <defs></defs>
    <g id="Page-1" stroke="none" stroke-width="1" fill="none" fill-rule="evenodd">
        <g id="Dribbble-Dark-Preview" transform="translate(-260.000000, -5319.000000)" fill="#FFFFFF">
            <g id="icons" transform="translate(56.000000, 160.000000)">
                <path d="M222,5170 L218,5170 L218,5166 L221,5166 C221.552,5166 222,5166.448 222,5167 L222,5170 Z M222,5174 L221.221,5174 C220.672,5173.39 219.885,5173 219,5173 C218.647,5173 218.314,5173.072 218,5173.184 L218,5172 L222,5172 L222,5174 Z M219,5177 C218.449,5177 218,5176.551 218,5176 C218,5175.449 218.449,5175 219,5175 C219.551,5175 220,5175.449 220,5176 C220,5176.551 219.551,5177 219,5177 L219,5177 Z M216,5164 L216,5174 L213.484,5174 C213.038,5172.278 211.487,5171 209.625,5171 C208.538,5171 207.556,5171.436 206.838,5172.142 C206.526,5172.448 206,5172.216 206,5171.779 L206,5162 C206,5161.448 206.448,5161 207,5161 L215,5161 C215.552,5161 216,5161.448 216,5162 L216,5164 Z M211.347,5176 C211,5176.595 210.362,5177 209.625,5177 C208.888,5177 208.25,5176.595 207.903,5176 C207.731,5175.705 207.625,5175.366 207.625,5175 C207.625,5174.634 207.731,5174.295 207.903,5174 C208.25,5173.405 208.888,5173 209.625,5173 C210.362,5173 211,5173.405 211.347,5174 C211.519,5174.295 211.625,5174.634 211.625,5175 C211.625,5175.366 211.519,5175.705 211.347,5176 L211.347,5176 Z M222,5164 L218,5164 L218,5161 C218,5159.895 217.105,5159 216,5159 L206,5159 C204.895,5159 204,5159.895 204,5161 L204,5174.234 C204,5175.209 204.791,5176 205.766,5176 C206.213,5177.722 207.763,5179 209.625,5179 C211.487,5179 213.037,5177.722 213.484,5176 L216,5176 C216,5177.657 217.343,5179 219,5179 C220.657,5179 222,5177.657 222,5176 C223.105,5176 224,5175.105 224,5174 L224,5166 C224,5164.895 223.105,5164 222,5164 L222,5164 Z" id="truck_round-[#653]"></path>
            </g>
        </g>
    </g>
</svg>