<?xml version="1.0" encoding="UTF-8" standalone="no"?>
<svg width="12px" height="20px" viewBox="0 0 12 20" version="1.1" xmlns="http://www.w3.org/2000/svg" xmlns:xlink="http://www.w3.org/1999/xlink">
    <!-- Generator: Sketch 3.8.1 (29687) - http://www.bohemiancoding.com/sketch -->
    <title>tumblr [#181]</title>
    <desc>Created with Sketch.</desc>
    <defs></defs>
    <g id="Page-1" stroke="none" stroke-width="1" fill="none" fill-rule="evenodd">
        <g id="Dribbble-Dark-Preview" transform="translate(-184.000000, -7399.000000)" fill="#FFFFFF">
            <g id="icons" transform="translate(56.000000, 160.000000)">
                <path d="M139.00148,7254.975 L140,7257.827 C139.622944,7258.358 137.91209,7258.973 136.376708,7258.998 C131.82592,7259.073 130.088955,7255.895 130.088955,7253.657 L130.088955,7247 L128,7247 L128,7244.539 C131.169989,7243.445 131.931413,7240.708 132.110018,7239.149 C132.122552,7239.042 132.210288,7239 132.261467,7239 L135.311341,7239 L135.311341,7244 L139.489251,7244 L139.489251,7247 L135.311341,7247 L135.311341,7253.349 C135.311341,7254.195 135.646619,7255.363 137.318827,7255.32 C137.873444,7255.307 138.612934,7255.152 139.00148,7254.975" id="tumblr-[#181]"></path>
            </g>
        </g>
    </g>
</svg>