<?xml version="1.0" encoding="UTF-8" standalone="no"?>
<svg width="19px" height="20px" viewBox="0 0 19 20" version="1.1" xmlns="http://www.w3.org/2000/svg" xmlns:xlink="http://www.w3.org/1999/xlink">
    <!-- Generator: Sketch 3.8.1 (29687) - http://www.bohemiancoding.com/sketch -->
    <title>twitch [#182]</title>
    <desc>Created with Sketch.</desc>
    <defs></defs>
    <g id="Page-1" stroke="none" stroke-width="1" fill="none" fill-rule="evenodd">
        <g id="Dribbble-Dark-Preview" transform="translate(-141.000000, -7399.000000)" fill="#FFFFFF">
            <g id="icons" transform="translate(56.000000, 160.000000)">
                <path d="M97,7249 L99,7249 L99,7244 L97,7244 L97,7249 Z M92,7249 L94,7249 L94,7244 L92,7244 L92,7249 Z M102,7250.307 L102,7241 L88,7241 L88,7253 L92,7253 L92,7255.953 L94.56,7253 L99.34,7253 L102,7250.307 Z M98.907,7256 L94.993,7256 L92.387,7259 L90,7259 L90,7256 L85,7256 L85,7242.48 L86.3,7239 L104,7239 L104,7251.173 L98.907,7256 Z" id="twitch-[#182]"></path>
            </g>
        </g>
    </g>
</svg>