<?xml version="1.0" encoding="UTF-8" standalone="no"?>
<svg width="20px" height="20px" viewBox="0 0 20 20" version="1.1" xmlns="http://www.w3.org/2000/svg" xmlns:xlink="http://www.w3.org/1999/xlink">
    <!-- Generator: Sketch 3.8.1 (29687) - http://www.bohemiancoding.com/sketch -->
    <title>umbrella [#772]</title>
    <desc>Created with Sketch.</desc>
    <defs></defs>
    <g id="Page-1" stroke="none" stroke-width="1" fill="none" fill-rule="evenodd">
        <g id="Dribbble-Dark-Preview" transform="translate(-300.000000, -4799.000000)" fill="#FFFFFF">
            <g id="icons" transform="translate(56.000000, 160.000000)">
                <path d="M258.291212,4651.06532 C259.248298,4649.2394 260.094258,4646.57901 260.188364,4644.09006 C262.161603,4646.58108 262.482968,4650.24427 261.133437,4653.04305 L258.291212,4651.06532 Z M255.380911,4649.04008 L253.721028,4647.88545 L252.470609,4647.01484 C253.773087,4645.43058 255.9005,4643.73479 258.18309,4642.89619 C258.28921,4645.39547 257.563387,4648.06722 256.629327,4649.90966 L255.380911,4649.04008 Z M250.809725,4645.86021 L247.968502,4643.88351 C250.067884,4641.40489 253.382644,4640.48057 256.35902,4641.42864 C254.160526,4642.45314 252.271383,4643.98162 250.809725,4645.86021 L250.809725,4645.86021 Z M260.016169,4641.08783 C259.951095,4641.03723 259.888024,4640.98559 259.821949,4640.93705 C259.742859,4640.87818 259.670777,4640.81312 259.588684,4640.75735 C259.512598,4640.70365 259.431506,4640.66131 259.354418,4640.6107 C259.27633,4640.56009 259.198241,4640.51259 259.119152,4640.46508 C254.588011,4637.66837 248.679308,4638.97378 245.690918,4643.54373 C245.501704,4643.83291 245.330509,4644.12931 245.174332,4644.42984 L246.849232,4645.59583 L249.669432,4647.55807 L251.329315,4648.71269 L252.621781,4649.61222 L248.440037,4656.13306 L246.780154,4654.97844 L247.899424,4653.26612 L246.239541,4652.11047 L245.120271,4653.82278 L244,4655.53509 L245.63986,4656.67629 L248.98065,4659 L249.540285,4658.14384 L250.09992,4657.28769 L254.281664,4650.76685 L255.533083,4651.6385 L257.193968,4652.79312 L260.013166,4654.75536 L261.688066,4655.92031 C261.716098,4655.9389 262.101535,4655.38328 262.290749,4655.09411 C265.282143,4650.51899 264.236957,4644.37097 260.016169,4641.08783 L260.016169,4641.08783 Z" id="umbrella-[#772]"></path>
            </g>
        </g>
    </g>
</svg>