<?xml version="1.0" encoding="UTF-8" standalone="no"?>
<svg width="20px" height="20px" viewBox="0 0 20 20" version="1.1" xmlns="http://www.w3.org/2000/svg" xmlns:xlink="http://www.w3.org/1999/xlink">
    <!-- Generator: Sketch 3.8.1 (29687) - http://www.bohemiancoding.com/sketch -->
    <title>umbrella_round [#771]</title>
    <desc>Created with Sketch.</desc>
    <defs></defs>
    <g id="Page-1" stroke="none" stroke-width="1" fill="none" fill-rule="evenodd">
        <g id="Dribbble-Dark-Preview" transform="translate(-340.000000, -4799.000000)" fill="#FFFFFF">
            <g id="icons" transform="translate(56.000000, 160.000000)">
                <path d="M298.506,4648 C298.31,4646 297.57,4643.392 296.3,4641.341 C299.283,4642.239 301.533,4645 301.93,4648 L298.506,4648 Z M295,4648 L293,4648 L291.493,4648 C291.714,4646 292.558,4643.45 293.994,4641.503 C295.434,4643.449 296.28,4646 296.504,4648 L295,4648 Z M289.492,4648 L286.069,4648 C286.466,4645 288.71,4642.244 291.688,4641.344 C290.422,4643.394 289.686,4646 289.492,4648 L289.492,4648 Z M294.532,4639.027 C294.451,4639.023 294.371,4639.017 294.29,4639.015 C294.192,4639.012 294.097,4639 294,4639 C293.907,4639 293.818,4639.011 293.726,4639.014 C293.634,4639.016 293.543,4639.023 293.452,4639.028 C288.186,4639.314 284,4643.662 284,4649 C284,4649.338 284.018,4650 284.051,4650 L286.069,4650 L289.467,4650 L291.467,4650 L293,4650 L293,4656 C293,4656.552 292.552,4657 292,4657 C291.447,4657 291,4656.552 291,4656 L291,4655 C291,4654.448 290.552,4654 290,4654 C289.447,4654 289,4654.448 289,4655 L289,4657 C289,4658.105 289.895,4659 291,4659 L293,4659 C294.104,4659 295,4658.105 295,4657 L295,4650 L296.532,4650 L298.532,4650 L301.93,4650 L303.948,4650 C303.981,4650 304,4649.338 304,4649 C304,4643.657 299.806,4639.305 294.532,4639.027 L294.532,4639.027 Z" id="umbrella_round-[#771]"></path>
            </g>
        </g>
    </g>
</svg>