<?xml version="1.0" encoding="UTF-8" standalone="no"?>
<svg width="20px" height="20px" viewBox="0 0 20 20" version="1.1" xmlns="http://www.w3.org/2000/svg" xmlns:xlink="http://www.w3.org/1999/xlink">
    <!-- Generator: Sketch 3.8.1 (29687) - http://www.bohemiancoding.com/sketch -->
    <title>umbrella [#770]</title>
    <desc>Created with Sketch.</desc>
    <defs></defs>
    <g id="Page-1" stroke="none" stroke-width="1" fill="none" fill-rule="evenodd">
        <g id="Dribbble-Dark-Preview" transform="translate(-380.000000, -4799.000000)" fill="#FFFFFF">
            <g id="icons" transform="translate(56.000000, 160.000000)">
                <path d="M338.506,4648 C338.31,4646 337.57,4643.392 336.3,4641.341 C339.283,4642.239 341.533,4645 341.93,4648 L338.506,4648 Z M335,4648 L333,4648 L331.493,4648 C331.714,4646 332.558,4643.45 333.994,4641.503 C335.434,4643.449 336.28,4646 336.504,4648 L335,4648 Z M329.492,4648 L326.069,4648 C326.466,4644.838 328.71,4642.244 331.688,4641.344 C330.422,4643.394 329.686,4645.676 329.492,4648 L329.492,4648 Z M334.532,4639.027 C334.451,4639.023 334.371,4639.017 334.29,4639.015 C334.192,4639.012 334.097,4639 334,4639 C333.907,4639 333.818,4639.011 333.726,4639.014 C333.634,4639.016 333.543,4639.023 333.452,4639.028 C328.186,4639.314 324,4643.662 324,4649 C324,4649.338 324.018,4649.671 324.051,4650 L326.069,4650 L329.467,4650 L331.467,4650 L333,4650 L333,4657 L331,4657 L331,4655 L329,4655 L329,4657 L329,4659 L331,4659 L335,4659 L335,4658 L335,4657 L335,4650 L336.532,4650 L338.532,4650 L341.93,4650 L343.948,4650 C343.981,4650 344,4649.338 344,4649 C344,4643.657 339.806,4639.305 334.532,4639.027 L334.532,4639.027 Z" id="umbrella-[#770]"></path>
            </g>
        </g>
    </g>
</svg>