<?xml version="1.0" encoding="UTF-8" standalone="no"?>
<svg width="20px" height="20px" viewBox="0 0 20 20" version="1.1" xmlns="http://www.w3.org/2000/svg" xmlns:xlink="http://www.w3.org/1999/xlink">
    <!-- Generator: Sketch 3.8.1 (29687) - http://www.bohemiancoding.com/sketch -->
    <title>umbrella_round [#773]</title>
    <desc>Created with Sketch.</desc>
    <defs></defs>
    <g id="Page-1" stroke="none" stroke-width="1" fill="none" fill-rule="evenodd">
        <g id="Dribbble-Dark-Preview" transform="translate(-260.000000, -4799.000000)" fill="#FFFFFF">
            <g id="icons" transform="translate(56.000000, 160.000000)">
                <path d="M221.308665,4652.48039 L218.386379,4650.67497 C219.253387,4648.83088 219.970739,4646.16956 219.946794,4643.71485 C222.029009,4646.06983 222.520879,4649.6593 221.308665,4652.48039 M216.678304,4649.61859 L215.394254,4648.82579 L213.688174,4647.77042 L212.402129,4646.97661 C213.625318,4645.35234 215.662637,4643.57745 217.895507,4642.64014 C218.117996,4645.09384 217.521367,4647.76025 216.678304,4649.61859 M210.695051,4645.92124 L207.773763,4644.11582 C209.747229,4641.57256 213.003747,4640.49888 216.00984,4641.28557 C213.869757,4642.40302 212.061911,4644.00082 210.695051,4645.92124 M219.634511,4640.76857 C219.567665,4640.72278 219.501816,4640.67494 219.433972,4640.63016 C219.35216,4640.57623 219.277332,4640.51618 219.194522,4640.46428 C219.115703,4640.41543 219.032894,4640.37879 218.954075,4640.33197 C218.874258,4640.28618 218.793444,4640.24343 218.712629,4640.19967 C214.071294,4637.67168 208.250668,4639.24913 205.491008,4643.89498 C205.316409,4644.1891 205.159769,4644.48932 205.018095,4644.7926 L206.740138,4645.85713 L209.640474,4647.64932 L211.346554,4648.70367 L212.654549,4649.51173 L208.219739,4656.09428 C207.934394,4656.57464 207.320804,4656.72832 206.848888,4656.43725 C206.37797,4656.14619 206.227317,4655.52029 206.512661,4655.03892 L207.029473,4654.16877 C207.314818,4653.68841 207.165162,4653.06252 206.693246,4652.77146 C206.222328,4652.47937 205.608738,4652.63305 205.323393,4653.11442 L204.288771,4654.85471 C203.718082,4655.81645 204.01939,4657.06823 204.962223,4657.65036 L206.668303,4658.70471 C207.611137,4659.28786 208.838317,4658.98051 209.409006,4658.01877 L214.360629,4650.56608 L215.668624,4651.37516 L217.375701,4652.4295 L220.275039,4654.22169 L221.997083,4655.2852 C222.025019,4655.3025 222.383196,4654.73564 222.557794,4654.44254 C225.319449,4649.7916 223.990503,4643.79219 219.634511,4640.76857" id="umbrella_round-[#773]"></path>
            </g>
        </g>
    </g>
</svg>