<?xml version="1.0" encoding="UTF-8" standalone="no"?>
<svg width="12px" height="20px" viewBox="0 0 12 20" version="1.1" xmlns="http://www.w3.org/2000/svg" xmlns:xlink="http://www.w3.org/1999/xlink">
    <!-- Generator: Sketch 3.8.1 (29687) - http://www.bohemiancoding.com/sketch -->
    <title>usb [#197]</title>
    <desc>Created with Sketch.</desc>
    <defs></defs>
    <g id="Page-1" stroke="none" stroke-width="1" fill="none" fill-rule="evenodd">
        <g id="Dribbble-Dark-Preview" transform="translate(-304.000000, -7279.000000)" fill="#FFFFFF">
            <g id="icons" transform="translate(56.000000, 160.000000)">
                <path d="M255,7135 C255,7135.552 254.552,7136 254,7136 C253.448,7136 253,7135.552 253,7135 L253,7134 L255,7134 L255,7135 Z M257,7131 L251,7131 C250.448,7131 250,7130.552 250,7130 L250,7122 C250,7121.448 250.448,7121 251,7121 L257,7121 C257.552,7121 258,7121.448 258,7122 L258,7130 C258,7130.552 257.552,7131 257,7131 L257,7131 Z M255,7137 L253,7137 C252.448,7137 252,7136.552 252,7136 L252,7133 L256,7133 L256,7136 C256,7136.552 255.552,7137 255,7137 L255,7137 Z M248,7121 L248,7131 C248,7132.105 248.895,7133 250,7133 L250,7137 C250,7138.105 250.895,7139 252,7139 L256,7139 C257.105,7139 258,7138.105 258,7137 L258,7133 C259.105,7133 260,7132.105 260,7131 L260,7121 C260,7119.895 259.105,7119 258,7119 L250,7119 C248.895,7119 248,7119.895 248,7121 L248,7121 Z" id="usb-[#197]"></path>
            </g>
        </g>
    </g>
</svg>