<?xml version="1.0" encoding="UTF-8" standalone="no"?>
<svg width="12px" height="20px" viewBox="0 0 12 20" version="1.1" xmlns="http://www.w3.org/2000/svg" xmlns:xlink="http://www.w3.org/1999/xlink">
    <!-- Generator: Sketch 3.8.1 (29687) - http://www.bohemiancoding.com/sketch -->
    <title>usb [#196]</title>
    <desc>Created with Sketch.</desc>
    <defs></defs>
    <g id="Page-1" stroke="none" stroke-width="1" fill="none" fill-rule="evenodd">
        <g id="Dribbble-Dark-Preview" transform="translate(-344.000000, -7279.000000)" fill="#FFFFFF">
            <g id="icons" transform="translate(56.000000, 160.000000)">
                <path d="M295,7124 L295,7128 C295,7128.552 294.552,7129 294,7129 C293.448,7129 293,7128.552 293,7128 L293,7124 C293,7123.448 293.448,7123 294,7123 C294.552,7123 295,7123.448 295,7124 L295,7124 Z M295,7135 C295,7135.552 294.552,7136 294,7136 C293.448,7136 293,7135.552 293,7135 L293,7134 L295,7134 L295,7135 Z M297,7131 L291,7131 C290.448,7131 290,7130.552 290,7130 L290,7122 C290,7121.448 290.448,7121 291,7121 L297,7121 C297.552,7121 298,7121.448 298,7122 L298,7130 C298,7130.552 297.552,7131 297,7131 L297,7131 Z M295,7137 L293,7137 C292.448,7137 292,7136.552 292,7136 L292,7133 L296,7133 L296,7136 C296,7136.552 295.552,7137 295,7137 L295,7137 Z M288,7121 L288,7131 C288,7132.105 288.895,7133 290,7133 L290,7137 C290,7138.105 290.895,7139 292,7139 L296,7139 C297.105,7139 298,7138.105 298,7137 L298,7133 C299.105,7133 300,7132.105 300,7131 L300,7121 C300,7119.895 299.105,7119 298,7119 L290,7119 C288.895,7119 288,7119.895 288,7121 L288,7121 Z" id="usb-[#196]"></path>
            </g>
        </g>
    </g>
</svg>