<?xml version="1.0" encoding="UTF-8" standalone="no"?>
<svg width="12px" height="20px" viewBox="0 0 12 20" version="1.1" xmlns="http://www.w3.org/2000/svg" xmlns:xlink="http://www.w3.org/1999/xlink">
    <!-- Generator: Sketch 3.8.1 (29687) - http://www.bohemiancoding.com/sketch -->
    <title>usb [#195]</title>
    <desc>Created with Sketch.</desc>
    <defs></defs>
    <g id="Page-1" stroke="none" stroke-width="1" fill="none" fill-rule="evenodd">
        <g id="Dribbble-Dark-Preview" transform="translate(-384.000000, -7279.000000)" fill="#FFFFFF">
            <g id="icons" transform="translate(56.000000, 160.000000)">
                <path d="M333,7129 L335,7129 L335,7123 L333,7123 L333,7129 Z M333,7136 L335,7136 L335,7134 L333,7134 L333,7136 Z M330,7131 L338,7131 L338,7121 L330,7121 L330,7131 Z M332,7137 L336,7137 L336,7133 L332,7133 L332,7137 Z M328,7119 L328,7133 L330,7133 L330,7139 L338,7139 L338,7133 L340,7133 L340,7119 L328,7119 Z" id="usb-[#195]"></path>
            </g>
        </g>
    </g>
</svg>