<?xml version="1.0" encoding="UTF-8" standalone="no"?>
<svg width="16px" height="20px" viewBox="0 0 16 20" version="1.1" xmlns="http://www.w3.org/2000/svg" xmlns:xlink="http://www.w3.org/1999/xlink">
    <!-- Generator: Sketch 3.8.1 (29687) - http://www.bohemiancoding.com/sketch -->
    <title>usb [#193]</title>
    <desc>Created with Sketch.</desc>
    <defs></defs>
    <g id="Page-1" stroke="none" stroke-width="1" fill="none" fill-rule="evenodd">
        <g id="Dribbble-Dark-Preview" transform="translate(-60.000000, -7319.000000)" fill="#FFFFFF">
            <g id="icons" transform="translate(56.000000, 160.000000)">
                <path d="M20,7167 L18.744,7167 C17.996,7171 15,7171.95 13,7171.95 L13,7178 C13,7178.552 12.552,7179 12,7179 C11.448,7179 11,7178.552 11,7178 L11,7175.95 C8,7175.95 5.699,7174.603 5.108,7170.808 C4.469,7170.474 4.003,7169.813 4.003,7169.042 C4.003,7167.937 4.902,7167.042 6.007,7167.042 C7.111,7167.042 8.013,7167.937 8.013,7169.042 C8.013,7169.746 7.66,7170.362 7.11,7170.718 C7.553,7173.274 9,7173.891 11,7174.014 L11,7164 L8.948,7164 L11.948,7159 L14.948,7164 L13,7164 L13,7170.004 C15,7169.852 16.245,7169 16.744,7167 L16,7167 L16,7163 L20,7163 L20,7167 Z" id="usb-[#193]"></path>
            </g>
        </g>
    </g>
</svg>