<?xml version="1.0" encoding="UTF-8" standalone="no"?>
<svg width="20px" height="14px" viewBox="0 0 20 14" version="1.1" xmlns="http://www.w3.org/2000/svg" xmlns:xlink="http://www.w3.org/1999/xlink">
    <!-- Generator: Sketch 3.8.1 (29687) - http://www.bohemiancoding.com/sketch -->
    <title>video_round [#961]</title>
    <desc>Created with Sketch.</desc>
    <defs></defs>
    <g id="Page-1" stroke="none" stroke-width="1" fill="none" fill-rule="evenodd">
        <g id="Dribbble-Dark-Preview" transform="translate(-420.000000, -3922.000000)" fill="#FFFFFF">
            <g id="icons" transform="translate(56.000000, 160.000000)">
                <path d="M382,3770.674 L379.774,3769.283 L382,3767.891 L382,3770.674 Z M375,3774 L367,3774 C366.448,3774 366,3773.553 366,3773 L366,3765 C366,3764.448 366.448,3764 367,3764 L375,3764 C375.552,3764 376,3764.448 376,3765 L376,3773 C376,3773.553 375.552,3774 375,3774 L375,3774 Z M378,3768.111 L378,3764 C378,3762.896 377.105,3762 376,3762 L366,3762 C364.895,3762 364,3762.896 364,3764 L364,3774 C364,3775.105 364.895,3776 366,3776 L376,3776 C377.105,3776 378,3775.105 378,3774 L378,3770.454 L382.462,3773.301 C383.128,3773.726 384,3773.248 384,3772.458 L384,3766.107 C384,3765.317 383.128,3764.839 382.462,3765.264 L378,3768.111 Z" id="video_round-[#961]"></path>
            </g>
        </g>
    </g>
</svg>