<?xml version="1.0" encoding="UTF-8" standalone="no"?>
<svg width="20px" height="17px" viewBox="0 0 20 17" version="1.1" xmlns="http://www.w3.org/2000/svg" xmlns:xlink="http://www.w3.org/1999/xlink">
    <!-- Generator: Sketch 3.8.1 (29687) - http://www.bohemiancoding.com/sketch -->
    <title>video_camera [#963]</title>
    <desc>Created with Sketch.</desc>
    <defs></defs>
    <g id="Page-1" stroke="none" stroke-width="1" fill="none" fill-rule="evenodd">
        <g id="Dribbble-Dark-Preview" transform="translate(-340.000000, -3921.000000)" fill="#FFFFFF">
            <g id="icons" transform="translate(56.000000, 160.000000)">
                <path d="M302,3771.75708 L302,3771.8071 L302,3774.24237 L299.767,3772.78975 L302,3771.54242 L302,3771.75708 Z M286,3775.9159 L296,3775.9159 L296,3769.6636 L286,3769.6636 L286,3775.9159 Z M288.178,3765.05983 C288.73,3765.05983 289.178,3765.52666 289.178,3766.10188 C289.178,3766.67605 288.73,3767.14393 288.178,3767.14393 C287.627,3767.14393 287.178,3766.67605 287.178,3766.10188 C287.178,3765.52666 287.627,3765.05983 288.178,3765.05983 L288.178,3765.05983 Z M293.178,3762.97573 C294.281,3762.97573 295.178,3763.91045 295.178,3765.05983 C295.178,3766.20816 294.281,3767.14393 293.178,3767.14393 C292.076,3767.14393 291.178,3766.20816 291.178,3765.05983 C291.178,3763.91045 292.076,3762.97573 293.178,3762.97573 L293.178,3762.97573 Z M298,3771.48198 L298,3767.5795 L296.624,3767.5795 C296.967,3766.53745 297.178,3766.04039 297.178,3765.27761 C297.178,3762.97573 295.387,3761 293.178,3761 C291.562,3761 290.177,3761.95035 289.546,3763.38838 C289.134,3763.16642 288.674,3763.00282 288.178,3763.00282 C286.521,3763.00282 285.178,3764.60653 285.178,3766.33321 C285.178,3766.70001 285.25,3766.53745 285.362,3767.5795 L284,3767.5795 L284,3778 L298,3778 L298,3774.09752 L304,3778 L304,3767.5795 L298,3771.48198 Z" id="video_camera-[#963]"></path>
            </g>
        </g>
    </g>
</svg>