<?xml version="1.0" encoding="UTF-8" standalone="no"?>
<svg width="20px" height="19px" viewBox="0 0 20 19" version="1.1" xmlns="http://www.w3.org/2000/svg" xmlns:xlink="http://www.w3.org/1999/xlink">
    <!-- Generator: Sketch 3.8.1 (29687) - http://www.bohemiancoding.com/sketch -->
    <title>view_pus [#816]</title>
    <desc>Created with Sketch.</desc>
    <defs></defs>
    <g id="Page-1" stroke="none" stroke-width="1" fill="none" fill-rule="evenodd">
        <g id="Dribbble-Dark-Preview" transform="translate(-220.000000, -4559.000000)" fill="#FFFFFF">
            <g id="icons" transform="translate(56.000000, 160.000000)">
                <path d="M177,4402 C177,4401.448 177.448,4401 178,4401 L179,4401 L179,4400 C179,4399.448 179.448,4399 180,4399 C180.552,4399 181,4399.448 181,4400 L181,4401 L182,4401 C182.552,4401 183,4401.448 183,4402 C183,4402.552 182.552,4403 182,4403 L181,4403 L181,4404 C181,4404.552 180.552,4405 180,4405 C179.448,4405 179,4404.552 179,4404 L179,4403 L178,4403 C177.448,4403 177,4402.552 177,4402 M176,4412.221 C176,4413.325 175.105,4414.221 174,4414.221 C172.895,4414.221 172,4413.325 172,4412.221 C172,4411.116 172.895,4410.221 174,4410.221 C175.105,4410.221 176,4411.116 176,4412.221 M174,4416 C171.011,4416 168.195,4414.577 166.399,4412.221 C168.195,4409.864 171.011,4408.441 174,4408.441 C176.989,4408.441 179.805,4409.864 181.601,4412.221 C179.805,4414.577 176.989,4416 174,4416 M174,4406.441 C169.724,4406.441 165.999,4408.769 164,4412.221 C165.999,4415.672 169.724,4418 174,4418 C178.276,4418 182.001,4415.672 184,4412.221 C182.001,4408.769 178.276,4406.441 174,4406.441" id="view_pus-[#816]"></path>
            </g>
        </g>
    </g>
</svg>