<?xml version="1.0" encoding="UTF-8" standalone="no"?>
<svg width="20px" height="12px" viewBox="0 0 20 12" version="1.1" xmlns="http://www.w3.org/2000/svg" xmlns:xlink="http://www.w3.org/1999/xlink">
    <!-- Generator: Sketch 3.8.1 (29687) - http://www.bohemiancoding.com/sketch -->
    <title>view_simple [#815]</title>
    <desc>Created with Sketch.</desc>
    <defs></defs>
    <g id="Page-1" stroke="none" stroke-width="1" fill="none" fill-rule="evenodd">
        <g id="Dribbble-Dark-Preview" transform="translate(-260.000000, -4563.000000)" fill="#FFFFFF">
            <g id="icons" transform="translate(56.000000, 160.000000)">
                <path d="M216,4409.00052 C216,4410.14768 215.105,4411.07682 214,4411.07682 C212.895,4411.07682 212,4410.14768 212,4409.00052 C212,4407.85336 212.895,4406.92421 214,4406.92421 C215.105,4406.92421 216,4407.85336 216,4409.00052 M214,4412.9237 C211.011,4412.9237 208.195,4411.44744 206.399,4409.00052 C208.195,4406.55359 211.011,4405.0763 214,4405.0763 C216.989,4405.0763 219.805,4406.55359 221.601,4409.00052 C219.805,4411.44744 216.989,4412.9237 214,4412.9237 M214,4403 C209.724,4403 205.999,4405.41682 204,4409.00052 C205.999,4412.58422 209.724,4415 214,4415 C218.276,4415 222.001,4412.58422 224,4409.00052 C222.001,4405.41682 218.276,4403 214,4403" id="view_simple-[#815]"></path>
            </g>
        </g>
    </g>
</svg>