<?xml version="1.0" encoding="UTF-8" standalone="no"?>
<svg width="20px" height="20px" viewBox="0 0 20 20" version="1.1" xmlns="http://www.w3.org/2000/svg" xmlns:xlink="http://www.w3.org/1999/xlink">
    <!-- Generator: Sketch 3.8.1 (29687) - http://www.bohemiancoding.com/sketch -->
    <title>view_close [#818]</title>
    <desc>Created with Sketch.</desc>
    <defs></defs>
    <g id="Page-1" stroke="none" stroke-width="1" fill="none" fill-rule="evenodd">
        <g id="Dribbble-Dark-Preview" transform="translate(-140.000000, -4559.000000)" fill="#FFFFFF">
            <g id="icons" transform="translate(56.000000, 160.000000)">
                <path d="M103.71125,4417.2965 C104.10225,4417.6875 104.10225,4418.3205 103.71125,4418.7105 C103.32025,4419.1015 102.68725,4419.1015 102.29725,4418.7105 L99.43725,4415.8505 C100.07525,4415.5695 100.69125,4415.2395 101.27925,4414.8645 L103.71125,4417.2965 Z M86.72425,4414.8615 C87.31225,4415.2365 87.92725,4415.5665 88.56625,4415.8485 L85.70725,4418.7065 C85.31725,4419.0975 84.68325,4419.0975 84.29325,4418.7065 C83.90225,4418.3165 83.90225,4417.6835 84.29325,4417.2925 L86.72425,4414.8615 Z M84.29725,4400.7105 C83.90625,4400.3205 83.90625,4399.6875 84.29725,4399.2965 C84.68725,4398.9055 85.32025,4398.9055 85.71125,4399.2965 L88.87725,4402.4625 C88.22725,4402.7305 87.60125,4403.0505 87.00125,4403.4145 L84.29725,4400.7105 Z M101.00225,4403.4115 C100.40125,4403.0485 99.77525,4402.7275 99.12525,4402.4605 L102.29325,4399.2925 C102.68325,4398.9025 103.31725,4398.9025 103.70725,4399.2925 C104.09825,4399.6835 104.09825,4400.3165 103.70725,4400.7065 L101.00225,4403.4115 Z M96.00425,4409.2245 C96.00425,4410.3285 95.10825,4411.2245 94.00425,4411.2245 C92.89925,4411.2245 92.00425,4410.3285 92.00425,4409.2245 C92.00425,4408.1195 92.89925,4407.2245 94.00425,4407.2245 C95.10825,4407.2245 96.00425,4408.1195 96.00425,4409.2245 L96.00425,4409.2245 Z M94.00425,4413.0035 C91.01525,4413.0035 88.19925,4411.5805 86.40325,4409.2245 C88.19925,4406.8675 91.01525,4405.4445 94.00425,4405.4445 C96.99325,4405.4445 99.80925,4406.8675 101.60525,4409.2245 C99.80925,4411.5805 96.99325,4413.0035 94.00425,4413.0035 L94.00425,4413.0035 Z M104.00425,4409.2245 C102.00425,4405.7725 98.28025,4403.4445 94.00425,4403.4445 C89.72825,4403.4445 86.00325,4405.7725 84.00425,4409.2245 C86.00325,4412.6755 89.72825,4415.0035 94.00425,4415.0035 C98.28025,4415.0035 102.00425,4412.6755 104.00425,4409.2245 L104.00425,4409.2245 Z" id="view_close-[#818]"></path>
            </g>
        </g>
    </g>
</svg>