<?xml version="1.0" encoding="UTF-8" standalone="no"?>
<svg width="20px" height="17px" viewBox="0 0 20 17" version="1.1" xmlns="http://www.w3.org/2000/svg" xmlns:xlink="http://www.w3.org/1999/xlink">
    <!-- Generator: Sketch 3.8.1 (29687) - http://www.bohemiancoding.com/sketch -->
    <title>view_minus [#817]</title>
    <desc>Created with Sketch.</desc>
    <defs></defs>
    <g id="Page-1" stroke="none" stroke-width="1" fill="none" fill-rule="evenodd">
        <g id="Dribbble-Dark-Preview" transform="translate(-180.000000, -4560.000000)" fill="#FFFFFF">
            <g id="icons" transform="translate(56.000000, 160.000000)">
                <path d="M139,4402 L138,4402 C137.448,4402 137,4401.552 137,4401 C137,4400.448 137.448,4400 138,4400 L139,4400 L141,4400 L142,4400 C142.552,4400 143,4400.448 143,4401 C143,4401.552 142.552,4402 142,4402 L141,4402 L139,4402 Z M136,4411.221 C136,4412.325 135.105,4413.221 134,4413.221 C132.895,4413.221 132,4412.325 132,4411.221 C132,4410.116 132.895,4409.221 134,4409.221 C135.105,4409.221 136,4410.116 136,4411.221 L136,4411.221 Z M134,4415 C131.011,4415 128.195,4413.577 126.399,4411.221 C128.195,4408.864 131.011,4407.441 134,4407.441 C136.989,4407.441 139.805,4408.864 141.601,4411.221 C139.805,4413.577 136.989,4415 134,4415 L134,4415 Z M134,4405.441 C129.724,4405.441 125.999,4407.769 124,4411.221 C125.999,4414.672 129.724,4417 134,4417 C138.276,4417 142.001,4414.672 144,4411.221 C142.001,4407.769 138.276,4405.441 134,4405.441 L134,4405.441 Z" id="view_minus-[#817]"></path>
            </g>
        </g>
    </g>
</svg>