<?xml version="1.0" encoding="UTF-8" standalone="no"?>
<svg width="20px" height="17px" viewBox="0 0 20 17" version="1.1" xmlns="http://www.w3.org/2000/svg" xmlns:xlink="http://www.w3.org/1999/xlink">
    <!-- Generator: Sketch 3.8.1 (29687) - http://www.bohemiancoding.com/sketch -->
    <title>vimeo [#144]</title>
    <desc>Created with Sketch.</desc>
    <defs></defs>
    <g id="Page-1" stroke="none" stroke-width="1" fill="none" fill-rule="evenodd">
        <g id="Dribbble-Dark-Preview" transform="translate(-60.000000, -7560.000000)" fill="#FFFFFF">
            <g id="icons" transform="translate(56.000000, 160.000000)">
                <path d="M23.99,7403.93262 C23.9,7405.8454 22.541,7408.46538 19.911,7411.79058 C17.192,7415.26353 14.891,7417 13.009,7417 C11.843,7417 10.857,7415.94019 10.051,7413.82155 L8.437,7407.99457 C7.839,7405.87495 7.197,7404.81514 6.51,7404.81514 C6.36,7404.81514 5.837,7405.12441 4.941,7405.74296 L4,7404.55117 C4.986,7403.69722 5.957,7402.84326 6.913,7401.99029 C8.228,7400.87138 9.214,7400.28337 9.871,7400.22427 C11.425,7400.07751 12.381,7401.12156 12.74,7403.35839 C13.128,7405.77251 13.397,7407.2726 13.547,7407.8616 C13.995,7409.86303 14.488,7410.86374 15.026,7410.86374 C15.444,7410.86374 16.072,7410.21662 16.908,7408.92141 C17.745,7407.6262 18.193,7406.64026 18.253,7405.96359 C18.372,7404.84469 17.924,7404.28622 16.908,7404.28622 C16.43,7404.28622 15.937,7404.38865 15.429,7404.59451 C16.415,7401.44561 18.298,7399.91499 21.077,7400.00364 C23.138,7400.06274 24.11,7401.37174 23.99,7403.93262 L23.99,7403.93262 Z" id="vimeo-[#144]"></path>
            </g>
        </g>
    </g>
</svg>