<?xml version="1.0" encoding="UTF-8" standalone="no"?>
<svg width="18px" height="20px" viewBox="0 0 18 20" version="1.1" xmlns="http://www.w3.org/2000/svg" xmlns:xlink="http://www.w3.org/1999/xlink">
    <!-- Generator: Sketch 3.8.1 (29687) - http://www.bohemiancoding.com/sketch -->
    <title>vine [#159]</title>
    <desc>Created with Sketch.</desc>
    <defs></defs>
    <g id="Page-1" stroke="none" stroke-width="1" fill="none" fill-rule="evenodd">
        <g id="Dribbble-Dark-Preview" transform="translate(-261.000000, -7479.000000)" fill="#FFFFFF">
            <g id="icons" transform="translate(56.000000, 160.000000)">
                <path d="M213.571624,7339 C212.756991,7339 212.071795,7338.281 211.128752,7337.363 C208.300651,7334.776 205.386257,7328 205,7322 L208.429061,7322 C209.328958,7328 210.743522,7332.306 213.786326,7335.686 C215.286155,7334.309 216.529163,7332.391 217.385915,7330.847 C215.71453,7330.096 214.771487,7328.678 214.25682,7327.385 C212.671727,7323.38 214.043146,7319.125 218.542632,7319 C221.843283,7319 222.956854,7321.42 223,7323.714 C222.956854,7325.091 222.74318,7326.05 222.314804,7327.219 C221.371761,7327.427 220.385572,7327.177 219.785641,7326.76 C219.314119,7326.426 219.142564,7326.593 219.442529,7325.675 C219.785641,7324.507 219.914051,7321.962 218.285812,7321.92 C217.171213,7322.004 216.6247,7323.339 216.6247,7324.257 C216.924666,7328.011 219.38192,7329.68 222.46376,7328.846 L222.46376,7331.265 C221.43648,7331.516 221.596736,7331.524 220.267435,7331.566 C219.495948,7333.318 215.542975,7339 213.528478,7339 L213.571624,7339 Z" id="vine-[#159]"></path>
            </g>
        </g>
    </g>
</svg>