<?xml version="1.0" encoding="UTF-8" standalone="no"?>
<svg width="18px" height="18px" viewBox="0 0 18 18" version="1.1" xmlns="http://www.w3.org/2000/svg" xmlns:xlink="http://www.w3.org/1999/xlink">
    <!-- Generator: Sketch 3.8.1 (29687) - http://www.bohemiancoding.com/sketch -->
    <title>volume_close [#932]</title>
    <desc>Created with Sketch.</desc>
    <defs></defs>
    <g id="Page-1" stroke="none" stroke-width="1" fill="none" fill-rule="evenodd">
        <g id="Dribbble-Dark-Preview" transform="translate(-381.000000, -4040.000000)" fill="#FFFFFF">
            <g id="icons" transform="translate(56.000000, 160.000000)">
                <path d="M328.962739,3887.34745 L327.972054,3887.34745 C327.425196,3887.34745 326.98137,3887.80542 326.98137,3888.3697 L326.98137,3890.41419 C326.98137,3890.97847 327.425196,3891.43644 327.972054,3891.43644 L328.962739,3891.43644 L328.962739,3887.34745 Z M339.907825,3891.77174 L340.850957,3892.74492 L340.850957,3895.95273 C340.850957,3897.43397 339.372855,3898.42351 338.062179,3897.82038 L328.632841,3893.48094 L326.98137,3893.48094 C325.886663,3893.48094 325,3892.56603 325,3891.43644 L325,3887.34745 C325,3886.21787 325.886663,3885.30295 326.98137,3885.30295 L328.632841,3885.30295 L337.946269,3880.23874 C339.264871,3879.52112 340.850957,3880.50759 340.850957,3882.04709 L340.850957,3885.0157 L339.907825,3885.98888 L338.869587,3884.91757 L338.869587,3882.79334 C338.869587,3882.41306 338.48223,3882.1667 338.152332,3882.33639 L332.925478,3885.03308 L330.944109,3886.05533 L330.944109,3891.70632 L332.925478,3892.72856 L338.152332,3895.42525 C338.48223,3895.59495 338.869587,3895.34858 338.869587,3894.96831 L338.869587,3892.84305 L339.907825,3891.77174 Z M342.709482,3887.43536 L341.308653,3888.88082 L342.709482,3890.32628 C343.096839,3890.72598 343.096839,3891.37306 342.709482,3891.77174 C342.323115,3892.17144 341.696011,3892.17144 341.308653,3891.77174 L339.907825,3890.32628 L338.506997,3891.77174 C338.119639,3892.17144 337.492535,3892.17144 337.105178,3891.77276 L337.105178,3891.77174 C336.718811,3891.37306 336.718811,3890.72598 337.105178,3890.32628 L338.506997,3888.88082 L337.105178,3887.43536 C336.718811,3887.03566 336.718811,3886.38858 337.105178,3885.9899 L337.105178,3885.98888 C337.492535,3885.59021 338.119639,3885.59021 338.506997,3885.9899 L339.907825,3887.43536 L341.308653,3885.9899 C341.696011,3885.59021 342.323115,3885.59021 342.709482,3885.9899 C343.096839,3886.38858 343.096839,3887.03566 342.709482,3887.43536 L342.709482,3887.43536 Z" id="volume_close-[#932]"></path>
            </g>
        </g>
    </g>
</svg>