<?xml version="1.0" encoding="UTF-8" standalone="no"?>
<svg width="20px" height="18px" viewBox="0 0 20 18" version="1.1" xmlns="http://www.w3.org/2000/svg" xmlns:xlink="http://www.w3.org/1999/xlink">
    <!-- Generator: Sketch 3.8.1 (29687) - http://www.bohemiancoding.com/sketch -->
    <title>volume_low [#929]</title>
    <desc>Created with Sketch.</desc>
    <defs></defs>
    <g id="Page-1" stroke="none" stroke-width="1" fill="none" fill-rule="evenodd">
        <g id="Dribbble-Dark-Preview" transform="translate(-100.000000, -4080.000000)" fill="#FFFFFF">
            <g id="icons" transform="translate(56.000000, 160.000000)">
                <path d="M63,3925.30295 L63,3925.30295 C63.552,3925.30295 64,3925.76092 64,3926.3252 L64,3932.45869 C64,3933.02297 63.552,3933.48094 63,3933.48094 C62.448,3933.48094 62,3933.02297 62,3932.45869 L62,3926.3252 C62,3925.76092 62.448,3925.30295 63,3925.30295 L63,3925.30295 Z M48,3931.43644 L47,3931.43644 C46.448,3931.43644 46,3930.97847 46,3930.41419 L46,3928.3697 C46,3927.80542 46.448,3927.34745 47,3927.34745 L48,3927.34745 L48,3931.43644 Z M50,3926.05533 C52.667,3924.69165 54.768,3923.61829 57.271,3922.33843 C57.604,3922.16874 58,3922.41306 58,3922.79334 L58,3934.96831 C58,3935.34858 57.604,3935.5929 57.271,3935.42321 C54.769,3934.14335 52.667,3933.06897 50,3931.70632 L50,3926.05533 Z M44,3927.34745 L44,3931.43644 C44,3932.56603 44.895,3933.48094 46,3933.48094 L47.667,3933.48094 L57.185,3937.82038 C58.508,3938.42351 60,3937.43397 60,3935.95273 L60,3922.04709 C60,3920.50759 58.399,3919.52112 57.068,3920.23874 L47.667,3925.30295 L46,3925.30295 C44.895,3925.30295 44,3926.21787 44,3927.34745 L44,3927.34745 Z" id="volume_low-[#929]"></path>
            </g>
        </g>
    </g>
</svg>