<?xml version="1.0" encoding="UTF-8" standalone="no"?>
<svg width="28px" height="20px" viewBox="0 0 28 20" version="1.1" xmlns="http://www.w3.org/2000/svg" xmlns:xlink="http://www.w3.org/1999/xlink">
    <!-- Generator: Sketch 3.8.1 (29687) - http://www.bohemiancoding.com/sketch -->
    <title>volume_high [#927]</title>
    <desc>Created with Sketch.</desc>
    <defs></defs>
    <g id="Page-1" stroke="none" stroke-width="1" fill="none" fill-rule="evenodd">
        <g id="Dribbble-Dark-Preview" transform="translate(-180.000000, -4079.000000)" fill="#FFFFFF">
            <g id="icons" transform="translate(56.000000, 160.000000)">
                <path d="M150,3937.5 L152,3937.5 L152,3921.5 L150,3921.5 L150,3937.5 Z M146,3935.5 L148,3935.5 L148,3923.5 L146,3923.5 L146,3935.5 Z M142,3933.5 L144,3933.5 L144,3925.5 L142,3925.5 L142,3933.5 Z M126,3931.5 L128,3931.5 L128,3927.5 L126,3927.5 L126,3931.5 Z M130,3926.236 C132.922,3924.775 135.164,3923.654 138,3922.236 L138,3935.764 C135.165,3934.346 132.921,3933.225 130,3931.764 L130,3926.236 Z M124,3925.5 L124,3933.5 L127.667,3933.5 L140,3939 L140,3919 L127.667,3925.5 L124,3925.5 Z" id="volume_high-[#927]"></path>
            </g>
        </g>
    </g>
</svg>