<?xml version="1.0" encoding="UTF-8" standalone="no"?>
<svg width="24px" height="20px" viewBox="0 0 24 20" version="1.1" xmlns="http://www.w3.org/2000/svg" xmlns:xlink="http://www.w3.org/1999/xlink">
    <!-- Generator: Sketch 3.8.1 (29687) - http://www.bohemiancoding.com/sketch -->
    <title>volume_medium [#926]</title>
    <desc>Created with Sketch.</desc>
    <defs></defs>
    <g id="Page-1" stroke="none" stroke-width="1" fill="none" fill-rule="evenodd">
        <g id="Dribbble-Dark-Preview" transform="translate(-220.000000, -4079.000000)" fill="#FFFFFF">
            <g id="icons" transform="translate(56.000000, 160.000000)">
                <path d="M186,3935.5 L188,3935.5 L188,3923.5 L186,3923.5 L186,3935.5 Z M182,3933.5 L184,3933.5 L184,3925.5 L182,3925.5 L182,3933.5 Z M166,3931.5 L168,3931.5 L168,3927.5 L166,3927.5 L166,3931.5 Z M170,3926.236 C172.922,3924.775 175.164,3923.654 178,3922.236 L178,3935.764 C175.165,3934.346 172.921,3933.225 170,3931.764 L170,3926.236 Z M164,3925.5 L164,3933.5 L167.667,3933.5 L180,3939 L180,3919 L167.667,3925.5 L164,3925.5 Z" id="volume_medium-[#926]"></path>
            </g>
        </g>
    </g>
</svg>