<?xml version="1.0" encoding="UTF-8" standalone="no"?>
<svg width="24px" height="18px" viewBox="0 0 24 18" version="1.1" xmlns="http://www.w3.org/2000/svg" xmlns:xlink="http://www.w3.org/1999/xlink">
    <!-- Generator: Sketch 3.8.1 (29687) - http://www.bohemiancoding.com/sketch -->
    <title>volume_medium [#930]</title>
    <desc>Created with Sketch.</desc>
    <defs></defs>
    <g id="Page-1" stroke="none" stroke-width="1" fill="none" fill-rule="evenodd">
        <g id="Dribbble-Dark-Preview" transform="translate(-60.000000, -4080.000000)" fill="#FFFFFF">
            <g id="icons" transform="translate(56.000000, 160.000000)">
                <path d="M27,3923.18754 L27,3923.18754 C27.552,3923.18754 28,3923.63554 28,3924.18754 L28,3934.18754 C28,3934.73954 27.552,3935.18754 27,3935.18754 L27,3935.18754 C26.448,3935.18754 26,3934.73954 26,3934.18754 L26,3924.18754 C26,3923.63554 26.448,3923.18754 27,3923.18754 L27,3923.18754 Z M22,3932.18754 L22,3926.18754 C22,3925.63554 22.448,3925.18754 23,3925.18754 L23,3925.18754 C23.552,3925.18754 24,3925.63554 24,3926.18754 L24,3932.18754 C24,3932.73954 23.552,3933.18754 23,3933.18754 L23,3933.18754 C22.448,3933.18754 22,3932.73954 22,3932.18754 L22,3932.18754 Z M8,3931.18754 L7,3931.18754 C6.448,3931.18754 6,3930.73954 6,3930.18754 L6,3928.18754 C6,3927.63554 6.448,3927.18754 7,3927.18754 L8,3927.18754 L8,3931.18754 Z M10,3925.92354 C12.667,3924.58954 14.768,3923.53954 17.271,3922.28754 C17.604,3922.12154 18,3922.36054 18,3922.73254 L18,3934.64254 C18,3935.01454 17.604,3935.25354 17.271,3935.08754 C14.769,3933.83554 12.667,3932.78454 10,3931.45154 L10,3925.92354 Z M4,3927.18754 L4,3931.18754 C4,3932.29254 4.895,3933.18754 6,3933.18754 L7.667,3933.18754 L17.185,3937.43254 C18.508,3938.02254 20,3937.05454 20,3935.60554 L20,3922.00254 C20,3920.49654 18.399,3919.53154 17.068,3920.23354 L7.667,3925.18754 L6,3925.18754 C4.895,3925.18754 4,3926.08254 4,3927.18754 L4,3927.18754 Z" id="volume_medium-[#930]"></path>
            </g>
        </g>
    </g>
</svg>