<?xml version="1.0" encoding="UTF-8" standalone="no"?>
<svg width="18px" height="20px" viewBox="0 0 18 20" version="1.1" xmlns="http://www.w3.org/2000/svg" xmlns:xlink="http://www.w3.org/1999/xlink">
    <!-- Generator: Sketch 3.8.1 (29687) - http://www.bohemiancoding.com/sketch -->
    <title>volume_close [#928]</title>
    <desc>Created with Sketch.</desc>
    <defs></defs>
    <g id="Page-1" stroke="none" stroke-width="1" fill="none" fill-rule="evenodd">
        <g id="Dribbble-Dark-Preview" transform="translate(-140.000000, -4079.000000)" fill="#FFFFFF">
            <g id="icons" transform="translate(56.000000, 160.000000)">
                <path d="M85.9372545,3931.5 L87.874509,3931.5 L87.874509,3927.5 L85.9372545,3927.5 L85.9372545,3931.5 Z M98.5759027,3931.828 L99.4980358,3932.78 L99.4980358,3939 L87.5519561,3933.5 L84,3933.5 L84,3925.5 L87.5519561,3925.5 L99.4980358,3919 L99.4980358,3925.219 L98.5759027,3926.171 L97.5607814,3925.123 L97.5607814,3922.236 L91.7490179,3925.236 L89.8117634,3926.236 L89.8117634,3931.764 L91.7490179,3932.764 L97.5607814,3935.764 L97.5607814,3932.876 L98.5759027,3931.828 Z M99.9455416,3929 L102,3931.121 L100.630361,3932.536 L98.5759027,3930.414 L96.5214443,3932.536 L95.1508368,3931.121 L97.2062638,3929 L95.1508368,3926.879 L96.5214443,3925.464 L98.5759027,3927.586 L100.630361,3925.464 L102,3926.879 L99.9455416,3929 Z" id="volume_close-[#928]"></path>
            </g>
        </g>
    </g>
</svg>