<?xml version="1.0" encoding="UTF-8" standalone="no"?>
<svg width="28px" height="18px" viewBox="0 0 28 18" version="1.1" xmlns="http://www.w3.org/2000/svg" xmlns:xlink="http://www.w3.org/1999/xlink">
    <!-- Generator: Sketch 3.8.1 (29687) - http://www.bohemiancoding.com/sketch -->
    <title>volume_high [#931]</title>
    <desc>Created with Sketch.</desc>
    <defs></defs>
    <g id="Page-1" stroke="none" stroke-width="1" fill="none" fill-rule="evenodd">
        <g id="Dribbble-Dark-Preview" transform="translate(-420.000000, -4040.000000)" fill="#FFFFFF">
            <g id="icons" transform="translate(56.000000, 160.000000)">
                <path d="M391,3881.21396 L391,3881.21396 C391.552,3881.21396 392,3881.67193 392,3882.23621 L392,3896.54768 C392,3897.11196 391.552,3897.56993 391,3897.56993 C390.448,3897.56993 390,3897.11196 390,3896.54768 L390,3882.23621 C390,3881.67193 390.448,3881.21396 391,3881.21396 L391,3881.21396 Z M386,3894.50319 L386,3884.28071 C386,3883.71643 386.448,3883.25846 387,3883.25846 C387.552,3883.25846 388,3883.71643 388,3884.28071 L388,3894.50319 C388,3895.06747 387.552,3895.52543 387,3895.52543 C386.448,3895.52543 386,3895.06747 386,3894.50319 L386,3894.50319 Z M382,3892.45869 L382,3886.3252 C382,3885.76092 382.448,3885.30295 383,3885.30295 C383.552,3885.30295 384,3885.76092 384,3886.3252 L384,3892.45869 C384,3893.02297 383.552,3893.48094 383,3893.48094 C382.448,3893.48094 382,3893.02297 382,3892.45869 L382,3892.45869 Z M368,3891.43644 L367,3891.43644 C366.448,3891.43644 366,3890.97847 366,3890.41419 L366,3888.3697 C366,3887.80542 366.448,3887.34745 367,3887.34745 L368,3887.34745 L368,3891.43644 Z M370,3886.05533 C372.667,3884.69165 374.768,3883.61829 377.271,3882.33843 C377.604,3882.16874 378,3882.41306 378,3882.79334 L378,3894.96831 C378,3895.34858 377.604,3895.5929 377.271,3895.42321 C374.769,3894.14335 372.667,3893.06897 370,3891.70632 L370,3886.05533 Z M364,3887.34745 L364,3891.43644 C364,3892.56603 364.895,3893.48094 366,3893.48094 L367.667,3893.48094 L377.185,3897.82038 C378.508,3898.42351 380,3897.43397 380,3895.95273 L380,3882.04709 C380,3880.50759 378.399,3879.52112 377.068,3880.23874 L367.667,3885.30295 L366,3885.30295 C364.895,3885.30295 364,3886.21787 364,3887.34745 L364,3887.34745 Z" id="volume_high-[#931]"></path>
            </g>
        </g>
    </g>
</svg>