<?xml version="1.0" encoding="UTF-8" standalone="no"?>
<svg width="21px" height="20px" viewBox="0 0 21 20" version="1.1" xmlns="http://www.w3.org/2000/svg" xmlns:xlink="http://www.w3.org/1999/xlink">
    <!-- Generator: Sketch 3.8.1 (29687) - http://www.bohemiancoding.com/sketch -->
    <title>wallet [#1495]</title>
    <desc>Created with Sketch.</desc>
    <defs></defs>
    <g id="Page-1" stroke="none" stroke-width="1" fill="none" fill-rule="evenodd">
        <g id="Dribbble-Dark-Preview" transform="translate(-259.000000, -320.000000)" fill="#FFFFFF">
            <g id="icons" transform="translate(56.000000, 160.000000)">
                <path d="M221.9,168 L217.7,168 L205.1,168 L205.1,175.167 C205.1,176.729 206.43455,178 208.07465,178 L221.9,178 L221.9,168 Z M205.1,166 L215.6,166 L215.6,164.833 C215.6,163.271 214.1783,162 212.53715,162 L212.45,162 L205.1,162 L205.1,166 Z M224,166 L224,180 L208.07465,180 C205.2722,180 203,177.836 203,175.167 L203,160 L212.7125,160 C215.51495,160 217.7,162.164 217.7,164.833 L217.7,166 L224,166 Z M217.87535,173 C217.87535,172.448 218.3447,172 218.92535,172 C219.50495,172 219.97535,172.448 219.97535,173 C219.97535,173.552 219.50495,174 218.92535,174 C218.3447,174 217.87535,173.552 217.87535,173 L217.87535,173 Z" id="wallet-[#1495]"></path>
            </g>
        </g>
    </g>
</svg>