<?xml version="1.0" encoding="UTF-8" standalone="no"?>
<svg width="20px" height="20px" viewBox="0 0 20 20" version="1.1" xmlns="http://www.w3.org/2000/svg" xmlns:xlink="http://www.w3.org/1999/xlink">
    <!-- Generator: Sketch 3.8.1 (29687) - http://www.bohemiancoding.com/sketch -->
    <title>wand_round [#722]</title>
    <desc>Created with Sketch.</desc>
    <defs></defs>
    <g id="Page-1" stroke="none" stroke-width="1" fill="none" fill-rule="evenodd">
        <g id="Dribbble-Dark-Preview" transform="translate(-300.000000, -4999.000000)" fill="#FFFFFF">
            <g id="icons" transform="translate(56.000000, 160.000000)">
                <path d="M264,4843.98679 C264,4843.43596 263.558785,4842.98943 262.998891,4842.98943 L262.468109,4842.98943 C261.915212,4842.98943 261.785587,4842.67186 262.168908,4842.28976 L262.594092,4841.86593 C262.981745,4841.47951 262.976195,4840.85306 262.5755,4840.46063 L262.5755,4840.46063 C262.177579,4840.07092 261.531884,4840.07274 261.143114,4840.45505 L260.711886,4840.87911 C260.318722,4841.26574 260,4841.12991 260,4840.57461 L260,4840.00456 C260,4839.44976 259.556135,4839 259,4839 L259,4839 C258.447715,4839 258,4839.44926 258,4840.00456 L258,4840.57461 C258,4841.12941 257.686116,4841.26142 257.29814,4840.86867 L256.89986,4840.46549 C256.512233,4840.0731 255.887073,4840.0682 255.4975,4840.46063 L255.4975,4840.46063 C255.110625,4840.85034 255.117852,4841.48383 255.503897,4841.86593 L255.932103,4842.28976 C256.322511,4842.67617 256.19133,4842.98943 255.641307,4842.98943 L254.997693,4842.98943 C254.446682,4842.98943 254,4843.43212 254,4843.98679 L254,4843.98679 C254,4844.53761 254.44767,4844.98414 254.997693,4844.98414 L255.641307,4844.98414 C256.192318,4844.98414 256.326574,4845.29574 255.93239,4845.68888 L244.70661,4856.88499 C244.31636,4857.27421 244.308042,4857.90272 244.702133,4858.30313 L244.685867,4858.28661 C245.073645,4858.6806 245.699759,4858.6884 246.102212,4858.28615 L257.285788,4847.10825 C257.680237,4846.71401 258,4846.84366 258,4847.39896 L258,4847.96901 C258,4848.52381 258.443865,4848.97357 259,4848.97357 L259,4848.97357 C259.552285,4848.97357 260,4848.52431 260,4847.96901 L260,4847.39896 C260,4846.84416 260.323116,4846.71215 260.711886,4847.09446 L261.143114,4847.51852 C261.536278,4847.90515 262.171698,4847.90537 262.5685,4847.51294 L262.5685,4847.51294 C262.962555,4847.12323 262.965851,4846.48974 262.575077,4846.09721 L262.173923,4845.69425 C261.7835,4845.30207 261.908215,4844.98414 262.468109,4844.98414 L262.998891,4844.98414 C263.551788,4844.98414 264,4844.54145 264,4843.98679 L264,4843.98679 Z" id="wand_round-[#722]"></path>
            </g>
        </g>
    </g>
</svg>