<?xml version="1.0" encoding="UTF-8" standalone="no"?>
<svg width="14px" height="20px" viewBox="0 0 14 20" version="1.1" xmlns="http://www.w3.org/2000/svg" xmlns:xlink="http://www.w3.org/1999/xlink">
    <!-- Generator: Sketch 3.8.1 (29687) - http://www.bohemiancoding.com/sketch -->
    <title>watch [#1199]</title>
    <desc>Created with Sketch.</desc>
    <defs></defs>
    <g id="Page-1" stroke="none" stroke-width="1" fill="none" fill-rule="evenodd">
        <g id="Dribbble-Dark-Preview" transform="translate(-183.000000, -2799.000000)" fill="#FFFFFF">
            <g id="icons" transform="translate(56.000000, 160.000000)">
                <path d="M132,2650 L132,2646 L134,2646 L134,2648 L136,2648 L136,2650 L132,2650 Z M129,2653 L137,2653 L137,2645 L129,2645 L129,2653 Z M131,2657 L135,2657 L135,2655 L131,2655 L131,2657 Z M131,2643 L135,2643 L135,2641 L131,2641 L131,2643 Z M139,2648 L139,2643 L137,2643 L137,2639 L129,2639 L129,2643 L127,2643 L127,2655 L129,2655 L129,2659 L137,2659 L137,2655 L139,2655 L139,2650 L141,2650 L141,2648 L139,2648 Z" id="watch-[#1199]"></path>
            </g>
        </g>
    </g>
</svg>