<?xml version="1.0" encoding="UTF-8" standalone="no"?>
<svg width="14px" height="20px" viewBox="0 0 14 20" version="1.1" xmlns="http://www.w3.org/2000/svg" xmlns:xlink="http://www.w3.org/1999/xlink">
    <!-- Generator: Sketch 3.8.1 (29687) - http://www.bohemiancoding.com/sketch -->
    <title>watch [#1200]</title>
    <desc>Created with Sketch.</desc>
    <defs></defs>
    <g id="Page-1" stroke="none" stroke-width="1" fill="none" fill-rule="evenodd">
        <g id="Dribbble-Dark-Preview" transform="translate(-143.000000, -2799.000000)" fill="#FFFFFF">
            <g id="icons" transform="translate(56.000000, 160.000000)">
                <path d="M97,2652 C97,2652.552 96.552,2653 96,2653 L90,2653 C89.448,2653 89,2652.552 89,2652 L89,2646 C89,2645.448 89.448,2645 90,2645 L96,2645 C96.552,2645 97,2645.448 97,2646 L97,2652 Z M91,2657 L95,2657 L95,2655 L91,2655 L91,2657 Z M91,2643 L95,2643 L95,2641 L91,2641 L91,2643 Z M100,2648 L99,2648 L99,2645 C99,2643.895 98.105,2643 97,2643 L97,2639 L89,2639 L89,2643 C87.895,2643 87,2643.895 87,2645 L87,2653 C87,2654.104 87.895,2655 89,2655 L89,2659 L97,2659 L97,2655 C98.105,2655 99,2654.104 99,2653 L99,2650 L100,2650 C100.552,2650 101,2649.552 101,2649 C101,2648.448 100.552,2648 100,2648 L100,2648 Z" id="watch-[#1200]"></path>
            </g>
        </g>
    </g>
</svg>