<?xml version="1.0" encoding="UTF-8" standalone="no"?>
<svg width="14px" height="20px" viewBox="0 0 14 20" version="1.1" xmlns="http://www.w3.org/2000/svg" xmlns:xlink="http://www.w3.org/1999/xlink">
    <!-- Generator: Sketch 3.8.1 (29687) - http://www.bohemiancoding.com/sketch -->
    <title>watch [#1202]</title>
    <desc>Created with Sketch.</desc>
    <defs></defs>
    <g id="Page-1" stroke="none" stroke-width="1" fill="none" fill-rule="evenodd">
        <g id="Dribbble-Dark-Preview" transform="translate(-63.000000, -2799.000000)" fill="#FFFFFF">
            <g id="icons" transform="translate(56.000000, 160.000000)">
                <path d="M16,2649 C16,2650.105 15,2650 14,2650 C14,2651 14.104,2652 13,2652 C11.895,2652 12,2651 12,2650 C11,2650 10,2650.104 10,2649 C10,2647.895 11,2648 12,2648 C12,2647 11.896,2646 13,2646 C14.105,2646 14,2647 14,2648 C15,2648 16,2647.896 16,2649 L16,2649 Z M17,2652 C17,2652.552 16.552,2653 16,2653 L10,2653 C9.448,2653 9,2652.552 9,2652 L9,2646 C9,2645.448 9.448,2645 10,2645 L16,2645 C16.552,2645 17,2645.448 17,2646 L17,2652 Z M11,2657 L15,2657 L15,2655 L11,2655 L11,2657 Z M11,2643 L15,2643 L15,2641 L11,2641 L11,2643 Z M19,2648 L19,2645 C19,2643.895 18.105,2643 17,2643 L17,2639 L9,2639 L9,2643 C7.895,2643 7,2643.895 7,2645 L7,2653 C7,2654.104 7.895,2655 9,2655 L9,2659 L17,2659 L17,2655 C18.105,2655 19,2654.104 19,2653 L19,2650 L21,2650 L21,2648 L19,2648 Z" id="watch-[#1202]"></path>
            </g>
        </g>
    </g>
</svg>