<?xml version="1.0" encoding="UTF-8" standalone="no"?>
<svg width="14px" height="20px" viewBox="0 0 14 20" version="1.1" xmlns="http://www.w3.org/2000/svg" xmlns:xlink="http://www.w3.org/1999/xlink">
    <!-- Generator: Sketch 3.8.1 (29687) - http://www.bohemiancoding.com/sketch -->
    <title>watch [#1205]</title>
    <desc>Created with Sketch.</desc>
    <defs></defs>
    <g id="Page-1" stroke="none" stroke-width="1" fill="none" fill-rule="evenodd">
        <g id="Dribbble-Dark-Preview" transform="translate(-343.000000, -2759.000000)" fill="#FFFFFF">
            <g id="icons" transform="translate(56.000000, 160.000000)">
                <path d="M294.264,2609.871 C292.995,2611.035 292.831,2610.891 291.698,2609.838 C289.948,2608.211 291.852,2606.463 292.922,2607.821 C292.961,2607.87 293.038,2607.869 293.077,2607.819 C294.139,2606.463 296.085,2608.201 294.264,2609.871 L294.264,2609.871 Z M297,2612 C297,2612.553 296.552,2613 296,2613 L290,2613 C289.447,2613 289,2612.553 289,2612 L289,2606 C289,2605.448 289.447,2605 290,2605 L296,2605 C296.552,2605 297,2605.448 297,2606 L297,2612 Z M291,2617 L295,2617 L295,2615 L291,2615 L291,2617 Z M291,2603 L295,2603 L295,2601 L291,2601 L291,2603 Z M300,2608 L299,2608 L299,2605 C299,2603.896 298.104,2603 297,2603 L297,2599 L289,2599 L289,2603 C287.895,2603 287,2603.896 287,2605 L287,2613 C287,2614.105 287.895,2615 289,2615 L289,2619 L297,2619 L297,2615 C298.104,2615 299,2614.105 299,2613 L299,2610 L300,2610 C300.552,2610 301,2609.553 301,2609 C301,2608.448 300.552,2608 300,2608 L300,2608 Z" id="watch-[#1205]"></path>
            </g>
        </g>
    </g>
</svg>