<?xml version="1.0" encoding="UTF-8" standalone="no"?>
<svg width="10px" height="20px" viewBox="0 0 10 20" version="1.1" xmlns="http://www.w3.org/2000/svg" xmlns:xlink="http://www.w3.org/1999/xlink">
    <!-- Generator: Sketch 3.8.1 (29687) - http://www.bohemiancoding.com/sketch -->
    <title>watch_round [#757]</title>
    <desc>Created with Sketch.</desc>
    <defs></defs>
    <g id="Page-1" stroke="none" stroke-width="1" fill="none" fill-rule="evenodd">
        <g id="Dribbble-Dark-Preview" transform="translate(-105.000000, -4879.000000)" fill="#FFFFFF">
            <g id="icons" transform="translate(56.000000, 160.000000)">
                <path d="M54.999,4727 L54.999,4725 L55.999,4725 C56.551,4725 56.999,4725.448 56.999,4726 L56.999,4727 L54.999,4727 Z M57,4730 C57,4730.552 56.551,4731 55.999,4731 L54.999,4731 L52.999,4731 L51.999,4731 C51.447,4731 51,4730.552 51,4730 L51,4726 C51,4725.448 51.447,4725 51.999,4725 L53,4725 L53,4727 L53,4729 L54.999,4729 L57,4729 L57,4730 Z M53,4737 L55,4737 L55,4733 L53,4733 L53,4737 Z M52.999,4723 L54.999,4723 L54.999,4721 L52.999,4721 L52.999,4723 Z M57,4723 L57,4719 L51,4719 L51,4723 C50,4723 49,4723.895 49,4725 L49,4731 C49,4732.105 50,4733 51,4733 L51,4739 L57,4739 L57,4733 C58,4733 59,4732.105 59,4731 L59,4729 L59,4727 L59,4725 C59,4723.895 58,4723 57,4723 L57,4723 Z" id="watch_round-[#757]"></path>
            </g>
        </g>
    </g>
</svg>