<?xml version="1.0" encoding="UTF-8" standalone="no"?>
<svg width="14px" height="20px" viewBox="0 0 14 20" version="1.1" xmlns="http://www.w3.org/2000/svg" xmlns:xlink="http://www.w3.org/1999/xlink">
    <!-- Generator: Sketch 3.8.1 (29687) - http://www.bohemiancoding.com/sketch -->
    <title>watch [#1201]</title>
    <desc>Created with Sketch.</desc>
    <defs></defs>
    <g id="Page-1" stroke="none" stroke-width="1" fill="none" fill-rule="evenodd">
        <g id="Dribbble-Dark-Preview" transform="translate(-103.000000, -2799.000000)" fill="#FFFFFF">
            <g id="icons" transform="translate(56.000000, 160.000000)">
                <path d="M56,2649 C56,2649.552 55.552,2650 55,2650 L52,2650 L52,2647 C52,2646.448 52.448,2646 53,2646 C53.552,2646 54,2646.448 54,2647 L54,2648 L55,2648 C55.552,2648 56,2648.448 56,2649 L56,2649 Z M57,2652 C57,2652.552 56.552,2653 56,2653 L50,2653 C49.448,2653 49,2652.552 49,2652 L49,2646 C49,2645.448 49.448,2645 50,2645 L56,2645 C56.552,2645 57,2645.448 57,2646 L57,2652 Z M51,2657 L55,2657 L55,2655 L51,2655 L51,2657 Z M51,2643 L55,2643 L55,2641 L51,2641 L51,2643 Z M59,2648 L59,2645 C59,2643.895 58.105,2643 57,2643 L57,2639 L49,2639 L49,2643 C47.895,2643 47,2643.895 47,2645 L47,2653 C47,2654.104 47.895,2655 49,2655 L49,2659 L57,2659 L57,2655 C58.105,2655 59,2654.104 59,2653 L59,2650 L61,2650 L61,2648 L59,2648 Z" id="watch-[#1201]"></path>
            </g>
        </g>
    </g>
</svg>