<?xml version="1.0" encoding="UTF-8" standalone="no"?>
<svg width="14px" height="20px" viewBox="0 0 14 20" version="1.1" xmlns="http://www.w3.org/2000/svg" xmlns:xlink="http://www.w3.org/1999/xlink">
    <!-- Generator: Sketch 3.8.1 (29687) - http://www.bohemiancoding.com/sketch -->
    <title>watch [#1204]</title>
    <desc>Created with Sketch.</desc>
    <defs></defs>
    <g id="Page-1" stroke="none" stroke-width="1" fill="none" fill-rule="evenodd">
        <g id="Dribbble-Dark-Preview" transform="translate(-383.000000, -2759.000000)" fill="#FFFFFF">
            <g id="icons" transform="translate(56.000000, 160.000000)">
                <path d="M331.699,2609.837 C329.949,2608.21 331.853,2606.463 332.923,2607.82 C332.962,2607.869 333.039,2607.868 333.078,2607.819 C334.134,2606.47 336.083,2608.204 334.265,2609.87 C332.996,2611.035 332.832,2610.891 331.699,2609.837 L331.699,2609.837 Z M329,2613 L337,2613 L337,2605 L329,2605 L329,2613 Z M331,2617 L335,2617 L335,2615 L331,2615 L331,2617 Z M331,2603 L335,2603 L335,2601 L331,2601 L331,2603 Z M339,2608 L339,2603 L337,2603 L337,2599 L329,2599 L329,2603 L327,2603 L327,2615 L329,2615 L329,2619 L337,2619 L337,2615 L339,2615 L339,2610 L341,2610 L341,2608 L339,2608 Z" id="watch-[#1204]"></path>
            </g>
        </g>
    </g>
</svg>