<?xml version="1.0" encoding="UTF-8" standalone="no"?>
<svg width="10px" height="20px" viewBox="0 0 10 20" version="1.1" xmlns="http://www.w3.org/2000/svg" xmlns:xlink="http://www.w3.org/1999/xlink">
    <!-- Generator: Sketch 3.8.1 (29687) - http://www.bohemiancoding.com/sketch -->
    <title>watch [#759]</title>
    <desc>Created with Sketch.</desc>
    <defs></defs>
    <g id="Page-1" stroke="none" stroke-width="1" fill="none" fill-rule="evenodd">
        <g id="Dribbble-Dark-Preview" transform="translate(-425.000000, -4839.000000)" fill="#FFFFFF">
            <g id="icons" transform="translate(56.000000, 160.000000)">
                <path d="M375.014,4690.816 C374.7,4690.928 374.366,4691 374.014,4691 C373.662,4691 373.328,4690.928 373.014,4690.816 C371.853,4690.402 371.007,4689.302 371.007,4688 C371.007,4686.698 372,4685.599 373,4685.185 L373,4687 L373,4689 L375.014,4689 L376.836,4689 C376.532,4689.845 375.861,4690.514 375.014,4690.816 L375.014,4690.816 Z M375,4697 L373,4697 L373,4692.9 C373,4692.965 373.657,4693 374,4693 C374.342,4693 375,4692.965 375,4692.9 L375,4697 Z M373,4681 L375,4681 L375,4683.101 C375,4683.035 374.342,4683 374,4683 C373.657,4683 373,4683.035 373,4683.101 L373,4681 Z M376.836,4687 L375.014,4687 L375.014,4685.185 C375.861,4685.487 376.532,4686.156 376.836,4687 L376.836,4687 Z M377,4684.023 L377,4679 L371,4679 L371,4684.023 C370,4684.936 369,4686.37 369,4688 C369,4689.631 370,4691.065 371,4691.978 L371,4699 L377,4699 L377,4691.978 C378,4691.065 379,4689.631 379,4688 C379,4686.37 378,4684.936 377,4684.023 L377,4684.023 Z" id="watch-[#759]"></path>
            </g>
        </g>
    </g>
</svg>