<?xml version="1.0" encoding="UTF-8" standalone="no"?>
<svg width="10px" height="20px" viewBox="0 0 10 20" version="1.1" xmlns="http://www.w3.org/2000/svg" xmlns:xlink="http://www.w3.org/1999/xlink">
    <!-- Generator: Sketch 3.8.1 (29687) - http://www.bohemiancoding.com/sketch -->
    <title>watch [#760]</title>
    <desc>Created with Sketch.</desc>
    <defs></defs>
    <g id="Page-1" stroke="none" stroke-width="1" fill="none" fill-rule="evenodd">
        <g id="Dribbble-Dark-Preview" transform="translate(-385.000000, -4839.000000)" fill="#FFFFFF">
            <g id="icons" transform="translate(56.000000, 160.000000)">
                <path d="M335,4687.441 L337,4687.441 L337,4685.441 L335,4685.441 L335,4687.441 Z M337,4691 L334.524,4691 L332.524,4691 L331,4691 L331,4685 L332.524,4685 L333,4685 L333,4687.441 L333,4689 L335,4689 L337,4689 L337,4691 Z M333,4697 L335,4697 L335,4693 L333,4693 L333,4697 Z M333,4683.441 L335,4683.441 L335,4681.441 L333,4681.441 L333,4683.441 Z M337,4683 L337,4681.441 L337,4679 L331,4679 L331,4683 L329,4683 L329,4693 L331,4693 L331,4699 L337,4699 L337,4697.441 L337,4693 L339,4693 L339,4683 L337,4683 Z" id="watch-[#760]"></path>
            </g>
        </g>
    </g>
</svg>