<?xml version="1.0" encoding="UTF-8" standalone="no"?>
<svg width="14px" height="20px" viewBox="0 0 14 20" version="1.1" xmlns="http://www.w3.org/2000/svg" xmlns:xlink="http://www.w3.org/1999/xlink">
    <!-- Generator: Sketch 3.8.1 (29687) - http://www.bohemiancoding.com/sketch -->
    <title>watch [#1203]</title>
    <desc>Created with Sketch.</desc>
    <defs></defs>
    <g id="Page-1" stroke="none" stroke-width="1" fill="none" fill-rule="evenodd">
        <g id="Dribbble-Dark-Preview" transform="translate(-423.000000, -2759.000000)" fill="#FFFFFF">
            <g id="icons" transform="translate(56.000000, 160.000000)">
                <path d="M375.121,2608.293 L374.414,2609 L375.121,2609.707 C375.512,2610.098 375.512,2610.731 375.121,2611.121 C374.73,2611.512 374.097,2611.512 373.707,2611.121 L373,2610.414 L372.293,2611.121 C371.902,2611.512 371.269,2611.512 370.878,2611.121 C370.488,2610.731 370.488,2610.098 370.878,2609.707 L371.585,2609 L370.878,2608.293 C370.488,2607.902 370.488,2607.269 370.878,2606.879 C371.269,2606.488 371.902,2606.488 372.293,2606.879 L373,2607.586 L373.707,2606.879 C374.097,2606.488 374.73,2606.488 375.121,2606.879 C375.512,2607.269 375.512,2607.902 375.121,2608.293 L375.121,2608.293 Z M377,2612 C377,2612.552 376.552,2613 376,2613 L370,2613 C369.447,2613 369,2612.552 369,2612 L369,2606 C369,2605.448 369.447,2605 370,2605 L376,2605 C376.552,2605 377,2605.448 377,2606 L377,2612 Z M371,2617 L375,2617 L375,2615 L371,2615 L371,2617 Z M371,2603 L375,2603 L375,2601 L371,2601 L371,2603 Z M379,2608 L379,2605 C379,2603.895 378.104,2603 377,2603 L377,2599 L369,2599 L369,2603 C367.895,2603 367,2603.895 367,2605 L367,2613 C367,2614.105 367.895,2615 369,2615 L369,2619 L377,2619 L377,2615 C378.104,2615 379,2614.105 379,2613 L379,2610 L381,2610 L381,2608 L379,2608 Z" id="watch-[#1203]"></path>
            </g>
        </g>
    </g>
</svg>