<?xml version="1.0" encoding="UTF-8" standalone="no"?>
<svg width="14px" height="20px" viewBox="0 0 14 20" version="1.1" xmlns="http://www.w3.org/2000/svg" xmlns:xlink="http://www.w3.org/1999/xlink">
    <!-- Generator: Sketch 3.8.1 (29687) - http://www.bohemiancoding.com/sketch -->
    <title>watch [#1198]</title>
    <desc>Created with Sketch.</desc>
    <defs></defs>
    <g id="Page-1" stroke="none" stroke-width="1" fill="none" fill-rule="evenodd">
        <g id="Dribbble-Dark-Preview" transform="translate(-223.000000, -2799.000000)" fill="#FFFFFF">
            <g id="icons" transform="translate(56.000000, 160.000000)">
                <path d="M169,2653 L177,2653 L177,2645 L169,2645 L169,2653 Z M171,2657 L175,2657 L175,2655 L171,2655 L171,2657 Z M171,2643 L175,2643 L175,2641 L171,2641 L171,2643 Z M179,2648 L179,2643 L177,2643 L177,2639 L169,2639 L169,2643 L167,2643 L167,2655 L169,2655 L169,2659 L177,2659 L177,2655 L179,2655 L179,2650 L181,2650 L181,2648 L179,2648 Z" id="watch-[#1198]"></path>
            </g>
        </g>
    </g>
</svg>