<?xml version="1.0" encoding="UTF-8" standalone="no"?>
<svg width="10px" height="20px" viewBox="0 0 10 20" version="1.1" xmlns="http://www.w3.org/2000/svg" xmlns:xlink="http://www.w3.org/1999/xlink">
    <!-- Generator: Sketch 3.8.1 (29687) - http://www.bohemiancoding.com/sketch -->
    <title>watch [#758]</title>
    <desc>Created with Sketch.</desc>
    <defs></defs>
    <g id="Page-1" stroke="none" stroke-width="1" fill="none" fill-rule="evenodd">
        <g id="Dribbble-Dark-Preview" transform="translate(-65.000000, -4879.000000)" fill="#FFFFFF">
            <g id="icons" transform="translate(56.000000, 160.000000)">
                <path d="M15,4727 L17,4727 L17,4725 L15,4725 L15,4727 Z M17,4731 L15,4731 L13,4731 L11,4731 L11,4725 L13,4725 L13,4727 L13,4729 L15,4729 L17,4729 L17,4731 Z M13,4737 L15,4737 L15,4733 L13,4733 L13,4737 Z M13,4723 L15,4723 L15,4721 L13,4721 L13,4723 Z M17,4723 L17,4719 L11,4719 L11,4723 L9,4723 L9,4733 L11,4733 L11,4739 L17,4739 L17,4733 L19,4733 L19,4729 L19,4727 L19,4723 L17,4723 Z" id="watch-[#758]"></path>
            </g>
        </g>
    </g>
</svg>