<?xml version="1.0" encoding="UTF-8" standalone="no"?>
<svg width="20px" height="20px" viewBox="0 0 20 20" version="1.1" xmlns="http://www.w3.org/2000/svg" xmlns:xlink="http://www.w3.org/1999/xlink">
    <!-- Generator: Sketch 3.8.1 (29687) - http://www.bohemiancoding.com/sketch -->
    <title>weighted_storage_cube [#60]</title>
    <desc>Created with Sketch.</desc>
    <defs></defs>
    <g id="Page-1" stroke="none" stroke-width="1" fill="none" fill-rule="evenodd">
        <g id="Dribbble-Dark-Preview" transform="translate(-380.000000, -7919.000000)" fill="#FFFFFF">
            <g id="icons" transform="translate(56.000000, 160.000000)">
                <path d="M337,7763 L337,7761 L342,7761 L342,7766 L340,7766 L340,7763 L337,7763 Z M342,7772 L342,7777 L337.125,7777 C337.056,7777 337,7776.944 337,7776.875 L337,7775 L340,7775 L340,7772 L342,7772 Z M330,7773 L338,7773 L338,7765 L330,7765 L330,7773 Z M331,7777 L326.125,7777 C326.056,7777 326,7776.944 326,7776.875 L326,7772 L328,7772 L328,7775 L331,7775 L331,7777 Z M326.125,7766 C326.056,7766 326,7765.944 326,7765.875 L326,7761 L331,7761 L331,7763 L328,7763 L328,7766 L326.125,7766 Z M344,7768 L344,7759 L335,7759 L335,7763 L333,7763 L333,7759 L324,7759 L324,7768 L328,7768 L328,7770 L324,7770 L324,7779 L333,7779 L333,7775 L335,7775 L335,7779 L344,7779 L344,7770 L340,7770 L340,7768 L344,7768 Z" id="weighted_storage_cube-[#60]"></path>
            </g>
        </g>
    </g>
</svg>