<?xml version="1.0" encoding="UTF-8" standalone="no"?>
<svg width="20px" height="20px" viewBox="0 0 20 20" version="1.1" xmlns="http://www.w3.org/2000/svg" xmlns:xlink="http://www.w3.org/1999/xlink">
    <!-- Generator: Sketch 3.8.1 (29687) - http://www.bohemiancoding.com/sketch -->
    <title>weighted_storage_cube [#62]</title>
    <desc>Created with Sketch.</desc>
    <defs></defs>
    <g id="Page-1" stroke="none" stroke-width="1" fill="none" fill-rule="evenodd">
        <g id="Dribbble-Dark-Preview" transform="translate(-300.000000, -7919.000000)" fill="#FFFFFF">
            <g id="icons" transform="translate(56.000000, 160.000000)">
                <path d="M258,7763 L257,7763 L257,7762 C257,7761.448 257.448,7761 258,7761 L261,7761 C261.552,7761 262,7761.448 262,7762 L262,7765 C262,7765.552 261.552,7766 261,7766 L260,7766 L260,7765 C260,7763.895 259.105,7763 258,7763 L258,7763 Z M261.125,7772 C261.608,7772 262,7772.392 262,7772.875 L262,7776 C262,7776.552 261.552,7777 261,7777 L258.125,7777 C257.506,7777 257,7776.494 257,7775.875 L257,7775 L258,7775 C259.105,7775 260,7774.105 260,7773 L260,7772 L261.125,7772 Z M251,7773 C250.448,7773 250,7772.552 250,7772 L250,7766 C250,7765.448 250.448,7765 251,7765 L257,7765 C257.552,7765 258,7765.448 258,7766 L258,7772 C258,7772.552 257.552,7773 257,7773 L251,7773 Z M251,7776 C251,7776.552 250.552,7777 250,7777 L247.125,7777 C246.506,7777 246,7776.494 246,7775.875 L246,7773 C246,7772.448 246.448,7772 247,7772 L248,7772 L248,7773 C248,7774.105 248.896,7775 250,7775 L251,7775 L251,7776 Z M247.125,7766 C246.506,7766 246,7765.494 246,7764.875 L246,7762 C246,7761.448 246.448,7761 247,7761 L250.125,7761 C250.608,7761 251,7761.392 251,7761.875 L251,7763 L250,7763 C248.896,7763 248,7763.895 248,7765 L248,7766 L247.125,7766 Z M262.125,7768 C263.229,7768 264,7767.105 264,7766 L264,7761 C264,7759.895 263.229,7759 262.125,7759 L257.125,7759 C256.021,7759 255,7759.895 255,7761 L255,7763 L253,7763 L253,7761 C253,7759.895 252.229,7759 251.125,7759 L246.125,7759 C245.021,7759 244,7759.895 244,7761 L244,7766 C244,7767.105 245.021,7768 246.125,7768 L248,7768 L248,7770 L246.125,7770 C245.021,7770 244,7770.895 244,7772 L244,7777 C244,7778.105 245.021,7779 246.125,7779 L251.125,7779 C252.229,7779 253,7778.105 253,7777 L253,7775 L255,7775 L255,7777 C255,7778.105 256.021,7779 257.125,7779 L262.125,7779 C263.229,7779 264,7778.105 264,7777 L264,7772 C264,7770.895 263.229,7770 262.125,7770 L260,7770 L260,7768 L262.125,7768 Z" id="weighted_storage_cube-[#62]"></path>
            </g>
        </g>
    </g>
</svg>