<?xml version="1.0" encoding="UTF-8" standalone="no"?>
<svg width="20px" height="20px" viewBox="0 0 20 20" version="1.1" xmlns="http://www.w3.org/2000/svg" xmlns:xlink="http://www.w3.org/1999/xlink">
    <!-- Generator: Sketch 3.8.1 (29687) - http://www.bohemiancoding.com/sketch -->
    <title>weighted_storage_cube [#61]</title>
    <desc>Created with Sketch.</desc>
    <defs></defs>
    <g id="Page-1" stroke="none" stroke-width="1" fill="none" fill-rule="evenodd">
        <g id="Dribbble-Dark-Preview" transform="translate(-340.000000, -7919.000000)" fill="#FFFFFF">
            <g id="icons" transform="translate(56.000000, 160.000000)">
                <path d="M297,7763 L297,7762.121 C297,7761.569 297.448,7761 298,7761 L301,7761 C301.552,7761 302,7761.569 302,7762.121 L302,7765.121 C302,7765.674 301.552,7766 301,7766 L300,7766 L300,7763 L297,7763 Z M301,7772 C301.552,7772 302,7772.569 302,7773.121 L302,7776.121 C302,7776.674 301.552,7777 301,7777 L298,7777 C297.45,7777 297,7776.671 297,7776.121 L297,7775 L300,7775 L300,7772 L301,7772 Z M290,7773 L298,7773 L298,7765 L290,7765 L290,7773 Z M291,7776.121 C291,7776.674 290.552,7777 290,7777 L287,7777 C286.45,7777 286,7776.671 286,7776.121 L286,7773.121 C286,7772.569 286.448,7772 287,7772 L288,7772 L288,7775 L291,7775 L291,7776.121 Z M286.125,7766 C286.056,7766 286,7766.065 286,7765.996 L286,7762.121 C286,7761.569 286.448,7761 287,7761 L290,7761 C290.552,7761 291,7761.569 291,7762.121 L291,7763 L288,7763 L288,7766 L286.125,7766 Z M302,7768 C303.105,7768 304,7767.226 304,7766.121 L304,7761.121 C304,7760.017 303.105,7759 302,7759 L297,7759 C295.896,7759 295,7760.017 295,7761.121 L295,7763 L293,7763 L293,7761.121 C293,7760.017 292.105,7759 291,7759 L286,7759 C284.896,7759 284,7760.017 284,7761.121 L284,7766.121 C284,7767.226 284.896,7768 286,7768 L288,7768 L288,7770 L286,7770 C284.896,7770 284,7771.017 284,7772.121 L284,7777.121 C284,7778.226 284.896,7779 286,7779 L291,7779 C292.105,7779 293,7778.226 293,7777.121 L293,7775 L295,7775 L295,7777.121 C295,7778.226 295.896,7779 297,7779 L302,7779 C303.105,7779 304,7778.226 304,7777.121 L304,7772.121 C304,7771.017 303.105,7770 302,7770 L300,7770 L300,7768 L302,7768 Z" id="weighted_storage_cube-[#61]"></path>
            </g>
        </g>
    </g>
</svg>