<?xml version="1.0" encoding="UTF-8" standalone="no"?>
<svg width="16px" height="20px" viewBox="0 0 16 20" version="1.1" xmlns="http://www.w3.org/2000/svg" xmlns:xlink="http://www.w3.org/1999/xlink">
    <!-- Generator: Sketch 3.8.1 (29687) - http://www.bohemiancoding.com/sketch -->
    <title>wheelchair [#664]</title>
    <desc>Created with Sketch.</desc>
    <defs></defs>
    <g id="Page-1" stroke="none" stroke-width="1" fill="none" fill-rule="evenodd">
        <g id="Dribbble-Dark-Preview" transform="translate(-222.000000, -5279.000000)" fill="#FFFFFF">
            <g id="icons" transform="translate(56.000000, 160.000000)">
                <path d="M179,5137 C178.449,5137 178,5136.551 178,5136 C178,5135.449 178.449,5135 179,5135 C179.551,5135 180,5135.449 180,5136 C180,5136.551 179.551,5137 179,5137 M170,5137 C168.897,5137 168,5136.103 168,5135 C168,5133.897 168.897,5133 170,5133 C171.103,5133 172,5133.897 172,5135 C172,5136.103 171.103,5137 170,5137 M180,5133.184 L180,5130 L171,5130 L171,5128 L175,5128 L175,5126 L171,5126 L171,5119 L166,5119 L166,5121 L169,5121 L169,5131.141 C167,5131.587 166,5133.138 166,5135 C166,5137.209 167.791,5139 170,5139 C172.209,5139 174,5137.209 174,5135 C174,5133.798 173.459,5132.733 172.62,5132 L178,5132 L178,5133.184 C177,5133.597 176,5134.696 176,5136 C176,5137.657 177.343,5139 179,5139 C180.657,5139 182,5137.657 182,5136 C182,5134.696 181,5133.597 180,5133.184" id="wheelchair-[#664]"></path>
            </g>
        </g>
    </g>
</svg>