<?xml version="1.0" encoding="UTF-8" standalone="no"?>
<svg width="16px" height="20px" viewBox="0 0 16 20" version="1.1" xmlns="http://www.w3.org/2000/svg" xmlns:xlink="http://www.w3.org/1999/xlink">
    <!-- Generator: Sketch 3.8.1 (29687) - http://www.bohemiancoding.com/sketch -->
    <title>wheelchair [#665]</title>
    <desc>Created with Sketch.</desc>
    <defs></defs>
    <g id="Page-1" stroke="none" stroke-width="1" fill="none" fill-rule="evenodd">
        <g id="Dribbble-Dark-Preview" transform="translate(-182.000000, -5279.000000)" fill="#FFFFFF">
            <g id="icons" transform="translate(56.000000, 160.000000)">
                <path d="M139.045636,5137 C138.494636,5137 138.045636,5136.551 138.045636,5136 C138.045636,5135.449 138.494636,5135 139.045636,5135 C139.596636,5135 140.045636,5135.449 140.045636,5136 C140.045636,5136.551 139.596636,5137 139.045636,5137 M130.045636,5137 C128.942636,5137 128.045636,5136.103 128.045636,5135 C128.045636,5133.897 128.942636,5133 130.045636,5133 C131.148636,5133 132.045636,5133.897 132.045636,5135 C132.045636,5136.103 131.148636,5137 130.045636,5137 M139.958636,5133.184 L139.958636,5132 C139.958636,5130.895 139.150636,5130 138.045636,5130 L130.958636,5130 L130.958636,5128 L134.045636,5128 C134.597636,5128 135.045636,5127.552 135.045636,5127 C135.045636,5126.448 134.597636,5126 134.045636,5126 L130.958636,5126 L130.958636,5121 C130.958636,5119.895 130.150636,5119 129.045636,5119 L127.045636,5119 C126.493636,5119 126.045636,5119.448 126.045636,5120 C126.045636,5120.552 126.493636,5121 127.045636,5121 L128.045636,5121 C128.597636,5121 128.958636,5121.448 128.958636,5122 L128.958636,5131.141 C126.958636,5131.661 125.589636,5133.684 126.111636,5135.949 C126.442636,5137.388 127.631636,5138.558 129.070636,5138.89 C131.693636,5139.496 134.034636,5137.52 134.034636,5135 C134.034636,5133.798 133.504636,5132.733 132.665636,5132 L136.862636,5132 C138.036636,5132 138.045636,5132.326 138.045636,5133.184 C136.708636,5133.659 135.801636,5135.041 136.103636,5136.6 C136.332636,5137.777 137.302636,5138.734 138.481636,5138.949 C140.386636,5139.295 142.001636,5137.841 142.001636,5136 C142.001636,5134.696 140.958636,5133.597 139.958636,5133.184" id="wheelchair-[#665]"></path>
            </g>
        </g>
    </g>
</svg>