<?xml version="1.0" encoding="UTF-8" standalone="no"?>
<svg width="20px" height="20px" viewBox="0 0 20 20" version="1.1" xmlns="http://www.w3.org/2000/svg" xmlns:xlink="http://www.w3.org/1999/xlink">
    <!-- Generator: Sketch 3.8.1 (29687) - http://www.bohemiancoding.com/sketch -->
    <title>wheel [#1295]</title>
    <desc>Created with Sketch.</desc>
    <defs></defs>
    <g id="Page-1" stroke="none" stroke-width="1" fill="none" fill-rule="evenodd">
        <g id="Dribbble-Dark-Preview" transform="translate(-340.000000, -2399.000000)" fill="#FFFFFF">
            <g id="icons" transform="translate(56.000000, 160.000000)">
                <path d="M300.232,2253.984 L295.883,2249.627 C295.948,2249.429 295.965,2249.22 295.965,2249 C295.965,2248.287 296,2247.666 295,2247.311 L295,2241.079 C299,2241.601 301.969,2244.95 301.969,2249 C301.969,2250.884 301.326,2252.615 300.232,2253.984 M294,2257 C289.929,2257 286.565,2253.94 286.07,2250 L292.278,2250 C292.702,2250.729 293.533,2251.133 294.395,2250.96 L298.812,2255.376 C297.471,2256.391 295.807,2257 294,2257 M293,2241.06 L293,2247.244 C293,2247.419 292.464,2247.68 292.278,2248 L286.07,2248 C286.526,2244.368 289,2241.488 293,2241.06 M294,2239 C288.478,2239 284,2243.477 284,2249 C284,2254.523 288.478,2259 294,2259 C299.523,2259 304,2254.523 304,2249 C304,2243.477 299.523,2239 294,2239" id="wheel-[#1295]"></path>
            </g>
        </g>
    </g>
</svg>