<?xml version="1.0" encoding="UTF-8" standalone="no"?>
<svg width="20px" height="20px" viewBox="0 0 20 20" version="1.1" xmlns="http://www.w3.org/2000/svg" xmlns:xlink="http://www.w3.org/1999/xlink">
    <!-- Generator: Sketch 3.8.1 (29687) - http://www.bohemiancoding.com/sketch -->
    <title>wheel [#115]</title>
    <desc>Created with Sketch.</desc>
    <defs></defs>
    <g id="Page-1" stroke="none" stroke-width="1" fill="none" fill-rule="evenodd">
        <g id="Dribbble-Dark-Preview" transform="translate(-180.000000, -7719.000000)" fill="#FFFFFF">
            <g id="icons" transform="translate(56.000000, 160.000000)">
                <path d="M134,7577 C129.927,7577 126.556,7574 126.063,7570 L130.126,7570 C130.57,7572 132.136,7573 134,7573 C135.864,7573 137.43,7572 137.874,7570 L141.937,7570 C141.444,7574 138.073,7577 134,7577 M134,7561 C138.073,7561 141.444,7564 141.937,7568 L137.874,7568 C137.43,7566 135.864,7565 134,7565 C132.136,7565 130.57,7566 130.126,7568 L126.063,7568 C126.556,7564 129.927,7561 134,7561 M134,7559 C128.477,7559 124,7563.477 124,7569 C124,7574.523 128.477,7579 134,7579 C139.523,7579 144,7574.523 144,7569 C144,7563.477 139.523,7559 134,7559" id="wheel-[#115]"></path>
            </g>
        </g>
    </g>
</svg>