<?xml version="1.0" encoding="UTF-8" standalone="no"?>
<svg width="22px" height="22px" viewBox="0 0 22 22" version="1.1" xmlns="http://www.w3.org/2000/svg" xmlns:xlink="http://www.w3.org/1999/xlink">
    <!-- Generator: Sketch 3.8.1 (29687) - http://www.bohemiancoding.com/sketch -->
    <title>wifi_missing_plus_round [#1035]</title>
    <desc>Created with Sketch.</desc>
    <defs></defs>
    <g id="Page-1" stroke="none" stroke-width="1" fill="none" fill-rule="evenodd">
        <g id="Dribbble-Dark-Preview" transform="translate(-180.000000, -3599.000000)" fill="#FFFFFF">
            <g id="icons" transform="translate(56.000000, 160.000000)">
                <path d="M143,3445.076 C142.448,3445.076 142,3445.52187 142,3446.07125 L142,3452.04275 C142,3452.59213 142.448,3453.038 143,3453.038 C143.552,3453.038 144,3452.59213 144,3452.04275 L144,3446.07125 C144,3445.52187 143.552,3445.076 143,3445.076 M141,3441.095 C141.552,3441.095 142,3441.54087 142,3442.09025 C142,3442.63963 142.448,3443.0855 143,3443.0855 C143.552,3443.0855 144,3442.63963 144,3442.09025 L144,3441.095 C144,3439.99525 143.105,3439 142,3439 L141,3439 C140.448,3439 140,3439.49762 140,3440.048 C140,3440.59738 140.448,3441.095 141,3441.095 M125,3453.038 C125.552,3453.038 126,3452.59213 126,3452.04275 L126,3446.07125 C126,3445.52187 125.552,3445.076 125,3445.076 C124.448,3445.076 124,3445.52187 124,3446.07125 L124,3452.04275 C124,3452.59213 124.448,3453.038 125,3453.038 M127,3457.019 C126.448,3457.019 126,3456.57313 126,3456.02375 C126,3455.47437 125.552,3455.0285 125,3455.0285 C124.448,3455.0285 124,3455.47437 124,3456.02375 L124,3457.019 C124,3458.11875 124.895,3458.905 126,3458.905 L127,3458.905 C127.552,3458.905 128,3458.51188 128,3457.9625 C128,3457.41212 127.552,3457.019 127,3457.019 M125,3443.0855 C125.552,3443.0855 126,3442.63963 126,3442.09025 C126,3441.54087 126.448,3441.095 127,3441.095 C127.552,3441.095 128,3440.59738 128,3440.048 C128,3439.49762 127.552,3439 127,3439 L126,3439 C124.895,3439 124,3439.99525 124,3441.095 L124,3442.09025 C124,3442.63963 124.448,3443.0855 125,3443.0855 M145,3456.9145 L144,3456.9145 L144,3456.02375 C144,3455.47437 143.552,3455.0285 143,3455.0285 C142.448,3455.0285 142,3455.47437 142,3456.02375 L142,3456.9145 L141,3456.9145 C140.448,3456.9145 140,3457.36037 140,3457.90975 C140,3458.46012 140.448,3458.905 141,3458.905 L142,3458.905 L142,3460.00475 C142,3460.55413 142.448,3461 143,3461 C143.552,3461 144,3460.55413 144,3460.00475 L144,3458.905 L145,3458.905 C145.552,3458.905 146,3458.46012 146,3457.90975 C146,3457.36037 145.552,3456.9145 145,3456.9145 M137,3456.9145 L131,3456.9145 C130.448,3456.9145 130,3457.36037 130,3457.90975 C130,3458.46012 130.448,3458.905 131,3458.905 L137,3458.905 C137.552,3458.905 138,3458.46012 138,3457.90975 C138,3457.36037 137.552,3456.9145 137,3456.9145 M131,3440.9905 L137,3440.9905 C137.552,3440.9905 138,3440.54562 138,3439.99525 C138,3439.44587 137.552,3439 137,3439 L131,3439 C130.448,3439 130,3439.44587 130,3439.99525 C130,3440.54562 130.448,3440.9905 131,3440.9905 M134.679,3453.53563 L135.386,3452.83198 C134.605,3452.05469 133.339,3452.05469 132.558,3452.83198 L133.265,3453.53563 C133.655,3453.92477 134.289,3453.92477 134.679,3453.53563 M129.729,3450.01642 L131.144,3451.4247 C132.703,3449.87211 135.241,3449.87211 136.8,3451.4247 L138.215,3450.01642 C135.871,3447.68455 132.073,3447.68455 129.729,3450.01642 M140.292,3447.94929 L139.629,3448.60914 C136.505,3445.49998 131.439,3445.49998 128.315,3448.60914 L127.652,3447.94929 C127.228,3447.5273 127.27,3446.82864 127.739,3446.45542 C131.376,3443.56422 136.568,3443.56422 140.205,3446.45542 C140.674,3446.82864 140.716,3447.5273 140.292,3447.94929" id="wifi_missing_plus_round-[#1035]"></path>
            </g>
        </g>
    </g>
</svg>