<?xml version="1.0" encoding="UTF-8" standalone="no"?>
<svg width="23px" height="22px" viewBox="0 0 23 22" version="1.1" xmlns="http://www.w3.org/2000/svg" xmlns:xlink="http://www.w3.org/1999/xlink">
    <!-- Generator: Sketch 3.8.1 (29687) - http://www.bohemiancoding.com/sketch -->
    <title>wifi [#1040]</title>
    <desc>Created with Sketch.</desc>
    <defs></defs>
    <g id="Page-1" stroke="none" stroke-width="1" fill="none" fill-rule="evenodd">
        <g id="Dribbble-Dark-Preview" transform="translate(-380.000000, -3559.000000)" fill="#FFFFFF">
            <g id="icons" transform="translate(56.000000, 160.000000)">
                <path d="M342.179,3413 L344.179,3413 L344.179,3405 L342.179,3405 L342.179,3413 Z M344.179,3417 L344.179,3415 L342.179,3415 L342.179,3417 L340.179,3417 L340.179,3419 L342.179,3419 L342.179,3421 L344.179,3421 L344.179,3419 L346.179,3419 L346.179,3417 L344.179,3417 Z M342.179,3403 L344.179,3403 L344.179,3399 L340.179,3399 L340.179,3401 L342.179,3401 L342.179,3403 Z M324.179,3413 L326.179,3413 L326.179,3405 L324.179,3405 L324.179,3413 Z M326.179,3415 L324.179,3415 L324.179,3419 L328.179,3419 L328.179,3417 L326.179,3417 L326.179,3415 Z M326.179,3401 L328.179,3401 L328.179,3399 L324.179,3399 L324.179,3403 L326.179,3403 L326.179,3401 Z M330.179,3419 L338.179,3419 L338.179,3417 L330.179,3417 L330.179,3419 Z M330.179,3401 L338.179,3401 L338.179,3399 L330.179,3399 L330.179,3401 Z M332.908,3412.69 L334.322,3414.104 L335.736,3412.69 C334.955,3411.909 333.689,3411.909 332.908,3412.69 L332.908,3412.69 Z M330.079,3409.862 L331.494,3411.276 C333.053,3409.716 335.591,3409.716 337.15,3411.276 L338.565,3409.862 C336.221,3407.519 332.423,3407.519 330.079,3409.862 L330.079,3409.862 Z M341.393,3407.033 L339.979,3408.448 C336.86,3405.328 331.784,3405.328 328.665,3408.448 L327.251,3407.033 C331.156,3403.128 337.488,3403.128 341.393,3407.033 L341.393,3407.033 Z" id="wifi-[#1040]"></path>
            </g>
        </g>
    </g>
</svg>