<?xml version="1.0" encoding="UTF-8" standalone="no"?>
<svg width="20px" height="20px" viewBox="0 0 20 20" version="1.1" xmlns="http://www.w3.org/2000/svg" xmlns:xlink="http://www.w3.org/1999/xlink">
    <!-- Generator: Sketch 3.8.1 (29687) - http://www.bohemiancoding.com/sketch -->
    <title>wifi_focus [#1036]</title>
    <desc>Created with Sketch.</desc>
    <defs></defs>
    <g id="Page-1" stroke="none" stroke-width="1" fill="none" fill-rule="evenodd">
        <g id="Dribbble-Dark-Preview" transform="translate(-140.000000, -3599.000000)" fill="#FFFFFF">
            <g id="icons" transform="translate(56.000000, 160.000000)">
                <path d="M96,3439 L96,3441 L102,3441 L102,3447 L104,3447 L104,3439 L96,3439 Z M102,3457 L96,3457 L96,3459 L104,3459 L104,3451 L102,3451 L102,3457 Z M86,3451 L84,3451 L84,3459 L92,3459 L92,3457 L86,3457 L86,3451 Z M86,3441 L92,3441 L92,3439 L84,3439 L84,3447 L86,3447 L86,3441 Z M92.729,3452.69 L94.143,3454.105 L95.557,3452.69 C94.776,3451.909 93.51,3451.909 92.729,3452.69 L92.729,3452.69 Z M89.9,3449.862 L91.315,3451.276 C92.874,3449.717 95.412,3449.717 96.971,3451.276 L98.386,3449.862 C96.042,3447.519 92.244,3447.519 89.9,3449.862 L89.9,3449.862 Z M99.8,3448.448 C96.681,3445.329 91.605,3445.329 88.486,3448.448 L87.072,3447.034 C90.977,3443.128 97.309,3443.128 101.214,3447.034 L99.8,3448.448 Z" id="wifi_focus-[#1036]"></path>
            </g>
        </g>
    </g>
</svg>