<?xml version="1.0" encoding="UTF-8" standalone="no"?>
<svg width="20px" height="20px" viewBox="0 0 20 20" version="1.1" xmlns="http://www.w3.org/2000/svg" xmlns:xlink="http://www.w3.org/1999/xlink">
    <!-- Generator: Sketch 3.8.1 (29687) - http://www.bohemiancoding.com/sketch -->
    <title>wifi_cover [#1032]</title>
    <desc>Created with Sketch.</desc>
    <defs></defs>
    <g id="Page-1" stroke="none" stroke-width="1" fill="none" fill-rule="evenodd">
        <g id="Dribbble-Dark-Preview" transform="translate(-300.000000, -3599.000000)" fill="#FFFFFF">
            <g id="icons" transform="translate(56.000000, 160.000000)">
                <path d="M255.557,3452.69 L254.143,3454.104 L252.729,3452.69 C253.51,3451.909 254.776,3451.909 255.557,3452.69 L255.557,3452.69 Z M258.385,3449.862 L256.971,3451.276 C255.412,3449.716 252.874,3449.716 251.314,3451.276 L249.9,3449.862 C252.243,3447.518 256.042,3447.518 258.385,3449.862 L258.385,3449.862 Z M248.486,3448.447 L247.072,3447.033 C250.977,3443.128 257.309,3443.128 261.214,3447.033 L259.8,3448.447 C256.68,3445.328 251.605,3445.328 248.486,3448.447 L248.486,3448.447 Z M246,3457 L262,3457 L262,3441 L246,3441 L246,3457 Z M244,3459 L264,3459 L264,3439 L244,3439 L244,3459 Z" id="wifi_cover-[#1032]"></path>
            </g>
        </g>
    </g>
</svg>