<?xml version="1.0" encoding="UTF-8" standalone="no"?>
<svg width="20px" height="20px" viewBox="0 0 20 20" version="1.1" xmlns="http://www.w3.org/2000/svg" xmlns:xlink="http://www.w3.org/1999/xlink">
    <!-- Generator: Sketch 3.8.1 (29687) - http://www.bohemiancoding.com/sketch -->
    <title>wifi_focus [#1039]</title>
    <desc>Created with Sketch.</desc>
    <defs></defs>
    <g id="Page-1" stroke="none" stroke-width="1" fill="none" fill-rule="evenodd">
        <g id="Dribbble-Dark-Preview" transform="translate(-420.000000, -3559.000000)" fill="#FFFFFF">
            <g id="icons" transform="translate(56.000000, 160.000000)">
                <path d="M382.5,3399 L377,3399 C376.448,3399 376,3399.448 376,3400 C376,3400.552 376.448,3401 377,3401 L381,3401 C381.552,3401 382,3401.552 382,3402.105 L382,3406.105 C382,3406.657 382.448,3407.105 383,3407.105 C383.552,3407.105 384,3406.657 384,3406.105 L384,3400.605 C384,3399.776 383.328,3399 382.5,3399 L382.5,3399 Z M383,3411.105 C382.448,3411.105 382,3411.552 382,3412.105 L382,3416.105 C382,3416.657 381.552,3417 381,3417 L377,3417 C376.448,3417 376,3417.448 376,3418 C376,3418.552 376.448,3419 377,3419 L382.5,3419 C383.328,3419 384,3418.433 384,3417.605 L384,3412.105 C384,3411.552 383.552,3411.105 383,3411.105 L383,3411.105 Z M371,3417 L367,3417 C366.448,3417 366,3416.657 366,3416.105 L366,3412.105 C366,3411.552 365.552,3411.105 365,3411.105 C364.448,3411.105 364,3411.552 364,3412.105 L364,3417.605 C364,3418.433 364.672,3419 365.5,3419 L371,3419 C371.552,3419 372,3418.552 372,3418 C372,3417.448 371.552,3417 371,3417 L371,3417 Z M365,3407.105 C365.552,3407.105 366,3406.657 366,3406.105 L366,3402.105 C366,3401.552 366.448,3401 367,3401 L371,3401 C371.552,3401 372,3400.552 372,3400 C372,3399.448 371.552,3399 371,3399 L365.5,3399 C364.672,3399 364,3399.776 364,3400.605 L364,3406.105 C364,3406.657 364.448,3407.105 365,3407.105 L365,3407.105 Z M372.558,3412.898 L373.265,3413.605 C373.655,3413.995 374.289,3413.995 374.679,3413.605 L375.386,3412.898 C374.605,3412.116 373.339,3412.117 372.558,3412.898 L372.558,3412.898 Z M369.729,3410.069 L371.144,3411.483 C372.703,3409.924 375.241,3409.924 376.8,3411.483 L378.215,3410.069 C375.871,3407.726 372.073,3407.726 369.729,3410.069 L369.729,3410.069 Z M379.629,3408.655 C376.505,3405.531 371.439,3405.531 368.315,3408.655 L367.652,3407.992 C367.228,3407.568 367.27,3406.865 367.739,3406.491 C371.375,3403.586 376.568,3403.586 380.205,3406.491 C380.674,3406.865 380.716,3407.568 380.292,3407.992 L379.629,3408.655 Z" id="wifi_focus-[#1039]"></path>
            </g>
        </g>
    </g>
</svg>