<?xml version="1.0" encoding="UTF-8" standalone="no"?>
<svg width="20px" height="20px" viewBox="0 0 20 20" version="1.1" xmlns="http://www.w3.org/2000/svg" xmlns:xlink="http://www.w3.org/1999/xlink">
    <!-- Generator: Sketch 3.8.1 (29687) - http://www.bohemiancoding.com/sketch -->
    <title>wifi_cover [#1033]</title>
    <desc>Created with Sketch.</desc>
    <defs></defs>
    <g id="Page-1" stroke="none" stroke-width="1" fill="none" fill-rule="evenodd">
        <g id="Dribbble-Dark-Preview" transform="translate(-260.000000, -3599.000000)" fill="#FFFFFF">
            <g id="icons" transform="translate(56.000000, 160.000000)">
                <path d="M215.386,3452.898 L214.679,3453.605 C214.288,3453.996 213.655,3453.996 213.265,3453.605 L212.558,3452.898 C213.339,3452.117 214.605,3452.117 215.386,3452.898 L215.386,3452.898 Z M218.214,3450.07 L216.8,3451.484 C215.241,3449.924 212.703,3449.924 211.143,3451.484 L209.729,3450.07 C212.072,3447.726 215.871,3447.726 218.214,3450.07 L218.214,3450.07 Z M220.204,3446.491 C220.673,3446.866 220.716,3447.568 220.292,3447.992 L219.629,3448.655 C216.504,3445.531 211.439,3445.531 208.315,3448.655 L207.652,3447.992 C207.228,3447.568 207.27,3446.866 207.739,3446.491 C211.375,3443.586 216.568,3443.586 220.204,3446.491 L220.204,3446.491 Z M222,3456 C222,3456.553 221.552,3457 221,3457 L207,3457 C206.448,3457 206,3456.553 206,3456 L206,3442 C206,3441.448 206.448,3441 207,3441 L221,3441 C221.552,3441 222,3441.448 222,3442 L222,3456 Z M222,3439 L206,3439 C204.895,3439 204,3439.896 204,3441 L204,3457 C204,3458.105 204.895,3459 206,3459 L222,3459 C223.104,3459 224,3458.105 224,3457 L224,3441 C224,3439.896 223.104,3439 222,3439 L222,3439 Z" id="wifi_cover-[#1033]"></path>
            </g>
        </g>
    </g>
</svg>