<?xml version="1.0" encoding="UTF-8" standalone="no"?>
<svg width="20px" height="20px" viewBox="0 0 20 20" version="1.1" xmlns="http://www.w3.org/2000/svg" xmlns:xlink="http://www.w3.org/1999/xlink">
    <!-- Generator: Sketch 3.8.1 (29687) - http://www.bohemiancoding.com/sketch -->
    <title>wifi [#1011]</title>
    <desc>Created with Sketch.</desc>
    <defs></defs>
    <g id="Page-1" stroke="none" stroke-width="1" fill="none" fill-rule="evenodd">
        <g id="Dribbble-Dark-Preview" transform="translate(-340.000000, -3679.000000)" fill="#FFFFFF">
            <g id="icons" transform="translate(56.000000, 160.000000)">
                <path d="M292.586,3532.69 L294,3534.104 L295.414,3532.69 C294.633,3531.909 293.367,3531.909 292.586,3532.69 L292.586,3532.69 Z M289.758,3529.862 L291.172,3531.276 C292.731,3529.716 295.269,3529.716 296.829,3531.276 L298.243,3529.862 C295.9,3527.518 292.101,3527.518 289.758,3529.862 L289.758,3529.862 Z M286.929,3527.033 L288.343,3528.447 C291.463,3525.328 296.538,3525.328 299.657,3528.447 L301.071,3527.033 C297.166,3523.128 290.834,3523.128 286.929,3527.033 L286.929,3527.033 Z M302,3533 L304,3533 L304,3525 L302,3525 L302,3533 L302,3533 Z M302,3537 L300,3537 L300,3539 L304,3539 L304,3535 L302,3535 L302,3537 L302,3537 Z M300,3519 L300,3521 L302,3521 L302,3523 L304,3523 L304,3519 L300,3519 L300,3519 Z M284,3533 L286,3533 L286,3525 L284,3525 L284,3533 L284,3533 Z M286,3535 L284,3535 L284,3539 L288,3539 L288,3537 L286,3537 L286,3535 L286,3535 Z M286,3521 L288,3521 L288,3519 L284,3519 L284,3523 L286,3523 L286,3521 L286,3521 Z M290,3539 L298,3539 L298,3537 L290,3537 L290,3539 L290,3539 Z M290,3521 L298,3521 L298,3519 L290,3519 L290,3521 L290,3521 Z" id="wifi-[#1011]"></path>
            </g>
        </g>
    </g>
</svg>