<?xml version="1.0" encoding="UTF-8" standalone="no"?>
<svg width="20px" height="14px" viewBox="0 0 20 14" version="1.1" xmlns="http://www.w3.org/2000/svg" xmlns:xlink="http://www.w3.org/1999/xlink">
    <!-- Generator: Sketch 3.8.1 (29687) - http://www.bohemiancoding.com/sketch -->
    <title>wifi [#1020]</title>
    <desc>Created with Sketch.</desc>
    <defs></defs>
    <g id="Page-1" stroke="none" stroke-width="1" fill="none" fill-rule="evenodd">
        <g id="Dribbble-Dark-Preview" transform="translate(-380.000000, -3642.000000)" fill="#FFFFFF">
            <g id="icons" transform="translate(56.000000, 160.000000)">
                <path d="M332.57114,3494.586 L333.999495,3496 L335.42785,3494.586 C334.638921,3493.805 333.360069,3493.805 332.57114,3494.586 M329.71443,3491.758 L331.142785,3493.172 C332.717612,3491.612 335.281378,3491.612 336.857215,3493.172 L338.28557,3491.758 C335.918784,3489.414 332.081216,3489.414 329.71443,3491.758 M324,3486.101 L325.428355,3487.515 C330.154856,3482.836 337.845144,3482.836 342.570635,3487.515 L344,3486.101 C338.476489,3480.633 329.522501,3480.633 324,3486.101 M341.14228,3488.929 L339.713925,3490.343 C336.563261,3487.224 331.436739,3487.224 328.285065,3490.343 L326.85671,3488.929 C330.801354,3485.024 337.197636,3485.024 341.14228,3488.929" id="wifi-[#1020]"></path>
            </g>
        </g>
    </g>
</svg>