<?xml version="1.0" encoding="UTF-8" standalone="no"?>
<svg width="20px" height="20px" viewBox="0 0 20 20" version="1.1" xmlns="http://www.w3.org/2000/svg" xmlns:xlink="http://www.w3.org/1999/xlink">
    <!-- Generator: Sketch 3.8.1 (29687) - http://www.bohemiancoding.com/sketch -->
    <title>wifi_round [#1034]</title>
    <desc>Created with Sketch.</desc>
    <defs></defs>
    <g id="Page-1" stroke="none" stroke-width="1" fill="none" fill-rule="evenodd">
        <g id="Dribbble-Dark-Preview" transform="translate(-220.000000, -3599.000000)" fill="#FFFFFF">
            <g id="icons" transform="translate(56.000000, 160.000000)">
                <path d="M183,3445.105 C182.448,3445.105 182,3445.553 182,3446.105 L182,3452.105 C182,3452.657 182.448,3453.105 183,3453.105 C183.552,3453.105 184,3452.657 184,3452.105 L184,3446.105 C184,3445.553 183.552,3445.105 183,3445.105 M183.072,3455.105 C182.519,3455.105 182.107,3455.553 182.107,3456.105 C182.107,3456.657 181.677,3457.105 181.125,3457.105 C180.573,3457.105 180.134,3457.5 180.134,3458.053 C180.134,3458.605 180.591,3459 181.143,3459 L182.143,3459 C183.248,3459 184,3458.21 184,3457.105 L184,3456.105 C184,3455.553 183.624,3455.105 183.072,3455.105 M182.143,3439 L181.143,3439 C180.591,3439 180.143,3439.5 180.143,3440.053 C180.143,3440.605 180.591,3441.079 181.143,3441.079 C181.695,3441.079 182.143,3441.54 182.143,3442.092 C182.143,3442.644 182.519,3443.098 183.072,3443.098 C183.624,3443.098 184,3442.657 184,3442.105 L184,3441.105 C184,3440 183.248,3439 182.143,3439 M165,3453.105 C165.552,3453.105 166,3452.657 166,3452.105 L166,3446.105 C166,3445.553 165.552,3445.105 165,3445.105 C164.448,3445.105 164,3445.553 164,3446.105 L164,3452.105 C164,3452.657 164.448,3453.105 165,3453.105 M167.143,3457.105 C166.591,3457.105 166.143,3456.657 166.143,3456.105 C166.143,3455.553 165.624,3455.105 165.072,3455.105 C164.519,3455.105 164,3455.553 164,3456.105 L164,3457.105 C164,3458.21 165.038,3459 166.143,3459 L167.143,3459 C167.695,3459 168.143,3458.605 168.143,3458.053 C168.143,3457.5 167.695,3457.105 167.143,3457.105 M165.072,3443.105 C165.624,3443.105 166.107,3442.657 166.107,3442.105 C166.107,3441.553 166.573,3441.105 167.125,3441.105 C167.677,3441.105 168.134,3440.605 168.134,3440.053 C168.134,3439.5 167.695,3439 167.143,3439 L166.143,3439 C165.038,3439 164,3440 164,3441.105 L164,3442.105 C164,3442.657 164.519,3443.105 165.072,3443.105 M177.143,3457 L171.143,3457 C170.591,3457 170.143,3457.448 170.143,3458 C170.143,3458.553 170.591,3459 171.143,3459 L177.143,3459 C177.695,3459 178.143,3458.553 178.143,3458 C178.143,3457.448 177.695,3457 177.143,3457 M171.143,3441 L177.143,3441 C177.695,3441 178.143,3440.553 178.143,3440 C178.143,3439.448 177.695,3439 177.143,3439 L171.143,3439 C170.591,3439 170.143,3439.448 170.143,3440 C170.143,3440.553 170.591,3441 171.143,3441 M174.822,3453.605 L175.529,3452.898 C174.748,3452.117 173.482,3452.117 172.701,3452.898 L173.408,3453.605 C173.798,3453.996 174.432,3453.996 174.822,3453.605 M169.872,3450.069 L171.287,3451.484 C172.846,3449.924 175.384,3449.924 176.943,3451.484 L178.358,3450.069 C176.014,3447.726 172.216,3447.726 169.872,3450.069 M180.435,3447.992 L179.772,3448.655 C176.648,3445.531 171.582,3445.531 168.458,3448.655 L167.795,3447.992 C167.371,3447.568 167.413,3446.866 167.882,3446.491 C171.518,3443.586 176.711,3443.586 180.348,3446.491 C180.817,3446.866 180.859,3447.568 180.435,3447.992" id="wifi_round-[#1034]"></path>
            </g>
        </g>
    </g>
</svg>