<?xml version="1.0" encoding="UTF-8" standalone="no"?>
<svg width="21px" height="18px" viewBox="0 0 21 18" version="1.1" xmlns="http://www.w3.org/2000/svg" xmlns:xlink="http://www.w3.org/1999/xlink">
    <!-- Generator: Sketch 3.8.1 (29687) - http://www.bohemiancoding.com/sketch -->
    <title>window_minus [#1464]</title>
    <desc>Created with Sketch.</desc>
    <defs></defs>
    <g id="Page-1" stroke="none" stroke-width="1" fill="none" fill-rule="evenodd">
        <g id="Dribbble-Dark-Preview" transform="translate(-299.000000, -442.000000)" fill="#FFFFFF">
            <g id="icons" transform="translate(56.000000, 160.000000)">
                <path d="M262.95,282 L258.75,282 C258.1704,282 257.7,282.448 257.7,283 C257.7,283.552 258.1704,284 258.75,284 L262.95,284 C263.5296,284 264,283.552 264,283 C264,282.448 263.5296,282 262.95,282 M261.9,289.064 L261.9,298.064 L261.9,298.127 C261.9,299.197 261.05895,300 259.93545,300 L259.87035,300 L245.17035,300 L245.1042,300 C243.9807,300 243,299.197 243,298.127 L243,298.064 L243,284.002 C243,282.932 243.9807,282 245.1042,282 L254.62035,282 C255.19995,282 255.6,282.464 255.6,283.016 L255.6,283.032 C255.6,283.584 255.19995,284 254.62035,284 L246.22035,284 C245.6397,284 245.1,284.512 245.1,285.064 L245.1,297.064 C245.1,297.617 245.6397,298 246.22035,298 L258.82035,298 C259.39995,298 259.8,297.617 259.8,297.064 L259.8,289.064 C259.8,288.512 260.2872,288 260.86785,288 L260.88465,288 C261.4653,288 261.9,288.512 261.9,289.064" id="window_minus-[#1464]"></path>
            </g>
        </g>
    </g>
</svg>