<?xml version="1.0" encoding="UTF-8" standalone="no"?>
<svg width="21px" height="20px" viewBox="0 0 21 20" version="1.1" xmlns="http://www.w3.org/2000/svg" xmlns:xlink="http://www.w3.org/1999/xlink">
    <!-- Generator: Sketch 3.8.1 (29687) - http://www.bohemiancoding.com/sketch -->
    <title>window_plus [#1463]</title>
    <desc>Created with Sketch.</desc>
    <defs></defs>
    <g id="Page-1" stroke="none" stroke-width="1" fill="none" fill-rule="evenodd">
        <g id="Dribbble-Dark-Preview" transform="translate(-339.000000, -440.000000)" fill="#FFFFFF">
            <g id="icons" transform="translate(56.000000, 160.000000)">
                <path d="M302.95,282 L301.9,282 L301.9,281 C301.9,280.448 301.4296,280 300.85,280 C300.2704,280 299.8,280.448 299.8,281 L299.8,282 L298.75,282 C298.1704,282 297.7,282.448 297.7,283 C297.7,283.552 298.1704,284 298.75,284 L299.8,284 L299.8,285 C299.8,285.552 300.2704,286 300.85,286 C301.4296,286 301.9,285.552 301.9,285 L301.9,284 L302.95,284 C303.5296,284 304,283.552 304,283 C304,282.448 303.5296,282 302.95,282 M301.9,289.064 L301.9,298.064 L301.9,298.127 C301.9,299.197 301.05895,300 299.93545,300 L299.87035,300 L285.17035,300 L285.1042,300 C283.9807,300 283,299.197 283,298.127 L283,298.064 L283,284.002 C283,282.932 283.9807,282 285.1042,282 L294.62035,282 C295.19995,282 295.6,282.464 295.6,283.016 L295.6,283.032 C295.6,283.584 295.19995,284 294.62035,284 L286.22035,284 C285.6397,284 285.1,284.512 285.1,285.064 L285.1,297.064 C285.1,297.617 285.6397,298 286.22035,298 L298.82035,298 C299.39995,298 299.8,297.617 299.8,297.064 L299.8,289.064 C299.8,288.512 300.2872,288 300.86785,288 L300.88465,288 C301.4653,288 301.9,288.512 301.9,289.064" id="window_plus-[#1463]"></path>
            </g>
        </g>
    </g>
</svg>