<?xml version="1.0" encoding="UTF-8" standalone="no"?>
<svg width="20px" height="20px" viewBox="0 0 20 20" version="1.1" xmlns="http://www.w3.org/2000/svg" xmlns:xlink="http://www.w3.org/1999/xlink">
    <!-- Generator: Sketch 3.8.1 (29687) - http://www.bohemiancoding.com/sketch -->
    <title>winter_is_coming [#1258]</title>
    <desc>Created with Sketch.</desc>
    <defs></defs>
    <g id="Page-1" stroke="none" stroke-width="1" fill="none" fill-rule="evenodd">
        <g id="Dribbble-Dark-Preview" transform="translate(-220.000000, -2559.000000)" fill="#FFFFFF">
            <g id="icons" transform="translate(56.000000, 160.000000)">
                <path d="M174,2411 C172.897,2411 172,2410.103 172,2409 C172,2407.897 172.897,2407 174,2407 C175.103,2407 176,2407.897 176,2409 C176,2410.103 175.103,2411 174,2411 L174,2411 Z M184,2408 L184,2406 L182,2406 L182,2407 L181,2408 L177.859,2408 C177.771,2407.662 177.639,2407.345 177.471,2407.048 L179.657,2405 L181.071,2405 L181.778,2405.586 L183.192,2404.025 L181.778,2402.464 L181.071,2403 L180,2403 L180,2401.929 L180.536,2401.222 L179.036,2399.808 L177.457,2401.222 L178,2401.929 L178,2403.343 L175.923,2405.513 C175.634,2405.353 175.327,2405.226 175,2405.141 L175,2402 L176,2401 L177,2401 L177,2399 L175,2399 L175,2400 L174,2401 L173,2400 L173,2399 L171,2399 L171,2401 L172,2401 L173,2402 L173,2405.141 C172.662,2405.229 172.345,2405.361 172.048,2405.529 L170,2403.343 L170,2401.929 L170.586,2401.222 L169.025,2399.808 L167.464,2401.222 L168,2401.929 L168,2403 L166.929,2403 L166.222,2402.464 L164.808,2403.964 L166.222,2405.543 L166.929,2405 L168.343,2405 L170.513,2407.077 C170.353,2407.366 170.226,2407.673 170.141,2408 L167,2408 L166,2407 L166,2406 L164,2406 L164,2408 L165,2408 L166,2409 L165,2410 L164,2410 L164,2412 L166,2412 L166,2411 L167,2410 L170.141,2410 C170.229,2410.338 170.361,2410.655 170.529,2410.952 L168.343,2413 L166.929,2413 L166.222,2412.414 L164.808,2413.975 L166.222,2415.536 L166.929,2415 L168,2415 L168,2416.071 L167.464,2416.778 L168.964,2418.192 L170.543,2416.778 L170,2416.071 L170,2414.657 L172.077,2412.487 C172.366,2412.647 172.673,2412.774 173,2412.859 L173,2416 L172,2417 L171,2417 L171,2419 L173,2419 L173,2418 L174,2417 L175,2418 L175,2419 L177,2419 L177,2417 L176,2417 L175,2416 L175,2412.859 C175.338,2412.771 175.655,2412.639 175.952,2412.471 L178,2414.657 L178,2416.071 L177.414,2416.778 L178.975,2418.192 L180.536,2416.778 L180,2416.071 L180,2415 L181.071,2415 L181.778,2415.536 L183.192,2414.036 L181.778,2412.457 L181.071,2413 L179.657,2413 L177.487,2410.923 C177.647,2410.634 177.774,2410.327 177.859,2410 L181,2410 L182,2411 L182,2412 L184,2412 L184,2410 L183,2410 L182,2409 L183,2408 L184,2408 Z" id="winter_is_coming-[#1258]"></path>
            </g>
        </g>
    </g>
</svg>