<?xml version="1.0" encoding="UTF-8" standalone="no"?>
<svg width="20px" height="20px" viewBox="0 0 20 20" version="1.1" xmlns="http://www.w3.org/2000/svg" xmlns:xlink="http://www.w3.org/1999/xlink">
    <!-- Generator: Sketch 3.8.1 (29687) - http://www.bohemiancoding.com/sketch -->
    <title>wordpress [#139]</title>
    <desc>Created with Sketch.</desc>
    <defs></defs>
    <g id="Page-1" stroke="none" stroke-width="1" fill="none" fill-rule="evenodd">
        <g id="Dribbble-Dark-Preview" transform="translate(-260.000000, -7559.000000)" fill="#FFFFFF">
            <g id="icons" transform="translate(56.000000, 160.000000)">
                <path d="M222.775,7404.202 C222.818,7404.521 222.842,7404.862 222.842,7405.23 C222.842,7406.988 222.679,7407.087 219.027,7417.644 C222,7415.91 224,7412.689 224,7409 C224,7407.261 223.556,7405.626 222.775,7404.202 L222.775,7404.202 Z M214.176,7409.875 L211.175,7418.593 C213.2,7419.189 215.346,7419.128 217.321,7418.434 C217.294,7418.391 217.27,7418.345 217.25,7418.296 L214.176,7409.875 Z M220.751,7408.495 C220.751,7407.259 220.307,7406.403 219.926,7405.737 C219.42,7404.913 218.944,7404.216 218.944,7403.392 C218.944,7402.473 219.642,7401.617 220.624,7401.617 C220.668,7401.617 220.71,7401.623 220.753,7401.625 C218.974,7399.995 216.604,7399 214,7399 C210.507,7399 207.433,7400.792 205.645,7403.507 C206.282,7403.527 207.137,7403.535 208.954,7403.393 C209.493,7403.361 209.556,7404.153 209.018,7404.216 C209.018,7404.216 208.476,7404.28 207.873,7404.312 L211.515,7415.144 L213.703,7408.58 L212.145,7404.311 C211.607,7404.28 211.097,7404.216 211.097,7404.216 C210.558,7404.184 210.621,7403.36 211.16,7403.392 C213.227,7403.551 214.285,7403.563 216.459,7403.392 C216.998,7403.36 217.062,7404.152 216.523,7404.216 C216.523,7404.216 215.98,7404.28 215.378,7404.311 L218.992,7415.061 C220.419,7410.293 220.751,7409.495 220.751,7408.495 L220.751,7408.495 Z M204,7409 C204,7412.958 206.3,7416.379 209.636,7418 L204.866,7404.93 C204.311,7406.174 204,7407.55 204,7409 L204,7409 Z" id="wordpress-[#139]"></path>
            </g>
        </g>
    </g>
</svg>