<?xml version="1.0" encoding="UTF-8" standalone="no"?>
<svg width="16px" height="20px" viewBox="0 0 16 20" version="1.1" xmlns="http://www.w3.org/2000/svg" xmlns:xlink="http://www.w3.org/1999/xlink">
    <!-- Generator: Sketch 3.8.1 (29687) - http://www.bohemiancoding.com/sketch -->
    <title>yelp [#184]</title>
    <desc>Created with Sketch.</desc>
    <defs></defs>
    <g id="Page-1" stroke="none" stroke-width="1" fill="none" fill-rule="evenodd">
        <g id="Dribbble-Dark-Preview" transform="translate(-62.000000, -7399.000000)" fill="#FFFFFF">
            <g id="icons" transform="translate(56.000000, 160.000000)">
                <path d="M12.0410882,7250.13347 L6.47614086,7248.10447 C5.87195812,7249.72747 5.81133778,7251.43347 6.47614086,7253.25047 L12.114843,7251.29347 C12.4987718,7250.84847 12.3340865,7250.48247 12.0410882,7250.13347 L12.0410882,7250.13347 Z M12.8463284,7252.81547 L9.11211538,7257.01947 C10.2497571,7258.60847 11.9299509,7259.12347 13.9455773,7258.97647 L13.7616956,7253.17747 C13.6404549,7252.75447 13.2565261,7252.76247 12.8463284,7252.81547 L12.8463284,7252.81547 Z M16.0319274,7252.09047 C15.6368848,7252.17847 15.4277446,7252.41347 15.5196855,7252.88747 L18.6214263,7258.08447 C20.0005391,7257.45847 21.3776312,7255.99647 22,7253.83047 L16.0319274,7252.09047 Z M21.9818139,7249.00547 C21.5766679,7246.68447 20.1490589,7245.10747 18.8730007,7244.31947 L15.2630594,7249.11847 C15.2297182,7249.63547 15.4954373,7249.85547 15.849056,7249.98847 L21.9818139,7249.00547 Z M13.2080298,7248.48647 L7.64611345,7241.02147 C9.2343664,7239.61447 11.050956,7238.62547 14.0819731,7239.13647 L14.0819731,7248.19747 C14.0819731,7248.63147 13.5252762,7248.72847 13.2080298,7248.48647 L13.2080298,7248.48647 Z" id="yelp-[#184]"></path>
            </g>
        </g>
    </g>
</svg>