<?xml version="1.0" encoding="UTF-8" standalone="no"?>
<svg width="21px" height="20px" viewBox="0 0 21 20" version="1.1" xmlns="http://www.w3.org/2000/svg" xmlns:xlink="http://www.w3.org/1999/xlink">
    <!-- Generator: Sketch 3.8.1 (29687) - http://www.bohemiancoding.com/sketch -->
    <title>zoom_out [#1460]</title>
    <desc>Created with Sketch.</desc>
    <defs></defs>
    <g id="Page-1" stroke="none" stroke-width="1" fill="none" fill-rule="evenodd">
        <g id="Dribbble-Dark-Preview" transform="translate(-59.000000, -480.000000)" fill="#FFFFFF">
            <g id="icons" transform="translate(56.000000, 160.000000)">
                <path d="M8.37269901,326.967331 L14.8199378,326.967331 C15.4130838,326.967331 15.8944776,327.416448 15.8944776,327.969825 C15.8944776,328.523201 15.4130838,328.972319 14.8199378,328.972319 L8.37269901,328.972319 C7.77955304,328.972319 7.29815921,328.523201 7.29815921,327.969825 C7.29815921,327.416448 7.77955304,326.967331 8.37269901,326.967331 L8.37269901,326.967331 Z M23.6848912,338.288493 C24.1050363,338.679465 24.1050363,339.315046 23.6848912,339.706019 L23.6848912,339.706019 C23.2647461,340.097994 22.5845624,340.097994 22.1654919,339.706019 L17.7888913,335.746169 L19.3082906,334.328642 L23.6848912,338.288493 Z M11.5963184,334.034912 C8.04174075,334.034912 5.14907961,331.337201 5.14907961,328.01995 C5.14907961,324.7037 8.04174075,322.004987 11.5963184,322.004987 C15.1508961,322.004987 18.0435572,324.7037 18.0435572,328.01995 C18.0435572,331.337201 15.1508961,334.034912 11.5963184,334.034912 L11.5963184,334.034912 Z M11.5963184,320 C6.84900157,320 3,323.590932 3,328.01995 C3,332.449969 6.84900157,336.039899 11.5963184,336.039899 C16.3436353,336.039899 20.1926368,332.449969 20.1926368,328.01995 C20.1926368,323.590932 16.3436353,320 11.5963184,320 L11.5963184,320 Z" id="zoom_out-[#1460]"></path>
            </g>
        </g>
    </g>
</svg>