<?xml version="1.0" encoding="UTF-8" standalone="no"?>
<svg width="21px" height="20px" viewBox="0 0 21 20" version="1.1" xmlns="http://www.w3.org/2000/svg" xmlns:xlink="http://www.w3.org/1999/xlink">
    <!-- Generator: Sketch 3.8.1 (29687) - http://www.bohemiancoding.com/sketch -->
    <title>zoom_in [#1462]</title>
    <desc>Created with Sketch.</desc>
    <defs></defs>
    <g id="Page-1" stroke="none" stroke-width="1" fill="none" fill-rule="evenodd">
        <g id="Dribbble-Dark-Preview" transform="translate(-379.000000, -440.000000)" fill="#FFFFFF">
            <g id="icons" transform="translate(56.000000, 160.000000)">
                <path d="M332.449994,286.967331 L334.549993,286.967331 C335.129593,286.967331 335.599993,287.416448 335.599993,287.969825 C335.599993,288.523201 335.129593,288.972319 334.549993,288.972319 L332.449994,288.972319 L332.449994,290.977306 C332.449994,291.530683 331.979595,291.9798 331.399995,291.9798 C330.820395,291.9798 330.349996,291.530683 330.349996,290.977306 L330.349996,288.972319 L328.249997,288.972319 C327.670397,288.972319 327.199998,288.523201 327.199998,287.969825 C327.199998,287.416448 327.670397,286.967331 328.249997,286.967331 L330.349996,286.967331 L330.349996,284.962344 C330.349996,284.408967 330.820395,283.95985 331.399995,283.95985 C331.979595,283.95985 332.449994,284.408967 332.449994,284.962344 L332.449994,286.967331 Z M343.692338,299.706019 L343.692338,299.706019 C343.282838,300.097994 342.617138,300.097994 342.207639,299.706019 L338.060141,295.746169 L339.54484,294.328642 L343.692338,298.288493 C344.102887,298.679465 344.102887,299.315046 343.692338,299.706019 L343.692338,299.706019 Z M331.399995,294.034912 C327.926597,294.034912 325.099999,291.337201 325.099999,288.01995 C325.099999,284.7037 327.926597,282.004987 331.399995,282.004987 C334.873393,282.004987 337.699991,284.7037 337.699991,288.01995 C337.699991,291.337201 334.873393,294.034912 331.399995,294.034912 L331.399995,294.034912 Z M331.399995,280 C326.761098,280 323,283.590932 323,288.01995 C323,292.449969 326.761098,296.039899 331.399995,296.039899 C336.038892,296.039899 339.79999,292.449969 339.79999,288.01995 C339.79999,283.590932 336.038892,280 331.399995,280 L331.399995,280 Z" id="zoom_in-[#1462]"></path>
            </g>
        </g>
    </g>
</svg>