<?xml version="1.0" encoding="UTF-8" standalone="no"?>
<!-- Created with Inkscape (http://www.inkscape.org/) -->

<svg
   width="330mm"
   height="230mm"
   viewBox="0 0 330 230"
   version="1.1"
   id="svg5"
   inkscape:version="1.2.2 (b0a8486541, 2022-12-01)"
   sodipodi:docname="logos.svg"
   xmlns:inkscape="http://www.inkscape.org/namespaces/inkscape"
   xmlns:sodipodi="http://sodipodi.sourceforge.net/DTD/sodipodi-0.dtd"
   xmlns="http://www.w3.org/2000/svg"
   xmlns:svg="http://www.w3.org/2000/svg">
  <sodipodi:namedview
     id="namedview7"
     pagecolor="#ffffff"
     bordercolor="#666666"
     borderopacity="1.0"
     inkscape:showpageshadow="2"
     inkscape:pageopacity="0.0"
     inkscape:pagecheckerboard="0"
     inkscape:deskcolor="#d1d1d1"
     inkscape:document-units="mm"
     showgrid="false"
     inkscape:zoom="0.67521168"
     inkscape:cx="541.31173"
     inkscape:cy="453.19121"
     inkscape:window-width="1916"
     inkscape:window-height="1029"
     inkscape:window-x="0"
     inkscape:window-y="25"
     inkscape:window-maximized="1"
     inkscape:current-layer="layer1" />
  <defs
     id="defs2">
    <rect
       x="90.972633"
       y="503.68396"
       width="462.93631"
       height="204.70622"
       id="rect1283" />
  </defs>
  <g
     inkscape:label="Layer 1"
     inkscape:groupmode="layer"
     id="layer1"
     transform="translate(-33.023307,-120.71408)">
    <g
       id="g1227"
       inkscape:label="logo"
       transform="rotate(35.696107,-221.35696,234.82943)"
       inkscape:export-filename="docs/images/logos/trial badge.svg"
       inkscape:export-xdpi="142.09"
       inkscape:export-ydpi="142.09">
      <path
         style="fill:#000000;fill-opacity:1;stroke:none;stroke-width:0.264583px;stroke-linecap:butt;stroke-linejoin:miter;stroke-opacity:1"
         d="M 39.39582,78.974383 V 93.41334 L 50.472017,107.8523 39.39582,122.29125 v 14.43896 L 70.775287,107.8523 Z"
         id="path289"
         sodipodi:nodetypes="ccccccc" />
      <path
         style="fill:#000000;fill-opacity:1;stroke:none;stroke-width:0.150797px;stroke-linecap:butt;stroke-linejoin:miter;stroke-opacity:1"
         d="m 67.751814,95.430062 v 7.239088 l 5.627312,5.18315 -5.627312,5.18314 v 7.23909 L 83.694295,107.8523 Z"
         id="path289-7"
         sodipodi:nodetypes="ccccccc" />
      <path
         style="fill:#000000;fill-opacity:1;stroke:none;stroke-width:0.0993906px;stroke-linecap:butt;stroke-linejoin:miter;stroke-opacity:1"
         d="m 80.641724,100.39035 v 4.56088 l 3.679455,2.90107 -3.679455,2.90106 v 4.56089 l 10.424095,-7.46195 z"
         id="path289-5"
         sodipodi:nodetypes="ccccccc" />
      <path
         id="path1220"
         style="stroke-width:4.99999;stroke-linecap:round;stroke-linejoin:bevel;paint-order:markers stroke fill"
         d="M 43.59285,107.8523 A 10.698029,10.698029 0 0 1 32.894821,118.55033 10.698029,10.698029 0 0 1 22.196793,107.8523 10.698029,10.698029 0 0 1 32.894821,97.154274 10.698029,10.698029 0 0 1 43.59285,107.8523 Z" />
    </g>
    <path
       id="path1337"
       style="font-weight:bold;font-size:144px;line-height:1.25;font-family:'Concourse C6';-inkscape-font-specification:'Concourse C6 Bold';letter-spacing:0px;word-spacing:0px;white-space:pre;stroke-width:0.175362"
       d="m 47.645647,322.93167 v 2.82825 h 3.83852 v 9.92394 h 3.282487 v -9.92394 h 3.838517 v -2.82825 z m 14.444584,0 v 12.75219 h 3.282487 v -4.92424 h 0.328139 l 3.485058,4.92424 h 3.88866 v -0.12609 l -3.88866,-5.02553 v -0.10077 c 1.79291,-0.50504 2.80293,-1.74224 2.80293,-3.33313 0,-2.52521 -1.99472,-4.16667 -4.822957,-4.16667 z m 14.140731,0 v 12.75219 h 3.283007 v -12.75219 z m 11.666984,0 -5.530407,12.75219 h 3.484537 l 0.83354,-2.2474 h 4.570777 l 0.85835,2.2474 H 95.5998 l -5.581057,-12.75219 z m 10.302724,0 v 12.75219 h 8.25737 v -2.82825 h -4.97488 v -9.92394 z m -32.827953,2.70165 h 1.43971 c 0.95958,0 1.666557,0.53069 1.666557,1.46502 0,0.93433 -0.682037,1.43919 -1.591117,1.43919 h -1.51515 z m 23.509668,1.74252 h 0.15141 l 1.338418,3.6618 h -2.802927 z"
       inkscape:label="text" />
    <path
       id="rect14707"
       style="fill:#000000;fill-opacity:1;stroke:none;stroke-width:2;stroke-linecap:round;stroke-linejoin:miter;stroke-dasharray:none;stroke-opacity:1;paint-order:markers stroke fill"
       d="m 274.26967,254.32199 v 87.59672 h 70.79878 v -24.09362 l -17.4625,-63.5031 z m 2.67942,2.25723 h 47.97744 l 17.4625,61.24587 h -65.43994 z m 37.22977,4.88084 -8.42481,11.7259 0.57,18.18907 -17.42013,5.26376 -8.42481,11.7259 42.33385,-5.14284 z m -21.86636,8.96431 a 10.698029,10.698029 0 0 0 -8.95139,4.45244 10.698029,10.698029 0 0 0 2.44636,14.93036 10.698029,10.698029 0 0 0 14.92984,-2.44585 10.698029,10.698029 0 0 0 -2.44585,-14.93036 10.698029,10.698029 0 0 0 -5.97896,-2.00659 z m 35.29345,20.94497 -4.22403,5.87923 1.54564,7.49257 -7.59437,0.92604 -4.22403,5.87871 20.19567,-0.786 z m 7.5737,11.54917 -2.66134,3.70417 1.29553,4.50308 -4.68085,0.20877 -2.66134,3.70417 12.81989,0.0222 z m -54.70054,21.07158 h 10.95954 v 2.82825 h -3.83853 v 9.92394 h -3.28248 v -9.92394 h -3.83853 z m 14.4446,0 h 5.07566 c 2.82822,0 4.82296,1.64146 4.82296,4.16667 0,1.59089 -1.01002,2.82809 -2.80293,3.33313 v 0.10077 l 3.88865,5.02553 v 0.12609 h -3.88865 l -3.48506,-4.92424 h -0.32814 v 4.92424 h -3.28249 z m 14.14074,0 h 3.283 v 12.75219 h -3.283 z m 11.66699,0 h 2.1208 l 5.58105,12.75219 h -3.48506 l -0.85834,-2.2474 h -4.57078 l -0.83354,2.2474 h -3.48455 z m 10.30273,0 h 3.28248 v 9.92394 h 4.97489 v 2.82825 h -8.25737 z m -32.82797,2.70165 v 2.90421 h 1.51515 c 0.90908,0 1.59112,-0.50486 1.59112,-1.43919 0,-0.93433 -0.70699,-1.46502 -1.66657,-1.46502 z m 23.50967,1.74252 -1.3131,3.6618 h 2.80293 l -1.33842,-3.6618 z"
       inkscape:label="badge mixed angled" />
    <path
       id="rect1406"
       style="fill:#000000;fill-opacity:1;stroke:none;stroke-width:5.25281;stroke-linecap:round;stroke-linejoin:bevel;paint-order:markers stroke fill"
       d="m 126.03428,254.51836 c -6.16712,0 -11.13214,4.96451 -11.13214,11.13162 v 65.33296 c 0,6.16709 4.96502,11.13214 11.13214,11.13214 h 51.23253 c 6.16709,0 11.13213,-4.96505 11.13213,-11.13214 v -65.33296 c 0,-6.16711 -4.96504,-11.13162 -11.13213,-11.13162 z m 0.32556,2.76365 h 50.58141 c 4.77404,0 8.61756,3.84298 8.61756,8.61705 v 53.92384 h -67.81654 v -53.92384 c 0,-4.77407 3.8435,-8.61705 8.61757,-8.61705 z m 29.6571,3.63906 -8.56795,11.92588 0.57981,18.49862 -17.71675,5.35316 -8.56847,11.92588 43.05474,-5.23068 z m -22.23843,9.11675 c -3.59667,-0.0886 -7.00458,1.60659 -9.10384,4.52841 -3.50619,4.88005 -2.3924,11.67847 2.4877,15.1846 4.88006,3.50619 11.67848,2.3924 15.1846,-2.4877 3.5062,-4.88006 2.39241,-11.67848 -2.4877,-15.18461 -1.77581,-1.27579 -3.89484,-1.98694 -6.08076,-2.0407 z m 35.89445,21.30154 -4.29587,5.97948 1.572,7.62021 -7.72356,0.94155 -4.29586,5.97948 20.53931,-0.79996 z m 7.70288,11.74657 -2.70681,3.7667 1.31775,4.57956 -4.76095,0.21291 -2.70629,3.76721 13.03796,0.0227 z m -55.13151,19.84582 h 10.95953 V 325.76 h -3.83852 v 9.92394 h -3.28249 V 325.76 h -3.83852 z m 14.44459,0 h 5.07566 c 2.82824,0 4.82296,1.64146 4.82296,4.16667 0,1.59089 -1.01002,2.82809 -2.80293,3.33313 v 0.10077 l 3.88865,5.02553 v 0.12609 h -3.88865 l -3.48506,-4.92424 h -0.32814 v 4.92424 h -3.28249 z m 14.14074,0 h 3.283 v 12.75219 h -3.283 z m 11.66699,0 h 2.1208 l 5.58105,12.75219 h -3.48505 l -0.85835,-2.2474 h -4.57078 l -0.83354,2.2474 h -3.48454 z m 10.30273,0 h 3.28249 v 9.92394 h 4.97489 v 2.82825 h -8.25738 z m -32.82797,2.70165 v 2.90421 h 1.51515 c 0.90908,0 1.59112,-0.50486 1.59112,-1.43919 0,-0.93433 -0.70699,-1.46502 -1.66657,-1.46502 z m 23.50968,1.74252 -1.3131,3.6618 h 2.80293 l -1.33842,-3.6618 z"
       inkscape:label="badge mixed rounded"
       inkscape:export-filename="docs/images/logos/trial badge mixed rounded.svg"
       inkscape:export-xdpi="142.09"
       inkscape:export-ydpi="142.09" />
    <path
       id="rect1406-9"
       style="fill:#000000;fill-opacity:1;stroke:none;stroke-width:5.25281;stroke-linecap:round;stroke-linejoin:bevel;paint-order:markers stroke fill"
       d="m 206.52917,254.32203 c -6.1671,0 -11.13215,4.96453 -11.13215,11.13162 v 65.33296 c 0,6.16712 4.96505,11.13214 11.13215,11.13214 h 51.23256 c 6.16712,0 11.13214,-4.96502 11.13214,-11.13214 v -65.33296 c 0,-6.16709 -4.96502,-11.13162 -11.13214,-11.13162 z m 29.98268,6.93136 8.78138,42.47286 -43.05475,5.23069 8.56847,-11.92589 17.71675,-5.35316 -0.57981,-18.49861 z m -22.23845,9.11727 a 10.880206,10.880206 0 0 1 6.08078,2.04071 10.880206,10.880206 0 0 1 2.4877,15.1846 10.880206,10.880206 0 0 1 -15.18461,2.4877 10.880206,10.880206 0 0 1 -2.48771,-15.1846 10.880206,10.880206 0 0 1 9.10384,-4.52841 z m 35.89447,21.30155 5.79604,19.72076 -20.53934,0.79943 4.29588,-5.97896 7.72356,-0.94155 -1.572,-7.62072 z m 7.7029,11.74605 4.18166,12.34912 -13.03798,-0.0227 2.7063,-3.76721 4.76096,-0.21239 -1.31775,-4.57957 z m -54.64424,20.45456 h 10.77764 v 2.78123 h -3.77445 v 9.75961 h -3.22874 v -9.75961 h -3.77445 z m 14.20483,0 h 4.99142 c 2.78139,0 4.74338,1.61405 4.74338,4.09743 0,1.56453 -0.99322,2.78168 -2.75642,3.27835 v 0.0992 l 3.82458,4.94182 v 0.12402 h -3.82458 l -3.42718,-4.8426 h -0.32298 v 4.8426 h -3.22822 z m 13.90716,0 h 3.22823 v 12.54084 h -3.22823 z m 11.47321,0 h 2.08566 l 5.48856,12.54084 h -3.42719 l -0.84439,-2.2102 h -4.49481 l -0.81959,2.2102 h -3.42718 z m 10.1322,0 h 3.22824 v 9.75962 h 4.8922 v 2.78122 h -8.12044 z m -32.28435,2.65721 v 2.85564 h 1.49035 c 0.89402,0 1.56425,-0.49657 1.56425,-1.41542 0,-0.91885 -0.69498,-1.44022 -1.63866,-1.44022 z m 23.12057,1.71359 -1.2914,3.60081 h 2.75642 l -1.3162,-3.60081 z"
       inkscape:label="badge black rounded"
       inkscape:export-filename="docs/images/logos/trial badge mixed square.svg"
       inkscape:export-xdpi="142.09"
       inkscape:export-ydpi="142.09" />
    <path
       id="rect14635"
       style="color:#000000;fill:#000000;stroke-linecap:round;-inkscape-stroke:none;paint-order:markers stroke fill"
       d="m 200.10366,210.58409 v 0.99994 36.7285 h 148.33203 v -37.72844 z m 1.99988,1.99988 h 35.06762 l 13.54905,33.72869 h -48.61667 z m 24.87393,1.39578 -4.86895,6.77633 0.32969,10.51098 -10.06708,3.04168 -4.86844,6.77633 24.46414,-2.97191 z m -12.96407,5.18107 c -1.92033,0.0544 -3.71572,1.00042 -4.84518,2.57246 -1.99221,2.77281 -1.35944,6.63564 1.41335,8.62789 2.77282,1.99221 6.63564,1.35944 8.6279,-1.41335 1.99221,-2.77281 1.35944,-6.63564 -1.41335,-8.62789 -0.99297,-0.71348 -2.17521,-1.11649 -3.39721,-1.15807 -0.12897,-0.004 -0.25748,-0.005 -0.38551,-10e-4 z m 39.55315,1.02475 h 15.95406 v 4.11706 h -5.58726 v 14.44718 h -4.77903 v -14.44718 h -5.58777 z m 21.02714,0 h 7.38921 c 4.11719,0 7.02128,2.3892 7.02128,6.06526 0,2.31592 -1.47089,4.11721 -4.08089,4.85242 v 0.14728 l 5.66115,7.31531 v 0.18397 h -5.66115 l -5.07256,-7.16855 h -0.47801 v 7.16855 h -4.77903 z m 20.58582,0 h 4.77904 v 18.56424 h -4.77904 z m 16.98346,0 h 3.08818 l 8.12405,18.56424 h -5.07307 l -1.25005,-3.27164 h -6.65334 l -1.21337,3.27164 h -5.07307 z m 14.99857,0 h 4.77903 v 14.44666 h 7.24142 v 4.11758 h -12.02045 z m -47.78882,3.93361 v 4.22713 h 2.20555 c 1.32337,0 2.31614,-0.73533 2.31614,-2.09548 0,-1.36013 -1.02931,-2.13165 -2.42621,-2.13165 z m 34.22427,2.53628 -1.91151,5.33042 h 4.08037 l -1.94872,-5.33042 z m -78.86082,4.6085 -2.44068,3.39773 0.89349,4.32945 -4.38888,0.53537 -2.44068,3.39721 11.67061,-0.45424 z m 4.37699,6.67401 -1.53789,2.14096 0.7488,2.60191 -2.70527,0.12092 -1.53789,2.14044 7.40834,0.0129 z"
       inkscape:label="vertical mixed square"
       inkscape:export-filename="docs/images/logos/trial vertical mixed square.svg"
       inkscape:export-xdpi="142.09"
       inkscape:export-ydpi="142.09" />
    <path
       id="rect11560"
       style="fill:#000000;fill-opacity:1;stroke-width:2;stroke-linecap:round;stroke-linejoin:bevel;paint-order:markers stroke fill"
       d="m 221.6858,129.31308 -4.86895,6.77633 0.32969,10.51099 -10.06708,3.04167 -4.86844,6.77633 24.46414,-2.97191 z m 8.24136,0 13.54284,30.97537 h 108.8037 l -27.30118,-30.97537 z m -21.20543,5.18108 c -1.92032,0.0544 -3.71572,1.00041 -4.84518,2.57245 -1.99221,2.77282 -1.35943,6.63564 1.41335,8.6279 2.77282,1.99221 6.63564,1.35942 8.6279,-1.41335 1.99221,-2.77282 1.35944,-6.63564 -1.41335,-8.6279 -0.99297,-0.71348 -2.17521,-1.11649 -3.39721,-1.15807 -0.12897,-0.004 -0.25748,-0.005 -0.38551,-0.001 z m 34.26148,1.02474 h 15.95406 v 4.11706 h -5.58725 v 14.44718 h -4.77904 v -14.44718 h -5.58777 z m 21.02714,0 h 7.38921 c 2.57324,0 4.67276,0.93316 5.88543,2.5306 0.12127,0.15974 0.2333,0.32643 0.33642,0.49919 0.10311,0.17276 0.19697,0.35169 0.28111,0.53692 0.0842,0.18523 0.1589,0.37644 0.22325,0.57361 0.0643,0.19717 0.11854,0.40018 0.16226,0.60875 0.0437,0.20856 0.0769,0.4229 0.0992,0.64233 0.0223,0.21943 0.0336,0.44411 0.0336,0.67386 0,2.31592 -1.47089,4.11721 -4.08089,4.85242 v 0.14728 l 5.66115,7.31531 v 0.18397 h -5.66115 l -5.07256,-7.16855 h -0.478 v 7.16855 h -4.77904 z m 20.58582,0 h 4.77904 v 18.56424 h -4.77904 z m 16.98346,0 h 3.08819 l 8.12405,18.56424 h -5.07308 l -1.25005,-3.27163 h -6.65334 l -1.21336,3.27163 h -5.07308 z m 14.99857,0 h 4.77904 v 14.44666 h 7.24142 v 4.11758 H 316.5782 Z m -47.78881,3.93361 v 4.22713 h 2.20555 c 0.16542,0 0.32576,-0.0113 0.47955,-0.0341 0.1538,-0.0228 0.30122,-0.0567 0.4408,-0.10181 0.13959,-0.0451 0.27151,-0.10147 0.39429,-0.16846 0.61394,-0.33497 1.00149,-0.94101 1.00149,-1.79111 0,-0.59505 -0.19726,-1.07754 -0.53588,-1.43195 -0.0968,-0.10126 -0.20492,-0.19181 -0.3235,-0.27182 -0.17786,-0.12001 -0.37871,-0.2161 -0.59841,-0.28629 -0.14647,-0.0468 -0.30119,-0.0822 -0.46302,-0.10593 -0.16183,-0.0238 -0.33078,-0.0357 -0.50539,-0.0357 z m 34.22426,2.53628 -1.91151,5.33042 h 4.08037 l -1.94871,-5.33042 z m -73.56915,4.60851 -2.44068,3.3972 0.89349,4.32997 -4.38888,0.53537 -2.44068,3.39721 11.67061,-0.45424 z m 4.37699,6.67401 -1.53789,2.14043 0.7488,2.60243 -2.70527,0.12092 -1.53789,2.14044 7.40834,0.0129 z"
       inkscape:label="vertical mixed angled"
       inkscape:export-filename="docs/images/logos/trial vertical mixed angled.svg"
       inkscape:export-xdpi="142.09"
       inkscape:export-ydpi="142.09" />
    <path
       id="rect11560-2-9"
       style="fill:#000000;fill-opacity:1;stroke-width:2;stroke-linecap:round;stroke-linejoin:bevel;paint-order:markers stroke fill"
       d="m 190.99027,168.23163 15.875,38.67413 h 151.13704 l -15.875,-38.67413 z m 41.27887,3.41478 4.98936,24.13341 -24.46414,2.97191 4.86844,-6.77633 10.06708,-3.04167 -0.32969,-10.51099 z m -12.77183,5.1785 c 0.0643,2.5e-4 0.12879,0.002 0.19327,0.004 1.222,0.0416 2.40424,0.44459 3.39721,1.15807 2.77279,1.99226 3.40556,5.85508 1.41335,8.6279 -1.99226,2.77278 -5.85508,3.40556 -8.6279,1.41335 -2.77278,-1.99226 -3.40556,-5.85508 -1.41335,-8.6279 1.12946,-1.57203 2.92486,-2.51805 4.84518,-2.57245 0.064,-0.002 0.12799,-0.003 0.19224,-0.003 z m 34.06924,1.02732 h 15.95406 v 4.11707 h -5.58725 v 14.44718 h -4.77904 V 181.9693 h -5.58777 z m 21.02714,0 h 7.38921 c 4.11719,0 7.02128,2.38923 7.02128,6.06527 0,2.31592 -1.47089,4.11721 -4.08089,4.85241 v 0.14728 l 5.66115,7.31532 v 0.18397 h -5.66115 l -5.07256,-7.16856 h -0.478 v 7.16856 h -4.77904 z m 20.58582,0 h 4.77904 v 18.56425 h -4.77904 z m 16.98346,0 h 3.08819 l 8.12405,18.56425 h -5.07308 l -1.25005,-3.27164 h -6.65334 l -1.21336,3.27164 h -5.07308 z m 14.99857,0 h 4.77904 v 14.44667 h 7.24142 v 4.11758 h -12.02046 z m -47.78881,3.93361 v 4.22714 h 2.20555 c 1.32335,0 2.31613,-0.73533 2.31613,-2.09548 0,-1.36011 -1.02932,-2.13166 -2.4262,-2.13166 z m 34.22426,2.53628 -1.91151,5.33043 h 4.08037 l -1.94871,-5.33043 z m -73.56915,4.60851 3.29386,11.20552 -11.67061,0.45423 2.44068,-3.39721 4.38888,-0.53536 -0.89349,-4.32997 z m 4.37699,6.67401 2.37609,7.01714 -7.40834,-0.0129 1.53789,-2.14043 2.70527,-0.12093 -0.7488,-2.60242 z"
       sodipodi:nodetypes="cccccccccccccccccscscccccccccccscccccccccccccccccccccccccccccccccsssccccccccccccccccccccc"
       inkscape:label="vertical black angled"
       inkscape:export-filename="docs/images/logos/trial vertical black angled.svg"
       inkscape:export-xdpi="142.09"
       inkscape:export-ydpi="142.09" />
    <path
       id="rect9896"
       style="color:#000000;fill:#000000;stroke-linecap:round;stroke-linejoin:bevel;-inkscape-stroke:none;paint-order:markers stroke fill"
       d="m 49.954685,210.566 c -6.581211,0 -11.910384,5.32866 -11.910384,11.90987 v 14.85335 c 0,6.58122 5.329173,11.91039 11.910384,11.91039 H 174.3414 c 6.58122,0 11.91194,-5.32917 11.91194,-11.91039 v -14.85335 c 0,-6.58121 -5.33072,-11.90987 -11.91194,-11.90987 z m 0,1.99988 H 174.3414 c 5.50782,0 9.91206,4.40218 9.91206,9.90999 v 14.85335 c 0,5.50781 -4.40424,9.91051 -9.91206,9.91051 H 49.954685 c -5.507808,0 -9.910506,-4.4027 -9.910506,-9.91051 v -14.85335 c 0,-5.50781 4.402698,-9.90999 9.910506,-9.90999 z m 18.272787,1.41387 -4.868954,6.77633 0.329696,10.51098 -10.067087,3.04168 -4.868436,6.77633 24.464139,-2.97191 z m -12.964067,5.18107 c -1.920331,0.0544 -3.715723,1.00042 -4.845182,2.57246 -1.992214,2.77281 -1.359438,6.63564 1.41335,8.62789 2.772818,1.99221 6.635643,1.35944 8.627898,-1.41335 1.992214,-2.77281 1.359437,-6.63564 -1.413351,-8.62789 -0.992964,-0.71348 -2.175202,-1.11649 -3.397209,-1.15807 -0.128973,-0.004 -0.257484,-0.005 -0.385506,-10e-4 z m 34.261474,1.02475 v 4.11706 h 5.587773 v 14.44718 h 4.779036 v -14.44718 h 5.587252 v -4.11706 z m 21.027141,0 v 18.56424 h 4.77903 v -7.16855 h 0.47801 l 5.07256,7.16855 h 5.66115 v -0.18397 l -5.66115,-7.31531 v -0.14728 c 2.61,-0.73521 4.08089,-2.5365 4.08089,-4.85242 0,-3.67606 -2.90409,-6.06526 -7.02128,-6.06526 z m 20.58582,0 v 18.56424 h 4.77904 v -18.56424 z m 16.98346,0 -8.05067,18.56424 h 5.07307 l 1.21337,-3.27164 h 6.65334 l 1.25005,3.27164 h 5.07307 l -8.12405,-18.56424 z m 14.99857,0 v 18.56424 h 12.02045 v -4.11758 h -7.24142 v -14.44666 z m -47.78882,3.93361 h 2.09548 c 1.39691,0 2.42621,0.77152 2.42621,2.13165 0,1.36015 -0.99276,2.09548 -2.31614,2.09548 h -2.20555 z m 34.22427,2.53628 h 0.22014 l 1.94872,5.33042 h -4.08037 z m -73.56915,4.6085 -2.440677,3.39773 0.893485,4.32945 -4.388879,0.53537 -2.440678,3.39721 11.670605,-0.45424 z m 4.376994,6.67401 -1.53789,2.14096 0.748791,2.60191 -2.705261,0.12092 -1.537891,2.14044 7.408334,0.0129 z"
       inkscape:label="vertical white rounded"
       inkscape:export-filename="docs/images/logos/trial vertical white rounded.svg"
       inkscape:export-xdpi="142.09"
       inkscape:export-ydpi="142.09" />
    <path
       id="path11472"
       style="color:#000000;fill:#000000;stroke-linecap:round;stroke-linejoin:bevel;-inkscape-stroke:none;paint-order:markers stroke fill"
       d="m 49.954685,168.23163 c -6.581197,0 -11.910384,5.32917 -11.910384,11.91039 v 14.85335 c 0,6.58122 5.329187,11.91039 11.910384,11.91039 H 174.3414 c 6.58122,0 11.91194,-5.32917 11.91194,-11.91039 v -14.85335 c 0,-6.58122 -5.33072,-11.91039 -11.91194,-11.91039 z m 18.272787,3.41478 4.989359,24.13341 -24.464139,2.97191 4.868436,-6.77633 10.067086,-3.04167 -0.329696,-10.51099 z m -12.964067,5.18108 c 0.128022,-0.004 0.256533,-0.003 0.385506,10e-4 1.222007,0.0416 2.404245,0.44459 3.397209,1.15807 2.772788,1.99226 3.405565,5.85508 1.413351,8.6279 -1.992255,2.77279 -5.855081,3.40556 -8.627899,1.41335 -2.772787,-1.99226 -3.405563,-5.85508 -1.41335,-8.6279 1.129459,-1.57203 2.924851,-2.51809 4.845182,-2.57245 z m 34.261474,1.02474 h 15.954061 v 4.11707 h -5.587252 v 14.44718 H 95.112653 V 181.9693 H 89.52488 Z m 21.027141,0 h 7.38921 c 4.11719,0 7.02128,2.38921 7.02128,6.06527 0,2.31592 -1.47089,4.11722 -4.08089,4.85241 v 0.14728 l 5.66115,7.31532 v 0.18397 h -5.66115 l -5.07256,-7.16856 h -0.47801 v 7.16856 h -4.77903 z m 20.58582,0 h 4.77904 v 18.56425 h -4.77904 z m 16.98346,0 h 3.08818 l 8.12405,18.56425 h -5.07307 l -1.25005,-3.27164 h -6.65334 l -1.21337,3.27164 h -5.07307 z m 14.99857,0 h 4.77903 v 14.44667 h 7.24142 v 4.11758 h -12.02045 z m -47.78882,3.93361 v 4.22714 h 2.20555 c 1.32338,0 2.31614,-0.73533 2.31614,-2.09548 0,-1.36013 -1.0293,-2.13166 -2.42621,-2.13166 z m 34.22427,2.53628 -1.91151,5.33043 h 4.08037 l -1.94872,-5.33043 z m -73.56915,4.60851 3.293856,11.20552 -11.670605,0.45423 2.440678,-3.39721 4.388879,-0.53536 -0.893485,-4.32997 z m 4.376994,6.67401 2.376083,7.01714 -7.408334,-0.0129 1.537891,-2.14043 2.705261,-0.12093 -0.748791,-2.60242 z"
       inkscape:label="vertical black rounded"
       inkscape:export-filename="docs/images/logos/trial vertical black rounded.svg"
       inkscape:export-xdpi="142.09"
       inkscape:export-ydpi="142.09" />
    <path
       id="path289-4-6"
       style="fill:#000000;fill-opacity:1;stroke:none;stroke-width:0.152898px;stroke-linecap:butt;stroke-linejoin:miter;stroke-opacity:1"
       d="m 68.227471,129.31308 -4.868954,6.77633 0.329696,10.51099 -10.067086,3.04167 -4.868436,6.77633 24.464139,-2.97191 z m -12.964067,5.18108 c -1.92033,0.0544 -3.715722,1.00041 -4.845182,2.57245 -1.992213,2.77282 -1.359437,6.63564 1.41335,8.6279 2.772818,1.99221 6.635644,1.35943 8.627899,-1.41335 1.992213,-2.77282 1.359437,-6.63564 -1.413351,-8.6279 -0.992964,-0.71348 -2.175202,-1.11649 -3.39721,-1.15807 -0.128973,-0.004 -0.257483,-0.005 -0.385506,-0.001 z m 34.261475,1.02474 v 4.11706 h 5.587773 v 14.44718 h 4.779036 v -14.44718 h 5.587252 v -4.11706 z m 21.027141,0 v 18.56424 h 4.77903 v -7.16855 h 0.47801 l 5.07256,7.16855 h 5.66115 v -0.18397 l -5.66115,-7.31531 v -0.14728 c 2.61,-0.73521 4.08089,-2.5365 4.08089,-4.85242 0,-3.67605 -2.90409,-6.06526 -7.02128,-6.06526 z m 20.58582,0 v 18.56424 h 4.77904 V 135.5189 Z m 16.98346,0 -8.05067,18.56424 h 5.07307 l 1.21337,-3.27163 h 6.65334 l 1.25005,3.27163 h 5.07307 l -8.12405,-18.56424 z m 14.99857,0 v 18.56424 h 12.02045 v -4.11758 H 167.8989 V 135.5189 Z m -47.78882,3.93361 h 2.09548 c 1.39691,0 2.42621,0.77153 2.42621,2.13165 0,1.36015 -0.99276,2.09548 -2.31614,2.09548 h -2.20555 z m 34.22427,2.53628 h 0.22014 l 1.94872,5.33042 h -4.08037 z m -73.56915,4.60851 -2.440677,3.3972 0.893485,4.32997 -4.388879,0.53537 -2.440678,3.39721 11.670605,-0.45424 z m 4.376994,6.67401 -1.53789,2.14043 0.748791,2.60243 -2.705261,0.12092 -1.537891,2.14044 7.408334,0.0129 z"
       inkscape:label="vertical"
       inkscape:export-filename="docs/images/logos/trial vertical.svg"
       inkscape:export-xdpi="142.09"
       inkscape:export-ydpi="142.09" />
  </g>
</svg>
