<?xml version="1.0" encoding="UTF-8" standalone="no"?>
<!-- Created with Inkscape (http://www.inkscape.org/) -->

<svg
   xmlns:dc="http://purl.org/dc/elements/1.1/"
   xmlns:cc="http://creativecommons.org/ns#"
   xmlns:rdf="http://www.w3.org/1999/02/22-rdf-syntax-ns#"
   xmlns:svg="http://www.w3.org/2000/svg"
   xmlns="http://www.w3.org/2000/svg"
   xmlns:sodipodi="http://sodipodi.sourceforge.net/DTD/sodipodi-0.dtd"
   xmlns:inkscape="http://www.inkscape.org/namespaces/inkscape"
   width="200mm"
   height="200mm"
   viewBox="0 0 200 200"
   version="1.1"
   id="svg8"
   inkscape:version="0.92.1 r"
   sodipodi:docname="gamepad.svg"
   inkscape:export-filename="/home/linus/Projects/cl/trial/data/gamepad.png"
   inkscape:export-xdpi="130.048"
   inkscape:export-ydpi="130.048">
  <defs
     id="defs2" />
  <sodipodi:namedview
     id="base"
     pagecolor="#ffffff"
     bordercolor="#666666"
     borderopacity="1.0"
     inkscape:pageopacity="0.0"
     inkscape:pageshadow="2"
     inkscape:zoom="1"
     inkscape:cx="488.40192"
     inkscape:cy="314.92271"
     inkscape:document-units="mm"
     inkscape:current-layer="layer1"
     showgrid="false"
     inkscape:object-nodes="false"
     inkscape:snap-object-midpoints="false"
     inkscape:window-width="1916"
     inkscape:window-height="1160"
     inkscape:window-x="0"
     inkscape:window-y="38"
     inkscape:window-maximized="0" />
  <metadata
     id="metadata5">
    <rdf:RDF>
      <cc:Work
         rdf:about="">
        <dc:format>image/svg+xml</dc:format>
        <dc:type
           rdf:resource="http://purl.org/dc/dcmitype/StillImage" />
        <dc:title></dc:title>
      </cc:Work>
    </rdf:RDF>
  </metadata>
  <g
     inkscape:label="Layer 1"
     inkscape:groupmode="layer"
     id="layer1"
     transform="translate(0,-97)">
    <g
       id="g5208"
       transform="translate(-1.0900595e-6,1.9942118)">
      <path
         id="rect4860-7"
         d="m 51.746488,130.30391 c -0.837594,0 -1.512051,0.67446 -1.512051,1.51205 v 2.21485 c 0,0.8376 0.674457,1.51154 1.512051,1.51154 h 17.196885 v -5.23844 z m 18.693434,0 v 5.23844 H 81.65009 c 0.837594,0 1.512052,-0.67394 1.512052,-1.51154 v -2.21485 c 0,-0.83759 -0.674458,-1.51205 -1.512052,-1.51205 z"
         style="opacity:1;fill:#1d1d1d;fill-opacity:1;stroke:none;stroke-width:8.77523613;stroke-linecap:round;stroke-linejoin:round;stroke-miterlimit:4;stroke-dasharray:none;stroke-opacity:1"
         inkscape:connector-curvature="0" />
      <path
         id="rect4860-7-2"
         d="m 148.25351,130.30391 c 0.8376,0 1.51205,0.67446 1.51205,1.51205 v 2.21485 c 0,0.8376 -0.67445,1.51154 -1.51205,1.51154 h -17.19688 v -5.23844 z m -18.69343,0 v 5.23844 h -11.21017 c -0.83759,0 -1.51205,-0.67394 -1.51205,-1.51154 v -2.21485 c 0,-0.83759 0.67446,-1.51205 1.51205,-1.51205 z"
         style="opacity:1;fill:#1d1d1d;fill-opacity:1;stroke:none;stroke-width:8.77523613;stroke-linecap:round;stroke-linejoin:round;stroke-miterlimit:4;stroke-dasharray:none;stroke-opacity:1"
         inkscape:connector-curvature="0" />
      <path
         sodipodi:nodetypes="scccccccccccscs"
         inkscape:connector-curvature="0"
         id="rect4487"
         d="m 44.332799,134.18179 c -4.005201,0 -7.673646,1.33978 -10.563577,3.58001 -11.402681,7.3221 -21.532299,25.22736 -26.6258611,47.06428 -7.9145967,34.03602 -1.39572,73.95723 14.5602731,80.68042 15.955762,6.72332 35.306409,-22.29671 43.220997,-56.33231 0.09454,-0.4303 0.186967,-0.86136 0.277254,-1.2931 h 34.798125 34.7981 c 0.0903,0.43174 0.18271,0.8628 0.27726,1.2931 7.91459,34.03559 27.26523,63.05562 43.22099,56.33231 15.956,-6.72318 22.47488,-46.6444 14.56028,-80.68042 -5.09356,-21.83692 -15.22318,-39.74218 -26.62586,-47.06428 -2.88993,-2.24023 -6.55838,-3.58001 -10.56359,-3.58001 h -55.66718 z"
         style="opacity:1;fill:#646464;fill-opacity:1;stroke:none;stroke-width:8.6495657;stroke-linecap:round;stroke-linejoin:round;stroke-miterlimit:4;stroke-dasharray:none;stroke-opacity:1" />
      <circle
         r="7.3705359"
         cy="186.97113"
         cx="100"
         id="path4514-6-3"
         style="opacity:1;fill:#1d1d1d;fill-opacity:1;stroke:none;stroke-width:12.38249969;stroke-linecap:round;stroke-linejoin:round;stroke-miterlimit:4;stroke-dasharray:none;stroke-opacity:1" />
      <rect
         ry="1.5119059"
         y="172.20476"
         x="110.48883"
         height="7.9375"
         width="14.363094"
         id="rect4558"
         style="opacity:1;fill:#1d1d1d;fill-opacity:1;stroke:none;stroke-width:7.9375;stroke-linecap:round;stroke-linejoin:round;stroke-miterlimit:4;stroke-dasharray:none;stroke-opacity:1" />
      <rect
         ry="1.5119059"
         y="172.20476"
         x="75.148071"
         height="7.9375"
         width="14.363095"
         id="rect4558-5"
         style="opacity:1;fill:#1d1d1d;fill-opacity:1;stroke:none;stroke-width:7.9375;stroke-linecap:round;stroke-linejoin:round;stroke-miterlimit:4;stroke-dasharray:none;stroke-opacity:1" />
      <circle
         r="17.953869"
         cy="206.82738"
         cx="67.588547"
         id="path4575-6"
         style="opacity:1;fill:#505050;fill-opacity:1;stroke:none;stroke-width:9.08509064;stroke-linecap:round;stroke-linejoin:round;stroke-miterlimit:4;stroke-dasharray:none;stroke-opacity:1" />
      <circle
         r="11.150297"
         cy="206.82738"
         cx="67.588547"
         id="path4575-6-2"
         style="opacity:1;fill:#1d1d1d;fill-opacity:1;stroke:none;stroke-width:5.6423192;stroke-linecap:round;stroke-linejoin:round;stroke-miterlimit:4;stroke-dasharray:none;stroke-opacity:1" />
      <circle
         r="17.953869"
         cy="206.82738"
         cx="132.41145"
         id="path4575"
         style="opacity:1;fill:#505050;fill-opacity:1;stroke:none;stroke-width:9.08509064;stroke-linecap:round;stroke-linejoin:round;stroke-miterlimit:4;stroke-dasharray:none;stroke-opacity:1" />
      <circle
         r="11.150297"
         cy="206.82738"
         cx="132.41145"
         id="path4575-6-2-9"
         style="opacity:1;fill:#1d1d1d;fill-opacity:1;stroke:none;stroke-width:5.6423192;stroke-linecap:round;stroke-linejoin:round;stroke-miterlimit:4;stroke-dasharray:none;stroke-opacity:1" />
      <circle
         transform="rotate(45)"
         r="7.3705359"
         cy="-2.1670659"
         cx="216.25638"
         id="path4514-6"
         style="opacity:1;fill:#1d1d1d;fill-opacity:1;stroke:none;stroke-width:12.38249969;stroke-linecap:round;stroke-linejoin:round;stroke-miterlimit:4;stroke-dasharray:none;stroke-opacity:1" />
      <circle
         transform="rotate(45)"
         r="7.3705359"
         cy="16.542757"
         cx="234.9662"
         id="path4514-7"
         style="opacity:1;fill:#1d1d1d;fill-opacity:1;stroke:none;stroke-width:12.38249969;stroke-linecap:round;stroke-linejoin:round;stroke-miterlimit:4;stroke-dasharray:none;stroke-opacity:1" />
      <circle
         transform="rotate(45)"
         r="7.3705359"
         cy="16.542757"
         cx="216.25638"
         id="path4514"
         style="opacity:1;fill:#1d1d1d;fill-opacity:1;stroke:none;stroke-width:12.38249969;stroke-linecap:round;stroke-linejoin:round;stroke-miterlimit:4;stroke-dasharray:none;stroke-opacity:1" />
      <circle
         transform="rotate(45)"
         r="7.3705359"
         cy="-2.1670659"
         cx="234.9662"
         id="path4514-5"
         style="opacity:1;fill:#1d1d1d;fill-opacity:1;stroke:none;stroke-width:12.38249969;stroke-linecap:round;stroke-linejoin:round;stroke-miterlimit:4;stroke-dasharray:none;stroke-opacity:1" />
      <path
         sodipodi:nodetypes="cssssssc"
         inkscape:connector-curvature="0"
         id="rect4622-0"
         d="m 43.632481,160.38911 c 0,0 -5.43418,-6.0921 -5.43418,-6.60255 v -8.75302 c 0,-0.51044 0.41093,-0.92138 0.92136,-0.92138 h 9.02562 c 0.51045,0 0.92137,0.41094 0.92137,0.92138 v 8.75302 c 0,0.51045 -5.43417,6.60255 -5.43417,6.60255 z"
         style="opacity:1;fill:#1d1d1d;fill-opacity:1;stroke:none;stroke-width:6.92826939;stroke-linecap:round;stroke-linejoin:round;stroke-miterlimit:4;stroke-dasharray:none;stroke-opacity:1" />
      <path
         sodipodi:nodetypes="cssssssc"
         inkscape:connector-curvature="0"
         id="rect4622-9"
         d="m 43.632471,168.8386 c 0,0 5.43418,6.0921 5.43418,6.60255 v 8.75302 c 0,0.51044 -0.41092,0.92137 -0.92137,0.92137 h -9.02562 c -0.51043,0 -0.92136,-0.41093 -0.92136,-0.92137 v -8.75302 c 0,-0.51045 5.43417,-6.60255 5.43417,-6.60255 z"
         style="opacity:1;fill:#1d1d1d;fill-opacity:1;stroke:none;stroke-width:6.92826939;stroke-linecap:round;stroke-linejoin:round;stroke-miterlimit:4;stroke-dasharray:none;stroke-opacity:1" />
      <path
         sodipodi:nodetypes="cssssssc"
         inkscape:connector-curvature="0"
         id="rect4622"
         d="m 41.227879,164.61385 c 0,0 -6.09212,5.43416 -6.60256,5.43416 h -8.75303 c -0.51043,0 -0.92137,-0.41091 -0.92137,-0.92136 v -9.0256 c 0,-0.51046 0.41094,-0.92138 0.92137,-0.92138 h 8.75303 c 0.51044,0 6.60256,5.43416 6.60256,5.43418 z"
         style="opacity:1;fill:#1d1d1d;fill-opacity:1;stroke:none;stroke-width:6.92826939;stroke-linecap:round;stroke-linejoin:round;stroke-miterlimit:4;stroke-dasharray:none;stroke-opacity:1" />
      <path
         inkscape:transform-center-y="-1.9760654"
         inkscape:transform-center-x="1.2350436"
         sodipodi:nodetypes="cssssssc"
         inkscape:connector-curvature="0"
         id="rect4622-3"
         d="m 46.415049,164.61387 c 0,0 6.09212,-5.43419 6.60256,-5.43419 h 8.75303 c 0.51044,0 0.92137,0.41092 0.92137,0.92138 v 9.02561 c 0,0.51045 -0.41093,0.92137 -0.92137,0.92137 h -8.75303 c -0.51044,0 -6.60256,-5.43417 -6.60256,-5.43417 z"
         style="opacity:1;fill:#1d1d1d;fill-opacity:1;stroke:none;stroke-width:6.92826939;stroke-linecap:round;stroke-linejoin:round;stroke-miterlimit:4;stroke-dasharray:none;stroke-opacity:1" />
      <text
         id="text5017"
         y="127.95145"
         x="99.956703"
         style="font-style:normal;font-weight:normal;font-size:6.36275291px;line-height:3.97672057px;font-family:sans-serif;text-align:center;letter-spacing:0px;word-spacing:0px;text-anchor:middle;fill:#646464;fill-opacity:1;stroke:none;stroke-width:0.15906882px;stroke-linecap:butt;stroke-linejoin:miter;stroke-opacity:1"
         xml:space="preserve"><tspan
           style="font-style:normal;font-variant:normal;font-weight:normal;font-stretch:normal;font-family:'Concourse C6';-inkscape-font-specification:'Concourse C6';fill:#646464;fill-opacity:1;stroke-width:0.15906882px"
           y="127.95145"
           x="99.956703"
           id="tspan5015"
           sodipodi:role="line">TRIGGER</tspan></text>
      <path
         id="rect5027"
         d="m 75.989057,125.68249 v 0.66145 2.64584 h 0.661458 v -2.64584 h 7.011459 v -0.66145 h -7.011459 z"
         style="opacity:1;fill:#a4a4a4;fill-opacity:1;stroke:none;stroke-width:1.9633311;stroke-linecap:round;stroke-linejoin:round;stroke-miterlimit:4;stroke-dasharray:none;stroke-opacity:1"
         inkscape:connector-curvature="0" />
      <path
         id="rect5027-2"
         d="m 124.01094,125.68249 v 0.66146 2.64583 h -0.66146 v -2.64583 h -7.01146 v -0.66146 h 7.01146 z"
         style="opacity:1;fill:#a4a4a4;fill-opacity:1;stroke:none;stroke-width:1.9633311;stroke-linecap:round;stroke-linejoin:round;stroke-miterlimit:4;stroke-dasharray:none;stroke-opacity:1"
         inkscape:connector-curvature="0" />
      <path
         inkscape:connector-curvature="0"
         id="path5084"
         d="m 55.317466,204.2454 -4.435247,2.56069 4.508981,2.60327 z"
         style="fill:#1d1d1d;fill-opacity:1;fill-rule:evenodd;stroke:none;stroke-width:0.26458332px;stroke-linecap:butt;stroke-linejoin:miter;stroke-opacity:1" />
      <path
         inkscape:connector-curvature="0"
         id="path5084-7"
         d="m 79.859627,204.2454 4.435247,2.56069 -4.508981,2.60327 z"
         style="fill:#1d1d1d;fill-opacity:1;fill-rule:evenodd;stroke:none;stroke-width:0.26458332px;stroke-linecap:butt;stroke-linejoin:miter;stroke-opacity:1" />
      <path
         inkscape:connector-curvature="0"
         id="path5084-6"
         d="m 70.170524,194.55629 -2.56069,-4.43524 -2.60327,4.50898 z"
         style="fill:#1d1d1d;fill-opacity:1;fill-rule:evenodd;stroke:none;stroke-width:0.26458332px;stroke-linecap:butt;stroke-linejoin:miter;stroke-opacity:1" />
      <path
         inkscape:connector-curvature="0"
         id="path5084-7-1"
         d="m 70.170524,219.09846 -2.56069,4.43524 -2.60327,-4.50898 z"
         style="fill:#1d1d1d;fill-opacity:1;fill-rule:evenodd;stroke:none;stroke-width:0.26458332px;stroke-linecap:butt;stroke-linejoin:miter;stroke-opacity:1" />
      <path
         inkscape:connector-curvature="0"
         id="path5084-9"
         d="m 120.14037,204.2454 -4.43524,2.56069 4.50898,2.60327 z"
         style="fill:#1d1d1d;fill-opacity:1;fill-rule:evenodd;stroke:none;stroke-width:0.26458332px;stroke-linecap:butt;stroke-linejoin:miter;stroke-opacity:1" />
      <path
         inkscape:connector-curvature="0"
         id="path5084-7-3"
         d="m 144.68253,204.2454 4.43525,2.56069 -4.50898,2.60327 z"
         style="fill:#1d1d1d;fill-opacity:1;fill-rule:evenodd;stroke:none;stroke-width:0.26458332px;stroke-linecap:butt;stroke-linejoin:miter;stroke-opacity:1" />
      <path
         inkscape:connector-curvature="0"
         id="path5084-6-9"
         d="m 134.99343,194.55629 -2.56069,-4.43525 -2.60327,4.50898 z"
         style="fill:#1d1d1d;fill-opacity:1;fill-rule:evenodd;stroke:none;stroke-width:0.26458332px;stroke-linecap:butt;stroke-linejoin:miter;stroke-opacity:1" />
      <path
         inkscape:connector-curvature="0"
         id="path5084-7-1-4"
         d="m 134.99343,219.09845 -2.56069,4.43525 -2.60327,-4.50898 z"
         style="fill:#1d1d1d;fill-opacity:1;fill-rule:evenodd;stroke:none;stroke-width:0.26458332px;stroke-linecap:butt;stroke-linejoin:miter;stroke-opacity:1" />
    </g>
  </g>
</svg>
