<?xml version="1.0" encoding="UTF-8" standalone="no"?>
<!-- Created with Inkscape (http://www.inkscape.org/) -->

<svg
   width="148.20905mm"
   height="38.674129mm"
   viewBox="0 0 148.20905 38.674129"
   version="1.1"
   id="svg5"
   inkscape:version="1.2.2 (b0a8486541, 2022-12-01)"
   sodipodi:docname="logos.svg"
   xmlns:inkscape="http://www.inkscape.org/namespaces/inkscape"
   xmlns:sodipodi="http://sodipodi.sourceforge.net/DTD/sodipodi-0.dtd"
   xmlns="http://www.w3.org/2000/svg"
   xmlns:svg="http://www.w3.org/2000/svg">
  <sodipodi:namedview
     id="namedview7"
     pagecolor="#ffffff"
     bordercolor="#666666"
     borderopacity="1.0"
     inkscape:showpageshadow="2"
     inkscape:pageopacity="0.0"
     inkscape:pagecheckerboard="0"
     inkscape:deskcolor="#d1d1d1"
     inkscape:document-units="mm"
     showgrid="false"
     inkscape:zoom="0.67521168"
     inkscape:cx="541.31173"
     inkscape:cy="453.19121"
     inkscape:window-width="1916"
     inkscape:window-height="1029"
     inkscape:window-x="0"
     inkscape:window-y="25"
     inkscape:window-maximized="1"
     inkscape:current-layer="layer1" />
  <defs
     id="defs2" />
  <g
     inkscape:label="Layer 1"
     inkscape:groupmode="layer"
     id="layer1"
     transform="translate(-38.044301,-168.23163)">
    <path
       id="path11472"
       style="color:#000000;fill:#000000;stroke-linecap:round;stroke-linejoin:bevel;-inkscape-stroke:none;paint-order:markers stroke fill"
       d="m 49.954685,168.23163 c -6.581197,0 -11.910384,5.32917 -11.910384,11.91039 v 14.85335 c 0,6.58122 5.329187,11.91039 11.910384,11.91039 H 174.3414 c 6.58122,0 11.91194,-5.32917 11.91194,-11.91039 v -14.85335 c 0,-6.58122 -5.33072,-11.91039 -11.91194,-11.91039 z m 18.272787,3.41478 4.989359,24.13341 -24.464139,2.97191 4.868436,-6.77633 10.067086,-3.04167 -0.329696,-10.51099 z m -12.964067,5.18108 c 0.128022,-0.004 0.256533,-0.003 0.385506,10e-4 1.222007,0.0416 2.404245,0.44459 3.397209,1.15807 2.772788,1.99226 3.405565,5.85508 1.413351,8.6279 -1.992255,2.77279 -5.855081,3.40556 -8.627899,1.41335 -2.772787,-1.99226 -3.405563,-5.85508 -1.41335,-8.6279 1.129459,-1.57203 2.924851,-2.51809 4.845182,-2.57245 z m 34.261474,1.02474 h 15.954061 v 4.11707 h -5.587252 v 14.44718 H 95.112653 V 181.9693 H 89.52488 Z m 21.027141,0 h 7.38921 c 4.11719,0 7.02128,2.38921 7.02128,6.06527 0,2.31592 -1.47089,4.11722 -4.08089,4.85241 v 0.14728 l 5.66115,7.31532 v 0.18397 h -5.66115 l -5.07256,-7.16856 h -0.47801 v 7.16856 h -4.77903 z m 20.58582,0 h 4.77904 v 18.56425 h -4.77904 z m 16.98346,0 h 3.08818 l 8.12405,18.56425 h -5.07307 l -1.25005,-3.27164 h -6.65334 l -1.21337,3.27164 h -5.07307 z m 14.99857,0 h 4.77903 v 14.44667 h 7.24142 v 4.11758 h -12.02045 z m -47.78882,3.93361 v 4.22714 h 2.20555 c 1.32338,0 2.31614,-0.73533 2.31614,-2.09548 0,-1.36013 -1.0293,-2.13166 -2.42621,-2.13166 z m 34.22427,2.53628 -1.91151,5.33043 h 4.08037 l -1.94872,-5.33043 z m -73.56915,4.60851 3.293856,11.20552 -11.670605,0.45423 2.440678,-3.39721 4.388879,-0.53536 -0.893485,-4.32997 z m 4.376994,6.67401 2.376083,7.01714 -7.408334,-0.0129 1.537891,-2.14043 2.705261,-0.12093 -0.748791,-2.60242 z"
       inkscape:label="vertical black rounded" />
  </g>
</svg>
