<?xml version="1.0" encoding="UTF-8" standalone="no"?>
<!-- Created with Inkscape (http://www.inkscape.org/) -->

<svg
   width="150.06265mm"
   height="30.97537mm"
   viewBox="0 0 150.06265 30.97537"
   version="1.1"
   id="svg5"
   inkscape:version="1.2.2 (b0a8486541, 2022-12-01)"
   sodipodi:docname="logos.svg"
   xmlns:inkscape="http://www.inkscape.org/namespaces/inkscape"
   xmlns:sodipodi="http://sodipodi.sourceforge.net/DTD/sodipodi-0.dtd"
   xmlns="http://www.w3.org/2000/svg"
   xmlns:svg="http://www.w3.org/2000/svg">
  <sodipodi:namedview
     id="namedview7"
     pagecolor="#ffffff"
     bordercolor="#666666"
     borderopacity="1.0"
     inkscape:showpageshadow="2"
     inkscape:pageopacity="0.0"
     inkscape:pagecheckerboard="0"
     inkscape:deskcolor="#d1d1d1"
     inkscape:document-units="mm"
     showgrid="false"
     inkscape:zoom="0.67521168"
     inkscape:cx="541.31173"
     inkscape:cy="453.19121"
     inkscape:window-width="1916"
     inkscape:window-height="1029"
     inkscape:window-x="0"
     inkscape:window-y="25"
     inkscape:window-maximized="1"
     inkscape:current-layer="layer1" />
  <defs
     id="defs2" />
  <g
     inkscape:label="Layer 1"
     inkscape:groupmode="layer"
     id="layer1"
     transform="translate(-202.21103,-129.31308)">
    <path
       id="rect11560"
       style="fill:#000000;fill-opacity:1;stroke-width:2;stroke-linecap:round;stroke-linejoin:bevel;paint-order:markers stroke fill"
       d="m 221.6858,129.31308 -4.86895,6.77633 0.32969,10.51099 -10.06708,3.04167 -4.86844,6.77633 24.46414,-2.97191 z m 8.24136,0 13.54284,30.97537 h 108.8037 l -27.30118,-30.97537 z m -21.20543,5.18108 c -1.92032,0.0544 -3.71572,1.00041 -4.84518,2.57245 -1.99221,2.77282 -1.35943,6.63564 1.41335,8.6279 2.77282,1.99221 6.63564,1.35942 8.6279,-1.41335 1.99221,-2.77282 1.35944,-6.63564 -1.41335,-8.6279 -0.99297,-0.71348 -2.17521,-1.11649 -3.39721,-1.15807 -0.12897,-0.004 -0.25748,-0.005 -0.38551,-0.001 z m 34.26148,1.02474 h 15.95406 v 4.11706 h -5.58725 v 14.44718 h -4.77904 v -14.44718 h -5.58777 z m 21.02714,0 h 7.38921 c 2.57324,0 4.67276,0.93316 5.88543,2.5306 0.12127,0.15974 0.2333,0.32643 0.33642,0.49919 0.10311,0.17276 0.19697,0.35169 0.28111,0.53692 0.0842,0.18523 0.1589,0.37644 0.22325,0.57361 0.0643,0.19717 0.11854,0.40018 0.16226,0.60875 0.0437,0.20856 0.0769,0.4229 0.0992,0.64233 0.0223,0.21943 0.0336,0.44411 0.0336,0.67386 0,2.31592 -1.47089,4.11721 -4.08089,4.85242 v 0.14728 l 5.66115,7.31531 v 0.18397 h -5.66115 l -5.07256,-7.16855 h -0.478 v 7.16855 h -4.77904 z m 20.58582,0 h 4.77904 v 18.56424 h -4.77904 z m 16.98346,0 h 3.08819 l 8.12405,18.56424 h -5.07308 l -1.25005,-3.27163 h -6.65334 l -1.21336,3.27163 h -5.07308 z m 14.99857,0 h 4.77904 v 14.44666 h 7.24142 v 4.11758 H 316.5782 Z m -47.78881,3.93361 v 4.22713 h 2.20555 c 0.16542,0 0.32576,-0.0113 0.47955,-0.0341 0.1538,-0.0228 0.30122,-0.0567 0.4408,-0.10181 0.13959,-0.0451 0.27151,-0.10147 0.39429,-0.16846 0.61394,-0.33497 1.00149,-0.94101 1.00149,-1.79111 0,-0.59505 -0.19726,-1.07754 -0.53588,-1.43195 -0.0968,-0.10126 -0.20492,-0.19181 -0.3235,-0.27182 -0.17786,-0.12001 -0.37871,-0.2161 -0.59841,-0.28629 -0.14647,-0.0468 -0.30119,-0.0822 -0.46302,-0.10593 -0.16183,-0.0238 -0.33078,-0.0357 -0.50539,-0.0357 z m 34.22426,2.53628 -1.91151,5.33042 h 4.08037 l -1.94871,-5.33042 z m -73.56915,4.60851 -2.44068,3.3972 0.89349,4.32997 -4.38888,0.53537 -2.44068,3.39721 11.67061,-0.45424 z m 4.37699,6.67401 -1.53789,2.14043 0.7488,2.60243 -2.70527,0.12092 -1.53789,2.14044 7.40834,0.0129 z"
       inkscape:label="vertical mixed angled" />
  </g>
</svg>
